<svg xmlns="http://www.w3.org/2000/svg" viewBox="0 0 36 36">
	<path d="M 3,16 v-2 h30 v2 h-30 Z"  fill="#CCD6DD"/>
	<path d="M 3,23 v-2 h30 v2 h-30 Z"  fill="#CCD6DD"/>
	<path d="M 3,30 v-2 h30 v2 h-30 Z"  fill="#CCD6DD"/>
	<path d="M 3,9 v-2 h30 v2 h-30 Z"  fill="#CCD6DD"/>
	<path d="M 35,33 h-34 v-32 c 0,-0.552 0.448,-1 1,-1 h1 c 0.552,0 1,0.448 1,1 h28 c 0,-0.552 0.448,-1 1,-1 h1 c 0.552,0 1,0.448 1,1 v32 Z M 4,4 v29 h28 v-29 h-28 Z"   fill="#D5AB88"/>
	<path d="M 19,5.5 c 0.828,0 1.5,0.671 1.5,1.5 v2 c 0,0.829 -0.672,1.5 -1.5,1.5 c -0.829,0 -1.5,-0.671 -1.5,-1.5 c 0,0.829 -0.671,1.5 -1.5,1.5 s -1.5,-0.671 -1.5,-1.5 c 0,0.829 -0.671,1.5 -1.5,1.5 s -1.5,-0.671 -1.5,-1.5 c 0,0.829 -0.671,1.5 -1.5,1.5 s -1.5,-0.671 -1.5,-1.5 c 0,0.829 -0.671,1.5 -1.5,1.5 s -1.5,-0.671 -1.5,-1.5 v-2 c 0,-0.829 0.671,-1.5 1.5,-1.5 s 1.5,0.671 1.5,1.5 c 0,-0.829 0.671,-1.5 1.5,-1.5 s 1.5,0.671 1.5,1.5 c 0,-0.829 0.671,-1.5 1.5,-1.5 s 1.5,0.671 1.5,1.5 c 0,-0.829 0.671,-1.5 1.5,-1.5 s 1.5,0.671 1.5,1.5 c 0,-0.829 0.671,-1.5 1.5,-1.5 Z"  fill="#3B94D9"/>
	<path d="M 19,12.5 c 0.828,0 1.5,0.671 1.5,1.5 v2 c 0,0.829 -0.672,1.5 -1.5,1.5 c -0.829,0 -1.5,-0.671 -1.5,-1.5 c 0,0.829 -0.671,1.5 -1.5,1.5 s -1.5,-0.671 -1.5,-1.5 c 0,0.829 -0.671,1.5 -1.5,1.5 s -1.5,-0.671 -1.5,-1.5 c 0,0.829 -0.671,1.5 -1.5,1.5 s -1.5,-0.671 -1.5,-1.5 c 0,0.829 -0.671,1.5 -1.5,1.5 s -1.5,-0.671 -1.5,-1.5 v-2 c 0,-0.829 0.671,-1.5 1.5,-1.5 s 1.5,0.671 1.5,1.5 c 0,-0.829 0.671,-1.5 1.5,-1.5 s 1.5,0.671 1.5,1.5 c 0,-0.829 0.671,-1.5 1.5,-1.5 s 1.5,0.671 1.5,1.5 c 0,-0.829 0.671,-1.5 1.5,-1.5 s 1.5,0.671 1.5,1.5 c 0,-0.829 0.671,-1.5 1.5,-1.5 Z"  fill="#BE1931"/>
	<path d="M 19,19.5 c 0.828,0 1.5,0.672 1.5,1.5 v2 c 0,0.828 -0.672,1.5 -1.5,1.5 c -0.829,0 -1.5,-0.672 -1.5,-1.5 c 0,0.828 -0.671,1.5 -1.5,1.5 s -1.5,-0.672 -1.5,-1.5 c 0,0.828 -0.671,1.5 -1.5,1.5 s -1.5,-0.672 -1.5,-1.5 c 0,0.828 -0.671,1.5 -1.5,1.5 s -1.5,-0.672 -1.5,-1.5 c 0,0.828 -0.671,1.5 -1.5,1.5 s -1.5,-0.672 -1.5,-1.5 v-2 c 0,-0.828 0.671,-1.5 1.5,-1.5 s 1.5,0.672 1.5,1.5 c 0,-0.828 0.671,-1.5 1.5,-1.5 s 1.5,0.672 1.5,1.5 c 0,-0.828 0.671,-1.5 1.5,-1.5 s 1.5,0.672 1.5,1.5 c 0,-0.828 0.671,-1.5 1.5,-1.5 s 1.5,0.672 1.5,1.5 c 0,-0.828 0.671,-1.5 1.5,-1.5 Z"  fill="#5C913B"/>
	<path d="M 19,26.5 c 0.828,0 1.5,0.672 1.5,1.5 v2 c 0,0.828 -0.672,1.5 -1.5,1.5 c -0.829,0 -1.5,-0.672 -1.5,-1.5 c 0,0.828 -0.671,1.5 -1.5,1.5 s -1.5,-0.672 -1.5,-1.5 c 0,0.828 -0.671,1.5 -1.5,1.5 s -1.5,-0.672 -1.5,-1.5 c 0,0.828 -0.671,1.5 -1.5,1.5 s -1.5,-0.672 -1.5,-1.5 c 0,0.828 -0.671,1.5 -1.5,1.5 s -1.5,-0.672 -1.5,-1.5 v-2 c 0,-0.828 0.671,-1.5 1.5,-1.5 s 1.5,0.672 1.5,1.5 c 0,-0.828 0.671,-1.5 1.5,-1.5 s 1.5,0.672 1.5,1.5 c 0,-0.828 0.671,-1.5 1.5,-1.5 s 1.5,0.672 1.5,1.5 c 0,-0.828 0.671,-1.5 1.5,-1.5 s 1.5,0.672 1.5,1.5 c 0,-0.828 0.671,-1.5 1.5,-1.5 Z"  fill="#FFAC33"/>
	<rect x="27.5" y="5.5" width="3" height="5" rx="1.5"  fill="#3B94D9"/>
	<rect x="27.5" y="12.5" width="3" height="5" rx="1.5"  fill="#BE1931"/>
	<rect x="27.5" y="19.5" width="3" height="5" rx="1.5"  fill="#5C913B"/>
	<rect x="27.5" y="26.5" width="3" height="5" rx="1.5"  fill="#FFAC33"/>
	<rect x="0" y="33" width="36" height="3" rx="1"  fill="#BF6952"/>
	</svg>
