<svg xmlns="http://www.w3.org/2000/svg" viewBox="0 0 36 36">
	<g fill="#CCD6DD">
		<rect x="3" y="7" width="30" height="2"/>
		<rect x="3" y="14" width="30" height="2"/>
		<rect x="3" y="21" width="30" height="2"/>
		<rect x="3" y="28" width="30" height="2"/>
	</g>
	<g fill="#D5AB88">
		<rect x="1" y="0" width="3" height="35" rx="1"/>
		<rect x="32" y="0" width="3" height="35" rx="1"/>
		<rect x="2" y="1" width="32" height="3"/>
	</g>
	<rect fill="#BF6952" x="0" y="33" width="36" height="3" rx="1"/>
	<g fill="#3B94D9">
		<rect x="5.5" y="5.5" width="3" height="5" rx="1.5"/>
		<rect x="8.5" y="5.5" width="3" height="5" rx="1.5"/>
		<rect x="11.5" y="5.5" width="3" height="5" rx="1.5"/>
		<rect x="14.5" y="5.5" width="3" height="5" rx="1.5"/>
		<rect x="17.5" y="5.5" width="3" height="5" rx="1.5"/>
		<rect x="27.5" y="5.5" width="3" height="5" rx="1.5"/>
	</g>
	
	<g fill="#BE1931">
		<rect x="5.5" y="12.5" width="3" height="5" rx="1.5"/>
		<rect x="8.5" y="12.5" width="3" height="5" rx="1.5"/>
		<rect x="11.5" y="12.5" width="3" height="5" rx="1.5"/>
		<rect x="14.5" y="12.5" width="3" height="5" rx="1.5"/>
		<rect x="17.5" y="12.5" width="3" height="5" rx="1.5"/>
		<rect x="27.5" y="12.5" width="3" height="5" rx="1.5"/>
	</g>
	
	<g fill="#5C913B">
		<rect x="5.5" y="19.5" width="3" height="5" rx="1.5"/>
		<rect x="8.5" y="19.5" width="3" height="5" rx="1.5"/>
		<rect x="11.5" y="19.5" width="3" height="5" rx="1.5"/>
		<rect x="14.5" y="19.5" width="3" height="5" rx="1.5"/>
		<rect x="17.5" y="19.5" width="3" height="5" rx="1.5"/>
		<rect x="27.5" y="19.5" width="3" height="5" rx="1.5"/>
	</g>
	
	<g fill="#FFAC33">
		<rect x="5.5" y="26.5" width="3" height="5" rx="1.5"/>
		<rect x="8.5" y="26.5" width="3" height="5" rx="1.5"/>
		<rect x="11.5" y="26.5" width="3" height="5" rx="1.5"/>
		<rect x="14.5" y="26.5" width="3" height="5" rx="1.5"/>
		<rect x="17.5" y="26.5" width="3" height="5" rx="1.5"/>
		<rect x="27.5" y="26.5" width="3" height="5" rx="1.5"/>
	</g>
	
</svg>
