<svg xmlns="http://www.w3.org/2000/svg" viewBox="0 0 36 36">
	<rect x="0" y="0" width="36" height="36" rx="4"  fill="#DD2E44"/>
	<path d="M 7.15,10.072 c 0.476,-1.288 1.567,-2.324 2.996,-2.324 c 1.483,0 2.52,0.979 2.996,2.324 l 5.488,15.231 c 0.168,0.448 0.224,0.84 0.224,1.036 c 0,1.092 -0.896,1.848 -1.932,1.848 c -1.177,0 -1.765,-0.616 -2.044,-1.456 l -0.878,-2.731 h-7.72 l -0.866,2.703 c -0.28,0.868 -0.868,1.484 -2.016,1.484 c -1.12,0 -2.072,-0.84 -2.072,-1.96 c 0,-0.448 0.14,-0.784 0.196,-0.924 l 5.628,-15.231 Z M 7.458,20.235 h5.32 l -2.604,-8.119 h-0.056 l -2.66,8.119 Z"   fill="#FFF"/>
	<path d="M 20,10.1 c 0,-1.344 0.924,-2.1 2.212,-2.1 h5.376 c 2.912,0 5.265,1.96 5.265,4.928 c 0,1.96 -0.812,3.276 -2.605,4.116 v0.056 c 2.38,0.336 4.256,2.424 4.256,4.859 c 0,3.948 -2.632,6.041 -6.496,6.041 h-5.768 c -1.288,0 -2.24,-0.876 -2.24,-2.192 v-15.708 Z M 24.2,16 h2.184 c 1.372,0 2.268,-0.815 2.268,-2.216 c 0,-1.315 -1.036,-2.088 -2.268,-2.088 h-2.184 v4.304 Z M 24.2,24 h3.304 c 1.513,0 2.632,-0.729 2.632,-2.296 c 0,-1.315 -1.008,-2.112 -2.968,-2.112 h-2.968 v4.408 Z"   fill="#FFF"/>
</svg>
