<svg xmlns="http://www.w3.org/2000/svg" viewBox="0 0 36 36">
	<defs>
		<path id="fold1" d="M 0,0 c 0,-0.55041 0.43623,-1.01476 0.986,-1.0326 l 23.99138,-0.64594 c 0.54942,-0.01746 1.02262,0.73772 1.02262,1.67854 s -0.4732,1.696 -1.02262,1.67854 l -23.99138,-0.64594 c -0.54977,-0.01784 -0.986,-0.48219 -0.986,-1.0326 Z"/>
	</defs>
	<g>
		<use href="#fold1" transform="translate(17.483,30.971) rotate(-95.067) scale(1.04465)" fill="#FFE8B6"/>
		<use href="#fold1" transform="translate(21.682,30.825) rotate(-88.89667) scale(1.04465)" fill="#FFE8B6"/>
		<use href="#fold1" transform="translate(25.867,31.131) rotate(-82.73448) scale(1.04465)" fill="#FFE8B6"/>
		<use href="#fold1" transform="translate(19.582,30.841) rotate(-91.97915) scale(1.04465)" fill="#D99E82"/>
		<use href="#fold1" transform="translate(23.779,30.922) rotate(-85.81324) scale(1.04465)" fill="#D99E82"/>
		<!--
		<path d="M 17.483,30.971 c -0.574,0.051 -1.099,-0.36 -1.168,-0.93 l -2.888,-24.905 c -0.069,-0.57 0.676,-1.133 1.657,-1.22 s 1.811,0.336 1.844,0.909 l 1.541,25.024 c 0.031,0.574 -0.412,1.07 -0.986,1.122 Z"  fill="#FFE8B6"/>
		<path d="M 21.682,30.825 c -0.574,-0.011 -1.051,-0.476 -1.058,-1.051 l -0.192,-25.071 c -0.007,-0.574 0.791,-1.054 1.773,-1.034 c 0.982,0.019 1.76,0.528 1.731,1.102 l -1.157,25.045 c -0.029,0.574 -0.522,1.02 -1.097,1.009 Z"  fill="#FFE8B6"/>
		<path d="M 25.867,31.131 c -0.57,-0.073 -0.993,-0.586 -0.939,-1.158 l 2.501,-24.947 c 0.054,-0.572 0.899,-0.963 1.873,-0.838 c 0.974,0.124 1.694,0.714 1.603,1.281 l -3.839,24.776 c -0.091,0.568 -0.629,0.959 -1.199,0.886 Z"  fill="#FFE8B6"/>
		<path d="M 19.582,30.841 c -0.575,0.02 -1.076,-0.419 -1.114,-0.992 l -1.541,-25.024 c -0.038,-0.573 0.734,-1.095 1.717,-1.128 c 0.983,-0.034 1.788,0.433 1.789,1.007 l 0.192,25.071 c 0.001,0.574 -0.468,1.046 -1.043,1.066 Z"  fill="#D99E82"/>
		<path d="M 23.779,30.922 c -0.573,-0.042 -1.023,-0.532 -0.999,-1.106 l 1.157,-25.045 c 0.024,-0.574 0.846,-1.01 1.825,-0.938 c 0.979,0.071 1.729,0.622 1.669,1.193 l -2.501,24.947 c -0.062,0.572 -0.579,0.991 -1.151,0.949 Z"  fill="#D99E82"/>
		-->
	</g>
	<g transform="translate(31.33,18.301) scale(1.04465) rotate(8.74984) translate(-2.5 -13)">
		<!--		<path d="M 29.781,31.803 l -1.033,-0.159 c -1.136,-0.175 -1.922,-1.247 -1.747,-2.383 l 3.495,-22.715 c 0.175,-1.136 1.247,-1.922 2.383,-1.747 l 1.033,0.159 c 1.136,0.175 1.922,1.247 1.747,2.383 l -3.495,22.715 c -0.175,1.136 -1.248,1.922 -2.383,1.747 Z"  fill="#BE1931"/>
			<circle fill="#F5F8FA" cx="33.276" cy="9.088" r="1.045"/>
			<circle fill="#F5F8FA" cx="33.276" cy="9.088" r="1.045"/>
			<circle fill="#F5F8FA" cx="32.799" cy="12.186" r="1.045"/>
			<circle fill="#F5F8FA" cx="32.322" cy="15.283" r="1.045"/>
			<circle fill="#F5F8FA" cx="31.846" cy="18.381" r="1.045"/>
			<circle fill="#F5F8FA" cx="31.369" cy="21.478" r="1.045"/>
			<circle fill="#F5F8FA" cx="30.893" cy="24.576" r="1.045"/>
			<circle fill="#F5F8FA" cx="30.416" cy="27.673" r="1.045"/>-->
		<rect width="5" height="26" rx="2" fill="#BE1931"/>
		<g fill="#F5F8FA">
			<circle cx="3" cy="4" r="1"/>
			<!--<circle cx="3" cy="4" r="1"/>-->
			<circle cx="3" cy="7" r="1"/>
			<circle cx="3" cy="10" r="1"/>
			<circle cx="3" cy="13" r="1"/>
			<circle cx="3" cy="16" r="1"/>
			<circle cx="3" cy="19" r="1"/>
			<circle cx="3" cy="22" r="1"/>
		</g>
	</g>
	<g transform="translate(8.3805 18.292) rotate(-6.511) scale(1.04465)">
		<rect width="13" height="26" rx="2" x="-6.5" y="-13" fill="#BE1931"/>
		<rect width="7" height="2" rx="0.83056" x="-5.5" y="-12" fill="#F5F8FA"/>
		<rect width="7" height="2" rx="0.83056" x="-5.5" y="-9" fill="#F5F8FA"/>
		<rect width="7" height="2" rx="0.83056" x="-5.5" y="-6" fill="#F5F8FA"/>
		<rect width="7" height="2" rx="0.83056" x="-5.5" y="-3" fill="#F5F8FA"/>
		<rect width="7" height="2" rx="0.83056" x="-5.5" y="0" fill="#F5F8FA"/>
		<rect width="7" height="2" rx="0.83056" x="-5.5" y="3" fill="#F5F8FA"/>
		<rect width="7" height="2" rx="0.83056" x="-5.5" y="6" fill="#F5F8FA"/>
		<rect width="7" height="2" rx="0.83056" x="-5.5" y="9" fill="#F5F8FA"/>
		<rect width="4" height="2" rx="0.83056" x="-2.5" y="-11" fill="#292F33"/>
		<rect width="4" height="2" rx="0.83056" x="-2.5" y="-8" fill="#292F33"/>
		<rect width="4" height="2" rx="0.83056" x="-2.5" y="-2" fill="#292F33"/>
		<rect width="4" height="2" rx="0.83056" x="-2.5" y="1" fill="#292F33"/>
		<rect width="4" height="2" rx="0.83056" x="-2.5" y="4" fill="#292F33"/>
		<rect width="4" height="2" rx="0.83056" x="-2.5" y="10" fill="#292F33"/>
		<rect width="3" height="1" rx="0.41513" ry="0.41522" x="2.5" y="-12" fill="#A0041E"/>
		<rect width="3" height="1" rx="0.41513" ry="0.41522" x="2.5" y="-10" fill="#A0041E"/>
		<rect width="3" height="1" rx="0.41513" ry="0.41522" x="2.5" y="-8" fill="#A0041E"/>
		<rect width="3" height="1" rx="0.41513" ry="0.41522" x="2.5" y="-6" fill="#A0041E"/>
		<rect width="3" height="1" rx="0.41513" ry="0.41522" x="2.5" y="-4" fill="#A0041E"/>
		<rect width="3" height="1" rx="0.41513" ry="0.41522" x="2.5" y="-2" fill="#A0041E"/>
		<rect width="3" height="1" rx="0.41513" ry="0.41522" x="2.5" y="0" fill="#A0041E"/>
		<rect width="3" height="1" rx="0.41513" ry="0.41522" x="2.5" y="2" fill="#A0041E"/>
		<rect width="3" height="1" rx="0.41513" ry="0.41522" x="2.5" y="4" fill="#A0041E"/>
		<rect width="3" height="1" rx="0.41513" ry="0.41522" x="2.5" y="6" fill="#A0041E"/>
		<rect width="3" height="1" rx="0.41513" ry="0.41522" x="2.5" y="8" fill="#A0041E"/>
		<rect width="3" height="1" rx="0.41513" ry="0.41522" x="2.5" y="10" fill="#A0041E"/>
	</g>
</svg>
