<svg xmlns="http://www.w3.org/2000/svg" viewBox="0 0 36 36">
	<defs>
		<path id="fold1" d="M 0,0 c 0,-0.55041 0.43623,-1.01476 0.986,-1.0326 l 23.99138,-0.64594 c 0.54942,-0.01746 1.02262,0.73772 1.02262,1.67854 s -0.4732,1.696 -1.02262,1.67854 l -23.99138,-0.64594 c -0.54977,-0.01784 -0.986,-0.48219 -0.986,-1.0326 Z"/>
	</defs>
	<g>
		<use href="#fold1" transform="translate(17.483,30.971) rotate(-95.067) scale(1.04465)" fill="#FFE8B6"/>
		<use href="#fold1" transform="translate(21.682,30.825) rotate(-88.89667) scale(1.04465)" fill="#FFE8B6"/>
		<use href="#fold1" transform="translate(25.867,31.131) rotate(-82.73448) scale(1.04465)" fill="#FFE8B6"/>
		<use href="#fold1" transform="translate(19.582,30.841) rotate(-91.97915) scale(1.04465)" fill="#D99E82"/>
		<use href="#fold1" transform="translate(23.779,30.922) rotate(-85.81324) scale(1.04465)" fill="#D99E82"/>
	</g>
	<g transform="translate(31.33,18.301) rotate(8.74984) scale(1.04465) translate(-2.5 -13)">
		<rect width="5" height="26" rx="2" fill="#BE1931"/>
		<g fill="#F5F8FA">
			<circle cx="3" cy="4" r="1"/>
			<!--<circle cx="3" cy="4" r="1"/>-->
			<circle cx="3" cy="7" r="1"/>
			<circle cx="3" cy="10" r="1"/>
			<circle cx="3" cy="13" r="1"/>
			<circle cx="3" cy="16" r="1"/>
			<circle cx="3" cy="19" r="1"/>
			<circle cx="3" cy="22" r="1"/>
		</g>
	</g>
	<g transform="translate(8.3805 18.292) rotate(-6.511) scale(1.04465)">
		<rect width="13" height="26" rx="2" x="-6.5" y="-13" fill="#BE1931"/>
		<g fill="#A0041E">
			<rect width="3" height="1" rx="0.41522" x="2.5" y="-12"/>
			<rect width="3" height="1" rx="0.41522" x="2.5" y="-10"/>
			<rect width="3" height="1" rx="0.41522" x="2.5" y="-8"/>
			<rect width="3" height="1" rx="0.41522" x="2.5" y="-6"/>
			<rect width="3" height="1" rx="0.41522" x="2.5" y="-4"/>
			<rect width="3" height="1" rx="0.41522" x="2.5" y="-2"/>
			<rect width="3" height="1" rx="0.41522" x="2.5" y="0"/>
			<rect width="3" height="1" rx="0.41522" x="2.5" y="2"/>
			<rect width="3" height="1" rx="0.41522" x="2.5" y="4"/>
			<rect width="3" height="1" rx="0.41522" x="2.5" y="6"/>
			<rect width="3" height="1" rx="0.41522" x="2.5" y="8"/>
			<rect width="3" height="1" rx="0.41522" x="2.5" y="10"/>
		</g>
		<g fill="#F5F8FA">
			<rect width="7" height="2" rx="0.83056" x="-5.5" y="-12"/>
			<rect width="7" height="2" rx="0.83056" x="-5.5" y="-9"/>
			<rect width="7" height="2" rx="0.83056" x="-5.5" y="-6"/>
			<rect width="7" height="2" rx="0.83056" x="-5.5" y="-3"/>
			<rect width="7" height="2" rx="0.83056" x="-5.5" y="0"/>
			<rect width="7" height="2" rx="0.83056" x="-5.5" y="3"/>
			<rect width="7" height="2" rx="0.83056" x="-5.5" y="6"/>
			<rect width="7" height="2" rx="0.83056" x="-5.5" y="9"/>
		</g>
		<g fill="#292F33">
			<rect width="4" height="2" rx="0.83056" x="-2.5" y="-11"/>
			<rect width="4" height="2" rx="0.83056" x="-2.5" y="-8"/>
			<rect width="4" height="2" rx="0.83056" x="-2.5" y="-2"/>
			<rect width="4" height="2" rx="0.83056" x="-2.5" y="1"/>
			<rect width="4" height="2" rx="0.83056" x="-2.5" y="4"/>
			<rect width="4" height="2" rx="0.83056" x="-2.5" y="10"/>
		</g>
	</g>
</svg>
