<svg xmlns="http://www.w3.org/2000/svg" viewBox="0 0 36 36">
	<g>
		<rect width="4" x="-2" height="6" y="-3" rx="1" transform="translate(15 6) rotate(45)" fill="#66757f"/>
		<rect width="4" x="-2" height="6" y="-3" rx="1" transform="translate(30 21) rotate(45)" fill="#66757f"/>
		this wing had some strange asymmetry before
		<path d="M 21,15 s -13.478,-4.208 -17,-5.1 c -4,-1 -3,-3.862 0,-3.862 s 25,0.962 25,0.962 s 0.962,22 0.962,25 s -2.862,4 -3.862,0 c -0.892,-3.522 -5.1,-17 -5.1,-17 Z" fill="#55acee"/>
	</g>
	<g>
		<path d="M 2,22 c 2,0 11,1 11,1 s 1,9 1,11 s -2,2 -3,1 s -4,-6 -4,-6 s -5,-3 -6,-4 s -1,-3 1,-3 Z" fill="#55acee"/>
	</g>
	<g>
		<path d="M 27,3 c 2,-2 7,-3 8,-2 s 0,6 -2,8 s -19,18 -19,18 s -6.5,4.5 -8,3 s 3,-8 3,-8 s 16,-17 18,-19 Z" fill="#ccd6dd"/>
		<path d="M 32,7 a 3,3 0 00 -3,-3 v-0.805 c 0.315,-0.114 0.645,-0.195 1,-0.195 a 3,3 0 01 3,3 c 0,0.355 -0.081,0.685 -0.195,1 h-0.805 Z" fill="#66757f"/>
	</g>
	<g>
		<path d="M 14,22 s 0.5,0.5 -4,5 s -5,4 -5,4 s -0.5,-0.5 4,-5 s 5,-4 5,-4 Z" fill="#66757f"/>
	</g>
</svg>
