<svg xmlns="http://www.w3.org/2000/svg" viewBox="0 0 36 36">
	<!-- weird distortions... -->
	
	<path d="M 8.5137,35.841 a 1.5,1.5 0 01 -0.666,-2.028 l 8.94,-18.126 a 1.5,1.5 0 01 1.333,-0.835 a 1.5,1.5 0 01 1.332,0.835 l 8.942,18.126 a 1.5,1.5 0 01 -0.666,2.028 a 1.5,1.5 0 01 -1.999,-0.676 l -7.609,-15.425 l -7.608,15.425 a 1.5,1.5 0 01 -1.999,0.676 Z" fill="#ffac33"/>
	
	<path d="M 17.4191,20.0966 l -13.907,-14.099 a 1,1 0 01 1.404,-1.424 l 13.205,13.386 l 13.203,-13.386 a 1,1 0 01 1.405,1.424 l -13.905,14.099 a 1,1 0 01 -1.405,0 Z" fill="#66757F"/>
	<path d="M 30.04,1.2573 a 5.96,6.042 0 01 5.96,6.042 a 5.96,6.042 0 01  -1.745,4.272 l -8.429,-8.544 a 5.96,6.042 0 01 4.214,-1.77 Z" fill="#ffcc4d"/>
	<path d="M 5.96,1.2573 a 5.96,6.042 0 01  4.214,1.77 l -8.429,8.544 a 5.96,6.042 0 01  -1.745,-4.272 a 5.96,6.042 0 01 5.96,-6.042 Z" fill="#ffcc4d"/>
	
	<rect width="4" height="8.056" rx="2" ry="2.014" x="16" y="0" fill="#ffcc4d"/>
	
	<ellipse rx="15.8935" ry="16.112" cx="18.121" cy="19.384" fill="#dd2e44"/>
	<ellipse rx="11.9195" ry="12.0845" cx="18.121" cy="19.384" fill="#E1E8ED"/> or maybe should be #F5F8FA
	
	<path d="M 18,10 L 18,19 L 23,19" stroke="#292F33" fill="none" stroke-width="2" stroke-linecap="round" stroke-linejoin="round"/>
</svg>
