<svg xmlns="http://www.w3.org/2000/svg" viewBox="0 0 36 36">
	<path d="M 7.754,7.754 
C 11.44,4.068 16.37,1.64 21.335,0.843 
L 24.472,0.564 
C 27.634,0.51 30.707,1.152 33.369,2.631 
C 34.848,5.293 35.49,8.366 35.437,11.528 
L 35.157,14.665 
C 34.36,19.63 31.932,24.56 28.246,28.246 
C 24.56,31.932 19.63,34.36 14.665,35.157 
L 11.529,35.436
C 8.367,35.49 5.293,34.848 2.631,33.369
C 1.152,30.707 0.51,27.633 0.564,24.472
L 0.843,21.335 
C 1.64,16.37 4.068,11.44 7.754,7.754 
Z"   fill="#662113"/>
	<path d="M 0.564,24.472 c 0.018,-1.041 0.111,-2.088 0.279,-3.137 l 13.822,13.823 c -1.048,0.168 -2.096,0.261 -3.136,0.279 l -10.965,-10.965 Z"  fill="#E1E8ED"/>
	<path d="M 24.472,0.564 l 10.965,10.965 c -0.018,1.04 -0.111,2.087 -0.279,3.136 l -13.822,-13.822 c 1.048,-0.168 2.096,-0.261 3.136,-0.279 Z"  fill="#E1E8ED"/>
	<path d="M 22.828,11.757 l -0.708,-0.706 a 1,1 0 01 1.414,-1.414 l 0.707,0.707 l 1,-1 a 1,1 0 01 1.415,1.414 l -1,1 l 0.707,0.707 a 1,1 0 01 -1.414,1.414 l -0.707,-0.707 l -2.414,2.414 l 0.707,0.707 a 1,1 0 01 -1.414,1.414 l -0.707,-0.707 l -3.414,3.414 l 0.707,0.708 a 1,1 0 01 -1.414,1.414 l -0.707,-0.707 l -2.414,2.414 l 0.707,0.707 a 1,1 0 01 -1.414,1.414 l -0.707,-0.707 l -1,1 a 1,1 0 01 -1.414,-1.415 l 1,-1 l -0.707,-0.707 a 1,1 0 01 1.414,-1.414 l 0.707,0.707 l 2.414,-2.414 l -0.707,-0.707 a 1,1 0 01 1.414,-1.414 l 0.707,0.707 l 3.414,-3.414 l -0.707,-0.708 a 1,1 0 01 1.414,-1.414 l 0.707,0.707 l 2.414,-2.414 Z" fill="#E1E8ED"/>
</svg>
