<svg xmlns="http://www.w3.org/2000/svg" viewBox="0 0 36 36">
	<defs>
		<clipPath id="ball2">
			<path d="M 2.631,33.369 c -4.27,-7.684 -1.708,-18.784 5.123,-25.615 s 17.931,-9.393 25.615,-5.123 c 4.27,7.684 1.708,18.784 -5.123,25.615 s -17.931,9.393 -25.615,5.123 Z"/>
		</clipPath>
	</defs>
	
	<g clip-path="url(#ball2)">
		<!-- ball -->
		<rect width="36" height="36" fill="#662113"/>
		<!-- stripes -->
		<path fill="#E1E8ED" d="M 15.439,39.3467 l -18.785,-18.785 l 1.707,-1.708 l 18.786,18.785 l -1.708,1.708 Z"/>
		<path fill="#E1E8ED" d="M 37.6387,17.1465 l -18.785,-18.785 l 1.708,-1.708 l 18.785,18.785 l -1.708,1.708 Z"/>
	</g>
	<!-- stitches -->
	<g stroke-width="2" stroke-linecap="round" stroke="#E1E8ED" fill="none">
		<path d="M 10.05,25.95 l 15.9,-15.9"/>
		<path d="M 10.343,22.828 l 2.828,2.829"/>
		<path d="M 14.171,19 l 2.829,2.828"/>
		<path d="M 19,14.171 l 2.828,2.829"/>
		<path d="M 22.828,10.343 l 2.829,2.828"/>
	</g>
</svg>
