<svg xmlns="http://www.w3.org/2000/svg" viewBox="0 -36 36 36">
	<defs>
		<clipPath id="clipPath44">
			<path d="M 17.659,-33 h-4.114 c 1.028,1 -1.029,5.186 -2.057,6.214 v0 c -1.028,1.029 -6.171,2.079 -6.171,8.25 v0 c 0,6.171 8.228,13.381 9.256,15.437 v0 c 1.029,1.029 3.086,1.033 3.086,1.033 v0 s 2.056,0.003 3.085,-1.025 v0 c 1.029,-2.056 9.256,-9.276 9.256,-15.446 v0 c 0,-6.171 -5.143,-7.22 -6.171,-8.249 v0 c -1.028,-1.028 -3.085,-5.214 -2.056,-6.214 v0 h-4.114 Z"  />
		</clipPath>
	</defs>
	<g transform="translate(0.313 0) translate(11.5747,-23.8018)">
		<path d="M 0,0 c -1.083,0.411 -2.459,-0.573 -3.076,-2.197 c -0.615,-1.623 -0.237,-3.272 0.846,-3.683 c 1.082,-0.411 2.459,0.573 3.075,2.196 c 0.616,1.624 0.237,3.273 -0.845,3.684 Z M 2.731,-4.399 c -1.209,-3.186 -3.911,-5.117 -6.035,-4.311 s -2.866,4.042 -1.658,7.229 c 1.209,3.186 3.911,5.116 6.035,4.31 s 2.866,-4.042 1.658,-7.228 Z"  fill="#c1694f" />
	</g>
	<g transform="translate(26.5049,-25.999)">
		<path d="M 0,0 c -0.616,1.624 -1.992,2.608 -3.075,2.197 c -1.081,-0.411 -1.461,-2.06 -0.844,-3.684 c 0.616,-1.623 1.992,-2.607 3.074,-2.196 s 1.462,2.059 0.845,3.683 Z M 0.229,-6.513 c -2.124,-0.805 -4.827,1.125 -6.036,4.311 c -1.208,3.186 -0.465,6.423 1.659,7.228 c 2.125,0.807 4.827,-1.124 6.035,-4.31 c 1.209,-3.187 0.467,-6.423 -1.658,-7.229 Z"  fill="#c1694f" />
	</g>
	<g transform="translate(16.6299,-4.2529)">
		<path d="M 0,0 h1.029 s 2.057,4.17 -0.086,4.17 s -6.085,-0.113 -6.085,-1.143 c 0,-2.056 3.085,-3.027 5.142,-3.027 Z" fill="#272b2b" />
	</g>
	<g transform="translate(18.5464,-4.2529)">
		<path d="M 0,0 c 2.057,0 5.142,0.971 5.142,3.027 c 0,1.03 -3.941,1.143 -6.084,1.143 s -0.086,-4.17 -0.086,-4.17 h1.028 Z" fill="#272b2b" />
	</g>
	<g transform="translate(23.8291,-26.7856)">
		<path d="M 0,0 c 1.028,1.028 6.171,2.078 6.171,8.248 s -8.228,13.39 -9.256,15.447 c -1.028,1.028 -3.085,1.025 -3.085,1.025 s -2.058,-0.005 -3.086,-1.033 c -1.028,-2.057 -9.256,-9.267 -9.256,-15.437 c 0,-6.171 5.142,-7.222 6.171,-8.25 c 1.028,-1.028 3.085,-5.214 2.057,-6.214 h4.114 h4.113 c -1.028,1 1.029,5.186 2.057,6.214 Z" fill="#c1694f" />
	</g>
	<g clip-path="url(#clipPath44)">
		<path d="M 32,-14 h-28 v-10 h28 v10 Z" fill="#272b2b" />
	</g>
	<g transform="translate(17.6587,-31.6421)">
		<path d="M 0,0 h-0.141 s -2.057,-4.149 0.087,-4.149 c 2.142,0 6.084,0.135 6.084,1.164 c 0,2.057 -3.973,2.985 -6.03,2.985 Z" fill="#272b2b" />
	</g>
	<g transform="translate(17.6587,-31.6421)">
		<path d="M 0,0 c -2.057,0 -6.03,-0.928 -6.03,-2.985 c 0,-1.029 3.942,-1.164 6.084,-1.164 c 2.144,0 0.087,4.149 0.087,4.149 h-0.141 Z" fill="#272b2b" />
	</g>
	<g transform="translate(13.0308,-16)">
		<path d="M 0,0 h-2.571 c -0.285,0 -0.514,-0.216 -0.514,-0.5 s 0.229,-0.5 0.514,-0.5 h2.54 v-4 h-4 v1 h2.488 c 0.284,0 0.514,0.216 0.514,0.5 s -0.23,0.5 -0.514,0.5 h-2.425 c -0.542,0 -1.063,-0.146 -1.063,-0.771 v-1.314 c 0,-0.727 0.604,-0.915 0.888,-0.915 h4.143 c 0.699,0 0.969,0.479 0.969,0.915 v4.113 c 0,0.618 -0.458,0.972 -0.969,0.972 Z" fill="#c1694f" />
	</g>
	<g transform="translate(27.0313,-16)">
		<path d="M 0,0 h-2.572 c -0.283,0 -0.514,-0.216 -0.514,-0.5 s 0.231,-0.5 0.514,-0.5 h2.541 v-4 h-4 v1 h2.488 c 0.283,0 0.514,0.216 0.514,0.5 s -0.231,0.5 -0.514,0.5 h-2.426 c -0.541,0 -1.062,-0.146 -1.062,-0.771 v-1.314 c 0,-0.727 0.603,-0.915 0.888,-0.915 h4.143 c 0.698,0 0.969,0.479 0.969,0.915 v4.113 c 0,0.618 -0.458,0.972 -0.969,0.972 Z" fill="#c1694f" />
	</g>
	<g transform="translate(20.0313,-16)">
		<path d="M 0,0 h-2.572 c -0.283,0 -0.514,-0.216 -0.514,-0.5 s 0.231,-0.5 0.514,-0.5 h2.541 v-4 h-4 v1 h2.488 c 0.283,0 0.514,0.216 0.514,0.5 s -0.231,0.5 -0.514,0.5 h-2.426 c -0.541,0 -1.062,-0.146 -1.062,-0.771 v-1.314 c 0,-0.727 0.603,-0.915 0.888,-0.915 h4.143 c 0.698,0 0.969,0.479 0.969,0.915 v4.113 c 0,0.618 -0.458,0.972 -0.969,0.972 Z" fill="#c1694f" />
	</g>
</svg>
