<svg xmlns="http://www.w3.org/2000/svg" viewBox="0 0 36 36">
	<!-- these seem to be strokes with width 3.5 but not sure where the points were -->
	<path d="M 2.638,23.821 l -1.625,-3.1 l 1.55,-0.812 c 2.393,-1.255 4.982,-2.778 5.413,-4.982 c 0.335,-1.714 -0.611,-3.903 -2.812,-6.506 l -1.13,-1.336 l 2.672,-2.26 l 1.13,1.336 c 2.961,3.502 4.131,6.589 3.574,9.437 c -0.788,4.037 -4.975,6.231 -7.223,7.41 l -1.549,0.813 Z"  fill="#BE1931"/>
	<path d="M 20.93,34.947 l 3.099,-1.624 l -0.812,-1.55 c -1.179,-2.249 -3.373,-6.435 -7.41,-7.223 c -2.852,-0.56 -5.936,0.612 -9.437,3.574 l -1.336,1.13 l 2.26,2.672 l 1.336,-1.13 c 2.603,-2.201 4.793,-3.148 6.506,-2.812 c 2.204,0.431 3.727,3.019 4.982,5.413 l 0.812,1.55 Z"  fill="#BE1931"/>
	<path d="M 29.461,30.925 l -1.13,-1.336 c -2.962,-3.502 -4.131,-6.589 -3.574,-9.438 c 0.788,-4.036 4.974,-6.23 7.223,-7.409 l 1.55,-0.812 l 1.625,3.1 l -1.55,0.812 c -2.394,1.255 -4.982,2.778 -5.413,4.981 c -0.335,1.715 0.611,3.903 2.811,6.506 l 1.13,1.336 l -2.672,2.26 Z"  fill="#BE1931"/>
	<!-- <path d="M 28.875,3.826 l 2.26,2.672 l -1.336,1.13 c -2.941,2.486 -5.588,3.709 -8.046,3.709 c -0.471,0 -0.934,-0.045 -1.392,-0.134 c -4.037,-0.788 -6.231,-4.975 -7.41,-7.223 l -0.812,-1.55 l 3.1,-1.625 l 0.813,1.55 c 1.255,2.393 2.778,4.982 4.981,5.413 c 1.711,0.334 3.902,-0.61 6.506,-2.812 l 1.336,-1.13 Z" fill="#BE1931"/> has extra point, i replaced this with a flipped version of the top version -->
	<path d="M 28.875,3.826 l -1.336,1.13 c -2.603,2.201 -4.793,3.148 -6.506,2.812 c -2.204,-0.431 -3.727,-3.019 -4.982,-5.413 l -0.812,-1.55 l -3.099,1.624 l 0.812,1.55 c 1.179,2.249 3.373,6.435 7.41,7.223 c 2.852,0.56 5.936,-0.612 9.437,-3.574 l 1.336,-1.13 l -2.26,-2.672 Z" fill="#BE1931"/>
</svg>
