<svg xmlns="http://www.w3.org/2000/svg" viewBox="0 0 36 36">
	<g>
		<g>
			<path d="M 10,12 a 3,3 0 01 3,3 v12 h-11 l -2,-2 v-5.041 l 3,-5.959 s 1,-2 4.146,-2 h2.854 Z" fill="#ffcc4d"/>
			<path d="M 9,20 h-7 l 2,-4 s 1,-2 3,-2 h2 v6 Z" fill="#55acee"/>
		</g>
		<rect width="21" height="21" rx="4" x="15" y="8" fill="#77b255"/>
		<path d="M 0,25 h36 v2 a 4,4 0 01 -4,4 h-28 a 4,4 0 01 -4,-4 v-2 Z" fill="#99aab5"/>
	</g>
	<g>
		<circle r="4" cx="6" cy="31" fill="#292f33"/>
		<circle r="4" cx="20" cy="31" fill="#292f33"/>
		<circle r="4" cx="30" cy="31" fill="#292f33"/>
		<circle r="2" cx="6" cy="31" fill="#ccd6dd"/>
		<circle r="2" cx="20" cy="31" fill="#ccd6dd"/>
		<circle r="2" cx="30" cy="31" fill="#ccd6dd"/>
	</g>
</svg>
