<svg xmlns="http://www.w3.org/2000/svg" viewBox="0 0 36 36">
	<!-- this one was definitely scaled up from 35x35 -->
	<!--<path d="M 18,3.143 a 18,15.429 0 00 -18,15.429 c 0,1.066 0.127,2.107 0.367,3.112 c 1.779,3.06 3.01,1.128 8.633,-1.684 c 5.727,-2.864 0,4 -2,8 c -0.615,1.231 -0.281,2.272 0.56,3.124 c 2.946,1.804 6.544,2.876 10.44,2.876 a 18,15.428 0 00 18,-15.428 a 18,15.429 0 00 -18,-15.429 Z M 20.8486,27.590 a 4.063,2.538 16.365 01 -4.613,1.291 a 4.063,2.538 16.365 01 -3.183,-3.581 a 4.063,2.538 16.365 01 4.613,-1.29 a 4.063,2.538 16.365 01 3.183,3.58 Z" fill="#D99E82"/>-->
	<path d="M 17.9996,3.1428 c -9.941,0 -18,6.908 -18,15.428 c 0,1.067 0.127,2.108 0.367,3.113 c 1.779,3.06 3.01,1.128 8.633,-1.684 c 5.727,-2.864 0,4 -2,8 c -0.615,1.231 -0.281,2.272 0.56,3.124 c 2.946,1.804 6.544,2.876 10.44,2.876 c 9.942,0 18,-6.907 18,-15.429 c 0,-8.52 -8.058,-15.428 -18,-15.428 ZM 20.8486,27.5898 c -0.395,1.346 -2.46,1.924 -4.613,1.291 c -2.153,-0.632 -3.578,-2.234 -3.183,-3.581 c 0.395,-1.346 2.461,-1.924 4.613,-1.29 c 2.154,0.631 3.579,2.233 3.183,3.58 Z" fill="#d99e82"/>
	<circle fill="#5C913B" cx="10" cy="11" r="3"/>
	<circle fill="#269"    cx="20" cy="9"  r="3"/>
	<circle fill="#DD2E44" cx="29" cy="15" r="3"/>
	<circle fill="#FFCC4D" cx="28" cy="24" r="3"/>
</svg>
