<svg xmlns="http://www.w3.org/2000/svg" viewBox="0 0 36 36">
	<rect width="36" height="36" rx="4" x="0" y="0" fill="#3b88c3"/>
	<rect x="0" y="10" width="36" height="17" fill="#bbddf5"/>
	<g fill="#226699">
		<path d="M 5.2976,13.7398 c 0.272,-0.736 0.896,-1.329 1.713,-1.329 c 0.848,0 1.44,0.561 1.712,1.329 l 3.137,8.707 c 0.096,0.256 0.129,0.481 0.129,0.593 c 0,0.624 -0.513,1.056 -1.105,1.056 c -0.672,0 -1.008,-0.352 -1.168,-0.832 l -0.481,-1.505 h-4.449 l -0.48,1.489 c -0.161,0.496 -0.497,0.848 -1.153,0.848 c -0.64,0 -1.184,-0.48 -1.184,-1.12 c 0,-0.256 0.079,-0.448 0.111,-0.529 l 3.218,-8.707 ZM 5.4736,19.5498 h3.041 l -1.489,-4.642 h-0.031 l -1.521,4.642 Z"/>
		<path d="M 14.4648,14.8125 h-1.745 c -0.768,0 -1.088,-0.561 -1.088,-1.104 c 0,-0.561 0.4,-1.105 1.088,-1.105 h5.891 c 0.688,0 1.088,0.544 1.088,1.105 c 0,0.543 -0.32,1.104 -1.088,1.104 h-1.745 v8.035 c 0,0.8 -0.512,1.248 -1.2,1.248 c -0.689,0 -1.201,-0.448 -1.201,-1.248 v-8.035 Z"/>
		<path d="M 22.0332,13.7397 c 0.096,-0.576 0.72,-1.232 1.568,-1.232 c 0.801,0 1.424,0.576 1.601,1.152 l 1.89,6.338 h0.031 l 1.889,-6.338 c 0.175,-0.576 0.8,-1.152 1.599,-1.152 c 0.85,0 1.473,0.656 1.57,1.232 l 1.489,8.932 c 0.015,0.096 0.015,0.192 0.015,0.272 c 0,0.704 -0.511,1.152 -1.152,1.152 c -0.816,0 -1.137,-0.368 -1.248,-1.12 l -0.945,-6.515 h-0.032 l -1.921,6.707 c -0.112,0.384 -0.417,0.928 -1.28,0.928 c -0.865,0 -1.169,-0.544 -1.281,-0.928 l -1.92,-6.707 h-0.033 l -0.944,6.515 c -0.113,0.752 -0.432,1.12 -1.249,1.12 c -0.639,0 -1.152,-0.448 -1.152,-1.152 c 0,-0.08 0,-0.176 0.017,-0.272 l 1.488,-8.932 Z"/>
	</g>
</svg>
