<svg xmlns="http://www.w3.org/2000/svg" viewBox="0 0 36 36">
	<g>
		<circle r="4" cx="5" cy="32" fill="#292F33"/>
		<circle r="2" cx="5" cy="32" fill="#99AAB5"/>
		<path fill="#5C913B" d="M 0,0 c -1,0 -4,-6.69475 -9,-5.69475 c -1.387,0.27716 -2.581,-1.419 -1,-3 c 2,-2 7,-3 9,-2 s 2,10.69475 1,10.69475 Z" transform="translate(11 33) scale(1 0.8118)"/>
	</g>
	<g>
		<rect width="2" height="11" x="19" y="9" fill="#99AAB5"/>
		<rect width="6" height="9" rx="2" x="25" y="23" fill="#1E5200"/>
		<rect width="6" height="9" rx="2" x="15" y="23" fill="#1E5200"/>
		<path fill="#3E721D" d="M 11,33 c -1,0 -6,-8 -6,-14 l 1,-1 h5 l 1,1 v9 c 0,1 1,2 2.011,2 h3.33 c 0.921,0 1.659,-0.666 1.659,-1.672 v-9.328 c 0,-1 2,-1 2,0 v9.328 c 0,1.006 1,1.672 2,1.672 h1 c 1,0 2,-1.395 2,-2 c 0,-2 1,-1 1,-1 s 1,-5 1,-8 l 1,-1 h6 l 1,1 v12 c 0,1 0,2 -1,2 s -1,-1 -1,-2 s -3,-4 -5,-4 s -3,3 -3,4 c 0,2 -1,2 -2,2 h-13 Z"/>
	</g>
	<g>
		<path fill="#5C913B" d="M 34,32 c 0,-1 -0.667,-2 -4,-2 s -4,1 -4,2 s -1,-1 -1,-2 c 0,-2 0.833,-5 5,-5 s 5,2 5,5 c 0,2 -1,3 -1,2 Z"/>
		<circle r="4" cx="30" cy="32" fill="#292F33"/>
		<circle r="2" cx="30" cy="32" fill="#99AAB5"/>
	</g>
	<g>
		<path fill="#55ACEE" d="M 10,9 h1.5 v8 h-0.5 s -5,3 -5,-1 c 0,-2 2,-5 4,-7 Z"/>
		<clipPath id="top1">
			<path d="M 12,19 h-7 c 0,-1 1,-3 1,-3 h4 a 1,1 0 00 1,-1 v-4 s -2,0 -2,-2 a 2,2 0 01 2,-2 h22 c 2,0 3,5 3,12 h-8 s 0,-8 -3,-8 h-13 v8 Z"/>
		</clipPath>
		<g clip-path="url(#top1)">
			<circle r="999" fill="#FFAC33"/>
			<rect x="4" y="17" width="5" height="2" rx="0.5" fill="#F4900C"/>
		</g>
	</g>
</svg>
