<svg xmlns="http://www.w3.org/2000/svg" viewBox="0 0 36 36">
	<!-- rotated 34.87° -->
	<path d="M 35,5.904 c 2.394,6.042 -1.438,20.543 -10.5,26.5 c -9.06,5.957 -20.395,3.573 -23.097,-6.443 c -1.669,-6.186 2.79,-10.721 11.851,-16.677 c 9.061,-5.957 19.386,-9.337 21.746,-3.38 Z"  fill="#3E721D"/>
	<path d="M 20.605,26.03 c -6.523,4.546 -15.287,5.15 -18.469,0.582 c -3.183,-4.566 0.418,-12.578 6.943,-17.124 c 6.522,-4.545 21.951,-9.796 25.134,-5.23 c 3.183,4.57 -7.085,17.226 -13.608,21.772 Z"  fill="#3E721D"/>
	<path d="M 19.815,26.578 c -5.757,4.013 -13.482,3.097 -16.29,-0.934 c -2.807,-4.031 0.475,-11.17 6.232,-15.181 c 5.755,-4.011 20.258,-9.264 23.068,-5.234 c 2.807,4.03 -4.825,16.175 -13.01,21.349 Z"  fill="#A6D388"/>
	<path d="M 18.169,23.926 c -4.506,3.14 -9.939,3.127 -12.136,-0.027 c -2.2,-3.154 -0.33,-8.255 4.176,-11.395 c 4.507,-3.141 15.835,-7.238 18.035,-4.084 c 2.199,3.154 -5.567,12.366 -10.075,15.506 Z"  fill="#C6E5B3"/>
	<path d="M 11.162,12.488 c 3.48,-2.332 7.382,-1.495 9.798,0.995 c 1.433,1.477 -0.88,5.382 -4.359,7.714 c -3.478,2.33 -7.769,1.763 -8.239,0.731 c -1.44,-3.157 -0.677,-7.109 2.8,-9.44 Z"  fill="#662113"/>
	<ellipse rx="3.293" ry="2.727" transform="translate(14.590,15.371) rotate(-33.835)" fill="#7C3225"/>
</svg>
