<svg xmlns="http://www.w3.org/2000/svg" viewBox="0 0 36 36">
	<defs>
		<g id="foot1">
			<path d="M 0,0 s 0,-3 1,-4 l 1,-1 c 1,0 0,1.448 0,2 c 0,0 -1.135,2.001 0.462,3.707 s -2.462,1.293 -2.462,0.293 v-1 Z" fill="#ffac33"/>
			<g stroke-width="2" stroke-linecap="round" fill="none" stroke="#ffac33">
				<path d="M -2,1 h3"/>
				<path d="M -0.639,3 l 2.639,-1.427"/>
			</g>
		</g>
	</defs>
	
	<g transform="translate(0 -0.0703)">
		feet
		<use href="#foot1" x="18" y="32"/>
		<use href="#foot1" x="25" y="32"/>
		beak
		<path d="M 2,16 c 0,-1 1.527,-3 4.012,-3 s 2.5,1.343 2.5,3 s 1.973,2 -0.512,2 s -6,-1 -6,-2 Z" fill="#f4900c"/>
		body
		<g fill="#ffcc4d">
			<path d="M 12,21.5 c 0,-5.246 8.015,-19.488 11.664,-9.5 s 10.211,5.375 11.553,5.375 c 1.283,0 0.355,7.729 -3.885,9.861 c -0.73,0.368 -0.287,-0.861 -0.832,-0.236 c -2.066,2.322 -5.047,4 -9,4 a 9.5,9.5 0 01 -9.5,-9.5 Z"/>
			<path d="M 19,4 c 0,0.777 -0.611,-0.246 -2.757,1.131 l 1,1 h-4.486 l 1,-1 c -2.146,-1.377 -2.757,-0.354 -2.757,-1.131 c 0,-1.179 2.083,-1.303 4,0.012 c 1.917,-1.315 4,-1.191 4,-0.012 Z"/> decypher..
			<circle cx="14.5" cy="14.5" r="9.5"/>
		</g>
		wing
		<path d="M 21.811,16 s -2,10 10,10 c 1,0 0,2 -4,2 s -10,-5 -7,-11 c 0.633,-1.265 1,-1 1,-1 Z" fill="#ffac33"/>
		eye
		<circle r="1.5" cx="12.5" cy="13.5" fill="#662113"/>
	</g>
</svg>
