<svg xmlns="http://www.w3.org/2000/svg" viewBox="0 0 36 36">
	<g transform="translate(25.95 10.05) rotate(45)">
		<path d="M 7,0 c 0,1 3,3 3,5 v19.413 a 4,4 0 01 -4,4 h-12 a 4,4 0 01 -4,-4 v-19.413 c 0,-2 3,-4 3,-5 h14 Z"    fill="#CCD6DD"/>
		<path d="M  5.657,7 v16.971" stroke-linecap="round" fill="none" stroke-width="2" stroke="#99AAB5"/>
		<path d="M  0    ,7 v16.971" stroke-linecap="round" fill="none" stroke-width="2" stroke="#99AAB5"/>
		<path d="M -5.657,7 v16.971" stroke-linecap="round" fill="none" stroke-width="2" stroke="#99AAB5"/>
		<path d="M 3,-7 l 4,4 h-14 l 4,-4 c 1,-1 0,-1 0,-2 c 0,-2 1,-4 3,-4 c 2,0 3,2 3,4 c 0,1 -1,1 0,2 Z" fill="#FFAC33"/>
		<path d="M 8,-1.5 c 0,1.383 -0.119,2.5 -1.5,2.5 h-13 c -1.383,0 -1.5,-1.119 -1.5,-2.5 a 2.5,2.5 0 01 2.5,-2.5 h11 a 2.5,2.5 0 01 2.5,2.5 Z" fill="#55ACEE"/>
	</g>
</svg>
