<svg xmlns="http://www.w3.org/2000/svg" viewBox="0 0 36 36">
	<rect x="0" y="0" width="36" height="36" rx="4"  fill="#F4900C"/>
	
	<path d="M 9 20 s 1 1 3 -1 c4 -3.85 8 -3.85 12 0 c2 2 3 1 3 1"  fill="none" stroke="#FFF" stroke-width="3" stroke-linecap="round" stroke-linejoin="round"/>
	
	<circle r="1.5" cx="13.5" cy="10.5" fill="#FFF"/>
	<circle r="1.5" cx="22.5" cy="10.5" fill="#FFF"/>
	<ellipse rx="5.25" ry="5.5" cx="18" cy="9.5" fill="#FFF"/>
	
	<path d="M 14.076,20.495 c 0.001,2.422 1.758,2.505 3.924,2.505 s 3.923,-0.083 3.923,-2.506 s -1.757,-5.494 -3.923,-5.494 s -3.925,3.073 -3.924,5.495 Z" fill="#FFF"/>
	<!-- not going to bother reverse engineering the diaper clip path lol -->
	<path d="M 14.431,24.691 c 1.13,0.955 0.917,2.441 1.474,3.395 c -0.398,0.286 -0.904,0.418 -1.42,0.318 c -0.197,-0.029 -1.731,-0.199 -2.945,1.622 c -0.847,1.272 -1.83,1.559 -2.543,1.559 c -0.04,0 -0.08,-0.001 -0.119,-0.003 c -1.194,-0.052 -2.076,-0.912 -2.504,-1.697 c -0.489,-0.899 -0.158,-2.023 0.74,-2.512 c 0.576,-0.312 1.245,-0.29 1.779,0.004 c 1.765,-2.216 4.025,-2.746 5.538,-2.686 Z"  fill="#FFF"/>
	<path d="M 28.718,27.363 c 0.898,0.49 1.225,1.624 0.736,2.523 c -0.428,0.785 -1.311,1.644 -2.504,1.697 c -0.039,0.002 -0.078,0.003 -0.119,0.003 c -0.713,0 -1.696,-0.288 -2.544,-1.559 c -1.225,-1.839 -2.776,-1.649 -2.949,-1.621 c -0.459,0.071 -0.908,-0.036 -1.281,-0.265 c 0.603,-0.952 0.359,-2.476 1.514,-3.451 c 1.508,-0.013 3.659,0.55 5.357,2.678 c 0.535,-0.298 1.209,-0.32 1.79,-0.005 Z"  fill="#FFF"/>
</svg>
