<svg xmlns="http://www.w3.org/2000/svg" viewBox="0 0 36 36">
	<defs>
		<clipPath id="strap1">
			<path d="M 4.847,0 h4.057 c 0.468,0 0.875,0.318 0.983,0.768 c 0.109,0.45 -0.11,0.916 -0.528,1.125 c -0.035,0.018 -11.613,4.19 2.587,25.107 c 0.31,0.459 -0.456,1 -1.015,1 h-4.056 c -0.299,0 0.19,1.225 -0.002,1 c -0.191,-0.224 -0.863,-0.747 -1.014,-1 c -10.14,-17 -4.805,-28 -1.012,-28 Z"/>
		</clipPath>
		<clipPath id="strap2">
			<path d="M 27.23,0 h3.999 c 2.128,0 4.75,3.562 4.771,9.764 v0.153 c -0.016,4.679 -1.505,10.835 -5.769,18.083 c -0.148,0.253 -0.81,0.776 -1,1 c -0.189,0.225 0.294,-1 -0.002,-1 h-3.999 c -0.552,0 -1.307,-0.541 -1,-1 c 14.001,-20.917 2.585,-25.089 2.55,-25.107 c -0.412,-0.209 -0.629,-0.675 -0.522,-1.125 c 0.108,-0.45 0.51,-0.768 0.972,-0.768 Z"/>
		</clipPath>
	</defs>
	
	<path d="M 10.9316,28 h-4.057 c -0.298,0 0.191,1.225 -0.002,1 c -0.191,-0.225 -0.862,-0.747 -1.014,-1 c -10.14,-17 -4.804,-28 -1.011,-28 h4.056 c 0.468,0 0.875,0.318 0.984,0.768 s -0.111,0.916 -0.529,1.125 c -0.034,0.018 -11.612,4.19 2.587,25.107 c 0.311,0.459 -0.455,1 -1.014,1 Z" fill="#c1694f"/>
	a lot of this stuff can be arcs at least
	<g clip-path="url(#strap1)">
		<path d="M 12.9595,30 h-5.07 c -0.299,0 -0.582,-0.129 -0.775,-0.354 c -0.192,-0.224 -0.067,-0.562 -0.225,-0.81 c -10.157,-15.836 -5.836,-26.836 -2.044,-26.836 h6.086 c 0.468,0 0.876,0.318 0.984,0.768 c 0.109,0.45 -0.11,0.916 -0.528,1.125 c -0.035,0.018 -11.613,4.19 2.587,25.107 c 0.31,0.459 -0.456,1 -1.015,1 Z" fill="#662113"/>
	</g>
	<path d="M 25.2295,28 c -0.552,0 -1.307,-0.541 -1,-1 c 14.002,-20.917 2.585,-25.089 2.551,-25.107 c -0.412,-0.209 -0.629,-0.675 -0.522,-1.125 c 0.108,-0.45 0.509,-0.768 0.971,-0.768 h4 c 3.74,0 9.002,11 -0.998,28 c -0.148,0.253 -0.811,0.775 -1,1 s 0.293,-1 -0.002,-1 h-4 Z" fill="#c1694f"/>
	<g clip-path="url(#strap2)">
		<path d="M 23.2295,30 c -0.552,0 -1.307,-0.541 -1,-1 c 14.002,-20.917 2.585,-25.089 2.551,-25.107 c -0.412,-0.209 -0.629,-0.675 -0.522,-1.125 c 0.108,-0.45 0.509,-0.768 0.971,-0.768 h6.002 c 3.739,0 8,11 -2.016,26.836 c -0.156,0.248 -0.033,0.586 -0.222,0.81 c -0.19,0.225 -0.469,0.354 -0.764,0.354 h-5 Z" fill="#662113"/>
	</g>
	
	<g  stroke-linejoin="round" stroke-width="2" fill="#c1694f" stroke="#c1694f">
		<!-- not sure.. -->
		<path d="M31.231 1h-6c-3 0 -4 6 -4 6h5c0 -4 2.56 -6 5 -6z"/>
		<path d="M9.90 7h5.1s-1 -6 -4.07 -6h-6.08c2.45 0 5.05 2 5.05 6z"/>
	</g>
	
	<path d="M 6,32 v-22 s 0,-4 4,-4 h16 c 4,0 4,4 4,4 v22 c 0,4 -4,4 -4,4 h-16 c -4,0 -4,-4 -4,-4 Z" fill="#be1931"/>
	
	<path d="M10 11v14s0 2 2 2h12s2 0 2 -2v-14" stroke-linecap="round" stroke-width="2" fill="none" stroke="#a0041e"/>
	
	<path d="M 16,25 s 0,-1 1,-1 h2 s 1,0 1,1 v5 s 0,1 -1,1 h-2 s -1,0 -1,-1 v-5 Z" fill="#ffffff"/>
</svg>
