<svg xmlns="http://www.w3.org/2000/svg" viewBox="0 0 36 36">
	<defs>
		<clipPath id="bacon1">
			<path d="M 3,15 c -2,-1 -2.882,-2.943 -3,-4 c 0,0 3.143,-3 3,-5 s 2,-5 2,-5 s 1,-1 5,5 c 0.785,1.177 4,1 6,3 s 2,5 4,7 s 5,2 7,4 s 1.823,5.215 3,6 c 6,4 5,5 5,5 s -4.17,3 -7,3 c -1,0 -4,1 -4,1 c -1,0 -2.123,-1.44 -4,-3 c -0.847,-0.703 -0.443,-2.443 -2,-4 s -5.101,-1.785 -6.658,-3.342 s -2.785,-6.101 -4.342,-7.658 s -3.016,-1.508 -4,-2 Z" fill="#dd2e44"/>
		</clipPath>
		<path id="stripe1" d="M 0,0 s 1,-1 5,5 c 0.785,1.177 4,1 6,3 s 2,5 4,7 s 5,2 7,4 s 1.823,5.215 3,6 c 6,4 5,5 5,5 l -14,6 l -22,-22 l 6,-14 Z"/>
	</defs>
	<g transform="translate(0.4688 0.0313)">
		<g clip-path="url(#bacon1)">
			<!--<path d="M 5.4688,1.0317 s 1,-1.001 5,4.999 c 0.784,1.177 4,1 6,3 s 2,5 4,7 s 5,2 7,4.001 c 2,2 1.822,5.215 3,6 c 6,4 5,5 5,5 l -11.941,5.118 c -0.032,-0.397 -0.553,-1.423 -3.936,-3.678 c -0.916,-0.61 -0.777,-3.113 -2.334,-4.669 c -1.557,-1.557 -3.891,-1.557 -5.447,-3.113 c -1.557,-1.557 -1.557,-3.891 -3.113,-5.448 c -1.556,-1.556 -4.059,-1.418 -4.669,-2.334 c -2.255,-3.384 -3.282,-3.903 -3.678,-3.935 l 5.118,-11.941 Z" fill="#dd2e44"/>-->
			<circle r="999" fill="#dd2e44"/>
			<use href="#stripe1" x="4" y="2" fill="#f4abba"/>
			<use href="#stripe1" x="4" y="2" fill="#f4abba"/>
			<use href="#stripe1" x="3" y="3" fill="#ffe8b6"/>
			<path d="M 2,4 s 1,-1 5,5 c 2,3 4,2 6,4 s 2,4 4,6 s 4,2 6,4 s 1,4 4,6 c 6,4 5,5 5,5 l -14,6 l -22,-22 l 6,-14 Z" fill="#ea596e"/>
			<path d="M 0,6 s 1,-2 5,4 c 0.785,1.177 4,1 6,3 s 2,6 4,8 s 5,2 7,4 s 2.823,5.215 4,6 c 6,4 4,5 4,5 l -14,6 l -22,-22 l 6,-14 Z" fill="#ffe8b6"/>
			<use href="#stripe1" x="-1" y="7" fill="#ea596e"/>
			<use href="#stripe1" x="-2" y="8" fill="#dd2e44"/>
		</g>
	</g>
</svg>
