<svg xmlns="http://www.w3.org/2000/svg" viewBox="0 0 36 36">
	<g transform="translate(2.468 2.468) rotate(-45)">
		<path d="M 0.97934,38.50126 c 0,0.54023 -0.43841,0.97864 -0.97934,0.97934 c -0.54094,-0.00071 -0.97934,-0.43911 -0.97934,-0.97934 l 0.00071,-19.09259 c 0,-0.54023 0.43841,-0.97864 0.97864,-0.97864 s 0.97793,0.4377 0.97864,0.97864 l 0.00071,19.09259 Z"   fill="#55ACEE"/>
		<path d="M 1.50048,45.30009 c 0,0.82873 -0.67175,1.50048 -1.49977,1.49977 c -0.82802,0.00071 -1.49977,-0.67104 -1.49977,-1.49977 l 0,-7.99879 c 0,-0.82873 0.67175,-1.50048 1.49977,-1.49977 c 0.82802,-0.00071 1.49977,0.67104 1.49977,1.49977 v7.99879 Z"   fill="#292F33"/>
		<g fill="#99AAB5">
			<path d="M -1.94666,1.91697 h0.99985 l 0.00495,16.99955 l -0.99985,0 l -0.00495,-16.99955 Z"   />
			<path d="M 1.05642,0.91782 h0.99985 l 0,18.00011 l -1.00056,-0.00071 l 0.00071,-17.9994 Z"   />
			<path d="M -5.94394,3.91737 l 11.9996,0 v0.99985 l -11.9996,0 v-0.99985 Z"   />
			<path d="M -7.94364,6.91692 l 15.00056,0.00141 l 0,0.99985 l -15.00127,-0.00071 l 0.00071,-1.00056 Z"   />
			<path d="M -7.94364,9.91788 l 15.999,0 v0.99985 h-15.999 l 0,-0.99985 Z"   />
			<path d="M -6.9445,12.91813 l 14.00001,-0.00071 l 0,0.99985 h-14.00071 l 0.00071,-0.99914 Z"   />
			<path d="M -5.94394,15.91697 h11.9996 l 0,0.99985 l -12.00031,0.00071 l 0.00071,-1.00056 Z"   />
			<path d="M -4.94409,2.91752 h0.99985 l 0.00141,15.00056 l -0.99985,0 l -0.00141,-15.00056 Z"   />
			<path d="M 4.05667,2.91823 l 0.99914,-0.00071 l 0.00071,14.99986 l -1.00056,0.00071 l 0.00071,-14.99986 Z"   />
		</g>
		<path d="M 0,0 c 4.90944,0.00071 8.88833,4.4774 8.88763,10.00061 c 0.00071,5.52463 -3.97818,9.9999 -8.88833,9.9999 c -4.90874,0 -8.88833,-4.47599 -8.88833,-9.9999 c 0,-5.5225 3.9796,-9.9999 8.88904,-10.00061 Z M 0,18.16699 c 3.86575,0.0007 6.99965,-3.65645 6.99965,-8.16638 s -3.13319,-8.16638 -6.99965,-8.16638 c -3.86576,0.00071 -7.00036,3.65574 -7.00036,8.16567 c 0.00071,4.51063 3.13531,8.16708 7.00036,8.16708 Z"    fill="#55ACEE"/>
		
		<g fill="#269">
			<path d="M 2.05556,18.91723 c 0,0.55296 -0.44831,0.99985 -0.99985,0.99985 h-2.00111 c -0.55154,0 -0.99985,-0.44689 -0.99985,-0.99985 c 0,-0.55296 0.4476,-1.00056 1.00056,-1.00056 h1.9997 c 0.55296,0 1.00056,0.4476 1.00056,1.00056 Z"   />
			<path d="M 1.05571,20.91693 c 0,0.55296 -0.4476,1.00056 -1.00056,1.00056 s -1.00056,-0.4476 -0.99985,-0.99985 v-0.99985 c 0,-0.55296 0.44831,-0.99985 1.00056,-1.00056 c 0.55296,0 0.99985,0.44689 1.00056,1.00056 l -0.00071,0.99914 Z"   />
		</g>
		<path d="M 1.49907,36.81481 c 0.00071,0.82802 -0.67175,0.49922 -1.49977,0.49992 c -0.82802,-0.00071 -1.49977,0.32739 -1.49977,-0.49992 c 0,-0.82873 0.67175,-1.50048 1.49977,-1.49977 c 0.82802,-0.00071 1.50048,0.67175 1.49977,1.49977 Z"   fill="#269"/>
	</g>
	
	<path d="M 21.81,3.182 c 0.782,-0.781 2.049,-0.781 2.828,0 l 0.709,0.707 l -0.709,0.707 l -1.414,1.414 l -0.707,0.707 l -0.707,-0.707 c -0.781,-0.781 -0.781,-2.047 0,-2.828 Z"  fill="#BE1931"/>
	<path d="M 22.52,6.716 l 2.83,-2.828 l 0.707,0.707 l -2.83,2.829 l -0.707,-0.708 Z"  fill="#99AAB5"/>
	<path d="M 23.225,7.424 l 2.83,-2.828 c 1.473,0.488 9.125,5.069 8.861,5.334 c -0.758,0.759 -1.912,0.201 -1.912,0.201 s 0.844,0.806 0.117,1.532 s -1.531,-0.118 -1.531,-0.118 s 0.969,0.741 0.149,1.564 c -0.826,0.826 -1.562,-0.149 -1.562,-0.149 s 0.729,0.981 0.098,1.613 c -0.633,0.631 -1.514,-0.199 -1.514,-0.199 s 0.418,0.998 -0.342,1.756 c -0.362,0.364 -4.609,-7.33 -5.194,-8.706 Z"  fill="#E1E8ED"/>
	<path d="M 26.414,7.823 c 0.578,-0.683 5.432,3.727 4.58,4.579 c -0.853,0.851 -5.275,-3.759 -4.58,-4.579 Z"  fill="#CCD6DD"/>
	<path d="M 28.119,15.271 c -0.148,0.096 -0.428,-0.092 -0.764,-0.434 c -0.818,-1.273 -1.941,-3.241 -2.824,-4.867 c 0.008,-0.054 0.022,-0.1 0.053,-0.126 c 0.463,-0.389 4.215,4.984 3.535,5.427 Z"  fill="#CCD6DD"/>
	<path d="M 28.391,6.038 c 0.068,-0.08 0.246,-0.071 0.486,-0.006 c 1.429,0.804 3.07,1.789 4.285,2.571 c 0.486,0.429 0.771,0.792 0.656,0.97 c -0.443,0.679 -5.818,-3.073 -5.427,-3.535 Z"  fill="#CCD6DD"/>
	<path d="M 25.402,8.897 c 0.426,-0.429 4.641,4.589 4.002,5.093 c -0.638,0.5 -4.515,-4.576 -4.002,-5.093 Z"  fill="#CCD6DD"/>
	<path d="M 27.443,6.856 c 0.518,-0.514 5.594,3.363 5.092,4.002 c -0.502,0.638 -5.52,-3.576 -5.092,-4.002 Z"  fill="#CCD6DD"/>
</svg>
