<svg xmlns="http://www.w3.org/2000/svg" viewBox="0 0 36 36">
	<g transform="translate(2.468 2.468) rotate(-45)">
		<g fill="#99AAB5">
			<path d="M -5.94394,3.917 h12 v1 h-12 v-1 Z"/>
			<path d="M -7.44364,6.917 h15 v1 h-15 v-1 Z"/>
			<path d="M -7.94364,9.917 h16 v1 h-16 v-1 Z"/>
			<path d="M -7.4445,12.917 h15 v1 h-15 v-1 Z"/>
			<path d="M -5.94394,15.917 h12 v1 h-12 v-1 Z"/>
			
			<path d="M -4.94409,2.417 h1 v15 h-1 v-15 Z"/>
			<path d="M -1.94666,0.917 h1 v18 h-1 v-17 Z"/>
			<path d="M 1.05642,0.917 h1 v18 h-1 v-18 Z"/>
			<path d="M 4.05667,2.417 h1 v15 h-1 v-15 Z"/>
		</g>
		<!-- ohh they're ellipses hmmmm (ill figure out the ratios later shh) -->
		<path d="M 0,0
a 8.8883,10 0 01 8.8883,10
a 8.8883,10 0 01 -8.8883,10
a 8.8883,10 0 01 -8.8883,-10
a 8.8883,10 0 01 8.8883,-10
Z
M 0,18.167
a 7,8.1664 0 00 7,-8.1664
a 7,8.1664 0 00 -7,-8.1664
a 7,8.1664 0 00 -7,8.1664
a 7,8.1664 0 00 7,8.1664
Z" fill="#55ACEE"/>
		
		<path d="M -0.97934,19 h1.95868 v18 h-1.95868 v-18 Z" fill="#55ACEE"/> <!-- centered -->
		
		<path d="M 0,45.3 v-8" stroke-linecap="round" fill="none" stroke-width="3" stroke="#292F33"/>
		
		<path d="M 1.5,36.81481 c 0,0.82802 -0.67175,0.5 -1.5,0.5 c -0.82802,0 -1.5,0.32739 -1.5,-0.5 a 1.5,1.5 0 01 3,0 Z" fill="#269"/>
		
		<path d="M 1.05556,18.917 h-2 m 1,1 v1" stroke-linecap="round" fill="none" stroke-width="2" stroke="#269"/>
	</g>
	<!-- also rotated but  idk.. -->
	<path d="M 21.81,3.182 c 0.782,-0.781 2.049,-0.781 2.828,0 l 0.709,0.707 l -0.709,0.707 l -1.414,1.414 l -0.707,0.707 l -0.707,-0.707 c -0.781,-0.781 -0.781,-2.047 0,-2.828 Z" fill="#BE1931"/>
	<path d="M 22.52,6.716 l 2.83,-2.828 l 0.707,0.707 l -2.83,2.829 l -0.707,-0.708 Z" fill="#99AAB5"/>
	<path d="M 23.225,7.424 l 2.83,-2.828 c 1.473,0.488 9.125,5.069 8.861,5.334 c -0.758,0.759 -1.912,0.201 -1.912,0.201 s 0.844,0.806 0.117,1.532 s -1.531,-0.118 -1.531,-0.118 s 0.969,0.741 0.149,1.564 c -0.826,0.826 -1.562,-0.149 -1.562,-0.149 s 0.729,0.981 0.098,1.613 c -0.633,0.631 -1.514,-0.199 -1.514,-0.199 s 0.418,0.998 -0.342,1.756 c -0.362,0.364 -4.609,-7.33 -5.194,-8.706 Z" fill="#E1E8ED"/>
	<path d="M 26.414,7.823 c 0.578,-0.683 5.432,3.727 4.58,4.579 c -0.853,0.851 -5.275,-3.759 -4.58,-4.579 Z" fill="#CCD6DD"/>
	<path d="M 28.119,15.271 c -0.148,0.096 -0.428,-0.092 -0.764,-0.434 c -0.818,-1.273 -1.941,-3.241 -2.824,-4.867 c 0.008,-0.054 0.022,-0.1 0.053,-0.126 c 0.463,-0.389 4.215,4.984 3.535,5.427 Z" fill="#CCD6DD"/>
	<path d="M 28.391,6.038 c 0.068,-0.08 0.246,-0.071 0.486,-0.006 c 1.429,0.804 3.07,1.789 4.285,2.571 c 0.486,0.429 0.771,0.792 0.656,0.97 c -0.443,0.679 -5.818,-3.073 -5.427,-3.535 Z" fill="#CCD6DD"/>
	<path d="M 25.402,8.897 c 0.426,-0.429 4.641,4.589 4.002,5.093 c -0.638,0.5 -4.515,-4.576 -4.002,-5.093 Z" fill="#CCD6DD"/>
	<path d="M 27.443,6.856 c 0.518,-0.514 5.594,3.363 5.092,4.002 c -0.502,0.638 -5.52,-3.576 -5.092,-4.002 Z" fill="#CCD6DD"/>
</svg>
