<svg xmlns="http://www.w3.org/2000/svg" viewBox="0 0 36 36">
	<g transform="translate(24.68 24.685) rotate(-45)">
		<path d="M 0.98288,7.08521 c 0,0.54023 -0.43841,0.97864 -0.97934,0.97934 c -0.54094,-0 -0.97934,-0.43911 -0.97934,-0.97934 l 0,-19.09259 c 0,-0.54023 0.43841,-0.97864 0.97864,-0.97864 s 0.97793,0.4377 0.97864,0.97864 l 0,19.09259 Z"   fill="#55ACEE"/>
		<path d="M 1.50402,13.88404 c 0,0.82873 -0.67175,1.50048 -1.49977,1.49977 c -0.82802,0 -1.49977,-0.67104 -1.49977,-1.49977 l 0,-7.99879 c 0,-0.82873 0.67175,-1.50048 1.49977,-1.49977 c 0.82802,-0 1.49977,0.67104 1.49977,1.49977 l 0,7.99879 Z"   fill="#292F33"/>
		<g fill="#99AAB5">
			<path d="M -1.94313,-29.49908 h1 l 0.00495,17 h-1 l -0.00495,-17 Z"   />
			<path d="M 1.05995,-30.49822 h1 l 0,18 l -1,-0 l 0,-18 Z"   />
			<path d="M -5.9404,-27.49868 h12 v1 l -12,0 l 0,-1 Z"   />
			<path d="M -7.9401,-24.49913 l 15,0.00141 l 0,1 l -15.00127,-0 l 0,-1 Z"   />
			<path d="M -7.9401,-21.49817 h15.999 l 0,1 h-15.999 l 0,-1 Z"   />
			<path d="M -6.94096,-18.49791 l 14,-0 l 0,1 l -14,0 l 0,-1 Z"   />
			<path d="M -5.9404,-15.49907 l 12,0 v1 l -12,0 l 0,-1 Z"   />
			<path d="M -4.94056,-28.49852 h1 l 0.00141,15 h-1 l -0.00141,-15 Z"   />
			<path d="M 4.06021,-28.49782 l 1,-0 l 0,15 l -1,0 l 0,-15 Z"   />
		</g>
		<path d="M 0.00354,-31.41605 c 4.90944,0 8.88833,4.4774 8.88763,10 c 0,5.52463 -3.97818,10 -8.88833,10 c -4.90874,0 -8.88833,-4.47599 -8.88833,-10 c 0,-5.5225 3.9796,-10 8.88904,-10 h-0 Z M 0.00354,-13.24906 c 3.86575,0 7,-3.65645 7,-8.16638 s -3.13319,-8.16638 -7,-8.16638 c -3.86576,0 -7,3.65574 -7,8.16567 c 0,4.51063 3.13531,8.16708 7,8.16708 Z"    fill="#55ACEE"/>
		<g fill="#269">
			<path d="M 2.05909,-12.49882 c 0,0.55296 -0.44831,1 -1,1 h-2.00111 c -0.55154,0 -1,-0.44689 -1,-1 c 0,-0.55296 0.4476,-1 1,-1 h2 c 0.55296,0 1,0.4476 1,1 Z"   />
			<path d="M 1.05925,-10.49912 c 0,0.55296 -0.4476,1 -1,1 s -1,-0.4476 -1,-1 l 0,-1 c 0,-0.55296 0.44831,-1 1,-1 c 0.55296,0 1,0.44689 1,1 l -0,1 Z"   />
		</g>
		<path d="M 1.5026,5.39876 c 0,0.82802 -0.67175,0.49922 -1.49977,0.49992 c -0.82802,-0 -1.49977,0.32739 -1.49977,-0.49992 c 0,-0.82873 0.67175,-1.50048 1.49977,-1.49977 c 0.82802,-0 1.50048,0.67175 1.49977,1.49977 Z"   fill="#269"/>
		<path d="M 13.17552,-17.23431 c 1.10521,0 2.00111,0.89661 2,2 l 0.00141,1.00126 l -1.00126,-0.00141 h-2 h-1 l 0,-1 c 0,-1.1045 0.8952,-2 2,-2 Z"   fill="#BE1931"/>
		<path d="M 11.17865,-14.23335 l 4,0.00141 v1 l -4.00152,-0 l 0,-1 Z"   fill="#99AAB5"/>
		<path d="M 11.17653,-13.23421 l 4,0.00141 c 0.6965,1.38664 2.86803,10.03667 2.49397,10.03738 c -1.07268,0 -1.49412,-1.20986 -1.49412,-1.20986 s 0.02687,1.16673 -1,1.16602 s -1,-1.16602 -1,-1.16602 s 0.16122,1.20915 -1,1.21127 c -1.16814,0 -1,-1.20986 -1,-1.20986 s -0.17819,1.20915 -1.07127,1.20986 c -0.89378,-0.00141 -0.92985,-1.21127 -0.92985,-1.21127 s -0.41012,1.00126 -1.48351,1 c -0.51336,0.00141 1.92404,-8.44215 2.48336,-9.82878 Z"   fill="#E1E8ED"/>
		<path d="M 13.14936,-10.69711 c 0.89166,-0.07425 1.20562,6.47639 0,6.47639 c -1.20491,-0.00141 -1.07197,-6.388 -0,-6.47639 Z"   fill="#CCD6DD"/>
		<path d="M 9.08844,-4.22496 c -0.17253,-0.03677 -0.23759,-0.3677 -0.23335,-0.84711 c 0.32173,-1.47856 0.91924,-3.66423 1.44462,-5.43836 c 0.04384,-0.03253 0.08627,-0.05515 0.12657,-0.05162 c 0.60245,0.05233 -0.54377,6.50468 -1.33785,6.33709 Z"   fill="#CCD6DD"/>
		<path d="M 15.80949,-10.56135 c 0.10465,-0.00849 0.22415,0.12374 0.3479,0.33941 c 0.44194,1.57897 0.9058,3.43583 1.21198,4.84792 c 0.04031,0.647 -0.01485,1.10521 -0.22203,1.14976 c -0.79337,0.16688 -1.94101,-6.28689 -1.33785,-6.33709 Z"   fill="#CCD6DD"/>
		<path d="M 11.67433,-10.65327 c 0.60458,-0.00212 0.03677,6.5266 -0.77145,6.43114 c -0.80469,-0.09758 0.04313,-6.42831 0.77145,-6.43114 Z"   fill="#CCD6DD"/>
		<path d="M 14.56074,-10.65327 c 0.72973,0.00283 1.57756,6.33356 0.77075,6.43043 c -0.8061,0.09617 -1.37462,-6.43184 -0.77075,-6.43043 Z"   fill="#CCD6DD"/>
	</g>
</svg>
