<svg xmlns="http://www.w3.org/2000/svg" viewBox="0 0 36 36">
	todo: part is scaled to like 0.973 (approx 36/(17.517+17.517))
	
	bottom
	<g>
		<path fill="#C1694F" d="M 18.0898,9.2954 c 10.243,0 17.517,3.893 17.517,8.758 c 0,7.57 -5.839,15.571 -17.517,15.571 s -17.517,-8.001 -17.517,-15.571 c 0,-4.865 7.274,-8.758 17.517,-8.758 Z"/>
		<path fill="#D99E82" d="M 18.0898,8.3223 c 10.243,0 17.517,3.893 17.517,9.604 c 0,5.712 -7.274,9.859 -17.517,9.859 s -17.517,-3.893 -17.517,-9.859 c 0,-5.965 7.274,-9.604 17.517,-9.604 Z"/>
	</g>
	cream cheese
	<g>
		<path fill="#CCD6DD" d="M 2.5195,20.9736 c 0.973,-0.974 31.141,-3.893 31.141,-0.974 c 0,2.92 -2.919,5.839 -4.866,4.867 c -4.923,-2.462 -9.732,2.919 -11.678,1.946 c -0.87,-0.436 -3.892,-4.866 -6.812,-1.946 c -2.919,2.919 -8.758,-2.92 -7.785,-3.893 Z"/>
		<path fill="#FFFFFF" d="M 2.4214,19.4619 s 29.496,-0.38 31.631,-0.38 c -0.41,2.583 -3.649,5.615 -5.257,4.811 c -4.924,-2.462 -9.733,2.92 -11.679,1.946 c -0.87,-0.435 -3.892,-4.865 -6.812,-1.946 c -2.919,2.92 -7.835,-1.791 -8.051,-3.935 c -0.013,-0.118 0.168,-0.496 0.168,-0.496 Z"/>
	</g>
	top
	<g>
		<path fill="#C1694F" d="M 18.7324,2.5825 c 13.489,0.803 17.031,10.078 17.031,13.967 c 0,0.329 -0.134,1.382 -1.711,2.533 c -1.895,1.382 -5.88,2.907 -14.253,3.482 c -9.613,0.661 -14.822,-1.211 -17.378,-3.103 c -1.522,-1.126 -2.104,-2.258 -2.114,-2.866 c 0.498,-12.076 14.261,-14.256 18.425,-14.013 Z"/>
	</g>
	hole
	<g>
		<path fill="#FFFFFF" d="M 14.4683,10.2275 c 0,-1.143 0,-2.915 4.186,-2.915 s 4.186,1.875 4.186,2.838 c -1.443,0.568 -3.033,0.756 -4.573,0.699 c -1.162,-0.044 -2.612,-0.16 -3.799,-0.622 Z"/>
		<path fill="#8A4B38" d="M 18.8105,6.3018 c 4.891,0.324 6.436,2.322 4.945,3.43 c -0.296,0.161 -0.603,0.296 -0.916,0.419 c -0.693,-0.718 -2.06,-1.355 -4.086,-1.444 c -1.714,-0.075 -3.388,0.741 -4.285,1.521 c -0.334,-0.13 -0.651,-0.282 -0.93,-0.473 c -2.134,-1.381 1.313,-3.716 5.272,-3.453 Z"/>
	</g>
	seeds
	<g fill="#D99E82">
		<path d="M 9.2261,9.7358 c -0.535,0.226 -2.353,0.483 -2.579,-0.052 c -0.225,-0.535 1.225,-1.659 1.761,-1.885 c 0.534,-0.226 1.151,0.024 1.377,0.56 c 0.226,0.534 -0.024,1.151 -0.559,1.377 Z"/>
		<path d="M 31.4248,9.2295 c 0.311,0.349 0.978,1.667 0.628,1.978 c -0.349,0.311 -1.581,-0.503 -1.892,-0.853 c -0.31,-0.349 -0.28,-0.883 0.07,-1.194 c 0.348,-0.311 0.883,-0.28 1.194,0.069 Z"/>
		<path d="M 24.8477,17.3491 c -0.442,0.152 -1.915,0.258 -2.067,-0.184 c -0.152,-0.441 1.075,-1.264 1.516,-1.416 c 0.443,-0.152 0.924,0.083 1.075,0.525 c 0.153,0.442 -0.083,0.923 -0.524,1.075 Z"/>
		<path d="M 7.9873,14.3359 c -0.393,0.428 -1.839,1.308 -2.267,0.915 c -0.427,-0.393 0.326,-1.909 0.718,-2.337 c 0.393,-0.428 1.058,-0.456 1.486,-0.063 c 0.427,0.392 0.456,1.057 0.063,1.485 Z"/>
		<path d="M 18.7549,4.1499 c 0.002,0.312 -0.54,0.57 -1.212,0.575 s -1.218,-0.244 -1.221,-0.557 c -0.002,-0.312 0.541,-0.57 1.212,-0.575 c 0.672,-0.005 1.219,0.245 1.221,0.557 Z"/>
	</g>
</svg>
