<svg xmlns="http://www.w3.org/2000/svg" viewBox="0 0 36 36">
	<rect width="36" height="36" rx="4" fill="#269"/>
	
	<g>
		<g fill="#F5F8FA">
			<path d="M 13,9 v-4 a 2,2 0 01 2,-2 h6 a 2,2 0 01 2,2 v4 h-2 v-3 a 1,1 0 00 -1,-1 h-4 a 1,1 0 00 -1,1 v3 h-2 z"/>
			<g>
				<path d="M 7,8 h2 v18 h-2 a 2,2 0 01 -2,-2 v-14 a 2,2 0 01 2,-2 Z"/>
				<rect x="11" y="8" width="14" height="18"/>
				<path d="M 29,8 a 2,2 0 01 2,2 v14 a 2,2 0 01 -2,2 h-2 v-18 h2 Z"/>
			</g>
		</g>
		
		<g fill="#F5F8FA">
			<circle cx="6" cy="30" r="2"/>
			<circle cx="12" cy="30" r="2"/>
			<circle cx="18" cy="30" r="2"/>
			<circle cx="24" cy="30" r="2"/>
			<circle cx="30" cy="30" r="2"/>
			<rect x="2" y="28" width="32" height="2" rx="1"/>
		</g>
	</g>
</svg>
