<svg xmlns="http://www.w3.org/2000/svg" viewBox="0 0 36 36">
	<defs>
		<g id="c">
			<path d="M -3.75,2 a 3.75,2 0 01 7.5,0 c 0,1.105 -1.669,1 -3.75,1 s -3.75,-0.105 -3.75,-1 Z" fill="#e5a157"/> 1.105 ≈ 2*0.5523; 1.669 ≈ 3.75-(3.75*0.5523); -0.105 ≈ 1-(2*0.5523)
			<path d="M -3.75,1 c 1.25,-1 6.25,-1 7.5,0" fill="none" stroke="#ffd983" stroke-width="0.9341" stroke-linecap="round" stroke-linejoin="round"/> !non-scaling stroke
		</g>
		
		<clipPath id="bread1">
			<path d="M -5,-12.5 c 0,-5 2.929,-8 5,-8 s 5,3 5,8 v25 c 0,5 -2.929,8 -5,8 s -5,-3 -5,-8 z"/> 2.929 ≈ 10-(7.5*0.5523)
		</clipPath>
	</defs>
	
	<g transform="translate(18.3738 17.918) scale(1.0705) rotate(45)">
		<g clip-path="url(#bread1)">
			<circle r="999" fill="#edb980"/>
			<use href="#c" y="10.5" x="-2.642678"/>
			<use href="#c" y="4.5" x="-2.642678"/>
			<use href="#c" y="-1.5" x="-2.642678"/>
			<use href="#c" y="-7.5" x="-2.642678"/>
			<use href="#c" y="-13.5" x="-2.642678"/>
		</g>
	</g>
</svg>
