<svg xmlns="http://www.w3.org/2000/svg" viewBox="0 0 36 36">
	<defs>
		<path id="bowl" d="M 6,0 a 1,1 0 01 1,1 a 7,4 0 01 -14,0 a 1,1 0 01 1,-1 h12 Z"/>
	</defs>
	<g stroke-width="2" fill="none" stroke="#66757f" stroke-linecap="round">
		<path d="M 3,22.539 L 7.616,10"/>
		<path d="M 13,22.539 L 8.384,10"/>
		<path d="M 23,22.539 L 27.616,10"/>
		<path d="M 33,22.539 L 28.384,10"/>
	</g>
	<g fill="#ffac33">
		<rect width="2" height="29" rx="1" x="17" y="3"/>
		<use href="#bowl" transform="matrix(1 0 0 -1 18 34)"/>
		<circle r="2" cx="18" cy="4"/>
	</g>
	<g fill="#ffac33">
		<path d="M 28,10 c 0,1.105 0,0 -10,0 s -10,1.105 -10,0 c 0,-1.105 3,-4 10,-4 s 10,2.895 10,4 Z"/>
		<circle r="2" cx="8" cy="10"/>
		<circle r="2" cx="28" cy="10"/>
	</g>
	
	<g fill="#ffac33">
		<use href="#bowl" transform="translate(0 22) scale(1.143) translate(7 0)"/> 1.143.. = 16/14
		<use href="#bowl" transform="matrix(-1 0 0 1 36 22) scale(1.143) translate(7 0)"/>
	</g>
</svg>
