<svg xmlns="http://www.w3.org/2000/svg" viewBox="0 0 36 36">
	<g stroke-width="2" fill="none" stroke="#66757f">
		<path d="M 3,22.539 L 7.616,10"/>
		<path d="M 13,22.539 L 8.384,10"/>
		<path d="M 23,22.539 L 27.616,10"/>
		<path d="M 33,22.539 L 28.384,10"/>
	</g>
	<g>
		<path d="M 24,34 h-12 a 1,1 0 01 -1,-1 a 7,4 0 01 7,-4 a 7,4 0 01 7,4 a 1,1 0 01 -1,1 Z" fill="#ffac33"/>
	</g>
	<g>
		<path d="M 14.8569,22 a 1.143,1.143 0 01 1.143,1.143 a 8,4.571 0 01 -8,4.571 a 8,4.571 0 01 -8,-4.571 a 1.143,1.143 0 01 1.143,-1.143 h13.714 Z" fill="#ffac33"/>
	</g>
	<g>
		<path d="M 34.8574,22 a 1.143,1.143 0 01 1.143,1.143 a 8,4.571 0 01 -8,4.571 a 8,4.571 0 01 -8,-4.571 a 1.142,1.143 0 01 1.142,-1.143 h13.715 Z" fill="#ffac33"/>
	</g>
	<g>
		<path d="M 19,3 v27 a 1,1 0 01 -1,1 a 1,1 0 01 -1,-1 v-27 a 1,1 0 01 1,-1 a 1,1 0 01 1,1 Z" fill="#ffac33"/>
	</g>
	<g>
		<path d="M 20,4 a 2,2 0 01 -2,2 a 2,2 0 01 -2,-2 a 2,2 0 01 2,-2 a 2,2 0 01 2,2 Z" fill="#ffac33"/>
	</g>
	<g>
		<path d="M 10,10 a 2,2 0 01 -2,2 a 2,2 0 01 -2,-2 a 2,2 0 01 2,-2 a 2,2 0 01 2,2 Z" fill="#ffac33"/>
	</g>
	<g>
		<path d="M 30,10 a 2,2 0 01 -2,2 a 2,2 0 01 -2,-2 a 2,2 0 01 2,-2 a 2,2 0 01 2,2 Z" fill="#ffac33"/>
	</g>
	<g>
		<path d="M 28,10 c 0,1.104 0,0 -10,0 s -10,1.104 -10,0 c 0,-1.105 3,-4 10,-4 s 10,2.895 10,4 Z" fill="#ffac33"/>
	</g>
</svg>
