<svg xmlns="http://www.w3.org/2000/svg" viewBox="0 0 36 36">
	<path d="M28 35 s-1 -4 -5 -5s-4 -7 -4 -7"  fill="none" stroke-width="2" stroke-linecap="round" stroke="#FCAB40"/>
	
	<path d="M 28,9 c 0,6 -7,12 -9,12 s -9,-6 -9,-12 c 0,-5.799 4.582,-9 9,-9 s 9,3.201 9,9 Z" fill="#BB1A34"/>
	<path d="M 18,25 c -1.1,0 -1.598,-0.805 -1.105,-1.789 l 1.211,-2.422 c 0.492,-0.984 1.297,-0.984 1.789,0 l 1.211,2.422 c 0.492,0.984 -0.006,1.789 -1.106,1.789 h-2 Z"  fill="#BB1A34"/>
	
	<rect x="17" y="20" width="4" height="2" rx="1"  fill="#FCAB40"/>
</svg>
