<svg xmlns="http://www.w3.org/2000/svg" viewBox="0 0 36 36">
	<!-- scaled to hell -->
	<path fill="#F4ABBA" d="M 12.3379,4.9629 c 3.537,0.098 5.993,3.045 4.454,6.877 c -1.213,3.019 -2.036,4.164 -1.85,7.564 c 0.075,1.382 1.473,6.337 1.473,8.155 c 0,6.14 -1.424,7.958 -2.456,8.4 h-5.354 c -5.059,-3.537 -5.256,-10.758 -5.404,-12.771 c 0,-15.621 6.765,-18.291 9.137,-18.225 Z"/>
	<path fill="#F4ABBA" d="M 23.2705,0.1079 c 2.36,-0.066 9.096,2.591 9.096,18.142 c -0.148,2.005 -0.343,9.193 -5.38,12.714 h-5.33 c -1.027,-0.439 -2.446,-2.249 -2.446,-8.361 c 0,-1.81 1.431,-6.742 1.468,-8.119 c 0.081,-3.042 -0.635,-4.524 -1.842,-7.53 c -1.532,-3.814 0.913,-6.748 4.434,-6.846 Z"/>
	
	<path fill="#EA596E" d="M 6.1724,12.3311 s 0.659,-1.814 2.22,-3.88 c 1.744,-2.309 4.334,-0.688 4.017,0.835 c -0.213,1.023 -2.537,6.189 -1.586,8.694 c 2.485,7.761 -0.493,8.073 -2.149,7.942 c -6.586,-0.099 -3.136,-12.019 -2.502,-13.591 Z"/>
	<path fill="#EA596E" d="M 29.4082,7.4429 c 0.632,1.565 4.066,13.431 -2.491,13.529 c -1.649,0.131 -4.613,-0.179 -2.14,-7.905 c 0.947,-2.495 -1.366,-7.638 -1.578,-8.656 c -0.316,-1.516 2.263,-3.13 3.999,-0.831 c 1.554,2.057 2.21,3.863 2.21,3.863 Z"/>
	
	<g fill="#F4ABBA">
		<path d="M 12.2061,25.5693 c -0.142,0 -0.286,-0.037 -0.417,-0.113 c -3.49,-2.045 -6.976,-6.742 -7.866,-8.687 c -0.19,-0.416 -0.008,-0.907 0.408,-1.096 c 0.415,-0.191 0.905,-0.009 1.096,0.407 c 0.792,1.731 4.05,6.104 7.198,7.948 c 0.394,0.231 0.526,0.738 0.295,1.132 c -0.153,0.263 -0.43,0.409 -0.714,0.409 Z"/>
		<path d="M 4.2109,22.5635 c -0.373,0 -0.711,-0.254 -0.803,-0.632 c -0.108,-0.443 0.164,-0.89 0.608,-0.999 c 1.246,-0.303 5.361,-2.219 6.889,-5.391 c 0.2,-0.412 0.695,-0.583 1.104,-0.386 c 0.412,0.198 0.585,0.693 0.387,1.104 c -1.946,4.037 -6.873,6.009 -7.989,6.281 c -0.066,0.015 -0.132,0.023 -0.196,0.023 Z"/>
	</g>
	<g fill="#F4ABBA">
		<path d="M 23.4014,20.6221 c -0.283,0 -0.558,-0.146 -0.711,-0.407 c -0.23,-0.393 -0.099,-0.897 0.294,-1.126 c 3.134,-1.837 6.378,-6.191 7.165,-7.913 c 0.189,-0.414 0.675,-0.597 1.092,-0.407 c 0.413,0.189 0.595,0.678 0.406,1.091 c -0.886,1.936 -4.356,6.613 -7.831,8.649 c -0.131,0.077 -0.273,0.113 -0.415,0.113 Z"/>
		<path d="M 31.4199,17.688 c -0.064,0 -0.13,-0.007 -0.195,-0.023 c -1.504,-0.366 -6.196,-2.541 -8.011,-6.311 c -0.197,-0.41 -0.025,-0.902 0.384,-1.1 c 0.412,-0.197 0.902,-0.024 1.098,0.385 c 1.54,3.196 5.668,5.122 6.917,5.426 c 0.443,0.107 0.713,0.553 0.606,0.995 c -0.092,0.376 -0.429,0.628 -0.799,0.628 Z"/>
	</g>
</svg>
