

<svg xmlns="http://www.w3.org/2000/svg" viewBox="0 0 36 36">
	<g>
		<path d="M 28,2 c 2.684,-1.342 5,4 3,13 c -1.106,4.977 -5,9 -9,12 s -11,-1 -7,-5 s 8,-7 10,-13 c 1.304,-3.912 1,-6 3,-7 Z" fill="#ffe8b6"/>
		<path d="M 31,8 c 0,3 -1,9 -4,13 s -7,5 -4,1 s 5,-7 6,-11 s 2,-7 2,-3 Z" fill="#ffd983"/>
	</g>
	<g>
		<path d="M 22,35 c -2,0 -3,1 -4,1 s -2,-2 0,-2 s 4,0 5,-1 s 1,2 -1,2 Z" fill="#a6d388"/>
		<path d="M 19,35 c 0,0.553 -0.447,1 -1,1 s -1,-0.447 -1,-1 s 0.447,-1 1,-1 s 1,0.447 1,1 Z" fill="#3e721d"/>
	</g>
	<g>
		<!--<path d="M 22,20 s 4,-2 7,2 l -4,4 s -5,5 -10,7 s -14,2 -14,-1 c 0,-1 1,-2 4,-4 c 4.16,-2.773 7.737,-5.303 10,-7 c 0.505,-0.379 0.961,-0.742 1.377,-1.089 c 0.134,-0.308 0.331,-0.62 0.623,-0.911 c 2,-2 1,-4 -2,-4 c -6,0 2,-2 4,-1 c 0.887,0.443 1.379,0.888 1.479,1.593 c 0.183,-0.225 0.352,-0.425 0.521,-0.593 c 2,2 0.704,5.592 1,5 Z" fill="#ffcc4d"/>
			<path d="M 26,19 c 3,0 8,3 7,9 s -5,7 -7,7 h-4 c -2,0 0,-1 1,-2 s 5,0 5,-6 c 0,-3 -4,-7 -6,-7 c 0,0 2,-1 4,-1 Z" fill="#ffcc4d"/>-->
		there's definitely some kind of join in this layer, i'm guessing the peel on the left side was a separate layer during design..
		<path d="M 22,20 s 4,-2 7,2 l -4,4 s -5,5 -10,7 s -14,2 -14,-1 c 0,-1 1,-2 4,-4 c 4.16,-2.773 7.737,-5.303 10,-7 c 0.505,-0.379 0.961,-0.742 1.377,-1.089 c 0.134,-0.308 0.331,-0.62 0.623,-0.911 c 2,-2 1,-4 -2,-4 s 4,-2 6,0 s 0.704,5.592 1,5 Z" fill="#ffcc4d"/>
		<path d="M 24,35 h-2 c -2,0 0,-1 1,-2 s 5,0 5,-6 c 0,-3 2,0 2,3 s -4,5 -6,5 Z" fill="#ffcc4d"/>
	</g>
	<g>
		<path d="M 17,21 c 3,0 5,1 3,3 c -1.581,1.581 -6,5 -10,6 s -8,1 -5,-1 s 9.764,-8 12,-8 Z" fill="#ffd983"/>
	</g>
	<g>
		<path d="M 2,31 c 1,0 1,0 1,0.667 s 0,1.333 -1,1.333 s -1,-1.333 -1,-1.333 s 0,-0.667 1,-0.667 Z" fill="#c1694f"/>
	</g>
	<g>
		<path d="M 22,20 c -1,-2 0,-4 -3,-5 c -2.685,-0.895 -9,2 -11,4 s -4,1 -3,0 s 0,-3 3,-5 s 6.958,-2.916 11,-1 c 4.792,2.271 3,7 3,7 Z" fill="#ffe8b6"/>
		<!-- <path d="M 22,20 c -1,-2 0,-4 -3,-5 c -2.685,-0.895 -9,2 -11,4 s -4,1 -3,0 c 1,-1 0,-3 3,-5 s 7,-3 11,-1 c 4,2 3,7 3,7 Z" fill="#ffe8b6"/> original before it was messed with.. -->
		<path d="M 26,19 c 3,0 8,3 7,9 s -5,7 -7,7 h-2 c -2,0 -1,-1 0,-2 s 4,0 4,-6 c 0,-3 -4,-7 -6,-7 c 0,0 2,-1 4,-1 Z" fill="#ffe8b6"/>
	</g>
</svg>
