<svg xmlns="http://www.w3.org/2000/svg" viewBox="0 0 36 36">
	<path d="M 26,35 h-4 c -2,0 -3,1 -4,1 s -2,-2 0,-2 s 4,0 5,-1 s 5,2 3,2 Z"  fill="#A6D388"/>
	<circle fill="#3E721D" cx="18" cy="35" r="1"/>
	
	<path d="M 28,2 c 2.684,-1.342 5,4 3,13 c -1.106,4.977 -5,9 -9,12 s -11,-1 -7,-5 s 8,-7 10,-13 c 1.304,-3.912 1,-6 3,-7 Z"  fill="#FFE8B6"/>
	<path d="M 31,8 c 0,3 -1,9 -4,13 s -7,5 -4,1 s 5,-7 6,-11 s 2,-7 2,-3 Z"  fill="#FFD983"/>
	<path d="M 22,20 s 4,-2 7,2 l -4,4 s -5,5 -10,7 s -14,2 -14,-1 c 0,-1 1,-2 4,-4 c 4.16,-2.773 7.737,-5.303 10,-7 c 0.505,-0.379 0.961,-0.742 1.378,-1.088 c 0.133,-0.309 0.331,-0.62 0.622,-0.912 c 2,-2 1,-4 -2,-4 c -6,0 2.016,-2.032 4,-1 c 4.167,2.167 2.704,6.592 3,6 Z"  fill="#FFCC4D"/>
	<path d="M 32.208,28 s -4.208,7 -6.208,7 h-4 c -2,0 0,-1 1,-2 s 5,0 5,-6 c 0,-3 4.208,1 4.208,1 Z"  fill="#FFCC4D"/>
	
	<path d="M 22,20 c -1,-2.001 0,-4 -3,-5 c -2.684,-0.895 -9,2 -11,4 s -4,1 -3,0 s 0,-3 3,-5 s 6.958,-2.916 11,-1 c 4.792,2.271 3,7 3,7 Z"  fill="#FFE8B6"/>
	<path d="M 26,19 c 3,0 8,3 7,9 s -5,7 -7,7 h-2 c -2,0 -1,-1 0,-2 s 4,0 4,-6 c 0,-3 -4,-7 -6,-7 c 0,0 2,-1 4,-1 Z"  fill="#FFE8B6"/>
	
	<path d="M 17,21 c 3,0 5,1 3,3 c -1.581,1.581 -6,5 -10,6 s -8,1 -5,-1 s 9.764,-8 12,-8 Z"  fill="#FFD983"/>
	<path d="M 2,31 c 1,0 1,0 1,0.667 c 0,0.666 0,1.333 -1,1.333 s -1,-1.333 -1,-1.333 s 0,-0.667 1,-0.667 Z"  fill="#C1694F"/>
</svg>
