<svg xmlns="http://www.w3.org/2000/svg" viewBox="0 0 36 36">
	based on violin
	
	<g transform="translate(0.0469 -0.0469)">
		<path fill="#292F33" d="M 32.292,5.3853 l -15.45,17.334 l -3.561,-3.56 l 17.332,-15.452 l 1.679,1.678 Z"/>
		
		<g fill="#66757F">
			<circle r="1" cx="10" cy="17"/>
			<circle r="1" cx="1" cy="26"/>
			<circle r="1" cx="19" cy="26"/>
			<circle r="1" cx="10" cy="35"/>
			<circle r="1" cx="3.5" cy="19.875"/>
			<circle r="1" cx="16.167" cy="32.541"/>
		</g>
		<circle r="9" cx="10" cy="26" fill="#f4900c"/>
		<circle r="7" cx="10" cy="26" fill="#F5F8FA"/>
		
		<g transform="translate(36) rotate(45)">
			adjusted, likewise
			<rect width="0.75" height="38" x="-1" y="7" fill="#CCD6DD"/>
			<rect width="0.75" height="38" x="0.25" y="7" fill="#CCD6DD"/>
		</g>
		
		<path fill="#292F33" d="M 2,32 l 2,-3 s 1,0 2,1 s 1,2 1,2 l -3,2 l -2,-2 Z"/>
		
		<path d="M 9.05,29.95 l -3,-3" stroke-width="2" stroke-linecap="round" stroke="#66757F"/>
	</g>
	
	<g>
		<rect width="4.21648" height="6.75853" x="-2.10824" y="-3.379265" rx="1.12589" transform="translate(36) rotate(45) translate(0 6.194715)" fill="#f4900c"/> same as violin
		<g fill="#662113">
			<circle r="1" cx="33" cy="8"/>
			<circle r="1" cx="35" cy="6"/>
			<circle r="1" cx="28" cy="3"/>
			<circle r="1" cx="30" cy="1"/>
		</g>
	</g>
</svg>
