<svg xmlns="http://www.w3.org/2000/svg" viewBox="0 0 36 36">
	<circle fill="#F4900C" cx="18" cy="18" r="18"/>
	<path d="M 36,17 v2 h-8.981 c 0.189,5.506 1.943,9.295 4.784,10.546 c -0.444,0.531 -0.926,1.028 -1.428,1.504 c -2.831,-1.579 -5.145,-5.274 -5.354,-12.05 h-6.021 v17 h-2 v-17 h-6.021 c -0.208,6.777 -2.522,10.472 -5.353,12.05 c -0.502,-0.477 -0.983,-0.973 -1.428,-1.504 c 2.841,-1.251 4.595,-5.04 4.783,-10.546 h-8.981 v-2 h8.981 c -0.188,-5.506 -1.942,-9.295 -4.783,-10.546 c 0.444,-0.531 0.926,-1.027 1.428,-1.503 c 2.83,1.578 5.145,5.273 5.353,12.049 h6.021 v-17 h2 v17 h6.021 c 0.209,-6.777 2.524,-10.472 5.354,-12.05 c 0.502,0.477 0.983,0.973 1.428,1.504 c -2.841,1.251 -4.596,5.04 -4.784,10.546 h8.981 Z"  fill="#231F20"/>
	<!--
	<defs id="defs6">
		<clipPath id="clipPath32">
			<circle fill="#F4900C" cx="18" cy="18" r="18"/>
		</clipPath>
	</defs>
	<circle fill="#F4900C" cx="18" cy="18" r="18"/>
	<path d="M 19,36 v-36 h-2 v36 h2 Z" fill="#231f20"/>
	<path d="M 0,17 v2 h36 v-2 h-36 Z" fill="#231f20"/>
	<g clip-path="url(#clipPath32)">
these shapes were created by:
1: drawing a 8x16 ellipse
2: convert to 4 cubic bezier curves
3: move the top and bottom points inwards by 3 units
4: stroke width 2

		<path d="M  2,6 c 4.318,0 7,4.598 7,12 s -2.682,12 -7,12 s -7,-4.598 -7,-12 s 2.682,-12 7,-12 Z M  2,32 c 4.351,0 9,-3.678 9,-14 s -4.649,-14 -9,-14 s -9,3.678 -9,14 s 4.649,14 9,14 Z"  fill="#231f20"/>
		<path d="M 34,6 c 4.317,0 7,4.598 7,12 s -2.683,12 -7,12 s -7,-4.598 -7,-12 s 2.683,-12 7,-12 Z M 34,32 c 4.351,0 9,-3.678 9,-14 s -4.649,-14 -9,-14 s -9,3.678 -9,14 s 4.649,14 9,14 Z"  fill="#231f20"/>
	</g>
-->
</svg>
