<svg xmlns="http://www.w3.org/2000/svg" viewBox="0 0 36 36">
	<g fill="#C1694F">
		<path d="M 2,15.375 s -2,-3.625 -2,-7.625 s 3.786,-3.542 5,-2.438 c 1.292,1.175 3,4.938 3,4.938 l -1,0.688 s -0.833,-1.511 -1.833,-2.823 c -1,-1.313 -2.75,-0.943 -2.75,1.057 s 1.583,5.828 1.583,5.828 l -2,0.375 Z"/>
		<path d="M 34,15.375 l -2,-0.375 s 1.583,-3.828 1.583,-5.828 s -1.75,-2.37 -2.75,-1.057 c -1,1.312 -1.833,2.823 -1.833,2.823 l -1,-0.688 s 1.708,-3.763 3,-4.938 c 1.215,-1.104 5,-1.562 5,2.438 s -2,7.625 -2,7.625 Z"/>
	</g>
	<g>
		<path fill="#C1694F" d="M 33.2383,16.7617 c 0,4.734 -2.857,15.238 -15.238,15.238 s -15.239,-10.504 -15.239,-15.238 c 0,-2.857 5.771,-4.762 15.239,-4.762 c 9.467,0 15.238,1.905 15.238,4.762 Z"/>
		<g fill="#D99E82">
			<path d="M 17,27.9893 v1.998 c -2.022,-0.029 -3.914,-0.144 -5.631,-0.37 c -1.521,-0.721 -2.777,-1.671 -3.784,-2.766 c 2.562,0.751 5.769,1.087 9.415,1.138 Z"/>
			<path d="M 19,27.9893 c 3.646,-0.051 6.853,-0.387 9.415,-1.138 c -1.008,1.095 -2.263,2.045 -3.784,2.766 c -1.718,0.226 -3.609,0.341 -5.631,0.37 v-1.998 Z"/>
			<path d="M 9.1299,23.2236 c 0.315,0.749 0.692,1.497 1.143,2.224 c -1.735,-0.291 -3.285,-0.703 -4.583,-1.276 c -0.462,-0.847 -0.828,-1.715 -1.11,-2.575 c 1.238,0.721 2.78,1.247 4.55,1.627 Z"/>
			<path d="M 18,26 c -1.974,0 -3.824,-0.081 -5.53,-0.254 c -0.457,-0.7 -0.846,-1.422 -1.173,-2.148 c 2.018,0.273 4.261,0.402 6.703,0.402 c 2.338,0 4.495,-0.117 6.447,-0.367 c -0.327,0.724 -0.715,1.443 -1.173,2.14 c -1.633,0.157 -3.399,0.227 -5.274,0.227 Z"/>
			<path d="M 26.6094,23.2764 c 1.88,-0.383 3.513,-0.924 4.811,-1.68 c -0.282,0.861 -0.648,1.728 -1.11,2.576 c -1.364,0.601 -3.004,1.027 -4.847,1.32 c 0.452,-0.725 0.83,-1.47 1.146,-2.216 Z"/>
		</g>
	</g>
	<g>
		<path fill="#D99E82" d="M 35,13.5557 c 0,6.444 -6.959,8.444 -17,8.444 s -17,-2 -17,-8.444 c 0,-3.333 6.438,-5.556 17,-5.556 c 10.563,0 17,2.223 17,5.556 Z"/>
	</g>
	<g>
		<ellipse rx="15.938" ry="4.4445" cx="18" cy="13.5555" fill="#662113"/>
	</g>
	<g fill="#8A4633">
		this is the same as the other pattern, just vertically flipped and clipped to the ellipse (bars)
		<path d="M 17,12.5942 c -3.646,0.051 -6.853,0.387 -9.415,1.137 c 1.007,-1.094 2.263,-2.044 3.784,-2.765 c 1.717,-0.226 3.609,-0.341 5.631,-0.37 v1.998 Z"/>
		<path d="M 19,12.5942 v-1.998 c 2.022,0.029 3.913,0.144 5.631,0.37 c 1.521,0.721 2.776,1.671 3.784,2.765 c -2.562,-0.75 -5.769,-1.086 -9.415,-1.137 Z"/>
		<path d="M 9.1777,17.2559 c -1.292,-0.24 -2.452,-0.531 -3.441,-0.863 c 1.289,-0.562 2.821,-0.969 4.536,-1.257 c -0.43,0.693 -0.789,1.406 -1.095,2.12 Z"/>
		<path d="M 18,14.5835 c 1.875,0 3.641,0.071 5.274,0.227 c 0.458,0.696 0.846,1.416 1.173,2.14 c -1.952,-0.249 -4.109,-0.367 -6.447,-0.367 c -2.442,0 -4.685,0.129 -6.703,0.403 c 0.327,-0.727 0.716,-1.448 1.173,-2.149 c 1.706,-0.173 3.556,-0.254 5.53,-0.254 Z"/>
		<path d="M 25.4629,15.0918 c 1.824,0.29 3.445,0.71 4.801,1.301 c -1.044,0.351 -2.282,0.653 -3.66,0.9 c -0.317,-0.741 -0.692,-1.482 -1.141,-2.201 Z"/>
	</g>
</svg>
