<svg xmlns="http://www.w3.org/2000/svg" viewBox="0 0 36 36">
	<path d="M 23,21 c 0,6.352 -3,10 -5,10 s -5,-3.648 -5,-10 s 2.239,-7 5,-7 c 2.762,0 5,0.648 5,7 Z"  fill="#66757F"/>
	
	<path d="
M 22,11
c 0,3.313 -0.687,4 -4,4
s -4,-0.687 -4,-4
s 0.687,-4 4,-4
s 4,0.687 4,4
Z" fill="#66757F"/>
	
	<path d="M 14,11 c -2,-5 1,-7 1,-7 s 2,1 2,4 s -3,3 -3,3 Z"  fill="#66757F"/>
	
	<path d="M 22,11 s -3,0 -3,-3 s 2,-4 2,-4 s 3,2 1,7 Z"  fill="#66757F"/>
	
	<path d="M 16.016,14 s 3,13 0,16 c -2,-2 -5,-4 -8,0 c -1,-5 -4,-6 -7,-1 c -2,-12.166 1,-17 4,-20 c 1,-1 2.142,-0.99 2,0 c -1,7 7.38,6.157 9,5 Z"  fill="#66757F"/>
	<path d="M 19.953,14 c 1.62,1.157 10,2 9,-5 c -0.142,-0.99 1,-1 2,0 c 3,3 6,7.834 4,20 c -3,-5 -6,-4 -7,1 c -3,-4 -6,-2 -8,0 c -3,-3 0,-16 0,-16 Z"  fill="#66757F"/>
	<path d="M 7.996,26.91 c -0.775,-1.414 -1.843,-2.197 -3.108,-2.197 c -0.816,0 -1.952,0.344 -3.228,1.723 c -1.183,-9.905 1.357,-14.022 4.063,-16.729 c 0.052,-0.052 0.099,-0.089 0.148,-0.13 c -0.186,1.094 -0.358,3.704 1.129,7.423 c 1.569,3.922 1.888,7.219 0.996,9.91 Z M 6.832,13.25 c 2.168,3.75 7.168,5.75 8.807,15.067 c -1.347,-1.089 -2.631,-1.627 -3.895,-1.627 c -0.93,0 -1.817,0.303 -2.656,0.874 c 0.388,-2.045 0.5,-4.624 -0.088,-7.564 c -0.6,-2.999 -2,-4 -2.228,-6.837 c 0.019,0.029 0.041,0.057 0.06,0.087 Z"  fill="#99AAB5"/>
	<path d="M 28.004,26.91 c -0.893,-2.691 -0.572,-5.988 0.996,-9.91 c 1.487,-3.719 1.315,-6.329 1.129,-7.423 c 0.049,0.041 0.097,0.078 0.148,0.13 c 2.706,2.707 5.246,6.824 4.063,16.729 c -1.275,-1.379 -2.412,-1.723 -3.227,-1.723 c -1.266,0 -2.334,0.783 -3.109,2.197 Z M 29.168,13.25 l 0.061,-0.087 c -0.229,2.837 -1.629,3.838 -2.229,6.837 c -0.588,2.94 -0.477,5.519 -0.088,7.564 c -0.84,-0.571 -1.726,-0.874 -2.656,-0.874 c -1.264,0 -2.548,0.538 -3.895,1.627 c 1.639,-9.317 6.639,-11.317 8.807,-15.067 Z"  fill="#99AAB5"/>
	<path d="M 18.688,13.106 c -0.378,0.378 -0.998,0.378 -1.375,0 l -0.57,-0.571 c -0.378,-0.378 -0.25,-0.688 0.285,-0.688 h1.945 c 0.535,0 0.664,0.309 0.285,0.688 l -0.57,0.571 Z"  fill="#99AAB5"/>
	
	<path d="M 14.668,9.904 c -0.776,-2.457 -0.119,-3.896 0.403,-4.58 c 0.415,0.449 0.929,1.284 0.929,2.676 c 0,1.268 -0.739,1.734 -1.332,1.904 Z"  fill="#546066"/>
	<path d="M 21.332,9.904 c -0.593,-0.17 -1.332,-0.636 -1.332,-1.904 c 0,-1.392 0.514,-2.227 0.929,-2.676 c 0.521,0.684 1.178,2.123 0.403,4.58 Z"  fill="#546066"/>
	
	<circle fill="#292F33" cx="16" cy="11" r="1"/>
	<circle fill="#292F33" cx="20" cy="11" r="1"/>
	
	
</svg>
