<svg xmlns="http://www.w3.org/2000/svg" viewBox="0 0 36 36">
	<g>
		<circle r="2" cx="12" cy="34" fill="#99aab5"/>
		<circle r="2" cx="28" cy="34" fill="#99aab5"/>
	</g>
	
	<g>
		<g>
			<ellipse rx="2" ry="1" cx="32" cy="16" fill="#99aab5"/>
			<path d="M 25,4 C 25,0 33,0 33,4 L 33,20" stroke-width="2" stroke-linecap="round" fill="none" stroke="#ccd6dd"/>
		</g>
		<g>
			<path d="M 28,6 c 0,1.104 -1.343,1 -3,1 s -3,0.104 -3,-1 a 3,2 0 01 3,-2 a 3,2 0 01 3,2 Z" fill="#99aab5"/>
			<rect width="8" height="2" rx="1" x="21" y="6" fill="#ccd6dd"/>
		</g>
	</g>
	
	<g>
		<path d="M 30,34 h-18 c -5,0 -10,-6 -11,-14 c -0.248,-1.984 0.812,-1 3.021,-1 c 0,0 12.979,2 25.979,2 c 2,0 5,-1.209 5,1 c 0,0 -1,12 -5,12 Z" fill="#ccd6dd"/>
		<path d="M 35,21 L 1,19" stroke-width="2" stroke-linecap="round" fill="none" stroke="#99aab5"/>
	</g>
</svg>
