<svg xmlns="http://www.w3.org/2000/svg" viewBox="0 0 36 36">
	<path d="M 30,32.7 c 0,1.657 -5.373,3.3 -12,3.3 s -12,-1.643 -12,-3.3 s 5.373,-2.7 12,-2.7 s 12,1.043 12,2.7 Z"   fill="#77B255"/>
	<path d="M 6,3 h24 v29.7 h-24 v-29.7 Z"   fill="#77B255"/>
	<ellipse fill="#5C913B" cx="18" cy="3" rx="12" ry="3"/>
	<path d="M 21.956,12.788 c 0.091,0.544 -0.321,1.066 -0.922,1.136 c -0.676,0.079 -1.355,0.121 -2.035,0.147 v1.929 a 1,1 0 01 -2,0 v-1.93 a 26.188,26.188 0 01 -2.035,-0.147 c -0.601,-0.07 -1.012,-0.591 -0.922,-1.136 a 1.042,1.042 0 01 1.152,-0.851 c 0.6,0.07 1.202,0.109 1.804,0.133 v-2.069 a 1,1 0 01 2,0 v2.07 a 24.781,24.781 0 00 1.804,-0.133 a 1.042,1.042 0 01 1.154,0.851 Z"   fill="#FFF"/>
	<path d="M 20.304,30.534 a 1.047,1.047 0 01 1.152,0.854 c 0.092,0.544 -0.325,1.067 -0.934,1.134 c -1.676,0.184 -3.368,0.184 -5.044,0 c -0.608,-0.067 -1.025,-0.59 -0.934,-1.134 a 1.048,1.048 0 01 1.153,-0.854 a 21.119,21.119 0 00 4.607,0 Z"   fill="#FFF"/>
	<ellipse fill="#CCD6DD" cx="18" cy="3" rx="10" ry="2"/>
	<path d="M 14,1 h8 v1.5 a 4,1 0 01 -4,1 a 4,1 0 01 -4,-1 v-1.5 Z"   fill="#99AAB5"/>
	<ellipse fill="#CCD6DD" cx="18" cy="1" rx="4" ry="1"/>
</svg>
