<svg xmlns="http://www.w3.org/2000/svg" viewBox="0 0 36 36">
	<!-- tooth -->
	<path d="M 2.262,12.452 s 1.845,-0.238 2.024,0.655 c 0.178,0.893 -0.361,2.297 -0.893,2.381 c -1.131,0.178 -1.369,-1.31 -1.131,-3.036 Z"  fill="#C1694F"/>
	<path d="M 2.56,12.929 s 1.071,-0.655 1.25,0.238 c 0.178,0.892 -0.119,2.142 -0.655,2.202 c -0.535,0.06 -0.833,-0.714 -0.595,-2.44 Z"  fill="#FFE9B7"/>
	
	<path d="M 1.37,9.544 c 0.932,-0.673 2.495,-1.916 4.322,-2.406 s 4.144,-0.579 4.901,-0.757 s 2.584,-0.446 2.851,0.312 s 3.743,2.094 5.525,1.827 s 7.359,-1.037 10.871,1.025 c 4.099,2.406 5.614,7.262 4.767,10.738 c -0.847,3.475 -2.896,6.059 -5.525,6.371 s -5.748,0.178 -8.332,-2.495 s -4.188,-5.436 -6.683,-5.703 s -3.03,-2.139 -3.787,-3.03 s -3.208,-0.356 -5.213,-0.802 c -1.532,-0.34 -2.762,-1.827 -3.342,-2.941 s -1.157,-1.56 -0.355,-2.139 Z"  fill="#C1694F"/>
	
	<path d="M 12.144,14.035 c 0.26,0.438 -0.456,1.691 -1.09,2.52 c -0.286,-0.421 -0.519,-0.831 -0.773,-1.129 c -0.758,-0.891 -3.208,-0.356 -5.213,-0.802 c -1.533,-0.341 -2.763,-1.827 -3.342,-2.941 c 1.596,1.434 5.629,0.49 5.629,0.49 s 2.312,1.862 4.789,1.862 Z M 17.261,16.151 c 2.025,1.849 5.617,0.327 8.719,3.413 c -1.969,0.424 -5.447,2.104 -6.847,2.804 c -1.324,-1.529 -2.455,-2.884 -3.776,-3.531 c 0.514,-0.67 1.455,-1.92 1.904,-2.686 Z M 27.832,20.646 c 1.856,0.25 6.592,-1.695 6.111,-6.44 c 0.895,2.036 1.111,4.246 0.665,6.075 c -0.847,3.475 -2.896,6.059 -5.525,6.371 c -0.616,0.073 -1.259,0.12 -1.915,0.117 c 0.062,-2.487 0.226,-5.934 0.664,-6.123 Z"  fill="#93493B"/>
	
	<path d="M 12.13,8.277 c 1.093,-0.441 1.281,-1.239 1.309,-1.591 l 0.005,0.007 c 0.033,0.095 0.118,0.2 0.244,0.309 c 0.061,0.27 0.031,0.623 -0.319,0.999 c -0.514,0.551 -1.239,0.276 -1.239,0.276 Z"  fill="#93493B"/>
	<path d="M 10.905,7.152 c 0.456,-0.684 2.629,-0.624 1.738,0.178 s -2.54,1.025 -1.738,-0.178 Z"  fill="#662113"/>
	
	<path d="M 24.805,19.167 c 2.584,0.58 3.698,2.273 4.01,3.965 c 0.209,1.134 -0.677,2.443 -1.203,3.386 c -2.501,0.221 -4.461,0.122 -6.861,-2.361 c -0.773,-0.799 -1.457,-1.606 -2.105,-2.352 c -0.034,-0.423 0,-0.827 0.144,-1.168 c 0.847,-2.005 4.45,-1.821 6.015,-1.47 Z"  fill="#662113"/>
	<path d="M 14.409,14.023 c 1.337,0.312 2.761,1.363 2.331,2.962 c -0.192,0.717 -0.559,1.432 -0.996,2.066 c -0.525,-0.319 -1.075,-0.531 -1.677,-0.596 c -1.754,-0.188 -2.321,-0.704 -2.896,-1.58 c 0.073,-0.419 0.239,-1.092 0.327,-1.634 c 0.223,-1.381 1.574,-1.53 2.911,-1.218 Z"  fill="#662113"/>
	
	<path d="M 24.939,19.346 c 2.573,0.3 3.876,2.049 4.188,3.742 s -0.089,4.277 -1.827,4.5 c -1.737,0.223 -8.331,0.847 -8.955,0.802 c -0.624,-0.044 -0.624,-1.114 -0.178,-1.693 s 3.921,-0.757 3.921,-0.757 c -2.629,-0.891 -4.01,-3.386 -3.03,-4.812 s 3.208,-2.094 5.881,-1.782 Z"  fill="#C1694F"/>
	<path d="M 11.172,14.979 c 0.222,-1.381 2.049,-1.737 3.387,-1.426 c 1.336,0.312 4.589,0.045 2.183,3.431 c -0.958,1.349 -3.119,2.673 -4.188,3.119 c -1.069,0.445 -3.029,0.445 -4.054,0.49 c -0.803,0.035 -1.426,0.757 -0.713,1.47 c 0.712,0.713 -0.081,0.674 -0.847,0.535 c -0.491,-0.089 -1.248,-0.579 -1.248,-1.559 s 0.802,-1.871 1.782,-1.916 s 2.183,-0.49 2.851,-1.203 c 0.635,-0.677 0.632,-1.605 0.847,-2.941 Z"  fill="#C1694F"/>
	
	<path d="M 0.493,10.45 c -0.163,-0.995 1.099,-1.322 1.367,-0.787 c 0.267,0.535 0.876,2.525 0.356,2.51 c -0.637,-0.019 -1.505,-0.401 -1.723,-1.723 Z"  fill="#292F33"/>
	<circle fill="#292F33" cx="7" cy="9.001" r="1"/>
	
	<path d="M 31.31,22.197 c 1.233,-0.231 3.965,2.228 3.52,5.391 c -0.446,3.163 -3.653,5.881 -7.129,7.04 s -12.609,1.604 -16.173,0.312 s -2.851,-4.455 0,-5.703 s 6.861,-1.693 11.406,-1.604 c 3.566,0.07 7.04,-1.693 6.861,-2.762 c -0.178,-1.07 0.089,-2.407 1.515,-2.674 Z"  fill="#662113"/>
	<path d="M 31.845,24.202 c 1.025,1.871 0.422,4.916 -3.832,6.371 c -3.386,1.158 -6.793,0.825 -9.401,0.891 c -1.96,0.05 -3.698,0.223 -4.634,0.401 c 0,0 1.66,-0.677 4.366,-0.847 c 2.274,-0.142 6.798,-0.136 8.465,-0.668 c 6.283,-2.004 5.036,-6.148 5.036,-6.148 Z"  fill="#C1694F"/>
	</svg>
