<svg xmlns="http://www.w3.org/2000/svg" viewBox="0 0 36 36">
	<rect width="34" height="36" rx="4" x="1" y="0" fill="#292f33"/>
	<!-- <path d="M 14,11 c 0,2.209 -1.791,4 -4,4 h-1 c -2.209,0 -4,-1.791 -4,-4 v-2 c 0,-2.209 1.791,-4 4,-4 h1 c 2.209,0 4,1.791 4,4 v2 Z" fill="#292f33"/> mmnm.. --> 
	<g>
		<rect width="19" height="12" rx="2" x="3" y="17" fill="#be1931"/>
		<rect width="9" height="12" rx="2" x="24" y="17" fill="#be1931"/>
		<rect width="17" height="13" rx="2" x="16" y="2" fill="#be1931"/>
		<rect width="11" height="13" rx="2" x="3" y="2" fill="#be1931"/>
	</g>
	<g>
		<rect width="11" height="10" rx="2" x="3" y="5" fill="#dd2e44"/>
		<rect width="17" height="10" rx="2" x="16" y="5" fill="#dd2e44"/>
		<rect width="9" height="9" rx="2" x="24" y="20" fill="#dd2e44"/>
	</g>
	<g>
		<rect width="19" height="9" rx="2" x="3" y="20" fill="#e1e8ed"/>
		<g stroke-width="2" stroke="#b2c2cc" fill="none" stroke-linecap="round">
			<path d="M 6,26 l 1,-1"/>
			<path d="M 18.417,26.499 l -1.0005,-1"/>
			<path d="M 12.2505,22.208 l -0.459,-0.458"/>
		</g>
		<circle r="1" cx="12" cy="26" fill="#ccd6dd"/>
		<circle r="1" cx="20" cy="22" fill="#ccd6dd"/>
	</g>
	<g>
		<path d="M 27.0146,9.2402 c 1.315,1.478 1.908,3.098 1.322,3.619 l -1.058,0.941 c -0.585,0.522 -2.126,-0.255 -3.441,-1.733 l -3.571,-4.013 c -1.314,-1.479 -1.907,-3.099 -1.321,-3.62 l 1.059,-0.941 c 0.586,-0.521 2.124,0.255 3.439,1.733 l 3.571,4.014 Z" fill="#ffac33"/>
		<path d="M 22.2803,11.0762 c -0.598,1.539 -1.477,2.633 -1.961,2.444 l -0.877,-0.341 c -0.485,-0.188 -0.392,-1.589 0.205,-3.126 l 1.625,-4.178 c 0.599,-1.538 1.477,-2.632 1.962,-2.444 l 0.876,0.341 c 0.485,0.189 0.394,1.589 -0.205,3.127 l -1.625,4.177 Z" fill="#ffd983"/>
		<path d="M 23.1133,11.5361 c -1.562,0.535 -2.965,0.568 -3.133,0.076 l -0.305,-0.891 c -0.168,-0.492 0.962,-1.324 2.523,-1.858 l 4.242,-1.45 c 1.562,-0.533 2.964,-0.567 3.133,-0.074 l 0.304,0.889 c 0.169,0.493 -0.961,1.325 -2.523,1.858 l -4.241,1.45 Z" fill="#ffd983"/>
	</g>
	<g>
		<path d="M 6.4424,7.873 c 0.373,-4.106 4.907,-0.961 7.135,1.049 c -1.34,1.485 -7.587,3.93 -7.135,-1.049 Z" fill="#5c913b"/>
		<path d="M 6.5845,7.7842 c 3.739,-1.737 3.293,3.763 2.672,6.698 c -1.956,-0.414 -7.206,-4.59 -2.672,-6.698 Z" fill="#5c913b"/>
		<path d="M 5,8 c -1.2,-1.6 1,-5 6,-5 c 1,1 -3,9 -6,5 Z" fill="#77b255"/>
	</g>
	<g>
		<path d="M 32.1494,23.4121 c 0.707,0.848 0.592,2.109 -0.257,2.816 l -2.305,1.921 c -0.847,0.707 -2.109,0.592 -2.816,-0.257 l -1.921,-2.304 c -0.707,-0.848 -0.592,-2.11 0.257,-2.817 l 2.305,-1.921 c 0.847,-0.707 2.109,-0.591 2.816,0.257 l 1.921,2.305 Z" fill="#b26304"/>
		<path d="M 32.1494,21.4121 c 0.707,0.848 0.592,2.109 -0.257,2.816 l -2.305,1.921 c -0.847,0.707 -2.109,0.592 -2.816,-0.257 l -1.921,-2.304 c -0.707,-0.848 -0.592,-2.11 0.257,-2.817 l 2.305,-1.921 c 0.847,-0.707 2.109,-0.591 2.816,0.257 l 1.921,2.305 Z" fill="#f4900c"/>
	</g>
</svg>
