<svg xmlns="http://www.w3.org/2000/svg" viewBox="0 0 36 36">
	<rect width="34" height="36" rx="4" x="1" y="0" fill="#292f33"/>
	<!-- <path d="M 14,11 c 0,2.209 -1.791,4 -4,4 h-1 c -2.209,0 -4,-1.791 -4,-4 v-2 c 0,-2.209 1.791,-4 4,-4 h1 c 2.209,0 4,1.791 4,4 v2 Z" fill="#292f33"/> mmnm.. --> 
	<g>
		<rect width="19" height="12" rx="2" x="3" y="17" fill="#be1931"/>
		<rect width="9" height="12" rx="2" x="24" y="17" fill="#be1931"/>
		<rect width="17" height="13" rx="2" x="16" y="2" fill="#be1931"/>
		<rect width="11" height="13" rx="2" x="3" y="2" fill="#be1931"/>
	</g>
	<g>
		<rect width="11" height="10" rx="2" x="3" y="5" fill="#dd2e44"/>
		<rect width="17" height="10" rx="2" x="16" y="5" fill="#dd2e44"/>
		<rect width="9" height="9" rx="2" x="24" y="20" fill="#dd2e44"/>
	</g>
	<g>
		<rect width="19" height="9" rx="2" x="3" y="20" fill="#e1e8ed"/>
		<g stroke-width="2" stroke="#b2c2cc" fill="none" stroke-linecap="round">
			<path d="M 6,26 l 1,-1"/>
			<path d="M 18.417,26.499 l -1.0005,-1"/>
			<path d="M 12.2505,22.208 l -0.459,-0.458"/>
		</g>
		<circle r="1" cx="12" cy="26" fill="#ccd6dd"/>
		<circle r="1" cx="20" cy="22" fill="#ccd6dd"/>
	</g>
	<g>
		<rect height="12.536" y="-6.268" width="4.253" x="-2.1265" ry="3.58194" rx="1.41835" transform="translate(23.64098 8.64682) rotate(-41.65424)" fill="#ffac33"/>
		<rect height="10.4594" y="-5.2297" width="2.82493" x="-1.412465" rx="0.94222" ry="2.98848" transform="translate(21.77642 8.47583) rotate(21.25326)" fill="#ffd983"/>
		<rect height="10.45969" y="-5.229845" width="2.82511" x="-1.412555" rx="0.94223" ry="2.98859" transform="translate(24.77655 9.47485) rotate(71.12727)" fill="#ffd983"/>
	</g>
	<g>
		<path d="M 6.4424,7.873 c 0.373,-4.106 4.907,-0.961 7.135,1.049 c -1.34,1.485 -7.587,3.93 -7.135,-1.049 Z" fill="#5c913b"/>
		<path d="M 6.5845,7.7842 c 3.739,-1.737 3.293,3.763 2.672,6.698 c -1.956,-0.414 -7.206,-4.59 -2.672,-6.698 Z" fill="#5c913b"/>
		<path d="M 5,8 c -1.2,-1.6 1,-5 6,-5 c 1,1 -3,9 -6,5 Z" fill="#77b255"/>
	</g>
	<g>
		<rect width="7" height="7" rx="2" x="-3.5" y="-3.5" transform="translate(28.5 24.5) rotate(50.1944)" fill="#b26304"/> 50.1944 ≈ atan(1.2)
		<rect width="7" height="7" rx="2" x="-3.5" y="-3.5" transform="translate(28.5 22.5) rotate(50.1944)" fill="#f4900c"/> 50.1944 ≈ atan(1.2)
	</g>
</svg>
