<svg xmlns="http://www.w3.org/2000/svg" viewBox="0 0 36 36">
	<path d="M 28.337,32.563 l -2.579,3.082 c -0.552,0.553 -1.758,0.007 -1.758,-0.545 v-23.099 c 0,-0.552 2.372,-4.501 5,-4.501 l -0.028,23.007 c 0,1.134 -0.093,1.308 -0.635,2.056 Z"   fill="#E3A919"/>
	<path d="M 26,10.454 h-17 l 0.194,-0.348 l 3.546,-2.606 c 0.486,-0.379 0.831,-0.5 1.383,-0.5 h14.363 c 0.188,0 0.514,0.277 0.344,0.47 l -2.83,2.984 Z"   fill="#FFD983"/>
	<path d="M 25,36 h-15 a 1,1 0 01 -1,-1 v-24.546 s 0.448,-0.454 1,-0.454 h15 c 0.552,0 1,0.454 1,0.454 v24.546 a 1,1 0 01 -1,1 Z"   fill="#FFCC4D"/>
	<rect x="9" y="10" width="17.431" height="1" rx="0.5"  fill="#FFE8B6"/>
	<path d="M 28.5195,7.481 L 25.9835,10.517" stroke-linecap="round" fill="none" stroke-width="1" stroke="#FFE8B6"/>
	
	<circle fill="#F4900C" cx="15" cy="27" r="3"/>
	<circle fill="#EA596E" cx="15" cy="21" r="4"/>
	<circle fill="#FFE8B6" cx="19.5" cy="23.5" r="4.5"/>
	<circle fill="#FFCC4D" cx="19.5" cy="23.5" r="2.5"/>
	<path d="M 22.999,8.464 s -0.21,0.431 -0.967,0.431 s -1.033,-0.431 -1.033,-0.431 v-4.122 c 0,-1.993 0.532,-3.309 1.582,-3.911 c 1.005,-0.576 2.326,-0.398 3.922,0.535 c 1.274,0.743 4.421,2.972 4.496,3.034 c 0,0 0.165,0.565 -0.303,1.1 s -0.965,0.447 -0.965,0.447 c -0.018,-0.014 -3.101,-2.191 -4.236,-2.855 c -0.881,-0.515 -1.584,-0.623 -1.904,-0.436 c -0.279,0.16 -0.592,0.726 -0.592,2.086 v4.122 Z"   fill="#CCD6DD"/>
	<path d="M 25.434,0.44 l -0.696,1.898 c -0.516,-0.187 -0.926,-0.211 -1.146,-0.082 c -0.198,0.114 -0.412,0.439 -0.52,1.103 l -1.975,-0.367 c 0.197,-1.248 0.693,-2.108 1.484,-2.562 c 0.771,-0.441 1.729,-0.436 2.853,0.01 Z"   fill="#99AAB5"/>
	
</svg>
