<svg xmlns="http://www.w3.org/2000/svg" viewBox="0 0 36 36">
	todo: i believe the "no bicycles" sign uses this as a source
	<defs>
		<clipPath id="fender1">
			<path d="M 0,0 l -5,-11 l 23,2 l -18,9 Z"/>
		</clipPath>
		<clipPath id="fender2">
			<path d="M 0,0 l -18,-8.5 l 29,-1.5 l -11,10 Z"/>
		</clipPath>
	</defs>
	wheel 1
	<g transform="translate(7 29)">
		<circle cx="-0.1" cy="-0.1" r="7.4" stroke-width="3" stroke="#ea596e" fill="none" clip-path="url(#fender1)"/>
		<circle r="6" stroke-width="2" stroke="#292f33" fill="none"/>
	</g>
	wheel 2
	<g transform="translate(29 29)">
		<circle cx="-0.1" cy="-0.1" r="7.4" stroke-width="3" stroke="#ea596e" fill="none" clip-path="url(#fender2)"/>
		<circle r="6" stroke-width="2" stroke="#292f33" fill="none"/>
	</g>
	frame
	<g stroke-width="2" stroke="#dd2e44" stroke-linejoin="round" stroke-linecap="round" fill="none">
		<path d="M 12,19 h10"/>
		<path d="M 22,18 l 7,11 h-11 l 4.7,-13.16"/>
		<path d="M 12,18 l 7,8"/>
		<path d="M 9,12 s 3,1 3,5 c 0,3 -2,6 -2,6 l -3,6"/>
	</g>
	seat
	<g>
		<path d="M 1,-2 s 6,0 9,-2 l -1,3 l -8,-1 Z" stroke-width="2" stroke-linejoin="round" fill="#292f33" stroke="#292f33" transform="translate(20 17) scale(0.709)"/>
	</g>
	handlebars
	<path d="M 8.6113,11.6626 l 6,1" stroke-width="2" stroke-linecap="round" fill="none" stroke="#292f33"/>
	pedals
	<circle r="2" cx="18" cy="29" fill="#66757f"/>
</svg>
