<svg xmlns="http://www.w3.org/2000/svg" viewBox="0 0 36 36">
	
	<!--<path fill="#553788" d="M 18,17.856 a 10,10.063 0 01 -10,-10.063 a 10,10.063 0 01 3.33,-7.499 l 1.339,1.486 a 8,8.063 0 00 -2.669,6.013 a 8,8.063 0 00 8,8.063 a 8,8.063 0 00 8,-8.063 a 8,8.063 0 00 -2.669,-6.013 l 1.339,-1.486 a 10,10.063 0 01 3.33,7.499 a 10,10.063 0 01 -10,10.063 Z"/>-->
	<!--
./p '<path d="M 12,1.0369
 C 10.0935,2.7559 9,5.2184
9,7.7934
 C 9,12.7904 13.0375,16.8564
18,16.8564
 C 22.9625,16.8564 27,12.7904
27,7.7934
 C 27,5.2189 25.9065,2.7569
24.001,1.0379" fill="none" stroke="#553788" stroke-width="2"/>'
-->
	<!--<path d="M 12,1.0369 a 9,9.063 0 00 -3,6.7565 a 9,9.063 0 00 9,9.063 a 9,9.063 0 00 9,-9.063 a 9,9.063 0 00 -2.999,-6.7555" fill="none" stroke="#553788" stroke-width="2"/>-->
	
	<path d="M 12,1.037 a 9,9.063 0 00 -3,6.756 a 9,9.063 0 00 9,9.063 a 9,9.063 0 00 9,-9.063 a 9,9.063 0 00 -3,-6.756" fill="none" stroke="#553788" stroke-width="2"/>
	
	<g>
		<path fill="#553788" d="M 29,25 s -6,5 -11,5 s -11,-5 -11,-5 s 4,1 11,1 s 11,-1 11,-1 Z"/>
		<path fill="#744EAA" d="M 29,25 s -7.042,4.375 -9,11 h-4 c -1.792,-5.375 -9,-11 -9,-11 s 4,3 11,3 s 11,-3 11,-3 Z"/>
	</g>
	
	<g>
		<path fill="#744EAA" d="M 8.893,5.526 c 2.315,7.474 7.732,11.33 7.732,11.33 s -7.732,3.399 -9.941,-1.133 s 2.023,-10.015 2.209,-10.197 Z"/>
		<path fill="#744EAA" d="M 27.172,5.526 c 0.162,0.307 4.418,5.665 2.209,10.197 s -9.941,1.133 -9.941,1.133 s 5.478,-4.731 7.732,-11.33 Z"/>
	</g>
</svg>
