<!--
<svg xmlns="http://www.w3.org/2000/svg" viewBox="0 0 36 36">
<g>
<path d="M 8.5117,16 c 0,1.656 1.974,3 -0.512,3 c -2.485,0 -7.988,-2 -7.988,-3 s 3.515,-3 6,-3 s 2.5,1.343 2.5,3 Z" fill="#ffac33"/>
</g>
<g>
<path d="M 27.8799,33.0977 c -0.098,-0.18 -0.25,-0.302 -0.418,-0.391 c -1.597,-1.706 -0.462,-3.707 -0.462,-3.707 c 0,-0.552 1,-2 0,-2 l -1,1 c -1,1 -1,4 -1,4 h-2 c -0.553,0 -1,0.448 -1,1 c 0,0.553 0.447,1 1,1 h1.108 l -0.222,0.12 c -0.486,0.263 -0.667,0.87 -0.404,1.356 c 0.262,0.486 0.869,0.667 1.355,0.404 l 2.639,-1.427 c 0.486,-0.262 0.667,-0.869 0.404,-1.355 Z" fill="#ffac33"/>
</g>
<g>
<path d="M 20.8799,33.0977 c -0.098,-0.18 -0.25,-0.302 -0.418,-0.391 c -1.597,-1.706 -0.462,-3.707 -0.462,-3.707 c 0,-0.552 1,-2 0,-2 l -1,1 c -1,1 -1,4 -1,4 h-2 c -0.553,0 -1,0.448 -1,1 c 0,0.553 0.447,1 1,1 h1.108 l -0.222,0.12 c -0.486,0.263 -0.667,0.87 -0.404,1.356 c 0.262,0.486 0.869,0.667 1.355,0.404 l 2.639,-1.427 c 0.486,-0.262 0.667,-0.869 0.404,-1.355 Z" fill="#ffac33"/>
</g>
<g>
<path d="M 35.2168,17.375 c -1.342,0 -7.904,4.613 -11.553,-5.375 c -0.005,-0.014 -0.011,-0.024 -0.017,-0.038 c -0.996,-3.595 -4.047,-6.327 -7.813,-6.858 c -2.696,-2.416 -6.834,-2.544 -6.834,-1.104 c 0,0.958 1.15,1.227 2.564,1.468 c -3.808,1.237 -6.564,4.811 -6.564,9.032 c 0,4.479 3.103,8.223 7.274,9.227 c 1.003,4.17 4.748,7.273 9.226,7.273 c 3.953,0 6.934,-1.678 8.99,-3.999 c 0.555,-0.626 0.112,0.603 0.842,0.235 c 4.24,-2.132 5.168,-9.861 3.885,-9.861 Z" fill="#dd2e44"/>
</g>
<g>
<path d="M 12,12 c 0,1.104 -0.896,2 -2,2 s -2,-0.896 -2,-2 s 0.896,-2 2,-2 s 2,0.896 2,2 Z" fill="#292f33"/>
</g>
<g>
<path d="M 21.8105,16 s -2,10 10,10 c 1,0 0,2 -4,2 s -9.999,-5 -7,-11 c 0.633,-1.265 1,-1 1,-1 Z" fill="#a0041e"/>
</g>
</svg>
-->

<svg xmlns="http://www.w3.org/2000/svg" viewBox="0 0 36 36">
	distorted to hell
	<g>
		<path d="M 29.0378,28.9291 c 0.546,0.087 0.918,0.599 0.831,1.145 l -0.47,2.962 c -0.086,0.546 -0.598,0.918 -1.144,0.831 c -0.546,-0.086 -0.918,-0.598 -0.831,-1.144 l 0.039,-0.249 l -0.673,0.879 c -0.335,0.439 -0.962,0.523 -1.401,0.187 c -0.44,-0.335 -0.523,-0.962 -0.187,-1.402 l 1.215,-1.588 s -2.383,-1.823 -2.57,-3.224 l -0.187,-1.402 c 0.607,-0.795 1.149,0.879 1.589,1.215 c 0,0 0.9,2.117 3.225,1.885 c 0.172,-0.08 0.362,-0.127 0.564,-0.095 Z" fill="#ffac33"/>
		<path d="M 22.7603,29.552 c 0.529,0.159 0.829,0.716 0.67,1.246 l -0.862,2.873 c -0.159,0.529 -0.716,0.829 -1.246,0.67 c -0.529,-0.159 -0.829,-0.716 -0.67,-1.246 l 0.073,-0.241 l -0.785,0.781 c -0.392,0.391 -1.024,0.389 -1.414,-0.002 c -0.39,-0.392 -0.389,-1.024 0.002,-1.414 l 1.417,-1.412 s -2.117,-2.125 -2.115,-3.539 l 0.003,-1.415 c 0.708,-0.705 1.021,1.026 1.412,1.417 c 0,0 0.608,2.219 2.943,2.3 c 0.182,-0.055 0.376,-0.076 0.572,-0.018 Z" fill="#ffac33"/>
	</g>
	<g>
		<path d="M 8.9164,12.8796 c -0.111,1.652 1.768,3.126 -0.712,2.959 s -7.836,-2.533 -7.769,-3.531 c 0.067,-0.997 3.709,-2.756 6.188,-2.589 c 2.48,0.167 2.404,1.508 2.293,3.161 Z" fill="#ffac33"/>
	</g>
	<g>
		<path d="M 35.009,6.7294 c 0.383,0.171 0.582,0.58 0.553,0.999 c -0.512,7.606 -3.979,11.593 -6.797,13.598 c -3.069,2.184 -6.015,2.538 -6.139,2.553 c -0.06,0.006 -3.539,-12.007 -3.199,-11.962 c 10.307,1.363 14.478,-4.888 14.532,-4.944 c 0.292,-0.301 0.667,-0.414 1.05,-0.244 Z" fill="#dd2e44"/>
		<path d="M 34.4766,21.1085 c 0.205,0.336 0.194,0.761 -0.028,1.087 c -0.195,0.283 -4.863,6.929 -14.057,6.31 c -0.351,-0.024 -1.091,-11.858 -0.816,-11.576 c 0.031,0.032 3.035,3.732 9.392,4.161 c 1.333,0.089 3.236,-0.158 4.53,-0.453 c 0.389,-0.089 0.775,0.135 0.979,0.471 Z" fill="#dd2e44"/>
		<path d="M 24.5862,19.0159 c -0.371,5.51 1.316,9.861 -4.194,9.489 c -5.511,-0.371 -10.146,-4.92 -9.774,-10.43 c 0.371,-5.511 14.339,-4.569 13.968,0.941 Z" fill="#dd2e44"/>
		<path d="M 23.2566,12.4115 c -0.353,5.235 -3.922,9.257 -9.156,8.904 c -5.235,-0.352 -9.193,-4.882 -8.84,-10.117 s 4.832,-8.444 10.067,-8.091 c 4.001,0.269 8.24,4.683 7.929,9.304 Z" fill="#dd2e44"/>
		<path d="M 15.3273,3.1073 s 6.246,0.254 7.798,-0.477 c 1.553,-0.73 0.137,2.933 -3.262,3.79 c -3.399,0.856 -4.536,-3.313 -4.536,-3.313 Z" fill="#dd2e44"/>
		<path d="M 17.4279,5.7881 s 4.501,0.136 6.054,-0.594 c 1.552,-0.731 0.136,2.932 -3.263,3.789 c -3.398,0.857 -2.791,-3.195 -2.791,-3.195 Z" fill="#dd2e44"/>
	</g>
	<g>
		<path d="M 18.179,16.6453 s 7.63,5.648 12.387,-4.459 c 0.396,-0.842 1.684,0.793 0.099,4.162 c -1.586,3.369 -8.175,6.44 -12.04,1.536 c -0.815,-1.035 -0.446,-1.239 -0.446,-1.239 Z" fill="#a0041e"/>
	</g>
	<g fill="#292f33">
		<!--<path d="M 12.6658,9.1232 c -0.074,1.102 -1.028,1.935 -2.13,1.861 s -1.935,-1.028 -1.861,-2.13 s 1.028,-1.935 2.13,-1.861 s 1.935,1.028 1.861,2.13 Z"/>-->
		<ellipse rx="2" ry="2" transform="translate(10.6703,8.9887) rotate(3.856)"/>
	</g>
</svg>
