<svg xmlns="http://www.w3.org/2000/svg" viewBox="0 0 36 36">
	<ellipse fill="#8899A6" cx="18" cy="26" rx="18" ry="10"/>
	<ellipse fill="#CCD6DD" cx="18" cy="24.25" rx="18" ry="10"/>
	<!-- some of this was probably scaled? -->
	<ellipse cx="18" cy="23.6855" rx="14.675" ry="7.7115"  fill="#DD2E44"/>
	<path d="M 32.233,22.543 c 0,9.854 -28.466,9.854 -28.466,0 v-8.759 h28.466 v8.759 Z"  fill="#F4ABBA"/>
	<path d="M 17.984,18.166 c 8.985,0 14.248,-4.131 14.248,-4.131 s 0.017,1.175 0.017,1.935 c 0,0 -0.063,4.648 -2.603,4.648 c -3.073,0 -2.38,2.129 -3.887,2.537 c -1.254,0.339 -1.474,-0.885 -3.386,-0.885 s -2.1,2.106 -4.389,2.106 c -1.953,0 -2.29,-2.106 -4.203,-2.106 s -2.084,1.179 -3.625,0.938 c -1.554,-0.243 -1.375,-2.591 -3.834,-2.591 c -2.54,0 -2.572,-4.898 -2.572,-4.898 c 0,-0.761 0.016,-1.685 0.016,-1.685 s 5.234,4.132 14.218,4.132 Z"  fill="#DD2E44"/>
	<ellipse cx="18" cy="12.737" rx="14.675" ry="7.712"  fill="#EA596E"/>
	
	<rect x="24.569" y="3.93" width="2.19" height="9.854" rx="1.095" fill="#FFF8E8"/>
	<rect x="16.905" y="7.215" width="2.19" height="9.854" rx="1.095" fill="#FFF8E8"/>
	<rect x="9.241" y="3.93" width="2.19" height="9.854" rx="1.095" fill="#FFF8E8"/>
	
	<path d="M 25.664,6.667 c -1.162,0 -2.076,-0.532 -2.445,-1.423 c -0.32,-0.773 -0.479,-2.45 2.058,-4.986 c 0.214,-0.214 0.56,-0.214 0.774,0 c 2.537,2.537 2.378,4.213 2.058,4.986 c -0.369,0.891 -1.283,1.423 -2.445,1.423 Z"  fill="#FAAA35"/>
	<path d="M 18,9.952 c -1.162,0 -2.076,-0.532 -2.445,-1.423 c -0.321,-0.773 -0.479,-2.45 2.058,-4.986 c 0.214,-0.214 0.56,-0.214 0.774,0 c 2.537,2.537 2.378,4.213 2.058,4.986 c -0.369,0.891 -1.283,1.423 -2.445,1.423 Z"  fill="#FAAA35"/>
	<path d="M 10.336,6.667 c -1.162,0 -2.076,-0.532 -2.445,-1.423 c -0.321,-0.773 -0.479,-2.45 2.058,-4.986 c 0.214,-0.214 0.56,-0.214 0.774,0 c 2.537,2.537 2.378,4.213 2.058,4.986 c -0.369,0.891 -1.283,1.423 -2.445,1.423 Z"  fill="#FAAA35"/>
</svg>
