<svg xmlns="http://www.w3.org/2000/svg" viewBox="0 0 36 36">
	<g>
		<ellipse rx="18" ry="10" cx="18" cy="26" fill="#8899a6"/>
		<ellipse rx="18" ry="10" cx="18" cy="24.25" fill="#CCD6DD"/>
	</g>
	<g>
		<!--<path d="M 32.7998,22 c 0,4.54 -6.626,8.223 -14.8,8.223 s -14.8,-3.683 -14.8,-8.223 c 0,-4.541 6.626,-8.222 14.8,-8.222 s 14.8,3.681 14.8,8.222 Z" fill="#ccd6dd"/>-->
	</g>
	
	<g transform="translate(18 5.025) scale(1.09485)">
		<!--<ellipse rx="11" ry="5.556" cx="0" cy="17" fill="#8a4b38"/>-->
		<ellipse rx="13.403" ry="7.043" cx="0" cy="17.043" fill="#dd2e44"/>
		<path d="M 13,16 c 0,9 -26,9 -26,0 v-8 h26 v8 Z" fill="#f4abba"/>
	</g>
	<path d="M 17.9844,18.1655 c 8.984,0 14.249,-4.132 14.249,-4.132 s 0.017,1.175 0.017,1.935 c 0,0 -0.064,4.649 -2.604,4.649 c -3.072,0 -2.38,2.129 -3.887,2.537 c -1.254,0.339 -1.473,-0.885 -3.385,-0.885 c -1.913,0 -2.101,2.105 -4.39,2.105 c -1.953,0 -2.291,-2.105 -4.203,-2.105 c -1.913,0 -2.084,1.18 -3.625,0.938 c -1.554,-0.244 -1.375,-2.59 -3.835,-2.59 c -2.539,0 -2.571,-4.899 -2.571,-4.899 c 0,-0.76 0.016,-1.685 0.016,-1.685 s 5.234,4.132 14.218,4.132 Z" fill="#dd2e44"/> <!-- added after scaling -->
	<g transform="translate(18 5.025) scale(1.09485)">
		<ellipse rx="13.403" ry="7.043" cx="0" cy="7.043" fill="#ea596e"/>
		<g fill="#fff8e8"> <!-- color? -->
			<rect width="2" height="9" rx="1" x="-8" y="-1"/>
			<rect width="2" height="9" rx="1" x="-1" y="2"/>
			<rect width="2" height="9" rx="1" x="6" y="-1"/>
		</g>
		<g fill="#FFAC33">
			<path d="M 7,1.5 c -1.062,0 -1.896,-0.486 -2.233,-1.299 c -0.292,-0.706 -0.438,-2.238 1.879,-4.555 c 0.196,-0.195 0.512,-0.195 0.708,0 c 2.317,2.317 2.171,3.849 1.879,4.555 c -0.337,0.813 -1.171,1.299 -2.233,1.299 Z"/>
			<path d="M 0,4.5 c -1.062,0 -1.896,-0.486 -2.233,-1.299 c -0.293,-0.706 -0.437,-2.238 1.879,-4.555 c 0.196,-0.195 0.512,-0.195 0.708,0 c 2.317,2.317 2.171,3.849 1.879,4.555 c -0.337,0.813 -1.171,1.299 -2.233,1.299 Z"/>
			<path d="M -7,1.5 c -1.062,0 -1.896,-0.486 -2.233,-1.299 c -0.293,-0.706 -0.437,-2.238 1.879,-4.555 c 0.196,-0.195 0.512,-0.195 0.708,0 c 2.316,2.317 2.172,3.849 1.879,4.555 c -0.337,0.813 -1.171,1.299 -2.233,1.299 Z"/>
		</g>		
	</g>
</svg>
