<svg xmlns="http://www.w3.org/2000/svg" viewBox="0 0 36 36">
	<path fill="#66757F" d="M 16.093,29.143 c 0.076,0.265 -0.028,0.518 -0.217,0.688 l -2.569,3.097 c -0.919,1.052 -2.451,-0.385 -1.458,-1.369 l 0.757,-0.713 l -2.002,0.569 a 1.001,1.001 0 11 -0.452,-1.948 l 4.383,-0.794 l -0.264,-2.36 c -0.071,-0.603 0.825,-0.773 0.982,-0.19 l 0.84,3.02 Z"/>
	<path fill="#66757F" d="M 20.748,30.278 a 0.665,0.665 0 01 0.005,0.459 l -0.588,3.979 c -0.238,1.375 -2.293,0.945 -1.957,-0.412 l 0.466,-1.695 l -1.536,1.285 a 1.002,1.002 0 11 -1.193,-1.605 l 3.242,-2.133 l -0.625,-2.757 c -0.138,-0.594 0.741,-0.86 0.956,-0.292 l 1.23,3.171 Z"/>
	<path fill="#66757F" d="M 5.188,5.896 l 1.088,4.872 c -0.497,0.043 -0.802,0.123 -1.276,0.232 c -1.772,0.406 -3.334,0.165 -4.163,-0.034 a 0.43,0.43 0 01 -0.236,-0.689 c 0.799,-0.997 2.694,-3.219 4.587,-4.381 Z"/>
	<path fill="#31373D" d="M 31.135,24.161 c 8.356,6.498 2.786,3.713 2.787,3.714 c 2.785,2.785 0.928,2.785 0.928,2.785 l -6.499,-3.714 s -2.209,-0.002 -5.233,-0.696 c -0.442,0.516 -1.739,1.75 -4.118,1.75 c -10.155,0 -14,-8 -12,-14 c 0.867,-2.602 -1,-3.012 -2,-3 c 1.564,-1.974 -0.172,-4.338 -0.214,-4.846 c 0.81,-1.856 2.701,-3.154 5.214,-3.154 c 6.731,0 5.71,8.93 10.287,11.078 h-0.013 c 3.878,2.145 7.802,5.495 9.004,7.298 c 0.69,0.691 0.864,1.379 -0.617,0.924 a 106.754,106.754 0 01 2.474,1.861 Z"/>
	<path d="M 12.443,13.938 c 0.534,4.584 4.445,7.995 8.175,10.29 c 0.256,0.158 0.07,0.519 -0.212,0.453 c -4.898,-0.161 -10.609,-5.709 -8.462,-10.77 c 0.083,-0.269 0.471,-0.271 0.499,0.027 Z" fill="#000000"/>
	<g>
		<circle cx="9.5" cy="7.5" r="1.5" fill="#000000"/>
		<ellipse rx="0.543" ry="0.79" transform="translate(10.002 6.875) rotate(-45.017)" fill="#AAB8C2"/>
	</g>
</svg>
