<svg xmlns="http://www.w3.org/2000/svg" viewBox="0 0 36 36">
	scale is like 1/1.06058 or something idk..
	<g>
		<path d="M 31.9863,32.7295 c -0.292,0.167 -0.626,0.271 -0.987,0.271 c -1.105,0 -2,-0.896 -2,-2 c 0,-1.105 0.895,-2 2,-2 c 1.104,0 2,0.895 2,2 c 0,0.361 -0.104,0.695 -0.271,0.987 l 3.147,3.146 l -0.876,-7.133 l -9,-7 l -5,5 l 7,9 l 7.133,0.875 l -3.146,-3.146 Z" fill="#99AAB5"/>
	</g>
	<g>
		<path d="M 13.6426,5.3081 c 1.151,1.151 1.151,3.016 0,4.167 l -4.167,4.167 c -1.151,1.151 -3.017,1.151 -4.167,0 l -4.167,-4.167 c -1.151,-1.151 -1.151,-3.016 0,-4.167 l 4.167,-4.167 c 1.15,-1.151 3.016,-1.151 4.167,0 l 4.167,4.167 Z" fill="#66757F"/>
		<path d="M 26.6426,18.3086 l -17.202,-17.203 l -8.334,8.335 l 17.202,17.202 c 1.15,1.15 3.016,1.15 4.168,0 l 4.166,-4.168 c 1.15,-1.15 1.15,-3.016 0,-4.166 Z" fill="#31373D"/>
		<path d="M 16.5591,8.2246 l -8.334,8.334 l 2.125,2.126 l 8.334,-8.335 l -2.125,-2.125 Z" fill="#66757F"/>
	</g>
</svg>
