<svg xmlns="http://www.w3.org/2000/svg" viewBox="0 0 36 36">
	<rect x="3" y="1" width="4" height="35" rx="2"  fill="#8899A6"/>
	<path d="M 3,3 a 2,2 0 01 4,0 h-1.586 a 1.414,1.414 0 00 -1.414,1.414 v29.586 a 0.5,0.5 0 01 -1,0 v-31 Z"  fill="#AAB8C2"/>
	
	<path d="M 32.415,3.09 A 1,1 0 01 33,4 L 33,23 A 1,1 0 01 31.584,23.911 C 30.099,23.233 28.506,22.904 26.716,22.904 C 24.423,22.904 22.139,23.424 19.721,23.975 C 17.303,24.527 14.801,25.097 12.283,25.097 C 10.201,25.097 8.337,24.709 6.585,23.91 A 1,1 0 01 6,23 L 6,4 A 1,1 0 01 7.416,3.091 C 8.902,3.768 10.494,4.097 12.284,4.097 C 14.577,4.097 16.861,3.576 19.279,3.025 C 21.697,2.473 24.199,1.903 26.717,1.903 C 28.8,1.903 30.663,2.291 32.415,3.09 Z"  fill="#31373D"/>
</svg>
