<svg xmlns="http://www.w3.org/2000/svg" viewBox="0 0 36 36"><path fill="#66757F" d="m16.093 29.143-.84-3.02c-.157-.583-1.053-.413-.982.19l.264 2.36-4.383.794a1.001 1.001 0 1 0 .452 1.948l2.002-.569-.757.713c-.993.984.539 2.421 1.458 1.369l2.569-3.097c.189-.17.293-.423.217-.688zM20.748 30.278l-1.23-3.171c-.215-.568-1.094-.302-.956.292l.625 2.757-3.242 2.133a1.002 1.002 0 1 0 1.193 1.605l1.536-1.285-.466 1.695c-.336 1.357 1.719 1.787 1.957.412l.588-3.979a.665.665 0 0 0-.005-.459zM5.188 5.896C3.295 7.058 1.4 9.28.601 10.277a.43.43 0 0 0 .236.689c.829.199 2.391.44 4.163.034.474-.109.779-.189 1.276-.232L5.188 5.896z"/><path fill="#31373D" d="M31.135 24.161a106.754 106.754 0 0 0-2.474-1.861c1.481.455 1.307-.233.617-.924-1.202-1.803-5.126-5.153-9.004-7.298h.013C15.71 11.93 16.731 3 10 3 7.487 3 5.596 4.298 4.786 6.154 4.828 6.662 6.564 9.026 5 11c1-.012 2.867.398 2 3-2 6 1.845 14 12 14 2.379 0 3.676-1.234 4.118-1.75 3.024.694 5.233.696 5.233.696l6.499 3.714s1.857 0-.928-2.785c-.001-.001 5.569 2.784-2.787-3.714z"/><path d="M12.443 13.938c.534 4.584 4.445 7.995 8.175 10.29.256.158.07.519-.212.453-4.898-.161-10.609-5.709-8.462-10.77.083-.269.471-.271.499.027z"/><circle cx="9.5" cy="7.5" r="1.5"/><ellipse transform="rotate(-45.017 10.002 6.875)" fill="#AFBBC4" cx="10.002" cy="6.875" rx=".543" ry=".79"/></svg>
