<svg xmlns="http://www.w3.org/2000/svg" viewBox="0 0 36 36">
	<!--<defs>
		<clipPath id="petals1" clipPathUnits="userSpaceOnUse">
			<path d="M 12.562,25.6504 c -0.619,-0.266 -1.107,-0.837 -1.378,-1.513 l -1.266,-3.305 l -3.258,-1.395 c -1.336,-0.574 -1.876,-1.922 -1.304,-3.259 l 1.362,-3.181 l -1.364,-3.268 c -0.541,-1.35 0.15,-2.868 1.5,-3.408 l 3.272,-1.281 l 1.449,-3.384 c 0.573,-1.336 1.921,-1.876 3.258,-1.304 l 3.258,1.396 l 3.267,-1.366 c 0.675,-0.271 1.412,-0.276 2.031,-0.011 s 1.114,0.82 1.384,1.494 l 1.274,3.29 l 3.309,1.416 c 1.335,0.573 1.875,1.921 1.304,3.258 l -1.451,3.384 l 1.365,3.267 c 0.541,1.35 -0.15,2.866 -1.5,3.407 l -3.271,1.281 l -1.363,3.183 c -0.573,1.336 -1.922,1.877 -3.258,1.305 l -3.308,-1.417 l -3.267,1.364 c -0.675,0.272 -1.426,0.312 -2.045,0.047 Z"/>
			<!-<path d="M 12.562,25.6504 c -0.619,-0.266 -1.107,-0.837 -1.378,-1.513 l -1.266,-3.305 l -3.258,-1.395 a 2.4,2.4 0 01 -1.304,-3.259 l 1.362,-3.181 l -1.364,-3.268 a 2.7,2.7 0 01 1.5,-3.408 l 3.272,-1.281 l 1.449,-3.384 a 2.4,2.4 0 01 3.258,-1.304 l 3.258,1.396 l 3.267,-1.366 c 0.675,-0.271 1.412,-0.276 2.031,-0.011 s 1.114,0.82 1.384,1.494 l 1.274,3.29 l 3.309,1.416 a 2.4,2.4 0 01 1.304,3.258 l -1.451,3.384 l 1.365,3.267 c 0.541,1.35 -0.15,2.866 -1.5,3.407 l -3.271,1.281 l -1.363,3.183 a 2.4,2.4 0 01 -3.258,1.305 l -3.308,-1.417 l -3.267,1.364 c -0.675,0.272 -1.426,0.312 -2.045,0.047 Z"/> rotate 23.1855 to get the source square (only one is real) ->
		</clipPath>
	</defs>
	<path d="M 28.9375,27.4414 c 0.741,0.259 -5.264,8.749 -9.507,4.507 c -0.168,-0.168 -0.306,-0.33 -0.431,-0.49 v3.542 a 1,1 0 01 -2,0 v-3.542 c -0.124,0.16 -0.262,0.322 -0.43,0.49 c -4.243,4.242 -10.248,-4.248 -9.507,-4.507 c 2.554,-0.89 8.111,-0.429 9.937,1.331 v-11.772 a 1,1 0 01 2,0 v11.772 c 1.827,-1.76 7.384,-2.221 9.938,-1.331 Z" fill="#77b255"/>
	
	<g clip-path="url(#petals1)">
		<rect width="36" height="36" fill="#ccd6dd"/>
		<g fill="#e1e8ed">
			<path d="M 18,0.2598 v8.82 l -2.94,0.98 l -5.88,-5.88 l -0.98,-3.92 l 5.635,-0.98 l 4.165,0.98 Z"/>
			<path d="M 6.2397,13 h7.84 l 0.98,1.96 l -7.105,8.126 l -4.982,-3.512 l 0.246,-5.553 l 3.021,-1.021 Z"/>
			<path d="M 18,17.8999 l 0.898,-2.736 l 9.433,8.208 l -0.694,1.47 l -4.573,3.309 l -5.064,-2.411 v-7.84 Z"/>
			<path d="M 26.6973,4.3843 l 1.797,0.082 l 4.695,1.633 s -2.368,7.473 -2.368,7.473 s -9.556,-0.858 -9.718,-0.94 s -0.327,-3.266 -0.327,-3.266 s 5.88,-4.859 5.921,-4.982 Z"/>
		</g>
	</g>
	<circle cx="18" cy="13" r="5" fill="#f4900c"/>
	-->
	they changed this in 15.0.1
	<defs>
		<path id="petal1" d="M 4.627,-1.881 c 2.283,-1.178 6.484,-3.119 9.373,-3.119 c 1.979,0 3,1.363 3,2.791 c 0,2.209 -2.333,2.209 -2.333,2.209 s 2.333,0 2.333,2.209 c 0,1.428 -1.021,2.791 -3,2.791 c -2.889,0 -7.09,-1.941 -9.373,-3.119 v-3.762 Z"/>
		<g id="petals">
			<use transform="rotate(0)" href="#petal1"/>
			<use transform="rotate(90)" href="#petal1"/>
			<use transform="rotate(180)" href="#petal1"/>
			<use transform="rotate(270)" href="#petal1"/>
		</g>
	</defs>
	
	<!--<path fill="#FFD983" d="M 22.599,19.942 c 2.447,0.781 6.792,2.379 8.836,4.424 c 1.399,1.399 1.158,3.085 0.148,4.095 c -1.562,1.562 -3.212,-0.088 -3.212,-0.088 s 1.65,1.65 0.088,3.212 c -1.01,1.01 -2.695,1.251 -4.095,-0.148 c -2.044,-2.044 -3.641,-6.388 -4.423,-8.835 c -0.599,0.254 -3.289,0.255 -3.884,0.005 c -0.782,2.448 -2.379,6.786 -4.421,8.828 c -1.399,1.399 -3.085,1.158 -4.095,0.148 c -1.562,-1.562 0.088,-3.212 0.088,-3.212 s -1.65,1.65 -3.212,0.088 c -1.01,-1.01 -1.251,-2.695 0.148,-4.095 c 2.04,-2.04 6.373,-3.636 8.822,-4.419 c -0.254,-0.599 -0.255,-3.294 -0.003,-3.891 c -2.45,-0.784 -6.779,-2.379 -8.819,-4.418 c -1.399,-1.399 -1.158,-3.085 -0.148,-4.095 c 1.562,-1.562 3.212,0.088 3.212,0.088 s -1.65,-1.65 -0.089,-3.212 c 1.01,-1.01 2.695,-1.251 4.095,0.148 c 2.04,2.04 3.636,6.371 4.419,8.821 c 0.596,-0.251 3.29,-0.249 3.89,0.006 c 0.783,-2.448 2.38,-6.785 4.421,-8.827 c 1.399,-1.399 3.085,-1.158 4.095,-0.148 c 1.562,1.562 -0.088,3.212 -0.088,3.212 s 1.65,-1.65 3.212,-0.088 c 1.01,1.01 1.251,2.695 -0.148,4.095 c -2.043,2.044 -6.387,3.641 -8.834,4.423 c 0.25,0.596 0.25,3.285 -0.003,3.883 Z"/>-->
	<!--<path fill="#FFCC4D" d="M 32.667,18 s 2.333,0 2.333,2.209 c 0,1.428 -1.021,2.791 -3,2.791 c -2.893,0 -7.1,-1.946 -9.381,-3.123 a 5.008,5.008 0 01 -2.741,2.745 c 1.178,2.281 3.122,6.486 3.122,9.378 c 0,1.979 -1.363,3 -2.791,3 c -2.209,0 -2.209,-2.333 -2.209,-2.333 s 0,2.333 -2.209,2.333 c -1.428,0 -2.791,-1.021 -2.791,-3 c 0,-2.89 1.942,-7.091 3.12,-9.374 a 5.008,5.008 0 01 -2.753,-2.742 c -2.285,1.178 -6.48,3.116 -9.367,3.116 c -1.979,0 -3,-1.363 -3,-2.791 c 0,-2.209 2.333,-2.209 2.333,-2.209 s -2.333,0 -2.333,-2.209 c 0,-1.428 1.021,-2.791 3,-2.791 c 2.886,0 7.08,1.937 9.365,3.114 a 5.01,5.01 0 01 2.751,-2.747 c -1.178,-2.284 -3.116,-6.48 -3.116,-9.367 c 0,-1.979 1.363,-3 2.791,-3 c 2.209,0 2.209,2.333 2.209,2.333 s 0,-2.333 2.209,-2.333 c 1.428,0 2.791,1.021 2.791,3 c 0,2.889 -1.94,7.088 -3.118,9.372 a 5.004,5.004 0 01 2.739,2.75 c 2.282,-1.177 6.487,-3.122 9.379,-3.122 c 1.979,0 3,1.363 3,2.791 c 0,2.209 -2.333,2.209 -2.333,2.209 Z"/>-->
	<use href="#petals" fill="#FFD983" transform="translate(18 18) rotate(45)"/>
	<use href="#petals" fill="#FFCC4D" transform="translate(18 18)"/>
	
	these are like weirdly offcenter..
	<path fill="#F4900C" d="M 29.487,17.645 c 0.538,0.09 0.53,0.913 0,1 l -5,1 c -0.795,0.113 -4.509,4.031 -4.645,4.988 l -1,5 c -0.09,0.538 -0.913,0.53 -1,0 l -1,-5 c -0.125,-0.876 -4.344,-4.554 -4.987,-4.646 l -5,-1 c -0.538,-0.09 -0.53,-0.913 0,-1 l 5,-1 c 0.518,-0.074 4.575,-4.491 4.645,-4.987 l 1,-5 c 0.09,-0.538 0.913,-0.53 1,0 l 1,5 c 0.071,0.498 4.219,4.536 4.987,4.645 l 5,1 Z"/>
	<path fill="#FFAC33" d="M 26.647,25.844 c 0.317,0.444 -0.271,1.021 -0.707,0.707 l -4.243,-2.828 c -0.76,-0.571 -6.153,-0.253 -6.811,0.241 l -4.243,2.828 c -0.444,0.317 -1.021,-0.271 -0.707,-0.707 l 2.828,-4.243 c 0.415,-0.552 0.075,-6.389 -0.241,-6.81 l -2.828,-4.243 c -0.317,-0.444 0.271,-1.021 0.707,-0.707 l 4.243,2.828 c 0.358,0.269 6.344,0.109 6.811,-0.242 l 4.243,-2.828 c 0.444,-0.317 1.021,0.271 0.707,0.707 l -2.828,4.243 c -0.385,0.513 -0.341,6.036 0.241,6.811 l 2.828,4.243 Z"/>
	middle
	<circle fill="#E66900" cx="18" cy="18" r="7"/>
	<circle fill="#F4900C" cx="18" cy="18" r="5"/>
	
	<circle fill="#FFCC4D" cx="20" cy="15" r="1"/>
	<circle fill="#FFCC4D" cx="17" cy="17" r="1"/>
	<circle fill="#FFCC4D" cx="14" cy="20" r="1"/>
	<circle fill="#FFCC4D" cx="14" cy="17" r="1"/>
	<circle fill="#FFCC4D" cx="15" cy="15" r="1"/>
	<circle fill="#FFCC4D" cx="17" cy="14" r="1"/>

</svg>
