<svg xmlns="http://www.w3.org/2000/svg" viewBox="0 0 36 36">
	<defs>
		<clipPath id="petals1" clipPathUnits="userSpaceOnUse">
			<path d="M 12.562,25.6504 c -0.619,-0.266 -1.107,-0.837 -1.378,-1.513 l -1.266,-3.305 l -3.258,-1.395 c -1.336,-0.574 -1.876,-1.922 -1.304,-3.259 l 1.362,-3.181 l -1.364,-3.268 c -0.541,-1.35 0.15,-2.868 1.5,-3.408 l 3.272,-1.281 l 1.449,-3.384 c 0.573,-1.336 1.921,-1.876 3.258,-1.304 l 3.258,1.396 l 3.267,-1.366 c 0.675,-0.271 1.412,-0.276 2.031,-0.011 s 1.114,0.82 1.384,1.494 l 1.274,3.29 l 3.309,1.416 c 1.335,0.573 1.875,1.921 1.304,3.258 l -1.451,3.384 l 1.365,3.267 c 0.541,1.35 -0.15,2.866 -1.5,3.407 l -3.271,1.281 l -1.363,3.183 c -0.573,1.336 -1.922,1.877 -3.258,1.305 l -3.308,-1.417 l -3.267,1.364 c -0.675,0.272 -1.426,0.312 -2.045,0.047 Z"/>
			<!--<path d="M 12.562,25.6504 c -0.619,-0.266 -1.107,-0.837 -1.378,-1.513 l -1.266,-3.305 l -3.258,-1.395 a 2.4,2.4 0 01 -1.304,-3.259 l 1.362,-3.181 l -1.364,-3.268 a 2.7,2.7 0 01 1.5,-3.408 l 3.272,-1.281 l 1.449,-3.384 a 2.4,2.4 0 01 3.258,-1.304 l 3.258,1.396 l 3.267,-1.366 c 0.675,-0.271 1.412,-0.276 2.031,-0.011 s 1.114,0.82 1.384,1.494 l 1.274,3.29 l 3.309,1.416 a 2.4,2.4 0 01 1.304,3.258 l -1.451,3.384 l 1.365,3.267 c 0.541,1.35 -0.15,2.866 -1.5,3.407 l -3.271,1.281 l -1.363,3.183 a 2.4,2.4 0 01 -3.258,1.305 l -3.308,-1.417 l -3.267,1.364 c -0.675,0.272 -1.426,0.312 -2.045,0.047 Z"/> rotate 23.1855 to get the source square (only one is real) -->
		</clipPath>
	</defs>
	<path d="M 28.9375,27.4414 c 0.741,0.259 -5.264,8.749 -9.507,4.507 c -0.168,-0.168 -0.306,-0.33 -0.431,-0.49 v3.542 a 1,1 0 01 -2,0 v-3.542 c -0.124,0.16 -0.262,0.322 -0.43,0.49 c -4.243,4.242 -10.248,-4.248 -9.507,-4.507 c 2.554,-0.89 8.111,-0.429 9.937,1.331 v-11.772 a 1,1 0 01 2,0 v11.772 c 1.827,-1.76 7.384,-2.221 9.938,-1.331 Z" fill="#77b255"/>
	
	<g clip-path="url(#petals1)">
		<rect width="36" height="36" fill="#ccd6dd"/>
		<g fill="#e1e8ed">
			<path d="M 18,0.2598 v8.82 l -2.94,0.98 l -5.88,-5.88 l -0.98,-3.92 l 5.635,-0.98 l 4.165,0.98 Z"/>
			<path d="M 6.2397,13 h7.84 l 0.98,1.96 l -7.105,8.126 l -4.982,-3.512 l 0.246,-5.553 l 3.021,-1.021 Z"/>
			<path d="M 18,17.8999 l 0.898,-2.736 l 9.433,8.208 l -0.694,1.47 l -4.573,3.309 l -5.064,-2.411 v-7.84 Z"/>
			<path d="M 26.6973,4.3843 l 1.797,0.082 l 4.695,1.633 s -2.368,7.473 -2.368,7.473 s -9.556,-0.858 -9.718,-0.94 s -0.327,-3.266 -0.327,-3.266 s 5.88,-4.859 5.921,-4.982 Z"/>
		</g>
	</g>
	<circle cx="18" cy="13" r="5" fill="#f4900c"/>
</svg>
