<svg xmlns="http://www.w3.org/2000/svg" viewBox="0 0 36 36">
	body
	<g fill="#d99e82">
		<path d="M 33,17 c 0.461,0.184 0.902,3 -1,3 c -6,0 -11,11 -20,11 s -11,-12.5 -11,-15 s 4.82,-10 12,-10 s 15,9 20,11 Z"/>
		<path d="M 3,19 a 1.5,1 0 01 -3,0 c 0,-0.552 0,-2 1.5,-1 c 0.69,0.46 1.5,0.448 1.5,1 Z"/>
		<path d="M 24,24 s 2,5 0,5 s -4.84,-4 -4.84,-4 s -1,-1 2,-1 h2.84 Z"/>
		<g fill="#c1694f">
			<circle r="2" cx="16" cy="25"/>
			<circle r="1" cx="20" cy="21"/>
			<circle r="1.5" cx="24.5" cy="20.5"/>
		</g>
	</g>
	<g fill="#c1694f">
		<path d="M 33,17 c 0.461,0.184 0.876,0.687 -1,1 c -6,1 -10.045,-0.896 -19,0 c -10,1 -12,1 -12,-2 c 0,-2.5 4.82,-10 12,-10 s 15,9 20,11 Z"/>
		<path d="M 3,17 c 0,0.552 1,2 -1.5,1 c -0.77,-0.308 -1.5,-0.448 -1.5,-1 a 1.5,1 0 01 3,0 Z"/>
		<path d="M 26,7 c 4.075,2.036 -2,4 -2,4 l -1.592,-0.106 c -2.994,-0.2 -1.057,-1.971 -1.057,-1.971 s 2.86,-2.817 4.649,-1.923 Z"/>
		<g fill="#662113">
			<circle r="1.5" cx="16.5" cy="14.5"/>
			<circle r="1.5" cx="23.5" cy="15.5"/>
			<circle r="1" cx="20" cy="11"/>
		</g>
	</g>
	eye
	<circle r="1" cx="7" cy="13" fill="#292f33"/>
	tail
	<path d="M 30,17.5 c 0,-2.485 3.343,-4.5 5,-4.5 s 0,2.015 0,4.5 s 1.657,4.5 0,4.5 s -5,-2.015 -5,-4.5 Z" fill="#d99e82"/>
</svg>
