<svg xmlns="http://www.w3.org/2000/svg" viewBox="0 0 36 36">
	<!-- why are the fruits so cursed.. -->
	<path d="M 8.089,1 s 5.858,0.616 8.54,4.06 c 3.206,4.117 0.891,7.962 0.891,7.962 s -4.825,-0.425 -7.03,-3.157 c -3.203,-3.969 -2.401,-8.865 -2.401,-8.865 Z"  fill="#5C913B"/>
	<path d="M 21.901,1 s 0.913,4.617 -1.006,7.47 c -2.293,3.41 -5.676,2.54 -5.676,2.54 s -0.813,-3.784 0.691,-6.106 c 2.186,-3.374 5.991,-3.904 5.991,-3.904 Z"  fill="#77B255"/>
	<ellipse fill="#5864B7" cx="23.737" cy="11.536" rx="6.916" ry="6.027"/>
	<path d="M 19.34,16.996 c 0,-0.851 -0.124,-1.64 -0.34,-2.373 c 1.231,-0.409 2.569,-0.641 3.983,-0.641 c 2.263,0 4.355,0.55 6.073,1.562 c -1.238,1.603 -3.356,2.456 -5.764,2.456 c -1.476,0 -2.834,-0.331 -3.955,-0.949 c 0,-0.019 0.003,-0.036 0.003,-0.055 Z"  fill="#334372"/>
	<path d="M 21.761,16.558 c 0,0.27 -0.017,0.531 -0.04,0.789 c -2.836,-0.632 -4.901,-2.641 -4.901,-5.811 c 0,-0.778 0.129,-1.483 0.359,-2.119 c 2.732,1.246 4.582,3.739 4.582,7.141 Z"  fill="#334372"/>
	<ellipse fill="#5864B7" cx="10.892" cy="16.558" rx="8.892" ry="8.035"/>
	<path d="M 10.892,24.091 c 0,-5.278 3.75,-8.713 8.687,-9.406 c 0.132,0.589 0.206,1.213 0.206,1.872 c 0,4.984 -3.968,8.024 -8.867,8.034 c -0.008,-0.166 -0.026,-0.329 -0.026,-0.5 Z"  fill="#334372"/>
	<!-- <ellipse transform="rotate(-60 17.507 21.52)" fill="#AA8DD8" cx="17.507" cy="21.519" rx="2.525" ry="2.5"/> ? -->
	<ellipse fill="#5864B7" cx="22.44" cy="25.095" rx="10.56" ry="9.542"/>
	<path d="M 17.043,19.746 c 0.702,-1.228 1.699,-0.59 2.881,-1.366 c 0.95,-0.624 1.079,-1.574 2.079,-1.574 s 1.604,0.832 2.168,1.04 c 1.327,0.489 2.119,-0.228 3.119,0.772 s -0.772,1.901 -0.921,2.673 c -0.189,0.982 1.04,1.693 0.178,2.168 c -1.237,0.683 -1.549,-0.556 -3.547,-0.459 c -1.502,0.073 -2.096,1.528 -3.403,1.082 c -1.339,-0.456 0.475,-1.752 -0.327,-2.584 c -0.981,-1.018 -2.702,-0.92 -2.227,-1.752 Z"  fill="#334372"/>
	<path d="M 6.172,11.756 c 0.445,-1.036 1.065,-0.439 1.932,-1.161 c 0.696,-0.581 0.712,-1.345 1.504,-1.436 s 1.346,0.514 1.812,0.627 c 1.096,0.267 1.88,-0.08 2.541,0.329 c 0.959,0.594 -0.138,1.312 -0.186,1.937 c -0.061,0.795 0.676,1.511 0.036,1.966 c -0.919,0.654 -1.492,-0.174 -3.066,0.083 c -1.183,0.194 -1.271,1.037 -2.347,0.802 c -1.102,-0.24 -0.151,-1.315 -0.861,-1.901 c -0.869,-0.716 -1.667,-0.544 -1.365,-1.246 Z"  fill="#334372"/>
	<path d="M 24.39,6.679 c 0.831,-0.296 0.818,0.377 1.693,0.49 c 0.703,0.091 1.15,-0.307 1.624,0.1 c 0.473,0.406 0.421,1.045 0.604,1.373 c 0.429,0.77 1.046,1.036 1.162,1.632 c 0.17,0.866 -0.826,0.618 -1.21,0.924 c -0.488,0.388 -0.508,1.191 -1.108,1.066 c -0.864,-0.18 -0.693,-0.948 -1.678,-1.714 c -0.74,-0.576 -1.27,-0.177 -1.708,-0.919 c -0.448,-0.76 0.674,-0.785 0.632,-1.505 c -0.051,-0.881 -0.573,-1.247 -0.011,-1.447 Z"  fill="#334372"/>
	<ellipse fill="#253356" cx="22.667" cy="20.182" rx="3.758" ry="2.387"/>
	<ellipse fill="#253356" cx="10.455" cy="11.945" rx="2.818" ry="1.791"/>
	<ellipse rx="1.293" ry="2.035" transform="translate(26.7 9.278) rotate(-40.137)" fill="#253356"/>
</svg>
