<svg xmlns="http://www.w3.org/2000/svg" viewBox="0 0 36 36">
	<path d="M 11.1201 5.9497  c 1.685,2.853 0.737,6.532 -2.117,8.217 c -2.853,1.684 -4.319,2.687 -6.003,-0.166 c -1.685,-2.854 -2.483,-12.243 -1.622,-12.751 s 8.058,1.846 9.742,4.7 Z" fill="#C1694F"/>
	<path d="M 24.8799 5.9497  c 1.685,-2.854 8.881,-5.208 9.741,-4.7 c 0.862,0.508 0.065,9.897 -1.621,12.751 c -1.683,2.853 -3.15,1.85 -6.004,0.166 c -2.853,-1.685 -3.801,-5.364 -2.116,-8.217 Z" fill="#C1694F"/>
	
	<path d="M 32,14.3537 c -1.684,2.854 -3.9,4.055 -6.223,2.684 c -2.323,-1.372 -2.841,-4.797 -1.156,-7.65 c 1.684,-2.854 8.08,-5.681 8.781,-5.268 c 0.701,0.414 0.283,7.38 -1.402,10.234 Z" transform="matrix(-1 0 0 1 36 0)" fill="#662113"/>
	<path d="M 32,14.3537 c -1.684,2.854 -3.9,4.055 -6.223,2.684 c -2.323,-1.372 -2.841,-4.797 -1.156,-7.65 c 1.684,-2.854 8.08,-5.681 8.781,-5.268 c 0.701,0.414 0.283,7.38 -1.402,10.234 Z" fill="#662113"/>
	
	<path d="M 35 21.4785  c 0,9.989 -1,14.521 -17,14.521 s -17,-4.532 -17,-14.521 s 7.011,-19.479 17,-19.479 s 17,9.49 17,19.479 Z" fill="#C1694F"/>
	<circle cx="11" cy="15" r="2" fill="rgb(41,47,51)"/>
	<circle cx="25" cy="15" r="2" fill="rgb(41,47,51)"/>
	
	<path d="M 7.6503 29  s -3.641,-3 -4.641,-11.5 c -0.234,-1.986 1.696,-1.977 2,0 c 1,6.5 6.35,10.5 8.991,12.5 c 2.254,1.708 -6.35,-1 -6.35,-1 Z" fill="rgb(225,232,237)"/>
	<path d="M 28.3496 29  s -8.604,2.708 -6.35,1 c 2.641,-2 7.991,-6 8.991,-12.5 c 0.304,-1.977 2.234,-1.986 2,0 c -1,8.5 -4.641,11.5 -4.641,11.5 Z" fill="rgb(225,232,237)"/>
	
	<path d="M 29 29 c 0,1.104 -3.82,3 -11,3 s -11,-1.896 -11,-3 s 3.82,1 11,1 s 11,-2.104 11,-1 Z" fill="#000000"/>
	<path d="M 28 23.125  c 0,4.487 -3.097,9.375 -10,9.375 c -6.904,0 -10,-4.888 -10,-9.375 s 3.096,-5.625 10,-5.625 c 6.903,0 10,1.138 10,5.625 Z" fill="#662113"/>
	<path d="M 15 24.6  c 0,1.857 -0.34,2.4 -1.5,2.4 s -1.5,-0.543 -1.5,-2.4 c 0,-1.856 0.34,-2.4 1.5,-2.4 s 1.5,0.543 1.5,2.4 Z" fill="#C1694F"/>
	<path d="M 24 24.6  c 0,1.857 -0.34,2.4 -1.5,2.4 s -1.5,-0.543 -1.5,-2.4 c 0,-1.856 0.34,-2.4 1.5,-2.4 s 1.5,0.543 1.5,2.4 Z" fill="#C1694F"/>
</svg>
