<svg xmlns="http://www.w3.org/2000/svg" viewBox="0 0 36 36">
	<!-- based on PageFacingUp -->
	<path d="M 19,2 l10,10 h-10 v-10 z" fill="#E1E8ED"/>
	<path d="M 29,11 L 20,2" stroke-linecap="round" fill="none" stroke-width="4" stroke="#E1E8ED"/>
	
	<path d="M 20,0 v9 c 0,1 1,2 2,2 h9 v21 a 4,4 0 01 -4,4 h-22 a 4,4 0 01 -4,-4 v-28 a 4,4 0 01 4,-4 h15 Z"   fill="#CCD6DD"/>
	<path d="M 20,0 v9 c 0,1 1,2 2,2 h9 v2 h-9 a 4,4 0 01 -4,-4 v-9 h2 Z"   fill="#99AAB5"/>
	<rect x="5" y="7" width="10" height="2" rx="1"  fill="#99AAB5"/>
	<rect x="5" y="11" width="10" height="2" rx="1"  fill="#99AAB5"/>
	<rect x="5" y="15" width="22" height="2" rx="1"  fill="#99AAB5"/>
	<rect x="5" y="19" width="22" height="2" rx="1"  fill="#99AAB5"/>
	<rect x="5" y="23" width="22" height="2" rx="1"  fill="#99AAB5"/>
	<rect x="5" y="27" width="22" height="2" rx="1"  fill="#99AAB5"/>
	
	<path d="M 31,19 v10 l -5.935,0 c -0.291,0 -0.91,-0.174 -1.255,-0.606 l -2.328,-2.929 c -0.644,-0.811 -0.644,-2.121 0,-2.93 l 2.328,-2.929 c 0.345,-0.432 0.964,-0.606 1.255,-0.606 l 5.935,0 Z"  fill="#66757F"/> <!-- this could use partial transparency instead hm.. -->
	<path d="M 33,19 a 2,2 0 01 2,2 v4 a 2,2 0 01 -2,2 l -8.084,0 c -0.291,0 -0.91,-0.141 -1.255,-0.487 l -2.328,-2.342 a 1.657,1.657 0 01 0,-2.344 l 2.328,-2.342 c 0.345,-0.346 0.964,-0.485 1.255,-0.485 l 8.084,0 Z"   fill="#744EAA"/>
</svg>
