<svg xmlns="http://www.w3.org/2000/svg" viewBox="0 0 36 36">
	<defs>
		<clipPath id="pages">
			<path d="M 34.172,33 h-23.172 c -2,0 -2,-10 0,-10 h23.172 c 1.104,0 1.104,10 0,10 Z"  />
			<path d="M 31.172,10 h-23.172 c -2,0 -2,-7 0,-7 h23.172 c 1.104,0 1.104,7 0,7 Z"  />
			<path d="M 35.172,19 h-19.172 c -2,0 -2,-5 0,-5 h19.172 c 1.104,0 1.104,5 0,5 Z"  />
		</clipPath>
	</defs>
			
	<path d="M 15,31 c 0,2.209 -0.791,4 -3,4 h-7 c -4,0 -4,-14 0,-14 h7 c 2.209,0 3,1.791 3,4 v6 Z"   fill="#553788"/>
	<path d="M 12,8 c 0,2.209 -1.791,4 -4,4 h-4 c -4,0 -4,-11 0,-11 h4 c 2.209,0 4,1.791 4,4 v3 Z"   fill="#269"/>
	<path d="M 20,17 c 0,2.209 -1.791,4 -4,4 h-10 c -4,0 -4,-9 0,-9 h10 c 2.209,0 4,1.791 4,4 v1 Z"   fill="#F4900C"/>
	
	<path d="M 34,33 a 1,1 0 01 0,2 h-24 c -4,0 -4,-14 0,-14 h24 a 1,1 0 01 0,2 h-1 v10 h1 Z"   fill="#9266CC"/>
	<path d="M 31,10 a 1,1 0 01 0,2 h-24 c -4,0 -4,-11 0,-11 h24 a 1,1 0 01 0,2 h-1 v7 h1 Z"   fill="#55ACEE"/>
	<path d="M 35,19 a 1,1 0 01 0,2 h-20 c -4,0 -4,-9 0,-9 h20 a 1,1 0 01 0,2 h-1 v5 h1 Z"   fill="#FFAC33"/>
	
	<g clip-path="url(#pages)">
		<rect width="36" height="36" fill="#99AAB5"/>
		<path d="M 11.5,25 h24 v10 h-24 c -2,0 -2,-10 0,-10 Z"    fill="#CCD6DD"/>
		<path d="M 8,5 h24 v7 h-24 c -2,0 -2,-7 0,-7 Z"    fill="#CCD6DD"/>
		<path d="M 16,16 h20 v5 h-20 c -2,0 -2,-5 0,-5 Z"    fill="#CCD6DD"/>
	</g>
</svg>
