<svg xmlns="http://www.w3.org/2000/svg" viewBox="0 0 36 36">
	<defs>
		<clipPath id="boomerang1">
			<path d="M 32.19,32.317 c -0.584,2.362 -2.73,1.745 -3.068,0.244 c -1.195,-5.308 -3.316,-15.693 -6.07,-18.04 s -13.344,-2.794 -18.774,-3.133 c -1.536,-0.096 -2.485,-2.118 -0.245,-3.068 c 1.66,-0.704 19.82,-3.124 23.96,0.405 s 4.629,21.842 4.197,23.592 Z"/>	
		</clipPath>
	</defs>
	<path d="M 31.497,6.06 s 0.244,-4.293 -6.702,-3.83 c -8.617,0.574 -18.599,9.155 -18.95,17.159 c -0.267,6.089 8.109,1.203 11.139,-1.96 c -0.045,-0.045 3.282,1.426 4.752,4.545 c -3.267,2.733 -8.047,4.803 -11.644,5.109 c -6.282,0.535 -8.546,-2.727 -7.557,-9.15 c 1.223,-7.933 11.053,-17.075 22.069,-17.138 c 8.377,-0.048 6.893,5.265 6.893,5.265 Z" fill="#CCD6DD"/>
	<path d="M 32.19,32.317 c -0.638,3.211 -2.944,2.722 -3.281,1.221 c -1.195,-5.308 -3.316,-15.693 -6.07,-18.04 s -13.344,-2.794 -18.774,-3.133 c -1.536,-0.095 -2.424,-2.98 -0.184,-3.93 c 1.66,-0.705 19.757,-2.262 23.898,1.267 s 4.762,20.847 4.411,22.615 Z" fill="#662113"/>
	<g clip-path="url(#boomerang1)">
		<path d="M 0,0 L 6.716,6.616 L 8.716,8.616 L 10.465,8.19 L 12.465,6.19 L 18,0 H 36 V 18 L 32.128,24.799 L 32,28.568 H 36 V 36 H0 V0 Z" fill="#C1694F"/>
		<path d="M 5.778,15.458 L 8.685,3.695  L 11.452,2.504 L 11.491,16.562 Z " fill="#FFCC4D"/>
	</g>
	<!--<path d="M 6.747,11.537 l 0.969,-3.921 c 1.1,-0.152 2.376,-0.301 3.749,-0.426 l 0.013,4.686 c -1.651,-0.143 -3.272,-0.25 -4.731,-0.339 Z"  fill="#FFCC4D"/>-->
	<path d="M 28.583,30.147 c -0.319,-1.426 -0.682,-3.01 -1.084,-4.618 l 4.629,-0.73 c 0.094,1.376 0.149,2.659 0.174,3.769 l -3.719,1.579 Z"  fill="#FFCC4D"/>
	0.013,4.686
	
	
	<path d=" M
28.583,30.147
 C 28.264,28.721 27.901,27.137
27.499,25.529
 L
32.128,24.799
 C 32.222,26.175 32.277,27.458
32.302,28.568
 L
28.583,30.147
 Z" fill="#FFCC4D"/>
</svg>
