<svg xmlns="http://www.w3.org/2000/svg" viewBox="0 0 36 36">
	<defs>
		<clipPath id="boomerang1">
			<path d="M 32.19,32.317 c -0.584,2.362 -2.73,1.745 -3.068,0.244 c -1.195,-5.308 -3.316,-15.693 -6.07,-18.04 s -13.344,-2.794 -18.774,-3.133 c -1.536,-0.096 -2.485,-2.118 -0.245,-3.068 c 1.66,-0.704 19.82,-3.124 23.96,0.405 s 4.629,21.842 4.197,23.592 Z"/>	
		</clipPath>
	</defs>
	<path d="M 31.497,6.06 s 0.244,-4.293 -6.702,-3.83 c -8.617,0.574 -18.599,9.155 -18.95,17.159 c -0.267,6.089 8.109,1.203 11.139,-1.96 c -0.045,-0.045 3.282,1.426 4.752,4.545 c -3.267,2.733 -8.047,4.803 -11.644,5.109 c -6.282,0.535 -8.546,-2.727 -7.557,-9.15 c 1.223,-7.933 11.053,-17.075 22.069,-17.138 c 8.377,-0.048 6.893,5.265 6.893,5.265 Z" fill="#CCD6DD"/>
	<path d="M 32.19,32.317 c -0.638,3.211 -2.944,2.722 -3.281,1.221 c -1.195,-5.308 -3.316,-15.693 -6.07,-18.04 s -13.344,-2.794 -18.774,-3.133 c -1.536,-0.095 -2.424,-2.98 -0.184,-3.93 c 1.66,-0.705 19.757,-2.262 23.898,1.267 s 4.762,20.847 4.411,22.615 Z" fill="#662113"/>
	<g clip-path="url(#boomerang1)">
		ehehe
		<path d="M 0,0 h6.716 v6.616 l 2,2 l 1.749,-0.426 l 2,-2 v-6.19 h23.535 v23.799 h-2.872 l -2,2 l 0.174,1.769 l 2,2 h2.698 v6.432 h-8.417 v-4.853 l 2,-2 l -1.084,-2.618 l -2,-2 l -14.021,-11.653 l -2,-2 l -2.731,-0.339 l -2,2 h-5.747 v-12.537 Z" fill="#C1694F"/>
		<path d="M 5.778,15.458 l 2.907,-11.763 l 2.767,-1.191 l 0.039,14.058 l -5.713,-1.104 Z" fill="#FFCC4D"/>
		<path d="M 24.864,31.726 l -1.994,-5.467 l 13.887,-2.19 l -0.736,2.92 l -11.157,4.737 Z" fill="#FFCC4D"/>
	</g>
</svg>
