<svg xmlns="http://www.w3.org/2000/svg" viewBox="0 0 36 36">
	TODO: I'm tired, i'll do this one later..
	
	<defs>
		<clipPath id="cork1">
			uh something changed..
			<rect width="5" height="5" rx="2" x="-2.02773" y="3.57301"/>
		</clipPath>
	</defs>
	
	<g transform="translate(6.1889 9)">
		<g fill="#ccd6dd">
			<circle r="1.5" cx="1" cy="18.5"/>
			<circle r="1.5" cx="-1" cy="14.5"/>
			<circle r="1.5" cx="-2" cy="7.5"/>
			<circle r="2" cx=".5" cy="12"/>
			<circle r="2" cx=".5" cy="9"/>
			<circle r="2" cx="-1.5" cy="10"/>
			<circle r="2" cx="2.5" cy="6"/>
			<circle r="2" cx="-3.5" cy="5"/>
			<circle r="3.5" cx="0" cy="3.5"/>
		</g>
		<g fill="#e4ebef">
			<circle r="1.5" cx="0" cy="6.5"/>
			<circle r="1.5" cx="-2" cy="5.5"/>
			<circle r="2" cx=".5" cy="4"/>
			<circle r="1" cx="-.5" cy="10"/>
		</g>
	</g>
	
	<g transform="rotate(-45)">
		<g>
			<rect width="5" height="5" rx="2" x="-2.01283" y="4.33758" fill="#c1694f"/>
			<g clip-path="url(#cork1)">
				<rect width="7" height="4" rx="2" ry="1.6" x="-3.06163" y="3.57563" fill="#a95233"/>
			</g>
			<rect width="7" height="3.1735" rx="2" ry="1.6" x="-3.01262" y="3.16401" fill="#c1694f"/>
		</g>
		
		bottle
		<g>
			<path d="M 7.85787,41.4979 c 0,1.40431 -0.30759,2.54346 -1.71473,2.54346 l -11.89424,0.00212 c -1.40644,-0 -1.39088,-1.13915 -1.39017,-2.54417 c 0,0 -0,-1.98697 -0,-7.16794 c 0,-5.18168 2.91611,-8.10486 5.30542,-15.0635 c 0.86267,0 1.72675,0 1.72675,0 s 1.86252,0 2.7266,0 c 2.99106,6.95793 5.24108,9.88252 5.24108,15.0642 c -0,1.26643 0,7.16582 0,7.16582 Z" fill="#264612"/>
			<rect width="11" height="10" rx="2" x="-5.1419" y="32.26809" fill="#ffe8b6"/>
			<path d="M 2.8577,20.05963 s 0.77357,1.68574 -2.477,1.68504 c -3,0 -2.52296,-1.6023 -2.52296,-1.6023 l 0,-4.87479 l 5,0 l 0,4.79136 Z" fill="#ffe8b6"/>
			<path d="M 2.85777,15.70237 c 0,1.40431 0.29274,1.3237 -1.74797,1.3237 l -0.83863,0 c -2.57953,0 -2.41336,0.0799 -2.41406,-1.32512 l 0,-1.43472 l 5,0 v1.43401 Z" fill="#ffd983"/>
			<rect width="7" height="3" rx="1.5" x="-3.14239" y="12.26779" fill="#264612"/>
		</g>
	</g>
</svg>
