<svg xmlns="http://www.w3.org/2000/svg" viewBox="0 0 36 36">
	<path d="M 22,10 c 0,3 4,5 4,9.084 c 0,3.333 -2,9.916 -3,11.916 h-6 c -1,-2 -3,-8.583 -3,-11.916 c 0,-4.084 4,-6.084 4,-9.084 c 0,-1 -1,-3 -1,-5 s 0,-3 1,-4 s 2,-1 2,-1 s 1,0 2,1 s 1,2 1,4 s -1,4 -1,5 Z"  fill="#CCD6DD"/>
	<path d="M 32,13 c 0,3 4,5 4,9.084 c 0,3.333 -2,9.916 -3,11.916 h-6 c -1,-2 -3,-8.583 -3,-11.916 c 0,-4.084 4,-6.084 4,-9.084 c 0,-1 -1,-3 -1,-5 s 0,-3 1,-4 s 2,-1 2,-1 s 1,0 2,1 s 1,2 1,4 s -1,4 -1,5 Z"  fill="#CCD6DD"/>
	
	<path d="M 18,10 c 0,-0.475 -0.227,-1.18 -0.463,-2 h4.927 c -0.237,0.82 -0.464,1.525 -0.464,2 h-4 Z"  fill="#BE1931"/>
	<path d="M 23.902,14 h-7.803 c 0.493,-0.681 0.975,-1.333 1.332,-2 h5.139 c 0.356,0.667 0.838,1.319 1.332,2 Z"  fill="#BE1931"/>
	
	<path d="M 28,13 c 0,-0.475 -0.227,-1.18 -0.463,-2 h4.927 c -0.237,0.82 -0.464,1.525 -0.464,2 h-4 Z"  fill="#BE1931"/>
	<path d="M 33.902,17 h-7.803 c 0.493,-0.681 0.975,-1.333 1.332,-2 h5.139 c 0.356,0.667 0.838,1.319 1.332,2 Z"  fill="#BE1931"/>
	
	<circle fill="#31373D" cx="12.562" cy="23.438" r="12.562"/>
	<circle fill="#000" cx="12.915" cy="18.79" r="2.316"/>
	<circle fill="#000" cx="6.505" cy="20.938" r="2.316"/>
	<circle fill="#000" cx="11.431" cy="28.053" r="2.316"/>
</svg>
