<svg xmlns="http://www.w3.org/2000/svg" viewBox="0 0 36 36">
	<defs>
		<clipPath id="pinclip">
			<path d="M 0,0 h-3 c -1,-2 -3,-8.583 -3,-11.916 c 0,-4.084 4,-6.084 4,-9.084 c 0,-1 -1,-3 -1,-5 s 0,-3 1,-4 s 2,-1 2,-1 s 1,0 2,1 s 1,2 1,4 s -1,4 -1,5 c 0,3 4,5 4,9.084 c 0,3.333 -2,9.916 -3,11.916 h-3 Z"/>
		</clipPath>
		<g id="pin1" clip-path="url(#pinclip)">
			<rect x="-18" y="-34" width="36" height="36" fill="#ccd6dd"/>
			<path d="M 3,-21 h-6 v-2 h6 v2 Z" fill="#be1931"/>
			<path d="M 4,-17 h-8 v-2 h8 v2 Z" fill="#be1931"/>
		</g>
	</defs>
	
	<use href="#pin1" x="20" y="31"/>
	<use href="#pin1" x="30" y="34"/>
	
	<circle cx="12.5625" cy="23.4375" r="12.5625" fill="#31373D"/>
	<circle cx="12.915" cy="18.7905" r="2.3155" fill="#000000"/>
	<circle cx="6.505" cy="20.938" r="2.3155" fill="#000000"/>
	<circle cx="11.431" cy="28.053" r="2.3155" fill="#000000"/>
</svg>
