<svg xmlns="http://www.w3.org/2000/svg" viewBox="0 0 36 36">
	<rect x="0" y="0" width="36" height="36" rx="4"  fill="#004A77"/>
	<path d="M 32,23.958 v3.042 h4 v4 h-16 v5 h-4 v-5 h-16 v-4 h4 v-3.042 c -1.575,0.963 -2.957,1.676 -4,2.171 v-2.07 c 3.535,-1.83 10.987,-6.465 16,-15.059 c 0,0 0,-2 2,-2 s 2,2 2,2 c 5.013,8.594 12.465,13.229 16,15.059 v2.07 c -1.043,-0.495 -2.425,-1.208 -4,-2.171 Z M 30,27 v-4.34 c -1.284,-0.881 -2.638,-1.909 -4,-3.095 v7.435 h4 Z M 6,22.659 v4.341 h4 v-7.435 c -1.363,1.186 -2.716,2.214 -4,3.094 Z M 12,27 h4 v-13.947 c -1.26,1.732 -2.616,3.28 -4,4.655 v9.292 Z M 20,13.054 v13.946 h4 v-9.291 c -1.384,-1.375 -2.74,-2.924 -4,-4.655 Z"   fill="#FE5011"/>
	
	<!-- sky similar to NightWithStars -->
	<path d="
M 6.5,7 
a 2.5,2.5 0 00 0.853,-0.159
a 3,3 0 01 -2.353,1.159 
a 3,3 0 01 0,-6 
a 3,3 0 01 0.784,0.117 
a 2.5,2.5 0 00 -1.784,2.383 
a 2.5,2.5 0 00 2.5,2.5 
Z" fill="#FFF"/>
	<circle cx="10.5" cy="2.5" r=".5" fill="#FFF"/>
	<circle cx="7.5" cy="11.5" r=".5" fill="#FFF"/>
	<circle cx="22" cy="5" r="1" fill="#FFF"/>
	<circle cx="26.5" cy="5.5" r=".5" fill="#FFF"/>
	<circle cx="31" cy="3" r="1" fill="#FFF"/>
	<circle cx="31.5" cy="7.5" r=".5" fill="#FFF"/>
	
	<circle cx="4" cy="17" r="1" fill="#FFF"/>
	<circle cx="12" cy="7" r="1" fill="#FFF"/>
	<circle cx="26.5" cy="11.5" r=".5" fill="#FFF"/>
	<circle cx="32" cy="17" r="1" fill="#FFF"/>
</svg>
