<svg xmlns="http://www.w3.org/2000/svg" viewBox="0 0 36 36">
	<!-- definitely scaled ugh -->
	<g fill="#2976AA">
		<path d="M 36,17.96 l -14.783,14.04 h-3.191 h-3.191 l -14.783,-14.04 v-7.96 l 8.296,-2 h19.356 l 8.296,2 v7.96 Z"/>
	</g>
	<g fill="#5DADEC">
		<path d="M 4.617,18.577 l -1.893,-0.647 c 1.276,-3.729 1.276,-7.026 1.276,-8.61 h2 c 0,1.692 0,5.213 -1.383,9.257 Z"/>
		<path d="M 31.435,18.73 c -1.435,-4.107 -1.435,-7.688 -1.435,-9.41 h2 c 0,1.61 0,4.964 1.324,8.75 l -1.889,0.66 Z"/>
		<path d="M 36,10 h-35.948 v-1.801 a 1.331,1.331 0 01 1.331,-1.331 h33.286 a 1.331,1.331 0 01 1.331,1.331 v1.801 Z"/>
	</g>
	<g fill="#1D567C">
		<!-- these had like tiny corrupted gaps in them what?? -->
		-14.324,18.1543
		14.353,18.399
		probably line up with end of strokes
		<path d="M 3.702,18.154 c 4.613,1.724 10.932,5.702 12.086,13.846 h-0.934 c -2.445,0 -14.802,-10.575 -14.802,-14.04 v-0.825 c 0.9,0.154 2.186,0.473 3.65,1.019 Z"/>
		<path d="M 36,17.96 c 0,3.756 -12.631,14.04 -14.802,14.04 h-0.934 c 1.154,-8.146 7.46,-12.086 12.058,-13.782 c 1.482,-0.546 2.781,-0.858 3.678,-1.005 v0.747 Z"/>
	</g>
</svg>
