<svg xmlns="http://www.w3.org/2000/svg" viewBox="0 0 36 36">
	<path d="M 13.589,26.521 l 4.488,7.481 c -0.025,0.01 -0.052,0.023 -0.077,0.032 c -6.784,-2.466 -16.249,-11.447 -17.619,-19.961 c -0.168,-0.721 -0.266,-1.469 -0.266,-2.241 c 0,-5.451 4.418,-9.868 9.868,-9.868 c 2.28,0 4.366,0.789 6.035,2.09 l -4.304,7.172 c -0.376,0.628 -0.246,1.435 0.31,1.911 l 5.995,5.139 l -4.395,6.646 c -0.319,0.482 -0.332,1.104 -0.035,1.599 Z" fill="#DD2E44"/>
	<path d="M 26.018,1.966 c 5.449,0 9.867,4.417 9.868,9.869 c 0,0.772 -0.098,1.52 -0.268,2.241 c -1.188,7.386 -8.471,15.12 -14.809,18.649 l -4.161,-6.935 l 4.604,-6.962 c 0.417,-0.631 0.3,-1.474 -0.274,-1.966 l -6.039,-5.176 l 4.042,-6.737 c 1.789,-1.832 4.272,-2.983 7.037,-2.983 Z" fill="#DD2E44"/>
	<!-- the split is drawn like this:
	<path d=" M
19,2
 L
13,12
 L
20,18
 L
14.875,25.75
 L
21,36
" fill="none" stroke-width="3" stroke-linejoin="round" stroke="cyan"/>
-->
</svg>
