<svg xmlns="http://www.w3.org/2000/svg" viewBox="0 0 36 36">
	<path d="M 6,10 h24 l -3,23 c 0,1.657 -4.029,3 -9,3 s -9,-1.343 -9,-3 l -3,-23 Z"  fill="#8899A6"/>
	
	<path d="M 7,10 h22 l -3,22.644 c 0,1.243 -3.582,2.25 -8,2.25 s -8,-1.007 -8,-2.25 l -3,-22.644 Z"  fill="#D3A471"/>
	<path d="M 27.756,19.538 h-19.512 l -1.244,-9.538 h22 l -1.244,9.538 Z"  fill="#CCD6DD"/>
	<path d="M 25.982,19.538 h-15.964 l -1.018,-9.538 h18 l -1.018,9.538 Z"  fill="#E1E8ED"/>
	<ellipse fill="#ECD2A7" cx="18" cy="19.455" rx="9.764" ry="2.355"/>
	
	<path d="M 21.836,19.144 h-3.012 l 1.651,-18.337 l 2.988,0.27 l -1.627,18.067 Z"  fill="#AA8DD8"/>
	<ellipse fill="#AA8DD8" cx="20.314" cy="19.19" rx="1.5" ry=".5"/>
	
	<path d="M 5.696,10.003 c 0.371,-2.171 2.109,-0.445 3.862,-0.326 c 1.752,0.118 20.346,-4.647 20.882,0.681 c 0.294,2.923 -0.921,1.396 -1.277,1.663 c -0.357,0.268 -0.67,1.29 -1.264,1.438 c -0.594,0.149 -0.956,-0.355 -1.639,-0.177 c -0.683,0.179 -1.028,1.047 -1.86,1.196 c -0.832,0.148 -1.412,-0.458 -2.303,-0.399 c -0.891,0.06 -1.141,1.048 -2.657,1.019 c -1.544,-0.03 -1.496,-0.765 -2.48,-0.797 c -0.92,-0.029 -1.721,0.798 -2.701,0.709 c -0.981,-0.089 -1.514,-1.225 -2.702,-1.373 c -0.625,-0.078 -1.263,0.577 -2.303,0.221 c -0.543,-0.186 -0.971,-0.884 -1.506,-1.151 s -1.179,-0.045 -1.639,-0.177 c -0.575,-0.164 -0.592,-1.477 -0.413,-2.527 Z"  fill="#55ACEE"/>
	<ellipse fill="#88C9F9" cx="18" cy="10.011" rx="12.35" ry="3.8"/>
	
	<path d="M 23.463,1.077 l -0.83,9.223 h-0.017 v0.001 c 0,0.276 -0.672,0.5 -1.5,0.5 s -1.5,-0.224 -1.5,-0.5 c 0,-0.006 0.005,-0.012 0.006,-0.019 l 0.853,-9.474 l 2.988,0.269 Z"  fill="#9266CC"/>
	<path d="M 23.463,1.077 c -0.025,0.275 -0.714,0.438 -1.539,0.363 c -0.825,-0.074 -1.474,-0.358 -1.449,-0.633 s 0.714,-0.438 1.539,-0.363 s 1.474,0.358 1.449,0.633 Z"  fill="#553788"/>
	
	<g fill="#292F33">
		<ellipse rx="0.433" ry="0.681" transform="translate(25.8265,27.789) rotate(14.738)"/>
		<ellipse rx="0.503" ry="0.812" transform="translate(9.7725,26.2445) rotate(-3.138)"/>
		<ellipse rx="0.552" ry="0.814" transform="translate(25.671,29.8495) rotate(14.734)"/>
		<ellipse rx="0.591" ry="0.670" transform="translate(18.176,31.9215) rotate(34.339)"/>
		<ellipse rx="0.656" ry="0.780" transform="translate(13.477,33.7105) rotate(-75.785)"/>
		<ellipse rx="0.667" ry="0.913" transform="translate(25.067,32.658) rotate(34.322)"/>
		<ellipse rx="0.683" ry="0.775" transform="translate(23.175,29.2905) rotate(59.750)"/>
		<ellipse rx="0.691" ry="0.780" transform="translate(17.028,27.1195) rotate(-75.769)"/>
		<ellipse rx="0.735" ry="0.958" transform="translate(24.0825,31.2335) rotate(42.366)"/>
		<ellipse rx="0.779" ry="0.980" transform="translate(14.399,32.1245) rotate(-51.703)"/>
		<ellipse rx="0.780" ry="0.980" transform="translate(12.461,30.6615) rotate(-55.837)"/>
		<ellipse rx="0.823" ry="1.092" transform="translate(13.654,28.187) rotate(-39.419)"/>
		<ellipse rx="0.829" ry="0.980" transform="translate(21.2795,27.786) rotate(85.674)"/>
		<ellipse rx="0.839" ry="1.004" transform="translate(10.585,28.844) rotate(-45)"/>
		<ellipse rx="0.847" ry="1.027" transform="translate(22.9375,33.2695) rotate(57.532)"/>
		<ellipse rx="0.919" ry="1.091" transform="translate(20.032,33.092) rotate(80.726)"/>
		<ellipse rx="0.931" ry="0.894" transform="translate(18.9955,29.5155) rotate(-27.618)"/>
		<ellipse rx="1.025" ry="0.802" transform="translate(11.147,32.6225) rotate(52.921)"/>
		<ellipse rx="1.071" ry="0.905" cx="17.217" cy="33.802"/>
		<path d="M 25.148,26.582 c 0.102,0.45 -0.206,0.904 -0.688,1.013 c -0.482,0.11 -0.956,-0.166 -1.059,-0.616 c -0.102,-0.45 0.206,-0.903 0.688,-1.013 s 0.956,0.166 1.059,0.616 Z"  />
		<path d="M 22.155,31.079 c -0.184,0.561 -0.75,0.879 -1.265,0.71 c -0.514,-0.169 -0.782,-0.76 -0.598,-1.322 s 0.75,-0.879 1.265,-0.71 c 0.514,0.169 0.782,0.76 0.598,1.322 Z"  />
		<path d="M 17.029,30.6 c 0.166,0.531 -0.114,1.091 -0.626,1.251 s -1.061,-0.141 -1.227,-0.672 s 0.114,-1.091 0.626,-1.251 c 0.511,-0.16 1.061,0.141 1.227,0.672 Z"  />
	</g>
</svg>
