<svg xmlns="http://www.w3.org/2000/svg" viewBox="0 0 36 36" xml:space="preserve">
	<circle cx="18" cy="29" r="6" fill="#50A5E6"/>
	<circle cx="29" cy="18" r="7" fill="#50A5E6"/>
	<circle cx="10.5" cy="11.5" r="10.5" fill="#50A5E6"/>
	
	<circle cx="10.5" cy="11.5" r="9.5" fill="#7CC3F0"/>
	<circle cx="18" cy="29" r="5" fill="#7CC3F0"/>
	<circle cx="29" cy="18" r="6" fill="#7CC3F0"/> <!-- was #A8E0F9 at 50% opacity-->
	
	<path d="M 10.5,19.5 a 1,1 0 01 0,-2 a 6,6 0 00 6,-6 a 1,1 0 01 2,0 a 8,8 0 01 -8,8 Z"   fill="#F2F9FF"/>
	<path d="M 34,18.5 a 4.5,4.5 0 01 -4.5,4.5 a 1,1 0 01 0,-2 a 2.5,2.5 0 00 2.5,-2.5 a 1,1 0 01 2,0 Z"   fill="#F2F9FF"/>
	<path d="M 22,29.5 a 3.5,3.5 0 01 -3.5,3.5 a 1,1 0 01 0,-2 a 1.5,1.5 0 00 1.5,-1.5 a 1,1 0 01 2,0 Z"   fill="#F2F9FF"/>
	
	<path d="M 5,11.5 a 1.5,1.5 0 01 -3,0 a 8.5,8.5 0 01 8.5,-8.5 a 1.5,1.5 0 01 0,3 a 5.5,5.5 0 00 -5.5,5.5 Z"   fill="#FFF"/>
	<path d="M 27,18 a 1.5,1.5 0 01 -3,0 a 5,5 0 01 5,-5 a 1.5,1.5 0 01 0,3 a 2,2 0 00 -2,2 Z"   fill="#FFF"/>
	<path d="M 17,29 a 1.5,1.5 0 01 -3,0 a 4,4 0 01 4,-4 a 1.5,1.5 0 01 0,3 a 1,1 0 00 -1,1 Z"   fill="#FFF"/>
	
	
	<path d="M 2.219,5.043 A 10.5,10.5 0 01 12.493,1.189 A 5.5,5.5 0 01 7.5,9 A 5.5,5.5 0 01 2.219,5.043 Z" fill="#FFFFFF80"/>
	<path d="M 23.069,14.286 A 7,7 0 01 31.513,11.466 A 4.5,4.5 0 01 27.5,18 A 4.5,4.5 0 01 23.069,14.286 Z" fill="#FFFFFF80"/>
	<path d="M 13.047,25.616 A 6,6 0 01 20.778,23.682 A 4,4 0 01 17,29 A 4,4 0 01 13.047,25.616 Z" fill="#FFFFFF80"/>
</svg>
