<svg xmlns="http://www.w3.org/2000/svg" viewBox="0 0 36 36" xml:space="preserve">
	<g fill="#50A5E6">
	<circle cx="18" cy="29" r="6"/>
	<circle cx="29" cy="18" r="7"/>
	<circle cx="10.5" cy="11.5" r="10.5"/>
	</g>
	<g fill="#A8E0F980">
	<circle cx="10.5" cy="11.5" r="9.5"/>
	<circle cx="18" cy="29" r="5"/>
	<circle cx="29" cy="18" r="6"/>
	</g>
	<path d="M 10.5,19.5 a 1,1 0 01 0,-2 c 3.309,0 6,-2.691 6,-6 a 1,1 0 01 2,0 c 0,4.411 -3.589,8 -8,8 Z"  fill="#F2F9FF"/>
	<path d="M 34,18.5 c 0,2.481 -2.019,4.5 -4.5,4.5 a 1,1 0 01 0,-2 c 1.378,0 2.5,-1.122 2.5,-2.5 a 1,1 0 01 2,0 Z"  fill="#F2F9FF"/>
	<path d="M 22,29.5 c 0,1.93 -1.57,3.5 -3.5,3.5 a 1,1 0 01 0,-2 c 0.827,0 1.5,-0.673 1.5,-1.5 a 1,1 0 01 2,0 Z"  fill="#F2F9FF"/>
	<path d="M 3.5,13 a 1.5,1.5 0 01 -1.5,-1.5 c 0,-4.687 3.813,-8.5 8.5,-8.5 a 1.5,1.5 0 11 0,3 a 5.506,5.506 0 00 -5.5,5.5 a 1.5,1.5 0 01 -1.5,1.5 Z"  fill="#FFF"/>
	<path d="M 27,18 a 1.5,1.5 0 11 -3,0 c 0,-2.757 2.243,-5 5,-5 a 1.5,1.5 0 11 0,3 c -1.103,0 -2,0.897 -2,2 Z"  fill="#FFF"/>
	<path d="M 17,29 a 1.5,1.5 0 11 -3,0 c 0,-2.206 1.794,-4 4,-4 a 1.5,1.5 0 11 0,3 c -0.551,0 -1,0.449 -1,1 Z"  fill="#FFF"/>
	<path d="M 10.5,1 c 0.68,0 1.344,0.07 1.988,0.195 a 5.47,5.47 0 01 0.512,2.305 a 5.5,5.5 0 01 -10.773,1.557 c 1.923,-2.464 4.913,-4.057 8.273,-4.057 Z"  fill="#FFFFFF80"/>
	<path d="M 23.079,14.283 a 6.995,6.995 0 01 5.921,-3.283 a 6.96,6.96 0 01 2.494,0.467 a 4.45,4.45 0 01 0.506,2.033 a 4.494,4.494 0 01 -8.921,0.783 Z"  fill="#FFFFFF80"/>
	<path d="M 13.061,25.601 a 5.996,5.996 0 01 4.939,-2.601 a 5.955,5.955 0 01 2.758,0.677 c 0.147,0.416 0.242,0.857 0.242,1.323 a 4,4 0 01 -4,4 a 3.99,3.99 0 01 -3.939,-3.399 Z"  fill="#FFFFFF80"/>
	</svg>
