<svg xmlns="http://www.w3.org/2000/svg" viewBox="0 0 36 36" xml:space="preserve">
	normally don't mess with the appearance, but this emoji in particular was so egregious that i just had to..
	like, otherwise, the design was really good, but the colors were just so strange..
	
	<g fill="#88c9f9"> hm #cbb7ea
		<circle cx="10.5" cy="11.5" r="10.5"/>
		<circle cx="29" cy="18" r="7"/>
		<circle cx="18" cy="29" r="6"/>
	</g>
	
	<g fill="#bbddf5">
		<circle cx="10.5" cy="11.5" r="9.5"/>
		<circle cx="29" cy="18" r="6"/>
		<circle cx="18" cy="29" r="5"/>
	</g>
	
	<!-- these were above the highlights before, but they only overlapped #FFF, so it looked the same -->
	<g fill="#FFFFFF80">
		<path d="M 7.5,9 a 5.5,5.5 0 01 -5.281,-3.957 a 10.5,10.5 0 01 10.274,-3.854 a 5.5,5.5 0 01 -4.993,7.811 Z"/> <!-- at 7.5,3.5 -->
		<path d="M 27.5,18 a 4.5,4.5 0 01 -4.431,-3.714 a 7,7 0 01 8.444,-2.82 a 4.5,4.5 0 01 -4.013,6.534 Z"/> <!-- at 27.5,13.5 -->
		<path d="M 17,29 a 4,4 0 01 -3.953,-3.384 a 6,6 0 01 7.731,-1.934 a 4,4 0 01 -3.778,5.318 Z"/> <!-- at 17,25 -->
	</g>
	
	<g stroke-linecap="round" stroke-linejoin="round" fill="none">
		<g stroke-width="2" stroke="#f5f8fa">
			<path d="M 17.5,11.5 a 7,7 0 01 -7,7"/>
			<path d="M 33,18.5 a 3.5,3.5 0 01 -3.5,3.5"/>
			<path d="M 21,29.5 a 2.5,2.5 0 01 -2.5,2.5"/>
		</g>
		
		<g stroke-width="3" stroke="#FFF">
			<path d="M 3.5,11.5 a 7,7 0 01 7,-7"/>
			<path d="M 25.5,18 a 3.5,3.5 0 01 3.5,-3.5"/>
			<path d="M 15.5,29 a 2.5,2.5 0 01 2.5,-2.5"/>
		</g>
	</g>
</svg>
