<svg xmlns="http://www.w3.org/2000/svg" viewBox="0 0 36 36">
	<g>
		<path fill="#88C9F9" d="M 3,9 h30 l -4.786,23.182 s -2.214,2.818 -10.214,2.818 s -10.214,-2.818 -10.214,-2.818 l -4.786,-23.182 Z"/>
		<g fill="#3B88C3">
			<rect x="2" y="5" width="32" height="4"/>
			<ellipse cx="18" cy="9.042" rx="16" ry="3.958"/>
		</g>
		<ellipse fill="#55ACEE" cx="18" cy="5" rx="16" ry="4"/>
		<ellipse fill="#004A77" cx="18" cy="4.625" rx="15" ry="3.375"/>
	</g>
	<g>
		<path d="M 1.602,8.75 a 16.398,16.663 0 00 16.398,16.663 a 16.398,16.663 0 00 16.398,-16.663" stroke-width="2" stroke-linecap="round" fill="none" stroke="#99AAB5"/>
		<path fill="#292F33" d="M 25.406,23.826 a 7.406,3.174 0 01 -7.406,3.174 a 7.406,3.174 0 01 -7.406,-3.174 c 0,-1.753 2.116,0 7.406,0 s 7.406,-1.753 7.406,0 Z"/>
	</g>
</svg>
