<svg xmlns="http://www.w3.org/2000/svg" viewBox="0 0 36 36">
	<path d="M 0,34 h36 v2 h-36 v-2 Z"  fill="#939598"/>
	<path d="M 3,35 l 3,-5 s -6,-2 -6,-6 c 0,-5 12,-10 12,-10 l 4,-6 s 1,-2 5,-2 h15 v29 h-33 Z"  fill="#D1D3D4"/>
	<!--<path d="M 14,35 l 2,-3 h20 v3 h-22 Z"  fill="#231F20"/> hidden layer -->
	<path d="M 6,30 h30 v5 h-33 l 3,-5 Z"  fill="#269"/>
	
	<path d="M 26,8 h-10 l -4,6 h10.842 c 0.477,0 1.108,-0.448 1.412,-1 l 2.197,-4 c 0.303,-0.552 0.102,-1 -0.451,-1 Z"  fill="#55ACEE"/>
	<path d="M 25.902,10 h-11.235 l 1.333,-2 h10 c 0.553,0 0.754,0.448 0.451,1 l -0.549,1 Z"  fill="#3B88C3"/>
	
	<path d="M 0,24 c 0,-2.5 3,-5 6,-6.875 v12.875 s -6,-2 -6,-6 Z"  fill="#3B88C3"/>
	<!-- <path d="M 6,30 v-0.001 v0.001 Z"  fill="#3B88C3"/> ?? -->
	
	<path d="M 20,30 l 4,-6 h12 v6 h-16 Z"  fill="#3B88C3"/>
</svg>
