<svg xmlns="http://www.w3.org/2000/svg" viewBox="0 0 36 36">
	<circle fill="#DD2E44" cx="18" cy="18" r="18"/>
	<circle fill="#FFF" cx="18" cy="18" r="13.5"/>
	<circle fill="#DD2E44" cx="18" cy="18" r="10"/>
	<circle fill="#FFF" cx="18" cy="18" r="6"/>
	<circle fill="#DD2E44" cx="18" cy="18" r="3"/>
	
	<path d="M 18.24,18.282 l 13.144,11.754 a 18,18 0 01 -7.89,5.109 l -5.915,-16.725 l 0.661,-0.138 Z"  fill="#0003"/>
	
	<path d="M 18.2935,18.0045 L 18.857,17.4415" stroke-linecap="round" fill="none" stroke-width="2" stroke="#FFAC33"/>
	
	<path d="M 24.016,6.981 c 1.257,-6.132 4.146,-7.241 5.336,-6.935 s 2.009,2.784 1.718,4.238 l -7.054,7.388 s -0.403,-2.612 0,-4.691 Z"  fill="#55ACEE"/>
	<path d="M 29.019,11.984 c -2.079,0.403 -4.691,0 -4.691,0 l 7.388,-7.054 c 1.454,-0.291 3.932,0.528 4.238,1.718 s -0.803,4.079 -6.935,5.336 Z"  fill="#55ACEE"/> <!-- fins are blatanly off-center but may be intentional ? -->
	
	<path d="M 32.798,4.485 l -11.622,13.102 c -0.362,0.362 -1.673,0.882 -2.51,0.046 c -0.836,-0.836 -0.419,-2.08 -0.057,-2.443 l 13.206,-11.689 s 0.676,-0.635 1.159,-0.152 s -0.176,1.136 -0.176,1.136 Z"  fill="#3A87C2"/>
</svg>
