<svg xmlns="http://www.w3.org/2000/svg" viewBox="0 0 36 36">
	god, whatever editor they used for this is absolute shit
	<g>
		<path fill="#FFCC4D" d="M 26.3023,13.4892 l 1.236,1.236 c 0.004,0.011 0.006,0.024 0.01,0.035 c 0.356,0.986 0.137,2.426 -0.511,3.69 c -0.641,1.249 -1.702,2.315 -3.034,2.601 c -0.439,0.094 -0.903,0.112 -1.396,0.013 c -1.503,-0.301 -4.021,-0.209 -5.107,0.527 c -0.338,0.23 -0.542,0.519 -0.527,0.882 c 0.025,0.63 -0.75,0.981 -1.809,1.009 c -1.405,0.037 -3.313,-0.496 -4.531,-1.714 l -2.465,-2.465 l -5.227,-5.321 c 3.393,2.683 8.718,2.964 12.389,0.509 c 3.779,-2.527 4.429,-7.032 1.616,-10.312 l 9.182,9.136 l 0.174,0.174 Z"/>
		<path fill="#FFAC33" d="M 19.0143,17.4709 c 0.389,0.389 0.291,0.921 -0.22,1.189 c -0.511,0.267 -1.24,0.169 -1.629,-0.221 c -0.389,-0.389 -0.291,-0.921 0.22,-1.188 c 0.511,-0.268 1.24,-0.169 1.629,0.22 Z"/>
		<path fill="#FFAC33" d="M 21.9034,11.9077 c -0.268,0.511 -0.799,0.609 -1.189,0.22 c -0.389,-0.389 -0.487,-1.118 -0.22,-1.629 c 0.267,-0.51 0.8,-0.609 1.189,-0.22 s 0.487,1.118 0.22,1.629 Z"/>
		<path fill="#D99E82" d="M 24.4567,16.2823 c 0.389,0.389 0.507,1.138 0.264,1.673 s -0.755,0.653 -1.144,0.264 c -0.39,-0.389 -0.508,-1.138 -0.265,-1.673 c 0.244,-0.535 0.756,-0.653 1.145,-0.264 Z"/>
		<path fill="#D99E82" d="M 12.7468,21.0643 c -0.584,0.195 -1.372,0.037 -1.761,-0.352 s -0.232,-0.862 0.352,-1.057 c 0.584,-0.194 1.372,-0.037 1.761,0.352 c 0.389,0.39 0.232,0.862 -0.352,1.057 Z"/>
	</g>
	
	foil
	<g>
		<path fill="#BCBEC0" d="M 24.0031,21.0509 l 10.481,10.481 c -0.033,0.046 -1.476,2.234 -3.962,3.081 l -13.022,-13.021 c 1.086,-0.737 3.605,-0.828 5.108,-0.528 c 0.492,0.099 0.957,0.081 1.395,-0.013 Z"/>
		<path fill="#BCBEC0" d="M 33.8595,21.0822 c 0.738,0.83 2.367,3.058 2.105,6.295 l -8.928,-8.927 c 0.656,-1.279 0.875,-2.739 0.502,-3.725 l -1.236,-1.236 c 1.409,-0.057 3.447,-0.761 4.124,-0.084 c 0.704,0.704 -1.071,2.024 -0.071,4.137 l 3.522,3.522 l -0.018,0.018 Z"/>
		<path fill="#808285" d="M 15.1645,23.4819 l 11.639,11.639 c -2.566,-0.22 -4.452,-1.657 -4.9,-2.083 c -0.448,-0.425 -4.931,-4.931 -4.931,-4.931 c -1.409,-1.409 -3.745,-0.463 -5.635,-1.409 c -2.817,-1.408 -1.408,-4.225 -2.112,-4.929 c -0.353,-0.352 -0.529,-1.233 -0.353,-1.761 l 1.761,1.761 c 1.218,1.217 3.126,1.75 4.531,1.713 Z"/>
		<path fill="#A7A9AC" d="M 17.5002,21.5915 l 13.022,13.022 c -0.073,0.027 -1.556,0.673 -3.719,0.507 l -11.639,-11.639 c 1.059,-0.028 1.834,-0.378 1.809,-1.009 c -0.015,-0.362 0.189,-0.652 0.527,-0.881 Z"/>
		<path fill="#DCDDDE" d="M 27.0369,18.4498 l 8.928,8.928 c -0.008,0.098 -0.134,2.252 -1.481,4.154 l -10.481,-10.481 c 1.333,-0.286 2.393,-1.352 3.034,-2.601 Z"/>
	</g>
	
	<g>
		<path fill="#FFAC33" d="M 3.1553,7.4069 c 0.069,-0.304 0.205,-0.605 0.435,-0.835 c 0.646,-0.645 1.473,-1.282 2.577,-1.308 c 0.71,-0.017 1.534,0.091 2.501,0.675 l 7.069,0.059 c -0.244,-0.406 -0.541,-0.798 -0.907,-1.163 c -2.529,-2.529 -7.035,-2.936 -10.066,-0.909 c -1.43,0.956 -2.268,2.284 -2.497,3.685 c 0.257,-0.207 0.588,-0.284 0.888,-0.204 Z"/>
		<path fill="#FFAC33" d="M 15.7473,6.0162 c -0.003,-0.005 -0.006,-0.011 -0.009,-0.016 h-0.004 c 0.005,0.005 0.008,0.011 0.013,0.016 Z"/>
		<path fill="#FFAC33" d="M 2.9592,9.8422 c -0.023,-0.019 -0.052,-0.028 -0.073,-0.049 c -0.131,-0.131 -0.202,-0.294 -0.245,-0.462 c -0.136,-0.035 -0.263,-0.101 -0.378,-0.189 c -0.079,-0.499 -0.077,-1.008 0,-1.502 c -0.169,1.076 0.026,2.19 0.598,3.216 c 0,-0.001 -0.001,-0.002 -0.001,-0.002 c -0.081,-0.337 -0.057,-0.694 0.099,-1.012 Z"/>
		<path fill="#C1694F" d="M 2.2651,7.613 c -0.001,0.009 -0.001,0.018 -0.002,0.028 c 0.001,-0.01 0.003,-0.02 0.005,-0.03 c -0.001,0.001 -0.002,0.001 -0.003,0.002 Z"/>
		<path fill="#FFE8B6" d="M 16.946,4.179 c 2.814,3.28 2.163,7.785 -1.616,10.312 c -3.671,2.455 -8.996,2.174 -12.389,-0.509 c -0.269,-0.213 -0.529,-0.438 -0.774,-0.68 c -3.209,-3.177 -2.646,-8.177 1.189,-10.785 c 3.942,-2.681 9.856,-2.118 13.163,1.188 c 0.153,0.154 0.29,0.314 0.427,0.474 ZM 15.738,6 c -0.245,-0.408 -0.542,-0.8 -0.908,-1.165 c -2.528,-2.529 -7.035,-2.936 -10.065,-0.909 c -1.431,0.956 -2.268,2.284 -2.497,3.685 c -0.001,0.001 -0.002,0.001 -0.003,0.002 c -0.001,0.009 -0.001,0.018 -0.002,0.028 c -0.169,1.075 0.026,2.19 0.598,3.215 c 0.257,0.461 0.583,0.906 0.995,1.317 c 2.528,2.529 7.035,2.936 10.065,0.909 c 2.586,-1.729 3.254,-4.669 1.826,-7.066 c -0.003,-0.005 -0.006,-0.011 -0.009,-0.016 Z"/>
		<path fill="#C1694F" d="M 13.9213,13.0821 c 2.585,-1.729 3.254,-4.669 1.826,-7.066 c -0.005,-0.005 -0.008,-0.011 -0.013,-0.016 h0.004 c -0.001,-0.001 -0.001,-0.001 -0.001,-0.002 l -7.069,-0.059 c -0.967,-0.584 -1.791,-0.692 -2.501,-0.675 c -1.104,0.025 -1.931,0.662 -2.577,1.308 c -0.23,0.23 -0.366,0.531 -0.435,0.835 c -0.3,-0.08 -0.631,-0.003 -0.888,0.204 c -0.001,0.01 -0.003,0.02 -0.004,0.029 c -0.077,0.495 -0.079,1.003 0,1.502 c 0.115,0.088 0.242,0.154 0.378,0.189 c 0.043,0.168 0.113,0.331 0.245,0.462 c 0.021,0.021 0.05,0.03 0.073,0.049 c -0.156,0.318 -0.18,0.675 -0.099,1.012 c 0,0 0.001,0.001 0.001,0.002 c 0.257,0.461 0.583,0.905 0.994,1.317 c 2.529,2.529 7.036,2.936 10.066,0.909 Z"/>
		<path fill="#F4900C" d="M 8.6682,6.1498 l 7.279,0.271 c -0.124,-0.276 -0.281,-0.554 -0.484,-0.834 c -2.601,-1.921 -6.547,-2.087 -9.29,-0.253 l -0.006,0.035 c 0.71,-0.016 1.534,0.197 2.501,0.781 Z"/>
		<path fill="#D99E82" d="M 6.4076,9.0903 c -0.389,0.389 -1.02,0.389 -1.409,0 s -0.389,-1.019 0,-1.409 c 0.39,-0.389 1.02,-0.389 1.409,0 s 0.389,1.02 0,1.409 Z"/>
		<path fill="#D99E82" d="M 8.1685,11.5555 c -0.584,0.584 -1.53,0.583 -2.113,0 s -0.584,-1.529 0,-2.113 s 1.53,-0.583 2.113,0 s 0.584,1.529 0,2.113 Z"/>
		<path fill="#D99E82" d="M 10.6337,11.9077 c -0.389,0.389 -1.02,0.389 -1.409,0 s -0.389,-1.019 0,-1.409 c 0.39,-0.389 1.02,-0.389 1.409,0 s 0.389,1.02 0,1.409 Z"/>
		<path fill="#D99E82" d="M 4.6467,8.0337 c -0.195,0.195 -0.51,0.195 -0.704,0 c -0.195,-0.195 -0.195,-0.51 0,-0.704 c 0.194,-0.195 0.509,-0.195 0.704,0 c 0.195,0.194 0.195,0.509 0,0.704 Z"/>
		<path fill="#D99E82" d="M 8.5207,14.0207 c -0.389,0.389 -1.019,0.389 -1.409,0 c -0.389,-0.389 -0.389,-1.019 0,-1.409 c 0.39,-0.389 1.02,-0.389 1.409,0 c 0.389,0.39 0.389,1.02 0,1.409 Z"/>
		<path fill="#FFD983" d="M 7.4642,6.625 c -0.584,0.584 -1.53,0.583 -2.113,0 s -0.584,-1.529 0,-2.113 s 1.53,-0.583 2.113,0 s 0.584,1.529 0,2.113 Z"/>
		<path fill="#D99E82" d="M 10.6337,13.3164 c -0.389,-0.389 -1.019,-0.389 -1.409,0 c -0.28,0.281 -0.351,0.685 -0.227,1.035 c 0.629,0.035 1.262,0.005 1.882,-0.097 c 0.08,-0.327 0.009,-0.683 -0.246,-0.938 Z"/>
		<path fill="#77B255" d="M 16.2686,7.6815 c -0.389,-0.389 -1.02,-0.389 -1.409,0 c -0.129,0.129 -0.211,0.285 -0.254,0.45 c -0.165,0.043 -0.321,0.125 -0.45,0.254 c 0.389,-0.389 0.39,-1.02 0.001,-1.409 c 0.385,-0.386 0.393,-1.014 0.009,-1.398 l -0.016,-0.016 c -0.386,-0.386 -1.015,-0.382 -1.402,0.005 c -0.131,-0.131 -0.293,-0.201 -0.461,-0.244 c -0.042,-0.167 -0.113,-0.328 -0.244,-0.459 c -0.232,-0.232 -0.55,-0.323 -0.851,-0.278 c -0.059,-0.413 -0.24,-0.813 -0.558,-1.131 c -0.778,-0.778 -2.038,-0.778 -2.817,0.001 c -0.778,0.778 -0.778,2.038 0,2.816 c 0.531,0.532 1.285,0.691 1.958,0.498 c 0.043,0.073 0.092,0.144 0.155,0.207 c -0.389,0.389 -0.389,1.019 0,1.408 c 0.225,0.226 0.532,0.317 0.826,0.281 c 0.066,0.186 0.169,0.362 0.318,0.512 c 0.397,0.396 0.974,0.497 1.465,0.307 c 0.048,0.112 0.117,0.217 0.208,0.309 c -0.389,0.389 -0.389,1.02 0,1.409 s 1.02,0.389 1.409,0 c 0.075,0.074 0.16,0.13 0.249,0.176 c 0.01,0.005 0.02,0.011 0.03,0.016 c 0.37,0.175 0.824,0.114 1.13,-0.192 c 0.389,-0.389 0.389,-1.02 0,-1.409 c 0.094,-0.094 0.162,-0.203 0.211,-0.318 c 0.001,-0.039 -0.001,-0.079 -0.001,-0.119 c 0.181,-0.039 0.353,-0.127 0.494,-0.267 c 0.389,-0.389 0.389,-1.02 0,-1.409 Z"/>
		<path fill="#A6D388" d="M 15.212,8.7381 c -0.195,0.195 -0.51,0.195 -0.704,0 c -0.195,-0.195 -0.195,-0.51 0,-0.704 c 0.194,-0.195 0.509,-0.195 0.704,0 c 0.195,0.194 0.195,0.509 0,0.704 Z"/>
		<path fill="#FFD983" d="M 13.4512,13.3164 c -0.389,0.389 -1.019,0.389 -1.409,0 c -0.389,-0.389 -0.389,-1.019 0,-1.409 c 0.39,-0.389 1.02,-0.389 1.409,0 c 0.389,0.39 0.389,1.02 0,1.409 Z"/>
		<path fill="#FFD983" d="M 12.3946,9.4424 c -0.488,-0.488 -1.226,-0.562 -1.797,-0.234 c -0.073,-0.171 -0.177,-0.331 -0.316,-0.47 s -0.3,-0.243 -0.47,-0.316 c 0.328,-0.571 0.254,-1.309 -0.234,-1.797 c -0.584,-0.584 -1.529,-0.584 -2.113,0 s -0.584,1.529 0,2.113 c 0.139,0.139 0.299,0.242 0.47,0.315 c -0.328,0.571 -0.254,1.31 0.234,1.798 s 1.226,0.562 1.797,0.234 c 0.073,0.17 0.177,0.331 0.316,0.47 c 0.584,0.584 1.529,0.584 2.113,0 s 0.584,-1.529 0,-2.113 Z"/>
		<path fill="#FFE8B6" d="M 11.3381,11.2033 c -0.486,0.486 -1.275,0.486 -1.761,0 s -0.486,-1.275 0,-1.761 s 1.275,-0.486 1.761,0 s 0.486,1.275 0,1.761 Z"/>
		<path fill="#FFE8B6" d="M 9.5772,8.7381 c -0.292,0.292 -0.765,0.292 -1.057,0 c -0.291,-0.292 -0.291,-0.765 0,-1.057 c 0.292,-0.291 0.765,-0.291 1.057,0 c 0.292,0.292 0.292,0.765 0,1.057 Z"/>
		<path fill="#FFE8B6" d="M 8.1685,7.3294 c -0.292,0.292 -0.765,0.292 -1.057,0 c -0.291,-0.292 -0.291,-0.765 0,-1.057 c 0.292,-0.291 0.765,-0.291 1.057,0 c 0.292,0.292 0.292,0.765 0,1.057 Z"/>
		<path fill="#A6D388" d="M 8.8729,5.2163 c -0.195,0.195 -0.51,0.195 -0.704,0 c -0.195,-0.195 -0.195,-0.51 0,-0.704 c 0.194,-0.195 0.509,-0.195 0.704,0 c 0.195,0.194 0.195,0.509 0,0.704 Z"/>
		<path fill="#77B255" d="M 15.5642,6.9772 c -0.389,0.389 -1.02,0.389 -1.409,0 s -0.389,-1.019 0,-1.409 c 0.389,-0.389 1.02,-0.389 1.409,0 s 0.389,1.02 0,1.409 Z"/>
		<path fill="#A6D388" d="M 14.8599,9.0903 c -0.389,0.389 -1.019,0.389 -1.409,0 c -0.389,-0.389 -0.389,-1.019 0,-1.409 c 0.39,-0.389 1.02,-0.389 1.409,0 c 0.389,0.39 0.389,1.02 0,1.409 Z"/>
		<path fill="#A6D388" d="M 13.099,5.9207 c -0.219,-0.219 -0.488,-0.355 -0.77,-0.41 c -0.014,-0.235 -0.107,-0.467 -0.287,-0.647 c -0.389,-0.389 -1.019,-0.389 -1.408,0 c -0.39,-0.389 -1.02,-0.389 -1.409,0 c -0.389,0.39 -0.389,1.02 0,1.409 s 1.019,0.389 1.409,0 c 0.021,0.022 0.046,0.037 0.069,0.057 c -0.27,0.556 -0.179,1.242 0.283,1.704 c 0.584,0.584 1.529,0.584 2.113,0 s 0.584,-1.529 0,-2.113 Z"/>
		<path fill="#DD2E44" d="M 10.9859,4.512 c -0.292,0.292 -0.765,0.292 -1.057,0 c -0.291,-0.292 -0.291,-0.765 0,-1.057 c 0.292,-0.291 0.765,-0.291 1.057,0 c 0.292,0.292 0.292,0.765 0,1.057 Z"/>
		<path fill="#DD2E44" d="M 15.212,7.3294 c -0.292,0.292 -0.765,0.292 -1.057,0 c -0.291,-0.292 -0.291,-0.765 0,-1.057 c 0.292,-0.291 0.765,-0.291 1.057,0 c 0.292,0.292 0.292,0.765 0,1.057 Z"/>
		<path fill="#DD2E44" d="M 14.8599,10.499 c -0.389,0.389 -1.019,0.389 -1.409,0 c -0.389,-0.389 -0.389,-1.019 0,-1.409 c 0.39,-0.389 1.02,-0.389 1.409,0 c 0.389,0.39 0.389,1.02 0,1.409 Z"/>
		<path fill="#77B255" d="M 13.4511,3.4554 c -0.389,-0.389 -1.02,-0.389 -1.409,0 s -0.389,1.02 0,1.409 c -0.389,0.389 -0.389,1.019 0,1.408 s 1.02,0.39 1.409,0 c 0.389,-0.389 0.389,-1.019 0,-1.408 c 0.389,-0.389 0.389,-1.02 0,-1.409 Z"/>
		<path fill="#DD2E44" d="M 12.7468,6.9772 c -0.389,0.389 -1.019,0.389 -1.409,0 c -0.389,-0.389 -0.389,-1.019 0,-1.409 c 0.39,-0.389 1.02,-0.389 1.409,0 c 0.389,0.39 0.389,1.02 0,1.409 Z"/>
		<path fill="#DD2E44" d="M 13.8033,4.512 c -0.195,0.195 -0.51,0.195 -0.704,0 c -0.195,-0.195 -0.195,-0.51 0,-0.704 c 0.194,-0.195 0.509,-0.195 0.704,0 c 0.195,0.194 0.195,0.509 0,0.704 Z"/>
	</g>
</svg>
