<svg xmlns="http://www.w3.org/2000/svg" viewBox="0 0 36 36">
	<g transform="rotate(-45) scale(0.9962) translate(0.09549)">
		foil
		<g>
			changed to use standard grays
			nhhh.. this should be defined as one clip path but i can't figure out the bottom curve..
			<path fill="#66757F" d="M -6,21 h1 v22.95419 h-1 c -1.66441,-1.97751 -1.98312,-4.33619 -2,-4.95419 c -0.01506,-0.62203 0,-7 0,-7 c 0,-2 -2.32831,-2.98932 -3,-5 c -1,-3 2,-4 2,-5 c 0,-0.5 0.5,-1.25 1,-1.5 s 2,0.5 2,0.5 Z"/>
			<path fill="#8899A6" d="M -3,22.5 h1 v23.73358 h-1 c -0.07049,-0.03265 -1.58166,-0.62675 -3,-2.27989 v-22.95369 l 3,1.5 Z"/>
			<path fill="#AAB8C2" d="M 8.97389,39 c -0.0653,1.11081 -0.49048,3.84853 -2.97389,5.96019 l -4,1.89823 c -0.05608,0.00923 -2.63338,0.53803 -5,-0.62533 v-23.73309 l 5,2.5 l 4,2 s 1.95999,0.28466 3,1.24431 s 2.9863,1.90653 2.9863,2.86731 c 0,1 -2.19685,0.67674 -2.9863,2.88838 v5 h-0.02611 Z"/>
			<path fill="#CCD6DD" d="M 6,27 v17.9609 c -0.07557,0.06389 -1.69392,1.50337 -4,1.89731 v-21.85821 l 4,2 Z"/>
		</g>
		
		<g>
			<path fill="#FFCC4D" d="M 9,30 c -0.43567,0.96357 -1.62743,1.84444 -3,2.28664 c -1.34186,0.43156 -2.8509,0.43582 -4,-0.3072 c -0.37762,-0.2441 -0.72046,-0.56138 -1,-0.97944 c -0.8533,-1.28121 -2.70589,-3.00462 -4,-3.25248 c -0.40197,-0.07744 -0.75261,-0.0164 -1,0.25248 c -0.42906,0.46435 -1.22759,0.16268 -2,-0.56891 c -1.02275,-0.97073 -2,-2.70336 -2,-4.43109 v-3.5 l 0.06763,-7.48763 l 16.89902,2.9826 l 0.03335,13.00503 v2 Z"/>		
			<circle r="1" transform="translate(0 25.58485) skewY(17.3)" fill="#FFAC33"/>
			<circle r="1" transform="translate(7 23) skewY(-17.3)" fill="#FFAC33"/>
			<circle r="1" transform="translate(4.70673,29.29166) skewY(-20.6)" fill="#D99E82"/>
			<circle r="1" transform="translate(-6,23) skewY(26.5)" fill="#D99E82"/>
		</g>
		
		<circle r="7.5" fill="#FFAC33" transform="translate(0.5 12.667) skewY(11)"/>
		<g fill="#C1694F">
			<path d="M -3.11343,7.49723
 C -2.84868,7.33043 -2.53849,7.21331
-2.21198,7.21331
 C -1.29492,7.21331 -0.25576,7.34818
0.54561,8.11405
 C 1.06163,8.60595 1.56985,9.26749
1.84171,10.36839
 L
6.817,15.429
 L
6.81388,15.42716
 C 6.81388,15.43426 6.81176,15.44065
6.81176,15.44775
 C 6.12395,18.16275 3.56227,19.77471
0.50018,19.16712
 C -3.0893,18.45519 -5.9995,14.96721
 -5.9995,11.37702 l-0.5,-0.5 Z"/>
			<circle cx="-3.98" cy="8" r="1"/>
			<circle cx="-3.98" cy="9" r="1"/>
			<circle cx="-4.48" cy="10.5" r="1.5"/>
		</g>
		<circle cx="-3" cy="17" r="1" fill="#D99E82"/>
		<path fill="#F4900C" d=" M
1.69208,10.51788
 C 1.42023,9.41697 0.98654,8.6809
0.47122,8.1883
 L
0.50032,8.16772
 C 3.74909,8.81293 6.43215,11.73164
6.91482,14.94137
 C 6.86016,15.28421 6.77428,15.59298
6.66639,15.8769
 L
1.69208,10.51788
Z"/>
		<circle r="7.5" stroke-width="2" fill="none" stroke="#FFE8B6" transform="translate(0.5 12.667) skewY(11)"/>
		
		<g fill="#D99E82">
			<circle r="1" cx="-2" cy="10"/>
			<circle r="1.5" cx="-2.5" cy="12.5"/>
			<circle r="1" cx="-1" cy="15"/>
			<circle r="0.5" cx="-2.5" cy="8.5"/>
			<circle r="1" cx="-4" cy="15"/>
		</g>
		
		<circle r="1.5" cx="0.5" cy="8.5" fill="#FFD983"/>
		
		<g fill="#77B255">
			<circle r="2" cx="3" cy="10"/>
			<circle r="1" cx="3" cy="12"/>
			<circle r="1" cx="4" cy="13"/>
			<circle r="1" cx="3" cy="16"/>
			<circle r="1" cx="4" cy="17"/>
			<circle r="1" cx="3" cy="18"/>
			<circle r="1" cx="2" cy="17"/>
			<circle r="1" cx="5" cy="17"/>
			<circle r="1" cx="4" cy="15"/>
			<circle r="1" cx="5" cy="14"/>
			<circle r="1" cx="4" cy="12"/>
			<circle r="1" cx="2" cy="13"/>
			<circle r="1.375" cx="2.625" cy="14.375"/>
		</g>
		
		<g fill="#A6D388">
			<circle r="0.5" cx="4.5" cy="16.5"/>
			<circle r="0.5" cx="2.5" cy="9.5"/>
			<circle r="1" cx="4" cy="16"/>
			<circle r="1" cx="3" cy="11"/>
			<circle r="1" cx="4" cy="12"/>
			<circle r="1.5" cx="3.5" cy="13.5"/>
		</g>
		<g fill="#77B255">
			<circle r="1" cx="6" cy="15"/>
			<circle r="1" cx="5" cy="13"/>
			<circle r="1" cx="6" cy="12"/>
		</g>
		<g fill="#DD2E44">
			<circle r="0.75" cx="4.5" cy="10.25"/>
			<circle r="0.75" cx="5.5" cy="15.25"/>
			<circle r="1" cx="3" cy="17"/>
			<circle r="1" cx="4" cy="13"/>
			<circle r="0.5" cx="6.5" cy="12.5"/>
		</g>
		<g fill="#FFD983">
			<circle r="1" cx="0" cy="18"/>
			<circle r="1.5" cx="0.5" cy="11.5"/>
			<circle r="1.5" cx="-0.5" cy="13.5"/>
			<circle r="1.5" cx="0.5" cy="15.5"/>
		</g>
		<g fill="#FFE8B6">
			<circle r="1.25" cx="0" cy="14.75"/>
			<circle r="0.75" cx="0.5" cy="12.25"/>
			<circle r="0.75" cx="0.5" cy="10.25"/>
		</g>
	</g>
</svg>
