<svg xmlns="http://www.w3.org/2000/svg" viewBox="0 0 36 36">
	maybe scale this all by scale(1 1.7323) ? to unskew
	
	<g transform="scale(1 0.57837) rotate(-45)">
		<path fill="#99AAB5" d="M -2.24187,51.9437 l -32.32392,-0.00359 c -1.27478,-0.00084 -2.30857,-1.03463 -2.30941,-2.30941 l -0.00098,-11.54466 c 0.00019,-0.638 0.25799,-1.214 0.67612,-1.63213 c 0.41812,-0.41812 1.37174,-1.37174 2.25323,-2.25323 l 31.70282,1.5807 c 1.276,-0.00038 2.3105,1.03412 2.30941,2.30941 l 1.58369,10.91937 c -0.68343,0.68343 -1.83446,1.82597 -2.24345,2.24345 c -0.41948,0.42655 -1.0023,0.68976 -1.64751,0.69008 Z"/>
		<rect width="36.94296" height="16.16261" rx="2.30922" ry="2.30898" x="-34.6562" y="33.55919" fill="#CCD6DD"/>
	</g>
	
<!--	<g>
		<path fill="#99AAB5" d="M 35.1445,22.1602 l -22.859,13.218 c -0.902,0.521 -2.364,0.521 -3.266,0 l -8.164,-4.721 c -0.451,-0.261 -0.676,-0.602 -0.676,-0.944 s 0,-1.122 0,-1.843 l 23.535,-12.319 c 0.902,-0.522 2.365,-0.522 3.266,0 l 8.841,3.818 c 0,0.559 -0.006,1.497 0,1.835 c 0.005,0.346 -0.221,0.692 -0.677,0.956 Z"/>
		<path fill="#CCD6DD" d="M 35.1445,20.3438 l -22.859,13.219 c -0.902,0.521 -2.364,0.521 -3.266,0 l -8.164,-4.721 c -0.902,-0.521 -0.902,-1.367 0,-1.889 l 22.859,-13.218 c 0.902,-0.521 2.365,-0.521 3.266,0 l 8.164,4.721 c 0.902,0.521 0.902,1.367 0,1.888 Z"/>
	</g>-->
	<g>
		<path fill="#FFE8B6" d="M 33,19.0107 l -13.042,7.503 l -7,-4.041 v-8.083 l 13.042,-7.503 l 7,4.041 v8.083 Z"/>
		<path fill="#FFD983" d="M 33,19.0107 l -13.042,7.503 l -7,-4.041 v-8.083 l 7,4.041 l 13.042,-7.503 v8.083 Z"/>
		<path fill="#FFCC4D" d="M 33,19.0107 l -13.042,7.503 v-8.083 l 13.042,-7.503 v8.083 Z"/>
	</g>
	<g>
		<path fill="#FFE8B6" d="M 17.1816,28.3027 l -7.182,4.075 l -7,-4.041 v-2.013 l 7.182,-4.075 l 7,4.041 v2.013 Z"/>
		<path fill="#FFD983" d="M 17.1816,28.3027 l -7.182,4.075 l -7,-4.041 v-2.013 l 7.182,4.025 l 7,-4.059 v2.013 Z"/>
		<path fill="#FFCC4D" d="M 17.1816,28.3027 l -7.182,4.075 l 0.182,-2.029 l 7,-4.059 v2.013 Z"/>
	</g>
</svg>
