<svg xmlns="http://www.w3.org/2000/svg" viewBox="0 0 36 36">
	<g transform="scale(1 0.57837) rotate(-45)">
		mnmh..
		<rect width="36.94296" height="16.16261" rx="2.309" ry="2.309" x="-36.87569" y="35.77989" fill="#99AAB5"/>
		<path fill="#99AAB5" d="M -36.20006,36.45391 l 2.25323,-2.25323 l 35.59592,14.80948 l -2.24345,2.24345 l -35.6057,-14.7997 Z"/>
		<rect width="36.94296" height="16.16261" rx="2.309" ry="2.309" x="-34.6562" y="33.55919" fill="#CCD6DD"/>
	</g>
	<!--	<g>
		<path fill="#99AAB5" d="M 35.1445,22.1602 l -22.859,13.218 c -0.902,0.521 -2.364,0.521 -3.266,0 l -8.164,-4.721 c -0.451,-0.261 -0.676,-0.602 -0.676,-0.944 s 0,-1.122 0,-1.843 l 23.535,-12.319 c 0.902,-0.522 2.365,-0.522 3.266,0 l 8.841,3.818 c 0,0.559 -0.006,1.497 0,1.835 c 0.005,0.346 -0.221,0.692 -0.677,0.956 Z"/>
		<path fill="#CCD6DD" d="M 35.1445,20.3438 l -22.859,13.219 c -0.902,0.521 -2.364,0.521 -3.266,0 l -8.164,-4.721 c -0.902,-0.521 -0.902,-1.367 0,-1.889 l 22.859,-13.218 c 0.902,-0.521 2.365,-0.521 3.266,0 l 8.164,4.721 c 0.902,0.521 0.902,1.367 0,1.888 Z"/>
		</g>-->
	<g>
		<path fill="#FFD983" d="M 33,19.0107 l -13.042,7.503 l -7,-4.041 v-8.083 l 13.042,-7.503 l 7,4.041 v8.083 Z"/>
		<path fill="#FFE8B6" d="M 26,6.8867 l 7,4.041 l -13.042,7.503 l -7,-4.041 l 13.042,-7.503 Z"/>
		<path fill="#FFCC4D" d="M 33,19.0107 l -13.042,7.503 v-8.083 l 13.042,-7.503 v8.083 Z"/>
	</g>
	<g>
		<path fill="#FFD983" d="M 3,26.3237 l 7.182,-4.075 l 7,4.041 v2.013 l -7.182,4.075 l -7,-4.041 v-2.013 Z"/>
		<path fill="#FFE8B6" d="M 3,26.3237 l 7.182,-4.075 l 7,4.041 l -7,4.059 l -7.182,-4.025 Z"/>
		<path fill="#FFCC4D" d="M 10,32.3777 l 0.182,-2.029 l 7,-4.059 v2.013 l -7.182,4.075 Z"/>
	</g>
</svg>
