<svg xmlns="http://www.w3.org/2000/svg" viewBox="0 0 36 36">
	<path d="M 26,8 a 4,4 0 01 8,0 v11 c 0,2.209 -1.896,3.875 -3.521,4.812 c -1.188,0.686 -4.498,1.52 -6.479,1.639 v7.549 c 0,3.313 -12,3.313 -12,0 v-3.536 c -1.895,-0.052 -5.381,-0.934 -6.625,-1.652 c -1.625,-0.937 -3.375,-2.603 -3.375,-4.812 v-7 a 4,4 0 01 8,0 v5.125 c 0,1.133 0.878,2.029 2,2.504 v-17.629 a 6,6 0 01 12,0 v13.573 c 1.113,-0.488 2,-1.362 2,-2.448 v-9.125 Z" fill="#77b255"/>
	<g fill="#3E721D">
		<circle cx="12" cy="6" r="1"/>
		<circle cx="23" cy="3" r="1"/>
		<circle cx="21" cy="9" r="1"/>
		<circle cx="14" cy="16" r="1"/>
		<circle cx="20" cy="20" r="1"/>
		<circle cx="13" cy="26" r="1"/>
		<circle cx="5" cy="27" r="1"/>
		<circle cx="9" cy="20" r="1"/>
		<circle cx="2" cy="18" r="1"/>
		<circle cx="34" cy="8" r="1"/>
		<circle cx="28" cy="11" r="1"/>
		<circle cx="32" cy="16" r="1"/>
		<circle cx="29" cy="24" r="1"/>
		<circle cx="22" cy="30" r="1"/>
	</g>
</svg>
