<svg xmlns="http://www.w3.org/2000/svg" viewBox="0 0 36 36">
	<rect width="36" height="27" rx="4" x="0" y="9" fill="#e1e8ed"/>
	<path d="M 34,0 a 2,2 0 01 2,2 v11 h-36 v-11 a 2,2 0 01 2,-2 h3.277 a 2,2 0 00 -0.277,1 a 2,2 0 00 4,0 a 2,2 0 00 -0.277,-1 h18.554 a 2,2 0 00 -0.277,1 a 2,2 0 00 4,0 a 2,2 0 00 -0.277,-1 h3.277 Z" fill="#dd2e44"/>
	<g fill="#f4abba">
		<circle r="1" cx="24" cy="7"/>
		<circle r="1" cx="27" cy="7"/>
		<circle r="1" cx="30" cy="7"/>
		<circle r="1" cx="33" cy="7"/>
		<circle r="1" cx="24" cy="10"/>
		<circle r="1" cx="27" cy="10"/>
		<circle r="1" cx="30" cy="10"/>
		<circle r="1" cx="33" cy="10"/>
	</g>
	MAR
	<!--<g fill="#ffffff">
		<path d="M 2.4683,4.9404 c 0,-0.437 0.346,-0.783 0.783,-0.783 h0.173 c 0.335,0 0.568,0.173 0.711,0.407 l 1.89,3.079 l 1.901,-3.089 c 0.162,-0.264 0.385,-0.397 0.701,-0.397 h0.172 c 0.437,0 0.783,0.346 0.783,0.783 v5.65 c 0,0.437 -0.346,0.783 -0.783,0.783 c -0.427,0 -0.772,-0.356 -0.772,-0.783 v-3.546 l -1.372,2.113 c -0.163,0.244 -0.366,0.396 -0.65,0.396 c -0.285,0 -0.488,-0.152 -0.651,-0.396 l -1.351,-2.083 v3.536 c 0,0.427 -0.346,0.763 -0.773,0.763 s -0.762,-0.336 -0.762,-0.763 v-5.67 Z"/>
		<path d="M 14.7905,8.3345 l -0.985,-2.348 l -0.986,2.348 h1.971 ZM 10.3905,10.3065 l 2.48,-5.6 c 0.172,-0.386 0.487,-0.62 0.914,-0.62 h0.091 c 0.427,0 0.732,0.234 0.905,0.62 l 2.48,5.6 c 0.051,0.111 0.081,0.213 0.081,0.315 c 0,0.416 -0.325,0.752 -0.742,0.752 c -0.366,0 -0.61,-0.214 -0.752,-0.539 l -0.477,-1.118 h-3.131 l -0.497,1.169 c -0.133,0.304 -0.397,0.488 -0.722,0.488 c -0.407,0 -0.722,-0.326 -0.722,-0.732 c 0,-0.112 0.041,-0.224 0.092,-0.335 Z"/>
		<path d="M 21.2188,7.6538 c 0.762,0 1.199,-0.407 1.199,-1.006 v-0.021 c 0,-0.67 -0.468,-1.016 -1.23,-1.016 h-1.555 v2.043 h1.586 ZM 18.0678,4.9808 c 0,-0.437 0.346,-0.783 0.783,-0.783 h2.47 c 0.904,0 1.605,0.255 2.072,0.722 c 0.396,0.397 0.61,0.955 0.61,1.626 v0.021 c 0,1.117 -0.558,1.808 -1.423,2.164 l 1.087,1.321 c 0.154,0.193 0.255,0.356 0.255,0.6 c 0,0.437 -0.366,0.721 -0.742,0.721 c -0.356,0 -0.59,-0.173 -0.773,-0.406 l -1.524,-1.931 h-1.25 v1.555 c 0,0.437 -0.346,0.782 -0.782,0.782 c -0.437,0 -0.783,-0.345 -0.783,-0.782 v-5.61 Z"/>
	</g>-->
	JUL
	<g fill="#f5f8fa">
		<path d="M 5.4902,9.001 c 0,1.679 -1.069,2.119 -1.979,2.119 c -0.689,0 -1.839,-0.27 -1.839,-1.14 c 0,-0.269 0.23,-0.609 0.56,-0.609 c 0.4,0 0.75,0.37 1.199,0.37 c 0.56,0 0.56,-0.52 0.56,-0.84 v-4.297 c 0,-0.5 0.32,-0.78 0.749,-0.78 c 0.431,0 0.75,0.28 0.75,0.78 v4.397 Z"/>
		<path d="M 6.272,4.6035 c 0,-0.5 0.32,-0.78 0.75,-0.78 s 0.75,0.28 0.75,0.78 v3.488 c 0,0.92 0.589,1.649 1.539,1.649 c 0.909,0 1.529,-0.769 1.529,-1.649 v-3.488 c 0,-0.5 0.319,-0.78 0.749,-0.78 s 0.75,0.28 0.75,0.78 v3.568 c 0,1.679 -1.38,2.949 -3.028,2.949 c -1.669,0 -3.039,-1.25 -3.039,-2.949 v-3.568 Z"/>
		<path d="M 13.1821,4.6035 c 0,-0.5 0.32,-0.78 0.75,-0.78 c 0.429,0 0.749,0.28 0.749,0.78 v5.017 h1.779 c 0.51,0 0.73,0.38 0.72,0.72 c -0.02,0.33 -0.28,0.659 -0.72,0.659 h-2.498 c -0.49,0 -0.78,-0.319 -0.78,-0.819 v-5.577 Z"/>
	</g>
	number:
	<g fill="#66757f">
		<!-- 15
		<g>
			<path d="M 12,19 h-1.695 c -1.086,0 -1.538,-0.731 -1.538,-1.5 c 0,-0.792 0.566,-1.5 1.538,-1.5 h3.21 c 0.972,0 1.515,0.701 1.515,1.605 v12.865 c 0,1.13 -0.558,1.762 -1.53,1.762 s -1.5,-0.632 -1.5,-1.762 v-11.47 Z"/>
			<path d="M 21.5781,21.5029 c 0.541,-0.112 1.128,-0.226 1.691,-0.226 c 2.729,0 4.668,2.165 4.668,4.804 c 0,3.767 -2.074,6.247 -5.975,6.247 c -1.602,0 -4.962,-1.037 -4.962,-3.021 c 0,-0.835 0.699,-1.534 1.533,-1.534 c 0.902,0 1.985,1.443 3.496,1.443 c 1.578,0 2.391,-1.533 2.391,-2.954 c 0,-1.354 -0.767,-2.279 -2.165,-2.279 c -1.309,0 -1.511,0.746 -2.661,0.746 c -0.88,0 -1.331,-0.677 -1.331,-1.061 c 0,-0.293 0.044,-0.519 0.068,-0.767 l 0.563,-4.758 c 0.248,-1.759 0.677,-2.143 1.759,-2.143 h5.436 c 1.037,0 1.646,0.609 1.646,1.421 c 0,1.557 -1.173,1.579 -1.579,1.579 h-4.24 l -0.338,2.503 Z"/>
		</g> -->
		17
		<g>
			<path d="M 10.889,19 h-0.5 c -1.085,0 -1.538,-0.731 -1.538,-1.5 c 0,-0.792 0.566,-1.5 1.538,-1.5 h2.015 c 0.972,0 1.515,0.701 1.515,1.605 v12.865 c 0,1.13 -0.558,1.762 -1.53,1.762 s -1.5,-0.632 -1.5,-1.762 v-11.47 Z"/>
			<path d="M 23.657,19.12 h-5.787 c -1.22,0 -1.673,-0.791 -1.673,-1.56 c 0,-0.791 0.429,-1.56 1.673,-1.56 h8.184 c 1.154,0 1.628,1.04 1.628,1.628 c 0,0.452 -0.249,0.927 -0.52,1.492 l -5.607,11.395 c -0.633,1.266 -0.882,1.717 -1.899,1.717 c -1.244,0 -1.877,-0.949 -1.877,-1.605 c 0,-0.271 0.068,-0.474 0.226,-0.791 l 5.652,-10.716 Z"/>	
		</g>
		21
		<!--<g>
			<path d="M 8.7992,28.8088 l 4.542,-3.721 c 1.986,-1.62 2.762,-2.511 2.762,-3.835 c 0,-1.346 -0.89,-2.077 -2.145,-2.077 c -1.005,0 -1.712,0.435 -2.602,1.393 c -0.229,0.251 -0.639,0.502 -1.187,0.502 c -0.891,0 -1.598,-0.708 -1.598,-1.597 c 0,-0.389 0.16,-0.8 0.411,-1.096 c 1.278,-1.484 2.785,-2.351 5.204,-2.351 c 3.31,0 5.501,1.94 5.501,4.93 v0.046 c 0,2.67 -1.37,3.994 -4.2,6.185 l -2.602,2.008 h5.569 c 0.845,0 1.53,0.685 1.53,1.53 c 0,0.844 -0.685,1.507 -1.53,1.507 h-8.673 c -1.096,0 -1.895,-0.617 -1.895,-1.667 c 0,-0.685 0.32,-1.278 0.913,-1.757 Z"/>
			<path d="M 23.6875,19 h-0.5 c -1.085,0 -1.538,-0.731 -1.538,-1.5 c 0,-0.792 0.566,-1.5 1.538,-1.5 h2.015 c 0.972,0 1.515,0.701 1.515,1.605 v12.865 c 0,1.13 -0.558,1.762 -1.53,1.762 s -1.5,-0.632 -1.5,-1.762 v-11.47 Z"/>
		</g>-->
	</g>
</svg>
