<svg xmlns="http://www.w3.org/2000/svg" viewBox="0 0 36 36">
	similar to Camera
	
	<path d="M 0,10 s 0,-4 4,-4 h28 s 4,0 4,4 v18 s 0,4 -4,4 h-28 s -4,0 -4,-4 v-18 Z" fill="#31373D"/>
	<circle r="1.5" cx="32.5" cy="9.5" fill="#ffffff"/>
	lens
	<g>
		<circle r="10" cx="21" cy="19" fill="#ccd6dd"/>
		<circle r="8" cx="21" cy="19" fill="#31373D"/>
		<circle r="5" cx="21" cy="19" fill="#3b88c3"/>
	</g>
	flash
	<g>
		<path d="M 16,9 l 5,4 l -6,1 l 1,8 l -6,-5 l -6,3 l 2,-6 h-6 l 5,-4 l -4,-6 l 6,1 l 2,-5 l 4,5 l 6,-2 l -3,6 Z" fill="#ffac33"/>
		<path d="M 10,14 l -3,2 l 1,-3 l -3,-1 l 3,-2 l -3,-3 h4 l 1,-3 l 2,3 l 3,-1 l -2,3 l 3,3 l -3,1 l 1,4 l -4,-3 Z" fill="#ffffff"/>
	</g>
</svg>
