<svg xmlns="http://www.w3.org/2000/svg" viewBox="0 0 36 36">
	<path d="M 31.595,15.007 c 4.332,2.477 4.398,7.112 4.399,7.327 c 0,0.553 -0.447,1 -1,1 s -1,-0.447 -1,-1 c -0.001,-0.108 -0.036,-1.794 -1.118,-3.459 c -0.393,3.749 -1.621,6.194 -0.824,7.914 c 0.94,2.03 0.001,4.957 -1.058,6.928 c -1.058,1.968 -2.028,0.939 -1.999,-0.059 c 0.029,-1 0.97,-3.93 0.999,-4.93 c 0.005,-0.187 -0.098,-0.479 -0.269,-0.843 c -0.212,2.002 -0.888,4.216 -1.536,5.421 c -1.059,1.97 -2.028,0.941 -1.999,-0.059 s 1.117,-3.969 1.146,-4.969 c 0.014,-0.444 -0.932,-1.843 -1.982,-3.435 c -1.78,0.1 -3.732,0.105 -5.506,0.015 c -0.575,-0.005 -1.112,-0.018 -1.619,-0.035 c -0.741,2.622 -0.512,7.38 -0.559,8.982 c -0.059,1.998 -2.058,1.939 -1.999,-0.059 c 0.036,-1.217 -0.241,-4.481 -0.899,-7.314 c -0.245,2.101 -0.107,4.57 -0.143,5.781 c -0.059,2 -2.058,1.941 -1.999,-0.059 c 0.044,-1.507 -0.414,-5.303 -1.473,-7.962 c -2.452,-0.271 -5.356,-1.173 -6.164,-3.86 c -0.439,-1.461 0.17,-3.952 1,-6.606 c 0.756,-2.416 1,-4.726 0,-4.726 h-4 c -1,0 -2,-3.418 1.117,-4.667 c 1.313,-0.525 3.664,-0.791 4.229,-0.791 c 0.569,0 1.048,0.035 1.472,0.102 c 0.06,-0.094 0.109,-0.191 0.189,-0.28 c 0.55,-0.619 1.332,-0.823 1.745,-0.456 c 0.394,0.352 0.297,1.093 -0.192,1.699 c 0.302,0.482 0.44,1.162 0.44,2.119 c 0,3.832 -2.835,9.281 0.536,10.463 c 0.143,-0.279 0.288,-0.558 0.464,-0.857 c 1.843,-3.119 6,-10.378 10.071,-10.378 c 3.597,0 7.781,5.43 9.531,9.053 Z"  fill="#C1694F"/>
	<path d="M 0,0 c -1.75,3.624 -5.935,9.053 -9.531,9.053 c -4.071,0 -8.228,-7.259 -10.071,-10.378 c -0.176,-0.299 -0.321,-0.578 -0.464,-0.857 c -3.371,1.182 -0.536,6.632 -0.536,10.463 c 0,0.958 -0.138,1.637 -0.44,2.119 c 0.488,0.606 0.586,1.347 0.191,1.699 c -0.412,0.367 -1.193,0.163 -1.744,-0.456 c -0.079,-0.089 -0.129,-0.186 -0.189,-0.28 c -0.424,0.067 -0.903,0.102 -1.471,0.102 c -0.566,0 -2.916,-0.266 -4.229,-0.792 c -3.118,-1.248 -2.118,-4.666 -1.118,-4.666 h4 c 1,0 0.756,-2.31 0,-4.726 c -0.83,-2.654 -1.44,-5.145 -1,-6.606 c 0.808,-2.687 3.712,-3.589 6.164,-3.861 c 1.059,-2.659 1.517,-6.455 1.473,-7.961 c -0.059,-2 1.94,-2.059 1.999,-0.059 c 0.035,1.211 -0.103,3.68 0.143,5.781 c 0.658,-2.833 0.935,-6.096 0.899,-7.314 c -0.059,-1.998 1.94,-2.057 1.999,-0.059 c 0.047,1.602 -0.182,6.36 0.559,8.983 c 0.507,-0.018 1.044,-0.031 1.619,-0.036 c 1.774,-0.089 3.726,-0.085 5.506,0.015 c 1.05,-1.592 1.996,-2.991 1.982,-3.435 c -0.029,-1 -1.117,-3.968 -1.146,-4.968 c -0.03,-1 0.94,-2.03 1.999,-0.059 c 0.648,1.205 1.324,3.419 1.536,5.421 c 0.171,-0.364 0.274,-0.656 0.268,-0.843 c -0.029,-1 -0.969,-3.929 -0.999,-4.929 c -0.029,-0.998 0.941,-2.028 1.999,-0.059 c 1.059,1.971 1.998,4.898 1.058,6.928 c -0.797,1.719 0.431,4.165 0.824,7.914 c 1.082,-1.665 1.117,-3.351 1.118,-3.459 c 0,-0.553 0.448,-1 1,-1 c 0.553,0 1,0.447 1,1 c 0,0.213 -0.066,4.847 -4.398,7.325 Z"  ></path>
	<circle cx="7.2805" cy="5.5415" r="1" fill="#292F33"/>
</svg>
