<svg xmlns="http://www.w3.org/2000/svg" viewBox="0 0 36 36">
	<rect x="17" y="17" width="3" height="6" rx="1.5"  fill="#67757F"/>
	<path d="M 27.138,33.817 c 0.045,1.205 -0.932,2.183 -2.138,2.183 h-12.817 c -1.206,0 -2.183,-0.978 -2.183,-2.183 v-12.817 c 0,-1.205 0.115,-2.183 2.183,-2.183 s 2.817,4.183 12.817,2.183 c 1.091,0 2.183,0.978 2.138,2.183 v10.634 Z"  fill="#E1E8ED"/>
	<path d="M 18.687,18.538 c -2.595,0 -6.962,-1.934 -6.962,-5.898 c 0,-3.988 4.351,-5.414 7.005,-11.401 c 0.751,-1.693 0.999,-1.107 1.86,-0.076 c 2.06,2.463 5.058,7.483 5.058,11.574 c -0.001,4.641 -4.64,5.801 -6.961,5.801 Z"  fill="#FCAB40"/>
	<path d="M 18.687,17.447 c -4.184,0 -3.482,-5.802 0,-9.283 c 2.321,1.16 5.801,9.283 0,9.283 Z"  fill="#FDCB58"/>
	<rect x="9" y="21" width="2" height="9" rx="1"  fill="#CCD6DD"/>
	<rect x="13" y="24" width="2" height="9" rx="1"  fill="#CCD6DD"/>
	<rect x="13" y="19" width="2" height="3" rx="1"  fill="#CCD6DD"/>
	</svg>
