<svg xmlns="http://www.w3.org/2000/svg" viewBox="0 0 36 36">
	<g>
		<path d="M 35,20 c 0,2.209 -1.791,2 -4,2 h-26 c -2.209,0 -4,0.209 -4,-2 l 2,-12 c 0.125,-1.917 1.791,-4 4,-4 h22 c 2.209,0 3.791,2.208 4,4 l 2,12 Z" fill="#66757f"/>
	</g>
	<g>
		<g>
			<rect width="20" height="12" rx="2" x="8" y="3" fill="#ccd6dd"/>
			<path d="M 22,1 a 2,2 0 01 2,2 v1 a 2,2 0 01 -2,2 h-1 a 2,2 0 00 -2,-2 h-4 v-1 a 2,2 0 01 2,-2 h5 Z" fill="#ffac33"/>
		</g>
		<g>
			<rect width="24" height="12" rx="2" x="6" y="7" fill="#e1e8ed"/>
			<path d="M 18,5 a 2,2 0 01 2,2 v1 a 2,2 0 01 -2,2 h-1 a 2,2 0 00 -2,-2 h-4 v-1 a 2,2 0 01 2,-2 h5 Z" fill="#55acee"/>
		</g>
		<g>
			<rect width="28" height="12" rx="2" x="4" y="11" fill="#f5f8fa"/>
			<path d="M 16,12 a 2,2 0 01 -2,2 h-5 a 2,2 0 01 -2,-2 v-1 a 2,2 0 01 2,-2 h5 a 2,2 0 01 2,2 v1 Z" fill="#ea596e"/>
		</g>
	</g>
	<g>
		<rect width="34" height="19" rx="4" x="1" y="16" fill="#99aab5"/>
		<g>
			<rect width="14" height="9" rx="2" x="11" y="21" fill="#66757f"/>
			<rect width="10" height="5" rx="1" x="13" y="23" fill="#e1e8ed"/>
		</g>
	</g>
</svg>
