<svg viewBox="0 0 36 36" xmlns="http://www.w3.org/2000/svg">
	<!-- the horse part appears to be scaled up by 1.187 -->
	
	<path d="M 24.357,16.337 s 2.248,-3.959 4.805,-4.169 s 3.929,0.934 4.144,3.432 c 0.287,3.334 -0.878,3.802 -0.033,7.53 c 0,0 -3.546,-2.414 -2.421,-6.07 c 1.172,-3.806 -4.81,-3.095 -3.835,0.316 l -2.66,-1.039 Z" fill="#DD2E44"/>
	<path d="M 3.912,21.935 l 5.905,0.584 c -0.907,1.102 -1.426,1.559 -3.788,1.325 c -0.618,-0.061 -1.334,0.089 -1.483,0.695 c -0.634,2.577 1.467,0.814 1.794,1.955 c 0.327,1.14 0.654,2.281 -0.487,2.608 s -2.935,-1.627 -3.262,-2.768 c -0.15,-0.523 -0.483,-1.964 -0.597,-2.778 l 1.918,-1.621 Z M 29.054,28.635 v-2.373 s 2.373,1.187 3.56,3.56 v 2.373 c -2.373,0 -3.56,-1.187 -3.56,-3.56 Z" fill="#8899A6"/>
	<rect x="13.31" y="20.375" width="2" height="15.563" rx="1" fill="#FFCC4D"/>
	<path d="M 34.987,31.008 c 1.187,1.187 1.188,2.375 0.001,2.375 s -3.56,-1.186 -3.56,-2.373 s 0,-2.373 -1.187,-3.56 c -1.186,-1.187 -4.746,-1.187 -7.119,-3.56 s -4.746,0 -7.119,0 s -4.747,-1.187 -5.933,-1.187 s -3.559,1.187 -4.746,1.187 c -1.186,0 -1.186,-1.186 -2.373,1.187 c -1.186,2.373 1.187,1.186 1.187,2.373 c 0,1.186 0,2.373 -1.187,2.373 s -2.606,-1.912 -2.639,-3.56 c -0.024,-1.186 0.265,-3.559 1.452,-4.746 c 1.186,-1.187 4.746,-1.187 4.746,-1.187 c -2.374,-3.56 -1.6,-4.821 -1.187,-5.933 c 0.573,-1.542 0.046,-2.607 -0.052,-2.688 c -0.729,0.666 -1.896,1.135 -1.896,1.135 s 0.125,0.864 -0.021,1.656 c -0.072,0.389 -0.729,1.146 -1.854,0.708 c -0.837,-0.325 -1.095,-0.541 -1.131,-1.208 c -0.026,-0.479 -0.015,-2.511 -0.007,-3.62 c -0.108,-0.215 -0.174,-0.455 -0.174,-0.73 c 0,-2.373 1.367,-2.181 0.18,-3.368 s 1.395,-0.192 1.395,-0.192 c 3.56,-1.186 7.396,-0.08 8.306,3.56 c 1.186,4.746 2.373,4.746 4.746,4.746 s 4.746,-1.187 8.306,-1.187 s 5.933,4.746 5.933,5.933 s 0.001,5.933 1.187,5.933 s 2.373,1.187 2.373,3.56 s 1.186,1.186 2.373,2.373 Z" fill="#CCD6DD"/>
	
	
	
	<ellipse rx=".555" ry=".424" transform="translate(1.846 8.862) rotate(-56.453)" fill="#292F33"/>
	
	<path d="M 10.712,11.761 c 1.006,2.629 2.154,2.635 4.103,2.635 c 2,0 4.008,-0.835 6.718,-1.101 c 0.143,0.36 0.276,0.728 0.401,1.101 c 1.187,3.56 0,5.933 -5.933,5.933 c -3.277,0 -5.933,-2.656 -5.933,-5.933 c 0.001,-0.951 0.246,-1.838 0.644,-2.635 Z" fill="#3B94D9"/>
	
		<!-- definitely a stroke but couldn't determine -->
	<path d="M 3.727,12.969 a 0.5,0.5 0 01 -0.715,0.212 c -1.136,-0.698 -2.341,-0.72 -2.353,-0.72 a 0.5,0.5 0 01 0.004,-1 c 0.057,0.011 1.129,0.003 2.35,0.584 c 0.287,-0.838 0.765,-2.666 0.466,-4.922 a 0.5,0.5 0 01 0.992,-0.132 c 0.452,3.409 -0.695,5.875 -0.744,5.978 Z"    fill="#1C6399"/>
	
	<ellipse fill="#1C6399" cx="14.31" cy="15.245" rx="1.455" ry="1.163"/>
	<rect x="13.31" y=".25" width="2" height="15.563" rx="1" fill="#FFCC4D"/>
	
	<path d="M 15.31,2.02 v2.257 l -2,1.047 v-2.257 l 2,-1.047 Z" fill="#F4900C"/>
	<path d="M 15.31,6.77 v2.257 l -2,1.047 v-2.257 l 2,-1.047 Z" fill="#F4900C"/>
	<path d="M 15.31,25.77 v2.257 l -2,1.047 v-2.257 l 2,-1.047 Z" fill="#F4900C"/>
	<path d="M 15.31,11.52 v2.257 l -2,1.047 v-2.247 l 2,-1.047 Z"  fill="#F4900C"/>
	<path d="M 15.31,30.52 v2.257 l -2,1.047 v-2.257 l 2,-1.047 Z"  fill="#F4900C"/>
	
	<path d="M 6.303,19.581 A 1.186,1.186 0 01 5.218,17.47 C 5.251,17.452 8.687,15.646 10.072,12.666C 10.216,12.356 10.475,12.137 10.776,12.038C 11.051,11.948 12.498,13.073 12.222,13.667C 10.49,17.396 6.473,19.494 6.303,19.581Z"  fill="#F4900C"/>
	<path d="M 12.442,13.21 c -2.373,-2.373 -1.006,-5.256 -3.379,-7.629 c -1.876,-1.876 -4.927,-1.863 -7.3,0.51 c 0,0 1.121,1.086 4.081,1.378 c 1.43,0.141 2.649,1.693 3.337,2.782 c 2.21,4.311 5.056,4.754 3.261,2.959 Z" fill="#DD2E44"/>
</svg>
