<svg xmlns="http://www.w3.org/2000/svg" viewBox="0 0 36 36">
	<defs>
		<clipPath id="blade1">
			<path d="M 27.933,18.545 l -2.511,2.961 l -2.884,6.251 l -2.189,0.208 l 0.307,-2.239 l -2.404,0.432 l 0.236,-2.125 l -2.04,0.283 l 0.196,-2.072 l -2.037,0.192 l 0.249,-1.926 l -2.115,0.02 l 0.099,-1.977 l -1.958,0.078 l 0.097,-1.882 l -1.9,0.042 l 0.056,-1.832 l -1.933,-0.085 l 0.187,-1.609 l -1.831,-0.07 l -0.006,-1.712 l -1.577,0.095 l -0.019,-1.644 l -1.677,-0.088 l -0.016,-1.554 l -1.767,-0.267 l -0.028,-1.475 l 3.331,-3.87 l 24.134,15.865 Z"/>
		</clipPath>
	</defs>
	
	<g clip-path="url(#blade1)">
		<path d="M 0,5.882 h 2.043 L 24.129,23.31 V 30 H 0" fill="#99AAB5"/>
		<path d=" M -22.043,-12.546 L 47.215,42.738 V -12.546 Z" fill="#CCD6DD"/>
	</g>
	bleh
	<g>
		<path d="M 34.419,22.33 c 0.929,0.489 1.556,0.986 1.498,1.591 c -0.06,0.639 -0.475,0.802 -1.216,0.973 c -0.938,0.217 -1.404,0.44 -1.536,1.01 s -0.264,1.624 -1.01,2.809 c -0.747,1.185 -1.361,0.878 -1.888,2.019 c -0.263,0.571 0.015,1.508 0.036,2.085 c 0.023,0.605 -0.576,1.237 -1.262,0.757 c -0.804,-0.563 -1.143,-1.657 -2.153,-2.667 c -0.375,-0.375 -3.95,-2.941 -4.565,-3.556 c -0.614,-0.614 -0.702,-1.141 -0.395,-2.458 c 0.202,-0.866 0.395,-1.229 0.088,-2.107 s -0.219,-2.431 0.132,-3.292 c 0.483,-1.186 0.439,-1.756 -0.439,-2.371 c -0.531,-0.371 -0.571,-0.79 -0.132,-1.536 s 0.878,-1.273 1.668,-0.746 c 0,0 3.468,2.107 3.819,2.37 c 0.352,0.263 0.586,0.917 1.054,1.229 c 0.658,0.439 1.004,0.071 2.063,0.79 c 1.23,0.834 1.317,1.712 1.888,1.975 s 1.55,0.704 2.35,1.125 ZM 30.371,24.596 c 0.54,-2.313 -0.163,-3.265 -1.031,-3.603 c -0.985,-0.383 -2.114,-0.037 -2.322,1.134 c -0.234,1.315 -0.367,1.789 -0.678,2.741 c -0.31,0.952 -0.471,1.613 -0.623,2.366 c -0.21,1.037 1.365,1.447 2.329,0.898 s 1.992,-2.111 2.325,-3.536 Z" fill="#C1694F"/>
		<path d="M 26.845,21.136 c -0.305,0.427 -0.317,1.414 -0.431,2.501 c -0.07,0.666 -0.189,1.364 -0.317,2.028 c 0.071,-0.247 0.149,-0.506 0.243,-0.797 c 0.311,-0.952 0.444,-1.426 0.678,-2.741 c 0.208,-1.171 1.337,-1.517 2.322,-1.134 c 0.868,0.337 1.571,1.29 1.031,3.602 c -0.038,0.161 -0.087,0.324 -0.141,0.486 c 0.146,-0.297 0.28,-0.628 0.347,-0.961 c 0.219,-1.097 0.397,-1.895 -0.219,-2.853 c -0.766,-1.189 -2.635,-1.36 -3.513,-0.131 Z" fill="#A0041E"/>
	</g>
	<g fill="#FFCC4D">
		<circle r="1" cx="24.5" cy="18"/>
		<circle r="1" cx="24" cy="22"/>
		<circle r="1" cx="24" cy="26"/>
	</g>
</svg>
