<svg xmlns="http://www.w3.org/2000/svg" viewBox="0 0 36 36">
	<!-- rotated 45°, aligns very well to grid -->
	<path d="M 31.096,8.933 c 1.414,0 6.988,1.331 2.038,3.453 c -4.949,2.121 -5.532,1.538 -6.946,1.538 c -1.415,0 -1.29,-2.704 -1.29,-2.704 s -2.829,0 -2.829,-1.414 s -0.707,-2.121 1.415,-7.071 c 2.121,-4.95 3.535,0.707 3.535,2.121 c 2.121,-3.536 8.485,-4.243 7.778,-3.536 c 0.707,-0.707 -0.166,5.491 -3.701,7.613 Z"  fill="#77B255"/>
	<path d="M 22.422,23.594 c -7.615,7.615 -20.152,13.081 -21.92,11.313 s 3.699,-14.305 11.313,-21.92 c 7.615,-7.615 11.53,-7.562 14.85,-4.243 c 3.319,3.32 3.372,7.235 -4.243,14.85 Z"  fill="#F4900C"/>
	<path d="M 21.875,14.56 c 1.02,1.019 -4.298,-0.685 -7.101,-4.298 c 0.855,-0.717 1.656,-1.316 2.409,-1.808 c 1.922,3.321 3.72,5.134 4.692,6.106 Z"  fill="#D67503"/>
	<path d="M 14.39,22.632 c 1.016,1.016 -4.278,-0.679 -7.085,-4.276 c 0.631,-0.877 1.293,-1.738 1.98,-2.57 c 2.075,3.796 4.064,5.805 5.105,6.846 Z"  fill="#D67503"/>
	<path d="M 23.691,22.281 c -0.399,0.426 -1.874,1.903 -2.185,2.193 c -3.625,-2.799 -5.337,-8.136 -4.317,-7.114 c 1.012,1.011 2.921,2.913 6.502,4.921 Z"  fill="#D67503"/>
	<path d="M 11.508,31.605 c -2.933,-2.898 -4.241,-7.168 -3.319,-6.245 c 0.965,0.965 2.761,2.743 6.034,4.648 c -0.911,0.572 -1.82,1.105 -2.715,1.597 Z"  fill="#D67503"/>
</svg>
