<svg xmlns="http://www.w3.org/2000/svg" viewBox="0 0 36 36">
	<path d="M 4,17 h28 v19 h-28 v-19 Z"  fill="#CCD6DD"/>
	
	<path d="M 6,13 h23 v5 h-23 v-5 Z"  fill="#269"/>
	<ellipse cx="14" cy="22" rx="1" ry="3" fill="#269"/>
	<ellipse cx="22" cy="22" rx="1" ry="3" fill="#269"/>
	<rect x="14" y="20" width="8" height="2" fill="#269"/>
	
	<path d="M 1,12 s 2,-8 3,-8 s 3,8 3,8 h-6 Z"  fill="#269"/>
	<path d="M 29,12 s 2,-8 3,-8 s 3,8 3,8 h-6 Z"  fill="#269"/>
	
	<path d="M 1,12 h6 v24 h-4 a 2,2 0 01 -2,-2 v-22 Z"  fill="#AAB8C2"/>
	<path d="M 29,12 h6 v22 a 2,2 0 01 -2,2 h-4 v-24 Z"  fill="#AAB8C2"/>
	<path d="M 14,22 h8 v11 h-8 v-11 Z"  fill="#F2F9FF"/>
	<path d="M 13,22 h10 v4 h-10 v-4 Z"  fill="#F2F9FF"/>
	
	<path d="M 3,17 h2 v2 h-2 v-2 Z"  fill="#66757F"/>
	<path d="M 3,21 h2 v2 h-2 v-2 Z"  fill="#66757F"/>
	<path d="M 9,20 h2 v2 h-2 v-2 Z"  fill="#66757F"/>
	<path d="M 9,24 h2 v2 h-2 v-2 Z"  fill="#66757F"/>
	<path d="M 25,20 h2 v2 h-2 v-2 Z"  fill="#66757F"/>
	<path d="M 25,24 h2 v2 h-2 v-2 Z"  fill="#66757F"/>
	<path d="M 31,17 h2 v2 h-2 v-2 Z"  fill="#66757F"/>
	<path d="M 31,21 h2 v2 h-2 v-2 Z"  fill="#66757F"/>
	
	<path d="M 16,28 a 2,2 0 01 4,0 v5 h-4 v-5 Z"   fill="#66757F"/>
	<path d="M 12,33 h12 v3 h-12 v-3 Z"  fill="#8899A6"/>
	<rect x="0" y="13" width="8" height="2" rx="1"  fill="#CCD6DD"/>
	<rect x="28" y="13" width="8" height="2" rx="1"  fill="#CCD6DD"/>
</svg>
