<svg xmlns="http://www.w3.org/2000/svg" viewBox="0 0 36 36">
	<path d="M 10.478,22.439 s 4.417,0.337 3.534,4.964 s -2.517,7.961 -3.854,7.961 h-2.094 c -0.373,0 -0.279,-2.002 1.478,-2.002 c 0.139,-0.858 0.413,-1.905 0.599,-2.93 c 1.039,-5.712 0.337,-7.993 0.337,-7.993 Z"  fill="#F18F26"/>
	<path d="M 23.52,26.141 s 6.142,-2.313 5.763,1.809 c -0.378,4.123 -2.456,7.281 -3.379,7.281 h-1.856 c -0.534,0 -0.527,-1.985 1.305,-1.985 c 0.106,-0.933 0.322,-1.893 0.355,-3.024 c 0.084,-2.861 -2.188,-4.081 -2.188,-4.081 Z"  fill="#F18F26"/>
	<path d="M 36,8.447 c 0,3.058 -1.143,6.789 -4.379,8.563 c 1.496,3.219 0.616,6.274 0.229,8.797 s 0.438,10.042 -1.03,10.097 c -0.382,0.014 -1.396,0 -2.183,0 c -0.461,0 -0.505,-2.037 1.084,-2.037 c -0.469,-1.179 -1.341,-2.78 -1.868,-4.484 c -0.716,-2.314 -3.302,-3.587 -5.746,-3.163 c -4.108,0.713 -6.038,0.208 -6.038,0.208 s 0.011,0.415 0.011,0.627 c 0,4.143 -0.645,8.863 -2.026,8.849 c -0.272,-0.003 -1.512,0 -2.225,0 c -0.456,0 -0.301,-2.111 1.348,-2.111 c -0.647,-2.484 -1.456,-6.816 -2.698,-11.183 c -0.562,-1.51 -2.235,-5.018 -3.585,-5.072 s -5.4,-0.711 -5.4,-3.411 c 0,-1.956 1.226,-3.618 2.906,-4.765 c 0.316,-1.962 0.954,-4.235 1.594,-4.235 c 0.497,0 1.269,1.375 1.86,2.756 c 0.475,-1.831 1.191,-3.656 1.74,-3.656 c 0.721,0 1.464,2.636 1.794,4.477 c 2.285,1.988 1.072,4.061 2.824,5.243 c 1.769,1.192 7.987,-3.627 15.226,0.29 c 0.164,0.088 0.345,0.119 0.509,0.192 c 2.203,-0.52 3.77,-3.101 3.77,-5.982 c 0,-4.513 -4.913,-5.447 -6.717,-5.447 c -0.553,0 -1,-0.448 -1,-1 s 0.447,-1 1,-1 c 4.859,0 9,2.525 9,7.447 Z"  fill="#FFCC4E"/>
	<circle fill="#292F33" cx="5.994" cy="11.768" r=".9"/>
	
	<path d="M 2.984,12.86 c -0.677,0.423 -0.677,1.777 -1.015,1.777 s -1.015,-0.796 -1.015,-1.777 c -0.001,-0.981 2.862,-0.52 2.03,0 Z"  fill="#E75A70"/>
	<!-- nose source (scaled) : <path d="M 0,0 c 1.229,0.769 -3,1.45 -3,0 c 0,-1.449 1,-2.625 1.5,-2.625 s 0.5,2 1.5,2.625 Z"  ></path>-->
	
	<path d="M 6.578,14.343 c -0.041,0.026 -0.09,0.036 -0.142,0.026 c -0.018,-0.004 -1.548,-0.241 -2.545,0.146 c -0.129,0.05 -0.341,-0.023 -0.413,-0.191 s 0.023,-0.365 0.152,-0.415 c 1.44,-0.569 2.857,-0.234 2.934,-0.218 c 0.139,0.029 0.195,0.19 0.188,0.372 c -0.004,0.114 -0.104,0.235 -0.174,0.28 Z"  fill="#FEE7B8"/>
	<path d="M 6.106,16.682 c -0.048,0.009 -0.097,-0.001 -0.141,-0.031 c -0.015,-0.01 -1.331,-0.83 -2.402,-0.853 c -0.138,-0.003 -0.305,-0.154 -0.305,-0.341 c 0,-0.186 0.165,-0.335 0.304,-0.333 c 1.552,0.024 2.724,0.891 2.789,0.937 c 0.117,0.082 0.104,0.255 0.027,0.424 c -0.049,0.107 -0.189,0.182 -0.272,0.197 Z"  fill="#FEE7B8"/>
	<path d="M 7.854,7.881 c 0.534,-2.198 1.29,-3.324 1.289,-3.322 c 0.901,0.373 0.863,3.836 0.863,3.836 c -0.104,-0.072 -0.297,-0.069 -0.322,-0.189 c -0.105,-0.511 -0.386,-1.179 -0.386,-1.179 s -0.368,0.427 -0.585,0.887 c -0.487,-0.072 -0.859,-0.033 -0.859,-0.033 Z"  fill="#F18F26"/>
	<path d="M 4.399,9.36 c 0.368,-2.442 1.1,-3.814 1.1,-3.814 c 0.985,0.241 1.099,2.527 1.099,2.527 c -0.193,0.084 -0.193,0.076 -0.403,0.19 c -0.038,-0.208 -0.345,-0.81 -0.345,-0.81 s -0.351,0.709 -0.568,1.333 c -0.499,0.307 -0.883,0.574 -0.883,0.574 Z"  fill="#F18F26"/>
	<path d="M 18.45,23.644 c 2.45,-0.528 5.158,-0.096 6.765,2.951 c -0.954,-0.407 -2.04,-0.562 -3.107,-0.377 c -4.108,0.713 -6.038,0.208 -6.038,0.208 s -0.269,-2.212 2.38,-2.782 Z"  fill="#FD9"/>
	<path d="M 14.686,14.109 c 0.702,0.111 1.758,-0.188 3.087,-0.547 c 0.248,0.651 -0.004,2.503 -0.342,2.706 c -0.348,0.209 -2.269,-1.483 -2.745,-2.159 Z"  fill="#F18F26"/>
	<path d="M 21.71,16.798 c -0.602,-0.134 -2.22,-2.506 -2.555,-3.586 c 1.185,-0.281 2.516,-0.52 3.965,-0.537 c 0.097,1.144 -0.787,4.261 -1.41,4.123 Z"  fill="#F18F26"/>
	<path d="M 24.337,12.716 c 1.009,0.079 2.065,0.298 3.151,0.676 c -0.181,0.742 -1.559,2.198 -1.866,2.061 c -0.303,-0.134 -1.243,-2.014 -1.285,-2.737 Z"  fill="#F18F26"/>
	</svg>
