<svg xmlns="http://www.w3.org/2000/svg" viewBox="0 0 36 36">
	
	<g>
		<rect width="4" height="14" rx="2" x="10" y="20" fill="#A4523A"/>
		<rect width="4" height="14" rx="2" x="28" y="20" fill="#A4523A"/>
	</g>
	<rect x="13" y="2" width="3" height="8" rx="1" fill="#A4523A"/>
	<rect x="26" y="2" width="3" height="8" rx="1" fill="#A4523A"/>
	<rect x="16" y="9" width="2" height="3" rx="1" fill="#A4523A"/>
	<rect x="20" y="9" width="2" height="3" rx="1" fill="#A4523A"/>
	<rect x="24" y="9" width="2" height="3" rx="1" fill="#A4523A"/>
	
	<g fill="#C1694F">
		<rect x="15" y="2" width="12" height="8"/>
		<rect x="16" y="11" width="2" height="10"/>
		<rect x="20" y="11" width="2" height="10"/>
		<rect x="24" y="11" width="2" height="10"/>
		<rect width="4" height="11" rx="2" x="5" y="25"/>
		<rect width="4" height="11" rx="2" x="23" y="25"/>
		<rect width="4" height="23.25" rx="2" x="10" y="0"/>
		<rect width="4" height="23.25" rx="2" x="28" y="0"/>
	</g>
	<g>
		
		<rect x="5" y="25" width="4" height="2" fill="#A4523A"/>
		<rect x="23" y="25" width="4" height="2" fill="#A4523A"/>
	</g>
	<g>
		<path fill="#D99E82" d="M 30.7686,20 h-20.428 c -0.223,0 -0.442,0.061 -0.633,0.176 l -5.954,3.041 s 22.725,2.417 24.725,2.417 l 3.029,-2.265 c 0.31,-0.232 0.492,-0.598 0.492,-0.984 v-1.154 c 0,-0.68 -0.55,-1.231 -1.231,-1.231 Z"/>
	</g>
	<g>
		<rect width="26" height="3" rx="1.56" ry="1.5" x="3" y="23" fill="#C1694F"/>
	</g>
</svg>
