<svg xmlns="http://www.w3.org/2000/svg" viewBox="0 0 36 36">
	<g>
		<rect width="4" height="14" rx="2" x="10" y="20" fill="#A4523A"/>
		<rect width="4" height="14" rx="2" x="28" y="20" fill="#A4523A"/>
	</g>
	<g fill="#A4523A">
		<rect x="13" y="2" width="3" height="8" rx="1"/>
		<rect x="26" y="2" width="3" height="8" rx="1"/>
		<rect x="16" y="9" width="2" height="3" rx="1"/>
		<rect x="20" y="9" width="2" height="3" rx="1"/>
		<rect x="24" y="9" width="2" height="3" rx="1"/>
	</g>
	
	<g fill="#C1694F">
		<rect x="15" y="2" width="12" height="8"/>
		<rect x="16" y="11" width="2" height="10"/>
		<rect x="20" y="11" width="2" height="10"/>
		<rect x="24" y="11" width="2" height="10"/>
		<rect width="4" height="23.25" rx="2" x="10" y="0"/>
		<rect width="4" height="23.25" rx="2" x="28" y="0"/>
		
		<rect width="4" height="11" rx="2" x="5" y="25"/>
		<rect width="4" height="11" rx="2" x="23" y="25"/>
	</g>
	<g>
		<rect x="5" y="25" width="4" height="2" fill="#A4523A"/>
		<rect x="23" y="25" width="4" height="2" fill="#A4523A"/>
	</g>
	
	<g>
		<path fill="#D99E82" d="M 30.7686,20 a 1.231,1.231 0 01 1.231,1.231 v1.154 a 1.231,1.231 0 01 -0.492,0.984 l -3.029,2.265 l -24.725,-2.417 l 5.954,-3.041 a 1.231,1.231 0 01 0.633,-0.176 h20.428 Z"/>
		<rect width="26" height="3" rx="1.56" ry="1.5" x="3" y="23" fill="#C1694F"/>
	</g>
</svg>
