<svg xmlns="http://www.w3.org/2000/svg" viewBox="0 0 36 36">
	<defs>
		<clipPath id="clipPath28">
			<path d="M 3,7 c 0,-3.314 2.686,-6 6,-6 s 6,2.686 6,6 v4 c 0,3.314 -2.686,6 -6,6 s -6,-2.686 -6,-6 v-4 ZM 6,11 c 0,1.658 1.344,3 3,3 s 3,-1.342 3,-3 v-4 c 0,-1.657 -1.344,-3 -3,-3 s -3,1.343 -3,3 v4 Z"/>
		</clipPath>
		<clipPath id="clipPath62">
			<path d="M 3,25 c 0,-3.314 2.686,-6 6,-6 s 6,2.686 6,6 v4 c 0,3.314 -2.686,6 -6,6 s -6,-2.686 -6,-6 v-4 ZM 6,29 c 0,1.658 1.344,3 3,3 s 3,-1.342 3,-3 v-4 c 0,-1.657 -1.344,-3 -3,-3 s -3,1.343 -3,3 v4 Z"/>
		</clipPath>
		<clipPath id="clipPath130">
			<path d="M 7,30 c 0,-1.105 0.896,-2 2,-2 s 2,0.895 2,2 v6 h-4 v-6 Z"/>
		</clipPath>
		<clipPath id="clipPath152">
			<path d="M 7,0 h4 v6 c 0,1.105 -0.896,2 -2,2 s -2,-0.895 -2,-2 v-6 Z"/>
		</clipPath>
		<clipPath id="clipPath174">
			<path d="M 21,16 c 0,-3.314 2.686,-6 6,-6 s 6,2.686 6,6 v4 c 0,3.314 -2.686,6 -6,6 s -6,-2.686 -6,-6 v-4 ZM 24,20 c 0,1.658 1.344,3 3,3 s 3,-1.342 3,-3 v-4 c 0,-1.657 -1.344,-3 -3,-3 s -3,1.343 -3,3 v4 Z"/>
		</clipPath>
		<clipPath id="clipPath208">
			<path d="M 30,0 h3 v2 c 0,3.314 -2.686,6 -6,6 s -6,-2.686 -6,-6 v-2 h3 v2 c 0,1.658 1.344,3 3,3 s 3,-1.342 3,-3 v-2 Z"/>
		</clipPath>
		<clipPath id="clipPath238">
			<path d="M 21,34 c 0,-3.314 2.686,-6 6,-6 s 6,2.686 6,6 v2 h-3 v-2 c 0,-1.658 -1.344,-3 -3,-3 s -3,1.342 -3,3 v2 h-3 v-2 Z"/>
		</clipPath>
		<clipPath id="clipPath268">
			<path d="M 25,21 c 0,-1.105 0.896,-2 2,-2 s 2,0.895 2,2 v12 c 0,1.105 -0.896,2 -2,2 s -2,-0.895 -2,-2 v-12 Z"/>
		</clipPath>
		<clipPath id="clipPath290">
			<path d="M 7.125,12 c 0,-1.105 0.896,-2 2,-2 s 2,0.895 2,2 v12 c 0,1.105 -0.896,2 -2,2 s -2,-0.895 -2,-2 v-12 Z"/>
		</clipPath>
		<clipPath id="clipPath312">
			<path d="M 25,3 c 0,-1.105 0.896,-2 2,-2 s 2,0.895 2,2 v12 c 0,1.105 -0.896,2 -2,2 s -2,-0.895 -2,-2 v-12 Z"/>
		</clipPath>
	</defs>
	<g>
		<path d="M 12,11 c 0,1.657 -1.344,3 -3,3 s -3,-1.343 -3,-3 v-4 c 0,-1.657 1.344,-3 3,-3 s 3,1.343 3,3 v4 ZM 9,1 c -3.313,0 -6,2.686 -6,6 v4 c 0,3.313 2.687,6 6,6 c 3.314,0 6,-2.687 6,-6 v-4 c 0,-3.314 -2.686,-6 -6,-6 Z" fill="#c6d5db"/>
	</g>
	<g clip-path="url(#clipPath28)">
		<path d="M 9,18 h-8 v-17 h8 v17 Z" fill="#e1e8ed"/>
		<g>
			<path d="M 13,11.5 c 0,1.933 -1.567,3.5 -3.5,3.5 s -3.5,-1.567 -3.5,-3.5 v-5 c 0,-1.933 1.567,-3.5 3.5,-3.5 s 3.5,1.567 3.5,3.5 v5 Z" fill="#e1e8ed"/>
		</g>
		<g>
			<path d="M 11,11.5 c 0,1.933 -1.344,3.5 -3,3.5 s -3,-1.567 -3,-3.5 v-5 c 0,-1.933 1.344,-3.5 3,-3.5 s 3,1.567 3,3.5 v5 Z" fill="#c6d5db"/>
		</g>
		<path d="M 12,7 h-3 v-5 h3 v5 Z" fill="#c6d5db"/>
		<path d="M 12,7 h-3 v-5 h3 v5 Z" fill="#c6d5db"/>
	</g>
	<g>
		<g>
			<path d="M 12,29 c 0,1.657 -1.344,3 -3,3 s -3,-1.343 -3,-3 v-4 c 0,-1.656 1.344,-3 3,-3 s 3,1.344 3,3 v4 ZM 9,19 c -3.313,0 -6,2.686 -6,6 v4 c 0,3.313 2.687,6 6,6 c 3.314,0 6,-2.687 6,-6 v-4 c 0,-3.314 -2.686,-6 -6,-6 Z" fill="#c6d5db"/>
		</g>
	</g>
	<g clip-path="url(#clipPath62)">
		<path d="M 9,36 h-8 v-17 h8 v17 Z" fill="#e1e8ed"/>
		<g>
			<path d="M 13,29.5 c 0,1.933 -1.567,3.5 -3.5,3.5 s -3.5,-1.567 -3.5,-3.5 v-5 c 0,-1.934 1.567,-3.5 3.5,-3.5 s 3.5,1.566 3.5,3.5 v5 Z" fill="#e1e8ed"/>
		</g>
		<g>
			<path d="M 11,29.5 c 0,1.933 -1.344,3.5 -3,3.5 s -3,-1.567 -3,-3.5 v-5 c 0,-1.934 1.344,-3.5 3,-3.5 s 3,1.566 3,3.5 v5 Z" fill="#c6d5db"/>
		</g>
		<path d="M 12,25 h-3 v-5 h3 v5 Z" fill="#c6d5db"/>
		<path d="M 12,25 h-3 v-5 h3 v5 Z" fill="#c6d5db"/>
	</g>
	<g>
		<g>
			<path d="M 12,11 c 0,1.657 -1.344,3 -3,3 s -3,-1.343 -3,-3 v-4 c 0,-1.657 1.344,-3 3,-3 s 3,1.343 3,3 v4 ZM 9,1 c -3.313,0 -6,2.686 -6,6 v4 c 0,3.313 2.687,6 6,6 c 3.314,0 6,-2.687 6,-6 v-4 c 0,-3.314 -2.686,-6 -6,-6 Z" fill="#c6d5db"/>
		</g>
	</g>
	<g clip-path="url(#clipPath28)">
		<path d="M 9,18 h-8 v-17 h8 v17 Z" fill="#e1e8ed"/>
		<g>
			<path d="M 13,11.5 c 0,1.933 -1.567,3.5 -3.5,3.5 s -3.5,-1.567 -3.5,-3.5 v-5 c 0,-1.933 1.567,-3.5 3.5,-3.5 s 3.5,1.567 3.5,3.5 v5 Z" fill="#e1e8ed"/>
		</g>
		<g>
			<path d="M 11,11.5 c 0,1.933 -1.344,3.5 -3,3.5 s -3,-1.567 -3,-3.5 v-5 c 0,-1.933 1.344,-3.5 3,-3.5 s 3,1.567 3,3.5 v5 Z" fill="#c6d5db"/>
		</g>
		<path d="M 12,7 h-3 v-5 h3 v5 Z" fill="#c6d5db"/>
		<path d="M 12,7 h-3 v-5 h3 v5 Z" fill="#c6d5db"/>
	</g>
	<g>
		<g>
			<path d="M 7,36 v-6 c 0,-1.104 0.896,-2 2,-2 c 1.105,0 2,0.896 2,2 v6 h-4 Z" fill="#c6d5db"/>
		</g>
	</g>
	<g clip-path="url(#clipPath130)">
		<path d="M 5.875,26 h3.125 v19 h-3.125 v-19 Z" fill="#edf1f4"/>
	</g>
	<g>
		<g>
			<path d="M 7,0 h4 v6 c 0,1.104 -0.895,2 -2,2 c -1.104,0 -2,-0.896 -2,-2 v-6 Z" fill="#c6d5db"/>
		</g>
	</g>
	<g clip-path="url(#clipPath152)">
		<path d="M 5.875,10 v-19 h3.125 v19 h-3.125 Z" fill="#edf1f4"/>
	</g>
	<g>
		<g>
			<path d="M 30,20 c 0,1.657 -1.344,3 -3,3 s -3,-1.343 -3,-3 v-4 c 0,-1.657 1.344,-3 3,-3 s 3,1.343 3,3 v4 ZM 27,10 c -3.313,0 -6,2.686 -6,6 v4 c 0,3.314 2.687,6 6,6 c 3.314,0 6,-2.686 6,-6 v-4 c 0,-3.314 -2.686,-6 -6,-6 Z" fill="#c6d5db"/>
		</g>
	</g>
	<g clip-path="url(#clipPath174)">
		<path d="M 27,27 h-8 v-17 h8 v17 Z" fill="#e1e8ed"/>
		<g>
			<path d="M 31,20.5 c 0,1.933 -1.567,3.5 -3.5,3.5 s -3.5,-1.567 -3.5,-3.5 v-5 c 0,-1.933 1.567,-3.5 3.5,-3.5 s 3.5,1.567 3.5,3.5 v5 Z" fill="#e1e8ed"/>
		</g>
		<g>
			<path d="M 29,20.5 c 0,1.933 -1.344,3.5 -3,3.5 s -3,-1.567 -3,-3.5 v-5 c 0,-1.933 1.344,-3.5 3,-3.5 s 3,1.567 3,3.5 v5 Z" fill="#c6d5db"/>
		</g>
		<path d="M 30,16 h-3 v-5 h3 v5 Z" fill="#c6d5db"/>
		<path d="M 30,16 h-3 v-5 h3 v5 Z" fill="#c6d5db"/>
	</g>
	<g clip-path="url(#clipPath196)">
		<g>
			<path d="M 30,0 h3 v2 c 0,3.313 -2.686,6 -6,6 c -3.313,0 -6,-2.687 -6,-6 v-2 h3 v2 c 0,1.657 1.344,3 3,3 s 3,-1.343 3,-3 v-2 Z" fill="#c6d5db"/>
		</g>
	</g>
	<g clip-path="url(#clipPath208)">
		<path d="M 27,9 h-7.042 v-10 h7.042 v10 Z" fill="#e1e8ed"/>
		<g>
			<path d="M 29,2.5 c 0,1.933 -1.344,3.5 -3,3.5 s -3,-1.567 -3,-3.5 v-5 c 0,-1.933 1.344,-3.5 3,-3.5 s 3,1.567 3,3.5 v5 Z" fill="#c6d5db"/>
		</g>
		<g>
			<path d="M 27.5,-6 c 1.933,0 3.5,1.567 3.5,3.5 v5 c 0,1.933 -1.567,3.5 -3.5,3.5 c -0.171,0 -0.335,-0.026 -0.5,-0.05 v-11.9 c 0.165,-0.023 0.329,-0.05 0.5,-0.05 Z" fill="#e1e8ed"/>
		</g>
	</g>
	<g>
		<g>
			<path d="M 30,36 v-2 c 0,-1.657 -1.344,-3 -3,-3 s -3,1.343 -3,3 v2 h-3 v-2 c 0,-3.313 2.687,-6 6,-6 c 3.314,0 6,2.687 6,6 v2 h-3 Z" fill="#c6d5db"/>
		</g>
	</g>
	<g clip-path="url(#clipPath238)">
		<path d="M 27,27 v10 h-7.042 v-10 h7.042 Z" fill="#e1e8ed"/>
		<g>
			<path d="M 29,33.5 v5 c 0,1.934 -1.344,3.5 -3,3.5 s -3,-1.566 -3,-3.5 v-5 c 0,-1.933 1.344,-3.5 3,-3.5 s 3,1.567 3,3.5 Z" fill="#c6d5db"/>
		</g>
		<g>
			<path d="M 27.5,42 c -0.171,0 -0.335,-0.027 -0.5,-0.051 v-11.898 c 0.165,-0.025 0.329,-0.051 0.5,-0.051 c 1.933,0 3.5,1.567 3.5,3.5 v5 c 0,1.934 -1.567,3.5 -3.5,3.5 Z" fill="#e1e8ed"/>
		</g>
	</g>
	<g>
		<g>
			<path d="M 29,33 c 0,1.104 -0.895,2 -2,2 c -1.104,0 -2,-0.896 -2,-2 v-12 c 0,-1.105 0.896,-2 2,-2 c 1.105,0 2,0.895 2,2 v12 Z" fill="#c6d5db"/>
		</g>
	</g>
	<g clip-path="url(#clipPath268)">
		<path d="M 23.875,36 v-19 h3.125 v19 h-3.125 Z" fill="#edf1f4"/>
	</g>
	<g>
		<g>
			<path d="M 11.125,24 c 0,1.104 -0.895,2 -2,2 c -1.104,0 -2,-0.896 -2,-2 v-12 c 0,-1.105 0.896,-2 2,-2 c 1.105,0 2,0.895 2,2 v12 Z" fill="#c6d5db"/>
		</g>
	</g>
	<g clip-path="url(#clipPath290)">
		<path d="M 6,27 v-19 h3.125 v19 h-3.125 Z" fill="#edf1f4"/>
	</g>
	<g>
		<path d="M 29,15 c 0,1.104 -0.895,2 -2,2 c -1.104,0 -2,-0.896 -2,-2 v-12 c 0,-1.105 0.896,-2 2,-2 c 1.105,0 2,0.895 2,2 v12 Z" fill="#c6d5db"/>
	</g>
	<g clip-path="url(#clipPath312)">
		<path d="M 23.875,18 v-19 h3.125 v19 h-3.125 Z" fill="#edf1f4"/>
	</g>
</svg>
