<svg xmlns="http://www.w3.org/2000/svg" viewBox="0 0 36 36">
	why does this use #c6d5db?
	i believe the entire thing should be darkened (note that "Link" uses #8899A6 while "Chains" uses #c6d5db, #e1e8ed, #edf1f4, 2 of which are somewhat nonstandard?)
	<defs>
		<clipPath id="all">
			<rect width="36" height="36"/>
		</clipPath>
		<clipPath id="clipPath28">
			<path d="M -6,-2 a 6,6 0 01 6,-6 a 6,6 0 01 6,6 v4 a 6,6 0 01 -6,6 a 6,6 0 01 -6,-6 v-4 ZM -3,2 a 3,3 0 00 3,3 a 3,3 0 00 3,-3 v-4 a 3,3 0 00 -3,-3 a 3,3 0 00 -3,3 v4 Z"/>
		</clipPath>
		<g id="link1" clip-path="url(#clipPath28)">
			<rect x="-18" y="-18" width="36" height="36" fill="#c6d5db"/>
			<rect width="8" height="17" x="-8" y="-8" fill="#e1e8ed"/>
			<rect width="7" height="12" rx="3.5" x="-3" y="-6" fill="#e1e8ed"/>
			<rect width="6" height="12" rx="3" ry="3.5" x="-4" y="-6" fill="#c6d5db"/>
			<!--<rect width="3" height="5" x="0" y="-7" fill="#c6d5db"/> removed -->
		</g>
		<clipPath id="clipPath290">
			<rect width="4" height="16" rx="2" x="-2" y="-8"/>
		</clipPath>
		<g id="link2" clip-path="url(#clipPath290)">
			<rect x="-18" y="-18" width="36" height="36" fill="#c6d5db"/>
			<rect width="3" height="19" x="-3" y="-10" fill="#edf1f4"/>
		</g>
	</defs>
	
	<g clip-path="url(#all)" class="toolight">
		<use href="#link1" x="9" y="9"/>
		<use href="#link1" x="9" y="27"/>
		<use href="#link1" x="27" y="18"/>
		<use href="#link1" x="27" y="0"/>
		<use href="#link1" x="27" y="36"/>
		
		<use href="#link2" x="9" y="18"/>
		<use href="#link2" x="9" y="0"/>
		<use href="#link2" x="9" y="36"/>
		<use href="#link2" x="27" y="9"/>
		<use href="#link2" x="27" y="27"/>
	</g>
</svg>
