<svg xmlns="http://www.w3.org/2000/svg" viewBox="0 0 36 36">
	(#A4523A is not a standard color)
	<g fill="#A4523A">
		<path d="M 10,22 h4 v10 a 2,2 0 01 -4,0 v-10 z"/>
		<path d="M 28,22 h4 v10 a 2,2 0 01 -4,0 v-10 z"/>
	</g>
	<g fill="#A4523A">
		<path d="M 16,9 h2 v2 l -1,1 l -1,-1 v-2 z"/>
		<path d="M 20,9 h2 v2 l -1,1 l -1,-1 v-2 z"/>
		
		<path d="M 24,9 h2 v2 l -1,1 l -1,-1 v-2 z"/>
		<path d="M 13,2 h2 l 4,4 l -4,4  h-2 v-8 z"/>
		<path d="M 27,2 h2 v8 h-2 l -4,-4 l 4,-4 z"/>
	</g>
	<g fill="#A4523A">
		<path d="M 5,25 h4 v2 l -2,2 l -2,-2 v-2 z"/>
		<path d="M 23,25 h4 v2 l -2,2 l -2,-2 v-2 z"/>
	</g>
	
	<g fill="#C1694F">
		<rect x="16" y="11" width="2" height="10"/>
		<rect x="20" y="11" width="2" height="10"/>
		<rect x="24" y="11" width="2" height="10"/>
		
		<rect x="15" y="2" width="12" height="8"/>
	</g>
	<g fill="#C1694F">
		<path d="M 12,0 a 2,2 0 01 2,2 v20 h-4 v-20 a 2,2 0 01 2,-2 Z"/>
		<path d="M 30,0 a 2,2 0 01 2,2 v20 h-4 v-20 a 2,2 0 01 2,-2 Z"/>
	</g>
	<g fill="#C1694F">
		<path d="M 5,27 h4 v7 a 2,2 0 01 -4,0 v-7 z"/>
		<path d="M 23,27 h4 v7 a 2,2 0 01 -4,0 v-7 z"/>
	</g>
	
	<g>
		<path fill="#D99E82" d="M 30.7686,20 a 1.231,1.231 0 01 1.231,1.231 v1.154 a 1.231,1.231 0 01 -0.492,0.984 l -3.029,2.265 l -24.725,-2.417 l 5.954,-3.041 a 1.231,1.231 0 01 0.633,-0.176 h20.428 Z"/>
		<rect width="26" height="3" rx="1.56" ry="1.5" x="3" y="23" fill="#C1694F"/>
	</g>
</svg>
