<svg xmlns="http://www.w3.org/2000/svg" viewBox="0 0 36 36">
	<rect x="0.042" y="0" width="36" height="36" rx="4"  fill="#77B255"/>
	<path d="M4 32l5 -3l6 2l4 -5l5 2l3 -9l5 -5" stroke-width="4" fill="none" stroke="#FFF" stroke-linecap="round" stroke-linejoin="round"/>
	<path d="M 9.896,14.875 h-4.104 c -0.688,0 -1.227,-0.327 -1.227,-0.985 c 0,-0.661 0.539,-0.99 1.227,-0.99 h2.876 l -4.792,-7.399 c -0.298,-0.449 -0.449,-0.776 -0.449,-1.195 c 0,-0.571 0.57,-0.99 1.049,-0.99 c 0.48,0 0.958,0.21 1.378,0.839 l 5.36,8.058 l 5.362,-8.058 c 0.419,-0.629 0.897,-0.839 1.378,-0.839 c 0.478,0 1.046,0.42 1.046,0.99 c 0,0.419 -0.148,0.746 -0.448,1.195 l -4.792,7.399 h2.875 c 0.689,0 1.229,0.329 1.229,0.99 c 0,0.658 -0.539,0.985 -1.229,0.985 h-4.102 v2.126 h4.102 c 0.689,0 1.229,0.332 1.229,0.99 s -0.539,0.987 -1.229,0.987 h-4.102 v4.611 c 0,0.868 -0.539,1.41 -1.319,1.41 c -0.778,0 -1.317,-0.542 -1.317,-1.41 v-4.611 h-4.105 c -0.688,0 -1.227,-0.329 -1.227,-0.987 s 0.539,-0.99 1.227,-0.99 h4.104 v-2.126 Z"  fill="#FFF"/>
</svg>
