<svg xmlns="http://www.w3.org/2000/svg" viewBox="0 0 36 36">
	todo: is this scaled or just not aligned?
	<g>
		todo: circle cutouts here too
		<path d="M 33.25,23.4824 c 0,1.137 0.761,2.07 1.75,2.237 v2.451 l -34,6.483 v-7.716 c 1.564,-0.294 2.75,-1.662 2.75,-3.312 c 0,-1.651 -1.186,-3.019 -2.75,-3.313 v-3.536 s 30,-8.153 34,-7.191 v11.659 c -0.989,0.167 -1.75,1.1 -1.75,2.238 Z" fill="#ffac33"/>
		<path d="M 11.7915,6.0625 l 2.401,-0.062 l 2.936,1.999 l -5.347,1.386 l 0.01,-3.323 Z" fill="#ffac33"/>
		<g>
			<ellipse rx="1.29093" ry="1.42339" transform="translate(27.5413,24.63265) rotate(39.912)" fill="#f4900c"/>
			<ellipse rx="1.73785" ry="1.91563" transform="translate(17.51395,16.968) rotate(39.920)" fill="#f4900c"/>
			<ellipse rx="2.0625" ry="2.2725" cx="9.3125" cy="20.4819" fill="#f4900c"/>
			<ellipse rx="2.1875" ry="2.411" cx="31.4375" cy="15.6196" fill="#f4900c"/>
			<ellipse rx="3.291" ry="3.6275" transform="translate(17.0842,26.1271) rotate(36.791)" fill="#f4900c"/>
		</g>
	</g>
	<g>
		<path d="M 15.5854,2.2422 c 3.241,0 14.653,0.877 19.514,7.36 c -12.057,1.94 -20.932,4.315 -34.099,7.225 l 8.754,-8.754 a 2,1.167 0 00 1.246,0.26 a 2,1.167 0 00 2,-1.167 a 2,1.167 0 00 -1.258,-1.081 l 3.843,-3.843 Z" fill="#ffd983"/>
		<g>
			<ellipse rx="2" ry="1.167" cx="18" cy="5.1665" fill="#ffac33"/>
			<ellipse rx="3.036" ry="1.7705" cx="12.0358" cy="11.5625" fill="#ffac33"/>
			<ellipse rx="3.396" ry="1.981" cx="25.604" cy="8.3521" fill="#ffac33"/>
		</g>
	</g>
</svg>
