<svg xmlns="http://www.w3.org/2000/svg" viewBox="0 0 36 36">
	<!-- these 2 layers were duplicated before -->
	<rect x="3" y="1" width="4" height="35" rx="2"  fill="#8899A6"/>
	<path d="M 3,3 a 2,2 0 01 4,0 h-1.586 a 1.414,1.414 0 00 -1.414,1.414 v29.586 a 0.5,0.5 0 01 -1,0 v-31 Z"  fill="#AAB8C2"/>
	<!-- flag bg -->
	<path d="M 32.396,3.082 a 1,1 0 01 0.604,0.918 v19 a 1,1 0 01 -1.396,0.918 c -1.411,-0.609 -2.924,-0.912 -4.604,-0.944 l -0.916,-0.41 l -5.438,0.708 l -0.646,0.645 l -0.29,0.061 c -2.161,0.466 -4.389,0.926 -6.633,1.022 h-0.077 l -1,-2 h-6 v-19 l 6,1 l 1,-0.996 c 2.059,-0.088 4.12,-0.513 6.289,-0.982 c 0.235,-0.051 0.474,-0.099 0.711,-0.15 l 1,0.128 l 4.625,-0.646 l 1.375,-0.38 c 1.959,0.032 3.732,0.389 5.396,1.108 Z"  fill="#31373D"/>
	<!-- flag squares -->
	<path d="M 13,4.004 v6.996 c -3.708,0 -7,-1 -7,-1 v-6 a 1,1 0 01 1.396,-0.918 c 1.491,0.644 3.09,0.957 4.887,0.957 c 0.239,0 0.478,-0.025 0.717,-0.035 Z"  fill="#E1E8ED"/>
	<path d="M 20,10 v7 s -4,1 -7,1 v-7 c 3.25,0 7,-1 7,-1 Z"  fill="#E1E8ED"/>
	<path d="M 27,9 c -4.833,0 -7,1 -7,1 v-7.128 c 2.196,-0.469 4.45,-0.911 6.717,-0.911 c 0.097,0 0.187,0.011 0.283,0.013 v7.026 Z"  fill="#E1E8ED"/>
	<path d="M 6.604,23.918 a 1,1 0 01 -0.604,-0.918 v-6 s 2.833,1 7,1 v7 h-1.576 c -1.73,-0.089 -3.32,-0.434 -4.82,-1.082 Z"  fill="#E1E8ED"/>
	
	<path d="M 20,17 s 2.5,-1 7,-1 v6.974 c -0.096,-0.002 -0.186,-0.013 -0.283,-0.013 c -2.206,0 -4.404,0.456 -6.717,0.955 v-6.916 Z"  fill="#E1E8ED"/>
	<path d="M 27,16 v-7 c 2.769,0 4.853,0.527 6,0.908 v7.046 c -1.18,-0.394 -3.324,-0.954 -6,-0.954 Z"  fill="#E1E8ED"/>
</svg>
