<svg xmlns="http://www.w3.org/2000/svg" viewBox="0 0 36 36">
	similar to Black Flag
	<g>
		these 2 layers were duplicated before
		<path d="M 5,36 a 2,2 0 01 -2,-2 l 0.5,-0.5 V 2.5 L 6,2 l 1,1 v31 a 2,2 0 01 -2,2 Z" fill="#8899a6"/>
		<path d="M 5,1 a 2,2 0 01 2,2 h-1.586 a 1.414,1.414 0 00 -1.414,1.414 v29.586 a 0.5,0.5 0 01 -0.5,0.5 a 0.5,0.5 0 01 -0.5,-0.5 v-31 a 2,2 0 01 2,-2 Z" fill="#aab8c2"/>
	</g>
	(I improved the cutouts)
	<g>
		flag bg
		<path d="M 33,4 v5.908 l -3,3.092 l 3,3.954 v6.046 a 1,1 0 01 -1.397,0.918 c -1.411,-0.61 -2.924,-0.912 -4.603,-0.944 l -4,-2.974 l -3,3.916 c -0.098,0.021 -0.193,0.04 -0.291,0.062 c -2.161,0.466 -4.389,0.926 -6.632,1.022 h-0.077 l -7,-8 v-7 l 7,-5.996 c 2.059,-0.088 4.12,-0.513 6.289,-0.982 c 0.235,-0.05 0.474,-0.099 0.711,-0.15 l 3.5,2.128 l 3.5,-3.026 c 1.959,0.032 3.731,0.389 5.396,1.108 a 1,1 0 01 0.604,0.918 Z" fill="#31373D"/>
		<g fill="#e1e8ed">
			flag squares
			<path d="M 13,11 c -3.708,0 -7,-1 -7,-1 v-6 a 1,1 0 01 1,-1 a 1,1 0 01 0.396,0.082 c 1.492,0.644 3.09,0.957 4.887,0.957 c 0.239,0 0.478,-0.025 0.717,-0.035 v6.996 Z"/>
			<path d="M 20,10 v7 s -4,1 -7,1 v-7 c 3.25,0 7,-1 7,-1 Z"/>
			<path d="M 27,9 c -4.833,0 -7,1 -7,1 v-7.128 c 2.196,-0.469 4.449,-0.911 6.717,-0.911 c 0.097,0 0.187,0.011 0.283,0.013 v7.026 Z"/>
			<path d="M 6,23 v-6 s 2.834,1 7,1 v7 h-1.576 c -1.73,-0.089 -3.32,-0.434 -4.82,-1.082 a 1,1 0 01 -0.604,-0.918 Z"/>
			<path d="M 20,17 s 2.5,-1 7,-1 v6.974 c -0.096,-0.002 -0.186,-0.013 -0.283,-0.013 c -2.206,0 -4.404,0.456 -6.717,0.955 v-6.916 Z"/>
			<path d="M 27,16 v-7 c 2.769,0 4.853,0.527 6,0.908 v7.046 c -1.18,-0.394 -3.324,-0.954 -6,-0.954 Z"/>
		</g>
	</g>
	
</svg>
