<svg xmlns="http://www.w3.org/2000/svg" viewBox="0 0 36 36">
	<g>
		this layer has a hole in it, because presumably it was created by merging 5 separate petal layers. these might be possible to decode..
		<path fill="#F4ABBA" d="M 18,20.3369 c -0.162,-0.292 -0.353,-0.538 -0.588,-0.709 c -0.234,-0.171 -0.528,-0.276 -0.856,-0.341 c 0.228,-0.244 0.403,-0.502 0.493,-0.778 s 0.099,-0.588 0.059,-0.919 c 0.302,0.142 0.602,0.228 0.892,0.228 s 0.59,-0.086 0.894,-0.228 c -0.041,0.331 -0.032,0.643 0.058,0.919 s 0.265,0.534 0.492,0.778 c -0.327,0.065 -0.621,0.17 -0.855,0.341 c -0.235,0.171 -0.427,0.417 -0.589,0.709 ZM 31.298,20.8069 c 4.197,-1.364 5.027,-3.182 4.191,-6.416 c -0.952,0.308 -2.105,-0.001 -2.272,-0.518 c -0.168,-0.513 0.581,-1.443 1.533,-1.753 c -1.223,-3.107 -2.964,-4.089 -7.161,-2.727 c -1.607,0.522 -3.238,1.492 -4.655,2.634 c 0.648,-1.7 1.066,-3.552 1.066,-5.241 c 0,-4.412 -1.473,-5.765 -4.807,-5.968 c 0,1 -0.652,2 -1.193,2 s -1.194,-1 -1.194,-2 c -3.334,0.203 -4.806,1.556 -4.806,5.968 c 0,1.689 0.417,3.541 1.066,5.241 c -1.416,-1.142 -3.049,-2.111 -4.655,-2.633 c -4.197,-1.364 -5.938,-0.381 -7.162,2.727 c 0.951,0.31 1.701,1.238 1.534,1.753 s -1.32,0.826 -2.271,0.518 c -0.837,3.233 -0.005,5.051 4.19,6.415 c 1.607,0.521 3.497,0.697 5.314,0.605 c -1.524,0.994 -2.95,2.247 -3.943,3.613 c -2.594,3.571 -2.197,5.531 0.381,7.655 c 0.588,-0.809 1.703,-1.236 2.142,-0.917 c 0.437,0.317 0.378,1.511 -0.21,2.32 c 2.816,1.795 4.802,1.566 7.396,-2.003 c 0.993,-1.366 1.743,-3.111 2.218,-4.867 c 0.475,1.757 1.226,3.501 2.218,4.867 c 2.594,3.57 4.58,3.798 7.397,2.003 c -0.587,-0.809 -0.649,-2.002 -0.21,-2.321 c 0.437,-0.318 1.553,0.107 2.142,0.917 c 2.577,-2.123 2.973,-4.083 0.381,-7.654 c -0.993,-1.366 -2.42,-2.619 -3.944,-3.613 c 1.817,0.092 3.707,-0.084 5.314,-0.605 Z"/>
	</g>
	<g transform="translate(17.771,18.9033) rotate(12.53)">
		<g stroke="#FFFFFF" fill="none" stroke-width="2">
			<!--<path d="M -2,0 h-6"/>
			<path d="M 1,0 h6"/>
			<path d="M -0.707,-0.707 l -4.243,-4.243"/>
			<path d="M 1.757,1.757 l 4.243,4.243"/>
			<path d="M 0,-2 v-6"/>
			<path d="M 0,1 v6"/>
			<path d="M 0.707,-0.707 l 4.243,-4.243"/>
			<path d="M -0.707,0.707 l -4.243,4.243"/>-->
			<path d="M 0,0 l 7,7"/>
			<path d="M 0,0 l -5.657,-5.657"/>
			<path d="M 0,0 l 0,8"/>
			<path d="M 0,0 l 0,-10"/>
			<path d="M 0,0 l -5,5"/>
			<path d="M 0,0 l 5.657,-5.657"/>
			<path d="M 0,0 l 8,0"/>
			<path d="M 0,0 l -9,0"/>
		</g>
		<g fill="#EA596E">
			<circle r="2" transform="translate(7,7) rotate(45)"/>
			<circle r="2" transform="translate(-5.657,-5.657) rotate(45)"/>
			<circle r="2" transform="translate(0,8)"/>
			<circle r="2" transform="translate(0,-10)"/>
			<circle r="2" transform="translate(-5,5) rotate(45)"/>
			<circle r="2" transform="translate(5.657,-5.657) rotate(45)"/>
			<circle r="2" transform="translate(8,0)"/>
			<circle r="2" transform="translate(-9,0)"/>
		</g>
	</g>
	<circle r="4" cx="18" cy="18.8184" fill="#FFCC4D"/>
</svg>
