<svg xmlns="http://www.w3.org/2000/svg" viewBox="0 0 36 36">
	<path d="M 27.819,33.653 c 0.749,0.405 1.181,0.862 1.181,1.347 c 0,0.351 -0.233,0.687 -0.64,1 h-20.721 c -0.406,-0.313 -0.639,-0.649 -0.639,-1 c 0,-0.485 0.432,-0.942 1.181,-1.347 c -0.641,-0.656 -1.181,-1.581 -1.181,-2.852 c 0,-3.149 3.645,-6.753 5,-9.801 c 1.333,-3 2.104,-5.875 0.083,-6.688 c -0.063,-0.025 -0.113,-0.049 -0.169,-0.073 c -0.579,-0.218 -0.914,-0.47 -0.914,-0.739 c 0,-0.46 0.97,-0.872 2.494,-1.147 c -1.524,-1.284 -2.494,-3.204 -2.494,-5.353 c 0,-3.866 3.134,-7 7,-7 s 7,3.134 7,7 c 0,2.149 -0.97,4.069 -2.494,5.353 c 1.524,0.275 2.494,0.687 2.494,1.147 c 0,0.269 -0.335,0.521 -0.913,0.739 l -0.17,0.073 c -2.021,0.813 -1.25,3.688 0.083,6.688 c 1.355,3.048 5,6.652 5,9.801 c 0,1.271 -0.54,2.196 -1.181,2.852 Z"  fill="#31373D"/>
	
	<path d="M 14,4 s 1,-2 4,-2 s 4,2 4,2" stroke-width="1.5" stroke-linecap="round" stroke-linejoin="round" fill="none" stroke="#66757F"/>
	<path d="M 14,13.5 s 1,-0.5 4,-0.5 s 4,0.5 4,0.5" stroke-width="1" stroke-linecap="round" stroke-linejoin="round" fill="none" stroke="#66757F"/>
	<path d="M 10,34 s 5,-0.5 8,-0.5 s 8,0.5 8,0.5" stroke-width="1" stroke-linecap="round" stroke-linejoin="round" fill="none" stroke="#66757F"/>
	
</svg>
