<svg xmlns="http://www.w3.org/2000/svg" viewBox="0 0 36 36">
	<g fill="#e1e8ed" transform="translate(18 6) scale(1.0714)" class="toolight"> 1.0714.. = 15/14
		<circle cy="9" r="9"/>
		<circle cx="-8" cy="24.4672" r="2"/>
		<circle cx="-4" cy="24.4672" r="2"/>
		<circle cx="0" cy="24.4672" r="2"/>
		<circle cx="4" cy="24.4672" r="2"/>
		<circle cx="8" cy="24.4672" r="2"/>
		<path d="M 9,9 c 0,5 1,15.4672 1,15.4672 h-20 s 1,-10.4672 1,-15.4672 h18 Z" fill="#E1E8ED"/>
	</g>
	<g>
		<path d="M 20,3 c 0,2.209 -1.448,6 -2,6 s -2,-3.791 -2,-6 s 1.448,-3 2,-3 s 2,0.791 2,3 Z" fill="#dd2e44"/>
	</g>
	<g transform="translate(18 36) scale(1.1825 1)"> idk scale
		<path d="M 0,0 c -0.552,0 -2,-0.388 -2,-3 s 1.448,-8 2,-8 s 2,5.388 2,8 s -1.448,3 -2,3 Z" fill="#dd2e44"/>
	</g>
	<g>
		<path d="M 25,22.5 c 0,1.5 -4.791,4.5 -7,4.5 s -7,-3 -7,-4.5 h14 Z" fill="#f4900c"/>
		<path d="M 25,22.5 c 0,1.5 -14,1.5 -14,0 s 4.791,-4.5 7,-4.5 s 7,3 7,4.5 Z" fill="#ffac33"/>
	</g>
	<g>
		<circle r="1.5" cx="11.5" cy="18.5" fill="#292f33"/>
		<circle r="1.5" cx="24.5" cy="18.5" fill="#292f33"/>
	</g>
</svg>
