<svg xmlns="http://www.w3.org/2000/svg" viewBox="0 0 36 36">
	<ellipse cx="18" cy="32.2145" rx="2.143" ry="2.1435"  fill="#E1E8ED"/>
	<path d="M 27.643,15.643 c 0,5.357 1.071,16.572 1.073,16.572 a 2.143,2.143 0 01 -4.286,0 a 2.1435,2.1435 0 01 -4.287,0 h-4.286 a 2.1425,2.1425 0 01 -4.285,0 a 2.143,2.143 0 01 -4.286,0 s 1.071,-11.215 1.071,-16.572 a 9.643,9.643 0 01 19.286,0 Z" fill="#E1E8ED"/>
	<path d="M 20,3 c 0,2.209 -1.447,6 -2,6 c -0.552,0 -2,-3.791 -2,-6 s 1.448,-3 2,-3 c 0.553,0 2,0.791 2,3 Z"  fill="#DD2E44"/>
	<path d="M 15.635,33 c 0,-2.612 1.711,-8 2.365,-8 c 0.653,0 2.365,5.388 2.365,8 s -1.713,3 -2.365,3 c -0.654,0 -2.365,-0.388 -2.365,-3 Z"  fill="#DD2E44"/>
	<path d="M 25,22.5 c 0,1.5 -4.791,4.5 -7,4.5 s -7,-3 -7,-4.5 s 4.791,-4.5 7,-4.5 s 7,3 7,4.5 Z" fill="#F4900C"/>
	<path d="M 25,22.5 c 0,1.5 -14,1.5 -14,0 s 4.791,-4.5 7,-4.5 s 7,3 7,4.5 Z"  fill="#FFAC33"/>
	<circle fill="#292F33" cx="11.5" cy="18.5" r="1.5"/>
	<circle fill="#292F33" cx="24.5" cy="18.5" r="1.5"/>
</svg>
