<svg xmlns="http://www.w3.org/2000/svg" viewBox="0 0 36 36">
	<path d="M 20.768,34.61 a 3.9145,3.9145 0,01 -5.536,0 l -13.842,-13.842 a 3.9145,3.9145 0,01 0,-5.536 l 13.842,-13.842 a 3.9145,3.9145 0,01 5.536,0 l 13.842,13.842 a 3.9145,3.9145 0,01 0,5.536 l -13.842,13.842 Z"  fill="#FFCC4D"/>
	
	should these lines really be pure black?
	<path d="M 19.49,32.907 a 2.107,2.107 0 01 -2.98,0 l -13.4165,-13.4165 a 2.107,2.107 0 01 0,-2.98 l 13.4165,-13.4165 a 2.107,2.107 0 01 2.98,0 l 13.4165,13.4165 a 2.107,2.107 0 01 0,2.98 l -13.4165,13.4165 ZM 18.745,30.67 l 11.9255,-11.9255 a 1.0535,1.0535 0 00 0,-1.49 l -11.9255,-11.9255 a 1.0535,1.0535 0 00 -1.49,0 l -11.9255,11.9255 a 1.0535,1.0535 0 00 0,1.49 l 11.9255,11.9255 a 1.0535,1.0535 0 00 1.49,0 Z" fill="#000"/>
	
	<g>
		<path d="M24 24l-2 -9l-2 9M16 24l-2.111 -6l-2 6M26 18l-4 -4l-4 4l-4 -1l-4 3" fill="none" stroke="#000" stroke-width="2" stroke-linecap="round" stroke-linejoin="round"/>
		<circle r="2" cx="14" cy="15" fill="#000"/>
		<circle r="2" cx="22" cy="12" fill="#000"/>
	</g>
</svg>
