<svg xmlns="http://www.w3.org/2000/svg" viewBox="0 0 36 36">
	<path d="M 24.625,36 h-10.928 c -2.754,0 -2.754,-4.132 1.378,-4.132 h3.634 c 2.755,0 5.916,4.132 5.916,4.132 Z" fill="#AD743D"/>
	<path d="M 23.0117,35.0078 c 1.653,-0.338 4.956,-1.516 6.815,-9.035 c 0.648,-2.613 1.373,-6.272 -0.827,-11.216 c -1.875,-4.218 -1.084,-5.128 0.737,-3.766 c 1.58,1.184 1.948,2.708 2.158,4.928 c 0.154,-0.462 0.377,-1.046 0.264,-2.153 c 3.65,2.056 3.65,6.749 2.25,11.167 c 0.385,-0.386 0.828,-1.301 1.023,-2.159 c 1.286,5.79 -2.574,12.526 -9.504,13.139 c -3.98,0.434 -2.916,-0.905 -2.916,-0.905 Z" fill="#AD743D"/>
	<clipPath id="body1">
		<path d="M 10.4668,2.8198 c 0.136,-1.49 1.528,-2.582 2.16,-2.528 c 0.631,0.054 1.56,1.531 1.116,2.84 c 2.593,1.629 3.677,3.95 3.811,5.328 c 0.118,1.185 2.34,1.401 5.329,3.037 c 7.535,4.123 8.35,12.856 5.506,19.83 c -0.923,2.263 -2.821,4.673 -4.602,4.673 c -1.777,0 -1.836,-0.156 -3.443,-0.156 c -4.094,-4.094 -7.594,-8.781 -8.251,-15.192 c -0.405,-3.944 -3.296,-5.599 -4.4,-5.779 c -6.229,-1.018 -6.423,-2.479 -6.571,-3.656 c -0.147,-1.178 4.651,-6.998 9.345,-8.397 Z"/>
	</clipPath>
	<g clip-path="url(#body1)">
		<rect width="36" height="36" fill="#AD743D"/>
		<path d="M 2.1836,13.9668 c 0.629,-5.908 3.746,-8.413 6.202,-8.232 c 1.494,0.11 2.136,1.647 2.258,2.725 c 5.206,0.771 3.939,6.729 0.681,6.819 c 1.377,1.378 10.139,6.951 8.761,13.836 c -1.377,6.885 -6.886,6.885 -9.639,4.132 c -2.754,-2.756 -8.263,-19.28 -8.263,-19.28 Z" fill="#D99E82"/>
	</g>
	<path d="M 9.0693,9.4595 a 1.377,1.376 0 01 -1.377,1.376 a 1.377,1.376 0 01 -1.377,-1.376 a 1.377,1.377 0 01 1.377,-1.377 a 1.377,1.377 0 01 1.377,1.377 Z" fill="#292F33"/>
	
	<path d="M 13.2344,19.6758 s 1.242,1.246 -1.243,2.488 s -6.212,1.242 -7.454,-1.242 c -1.242,-2.489 1.699,-5.306 2.486,-3.734 c 1.241,2.488 4.968,1.245 6.211,2.488 Z" fill="#AD743D"/>
	<path d="M 6.2603,20.1465 c 0.304,1.49 -0.383,4.295 -1.874,4.6 c -1.489,0.303 -3.22,-2.007 -3.523,-3.496 a 2.7543,2.7544 0 01 5.397,-1.104 Z" fill="#662113"/>
	<path d="M 21.2539,13.5645 c -0.921,-0.756 -0.818,-2.216 1.04,-1.039 c 6.985,4.424 6.648,12.889 6.05,14.311 c -0.858,2.031 -2.006,1.242 -1.688,-0.902 c 0.756,-5.074 -1.337,-9.029 -5.402,-12.37 Z" fill="#662113"/>
	<path d="M 13.9072,21.375 s 1.634,1.058 -0.773,2.979 c -2.406,1.92 -6.446,2.783 -8.368,0.377 c -1.921,-2.406 0.617,-6.138 1.832,-4.615 c 1.921,2.407 5.674,0.198 7.309,1.259 Z" fill="#AD743D"/>
	
	<!--<path d="M 16.5352,28.6162 c 0.371,-3.555 2.87,-6.21 5.586,-5.931 c 2.715,0.284 4.613,3.398 4.244,6.952 c -0.37,3.559 -2.871,6.213 -5.584,5.934 c -2.716,-0.283 -4.615,-3.396 -4.246,-6.955 Z" fill="#AD743D"/>-->
	
</svg>
