<svg xmlns="http://www.w3.org/2000/svg" viewBox="0 0 36 36">
	<path d="M 2.38,33.16 c -0.512,-0.324 1.13,-3.04 1.453,-3.577 l 16.206,-27.803 c 0.933,-1.549 1.937,-1.551 2.847,-0.974 s 1.336,1.485 0.334,2.99 l -18.137,26.454 c -0.347,0.521 -2.191,3.234 -2.703,2.91 Z"  fill="#C1694F"/>
	<path d="M 5.584,35.198 c -0.414,-0.443 1.885,-2.593 2.333,-3.031 l 22.649,-22.9 c 1.293,-1.265 2.265,-1.014 3,-0.227 c 0.736,0.787 0.92,1.773 -0.429,2.978 l -24.595,21.312 c -0.468,0.417 -2.545,2.311 -2.958,1.868 Z"  fill="#C1694F"/>
	<path d="M 22.885,0.805 c 0.91,0.577 1.337,1.485 0.335,2.99 l -3.636,5.304 c -0.977,0.188 -2.566,-0.641 -2.901,-1.562 l 3.356,-5.758 c 0.933,-1.549 1.936,-1.551 2.846,-0.974 Z"  fill="#662113"/>
	<path d="M 33.566,9.04 c 0.736,0.787 0.92,1.773 -0.428,2.978 l -4.772,4.135 c -0.878,-0.076 -2.319,-1.329 -2.376,-2.259 l 4.576,-4.627 c 1.293,-1.264 2.264,-1.014 3,-0.227 Z"  fill="#662113"/>
</svg>
