<svg xmlns="http://www.w3.org/2000/svg" viewBox="0 0 36 36">
	<path d="M 22.0879 32.8301  c 0,1.997 -1.619,2.712 -3.616,2.712 s -3.616,-0.715 -3.616,-2.712 l 0.904,-8.136 c 0,-1.996 0.715,-1.807 2.712,-1.807 s 2.712,-0.189 2.712,1.807 l 0.904,8.136 Z" fill="#662113"/>
	<!-- i think these are mostly scaled versions of one source but not sure what -->
	<path d="M 30.5898 27.6748  c 2.645,2.266 1.385,3.577 -2.242,3.314 c -3.231,-0.232 -6.254,-0.965 -9.876,-0.965 s -6.645,0.733 -9.877,0.965 c -3.626,0.263 -4.885,-1.048 -2.241,-3.314 c 6.294,-5.392 8.842,-13.112 12.118,-13.112 c 3.275,0 5.824,7.72 12.118,13.112 Z" fill="#5C913B"/>
	<path d="M 28.5459 25.5381  c 3.843,3.524 -5.04,4.315 -10.074,0 c -5.036,4.315 -13.917,3.524 -10.073,0 c 4.836,-4.435 7.556,-10.787 10.073,-10.787 c 2.519,0 5.237,6.352 10.074,10.787 Z" fill="#3E721D"/>
	<path d="M 28.5459 21.9453  c 3.843,3.292 -5.04,4.031 -10.074,0 c -5.036,4.031 -13.917,3.292 -10.073,0 c 4.836,-4.144 7.556,-10.077 10.073,-10.077 c 2.519,0 5.237,5.933 10.074,10.077 Z" fill="#5C913B"/>
	<path d="M 26.3359 19.0029  c 3.001,2.57 -3.934,3.146 -7.864,0 c -3.932,3.146 -10.865,2.57 -7.865,0 c 3.776,-3.235 5.899,-7.868 7.865,-7.868 c 1.967,0 4.089,4.633 7.864,7.868 Z" fill="#3E721D"/>
	<path d="M 26.3359 16.311  c 3.001,2.571 -3.934,3.147 -7.864,0 c -3.932,3.147 -10.865,2.571 -7.865,0 c 3.776,-3.235 5.899,-7.867 7.865,-7.867 c 1.967,0 4.089,4.632 7.864,7.867 Z" fill="#5C913B"/>
	<path d="M 24.8184 13.9204  c 2.423,2.075 -3.174,2.54 -6.347,0 c -3.173,2.54 -8.769,2.075 -6.347,0 c 3.048,-2.61 4.761,-6.349 6.347,-6.349 c 1.587,0 3.3,3.739 6.347,6.349 Z" fill="#3E721D"/>
	<path d="M 24.8184 11.8940  c 2.423,2.075 -3.174,2.54 -6.347,0 c -3.173,2.54 -8.769,2.075 -6.347,0 c 3.048,-2.61 4.761,-6.349 6.347,-6.349 c 1.587,0 3.3,3.739 6.347,6.349 Z" fill="#5C913B"/>
	<path d="M 23.3008 8.9111  c 1.844,1.579 -2.415,1.933 -4.829,0 c -2.415,1.933 -6.672,1.579 -4.83,0 c 2.319,-1.986 3.623,-4.831 4.83,-4.831 c 1.208,0 2.512,2.845 4.829,4.831 Z" fill="#3E721D"/>
	<path d="M 23.3008 7.8315  c 1.844,1.579 -2.415,1.933 -4.829,0 c -2.415,1.933 -6.672,1.579 -4.83,0 c 2.319,-1.986 3.623,-4.832 4.83,-4.832 c 1.208,0 2.512,2.846 4.829,4.832 Z" fill="#5C913B"/>
	
	<circle cx="16.5" cy="12.042" r="1.5" fill="#FFCC4D"/>
	<circle cx="20" cy="25" r="2" fill="#FFCC4D"/>
	<circle cx="22.5" cy="15.5" r="2.5" fill="#DD2E44"/>
	<circle cx="10" cy="26" r="2" fill="#DD2E44"/>
	<circle cx="14" cy="19" r="2" fill="#A6D388"/>
	<circle cx="26" cy="23" r="2" fill="#A6D388"/>
	
	<path d="M 19.3789 1.6787  c 0.143,0.275 0.512,0.549 0.817,0.609 l 1.379,0.269 c 0.305,0.059 0.377,0.29 0.159,0.512 l -0.983,1.005 c -0.217,0.222 -0.365,0.656 -0.326,0.965 l 0.17,1.394 c 0.038,0.308 -0.159,0.448 -0.439,0.31 l -1.256,-0.625 c -0.28,-0.138 -0.739,-0.144 -1.021,-0.012 l -1.273,0.594 c -0.283,0.13 -0.476,-0.014 -0.431,-0.322 l 0.205,-1.39 c 0.046,-0.307 -0.09,-0.745 -0.302,-0.973 l -0.958,-1.028 c -0.212,-0.227 -0.135,-0.457 0.172,-0.509 l 1.385,-0.234 c 0.307,-0.051 0.681,-0.316 0.832,-0.588 l 0.682,-1.229 c 0.151,-0.272 0.393,-0.269 0.537,0.006 l 0.651,1.246 Z" fill="#FFAC33"/>
</svg>
