<svg xmlns="http://www.w3.org/2000/svg" viewBox="0 0 36 36">
	<g>
		<path d="M 12,21 l -4.5,4.5 l 4.5,4.5 h13 l 4.5,-4.5 l -4.5,-4.5 h-13 z" fill="#E1E8ED"/>
		<path d="M 2,21 s -2,0 -2,2 v5 c 0,2 2,2 2,2 h10 v-9 h-10 Z" fill="#D99E82"/>
		<path d="M 31,21 s 2,0 2,2 v5 c 0,2 -2,2 -2,2 h-6 v-9 h6 Z" fill="#66757F"/>	
	</g>
	
	<path d="M29.79 6c0 2 -2 3 -4 2s-2 -7 4 -7s7 8 2 11c-4.629 2.781 -4 7 -4 7" stroke-width="2" stroke="#CCD6DD" stroke-linecap="round" fill="none"/><!-- there's one control point i wasn't able to figure out, and also the original path thins at one point (i believe this is a mistake?) -->
	<!--<path d="M 27.79,20 c -0.488,0 -0.916,-0.358 -0.988,-0.855 c -0.03,-0.2 -0.655,-4.925 4.474,-8.002 c 2.498,-1.499 3.064,-4.246 2.533,-6.164 c -0.248,-0.896 -1.136,-2.979 -4.018,-2.979 c -3.142,0 -3.916,1.845 -4.104,2.638 c -0.282,1.197 0.138,2.261 0.551,2.467 c 0.717,0.359 1.45,0.383 1.959,0.068 c 0.389,-0.24 0.594,-0.646 0.594,-1.173 c 0,-0.552 0.447,-1 1,-1 s 1,0.448 1,1 c 0,1.221 -0.563,2.269 -1.542,2.874 c -1.106,0.683 -2.566,0.689 -3.905,0.021 c -1.385,-0.693 -2.075,-2.721 -1.603,-4.717 c 0.617,-2.616 2.879,-4.178 6.05,-4.178 c 2.908,0 5.186,1.703 5.945,4.445 c 0.889,3.208 -0.522,6.667 -3.43,8.412 c -4,2.4 -3.531,5.963 -3.526,5.998 c 0.08,0.547 -0.299,1.055 -0.844,1.134 c -0.049,0.008 -0.098,0.011 -0.146,0.011 Z" fill="#ccd6dd"/>-->
</svg>
