<svg xmlns="http://www.w3.org/2000/svg" viewBox="0 0 36 36">
	<!-- proud of this one -->
	
	<!-- base -->
	<path d="M 33,33 a 2,2 0 01 -2,2 h-26 a 2,2 0 01 -2,-2 l 1,-12 h28 l 1,12 Z"  fill="#DD2E44"/>
	
	<!-- door flaps (these are off center...) -->
	<path d="M 13,35 c -0.792,-1.875 -1.75,-3.291 -3.417,-4.666 c 1.75,-1.459 4.542,-5.5 5.25,-8.292 s 2.75,8.125 2.042,10.625 s -3.875,2.333 -3.875,2.333 Z"  fill="#EA596E"/>
	<path d="M 23.303,35 s -3.166,0.167 -3.874,-2.333 c -0.71,-2.5 1.333,-13.417 2.04,-10.625 c 0.709,2.792 3.5,6.833 5.25,8.292 c -1.666,1.375 -2.625,2.791 -3.416,4.666 Z"  fill="#EA596E"/>
	
	<!-- shadow -->
	<path d="M 32,21 l 0.272,3.263 A 2.5,2.5 0 01 30.5,25 a 2.5,2.5 0 01 -2.5,-2.5 v 0.5 a 2,2 0 01 -4,0 a 2,2 0 01 -4,0 h -4 a 2,2 0 01 -4,0 a 2,2 0 01 -4,0 v -0.5 a 2.5,2.5 0 01 -2.5,2.5 A 2.5,2.5 0 01 3.728,24.263 L 4,21 h28 z"  fill="#BE1931"/>	
	<!-- door -->
	<path d="M 23,35 h-10 s 2,-6 2,-13 h6 c 0,7 2,13 2,13 Z" fill="#000"/>
	
	<!-- flagpole -->
	<path d="M 17,2 h2 v7 h-2 v-7 Z" fill="#000"/>
	<!-- flag (what shape is this supposed to be www) -->
	<path d="M 18.838,0.206 l 5.324,0.878 c 1.463,0.291 1.63,1.541 -0.085,1.884 l -5.154,0.901 c -1.058,0.302 -1.923,-0.351 -1.923,-1.451 v-1 c 0,-1.1 0.667,-1.376 1.838,-1.212 Z" fill="#55ACEE"/>
	
	<!-- roof -->
	<path d="M 33,21.5 v-2.5 c 0,-4 -8,-2 -15,-13 c -7,11 -15,9 -15,13 v2.5 a 2.5,2.5 0 00 5,0 l 4,0.5 a 2,2 0 00 4,0 h4 a 2,2 0 00 4,0 l 4,-0.5 a 2.5,2.5 0 00 5,0 Z" fill="#CCD6DD"/>
	<path d="M 18,6 c 0,5 -5,11 -6,12 v4 a 2,2 0 01 -4,0 v-4 c 3,-2 9.25,-6.5 10,-12 Z" fill="#F5F8FA"/>
	<path d="M 18,6 c 0,-2 0,10 2,12 v4 a 2,2 0 01 -4,0 v-4 c 2,-2 2,-14 2,-12 Z" fill="#F5F8FA"/>
	<path d="M 18,6 c 0.75,5.5 7,10 10,12 v4 a 2,2 0 01 -4,0 v-4 c -1,-1 -6,-7 -6,-12 Z" fill="#F5F8FA"/>
</svg>
