<svg xmlns="http://www.w3.org/2000/svg" viewBox="0 0 36 36">
	at some point this was changed to just be 2 copies of BeerMug but not even scaled properly and it just makes me sad
	<path d="M 2.72,5.464 h3.53 v2.679 h-1.786 c -1.786,0 -1.786,0.893 -1.786,1.786 v7.387 c 0,1.359 1.289,1.542 1.289,1.542 h2.283 v2.679 h-3.53 c -1.502,0 -2.72,-1.217 -2.72,-2.719 v-10.635 c 0,-1.501 1.217,-2.719 2.72,-2.719 Z"  fill="#FFAC33"/>
	<path d="M 5.357,5.464 h15.179 v18.536 c 0,1.1 -0.9,2 -2,2 h-11.179 c -1.1,0 -2,-0.9 -2,-2 v-18.536 Z"  fill="#FFAC33"/>
	<rect x="7.589" y="11.714" width="1.786" height="11.607" rx="0.893"  fill="#F4900C"/>
	<rect x="12.053" y="11.714" width="1.786" height="11.607" rx="0.893"  fill="#F4900C"/>
	<path d="M 5.357,8.575 v-3.111 h15.179 v4.878 c -0.292,0.107 -0.604,0.175 -0.933,0.175 c -1.138,0 -2.111,-0.701 -2.516,-1.694 c -0.238,0.206 -0.545,0.334 -0.883,0.334 c -0.46,0 -0.865,-0.23 -1.111,-0.58 c -0.483,0.756 -1.324,1.26 -2.288,1.26 c -0.884,0 -1.663,-0.429 -2.159,-1.083 c -0.248,0.633 -0.86,1.083 -1.58,1.083 c -0.645,0 -1.199,-0.364 -1.488,-0.893 c -0.27,0.132 -0.57,0.213 -0.892,0.213 c -0.882,0 -1.329,-0.582 -1.329,-0.582 Z"  fill="#F4900C"/>
	<path d="M 8.036,1 h11.607 c 1.786,0 2.679,0.893 2.679,2.679 v2.76 c 0,1.502 -1.218,2.719 -2.719,2.719 c -1.138,0 -2.111,-0.701 -2.516,-1.693 c -0.238,0.205 -0.545,0.334 -0.883,0.334 c -0.46,0 -0.865,-0.23 -1.111,-0.58 c -0.483,0.755 -1.324,1.259 -2.288,1.259 c -0.884,0 -1.663,-0.429 -2.159,-1.083 c -0.248,0.633 -0.86,1.083 -1.58,1.083 c -0.62,0 -1.15,-0.34 -1.447,-0.837 c -0.241,0.229 -0.564,0.372 -0.923,0.372 c -0.74,0 -1.339,-0.6 -1.339,-1.339 v-2.995 c 0,-1.786 0.893,-2.679 2.679,-2.679 Z"  fill="#E1E8ED"/>
	<path d="M 30.495,6.514 c -0.256,0 -0.512,-0.098 -0.707,-0.293 c -0.391,-0.391 -0.391,-1.024 0,-1.415 l 3.552,-3.55 c 0.391,-0.39 1.023,-0.39 1.414,0 s 0.391,1.024 0,1.415 l -3.552,3.55 c -0.195,0.196 -0.451,0.293 -0.707,0.293 Z"  fill="#FA743E"/>
	<path d="M 26.331,4.817 c -0.109,0 -0.221,-0.019 -0.33,-0.057 c -0.521,-0.182 -0.796,-0.752 -0.614,-1.274 l 0.97,-2.773 c 0.183,-0.521 0.752,-0.796 1.274,-0.614 c 0.521,0.182 0.796,0.752 0.614,1.274 l -0.97,2.773 c -0.144,0.413 -0.531,0.671 -0.944,0.671 Z"  fill="#FA743E"/>
	<path d="M 32.474,10.591 c -0.412,0 -0.798,-0.257 -0.943,-0.667 c -0.184,-0.521 0.09,-1.092 0.61,-1.276 l 2.494,-0.881 c 0.522,-0.185 1.092,0.09 1.276,0.61 c 0.184,0.521 -0.09,1.092 -0.61,1.276 l -2.494,0.881 c -0.111,0.039 -0.223,0.057 -0.333,0.057 Z"  fill="#FA743E"/>
	<path d="M 33.28,15.464 c 1.503,0 2.72,1.218 2.72,2.719 v10.635 c 0,1.502 -1.218,2.719 -2.72,2.719 h-3.53 v-2.679 h2.283 s 1.289,-0.183 1.289,-1.542 v-7.387 c 0,-0.893 0,-1.786 -1.786,-1.786 h-1.786 v-2.679 h3.53 Z"  fill="#FFAC33"/>
	<path d="M 30.643,15.464 v18.536 c 0,1.1 -0.9,2 -2,2 h-11.179 c -1.1,0 -2,-0.9 -2,-2 v-18.536 h15.179 Z"  fill="#FFCC4D"/>
	<rect x="17.696" y="21.714" width="1.786" height="11.607" rx="0.893"  fill="#F4900C"/>
	<rect x="26.625" y="21.714" width="1.786" height="11.607" rx="0.893"  fill="#F4900C"/>
	<rect x="22.161" y="21.714" width="1.786" height="11.607" rx="0.893"  fill="#F4900C"/>
	<path d="M 30.643,18.575 s -0.447,0.582 -1.329,0.582 c -0.322,0 -0.622,-0.081 -0.892,-0.213 c -0.289,0.529 -0.843,0.893 -1.488,0.893 c -0.72,0 -1.332,-0.45 -1.58,-1.083 c -0.496,0.654 -1.275,1.083 -2.159,1.083 c -0.964,0 -1.805,-0.504 -2.288,-1.26 c -0.246,0.35 -0.651,0.58 -1.111,0.58 c -0.338,0 -0.645,-0.128 -0.883,-0.334 c -0.405,0.993 -1.378,1.694 -2.516,1.694 c -0.329,0 -0.641,-0.068 -0.933,-0.175 v-4.878 h15.179 v3.111 Z"  fill="#FFAC33"/>
	<path d="M 27.964,11 c 1.786,0 2.679,0.893 2.678,2.679 v2.995 c 0,0.739 -0.599,1.339 -1.339,1.339 c -0.358,0 -0.682,-0.143 -0.922,-0.372 c -0.297,0.497 -0.827,0.837 -1.447,0.837 c -0.72,0 -1.332,-0.45 -1.58,-1.083 c -0.496,0.654 -1.275,1.083 -2.159,1.083 c -0.964,0 -1.805,-0.504 -2.288,-1.259 c -0.246,0.35 -0.651,0.58 -1.111,0.58 c -0.338,0 -0.645,-0.129 -0.883,-0.334 c -0.405,0.992 -1.378,1.693 -2.516,1.693 c -1.501,0 -2.719,-1.217 -2.719,-2.719 v-2.76 c 0,-1.786 0.893,-2.679 2.679,-2.679 h11.607 Z"  fill="#EEE"/>
	</svg>
