<svg xmlns="http://www.w3.org/2000/svg" viewBox="0 0 36 36">
	<defs>
		<clipPath id="um">
			<path d="M31.55,31.55 l-11.55 -23.55 l-1 3 h-3 l-1 4 l-4 1 v3 l-3 1 l23.55,11.55" stroke-width="4" stroke="#000" stroke-linejoin="round"/>
		</clipPath>
	</defs>
	<path d="M 35,35 c -1,1 -2,0 -2,0 l -26,-26 s -3.5,-3.5 0,-7 c 3.479,-3.479 7,0 7,0 s 1,1 0,2 s -2,0 -2,0 s -1.521,-1.479 -3,0 s 0,3 0,3 l 26,26 s 1,1 0,2 Z"  fill="#66757F"/>
	<g clip-path="url(#um)">
		<path fill="#744EAA" transform="translate(21 5)" d=" M 0,0 L -19,28 L -19,29 L 2,8 L 0,0 Z"/>
		<path fill="#744EAA" transform="translate(29 16)" d=" M 0,0 L -26,18 L -24,19 L 5,6 L 0,0 Z"/>
	</g>
</svg>
