<svg xmlns="http://www.w3.org/2000/svg" viewBox="0 0 36 36">
	<defs>
		<clipPath id="um">
			<path d="M 33,33 l -1,1 l -24.879,-12.203 a 2,2 0 01 0.247,-3.695 l 1.632,-0.544 v-1.558 a 2,2 0 01 1.514,-1.94 l 2.836,-0.71 l 0.71,-2.84 a 2,2 0 01 1.94,-1.51 h1.558 l 0.544,-1.632 a 2,2 0 01 3.695,-0.247 l 12.203,24.879 l -1,1 Z"/>
			<!-- from: <path id="um" d="M31.55,31.55 l-11.55 -23.55 l-1 3 h-3 l-1 4 l-4 1 v3 l-3 1 l23.55,11.55" stroke-width="4" stroke-linejoin="round" stroke="#000"/> -->
		</clipPath>
	</defs>
	<path d="M 35,35 c -1,1 -2,0 -2,0 l -26,-26 s -3.5,-3.5 0,-7 c 3.479,-3.479 7,0 7,0 s 1,1 0,2 s -2,0 -2,0 s -1.521,-1.479 -3,0 s 0,3 0,3 l 26,26 s 1,1 0,2 Z"  fill="#66757F"/>
	
	<g clip-path="url(#um)">
		<rect width="36" height="36" fill="#9266CC"/>
		<path d="M 15 5 l -2,8 l 21,21 v-1 l -19,-28 Z M 7 16 l -5,6 l 29,13 l 2,-1 l -26,-18 Z" fill="#744EAA"/>
	</g>
</svg>
