<svg xmlns="http://www.w3.org/2000/svg" viewBox="0 0 36 36">
	<defs>
		<path id="raindrop" d="M 2.01,-0.039 c 0.037,1.102 -0.833,2.016 -1.943,2.039 s -2.039,-0.85  -2.076,-1.953 c -0.026,-0.775 0.398,-1.454 1.036,-1.799 l 2.87 ,-1.708 l 0.113,3.421 Z"  fill="#5DADEC"/>
	</defs>	
	
	<path d="M 13.917,36 c -0.091,0 -0.182,-0.029 -0.258,-0.089 c -0.157,-0.124 -0.204,-0.341 -0.113,-0.518 l 3.454,-6.393 h-5.078 c -0.174,0 -0.438,-0.031 -0.562,-0.297 c -0.114,-0.243 -0.057,-0.474 0.047,-0.703 l 3.593,-9 c 0.078,-0.067 6.902,0.393 7,0.393 c 0.09,0 0.182,0.029 0.257,0.089 c 0.157,0.124 0.204,0.341 0.112,0.519 l -3.817,6 h5.032 c 0.174,0 0.329,0.108 0.391,0.271 c 0.06,0.163 0.013,0.347 -0.119,0.461 l -9.666,9.166 c -0.079,0.067 -0.176,0.101 -0.273,0.101 Z"  fill="#F4900C"/>
	
	<use href="#raindrop" x="2" y="27.46"/>
	<use href="#raindrop" x="9" y="25"/>
	<use href="#raindrop" x="7" y="33"/>
	
	<use href="#raindrop" x="25" y="34"/>
	<use href="#raindrop" x="27" y="25"/>
	<use href="#raindrop" x="31" y="30"/>
	
	<g fill="#E1E8ED">
		<path d="M 5,20 L 5,15 L 10.5,8.5 L 19.5 6.5 L 28,12 L 28,20 Z"/>
		<circle cx="5" cy="15" r="5"/>
		<circle cx="10.5" cy="8.5" r="4.5"/>
		<circle cx="19.5" cy="6.5" r="6.5"/>
		<circle cx="28" cy="12" r="8"/>
	</g>
</svg>
