<svg xmlns="http://www.w3.org/2000/svg" viewBox="0 0 36 36">
	this is the OLD design, with more lines on it (because i suspected they would be easier to decode)
	but now i'm too tired to update it..

	<path fill="#55ACEE" d="M 18,35 c -4,0 -9,1 -9,-1 v-15 s -2.209,14 -3,16 c -0.368,0.93 -5,0.5 -5,-0.5 c 0,-3.531 4,-23.5 5,-25.5 s 5,-4 7,-4 c 0,0 -1.194,-2.174 1,-3 c 0.987,-0.372 2.385,-0.5 4,-0.5 c 2,0 3.013,0.128 4,0.5 c 2.194,0.826 1,3 1,3 c 2,0 6,2 7,4 s 5,21.969 5,25.5 c 0,1 -4.501,1.423 -5,0.5 c -0.475,-0.88 -3,-16 -3,-16 v15 c 0,2 -5,1 -9,1 Z"/>
	<path fill="#226699" d="M 18,2 c 4,0 4,0.448 4,1 s -1.791,2 -4,2 s -4,-1.448 -4,-2 s 0,-1 4,-1 Z"/>
	
	<g>
		<path fill="#3B88C3" d="M 16.5522,7 h-0.024 c -0.973,0 -2.588,-0.904 -2.769,-1.004 c -0.242,-0.133 -0.331,-0.429 -0.197,-0.671 c 0.133,-0.242 0.437,-0.325 0.679,-0.194 c 0.605,0.333 1.775,0.872 2.334,0.899 c 0.276,0.013 0.489,0.232 0.476,0.508 c -0.013,0.268 -0.234,0.462 -0.499,0.462 Z"/>
		<path fill="#3B88C3" d="M 19.4922,7 c -0.266,0 -0.487,-0.193 -0.499,-0.461 c -0.013,-0.276 0.2,-0.502 0.476,-0.515 c 0.56,-0.027 1.729,-0.56 2.334,-0.892 c 0.242,-0.132 0.546,-0.044 0.679,0.199 c 0.133,0.242 0.044,0.531 -0.197,0.664 c -0.182,0.1 -1.797,1.005 -2.77,1.005 h-0.023 Z"/>
	</g>
	
	<rect width="1" height="29" rx="0.5" x="17.5" y="5.5" fill="#3B88C3"/>
	<!-- <path fill="#3B88C3" d="M 18.0439,34.4998 c -0.276,0 -0.5,-0.224 -0.5,-0.5 v-28 c 0,-0.276 0.224,-0.5 0.5,-0.5 s 0.5,0.224 0.5,0.5 v28 c 0,0.276 -0.224,0.5 -0.5,0.5 Z"/> extra, why? -->
	
	<g>
		<path fill="#3B88C3" d="M 9.8071,18 c -0.27,0 -0.492,-0.371 -0.5,-0.642 c -0.007,-0.276 0.211,-0.584 0.487,-0.591 l 6.328,-0.206 c 0.247,0.011 0.506,0.192 0.514,0.468 c 0.007,0.275 -0.211,0.651 -0.487,0.659 l -6.328,0.312 h-0.014 Z"/>
		<path fill="#3B88C3" d="M 26.2363,18 h-0.013 l -6.328,-0.322 c -0.276,-0.007 -0.494,-0.315 -0.487,-0.591 s 0.251,-0.511 0.513,-0.526 l 6.328,0.147 c 0.276,0.007 0.494,0.383 0.487,0.659 c -0.007,0.272 -0.229,0.633 -0.5,0.633 Z"/>
	</g>
	
	<g transform="translate(18.022 0)" fill="none" stroke="#3B88C3" stroke-width="1" stroke-linecap="round">
		<path d="M -2.022,14.5 l -4.8185,-0.5"/>
		<path d="M -8.022,13 l -3,-4"/>
		<path d="M -8.995,14 l -3.181,-1.3497"/>
		<path d="M -9.495,16.74 l -3,-1"/>
		<path d="M -10.107,19.6375 l -3,-1"/>
		<path d="M -10.676,22.576 l -3,-1"/>
		<path d="M -11.366,25.4295 l -3,-1"/>
		<path d="M -11.821,28.1014 l -3,-1"/>
		<path d="M -12.362,30.8494 l -3,-1"/>
		<path d="M -12.934,33.6141 l -3,-1"/>

		<path d="M 2.022,14.5 l 4.8185,-0.5"/>
		<path d="M 8.022,13 l 3,-4"/>
		<path d="M 8.995,14 l 3.181,-1.3497"/>
		<path d="M 9.495,16.74 l 3,-1"/>
		<path d="M 10.107,19.6375 l 3,-1"/>
		<path d="M 10.676,22.576 l 3,-1"/>
		<path d="M 11.366,25.4295 l 3,-1"/>
		<path d="M 11.821,28.1014 l 3,-1"/>
		<path d="M 12.362,30.8494 l 3,-1"/>
		<path d="M 12.934,33.6141 l 3,-1"/>
	</g>
	
	<g fill="#3B88C3" transform="translate(18.0219 0)">
		<path d="M -4.397,33.5281 c -1.794,0 -3.564,-0.177 -3.675,-0.189 c -0.275,-0.027 -0.475,-0.272 -0.448,-0.547 c 0.029,-0.274 0.273,-0.479 0.548,-0.447 c 0.041,0.003 4.045,0.402 5.986,0.007 c 0.272,-0.054 0.534,0.119 0.59,0.391 c 0.055,0.27 -0.12,0.534 -0.39,0.59 c -0.72,0.146 -1.669,0.195 -2.611,0.195 Z"/>
		<path d="M -5.367,30.4441 c -1.378,0 -2.626,-0.079 -2.881,-0.096 c -0.275,-0.018 -0.484,-0.257 -0.465,-0.532 s 0.246,-0.49 0.533,-0.466 c 1.323,0.089 5.002,0.223 6.108,-0.218 c 0.257,-0.103 0.548,0.021 0.65,0.278 c 0.103,0.257 -0.022,0.548 -0.278,0.649 c -0.763,0.305 -2.28,0.385 -3.667,0.385 Z"/>
		<path d="M -4.150,27.2654 c -1.65,0 -3.551,-0.143 -4.105,-0.188 c -0.274,-0.023 -0.479,-0.264 -0.458,-0.539 c 0.023,-0.275 0.268,-0.479 0.54,-0.457 c 2.573,0.207 5.548,0.275 6.071,0.024 c 0.25,-0.119 0.548,-0.014 0.667,0.235 c 0.12,0.249 0.014,0.548 -0.235,0.667 c -0.409,0.196 -1.39,0.258 -2.48,0.258 Z"/>
		<path d="M -4.188,24.1746 c -1.77,0 -3.749,-0.208 -4.08,-0.244 c -0.274,-0.03 -0.473,-0.277 -0.443,-0.552 c 0.029,-0.274 0.273,-0.477 0.551,-0.442 c 1.345,0.147 5.059,0.438 6.091,0.032 c 0.256,-0.105 0.547,0.025 0.649,0.281 c 0.101,0.258 -0.026,0.548 -0.283,0.649 c -0.526,0.208 -1.471,0.276 -2.485,0.276 Z"/>
		<path d="M -4.1415,20.8172 c -1.753,0 -3.767,-0.112 -4.102,-0.132 c -0.275,-0.016 -0.486,-0.252 -0.47,-0.528 s 0.249,-0.505 0.528,-0.47 c 1.382,0.08 5.187,0.237 6.189,0.012 c 0.27,-0.063 0.538,0.107 0.598,0.377 c 0.061,0.269 -0.108,0.537 -0.378,0.597 c -0.475,0.108 -1.379,0.144 -2.365,0.144 Z"/>
		<path d="M -1.470,12.6932 c -0.087,0 -0.173,-0.022 -0.253,-0.069 c -0.441,-0.26 -3.638,-1.048 -5.767,-1.525 c -0.27,-0.06 -0.44,-0.328 -0.379,-0.597 c 0.06,-0.269 0.326,-0.436 0.597,-0.379 c 0.882,0.197 5.318,1.205 6.056,1.639 c 0.238,0.14 0.317,0.447 0.177,0.684 c -0.093,0.159 -0.26,0.247 -0.431,0.247 Z"/>
		<path d="M -1.886,9.5 c -0.062,0 -0.126,-0.012 -0.188,-0.037 c -1.2,-0.486 -5.08,-0.778 -6.474,-0.85 c -0.275,-0.014 -0.487,-0.25 -0.473,-0.526 c 0.013,-0.275 0.244,-0.495 0.525,-0.473 c 0.212,0.011 5.198,0.274 6.798,0.923 c 0.256,0.103 0.379,0.395 0.275,0.651 c -0.078,0.194 -0.266,0.312 -0.463,0.312 Z"/>
		
		<path d="M 4.397,33.5281 c -0.942,0 -1.891,-0.049 -2.61,-0.195 c -0.271,-0.056 -0.446,-0.32 -0.391,-0.59 c 0.056,-0.272 0.324,-0.446 0.59,-0.391 c 1.943,0.399 5.946,-0.003 5.985,-0.007 c 0.272,-0.032 0.521,0.171 0.548,0.447 c 0.028,0.275 -0.172,0.52 -0.446,0.547 c -0.112,0.012 -1.882,0.189 -3.676,0.189 Z"/>
		<path d="M 5.367,30.4441 c -1.388,0 -2.904,-0.08 -3.667,-0.385 c -0.257,-0.101 -0.381,-0.392 -0.278,-0.649 c 0.102,-0.256 0.394,-0.383 0.649,-0.278 c 1.108,0.441 4.786,0.308 6.109,0.218 c 0.249,-0.016 0.514,0.19 0.533,0.466 c 0.018,0.275 -0.19,0.514 -0.466,0.532 c -0.254,0.017 -1.503,0.096 -2.88,0.096 Z"/>
		<path d="M 4.150,27.2654 c -1.091,0 -2.071,-0.062 -2.48,-0.258 c -0.249,-0.119 -0.354,-0.418 -0.235,-0.667 s 0.419,-0.353 0.667,-0.235 c 0.525,0.251 3.497,0.184 6.072,-0.024 c 0.272,-0.021 0.517,0.182 0.538,0.457 c 0.023,0.275 -0.182,0.516 -0.458,0.539 c -0.552,0.045 -2.454,0.188 -4.104,0.188 Z"/>
		<path d="M 4.188,24.1746 c -1.014,0 -1.958,-0.068 -2.485,-0.276 c -0.257,-0.101 -0.383,-0.391 -0.282,-0.649 c 0.102,-0.257 0.393,-0.385 0.649,-0.281 c 1.031,0.404 4.746,0.115 6.09,-0.032 c 0.271,-0.031 0.52,0.167 0.551,0.442 s -0.168,0.522 -0.442,0.552 c -0.331,0.036 -2.311,0.244 -4.081,0.244 Z"/>
		<path d="M 4.0412,20.8172 c 1.753,0 3.767,-0.112 4.102,-0.132 c 0.275,-0.016 0.486,-0.252 0.47,-0.528 s -0.249,-0.505 -0.528,-0.47 c -1.382,0.08 -5.187,0.237 -6.19,0.012 c -0.269,-0.063 -0.537,0.107 -0.597,0.377 c -0.061,0.269 0.108,0.537 0.378,0.597 c 0.475,0.108 1.379,0.144 2.365,0.144 Z"/>
		<path d="M 1.470,12.6932 c -0.171,0 -0.338,-0.088 -0.431,-0.246 c -0.14,-0.238 -0.061,-0.545 0.177,-0.685 c 0.737,-0.434 5.174,-1.442 6.056,-1.639 c 0.272,-0.06 0.536,0.11 0.597,0.379 c 0.06,0.269 -0.109,0.537 -0.379,0.597 c -2.128,0.477 -5.326,1.265 -5.766,1.525 c -0.08,0.047 -0.167,0.069 -0.254,0.069 Z"/>
		<path d="M 1.886,9.5 c -0.197,0 -0.385,-0.118 -0.463,-0.312 c -0.104,-0.256 0.02,-0.547 0.276,-0.651 c 1.599,-0.649 6.585,-0.912 6.797,-0.923 c 0.313,-0.026 0.511,0.199 0.525,0.473 c 0.014,0.276 -0.198,0.512 -0.474,0.526 c -1.393,0.072 -5.274,0.364 -6.474,0.85 c -0.061,0.025 -0.125,0.037 -0.187,0.037 Z"/>
	</g>
</svg>
