<svg xmlns="http://www.w3.org/2000/svg" viewBox="0 0 36 36">
	<path d="M 19,20.2549 v10.123 s 2.743,1.369 5.121,2.777 c 1.336,0.791 0.206,1.651 -0.011,1.723 c -0.562,0.188 -2.124,1.102 -6.764,1.102 c -4.527,0 -6.124,-0.844 -6.781,-1.102 c -0.393,-0.155 -1.047,-1.055 -0.063,-1.617 c 0.914,-0.543 5.498,-2.883 5.498,-2.883 v-10.123 s -11.463,-10.635 -12.667,-11.838 c -1.687,-1.687 1.671,-2.417 2.796,-2.417 h10.123 h1.125 h1.125 h10.124 c 2.249,0 4.082,1.286 2.957,2.25 s -12.583,12.005 -12.583,12.005 Z" fill="#8899a6"/>
	<ellipse rx="14.623" ry="2.935" cx="17.377" cy="7.4424" fill="#ccd6dd"/>
	<path d="M 4.4585,7.5835 l 25.667,0.375 s -10.5,9.083 -11.167,9.583 s -1.901,0.619 -2.801,-0.123 c -3.162,-2.6 -10.434,-8.603 -11.699,-9.835 Z" fill="#ccd6dd"/>
	<path d="M 16.8677,16.5322 c -0.237,-0.125 -0.05,-0.8 0.249,-1.328 l 7.448,-14.518 c 0.3,-0.529 0.97,-0.715 1.498,-0.416 c 0.529,0.299 0.714,0.969 0.416,1.498 l -8.668,13.885 c -0.15,0.264 -0.673,1.02 -0.943,0.879 Z" fill="#662113"/>
	<path d="M 21.7451,7.8555 c 1.133,0.639 1.996,2.636 1.2,4.046 c -0.797,1.411 -2.954,1.699 -4.087,1.058 c -1.132,-0.639 -2.065,-2.514 -1.199,-4.045 c 0.865,-1.532 2.953,-1.699 4.086,-1.059 Z" fill="#5c913b"/>
	<path d="M 16.7969,10.7612 c -3.775,0 -7.361,-0.49 -10.737,-1.471 l -0.129,-0.037 c -0.53,-0.154 -0.836,-0.708 -0.683,-1.239 c 0.153,-0.53 0.705,-0.836 1.238,-0.683 l 0.132,0.038 c 6.533,1.899 13.943,1.855 22.018,-0.132 c 0.543,-0.13 1.079,0.196 1.21,0.732 c 0.132,0.537 -0.195,1.079 -0.732,1.21 c -4.288,1.055 -8.403,1.582 -12.317,1.582 Z" fill="#ffffff"/>
</svg>
