<svg xmlns="http://www.w3.org/2000/svg" viewBox="0 0 36 36">
	<!-- probably the entire thing was drawn and then rotated 45 -->	
	<path d="M -18,0 h 36 a 18,20 0 01 -36,0 z" transform="translate(19.647 16.025) rotate(45)" fill="#8B5E3C"/>
	
	<path d="M 25.542,6.208 l 0.437,0.333 c 0.888,0.887 1.745,1.905 2.074,2.328 c 0.971,1.175 2.017,2.021 2.909,2.913 c 4.982,4.982 3.349,11.912 3.277,12.205 c -0.188,0.764 -0.807,1.347 -1.581,1.489 c -0.654,0.12 -1.315,-0.093 -1.775,-0.553 c -0.085,-0.085 -0.162,-0.177 -0.232,-0.278 l -10.528,-15.263 c -0.548,-0.794 -0.764,-2.095 -0.081,-2.778 c 0.723,-0.711 3.667,-1.834 5.5,-0.396 Z"  fill="#603913"/>
	<ellipse rx="18" ry="10" transform="translate(19.647,16.025) rotate(45)" fill="#603913"/>
	
	<!--<path d="M 31.591,24.217 c -0.042,-0.042 -0.081,-0.089 -0.117,-0.139 l -10.528,-15.263 c -0.274,-0.397 -0.234,-0.943 0.116,-1.275 c 3.034,-2.877 4.089,-0.979 4.439,-0.629 c 0.765,0.765 1.098,0.62 1.498,1.035 c 0.473,0.77 2.136,3.424 3.256,4.544 c 4.588,4.588 3.08,10.989 3.013,11.258 c -0.094,0.383 -0.403,0.674 -0.79,0.745 c -0.327,0.06 -0.658,-0.047 -0.887,-0.276 Z"  fill="#F5F8FA"/>-->
	
	<path d="M 24.271,7.562 c 0.707,0.707 1.458,1.417 1.458,1.417 s 2.404,2.804 3.819,4.218 c 4.242,4.243 2.75,10.313 2.75,10.313 l -11.652,-15.677 s 2.792,-1.042 3.625,-0.271 Z"  fill="#F5F8FA"/>
	<ellipse rx="16" ry="8" transform="translate(19.647,16.025) rotate(45)" fill="#F5F8FA"/>
	
	<path d="M 20.199,9.939 l 1.176,-0.335 c 0.562,-0.312 1.354,-0.333 1.896,0.167 l 1.211,1.273 c 0.573,0.69 1.919,2.137 2.995,3.213 c 3.807,3.807 2.319,8.722 2.253,8.93 c -0.057,0.182 -0.213,0.315 -0.401,0.344 c -0.159,0.024 -0.318,-0.029 -0.429,-0.141 c -0.021,-0.021 -0.04,-0.043 -0.058,-0.068 l -8.797,-12.669 c -0.079,-0.114 -0.108,-0.254 -0.078,-0.39 c 0.029,-0.135 0.113,-0.252 0.232,-0.324 Z"  fill="#99AAB5"/>
	<ellipse rx="13" ry="5.9375" transform="translate(19.604,16.070) rotate(45)" fill="#99AAB5"/>
	
	<path d="M 23.76,26.056 s -2.514,0 -3.142,0.628 c -0.629,0.63 -8.172,-6.913 -10.058,-8.799 c -1.885,-1.885 -1.885,-10.686 -1.885,-10.686 s 1.257,1.257 1.885,3.144 c 0.628,1.885 1.31,0.733 1.886,1.886 c 0.577,1.153 1.626,4.033 2.253,5.918 c 0.628,1.886 4.662,2.253 5.29,4.138 c 0.562,1.686 3.771,3.771 3.771,3.771 Z"  fill="#F5F8FA"/>
	<path d="M 22.838,27.73 s -3.006,-0.365 -3.661,0.289 c -0.656,0.655 -8.512,-7.201 -10.476,-9.166 c -1.964,-1.964 -1.964,-11.13 -1.964,-11.13 s 1.309,1.309 1.964,3.274 c 0.655,1.963 1.048,0.784 1.964,1.964 c 0.317,0.406 1.258,3.928 1.913,5.892 c 0.654,1.964 5.289,2.619 5.944,4.583 c 0.586,1.757 4.316,4.294 4.316,4.294 Z"  fill="#603913"/>
	<path d="M 21.769,29.46 s -2.828,0 -3.536,0.707 c -0.707,0.707 -9.192,-7.778 -11.313,-9.899 s -2.121,-12.021 -2.121,-12.021 s 1.414,1.414 2.121,3.535 c 0.707,2.122 1.414,1.414 2.121,2.122 c 0.707,0.707 0.707,3.535 1.414,5.657 c 0.707,2.121 6.365,3.536 7.072,5.657 c 0.632,1.897 4.242,4.242 4.242,4.242 Z"  fill="#8B5E3C"/> 1.125 <!-- look at all those beautiful 1.414 sqrt 2's... -->
	
	<path d="M 2.447,22.885 c -0.067,-0.068 -0.114,-0.156 -0.131,-0.26 c -0.521,-3.377 -0.019,-6.979 1.536,-11.013 c 0.108,-0.28 0.415,-0.444 0.687,-0.364 c 0.267,0.077 0.401,0.371 0.294,0.652 c -1.481,3.848 -2.333,7.16 -1.841,10.352 c 0.044,0.281 0.033,0.725 -0.255,0.798 c -0.182,0.047 -0.175,-0.051 -0.29,-0.165 Z"  fill="#A97C50"/>
	<path d="M 10.811,32.853 c 0.091,-0.285 0.836,-0.061 1.113,0.001 c 6.934,1.526 11.66,-1.385 11.712,-1.409 c 0.272,-0.136 0.579,-0.034 0.685,0.224 s -0.026,0.577 -0.296,0.712 c -0.225,0.112 -4.808,2.55 -12.125,0.939 c -0.091,-0.021 -0.721,-0.131 -0.781,-0.191 c -0.123,-0.123 -0.37,-0.084 -0.308,-0.276 Z"  fill="#A97C50"/>
	<path d="M 12.804,32.063 c -0.111,-0.11 -0.2,-0.099 -0.164,-0.276 c 0.063,-0.291 0.604,-0.307 0.889,-0.275 c 3.438,0.39 6.152,-1.438 6.181,-1.453 c 0.271,-0.138 0.58,-0.041 0.688,0.218 c 0.109,0.258 -0.022,0.577 -0.291,0.714 c -0.131,0.067 -3.255,1.63 -7.024,1.204 c -0.112,-0.014 -0.209,-0.061 -0.279,-0.132 Z"  fill="#A97C50"/>
	</svg>
