<svg xmlns="http://www.w3.org/2000/svg" viewBox="0 0 36 36">
	<path d="M 22,0 l 2,10 l 12,-3 l -8,9 l 8,6 h-10 l 3,14 l -11,-10 l -12,8 l 6,-12 h-12 l 11,-6 l -8,-8 l 10,2 v-7 l 5,5 l 4,-8 Z" fill="#bb1a34" transform="scale(1 1.0035)"/> <!-- scaled by 36.125/36 -->
	<path d="M 21.754,7.108 l 1.16,5.816 l 7.086,-1.778 l -4.7,5.306 l 4.514,3.397 h-5.917 l 2.024,9.478 l -6.902,-6.296 l -6.427,4.301 l 3.728,-7.483 h-6.757 l 5.905,-3.231 l -4.771,-4.788 l 5.407,1.085 v-4.229 l 3.244,3.255 l 2.406,-4.833 Z" fill="#fcab40"/>
	<path d="M 21.033,11.9 l 0.479,2.4 l 2.925,-0.733 l -1.941,2.19 l 1.865,1.402 h-2.444 l 0.836,3.913 l -2.849,-2.599 l -2.654,1.776 l 1.539,-3.09 h-2.789 l 2.438,-1.334 l -1.969,-1.977 l 2.231,0.449 v-1.746 l 1.339,1.343 l 0.994,-1.994 Z" fill="#f5f8fa"/>
	<!-- the lines of the inner shapes had a lot of extra points on them. but i wonder why.. -->
</svg>
