<svg xmlns="http://www.w3.org/2000/svg" viewBox="0 0 36 36">
	<!-- i think this one was scaled but cant figure out the design size.. -->
	
	<path d="M 3.6045 33.3291 c -5.25,-6.72 0.883,-19.2 12.536,-26.615 s 16.373,-6.742 17.522,-6.665 c 0.662,0.045 2.383,0.795 0.442,1.766 c -6.224,4.016 -10.682,12.888 -12.668,17.611 c -2.908,6.914 -3.904,12.074 -7.15,14.433 c -5.164,3.753 -9.578,0.883 -10.682,-0.53 Z" fill="#5DADEC"/>
	<defs>
		<clipPath id="comet1">
			<path d="M 5.8999 21.8594 c -2.217,0.89 4.679,-10.018 12.05,-13.373 c -0.353,0.883 -1.59,4.105 -1.324,5.164 c 1.103,-1.853 8.562,-7.37 11.21,-8.65 c -4.724,4.054 -9.271,14.674 -11.296,20.493 c -0.245,0.705 -0.608,0.767 -0.833,0.117 c -0.925,-2.681 -4.409,-5.917 -9.807,-3.751 Z"/>
		</clipPath>
	</defs>
	<g clip-path="url(#comet1)">
		<rect width="36" height="36" fill="#8CCAF7"/>
		<path d="M 5.2378 22.125 c 0.971,-2.206 7.15,-8.254 9.004,-9.136 c -1.059,5.119 -0.044,5.208 4.017,1.5 c -2.604,4.458 -2.074,10.638 -2.251,12.316 c -0.177,1.675 -11.079,-1.502 -11.476,-3.224 c -0.398,-1.722 0.706,-1.456 0.706,-1.456 Z" fill="#BDDDF4"/>
	</g>
	<circle cx="8.725" cy="28.9595" r="5.2965" fill="#F5F8FA"/>
</svg>
