<svg xmlns="http://www.w3.org/2000/svg" viewBox="0 0 36 36">
	<rect x="17" y="16" width="18" height="20" rx="2"  fill="#AAB8C2"/>
	<path d="M 23,26 h12 v4 h-12 v-4 Z"  fill="#A0041E"/>
	<path d="M 33,16 a 2,2 0 01 2,2 h-12 v-2 h10 Z"  fill="#292F33"/>
	<path d="M 5,14 h2 v2 h-2 v-2 Z"  fill="#292F33"/>
	<path d="M 17,14 h2 v2 h-2 v-2 Z"  fill="#292F33"/>
	
	<path d="M 3,16 h20 v20 h-20 a 2,2 0 01 -2,-2 v-16 a 2,2 0 01 2,-2 Z"  fill="#CCD6DD"/>
	<path d="M 3,16 h20 v2 h-22 a 2,2 0 01 2,-2 Z"  fill="#66757F"/>
	
	<!-- front windows -->
	<path d="M 3,20 h4 v4 h-4 v-4 Z"  fill="#55ACEE"/>
	<path d="M 10,20 h4 v4 h-4 v-4 Z"  fill="#55ACEE"/>
	<path d="M 17,20 h4 v4 h-4 v-4 Z"  fill="#55ACEE"/>
	<path d="M 3,30 h18 v6 h-18 v-6 Z"  fill="#55ACEE"/>
	<!-- side windows -->
	<path d="M 23,20 h4 v4 h-4 v-4 Z"  fill="#3B88C3"/>
	<path d="M 29,20 h4 v4 h-4 v-4 Z"  fill="#3B88C3"/>
	<path d="M 23,30 h10 v4 h-10 v-4 Z"  fill="#3B88C3"/>
	<!-- door -->
	<path d="M 7,30 h10 v6 h-10 v-6 Z"  fill="#3B88C3"/>
	
	<rect x="3" y="0" width="18" height="14" rx="2"  fill="#DD2E44"/>
	
	<path d="M 1,26 h22 v4 h-22 v-4 Z"  fill="#DD2E44"/>
	
	<path d="M 7,27 h10 v2 h-10 v-2 Z"  fill="#F4ABBA"/>
	
	<path d="M 9,27 h6 v2 h-6 v-2 Z"  fill="#FFF"/>
	<path d="M 10.561,10.151 c 0.616,0 1.093,0.28 1.093,0.925 c 0,0.644 -0.477,0.924 -1.009,0.924 h-4.678 c -0.617,0 -1.093,-0.28 -1.093,-0.924 c 0,-0.294 0.182,-0.546 0.322,-0.714 c 1.163,-1.387 2.424,-2.648 3.489,-4.189 c 0.252,-0.364 0.49,-0.798 0.49,-1.303 c 0,-0.574 -0.434,-1.079 -1.009,-1.079 c -1.611,0 -0.84,2.269 -2.185,2.269 c -0.672,0 -1.022,-0.476 -1.022,-1.022 c 0,-1.765 1.569,-3.18 3.292,-3.18 s 3.109,1.135 3.109,2.914 c 0,1.947 -2.171,3.88 -3.362,5.379 h2.563 Z"  fill="#FFF"/>
	<path d="M 12.924,9.801 c -0.687,0 -0.981,-0.462 -0.981,-0.826 c 0,-0.309 0.112,-0.477 0.196,-0.617 l 3.138,-5.687 c 0.308,-0.56 0.7,-0.813 1.429,-0.813 c 0.812,0 1.611,0.519 1.611,1.793 v4.3 h0.238 c 0.546,0 0.98,0.364 0.98,0.925 c 0,0.56 -0.434,0.924 -0.98,0.924 h-0.238 v1.19 c 0,0.743 -0.295,1.093 -1.009,1.093 s -1.008,-0.35 -1.008,-1.093 v-1.19 l-3.376,0.001 Z M 16.3,4.044 h-0.028 l -1.891,3.908 h1.919 v-3.908 Z"   fill="#FFF"/>
</svg>
