<svg xmlns="http://www.w3.org/2000/svg" viewBox="0 0 36 36">
	<path d="M 18,36 c -14.958,0 -17,-15 -17,-19 h34 c 0,2 -1.958,19 -17,19 Z"  fill="#DD2E44"/>
	<ellipse fill="#A0041E" cx="18" cy="17.056" rx="17" ry="9.444"/>
	<path d="M 18,25 c -6,0 -16,-3 -16,-8 c 0,-6 6.125,-13 16,-13 s 16,8 16,13 s -9,8 -16,8 Z"  fill="#E6E9EA"/>
	<path d="M 15.41,19.892 c 0.419,0.359 0.468,0.991 0.108,1.41 c -0.359,0.419 -0.991,0.468 -1.41,0.108 l -1.519,-1.302 c -0.419,-0.359 -0.468,-0.991 -0.108,-1.41 c 0.359,-0.419 0.991,-0.468 1.41,-0.108 l 1.519,1.302 Z"  fill="#CCD6DD"/>
	<path d="M 7.283,18.385 c -0.304,0.46 -0.925,0.587 -1.386,0.283 c -0.46,-0.305 -0.587,-0.925 -0.283,-1.386 l 1.103,-1.669 c 0.305,-0.461 0.925,-0.587 1.386,-0.283 c 0.46,0.305 0.587,0.925 0.283,1.386 l -1.103,1.669 Z"  fill="#CCD6DD"/>
	<path d="M 30.283,18.385 c -0.305,0.46 -0.926,0.587 -1.387,0.283 c -0.46,-0.305 -0.587,-0.925 -0.282,-1.386 l 1.103,-1.669 c 0.305,-0.461 0.926,-0.587 1.386,-0.283 c 0.46,0.305 0.587,0.925 0.283,1.386 l -1.103,1.669 Z"  fill="#CCD6DD"/>
	<path d="M 24.18,14.779 c 0.11,0.541 -0.239,1.069 -0.78,1.18 c -0.541,0.11 -1.069,-0.239 -1.18,-0.78 l -0.399,-1.96 c -0.11,-0.541 0.238,-1.069 0.78,-1.179 c 0.541,-0.111 1.069,0.239 1.179,0.78 l 0.4,1.959 Z"  fill="#CCD6DD"/>
	<path d="M 16.64,10.821 c -0.345,-0.14 -0.511,-0.534 -0.37,-0.879 c 0.14,-0.344 0.534,-0.51 0.878,-0.37 l 1.249,0.509 c 0.345,0.14 0.51,0.533 0.37,0.878 c -0.141,0.345 -0.534,0.511 -0.879,0.37 l -1.248,-0.508 Z"  fill="#CCD6DD"/>
	<path d="M 7.344,12.388 c -0.307,0.211 -0.727,0.133 -0.938,-0.175 c -0.21,-0.307 -0.132,-0.727 0.175,-0.937 l 1.113,-0.762 c 0.307,-0.21 0.726,-0.132 0.937,0.175 c 0.21,0.307 0.132,0.727 -0.175,0.938 l -1.112,0.761 Z"  fill="#CCD6DD"/>
	<path d="M 20.937,20.933 c -0.551,-0.036 -0.969,-0.513 -0.933,-1.064 c 0.037,-0.55 0.513,-0.968 1.062,-0.933 l 1.997,0.131 c 0.55,0.035 0.969,0.512 0.933,1.062 c -0.035,0.551 -0.511,0.97 -1.062,0.933 l -1.997,-0.129 Z"  fill="#CCD6DD"/>
	<path d="M 11.696,14.547 c -0.512,-0.208 -0.758,-0.793 -0.549,-1.304 s 0.793,-0.757 1.304,-0.549 l 1.853,0.755 c 0.511,0.208 0.757,0.791 0.549,1.303 s -0.792,0.758 -1.304,0.549 l -1.853,-0.754 Z"  fill="#CCD6DD"/>
	<path d="M 27.641,11.821 c -0.346,-0.14 -0.512,-0.534 -0.37,-0.879 c 0.14,-0.344 0.534,-0.51 0.878,-0.37 l 1.25,0.509 c 0.344,0.14 0.51,0.533 0.369,0.878 s -0.533,0.511 -0.879,0.37 l -1.248,-0.508 Z"  fill="#CCD6DD"/>
	</svg>
