<svg xmlns="http://www.w3.org/2000/svg" viewBox="0 0 36 36">
	<defs>
		<rect id="rect1" width="4" height="2" x="-2" y="-1" rx="1"/>
	</defs>
	
	<g>
		<path d="M 1,17 h34 c 0,2 -1.958,19 -17,19 c -14.958,0 -17,-15 -17,-19 Z" fill="#dd2e44"/>
		<ellipse rx="17" ry="9.444" cx="18" cy="17.0557" fill="#a0041e"/>
	</g>
	rice
	<g>
		<path d="M 18,25 c -6,0 -16,-3 -16,-8 c 0,-6 6.125,-13 16,-13 s 16,8 16,13 s -9,8 -16,8 Z" fill="#E1E8ED" class="toolight"/>
		<g fill="#ccd6dd">
			<use href="#rect1" transform="translate(14 20) rotate(40.6)"/>
			<use href="#rect1" transform="translate(7 17) rotate(-56.5324)"/>
			<use href="#rect1" transform="translate(30,17) rotate(-56.5324)"/>
			<use href="#rect1" transform="translate(23,14) rotate(78.4794)"/>
			<use href="#rect1" transform="translate(22,20) rotate(3.7255)"/>
			<use href="#rect1" transform="translate(13,14) rotate(22.1737)"/>
			<use href="#rect1" transform="translate(17.5191,10.4508) rotate(22.1722) scale(0.675)"/>
			<use href="#rect1" transform="translate( 7.5191,11.4508) rotate(-34.4265) scale(0.675)"/>
			<use href="#rect1" transform="translate(28.5191,11.4508) rotate(22.1802) scale(0.675)"/>
		</g>
	</g>
</svg>
