<svg xmlns="http://www.w3.org/2000/svg" viewBox="0 0 36 36">
	<defs>
		<path id="chip1" d="M 3,0 a 3,3 0 01 -6 0 c 0,-1.657 1.343,-5 3,-5 s 3,3.343 3,5 z" fill="#8a4b38"/>
	</defs>
	<path d="M 34.966,17.87 c 0.414,4.649 -2.082,8.731 -4.831,12.206 c -2.304,2.554 -5.602,3.631 -8.901,4.285 c -3.198,1.089 -6.766,0.739 -9.716,-0.895 c -1.034,-0.43 -2.248,-0.559 -3.167,-1.176 c -2.879,-1.846 -4.524,-4.927 -5.779,-8.029 c -1.627,-2.916 -1.74,-6.483 -1.414,-9.742 c 0.219,-1.107 0.967,-2.032 1.388,-3.051 c 0.729,-2.127 1.916,-3.963 3.569,-5.475 c 0.786,-0.787 1.377,-1.823 2.303,-2.444 c 0.919,-0.617 2.103,-0.758 3.137,-1.188 c 1.016,-0.422 1.968,-1.08 3.072,-1.299 c 1.072,-0.213 2.201,0.106 3.335,0.106 c 2.235,-0.056 4.482,0.148 6.575,0.789 c 1.034,0.43 1.781,1.38 2.7,1.997 c 0.926,0.622 1.999,1.04 2.784,1.827 c 1.603,1.566 2.984,3.411 3.94,5.446 c 0.65,2.109 0.957,4.389 1.005,6.643 Z" fill="#d99e82"/>
	<g>
		<use href="#chip1" transform="translate(23.3307,19.0823) scale(0.7486) rotate(-108)"/>
		<use href="#chip1" transform="translate(30.389,15.5869) scale(0.3567) rotate(40.038)"/>
		<use href="#chip1" transform="translate(8.389,8.5869) scale(0.3567) rotate(40.038)"/>
		<use href="#chip1" transform="translate(22.1663,6.0263) scale(0.5360) rotate(122.562)"/>
		<use href="#chip1" transform="translate(15.309,12.6701) scale(0.7154) rotate(154.369)"/>
		<use href="#chip1" transform="translate(15.9804,28.7888) scale(0.6405) rotate(-145.392)"/>
		<use href="#chip1" transform="translate(25.2051,26.0505) scale(0.4909) rotate(122.579)"/>
		<use href="#chip1" transform="translate(7.0771,19.7999) scale(0.6898) rotate(-138.173)"/>
	</g>
</svg>
