<svg xmlns="http://www.w3.org/2000/svg" viewBox="0 0 36 36">
	<g class="toodark">
		<circle cx="18" cy="18" r="17" stroke-width="2" fill="none" stroke="#31373D"/>
		<path d="M 18.7231,6.5518 c 2.263,0 6.666,0.744 6.666,3.473 c 0,1.116 -0.776,2.077 -1.922,2.077 c -1.272,0 -2.139,-1.085 -4.744,-1.085 c -3.845,0 -5.829,3.256 -5.829,7.038 c 0,3.689 2.015,6.852 5.829,6.852 c 2.605,0 3.658,-1.301 4.929,-1.301 c 1.397,0 2.047,1.394 2.047,2.107 c 0,2.977 -4.682,3.659 -6.976,3.659 c -6.294,0 -10.666,-4.992 -10.666,-11.41 c 0,-6.449 4.341,-11.41 10.666,-11.41 Z" fill="#31373D"/> <!-- changed from #292f33 to match Registered -->
	</g>
</svg>
