<svg xmlns="http://www.w3.org/2000/svg" viewBox="0 0 36 36">
	<path d="M 4,8 c 5,-4.25 3,8 3,8 c -1,2 -7,3 -7,3 c 0,-9 4,-11 4,-11 Z" fill="#99AAB5"/>
	<path d="M 32,8.05 s 4,2 4,11 c 0,0 -6,-1 -7,-3 c 0,0 -2,-12.25 3,-8 Z" fill="#99AAB5"/>
	
	<path d="M 1,1 c 2,-2 4,4 8,4 c 1,0 1,6 -3,5 s -6,-8 -5,-9 Z" fill="#FFE8B6"/>
	<path d="M 35.297,1 c 1,1 -1,8 -5,9 s -4,-5 -3,-5 c 4,0 6,-6 8,-4 Z" fill="#FFE8B6"/>
	
	<rect x="4" y="2" width="28" height="29" rx="10.0245"  fill="#CCD6DD"/>
		<path d="M 11,12 s 0,-2 2,-2 s 2,2 2,2 v2 s 0,2 -2,2 s -2,-2 -2,-2 v-2 Z" fill="#272B2B"/>
	<path d="M 21,12 s 0,-2 2,-2 s 2,2 2,2 v2 s 0,2 -2,2 s -2,-2 -2,-2 v-2 Z" fill="#272B2B"/>
	
	<path d="M 35,28 c 0,5.522 -4.478,8 -10,8 h-14 c -5.522,0 -10,-2.478 -10,-8 a 10,10 0 01 10,-10 h14 a 10,10 0 01 10,10 Z" fill="#E6AAAA"/>
	
	<ellipse fill="#C1694F" cx="9.5" cy="26" rx="1.5" ry="3"/>
	<ellipse fill="#C1694F" cx="26.5" cy="26" rx="1.5" ry="3"/>
</svg>
