<svg xmlns="http://www.w3.org/2000/svg" viewBox="0 0 36 36">
	this is all symmetrical, i assume
	
	legs:
	<g fill="#a0041e">
		<path d="M 6.9604,20.6367 c 0.068,0.639 -0.543,1.228 -1.368,1.315 c -0.823,0.089 -1.547,-0.357 -1.615,-0.995 s 0.544,-1.226 1.368,-1.314 c 0.823,-0.089 1.547,0.356 1.615,0.994 Z"/>
		<path d="M 9.0469,23.3545 c 0.125,0.818 -1.756,2.544 -2.576,2.669 c -0.819,0.125 -1.584,-0.438 -1.708,-1.257 c -0.125,-0.818 0.579,-1.139 1.398,-1.264 c 0.82,-0.125 2.761,-0.966 2.886,-0.148 Z"/>
		<path d="M 10.8301,25.458 c 0.173,0.81 -1.628,3.927 -2.438,4.1 c -0.811,0.173 -1.645,0.145 -1.817,-0.665 c -0.173,-0.81 0.305,-1.688 1.115,-1.862 c 0.811,-0.173 2.967,-2.383 3.14,-1.573 Z"/>
		<path d="M 14.6831,26.3164 c 0.165,0.811 -1.338,4.354 -2.15,4.519 s -1.439,0.451 -1.604,-0.361 c -0.165,-0.811 0.261,-1.974 1.006,-2.58 c 0.643,-0.522 2.583,-2.39 2.748,-1.578 Z"/>
		<path d="M 3.9253,18.8691 c 0.607,0.715 1.18,1.23 0.464,1.835 c -0.715,0.606 -1.747,0.162 -2.353,-0.554 c -0.605,-0.715 -2.239,-3.42 -1.524,-4.025 c 0.716,-0.606 2.808,2.029 3.413,2.744 Z"/>
		<path d="M 4.2549,23.749 c 0.892,0.295 1.857,0.801 1.563,1.691 c -0.294,0.891 -1.328,0.992 -2.219,0.699 c -0.889,-0.295 -3.772,-1.692 -3.478,-2.581 c 0.295,-0.891 3.244,-0.103 4.134,0.191 Z"/>
		<path d="M 5.4692,28.2813 c 0.905,-0.253 1.907,-0.283 2.159,0.619 c 0.252,0.903 -0.283,1.535 -1.186,1.787 c -0.903,0.251 -4.343,0.727 -4.594,-0.177 c -0.252,-0.904 2.718,-1.979 3.621,-2.229 Z"/>
		<path d="M 9.8174,31.4688 c 0.084,-0.937 0.644,-1.669 1.577,-1.585 c 0.934,0.085 1.258,1.025 1.173,1.96 c -0.084,0.934 0.147,3.563 -1.715,4.016 c -0.912,0.221 -1.121,-3.459 -1.035,-4.391 Z"/>
	</g>
	<g fill="#a0041e">
		<path d="M 29.04,20.6367 c 0.068,-0.638 0.791,-1.083 1.615,-0.994 c 0.823,0.088 1.436,0.676 1.367,1.314 c -0.068,0.638 -0.791,1.084 -1.615,0.995 c -0.824,-0.087 -1.435,-0.676 -1.367,-1.315 Z"/>
		<path d="M 26.9531,23.3545 c 0.125,-0.818 2.066,0.023 2.886,0.148 c 0.818,0.125 1.523,0.446 1.398,1.264 c -0.125,0.819 -0.889,1.382 -1.709,1.257 c -0.818,-0.125 -2.7,-1.851 -2.575,-2.669 Z"/>
		<path d="M 25.1699,25.458 c 0.173,-0.81 2.329,1.4 3.14,1.573 c 0.81,0.174 1.289,1.052 1.115,1.862 c -0.172,0.81 -1.006,0.838 -1.817,0.665 c -0.81,-0.173 -2.611,-3.29 -2.438,-4.1 Z"/>
		<path d="M 21.3174,26.3164 c 0.164,-0.812 2.104,1.056 2.747,1.578 c 0.745,0.606 1.171,1.769 1.007,2.58 c -0.166,0.812 -0.792,0.526 -1.605,0.361 c -0.811,-0.165 -2.315,-3.708 -2.149,-4.519 Z"/>
		<path d="M 32.0752,18.8691 c 0.605,-0.715 2.697,-3.35 3.412,-2.744 c 0.716,0.605 -0.918,3.31 -1.523,4.025 c -0.607,0.716 -1.638,1.16 -2.354,0.554 c -0.715,-0.605 -0.142,-1.12 0.465,-1.835 Z"/>
		<path d="M 31.7451,23.749 c 0.89,-0.294 3.84,-1.082 4.134,-0.191 c 0.294,0.889 -2.589,2.286 -3.478,2.581 c -0.89,0.293 -1.926,0.192 -2.218,-0.699 c -0.295,-0.89 0.67,-1.396 1.562,-1.691 Z"/>
		<path d="M 30.5303,28.2813 c 0.903,0.25 3.873,1.325 3.621,2.229 c -0.251,0.904 -3.691,0.428 -4.594,0.177 c -0.903,-0.252 -1.437,-0.884 -1.185,-1.787 c 0.252,-0.902 1.254,-0.872 2.158,-0.619 Z"/>
		<path d="M 26.1826,31.4688 c 0.086,0.932 -0.123,4.612 -1.035,4.391 c -1.862,-0.453 -1.631,-3.082 -1.715,-4.016 c -0.085,-0.935 0.238,-1.875 1.173,-1.96 c 0.932,-0.084 1.493,0.648 1.577,1.585 Z"/>
	</g>
	claws:
	<g fill="#a0041e">
		<path d="M 3.1484,13.8779 c -0.383,-0.856 0.001,-1.86 0.857,-2.242 c 0.856,-0.383 1.86,0.001 2.243,0.858 c 0.381,0.855 2.651,5.612 1.796,5.993 c -0.857,0.383 -4.514,-3.754 -4.896,-4.609 Z"/>
		<path d="M 3.9937,12.0342 c -0.843,-2.042 5.869,-5.994 6.922,-7.475 c 1.331,-1.871 0.802,-3.605 1.187,-3.306 c 0.386,0.299 1.156,1.561 0.694,4.5 c -0.462,2.94 -7.582,9.237 -8.803,6.281 Z"/>
	</g>
	<g fill="#a0041e">
		<path d="M 32.8516,13.8779 c -0.382,0.855 -4.039,4.992 -4.895,4.609 c -0.856,-0.381 1.413,-5.138 1.794,-5.993 c 0.383,-0.857 1.387,-1.241 2.244,-0.858 c 0.856,0.382 1.241,1.386 0.857,2.242 Z"/>
		<path d="M 32.0068,12.0342 c -1.222,2.956 -8.341,-3.341 -8.804,-6.281 c -0.461,-2.939 0.309,-4.201 0.695,-4.5 c 0.385,-0.299 -0.144,1.435 1.186,3.306 c 1.054,1.481 7.766,5.433 6.923,7.475 Z"/>
	</g>
	claw jaws:
	<g fill="#be1931">
		<path d="M 4.3228,12.2227 c -3.152,0.543 -0.357,-8.141 1.883,-10.099 s 4.657,-1.917 5.115,-1.75 c 0.459,0.167 -1.174,2.595 -1.75,4.178 c -0.293,0.803 -3.072,7.296 -5.248,7.671 Z"/>
	</g>
	<g fill="#be1931">
		<path d="M 31.6768,12.2227 c -2.176,-0.375 -4.954,-6.868 -5.247,-7.671 c -0.576,-1.583 -2.209,-4.011 -1.75,-4.178 s 2.875,-0.208 5.115,1.75 s 5.034,10.642 1.882,10.099 Z"/>
	</g>
	
	body:
	<g fill="#be1931">
		<path d="M 6,22 c 0,-2 2,-10 12,-10 s 12,8 12,10 c -5,3 -5.373,7 -12,7 s -6,-4 -12,-7 Z"/>
	</g>
	light spots:
	<g fill="#dd2e44">
		<path d="M 9.0527,21.5293 c -0.14,0.235 -3.053,0.731 -2.303,-0.731 c 0.75,-1.463 2.443,0.497 2.303,0.731 Z"/>
		<path d="M 9.8906,20.124 c -0.218,0.225 -3.188,0.391 -1.922,-1.404 c 1.266,-1.793 2.234,1.082 1.922,1.404 Z"/>
		<path d="M 11.6567,18.6602 c -0.378,0.231 -3.471,-0.501 -1.407,-1.932 c 1.872,-1.297 1.907,1.626 1.407,1.932 Z"/>
		<path d="M 14.1021,17.4268 c -1.008,0.299 -3.378,-1.302 -0.881,-2.141 c 2.498,-0.839 1.889,1.842 0.881,2.141 Z"/>
	</g>
	<g fill="#dd2e44">
		<path d="M 26.8564,21.5293 c -0.141,-0.234 1.553,-2.194 2.303,-0.731 c 0.75,1.462 -2.162,0.966 -2.303,0.731 Z"/>
		<path d="M 26.0186,20.124 c -0.312,-0.322 0.656,-3.197 1.922,-1.404 c 1.266,1.795 -1.704,1.629 -1.922,1.404 Z"/>
		<path d="M 24.2529,18.6602 c -0.5,-0.306 -0.466,-3.229 1.406,-1.932 c 2.065,1.431 -1.028,2.163 -1.406,1.932 Z"/>
		<path d="M 21.8076,17.4268 c -1.009,-0.299 -1.617,-2.98 0.881,-2.141 c 2.497,0.839 0.127,2.44 -0.881,2.141 Z"/>
	</g>
	<path d="M 10.7935,24.4326 c 0,-0.414 1.782,2.25 7.207,2.25 s 7.208,-2.664 7.208,-2.25 s -2.245,3.75 -7.208,3.75 s -7.207,-3.336 -7.207,-3.75 Z" fill="#dd2e44"/>
	
	<g>
		<path d="M 26.8486,16.25 c 0,0.414 -2.188,-2.25 -8.849,-2.25 c -6.66,0 -8.848,2.664 -8.848,2.25 s 2.755,-3.75 8.848,-3.75 c 6.094,0 8.849,3.336 8.849,3.75 Z" fill="#a0041e"/>
	</g>
	eye stalks:
	<g>
		<path d="M 17.0317,12.1362 c 0.335,1.339 -0.045,1.588 -0.849,1.789 s -1.726,0.278 -2.061,-1.061 c -0.335,-1.34 0.045,-2.589 0.848,-2.79 c 0.805,-0.201 1.727,0.722 2.062,2.062 Z" fill="#a0041e"/>
	</g>
	<g>
		<path d="M 21.8779,12.8638 c -0.335,1.34 -1.258,1.262 -2.061,1.061 c -0.804,-0.2 -1.184,-0.449 -0.849,-1.789 c 0.335,-1.339 1.258,-2.262 2.061,-2.061 c 0.804,0.201 1.184,1.45 0.849,2.789 Z" fill="#a0041e"/>
	</g>
	
	eyes:
	<circle r="1.5" cx="14.5" cy="9.5" fill="#292f33"/>
	<circle r="1.5" cx="21.5" cy="9.5" fill="#292f33"/>
</svg>
