<svg xmlns="http://www.w3.org/2000/svg" viewBox="0 0 36 36">
	<rect x="0" y="5" width="36" height="26" rx="4"  fill="#FFAC33"/>
	<path d="M 0,10 h36 v5 h-36 v-5 Z"  fill="#292F33"/>
	<path d="M 4,19 h28 v6 h-28 v-6 Z"  fill="#F4F7F9"/>
	<!-- i could probably decypher this path but like nnhhh -->
	<!-- <path d="M 6,23 s 1.5,-2 4,-2 c 2,0 0.1,2 2,2" stroke-width="2" fill="none" stroke="#FFF" stroke-linecap="round" stroke-linejoin="round"/>  MAYBE  something like this. -->
	<path d="M 19,24 c -1.703,0 -2.341,-1.21 -2.469,-1.801 c -0.547,0.041 -1.08,0.303 -1.805,0.764 c -0.765,0.486 -1.632,1.037 -2.726,1.037 c -1.197,0 -1.924,-0.675 -2,-2 c -0.003,-0.056 0.038,-0.188 0.021,-0.188 c -1.858,0 -3.202,1.761 -3.215,1.779 c -0.195,0.267 -0.499,0.409 -0.806,0.409 c -0.206,0 -0.413,-0.063 -0.591,-0.194 c -0.445,-0.327 -0.542,-0.953 -0.215,-1.398 c 0.077,-0.105 1.916,-2.408 4.806,-2.408 c 1.937,0 2.048,1.375 2.078,1.888 l 0.007,0.109 c 0.486,-0.034 0.991,-0.354 1.57,-0.723 c 0.961,-0.61 2.153,-1.371 3.75,-0.962 c 0.871,0.223 1.007,1.031 1.059,1.336 c 0.013,0.076 0.032,0.19 0.049,0.226 c 0.007,0 0.146,0.091 0.577,0.13 c 0.82,0.075 1.721,-0.279 2.675,-0.653 c 0.988,-0.388 2.01,-0.788 3.111,-0.788 c 3.389,0 4.767,1.635 4.913,1.821 c 0.34,0.435 0.264,1.063 -0.171,1.403 c -0.175,0.137 -0.381,0.207 -0.587,0.213 c -0.307,0.009 -0.613,-0.123 -0.817,-0.384 c -0.024,-0.027 -0.93,-1.054 -3.337,-1.054 c -0.723,0 -1.528,0.315 -2.381,0.649 c -1.009,0.396 -2.434,0.789 -3.496,0.789 Z"  fill="#8899A6"/>
</svg>
