<!--<svg xmlns="http://www.w3.org/2000/svg" viewBox="0 0 36 36">
aw the original colors were cuter..
<path d="M 30.3115,0.7764 c 1.688,18.224 -10.312,31.224 -29.535,29.536 c 8.199,7.717 21.091,7.588 29.107,-0.429 c 8.017,-8.016 8.147,-20.909 0.428,-29.107 Z" fill="#ccd6dd"/>
		<path d="M 30.7051,15.915 c -0.453,0.454 -0.453,1.189 0,1.644 c 0.454,0.453 1.189,0.453 1.644,0 c 0.454,-0.455 0.455,-1.19 0,-1.644 s -1.19,-0.454 -1.644,0 Z" fill="#b8c5cd"/>
		<path d="M 14.6831,30.2949 c -0.682,0.681 -0.682,1.783 0,2.465 c 0.68,0.681 1.784,0.681 2.464,0 c 0.681,-0.682 0.681,-1.784 0,-2.465 c -0.68,-0.682 -1.784,-0.682 -2.464,0 Z" fill="#b8c5cd"/>
		<path d="M 28.6514,28.1484 c -1.135,1.135 -2.974,1.135 -4.108,0 c -1.135,-1.135 -1.135,-2.975 0,-4.107 c 1.134,-1.136 2.973,-1.136 4.108,0 c 1.135,1.132 1.135,2.972 0,4.107 Z" fill="#b8c5cd"/>
</svg>


todo: unrotate 45 degrees and scale by about 0.86
-->

<svg xmlns="http://www.w3.org/2000/svg" viewBox="0 0 36 36">
	<path d="M 30.312,0.776 c 7.718,8.199 7.588,21.091 -0.429,29.107 c -8.016,8.017 -20.908,8.146 -29.107,0.429 c 19.224,1.688 31.224,-11.312 29.536,-29.536 Z"  fill="#FFD983"/>
	<path d="M 30.705,15.915 c 0.454,-0.454 1.19,-0.454 1.643,0 c 0.455,0.454 0.454,1.189 0,1.644 c -0.454,0.453 -1.189,0.453 -1.643,0 c -0.453,-0.455 -0.453,-1.19 0,-1.644 Z"  fill="#FFCC4D"/>
	<path d="M 14.683,30.295 c 0.68,-0.682 1.784,-0.682 2.464,0 c 0.681,0.681 0.681,1.783 0,2.465 c -0.68,0.682 -1.784,0.682 -2.464,0 c -0.682,-0.682 -0.682,-1.784 0,-2.465 Z"  fill="#FFCC4D"/>
	<path d="M 28.651,28.148 c -1.135,1.135 -2.974,1.135 -4.108,0 c -1.135,-1.135 -1.135,-2.975 0,-4.107 c 1.135,-1.136 2.974,-1.136 4.108,0 c 1.135,1.133 1.135,2.973 0,4.107 Z"  fill="#FFCC4D"/>
</svg>
