<svg xmlns="http://www.w3.org/2000/svg" viewBox="0 0 36 36">
	<path d="M 35.538,26.679 s 1.328,2.214 -2.658,6.201 c -3.987,3.986 -6.201,2.658 -6.201,2.658 l -19.494,-19.492 s 0.977,-2.748 3.544,-5.316 c 2.568,-2.567 5.316,-3.544 5.316,-3.544 l 19.493,19.493 Z"  fill="#D99E82"/>
	<path d="M 13.388,9.844 c 0.979,0.979 4.522,6.109 3.544,7.088 c -0.979,0.978 -6.109,-2.565 -7.088,-3.544 l -8.86,-8.86 a 2.506,2.506 0 01 3.544,-3.544 l 8.86,8.86 Z"   fill="#C1694F"/>
	<path d="M 0.983,4.528 l 3.545,-3.544 l 5.316,5.316 l -3.544,3.544 l -5.317,-5.316 Z"  fill="#292F33"/>
	<circle fill="#BE1931" cx="19" cy="31" r="5"/>
	<rect x="18" y="26" width="2" height="10" rx="1"  fill="#662113"/>
</svg>
