<svg xmlns="http://www.w3.org/2000/svg" viewBox="0 0 36 36">
	back legs
	<g fill="#3e721d">
		<path d="M 19,32 c 0,1 -1.723,3 -3.334,3 c -1.61,0 -1.666,-1.343 -1.666,-3 a 2.916,3 0 01 2.916,-3 c 1.611,0 2.084,1.343 2.084,3 Z"/>
		<path d="M 30,32 c 0,1 -1.723,3 -3.334,3 c -1.61,0 -1.666,-1.343 -1.666,-3 a 2.916,3 0 01 2.916,-3 c 1.611,0 2.084,1.343 2.084,3 Z"/>
	</g>
	body, legs
	<g fill="#5c913b">
		<!-- <path d="M 36,25 c 0,-6 -3.172,-9.171 -6,-12 c -1,-1 -1.399,0.321 -1,1 c 0.508,0.862 3,8 -2,8 h-2 c -5,0 -6.172,-1.172 -9,-4 c -4.5,-4.5 -7,0 -9,0 c -6,0 -7,-1.813 -7,2 c 0,3 3,4 6,4 s 3,1 5,4 c 1.071,1.606 2.836,3.211 5.023,4.155 c 0.232,1.119 2.774,3.845 4.311,3.845 c 1.61,0 1.666,-1.343 1.666,-3 h5 c 0.034,0 0.066,-0.01 0.101,-0.01 c 0.291,0.005 0.586,0.01 0.899,0.01 c 0,1 1.723,3 3.334,3 c 1.61,0 1.666,-1.343 1.666,-3 c 0,-0.302 -0.057,-0.587 -0.137,-0.861 c 1.749,-0.946 3.137,-2.93 3.137,-7.139 Z" fill="#5c913b"/> original -->
		NOT PERFECT:
		<path d="M 16,32 c 0,-1.657 1.473,-2 3.084,-2 a 2.916,3 0 01 2.916,3 c 0,1.657 -0.056,3 -1.666,3 c -1.611,0 -4.334,-3 -4.334,-4 Z"/> ok
		<path d="M 28,33 c 0,-1.657 0.473,-3 2.084,-3 a 2.916,3 0 01 2.916,3 c 0,1.657 -0.056,3 -1.666,3 c -1.611,0 -3.334,-2 -3.334,-3 Z"/> something strange going on with back of this leg
		<path d="M 36,25 c 0,4.209 -1.388,6.193 -3.137,7.139 s -4.863,0.861 -4.863,0.861 h-8.333 c -3,0 -6.667,-2 -8.667,-5 s -2,-4 -5,-4 s -6,-1 -6,-4 c 0,-3.813 1,-2 7,-2 c 2,0 4.5,-4.5 9,0 c 2.828,2.828 4,4 9,4 h2 c 5,0 2.508,-7.138 2,-8 c -0.399,-0.679 0,-2 1,-1 c 2.828,2.829 6,6 6,12 Z"/> ehh.. close but.. m..
	</g>
	scales
	<g fill="#77b255">
		<ellipse rx="1.5" ry="1" cx="27.5" cy="24"/>
		<ellipse rx="1.5" ry="1" cx="23.5" cy="24"/>
		<ellipse rx="1.5" ry="1" cx="19.5" cy="24"/>
		<ellipse rx="1.5" ry="1" cx="21.5" cy="26"/>
		<ellipse rx="1.5" ry="1" cx="25.5" cy="26"/>
	</g>
	eye
	<path d="M 10,18.123 c 0,-0.829 0.671,0 1.5,0 s 1.5,-0.829 1.5,0 a 1.5,1.5 0 01 -3,0 Z" fill="#292f33"/>
	teeth
	<g fill="#ffffff">
		<path d="M 7,21 s -0.611,1 -1,1 s -1,-1 -1,-1 h2 Z"/>
		<path d="M 5,21 s -0.611,1.469 -1,1.469 s -1,-1.469 -1,-1.469 h2 Z"/>
		<path d="M 3,21 s -0.611,2 -1,2 s -1,-2 -1,-2 h2 Z"/>
	</g>
</svg>
