<svg xmlns="http://www.w3.org/2000/svg" viewBox="0 0 36 36">
	note: nonstandard colors
	<defs>
		<clipPath id="clip1">
			<path d="M 11.5693,35.4102 c -2.223,-0.63 -5.362,-4.11 -6.86,-7.331 c -0.182,-0.391 -1.101,-0.673 -1.265,-1.084 c -2.492,-6.22 -2.808,-14.455 2.897,-20.161 c 6.41,-6.409 14.196,-7.129 20.475,-5.076 c 0.45,0.147 0.837,1.113 1.286,1.198 c 5.917,1.115 8.322,7.549 5.759,6.817 c -1.199,-0.343 -2.657,-0.557 -3.814,-0.428 c -0.437,0.048 -1.051,0.891 -1.544,0.961 c -0.768,0.11 -2.64,0.212 -3.565,0.305 c -9.159,0.916 -12.395,6.971 -12.81,14.256 c -0.046,0.808 -0.617,0.623 -0.731,1.283 c -0.344,1.992 1.089,4.884 1.772,6.94 c 0.596,1.793 0.621,2.95 -1.6,2.32 Z"/>
		</clipPath>
	</defs>
	
	<g clip-path="url(#clip1)">
		<circle r="999" fill="#f4900c"/>
		<path d="M 0.894,17.7046 s -1.973,-4.63 0.686,-7.074 s 9.732,0.129 12.99,0.901 c 3.258,0.771 11.232,11.596 2.829,6.987 c -8.831,-4.844 -13.462,-2.786 -16.505,-0.814 Z" fill="#db7803"/>
		<path d="M 3.4663,27.8223 c 1.543,-1.458 3.293,-3.902 8.91,-2.573 c 6.518,1.544 2.751,1.93 0.178,1.502 c -2.572,-0.43 -6.13,0.342 -8.445,1.971 s -0.643,-0.9 -0.643,-0.9 Z" fill="#db7803"/>
		<path d="M 27.0322,1.2847 c -0.055,-0.117 -1.489,-2.13 0.729,0.257 c 2.282,2.457 3.142,7.331 2.114,9.089 c -0.802,1.37 -2.959,3.601 -1.457,0.215 c 1.501,-3.387 -0.358,-7.332 -1.386,-9.561 Z" fill="#db7803"/>
	</g>
	<path d="M 2.0381,14.915 c -0.955,-3.252 0.381,-12.621 12.621,-14.915 c 2.133,0 10.133,1.272 6.526,16.257 c -0.559,2.325 -1.796,2.739 -3.562,1.605 c -4.125,-2.648 -11.601,-7.099 -15.585,-2.947 Z" fill="#ffac33"/>
</svg>
