<svg xmlns="http://www.w3.org/2000/svg" viewBox="0 0 36 36">
	<!-- scaled 0.92366×, rotated 13.92° -->
	<path d="M 2.27,18.187 l -2,-8.069 c -0.491,-1.98 0.043,-2.865 2.023,-3.356 l 11.655,-2.888 l 3.333,13.448 l -11.655,2.887 c -1.981,0.492 -2.865,-0.041 -3.356,-2.022 Z"  fill="#E8EAEB"/>
	<path d="M 33.73,18.187 c -0.491,1.981 -1.376,2.514 -3.356,2.022 l -11.654,-2.887 l 3.332,-13.448 l 11.655,2.888 c 1.979,0.491 2.515,1.376 2.023,3.356 l -2,8.069 Z"  fill="#E8EAEB"/>
	
	<circle r="3.233" cx="27.110" cy="12.264" fill="#BE1931"/>
	<circle r="3.233" cx="8.891" cy="12.264" fill="#BE1931"/>
	
	<path d="M 22.604,2.762 L 14.996,33.68 A 0.923,0.923 0 01 13.203,33.239 L 20.811,2.32 A 0.923,0.923 0 01 22.604,2.762 Z"  fill="#66757F"/>
	<path d="M 15.19,2.32 L 22.797,33.238 A 0.923,0.923 0 01 21.004,33.68 L 13.396,2.762 A 0.923,0.923 0 01 15.19,2.32 Z"  fill="#66757F"/>
</svg>
