<svg xmlns="http://www.w3.org/2000/svg" viewBox="0 0 36 36">
	TODO: these were scaled 0.92366×, rotated 13.9°
	<path d="M 2.2699,18.1868 c 0.491,1.982 1.375,2.514 3.356,2.023 l 11.655,-2.888 l -3.333,-13.447 l -11.655,2.887 c -1.98,0.491 -2.514,1.376 -2.023,3.357 l 2,8.068 Z" fill="#E6E7E8"/>
	<path d="M 33.7299,18.1868 c -0.491,1.982 -1.376,2.514 -3.356,2.023 l -11.655,-2.888 l 3.332,-13.447 l 11.656,2.887 c 1.979,0.491 2.514,1.376 2.023,3.357 l -2,8.068 Z" fill="#E6E7E8"/> i changed the flag color from #e8eaeb (perhaps #E1E8ED or #EEEEEE would be better?)
	
	<circle r="3.2326" transform="translate(8.89065,12.2642) rotate(-13.917)" fill="#be1931"/>
	<circle r="3.2326" transform="translate(27.10975,12.2642) rotate(13.917)" fill="#be1931"/>
	
	<path d="M 21.9003,33.4591 L 14.2928,2.5406" stroke-width="1.84607" stroke-linecap="round" fill="none" stroke="#66757f"/>
	<path d="M 14.099,33.4591 L 21.7075,2.5406" stroke-width="1.84607" stroke-linecap="round" fill="none" stroke="#66757f"/>
</svg>
