<svg xmlns="http://www.w3.org/2000/svg" viewBox="0 0 36 36">
	<g fill="#F4900C">
		<path d="M 14.1738,17.0752 l -7.424,-9.481 l -3.722,9.481 h11.146 Z"/>
		<ellipse rx="1.1915" ry="1.191" cx="6.75" cy="7.5937"/>
		<path d="M 17.9375,5.5337 l -6.562,12.389 h13.124 l -6.562,-12.389 Z"/>
		<circle r="1.784" cx="17.9378" cy="5.5337"/>
		<path d="M 21.8262,17.0752 l 7.424,-9.481 l 3.722,9.481 h-11.146 Z"/>
		<ellipse rx="1.1915" ry="1.191" cx="29.25" cy="7.5937"/>
	</g>
	
	<g fill="#FFCC4D">
		<path d="M 28.669,15.19 c 3.135,-4.357 6.051,-7.149 6.051,-7.149 s -1.72,12.709 -1.72,24.959 h-30 c 0,-12.25 -1.72,-24.959 -1.72,-24.959 s 2.916,2.792 6.051,7.149 l 4.782,-11.668 l 5.887,11.672 l 5.887,-11.672 l 4.782,11.668 Z"/>
		<circle r="1.407" cx="1.4465" cy="8.0415"/>
		<ellipse rx="1.7835" ry="1.784" cx="12.1135" cy="3.5225"/>
		<ellipse rx="1.7835" ry="1.784" cx="23.887" cy="3.5225"/>
		<circle r="1.407" cx="34.5535" cy="8.0415"/>
	</g>
	
	<g fill="#FFAC33">
		<rect width="32" height="2" rx="1" x="2" y="32"></rect>
		<rect width="32" height="2" rx="1" x="2" y="28.5137"></rect>
	</g>
	
	<g>
		<circle r="3.688" cx="17.9565" cy="22" fill="#5C913B"/>
		<ellipse rx="2.412" ry="2.4115" cx="9.4501" cy="21.9995" fill="#981CEB"/>
		<circle r="2.4115" cx="26.4635" cy="22" fill="#981CEB"/>
		
		<ellipse rx="1.986" ry="1.9855" cx="3.0612" cy="22" fill="#DD2E44"/>
		<ellipse rx="1.9865" ry="1.9855" cx="32.8514" cy="22" fill="#DD2E44"/>
	</g>
</svg>
