<svg xmlns="http://www.w3.org/2000/svg" viewBox="0 0 36 36">
	<g> <!--  transform="translate(0 36) rotate(-45) translate(1.8696 0)" -->
	<rect width="6.5" height="2" rx="0.5" x="3" y="-1" fill="#CCD6DD"/>
	<path d=" M
41,4
 L
23.6,4
 A 11.353,11.353 0 01
19.36482,3.18481
 L
16.40416,2
 L
9.51835,2
 A 1.518,1.518 0 01
8,0.48295
 L
8,-0.48225
 A 1.518,1.518 0 01
9.51765,-2
 L
16.40345,-2
 L
19.36411,-3.1841
 A 11.341,11.341 0 01
23.59897,-4
 L
41,-4
 A 0.5,0.5 0 01
41,-3
 L
23.6,-3
 C 22.27032,-3 20.96924,-2.74994
19.73605,-2.25638
 L
18.07859,-1.59311
 A 1.716,1.716 0 00
18.07859,1.59311
 L
19.73605,2.25638
 A 10.368,10.368 0 00
23.6,3
 L
41,3
 A 0.5,0.5 0 01
41,4
 Z" fill="#8899A6"/>
<path d="M 4,0.3 l -2.6,1.2 h-0.9 v-3 h0.9 l 2.6,1.2 v0.6 Z" stroke-width="1" stroke-linejoin="round" fill="#8899A6" stroke="#8899A6"/>
	<path d=" M
27.83242,-3
 A 2,2 0 00
27.90808,-1.36047
 A 3,3 0 01
28.23194,0
 A 3,3 0 01
27.90808,1.36047
 A 2,2 0 00
27.83242,3
 L
26.16648,3
 A 2,2 0 00
26.09082,1.36047
 A 3,3 0 01
25.76696,0
 A 3,3 0 01
26.09082,-1.36047
 A 2,2 0 00
26.16648,-3
 L
27.83242,-3
 Z" fill="#FFAC33"/>
	<path d=" M
40.38357,5.61938
 A 8.388,8.388 0 01
39.5011,1.8802
 L
39.5011,-1.88161
 A 8.411,8.411 0 01
40.38357,-5.62079
 A 1.5,1.5 0 11
43.06633,-4.2787
 C 42.69651,-3.53836 42.5,-2.70893
42.5,-1.88161
 L
42.5,1.8802
 A 5.394,5.394 0 00
43.06633,4.27729
 A 1.5,1.5 0 01
40.38357,5.61938
Z" fill="#FFAC33"/>
	</g>
	39.5011,1.880905
	40.38357,5.620085
	
	0.88247,3.73918
	outer=8.363015384828946026493818486747425
	r = (2v)^2 / 8*h + h/2
</svg>

