<svg xmlns="http://www.w3.org/2000/svg" viewBox="0 0 36 36">
	<g transform="translate(0 36) rotate(-45) translate(1.8696 0)">
	<rect width="6.5" height="2" rx="0.5" x="3" y="-1" fill="#CCD6DD"/>
	<path d=" M
41,4
 L
23.6,4
 A 11.353,11.353 0 01
19.36482,3.18481
 L
16.40416,2
 L
9.51835,2
 A 1.518,1.518 0 01
8,0.48295
 L
8,-0.48225
 A 1.518,1.518 0 01
9.51765,-2
 L
16.40345,-2
 L
19.36411,-3.1841
 A 11.341,11.341 0 01
23.59897,-4
 L
41,-4
 A 0.5,0.5 0 01
41,-3
 L
23.6,-3
 C 22.27032,-3 20.96924,-2.74994
19.73605,-2.25638
 L
18.07859,-1.59311
 A 1.716,1.716 0 00
18.07859,1.59311
 L
19.73605,2.25638
 A 10.368,10.368 0 00
23.6,3
 L
41,3
 A 0.5,0.5 0 01
41,4
 Z" fill="#8899A6"/>
<path d="M 4,0.3 l -2.6,1.2 h-0.9 v-3 h0.9 l 2.6,1.2 v0.6 Z" stroke-width="1" stroke-linejoin="round" fill="#8899A6" stroke="#8899A6"/>
	<path d=" M
27.83242,-3
 A 2,2 0 00
27.90808,-1.36047
 A 3,3 0 01
28.23194,0
 A 3,3 0 01
27.90808,1.36047
 A 2,2 0 00
27.83242,3
 L
26.16648,3
 A 2,2 0 00
26.09082,1.36047
 A 3,3 0 01
25.76696,0
 A 3,3 0 01
26.09082,-1.36047
 A 2,2 0 00
26.16648,-3
 L
27.83242,-3
 Z" fill="#FFAC33"/> -todo: this layer ends up with gaps around it. we need to connect it better
	
	40.38357,5.620085
	43.06633,4.277995
	
	41.72495,4.94904
	
	<g stroke-width="3" stroke-linecap="round" stroke="#FFAC33" fill="none">
	<path d="M 41.725,-4.949 A 6.8596,6.8596 0 00 41,-1.881 L 41,0 v 1.881 A 6.8596,6.8596 0 00 41.725,4.949"/>
	</g>
	</g>
	39.5011,1.880905
	40.38357,5.620085
	
	0.88247,3.73918
	outer=8.363015384828946026493818486747425
	
	43.06633,4.277995
	42.5,1.880905
	
	0.56633,2.39709
	
	inner = 5.35621469549555912630445146822524
	
	original stroke radius = 6.85961504016225257639913497748633
	+- 1.5 gives:
	5.35961504016225257639913497748633
	8.35961504016225257639913497748633
	somewhat close to the calculated values, i suppose.
	
	r = (2v)^2 / 8*h + h/2
</svg>

