<svg xmlns="http://www.w3.org/2000/svg" viewBox="0 0 36 36">
	<rect width="6.5" height="2" rx="0.5" x="3" y="-1" fill="#CCD6DD"/>
	<path d=" M
41,4
 L
23.59968,4
 A 11.353,11.353 45 01
19.36482,3.18481
 L
16.40416,2
 L
9.51835,2
 A 1.518,1.518 45 01
8,0.48295
 L
8,-0.48225
 A 1.518,1.518 45 01
9.51765,-2
 L
16.40345,-2
 L
19.36411,-3.1841
 A 11.341,11.341 45 01
23.59897,-4
 L
41,-4
 A 0.5,0.5 45 01
41,-3
 L
23.59968,-3
 C 22.27032,-3 20.96924,-2.74994
19.73605,-2.25638
 L
18.07859,-1.59311
 A 1.716,1.716 45 00
18.07859,1.59311
 L
19.73605,2.25638
 A 10.368,10.368 45 00
23.59968,3
 L
41,3
 A 0.5,0.5 45 01
41,4
 Z" fill="#8899A6"/>
	<path d=" M
4.5,0.3
 A 0.504,0.504 45 01
4.2101,0.75519
 L
1.61007,1.95515
 A 0.502,0.502 45 01
1.4,2
 L
0.5,2
 A 0.5,0.5 45 01
-0,1.50119
 L
-0,-1.5
 A 0.5,0.5 45 01
0.5,-2
 L
1.4,-2
 A 0.497,0.497 45 01
1.61007,-1.95374
 L
4.2101,-0.75378
 A 0.497,0.497 45 01
4.5,-0.3
 L
4.5,0.29981
 Z" fill="#8899A6"/>
	<path d=" M
27.83242,-3
 C 27.62312,-2.47558 27.65211,-1.85121
27.90808,-1.36047
 C 28.07991,-1.03167 28.23194,-0.577
28.23194,0
 C 28.23194,0.577 28.07991,1.03167
27.90808,1.36047
 C 27.65211,1.85121 27.62241,2.47487
27.83242,3
 L
26.16648,3
 A 2.013,2.013 45 00
26.09082,1.36047
 A 2.911,2.911 45 01
25.76696,0
 A 2.911,2.911 45 01
26.09082,-1.36047
 A 2.01,2.01 45 00
26.16648,-3
 L
27.83242,-3
 Z" fill="#FFAC33"/>
	<path d=" M
40.66358,6.0097
 A 1.48,1.48 45 01
40.38357,5.61938
 A 8.388,8.388 45 01
39.5011,1.8802
 L
39.5011,-1.88161
 A 8.411,8.411 45 01
40.38357,-5.62079
 A 1.5,1.5 45 11
43.06633,-4.2787
 C 42.69651,-3.53836 42.5,-2.70893
42.5,-1.88161
 L
42.5,1.8802
 A 5.394,5.394 45 00
43.06633,4.27729
 A 1.5,1.5 45 01
40.66358,6.0097
 Z" fill="#FFAC33"/>
</svg>
