<svg xmlns="http://www.w3.org/2000/svg" viewBox="0 0 36 36">
	<!-- scaled, messy. bad -->
	<path d="M 28.736,28.767 l 1.675,4.911 c 0.063,0.187 0.102,0.387 0.073,0.582 c -0.145,0.984 -0.993,1.74 -2.017,1.74 h-20.894 c -1.024,0 -1.872,-0.756 -2.017,-1.74 c -0.028,-0.195 0.011,-0.395 0.073,-0.582 l 1.649,-4.835 l 21.458,-0.076 Z"  fill="#BF6952"/>
	<path d="M 28.736,28.767 c -2.943,2.392 -6.692,3.83 -10.78,3.83 c -4.042,0 -7.75,-1.41 -10.678,-3.754 l 0.216,-0.632 c 0.199,-0.598 0.759,-1.001 1.389,-1.001 h18.274 c 0.63,0 1.19,0.403 1.389,1.001 l 0.19,0.556 Z"  fill="#854836"/>
	
	<circle fill="#AA8DD8" cx="17.956" cy="15.488" r="15.288"/>
	
	<g transform="translate(19.071 12.37) scale(1.049)">
		<circle cx="-4" cy="6" r="3" fill="#744EAA"/>
		<circle cx="4" cy="0" r="4" fill="#744EAA"/>
		<circle cx="-3" cy="-7" r="2" fill="#744EAA"/>
	</g>
</svg>
