<svg xmlns="http://www.w3.org/2000/svg" viewBox="0 0 36 36">
	<path d="M 5,21.875 h26 s -1.589,5.727 -2,8.482 c -0.464,3.11 -3.571,5.571 -11,5.571 s -10.536,-2.46 -11,-5.571 c -0.411,-2.755 -2,-8.482 -2,-8.482 Z"  fill="#BBDDF5"/>
	<path d="M 18,35 L 18,26.354" stroke-linecap="round" fill="none" stroke-width="1" stroke="#88C9F9"/>
	<path d="M 11.301,33.7315 L 10.27,25.7495" stroke-linecap="round" fill="none" stroke-width="1" stroke="#88C9F9"/>
	<path d="M 14.4805,34.708 L 13.7725,26.187" stroke-linecap="round" fill="none" stroke-width="1" stroke="#88C9F9"/>
	<path d="M 8.5215,31.792 L 7.0215,24.354" stroke-linecap="round" fill="none" stroke-width="0.75" stroke="#88C9F9"/>
	<path d="M 24.62,33.619 L 25.75,25.75" stroke-linecap="round" fill="none" stroke-width="1" stroke="#88C9F9"/>
	<path d="M 21.578,34.708 L 22.286,26.187" stroke-linecap="round" fill="none" stroke-width="1" stroke="#88C9F9"/>
	<path d="M 27.562,31.833 L 29,24.354" stroke-linecap="round" fill="none" stroke-width="0.75" stroke="#88C9F9"/>
	
	
	<path d="M 5.094,21.969 h25.812 c -0.25,1.219 -0.694,1.994 -1.344,1.594 s -1.651,-0.193 -1.344,0.625 c 0.281,0.75 -0.969,1.094 -1.5,0.656 c -0.509,-0.42 -1.555,-0.881 -1.656,0.062 c -0.094,0.875 -1.167,1.11 -1.656,0.469 c -0.5,-0.656 -1.875,-0.394 -2.125,0.406 s -1.594,0.687 -1.969,0.125 c -0.355,-0.533 -0.712,-0.906 -1.312,-0.906 v0.021 c -0.599,0 -0.957,0.352 -1.312,0.885 c -0.375,0.563 -1.719,0.675 -1.969,-0.125 s -1.625,-1.062 -2.125,-0.406 c -0.488,0.641 -1.562,0.406 -1.656,-0.469 c -0.101,-0.943 -1.147,-0.481 -1.656,-0.062 c -0.531,0.438 -1.781,0.094 -1.5,-0.656 c 0.306,-0.818 -0.694,-1.025 -1.344,-0.625 s -1.094,-0.375 -1.344,-1.594 Z"  fill="#662113"/>
	<path d="M 33,18.969 c 0,4.031 -9,6.031 -15.033,6.031 s -15.033,-2.062 -15.033,-6.031 a 15.033,8.906 0 01 30.066,0 Z"   fill="#C1694F"/>
	
	<path d="M 16.912,-0.011 s 1.087,1.144 2.175,1.167 c 2.268,0.049 4.355,1.315 4.355,3.506 c 0,0 5.261,0 5.443,4.674 c 0,0 2.655,0.045 3.263,4.672 c 0.454,3.456 -3.038,8.227 -14.148,8.178 c -9.795,-0.043 -14.806,-3.524 -14.148,-8.176 c 0.634,-4.48 4.354,-4.673 4.354,-4.673 s -0.636,-5.843 6.529,-5.842 c 0,0 0.726,-2.337 2.177,-3.506 Z"  fill="#FFE8B6"/>
	<path d="M 17.91,10.504 c -4.127,1.558 -8.798,1.217 -9.703,-1.166 c 0,0 -0.166,-1.623 0.717,-3.159 l 0.007,-0.007 s -0.68,3.505 5.261,2.872 c 4.748,-0.506 9.042,-3.698 8.399,-6.506 c 0.525,0.557 0.852,1.267 0.852,2.125 c 0.09,2.726 -2.597,4.733 -5.533,5.841 Z"  fill="#FFCC4D"/>
	<path d="M 28.885,9.337 c 0.089,4.556 -11.357,14.82 -21.584,10.651 c -2.591,-1.467 -3.791,-3.561 -3.449,-5.976 c 0,0 3.355,4.671 11.654,3.065 c 6.367,-1.233 13.039,-6.556 11.93,-10.982 c 0.23,0.203 0.44,0.437 0.63,0.702 c 0.321,0.632 0.658,1.461 0.774,2.138 c 0.015,0.134 0.039,0.259 0.045,0.402 Z"  fill="#FFCC4D"/>
	
	<path d="M 7.882,13.61 L 6.701,15.224" stroke-linecap="round" fill="none" stroke-width="2" stroke="#DD2E44"/>
	<path d="M 15.1445,7.2095 L 13.1885,6.7905" stroke-linecap="round" fill="none" stroke-width="2" stroke="#55ACEE"/>
	<path d="M 15.6765,14.8295 L 16.9895,16.3385" stroke-linecap="round" fill="none" stroke-width="2" stroke="#77B255"/>
	<path d="M 24.0185,10.5635 L 22.1475,11.2705" stroke-linecap="round" fill="none" stroke-width="2" stroke="#F4900C"/>
	<path d="M 29.5,13.551 L 28.5,15.283" stroke-linecap="round" fill="none" stroke-width="2" stroke="#AA8DD8"/>
</svg>
