<svg xmlns="http://www.w3.org/2000/svg" viewBox="0 0 36 36">
	<g class="toodark">
		<path d="M 15.0679,14.2783 c 0,-4.719 -8.7,-4.411 -8.7,-7.261 c 0,-1.379 1.32,-2.052 2.85,-2.052 c 2.574,0 3.032,1.654 4.198,1.654 c 0.824,0 1.222,-0.522 1.222,-1.104 c 0,-1.352 -2.052,-2.378 -4.021,-2.732 v-1.307 c 0,-0.815 -0.659,-1.476 -1.474,-1.476 c -0.817,0 -1.477,0.661 -1.477,1.476 v1.353 c -2.147,0.489 -3.992,1.977 -3.992,4.404 c 0,4.532 8.699,4.349 8.699,7.532 c 0,1.103 -1.194,2.207 -3.155,2.207 c -2.941,0 -3.921,-1.992 -5.115,-1.992 c -0.582,0 -1.103,0.49 -1.103,1.231 c 0,1.17 1.965,2.581 4.667,2.975 c 0,0.002 -0.001,0.006 -0.001,0.01 v1.473 c 0,0.818 0.661,1.479 1.477,1.479 c 0.815,0 1.476,-0.661 1.476,-1.479 v-1.473 c 0,-0.018 -0.009,-0.031 -0.009,-0.047 c 2.431,-0.453 4.458,-2.039 4.458,-4.871 Z" fill="#292F33"/>
		<path d="M 23.8965,25.876 h-4.104 c -0.688,0 -1.227,-0.327 -1.227,-0.985 c 0,-0.661 0.539,-0.991 1.227,-0.991 h2.875 l -4.792,-7.399 c -0.297,-0.448 -0.449,-0.775 -0.449,-1.194 c 0,-0.571 0.571,-0.991 1.049,-0.991 c 0.481,0 0.958,0.21 1.378,0.839 l 5.36,8.058 l 5.363,-8.058 c 0.419,-0.629 0.897,-0.839 1.378,-0.839 c 0.477,0 1.046,0.42 1.046,0.991 c 0,0.419 -0.149,0.746 -0.449,1.194 l -4.792,7.399 h2.875 c 0.69,0 1.229,0.33 1.229,0.991 c 0,0.658 -0.539,0.985 -1.229,0.985 h-4.101 v2.126 h4.101 c 0.69,0 1.229,0.332 1.229,0.99 s -0.539,0.988 -1.229,0.988 h-4.101 v4.611 c 0,0.868 -0.539,1.41 -1.32,1.41 c -0.778,0 -1.317,-0.542 -1.317,-1.41 v-4.611 h-4.104 c -0.688,0 -1.227,-0.33 -1.227,-0.988 s 0.539,-0.99 1.227,-0.99 h4.104 v-2.126 Z" fill="#292F33"/>
	</g>
	<g>
		<path d="M 23.875,6.125 l -6.875,-4.125 l 4.125,6.875 l -4.125,4.125 h11 v-11 l -4.125,4.125 Z" fill="#66757f"/>
		<path d="M 9.125,29.875 l 6.875,4.125 l -4.125,-6.875 l 4.125,-4.125 h-11 v11 l 4.125,-4.125 Z" fill="#66757f"/>
	</g>
</svg>
