<svg xmlns="http://www.w3.org/2000/svg" viewBox="0 0 36 36">
	<defs>
		<rect id="rect1" width="4" height="2" x="-2" y="-1" rx="1"/>
	</defs>
	
	standardized colors
	<g>
		<ellipse rx="18" ry="10" cx="18" cy="23" fill="#99AAB5"/>
		<ellipse rx="18" ry="10" cx="18" cy="21" fill="#F5F8FA" class="toolight"/>
	</g>
	<g>
		<ellipse rx="14.8" ry="7.611" cx="18" cy="20.611" fill="#f4900c"/>
		<rect width="5" height="4" rx="2" x="25" y="17" fill="#ffd983"/>
		<rect width="4" height="3" rx="1.5" x="23" y="22" fill="#ffd983"/>
		<rect width="3" height="2" rx="1" x="18" y="25" fill="#ffd983"/>
	</g>
	<g>
		<path d="M 13,24 c -3.75,0 -10,-2.063 -10,-5.5 c 0,-4.125 3.828,-8.938 10,-8.938 s 10,5.5 10,8.938 c 0,3.437 -5.625,5.5 -10,5.5 Z" fill="#E1E8ED"/>
		<g fill="#ccd6dd">
			<use href="#rect1" transform="translate( 5.519,18.451) rotate(22.1722) scale(0.675)"/>
			<use href="#rect1" transform="translate( 8.519,14.451) rotate(-34.426) scale(0.675)"/>
			<use href="#rect1" transform="translate(17.519,19.451) rotate(-34.4265) scale(0.675)"/>
			<use href="#rect1" transform="translate(17.519,14.451) rotate(22.1802) scale(0.675)"/>
			<use href="#rect1" transform="translate(10.519,21.451) rotate(-20.8072) scale(0.675)"/>
			<use href="#rect1" transform="translate(13,18) rotate(22.1737)"/>
		</g>
	</g>
</svg>
