<svg xmlns="http://www.w3.org/2000/svg" viewBox="0 0 36 36">
	see also: Passport
	<defs>
		<clipPath id="slice1">
			<path d="M -10,19 l 21,-21 v21 h-21 Z"/>
			<path d="M 11,-6 l -25,25 v-25 h25 Z"/>
		</clipPath>
		<g id="guy1">
			<path d="M 6,-6 a 6,6 0 01 -12,0 h12 Z" fill="#f5f8fa"/>
			<g fill="#f5f8fa">
				<rect x="-9" y="-10" width="5" height="2" rx="2" ry="1"/>
				<path d="M 6,-12 a 1,1 0 01 1,1 c 0,0.552 -0.447,3 -1,3 h-12 c -.553,0 -1,-2.448 -1,-3 a 1,1 0 01 1,-1 h12 Z"/>
			</g>
			<g fill="#f5f8fa" clip-path="url(#slice1)">
				<rect x="-6" y="2" width="12" height="15" rx="2"/>
			</g>
		</g>
	</defs>
	
	<rect width="36" height="36" rx="4" fill="#226699"/>	
	
	<g>
		<use href="#guy1" x="26.828" y="15"/>
		arm:
		<path d="M 15,25 L 20.828,19 H 22.828" stroke-width="4" stroke-linecap="round" stroke-linejoin="round" stroke="#f5f8fa" fill="none"/> the shoulder was kinda hecked so i fixed(?) that
		
		<g fill="#f5f8fa">
			<rect x="2" y="17" width="4" height="13" rx="2"/>
			<rect x="4" y="28" width="13" height="4" rx="2"/>
		</g>
	</g>
</svg>
