<svg xmlns="http://www.w3.org/2000/svg" viewBox="0 0 36 36">
	<ellipse cx="18" cy="23" rx="18" ry="10" fill="#939598"/>
	<ellipse cx="18" cy="21" rx="18" ry="10" fill="#F1F2F2"/>
	<ellipse cx="18" cy="20" rx="13" ry="7.2225" fill="#C1694F"/>
	<ellipse cx="18" cy="20" rx="11" ry="5.556" fill="#8A4B38"/>
	<!--<path d="M 12.081,9 c 1.194,0 2.536,-2 5.919,-2 s 4.724,2 5.921,2 c 1.691,0 2.537,2 4.229,9 c 0.697,2.885 -4.229,6 -10.149,6 s -10.846,-3.115 -10.149,-6 c 1.692,-7 2.538,-9 4.229,-9 Z"   fill="#FFCC4D"/>-->
	<path d="M 18,24 c -5.92,0 -10.846,-3.115 -10.149,-6 c 1.692,-7 2.538,-9 4.229,-9 h11.84 c 1.691,0 2.537,2 4.229,9 c 0.697,2.885 -4.229,6 -10.149,6 Z" fill="#FFCC4D"/>
	<ellipse cx="18" cy="11" rx="7.612" ry="4" fill="#662113"/>
</svg>
