<svg xmlns="http://www.w3.org/2000/svg" viewBox="0 0 36 36">
	stroke but only internal
	<g fill="#ffd983">
		0.6923 ≈ 18/26
		<g transform="translate(0 11) scale(1 0.6923)">
			<path d=" M
18,0
 C 28,0 35,7
35,16
 C 35,23 32.341,26
30,26
 C 25,26 24.909,21.33878
21,21
 C 20.91,20.99211 20.819,20.98778
20.727,20.98778
 C 18.111,20.98778 14.454,24
11,24
 C 5,24 1,19
1,13
 C 1,5 9,0
18,0
 Z"/>
		</g>
		<path d="M 33,18 h2 v4 h-2 v-4 Z"/>
		<path d="M 1,16 h2 v4 h-2 v-4 Z"/>
	</g>
	
	<g transform="translate(0 7) scale(1 0.6923)">
		<path d="M 30,25 c -2.27,0 -3.282,-1.09069 -4.455,-2.35169 c -1.069,-1.15122 -2.281,-2.45411 -4.458,-2.64478 c -0.119,-0.01011 -0.238,-0.01589 -0.36,-0.01589 c -1.433,0 -2.978,0.69912 -4.614,1.43867 c -1.712,0.77278 -3.481,1.57369 -5.113,1.57369 c -5.215,0 -9,-4.20691 -9,-10 c 0,-7.7948 8.244,-12 16,-12 c 9.271,0 16,6.30831 16,15 c 0,6.60353 -2.393,9 -4,9 Z" fill="#a0041e"/>
		<g fill="#ffe8b6">
			<path d="M 18,0 c 10,0 17,7 17,16 c 0,7 -2.659,10 -5,10 c -5,0 -5.091,-4.66122 -9,-5 c -0.09,-0.00789 -0.181,-0.01222 -0.273,-0.01222 c -2.616,0 -6.273,3.01222 -9.727,3.01222 c -6,0 -10,-5 -10,-11 c 0,-8 8,-13 17,-13 ZM 18,2 c -7.271,0 -15,3.85578 -15,11 c 0,5.90778 4.024,9 8,9 c 1.416,0 3.086,-0.75511 4.701,-1.486 c 1.737,-0.78433 3.378,-1.52678 5.026,-1.52678 c 0.151,0 0.299,0.00722 0.446,0.02022 c 2.561,0.22389 3.972,1.74056 5.104,2.95967 c 1.138,1.22489 1.889,2.03289 3.723,2.03289 c 0.939,0 3,-2.01411 3,-8 c 0,-8.11189 -6.309,-14 -15,-14 Z"/>
			<path d=" M
16.1606,2.08419
 C 16.1606,2.08419 18,1
23,2
 C 28,3 30.5416,8
30.5416,8
 C 30.5416,8 28.2506,5.41652
26,6
 C 22.9386,6.79308 23,8
23,8
 L
21.3346,7.24952
 C 21.3346,7.24952 22,5
21,4
 C 19,2 16.1606,2.08419
16.1606,2.08419
Z"/>
		</g>
		<circle r="4" cx="21" cy="10" fill="#e6e7e8"/> old gray..
		<circle r="2" cx="21" cy="10" fill="#a7a9ac"/>
	</g>
</svg>
