<svg xmlns="http://www.w3.org/2000/svg" viewBox="0 0 36 36">

<path d="M 16.7842,14.0024 a 4.042,4.042 0 01 5.018,2.735 a 4.042,4.042 0 01 -2.738,5.02 a 4.042,4.042 0 01 -5.016,-2.736 a 4.042,4.042 0 01 2.736,-5.019 Z M 35.7822,24.5174 c -0.13,-0.437 -0.422,-0.799 -0.821,-1.015 c -0.802,-0.436 -1.879,-0.117 -2.317,0.682 c -1.797,3.296 -4.77,5.695 -8.372,6.757 c -3.563,1.051 -7.436,0.634 -10.697,-1.144 c -2.558,-1.393 -4.42,-3.699 -5.242,-6.493 c -0.74,-2.513 -0.495,-5.016 0.552,-7.032 c -0.363,1.605 -0.313,3.284 0.164,4.907 c 0.737,2.507 2.407,4.575 4.701,5.823 c 2.733,1.493 5.989,1.841 8.978,0.961 c 3.026,-0.891 5.522,-2.906 7.027,-5.671 c 1.832,-3.359 2.246,-7.229 1.165,-10.898 c -1.08,-3.669 -3.525,-6.698 -6.883,-8.529 c -4.053,-2.208 -8.873,-2.725 -13.299,-1.42 c -4.477,1.318 -8.173,4.301 -10.407,8.398 c -0.45,0.826 -0.145,1.865 0.682,2.317 c 0.803,0.44 1.883,0.117 2.319,-0.682 c 1.795,-3.295 4.768,-5.694 8.371,-6.755 c 3.563,-1.049 7.438,-0.635 10.699,1.142 c 2.556,1.393 4.416,3.7 5.239,6.495 c 0.742,2.514 0.497,5.017 -0.551,7.033 c 0.363,-1.604 0.314,-3.285 -0.162,-4.911 c -0.74,-2.504 -2.41,-4.572 -4.703,-5.823 c -2.734,-1.49 -5.99,-1.839 -8.98,-0.959 c -3.023,0.89 -5.518,2.904 -7.025,5.671 c -1.832,3.357 -2.246,7.227 -1.165,10.897 c 1.081,3.671 3.525,6.7 6.883,8.529 c 2.568,1.401 5.451,2.141 8.341,2.141 c 1.669,0 3.337,-0.242 4.958,-0.72 c 4.477,-1.317 8.173,-4.3 10.406,-8.398 c 0.219,-0.401 0.269,-0.864 0.139,-1.303 Z" fill="#55ACEE"/>
	
<!--<path d=" M
35.782,24.518
 C 35.912,24.956 35.862,25.419
35.643,25.818
 C 33.41,29.916 29.714,32.9
25.237,34.217
 C 23.616,34.695 21.948,34.937

20.279,34.937

 C 17.389,34.937 14.505,34.196
11.938,32.796
 C 8.58,30.967 6.136,27.938
5.055,24.267
 C 3.975,20.597 4.388,16.727
6.22,13.37
 C 7.727,10.603 10.223,8.589
13.245,7.699
 C 16.235,6.82 19.491,7.168
22.225,8.658
 C 24.518,9.909 26.188,11.978
26.927,14.482
 C 27.404,16.108 27.452,17.789
27.089,19.393
 C 28.137,17.377 28.382,14.874
27.641,12.36
 C 26.818,9.565 24.958,7.259
22.402,5.865
 C 19.141,4.089 15.266,3.675
11.703,4.723
 C 8.1,5.784 5.127,8.183
3.332,11.478
 C 2.897,12.277 1.817,12.599
1.013,12.16
 C 0.187,11.708 -0.119,10.669
0.332,9.843
 C 2.566,5.746 6.261,2.764
10.738,1.446
 C 15.165,0.14 19.984,0.657
24.037,2.865
 C 27.396,4.696 29.84,7.725
30.92,11.394
 C 32.001,15.064 31.587,18.934
29.755,22.292
 C 28.25,25.058 25.754,27.072
22.729,27.964
 C 19.739,28.844 16.483,28.495
13.75,27.003
 C 11.456,25.755 9.786,23.687
9.049,21.18
 C 8.572,19.557 8.522,17.877
8.885,16.272
 C 7.838,18.289 7.593,20.791
8.333,23.305
 C 9.156,26.099 11.017,28.404
13.575,29.798
 C 16.836,31.576 20.71,31.993
24.273,30.942
 C 27.874,29.88 30.848,27.481
32.645,24.185
 C 33.082,23.386 34.159,23.066
34.961,23.502
 C 35.36,23.719 35.652,24.08
35.782,24.518
 Z" fill="#55ACEE"/>
	<path d=" M
16.784,14.002
 A 4.042,4.042 0 00
14.048,19.021
 A 4.042,4.042 0 00
19.065,21.757
 A 4.042,4.042 0 00
21.802,16.737
 A 4.042,4.042 0 00
16.784,14.002
 Z" fill="#55ACEE"/>
-->
	<!--<path d="M 16.784,14.002 c 0.373,-0.11 0.758,-0.166 1.143,-0.166 c 1.779,0 3.372,1.193 3.875,2.901 c 0.629,2.138 -0.599,4.39 -2.737,5.02 c -0.373,0.11 -0.757,0.166 -1.142,0.166 c -1.778,0 -3.372,-1.193 -3.875,-2.902 c -0.63,-2.137 0.598,-4.389 2.736,-5.019 Z"  fill="#55ACEE"/> -->
</svg>
