<svg xmlns="http://www.w3.org/2000/svg" viewBox="0 0 36 36">
	<defs>
		<clipPath id="clipPath36" clipPathUnits="userSpaceOnUse">
			<path d=" M
31,2.99955
 C 30.51449,2.99955 30.06759,2.79166
29.72111,2.44376
 C 29.28058,2.00323 28.99986,1.34067
28.99986,0.59963
 L
28.99986,-0.59963
 C 29.00128,-1.92616 29.89577,-3.00025
31,-3.00025
 L
42,-3.00025
 C 43.10594,-3.00025 44.00113,-1.92545
44,-0.59963
 L
44,0.60033
 C 44.00043,1.92474 43.10523,2.99955
42,2.99955
 L
31,2.99955
 Z"/>
		</clipPath>
	</defs>
	<g transform="translate(0.75, 36) rotate(-45)">
	<g>
		<g>
			<path d=" M
28.00079,3.99989
 C 27.00024,3.99918 13.99937,7.99999
0.00007,-0.00021
 C 1.99977,-0.00021 29.00064,-0.00092
30.00049,-0.00092
 C 30.00049,0.99893 28.00079,3.99989
28.00079,3.99989
 Z" fill="#99aab5"/>
			<path d=" M
28.00115,-4.00095
 C 28.00115,-4.00095 30.00155,-1.0007
30.00084,-0.00014
 C 29.00099,-0.00014 2.00012,-0.00085
-0.00028,-0.00014
 C 13.99902,-8.00035 27.0013,-4.00095
28.00115,-4.00095
 Z" fill="#ccd6dd"/>
		</g>
		<g>
			<path d=" M
31.00119,-3.00075
 L
42.00023,-3.00004
 C 43.10544,-3.00075 44.00064,-1.92595
44.00064,-0.59941
 L
44.00064,0.59984
 C 44.00064,1.92496 43.10544,2.99976
42.00094,2.99976
 L
31.00119,2.99976
 C 29.89598,2.99905 29.00078,1.92566
29.00008,0.59984
 L
29.00078,-0.60012
 C 29.00078,-1.92665 29.89669,-3.00075
31.00119,-3.00075
 Z" fill="#D99E82"/>
		</g>
	</g>
	<g clip-path="url(#clipPath36)">
		<g fill="#c1694f">
			<path d=" M
29.3443,-6.37846
 C 29.80462,-6.68605 30.62274,-6.26532
31.17499,-5.4373
 L
39.16318,6.54463
 C 39.71402,7.37265 39.78968,8.28977
39.32935,8.59736
 C 38.86832,8.90424 38.04949,8.48139
37.49936,7.65408
 L
29.51047,-4.32855
 C 28.95892,-5.15587 28.88538,-6.07228
29.3443,-6.37846
 Z"/>
			<path d=" M
24.71416,-6.37916
 C 25.17449,-6.68676 25.99332,-6.26532
26.54415,-5.43588
 L
34.53304,6.54533
 C 35.08317,7.37265 35.15883,8.29118
34.69921,8.59665
 C 34.23889,8.90424 33.42006,8.48139
32.86852,7.65408
 L
24.87962,-4.32714
 C 24.32879,-5.15516 24.25454,-6.07228
24.71416,-6.37916
 Z"/>
			<path d=" M
32.67187,-8.59715
 C 33.1322,-8.90474 33.95032,-8.48401
34.50257,-7.65599
 L
42.49146,4.32664
 C 43.04159,5.15396 43.11725,6.07108
42.65692,6.37867
 C 42.19801,6.68485 41.37777,6.26341
40.82693,5.43539
 L
32.83875,-6.54654
 C 32.2872,-7.37385 32.21296,-8.29097
32.67187,-8.59715
 Z"/>
			<path d=" M
37.71453,-8.59814
 C 38.17344,-8.90431 38.99227,-8.48288
39.54382,-7.65556
 L
47.53271,4.32707
 C 48.08284,5.15438 48.1592,6.07221
47.69817,6.37909
 C 47.23926,6.68527 46.41901,6.26383
45.86818,5.43581
 L
37.87999,-6.54611
 C 37.32845,-7.37343 37.2542,-8.29054
37.71453,-8.59814
 Z"/>
		</g>
	</g>
	<g>
		<g>
			<path d=" M
44.0005,-3.99989
 C 46.2095,-3.99989 48.0006,-2.20879
48.0006,0.00021
 C 48.0006,2.20921 46.21021,3.99961
44.0012,3.99961
 C 41.7915,4.00032 39.96221,2.22053
39.96292,0.01082
 C 39.96292,-2.19818 41.7915,-3.99989
44.0005,-3.99989
 Z" fill="#8a4633"/>
		</g>
		<g>
			<path d=" M
29.50099,-7.50064
 C 30.32972,-7.50064 31.00147,-6.82888
31.00076,-6.00086
 L
31.00076,6.49937
 C 31.00076,7.3281 30.32901,7.99985
29.50099,7.99915
 C 28.67226,7.99915 28.00122,7.3281
28.00122,6.49937
 L
28.00122,-6.00086
 C 27.9998,-6.82818 28.67226,-7.50064
29.50099,-7.50064
 Z" fill="#FFAC33"/>
		</g>
	</g>
	
	<circle fill="#FFAC33" cx="29.5" cy="8" r="2.5"/>
	<circle fill="#FFAC33" cx="29.5" cy="-7.5" r="2.5"/>
	<circle fill="#FFCC4D" cx="29.5" cy="8" r="1.5"/>
	<circle fill="#FFCC4D" cx="29.5" cy="-7.5" r="1.5"/>
	<path fill="#FFAC33" d=" M
41.02139,-4.51205
 C 41.61111,-4.51205 42.08912,-4.03404
42.08841,-3.44502
 L
42.0877,3.43583
 C 42.0877,4.02556 41.61041,4.50286
41.02068,4.50286
 C 40.43095,4.50286 39.95365,4.02556
39.95365,3.43583
 L
39.95436,-3.44502
 C 39.95365,-4.03404 40.43166,-4.51205
41.02139,-4.51205
Z"/>
	</g>
</svg>
