<svg xmlns="http://www.w3.org/2000/svg" viewBox="0 0 36 36">
	<path d="M 15.9712,15.0835 s -0.792,0.75 -1.625,0.583 c -0.833,-0.166 -1.042,-1.752 -1.042,-3.625 c 0,-1.767 -2.6,-1.799 -6.1,-1.133 c -3.5,0.667 -5.87,0.165 -6.983,-2.283 c -0.625,-1.375 0.14,-4.618 1.458,-7.167 c 1.094,-2.115 3.139,-1.598 1.832,0.917 c -3.248,6.25 1.204,5.942 2.851,5.65 c 1.647,-0.291 2.151,-4.484 2.901,-5.984 s 2.396,-1.942 1.666,0.459 c -0.708,2.333 -1.787,5.082 0.38,5.625 c 2.166,0.541 2.204,-0.459 3.162,-2.459 s 2.167,-0.791 1.5,0.459 s -1.458,6.625 0,8.958 Z" fill="rgb(102,33,19)"/>
	<path d="M 20.0283,15.0835 c 1.458,-2.333 0.667,-7.708 0,-8.958 s 0.542,-2.459 1.5,-0.459 s 0.996,3 3.162,2.459 c 2.166,-0.543 1.088,-3.292 0.379,-5.625 c -0.729,-2.401 0.917,-1.959 1.667,-0.459 s 1.254,5.693 2.901,5.984 c 1.647,0.292 6.099,0.6 2.851,-5.65 c -1.307,-2.515 0.737,-3.032 1.831,-0.917 c 1.318,2.549 2.084,5.792 1.459,7.167 c -1.113,2.448 -3.482,2.95 -6.982,2.283 c -3.5,-0.666 -6.102,-0.634 -6.102,1.133 c 0,1.873 -0.208,3.459 -1.041,3.625 c -0.833,0.167 -1.625,-0.583 -1.625,-0.583 Z" fill="rgb(102,33,19)"/>
	
	<clipPath id="ears1">
		<path d="M 13.8594,15.4951 c 0.596,2.392 0.16,4.422 -2.232,5.017 s -6.344,0.558 -7.958,-1.303 c -2.294,-2.647 -2.531,-6.391 -1.189,-6.725 c 1.341,-0.334 10.784,0.619 11.379,3.011 Z"/>
		<path d="M 22.1416,15.4951 c 0.596,-2.392 10.038,-3.345 11.379,-3.011 c 1.342,0.334 1.105,4.078 -1.19,6.725 c -1.613,1.861 -5.566,1.898 -7.958,1.303 c -2.391,-0.595 -2.827,-2.625 -2.231,-5.017 Z"/>
	</clipPath>
	
	<g clip-path="url(#ears1)">
		<rect width="36" height="36"  fill="rgb(193,105,79)"/>
		<path d="M 5.537,12.5474 L 2.163,16.6824 H 1 V 12 H 5.537 Z" fill="rgb(39,43,43)"/>
		<path d="M 33.8475,16.6594 L 30.4025,12.5534 V 12 H35 V 16.6594 Z" fill="rgb(39,43,43)"/>
	</g>
	
	<path d="M 12.0518,15.9966 c 0.871,1.393 -0.553,2.229 -1.946,3.099 c -1.393,0.871 -4.608,-0.203 -5.478,-1.596 c -0.871,-1.393 -1.186,-3.131 -0.676,-3.449 c 0.51,-0.319 7.229,0.552 8.1,1.946 Z" fill="rgb(230,170,170)"/>
	<path d="M 23.9482,15.9966 c 0.871,-1.394 7.59,-2.265 8.1,-1.946 c 0.509,0.318 0.195,2.056 -0.676,3.449 c -0.87,1.393 -4.084,2.467 -5.479,1.596 c -1.392,-0.87 -2.816,-1.706 -1.945,-3.099 Z" fill="rgb(230,170,170)"/>
	
	<path d="M 18,14.125 h-0.001 h-0.002 c -10.27,0.001 -8.703,3.959 -7.602,10.541 c 1.1,6.584 2.401,11.256 7.605,11.256 c 5.203,0 6.502,-4.672 7.604,-11.256 c 1.099,-6.582 2.666,-10.54 -7.604,-10.541 Z" fill="rgb(193,105,79)"/> <!-- hmm this is a commonly used animal base head shape (see: fox head) -->
	
	<path d="M -1.5,-0.75 s 0,-1.5 1.5,-1.5 s 1.5,1.5 1.5,1.5 v 1.5 s 0,1.5 -1.5,1.5 s -1.5,-1.5 -1.5,-1.5 v -1.5 Z" transform="translate(13.5 22.75) rotate(-30)" fill="rgb(39,43,43)"/>
	<path d="M -1.5,-0.75 s 0,-1.5 1.5,-1.5 s 1.5,1.5 1.5,1.5 v 1.5 s 0,1.5 -1.5,1.5 s -1.5,-1.5 -1.5,-1.5 v -1.5 Z" transform="translate(22.5 22.75) rotate(30)" fill="rgb(39,43,43)"/>
	
	<path d="M 15.2256,34.2656 c -0.925,-0.188 1.85,-3.596 2.774,-3.596 c 0.925,0 3.7,3.408 2.775,3.596 s -4.624,0.188 -5.549,0 Z" fill="rgb(39,43,43)"/>
</svg>
