<svg xmlns="http://www.w3.org/2000/svg" viewBox="0 0 36 36">
	<path d="M 9.294,7.969 l 0.55,0.372 v5.861 h-3 v-4.277 l 0.632,-0.427 l -0.632,-0.428 v-1.868 c 0,-0.276 0.224,-0.5 0.5,-0.5 h2 c 0.276,0 0.5,0.224 0.5,0.5 v0.395 l -0.55,0.372 Z"  fill="#662113"/>
	<path d="M 31,21 h-2 v1 h2 v4.5 h-1 v1 h1 v5.5 h-26 v-9 h2 v-1 h-2 v-7 l 13,-13 l 4.792,4.792 l -0.167,3.75 l 2.41,-1.507 l 5.965,5.965 v5 Z"  fill="#D99E82"/>
	<path d="M 10,26 h4 v6 h-4 v-6 Z"  fill="#C1694F"/>
	<path d="M 10,17 h4 v4 h-4 v-4 Z"  fill="#C1694F"/>
	<path d="M 22.5,26 h4 v4 h-4 v-4 Z"  fill="#C1694F"/>
	
	<rect x="2.5" y="32" width="31" height="3" rx="1.5"  fill="#BCBEC0"/>
	
	<path d="M 22.853,6.438 l -0.121,2.708 l -4.732,-4.732 l -12.293,12.292 c -0.391,0.391 -1.023,0.391 -1.414,0 s -0.391,-1.023 0,-1.414 l 13,-13 c 0.391,-0.391 1.023,-0.391 1.414,0 l 4.146,4.146 Z"  fill="#292F33"/>
	<path d="M 31.707,15.293 c 0.391,0.391 0.391,1.023 0,1.414 c -0.195,0.195 -0.451,0.293 -0.707,0.293 s -0.512,-0.098 -0.707,-0.293 l -6.128,-6.128 l 1.74,-1.088 l 5.802,5.802 Z"  fill="#292F33"/>
	
	<path d="M 24.42,10.42 l 1.58,1.58 l 1,5 l -6.917,6.583 l 2.75,-7.666 l -3.687,-1.729 l 1.625,-7.417 l 1.979,1.979 l -0.125,2.792 l 1.795,-1.122 Z"  fill="#662113"/>
	<path d="M 8.997,18.918 l 5.58,-1.722 l 0.428,1.389 l -5.58,1.721 l -0.428,-1.388 Z"  fill="#662113"/>
	<path d="M 8.679,29.766 l 5.753,-2.952 l 0.664,1.293 l -5.754,2.952 l -0.663,-1.293 Z"  fill="#662113"/>
	<path d="M 27.168,29.492 l -5.58,-1.722 l 0.429,-1.388 l 5.58,1.721 l -0.429,1.389 Z"  fill="#662113"/>
	<path d="M 14.728,31.046 l -5.99,-2.705 l 0.597,-1.324 l 5.99,2.704 l -0.597,1.325 Z"  fill="#662113"/>
	
	
</svg>
