<svg xmlns="http://www.w3.org/2000/svg" viewBox="0 0 36 36">
	<path d="M 19.072,30 A 8,8 0 00 26,34 a 8,8 0 00 8,-8 v-24" stroke-width="4" stroke-linecap="round" stroke-linejoin="round" fill="none" stroke="#F4900C"/>
	<path d="M 32,5 h4 v4 h-4 v-4 Z"  fill="#FFCC4D"/>
	<path d="M 32,12 h4 v4 h-4 v-4 Z"  fill="#FFCC4D"/>
	<path d="M -2,0 h4" transform="translate(19 29) rotate(-21.1)" stroke-linecap="round" fill="none" stroke-width="4" stroke="#292F33"/>	
	
	<path d="M 18,22 l 2,2 c -2,0 -3,3 -5,3 s -3,-3 -5,-3 l 2,-2 l 3,-3 l 3,3 Z"  fill="#292F33"/>
	
	<!--orig <path d="M 21,25 c -2.556,0 -4.062,-3.128 -5.161,-4.676 c -0.412,-0.58 -1.266,-0.58 -1.677,0 c -1.1,1.548 -2.605,4.676 -5.162,4.676 c -4.551,0 -7.923,-3.033 -8.784,-7.619 c -1.02,-5.426 3.373,-10.381 8.894,-10.381 h11.78 c 5.521,0 9.914,4.955 8.894,10.381 c -0.861,4.586 -4.233,7.619 -8.784,7.619 Z"  fill="#4E9322"/>-->
	<!--<path d="M 21,23 c -1.041,0 -2.113,-1.664 -2.896,-2.88 c -0.226,-0.35 -0.437,-0.676 -0.635,-0.954 c -0.568,-0.8 -1.491,-1.277 -2.469,-1.277 c -0.979,0 -1.901,0.477 -2.469,1.275 c -0.199,0.281 -0.41,0.606 -0.635,0.957 c -0.783,1.215 -1.854,2.879 -2.896,2.879 c -3.512,0 -6.125,-2.295 -6.819,-5.988 c -0.365,-1.941 0.147,-3.87 1.442,-5.431 c 1.361,-1.64 3.361,-2.581 5.487,-2.581 h11.78 c 2.126,0 4.126,0.941 5.486,2.581 c 1.295,1.561 1.808,3.49 1.442,5.431 c -0.693,3.694 -3.306,5.988 -6.818,5.988 Z"  fill="#88C9F9"/> changed from hole to layer above--> 
	<path d="M 21,23.5 c -1.314,0 -2.424,-1.724 -3.316,-3.109 c -0.221,-0.342 -0.428,-0.663 -0.622,-0.935 c -0.475,-0.669 -1.245,-1.067 -2.062,-1.067 s -1.587,0.398 -2.062,1.065 c -0.194,0.275 -0.401,0.594 -0.622,0.938 c -0.892,1.385 -2.002,3.108 -3.316,3.108 c -3.768,0 -6.569,-2.451 -7.31,-6.396 c -0.393,-2.09 0.157,-4.164 1.549,-5.842 c 1.456,-1.755 3.596,-2.762 5.871,-2.762 h11.78 c 2.275,0 4.415,1.007 5.871,2.762 c 1.391,1.678 1.942,3.753 1.549,5.842 c -0.741,3.946 -3.541,6.396 -7.31,6.396 Z"    fill="#292F33"/>
	<path d="M 21,22.5 c -0.769,0 -1.837,-1.659 -2.476,-2.651 c -0.23,-0.356 -0.445,-0.688 -0.647,-0.972 c -0.662,-0.931 -1.737,-1.487 -2.877,-1.487 s -2.215,0.555 -2.877,1.486 c -0.203,0.287 -0.417,0.618 -0.648,0.976 c -0.639,0.99 -1.706,2.648 -2.475,2.648 c -3.256,0 -5.681,-2.139 -6.328,-5.581 c -0.336,-1.792 0.138,-3.574 1.336,-5.019 c 1.266,-1.525 3.125,-2.4 5.102,-2.4 h11.78 c 1.977,0 3.836,0.875 5.102,2.4 c 1.197,1.445 1.672,3.228 1.335,5.02 c -0.646,3.442 -3.07,5.58 -6.327,5.58 Z"    fill="#88C9F9"/>
	<!-- we can replace a lot of these things with arcs -->
	
	<path d="M 12.495,9.505 h5 l -11.981,11.981 c -0.905,-0.691 -1.56,-1.714 -1.996,-3.004 l 8.977,-8.977 Z"  fill="#BBDDF5"/> <!-- badly misaligned.. -->
	
	<path d="M 15,15 c 1.842,0 3.685,4.24 5.525,7.253 c -0.931,-0.493 -1.497,-1.666 -2.058,-2.537 c -0.209,-0.324 -0.405,-0.627 -0.589,-0.885 c -0.527,-0.742 -1.564,-1.461 -2.879,-1.461 c -1.12,0 -2.108,0.536 -2.635,1.277 c -0.184,0.261 -0.38,0.563 -0.589,0.888 c -0.554,0.861 -1.459,2.135 -2.286,2.692 c 1.837,-3.012 3.674,-7.227 5.511,-7.227 Z"  fill="#3C96CE"/>
</svg>
