<svg xmlns="http://www.w3.org/2000/svg" viewBox="0 0 36 36">
	parts of this one are like, transform(-0.5 0.5480) and then scale(36/35)?
	<g>
		<path fill="#BE1931" d="M 33.1387,21.4639 c 0.72,0.341 0.364,1.157 0,1.865 c -1.755,3.412 -11.661,12.123 -19.775,12.123 c -7.104,0 -12.864,-5.645 -12.864,-12.123 c 0,-6.477 7.91,-3.097 13.056,-6.528 c 1.715,0 1.865,-3.73 19.583,4.663 Z"/>
		<path fill="#7F031E" d="M 31.2744,21.4639 c 3.129,2.014 -11.034,7.026 -18.138,7.026 s -12.636,-2.508 -12.636,-6.138 c 0,-3.631 5.759,-6.573 12.863,-6.573 s 12.315,2.085 17.911,5.685 Z"/>
		<path fill="#FFAC33" d="M 29.4092,22.3965 c 2.654,1.8 -8.492,6.201 -16.046,6.201 c -7.03,0 -11.35,-2.432 -11.35,-5.431 c 0,-3 5.082,-5.433 11.35,-5.433 c 6.269,0 12.316,2.134 16.046,4.663 Z"/>
	</g>
	wick
	<path d="M 24.7456,23.3297 c 3.6105,-0.9035 5.581,-1.807 6.5285,-5.596" stroke-width="1.8657" stroke="#000000" fill="none" stroke-linecap="round"/> COMPUTED STROKE
	flame
	<g>
		<path fill="#F4900C" d="M 26.75,12.1187 c 0,4.295 2.496,5.833 4.375,5.833 s 4.375,-1.538 4.375,-5.833 s -1.944,-8.65 -4.375,-11.567 c -2.431,2.917 -4.375,7.272 -4.375,11.567 Z"/>
		<path fill="#FFCC4D" d="M 33.5557,13.5771 c 0,2.416 -1.088,4.375 -2.431,4.375 c -1.342,0 -2.43,-1.959 -2.43,-4.375 c 0,-2.417 1.088,-4.375 2.43,-4.375 c 1.343,0 2.431,1.958 2.431,4.375 Z"/>
	</g>
	reflection?
	<g>
		<path fill="#FFCC4D" d="M 5.3613,22.8135 c 0,-1.611 3.047,-2.917 6.805,-2.917 c 3.759,0 6.806,1.306 6.806,2.917 c 0,1.61 -3.047,2.916 -6.806,2.916 c -3.758,0 -6.805,-1.306 -6.805,-2.916 Z"/>
	</g>
</svg>
