<svg xmlns="http://www.w3.org/2000/svg" viewBox="0 0 36 36">
	<g>
		1<path fill="#77B255" d="M 5.5273,30.6006 l -3.431,-3.432 l 0.923,-0.922 l 3.431,3.431 l -0.923,0.923 Z"/>
		4<path fill="#77B255" d="M 17.479,18.7314 l -3.431,-3.431 l 0.923,-0.923 l 3.431,3.431 l -0.923,0.923 Z"/>
		7<path fill="#77B255" d="M 29.5215,6.6069 l -3.432,-3.432 l 0.923,-0.922 l 3.432,3.431 l -0.923,0.923 Z"/>
		
		
		3<path fill="#EA596E" d="M 15.415,21.958 l -3.432,-3.431 l 0.923,-0.923 l 3.432,3.431 l -0.923,0.923 Z"/>
		6<path fill="#EA596E" d="M 26.8955,9.3149 l -3.431,-3.432 l 0.923,-0.922 l 3.432,3.431 l -0.924,0.923 Z"/>
		
		2<path fill="#FFAC33" d="M 8.7812,28.5918 l -3.431,-3.432 l 0.923,-0.922 l 3.431,3.431 l -0.923,0.923 Z"/>
		5<path fill="#FFAC33" d="M 20.125,16.0859 l -3.432,-3.432 l 0.924,-0.922 l 3.431,3.431 l -0.923,0.923 Z"/>
		6+<path fill="#FFAC33" d="M 30.2021,12.6211 l -3.432,-3.431 l 0.924,-0.923 l 3.431,3.431 l -0.923,0.923 Z"/>
		3+<path fill="#FFAC33" d="M 18.1401,24.6836 l -3.432,-3.432 l 0.924,-0.922 l 3.431,3.431 l -0.923,0.923 Z"/>
		
		1+<path fill="#FFD983" d="M 8.8696,33.9424 l -3.432,-3.432 l 0.923,-0.922 l 3.432,3.431 l -0.923,0.923 Z"/>
		4+<path fill="#FFD983" d="M 20.7852,22.0381 l -3.431,-3.432 l 0.923,-0.922 l 3.432,3.431 l -0.924,0.923 Z"/>
		7+<path fill="#FFD983" d="M 32.8691,9.9546 l -3.432,-3.432 l 0.923,-0.922 l 3.432,3.431 l -0.923,0.923 Z"/>
		
		2+<path fill="#EA596E" d="M 11.5063,31.3174 l -3.431,-3.432 l 0.923,-0.922 l 3.431,3.43 l -0.923,0.924 Z"/>
		5+<path fill="#EA596E" d="M 23.4316,19.3926 l -3.432,-3.432 l 0.923,-0.923 l 3.432,3.432 l -0.923,0.923 Z"/>
	</g>
	<g>
		<path fill="#3B88C3" d="M 13.146,25.6504 c -0.028,-0.502 -0.13,-2.273 -0.153,-2.66 c -0.026,-0.445 -0.058,-0.9 -0.074,-1.333 c -0.296,-0.296 -2.466,-0.35 -2.653,-0.162 c 0.012,0.439 0.047,0.884 0.071,1.326 c 0.027,0.502 0.126,2.275 0.149,2.66 c 0.053,0.91 0.096,1.807 0.086,2.655 c 0.259,0.26 2.37,0.438 2.645,0.163 c 0.015,-0.871 -0.022,-1.759 -0.071,-2.649 Z"/>
		
		<path fill="#9266CC" d="M 24.9219,0.8125 c -2.521,2.52 -2.602,6.145 -2.396,9.806 c 0.5,0.028 1.001,0.061 1.501,0.094 c 0.39,0.026 0.775,0.051 1.159,0.074 c -0.198,-3.285 -0.2,-6.298 1.606,-8.103 c 0.728,-0.704 0.955,-1.653 0.447,-2.167 c -0.534,-0.54 -1.541,-0.498 -2.317,0.296 Z"/>
		<path fill="#9266CC" d="M 25.3535,13.4468 c -0.501,-0.028 -1.003,-0.061 -1.502,-0.094 c -0.39,-0.026 -0.774,-0.051 -1.158,-0.074 c 0.198,3.285 0.198,6.298 -1.607,8.104 c -1.803,1.805 -4.812,1.805 -8.094,1.607 c -0.386,-0.023 -2.159,-0.14 -2.656,-0.168 c -3.666,-0.206 -7.296,-0.126 -9.82,2.397 c -0.517,0.517 -0.517,1.353 0,1.87 c 0.258,0.259 0.597,0.388 0.936,0.388 c 0.338,0 0.676,-0.129 0.935,-0.388 c 1.804,-1.804 4.815,-1.806 8.098,-1.607 v0 c 0.386,0.023 2.161,0.14 2.66,0.169 c 3.663,0.205 7.29,0.125 9.812,-2.397 c 2.52,-2.52 2.601,-6.145 2.396,-9.807 Z"/>
		
		<path fill="#744EAA" d="M 25.3545,13.4473 c -0.028,-0.501 -0.146,-2.277 -0.169,-2.661 c -0.026,-0.45 -0.048,-0.894 -0.063,-1.331 c -0.337,-0.021 -2.101,-0.133 -2.654,-0.163 c 0.013,0.44 0.032,0.883 0.057,1.326 c 0.027,0.501 0.144,2.277 0.168,2.661 c 0.055,0.914 0.091,1.804 0.081,2.655 c 0.333,0.021 2.094,0.132 2.644,0.162 c 0.016,-0.871 -0.014,-1.758 -0.064,-2.649 Z"/>
		
		<path fill="#55ACEE" d="M 13.2202,28.2998 c -0.013,-0.001 -2.316,-0.142 -2.648,-0.163 c -0.027,2.21 -0.385,4.145 -1.688,5.449 c -0.517,0.517 -0.517,1.354 0,1.87 c 0.258,0.259 0.597,0.388 0.936,0.388 c 0.338,0 0.676,-0.129 0.935,-0.388 c 2.422,-2.421 2.465,-7.173 2.465,-7.156 Z"/>
		<path fill="#55ACEE" d="M 35.5801,8.8271 c -0.42,-0.436 -1.385,-0.602 -2.29,0.353 c -1.805,1.804 -4.817,1.805 -8.105,1.606 c -0.383,-0.022 -2.159,-0.14 -2.66,-0.168 c -3.66,-0.205 -7.286,-0.123 -9.806,2.396 c -2.215,2.216 -2.545,5.284 -2.453,8.481 c 0.553,0.029 2.319,0.142 2.653,0.162 c -0.098,-2.754 0.113,-5.214 1.671,-6.772 c 1.805,-1.805 4.817,-1.805 8.103,-1.606 c 0.384,0.023 2.159,0.14 2.661,0.168 c 3.662,0.205 7.287,0.124 9.806,-2.396 c 0.888,-0.87 0.841,-1.788 0.42,-2.224 Z"/>
	</g>
</svg>
