<svg xmlns="http://www.w3.org/2000/svg" viewBox="0 0 36 36">
	back leg
	<g>
		<path d="M 17.338,26.109 c 0,-1.119 1.57,-0.597 1.292,-0.092 c -0.277,0.508 -0.579,2.406 -0.713,3.342 c -0.113,0.789 0.276,0.642 0.802,0.847 c 0.526,0.204 0.51,0.859 0.51,0.859 c -1.358,-0.407 -1.783,-0.396 -2.126,-0.249 s -1.071,0.775 -1.504,0.977 s -1.551,0.697 -1.551,0.697 s -0.272,-0.143 -0.229,-0.478 c 0.043,-0.334 0.429,-0.816 0.429,-0.816 c -0.308,0.002 -1.861,0.391 -2.177,0.429 s -0.158,-0.614 0.148,-0.923 s 1.127,-0.531 1.127,-0.531 s -0.579,-0.142 -1.004,-0.13 s -0.03,-0.506 0.42,-0.78 c 0.451,-0.274 3.066,0.018 3.805,-0.339 s 0.771,-1.298 0.771,-2.813 Z" fill="#E08110"/>
		<path d="M 13.427,21.831 c -0.97,-0.746 -0.261,-1.119 0.522,-1.453 c 0.783,-0.336 5.89,-0.745 6.263,0.41 s -0.261,3.019 -0.634,4.175 c -0.373,1.155 -0.895,1.938 -1.827,1.901 s -0.782,-1.193 -1.118,-1.901 c -0.335,-0.709 -1.903,-2.13 -3.206,-3.132 Z" fill="#66757F"/>
	</g>
	face
	<g>
		<path d="M 10.009,1.94 s 2.52,-0.351 2.921,0.15 c 0.4,0.5 1.218,0.917 1.669,1.468 s -0.734,2.47 -1.168,3.104 c -0.284,0.415 -2.27,2.236 -2.47,0.834 s -1.351,-1.101 -1.852,-0.751 c -0.501,0.351 -0.751,1.002 -1.302,1.302 s -1.352,0.1 -1.352,0.1 c -0.151,0.501 0.25,1.202 0.25,1.202 c -2.653,-2.003 -2.253,-4.005 -1.452,-4.806 s 2.303,-0.751 3.204,-1.001 s 1.552,-0.801 1.552,-1.602 Z" fill="#CCD6DD"/>
		<path d="M 10.009,1.94 s 0.05,1.702 0.452,2.202 c 0.401,0.5 1.853,0.55 2.303,1.101 s 0.25,1.151 0.2,1.652 c -0.051,0.501 -1.803,2.003 -2.003,0.601 s -1.351,-1.101 -1.852,-0.751 c -0.501,0.351 -0.751,1.002 -1.302,1.302 s -1.352,0.1 -1.352,0.1 c -0.151,0.501 0.25,1.202 0.25,1.202 c -2.653,-2.003 -2.253,-4.005 -1.452,-4.806 s 2.303,-0.751 3.204,-1.001 s 1.552,-0.801 1.552,-1.602 Z" fill="#E1E8ED"/>
		<path d="M 6.289,7.708 c -0.162,0.486 -0.118,0.987 0.161,1.434 c -2.361,-1.932 -1.97,-3.826 -1.197,-4.599 c 0.585,-0.584 1.541,-0.716 2.366,-0.841 c 0.078,0.919 -0.051,2.135 -0.456,3.021 c -0.416,0.236 -0.707,0.485 -0.874,0.985 Z" fill="#FFAC33"/>
		<path d="M 8.31,6.423 c 0.02,0.383 0.01,1.092 -0.284,1.456 c -0.07,0.059 -0.136,0.123 -0.218,0.168 c -0.545,0.297 -1.331,0.105 -1.349,0.101 c 0,-0.127 0.014,-0.247 0.064,-0.34 c 0.433,-0.801 1.167,-0.879 1.7,-1.312 l 0.087,-0.073 Z" fill="#FFAC33"/>
		<path d="M 9.859,4.927 c 0.868,-0.167 2.37,0.467 2.37,0.467 s -1.336,-0.2 -2.003,-0.167 c -0.633,0.032 -1.384,0.752 -1.916,1.196 l -0.086,0.072 c -0.534,0.434 -1.268,0.512 -1.702,1.314 c -0.05,0.093 -0.064,0.213 -0.064,0.34 l -0.003,-0.001 c -0.15,0.5 0.25,1.201 0.25,1.201 c -0.091,-0.069 -0.171,-0.138 -0.255,-0.207 c -0.279,-0.447 -0.323,-0.948 -0.161,-1.434 c 0.167,-0.5 0.458,-0.749 0.874,-0.985 c 0.167,-0.095 0.35,-0.189 0.56,-0.294 c 0.734,-0.368 1.269,-1.335 2.136,-1.502 Z" fill="#C1694F"/>
		<circle fill="#292F33" cx="12.097" cy="3.601" r=".75"/>
	</g>
	neck/body
	<g>
		<path d="M 10.026,2.323 c -0.255,-0.074 -0.425,-0.467 -0.3,-0.801 c 0.142,-0.38 1.135,-1.168 2.87,-1.068 s 4.139,1.335 4.205,4.606 c 0.067,3.271 -1.569,4.239 -2.203,5.006 c -0.634,0.768 -0.634,1.769 0.868,1.836 s -0.2,3.605 -1.368,5.04 s -4.339,3.304 -5.607,1.535 s -1.902,-2.637 -1.969,-4.606 s 0.935,-3.638 2.069,-4.606 s 2.169,-1.135 2.336,-2.069 c 0,0 0.567,0.067 0.901,-0.434 s 0.768,-0.501 1.202,-0.567 s 1.202,-0.968 1.168,-1.635 c -0.033,-0.655 -0.38,-1.646 -0.884,-2.069 c -1.035,-0.868 -2.644,0.019 -3.288,-0.168 Z" fill="#99AAB5"/>
		<path d="M 13.998,11.523 c 0.668,0.374 2.011,0.257 2.61,0.086 s 2.61,-0.599 3.893,-0.428 s 3.166,1.112 4.192,1.711 c 1.027,0.599 1.754,0.856 2.396,0.471 s 2.011,2.909 2.182,4.62 s 0.299,3.251 -1.283,4.492 c -1.583,1.241 -4.306,2.644 -8.513,2.396 c -4.286,-0.253 -11.147,-2.432 -11.389,-7.234 c -0.28,-5.557 0.48,-4.402 1.977,-5.557 s 2.866,-1.156 3.935,-0.557 Z" fill="#99AAB5"/>
	</g>
	front leg
	<g>
		<path d="M 20.457,27.401 c 0.045,-1.337 1.738,-1.069 1.56,-0.402 c -0.178,0.668 -0.713,2.94 -0.891,3.876 s 0.669,0.758 1.337,0.847 s 0.891,0.713 0.891,0.713 c -1.693,-0.089 -2.184,0.045 -2.54,0.312 s -1.024,1.202 -1.47,1.559 s -1.604,1.248 -1.604,1.248 s -0.356,-0.089 -0.401,-0.49 s 0.267,-1.069 0.267,-1.069 c -0.356,0.089 -2.05,0.98 -2.406,1.114 s -0.356,-0.668 -0.089,-1.114 s 1.158,-0.936 1.158,-0.936 s -0.713,0.001 -1.203,0.134 s -0.179,-0.579 0.267,-1.025 c 0.446,-0.445 3.565,-0.846 4.322,-1.47 s 0.763,-2.139 0.802,-3.297 Z" fill="#FFAC33"/>
		<path d="M 15.957,22.366 c -1.158,-0.891 -0.312,-1.336 0.624,-1.737 s 7.039,-0.891 7.485,0.49 s -0.311,3.609 -0.757,4.99 c -0.445,1.381 -1.069,2.317 -2.183,2.272 c -1.114,-0.044 -0.936,-1.425 -1.337,-2.272 s -2.275,-2.545 -3.832,-3.743 Z" fill="#99AAB5"/>
	</g>
	wing
	<g>
		<path d="M 13.614,15.306 c 0.701,-1.752 5.657,-2.052 6.408,-1.451 c 0.75,0.6 1.952,2.603 1.952,3.454 s -1.252,1.802 -1.252,1.802 c 1.052,0.3 1.753,1.902 2.003,3.304 c 0.251,1.402 -0.25,2.253 -1.001,2.353 s -2.503,0.1 -3.755,-0.551 c -1.251,-0.651 -2.453,-2.303 -2.553,-3.354 c -0.057,-0.6 -0.901,-1.301 -1.502,-1.802 c -0.6,-0.501 -0.625,-2.943 -0.3,-3.755 Z" fill="#66757F"/>
		<path d="M 13.452,15.013 c 0.701,-1.752 5.827,-2.053 6.577,-1.452 c 0.751,0.601 1.644,2.847 1.644,3.698 s -1.502,1.702 -1.502,1.702 c 1.552,0.25 2.003,2.002 2.253,3.404 c 0.251,1.402 -0.35,1.953 -1.101,2.053 s -2.102,-0.1 -3.354,-0.751 s -2.103,-2.353 -2.153,-2.954 s -1.051,-1.502 -1.652,-2.003 c -0.6,-0.5 -1.037,-2.885 -0.712,-3.697 Z" fill="#99AAB5"/>
		<g fill="#CCD6DD">
			<path d="M 18.376,19.251 s 1.211,-0.081 1.776,0.081 c 0.565,0.161 1.897,1.09 1.17,1.13 s -2.946,-1.211 -2.946,-1.211 Z"/>
			<path d="M 18.295,20.058 s 1.574,0.242 2.139,0.404 c 0.565,0.161 1.897,1.164 1.17,1.13 c -1.735,-0.081 -3.309,-1.534 -3.309,-1.534 Z"/>
			<path d="M 18.658,21.067 s 1.574,0.525 2.139,0.686 s 1.897,0.881 1.17,0.847 c -1.735,-0.081 -3.309,-1.533 -3.309,-1.533 Z"/>
			<path d="M 18.658,22.035 s 1.574,0.525 2.139,0.686 s 1.897,0.881 1.17,0.847 c -1.735,-0.08 -3.309,-1.533 -3.309,-1.533 Z"/>
			<path d="M 17.581,17.145 s 1.659,0.033 2.246,0.02 c 0.587,-0.014 2.073,0.278 1.369,0.462 c -1.68,0.438 -3.615,-0.482 -3.615,-0.482 Z"/>
			<path d="M 18.416,16.507 s 0.986,-0.176 1.573,-0.189 c 0.587,-0.014 1.795,0.331 1.09,0.512 c -1.251,0.322 -2.663,-0.323 -2.663,-0.323 Z"/>
			<path d="M 18.618,15.78 s 0.906,-0.107 1.493,-0.121 s 1.592,0.181 0.888,0.363 c -1.251,0.323 -2.381,-0.242 -2.381,-0.242 Z"/>
			<path d="M 18.376,23.044 s 1.13,0.282 1.695,0.444 c 0.565,0.161 1.897,0.881 1.17,0.847 c -1.736,-0.08 -2.865,-1.291 -2.865,-1.291 Z"/>
			<path d="M 17.568,18.121 s 0.987,-0.237 1.572,-0.188 c 0.586,0.049 2.032,0.498 1.312,0.605 c -1.718,0.256 -2.884,-0.417 -2.884,-0.417 Z"/>
		</g>
	</g>
	tail
	<path d="M 25.999,13.524 c 0.23,-1.11 1.477,-2.227 2.903,-2.135 c 0.921,0.059 1.842,0.446 2.243,1.188 c 0.421,0.78 -0.059,1.515 -0.059,1.515 s 0.356,0.52 0.238,1.396 c -0.105,0.771 -0.743,0.802 -0.743,0.802 s -0.305,1.343 -0.802,1.871 c -1.426,1.515 -1.693,1.411 -1.693,1.411 s 0.297,-0.876 0.431,-1.678 c 0,0 -0.475,-0.074 -0.475,-0.876 s -0.016,-1.369 -0.327,-2.347 c -0.298,-0.935 -1.716,-1.147 -1.716,-1.147 Z" fill="#CCD6DD"/>
</svg>
