<svg xmlns="http://www.w3.org/2000/svg" viewBox="0 0 36 36">
	
	<path d="M 10.3213,21.9346 s 4.598,0.348 4.28,5.119 c -0.319,4.772 -1.529,8.209 -2.212,8.209 h-2.902 c -0.384,0 -0.544,-2.064 1.268,-2.064 c 0.033,-0.885 0.182,-1.964 0.243,-3.022 c 0.339,-5.889 -0.677,-8.242 -0.677,-8.242 Z" fill="rgb(193,105,79)"/>
	<path d="M 22.2109,21.6045 s 5.836,1.709 6.722,5.96 c 0.884,4.252 0.745,7.694 -0.207,7.694 h-2.646 c -0.552,0 -1.159,-2.047 0.731,-2.047 c -0.18,-0.962 -0.693,-4.032 -0.95,-5.195 c -3.075,-2.885 -3.65,-6.412 -3.65,-6.412 Z" fill="rgb(193,105,79)"/>
	
	<path d="M 31.0342,14.3735 c 3.508,-0.649 3.588,-6.297 -0.051,-6.254 c -2.845,0.034 -2.559,2.795 -2.944,2.252 c -0.749,-1.055 -0.989,-3.769 1.862,-4.894 c 2.461,-0.97 5.847,0.997 6.063,4.591 c 0.138,2.302 -1.297,6.554 -6.452,5.847 c -7.224,-0.991 -1.986,-0.892 1.522,-1.542 Z" fill="rgb(217,158,130)"/>
	<path d="M 32.2021,15.6543 c 1.254,3.752 -0.608,9.1 0.474,11.171 c 0.945,1.808 3.192,8.713 2.083,8.713 c -0.279,0 -2.416,0 -3.498,0.043 c -0.183,-0.39 -0.694,-1.603 0.909,-2.122 c -0.124,-1.114 -1.569,-3.717 -2.002,-4.496 c -0.699,-1.259 -3.822,-1.933 -4.851,-4.893 c -0.97,0.426 -4.034,1.806 -8.798,1.762 c 1.126,3.811 1.748,9.788 0.934,9.788 c -0.684,0 -3.835,0.043 -3.835,0.043 s -0.912,-1.702 1.34,-2.179 c -0.414,-1.859 -1.47,-5.516 -2.25,-8.475 c -2.683,-1.432 -2.234,-5.604 -2.388,-7.076 c -0.412,-3.949 -1.979,-4.881 -3.871,-5.044 c -3.33,-0.288 -5.364,-1.426 -5.051,-4.821 c 0.259,-2.808 2.94,0.215 4.917,-2.822 c 0.352,-0.542 0.975,-1.579 1.754,-1.872 c 3.253,-1.226 6.496,0.603 6.496,4.229 c 0,0.833 0.586,5.675 3.641,5.286 c 6.782,-0.863 12.743,-0.986 13.996,2.765 Z" fill="rgb(217,158,130)"/>
	<path d="M 19.0352,12.7891 c 2.746,-0.326 5.325,-0.505 7.476,-0.325 c 0.056,0.289 0.017,1.084 -0.074,1.513 c -0.549,2.603 -2.768,2.98 -4.67,2.475 c -1.827,-0.485 -2.659,-2.13 -2.732,-3.663 Z" fill="rgb(193,105,79)"/>
	
	<path d="M 16.2656,24.4639 c 4.333,0.274 5.487,-1.374 8.881,-1.931 c -0.059,0.268 -0.044,0.757 0.171,1.537 c -0.971,0.426 -4.034,1.806 -8.799,1.762 c -0.112,-0.477 -0.21,-0.997 -0.253,-1.368 Z" fill="rgb(244,199,181)"/>
	<path d="M 6.4492,12.8892 c 1.892,0.164 2.425,1.069 2.837,5.018 c 0.154,1.472 0.739,5.67 3.422,7.103 c -0.72,-2.789 -1.959,-12.389 -6.259,-12.121 Z" fill="rgb(244,199,181)"/>
	<path d="M 3.1528,6.665 c 3.565,0 5.346,4.908 3.988,5.897 c -1.357,0.99 -4.088,0.986 -5.214,-0.276 c -0.85,-0.953 -0.869,-2.763 -0.776,-3.929 s -0.791,-1.692 2.002,-1.692 Z" fill="rgb(244,199,181)"/>
	
	<circle cx="3.053" cy="10.503" r="0.488" fill="rgb(217,158,130)"/>
	<circle cx="3.695" cy=" 9.804" r="0.269" fill="rgb(217,158,130)"/>
	<circle cx="4.099" cy="10.503" r="0.269" fill="rgb(217,158,130)"/>
	
	<circle cx="8.070" cy="6.675" r="0.928" fill="rgb(41,47,51)"/>
	
	<path d="M 2.5029,8.3262 c -0.109,0.761 -0.494,1.192 -0.879,1.133 c -0.76,-0.117 -1.392,-1.087 -1.392,-1.856 s 0.624,-0.964 1.392,-0.928 c 1.043,0.048 1.002,0.788 0.879,1.651 Z" fill="rgb(39,43,43)"/> <!-- color ? -->
	
	<path d="M 15.1665,9.0264 c 0.348,2.515 -1.157,2.898 -2.383,2.898 s -3.054,-1.251 -2.748,-3.77 c 0.134,-1.108 0.555,-2.193 0.809,-3.176 c 0.335,-1.303 1.199,-1.732 1.893,-1.367 c 1.666,0.874 2.205,3.797 2.429,5.415 Z" fill="rgb(102,33,19)"/>
</svg>
