<svg xmlns="http://www.w3.org/2000/svg" viewBox="0 0 36 36">
	<path d="M 15,27 h6 v6 s 0,3 -3,3 s -3,-3 -3,-3 v-6 Z" fill="rgb(221,46,68)"/>
	<path d="M 15,33 v-6 h6 v6 s 0,0.014 -0.001,0.037 c -1.04,-0.035 -2.016,-0.274 -2.632,-1.286 c -0.171,-0.281 -0.563,-0.281 -0.734,0 c -0.616,1.012 -1.591,1.251 -2.632,1.286 c -0.001,-0.023 -0.001,-0.037 -0.001,-0.037 Z" fill="rgb(190,25,49)"/>
	<path d="M 17.954,3 c 9,0 14,12.895 14,18.619 c 0,6.276 -5,6.276 -5,6.276 h-18 s -5,0 -5,-6.276 c 0,-6.724 5,-18.619 14,-18.619 Z" fill="rgb(217,158,130)"/>
	<path d="M 18,20 c 7,0 10,3.527 10,6.396 a 5.5,5.5 0 01 -5.5,5.5 c -1.604,0 -3.043,-0.666 -4.049,-2.768 c -0.185,-0.387 -0.717,-0.387 -0.902,0 c -1.007,2.102 -2.445,2.768 -4.049,2.768 a 5.5,5.5 0 01 -5.5,-5.5 c 0,-2.869 3,-6.396 10,-6.396 Z" fill="rgb(244,199,181)"/>
	<g fill="rgb(217,158,130)">
		<circle cx="23.5" cy="25.5" r="0.5"/>
		<circle cx="11.5" cy="25.5" r="0.5"/>
		<circle cx="25.5" cy="27.5" r="0.5"/>
		<circle cx="10.5" cy="27.5" r="0.5"/>
		<circle cx="23" cy="28" r="1"/>
		<circle cx="13" cy="28" r="1"/>
	</g>	
	
	<path d="M 15,22.8955 c 1,-1 5,-1 6,0 s -2,4 -3,4 s -4,-3 -3,-4 Z" fill="rgb(41,47,51)"/>
	<rect x="11" y="13" width="4" height="6" rx="2" fill="rgb(41,47,51)"/>
	<rect x="21" y="13" width="4" height="6" rx="2" fill="rgb(41,47,51)"/>
	
	<clipPath id="ears1">
		<path d="M 15,3.6074 c -2.5,1.25 -4.65,2.691 -6.644,5.5 c 0.002,0.202 0.005,0.405 0.005,0.625 c 0,8.853 -3.319,8.853 -4.426,8.853 c -3.227,-0.781 -5.251,-12.831 -1.106,-14.385 c 8.852,-3.32 11.112,-2.002 12.171,-0.593 Z"/>
		<path d="M 21,3.6072 c 1.059,-1.408 3.319,-2.727 12.172,0.593 c 4.144,1.554 2.119,13.604 -1.106,14.385 c -1.107,0 -4.427,0 -4.427,-8.852 c 0,-0.221 0.003,-0.424 0.006,-0.625 c -1.995,-2.81 -4.145,-4.251 -6.645,-5.501 Z"/>
	</clipPath>
	
	<g clip-path="url(#ears1)">
		<rect width="36" height="36" fill="rgb(102,33,19)"/>
		<!-- I'm not sure if this is the exact correct path but it seems to line up very closely, at least -->
		<path d="M 8,6 s 1.5,1.5 1.5,4.5" stroke-width="2" stroke-linecap="round" fill="none" stroke="rgb(56,15,9)"/>
		<path d="M 8,6 s 1.5,1.5 1.5,4.5" stroke-width="2" stroke-linecap="round" fill="none" stroke="rgb(56,15,9)" transform="matrix(-1 0 0 1 35.983 0)"/>
	</g>
</svg>
