<svg xmlns="http://www.w3.org/2000/svg" viewBox="0 0 36 36">
	<rect x="0" y="11" width="36" height="25" rx="2"  fill="#5C913B"/>
	<rect x="0" y="6" width="36" height="24" rx="2"  fill="#A7D28B"/>
	
	<path d="M 33,28.5 h-30 a 1.5,1.5 0 01 -1.5,-1.5 v-18 a 1.5,1.5 0 01 1.5,-1.5 h30 a 1.5,1.5 0 01 1.5,1.5 v18 a 1.5,1.5 0 01 -1.5,1.5 Z M 3,8.5 a 0.5,0.5 0 00 -0.5,0.5 v18 a 0.5,0.5 0 00 0.5,0.5 h30 a 0.5,0.5 0 00 0.5,-0.5 v-18 a 0.5,0.5 0 00 -0.5,-0.5 h-30 Z" fill="#5C913B" />
	
	<circle fill="#77B255" cx="25" cy="18" r="6.5"/>
	
	<path d="M 14,6 h8 v24 l -4,4 l -4,-4 v-24 Z"  fill="#FFE8B6"/>
	<path d="M 14,30 h8 v6 h-8 v-6 Z"  fill="#FFAC33"/>
	
	<path d="M 11.81,20.023 c 0,1.789 -1.281,2.788 -2.816,3.075 c 0.001,0.009 0.006,0.018 0.006,0.028 v0.934 c 0,0.513 -0.417,0.931 -0.931,0.932 c -0.515,0 -0.933,-0.418 -0.933,-0.932 v-0.934 l 0.001,-0.004 c -1.707,-0.25 -2.947,-1.14 -2.947,-1.881 c 0,-0.466 0.328,-0.775 0.696,-0.775 c 0.753,0 1.372,1.257 3.229,1.257 c 1.238,0 1.992,-0.696 1.992,-1.391 c 0,-2.012 -5.493,-1.896 -5.493,-4.758 c 0,-1.531 1.167,-2.471 2.521,-2.781 v-0.853 c 0,-0.514 0.417,-0.932 0.932,-0.932 s 0.932,0.417 0.932,0.932 v0.825 c 1.243,0.224 2.539,0.87 2.539,1.726 c 0,0.368 -0.251,0.696 -0.772,0.696 c -0.736,0 -1.025,-1.044 -2.65,-1.044 c -0.966,0 -1.799,0.425 -1.799,1.296 c 0,1.799 5.493,1.605 5.493,4.584 Z"  fill="#5C913B"/>
</svg>
