<svg xmlns="http://www.w3.org/2000/svg" viewBox="0 0 36 36">
	todo: finish
	<!--<path d="M2300 2100c-271.722 -163.267 -600 100 -1100 100zM2000 1900c200 300 300 400 200 700c-63.3008 189.7 -64.6006 156.9 -300 0c-300 -200 -200 -700 -200 -700z" />
	
	<path d="M1849 1562c200 300 382 560 282 860c-63.3008 189.7 -64.6006 156.9 -300 0c-300 -200 -231 -822 -231 -822zM2000 3200c-200 300 -631.2 500 -500 300c131.3 -200 100 -500 0 -600s-300 -300 0 -200s600 400 900 0c300 400 -200 200 -400 500zM2300 2100 c-271.722 -163.267 -600 100 -1100 100zM2000 1900c200 300 300 400 200 700c-63.3008 189.7 -64.6006 156.9 -300 0c-300 -200 -200 -700 -200 -700z" />-->
	
 
 <g transform="translate(0.5586)" fill="#3b88c3">
old fin: <!--<path d=" M
20,19
 C 22,22 23,23
22,26
 C 21.367,27.897 21.354,27.569
19,26
 C 16,24 17,19
17,19
"/>-->
		<path d="M 20,6 c 3,-6 12,-6 12,-6 c 1.25,0 1.704,1.296 1,2 c -4,4 -3,9 -3,9 l -10,-5 Z"/>
	<path d=" M
34,18
 C 34,26.2845 27.2845,32
19,32
 L
20,32
 C 18,35 13.688,37
15,35
 C 16.313,33 16,30
15,29
 C 14,28 12,26
15,27
 C 17.746,27.915 20.78,30.77
23.685,27.374
 L
25,25
 L
25,19
 L
19,19
 L
12,22
 C 8,22 6,21
3,21
 C -0.117,21 0.805,18.896
2,18
 C 4.135,16.399 4.556,16.778
5,15
 C 7,7 11,3
19,3
 A 15,15 0 01
34,18
Z"/>
	<circle r="2" cx="12.5586" cy="14" fill="#292f33"/>
	</g>
	
	<path d="M 10.396,21.896 s 4,-0.876 7.167,-2.688 c 4.625,-2.646 7.26,-2.594 8.885,-0.823 s 1.99,6.594 -2.885,9.677 c 2.604,-2.75 1.146,-8.349 -2.014,-7.588 c -8.153,1.964 -8.903,1.547 -11.153,1.422 Z"  fill="#88c9f9"/>
	<path d="M 19.383,17.744 c 0.226,-0.058 0.469,0.039 0.596,0.235 c 1.151,1.778 2.101,3.937 1.333,6.24 c -0.633,1.897 -0.646,1.569 -3,0 c -1.507,-1.004 -2.141,-3.125 -2.263,-4.629 c -0.021,-0.261 0.158,-0.497 0.412,-0.561 l 2.922,-1.285 Z"  fill="#3b88c3"/>
</svg>
