<svg xmlns="http://www.w3.org/2000/svg" viewBox="0 0 36 36">
	<rect x="0" y="4" width="36" height="28" rx="4"  fill="#269"/>
	<path d="M 18,11 h0.33 c 1.925,0 4.178,0.532 6.238,1.51 c 2.137,-1.27 4.436,-2.01 6.062,-2.01 c 2.516,0 3.722,0.613 3.851,0.683 c 0.481,0.26 0.656,0.853 0.404,1.337 c -0.251,0.484 -0.852,0.672 -1.34,0.429 c -0.01,-0.004 -0.923,-0.449 -2.915,-0.449 c -1.067,0 -2.54,0.437 -4.019,1.18 c 2.422,1.659 4.207,4.02 4.207,6.891 c 0,4.48 -3.651,6.495 -6.244,6.495 c -2.856,0 -5.745,-2.248 -5.745,-6.545 c 0,-2.595 1.635,-4.908 3.79,-6.656 c -1.46,-0.557 -2.973,-0.865 -4.289,-0.865 h-0.33 h-0.325 c -1.315,0 -2.829,0.308 -4.289,0.865 c 2.154,1.748 3.79,4.061 3.79,6.656 c 0,4.297 -2.89,6.545 -5.745,6.545 c -2.592,0 -6.244,-2.015 -6.244,-6.495 c 0,-2.871 1.786,-5.232 4.207,-6.891 c -1.479,-0.743 -2.952,-1.18 -4.019,-1.18 c -1.992,0 -2.905,0.445 -2.914,0.449 c -0.488,0.243 -1.09,0.055 -1.341,-0.429 c -0.252,-0.484 -0.076,-1.077 0.404,-1.337 c 0.129,-0.07 1.335,-0.683 3.851,-0.683 c 1.627,0 3.925,0.74 6.062,2.01 c 2.06,-0.978 4.313,-1.51 6.238,-1.51 h0.325 ZM 15.176,20.521 c 0,-2.154 -1.729,-4.196 -3.841,-5.68 c -2.334,1.354 -4.148,3.367 -4.148,5.73 c 0,3.274 2.603,4.495 4.244,4.495 c 1.804,0 3.745,-1.422 3.745,-4.545 ZM 28.818,20.571 c 0,-2.363 -1.813,-4.376 -4.148,-5.73 c -2.112,1.484 -3.841,3.526 -3.841,5.68 c 0,3.123 1.941,4.545 3.745,4.545 c 1.64,0 4.244,-1.221 4.244,-4.495 Z" fill="#ffffff"/>
</svg>
