<svg xmlns="http://www.w3.org/2000/svg" viewBox="0 0 36 36">
	<g transform="translate(18.092 34) scale(1.045)">
		<g>
			<path d="M 16.5,-10 c -1,6 -7.388,10 -16.5,10 s -15.5,-4 -16.5,-10 c -0.236,-1.416 0.144,-7.771 1,-9 l 15.5,8 l 15.5,-8 c 0.856,1.229 1.236,7.584 1,9 Z" fill="#ffac33"/>
		</g>
		<g>
			<path d="M -8,-20 h16 v7 h-16 v-7 Z M 0,-14 a 5.5,1.5 0 00 5.5,-1.5 a 5.5,1.5 0 00 -5.5,-1.5 a 5.5,1.5 0 00 -5.5,1.5 a 5.5,1.5 0 00 5.5,1.5 Z" fill="#f4900c"/>
		</g>
		<g>
			<path d="M -16.16667,-17 a 16.16667,9.798 0 01 16.16667,-9.798 a 16.16667,9.798 0 01 16.16667,9.798 a 16.16667,9.798 0 01 -16.16667,9.798 a 16.16667,9.798 0 01 -16.16667,-9.798 ZM 6.5,-16.625 a 6.5,2.625 0 00 -6.5,-2.625 a 6.5,2.625 0 00 -6.5,2.625 a 6.5,2.625 0 00 6.5,2.625 a 6.5,2.625 0 00 6.5,-2.625 Z" fill="#8a4b38"/>
		</g>
	</g>
	
	everything else is scaled too but i just can't figure out the positions..
	<path d="M 1.7197,14.6226 c -0.653,1.045 -0.92,5.494 0.479,7.577 c 2.134,3.179 3.178,1.567 4.746,2.047 c 2.335,0.714 2.508,2.559 4.355,3.483 c 2.09,1.045 3.305,0.741 6.27,0 c 4.181,-1.045 6.837,1.088 9.405,0 c 2.106,-0.893 3.311,-4.137 4.486,-4.528 c 3.728,-1.243 4.515,-7.124 1.741,-9.537 c -0.87,1.829 -5.137,8.404 -7.88,8.709 c -2.745,0.305 -10.974,1 -14.457,-0.784 c -3.484,-1.785 -7.011,-4.006 -7.447,-4.615 c -0.435,-0.61 -1.698,-2.352 -1.698,-2.352 Z" fill="#8a4b38"/>
	
	<g stroke-width="2.09" stroke-linecap="round" fill="none">
		<path d="M 4.4189,17.1049 L 6.7269,15.8849" stroke="#f4abba"/>
		<path d="M 16.3066,24.8993 L 15.5666,23.1133" stroke="#f4abba"/>
		<path d="M 28.1524,20.7187 L 29.2839,18.8032" stroke="#55acee"/>
		<path d="M 29.8936,12.927 L 31.1116,12.862" stroke="#f4abba"/>
		<path d="M 19.792,8.831 L 20.6185,8.57" stroke="#f4abba"/>
		<path d="M 13.9986,10.5292 L 13.2151,10.1372" stroke="#88c9f9"/>
		<path d="M 23.1006,23.809 L 22.3166,23.418" stroke="#88c9f9"/>
		<path d="M 9.4268,21.5029 L 9.8188,20.5889" stroke="#55acee"/>
		<path d="M 25.0166,11.6176 L 25.7126,11.3126" stroke="#55acee"/>
		<path d="M 8.0337,11.5741 L 7.4677,11.4441" stroke="#55acee"/>
	</g>
</svg>
