<svg xmlns="http://www.w3.org/2000/svg" viewBox="0 0 36 36">
	<g>
		<path d="M 0.7939,16.1123 c 1,0 5.875,1.344 6.5,2.313 l -1.281,-0.125 s -3.907,-1.251 -4.907,-1.251 c -0.999,0 -0.312,-0.937 -0.312,-0.937 Z" fill="#5c913b"/>
	</g>
	<g>
		<path d="M 11,2 c 1,1 3,7 3,10 s -2,6 2,8 s 5,-1 5,-5 s -1,-8 -2,-10 s -2,0 -2,0 s -1,-4 -2,-4 s -1,2 -1,2 s -2,-2 -3,-2 s 0,1 0,1 Z" fill="#99aab5"/>
		<path d="M 10,15 c 3,0 4,4 6,4 s 1,-3 3,-3 s 10,-5 10,-11 s 3,-3 3,-1 c 1,0 2,1.586 2,3 c 0,1 0,2 -1,3 c 1,0 2,2 1,3 c 1,3 -1,6 -3,7 c 0,1 -2,3 -4,2 c 0,0 -1,3 -3,2 c 0,0 3.052,1.684 4,2 c 3,1 7,1 7,1 s 0,1 -2,2 c 0,0 1,1 0,2 s -2,1 -2,1 s 1,2 -2,1 s -6,-4 -6,-4 s -5,1 -9,-1 s -6,-6 -6,-8 s -3,-1 -4,-1 s 2,-2 3,-2 c 0,0 0,-2 3,-2 Z" fill="#ccd6dd"/>
	</g>
	<g>
		<path d="M 6.9502,18.0186 s 5.437,2.625 7.937,6.656 c 1.901,3.065 2.782,8.657 2.782,8.657 s 0.043,0.564 -0.906,-2.282 c -1.001,-3 -2.217,-6.288 -4.313,-8.187 c -3.344,-3.032 -4.75,-3.5 -6.062,-4.25 c -0.332,-0.19 0.218,-0.688 0.562,-0.594 Z" fill="#5c913b"/>
		<path d="M 16.1978,28.54 s 2.038,0.103 3.107,2.139 c 1.068,2.036 -0.053,4.914 -0.053,4.914 s -2.749,-1.268 -3.462,-2.948 c -0.712,-1.679 0.408,-4.105 0.408,-4.105 Z" fill="#5c913b"/>
		<path d="M 14.0654,23.7617 s 1.274,1.436 3.558,1.705 s 4.121,-1.379 4.121,-1.379 s -2.144,-1.97 -3.969,-2.033 c -1.823,-0.064 -3.71,1.707 -3.71,1.707 Z" fill="#5c913b"/>
		<path d="M 10.0181,20.6143 s -2.015,0.329 -2.85,2.472 c -0.835,2.142 0.425,4.009 0.425,4.009 s 2.533,-0.847 3.054,-2.596 c 0.522,-1.747 -0.629,-3.885 -0.629,-3.885 Z" fill="#5c913b"/>
	</g>
</svg>
