<svg xmlns="http://www.w3.org/2000/svg" viewBox="0 0 36 36">
	<defs>
		<clipPath id="head3">
			<path id="head4" d="M 36,13.43057 c 0,6.81943 -4.08343,13.96114 -10,12.97029 c -9.12457,-1.52572 -9.60971,-4.43486 -11,-2.65029 c -5,6.41657 -7.96114,-0.83143 -9.09771,-2.03314 c -0.28629,-0.30172 -5.90229,-1.956 -5.90229,-5.12057 c 0,-2.05372 3,-4.14686 5,-2.11029 c 2.95257,-0.07543 14,-10.55486 21,-10.55486 s 10,5.27829 10,9.49886 Z"/>
		</clipPath>
	</defs>
	<g>
		<path d="M 12.4336,29.833 c 0.626,-6.708 -4.417,-7.542 -6.417,-6.083 c -1.097,0.8 -1.353,2.323 -0.479,1.521 c 1.542,-1.416 2.084,-0.375 0.917,0.375 s -1.375,2.146 -0.083,1.188 c 1.291,-0.958 1.645,-0.334 0.645,0.895 c -0.604,0.745 0.042,1.438 1.167,-0.062 c 0.938,-1.251 3.2,-1.294 2.662,2.99 c -0.221,1.756 1.454,0.608 1.588,-0.824 Z" fill="#3e721d"/>
	</g>
	<g>
		<path d="M 20.375,8.8105 c -0.583,-3.5 -1.125,-5.248 -4.625,-5.832 c -3.5,-0.583 -6.417,1.75 -6.417,1.75 s 0.584,-3.5 2.334,-4.666 c 0.686,-0.458 1.166,1.75 1.75,1.75 c 0.583,0 1.166,-1.75 2.916,-1.75 c 0.584,0 0.584,1.75 1.167,1.75 s 2.243,-0.577 2.333,0 c 0.126,0.812 -0.167,1.729 0.292,2.104 s 1.553,-0.148 1.901,0.489 c 0.349,0.636 -0.61,1.553 -0.526,1.969 c 0.084,0.417 0.719,0.584 0.526,1.375 c -0.192,0.792 -0.65,0.833 -0.692,1.417 c -0.042,0.583 0.885,1.081 0.692,1.686 c -0.192,0.606 -0.651,0.688 -0.859,1.459 c -0.208,0.772 0.541,0.65 0.333,1.44 s -0.958,0.991 -1.208,1.766 c -0.25,0.774 0.666,0.941 0.208,1.691 s -1.291,0.875 -1.333,1.333 s 0.209,0.819 0.042,1.555 s -1.126,0.362 -1.209,0.945 s 0.209,0.875 0.209,1.583 s -0.709,0.834 -0.626,1.542 c 0.084,0.708 0.75,0.167 1.167,1 s -0.249,1.583 0.209,2.083 s 1.083,-0.667 1.708,-0.25 s 0.677,1.25 1.359,1.375 c 0.683,0.125 0.891,-1.292 1.391,-1.25 s 1.625,0.709 2.208,0.417 s 0.541,-1.459 1,-1.959 s 1.042,-0.041 1.458,-0.583 s -0.145,-1.174 -0.062,-1.966 s 0.854,-1.242 0.813,-1.867 s -0.667,-0.625 -0.917,-1.292 s 0.458,-1.25 0.208,-1.875 s -1.332,-0.833 -1.291,-1.458 s 0.459,-1.333 0.25,-2.042 c -0.209,-0.708 -1.084,-1.167 -1.042,-1.708 c 0.042,-0.542 0.499,-1.251 0.583,-1.646 c 0.084,-0.396 -0.749,-0.813 -0.666,-1.479 c 0.083,-0.667 0.624,-0.621 0.832,-1.223 s -0.749,-0.902 -0.249,-1.673 s 0.751,-0.27 1.167,-0.687 s -0.001,-1.334 0.416,-1.542 s 1.25,-0.042 1.667,-0.333 c 0.417,-0.292 0.417,-0.708 0.875,-0.875 s 1.042,0.541 1.417,0.541 s 1.041,-0.708 1.541,-0.541 s 1.584,1.333 0.917,1.687 s -5.751,0.605 -5.792,2.938 s 2.793,12.917 1.959,15.583 s -4.291,8.334 -8.25,7.25 s -8.667,-3.501 -7.542,-7.209 s 4.749,-11.295 5.458,-14.772 Z" fill="#3e721d"/>
	</g>
	<g>
		<path d="M 20.9463,8.937 c 0,4.375 -1.714,8.201 -2.946,11.17 c -1.334,3.212 -1,9 4,9 s 6.51,-3.191 7,-5 c 1.358,-5.02 -2,-8 -2,-13 c 0,-9 8,-7 8,-6 s -6.934,1.374 -3,9 c 3.933,7.626 4,21.893 -10,21.893 s -14,-8.893 -12,-12.893 c 1.416,-2.832 4,-7.107 0.5,-9.045 c -2.283,-1.263 10.446,-5.125 10.446,-5.125 Z" fill="#77b255"/>
		<!--<path d="M 21,7.897 c 0,3.978 -2.382,8.144 -5.833,7.566 c -5.323,-0.89 -5.606,-2.587 -6.417,-1.546 c -2.917,3.743 -4.644,-0.485 -5.307,-1.186 c -0.167,-0.176 -3.443,-1.141 -3.443,-2.987 c 0,-1.198 1.75,-2.419 2.917,-1.231 c 1.722,-0.044 8.166,-6.157 12.25,-6.157 c 4.083,0 5.833,3.079 5.833,5.541 Z" fill="#77b255"/>-->
	</g>
	head:
	<g transform="translate(0 0.0625) scale(0.5833)"> scale 7/12
		<use href="#head4" fill="#77b255"/>
		<circle r="2" cx="23" cy="12" fill="#292f33"/>
		<path d="M 5,17.5 c 0,0.82845 -0.67155,0.5 -1.5,0.5 s -1.5,0.32845 -1.5,-0.5 a 1.5,1.5 0 01 3,0 Z" fill="#3e721d"/>
		<path d="M 19,19 c 0,1.1046 -0.67155,1 -1.5,1 s -1.5,0.1046 -1.5,-1 s 0.67155,-4 1.5,-4 s 1.5,2.8954 1.5,4 Z" fill="#ffffff"/>
		<path d="M 15,20 c 0,1.1046 -0.67155,1 -1.5,1 s -1.5,0.1046 -1.5,-1 s 0.67155,-4 1.5,-4 s 1.5,2.8954 1.5,4 Z" fill="#ffffff"/>
		<path d="M 5,23 s 7,-2 14,-3" stroke-width="2" stroke-linecap="round" fill="none" stroke="#3e721d" clip-path="url(#head3)"/>
		<path d="M 19.43078,11.5 s 3,-3 8,-3" stroke-width="3.4286" stroke-linecap="round" fill="none" stroke="#3e721d"/>
	</g>
	arm
	<g>
		<path d="M 10.7085,25.333 c 0.626,-6.708 -5.417,-7.542 -7.417,-6.083 c -1.097,0.8 -1.353,2.323 -0.479,1.521 c 1.542,-1.416 2.084,-0.375 0.917,0.375 s -1.375,2.146 -0.083,1.188 c 1.291,-0.958 1.645,-0.334 0.645,0.895 c -0.604,0.745 0.042,1.438 1.167,-0.062 c 0.938,-1.251 4.2,-1.294 3.662,2.99 c -0.221,1.756 1.454,0.608 1.588,-0.824 Z" fill="#5c913b"/>
	</g>
</svg>
