<svg xmlns="http://www.w3.org/2000/svg" viewBox="0 0 36 36">
	effectively just a cropped version of Dragon.svg
	
	<defs>
		<clipPath id="head3">
			<path id="head4" d="M 36,13.43057 c 0,6.81943 -4.08343,13.96114 -10,12.97029 c -9.12457,-1.52572 -9.60971,-4.43486 -11,-2.65029 c -5,6.41657 -7.96114,-0.83143 -9.09771,-2.03314 c -0.28629,-0.30172 -5.90229,-1.956 -5.90229,-5.12057 c 0,-2.05372 3,-4.14686 5,-2.11029 c 2.95257,-0.07543 14,-10.55486 21,-10.55486 s 10,5.27829 10,9.49886 Z"/>
		</clipPath>
	</defs>
	
	<path d="M 35.125,13.3437 c 0,0.906 0.847,1.189 0.847,1.908 c 0,0.718 -1.049,1.159 -1.174,2.097 c -0.125,0.937 0.933,1.546 0.796,2.392 c -0.163,0.999 -1.492,1.12 -1.749,2.184 c -0.257,1.065 0.811,1.727 0.811,2.357 c 0,0.957 -2.312,1.575 -2.312,2.531 c 0,0.957 1.183,2.499 0,3.156 c -1.116,0.62 -1.518,0.372 -2.094,1.375 s 0.475,1.953 0.094,2.969 c -0.436,1.158 -2.031,0.187 -2.375,1.687 h-3.36 l 6.86,-13.718 c -0.851,-6.068 -0.296,-15.998 -5.641,-16.889 c -5.739,-0.956 -10.522,2.87 -10.522,2.87 s 0.956,-5.74 3.826,-7.653 c 1.126,-0.75 1.913,2.87 2.87,2.87 c 0.956,0 1.913,-2.87 4.783,-2.87 c 0.956,0 0.956,2.87 1.913,2.87 c 0.956,0 3.552,-0.812 3.552,0.145 s -1.078,2.727 0.274,2.725 c 3.632,-0.006 1.537,1.518 1.746,3.312 c 0.073,0.625 1.626,0.391 1.626,1.047 c 0,0.308 -0.771,1.635 -0.771,2.635 Z" fill="#3e721d"/>
	
	neck
	<path d="M 16,36 s 9.0695,-8.2715 1.8325,-12.1275 c -2.182,-0.964 -2.681,-1.573 16.605,-9.8725 c 0,8.1565 -4.089,17.2165 -8.871,22 h-9.5665 Z" fill="#77b255"/>
	
	head
	<g transform="translate(0 0.6097) scale(0.9565)"> scale 22/23 ? not sure. derived from 34.4375/36
		<use href="#head4" fill="#77b255"/>
		<circle r="2" cx="23" cy="12" fill="#292f33"/>
		<path d="M 5,17.5 c 0,0.82845 -0.67155,0.5 -1.5,0.5 s -1.5,0.32845 -1.5,-0.5 a 1.5,1.5 0 01 3,0 Z" fill="#3e721d"/>
		<path d="M 19,19 c 0,1.1046 -0.67155,1 -1.5,1 s -1.5,0.1046 -1.5,-1 s 0.67155,-4 1.5,-4 s 1.5,2.8954 1.5,4 Z" fill="#ffffff"/>
		<path d="M 15,20 c 0,1.1046 -0.67155,1 -1.5,1 s -1.5,0.1046 -1.5,-1 s 0.67155,-4 1.5,-4 s 1.5,2.8954 1.5,4 Z" fill="#ffffff"/>
		<path d="M 5,23 s 7,-2 14,-3" stroke-width="2" stroke-linecap="round" fill="none" stroke="#3e721d" clip-path="url(#head3)"/>
		<path d="M 19.43078,11.5 s 3,-3 8,-3" stroke-width="2.0907" stroke-linecap="round" fill="none" stroke="#3e721d"/>
	</g>
</svg>
