<svg xmlns="http://www.w3.org/2000/svg" viewBox="0 0 36 36">
	scale is: calc 36/34.4375 ish
	
	these other layers were scaled too but arent grid aligned enough. also maybe y axis scale is different? TODO
	
	see Dragon.svg
	<!--
		<path d="M 20.9463,8.937 c 0,4.375 -1.714,8.201 -2.946,11.17 c -1.334,3.212 -1,9 4,9 s 6.51,-3.191 7,-5 c 1.358,-5.02 -2,-8 -2,-13 c 0,-9 8,-7 8,-6 s -6.934,1.374 -3,9 c 3.933,7.626 4,21.893 -10,21.893 s -14,-8.893 -12,-12.893 c 1.416,-2.832 4,-7.107 0.5,-9.045 c -2.283,-1.263 10.446,-5.125 10.446,-5.125 Z" fill="#77b255"/>
		<path d="M 21,7.897 c 0,3.978 -2.382,8.144 -5.833,7.566 c -5.323,-0.89 -5.606,-2.587 -6.417,-1.546 c -2.917,3.743 -4.644,-0.485 -5.307,-1.186 c -0.167,-0.176 -3.443,-1.141 -3.443,-2.987 c 0,-1.198 1.75,-2.419 2.917,-1.231 c 1.722,-0.044 8.166,-6.157 12.25,-6.157 c 4.083,0 5.833,3.079 5.833,5.541 Z" fill="#77b255"/> separate head/body layers -->
	<defs>
		<clipPath id="head1">
			<path id="head2" d="M 34.4375,13.4575 v0.545 c 0,8.154 -4.089,17.214 -8.871,21.997 h-9.566 s 9.069,-8.271 1.832,-12.127 c -2.182,-0.964 -2.681,-1.573 -3.483,-0.542 c -4.784,6.137 -7.616,-0.796 -8.704,-1.946 c -0.272,-0.288 -5.646,-1.87 -5.646,-4.898 c 0,-1.964 2.87,-3.966 4.784,-2.019 c 2.823,-0.071 13.392,-10.095 20.088,-10.095 s 9.566,5.047 9.566,9.085 Z"/>
		</clipPath>
	</defs>
	
	<path d="M 35.125,13.3437 c 0,0.906 0.847,1.189 0.847,1.908 c 0,0.718 -1.049,1.159 -1.174,2.097 c -0.125,0.937 0.933,1.546 0.796,2.392 c -0.163,0.999 -1.492,1.12 -1.749,2.184 c -0.257,1.065 0.811,1.727 0.811,2.357 c 0,0.957 -2.312,1.575 -2.312,2.531 c 0,0.957 1.183,2.499 0,3.156 c -1.116,0.62 -1.518,0.372 -2.094,1.375 s 0.475,1.953 0.094,2.969 c -0.436,1.158 -2.031,0.187 -2.375,1.687 h-3.36 l 6.86,-13.718 c -0.851,-6.068 -0.296,-15.998 -5.641,-16.889 c -5.739,-0.956 -10.522,2.87 -10.522,2.87 s 0.956,-5.74 3.826,-7.653 c 1.126,-0.75 1.913,2.87 2.87,2.87 c 0.956,0 1.913,-2.87 4.783,-2.87 c 0.956,0 0.956,2.87 1.913,2.87 c 0.956,0 3.552,-0.812 3.552,0.145 s -1.078,2.727 0.274,2.725 c 3.632,-0.006 1.537,1.518 1.746,3.312 c 0.073,0.625 1.626,0.391 1.626,1.047 c 0,0.308 -0.771,1.635 -0.771,2.635 Z" fill="#3e721d"/>
	
	<use href="#head2" fill="#77b255"/>
	<g transform="translate(0 0.6097) scale(0.9566)">
		<circle r="2" cx="23" cy="12" fill="#292f33"/>
		<path d="M 5,17.5 c 0,0.82845 -0.67155,0.5 -1.5,0.5 s -1.5,0.32845 -1.5,-0.5 a 1.5,1.5 0 01 3,0 Z" fill="#3e721d"/>
		<path d="M 19,19 c 0,1.1046 -0.67155,1 -1.5,1 s -1.5,0.1046 -1.5,-1 s 0.67155,-4 1.5,-4 s 1.5,2.8954 1.5,4 Z" fill="#ffffff"/>
		<path d="M 15,20 c 0,1.1046 -0.67155,1 -1.5,1 s -1.5,0.1046 -1.5,-1 s 0.67155,-4 1.5,-4 s 1.5,2.8954 1.5,4 Z" fill="#ffffff"/>
	</g>
	<g clip-path="url(#head1)">
		<path d="M 5,23 s 7,-2 14,-3" stroke-width="2" stroke-linecap="round" fill="none" stroke="#3e721d" transform="translate(0 0.6097) scale(0.9566)"/>
	</g>
	<path d="M 19.43078,11.5 s 3,-3 8,-3" stroke-width="2.0907" stroke-linecap="round" fill="none" stroke="#3e721d" transform="translate(0 0.6097) scale(0.9566)"/>
</svg>
