<svg xmlns="http://www.w3.org/2000/svg" viewBox="0 0 36 36">
	<g fill="#55ACEE">
		<rect x="11" y="0" width="2" height="3"/>
		<rect x="23" y="0" width="2" height="3"/>
		<path d="M 18,36 c -11,0 -17,-10.357 -17,-10.357 l 12.58,-13.796 l -3.58,-9.847 s 8,0 8,3 c 0,-3 8,-3 8,-3 l -3.58,9.847 l 12.58,13.796 s -6,10.357 -17,10.357 Z"/>
	</g>
	<path fill="#3B88C3" d="M 15,13 s -3.367,9.907 -5.051,9.006 s 5.051,-9.006 5.051,-9.006 Z"/>
	<path fill="#3B88C3" d="M 21.096,13 s 6.735,8.105 5.051,9.006 s -5.051,-9.006 -5.051,-9.006 Z"/>
	<path fill="#3B88C3" d="M 18,13 s 2,11 0,11 s 0,-11 0,-11 Z"/>
	<path fill="#BBDDF5" d="M 13,13 v-2 h10 v2 h-10 Z"/>
</svg>
