<svg xmlns="http://www.w3.org/2000/svg" viewBox="0 0 36 36">
	scaled? idk..
	
	body
	<g>
		<path d="M 12.75,17.75 c 1.226,2.195 1.855,-1.361 9.313,-2.625 c 7.457,-1.264 13.728,4.454 13.859,5.413 c 0.131,0.958 -4.448,9.462 -9.463,9.462 h-15.71 c -4.142,0 -7.022,-7.224 -3.999,-11.438 c 0,0 4.5,-3.5 6,-0.812 Z" fill="#d99e82"/>
		<path d="M 20.0625,22.75 c 6.672,-2.682 15.729,-3.171 15.859,-2.212 c 0.131,0.958 -4.448,9.462 -9.463,9.462 h-14.646 c -4.143,0 1.232,-4.429 8.25,-7.25 Z" fill="#e1e8ed"/>
		<path d="M 25.3594,21.125 c 6,-1.312 10.468,-1.282 10.563,-0.587 c 0.079,0.578 -1.559,3.907 -3.973,6.454 c 2.204,-2.804 1.42,-6.113 -6.59,-5.867 Z" fill="#292f33"/>
	</g>
	neck/head
	<g>
		<path d="M 13.0083,18.1357 c -4.989,6.937 -6.04,11.864 -2.259,11.864 c -4.142,0 -6.577,-6.187 -4.468,-11.031 c 0.463,-1.064 1.758,-2.492 1.758,-2.492 l 4.179,-0.008 c 0.163,0.32 0.599,1.366 0.79,1.667 Z" fill="#c1694f"/>
		<path d="M 7.125,6.125 c 1.562,-4.937 10.439,-4.143 10.063,0.687 c -0.378,4.829 -6.454,7.86 -4.18,11.324 c -1.586,1.38 -5.015,0.913 -6.727,0.833 c 0.702,-1.351 1.381,-2.632 1.813,-3.406 c 2.915,-5.235 -2.132,-5.764 -0.969,-9.438 Z" fill="#3e721d"/>
		<path d="M 12.5024,16.625 c 0.044,0.625 0.506,1.511 0.506,1.511 c -1.016,1.473 -5.643,3.016 -7.354,2.929 c 0.096,-0.627 0.283,-1.362 0.627,-2.096 c 1.844,-0.471 4.66,-1.071 6.221,-2.344 Z" fill="#f5f8fa"/>
	</g>
	eye
	<circle r="1.2955" cx="10.4125" cy="6.1519" fill="#292f33"/>
	beak
	<path d="M 1.8926,9.0449 c 0.568,-1.1 0.549,0.106 3.352,0.142 c 1.554,0.02 1.463,-0.56 1.664,-1.621 c 0.042,-0.223 0.776,1.616 2.061,1.807 c 3.554,0.531 1.879,1.94 0,2.261 c -0.901,0.154 -2.01,0.319 -3.937,0.155 c -2.52,-0.212 -3.768,-1.528 -3.14,-2.744 Z" fill="#ffcc4d"/>
</svg>
