<svg xmlns="http://www.w3.org/2000/svg" viewBox="0 0 36 36">
	<path d="M 1.4426,13.6582 c 1.03,-0.715 2.03,-1.58 2.285,-2.54 c 0.254,-0.959 3.185,-2.313 3.679,-1.97 c 0.494,0.342 1.075,0.013 1.371,-0.744 s 3.476,-2.541 4.244,-2.093 c 0.768,0.447 2.095,0.028 2.558,-0.458 c 0.464,-0.486 3.891,-0.542 4.29,0.19 c 0.4,0.732 1.061,0.596 1.858,0.268 c 0.796,-0.329 3.266,-0.29 3.586,0.391 c 0.321,0.681 1.161,1.12 1.772,0.941 s 2.967,0.435 2.721,1.324 c -0.245,0.889 0.318,1.531 1.146,1.486 c 0.828,-0.044 2.3,1.661 2.156,2.085 c -0.145,0.425 0.418,0.945 0.987,1.197 c 0.568,0.252 0.71,2.529 -0.864,3.111 c -1.573,0.583 -26.976,2.846 -28.953,0.634 c -1.978,-2.212 -2.836,-3.822 -2.836,-3.822 Z" fill="#ffd983"/>
	<g fill="#ffd983">
		<path d="M 20.8897,12.836 c -0.48,4.459 -3.09,7.96 -4.838,7.752 c -1.749,-0.208 -2.777,-3.991 -2.297,-8.45 c 0.48,-4.457 1.589,-7.388 3.909,-7.388 c 2.552,0 3.706,3.629 3.226,8.086 Z"/>
		<path d="M 25.97,13.1929 c -0.48,4.459 -3.09,7.96 -4.838,7.752 c -1.749,-0.208 -2.777,-3.991 -2.297,-8.45 c 0.48,-4.457 1.824,-5.906 4.036,-6.642 c 2.872,-0.954 3.579,2.883 3.099,7.34 Z"/>
		<path d="M 28.2125,15.8267 c -1.624,4.15 -4.101,7.009 -5.535,6.388 c -1.433,-0.621 -0.905,-4.346 0.342,-8.636 c 1.671,-5.745 4.58,-6.607 6.014,-5.986 c 1.433,0.621 0.802,4.086 -0.821,8.234 Z"/>
		<path d="M 29.3347,18.3055 c -2.794,3.391 -6.008,5.273 -7.179,4.203 c -1.171,-1.068 0.142,-4.682 2.936,-8.072 c 2.793,-3.391 6.042,-4.558 7.434,-3.838 c 1.924,0.996 -0.397,4.318 -3.191,7.707 Z"/>
		<path d="M 29.2322,20.8495 c -4.118,1.167 -7.832,0.649 -8.294,-1.159 c -0.462,-1.807 2.499,-4.219 6.617,-5.386 c 4.118,-1.168 7.544,-1.327 8.294,1.159 c 0.538,1.783 -2.5,4.219 -6.617,5.386 Z"/>
		<path d="M 16.9221,12.0426 c 1.383,4.243 0.32,8.826 -1.146,9.355 c -1.467,0.529 -5.147,-2.188 -6.529,-6.432 c -1.383,-4.244 -0.916,-7.954 1.519,-8.936 c 2.244,-0.905 4.772,1.768 6.156,6.013 Z"/>
		<path d="M 11.6969,13.6465 c 2.715,3.46 3.945,7.107 2.75,8.145 c -1.196,1.039 -5.471,0.3 -8.184,-3.161 c -2.715,-3.46 -3.536,-7.512 -1.647,-9.369 c 1.905,-1.872 4.366,0.924 7.081,4.385 Z"/>
		<path d="M 8.4144,14.8284 c 3.899,1.817 6.794,5.722 6.243,7.245 c -0.553,1.525 -4.232,1.466 -8.216,-0.134 c -3.985,-1.597 -6.836,-5.109 -6.284,-6.633 c 0.551,-1.525 1.931,-3.425 8.257,-0.478 Z"/>
	</g>
	<path d="M 35.6495,24.0356 c 0,5.312 -7.752,7.214 -17.315,7.214 s -18.036,-3.104 -18.036,-8.416 c 0,-5.313 8.473,-14.429 18.036,-14.429 s 17.315,10.319 17.315,15.631 Z" fill="#ffd983"/>
	<g fill="#ffac33">
		<path d="M 10.2579,16.8854 c -0.868,1.94 -2.018,3.312 -2.573,3.064 c -0.554,-0.248 -0.3,-2.02 0.567,-3.961 c 0.867,-1.939 2.086,-2.914 2.64,-2.667 c 0.554,0.248 0.233,1.624 -0.634,3.564 Z"/>
		<path d="M 14.5808,16.5115 c -0.645,2.701 -1.63,4.78 -2.201,4.644 c -0.571,-0.137 -0.511,-2.436 0.134,-5.138 c 0.645,-2.701 1.739,-4.304 2.31,-4.167 c 0.571,0.136 0.402,1.96 -0.243,4.661 Z"/>
		<path d="M 19.5367,16.6311 c 0,2.989 -0.538,5.411 -1.202,5.411 s -1.203,-2.422 -1.203,-5.411 c 0,-2.988 0.539,-5.41 1.203,-5.41 s 1.202,2.422 1.202,5.41 Z"/>
		<path d="M 24.2206,16.401 c 0.513,2.533 0.446,4.683 -0.148,4.803 c -0.595,0.121 -1.492,-1.834 -2.005,-4.367 s -0.447,-4.683 0.147,-4.804 c 0.596,-0.12 1.492,1.835 2.006,4.368 Z"/>
		<path d="M 28.0736,16.6241 c 0.945,1.944 1.269,3.734 0.724,4 c -0.546,0.265 -1.754,-1.095 -2.7,-3.04 c -0.945,-1.943 -1.269,-3.734 -0.724,-3.999 c 0.546,-0.266 1.754,1.095 2.7,3.039 Z"/>
	</g>
	<g fill="#ffcc4d">
		these look like ellipses but mostly arent,
		<path d="M 2.9813,15.6849 c 0.663,0.572 0.935,1.378 0.607,1.799 c -0.329,0.421 -1.133,0.299 -1.796,-0.273 c -0.664,-0.573 -0.935,-1.378 -0.607,-1.799 c 0.329,-0.422 1.133,-0.299 1.796,0.273 Z"/>
		<path d="M 6.4727,10.7815 c 0.263,0.762 0.082,1.53 -0.405,1.716 s -1.094,-0.28 -1.358,-1.042 c -0.263,-0.761 -0.082,-1.53 0.405,-1.716 s 1.095,0.281 1.358,1.042 Z"/>
		<path d="M 12.8649,7.3194 c 0.514,0.603 0.618,1.387 0.233,1.751 c -0.386,0.364 -1.115,0.169 -1.629,-0.434 c -0.515,-0.603 -0.619,-1.387 -0.233,-1.751 s 1.115,-0.169 1.629,0.434 Z"/>
		<path d="M 18.6717,6.4706 c 0.514,0.603 0.618,1.387 0.233,1.751 c -0.386,0.364 -1.115,0.169 -1.629,-0.434 c -0.515,-0.603 -0.619,-1.387 -0.233,-1.751 s 1.115,-0.169 1.629,0.434 Z"/>
		<path d="M 25.0279,7.9011 c 0.057,0.92 -0.396,1.7 -1.011,1.742 c -0.616,0.043 -1.162,-0.669 -1.219,-1.588 c -0.058,-0.92 0.395,-1.7 1.011,-1.742 c 0.616,-0.043 1.162,0.668 1.219,1.588 Z"/>
		<path d="M 29.0921,9.926 c 0.147,0.795 -0.147,1.524 -0.655,1.628 s -1.04,-0.457 -1.186,-1.252 c -0.147,-0.796 0.146,-1.525 0.655,-1.628 c 0.508,-0.104 1.039,0.457 1.186,1.252 Z"/>
		<path d="M 32.2595,13.3618 c -0.333,0.684 -0.976,1.038 -1.437,0.79 s -0.566,-1.004 -0.233,-1.688 c 0.333,-0.685 0.976,-1.038 1.437,-0.79 s 0.566,1.004 0.233,1.688 Z"/>
		<path d="M 34.5436,17.1717 c -0.414,0.532 -1.118,0.646 -1.572,0.255 c -0.453,-0.392 -0.485,-1.14 -0.07,-1.672 c 0.414,-0.532 1.118,-0.646 1.571,-0.254 c 0.454,0.391 0.486,1.139 0.071,1.671 Z"/>
	</g>
</svg>
