<svg xmlns="http://www.w3.org/2000/svg" viewBox="0 0 36 36">
	<defs>
		<clipPath id="clipPath28">
			<path d="M 2,18 c 0,8.836 7.164,16 16,16 v0 c 8.836,0 16,-7.164 16,-16 v0 c 0,-8.836 -7.164,-16 -16,-16 v0 c -8.836,0 -16,7.164 -16,16 Z M 13.235,18 c 0,-2.632 2.133,-4.765 4.765,-4.765 v0 c 2.631,0 4.766,2.133 4.766,4.765 v0 c 0,2.631 -2.135,4.766 -4.766,4.766 v0 c -2.632,0 -4.765,-2.135 -4.765,-4.766 Z"/>
		</clipPath>
	</defs>
	<path d="M 18,15 c 1.657,0 3,1.343 3,3 s -1.343,3 -3,3 s -3,-1.343 -3,-3 s 1.343,-3 3,-3 Z M 36,18 c 0,-9.941 -8.059,-18 -18,-18 s -18,8.059 -18,18 s 8.059,18 18,18 s 18,-8.059 18,-18 Z" fill="#FFD983"/>
	<g clip-path="url(#clipPath28)" id="g26">
		<path d="M 18,18 l -18,-2 v-16 h16 l 2,18 Z" fill="#FFAC33" />
		<path d="M 18,18 l 18,2 v16 h-16 l -2,-18 Z" fill="#FFAC33" />
		<path d="M 18,18 l 18,18 l -15.875,1 l -2.125,-19 Z" fill="#FFE8B6" />
		<path d="M 18,18 l -18,-18 l 16,-1 l 2,19 Z" fill="#FFE8B6" />
	</g>
</svg>
