<svg xmlns="http://www.w3.org/2000/svg" viewBox="0 0 36 36">
	<g transform="translate(-0.492)">
		scaled..
		<g>
			<path d="M 7.6045,36 h23.589 c -0.433,-12.618 -2.98,-23.689 -11.795,-23.689 c -8.814,0 -11.361,11.071 -11.794,23.689 Z" fill="#292f33"/>
			<path d="M 25.9307,36 h8.069 c -0.706,-5.899 -2.244,-10 -4.034,-10 s -3.328,4.101 -4.035,10 Z" fill="#292f33"/>
			<path d="M 3,36 h9.069 c -0.794,-5.899 -2.523,-10 -4.535,-10 s -3.74,4.101 -4.534,10 Z" fill="#292f33"/>
		</g>
		<g fill="#e1e8ed">
			<path d="M 7.5352,23.6875 c -0.792,2.252 1.715,4.687 1.715,4.687 s 3.765,-5.96 4.915,-7.5 c 4.17,2.594 9.085,8.25 9.085,8.25 s 1.159,-3.66 1.75,-6.937 c 2.138,1.09 4.75,5.846 4.75,5.846 s 2.562,-3.159 1.443,-5.908 c -4.457,-10.952 -2.193,-19.125 -13.193,-19.125 s -6.542,9.533 -10.465,20.687 Z"/>
			<path d="M 20,20 l -10,-1 s 3,5 4,8 c 5,-4 6,-7 6,-7 Z"/>
		</g>
		<ellipse rx="1.4835" ry="1.483" cx="15.544" cy="7.5166" fill="#292f33"/>
		<rect width="5" height="2" x="13" y="5.07" fill="#e1e8ed"/>
		<g>
			<path d="M 12,5 c -4.36,3.059 -5.542,2.16 -7.812,3.563 c -2.126,1.312 -2.001,4.937 -0.125,8.062 c 0.579,-2.661 -0.501,-3.149 6.937,-3.149 c 5,0 7.928,0.289 7.001,-1 c -0.928,-1.29 -10.027,0.458 -6.001,-7.476 Z" fill="#ffcc4d"/>
		</g>
	</g>
</svg>
