<svg xmlns="http://www.w3.org/2000/svg" viewBox="0 0 36 36">
	<!-- this one is also rotated 45° and scaled -->
	
	<path d="M 15.373,1.022 s 1.664,-1.664 2.496,0.832 c 1.663,4.991 1.663,8.319 0.831,10.815 c -1.577,4.734 -4.991,8.318 -7.486,2.495 c -2.496,-5.824 2.496,-12.478 4.159,-14.142 Z"  fill="#5C913B"/>
	<path d="M 34.677,20.326 c -1.663,1.663 -8.319,6.655 -14.142,4.159 c -5.824,-2.496 -2.241,-5.909 2.495,-7.486 c 2.497,-0.832 5.823,-0.833 10.814,0.832 c 2.496,0.831 0.833,2.495 0.833,2.495 Z"  fill="#5C913B"/>
	<path d="M 32.314,6.317 c -0.001,1.663 -2.647,20.646 -19.286,23.972 c -3.011,0.603 -8.233,-4.665 -7.638,-7.638 c 3.327,-16.637 22.461,-19.133 24.125,-19.133 c 0,0 1.583,0 2.018,0.546 c 0.636,0.526 0.781,2.253 0.781,2.253 Z"  fill="#F4900C"/>
	
	<path d="M 23.152,7.199 l 1.617,1.617 a 1.1435,1.1435 0 01 -1.617,1.618 l -1.618,-1.618 a 1.1435,1.1435 0 01 1.618,-1.617 Z"  fill="#F7B82D"/>
	<path d="M 15.064,10.435 l -1.091,-1.091 c 0.636,-0.468 1.284,-0.899 1.938,-1.297 l 0.77,0.77 a 1.1435,1.1435 0 01 -1.617,1.618 Z"  fill="#F7B82D"/>
	<path d="M 17.49,8.008 l -0.557,-0.556 c 0.718,-0.398 1.438,-0.761 2.149,-1.086 l 0.025,0.025 a 1.1435,1.1435 0 01 -1.617,1.617 Z"  fill="#F7B82D"/>
	
	<path d="M 12.637,12.861 l -1.286,-1.286 c 0.551,-0.543 1.121,-1.054 1.707,-1.528 l 1.198,1.196 a 1.1435,1.1435 0 01 -1.619,1.618 Z"  fill="#F7B82D"/>
	
	
	<path d="M 26.368,3.977 c 1.271,-0.267 2.247,-0.395 2.787,-0.439 l 0.462,0.462 a 1.1435,1.1435 0 01 -1.617,1.617 l -1.617,-1.617 c -0.007,-0.007 -0.009,-0.016 -0.015,-0.023 Z"  fill="#F7B82D"/>
	
	<path d="M 23.96,6.39 a 1.1435,1.1435 0 01 1.617,-1.617 l 1.617,1.617 a 1.1435,1.1435 0 01 -1.617,1.617 l -1.617,-1.617 Z"  fill="#F7B82D"/>
	<path d="M 22.343,11.243 a 1.1435,1.1435 0 01 -1.618,1.618 l -1.617,-1.618 a 1.1435,1.1435 0 01 1.617,-1.617 l 1.618,1.617 Z"  fill="#F7B82D"/>
	<path d="M 19.915,13.669 a 1.1435,1.1435 0 01 -1.617,1.618 l -1.617,-1.618 a 1.1435,1.1435 0 01 1.617,-1.617 l 1.617,1.617 Z"  fill="#F7B82D"/>
	<path d="M 15.064,18.521 a 1.1435,1.1435 0 01 -1.618,1.618 l -1.617,-1.618 a 1.1435,1.1435 0 01 1.617,-1.617 l 1.618,1.617 Z"  fill="#F7B82D"/>
	<path d="M 14.256,16.096 a 1.1435,1.1435 0 01 1.617,-1.618 l 1.618,1.618 a 1.1435,1.1435 0 01 -1.618,1.617 l -1.617,-1.617 Z"  fill="#F7B82D"/>
	
	<!-- the stem on the end is a rounded rectangle hmm -->
	<path d="M 27.866,23.574 c 2.799,0.932 5.601,5.602 2.8,8.402 c -0.933,0.934 -1.867,1.867 -1.867,0 c 0,-1.866 -2.8,-4.667 -5.6,-3.734 c -2.632,0.878 -9.38,7.517 -16.379,3.677
a 2.354,2.354 0 01 -0.316,0.398
l -0.715,0.716
a 2.354,2.354 0 01 -3.328,0
l -0.716,-0.716
a 2.354,2.354 0 01 0,-3.329
l 0.715,-0.714
a 2.354,2.354 0 01 0.744,-0.499
c -2.736,-6.633 3.318,-12.87 4.153,-15.375 c 0.932,-2.801 -1.868,-5.601 -3.735,-5.601 s -0.934,-0.934 0,-1.868 c 2.8,-2.8 7.468,0.001 8.402,2.801 c 2.374,7.124 -0.651,15.097 -3.576,19.418 c 4.321,-2.924 12.293,-5.95 19.418,-3.576 Z"  fill="#77B255"/>
	</svg>
