<svg xmlns="http://www.w3.org/2000/svg" viewBox="0 0 36 36">
	<path d="M 18,1 c 5.625,0 12,9.611 12,19 s -6,15 -12,15 s -12,-5.611 -12,-15 s 6.375,-19 12,-19 Z" fill="#f7dece"/>
	
	<path d="M 18,1 c 5.625,0 12,9.611 12,19 s -6,15 -12,15 s -12,-5.611 -12,-15 s 6.375,-19 12,-19 Z" transform="translate(28.25 32.25) scale(0.9453 0.9596) translate(-30 -35)" fill="#f7dece"/>
	
	<path d=" M
18,1
 C 23.625,1 30,10.611
30,20 b
 C 30,29.389 24,35
18,35 a
 C 12,35 6,29.389
6,20
 C 6,10.611 12.375,1
18,1
Z" fill="#f7dece"/>
	

	ofs:
	-1.75
	-2.144
	x
	0.9453333333333333333333333333333333
	0.9453333333333333333333333333333333
	y
	0.9596336138033869421663648950899989
	0.9596
	
	<path d=" M
23.142,3.403
 C 26.913,6.839 30,13.469
30,20
 C 30,29.389 24,35
18,35
 C 12.623,35 7.26,30.483
6.201,22.791
 C 7.831,28.791 12.365,32.25
16.906,32.25 a
 C 22.578,32.25 28.25,26.866
28.25,17.856 b
 C 28.25,12.421 26.05,6.922
23.142,3.403
 Z" fill="#e0aa94"/>
</svg>
