<svg xmlns="http://www.w3.org/2000/svg" viewBox="0 0 36 36">
	<path d="M 6,4 c 3,0 5,2 8,6 s 7.957,7.191 12,8 c 5,1 9,5 9,11 c 0,4.897 -3.846,7 -9,7 c -5,0 -9,-3 -14,-8 s -10,-14 -10,-18 s 1,-6 4,-6 Z"  fill="#744EAA"/>
	<path d="M 3.515,0 c 1.248,0 1.248,1.248 1.248,2.495 c 0,1.764 1.248,1.129 2.496,1.129 c 1.246,0 3.741,2.376 3.741,2.376 h-3.742 c -1.248,0 0,2.614 -1.248,2.614 s -1.248,-1.188 -2.495,-1.188 s -1.515,3.574 -1.515,3.574 s -1.604,-4.153 0.267,-6.024 c 1.248,-1.248 -1.247,-4.976 1.248,-4.976 Z"  fill="#77B255"/> <!-- the stem is scaled down to like, 99.9%.. why -->	
</svg>
