<svg xmlns="http://www.w3.org/2000/svg" viewBox="0 0 36 36">
	<!-- I've never quite understood why this is considered an emoji by unicode.. -->
	<path d="M 13.5737,11.2354 c 1.335,0.971 2.631,0.43 2.882,-1.201 l 1.088,-7.069 c 0.251,-1.631 0.661,-1.631 0.912,0 l 1.088,7.069 c 0.251,1.631 1.548,2.172 2.882,1.201 l 6.149,-4.471 c 1.334,-0.97 1.631,-0.673 0.661,0.662 l -4.471,6.147 c -0.971,1.335 -0.431,2.632 1.2,2.883 l 7.071,1.088 c 1.63,0.251 1.63,0.661 0,0.912 l -7.071,1.088 c -1.631,0.251 -2.171,1.547 -1.2,2.881 l 4.471,6.149 c 0.97,1.334 0.673,1.632 -0.661,0.661 l -6.149,-4.471 c -1.334,-0.97 -2.631,-0.43 -2.882,1.2 l -1.088,7.071 c -0.251,1.631 -0.661,1.631 -0.912,0 l -1.088,-7.071 c -0.251,-1.63 -1.547,-2.17 -2.882,-1.2 l -6.147,4.471 c -1.335,0.971 -1.581,0.713 -0.547,-0.573 l 5.085,-6.324 c 1.034,-1.287 0.542,-2.523 -1.092,-2.749 l -8.057,-1.112 c -1.634,-0.226 -1.638,-0.62 -0.008,-0.876 l 7.228,-1.136 c 1.631,-0.256 2.17,-1.557 1.2,-2.892 l -4.471,-6.147 c -0.971,-1.335 -0.673,-1.632 0.662,-0.662 l 6.147,4.471 Z" fill="#31373D" class="toodark"/> <!-- changed from #292f33 to match other emojis -->
</svg>
