<svg xmlns="http://www.w3.org/2000/svg" viewBox="0 0 36 36">
	<path d="M 20.409,24.866 l 14.635,-0.812 a 0.905,0.905 0 01 0.956,0.904 a 1.144,1.144 0 01 -1.031,1.138 c -2.973,0.294 -11.506,1.262 -13.969,2.904 l -7.525,3.344 a 8.688,8.688 0 00 -2.616,1.797 l -1.859,1.859 h-9 l 19,-20 l 5.463,-11.838 a 2.842,2.842 0 01 1.762,-1.529 l 8.296,-2.489 a 0.373,0.373 0 01 0.479,0.356 a 0.759,0.759 0 01 -0.459,0.697 l -5.517,2.364 a 2.84,2.84 0 00 -1.476,1.456 l -7.548,16.983 l 0.409,2.866 Z"  fill="#65471B"/>
	
	<path d="M 35.889,30.561 a 0.615,0.615 0 01 0.089,0.515 a 0.548,0.548 0 01 -0.329,0.377 a 8.793,8.793 0 01 -1.1,0.31 c -1.303,0.288 -3.511,0.52 -5.248,-0.591 c -0.524,-0.336 -0.951,-0.785 -1.309,-1.309 c 0.059,2.034 -0.65,4.662 -3.772,6.076 c -0.184,0.083 -0.401,0.082 -0.584,-0.002 s -0.31,-0.241 -0.341,-0.423 c -1.184,-6.854 1.461,-7.509 3.225,-8.428 a 0.757,0.757 0 01 0.536,-0.061 a 0.553,0.553 0 01 0.179,-0.236 c 3.422,-2.434 6.891,1.317 8.654,3.772 Z"  fill="#77B255"/>
	<path d="M 24.986,3.599 a 0.03073,0.03073 0 01 -0.023,0.057 c -0.012,0.037 -0.02,0.076 -0.041,0.11 c -1.465,2.341 -3.038,3.597 -4.45,3.597 c -0.325,0 -0.641,-0.067 -0.946,-0.202 a 0.502,0.502 0 01 -0.277,-0.597 c 0.244,-0.836 0.54,-1.538 0.883,-2.116 c -2.925,-0.51 -4.064,-2.693 -4.08,-2.724 a 0.5,0.5 0 01 0.326,-0.709 c 0.127,-0.032 0.28,-0.094 0.462,-0.165 c 1.333,-0.521 4.11,-1.607 8.013,2.296 c 0.007,0.007 0.008,0.018 0.015,0.025 a 0.508,0.508 0 01 0.093,0.159 a 0.02661,0.02661 0 01 0.023,0.048 a 0.485,0.485 0 01 0.002,0.221 Z"  fill="#77B255"/>
	
	<path d="M 24.5,34 a 0.501,0.501 0 01 -0.5,-0.495 c -0.023,-2.39 0.562,-3.425 1.306,-4.736 c 0.242,-0.428 0.505,-0.891 0.772,-1.455 c 0.194,-0.41 0.634,-0.647 1.079,-0.598 c 2.452,0.284 5.13,2.016 6.678,3.413 a 0.499,0.499 0 11 -0.67,0.742 c -1.158,-1.045 -3.751,-2.887 -6.123,-3.162 c -0.34,0.623 -0.613,1.106 -0.866,1.553 c -0.695,1.226 -1.197,2.112 -1.176,4.233 a 0.5,0.5 0 01 -0.495,0.505 h-0.005 Z"  fill="#5C913B"/>
	<path d="M 20.722,3.03 c -0.598,-0.322 -1.275,-0.688 -2.38,-1.056 a 0.5,0.5 0 11 0.317,-0.948 c 1.187,0.396 1.937,0.799 2.538,1.124 c 0.374,0.202 0.7,0.375 1.06,0.513 c -0.108,0.029 -0.22,0.043 -0.325,0.086 a 3.071,3.071 0 00 -0.811,0.493 a 22.623,22.623 0 01 -0.399,-0.212 Z"  fill="#5C913B"/>
	<path d="M 21.975,5.658 a 0.5,0.5 0 01 -0.95,-0.316 c 0.511,-1.532 1.712,-2.342 3.475,-2.342 a 0.5,0.5 0 01 0,1 c -1.327,0 -2.153,0.542 -2.525,1.658 Z"  fill="#5C913B"/>
	
	<path d="M 33.485,14.893 a 8.202,8.202 0 01 0.018,1.519 c -0.373,5.23 -3.204,6.548 -6.659,8.219 c -0.738,0.357 -3.42,2.792 -6.183,3.243 c -0.527,0.086 -1.345,0.072 -2.255,0.006 c -7.471,-0.543 -9.308,-1.977 -10.134,-2.661 c -1.341,-1.111 -2.344,-2.721 -3.414,-4.081 l -3.061,-3.893 c -0.034,-2.652 -0.215,-3.008 3.531,-5.144 c 4.127,-2.353 9.988,-4.523 14.46,-4.496 c 4.841,0.029 8.229,2.413 10.796,3.958 c 0.371,0.496 0.543,0.517 0.808,0.525 c 0.616,0.445 0.922,0.702 1.454,1.274 c -0.053,-0.032 0.28,0.415 0.329,0.491 c 0.21,0.436 0.249,0.893 0.31,1.04 Z"  fill="#BD9366"/>
	
	<path d="M 33.182,14.629 c 1.469,2.096 0.099,3.814 -0.344,5.551 c -2.92,11.429 -14.706,10.773 -15.078,10.759 c -13.696,-0.531 -14.457,-11.365 -14.543,-11.461 c 0,0 6.979,4.921 10.199,5.75 c 1.264,0.325 1.803,-1.629 0.539,-1.954 c -6.83,-1.758 -4.512,-3.893 -8.324,-5.482 a 1.01397,1.01397 0 01 0.539,-1.955 a 9.476,9.476 0 01 1.866,1.036 c 0.044,-0.036 0.073,-0.081 0.127,-0.112 c 0.431,-0.246 1.172,-0.144 1.387,0.364 a 7.352,7.352 0 00 0.706,1.262 c 2.438,2.008 5.757,3.82 8.156,3.884 c 8.521,0.228 9.226,-3.787 9.002,-9.794 c -0.054,-1.457 -0.592,-1.545 -1.722,-2.407 c -0.505,-0.385 -0.007,-1.253 0.505,-0.863 a 55.723,55.723 0 00 0.603,0.451 c 0.186,-0.09 0.414,-0.11 0.679,-0.015 c 1.603,0.573 2.914,1.634 3.602,3.009 c 0.073,-0.017 0.147,-0.044 0.216,-0.044 a 1.01,1.01 0 01 0.482,0.144 c 0.432,-0.241 1.041,1.361 1.403,1.877 Z"  fill="#A57F5A"/>
	
	<path d="M 18.242,9.687 c 3.015,0.457 10.248,-0.29 9.823,3.248 c -0.893,7.444 -12.189,7.349 -18.668,4.408 c -1.024,-0.465 -1.13,-1.207 -1.388,-2.269 c -0.204,-0.84 0.045,-1.482 0.508,-2.015 c 0.004,-0.546 0.184,-1.072 0.57,-1.441 c 2.326,-2.228 5.789,-2.441 9.155,-1.931 Z"  fill="#936D46"/>
	
	<path d="M 20.773,25.893 a 1.0125,1.0125 0 01 -0.001,-2.025 c 0.238,-0.004 0.473,-0.023 0.711,-0.044 l 0.04,-0.003 l 0.037,-0.007 c 0.114,-0.02 0.228,-0.038 0.342,-0.06 c 0.394,-0.077 0.783,-0.181 1.167,-0.299 c 0.795,-0.245 1.569,-0.553 2.354,-0.83 a 1.01301,1.01301 0 01 0.539,1.953 c -1.699,0.6 -3.358,1.281 -5.189,1.315 Z"  fill="#BD9366"/>
	
	<path d="M 17.826,27.109 a 1,1 0 01 0,2 a 19.065,19.065 0 01 -6.425,-1.17 a 1,1 0 01 0.532,-1.928 c 1.964,0.727 3.854,1.079 5.893,1.098 Z"  fill="#BD9366"/>
	
	<path d="M 32.973,14.566 c 0.676,1.865 1.258,3.85 0.761,5.834 c -0.227,0.906 -0.695,1.775 -1.381,2.417 c -0.756,0.708 -1.664,1.282 -2.497,1.895 a 1,1 0 01 -1.013,-1.725 c 0.678,-0.499 1.413,-0.963 2.037,-1.529 c 0.516,-0.467 0.807,-1.047 0.957,-1.722 c 0.347,-1.564 -0.265,-3.184 -0.791,-4.635 a 1,1 0 01 1.927,-0.535 Z"  fill="#BD9366"/>
	
	<path d="M 21.272,10.135 c -11.439,-0.431 -13.564,4.354 -11.891,6.274 c 0.519,0.595 1.148,0.951 1.852,1.297 c 1.173,0.576 0.227,2.37 -0.945,1.795 c -4.128,-2.026 -4.263,-5.481 -1.868,-7.823 c -1.461,0.576 -1.931,-1.41 -0.768,-1.88 c 1.62,-0.654 3.298,-1.073 5.004,-1.339 c -0.515,-0.093 -1.426,-0.053 -1.514,-1.032 c -0.166,-1.857 2.62,-0.745 4.557,-0.272 c 1.363,-0.834 2.896,-1.02 4.496,-0.893 c 1.153,0.091 1.358,1.26 0.647,1.838 c 1.89,0.064 1.627,2.081 0.43,2.035 Z"  fill="#DEAD74"/>
	<path d="M 8.764,23.59 c 0.676,1.214 -1.127,2.145 -1.752,1.024 c -1.582,-2.841 -3.979,-3.649 -4.245,-3.824 c -0.601,-0.231 -1.024,-0.378 -1.759,-0.524 c -0.914,-0.182 -1.072,-1.746 0.097,-1.953 a 4.908,4.908 0 01 -0.134,-3.408 c 0.813,-2.49 2.579,-3.02 2.295,-3.977 c -0.373,-1.256 1.585,-1.788 1.957,-0.539 c 0.916,3.085 -4.28,4.218 -1.844,7.751 c 1.328,1.925 3.415,1.911 5.385,5.45 Z"  fill="#DEAD74"/>
	<path d="M 34.678,14.178 c 0.845,1.733 0.707,5.118 -1.045,4.777 c -0.489,-0.077 -0.864,-0.698 -0.674,-1.231 c 0.384,-1.078 0.254,-2.046 -0.185,-2.798 c -0.282,1.075 -0.367,2.115 -1.102,3.154 c -0.709,1.028 -1.599,1.68 -2.524,2.177 c -0.458,0.246 -1.024,-0.072 -1.174,-0.554 c -0.166,-0.534 0.098,-1.117 0.511,-1.421 c 2.012,-1.481 2.216,-2.428 2.426,-4.353 c 0.04,-0.363 -0.771,-1.18 -1.644,-1.761 c -0.255,-0.17 -0.599,0.04 -0.548,0.349 c 0.318,1.944 -1.279,4.675 -2.988,5.638 c -3.019,1.7 -6.961,2.483 -10.223,1.365 c -1.473,-0.505 -0.654,-2.354 0.432,-1.982 c 2.392,0.82 5.078,0.584 7.567,-0.49 c 3.196,-1.897 5.105,-5.455 1.373,-6.759 c -1.307,-0.456 -0.63,-2.367 0.589,-1.941 a 26.297,26.297 0 01 4.936,2.326 c 0.048,-1.247 1.152,-1.971 2.122,-1.651 c 1.027,0.339 0.79,1.714 -0.025,1.947 a 18.34,18.34 0 01 0.311,1.108 c 0.762,0.578 1.454,1.257 1.865,2.1 Z"  fill="#DEAD74"/>
	<path d="M 22.552,21.699 c 0.099,0.506 -0.256,1.129 -0.801,1.191 c -2.791,0.311 -5.715,0.536 -8.202,-1.024 c -1.065,-0.668 -0.042,-2.419 1.154,-1.669 c 3.526,2.211 7.457,-0.51 7.849,1.502 Z"  fill="#DEAD74"/>
</svg>
