<svg xmlns="http://www.w3.org/2000/svg" viewBox="0 0 36 36">
<!--	<svg xmlns="http://www.w3.org/2000/svg" viewBox="-18 0 36 36">
		<g>
			<path d=" M
18,27
 C 18,29.209 16.209,31
14,31
 L
-14,31
 C -16.209,31 -18,29.209
-18,27
 L
-18,9
 C -18,6.791 -16.209,5
-14,5
 L
14,5
 C 16.209,5 18,6.791
18,9
 L
18,27
 Z" fill="#ccd6dd"/>
		</g>
		<g>
			<path d=" M
-6.0503,17.6357
 C -5.6593,17.2447 -5.0273,17.2447
-4.6353,17.6357
 C -4.2453,18.0277 -4.2453,18.6587
-4.6353,19.0497
 L
-15.9493,30.3647
 C -15.9763,30.3907 -16.0103,30.4007
-16.0393,30.4237
 C -16.6093,30.0827 -17.0833,29.6107
-17.4233,29.0397
 C -17.4003,29.0117 -17.3903,28.9767
-17.3633,28.9487
 L
-6.0503,17.6357
 Z" fill="#99aab5"/>
		</g>
		<g>
			<path d=" M
17.4229,29.04
 C 17.0829,29.61 16.6109,30.084
16.0389,30.424
 C 16.0109,30.401 15.9759,30.391
15.9489,30.364
 L
4.6359,19.05
 C 4.2449,18.659 4.2449,18.027
4.6359,17.636
 C 5.0269,17.245 5.6589,17.245
6.0509,17.636
 L
17.3629,28.95
 C 17.3899,28.977 17.4019,29.012
17.4229,29.04
 Z" fill="#99aab5"/>
		</g>
		<g>
			<path d=" M
14,5
 C 16.209,5 18,6.791
18,9
 L
18,10.009
 L
3.412,24.525
 C 1.516,26.419 -1.578,26.419
-3.472,24.525
 L
-18,10.03
 L
-18,9
 C -18,6.791 -16.209,5
-14,5
 L
14,5
 Z" fill="#99aab5"/>
		</g>
		<g>
			<path d=" M
14,5
 C 15.589,5 16.949,5.934
17.595,7.275
 L
2.828,22.042
 C 1.267,23.604 -1.267,23.604
-2.829,22.042
 L
-17.595,7.275
 C -16.949,5.934 -15.588,5
-14,5
 L
14,5
 Z" fill="#e1e8ed"/>
		</g>
	</svg>-->
	<!-- messy idk.. -->
	<defs>
		<clipPath id="clipPath28">
			<rect x="0" y="5" width="36" height="26" rx="4"/>
		</clipPath>
	</defs>
	<g clip-path="url(#clipPath28)">
		<rect y="9" width="36" height="27"  fill="#CCD6DD"/>
		<g stroke-linecap="round" fill="none" stroke-width="2" stroke="#99AAB5">
			<path d="M 0,31 L 12.657,18.343"/>
			<path d="M 36,31 L 23.343,18.343"/>
		</g>
		<path d="M 0,4 h36 v6
l -14.588,14.526
a 4.868,4.868 0 01 -6.884,0
l -14.528,-14.526
v-6 Z"   fill="#99AAB5"/>
		<path d="M 36,6.87 L 20.828,22.042 a 4,4 0 01 -5.657,0 L 0,6.87 V 4 h 36 z"  fill="#E1E8ED"/>
	</g>
</svg>
