<svg xmlns="http://www.w3.org/2000/svg" viewBox="0 0 36 36">
	<g>
		<path d="M 36,32 a 4,4 0 01 -4,4 h-28 a 4,4 0 01 -4,-4 v-18 a 4,4 0 01 4,-4 h28 a 4,4 0 01 4,4 v18 Z" fill="#ccd6dd"/>
		<path d="M 11.9497,22.6357 c 0.391,-0.391 1.023,-0.391 1.415,0 c 0.39,0.392 0.39,1.023 0,1.414 l -11.314,11.315 c -0.027,0.026 -0.061,0.036 -0.09,0.059 c -0.57,-0.341 -1.044,-0.813 -1.384,-1.384 c 0.023,-0.028 0.033,-0.063 0.06,-0.091 l 11.313,-11.313 Z" fill="#99aab5"/>
		<path d="M 35.4229,34.04 c -0.34,0.57 -0.812,1.044 -1.384,1.384 c -0.028,-0.023 -0.063,-0.033 -0.09,-0.06 l -11.313,-11.314 c -0.391,-0.391 -0.391,-1.023 0,-1.414 s 1.023,-0.391 1.415,0 l 11.312,11.314 c 0.027,0.027 0.039,0.062 0.06,0.09 Z" fill="#99aab5"/>
		<path d="M 32,10 a 4,4 0 01 4,4 v1.009 l -14.588,14.516 c -1.896,1.894 -4.99,1.894 -6.884,0 l -14.528,-14.495 v-1.03 a 4,4 0 01 4,-4 h28 Z" fill="#99aab5"/>
		<path d="M 32,10 c 1.589,0 2.949,0.934 3.595,2.275 l -14.767,14.767 c -1.561,1.562 -4.095,1.562 -5.657,0 l -14.766,-14.767 c 0.646,-1.341 2.007,-2.275 3.595,-2.275 h28 Z" fill="#e1e8ed"/>
	</g>
	<g>
		<path d="M 26.7158,7 c 1.224,0 1.517,0.624 0.652,1.489 l -7.863,7.863 c -0.865,0.865 -2.28,0.865 -3.145,0 l -7.863,-7.863 c -0.864,-0.865 -0.572,-1.489 0.651,-1.489 h4.852 v-5 a 2,2 0 01 2,-2 h4 a 2,2 0 01 2,2 v5 h4.716 Z" fill="#55acee"/>
	</g>
</svg>
