<svg xmlns="http://www.w3.org/2000/svg" viewBox="0 0 36 36">
	<rect x="0" y="11" width="36" height="25" rx="2"  fill="#2A6797"/>
	<rect x="0" y="6" width="36" height="24" rx="2"  fill="#5DADEC"/>
	
	<path d="M 33,28.5 h-30 a 1.5,1.5 0 01 -1.5,-1.5 v-18 a 1.5,1.5 0 01 1.5,-1.5 h30 a 1.5,1.5 0 01 1.5,1.5 v18 a 1.5,1.5 0 01 -1.5,1.5 Z M 3,8.5 a 0.5,0.5 0 00 -0.5,0.5 v18 a 0.5,0.5 0 00 0.5,0.5 h30 a 0.5,0.5 0 00 0.5,-0.5 v-18 a 0.5,0.5 0 00 -0.5,-0.5 h-30 Z" fill="#2A6797" />
	
	<circle fill="#4289C1" cx="25" cy="18" r="6.5"/>
	
	<path d="M 14,6 h8 v24 l -4,4 l -4,-4 v-24 Z"  fill="#FFE8B6"/>
	<path d="M 14,30 h8 v6 h-8 v-6 Z"  fill="#FFAC33"/>
	
	<path d="M 12.764,21.84 c 0,0.658 -1.474,1.447 -3.301,1.447 c -2.42,0 -3.877,-1.681 -4.361,-3.742 h-1.294 c -0.315,0 -0.571,-0.255 -0.571,-0.569 c 0,-0.315 0.256,-0.57 0.571,-0.57 h1.129 c -0.008,-0.136 -0.029,-0.27 -0.029,-0.406 c 0,-0.3 0.026,-0.597 0.063,-0.89 h-1.163 c -0.315,0 -0.571,-0.256 -0.571,-0.571 s 0.256,-0.569 0.571,-0.569 h1.416 c 0.593,-1.835 2.03,-3.257 4.313,-3.257 c 1.84,0 3.008,0.993 3.008,1.519 c 0,0.336 -0.205,0.612 -0.526,0.612 c -0.584,0 -0.876,-1.022 -2.482,-1.022 c -1.51,0 -2.428,0.942 -2.891,2.147 h3.327 c 0.315,0 0.57,0.255 0.57,0.569 c 0,0.315 -0.255,0.571 -0.57,0.571 h-3.622 c -0.043,0.297 -0.072,0.596 -0.072,0.891 c 0,0.134 0.016,0.27 0.025,0.405 h3.668 c 0.315,0 0.57,0.255 0.57,0.57 c 0,0.314 -0.255,0.569 -0.57,0.569 h-3.487 c 0.389,1.43 1.346,2.631 2.978,2.631 c 1.563,0 2.25,-0.934 2.79,-0.934 c 0.307,0.001 0.511,0.235 0.511,0.599 Z"  fill="#2A6797"/>
</svg>
