<svg xmlns="http://www.w3.org/2000/svg" viewBox="0 0 36 36">
	<path d="M 11.983,3.562 c 4.543,-0.262 7.824,1.597 8.089,6.826 c 0.215,4.19 -5.184,6.79 -8.046,6.879 c -2.462,0.077 -1.353,-1.852 0.61,-2.334 c 1.576,-0.387 4.124,-2.413 3.602,-4.44 c -0.597,-2.32 -4.315,-2.684 -6.351,0.292 c -0.798,1.167 -3.554,0.873 -4.096,-0.434 c -0.958,-2.309 1.211,-6.502 6.192,-6.789 Z"  fill="#FFAC33"/>
	
	<path d="M 15,36 c -2.75,0 -4,-6 -4,-6 c 0,-1.104 2.646,-2 3.75,-2 s 3.25,-0.104 3.25,1 c 0,0 -0.25,7 -3,7 Z" fill="#E1E8ED"/>
	<path d="M 28,36 c -2.75,0 -2,-6 -2,-6 c 0,-1.104 2.646,-2 3.75,-2 s 3.25,-0.104 3.25,1 c 0,0 -2.25,7 -5,7 Z" fill="#E1E8ED"/>
	<path d="M 18.8,12.64 c 0,9.333 -6.457,10.36 -10.76,10.36 s -8.04,-0.182 -8.04,-4.875 s 5.697,-10.839 10,-10.839 s 8.8,0.66 8.8,5.354 Z" fill="#E1E8ED"/>
	<path d="M 21.232,32.792 c -10,0 -13.482,-3.666 -13.482,-11.388 c 0,-7.732 3.457,-11.427 13.481,-11.427 s 14.519,3.625 14.519,11.407 c 0,7.842 -4.648,11.408 -14.518,11.408 Z" fill="#E1E8ED"/> <!-- adjusted from Ram -->
	<!--<path d="M 35.75,21.384 c 0,3.55 -0.947,6.225 -2.916,8.095 c -0.561,1.565 -2.517,6.521 -4.834,6.521 c -1.542,0 -1.983,-1.886 -2.073,-3.543 c -1.407,0.219 -2.962,0.335 -4.695,0.335 c -1.363,0 -2.594,-0.073 -3.722,-0.209 c -0.411,1.722 -1.157,3.417 -2.51,3.417 c -2.406,0 -3.663,-4.591 -3.94,-5.741 c -2.023,-1.613 -3.016,-4.015 -3.249,-7.26 c -4.205,-0.008 -7.811,-0.266 -7.811,-4.874 c 0,-4.694 5.696,-10.839 10,-10.839 c 3.368,0 6.853,0.405 8.213,2.828 c 0.935,-0.086 1.931,-0.137 3.018,-0.137 c 10.024,0 14.519,3.624 14.519,11.407 Z"  fill="#E1E8ED"/>-->
	<circle fill="#292F33" cx="4.5" cy="15.786" r="1.5"/>
	<path d="M 17.562,4.339 c 4.312,1.455 5.74,4.148 4.034,9.099 c -1.367,3.967 -7.345,4.361 -10.034,3.375 c -2.312,-0.849 -0.562,-2.224 1.438,-1.938 c 1.606,0.23 4.727,-0.698 5,-2.773 c 0.312,-2.375 -3,-4.102 -6,-2.102 c -1.177,0.785 -5.774,0.43 -5.5,-0.958 c 0.638,-3.226 6.335,-6.298 11.062,-4.703 Z"  fill="#FFCC4D"/>
</svg>
