<svg xmlns="http://www.w3.org/2000/svg" viewBox="0 0 36 36">
	<path d="M 35.059,18 c 0,3.304 -7.642,11 -17.067,11 c -9.426,0 -17.067,-6.751 -17.067,-11 c 0,-3.314 34.134,-3.314 34.134,0 Z"  fill="#E1E8ED"/>
	<path d="M 35.059,18 h-34.134 c 0,-3.313 7.642,-11 17.067,-11 s 17.067,7.686 17.067,11 Z"  fill="#292F33"/>
	<path fill="#F5F8FA" d="M33.817 18c0 2.904-7.087 9.667-15.826 9.667-8.74 0-15.825-5.935-15.825-9.667 0-2.912 7.085-9.666 15.825-9.666C26.73 8.333 33.817 15.088 33.817 18z"/>
	<circle fill="#8B5E3C" cx="18" cy="18" r="8.458"/>
	<circle fill="#292F33" cx="18" cy="18" r="4.708"/>
	<circle fill="#F5F8FA" cx="14.983" cy="15" r="2"/>
	</svg>
