<svg xmlns="http://www.w3.org/2000/svg" viewBox="0 0 36 36">
	<path d="M 32.769,33.359 c 0.267,0.322 0.306,0.776 0.098,1.138 c -0.179,0.315 -0.513,0.503 -0.867,0.503 c -0.055,0 -6.508,-0.784 -12.474,-6.765 c -0.23,-0.231 -0.29,-0.581 -0.211,-0.896 c 0.079,-0.314 0.306,-0.571 0.609,-0.688 l 7.112,-2.749 c 0.27,-0.104 0.573,-0.087 0.83,0.05 s 0.442,0.378 0.506,0.661 c 0.494,2.177 1.658,5.46 4.397,8.746 Z"  fill="#31373D"/>
	<ellipse fill="#31373D" cx="18" cy="16" rx="18" ry="14"/>
	<circle cx="18" cy="16" r="9"  fill="#FFF"/>
	<circle fill="#31373D" cx="18" cy="16" r="5"/>
</svg>
