<svg xmlns="http://www.w3.org/2000/svg" viewBox="0 0 36 36">
	<path d="M 32,35 c -0.054,0 -6.507,-0.785 -12.475,-6.765 a 1,1 0 01 0.398,-1.584 l 7.113,-2.749 a 1,1 0 01 1.336,0.711 c 0.494,2.177 1.658,5.46 4.397,8.746 a 1,1 0 01 -0.769,1.641 Z" fill="#31373D"/>
	
	<path d="M 18,2 c 9.941,0 18,10 18,14 s -8.059,14 -18,14 s -18,-10 -18,-14 s 8.059,-14 18,-14 Z" fill="#31373D"/>
	<!--<circle cx="18" cy="16" r="9" fill="#FFF"/>
		<circle fill="#31373D" cx="18" cy="16" r="5"/>-->
	<circle r="7" cx="18" cy="16" stroke-width="4" fill="none" stroke="#FFF"/>
</svg>
