<svg xmlns="http://www.w3.org/2000/svg" viewBox="0 0 36 36">
	<defs>
		<clipPath id="clip1">
			<path d="M-2,-13 h4 l1,13 v2 h-6 v-2 l1,-13 z"/>
		</clipPath>
		<g id="smokestack">
			<g clip-path="url(#clip1)">
				<circle r="999" fill="#BE1931"/>
				<rect x="-5" y="-3" width="10" height="2" fill="#E6E7E8"/>
				<rect x="-5" y="-7" width="10" height="2" fill="#E6E7E8"/>
				<rect x="-5" y="-11" width="10" height="2" fill="#E6E7E8"/>
			</g>
			<circle cx="0" cy="-14" r="1" fill="#D1D3D4"/>
			<circle cx="1" cy="-16" r="2" fill="#D1D3D4"/>
		</g>
	</defs>
	<use href="#smokestack" x="8" y="18"/>
	<use href="#smokestack" x="18" y="18"/>
	<use href="#smokestack" x="28" y="18"/>
	
	<rect x="1" y="18" width="34" height="18" rx="2"  fill="#A0041E"/>
	<path d="M 1,20 h34 v2 h-34 v-2 Z"  fill="#C1694F"/>
	<path d="M 6,24 h4 v4 h-4 v-4 Z"  fill="#AAB8C2"/>
	<path d="M 16,24 h4 v4 h-4 v-4 Z"  fill="#AAB8C2"/>
	<path d="M 26,24 h4 v4 h-4 v-4 Z"  fill="#AAB8C2"/>
	<path d="M 6,30 h4 v4 h-4 v-4 Z"  fill="#AAB8C2"/>
	<path d="M 16,30 h4 v4 h-4 v-4 Z"  fill="#AAB8C2"/>
	<path d="M 26,30 h4 v4 h-4 v-4 Z"  fill="#AAB8C2"/>
</svg>
