<svg xmlns="http://www.w3.org/2000/svg" viewBox="0 0 36 36">
	todo: blueberries (added later) reuses these shapes.
	something like scale(0.861 0.875) (or the inverse)
	<g>
		<ellipse fill="#C15829" cx="10.757" cy="8.247" rx="8.032" ry="6.884"/>
		<path d="M 15.347,13.984 c 0,0.022 0.003,0.042 0.003,0.064 c -1.302,0.706 -2.879,1.084 -4.593,1.084 c -2.796,0 -5.256,-0.975 -6.694,-2.805 c 1.996,-1.157 4.425,-1.785 7.053,-1.785 c 1.643,0 3.196,0.265 4.626,0.732 c -0.251,0.836 -0.395,1.738 -0.395,2.71 Z" fill="#933813"/>
		<path d="M 13.052,13.984 c 0,-3.886 2.148,-6.734 5.32,-8.157 c 0.267,0.725 0.417,1.531 0.417,2.42 c 0,3.621 -2.397,5.917 -5.691,6.638 c -0.026,-0.295 -0.046,-0.593 -0.046,-0.901 Z" fill="#933813"/>
		<ellipse fill="#C15829" cx="25.673" cy="13.984" rx="10.327" ry="9.179"/>
		<path d="M 25.673,22.59 c 0,0.195 -0.02,0.381 -0.03,0.572 c -5.689,-0.012 -10.297,-3.485 -10.297,-9.178 c 0,-0.754 0.086,-1.466 0.239,-2.139 c 5.734,0.792 10.088,4.716 10.088,10.745 Z" fill="#933813"/>
		<ellipse fill="#C15829" cx="12.263" cy="23.737" rx="12.263" ry="10.9"/>
	</g>
	
	<g>
		<path d="M 34.709,13.984 c 0,3.225 -1.695,5.63 -4.238,6.932 c -2.356,-0.199 -4.849,-2.341 -6.123,-5.533 c -1.604,-4.021 -0.667,-8.173 2.094,-9.275 c 0.105,-0.042 0.214,-0.069 0.321,-0.101 c 4.475,0.411 7.946,3.356 7.946,7.977 Z" fill="#A0AD55"/>
		<path d="M 26.442,6.108 c 0.105,-0.042 -1.916,4.434 4.029,14.808 c -2.356,-0.199 -4.849,-2.341 -6.123,-5.533 c -1.604,-4.021 -0.667,-8.173 2.094,-9.275 Z" fill="#C4CE89"/>
		<circle fill="#A6D388" cx="29" cy="10" r="1"/>
		<circle fill="#A6D388" cx="33" cy="14" r="1"/>
	</g>
	
	<circle fill="#FFAC33" cx="3.873" cy="19.721" r="1.147"/>
	<circle fill="#FFAC33" cx="10.757" cy="15.131" r="1.147"/>
	<circle fill="#FFAC33" cx="5.594" cy="5.378" r=".574"/>
	<circle fill="#FFAC33" cx="10.183" cy="3.084" r=".574"/>
	<circle fill="#FFAC33" cx="18.789" cy="9.394" r="1.147"/>
	<circle fill="#FFAC33" cx="14" cy="22" r="1"/>
	
	<circle fill="#77B255" cx="5.594" cy="16.853" r=".574"/>
	<circle fill="#77B255" cx="8.462" cy="18.574" r="1.147"/>
	<circle fill="#77B255" cx="7.315" cy="3.657" r="1.147"/>
	<circle fill="#77B255" cx="20.51" cy="7.673" r=".574"/>
	<circle fill="#77B255" cx="4" cy="27" r="1"/>
	<circle fill="#77B255" cx="10" cy="30" r="1"/>
	<circle fill="#77B255" cx="19" cy="25" r="1"/>
	<circle fill="#77B255" cx="22" cy="13" r="1"/>
	<circle fill="#77B255" cx="15" cy="5" r="1"/>
	<circle fill="#77B255" cx="8" cy="9" r="1"/>
</svg>
