<svg xmlns="http://www.w3.org/2000/svg" viewBox="0 0 36 36">
	<path d="M 14,20 c 0,4.418 -2,12.562 -13.062,13 c 2.624,-3.875 -0.938,-8.582 -0.938,-13 s 2.582,-8 7,-8 s 7,3.582 7,8 Z" fill="#D99E82"/>
	<path d="M 15.675,17.283 c 0,-6.341 3.705,-11.481 10.046,-11.48 c 6.339,0 10.045,5.139 10.045,11.48 c 0,6.34 -5.113,13.095 -1.346,18.655 c -15.875,-0.628 -18.745,-12.316 -18.745,-18.655 Z" fill="#D99E82"/>
	
	<path d="M 7.997,21.582 c 3.353,0.939 4.222,5.158 4.094,5.688 c 0,0 -1.512,-2.869 -4.223,-3.659 c -0.137,1.163 -0.381,2.189 -0.702,3.094 c 1.432,1.327 1.48,3.845 1.294,4.241 c 0,0 -0.925,-1.728 -1.745,-2.217 l -0.379,-0.179 c -1.968,3.477 -5.027,4.45 -5.398,4.45 c 0,0 2.463,-0.905 3.953,-5.229 c -0.994,-0.064 -2.864,0.423 -2.864,0.423 c 0.09,-0.387 1.623,-1.818 3.36,-2.197 c 0.193,-0.844 0.348,-1.786 0.453,-2.837 l -0.634,-0.013 c -2.929,-0.058 -4.206,1.925 -4.206,1.925 c 0.011,-0.552 0.954,-3.989 4.537,-3.919 l 0.431,0.009 c 0.012,-0.371 0.032,-0.727 0.032,-1.12 v-2.042 h-0.833 c -2.929,0 -5.152,2.5 -5.152,2.5 c 0,-0.553 1.861,-4.5 5.444,-4.5 h0.541 v-7 a 1,1 0 01 2,0 v7 h0.25 c 3.584,0 5.741,3.947 5.741,4.5 c 0,0 -2.519,-2.5 -5.449,-2.5 h-0.542 v3.5 c 0,0.029 -0.003,0.054 -0.003,0.082 Z" fill="#C1694F"/>
	<path d="M 28.296,21.8 l -1.085,0.02 c 0.148,1.487 0.364,2.823 0.632,4.02 c 2.572,0.477 4.881,2.633 5.012,3.2 c 0,0 -2.912,-0.763 -4.282,-0.598 c 2.118,6.207 5.625,7.495 5.625,7.495 c -0.529,0 -4.9,-1.366 -7.746,-6.281 l -0.323,0.152 c -1.179,0.702 -2.503,3.181 -2.503,3.181 c -0.258,-0.55 -0.205,-3.924 1.638,-5.872 c -0.491,-1.327 -0.868,-2.842 -1.077,-4.566 c -3.709,1.246 -5.771,5.163 -5.771,5.163 c -0.181,-0.743 1.016,-6.566 5.589,-8.068 c -0.001,-0.071 -0.005,-0.139 -0.005,-0.211 v-4.435 h-0.49 c -4.205,0 -7.821,3.023 -7.821,3.023 c 0,-0.794 3.094,-6.023 8.238,-6.023 h0.073 v-10.502 c 0,-0.792 0.707,-1.435 1.5,-1.435 c 0.792,0 1.5,0.643 1.5,1.435 v10.502 h0.932 c 5.143,0 7.811,5.23 7.811,6.023 c 0,0 -3.189,-3.023 -7.394,-3.023 h-1.349 v2.343 c 0,0.553 0.011,1.088 0.027,1.611 l 0.792,-0.016 c 5.144,-0.101 6.494,4.831 6.511,5.624 c 0,0 -1.833,-2.846 -6.034,-2.762 Z" fill="#C1694F"/>
</svg>
