<svg xmlns="http://www.w3.org/2000/svg" viewBox="0 0 36 36">
	<defs>
		<g id="base1">
			<rect x="0" y="10" width="8" height="23" rx="4"/>
			<rect x="8" y="10" width="28" height="23" rx="4"/>
		</g>
	</defs>
	
	<use href="#base1" y="3" fill="#292F33"/>
	
	<g>
		paper
		<rect x="12" y="0" width="20" height="20" rx="4"   fill="#CCD6DD"/>
		<g  fill="#99AAB5">
			<rect x="14" y="3" width="16" height="2" rx="1"/>
			<rect x="14" y="6" width="8" height="2" rx="1"/>
		</g>
	</g>
	
	<use href="#base1" fill="#66757F"/>
	
	<rect x="10" y="12" width="11" height="6" rx="2"  fill="#C6E5B3"/>
	
	<g fill="#CCD6DD">
		<circle cx="11.5" cy="21.5" r="1.5"/>
		<circle cx="15.5" cy="21.5" r="1.5"/>
		<circle cx="19.5" cy="21.5" r="1.5"/>
		<circle cx="11.5" cy="25.5" r="1.5"/>
		<circle cx="15.5" cy="25.5" r="1.5"/>
		<circle cx="19.5" cy="25.5" r="1.5"/>
		<circle cx="11.5" cy="29.5" r="1.5"/>
		<circle cx="15.5" cy="29.5" r="1.5"/>
		<circle cx="19.5" cy="29.5" r="1.5"/>
	</g>
	<g fill="#CCD6DD">
		<circle cx="25" cy="15" r="2"/>
		<circle cx="32" cy="15" r="2"/>
	</g>
	
	<g  fill="#99AAB5">
		<rect x="23" y="20" width="11" height="2" rx="1"/>
		<rect x="23" y="23" width="11" height="2" rx="1"/>
		<rect x="23" y="26" width="11" height="2" rx="1"/>
		<rect x="23" y="29" width="11" height="2" rx="1"/>
	</g>
</svg>
