<svg xmlns="http://www.w3.org/2000/svg" viewBox="0 0 36 36">
	<path d="M 8,17 h28 v15 a 4,4 0 01 -4,4 h-20 a 4,4 0 01 -4,-4 a 4,4 0 01 -4,4 a 4,4 0 01 -4,-4 v-15 h8 Z"   fill="#292F33"/>
	<path d="M 32,10 a 4,4 0 01 4,4 v15 a 4,4 0 01 -4,4 h-20 a 4,4 0 01 -4,-4 a 4,4 0 01 -4,4 a 4,4 0 01 -4,-4 v-15 a 4,4 0 01 4,-4 a 4,4 0 01 4,4 a 4,4 0 01 4,-4 h20 Z"   fill="#66757F"/>
	<rect x="10" y="12" width="11" height="6" rx="2"  fill="#C6E5B3"/>
	<circle cx="11.5" cy="21.5" r="1.5" fill="#CCD6DD"/>
	<circle cx="15.5" cy="21.5" r="1.5" fill="#CCD6DD"/>
	<circle cx="19.5" cy="21.5" r="1.5" fill="#CCD6DD"/>
	<circle cx="11.5" cy="25.5" r="1.5" fill="#CCD6DD"/>
	<circle cx="15.5" cy="25.5" r="1.5" fill="#CCD6DD"/>
	<circle cx="19.5" cy="25.5" r="1.5" fill="#CCD6DD"/>
	<circle cx="11.5" cy="29.5" r="1.5" fill="#CCD6DD"/>
	<circle cx="15.5" cy="29.5" r="1.5" fill="#CCD6DD"/>
	<circle cx="19.5" cy="29.5" r="1.5" fill="#CCD6DD"/>
	<circle fill="#CCD6DD" cx="25" cy="15" r="2"/>
	<circle fill="#CCD6DD" cx="32" cy="15" r="2"/>
	<path d="M 32,10 h-20 v-6 a 4,4 0 01 4,-4 h12 a 4,4 0 01 4,4 v6 Z"   fill="#CCD6DD"/>
	<rect x="14" y="3" width="16" height="2" rx="1"  fill="#99AAB5"/>
	<rect x="14" y="6" width="8" height="2" rx="1"  fill="#99AAB5"/>
	
	<rect x="23" y="20" width="11" height="2" rx="1"  fill="#99AAB5"/>
	<rect x="23" y="23" width="11" height="2" rx="1"  fill="#99AAB5"/>
	<rect x="23" y="26" width="11" height="2" rx="1"  fill="#99AAB5"/>
	<rect x="23" y="29" width="11" height="2" rx="1"  fill="#99AAB5"/>
</svg>
