<svg xmlns="http://www.w3.org/2000/svg" viewBox="0 0 36 36">
	<path d="M 5.367,27.603 c -1.367,-5.603 -0.712,-8.684 0.066,-10.742 c 1.367,-3.621 11.266,-11.692 18.367,-14.224 c 1.878,-0.67 7.82,-1.637 11.2,-1.637 c 0.589,2.332 -1.174,6.717 -1.62,7.518 c -1.009,1.81 -3.564,4.273 -8.646,9.482 c -0.252,0.258 -5.119,-0.46 -5.376,-0.191 c -0.283,0.296 4.044,1.579 3.755,1.889 c -0.738,0.79 -1.495,1.624 -2.268,2.507 c -0.172,0.196 -8.311,-0.923 -8.484,-0.722 c -0.232,0.27 7.501,1.862 7.266,2.14 c -0.645,0.765 -1.299,1.564 -1.959,2.397 c -1.725,2.178 -12.301,1.583 -12.301,1.583 Z"  fill="#D99E82"/>
	<path d="M 4.048,29.644 c -0.811,-0.558 -1.541,-4.073 -0.936,-4.404 c 0.738,-0.402 0.686,0.835 2.255,2.362 c 1.569,1.528 6.47,0.913 7.708,1.326 c 1.363,0.455 -6.385,2.533 -9.027,0.716 Z"  fill="#C1694F"/>
	<path d="M 19.15,12.787 l -0.557,-0.427 l 4.872,-4.17 l 0.816,0.403 c 1.745,0.787 5.228,1.597 7.487,2.087 c -1.003,1.151 -2.404,2.592 -4.302,4.529 c -2.985,-0.479 -6.728,-1.456 -8.316,-2.422 Z"  fill="#C1694F"/>
	<path d="M 35.088,1.514 c 0.261,2.41 -1.293,6.258 -1.708,7.004 c -0.194,0.349 -0.447,0.722 -0.763,1.134 c -0.243,0.316 -0.527,0.659 -0.849,1.028 c -2.259,-0.49 -5.742,-1.3 -7.487,-2.087 c -1.854,1.409 -3.565,2.816 -5.13,4.195 c -7.491,6.602 -11.712,12.553 -13.194,14.841 c -0.37,-0.014 -0.589,-0.026 -0.589,-0.026 c -0.044,-0.18 -0.08,-0.35 -0.12,-0.524 c 2.984,-4.37 7.35,-9.994 13.005,-15.242 c 1.519,-1.411 3.133,-2.792 4.836,-4.115 c -0.681,-0.869 -1.451,-2.532 -1.807,-4.013 c 0.495,-0.238 0.981,-0.456 1.459,-0.654 c 0.357,-0.148 0.714,-0.295 1.059,-0.418 c 1.668,-0.595 6.537,-1.423 9.975,-1.601 c 0.433,-0.022 0.847,-0.036 1.225,-0.036 c 0.041,0.162 0.068,0.335 0.088,0.514 Z"  fill="#662113"/>
	<path d="M 35,1 c 0.041,0.161 0.075,0.33 0.107,0.504 c -21.515,9.837 -33.54,33.482 -33.659,33.72 c -0.088,0.174 -0.264,0.276 -0.448,0.276 c -0.076,0 -0.152,-0.017 -0.223,-0.053 c -0.247,-0.124 -0.348,-0.424 -0.224,-0.671 c 0.085,-0.171 6.274,-12.335 17.701,-22.939 c -0.603,-1.212 -1.146,-3.678 -1.455,-5.589 c 1.497,-0.964 3.017,-1.831 4.484,-2.539 c 0.356,1.481 1.127,3.143 1.807,4.013 c 3.263,-2.536 6.857,-4.856 10.772,-6.73 c 0.387,0.005 0.769,0.008 1.138,0.008 Z"  fill="#C1694F"/>
</svg>
