<svg viewBox="0 0 36 36" xmlns="http://www.w3.org/2000/svg">
	<!-- this one is surprisingly messy.. -->
	<path fill="#CCD6DD" d="M30.806 15.347H19.201l8.205-8.205-.707-.707-8.205 8.205V3.036h-1V14.64L9.288 6.435l-.707.707 8.206 8.205H5.182v1h11.605l-8.206 8.206.707.707 8.206-8.206v11.605h1V17.055l8.205 8.205.707-.707-8.205-8.206h11.605z"/>
	<path fill="#AAB8C2" d="M 17.994,1.394 a 14.453,14.453 0 01 0,28.906 a 14.453,14.453 0 01 0,-28.906 z m 0,2.223 a 12.23,12.23 0 00 0,24.46 a 12.23,12.23 0 00 0,-24.46 z"/>
	<path fill="#AAB8C2" d="M 17.993,8.321 a 7.527,7.527 0 01 0,15.054 a 7.527,7.527 0 01 0,-15.054 z m 0,1.5 a 6.027,6.027 0 00 0,12.054 a 6.027,6.027 0 00 0,-12.054 z"/>
	
	<path d="M 27.279,34.429 L 25.458,35.259 L 17.993,18.908 L 10.528,35.259 L 8.709,34.429 L 17.082,16.085 L 18.903,16.085 L 27.279,34.429 Z" fill="#8899A6"/>
	<rect x="6.079" y="34" width="7.821" height="2" rx="1" fill="#553788"/>
	<rect x="22.079" y="34" width="7.82" height="2" rx="1" fill="#553788"/>
	<circle cx="17.993" cy="15.847" r="3.041" fill="#553788"/>
	<rect x="14.614" y="27.04" width="6.67" height="5.558" rx="2.779" fill="#744EAA"/>
	<rect x="14.614" y="0.097" width="6.67" height="5.558" rx="2.779" fill="#744EAA"/>
	<rect x="4.347" y="23.748" width="6.67" height="5.558" rx="2.779" fill="#5C913B"/>
	<rect x="24.974" y="5.108" width="6.67" height="5.558" rx="2.779" fill="#5C913B"/>
	<rect x="1.011" y="14.854" width="6.67" height="5.558" rx="2.779" fill="#3B94D9"/>
	<rect x="28.307" y="14.854" width="6.67" height="5.558" rx="2.779" fill="#3B94D9"/>
	<rect x="24.974" y="23.748" width="6.67" height="5.558" rx="2.779" fill="#BE1931"/>
	<rect x="4.347" y="5.108" width="6.67" height="5.558" rx="2.779" fill="#BE1931"/>
	<path d="M 17.392,27.039 h1.112 a 2.779,2.779 0 01 2.723,2.224 h-6.558 a 2.779,2.779 0 01 2.723,-2.224 Z"  fill="#CBB7EA"/>
	<path d="M 17.392, 0.096 h1.112 a 2.779,2.779 0 01 2.723,2.224 h-6.558 a 2.779,2.779 0 01 2.723,-2.224 Z"  fill="#CBB7EA"/>
	<path d="M  7.126,23.747 h1.112 a 2.779,2.779 0 01 2.723,2.224 h-6.558 a 2.779,2.779 0 01 2.723,-2.224 Z"  fill="#C6E5B3"/>
	<path d="M 27.753, 5.107 h1.112 a 2.779,2.779 0 01 2.723,2.224 h-6.558 a 2.779,2.779 0 01 2.723,-2.224 Z"  fill="#C6E5B3"/>
	<path d="M  3.79 ,14.853 h1.112 a 2.779,2.779 0 01 2.723,2.224 h-6.558 a 2.779,2.779 0 01 2.723,-2.224 Z"  fill="#BBDDF5"/>
	<path d="M 31.086,14.853 h1.112 a 2.779,2.779 0 01 2.723,2.224 h-6.558 a 2.779,2.779 0 01 2.723,-2.224 Z"  fill="#BBDDF5"/>
	<path d="M 27.753,23.747 h1.112 a 2.779,2.779 0 01 2.723,2.224 h-6.558 a 2.779,2.779 0 01 2.723,-2.224 Z"  fill="#F4ABBA"/>
	<path d="M  7.126, 5.107 h1.112 a 2.779,2.779 0 01 2.723,2.224 h-6.558 a 2.779,2.779 0 01 2.723,-2.224 Z"  fill="#F4ABBA"/>
</svg>
