<svg xmlns="http://www.w3.org/2000/svg" viewBox="0 0 36 36">
	<rect width="34" height="24" x="1" y="6" fill="#231F20"/>
	<path d="M 1,11 h6 v14 h-6 v-14 Z"  fill="#BBDDF5"/>
	<path d="M 9,11 h18 v14 h-18 v-14 Z"  fill="#BBDDF5"/>
	<path d="M 29,11 h6 v14 h-6 v-14 Z"  fill="#BBDDF5"/>
	
	<path d="M 9,25 v-14 h1 v14 h-1 Z"  fill="#88C9F9"/>
	<path d="M 29,25 v-14 h1 v14 h-1 Z"  fill="#88C9F9"/>
	
	<path d="M 3,7 h2 v3 h-2 v-3 Z"  fill="#F5F8FA"/>
	<path d="M 7,7 h2 v3 h-2 v-3 Z"  fill="#F5F8FA"/>
	<path d="M 11,7 h2 v3 h-2 v-3 Z"  fill="#F5F8FA"/>
	<path d="M 15,7 h2 v3 h-2 v-3 Z"  fill="#F5F8FA"/>
	<path d="M 19,7 h2 v3 h-2 v-3 Z"  fill="#F5F8FA"/>
	<path d="M 23,7 h2 v3 h-2 v-3 Z"  fill="#F5F8FA"/>
	<path d="M 27,7 h2 v3 h-2 v-3 Z"  fill="#F5F8FA"/>
	<path d="M 31,7 h2 v3 h-2 v-3 Z"  fill="#F5F8FA"/>
	
	<path d="M 3,26 h2 v3 h-2 v-3 Z"  fill="#F5F8FA"/>
	<path d="M 7,26 h2 v3 h-2 v-3 Z"  fill="#F5F8FA"/>
	<path d="M 11,26 h2 v3 h-2 v-3 Z"  fill="#F5F8FA"/>
	<path d="M 15,26 h2 v3 h-2 v-3 Z"  fill="#F5F8FA"/>
	<path d="M 19,26 h2 v3 h-2 v-3 Z"  fill="#F5F8FA"/>
	<path d="M 23,26 h2 v3 h-2 v-3 Z"  fill="#F5F8FA"/>
	<path d="M 27,26 h2 v3 h-2 v-3 Z"  fill="#F5F8FA"/>
	<path d="M 31,26 h2 v3 h-2 v-3 Z"  fill="#F5F8FA"/>
</svg>
