<svg xmlns="http://www.w3.org/2000/svg" viewBox="0 0 36 36">
	<rect width="34" height="24" x="1" y="6" fill="#231F20" class="toodark"/>
	<g fill="#BBDDF5">
		<rect width="6" height="14" x="1" y="11"/>
		<rect width="18" height="14" x="9" y="11"/>
		<rect width="6" height="14" x="29" y="11"/>
	</g>
	<g fill="#88C9F9">
		<rect width="1" height="14" x="9" y="11"/>
		<rect width="1" height="14" x="29" y="11"/>
	</g>
	
	<g fill="#F5F8FA">
		<rect width="2" height="3" x="3" y="7"/>
		<rect width="2" height="3" x="7" y="7"/>
		<rect width="2" height="3" x="11" y="7"/>
		<rect width="2" height="3" x="15" y="7"/>
		<rect width="2" height="3" x="19" y="7"/>
		<rect width="2" height="3" x="23" y="7"/>
		<rect width="2" height="3" x="27" y="7"/>
		<rect width="2" height="3" x="31" y="7"/>
		
		<rect width="2" height="3" x="3" y="26"/>
		<rect width="2" height="3" x="7" y="26"/>
		<rect width="2" height="3" x="11" y="26"/>
		<rect width="2" height="3" x="15" y="26"/>
		<rect width="2" height="3" x="19" y="26"/>
		<rect width="2" height="3" x="23" y="26"/>
		<rect width="2" height="3" x="27" y="26"/>
		<rect width="2" height="3" x="31" y="26"/>
	</g>
</svg>
