<svg xmlns="http://www.w3.org/2000/svg" viewBox="0 0 36 36">
	<rect x="0" y="0" width="36" height="36" rx="4"  fill="#269"/>
	<path d="M 18,2.249 l 3.751,3.751 h5.249 v5.249 l 3.751,3.751 l -3.751,3.751 v5.249 h-5.249 l -3.751,3.751 l -3.751,-3.751 h-5.249 v-5.249 l -3.751,-3.751 l 3.751,-3.751 v-5.249 h5.249 l 3.751,-3.751 Z"  fill="#55ACEE"/>
	<path d="M 18,4.594 l 2.234,5.069 l 4.852,-1.417 l -1.418,4.851 l 6.486,2.235 l -6.486,2.234 l 1.418,4.851 l -4.852,-1.417 l -2.234,12.154 l -2.235,-12.154 l -4.85,1.417 l 1.417,-4.851 l -6.487,-2.234 l 6.487,-2.235 l -1.417,-4.851 l 4.85,1.417 l 2.235,-5.069 Z"  fill="#FFD983"/>
	<circle fill="#F5F8FA" cx="18" cy="15" r="3"/>
	<g stroke-linecap="round" fill="none" stroke-width="2" stroke="#FFCC4D">
		<path d="M 10,12 L 4,8"/>
		<path d="M 26,12 L 32,8"/>
		<path d="M 4,23 L 10,19"/>
		<path d="M 33,23 L 26,19"/>
		<path d="M 10,33 L 14,24"/>
		<path d="M 26,33 L 22,24"/>
		<path d="M 15,7 L 13,3"/>
		<path d="M 21,7 L 23,3"/>
	</g>
</svg>
