<svg xmlns="http://www.w3.org/2000/svg" viewBox="0 0 36 36">
	<defs>
		<clipPath id="circle">
			<circle r="17" cx="18" cy="19"/>
		</clipPath>
	</defs>
	<path d="M 35,19 a 17,17 0 01 -34,0 a 17,17 0 01 4.038,-11 c -1.455,5.292 0.123,8.613 2.962,8.333 c 2.542,-0.25 3.625,-2.5 2.583,-5.208 c -0.999,-2.598 -0.904,-6.614 2.334,-9 c -1,4.5 1.709,7.272 4.666,7.042 c 2.667,-0.209 5.209,-3.625 2.334,-9.125 c 6.919,3.625 7.167,7.985 6.931,11.794 c -0.14,2.247 -2.036,6.956 0.777,8.164 c 3.002,1.289 5.875,-1.48 6.335,-6.868 a 17,17 0 01 1.04,5.868 Z" fill="#F4900C"/>
	<path d="M 30,30 a 12,12 0 01 -24,0 a 12,12 0 01 3.535,-8.506 c 0.215,4.006 2.096,4.433 3.968,4.007 c 1.833,-0.417 5.33,-2.751 3.08,-9.084 c 3.084,0.916 5.167,3 5.709,6 s -0.022,4.448 2.083,5.291 c 1.458,0.584 4.167,-0.625 4.02,-3.709 a 12,12 0 01 1.605,6.001 Z" clip-path="url(#circle)" fill="#FFCC4D"/>
</svg>
