<svg xmlns="http://www.w3.org/2000/svg" viewBox="0 0 36 36">
	<path fill="#55ACEE" d="M 0,0 l 14,17 l 11.52,-4.75 l -7.52,-4.25 l -7,-8 h-11 Z"/>
	<path fill="#3B88C3" d="M 25,0 l -7,8 l 5.391,7.312 l 1.225,-1.489 l 11.384,-13.823 h-11 Z"/>
	
	<rect width="10.667" height="4" rx="2" x="12.666" y="13.333" fill="#FFAC33"/>
	
	<circle r="10.667" cx="18" cy="25.333" fill="#FFAC33"/>
	
	<path fill="#9E5200" d="M 19.404,18.6 c 0.187,0 0.336,0.168 0.336,0.354 v12.004 c 0,0.187 -0.149,0.355 -0.336,0.355 h-2.075 c -0.206,0 -0.356,-0.168 -0.356,-0.355 v-8.414 h-1.795 c -0.187,0 -0.336,-0.168 -0.336,-0.354 v-1.178 c 0,-0.075 0.056,-0.224 0.112,-0.281 l 2.729,-2.131 h1.721 Z"/>
</svg>
