<svg xmlns="http://www.w3.org/2000/svg" viewBox="0 0 36 36">
	<path d="M 25,0 h11 l -12.666,15.333 H 18 L 18,8 L25,0 Z"  fill="#3B88C3"/>
	<path d="M 18,8 L 23.333 15.333 L 12.667 15.333 L 0,0 h11 l 7,8 Z"  fill="#55ACEE"/>
	
	<rect x="12.667" y="13.333" width="10.667" height="4" rx="2" fill="#FFAC33"/>
	<circle r="10.667" cx="18" cy="25.333" fill="#FFAC33"/>
	
	<path d="M 19.404,18.6 a 0.336,0.354 0 01 0.336,0.354 v12.004 a 0.336,0.355 0 01 -0.336,0.355 h-2.076 a 0.355,0.355 0 01 -0.355,-0.355 v-8.414 h-1.795 a 0.337,0.354 0 01 -0.337,-0.354 v-1.178 a 0.34,0.34 0 01 0.112,-0.28 l 2.73,-2.132 h1.721 Z"   fill="#9E5200"/>
</svg>
