<svg xmlns="http://www.w3.org/2000/svg" viewBox="0 0 36 36">
	<!-- so the shape is like, they started with a 12 pointed star, and then stroked it, and then moved every other indentation outwards. so half of the indents are normal and the others are shallower -->
	<path d="M 21.0534,35.3011 l -2.96,-2.007 l -2.959,2.007 a 2.1,2.1 0 01 -3.08,-0.825 l -1.721,-2.392 l -3.405,-0.568 a 2.1,2.1 0 01 -2.255,-2.254 l 0.256,-3.568 l -3.215,-1.56 a 2.1,2.1 0 01 -0.825,-3.081 l 1.152,-2.928 l -1.152,-2.991 a 2.1,2.1 0 01 0.825,-3.08 l 3.215,-1.56 l -0.256,-3.565 a 2.1,2.1 0 01 2.255,-2.256 l 3.28,-0.506 l 1.846,-2.452 a 2.1,2.1 0 01 3.08,-0.826 l 2.959,2.005 l 2.96,-2.005 a 2.1,2.1 0 01 3.08,0.826 l 1.867,2.327 l 3.261,0.631 a 2.1,2.1 0 01 2.254,2.256 l -0.259,3.565 l 3.22,1.56 a 2.1,2.1 0 01 0.824,3.08 l -0.925,2.908 l 0.925,3.011 a 2.1,2.1 0 01 -0.824,3.081 l -3.22,1.56 l 0.259,3.568 a 2.1,2.1 0 01 -2.254,2.254 l -3.219,0.526 l -1.909,2.434 a 2.1,2.1 0 01 -3.08,0.825 Z" fill="#e1e8ed" class="toolight"/>
	<path d="M 18.5,28.709 c -3.708,0.041 -8.167,-2.875 -7.792,-8.37 c 0.133,-1.959 0.902,-3.779 2.341,-5.116 c 2.543,-2.366 6.538,-2.22 8.903,0.324 c 0.986,1.061 1.5,2.443 1.447,3.891 c -0.051,1.447 -0.665,2.788 -1.726,3.774 c -0.918,0.853 -2.104,1.302 -3.365,1.253 c -1.253,-0.046 -2.413,-0.577 -3.266,-1.495 c -0.785,-0.844 -1.059,-2.045 -0.733,-3.214 c 0.331,-1.189 1.218,-2.095 2.375,-2.425 c 0.532,-0.152 1.123,-0.236 1.274,0.294 c 0.152,0.531 -0.38,0.757 -1.083,1.25 c -0.833,0.584 -1.292,1.667 -0.368,2.733 c 0.471,0.544 1.155,0.831 1.873,0.858 c 0.717,0.023 1.405,-0.229 1.932,-0.719 c 0.668,-0.622 1.056,-1.469 1.089,-2.383 c 0.034,-0.913 -0.292,-1.785 -0.914,-2.455 c -1.614,-1.737 -4.34,-1.837 -6.077,-0.221 c -1.046,0.973 -1.652,2.295 -1.703,3.723 c -0.053,1.429 0.455,2.791 1.428,3.838 c 1.202,1.293 2.835,2.04 4.599,2.105 c 1.764,0.07 3.448,-0.562 4.741,-1.765 c 1.587,-1.476 2.505,-3.483 2.585,-5.649 c 0.079,-2.166 -0.691,-4.234 -2.167,-5.821 c -3.725,-4.008 -8.601,-4.952 -13.643,-1.91 c -0.763,0.46 -1.401,1.136 -1.833,0.791 c -0.209,-0.166 -0.315,-0.481 0.09,-0.857 c 4.815,-4.478 12.376,-4.201 16.85,0.614 c 1.84,1.978 2.919,4.562 2.701,7.257 c -0.683,8.403 -6.558,9.861 -9.558,9.695 Z" fill="#d372b8"/>
</svg>
