<svg xmlns="http://www.w3.org/2000/svg" viewBox="0 0 36 36">
	<rect x="7" y="3" width="2" height="13" rx="1"  fill="#CCD6DD"/>
	
	<path d="M 2,33 c 0,-2.236 4,-6 7,-6 s 7,3.764 7,6 c 0,1 -1,2 -2,1 s -4,-2 -5,-2 s -4,1 -5,2 s -2,0 -2,-1 Z"   fill="#3B88C3"/>
	<path d="M 15,14 c 2,0 4,1 4,2 c 0,3 -3.167,11.542 -8.167,12.542 s 4.167,-14.542 4.167,-14.542 Z"  fill="#3B88C3"/>
	<path d="M 3,20 s 3.718,5.432 2,4 c -1.25,-1.042 -4,3 -4,1 s 1,-4 2,-5 Z"  fill="#3B88C3"/>
	
	<path d="M 5.583,12.25 c 1.5,0.5 2.583,0.125 3.667,-0.75 v5 h-5 z" fill="#000"/>
	
	<path d="M 16,18 c 0,5.522 -5,13 -7,13 s -7,-7.478 -7,-13 c 0,-3.2 1.348,-5.03 3.061,-6.014 c 0.33,-0.205 0.909,-0.392 1.119,0.159 c 0.16,0.544 -0.121,0.546 -0.346,1.521 c -0.125,0.542 -0.167,2.25 0.708,1.75 c 0.625,-2.083 1.907,-3.786 2.481,-4.416 c 3,0 6.977,1.49 6.977,7 Z"   fill="#55ACEE"/>
	
	<circle cx="11.5" cy="15.5" r="1.5" fill="#000"/>
	
	<path d="M 8.954,22.827 c -1.504,0 -2.829,-0.538 -4,-1.149 a 1,1 0 01 0.926,-1.774 c 1.891,0.988 3.59,1.385 5.735,0.11 a 1,1 0 01 1.02,1.721 c -1.334,0.792 -2.558,1.092 -3.681,1.092 Z"   fill="#269"/> <!-- stroke, rotated 27.3deg, cant figure out..-->
	
	<path d="M 29.834,35.25 c -0.494,-0.247 -1.042,-0.958 -0.729,-1.697 c 1.334,-3.146 4.278,-16.9 1.604,-24.761 c -0.501,-1.472 -2.118,-3.659 -4.08,-4.863 c -6.337,-3.887 -15.806,-1.758 -17.129,-1.096 c -0.495,0.248 -2.044,0.744 -2.292,0.25 c -0.247,-0.494 0.589,-1.003 1.083,-1.25 c 1.756,-0.877 11.264,-3.878 19.667,0.791 c 1.5,0.833 3.59,2.376 4.703,5.303 c 3.257,8.567 1.047,23.416 -0.787,26.822 c -0.582,1.084 -1.896,0.572 -2.04,0.501 Z"  fill="#662113"/>
	<circle fill="#99AAB5" cx="28" cy="25" r="4"/>
	<circle fill="#66757F" cx="28" cy="25" r="2"/>
</svg>
