<svg xmlns="http://www.w3.org/2000/svg" viewBox="0 0 36 36">
	<defs>
		<clipPath id="ground">
			<path d="M 4,36 c -2,0 -3.807,-2 -3.807,-4 c 0,-4.541 4.315,-11 17.807,-11 c 13.097,0 17.73,6.645 17.73,11 c 0,2 -1.73,4 -3.73,4 h-28 Z"/>
		</clipPath>
	</defs>
	<g clip-path="url(#ground)">
		<rect width="36" height="36" fill="#77b255"/>
		<path d="M 11.2915,29.5 c 1.125,-3.75 9.75,-7.666 14.333,-7.625 c 5,0.045 2.625,0.792 1.625,0.792 s -11.791,2.625 -14,7.5 c -1,0 -1.958,-0.667 -1.958,-0.667 Z" fill="#5c913b"/>
	</g>
	<ellipse cx="12.5" cy="30.5" rx="6.5" ry="2.5" fill="#292f33"/>
	<path d="M 10,4 h2 v26 c 0,0.553 -0.448,0.844 -1,0.844 s -1,-0.291 -1,-0.844 v-26 Z" fill="#ffac33"/>
	<path d="M 10,3 c 0,-2.2 1.695,-3.395 3.767,-2.655 l 9.466,3.381 c 2.072,0.74 2.072,1.951 0,2.691 l -9.466,3.381 c -2.072,0.74 -3.767,-0.455 -3.767,-2.655 v-4.143 Z" fill="#dd2e44"/>
</svg>
