<svg xmlns="http://www.w3.org/2000/svg" viewBox="0 0 36 36">
	what the hell why was this scaled?
	<g transform="translate(0.5 0.595) scale(0.976)">
		back leg
		<g>
			<path fill="#EA596E" d=" M
22.9542,27.61762
 L
23.69703,23.84508
 C 23.69703,23.84508 25.65707,26.40041
26.10174,27.55717
 C 25.24109,26.81537 24.20215,26.78566
22.9542,27.61762
Z"/>
			<g stroke-width="1.5" stroke-linecap="round" stroke-linejoin="round" fill="none" stroke="#F4ABBA">
				<path d="M 26,27 l -2,-3"/>
				<path d="M 23,27 l 0.4375,-3.53381 L 28.86445,19.0458 l -8.27049,-4.46004"/>
			</g>
			<!--<path fill="#F4ABBA" d="M 22.90799,27.74457 a 0.75,0.75 0 01 -0.65266,-0.83607 l 0.4375,-3.53381 a 0.75,0.75 0 01 0.27049,-0.48873 l 4.55738,-3.71311 l -7.28279,-3.92726 a 0.75,0.75 0 01 -0.3043,-1.01536 a 0.75,0.75 0 01 1.01639,-0.30431 l 8.27049,4.46004 a 0.75,0.75 0 01 0.3914,0.59017 a 0.75,0.75 0 01 -0.27357,0.65061 l -5.19467,4.23156 l -0.39857,3.23361 a 0.75,0.75 0 01 -0.83709,0.65266 Z"/>-->
			<circle r="1" cx="29" cy="19" fill="#EA596E"/>
		</g>
		front leg
		<g>
			<path fill="#EA596E" d=" M
16.49355,32.08719
 L
19.27838,32.35564
 C 19.27838,32.35564 17.76301,34.78289
16.7835,35.25113
 C 16.98432,34.42633 17.02838,32.97859
16.49355,32.08719
 Z"/>
			<path fill="#EA596E" d=" M
17.28043,35.45912
 L
17.75584,34.27059
 L
20.25,32.72654
 C 20.25,32.72654 21.95871,35.76342
20.94949,35.31773
 C 19.93924,34.87305 18.23125,34.82797
17.28043,35.45912
 Z"/>
			<g stroke-width="1.5" stroke-linecap="round" stroke-linejoin="round" fill="none" stroke="#F4ABBA">
				<path d="M 17,32 h3 v-16 M 17,35 l 3,-3 l 1,3"/>
			</g>
			<circle r="1" cx="20" cy="25" fill="#EA596E"/>
		</g>
		beak:
		<g>
			<path fill="#E1E8ED" d="M 5,3 s 7,3 4,4 s -7,4 -7,6 s -2,2 -2,0 s 0,-5 1,-6 s 4,-4 4,-4 Z"/>
			<path fill="#292F33" d=" M
1,7
 C 1,10 4.63023,9.17541
3.21322,10.70717
 C 2.47244,11.50738 2,12.31373
2,13
 C 2,15 0,15
0,13
 C 0,11 0,8
1,7
 Z"/>
		</g>
		body/head
		<g>
			<path fill="#EA596E" d=" M
15,17
 C 12.78084,13.67213 15,9
18,7
 C 21,5 29,4
34,12
 C 39.53391,20.85348 31.17018,16.54201
29,16
 C 21,14 17,20
15,17
Z"/>
		this is a stroke, but like, good luck lol
		<path fill="#EA596E" d=" M
12.37613,20.61557
 C 11.78904,20.61557 11.20707,20.51414
10.64662,20.30717
 C 8.57182,19.54078 7.35051,17.48443
7.53596,15.06742
 C 7.76445,12.08791 9.43453,10.09508
10.77674,8.49467
 C 11.98166,7.05922 12.65584,6.19857
12.51547,5.21189
 C 12.34744,4.0418 11.64662,3.49775
11.08822,3.24775
 C 9.99395,2.76004 8.52059,2.95471
7.33207,3.74775
 L
5.66814,1.25184
 C 7.72449,-0.11906 10.27059,-0.40389
12.3126,0.50902
 C 14.05133,1.28668 15.20809,2.84611
15.48473,4.7877
 C 15.82285,7.14734 14.42531,8.8123
13.07592,10.42193
 C 11.84436,11.89016 10.68145,13.27746
10.52674,15.29693
 C 10.44477,16.37377 10.87818,17.19549
11.68555,17.49365
 C 12.56568,17.81639 14.08412,17.53361
15.45605,15.65656
 L
17.87818,17.42602
 C 16.38125,19.47418 14.35154,20.61557
12.37613,20.61557
 Z"/>
		<path fill="#EA596E" d=" M
9,6
 C 9,6 5.26967,1.02172
6.27582,0.42439
 C 7.84959,-0.51107 11.81578,0.02377
12.36496,0.60266
 C 15.77172,4.19283 9.16004,10.5791
10.35984,8.97869
 C 13.35984,4.97869 11,5
9,6
Z"/>
		<circle r="4" cx="8" cy="4" fill="#EA596E"/>
	</g>
	eye
	<circle r="1" cx="6" cy="4" fill="#292F33"/>
</g>
</svg>
