<svg xmlns="http://www.w3.org/2000/svg" viewBox="0 0 36 36">
	some nonstandard colors
	<circle fill="#E5A157" cx="18" cy="18" r="17"/>
	<circle fill="#EDB97F" cx="18" cy="17" r="16.5"/>
	<g fill="#FFD983">
		<circle cx="16.56" cy="27.082" r=".9"/>
		<circle cx="7.776" cy="21.536" r="1.2"/>
		<circle cx="5.372" cy="15.879" r="1.5"/>
		<circle cx="10.322" cy="10.222" r="1"/>
		<circle cx="15.979" cy="11.353" r="1.2"/>
	</g>
	<g fill="#E5A157">
		<circle cx="27.999" cy="15.525" r="1.75"/>
		<circle cx="22.187" cy="20.296" r=".9"/>
		<circle cx="10.475" cy="26.674" r="1.25"/>
		<circle cx="27.675" cy="22.865" r="1.5"/>
		<circle cx="25.878" cy="7.04" r="1.25"/>
		<circle cx="14.564" cy="18.707" r="1"/>
		<circle cx="17.649" cy="4.592" r=".8"/>
	</g>
	<g fill="#C1694F">
		<circle cx="4.788" cy="19.129" r=".5"/>
		<circle cx="23.004" cy="8.62" r=".5"/>
		<circle cx="13.909" cy="23.728" r=".5"/>
		<circle cx="27.999" cy="13.05" r=".5"/>
		<circle cx="17.393" cy="30.728" r=".5"/>
	</g>
	<!--<g fill="#EDB97F">
		not visible on background
		<circle cx="16.932" cy="7.102" r=".454"/>
		<circle cx="10.51" cy="19.07" r=".454"/>
		<circle cx="18.392" cy="17.144" r=".537"/>
		<circle cx="24.873" cy="16.034" r=".702"/>
		<circle cx="18.45" cy="24.383" r=".578"/>
		<circle cx="19.735" cy="26.777" r=".619"/>
		<circle cx="29.018" cy="19.07" r=".578"/>
	</g>-->
	<g fill="#8A4B38"> changed from #964F45
		<path d="M 3.476,16.039 c 2.193,-2.467 4.44,-4.878 6.695,-7.281 c 1.131,-1.198 2.172,-2.488 3.426,-3.56 c 1.247,-1.079 2.537,-2.115 4.003,-2.97 l 0.105,0.107 c -0.888,1.446 -1.952,2.713 -3.059,3.936 c -1.1,1.23 -2.413,2.241 -3.636,3.346 c -2.453,2.201 -4.914,4.393 -7.429,6.531 l -0.105,-0.109 Z"/>
		<path d="M 18.241,31.042 l -0.106,-0.107 c 2.038,-2.361 4.13,-4.667 6.231,-6.965 c 1.054,-1.145 2.017,-2.382 3.195,-3.403 c 1.171,-1.028 2.386,-2.012 3.778,-2.819 l 0.106,0.106 c -0.808,1.392 -1.795,2.605 -2.824,3.775 c -1.023,1.177 -2.261,2.138 -3.407,3.191 c -2.301,2.097 -4.609,4.187 -6.973,6.222 Z"/>
		<path d="M 6.512,27.364 l -0.176,-0.177 c 1.575,-1.846 3.197,-3.643 4.794,-5.467 l 4.881,-5.379 c 1.639,-1.781 3.125,-3.716 4.97,-5.29 c 1.834,-1.585 3.738,-3.1 5.939,-4.315 l 0.175,0.177 c -1.229,2.194 -2.756,4.087 -4.353,5.911 c -1.586,1.834 -3.53,3.308 -5.322,4.935 l -5.41,4.847 c -1.834,1.585 -3.642,3.195 -5.498,4.758 Z"/>
		<path d="M 4.668,22.223 l -0.141,-0.14 c 1.163,-1.932 2.565,-3.625 4.022,-5.261 c 1.449,-1.645 3.184,-3.002 4.797,-4.481 l 4.867,-4.41 c 1.647,-1.446 3.273,-2.912 4.938,-4.339 l 0.141,0.142 c -1.439,1.654 -2.917,3.27 -4.374,4.906 l -4.445,4.835 c -1.491,1.602 -2.86,3.327 -4.515,4.764 c -1.647,1.445 -3.349,2.835 -5.29,3.984 Z"/>
		<path d="M 11.618,30.064 l -0.141,-0.14 c 1.163,-1.932 2.565,-3.625 4.022,-5.261 c 1.449,-1.645 3.184,-3.002 4.797,-4.481 l 4.867,-4.41 c 1.647,-1.446 3.273,-2.912 4.938,-4.339 l 0.141,0.142 c -1.439,1.654 -2.917,3.27 -4.374,4.906 l -4.445,4.835 c -1.491,1.602 -2.86,3.327 -4.515,4.764 c -1.647,1.445 -3.349,2.835 -5.29,3.984 Z"/>
	</g>
</svg>
