<svg xmlns="http://www.w3.org/2000/svg" viewBox="0 0 36 36">
	<g fill="#744eaa">
		<path d="M 10.582,18 c -3.297,-1.975 -8.478,-1 -7.419,4 c -5.299,-2.688 -3.911,-11.731 4.567,-11.731 c 5.269,0 10.27,5.656 10.27,11.731 c 0,0.684 -0.061,1.351 -0.165,2 h-4.837 c 0.324,-2.441 -0.341,-4.756 -2.416,-6 Z"/>
		<path d="M 12.9492,26 h2.615 c 0.271,0.614 0.436,1.285 0.436,2 a 5,5 0 01 -10,0 c 0,-0.472 0.086,-0.92 0.209,-1.352 c 0.476,1.366 1.762,2.352 3.291,2.352 c 1.762,0 3.205,-1.307 3.449,-3 Z"/>
	</g>
	<g fill="#744eaa">
		<path d="M 25.457,18 c -2.075,1.244 -2.74,3.559 -2.416,6 h-4.837 c -0.103,-0.649 -0.165,-1.316 -0.165,-2 c 0,-6.075 5.001,-11.731 10.27,-11.731 c 8.478,0 9.866,9.043 4.567,11.731 c 1.06,-5 -4.122,-5.975 -7.419,-4 Z"/>
		<path d="M 29.791,26.6475 c 0.123,0.433 0.209,0.881 0.209,1.352 a 5,5 0 01 -10,0 c 0,-0.714 0.165,-1.385 0.436,-2 h2.615 c 0.244,1.694 1.687,3 3.449,3 c 1.528,0 2.814,-0.986 3.291,-2.352 Z"/>
	</g>
	<g fill="#aa8dd8">
		<path d="M 13,10.2271 c 0,-6.276 5,-10.227 5,-10.227 s 5,3.951 5,10.227 s -2.238,14.773 -5,14.773 s -5,-8.497 -5,-14.773 Z"/>
		<path d="M 14,30 c 0,-3.314 2.344,-6 4,-6 s 4,2.686 4,6 s -4,6 -4,6 s -4,-2.686 -4,-6 Z"/>
	</g>
	<rect width="14" height="7" rx="3.5" x="11" y="21" fill="#9266cc"/>
</svg>
