<svg xmlns="http://www.w3.org/2000/svg" viewBox="0 0 36 36">
	<defs>
		<g id="hole">
			<circle r="0.75" fill="#292F33"/>
			<path d="M 0.134,-0.62 a 0.75,0.75 0 00 -0.75,0.75 a 0.736,0.736 0 00 0.168,0.454 c -0.176,-0.138 -0.296,-0.342 -0.296,-0.582 a 0.75,0.75 0 01 0.75,-0.75 a 0.735,0.735 0 01 0.582,0.296 c -0.127,-0.099 -0.28,-0.168 -0.454,-0.168 Z" fill="#C1694F"/>
		</g>
		<g id="band">
			<path d="M -1.5,2 a 1.5,2 0 00 0,-4 h1 a 1.5,2 0 01 0,4 h-1 Z" transform="rotate(-45)" fill="#C1694F"/>
		</g>
	</defs>
	
	<path d="M 3.419,35.41 l -2.829,-2.829 l 31.991,-31.991 c 0.586,-0.585 1.694,-0.427 2.475,0.354 s 0.94,1.889 0.354,2.475 l -31.991,31.991 Z" fill="#FFCC4D"/>
	<path d="M 35.594,1.798 c 0.237,0.605 0.185,1.229 -0.206,1.621 l -31.992,31.991 l -0.707,-0.707 l 32.905,-32.905 Z" fill="#FFAC33"/>
	<ellipse transform="translate(2.004 33.996) rotate(-45.001)" fill="#FFCC4D" rx="1.5" ry="2"/>
	<ellipse transform="translate(2.032 34.023) rotate(-45.001)" fill="#292F33" rx="1" ry="1.5"/>
	
	<!--<g>
		<path d="M 30.54,5.46 c -0.781,-0.781 -1.889,-0.939 -2.475,-0.354 l 0.707,-0.707 c 0.586,-0.585 1.694,-0.427 2.475,0.354 s 0.94,1.889 0.354,2.475 l -0.707,0.707 c 0.585,-0.586 0.427,-1.694 -0.354,-2.475 Z"/>
		<path d="M 4.479,31.521 c -0.781,-0.781 -1.889,-0.94 -2.475,-0.354 l 0.707,-0.707 c 0.586,-0.585 1.694,-0.427 2.475,0.354 s 0.94,1.889 0.354,2.475 l -0.884,0.884 l 0.177,-0.177 c 0.585,-0.586 0.427,-1.694 -0.354,-2.475 Z"/>
		<path d="M 28.54,7.46 c -0.781,-0.781 -1.889,-0.939 -2.475,-0.354 l 0.707,-0.707 c 0.586,-0.585 1.694,-0.427 2.475,0.354 s 0.94,1.889 0.354,2.475 l -0.707,0.707 c 0.585,-0.586 0.427,-1.694 -0.354,-2.475 Z"/>
		<path d="M 6.479,29.521 c -0.781,-0.781 -1.889,-0.94 -2.475,-0.354 l 0.707,-0.707 c 0.586,-0.585 1.694,-0.427 2.475,0.354 s 0.94,1.889 0.354,2.475 l -0.884,0.884 l 0.177,-0.177 c 0.585,-0.586 0.427,-1.694 -0.354,-2.475 Z"/>
	</g>-->
	
	todo: fine-tune these positions
	<use href="#band" x="4.479" y="31.521"/>
	<use href="#band" x="6.479" y="29.521"/>
	<use href="#band" x="28.54" y="7.46"/>
	<use href="#band" x="30.54" y="5.46"/>
	
	<use href="#hole" x="32" y="2.75"/>
	<use href="#hole" x="21.5" y="13.25"/>
	<use href="#hole" x="19" y="15.75"/>
	<use href="#hole" x="16.5" y="18.25"/>
	<use href="#hole" x="14" y="20.75"/>
	<use href="#hole" x="11.5" y="23.25"/>
	<use href="#hole" x="9" y="25.75"/>
</svg>
