<svg xmlns="http://www.w3.org/2000/svg" viewBox="0 0 36 36">
	<g fill="#31373D">
	<path d="M 22.597,14.435 c -0.256,0 -0.512,-0.098 -0.707,-0.293 c -0.391,-0.39 -0.391,-1.023 0,-1.414 l 4.272,-4.272 v-4.152 c 0,-0.265 0.105,-0.52 0.293,-0.707 l 2.282,-2.283 c 0.391,-0.391 1.023,-0.391 1.414,0 c 0.391,0.39 0.391,1.023 0,1.414 l -1.989,1.99 v4.152 c 0,0.265 -0.105,0.52 -0.293,0.707 l -4.565,4.565 c -0.196,0.195 -0.451,0.293 -0.707,0.293 Z"  />
	<path d="M 15.984,19.122 c -0.304,0 -0.604,-0.138 -0.801,-0.4 c -3.073,-4.096 -6.224,-4.287 -11.99,-4.287 c -0.552,0 -1,-0.448 -1,-1 s 0.448,-1 1,-1 c 5.461,0 9.774,0 13.589,5.087 c 0.332,0.442 0.242,1.069 -0.2,1.4 c -0.179,0.135 -0.389,0.2 -0.598,0.2 Z"  />
	<path d="M 20.108,19.122 c -0.209,0 -0.419,-0.065 -0.599,-0.2 c -0.442,-0.331 -0.532,-0.958 -0.2,-1.4 c 3.815,-5.087 8.129,-5.087 13.59,-5.087 c 0.553,0 1,0.448 1,1 s -0.447,1 -1,1 c -5.766,0 -8.918,0.191 -11.99,4.287 c -0.196,0.262 -0.496,0.4 -0.801,0.4 Z"  />
	<path d="M 13.466,14.435 c -0.256,0 -0.512,-0.098 -0.707,-0.293 l -4.566,-4.565 c -0.187,-0.188 -0.293,-0.442 -0.293,-0.707 v-4.152 l -1.99,-1.99 c -0.391,-0.391 -0.391,-1.023 0,-1.414 s 1.023,-0.391 1.414,0 l 2.283,2.283 c 0.188,0.188 0.293,0.442 0.293,0.707 v4.151 l 4.272,4.272 c 0.391,0.391 0.391,1.023 0,1.414 c -0.194,0.196 -0.45,0.294 -0.706,0.294 Z"  />
	<path d="M 5.477,34.979 c -0.256,0 -0.512,-0.098 -0.707,-0.293 c -0.391,-0.391 -0.391,-1.023 0,-1.414 l 3.309,-3.31 l 3.352,-6.702 c 0.247,-0.494 0.847,-0.693 1.342,-0.447 c 0.494,0.247 0.694,0.848 0.447,1.342 l -3.424,6.848 c -0.048,0.096 -0.111,0.184 -0.188,0.26 l -3.424,3.424 c -0.196,0.194 -0.452,0.292 -0.707,0.292 Z"  />
	<path d="M 30.586,34.979 c -0.256,0 -0.512,-0.098 -0.707,-0.293 l -3.424,-3.424 c -0.076,-0.076 -0.14,-0.164 -0.188,-0.26 l -3.425,-6.848 c -0.247,-0.494 -0.047,-1.095 0.447,-1.342 c 0.494,-0.245 1.094,-0.047 1.342,0.447 l 3.353,6.702 l 3.309,3.31 c 0.391,0.391 0.391,1.023 0,1.414 c -0.195,0.196 -0.451,0.294 -0.707,0.294 Z"  />
	</g>
	<ellipse fill="#31373D" cx="18.031" cy="24.848" rx="6.848" ry="9.131"/>
	<ellipse transform="rotate(-49.506 10.17 19.724)" fill="#E1E8ED80" cx="10.171" cy="19.724" rx="9.437" ry="5.936"/>
	<ellipse transform="rotate(-40.494 25.387 19.723)" fill="#E1E8ED80" cx="25.388" cy="19.724" rx="5.936" ry="9.437"/>
	<ellipse fill="#BE1931" cx="15" cy="6" rx="2" ry="2.5"/>
	<ellipse fill="#BE1931" cx="21" cy="6" rx="2" ry="2.5"/>
	<ellipse fill="#31373D" cx="18.031" cy="11.723" rx="5.707" ry="5.136"/>
	<circle fill="#31373D" cx="18.031" cy="6.587" r="3.424"/>
	</svg>
