<svg xmlns="http://www.w3.org/2000/svg" viewBox="0 0 36 36">
	<path fill="#F4900C" d="M 35,21.526 a 17,9.474 0 01 -17,9.474 a 17,9.474 0 01 -17,-9.474 c 0,-5.232 6.625,-10.526 17,-10.526 s 17,5.294 17,10.526 Z"/>
	<ellipse cx="18" cy="19.502" rx="16" ry="8.5" fill="#FFAC33"/>
	
	<path fill="#FFD983" d="M 6.5,17.002 c 0,-3.181 5.052,-5.671 11.5,-5.671 s 11.5,2.491 11.5,5.671 s -5.052,5.671 -11.5,5.671 s -11.5,-2.491 -11.5,-5.671 Z"/>
	<ellipse cx="18" cy="18.002" rx="12" ry="6" fill="#FFAC33"/>
	
	<path fill="#F4900C" d="M 18,22.002 c 4,0 9.189,-0.882 11,-4 c 0.75,-1.292 1.5,1.083 -0.5,3.083 s -6.5,3.317 -10.5,3.317 s -8.5,-1.317 -10.5,-3.317 s -1.25,-4.375 -0.5,-3.083 c 1.811,3.118 7,4 11,4 Z"/>
	
	<path fill="#E1E8ED" d="M 35,1 s -10.503,-1.538 -19.042,2 c -9.188,3.807 -11.958,10 -11.958,10 c 1.542,-1.542 5.463,-3.079 10.383,-3.705 c 1.777,-3.182 6.971,-7.391 12.271,-7.351 c 0,0 -7.221,1.493 -9.758,7.121 c 0.689,-0.039 1.39,-0.065 2.104,-0.065 c 1.319,0 2.551,0.118 3.702,0.303 c 0.68,-2.914 3.792,-6.264 7.227,-6.829 c 0,0 -3.563,1.707 -4.846,7.338 c 4.335,1.168 6.917,3.188 6.917,3.188 c -4,-8 3,-12 3,-12 Z"/>
</svg>
