<svg xmlns="http://www.w3.org/2000/svg" viewBox="0 0 36 36">
	<path d="M 35,21.526 c 0,5.232 -7.611,9.474 -17,9.474 s -17,-4.242 -17,-9.474 s 6.625,-10.526 17,-10.526 s 17,5.294 17,10.526 Z"  fill="#F4900C"/>
	<ellipse fill="#FFAC33" cx="18" cy="19.502" rx="16" ry="8.5"/>
	<path d="M 18,11.331 c 6.448,0 11.5,2.491 11.5,5.672 s -5.052,5.671 -11.5,5.671 s -11.5,-2.491 -11.5,-5.671 s 5.051,-5.672 11.5,-5.672 Z" fill="#FFD983" />
	<ellipse fill="#FFAC33" cx="18" cy="18.002" rx="12" ry="6"/>
	<path d="M 29,18.002 c 0.75,-1.291 1.5,1.083 -0.5,3.083 s -6.5,3.317 -10.5,3.317 s -8.5,-1.317 -10.5,-3.317 s -1.25,-4.375 -0.5,-3.083 c 1.81,3.118 7,4 11,4 s 9.19,-0.882 11,-4 Z"  fill="#F4900C"/>
	<path d="M 35,1 s -7,4 -3,12 c 0,0 -2.582,-2.019 -6.917,-3.188 c 1.283,-5.631 4.845,-7.338 4.845,-7.338 c -3.435,0.565 -6.546,3.915 -7.226,6.829 c -1.151,-0.185 -2.383,-0.303 -3.702,-0.303 c -0.714,0 -1.414,0.026 -2.105,0.065 c 2.537,-5.628 9.759,-7.121 9.759,-7.121 c -5.301,-0.04 -10.494,4.169 -12.271,7.351 c -4.92,0.626 -8.842,2.164 -10.383,3.705 c 0,0 2.77,-6.193 11.958,-10 c 8.539,-3.538 19.042,-2 19.042,-2 Z"  fill="#E1E8ED"/>
	</svg>
