<svg xmlns="http://www.w3.org/2000/svg" viewBox="0 0 36 36">
	<defs>
		<g id="rept">
			<circle cx="6" cy="15.71" r="7"/>
			<circle cx="13" cy="18" r="5"/>
			<circle cx="18" cy="16" r="4"/>
			<circle cx="23" cy="20" r="4"/>
			<circle cx="27.5" cy="19.5" r="3.5"/>
			<circle cx="32.4" cy="17.6" r="4.6"/>
		</g>
		<g id="rep2">
			<circle cx="3" cy="10" r="5"/>
			<circle cx="11.5" cy="10.5" r="4.5"/>
			<circle cx="16" cy="13" r="3"/>
			<circle cx="16.5" cy="8.5" r="3.5"/>
			<circle cx="21.5" cy="11.5" r="4.5"/>
			<circle cx="24.5" cy="14.5" r="3.5"/>
			<circle cx="27.5" cy="13.5" r="4.5"/>
			<circle cx="33.81" cy="12.81" r="4.19"/>
		</g>
		<clipPath id="all">
			<rect width="36" height="36" rx="4"/>
		</clipPath>
	</defs>	
	
	<g clip-path="url(#all)">
		<rect width="36" height="36" fill="#F5F8FA"/>
		
		<use href="#rep2" fill="#E1E8ED"/>
		
		<rect y="18" width="36" height="18" fill="#CCD6DD"/>
		
		<use href="#rept" fill="#CCD6DD"/>
		
		<use href="#rep2" fill="#E1E8ED" transform="matrix(-1 0 0 1 37 15)"/>
		<use href="#rept" fill="#F5F8FA" transform="translate(-13.5 13.6) scale(0.9476) rotate(-5.85)"/> <!-- todo: position this one correctly -->
		
		<circle cx="25" cy="29" r="4" fill="#F5F8FA"/>
		
		<use href="#rept" fill="#CCD6DD" transform="matrix(-1 0 0 1 39 15)"/>
		<circle cx="2" cy="35" r="4" fill="#CCD6DD"/>
	</g>
</svg>
