<svg xmlns="http://www.w3.org/2000/svg" viewBox="0 0 36 36">
	<!-- this one already used arc commands! :) -->
	<!-- nmmm.. but they were kinda off.. -->
	<path d="M 32,0 a 4,4 0 01 4,4 v7 h-36 v-7 a 4,4 0 01 4,-4 h28 Z"  fill="#88C9F9"/>
	<path d="
M 36,16.368 
l -11.5,1.632 
l -24.5,-4.023 
v-7.955 
a 5,5 0 01 3,-1.022 
a 5,5 0 01 4.652,3.198 
a 4.5,4.5 0 01 3.848,-2.198 
a 4.5,4.5 0 01 2.099,0.542 
a 3.5,3.5 0 01 6.189,0.8 

a 4.5,4.5 0 01 1.712,-0.342 
a 4.5,4.5 0 01 4.004,2.486 

a 4.5,4.5 0 01 1.996,-0.486 
a 4.5,4.5 0 01 3.053,1.213 
a 4.125,4.125 0 01 3.259,-1.588 
a 4.125,4.125 0 01 2.188,0.632 
v7.111 
Z"  fill="#E1E8ED"/>
	<path d="M 36,14.771 v10.89 h-36 v-13.544 a 7,7 0 01 6,-3.408 a 7,7 0 01 6.475,4.344
a 5,5 0 01 0.525,-0.053 a 5,5 0 01 1.976,0.409
a 4,4 0 01 3.024,-1.409
c 4.265,0 4.146,2.452 7.338,4.767
a 3.5,3.5 0 01 2.162,-0.767 a 3.5,3.5 0 01 0.578,0.059
a 4.5,4.5 0 01 4.318,-3.059
a 4.5,4.5 0 01 3.604,1.771 Z"  fill="#CCD6DD"/>
	<path d="
M 36,30.5
h-36
v-5.373
a 4.1875,4.1875 0 01 3.187,-1.501 
a 4.1875,4.1875 0 01 3.259,1.588 
a 4.5,4.5 0 01 3.054,-1.213 
a 4.5,4.5 0 01 1.996,0.486 
a 4.5,4.5 0 01 4.004,-2.486 
a 4.5,4.5 0 01 1.712,0.342 
a 3.5,3.5 0 01 6.189,-0.8 
a 4.5,4.5 0 01 2.099,-0.542 
a 4.5,4.5 0 01 3.848,2.198 
a 5,5 0 01 4.652,-3.198 
a 5,5 0 01 2,0.422 
v10.077 
Z"  fill="#E1E8ED"/>
	
	
	<path d="M 32,23.958 v3.042 h4 v4 h-16 v5 h-4 v-5 h-16 v-4 h4 v-3.042 c -1.575,0.963 -2.957,1.676 -4,2.171 v-2.07 c 3.535,-1.83 10.987,-6.465 16,-15.059 c 0,0 0,-2 2,-2 s 2,2 2,2 c 5.013,8.594 12.465,13.229 16,15.059 v2.07 c -1.043,-0.495 -2.425,-1.208 -4,-2.171 Z M 30,27 v-4.34 c -1.284,-0.881 -2.638,-1.909 -4,-3.095 v7.435 h4 Z M 6,22.659 v4.341 h4 v-7.435 c -1.363,1.186 -2.716,2.214 -4,3.094 Z M 12,27 h4 v-13.947 c -1.26,1.732 -2.616,3.28 -4,4.655 v9.292 Z M 20,13.054 v13.946 h4 v-9.291 c -1.384,-1.375 -2.74,-2.924 -4,-4.655 Z"   fill="#FE5011"/> <!-- bridge from bridgeAtNight -->
	
	<!--<path d="M 36,24.059 v2.068 a 42.972,42.972 0 01 -4,-2.169 v1.042 h-2 v-2.34 a 44.043,44.043 0 01 -4,-3.095 v6.435 h-2 v-8.291 a 38.55,38.55 0 01 -4,-4.655 v10.946 h-4 v-10.947 a 38.473,38.473 0 01 -4,4.655 v9.292 h-2 v-7.435 a 43.982,43.982 0 01 -4,3.094 v1.341 h-2 v-0.042 a 42.972,42.972 0 01 -4,2.169 v-2.068 c 3.535,-1.83 10.987,-6.465 16,-15.059 c 0,0 0,-2 2,-2 s 2,2 2,2 c 5.013,8.594 12.465,13.229 16,15.059 Z"  fill="#FE5011"/>-->
	
	<!-- horizontal flip, rotate -5.8°, scale 105.5%. (from one of the other layers) -->
	<path fill="#F5F8FA" d="M25 25c-.821 0-1.582.249-2.217.673a4.355 4.355 0 0 0-4.534-2.863 4.349 4.349 0 0 0-3.777 3.298 3.258 3.258 0 0 0-.55 0 3.289 3.289 0 0 0-1.965.93 3.76 3.76 0 0 0-2.278-.498 3.708 3.708 0 0 0-.942.236c-.003-.047.004-.093 0-.139a3.79 3.79 0 0 0-4.155-3.387 3.767 3.767 0 0 0-2.716 1.619A4.699 4.699 0 0 0 0 24.672V32c0 .773.23 1.489.61 2.101C.715 34.098 29 31.209 29 29s-1.791-4-4-4z"/>
	<path d="
M 32,36 
h-28 
a 4,4 0 01 -4,-4 
v-0.445 
c 0.59,-0.344 1.268,-0.555 2,-0.555 
c 0.101,0 0.195,0.022 0.294,0.03 
a 4.6,4.6 0 01 4.31,-3.03 
a 4.6,4.6 0 01 4.319,3.059 
a 3.5,3.5 0 01 0.577,-0.059 
a 3.5,3.5 0 01 2.162,0.767 
a 4,4 0 01 2.338,-0.767 
a 4,4 0 01 1.015,0.146 

a 4,4 0 01 -0.015,-0.146 
a 4,4 0 01 4,-4 
a 4,4 0 01 3.024,1.409 

a 5,5 0 01 1.976,-0.409 
a 5,5 0 01 0.525,0.053 
a 7,7 0 01 6.475,-4.344 
a 7,7 0 01 3,0.683 
v7.608 
a 4,4 0 01 -4,4 
Z"  fill="#CCD6DD"/>
</svg>
