<svg xmlns="http://www.w3.org/2000/svg" viewBox="0 0 36 36">
	these colors were just silly before, way too desaturated.
	I changed them to red/deepred and orange/yellow
	see JapaneseDolls - it uses Yellow for the fans too
	<path fill="#FFAC33" d="M 22.431,27.802 l 1.647,-2.286 a 2.818,2.818 0 01 -3.294,4.572 l 1.647,-2.286 Z"/>
	<g>
		<path fill="#DD2E44" d="M 22.431,27.802 l -22.431,-2.267 c 0.649,-6.397 4.017,-12.473 9.749,-16.373 c 8.055,-5.48 18.392,-5.039 25.864,0.343 l -13.182,18.297 Z"/>
		<path fill="#be1931" d="M 22.656,27.911 l -0.334,0.116 l -20.405,-9.574 l 0.434,-0.9 l 17.258,8.568 l -15.757,-11.088 l 0.584,-0.811 l 15.507,11.435 l -13.592,-13.656 l 0.717,-0.698 l 13.286,13.955 l -11.015,-15.809 l 0.827,-0.563 l 10.661,16.049 l -8.102,-17.481 l 0.912,-0.41 l 7.712,17.657 l -4.943,-18.623 l 0.969,-0.246 l 4.529,18.728 l -1.634,-19.198 l 0.997,-0.074 l 1.208,19.229 l 1.725,-19.19 l 0.995,0.101 l -2.15,19.147 l 5.03,-18.599 l 0.963,0.272 l -5.442,18.482 l 8.184,-17.442 l 0.9,0.434 l -10.024,20.189 Z"/>
		<path fill="#be1931" d="M 0.605,22.158 l 0.272,-0.963 l 12.095,3.561 c -0.074,0.229 -0.134,0.461 -0.191,0.695 l -12.176,-3.293 Z"/>
	</g>
	<g>
		<path fill="#FFCC4D" d="M 22.431,27.802 l -9.927,-0.654 a 9.951,9.951 0 01 15.743,-7.419 l -5.816,8.073 Z"/>
		<path fill="#FFAC33" d="M 22.551,27.848 l -0.144,0.08 l -9.795,-1.739 l 0.093,-0.492 l 8.077,1.639 l -7.742,-2.828 l 0.178,-0.468 l 7.67,3.017 l -7.134,-4.131 l 0.256,-0.429 l 7.031,4.303 l -6.309,-5.306 l 0.327,-0.379 l 6.177,5.459 l -5.29,-6.32 l 0.387,-0.316 l 5.134,6.447 l -4.112,-7.142 l 0.436,-0.245 l 3.937,7.242 l -2.81,-7.751 l 0.472,-0.164 l 2.62,7.816 l -1.422,-8.12 l 0.494,-0.08 l 1.223,8.152 l 0.01,-8.242 l 0.5,0.007 l -0.212,8.239 l 1.441,-8.114 l 0.492,0.093 l -1.639,8.077 l 2.828,-7.742 l 0.468,0.178 l -3.642,9.259 Z"/>
		<!--<path d="M 21.099,30.152 a 0.5,0.5 0 01 -0.405,-0.792 l 14.386,-19.97 a 0.498,0.498 0 11 0.81,0.585 l -14.387,19.97 a 0.496,0.496 0 01 -0.404,0.207 Z"/>-->
		<path d="M 35.485,9.6825 l -14.3865,19.97" stroke-width="1" stroke-linecap="round" fill="none" stroke="#FFCC4D"/>
	</g>
</svg>
