<svg xmlns="http://www.w3.org/2000/svg" viewBox="0 0 36 36">
	<g>
		<ellipse fill="#292F33" cx="24" cy="31.93" rx="12" ry="3"/>
		<rect width="24" height="1" x="12" y="31" fill="#292F33"/>
		<ellipse fill="#66757F" cx="24" cy="31.018" rx="12" ry="3"/>
	</g>
	
	<g>
		<path fill="#99AAB5" d="M 18,31 c 0,-0.828 2.686,-2.5 6,-2.5 s 6,1.672 6,2.5 a 6,1.5 0 01 -12,0 Z"/>
		<rect width="12" height="3.481" x="18" y="27.52" fill="#99AAB5"/>
		<ellipse fill="#CCD6DD" cx="24" cy="27.5" rx="6" ry="1.5"/>
		<ellipse fill="#FFAC33" cx="24" cy="27.5" rx="5" ry="1"/>
		<path fill="#FFE8B6" d="M 19.507,27.931 c 0.808,-0.335 2.507,-0.569 4.493,-0.569 s 3.686,0.234 4.493,0.569 c -0.808,0.336 -2.508,0.569 -4.493,0.569 s -3.685,-0.233 -4.493,-0.569 Z"/>
	</g>
	
	<g>
		<path fill="#292F33" d="M 14,21 c 0.492,-1.082 2.893,0.387 2.677,1.168 c -0.217,0.781 -0.465,3.641 -0.521,5.078 c -0.13,3.342 0,3.975 -0.738,3.993 c -1.823,0.044 -2.257,0.174 -2.257,-0.477 s 0.463,-8.935 0.839,-9.762 Z"/>
		<path fill="#292F33" d="M 33.993,21 c 0.376,0.827 0.839,9.111 0.839,9.762 s -0.434,0.521 -2.257,0.477 c -0.738,-0.018 -0.608,-0.651 -0.738,-3.993 c -0.056,-1.437 -0.304,-4.297 -0.521,-5.078 s 2.185,-2.25 2.677,-1.168 Z"/>
		<rect width="1.346" height="11.068" rx="0.673" x="23.327" y="22.169" fill="#292F33"/>
		<ellipse fill="#292F33" cx="24" cy="22" rx="10" ry="2"/>
		<ellipse fill="#66757F" cx="24" cy="21" rx="10" ry="2"/>
		<ellipse fill="#292F33" cx="24" cy="20.4" rx="8" ry="1.4"/>
	</g>
	<g>
<path fill="#BE1931" d=" M
24,6
 C 29.975,6.006 35.939,7.501
35.939,9
 C 35.939,12.298 36.476,16.718
33.051,19.174
 C 31.287,20.438 28.397,20.997
24,21
Z
"/>
<path fill="#BE1931" d=" M
24,6
 C 29.975,6.006 35.939,7.501
35.939,9
 C 35.939,12.298 36.476,16.718
33.051,19.174
 C 31.287,20.438 28.397,20.997
24.001,21
Z
" transform=""/>
<path fill="#BE1931" d=" M
12.79,16.514
 C 12.756,16.468 12.723,16.415
12.692,16.35
 C 12.277,15.489 10.854,15.53
9.556,15.431
 C 9.534,15.43 9.517,15.421
9.496,15.418
 L
10.006,10.304
 C 10.012,10.305 10.018,10.302
10.025,10.303
 C 10.916,10.458 11.983,10.813
12.019,10.014
Z"/>
<path fill="#BE1931" d=" M
9.496,15.418
 C 9.421,15.418 9.348,15.428
9.273,15.421
 L
1.773,14.772
 C 0.676,14.677 -0.092,13.548
0.065,12.264
 L
0.208,11.096
 C 0.365,9.811 1.383,8.904
2.47,9.079
 L
9.903,10.277
 C 9.939,10.282 9.971,10.297
10.006,10.304
Z"/>

		<clipPath id="inside">
			<ellipse cx="24" cy="9" rx="10.972" ry="2.25"/>
		</clipPath>
		<ellipse fill="#EA596E" cx="24" cy="9" rx="11.969" ry="3"/>
		<ellipse cx="24" cy="9" rx="10.972" ry="2.25" fill="#FFE8B6"/>
		<g clip-path="url(#inside)">
			<ellipse fill="#FFAC33" cx="24" cy="9.934" rx="9.975" ry="1.317"/>
		</g> fix
	</g>
	<g>
		<path fill="#269" d="M 3.989,3.209 c 0.243,-0.494 0.837,-0.681 1.319,-0.416 l 8.777,4.813 c 0.448,0.246 0.386,0.468 0.361,0.753 c -0.21,0.193 -0.349,0.379 -0.817,0.173 l -9.165,-4.024 c -0.504,-0.221 -0.718,-0.806 -0.475,-1.299 Z"/>
		<path fill="#99AAB5" d="M 18.588,10.956 l -5.399,-2.659 c -0.247,-0.121 -0.349,-0.422 -0.228,-0.669 s 0.422,-0.35 0.669,-0.228 l 7.678,3.781 c -0.965,-0.05 -1.877,-0.126 -2.72,-0.225 Z"/>
	</g>
	<g>
		<path fill="#269" d="M 10.334,1.589 c 0.31,-0.454 0.924,-0.556 1.366,-0.226 l 8.012,6 c 0.409,0.307 0.316,0.519 0.251,0.797 c -0.236,0.162 -0.399,0.325 -0.834,0.056 l -8.508,-5.274 c -0.468,-0.29 -0.597,-0.899 -0.287,-1.353 Z"/>
		<path fill="#99AAB5" d="M 19.289,7.095 l 6.063,4.137 c -0.444,0.011 -0.893,0.019 -1.352,0.019 c -0.135,0 -0.267,-0.003 -0.401,-0.004 l -4.874,-3.326 c -0.227,-0.155 -0.286,-0.468 -0.131,-0.695 s 0.468,-0.286 0.695,-0.131 Z"/>
	</g>
</svg>
