<svg xmlns="http://www.w3.org/2000/svg" viewBox="0 0 36 36">
	<path d="M 19,1.5 v9 c 0,0.127 -0.021,0.249 -0.051,0.367 c 0.03,0.207 0.051,0.417 0.051,0.633 c 0,2.316 -1.75,5.957 -4,6.442 v15.558 a 2.5,2.5 0 01 -5,0 v-15.558 c -2.25,-0.485 -4,-4.126 -4,-6.442 c 0,-0.216 0.021,-0.426 0.051,-0.633 c -0.03,-0.118 -0.051,-0.24 -0.051,-0.367 v-9 a 1.5,1.5 0 01 3,0 v9.5 a 1,1 0 00 2,0 v-9.5 a 1.5,1.5 0 01 3,0 v9.5 a 1,1 0 00 2,0 v-9.5 a 1.5,1.5 0 01 3,0 Z"   fill="#99AAB5"/>
	<path d="M 27.5,0 a 2.5,2.5 0 01 2.5,2.5 v31 a 2.5,2.5 0 01 -5,0 v-12.828 c -1.725,-1.112 -3,-5.014 -3,-9.672 c 0,-5.523 2.791,-11 5,-11 c 0.067,0 0.13,0.021 0.194,0.031 c 0.102,-0.012 0.202,-0.031 0.306,-0.031 Z"   fill="#99AAB5"/>
</svg>
