<svg xmlns="http://www.w3.org/2000/svg" viewBox="0 0 36 36">
	<defs>
		<clipPath id="slit1">
			<path id="slit2" d="M 33.7166,21.3339 c -1.043,1.985 -2.419,3.285 -3.394,4.44 c -0.974,1.156 -3.393,2.419 -5.85,3.43 c -2.405,0.989 -5.224,1.582 -8.337,1.977 c -1.327,0.168 -2.201,0.28 -2.563,-0.172 c -0.241,-0.3 0.188,-0.569 1.047,-0.758 c 0.889,-0.196 3.537,-0.469 5.234,-0.722 c 2.003,-0.298 4.838,-1.228 6.318,-1.95 c 1.459,-0.711 3.459,-2.108 4.396,-2.892 c 1.416,-1.187 3.149,-3.353 3.149,-3.353 Z"/>
		</clipPath>
	</defs>
	
	<g>
		<path d="M 15,22 s -1.608,0.958 -3.955,1.644 c -2.47,0.722 -5.74,3.683 -8.045,2.356 c -1.938,-1.115 -2,-4 -2,-6 s 0,-6 3,-10 s 7,-5 10,-6 s 8,-4 10,-4 s 2.806,0.896 3.617,2.055 c 0.946,1.354 1.763,3.263 3.581,5.159 c 1.548,1.613 2.41,3.506 2.94,5.076 c 0.715,2.119 0.862,3.71 0.862,5.71 s -1.254,5.206 -3,8 c -1.821,2.915 -4.276,4.684 -7,6 c -3.247,1.568 -8.792,2.547 -11.825,0.995 c -1.99,-1.019 -1.325,-4.246 -0.325,-6.246 s 2.15,-4.749 2.15,-4.749 Z" fill="#ffac33"/>
	</g>
	
	<g>
		<path d="M 22.8502,3.9693 c 0.502,-1.002 1.336,-2.096 1.588,-0.561 c 0.175,1.058 -0.324,3.124 -1.588,5.218 c -1.263,2.094 -4.657,8.015 -5.668,9.567 s -2.182,3.807 -2.182,3.807 s -0.333,0.194 -0.893,0.465 c -0.117,-0.697 0.523,-3.667 0.819,-4.465 c 0.957,-2.587 2.721,-5.334 4.074,-7.605 c 1.137,-1.909 3.169,-5.066 3.85,-6.426 Z" fill="#f4900c"/>
		<path d="M 22.8863,5.7383 c 0.471,-0.982 1.272,-2.761 1.56,-1.449 c -0.107,1.131 -0.622,2.723 -1.596,4.337 c -1.264,2.094 -4.657,8.015 -5.668,9.567 s -2.182,3.807 -2.182,3.807 s -0.181,0.11 -0.595,0.318 c 0.071,-0.512 0.253,-1.041 0.43,-1.49 c 0.994,-2.517 3.488,-6.895 4.414,-8.664 s 2.923,-4.937 3.637,-6.426 Z" fill="#c1694f"/>
	</g>
	
	<g>
		<path d="M 33.7166,21.3339 c -0.578,2.094 -2.31,4.946 -3.285,6.101 s -2.96,2.974 -6.282,4.441 c -2.378,1.05 -6.281,1.335 -8.375,1.227 s -3.141,-1.155 -3.105,-1.733 s 1.32,-1.081 2.192,-1.193 c 1.419,-0.182 2.248,-0.143 3.223,-0.179 s 2.852,-0.433 4.26,-0.866 c 0.829,-0.255 3.927,-1.481 4.621,-1.805 c 1.083,-0.506 1.929,-1.017 2.703,-1.515 c 1.435,-0.924 4.048,-4.478 4.048,-4.478 Z" fill="#f4900c"/>
		<use href="#slit2" fill="#c1694f"/>
	</g>
	<g>
		<path d="M 29.0693,25.8151 c 1.105,1.513 4.963,4.165 4.963,4.165 l -6.068,5.855 c -3.478,-1.242 -5.969,-6.769 -5.969,-6.769 c 0,-0.001 0,-0.002 -0.001,-0.003 c 1.562,-0.418 3.178,-0.996 4.177,-1.484 c 0.887,-0.432 1.971,-1.117 2.898,-1.764 Z" fill="#ccd6dd"/>
		<g clip-path="url(#slit1)">
			<path d="M 29.0693,25.8151 c 1.105,1.513 4.963,4.165 4.963,4.165 l -6.068,5.855 c -3.478,-1.242 -5.969,-6.769 -5.969,-6.769 c 0,-0.001 0,-0.002 -0.001,-0.003 c 1.562,-0.418 3.178,-0.996 4.177,-1.484 c 0.887,-0.432 1.971,-1.117 2.898,-1.764 Z" fill="#99aab5"/>
		</g>
	</g>
</svg>
