<svg xmlns="http://www.w3.org/2000/svg" viewBox="0 0 36 36">
	<path d="M 1,22.923 h34 v6.539 a 17,6.538 0 01 -34,0 v-6.538 Z"  fill="#99AAB5"/>
	<ellipse fill="#E1E8ED" cx="18" cy="22.923" rx="17" ry="6.538"/>
	<path d="M 3.615,22.923 a 14.385,5.230 0 01 28.77,0 a 14.385,5.230 0 01 -0.472,1.308 h -27.826 a 14.385,5.230 0 01 -0.472,-1.308 Z" fill="#AAB8C2"/>
	
	<!--<path d="M 4.087,24.230 a 14.385,5.230 0 01 27.826,0 a 14.385,5.230 0 01 -27.826,0 Z"  fill="#3B88C3"/>-->
	<path d="M 4.087,24.230 c 1.599,-2.255 7.213,-3.923 13.913,-3.923 s 12.313,1.668 13.913,3.923 c -1.6,2.255 -7.213,3.924 -13.913,3.924 s -12.314,-1.669 -13.913,-3.924 Z"  fill="#3B88C3"/>
	
	<path d="M 18,22.1279 c -4.497,0 -9.625,1.285 -9.625,2.103 s 5.129,2.102 9.625,2.102 s 9.625,-1.284 9.625,-2.102 s -5.129,-2.103 -9.625,-2.103 Z" fill="#50A5E6"/>
	
	<circle fill="#50A5E6" cx="26" cy="9" r="1"/>
	
	<path d="M 15,22.615 h6 v1.385 a 3,1 0 01 -6,0 v-1.385 Z"  fill="#E1E8ED"/>
	<ellipse fill="#AAB8C2" cx="18" cy="22.615" rx="3" ry="1"/>
	
	<path d="M 25,17 v-1.143 a 3,3 0 00 -6,0 h -2 a 5,5 0 01 10,0 v1.143 a 1,1 0 01 -2,0 Z"   fill="#88C9F9"/>
	<circle fill="#88C9F9" cx="11" cy="5" r="1"/>
	<circle fill="#BBDDF5" cx="26" cy="21" r="1"/>
	<circle fill="#BBDDF5" cx="33" cy="2" r="1"/>
	<circle fill="#F2F9FF" cx="14" cy="20" r="1"/>
	
	<path d="M 8,14.786 v-1.286 a 5.5,5.5 0 01 11,0 h -2 a 3.5,3.5 0 00 -7,0 v1.286 a 1,1 0 01 -2,0 Z"   fill="#1C6399"/>
	<path d="M 31,10.125 a 6,6 0 00 -12,0 h -2 a 8,8 0 01 16,0 a 1,1 0 01 -2,0 Z"   fill="#1C6399"/>
	<circle fill="#1C6399" cx="32" cy="14" r="1"/>
	<circle fill="#1C6399" cx="20" cy="1" r="1"/>
	<circle fill="#1C6399" cx="9" cy="18" r="1"/>
	
	<path d="M 17,8 a 6,6 0 00 -12,0 a 1,1 0 01 -2,0 a 8,8 0 01 16,0 v14.659 h-2 v-14.659 Z"   fill="#3B94D9"/>
	<circle fill="#3B94D9" cx="4" cy="13" r="1"/>
	
</svg>
