<svg xmlns="http://www.w3.org/2000/svg" viewBox="0 0 36 36">
	<g fill="#F4900C">
		<path d=" M
-4.569,9.802
 C -3.912,12.441 -13.242,20.291
-15.813,13.9
 C -17.304,10.197 -18.606,2.435
-17.126,2.066
 C -15.646,1.697 -5.226,7.163
-4.569,9.802
 Z" transform="translate(18 0)"/>
		<path d=" M
4.569,9.802
 C 3.912,12.441 13.242,20.291
15.813,13.9
 C 17.304,10.197 18.606,2.435
17.126,2.066
 C 15.646,1.697 5.226,7.163
4.569,9.802
 Z" transform="translate(17.988 0)"/>
	</g>
	<!--<g fill="#F4900C">
		<path d="M 13.4312,9.8018 c 0.658,2.639 0.176,4.879 -2.462,5.536 c -2.64,0.657 -6.211,4.953 -8.782,-1.438 c -1.491,-3.703 -2.793,-11.466 -1.313,-11.834 c 1.48,-0.369 11.9,5.097 12.557,7.736 Z"/>
		<path d="M 22.5566,9.8018 c -0.657,2.639 -0.177,4.879 2.463,5.536 s 6.21,4.953 8.782,-1.438 c 1.49,-3.703 2.792,-11.466 1.313,-11.834 c -1.481,-0.369 -11.9,5.097 -12.558,7.736 Z"/>
		</g>-->
	
	<!--<path fill="#A0041E" d="M11.437 10.355c.96 1.538-1.831 4.561-3.368 5.522-1.538.961-2.899-.552-4.414-4.414-.662-1.689-1.666-6.27-1.103-6.622.562-.351 7.924 3.976 8.885 5.514z"/>-->
	
	<!--<path fill="#A0041E" d="M24.552 10.355c-.96 1.538 1.831 4.561 3.368 5.522 1.537.961 2.898-.552 4.413-4.414.662-1.688 1.666-6.269 1.104-6.621-.563-.352-7.924 3.975-8.885 5.513z"/>-->
	<g fill="#A0041E">
		<path d="M 11.437,10.355 c -0.961,-1.538 -8.323,-5.865 -8.885,-5.514 c -0.563,0.352 0.441,4.933 1.103,6.621 c 1.514,3.863 2.876,5.376 4.414,4.414 c 1.537,-0.96 4.329,-3.983 3.368,-5.521 Z"/>
		<path d="M 24.5518,10.355 c -0.96,1.538 1.831,4.561 3.368,5.521 c 1.537,0.962 2.899,-0.551 4.413,-4.414 c 0.662,-1.688 1.666,-6.269 1.105,-6.621 c -0.564,-0.351 -7.925,3.976 -8.886,5.514 Z"/>
	</g>
	
	<!--<path fill="#F4900C" d="M32.347 26.912c0-.454-.188-1.091-.407-1.687.585.028 1.519.191 2.77.817-.008-.536-.118-.984-.273-1.393.041.02.075.034.116.055-1.103-3.31-3.309-5.517-3.309-5.517h2.206c-2.331-4.663-4.965-8.015-8.075-9.559-1.39-.873-3.688-1.338-7.373-1.339h-.003c-3.695 0-5.996.468-7.385 1.346-3.104 1.547-5.734 4.896-8.061 9.552H4.76s-2.207 2.206-3.311 5.517c.03-.015.055-.025.084-.04-.201.392-.307.847-.282 1.377 1.263-.632 2.217-.792 2.813-.818-.189.513-.343 1.044-.386 1.475-.123.371-.191.812-.135 1.343C6.75 26.584 8.25 26.792 10 27.667 11.213 31.29 14.206 34 18.001 34c3.793 0 6.746-2.794 7.958-6.416 1.458-1.25 3.708-.875 6.416.416.066-.414.036-.773-.036-1.093l.008.005z"/>-->
	
	<!--<path fill="#272B2B" d="M11 17s0-1.5 1.5-1.5S14 17 14 17v1.5s0 1.5-1.5 1.5-1.5-1.5-1.5-1.5V17zm11 0s0-1.5 1.5-1.5S25 17 25 17v1.5s0 1.5-1.5 1.5-1.5-1.5-1.5-1.5V17zm-7.061 10.808c-1.021.208 2.041 3.968 3.062 3.968 1.02 0 4.082-3.76 3.062-3.968-1.021-.208-5.103-.208-6.124 0z"/>-->

	<g fill="#F18F26">
		<path d="M 18.001,9.2554 c -6.622,-2.208 -11.471,1.974 -15.449,9.932 h2.206 s -2.206,2.206 -3.31,5.517 c 2.207,-1.104 3.31,-1.104 3.31,-1.104 s -1.103,2.208 -1.103,3.312 c 3.31,-2.208 6.621,-2.208 8.828,1.102 c 2.207,3.311 5.518,0 5.518,-4.414 v-14.345 Z"/>
		<path d="M 18.001,9.2554 c 6.621,-2.208 11.471,1.974 15.448,9.932 h-2.206 s 2.206,2.206 3.31,5.517 c -2.206,-1.104 -3.31,-1.104 -3.31,-1.104 s 1.104,2.208 1.104,3.312 c -3.312,-2.208 -6.621,-2.208 -8.828,1.102 c -2.209,3.311 -5.518,0 -5.518,-4.414 v-14.345 Z"/>
		<path d="M 18.001,8.2896 h-0.002 h-0.001 c -11.334,0.001 -9.605,4.369 -8.39,11.632 c 1.214,7.266 2.65,12.421 8.393,12.421 c 5.741,0 7.175,-5.155 8.391,-12.421 c 1.213,-7.263 2.941,-11.631 -8.391,-11.632 Z"/>
	</g>
	<path d="M 34.709,26.042 c -0.084,-5.708 -9.301,-3.745 -10.087,-2.972 c -1.103,1.084 -1.107,7.705 -6.623,7.705 s -6.62,-6.621 -7.723,-7.705 c -0.787,-0.773 -9.234,-1.403 -9.026,2.972 c 2.207,-1.103 3.508,-0.784 3.508,-0.784 s -1.425,0.826 -1.216,2.784 c 3.208,-1.458 4.708,-1.25 6.458,-0.375 c 1.213,3.623 4.206,6.333 8.001,6.333 c 3.793,0 6.746,-2.794 7.958,-6.416 c 1.458,-1.25 3.708,-0.875 6.416,0.416 c 0.292,-1.833 -1.132,-2.742 -1.132,-2.742 s 1.26,-0.319 3.466,0.784 Z" fill="rgb(241,143,38)"/>
	
	
	<path d=" M
16.553,24.704
 C 14.346,23.6 13.242,23.6
13.242,23.6
 C 13.242,23.6 14.346,25.808
14.346,26.912
 C 11.675,25.132 9.005,24.79



6.914,26.461
 C 5.701,30.084 3.794,32.343
0,32.343
 C -3.794,32.343 -5.701,30.084
-6.914,26.461

 C -9.005,24.79 -11.675,25.132
-14.346,26.912
 C -14.346,25.808 -13.242,23.6
-13.242,23.6
 C -13.242,23.6 -14.345,23.6

-16.553,24.704
 C -15.647,21.986 -7.408,20.64
-6.622,21.413
 C -5.519,22.497 -5.516,29.118
0,29.118
 C 5.516,29.118 5.519,22.497
6.622,21.413
 C 7.408,20.64 15.647,21.986
16.553,24.704
 Z" fill="rgb(255,217,131)" transform="translate(18 0)"/>
	
<!--	<path d=" M
13.243,23.601
 C 13.244,23.601 14.347,25.809
14.345,26.912
 L
14.344,26.911
 L
14.344,26.912
 C 11.945,25.338 9.229,24.642
6.915,26.46
 C 5.375,34.005 -5.252,34.381
-6.918,26.46
 C -9.231,24.641 -11.949,25.339
-14.347,26.912
 L
-14.347,26.911
 L
-14.348,26.912
 C -14.348,25.809 -13.245,23.602
-13.245,23.601
 C -13.25,23.601 -14.353,23.603
-16.554,24.704
 C -15.304,21.867 -9.03,20.632
-6.623,21.413
 C -5.8,22.222 -5.586,26.111
-3.241,28.035
 C -1.475,29.493 1.497,29.466
3.238,28.035
 C 5.34,26.416 5.45,23.367
6.621,21.413
 C 9.027,20.634 15.303,21.865
16.552,24.704
 C 14.351,23.604 13.249,23.601
13.243,23.601
 Z" fill="#FFD983"/>
	-->
	
	<g fill="#272B2B">
		<path d="M 11,17 v1.5 s 0,1.5 1.5,1.5 s 1.5,-1.5 1.5,-1.5 v-1.5 s 0,-1.5 -1.5,-1.5 s -1.5,1.5 -1.5,1.5 Z"/>
		<path d="M 22,17 v1.5 s 0,1.5 1.5,1.5 s 1.5,-1.5 1.5,-1.5 v-1.5 s 0,-1.5 -1.5,-1.5 s -1.5,1.5 -1.5,1.5 Z"/>
		<path d="M 14.939,27.8076 c -1.02,0.208 2.041,3.968 3.062,3.968 c 1.02,0 4.082,-3.76 3.062,-3.968 c -1.021,-0.208 -5.103,-0.208 -6.124,0 Z"/>
	</g>
</svg>
