<svg xmlns="http://www.w3.org/2000/svg" viewBox="0 0 36 36">
	<path d="M -4.569,9.802 c 0.657,2.639 -8.673,10.489 -11.244,4.098 c -1.491,-3.703 -2.793,-11.465 -1.313,-11.834 s 11.9,5.097 12.557,7.736 Z" transform="translate(18 0)" fill="#F4900C"/>
	<path d="M 4.569,9.802 c 0.657,-2.639 11.077,-8.105 12.557,-7.736 s 0.178,8.131 -1.313,11.834 c -2.571,6.391 -11.901,-1.459 -11.244,-4.098 Z" transform="translate(17.988 0)" fill="#F4900C"/>
	<!-- todo: were the ears changed on purpose? it seems like just a single point was removed.. could it have been an accidental optimization, where it thought that the change would be obscured behind another layer, but was wrong? -->

	<!--<g fill="#F4900C">
		<path d="M 13.4312,9.8018 c 0.658,2.639 0.176,4.879 -2.462,5.536 c -2.64,0.657 -6.211,4.953 -8.782,-1.438 c -1.491,-3.703 -2.793,-11.466 -1.313,-11.834 c 1.48,-0.369 11.9,5.097 12.557,7.736 Z"/>
		<path d="M 22.5566,9.8018 c -0.657,2.639 -0.177,4.879 2.463,5.536 s 6.21,4.953 8.782,-1.438 c 1.49,-3.703 2.792,-11.466 1.313,-11.834 c -1.481,-0.369 -11.9,5.097 -12.558,7.736 Z"/>
		</g>-->
	
	<!--<path fill="#A0041E" d="M11.437 10.355c.96 1.538-1.831 4.561-3.368 5.522-1.538.961-2.899-.552-4.414-4.414-.662-1.689-1.666-6.27-1.103-6.622.562-.351 7.924 3.976 8.885 5.514z"/>-->
	
	<!--<path fill="#A0041E" d="M24.552 10.355c-.96 1.538 1.831 4.561 3.368 5.522 1.537.961 2.898-.552 4.413-4.414.662-1.688 1.666-6.269 1.104-6.621-.563-.352-7.924 3.975-8.885 5.513z"/>-->
	<path d=" M
-6.563,10.355
 C -5.603,11.893 -8.394,14.916
-9.931,15.876
 C -11.469,16.838 -12.831,15.325
-14.345,11.462
 C -15.007,9.774 -16.011,5.193
-15.448,4.841
 C -14.886,4.49 -7.524,8.817
-6.563,10.355
Z" transform="translate(18 0)" fill="#A0041E"/>
	<!-- scaled by same amount (1.1035 ish) -->
<path d=" M
6.563,10.355
 C 7.524,8.817 14.886,4.49
15.449,4.841
 C 16.011,5.193 15.007,9.774
14.345,11.462
 C 12.831,15.325 11.469,16.838
9.931,15.876
 C 8.394,14.916 5.603,11.893
6.563,10.355
 Z" transform="translate(17.988 0)" fill="#A0041E"/>
	
	<!--<path fill="#F4900C" d="M32.347 26.912c0-.454-.188-1.091-.407-1.687.585.028 1.519.191 2.77.817-.008-.536-.118-.984-.273-1.393.041.02.075.034.116.055-1.103-3.31-3.309-5.517-3.309-5.517h2.206c-2.331-4.663-4.965-8.015-8.075-9.559-1.39-.873-3.688-1.338-7.373-1.339h-.003c-3.695 0-5.996.468-7.385 1.346-3.104 1.547-5.734 4.896-8.061 9.552H4.76s-2.207 2.206-3.311 5.517c.03-.015.055-.025.084-.04-.201.392-.307.847-.282 1.377 1.263-.632 2.217-.792 2.813-.818-.189.513-.343 1.044-.386 1.475-.123.371-.191.812-.135 1.343C6.75 26.584 8.25 26.792 10 27.667 11.213 31.29 14.206 34 18.001 34c3.793 0 6.746-2.794 7.958-6.416 1.458-1.25 3.708-.875 6.416.416.066-.414.036-.773-.036-1.093l.008.005z"/>-->
	
	<!--<path fill="#272B2B" d="M11 17s0-1.5 1.5-1.5S14 17 14 17v1.5s0 1.5-1.5 1.5-1.5-1.5-1.5-1.5V17zm11 0s0-1.5 1.5-1.5S25 17 25 17v1.5s0 1.5-1.5 1.5-1.5-1.5-1.5-1.5V17zm-7.061 10.808c-1.021.208 2.041 3.968 3.062 3.968 1.02 0 4.082-3.76 3.062-3.968-1.021-.208-5.103-.208-6.124 0z"/>-->
	
	<!-- these are scaled up by like 1.103 -->
	<!--<path d="M 18.001,9.2554 v14.345 c 0,4.414 -3.311,7.725 -5.518,4.414 c -2.207,-3.31 -5.518,-3.31 -8.828,-1.102 c 0,-1.104 1.103,-3.312 1.103,-3.312 s -1.103,0 -3.31,1.104 c 1.104,-3.311 3.31,-5.517 3.31,-5.517 h-2.206 c 3.978,-7.958 8.827,-12.14 15.449,-9.932 Z" fill="#F18F26"/>
	<path d="M 18.001,9.2554 c 6.621,-2.208 11.471,1.974 15.448,9.932 h-2.206 s 2.206,2.206 3.31,5.517 c -2.206,-1.104 -3.31,-1.104 -3.31,-1.104 s 1.104,2.208 1.104,3.312 c -3.312,-2.208 -6.621,-2.208 -8.828,1.102 c -2.209,3.311 -5.518,0 -5.518,-4.414 v-14.345 Z" fill="#F18F26"/>-->
	
	<g transform="translate(18 9.2554) scale(1.1035)">
		<path d="M 0,0 v13 c 0,4 -3,7 -5,4 s -5,-3 -8,-1 c 0,-1 1,-3 1,-3 s -1,0 -3,1 c 1,-3 3,-5 3,-5 h-2 c 3.605,-7.211 8,-11 14,-9 Z" fill="#F18F26"/>
		<path d="M 0,0 c 6,-2 10.395,1.789 14,9 h-2 s 2,2 3,5 c -2,-1 -3,-1 -3,-1 s 1,2 1,3 c -3,-2 -6,-2 -8,1 s -5,0 -5,-4 v-13 Z" fill="#F18F26"/>
	</g>
	
	<path d="M 0,8.29 c 11.335,0 9.607,4.369 8.392,11.633 s -2.65,12.42 -8.392,12.42 s -7.177,-5.156 -8.392,-12.42 s -2.943,-11.633 8.392,-11.633 Z" fill="#F18F26" transform="translate(18 0)"/>
	
	<path d="M 34.709,26.042 c -2.206,-1.103 -3.466,-0.784 -3.466,-0.784 s 1.424,0.909 1.132,2.742 c -2.708,-1.291 -4.958,-1.666 -6.416,-0.416 c -1.212,3.622 -4.165,6.416 -7.958,6.416 c -3.795,0 -6.788,-2.71 -8.001,-6.333 c -1.75,-0.875 -3.25,-1.083 -6.458,0.375 c -0.209,-1.958 1.216,-2.784 1.216,-2.784 s -1.301,-0.319 -3.508,0.784 c -0.208,-4.375 8.239,-3.745 9.026,-2.972 c 1.103,1.084 2.207,7.705 7.723,7.705 s 5.52,-6.621 6.623,-7.705 c 0.786,-0.773 10.003,-2.736 10.087,2.972 Z" fill="rgb(241,143,38)"/>
	
	<path d="M 16.553,24.704 c -2.207,-1.104 -3.311,-1.104 -3.311,-1.104 s 1.104,2.208 1.104,3.312 c -2.671,-1.78 -5.341,-2.122 -7.431,-0.452 c -1.602,7.733 -12.228,7.733 -13.83,0 c -2.09,-1.67 -4.76,-1.328 -7.431,0.452 c 0,-1.104 1.104,-3.312 1.104,-3.312 s -1.103,0 -3.311,1.104 c 1.25,-2.838 7.525,-4.071 9.931,-3.291 c 1.103,1.084 1.106,7.705 6.622,7.705 s 5.519,-6.621 6.622,-7.705 c 2.406,-0.78 8.681,0.453 9.931,3.291 Z" fill="rgb(255,217,131)" transform="translate(18 0)"/>
	
	<!--	<path d=" M
		13.243,23.601
		C 13.244,23.601 14.347,25.809
		14.345,26.912
		L
		14.344,26.911
		L
		14.344,26.912
		C 11.945,25.338 9.229,24.642
		6.915,26.46
		C 5.375,34.005 -5.252,34.381
		-6.918,26.46
		C -9.231,24.641 -11.949,25.339
		-14.347,26.912
		L
		-14.347,26.911
		L
		-14.348,26.912
		C -14.348,25.809 -13.245,23.602
		-13.245,23.601
		C -13.25,23.601 -14.353,23.603
		-16.554,24.704
		C -15.304,21.867 -9.03,20.632
		-6.623,21.413
		C -5.8,22.222 -5.586,26.111
		-3.241,28.035
		C -1.475,29.493 1.497,29.466
		3.238,28.035
		C 5.34,26.416 5.45,23.367
		6.621,21.413
		C 9.027,20.634 15.303,21.865
		16.552,24.704
		C 14.351,23.604 13.249,23.601
		13.243,23.601
		Z" fill="#FFD983"/>
	-->
	<path d="M 11,17 s 0,-1.5 1.5,-1.5 s 1.5,1.5 1.5,1.5 v1.5 s 0,1.5 -1.5,1.5 s -1.5,-1.5 -1.5,-1.5 v-1.5 Z" fill="#272B2B"/>
	<path d="M 22,17 s 0,-1.5 1.5,-1.5 s 1.5,1.5 1.5,1.5 v1.5 s 0,1.5 -1.5,1.5 s -1.5,-1.5 -1.5,-1.5 v-1.5 Z" fill="#272B2B"/>
	<path d="M 18.001,31.7756 c -1.021,0 -4.082,-3.76 -3.062,-3.968 c 1.021,-0.208 5.103,-0.208 6.124,0 c 1.02,0.208 -2.042,3.968 -3.062,3.968 Z" fill="#272B2B"/>
</svg>
