<!--<svg xmlns="http://www.w3.org/2000/svg" viewBox="0 0 36 36">
	<rect x="1" y="4" width="34" height="28" rx="2"  fill="#D79E84"/>
	<path d="M 33,4 c 0.679,0 1.276,0.34 1.637,0.857 l -33.33,26.198 c -0.191,-0.307 -0.307,-0.666 -0.307,-1.055 v-24 c 0,-1.104 0.896,-2 2,-2 h30 Z"  fill="#BF6952"/>
	<path d="M 31,22 h-26 v-13 c 0,-0.552 0.448,-1 1,-1 h24 c 0.553,0 1,0.448 1,1 v13 Z"  fill="#8CCAF7"/>
	<path d="M 6,28 c -0.552,0 -1,-0.447 -1,-1 v-6 h14 v7 h-13 Z"  fill="#5DADEC"/>
	<path d="M 19,21 h12 v6 c 0,0.553 -0.447,1 -1,1 h-11 v-7 Z"  fill="#292F33"/>
	<path d="M 20,19 h11 v2.789 c -0.749,-0.226 -1.642,-0.468 -3,0.211 c -0.894,0.447 -1,2 -4,2 c -0.362,0 -0.693,0.032 -1,0.087 c -2.239,0.399 -3.121,2.155 -4,3.913 h-8.273 c 0.761,-1.422 2.017,-3 3.273,-3 c 1,0 1,-3 3,-3 c 0.773,0 1.246,-0.45 1.595,-1 c 0.553,-0.873 0.792,-2 1.405,-2 Z"  fill="#67757F"/>
	<path d="M 25,11 l 4,4 v4 h-8 v-4 l 4,-4 Z"  fill="#E75A70"/>
	<path d="M 29,16 c -0.256,0 -0.512,-0.098 -0.707,-0.293 l -3.293,-3.293 l -3.293,3.293 c -0.391,0.391 -1.023,0.391 -1.414,0 s -0.391,-1.023 0,-1.414 l 4,-4 c 0.391,-0.391 1.023,-0.391 1.414,0 l 4,4 c 0.391,0.391 0.391,1.023 0,1.414 c -0.195,0.195 -0.451,0.293 -0.707,0.293 Z"  fill="#292F33"/>
	<path d="M 23,16 h2 v3 h-2 v-3 Z"  fill="#BB1A34"/>
	<path d="M 17.219,14.125 c 0,1.025 -0.823,1.855 -1.844,1.872 v0.003 h-6.75 l -0.004,-0.012 c -0.041,0.002 -0.08,0.012 -0.121,0.012 c -1.036,0 -1.875,-0.839 -1.875,-1.875 s 0.839,-1.875 1.875,-1.875 c 0.241,0 0.469,0.049 0.68,0.132 c 0.121,-0.919 0.899,-1.632 1.851,-1.632 c 0.236,0 0.459,0.048 0.667,0.128 c 0.332,-0.526 0.915,-0.878 1.583,-0.878 c 1.036,0 1.875,0.839 1.875,1.875 c 0,0.137 -0.016,0.269 -0.044,0.398 c 0.077,-0.009 0.153,-0.023 0.232,-0.023 c 1.036,0 1.875,0.839 1.875,1.875 Z"  fill="#FFF"/>
	</svg>
-->

<svg xmlns="http://www.w3.org/2000/svg" viewBox="0 0 36 36">
	<defs>
		<clipPath id="frame">
			<path d="M 3,4 h30 a 2,2 0 01 2,2 v24 a 2,2 0 01 -2,2 h-30 a 2,2 0 01 -2,-2 v-24 a 2,2 0 01 2,-2 Z M 6,8 a 1,1 0 00 -1,1 v18 a 1,1 0 00 1,1 h24 a 1,1 0 00 1,-1 v-18 a 1,1 0 00 -1,-1 h-24 Z" fill="#d79e84"/>
		</clipPath>
	</defs>
	
	<g>
		<rect x="4" y="7" width="28" height="22" rx="0" fill="#8ccaf7" />
	</g>
	
	<path d="M 15.375,13 v 3 h-6.75 v-3 h6.75 Z" fill="#ffffff" />
	<circle cx="8.5"    cy="14.125" r="1.875" fill="#ffffff" />
	<circle cx="15.344" cy="14.125" r="1.875" fill="#ffffff" />
	<circle cx="13.281" cy="11.875" r="1.875" fill="#ffffff" />
	<circle cx="11.031" cy="12.625" r="1.875" fill="#ffffff" />
		
		
	<path d="M 29,20 h-8 v-5 l 4,-4 l 4,4 v5 Z"   fill="#e75a70"/>
	
	<path d="M 25,19 h-2 v-3 h2 v3 Z"   fill="#bb1a34" />
	
	<path d="M 21,15 l 4,-4 l 4,4"  fill="none" stroke="#292f33" stroke-width="2" stroke-linecap="round" stroke-linejoin="round" />
	
	<path d="M 23,29 h-20 v-8 h20 v8 Z"   fill="#5dadec" />
	<path d="M 14,25 c 1,0 1,-3 3,-3 s 2,-3 3,-3 h12 v10 s -22,2 -22,1 s 2,-5 4,-5 Z"   fill="#67757f" />
	<path d="M 19,28 c 1,-2 2,-4 5,-4 s 3.105,-1.553 4,-2 c 2,-1 3,0 4,0 s 6,6 -1,7 s -11,2 -12,1 s 0,-2 0,-2 Z"   fill="#292f33" />
	
	<path d="M 3,4 h30 a 2,2 0 01 2,2 v24 a 2,2 0 01 -2,2 h-30 a 2,2 0 01 -2,-2 v-24 a 2,2 0 01 2,-2 Z M 6,8 a 1,1 0 00 -1,1 v18 a 1,1 0 00 1,1 h24 a 1,1 0 00 1,-1 v-18 a 1,1 0 00 -1,-1 h-24 Z" fill="#d79e84"/>
	
	<path d="M 0,32.083 l -1,-28.875 l 38,-0.208 l -37,29.083 Z"   fill="#bf6952" clip-path="url(#frame)"/>
</svg>
