<!--<svg xmlns="http://www.w3.org/2000/svg" viewBox="0 0 36 36">
	<rect x="1" y="4" width="34" height="28" rx="2"  fill="#D79E84"/>
	<path d="M 33,4 c 0.679,0 1.276,0.34 1.637,0.857 l -33.33,26.198 c -0.191,-0.307 -0.307,-0.666 -0.307,-1.055 v-24 c 0,-1.104 0.896,-2 2,-2 h30 Z"  fill="#BF6952"/>
	<path d="M 31,22 h-26 v-13 c 0,-0.552 0.448,-1 1,-1 h24 c 0.553,0 1,0.448 1,1 v13 Z"  fill="#8CCAF7"/>
	<path d="M 6,28 c -0.552,0 -1,-0.447 -1,-1 v-6 h14 v7 h-13 Z"  fill="#5DADEC"/>
	<path d="M 19,21 h12 v6 c 0,0.553 -0.447,1 -1,1 h-11 v-7 Z"  fill="#292F33"/>
	<path d="M 20,19 h11 v2.789 c -0.749,-0.226 -1.642,-0.468 -3,0.211 c -0.894,0.447 -1,2 -4,2 c -0.362,0 -0.693,0.032 -1,0.087 c -2.239,0.399 -3.121,2.155 -4,3.913 h-8.273 c 0.761,-1.422 2.017,-3 3.273,-3 c 1,0 1,-3 3,-3 c 0.773,0 1.246,-0.45 1.595,-1 c 0.553,-0.873 0.792,-2 1.405,-2 Z"  fill="#67757F"/>
	<path d="M 25,11 l 4,4 v4 h-8 v-4 l 4,-4 Z"  fill="#E75A70"/>
	<path d="M 29,16 c -0.256,0 -0.512,-0.098 -0.707,-0.293 l -3.293,-3.293 l -3.293,3.293 c -0.391,0.391 -1.023,0.391 -1.414,0 s -0.391,-1.023 0,-1.414 l 4,-4 c 0.391,-0.391 1.023,-0.391 1.414,0 l 4,4 c 0.391,0.391 0.391,1.023 0,1.414 c -0.195,0.195 -0.451,0.293 -0.707,0.293 Z"  fill="#292F33"/>
	<path d="M 23,16 h2 v3 h-2 v-3 Z"  fill="#BB1A34"/>
	<path d="M 17.219,14.125 c 0,1.025 -0.823,1.855 -1.844,1.872 v0.003 h-6.75 l -0.004,-0.012 c -0.041,0.002 -0.08,0.012 -0.121,0.012 c -1.036,0 -1.875,-0.839 -1.875,-1.875 s 0.839,-1.875 1.875,-1.875 c 0.241,0 0.469,0.049 0.68,0.132 c 0.121,-0.919 0.899,-1.632 1.851,-1.632 c 0.236,0 0.459,0.048 0.667,0.128 c 0.332,-0.526 0.915,-0.878 1.583,-0.878 c 1.036,0 1.875,0.839 1.875,1.875 c 0,0.137 -0.016,0.269 -0.044,0.398 c 0.077,-0.009 0.153,-0.023 0.232,-0.023 c 1.036,0 1.875,0.839 1.875,1.875 Z"  fill="#FFF"/>
	</svg>
-->

<svg xmlns="http://www.w3.org/2000/svg" viewBox="0 0 36 36">
	<defs>
		<clipPath id="clipPath16">
			<path d="M 0,36 36,36 36,0 0,0 0,36 Z"/>
		</clipPath>
		<clipPath id="clipPath28">
			<path d="M 3,32 C 1.895,32 1,31.105 1,30 L 1,30 1,6 C 1,4.895 1.895,4 3,4 l 0,0 30,0 c 1.105,0 2,0.895 2,2 l 0,0 0,24 c 0,1.105 -0.895,2 -2,2 l 0,0 -30,0 z"/>
		</clipPath>
		<clipPath id="clipPath40">
			<path d="M 0,36 36,36 36,0 0,0 0,36 Z"/>
		</clipPath>
		<clipPath id="clipPath52">
			<path d="M 6,28 C 5.448,28 5,27.553 5,27 L 5,27 5,9 C 5,8.447 5.448,8 6,8 l 0,0 24,0 c 0.552,0 1,0.447 1,1 l 0,0 0,18 c 0,0.553 -0.448,1 -1,1 l 0,0 -24,0 z"/>
		</clipPath>
		<clipPath id="clipPath70">
			<path d="M 0,36 36,36 36,0 0,0 0,36 Z"/>
		</clipPath>
	</defs>
	<g transform="matrix(1,0,0,-1,0,36)">
		<g clip-path="url(#clipPath16)">
			<path transform="translate(35,6)" fill="#d79e84" d="m 0,0 c 0,-1.104 -0.895,-2 -2,-2 l -30,0 c -1.104,0 -2,0.896 -2,2 l 0,24 c 0,1.105 0.896,2 2,2 l 30,0 c 1.105,0 2,-0.895 2,-2 L 0,0 Z"/>
		</g>
		<g clip-path="url(#clipPath28)">
			<path transform="translate(0,3.917)" fill="#bf6952" d="M 0,0 37,29.083 -1,28.875 0,0 Z"/>
		</g>
		<g clip-path="url(#clipPath40)">
			<path transform="translate(31,9)" fill="#8ccaf7" d="m 0,0 c 0,-0.553 -0.447,-1 -1,-1 l -24,0 c -0.552,0 -1,0.447 -1,1 l 0,18 c 0,0.552 0.448,1 1,1 l 24,0 c 0.553,0 1,-0.448 1,-1 L 0,0 Z"/>
		</g>
		<g clip-path="url(#clipPath52)">
			<path fill="#5dadec" d="M 23,7 3,7 3,15 23,15 23,7 Z"/>
			<path transform="translate(14,11)" fill="#67757f" d="m 0,0 c 1,0 1,3 3,3 2,0 2,3 3,3 l 12,0 0,-10 c 0,0 -22,-2 -22,-1 0,1 2,5 4,5"/>
			<path transform="translate(19,8)" fill="#292f33" d="m 0,0 c 1,2 2,4 5,4 3,0 3.105,1.553 4,2 2,1 3,0 4,0 1,0 6,-6 -1,-7 C 5,-2 1,-3 0,-2 -1,-1 0,0 0,0"/>
		</g>
		<g clip-path="url(#clipPath70)">
			<path transform="translate(10.375,21.8755)" fill="#ffffff" d="m 0,0 c 0,-1.036 -0.839,-1.876 -1.875,-1.876 -1.036,0 -1.875,0.84 -1.875,1.876 0,1.036 0.839,1.875 1.875,1.875 C -0.839,1.875 0,1.036 0,0"/>
			<path transform="translate(17.2188,21.8755)" fill="#ffffff" d="m 0,0 c 0,-1.036 -0.839,-1.876 -1.875,-1.876 -1.035,0 -1.875,0.84 -1.875,1.876 0,1.036 0.84,1.875 1.875,1.875 C -0.839,1.875 0,1.036 0,0"/>
			<path transform="translate(15.1563,24.1255)" fill="#ffffff" d="m 0,0 c 0,-1.036 -0.839,-1.875 -1.875,-1.875 -1.036,0 -1.875,0.839 -1.875,1.875 0,1.036 0.839,1.875 1.875,1.875 C -0.839,1.875 0,1.036 0,0"/>
			<path transform="translate(12.9063,23.3755)" fill="#ffffff" d="m 0,0 c 0,-1.036 -0.839,-1.876 -1.875,-1.876 -1.036,0 -1.875,0.84 -1.875,1.876 0,1.036 0.839,1.875 1.875,1.875 C -0.839,1.875 0,1.036 0,0"/>
			<path fill="#e75a70" d="m 29,17 -8,0 0,5 8,0 0,-5 z"/>
			<path transform="translate(21,21)" fill="#e75a70" stroke="#292f33" stroke-width="2" stroke-linecap="round" stroke-linejoin="round" d="M 0,0 4,4 8,0"/>
			<path fill="#bb1a34" d="m 25,17 -2,0 0,3 2,0 0,-3 z"/>
			<path transform="translate(15,23)" fill="#ffffff" d="m 0,0 -7.375,0 1,-3 6.75,0 L 0,0 Z"/>
		</g>
	</g>
</svg>
