<svg xmlns="http://www.w3.org/2000/svg" viewBox="0 0 36 36">
	<path d="M 3,14.5 c 0,-8.008 6.716,-12.5 15,-12.5 s 15,4.492 15,12.5  c 0,0.2 -0.125,1.5 -0.125,1.5 l -14.875,12 l -14.875,-12 s -0.125,-1.3 -0.125,-1.5 Z" fill="#be1931"/>
	fries
	<g>
		<path d="M 25,10 h3 c 2,0 1,3 1,5 s -1,5 -4,7 s 0,-4 -2,-6 s 1,-5 2,-6 Z" fill="#f4900c"/>
		<path d="M 17,9 s 1,1 2,3 s 1,4 -2,5 s -3,-4 -3,-5 s 2,-3 3,-3 Z" fill="#f4900c"/>
		<g stroke-width="3" stroke-linecap="round" fill="none">
			<g stroke="#f4900c">
				<path d="M 15,9 l -5,21"/>
				<path d="M 18,9 l 2,20"/>
				<path d="M 24,7 l -3,22"/>
				<path d="M 10,8 l 8,22"/>
				<path d="M 28,9 l -6,18"/>
				<path d="M 15,14 l 4,11"/>
				<path d="M 7,13 l 2,12"/>
				<path d="M 30,13 l -1,9"/>
			</g>
			<g stroke="#ffcc4d">
				<path d="M 26,8 l 3,22"/>
				<path d="M 21,10 l 1,14"/>
				<path d="M 10.5415,12.791 l -1.5415,13.209"/>
				<path d="M 14,6 l 4,20"/>
			</g>
		</g>
	</g>
	<path d="M 3.125,16 h0.875 c 1.105,0 3,-0.105 3,1 c 0,2.761 4.372,5 11,5 s 11,-2.239 11,-5 c 0,-1.105 1.895,-1 3,-1 h0.875 l -1.875,15 a 4,4 0 01 -4,4 h-18 a 4,4 0 01 -4,-4 l -1.875,-15 Z" fill="#dd2e44"/>
	<circle r="4" cx="18" cy="28" fill="#be1931"/>
</svg>
