<svg xmlns="http://www.w3.org/2000/svg" viewBox="0 0 36 36">
	<defs>
		<clipPath id="body1">
			<path d="M 30.4141,9.2798 c 3.381,4.675 4.514,10.946 2.959,16.366 c -2.363,8.238 -10.115,9.967 -16.201,9.967 c -1.217,0 -2.224,-0.07 -2.826,-0.113 l -0.091,-0.006 c -0.029,0 -0.057,0.004 -0.087,0.004 c -5.814,0 -9.527,-5.589 -9.527,-10.671 c 0,-5.883 3.713,-10.67 9.527,-10.67 c 3.592,0 6.534,1.907 8.158,4.938 c 0.3,-0.994 0.359,-2.029 0.145,-3.105 c -0.773,-3.883 -4.709,-7.106 -6.602,-7.745 c -0.949,-0.32 -1.542,-0.822 -1.764,-1.491 c -0.397,-1.201 0.534,-2.541 1.213,-3.52 c 0.23,-0.332 0.469,-0.675 0.532,-0.851 l 0.126,-0.351 l 0.372,0.016 c 7.521,0.298 11.8,4.097 14.066,7.232 Z"/>
		</clipPath>
		<clipPath id="tail1">
			<path d="M 5.436,11.3286 c -1.36,0 -2.497,-0.694 -2.828,-1.728 c -0.269,-0.841 0.056,-1.717 0.85,-2.284 c 0.801,-0.571 1.072,-1.048 1.062,-1.283 c -0.012,-0.247 -0.348,-0.586 -0.899,-0.907 c -1.833,-1.069 -1.747,-2.343 -1.624,-2.84 c 0.26,-1.058 1.346,-1.783 2.768,-1.848 l 0.195,-0.004 c 2.384,0 13.559,1.693 15.153,2.061 c 0.425,0.099 0.74,0.456 0.782,0.889 c 0.071,0.687 -3.635,1.88 -0.988,5.668 c 0.365,0.522 -0.98,0.722 -1.599,0.722 h-0.001 c -0.336,0 -0.691,-0.076 -1.053,-0.225 c -0.718,-0.296 -1.623,-0.446 -2.689,-0.446 c -2.162,0 -4.848,0.645 -6.844,1.643 c -0.772,0.386 -1.541,0.582 -2.285,0.582 Z"/>
		</clipPath>
	</defs>
	<g clip-path="url(#body1)">
		<rect width="36" height="36" fill="#ffac33"/>
		<path d="M 21.7061,17.8828 s -5.547,-7.156 -0.974,-5.843 c 7.029,5.674 6.838,13.994 3.789,17.297 c -2.705,2.931 -5.78,2.097 -5.61,1.461 c 7.029,-2.075 5.081,-9.484 2.795,-12.915 Z" fill="#f4900c"/>
		<path d="M 31.2539,23.0488 c 1.655,-0.752 4.002,-2.667 4.764,-4.509 s 2.477,1.46 0.762,3.048 c -1.08,1.08 -4.319,2.478 -5.907,2.668 s -1.016,-0.571 0.381,-1.207 Z" fill="#f4900c"/>
		<path d="M 30.873,6.4082 s 1.778,2.223 2.477,4.001 c 0.699,1.779 0.127,4.764 -1.969,6.098 c -1.297,0.825 -3.62,1.524 -1.398,-0.508 c 2.224,-2.033 1.271,-6.415 0.89,-9.591 Z" fill="#f4900c"/>
	</g>
	<g clip-path="url(#tail1)">
		<rect width="36" height="36" fill="#ff839b"/>
		<path d="M 1.8462,3.4863 c 2.35,3.684 12.576,1.313 0.212,5.674 c -5.103,1.249 -0.212,-5.674 -0.212,-5.674 Z" fill="#ea596e"/>
	</g>
</svg>
