<svg xmlns="http://www.w3.org/2000/svg" viewBox="0 0 36 36">
	<g>
		<path d="M 36,22 c 0,7.456 -8.059,12 -18,12 s -18,-4.544 -18,-12 Z" fill="#c6e5b3"/>
		<!-- <path d="M 36,22 c 0,7.456 -8.059,12 -18,12 s -18,-4.544 -18,-12 s 8.059,-15 18,-15 s 18,7.544 18,15 Z" fill="#c6e5b3"/> full -->
	</g>
	<g fill="#77b255">
		<!--<circle r="11.74" cx="18" cy="17.667"/> idk....-->
		<path d="M 26,9 h-16 s 2.563,-1.832 3.851,-2.315 s 2.684,-0.758 4.149,-0.758 c 1.466,0 2.861,0.275 4.15,0.758 s 3.85,2.315 3.85,2.315 Z"/> idk..
		<path d="M 36,22 c 0,7.456 -8.059,1 -18,1 s -18,6.456 -18,-1 s 8.059,-15 18,-15 s 18,7.544 18,15 Z"/>
		<circle r="6" cx="8" cy="8"/>
		<circle r="6" cx="28" cy="8"/>
	</g>
	<circle r="1" cx="14" cy="20" fill="#5c913b"/>
	<circle r="1" cx="22" cy="20" fill="#5c913b"/>
	
	<g>
		<circle r="3.5" cx="7.5" cy="7.5" fill="#ffffff"/>
		<circle r="3.5" cx="28.5" cy="7.5" fill="#ffffff"/>
		<circle r="1.5" cx="7.5" cy="7.5" fill="#292f33"/>
		<circle r="1.5" cx="28.5" cy="7.5" fill="#292f33"/>
	</g>
</svg>
