<svg xmlns="http://www.w3.org/2000/svg" viewBox="0 0 36 36">
	<defs>
		<g id="foot1">
			<path d="M 0,0 s 0,-3 1,-4 l 1,-1 c 1,0 0,1.448 0,2 c 0,0 -1.135,2.001 0.462,3.707 s -2.462,1.293 -2.462,0.293 v-1 Z" fill="#ffac33"/>
			<g stroke-width="2" stroke-linecap="round" fill="none" stroke="#ffac33">
				<path d="M -2,1 h3"/>
				<path d="M -0.639,3 l 2.639,-1.427"/>
			</g>
		</g>
	</defs>
	
	<use href="#foot1" x="14.5" y="32"/>
	<use href="#foot1" transform="matrix(-1 0 0 1 21.5 32)"/>
	
	<g fill="#ffcc4d">
		<path d="M 34,24 c 0.447,0.895 0,3 -2,2 c -1.191,-0.596 -2.377,-1.912 -3.357,-3.715 c -1.545,4.654 -4.709,8.715 -10.643,8.715 s -9.098,-4.061 -10.643,-8.715 c -0.98,1.803 -2.166,3.119 -3.357,3.715 c -2,1 -2.447,-1.105 -2,-2 c 1,-2 3,-5 4,-10 h24 c 1,5 3,8 4,10 Z" fill="#ffcc4d"/>
		<path d="M 1,0 s -2 -3 -4 -2 s 3 1 4 2 z" transform="translate(18 3)"/>
		<path d="M 1,0 s -2 -3 -4 -2 s 3 1 4 2 z" transform="matrix(-1 0 0 1 18 3)"/>
		<circle cx="18" cy="13.846" r="12"/>
	</g>
	<circle r="1.5" cx="11.5" cy="11.5" fill="#662113"/>
	<circle r="1.5" cx="24.5" cy="11.5" fill="#662113"/>
	
	<path d="M 21,14 c 0,1.657 -1.343,2 -3,2 s -3,-0.343 -3,-2 a 3,3 0 01 6,0 Z" fill="#f4900c"/>
</svg>
