<svg xmlns="http://www.w3.org/2000/svg" viewBox="0 0 36 36">
	<!-- for some reason this one was centered at x=17 instead of 18 -->
	
	<!-- ok this one is almost symmetrical but one of the halfs is shifted over by like 0.05. difficult to fix, perhaps could mirror the good half but they're not actually mirror images.. hm  oh well -->
	
	<path d="M 17,33 a 6,1 0 01 6,1 c 0,0.553 -2.686,1.466 -6,1.466 s -6,-0.913 -6,-1.466 a 6,1 0 01 6,-1 Z" fill="#d99e82"/> <!-- this layer isnt really visible but ehh -->
	<path d="M 17,2 h0.031 h7.969 s 0,2.039 -1,3.039 s 0,2.039 0,2.039 s 5,1.961 5,9.961 s -6,16.961 -6,16.961 h-5.969 h-0.031 l -5.992,0.024 s -5.977,-8.994 -5.977,-16.995 c 0,-8 5,-9.971 5,-9.971 s 1,-1.019 0,-2.019 s -1,-3.039 -1,-3.039 h7.969 Z" fill="#c1694f"/>
	<path d="M 17,0.25 c 4.418,0 8,1.198 8,1.75 a 8,1 0 01 -8,1 a 8,1 0 01 -8,-1 c 0,-0.552 3.582,-1.75 8,-1.75 Z" fill="#d99e82"/>
	<path d="M 17,33.2246 c 3.311,0 6.124,-0.558 7.244,-1.289 c -0.724,1.283 -1.244,2.064 -1.244,2.064 c 0,0.553 -2.686,1.466 -6,1.466 c -3.274,0 -5.931,-0.89 -5.994,-1.445 c -0.01,-0.016 -0.531,-0.806 -1.256,-2.1 c 1.107,0.739 3.919,1.304 7.25,1.304 Z" fill="#d99e82"/>
	<path d="M 17,18.6123 c -4.411,0 -9.146,-0.604 -11.944,-2.235 c 0.053,-1.452 0.269,-2.693 0.592,-3.747 c 0.457,0.091 0.82,0.304 1.3,0.464 c 3,1 8.052,1.293 10.052,1.293 s 7.034,-0.25 10.034,-1.25 c 0.483,-0.16 0.907,-0.418 1.345,-0.508 c 0.301,0.977 0.511,2.114 0.583,3.433 c -2.746,1.774 -7.154,2.55 -11.962,2.55 Z" fill="#d99e82"/>
	
	<path d="M 17,7.2813 c -1.21,0 -4.018,-0.105 -6.613,-0.814 c 0.139,-0.379 0.159,-0.892 -0.338,-1.405 l 3.833,0.938 h6 l 4.118,-0.962 c -0.515,0.516 -0.498,1.039 -0.361,1.428 c -2.602,0.718 -5.424,0.815 -6.639,0.815 Z" fill="#662113"/>
	<path d="M 17,5.732 c 3.465,0 6.365,-0.548 7.163,-1.008 c 0.142,0.082 0.226,0.167 0.226,0.255 c 0,0.583 -3.309,1.262 -7.389,1.262 s -7.389,-0.679 -7.389,-1.262 c 0,-0.088 0.084,-0.173 0.226,-0.255 c 0.798,0.46 3.698,1.008 7.163,1.008 Z" fill="#662113"/>
</svg>
