<svg xmlns="http://www.w3.org/2000/svg" viewBox="0 0 36 36">
	<path d="M 25.786,32.106 c 0.113,0.213 0.031,0.476 -0.185,0.592 c -0.03,0.016 -0.061,0.028 -0.092,0.036 c -0.193,0.052 -0.402,-0.034 -0.501,-0.217 c -0.002,-0.006 -0.192,-0.351 -0.53,-0.652 c -0.162,0.224 -0.339,0.408 -0.488,0.495 c -0.214,0.125 -0.541,-0.02 -0.851,-0.227 c 0.34,0.419 0.545,0.851 0.711,1.208 c 0.102,0.219 0.007,0.48 -0.213,0.582 c -0.024,0.011 -0.047,0.019 -0.072,0.026 c -0.202,0.054 -0.419,-0.043 -0.51,-0.239 c -0.234,-0.502 -0.466,-0.934 -0.859,-1.303 c -0.124,0.431 -0.372,0.87 -0.893,0.997 c -0.409,0.1 -0.909,-0.117 -1.305,-0.356 c -0.029,0.301 0.013,0.491 0.017,0.506 c 0.056,0.232 -0.082,0.468 -0.312,0.53 l -0.005,0.001 c -0.232,0.06 -0.469,-0.077 -0.531,-0.309 c -0.003,-0.014 -0.031,-0.136 -0.045,-0.326 c -0.117,0.3 -0.294,0.575 -0.574,0.638 c -0.234,0.052 -0.434,-0.08 -0.614,-0.241 c -0.079,0.32 -0.125,0.643 -0.099,0.942 c 0.019,0.215 -0.121,0.408 -0.323,0.462 c -0.024,0.006 -0.049,0.011 -0.075,0.013 c -0.241,0.021 -0.454,-0.157 -0.475,-0.398 c -0.038,-0.43 0.029,-0.888 0.152,-1.335 c -0.403,0.325 -1.14,0.325 -0.93,-0.724 c 0.507,-2.537 7.603,-3.332 8.409,-2.739 c 0.325,0.24 0.367,0.611 0.275,0.988 c 0.584,0.442 0.9,1.015 0.918,1.05 Z"  fill="#99AAB5"/>
	<path d="M 22.92,11.745 c 6.228,0.547 9.227,2.686 10.22,6.387 c 1.42,5.299 0.673,10.296 -12.633,13.862 s -16.452,-0.389 -17.872,-5.688 c -0.992,-3.703 0.536,-7.054 5.656,-10.642 c 2.732,-1.915 3.357,-4.159 3.123,-6.402 c -0.041,-0.397 -0.49,-3.766 -0.749,-6.269 c -0.173,-1.669 0.739,-1.687 1.31,-1.84 c 0.57,-0.153 1.813,-1.224 2.553,0.805 c 0.78,2.139 2.296,5.452 2.486,5.804 c 0.985,1.82 2.582,3.691 5.906,3.983 Z"  fill="#E1E8ED" class="toolight"/>
	<path d="M 11.29,32.904 c -2.744,-1.233 -5.845,-3.48 -5.898,-7.615 c -0.058,-4.524 4.073,-7.097 4.567,-9.714 c 0.173,3.065 -2.752,5.037 -2.722,8.946 c 0.028,3.541 1.019,6.223 4.053,8.383 Z"  fill="#99AAB5"/>
	<path d="M 18.274,32.407 c -2.612,-1.34 -5.792,-4.185 -6.488,-8.1 c -1.002,-5.636 1.365,-9.11 0.782,-13.372 c 1.415,4.899 0.563,7.254 1.436,12.126 c 0.568,3.17 2.161,7.531 4.27,9.346 Z"  fill="#99AAB5"/>
	<path d="M 28.941,28.174 c 1.759,-2.44 3.322,-5.937 1.3,-9.544 c -2.212,-3.947 -7.076,-4.11 -8.812,-6.129 c 1.383,2.741 4.902,2.986 6.83,6.386 c 1.748,3.081 2.23,5.9 0.682,9.287 Z"  fill="#99AAB5"/>
	<path d="M 22.645,31.235 c 1.592,-2.466 2.924,-6.52 1.569,-10.259 c -1.951,-5.382 -5.737,-7.207 -7.363,-11.19 c 1.224,4.951 3.139,6.564 4.819,11.22 c 1.092,3.03 1.894,7.603 0.975,10.229 Z"  fill="#99AAB5"/>
	</svg>
