<svg xmlns="http://www.w3.org/2000/svg" viewBox="0 0 36 36">
	holy shit these are the longest fucking path strings i've seen in my entire life.
	<path fill="#CDA878" d="M 35.702,26.126 c 0.238,1.034 -0.039,2.173 -0.728,2.983 c 0.008,0.407 0.008,0.803 0.003,1.193 v0.013 c -0.17,8.988 -12.985,6.6 -10.952,-2.2 c -0.185,-1.655 1.66,-4.029 0.865,-5.019 a 7.624,7.624 0 00 -1.501,-1.496 a 2.227,2.227 0 01 -2.069,1.868 l -5.542,0.303 a 2.22,2.22 0 01 -2.298,-1.844 c -0.285,-0.462 -0.591,-0.911 -0.937,-1.329 c -0.102,-0.124 -0.212,-0.258 -0.22,-0.419 c -0.007,-0.148 0.075,-0.284 0.154,-0.409 l 0.965,-1.528 c 0.019,-0.472 0.048,-0.974 0.088,-1.495 c -1.31,1.56 -2.286,2.11 -2.448,4.061 c -0.484,3.585 2.608,4.155 5.545,4.231 c 2.32,0.19 3.776,1.4 4.453,2.923 c 1.261,0.317 3.148,0.712 1.03,4.791 c -0.211,0.406 -1.184,1.43 -1.461,1.793 c -0.412,0.54 -1.04,0.876 -1.683,1.096 a 6.602,6.602 0 01 -3.311,0.245 c -0.704,-0.129 -1.381,-0.373 -2.077,-0.542 c -0.779,-0.19 -1.589,-0.289 -2.32,-0.619 c -0.833,-0.376 -1.501,-1.023 -2.136,-1.686 a 13.125,13.125 0 01 -3.354,-2.644 c -0.587,-0.645 -1.075,-1.352 -1.48,-2.098 c -0.144,0.003 -0.288,0.01 -0.432,0.011 c -0.423,0.007 -0.876,0.001 -1.222,-0.242 c -0.279,-0.196 -0.44,-0.515 -0.59,-0.821 l -1.189,-2.419 c -0.105,-0.213 -0.213,-0.441 -0.191,-0.678 s 0.169,-0.441 0.309,-0.634 a 34.146,34.146 0 00 2.17,-3.404 c 0.522,-2.621 1.846,-5.078 3.911,-6.811 c 0.042,-0.037 0.084,-0.071 0.126,-0.107 l 0.226,-0.683 c 0.098,-0.297 0.198,-0.599 0.374,-0.858 s 0.441,-0.475 0.751,-0.518 c 0.138,-0.019 0.278,-0.004 0.417,-0.009 a 1.77,1.77 0 00 0.612,-0.147 a 4.245,4.245 0 00 0.622,-1.209 c -0.462,0.06 -0.954,0.097 -1.494,0.097 c -1.013,0 -2.199,-0.134 -3.563,-0.412 c -0.14,0.024 -0.281,0.042 -0.419,0.073 c -0.6,0.135 -1.203,0.342 -1.815,0.275 c -0.645,-0.07 -1.226,-0.444 -1.67,-0.917 s -0.77,-1.042 -1.091,-1.605 c -0.074,-0.129 -0.149,-0.263 -0.171,-0.411 c -0.037,-0.26 0.099,-0.512 0.234,-0.737 c 0.083,-0.138 0.168,-0.275 0.252,-0.412 a 3.119,3.119 0 01 0.114,-0.709 c 0.14,-0.475 0.392,-0.882 0.708,-1.222 c 0.055,-0.291 0.107,-0.583 0.225,-0.854 c 0.416,-0.955 1.77,-1.344 2.63,-0.757 c 0.361,0.246 0.619,0.612 0.925,0.924 c 3.908,1.057 5.036,0.478 6.123,-0.087 c 0.958,-0.498 2.284,-1.184 4.24,-0.979 l 0.931,-0.309 c 0.304,-0.1 0.619,-0.202 0.937,-0.17 c 0.576,0.058 1.01,0.529 1.387,0.968 c 0.084,0.098 0.171,0.201 0.2,0.327 c 0.008,0.036 0.001,0.073 0.002,0.109 c 0.552,0.116 1.027,0.138 1.395,0.05 c 1.526,-1.509 2.741,-2.484 2.741,-2.484 c 0.954,-0.763 2.185,-0.495 2.736,0.595 l 1.266,2.503 c 0.358,0.288 0.725,0.567 1.084,0.844 c 0.268,0.207 0.548,0.438 0.643,0.763 c 0.142,0.488 -0.181,0.973 -0.283,1.474 a 2.965,2.965 0 01 -0.194,1.742 c 1.145,0.248 2.234,0.308 2.913,0.181 a 3.085,3.085 0 01 3.602,2.47 a 3.088,3.088 0 01 -2.47,3.602 c -0.595,0.111 -1.267,0.168 -1.987,0.168 c -0.501,0 -1.032,-0.039 -1.571,-0.095 a 0.641,0.641 0 01 -0.177,0.315 c -0.23,0.213 -0.583,0.22 -0.893,0.173 s -0.627,-0.134 -0.933,-0.064 c -0.307,0.07 -0.591,0.373 -0.5,0.674 c 0.003,0.01 0.012,0.018 0.016,0.028 a 14.435,14.435 0 01 3.091,2.044 c 0.708,0.477 1.433,0.927 2.214,1.27 c 0.751,0.331 1.571,0.575 2.165,1.142 a 2.592,2.592 0 01 0.777,2.077 c -0.035,0.378 -0.154,0.75 -0.136,1.13 c 0.024,0.51 1.178,1.878 1.336,2.563 Z"/>
	<path fill="#9E7C3B" d="M 31.867,19.343 c 0.551,0.226 1.106,0.45 1.573,0.797 l -0.253,0.163 c -0.8,0.485 -0.784,0.669 -0.68,1.259 c 0.079,0.323 0.106,0.399 0.101,0.703 c 0.037,0.209 0.053,0.258 0.039,0.607 c -0.032,1.029 -0.544,1.418 -1.39,1.982 c -0.5,0.34 -0.738,0.3 -1.559,0.785 l -0.456,0.339 c -0.202,0.195 -0.183,0.498 -0.19,0.865 c -0.024,0.632 0.077,0.687 0.13,0.938 a 0.773,0.773 0 01 -1.512,0.318 c -0.181,-0.538 -0.17,-0.953 -0.157,-1.518 c -0.009,-2.176 2.121,-2.491 2.879,-3.005 c 0.433,-0.29 0.627,-0.425 0.686,-0.543 a 1.64,1.64 0 00 0.029,-0.401 c -0.039,-0.161 -0.044,-0.219 -0.041,-0.424 c -0.003,-0.074 -0.061,-0.284 -0.077,-0.373 c -0.179,-1.016 -0.054,-1.76 0.878,-2.492 Z"/>
	<path fill="#9E7C3B" d="M 1.477,2.981 c 0.302,-0.74 1.181,-1.212 2.023,-1.04 l 0.016,-0.001 c 0.743,0.14 0.988,0.599 1.51,1.139 c -0.703,0.356 -1.216,0.426 -1.75,0.426 c -0.971,0 -1.183,-0.179 -1.799,-0.524 Z"/>
	<path fill="#9E7C3B" d="M 4.266,28.298 c -1.957,0.047 -1.695,0.021 -3.193,-3.028 c 0.949,0.155 1.738,0.047 2.524,1.168 c 0.244,0.335 0.311,0.476 0.411,0.819 c 0.134,0.268 0.266,0.536 0.258,1.041 Z"/>
	<path fill="#9E7C3B" d="M 8.274,9.343 c 0.268,-0.264 0.859,-0.827 1.195,-0.994 c 0.151,-0.146 0.33,-0.224 0.523,-0.287 c 0.078,-0.041 0.187,-0.189 0.244,-0.268 c 0.151,-0.208 0.237,-0.943 0.235,-1.107 a 0.772,0.772 0 01 0.759,-0.785 h0.013 a 0.772,0.772 0 01 0.772,0.759 c 0.006,0.281 -0.047,0.572 -0.09,0.856 c -0.115,0.833 -0.621,1.737 -1.454,2.013 c -0.474,0.31 -0.335,0.212 -0.381,0.248 a 11.32,11.32 0 01 -2.292,0.054 a 0.767,0.767 0 01 0.476,-0.489 Z"/>
	<path fill="#9E7C3B" d="M 19.292,31.924 c 1.666,-1.182 1.806,-1.274 3.327,-0.27 c -0.135,0.334 -0.43,1.014 -0.641,1.308 c -0.087,-0.061 -0.769,-0.522 -0.868,-0.56 c 0.006,0.022 -0.17,0.135 -0.266,0.195 c -0.544,0.343 -0.654,0.542 -1.082,0.69 c -0.147,0.065 -0.293,0.202 -0.547,0.307 c -0.658,0.275 -0.995,0.719 -2.901,0.669 c -0.138,-0.004 -0.629,0 -1.17,-0.192 c -0.315,-0.101 -0.492,-0.139 -0.717,-0.323 c -0.192,-0.08 -0.22,-0.085 -0.384,-0.213 c -0.387,-0.23 -0.285,-0.108 -0.658,-0.24 c -0.988,-0.35 -1.297,-0.576 -2.847,-0.427 c -1.05,0.1 -0.562,0.101 -1.319,0.268 l -0.095,-0.096 c -0.543,-0.303 -1.066,-0.649 -1.573,-1.03 c 0.03,-0.005 1.568,-0.334 1.599,-0.344 c 0.751,-0.249 0.759,-0.186 1.25,-0.233 c 0.15,-0.015 0.335,-0.053 0.459,-0.028 c 0.966,-0.022 1.484,-0.047 2.484,0.34 c 0.935,0.364 0.808,0.181 1.294,0.467 a 1.875,1.875 0 01 0.288,0.183 c -0.009,-0.01 0.105,0.023 0.229,0.098 a 1.58,1.58 0 01 0.169,0.126 c 0.01,0.006 0.067,0.019 0.122,0.036 c 0.215,0.068 0.434,0.154 0.779,0.163 c 1.668,0.046 1.571,-0.195 2.437,-0.555 c 0.137,-0.058 0.252,-0.209 0.631,-0.339 Z"/>
	<path fill="#9E7C3B" d="M 26.075,18.729 a 0.772,0.772 0 11 0.943,1.222 c -0.376,0.29 -1.105,0.523 -1.402,0.597 c -0.058,0.014 -0.154,0.038 -0.172,0.051 c -0.193,0.141 -0.258,0.516 -0.415,0.951 c -0.129,0.36 -0.255,1.027 -0.298,1.361 c -0.392,-0.486 -0.833,-0.925 -1.324,-1.298 a 5.4,5.4 0 01 0.168,-0.584 c 0.21,-0.64 0.365,-1.246 0.959,-1.678 c 0.378,-0.276 0.71,-0.28 0.878,-0.35 c 0.323,-0.131 0.519,-0.161 0.663,-0.272 Z"/>
	<path fill="#9E7C3B" d="M 15.408,2.035 c 1.703,-0.564 2.083,-0.878 3.255,0.489 c 0.237,0.276 0.2,0.332 0.202,0.436 c 0.041,0.009 0.073,0.008 0.113,0.015 c -1.641,1.084 -3.053,0.565 -3.67,-0.945 c 0.034,0.003 0.065,0.001 0.1,0.005 Z"/>
	<path fill="#9E7C3B" d="M 13.429,11.252 a 0.772,0.772 0 11 0.913,1.245 c -0.299,0.222 -0.488,0.232 -0.611,0.642 c 0.014,-0.04 0.023,-0.012 0.029,0.024 l 0.045,0.241 c 0.326,1.083 -0.266,2.649 -0.296,2.837 c 0.056,0.215 0.026,0.362 0.013,0.514 c -0.488,0.58 -0.929,1.021 -1.299,1.446 a 0.759,0.759 0 01 -0.318,-0.679 l 0.097,-1.076 c -0.172,-0.629 0.501,-1.622 0.332,-2.576 c -0.327,-0.975 -0.011,-1.75 0.671,-2.327 c 0.173,-0.146 0.318,-0.214 0.424,-0.291 Z"/>
	<path fill="#9E7C3B" d="M 21.759,4.698 c 0.223,-0.076 0.567,-0.1 0.943,0.235 c 0.292,0.153 0.597,0.377 0.698,0.69 c 0.103,0.103 0.402,0.514 0.596,0.618 a 1.042,1.042 0 01 0.382,0.076 c 0.29,-0.062 2.385,0.476 2.882,0.481 l 0.082,-0.01 l 0.048,0.011 l 1.081,0.114 c 0.063,0.514 -0.009,1.05 -0.217,1.53 l -0.965,-0.101 c -0.554,0.004 -1.579,-0.255 -2.928,-0.498 c -0.25,0.003 -0.342,-0.023 -0.455,-0.056 c -0.669,-0.036 -1.127,-0.504 -1.552,-1.012 l -0.056,-0.067 c -0.091,-0.069 -0.24,-0.198 -0.325,-0.418 c -0.092,-0.053 -0.121,-0.061 -0.213,-0.133 c -0.694,-0.239 -0.689,-1.221 -0.001,-1.46 Z"/>
	<path fill="#9E7C3B" d="M 26.738,15.198 c -0.307,0.07 -0.607,0.38 -0.483,0.702 a 0.008,0.008 0 01 0.004,0.002 l -0.351,-0.166 l -0.028,0.005 c -0.619,-0.305 -0.429,-0.185 -0.659,-0.333 a 0.716,0.716 0 01 -0.216,-0.11 c -0.297,-0.201 -0.491,-0.373 -0.721,-0.589 c -0.57,-0.534 -0.67,-0.493 -0.783,-1.317 c -0.059,-0.444 0.002,-0.201 -0.686,-0.952 c -0.149,-0.151 -0.8,-0.927 -0.835,-0.975 a 0.773,0.773 0 01 1.237,-0.924 s 0.376,0.45 0.826,0.953 c 0.598,0.61 1.182,0.737 1.677,1.02 c 0.994,0.57 2.976,0.315 3.897,0.95 c 0.851,0.447 1.707,1.086 1.969,1.331 c -0.918,0.098 -1.652,0.103 -2.845,-0.022 c -0.128,0.479 -0.58,0.562 -1.07,0.489 c -0.31,-0.047 -0.627,-0.134 -0.933,-0.064 Z"/>
	<path fill="#9E7C3B" d="M 4.512,24.283 c -0.159,0.033 -0.478,0.279 -0.918,0.279 a 0.773,0.773 0 01 -0.027,-1.544 a 1.795,1.795 0 01 0.775,-0.27 c 1.042,-0.404 0.813,-0.056 1.842,-0.714 c 0.249,-0.161 0.541,-0.383 1.074,-0.376 c 0.386,0.002 0.736,0.004 1.125,0.141 c 0.266,0.095 0.621,0.145 1.016,0.315 c 0.103,0.032 0.248,0.008 0.354,0.001 c 0.665,-0.029 0.715,-0.182 1.118,-0.305 a 0.769,0.769 0 01 0.179,-0.052 c 0.035,0.61 0.196,1.111 0.462,1.516 l -0.286,0.029 c 0.088,0.015 -0.575,0.319 -1.411,0.355 c -0.47,0.034 -0.651,0.04 -1.034,-0.128 c -1.915,-0.601 -1.28,-0.324 -2.63,0.284 c -0.411,0.185 -0.777,0.206 -1.059,0.297 a 1.52,1.52 0 01 -0.58,0.172 Z"/>
	<path fill="#9E7C3B" d="M 13.079,21.311 c 0.692,-0.017 1.054,-0.071 1.852,-0.256 c 0.785,-0.183 0.662,-0.37 1.502,-1.337 c 0.836,-0.96 1.39,-1.555 2.618,-1.913 c 1.138,-0.33 2.788,-0.303 4.004,0.112 c 0.152,-0.004 0.413,0.099 0.697,0.195 l 0.085,0.441 c 0.122,0.629 -0.508,1.144 -1.095,0.872 c -0.103,-0.017 -1.683,-0.596 -3.259,-0.137 c -0.872,0.254 -1.227,0.686 -1.885,1.444 c -0.914,1.042 -0.962,1.811 -3.745,2.079 c -0.181,-0.261 -0.315,-0.558 -0.371,-0.885 c -0.129,-0.209 -0.264,-0.413 -0.403,-0.615 Z"/>
	<path fill="#9E7C3B" d="M 4.775,18.258 c -0.41,0.213 -0.718,0.439 -1.302,0.575 c 0.223,-0.724 0.51,-1.425 0.859,-2.095 c 0.025,-0.015 1.16,-0.708 1.363,-0.822 c 1.38,-0.776 1.988,0.437 2.631,0.426 c -0.104,0.002 0.281,-0.014 0.559,0.055 c 0.241,0.025 0.424,0.053 0.879,0.332 c 0.486,0.294 0.841,0.689 0.85,1.263 a 0.77,0.77 0 01 -0.396,0.94 c -0.494,0.238 -1.111,-0.079 -1.145,-0.81 c -0.062,-0.054 -0.27,-0.167 -0.357,-0.206 c -0.038,0.012 -0.117,-0.001 -0.201,-0.021 c -0.103,-0.026 -0.335,0.013 -0.644,-0.046 c -0.611,-0.117 -1.011,-0.516 -1.318,-0.646 c -0.017,0.029 0.022,-0.025 -0.304,0.181 c -0.495,0.308 -0.217,0.102 -0.783,0.471 c -0.269,0.174 -0.314,0.207 -0.691,0.403 Z"/>
	<path fill="#9E7C3B" d="M 18.489,26.712 c -0.019,0.036 -0.058,0.093 -0.097,0.151 a 0.331,0.331 0 01 0.003,-0.042 c -0.082,0.557 -0.484,0.742 -0.653,0.907 c -0.013,0.023 -0.216,0.527 -0.237,0.582 c -0.254,1.097 -0.779,1.216 -1.727,1.182 a 0.772,0.772 0 01 0,-1.544 l 0.225,0.008 a 2.06,2.06 0 01 0.054,-0.183 c 0.285,-0.768 0.415,-1.022 0.83,-1.338 l -0.01,0.081 c 0.04,-0.229 0.137,-0.384 0.254,-0.547 c 0.223,-0.373 0.464,-0.528 0.745,-0.699 a 5.2,5.2 0 01 1.675,0.795 c -0.205,0.181 -0.429,0.3 -0.615,0.388 c -0.154,0.073 -0.4,0.21 -0.447,0.259 Z"/>
	<g>
		<path fill="#B6925A" d="M 30.503,25.598 c 1.26,0.238 3.674,1.833 4.516,3.444 c -0.016,0.021 -0.026,0.046 -0.043,0.066 c 0.008,0.407 0.008,0.803 0.003,1.193 v0.013 c -0.175,9.246 -14.058,6.675 -10.703,-3.804 c 1.022,-0.965 3.091,-1.092 4.088,-1.092 a 12.324,12.324 0 01 2.139,0.18 Z"/>
		<path fill="#E3C288" d="M 29.89,35.266 c -1.642,-0.001 -3.286,-0.784 -4.289,-2.046 c -1.078,-1.354 -1.395,-3.159 -0.919,-5.218 c 0.35,-1.515 2.812,-1.678 3.855,-1.678 c 0.616,0 1.282,0.056 1.779,0.15 c 1.28,0.242 3.998,2.17 4.006,3.747 c -0.088,4.679 -3.415,5.045 -4.432,5.045 Z"/>
		<path fill="#FADC98" d="M 29.728,34.345 c -1.192,-0.207 -1.143,-0.325 -1.755,-1.015 c -1.032,-1.165 -1.697,-0.341 -2.718,-2.407 c -0.27,-0.545 -0.091,-1.887 0.047,-2.482 c 0.346,-1.496 3.271,-1.568 4.748,-1.288 c 1.146,0.217 3.41,1.879 3.375,3.218 c -0.043,1.65 -0.646,3.393 -2.252,3.802 c -0.049,0.013 -0.093,0.036 -0.141,0.051 c -0.691,0.216 -0.881,0.194 -1.304,0.121 Z"/>
	</g>
	<path fill="#9E7C3B" d="M 35.702,26.126 a 3.477,3.477 0 01 -0.724,2.979 c -1.311,-1.493 -1.448,-3.534 -0.503,-5.205 c 0.289,0.628 1.096,1.659 1.227,2.226 Z"/>
</svg>
