<svg xmlns="http://www.w3.org/2000/svg" viewBox="0 0 36 36">
	<path d="M 22.217,35.615 h-0.002 c -0.804,-0.142 -1.34,-0.908 -1.198,-1.712 l 0.59,-3.344 s 0.68,-3.165 -1.076,-5.449 c 1.259,-1.171 5.024,0.085 5.024,0.085 l -1.626,9.221 c -0.142,0.804 -0.908,1.34 -1.712,1.199 Z"  fill="#F4900C"/>
	<path d="M 9.525,35.594 h-0.002 c -0.804,-0.142 -1.34,-0.908 -1.198,-1.712 l 1.312,-7.025 s 0.503,-2.419 0.503,-4.439 c 1.142,-0.439 2.723,2.757 2.723,2.757 l -1.626,9.221 c -0.143,0.803 -0.909,1.339 -1.712,1.198 Z"  fill="#F4900C"/>
	<path d="M 30.802,25.771 c -0.537,0 -0.977,-0.431 -0.985,-0.969 c -0.012,-0.723 -0.304,-4.326 -4.925,-4.326 c -0.545,0 -0.985,-0.441 -0.985,-0.985 s 0.441,-0.985 0.985,-0.985 c 5.363,0 6.858,3.938 6.896,6.264 c 0.009,0.545 -0.425,0.993 -0.969,1.002 l -0.017,-0.001 Z"  fill="#F4900C"/>
	<path d="M 15.226,17.252 l -3.46,-11.98 l 1.687,-1.02 c 0.369,0.61 0.628,1.722 1.054,3.633 c 0.569,2.558 1.349,6.06 2.657,7.876 c 0.318,0.442 0.218,1.058 -0.224,1.376 c -0.175,0.126 -1.714,0.115 -1.714,0.115 Z"   fill="#754C29"/>
	<path d="M 7.615,2.71 v-1.971 c 0,-0.408 0.331,-0.739 0.739,-0.739 s 0.739,0.331 0.739,0.739 v1.971 h-1.478 Z"  fill="#754C29"/>
	<path d="M 9.947,2.71 v-1.971 c 0,-0.408 0.331,-0.739 0.739,-0.739 s 0.739,0.331 0.739,0.739 v1.971 h-1.478 Z"  fill="#754C29"/>
	<ellipse cx="30.802" cy="26.263" rx="1.971" ry="2.464"  fill="#754C29"/>
	<path d="M 28.935,34.094 c 0.142,0.804 -0.395,1.571 -1.197,1.714 c -0.803,0.142 -1.57,-0.395 -1.712,-1.199 c 0,0 -0.674,-3.382 -0.868,-4.228 s -1.083,-2.722 -3.454,-2.576 c -0.001,-0.006 0.002,-0.014 0.002,-0.02 c -1.84,0.08 -4.472,-0.318 -6.449,-0.852 l 1.262,7.159 c 0.142,0.804 -0.395,1.57 -1.199,1.712 c -0.805,0.142 -1.571,-0.395 -1.713,-1.199 l -0.784,-4.193 s -0.459,-3.16 -2.449,-5.97 l 0.01,-0.011 c -0.208,-0.318 -0.35,-0.676 -0.394,-1.095 c 0,0 -0.173,-1.811 0.12,-3.377 c 0.019,-1.454 -0.039,-2.912 -0.158,-4.36 c -0.171,-2.08 -0.368,-4.468 -1.415,-6.324 c -0.389,-0.69 -0.873,-1.144 -1.477,-1.215 c -0.065,-0.008 -0.118,-0.018 -0.173,-0.029 h-2.106 c -0.645,0 -1.189,-0.416 -1.39,-0.993 c -1.479,-0.053 -2.043,-1.645 -0.854,-2.578 c 0.696,-0.547 1.631,-0.296 2.417,-0.64 c 0.647,-0.283 1.049,-0.831 1.633,-1.19 c 0.568,-0.35 1.217,-0.51 1.872,-0.51 h2.598 c 0.02,0 0.039,0.005 0.059,0.006 c 0.686,-0.882 2.097,-1.7 3.513,-0.992 c 0.819,0.818 -0.404,2.992 -1.971,3.706 v0.405 l 0.027,0.165 l -0.036,0.009 l 0.036,-0.009 c 0.453,2.675 1.161,5.31 1.961,7.9 c 0.452,1.463 0.778,3.376 2.414,3.965 c 0.322,0.116 0.832,0.201 1.422,0.272 c 1.281,0.154 2.571,0.207 3.854,0.339 c 1.514,0.156 2.749,0.795 3.526,1.847 c 0.199,0.27 0.644,0.873 0.766,1.203 c 0.099,0.267 0.128,0.634 0.138,0.779 c 0.146,4.244 0.839,6.676 1.171,8.225 c 0.351,1.639 0.998,4.154 0.998,4.154 Z"  fill="#FFCC4D"/>
	<path d="M 11.975,22.1 c 0.985,-0.986 2.408,-1.161 3.178,-0.391 c 0.769,0.77 0.594,2.192 -0.391,3.178 s -2.408,1.161 -3.178,0.391 c -0.769,-0.77 -0.594,-2.193 0.391,-3.178 Z"  fill="#F4900C"/>
	<path d="M 13.063,15.915 c 0,-1.134 0.646,-2.107 1.581,-2.603 c 0.054,0.174 0.105,0.344 0.162,0.523 c 0.381,1.204 0.689,2.878 2.253,3.441 c 0.322,0.116 0.832,0.201 1.422,0.272 c -0.529,0.797 -1.433,1.323 -2.462,1.323 c -1.632,0 -2.956,-1.323 -2.956,-2.956 Z"  fill="#F4900C"/>
	<path d="M 12.077,11.481 c 0,1.304 -1.017,2.36 -2.299,2.446 c -0.227,-1.768 -0.607,-3.527 -1.242,-4.653 c 0.327,-0.159 0.689,-0.257 1.077,-0.257 c 1.361,0 2.464,1.103 2.464,2.464 Z"  fill="#F4900C"/>
	<path d="M 10.984,7.402 c 0,-1.006 0.738,-1.835 1.699,-1.991 c 0.138,0.815 0.398,2.15 0.847,3.937 c -0.168,0.045 -0.341,0.077 -0.523,0.077 c -1.117,0 -2.023,-0.905 -2.023,-2.023 Z"  fill="#F4900C"/>
	<path d="M 19.961,19.858 c 0,-0.822 0.336,-1.563 0.874,-2.099 c 0.527,0.04 1.042,0.081 1.499,0.128 c 1.514,0.156 2.749,0.795 3.526,1.847 c 0.002,0.042 0.013,0.081 0.013,0.124 c 0,1.632 -1.323,2.956 -2.956,2.956 c -1.632,0 -2.956,-1.323 -2.956,-2.956 Z"  fill="#F4900C"/>
	<path d="M 11.598,2.613 c 0.505,-0.483 1.317,-1.089 1.778,-0.856 s 0.258,1.273 -1.166,2.151 c 0.113,-0.439 0.551,-1.215 -0.612,-1.295 Z"  fill="#F4900C"/>
	<!-- hooves -->
	<path d="M 21.047,33.545 c 0.313,-0.039 2.772,1.334 2.264,1.803 s -3.092,0.408 -3.249,-0.022 s 0.985,-1.781 0.985,-1.781 Z"  fill="#754C29"/>
	<path d="M 8.424,33.545 c 0.313,-0.039 2.772,1.334 2.264,1.803 s -3.093,0.408 -3.249,-0.022 c -0.157,-0.43 0.985,-1.781 0.985,-1.781 Z"  fill="#754C29"/>
	<path d="M 12.971,35.765 c -0.176,-0.505 0.527,-1.778 0.527,-1.778 s 3.117,0.527 2.678,1.317 s -3.069,0.852 -3.205,0.461 Z"  fill="#754C29"/>
	<path d="M 25.375,35.765 c -0.176,-0.505 0.527,-1.778 0.527,-1.778 s 3.117,0.527 2.678,1.317 s -3.069,0.852 -3.205,0.461 Z"  fill="#754C29"/>
	<!-- eye -->
	<circle fill="#292F33" cx="8.772" cy="4.09" r=".985"/>
</svg>
