<svg xmlns="http://www.w3.org/2000/svg" viewBox="0 0 36 36">
	<!-- maybe this one was scaled, somewhat? -->
	
	<path d="M 8.7771,4.4583 l 18.536,-0.021 l -2.188,27.563 h-14.333 l -2.015,-27.542 Z" id="path14" fill="#ccd6dd" />
	
	<path d="M 25,31.2813 l -14.094,0.156 l -1.018,-15.312 h16.246 l -1.134,15.156 Z" id="path18" fill="#ffffff" />
	<ellipse rx="7.827" ry="1.464" transform="translate(17.991,16.056)" fill="#e1e8ed"/>
	
	<path d="M 27.8438,4.3648 l -1.969,27.66 c -0.147,1.481 -0.806,1.975 -1.969,1.975 h-11.812 c -0.975,0 -1.803,-0.586 -1.969,-1.975 l -1.968,-27.66" id="path30" fill="none" stroke="#8899a6" stroke-width="2.35" stroke-linecap="round" />
	<path d="M 27.8438,4.3648 s -1.426,17.865 -1.753,22.097 c -0.277,3.581 -0.739,5.55 -5.463,5.55 h-2.628 h-2.628 c -4.724,0 -5.186,-1.969 -5.463,-5.55 c -0.327,-4.232 -1.753,-22.097 -1.753,-22.097" id="path38" fill="none" stroke="#8899a6" stroke-width="2" stroke-linecap="round" />
	<path d="M 25.208,33.375 h-14.167 v-1.833 h14.167 v1.833 Z"  id="path52" fill="#8899a6" />
	
	<path d="M 29,4.083 c 0,1.703 -2.73,3.083 -11,3.083 s -11,-1.38 -11,-3.083 s 2.73,-3.083 11,-3.083 s 11,1.38 11,3.083 Z"  fill="#CCD6DD" />
	
	<path d="M 27.1452,3.8519 a 1,1 0 01 1.112,1.663 c -2.571,1.717 -7.917,1.866 -9.688,1.866 c -0.29,0 -0.477,-0.004 -0.548,-0.006 c -0.071,0.002 -0.258,0.006 -0.547,0.006 c -1.771,0 -7.118,-0.149 -9.688,-1.866 a 1,1 0 01 1.111,-1.663 c 2.089,1.396 7.278,1.573 9.097,1.524 c 0.009,-0.001 0.016,0.004 0.025,0.004 c 0.01,0 0.019,-0.005 0.029,-0.004 c 1.823,0.047 7.011,-0.131 9.097,-1.524 Z"  id="path46" fill="#ffffff"/> <!-- nnnn -->
</svg>
