<svg xmlns="http://www.w3.org/2000/svg" viewBox="0 0 36 36">
	<path fill="#31373D" d="M 18,12.193 c 3.061,-0.12 3.141,-0.486 4.424,-0.63 c 6.434,-0.726 12.757,-0.153 13.264,0.369 c 0.253,0.261 0.253,2.077 0,2.337 c -0.254,0.261 -1.035,0.606 -1.403,1.827 c -0.238,0.787 -0.495,5.863 -2.282,7.377 c -1.767,1.498 -7.461,1.216 -9.326,0.262 c -2.535,-1.299 -2.891,-5.785 -3.292,-7.639 c -0.203,-0.939 -1.162,-1.016 -1.385,-1.016 s -1.182,0.077 -1.385,1.016 c -0.401,1.854 -0.757,6.34 -3.292,7.639 c -1.865,0.954 -7.558,1.236 -9.326,-0.262 c -1.786,-1.514 -2.044,-6.59 -2.282,-7.377 c -0.367,-1.221 -1.149,-1.566 -1.402,-1.827 c -0.253,-0.26 -0.253,-2.076 -0.001,-2.337 c 0.507,-0.522 6.83,-1.095 13.264,-0.369 c 1.283,0.144 1.363,0.51 4.424,0.63 Z" class="toodark"/>
	<path fill="#55ACEE" d="M 14.647,15.699 c -0.098,1.254 -0.521,4.966 -1.757,6.083 c -1.376,1.244 -6.251,1.568 -7.791,0.044 c -0.807,-0.798 -1.566,-4.018 -1.503,-6.815 c 0.038,-1.679 2.274,-2.021 5.462,-2.021 c 3.148,0 5.764,0.468 5.589,2.709 Z"/>
	<path fill="#55ACEE" d="M 21.354,15.699 c -0.176,-2.241 2.44,-2.709 5.588,-2.709 c 3.188,0 5.424,0.342 5.462,2.021 c 0.063,2.797 -0.696,6.017 -1.503,6.815 c -1.54,1.524 -6.414,1.2 -7.79,-0.044 c -1.236,-1.117 -1.659,-4.829 -1.757,-6.083 Z"/>
</svg>
