<svg xmlns="http://www.w3.org/2000/svg" viewBox="0 0 36 36">
	<defs>
		<clipPath id="earth">
			<circle r="18" cx="18" cy="18"/>
		</clipPath>
	</defs>
	
	<circle fill="#88C9F9" cx="18" cy="18" r="18"/>
	
	<path d="M 7.6875,1.875 c 2.325,0.436 3.438,0 4.312,0.312 s 0.063,0.75 0.688,1.125 s 0.812,0.313 1.312,0.125 s 0.875,-0.889 1.25,-0.625 s 1.688,0.029 2.001,0.5 s 0.75,0.842 1.437,0.5 s 3.313,-0.661 4,-0.236 s 2.437,0.5 3.125,0.612 s 2.437,0.17 2.187,0.46 s 0.688,0.102 0.188,0.79 s -2.438,2.124 -2.625,1.937 s -0.375,-1.063 -1,-1 s -1.5,-0.125 -1.562,0.625 s -1,1.687 -0.313,1.687 s 1.375,-0.687 1.562,0 s 0.063,1.063 -0.125,1.438 s 0.25,0.375 -0.749,0.625 s -0.563,-0.562 -1,0.25 s -1.438,1.063 -1.188,1.75 s 0.438,1.063 0.5,1.625 s -0.625,1.25 -1,1.75 s -0.812,1 -1.375,1.125 s -1,0.25 -1.312,1.062 s 0.341,2 -0.58,1.875 s -1.42,-0.687 -1.483,-1.125 s -1,-1.312 -1.063,-1.562 s -1.25,-1.125 -1.25,-1.125 s -0.75,0.75 -0.75,1.625 s 0.25,1.937 0.25,1.937 s -0.312,0.438 -0.937,-0.062 s -1.312,-0.625 -1.625,-1.313 s -0.687,-1.874 -0.687,-2.312 s -0.751,-1.375 -1.063,-1.375 s -1.875,0.188 -2,0.438 s -0.5,0.687 -0.812,1 s -1.188,1.437 -1.501,1.25 s -1.562,-0.875 -1.562,-1.5 s -0.875,-0.25 -0.937,-1.25 s -0.5,-1.875 -0.625,-0.938 s -0.063,1.25 0.312,2.375 s 0.625,1.5 1.188,1.75 s 0.25,0.687 1.187,0.562 s 1.5,-0.437 1.562,-0.062 s 0.563,1.08 -0.375,1.696 s -0.812,0.679 -1.375,1.241 s -1.124,0.375 -1.124,1.563 s 0,1.375 0.062,2.375 s 0.188,1.937 -0.687,2.437 s -3.751,-3 -4.001,-5 s -1.312,-8.687 -0.937,-10.249 s 2.375,-6.376 3.188,-7.313 s 5.312,-3.75 7.312,-3.375 Z M 15.9375,21.3125 s 0.75,0 0.625,0.937 s 0.437,0.313 1.438,1.126 s -0.251,0.875 -0.688,0.812 s -0.875,-0.062 -1.375,-0.75 s 0,-1.438 0,-2.125 Z M 22.9375,11.3125 s 0.75,0 0.625,0.937 s -0.875,0.688 0.125,1.501 s -0.875,1.062 -1.312,1 s 1.062,-0.625 0.562,-1.313 s 0,-1.438 0,-2.125 Z M 18.3784,22.25 c 0.437,-0.826 0.934,-0.812 1.434,-0.437 s 2,1.062 1.188,1.374 s -0.573,1 -1.193,0.313 s -1.926,-0.313 -1.429,-1.25 Z M 22.3125,22.7588 c 0.339,0.175 0.875,0.741 1.625,0.679 s 0.688,0.785 1.438,0.767 s 1.437,0.17 1.749,0.545 s 1.684,0.938 0.905,1 s -1.092,-0.5 -1.904,-0.75 s -0.875,0.438 -1.75,-0.062 s -1.813,0.222 -2.063,-0.733 s -0.737,-1.826 0,-1.446 Z M 15.7153,27.5 c 0.574,-0.558 0.972,-0.937 1.847,-1.375 s 2.375,-1.063 2.75,-1.125 s 0.813,-0.235 1.063,0.26 s 0.562,0.679 1.062,0.495 s 1.087,-0.076 1.462,0.24 s 1.288,0.88 1.601,1.505 s 0.937,0.5 0.75,1.25 s 0.062,1.938 -0.625,2.563 s -1.125,1.374 -1.875,1.749 s -2.73,-0.562 -2.73,-1.125 s -0.72,-1.025 -1.268,-1.525 s -0.874,-0.412 -1.374,-0.037 s -0.316,0.75 -0.941,0.875 s -2.289,1.437 -2.226,0.437 s 0.907,-2.75 0.504,-3.312 s -0.898,-0.001 0,-0.875 Z" clip-path="url(#earth)" fill="#5c913b"/>
</svg>
