<svg xmlns="http://www.w3.org/2000/svg" viewBox="0 0 36 36">
	<defs>
		<clipPath id="earth">
			<circle r="18" cx="18" cy="18"/>
		</clipPath>
	</defs>
	<circle fill="#88C9F9" cx="18" cy="18" r="18"/>
	
	<path d="M 27.9375,1.5625 c 5.5,2.25 8.313,11.125 8.063,12.313 s -0.626,1.687 -0.876,3.25 s -0.625,1.437 -1.125,0.562 s -1.75,-2.25 -2.374,-3 s -1.375,-1.062 -2.376,-1.25 s -2.249,0.625 -2.249,1.25 s 1.312,0.75 2.312,0.625 s 1.375,1.063 0.875,1.351 s -2.125,2.211 -2.875,1.961 s -1.25,-1.187 -1.625,-1.961 s -1.375,-2.413 -2.25,-2.163 s 1,2.625 1.437,3.874 s 2.188,1.5 3.063,1.313 s -0.312,1 -1.062,1.5 s -1.251,3 -1.876,4.125 s -1.999,4.187 -3.499,5.75 s -2.501,0.625 -2.501,-0.313 s -0.562,-1.687 -1.263,-3 s -1.424,-2.062 -0.987,-3.562 s 0.75,-2.063 0.313,-3 s -1.813,-1.125 -2.813,-0.313 s -4.187,1.688 -5.499,1.625 s -1.25,-2.25 -1.188,-4.187 s 3.375,-3.437 4.188,-3.743 s 1.187,-0.757 1.874,-1.194 s 3.25,0.375 4.375,0.937 s 3.626,0.125 5.063,-0.562 s 0.563,-2.313 -0.687,-2.625 s -0.25,-0.813 0.75,-1.438 s 0.25,-1.875 -0.625,-1.813 s -2,0.813 -2.063,1.813 s -1,1.25 -0.813,0.375 s 0.188,-1.375 -0.822,-1.563 s -3.428,1.313 -3.99,2.563 s -1.563,2.188 -2.875,1.438 s -3.25,-1.125 -1.687,-2 s 3.062,-0.938 2.124,-1.813 s -0.624,-1.688 0.75,-1.688 s 3.938,-0.375 6.313,-0.687 s 2.625,-1.125 1.625,-2.125 s -2.375,1.375 -4.375,1.437 s -1.625,-1.374 0,-2.937 s 4.125,-0.313 6,0.25 s 2.945,-2.318 5.25,-1.375 Z"  fill="#5c913b" clip-path="url(#earth)"/>
	
	<!--<path d="M 27.9375,1.5625 c 5.5,2.25 8.3125,11.125 8.0625,12.3125 c -0.25,1.1875 -0.625,1.6875 -0.875,3.25 c -0.25,1.5625 -0.625,1.4375 -1.125,0.5625 s -1.75,-2.25 -2.375,-3 c -0.625,-0.75 -1.375,-1.0625 -2.375,-1.25 c -1,-0.1875 -2.25,0.625 -2.25,1.25 s 1.3125,0.75 2.3125,0.625 s 1.375,1.0625 0.875,1.351 c -0.5,0.289 -2.125,2.211 -2.875,1.961 s -1.25,-1.1875 -1.625,-1.961 s -1.375,-2.413 -2.25,-2.163 s 1,2.625 1.4375,3.875 c 0.4375,1.25 2.1875,1.5 3.0625,1.3125 c 0.875,-0.1875 -0.3125,1 -1.0625,1.5 s -1.25,3 -1.875,4.125 s -2,4.1875 -3.5,5.75 c -1.5,1.5625 -2.5,0.625 -2.5,-0.3125 c 0,-0.9375 -0.5625,-1.6875 -1.263,-3 c -0.7,-1.3125 -1.424,-2.0625 -0.987,-3.5625 c 0.4375,-1.5 0.75,-2.0625 0.3125,-3 c -0.4375,-0.9375 -1.8125,-1.125 -2.8125,-0.3125 c -1,0.8125 -4.1875,1.6875 -5.5,1.625 c -1.3125,-0.0625 -1.25,-2.25 -1.1875,-4.1875 c 0.0625,-1.9375 3.375,-3.4375 4.1875,-3.743 c 0.8125,-0.305 1.1875,-0.757 1.875,-1.194 c 0.6875,-0.4375 3.25,0.375 4.375,0.9375 c 1.125,0.5625 3.625,0.125 5.0625,-0.5625 c 1.4375,-0.6875 0.5625,-2.3125 -0.6875,-2.625 c -1.25,-0.3125 -0.25,-0.8125 0.75,-1.4375 c 1,-0.625 0.25,-1.875 -0.625,-1.8125 c -0.875,0.0625 -2,0.8125 -2.0625,1.8125 c -0.0625,1 -1,1.25 -0.8125,0.375 c 0.1875,-0.875 0.1875,-1.375 -0.822,-1.5625 c -1.01,-0.1875 -3.428,1.3125 -3.99,2.5625 c -0.5625,1.25 -1.5625,2.1875 -2.875,1.4375 s -3.25,-1.125 -1.6875,-2 c 1.5625,-0.875 3.0625,-0.9375 2.125,-1.8125 c -0.9375,-0.875 -0.625,-1.6875 0.75,-1.6875 c 1.375,0 3.9375,-0.375 6.3125,-0.6875 c 2.375,-0.3125 2.625,-1.125 1.625,-2.125 s -2.375,1.375 -4.375,1.4375 c -2,0.0625 -1.625,-1.375 0,-2.9375 c 1.625,-1.5625 4.125,-0.3125 6,0.25 c 1.875,0.5625 2.945,-2.318 5.25,-1.375 Z" id="path34" style="fill:#5c913b;fill-opacity:1;fill-rule:nonzero;stroke:none"/>-->
</svg>
