<svg xmlns="http://www.w3.org/2000/svg" viewBox="0 0 36 36">
	<defs>
		<clipPath id="earth">
			<circle r="18" cx="18" cy="18"/>
		</clipPath>
	</defs>
	
	<circle fill="#88C9F9" cx="18" cy="18" r="18"/>
	
	<path d="M 3.6274,7.0479 c -0.451,-2.93 2.195,-4.156 3.607,-4.469 s 2.776,-0.621 2.933,0.005 s 0.311,1.461 1.173,1.148 s 3.043,-0.559 4.063,-1.342 s 2.244,-0.787 3.264,-0.473 s 3.877,0.227 3.25,1.167 s -1.825,0.827 -2.451,1.924 s 0.172,1.826 1.034,1.826 s 1.709,0.135 2.259,-0.727 s -0.382,-2.463 0.325,-2.357 s 1.477,0.866 2.03,2.043 s 1.408,0.47 1.723,1.176 s 2.04,2.039 1.177,1.804 s -1.726,-0.392 -1.961,0.47 s 0.389,1.726 -0.236,1.647 s -0.861,0.089 -1.725,0.004 s -1.333,-0.631 -2.039,0.545 s -1.254,1.961 -1.567,2.509 s -0.785,0.861 -0.55,1.96 s -0.628,0.785 -0.628,-0.156 s -0.548,-1.098 -1.253,-0.942 s -1.803,0.313 -1.724,1.098 s -0.315,1.725 0.313,2.352 s 1.33,-0.076 1.723,0.158 s 1.525,0.023 1.133,0.416 s -1.76,0.881 -0.976,1.509 s 1.578,0.829 1.893,0.907 s 0.062,-0.774 1.083,-1.166 s 2.608,-1.29 3,-0.584 s 0.338,0.595 1.75,0.75 s 1.79,0.585 2.417,1.917 s 0.446,1.192 1.462,1.581 s 1.678,0.222 0.737,1.086 s -1.651,0.814 -2.199,1.833 s -0.153,1.731 -1.25,2.75 s -2.242,1.876 -3.417,2.583 c -0.618,0.37 -2.162,2.07 -3.083,2.667 c -0.834,0.541 -1.083,0 -1.083,0 s 0.256,-1.667 0.964,-2.372 s 1.105,-3.344 0.869,-4.128 s -1.36,-1.02 -1.75,-1.333 s -1.417,-1.548 -1.417,-2.334 s 1.71,-2.809 1.71,-2.809 c 0.218,1.088 -1.039,-0.329 -1.627,-0.524 c -0.47,-0.157 -1.542,-1.656 -2.459,-1.814 s -1.363,-0.7 -2.068,-1.25 s -2.431,-1.332 -2.353,-2.195 s -1.725,-1.568 -2.038,-1.568 s -1.019,0 -1.647,-1.098 s -1.725,-2.196 -1.411,-2.979 s 0.392,-1.727 0.234,-2.589 s -1.332,-1.176 -1.567,-0.941 s -1.489,1.335 -1.647,0.315 Z" fill="#5c913b" clip-path="url(#earth)"/>	
</svg>
