<svg xmlns="http://www.w3.org/2000/svg" viewBox="0 0 36 36">
	<path d="M 2,13 l 6,-3 h 20 l 6,3" stroke-width="2" fill="none" stroke="#CCD6DD"/>
	<path d="M 2,17 l 6,-3 h 20 l 6,3" stroke-width="2" fill="none" stroke="#CCD6DD"/>
	<path d="M 2,21 l 6,-3 h 20 l 6,3" stroke-width="2" fill="none" stroke="#CCD6DD"/>
	<path d="M 2,25 l 6,-3 h 20 l 6,3" stroke-width="2" fill="none" stroke="#CCD6DD"/>
	<path d="M 2,29 l 6,-3 h 20 l 6,3" stroke-width="2" fill="none" stroke="#CCD6DD"/>
	
	<path d="M 5,7 v23.5" stroke-linecap="round" stroke-width="2" fill="none" stroke="#CCD6DD"/>
	<path d="M 31,7 v23.5" stroke-linecap="round" stroke-width="2" fill="none" stroke="#CCD6DD"/>
	
	<path d="M 12,6 v24" stroke-linecap="round" stroke-width="2" fill="none" stroke="#CCD6DD"/>
	<path d="M 16,6 v24" stroke-linecap="round" stroke-width="2" fill="none" stroke="#CCD6DD"/>
	<path d="M 20,6 v24" stroke-linecap="round" stroke-width="2" fill="none" stroke="#CCD6DD"/>
	<path d="M 24,6 v24" stroke-linecap="round" stroke-width="2" fill="none" stroke="#CCD6DD"/>
	
	<path d="M 8,6 v24" stroke-linecap="round" stroke-width="2" fill="none" stroke="#8C989F"/>
	<path d="M 28,6 v24" stroke-linecap="round" stroke-width="2" fill="none" stroke="#8C989F"/>
	
	<path d="M 2,33 a 6.5,6.5 0 01 5.5,-3 h 21 a 6.5,6.5 0 01 5.5,3" stroke-linecap="round" stroke-width="2" fill="none" stroke="#8C989F"/>
	
	<path d="M 2,33 v-21 a 6,6 0 01 6,-6 h20 a 6,6 0 01 6,6 v21" stroke-linecap="round" stroke-width="2.5" fill="none" stroke="#BE2032"/>
</svg>
