<svg xmlns="http://www.w3.org/2000/svg" viewBox="0 0 36 36">
	<path d="M 33.553,17.894 l 0.895,-1.789 l -2.448,-1.224 v-1.764 l 1.553,0.776 l 0.895,-1.788 l -2.448,-1.224 v-3.881 h-2 v2.881 l -1.553,-0.776 l -1.447,-0.105 h-2 v-3 h-2 v3 h-2 v-3 h-2 v3 h-2 v-3 h-2 v3 h-2 v-3 h-2 v3
h-2 l -1.447,0.106 l -1.553,0.776

v-2.882 h-2 v3.882 l -2.447,1.224 l 0.894,1.789 l 1.553,-0.777 v1.764 l -2.447,1.224 l 0.894,1.789 l 1.553,-0.777 v1.764 l -2.447,1.224 l 0.894,1.789 l 1.553,-0.777 v1.764 l -2.447,1.224 l 0.894,1.789 l 1.553,-0.777 v1.764 l -2.447,1.224 l 0.894,1.789 l 1.553,-0.777 v0.882 h2 v-1.882 l 2.236,-1.118 h2.764 v1.865 a 1 1 0 00 2,0 v-1.865 h2 v2 h2 v-2 h2 v2 h2 v-2 h2 v2 h2 v-2 h2.765 l 2.235,1.117 v1.883 h2 v-0.883 l 1.553,0.776 l 0.895,-1.79 l -2.448,-1.222 v-1.764 l 1.553,0.776 l 0.895,-1.79 l -2.448,-1.222 v-1.764 l 1.553,0.776 l 0.895,-1.79 l -2.448,-1.222 v-1.763 l 1.553,0.776 Z M 11,25 h-2 l -1.447,0.106 l -1.553,0.776 v-1.764 l 2.236,-1.118 h2.764 v2 Z M 11,21 h-2 l -1.447,0.106 l -1.553,0.776 v-1.764 l 2.236,-1.118 h2.764 v2 Z M 11,17 h-2 l -1.447,0.106 l -1.553,0.776 v-1.764 l 2.236,-1.118 h2.764 v2 Z M 11,13 h-2 l -1.447,0.106 l -1.553,0.776 v-1.764 l 2.236,-1.118 h2.764 v2 Z M 15,25 h-2 v-2 h2 v2 Z M 15,21 h-2 v-2 h2 v2 Z M 15,17 h-2 v-2 h2 v2 Z M 15,13 h-2 v-2 h2 v2 Z M 19,25 h-2 v-2 h2 v2 Z M 19,21 h-2 v-2 h2 v2 Z M 19,17 h-2 v-2 h2 v2 Z M 19,13 h-2 v-2 h2 v2 Z M 23,25 h-2 v-2 h2 v2 Z M 23,21 h-2 v-2 h2 v2 Z M 23,17 h-2 v-2 h2 v2 Z M 23,13 h-2 v-2 h2 v2 Z M 30,25.881 l -1.553,-0.776 l -1.447,-0.105 h-2 v-2 h2.765 l 2.235,1.117 v1.764 Z M 30,21.881 l -1.553,-0.776 l -1.447,-0.105 h-2 v-2 h2.764 l 2.236,1.117 v1.764 Z M 30,17.881 l -1.553,-0.776 l -1.447,-0.105 h-2 v-2 h2.764 l 2.236,1.118 v1.763 Z M 30,13.881 l -1.553,-0.776 l -1.447,-0.105 h-2 v-2 h2.764 l 2.236,1.118 v1.763 Z" fill="#CCD6DD" />
	
	<!--<path d="M 2,13 l 6,-3 h 20 l 6,3" stroke-width="2" fill="none" stroke="#CCD6DD"/>-->
	
	<path d="M 2.832,33.555 a 1.00012,1.00012 0 01 -1.664,-1.11 c 1.465,-2.194 3.785,-3.446 6.379,-3.446 l 0.114,0.001 h20.691 c 2.604,-0.06 4.994,1.218 6.479,3.444 a 1.00012,1.00012 0 01 -1.664,1.11 c -1.117,-1.675 -2.784,-2.612 -4.802,-2.554 h-20.718 c -1.99,-0.014 -3.697,0.879 -4.815,2.555 Z"   fill="#8C989F"/>
	<rect x="27" y="5.324" width="2" height="24.676" rx="1"  fill="#8C989F"/>
	<rect x="7" y="5.028" width="2" height="24.837" rx="1"  fill="#8C989F"/>
	<path d="M 34,34.25 a 1.25,1.25 0 01 -1.25,-1.25 v-21 a 4.75,4.75 0 00 -4.75,-4.75 h-20 a 4.75,4.75 0 00 -4.75,4.75 v21 a 1.25,1.25 0 01 -1.25,1.25 a 1.25,1.25 0 01 -1.25,-1.25 v-21 a 7.25,7.25 0 01 7.25,-7.25 h20 a 7.25,7.25 0 01 7.25,7.25 v21 a 1.25,1.25 0 01 -1.25,1.25 Z"   fill="#BE2032"/>
</svg>
