<svg xmlns="http://www.w3.org/2000/svg" viewBox="0 0 36 36">
	<path d="M 7.44,7.503 c -1,-4 3.687,-6 8,-4 c 0.907,0.421 0.948,1.316 0,1 c -3,-1 -6,1 -4,4 c 1.109,1.664 -3.233,2.068 -4,-1 Z" fill="#FFAC33"/>
	<path d="M 6.136,5.785 c -1,-4 3.687,-6 8,-4 c 0.907,0.421 0.949,1.316 0,1 c -3,-1 -6,1 -4,4 c 1.11,1.664 -3.233,2.067 -4,-1 Z" fill="#FFCC4D"/>
	<path d="M 5,14.785 c 0,4 -2,4.827 -2,4 c 0,-2 -1,0 -1,-1 v-3 a 1.5,3 0 01 3,0 Z" fill="#E1E8ED"/>
	<path d="M 35.159,10.49 c 0.736,1.776 0.207,3.808 -1.407,5.452 c 0.162,0.613 0.248,1.238 0.248,1.843 c 0,1.725 -0.684,3.441 -2.005,4.882 c -0.061,4.302 -1.152,13.12 -2.494,13.12 c -1.06,0 -1.382,-5.013 -2.83,-10.058 c -3.07,0.932 -6.551,1.259 -9.677,0.61 c 0.003,0.148 0.007,0.296 0.007,0.447 c 0,4.143 -1.119,9 -2.5,9 s -1.5,-8.5 -4.5,-14.5 c -0.127,-0.254 -0.216,-0.478 -0.282,-0.683 c -0.818,-1.396 -1.535,-2.9 -2.232,-4.33 c -1.748,-0.059 -7.486,-0.444 -7.486,-2.988 c 0,-4.171 6,-9.157 10,-9.157 c 3,0 5,5.157 7,8.157 c 0.067,0.101 0.12,0.195 0.172,0.289 c 3.549,-0.575 8.437,-1.289 10.828,-1.289 c 2.254,0 3.872,1.112 4.856,2.618 c 0.623,-0.889 0.796,-1.823 0.455,-2.647 c -0.371,-0.894 -1.278,-1.471 -2.312,-1.471 a 1,1 0 01 0,-2 c 1.846,0 3.479,1.062 4.159,2.705 Z" fill="#CCD6DD"/>
	<!-- so i know the body is made from components (head, neck, legs, body) but figuring them out would be near impossible... -->
	<circle fill="#292F33" cx="7" cy="9.285" r="1"/>
</svg>
