<svg xmlns="http://www.w3.org/2000/svg" viewBox="0 0 36 36">
	<g fill="#9AAAB4">
		<path d="M 18,9 v11.757 c -3,0 -1.067,5.181 -6,5.999 c -1.781,0.295 -3.931,0.355 -6,0 c -3.253,-0.559 -4.824,-3.027 -5.042,-7.682 c -0.281,-5.993 1.276,-8.846 5.318,-9.532 c 3.118,-0.53 7.724,-0.542 11.724,-0.542 Z"/>
		<path d="M 17.9258,9 c 4,0 8.606,0.012 11.724,0.542 c 4.043,0.686 5.599,3.539 5.318,9.532 c -0.218,4.655 -1.789,7.123 -5.042,7.682 c -2.069,0.355 -4.219,0.295 -6,0 c -4.933,-0.818 -3,-5.999 -6,-5.999 v-11.757 Z"/>
	</g>
	<!--
		not visible behind other layers
		<rect x="0" y="15" width="3" height="6" rx="1.5"  fill="#9AAAB4"/>
		<rect x="33" y="15" width="3" height="6" rx="1.5"  fill="#9AAAB4"/>
	-->
	<rect x="33" y="14" width="3" height="8" rx="1.5" fill="#9AAAB4"/>
	<rect x="0" y="14" width="3" height="8" rx="1.5" fill="#9AAAB4"/>
	<g fill="#CCD6DD">
		<path d="M 18,11 v7.757 c -4,0 -2.615,5.395 -7,6 c -1.583,0.218 -2.161,0.262 -4,0 c -2.892,-0.413 -3.922,-2.556 -4.169,-5.891 c -0.325,-4.394 1.266,-6.959 4.859,-7.466 c 2.771,-0.391 6.754,-0.4 10.31,-0.4 Z"/>
		<path d="M 18,11 c 3.556,0 7.539,0.009 10.31,0.4 c 3.593,0.507 5.184,3.072 4.859,7.466 c -0.247,3.335 -1.277,5.478 -4.169,5.891 c -1.839,0.262 -2.417,0.218 -4,0 c -4.385,-0.605 -3,-6 -7,-6 v-7.757 Z"/>
	</g>
	<g fill="#E1E8ED">
		todo: clip path these
		<path d="M 26.9932,11.2524 l -4.448,12.22 c -0.573,-0.651 -0.946,-1.451 -1.323,-2.212 l 3.694,-10.151 c 0.726,0.036 1.422,0.082 2.077,0.143 Z"/>
		<path d="M 18,11 c 1.435,0 2.937,0.003 4.402,0.03 l -2.936,8.069 c -0.396,-0.21 -0.864,-0.343 -1.466,-0.343 c -3.992,0 -2.623,5.374 -6.976,5.995 l 5.003,-13.747 c 0.665,-0.003 1.327,-0.004 1.973,-0.004 Z"/>
	</g>
	<path fill="#292F33" d="M 35,16 a 1,1 0 01 1,1 v2 a 1,1 0 01 -1,1 h-1 v-1 v-2 v-1 h1 Z"/>
	<path fill="#292F33" d="M 1,16 h1 v1 v2 v1 h-1 a 1,1 0 01 -1,-1 v-2 a 1,1 0 01 1,-1 Z"/>
</svg>
