<svg xmlns="http://www.w3.org/2000/svg" viewBox="0 0 36 36">
	recolored. twemoji does not use yellowish gray ! come on!!
	<path d="M 20.466,33.256 l -0.251,1.861 a 1.004,1.004 0 11 -1.953,-0.432 l 0.174,-0.558 l -0.868,0.696 c -1.123,0.853 -2.334,-0.894 -1.137,-1.645 l 1.953,-1.153 a 0.857,0.857 0 00 0.377,-1.008 l -1.188,-3.582 c -0.197,-0.591 0.681,-0.931 0.933,-0.361 l 1.586,3.569 a 4.84,4.84 0 01 0.374,2.613 Z" fill="#FFAC33"/>
	<path d="M 15.533,25.173 l 0.989,4.794 a 2.9,2.9 0 01 -0.814,2.658 l -1.749,1.708 a 1.003,1.003 0 01 -1.418,-0.01 a 1.01,1.01 0 01 0.116,-1.509 l 0.099,-0.074 l -1.148,0.255 c -0.54,0.119 -1.075,-0.221 -1.195,-0.761 a 1.007,1.007 0 01 0.867,-1.212 l 2.967,-0.33 a 0.93,0.93 0 00 0.823,-1.039 l -0.524,-4.319 c -0.076,-0.622 0.86,-0.776 0.987,-0.161 Z" fill="#FFAC33"/>
	<path d="M 6.391,3.366 a 3.968,3.968 0 01 0.961,1.489 l 0.16,0.755 l -6.731,-1.122 c 0,-0.962 2.19,-1.557 3.367,-2.565 c 0.627,-0.537 1.397,-1.068 2.265,-1.438 c -0.027,0.041 -1.131,1.772 -0.022,2.881 Z" fill="#F4900C"/>
	<path d="M 14,15 c 9,1 13,5 19,6 c -1,3 -5.136,0.273 -8,6 c -1,2 -7,2 -10,2 c -2,0 -10,-6.641 -10,-10 c 0,-4 3.634,-4.416 3.634,-10.024 c 0,-2.244 -1.122,-3.366 -1.122,-3.366 s -0.004,-0.306 -0.161,-0.754 c -0.146,-0.415 -0.422,-0.951 -0.961,-1.49 c -1.108,-1.109 -0.004,-2.841 0.022,-2.881 l 0.006,-0.003 c 0.683,-0.29 1.425,-0.482 2.216,-0.482 c 2.244,0 4.488,1.923 4.488,6.731 c 0,5.61 0.878,8.269 0.878,8.269 Z" fill="#CCD6DD"/>
	<path d="M 25.008,25.256 c -2.007,1.379 -5.244,1.708 -7.458,0.33 c -1.347,-0.751 -2.307,-1.406 -3.728,-1.778 c -1.4,-0.348 -2.752,-0.997 -3.52,-2.291 c -1.026,-1.496 -0.043,-3.516 1.588,-3.736 c 0.27,-0.095 0.458,0.258 0.215,0.411 c -2.44,1.765 0.108,3.564 2.162,3.765 c 2.314,0.312 4.162,2.349 6.222,2.902 c 1.399,0.308 2.921,0.179 4.418,-0.055 c 0.275,-0.041 0.364,0.355 0.101,0.452 Z" fill="#AAB8C2"/>
	<circle cx="8.5" cy="1.5" r=".881" fill="#292F33"/>
</svg>
