<svg xmlns="http://www.w3.org/2000/svg" viewBox="0 0 36 36">
	<path d="M 5,16 l -1,6 s -2,-1 -3,-5 s 4,-5 4,-1 Z" fill="#31373D"/>
	<path d="M 31,16 c 0,-4 5,-3 4,1 s -3,5 -3,5 l -1,-6 Z" fill="#31373D"/>
	<path d="M 18,0.323 c 9.959,0 14.65,10.52 14.65,21.413 s -4.691,14.087 -14.65,14.087 s -14.651,-3.194 -14.651,-14.087 s 4.692,-21.413 14.651,-21.413 Z" fill="#31373D"/>
	<path d="M 4.2534,16.625 c 1.403,-1.225 -1.078,-3.766 -2.196,-2.544 c -0.341,0.372 0.922,-0.188 1.337,1.086 c 0.306,0.942 0,2.208 0.859,1.458 Z" fill="#66757f"/>
	<path d="M 31.7461,16.625 c 0.859,0.75 0.553,-0.516 0.859,-1.458 c 0.416,-1.274 1.678,-0.714 1.337,-1.086 c -1.118,-1.222 -3.598,1.319 -2.196,2.544 Z" fill="#66757f"/>
	<path d="M 18,34.823 c -0.834,0 -14.496,-0.622 -9.568,-11.823 c -1.49,-4.458 -2.088,-7.312 0.444,-7.312 h18.248 c 2.531,0 1.933,2.854 0.443,7.312 c 4.735,10.764 -8.733,11.823 -9.567,11.823 Z" fill="#66757f"/>
	
	<path d="M 11,18.0029 c 0,-1.105 0.895,-1 2,-1 s 2,-0.105 2,1 a 2,2 0 01 -4,0 Z" fill="#31373D"/>
	<path d="M 21,18.0029 c 0,-1.105 0.895,-1 2,-1 s 2,-0.105 2,1 a 2,2 0 01 -4,0 Z" fill="#31373D"/>
	
	<path d="M 18,30.6175 c -3.631,0 -5.625,-0.273 -6.835,-0.596 c -3.205,-0.854 -1.923,-1.735 0,-1.477 c 1.921,0.259 3.63,0.415 6.835,0.415 s 4.914,-0.156 6.835,-0.415 c 1.923,-0.258 3.205,0.623 0,1.477 c -1.21,0.323 -3.204,0.596 -6.835,0.596 Z" fill="#31373D"/>
	
	<ellipse rx="1.428" ry="1" transform="translate(15.572,23.6553)" fill="#31373D"/>
	<ellipse rx="1.428" ry="1" transform="translate(20.4284,23.6553)" fill="#31373D"/>
	<path d="M 18,21.874 s 1.055,-1.094 3.02,-0.834 c 3.158,0.417 3.286,3.287 1.941,3.105 c -0.767,-0.103 -0.135,-0.938 -1.714,-1.555 s -3.247,0.659 -3.247,0.659 s -1.667,-1.276 -3.246,-0.659 s -0.947,1.452 -1.713,1.555 c -1.346,0.182 -1.217,-2.688 1.939,-3.105 c 1.965,-0.26 3.02,0.834 3.02,0.834 Z" fill="#99aab5"/>
</svg>
