<svg xmlns="http://www.w3.org/2000/svg" viewBox="0 0 36 36">
	todo: all the crescent shapes are squished circles but they're stretched weirdly..
	
	bowl
	<g>
		<path d="M 18,35 c -14.958,0 -17,-14 -17,-18 h34 c 0,2 -1.958,18 -17,18 Z" fill="#ccd6dd"/>
		<path d="M 35,17.0557 a 17,9.444 0 01 -34,0 c 0,-5.216 7.611,-8.444 17,-8.444 s 17,3.228 17,8.444 Z" fill="#66757f"/>
	</g>
	lettuce
	<g>
		<path d="M 2.708,18.875 c -0.808,-1.161 -2.333,-3.5 -0.708,-7 c 0.708,-1.833 2.179,-3.027 2.375,-2.458 c 0.458,1.333 1.375,2.5 2.75,2.375 c -0.018,0.473 -0.669,-4.309 1.625,-5.584 c 1.125,-0.625 2.333,0.375 3.708,2.584 c 2.202,3.536 7.811,1.884 9.385,0.958 c 1.594,-0.938 2.991,-1.552 2.574,-4.063 c -0.092,-0.55 0.743,-1.029 1.594,-0.573 c 1.431,0.766 3.498,2.671 3.864,4.761 c 1.02,0.271 1.786,-0.163 2.375,-1.354 c 0.292,-0.59 1.292,-0.729 1.719,0.041 c 0.754,1.356 1.992,5.526 0.24,9.105 c -2,4.083 -5.042,6.25 -11.875,7.125 c -6.834,0.875 -15.626,-0.167 -19.626,-5.917 Z" fill="#77b255"/>
	</g>
	cucumber
	<g>
		<ellipse rx="4.042" ry="3.813" cx="15.375" cy="10.146" fill="#5c913b"/>
		<ellipse rx="3.042" ry="2.8695" cx="15.375" cy="10.146" fill="#c6e5b3"/>
	</g>
	olives
	<ellipse rx="2.292" ry="2" cx="8.167" cy="14.5" fill="#292f33"/>
	<ellipse rx="2.292" ry="2" cx="24.167" cy="12.5" fill="#292f33"/>
	onion
	<g>
		<path d="M 29.1172,20.1289 c -1.564,1.48 -1.178,-1.412 -2.734,-3.056 c -1.558,-1.644 -4.466,-1.415 -2.904,-2.896 c 1.564,-1.482 4.094,-1.349 5.651,0.294 c 1.556,1.643 1.55,4.177 -0.013,5.658 Z" fill="#9266cc"/>
		<path d="M 28.1172,21.1289 c -1.564,1.48 -1.178,-1.412 -2.734,-3.057 c -1.558,-1.643 -4.466,-1.414 -2.904,-2.895 c 1.564,-1.482 4.094,-1.349 5.651,0.294 c 1.556,1.643 1.55,4.177 -0.013,5.658 Z" fill="#e1e8ed"/>
	</g>
	tomatoes
	<path d="M 17.5244,15.1821 c 1.267,2.388 -2.104,0.951 -4.614,2.284 c -2.51,1.332 -3.209,4.928 -4.477,2.541 c -1.267,-2.388 -0.26,-5.405 2.25,-6.737 s 5.573,-0.476 6.841,1.912 Z" fill="#dd2e44"/>
	<g>
		<path d="M 24.0127,19.9277 c 0.781,2.063 -1.798,0.555 -3.966,1.377 c -2.166,0.821 -3.099,3.658 -3.881,1.597 c -0.781,-2.06 0.343,-4.398 2.509,-5.219 c 2.167,-0.821 4.557,0.185 5.338,2.245 Z" fill="#dd2e44"/>
		<path d="M 8.9585,19.084 c -0.167,-1.542 2.834,-8.418 8.167,-2.417 c -1.25,0.208 -4.292,0.208 -5.667,2.125 c -1.375,1.916 -2.625,0.208 -2.5,0.292 Z" fill="#ea596e"/>
	</g>
	lettuce 2
	<g>
		<path d="M 4.917,19.709 c -0.728,-0.971 1.75,-3.209 3.625,-1.293 c 0.792,-0.958 4.708,-2.874 6.167,1.293 c 0.666,-0.75 6.125,-0.917 6.208,3.708 c 0.041,0.625 -6.295,0.506 -9.542,-0.25 c -1.791,-0.417 -5.083,-1.625 -6.458,-3.458 Z" fill="#a6d388"/>
		<path d="M 26,22.458 c 7.708,-2.084 7.75,-6.958 7.667,-7.916 c -2.292,-0.584 -3.083,2.708 -3.208,3.708 c -3.666,-0.917 -5.626,4.523 -4.459,4.208 Z" fill="#a6d388"/>
	</g>
</svg>
