<svg xmlns="http://www.w3.org/2000/svg" viewBox="0 0 36 36">
	<path d="M 18,6.094 a 9.868,9.868 0 01 8.017,-4.129 a 9.868,9.868 0 01 9.868,9.868 c 0,0.772 -0.098,1.52 -0.268,2.241 c -1.369,8.512 -10.834,17.494 -17.617,19.96 c -6.783,-2.466 -16.248,-11.448 -17.619,-19.96 c -0.168,-0.721 -0.266,-1.469 -0.266,-2.241 a 9.868,9.868 0 01 9.868,-9.868 a 9.868,9.868 0 01 8.017,4.129 Z" fill="#F4ABBA"/>
	<path d="M 31.423,13.372 c 0,0.579 -0.073,1.141 -0.2,1.682 c -1.028,6.388 -8.132,13.129 -13.223,14.98 c -5.092,-1.85 -12.195,-8.592 -13.224,-14.981 c -0.125,-0.54 -0.199,-1.102 -0.199,-1.681 a 7.406,7.406 0 01 7.406,-7.406 c 2.482,0 4.673,1.225 6.017,3.099 c 1.345,-1.874 3.536,-3.099 6.018,-3.099 a 7.405,7.406 0 01 7.405,7.406 Z" fill="#EA596E"/>
	<path d="M 27.191,14.831 c 0,0.396 -0.049,0.781 -0.137,1.151 c -0.703,4.375 -5.57,8.991 -9.055,10.259 c -3.487,-1.267 -8.351,-5.883 -9.056,-10.259 c -0.086,-0.37 -0.136,-0.754 -0.136,-1.151 a 5.072,5.072 0 01 5.072,-5.072 c 1.7,0 3.201,0.839 4.121,2.123 c 0.921,-1.284 2.421,-2.123 4.121,-2.123 a 5.07,5.072 0 01 5.07,5.072 Z" fill="#DD2E44"/>
</svg>
