<svg xmlns="http://www.w3.org/2000/svg" viewBox="0 0 36 36">
	<path d="M 10.3213 -14.0654 m 0,36 s 4.598,0.348 4.28,5.119 c -0.319,4.772 -1.529,8.209 -2.212,8.209 h-2.902 c -0.384,0 -0.544,-2.064 1.268,-2.064 c 0.033,-0.885 0.182,-1.964 0.243,-3.022 c 0.339,-5.889 -0.677,-8.242 -0.677,-8.242 Z" fill="rgb(193,105,79)"/>
	<path d="M 22.2109 -14.3955 m 0,36 s 5.836,1.709 6.722,5.96 c 0.884,4.252 0.745,7.694 -0.207,7.694 h-2.646 c -0.552,0 -1.159,-2.047 0.731,-2.047 c -0.18,-0.962 -0.693,-4.032 -0.95,-5.195 c -3.075,-2.885 -3.65,-6.412 -3.65,-6.412 Z" fill="rgb(193,105,79)"/>
	
	<path d="M 33.4258 -18.5283 m 0,36 c 0.941,2.443 2.837,7.954 2.325,11.488 c 0,0 -2.903,-1.617 -3.348,-7.348 c -0.369,-4.731 -1.164,-7.396 -1.164,-7.396 s 1.51,1.502 2.187,3.256 Z" fill="rgb(217,158,130)"/>
	
	<path d="M 32.2021 -20.3457 m 0,36 c 1.254,3.752 -0.608,9.1 0.474,11.171 c 0.945,1.808 3.192,8.713 2.083,8.713 c -0.279,0 -2.416,0 -3.498,0.043 c -0.183,-0.39 -0.694,-1.603 0.909,-2.122 c -0.124,-1.114 -1.569,-3.717 -2.002,-4.496 c -0.699,-1.259 -3.822,-1.933 -4.851,-4.893 c -0.97,0.426 -4.034,1.806 -8.798,1.762 c 1.126,3.811 1.748,9.788 0.934,9.788 c -0.684,0 -3.835,0.043 -3.835,0.043 s -0.912,-1.702 1.34,-2.179 c -0.414,-1.859 -1.47,-5.516 -2.25,-8.475 c -2.683,-1.432 -3.268,-5.63 -3.422,-7.102 c -0.412,-3.949 -0.945,-4.855 -2.837,-5.018 c -3.33,-0.288 -5.364,-1.426 -5.051,-4.821 c 0.259,-2.808 2.94,0.215 4.917,-2.822 c 0.352,-0.542 0.975,-1.579 1.754,-1.872 c 3.253,-1.226 6.496,0.603 6.496,4.229 c 0,0.833 0.586,5.675 3.641,5.286 c 6.782,-0.863 12.743,-0.986 13.996,2.765 Z" fill="rgb(217,158,130)"/>
	
	<path d="M 16.2656 -11.5361 m 0,36 c 4.333,0.274 5.487,-1.374 8.881,-1.931 c -0.059,0.268 -0.044,0.757 0.171,1.537 c -0.971,0.426 -4.034,1.806 -8.799,1.762 c -0.112,-0.477 -0.21,-0.997 -0.253,-1.368 Z" fill="rgb(244,199,181)"/>
	<path d="M 6.4492 -23.1108 m 0,36 c 1.892,0.164 2.425,1.069 2.837,5.018 c 0.154,1.472 0.739,5.67 3.422,7.103 c -0.72,-2.789 -1.959,-12.389 -6.259,-12.121 Z" fill="rgb(244,199,181)"/>
	
	<circle cx="3.053" cy="10.503" r="0.488" fill="rgb(193,105,79)"/>
	<circle cx="3.695" cy=" 9.804" r="0.269" fill="rgb(193,105,79)"/>
	<circle cx="4.099" cy="10.503" r="0.269" fill="rgb(193,105,79)"/>
	
	<circle cx="8.070" cy="6.675" r="0.928" fill="rgb(41,47,51)"/>
	
	<path d="M 2.5029 -27.6738 m 0,36 c -0.109,0.761 -0.494,1.192 -0.879,1.133 c -0.76,-0.117 -1.392,-1.087 -1.392,-1.856 s 0.624,-0.964 1.392,-0.928 c 1.043,0.048 1.002,0.788 0.879,1.651 Z" fill="rgb(39,43,43)"/>
	
	<path d="M 8.3789 -21.8306 m 0,36 c 1.045,-0.392 4.858,-0.33 7.396,-2.232 c 0.558,-0.419 1.442,0.866 1.046,1.116 c -3.21,2.023 -7.042,2.267 -7.884,2.372 c -0.558,0.07 -1.116,-1.047 -0.558,-1.256 Z" fill="rgb(41,47,51)"/> <!-- a -->
	
	<path d="M 9.3906 -17.4697 m 0,36 c 0.872,0.104 2.605,-0.142 3.384,-0.314 c 0.778,-0.173 9.139,-2.651 9.139,-2.651 l 0.418,1.395 s -8.623,2.671 -9.488,2.93 c -0.865,0.26 -2.93,1.291 -2.93,1.291 s -0.351,-0.566 -0.523,-1.221 c -0.174,-0.662 0,-1.43 0,-1.43 Z" fill="rgb(55,119,0)"/>
	<path d="M 18.6357 -16.9873 m 0,36 l 1.604,-0.488 s 1.465,4.395 0.977,6.976 l -1.745,0.215 s 0.126,-1.56 -0.139,-3.215 c -0.278,-1.744 -0.697,-3.488 -0.697,-3.488 Z" fill="rgb(55,119,0)"/>
	
	<path d="M 18.2061 -23.1108 m 0,36 s 0.638,-0.185 1.754,-0.464 s 2.163,0 2.163,0 s 1.535,5.163 0.349,6.001 c -1.186,0.837 -4.465,1.116 -5.093,1.255 s -1.465,-0.837 -1.465,-2.023 s 1.395,-1.256 2.162,-2.093 c 0.768,-0.838 0.13,-2.676 0.13,-2.676 Z" fill="rgb(72,156,0)"/>
		
	<path d="M 15.1665 -26.5054 m 0,36 c 0.348,2.515 -1.157,2.898 -2.383,2.898 s -3.054,-1.251 -2.748,-3.77 c 0.134,-1.108 0.555,-2.193 0.809,-3.176 c 0.335,-1.303 1.199,-1.732 1.893,-1.367 c 1.666,0.874 2.205,3.797 2.429,5.415 Z" fill="rgb(102,33,19)"/>
	
	<path d="M 20.6924 -19.1455 m 0,36 c -0.496,0.126 -0.996,-0.188 -1.085,-0.693 c -0.202,-1.138 -0.394,-3.119 0.542,-3.828 c 1.344,-1.02 8.617,-4.4 9.314,-4.68 c 0.677,-0.273 0.577,-1.027 0.888,-2.075 c 0.258,-0.87 1.985,-0.913 1.563,0.481 c -0.463,1.536 -0.594,2.318 -1.312,2.624 c -1.596,0.678 -7.833,3.833 -9.032,4.449 c -0.455,0.234 -0.328,1.803 -0.204,2.76 c 0.056,0.436 -0.224,0.846 -0.65,0.956 c -0.007,0.002 -0.016,0.004 -0.024,0.006 Z" fill="rgb(55,119,0)"/>
</svg>
