<svg xmlns="http://www.w3.org/2000/svg" viewBox="0 0 36 36">
	this used incorrect colors before, so i changed them
	<g fill="#66757f">
		<path d="M 10.507,14.524 l -0.781,-0.781 l 13.042,-12.834 l 0.313,0.312 l -12.574,13.303 Z"/>
		<path d="M 12.465,16.482 l -0.781,-0.78 l 13.086,-12.791 l 0.312,0.312 l -12.617,13.259 Z"/>
		<path d="M 14.423,18.441 l -0.78,-0.781 l 13.129,-12.748 l 0.312,0.313 l -12.661,13.216 Z"/>
		<path d="M 16.382,20.399 l -0.781,-0.781 l 13.173,-12.704 l 0.312,0.312 l -12.704,13.173 Z"/>
		<path d="M 18.34,22.357 l -0.781,-0.78 l 13.216,-12.661 l 0.313,0.312 l -12.748,13.129 Z"/>
		<path d="M 20.298,24.316 l -0.78,-0.781 l 13.259,-12.617 l 0.312,0.312 l -12.791,13.086 Z"/>
		<path d="M 22.257,26.274 l -0.781,-0.781 l 13.303,-12.574 l 0.312,0.312 l -12.834,13.043 Z"/>
	</g>
	<path fill="#292F33" class="toodark" d="M 23.232,27.12 l -2.384,2.382 a 2.793,2.793 0 01 -2.914,0.655 l -3.97,-1.418 a 3.939,3.939 0 00 -4.581,1.559 l -2.183,3.32 c -0.677,1.029 -1.905,1.55 -3.143,1.333 c -1.595,-0.28 -2.704,-1.277 -3.008,-3.008 c -0.218,-1.238 0.303,-2.466 1.333,-3.143 l 3.32,-2.184 a 3.938,3.938 0 00 1.559,-4.581 l -1.418,-3.97 a 2.793,2.793 0 01 0.655,-2.914 l 2.382,-2.383 l 14.352,14.352 Z"/>
</svg>
