<svg xmlns="http://www.w3.org/2000/svg" viewBox="0 0 36 36">
	<path d="M 34,30 a 2.828,2.828 0 01 -4,4 l -22,-22 l 4,-4 l 22,22 Z" fill="#F4900C"/> <!-- 2.828 ≈ hypot(4,4)/2 -->
	<!-- actual shape: 
<path d="M 0,0 C 1.166,-1.166 3.021,-1.221 4.121,-0.121 5.221,0.979 5.166,2.834 4,4 l -21.758,21.758 c -1.166,1.166 -3.021,1.221 -4.121,0.121 -1.1,-1.1 -1.045,-2.955 0.121,-4.121 L 0,0 Z"/> -->

	<path d="M 22,3 s 1,1 -1,1 s -3,0 -5,2 s -1,5 -1,5 l -4,4 c -1.155,-0.578 -2.308,0.179 -3.078,0.922 l 0.078,0.078 c 1,1 0,2 0,2 l -1,1 c -1,1 -2,0 -2,0 l -4,-4 c -1,-1 0,-2 0,-2 l 1,-1 c 1,-1 2,0 2,0 l 7,-7 c 5,-5 11,-2 11,-2 Z"  fill="#66757F"/>
</svg>
