<svg xmlns="http://www.w3.org/2000/svg" viewBox="0 0 36 36">
	<g fill="#3B94D9">
		<path d="M 17.5,35.991 c -12.775,-0.411 -7.057,-14.781 -13.996,-15.666 a 0.588,0.588 0 01 -0.406,-0.239 a 0.522,0.522 0 01 -0.078,-0.446 c 0.426,-1.506 2.303,-2.64 4.555,-2.64 c 0.838,0 1.67,0.28 2.425,0.68 h15 c 0.755,-0.4 1.587,-0.68 2.425,-0.68 c 2.252,0 4.129,1.134 4.555,2.64 a 0.522,0.522 0 01 -0.078,0.446 a 0.588,0.588 0 01 -0.406,0.239 c -6.939,0.885 -1.221,15.255 -13.996,15.666 Z"/>
		<rect x="10" y="4.5" width="5" height="20" rx="2.5" ry="2"/>
		<rect x="15" y="0.5" width="5" height="25" rx="2.5" ry="2"/>
		<rect x="20" y="4.5" width="5" height="20" rx="2.5" ry="2"/>
	</g>
	
	<g fill="#A8E0F9">
		<path transform="translate(17.5 0)" d="
M -3.5,19.195
		 C -3.5,5.362 -3.23,5.494
-4.153,5.152
 A 2.5,2.5 0 00
-5,5
 A 2.5,2.5 0 00
-7.5,7.5
 L
-7.5,6.5
 A 2.5,2.5 0 01
-2.5,6.5
 L
-2.5,7.5
 L
-2.5,19.145
Z
"/>
		<path transform="translate(17.5 0)" d="M
2.5,19.145
 L
2.5,7.5
 L
2.5,6.5
 A 2.5,2.5 0 01
7.5,6.5
 L
7.5,7.5
 A 2.5,2.5 0 00
5,5
 A 2.5,2.5 0 00
4.153,5.152
 C 3.233,5.492 3.5,5.35
3.5,19.195
Z
	"/>	
		<path transform="translate(17.5 0)" d=" M
15.186,19.736
 L
14.276,20.195
 C 13.286,18.225 9.771,17.025
6.642,19.184
 C 4.688,20.533 1.979,20.557
0,19.238
 C -1.979,20.557 -4.688,20.534
-6.642,19.184
 C -9.854,16.967 -13.315,18.284
-14.276,20.195
 L
-15.186,19.736
 C -14.348,18.074 -12.283,17
-9.925,17
 C -6.861,17 -6.223,19.078
-3.5,19.195
L
-2.5,19.145
 C -1.316,18.963 -0.621,18.45
0,18.036
 C 0.59,18.43 1.343,18.967
2.5,19.145
L
3.5,19.195
 C 6.203,19.079 6.907,17
9.925,17
 C 12.283,17 14.348,18.074
15.186,19.736
 Z"/>
		<path d="M 15,3.5 a 2.5,2.5 0 11 5,0 v-1 a 2.5,2.5 0 10 -5,0 v1 Z"/>
	</g>
	
	<g>
		<path fill="#FFF" d="M 17.5,30 c -3.59,0 -6.5,-3.5 -6.5,-3.5 s 2.91,-3.5 6.5,-3.5 s 6.5,3.5 6.5,3.5 s -2.91,3.5 -6.5,3.5 Z"/>
		<circle cx="17.5" cy="26.5" r="3.5" fill="#5DADEC"/>
		<circle cx="17.5" cy="26.5" r="2.5" fill="#000000"/>
		<circle cx="16  " cy="25  " r="1  " fill="#FFFFFF"/>
	</g>
</svg>
