<svg xmlns="http://www.w3.org/2000/svg" viewBox="0 0 36 36">
	<g fill="#3B94D9">
		fingers: 
		<rect x="10" y="4.5" width="5" height="20" rx="2.5" ry="2"/>
		<rect x="15" y="0.5" width="5" height="25" rx="2.5" ry="2"/>
		<rect x="20" y="4.5" width="5" height="20" rx="2.5" ry="2"/>
		hand:
		<path d="M 17.5,35.991 c -12.775,-0.411 -7.057,-14.781 -13.996,-15.666 a 0.588,0.588 0 01 -0.406,-0.239 a 0.522,0.522 0 01 -0.078,-0.446 c 0.426,-1.506 2.303,-2.64 4.555,-2.64 c 0.838,0 1.67,0.28 2.425,0.68 h15 c 0.755,-0.4 1.587,-0.68 2.425,-0.68 c 2.252,0 4.129,1.134 4.555,2.64 a 0.522,0.522 0 01 -0.078,0.446 a 0.588,0.588 0 01 -0.406,0.239 c -6.939,0.885 -1.221,15.255 -13.996,15.666 Z"/>
	</g>
	
	<g fill="#A8E0F9" transform="translate(17.5 0)" >
		finger outlines:
		<path d="M -3.5,19.195 v0.305 h1 v-0.355 v-11.645 v-1 a 2.5,2.5 0 00 -5,0 v1 a 2.5,2.5 0 01 2.5,-2.5 a 2.5,2.5 0 01 0.847,0.152 c 0.923,0.342 0.653,0.21 0.653,14.043 Z"/>
		<path d="M -2.5,3.5 a 2.5,2.5 0 11 5,0 v-1 a 2.5,2.5 0 10 -5,0 v1 Z"/>
		<path d="M 2.5,19.145 v0.355 h1 v-0.305 c 0,-13.845 -0.267,-13.703 0.653,-14.043 a 2.5,2.5 0 01 0.847,-0.152 a 2.5,2.5 0 01 2.5,2.5 v-1 a 2.5,2.5 0 00 -5,0 v1 v11.645 Z"/>
		hand outline:
		<path d="M 15.186,19.736 l -0.91,0.459 c -0.99,-1.97 -4.505,-3.17 -7.634,-1.011 c -1.954,1.349 -4.663,1.373 -6.642,0.054 c -1.979,1.319 -4.688,1.296 -6.642,-0.054 c -3.212,-2.217 -6.673,-0.9 -7.634,1.011 l -0.91,-0.459 c 0.838,-1.662 2.903,-2.736 5.261,-2.736 c 3.064,0 3.702,2.078 6.425,2.195 l 1,-0.05 c 1.184,-0.182 1.879,-0.695 2.5,-1.109 c 0.59,0.394 1.343,0.931 2.5,1.109 l 1,0.05 c 2.703,-0.116 3.407,-2.195 6.425,-2.195 c 2.358,0 4.423,1.074 5.261,2.736 Z"/>
	</g>
	
	eye
	<g>
		<path fill="#FFF" d="M 17.5,30 c -3.59,0 -6.5,-3.5 -6.5,-3.5 s 2.91,-3.5 6.5,-3.5 s 6.5,3.5 6.5,3.5 s -2.91,3.5 -6.5,3.5 Z"/>
		<circle cx="17.5" cy="26.5" r="3.5" fill="#5DADEC"/>
		<circle cx="17.5" cy="26.5" r="2.5" fill="#000000"/>
		<circle cx="16  " cy="25  " r="1  " fill="#FFFFFF"/>
	</g>
</svg>
