<svg xmlns="http://www.w3.org/2000/svg" viewBox="0 0 36 36">
	eggshell back
	<g>
		<path d="M 5,16 l 3,3 l 4,-2 l 3,3 l 4,-6 l 4,3 l 3,-1 l 2,3 l 3,-3 l 2,4 l -2,8 l -11,4 l -11,-2 l -6,-6 l -0.25,-4.667 l 2.25,-3.333 Z" fill="#99aab5"/>
	</g>
	
	body
	<g fill="#ffcc4d">
		<path d="M 1,0 s -2 -3 -4 -2 s 3 1 4 2 z" transform="translate(18 3)"/>
		<path d="M 1,0 s -2 -3 -4 -2 s 3 1 4 2 z" transform="matrix(-1 0 0 1 18 3)"/>
		<path d="M 18,31 c -18.259,0 -12.439,-9.687 -11.956,-16.288 c -0.021,-0.288 -0.044,-0.574 -0.044,-0.867 a 12,12 0 01 24,0 c 0,0.293 -0.023,0.579 -0.044,0.867 c 0.483,6.601 6.303,16.288 -11.956,16.288 Z"/> not sure of bottom half shape. definitely intersected with 12x12 circle
	</g>
	
	eyes
	<g>
		<circle r="1.5" cx="11.5" cy="11.5" fill="#662113"/>
		<circle r="1.5" cx="24.5" cy="11.5" fill="#662113"/>
	</g>
	
	beak
	<path d="M 21,14 c 0,1.657 -1.343,2 -3,2 s -3,-0.343 -3,-2 a 3,3 0 01 6,0 Z" fill="#f4900c"/>
	
	eggshell front
	<clipPath id="egg1">
		<ellipse cx="18" cy="21.5" rx="16" ry="14.5"/>
	</clipPath>
	<g clip-path="url(#egg1)">
		<path d="M -1,8.5 l 7,16.5 l 3,-2 l 3,6 l 3,-4 l 4,2 l 2,-2 l 3,5 l 4,-6 l 3,1 l 3.5,-10 V 37 H -1 Z" fill="#e1e8ed" class="toolight"/>
	</g>
</svg>
