<svg xmlns="http://www.w3.org/2000/svg" viewBox="0 0 36 36">
	<g>
		<path d="M 30,15 v10 l 3,-1 v-9 a 15,15 0 00 -30,0 v9 h3 v-9 c 0,-7 5.27,-12.187 12,-12.187 s 12,5.187 12,12.187 Z" fill="#66757f"/>
		<rect width="6" height="13" rx="2" x="0" y="16" fill="#292f33"/>
		<rect width="6" height="13" rx="2" x="30" y="16" fill="#292f33"/>
	</g>
	<g fill="#55ACEE">
		these are very similar to MusicalNotes but not exact for some reason... all of their component shapes are deceptive
		<path d="M 19.182,10.016 c 0.45,-0.093 0.818,0.208 0.818,0.667 v3.831 c 0,0.459 -0.346,0.911 -0.796,1.004 l -4.204,0.872 v15.61 c -0.077,2 -2.35,3.905 -5.087,3.905 c -2.785,0 -5.043,-1.662 -5.043,-3.827 a 5.043,3.922 0 01 5.043,-3.922 c 0.747,0 1.45,0.134 2.087,0.36 v-12.351 v-2.131 v-1.702 c 0,-0.459 0.369,-0.91 0.818,-1.003 l 6.364,-1.313 Z"/>
		<path d="M 27.182,13.168 l -4.297,0.865 c -0.45,0.093 -0.885,0.544 -0.885,1.003 v0.897 v1.433 v9.075 c 0,-0.152 -0.878,-0.24 -1.4,-0.24 c -2.024,0 -3.633,1.276 -3.633,2.851 c 0,1.574 1.658,2.852 3.683,2.852 s 3.677,-1.278 3.677,-2.852 c 0,-0.421 -0.014,-11.286 -0.014,-11.286 l 2.869,-0.598 c 0.45,-0.092 0.818,-0.543 0.818,-1.002 v-2.331 c 0,-0.459 -0.368,-0.759 -0.818,-0.667 Z"/>
		
		<!--
		<ellipse rx="3.68" ry="2.852" cx="20.647" cy="29.051"/>
		<rect x="22" y="15.9325" width="2.327" height="13.119"/>
		<rect width="6" height="4" rx="0.818" transform="matrix(1 -0.2 0 1 22 14.21)"/> nn..-->
		
	</g>
</svg>
