<svg xmlns="http://www.w3.org/2000/svg" viewBox="0 0 36 36">
	<g>
		<g fill="#99aab5">
			<ellipse cx="18" cy="8" rx="13" ry="8"/>
			<rect x="5" y="8" width="26" height="27"/>
		</g>
		<ellipse fill="#66757F" cx="18" cy="8" rx="11" ry="6"/>
		<g fill="#CCD6DD">
			<ellipse cx="18" cy="9" rx="11" ry="6"/>
			<rect x="7" y="9" width="22" height="26"/>
		</g>
		
		<g>
			<rect x="11" y="20" width="14" height="3" rx="0.5" fill="#66757F"/>
			<rect x="14" y="25" width="8" height="2" rx="0.5" fill="#66757F"/>
			<rect x="11" y="29" width="14" height="2" rx="0.5" fill="#66757F"/>
			<path d="M 18,8 s 1,-2 3,-2 s 3.949,2.154 3,5 c -1,3 -6,6 -6,6 s -5,-3 -6,-6 c -0.949,-2.846 1,-5 3,-5 s 3,2 3,2 Z" fill="#66757F"/>
			<path d="M 18,9 s 1,-2 3,-2 s 3.777,1.903 3,4 c -0.503,1.357 -1.759,2.771 -2.883,3.701 c -1.704,1.411 -3.117,2.299 -3.117,2.299 s -1.883,-1.08 -3.544,-2.655 c -1.046,-0.993 -2.116,-2.161 -2.456,-3.345 c -0.617,-2.149 1,-4 3,-4 s 3,2 3,2 Z" fill="#99aab5"/>
			<!-- the heart here is really cute.. -->
			
			<rect x="11" y="21" width="14" height="2" rx="0.5" fill="#99aab5"/>
			<rect x="14" y="26" width="8" height="1" rx="0.5" fill="#99aab5"/>
			<rect x="11" y="30" width="14" height="1" rx="0.5" fill="#99aab5"/>
		</g>
	</g>
	
	<path d="M 0,36 s 4,-2 18,-2 s 18,2 18,2 h-36 Z"  fill="#D99E82"/>
	
	<g>
		<path d="M 6.045,33.999 c -1.511,2.524 -5.86,-0.145 -6.045,-3.365 c 3.023,-0.841 6.983,1.8 6.045,3.365 Z"  fill="#3e721d"/>
		<path d="M 5.661,34.847 c -2.766,0.61 -4.336,-4.896 -2.741,-8.847 c 2.965,0.473 6.268,8.068 2.741,8.847 Z"  fill="#5c913b"/>
		<path d="M 6.046,34.748 c -2.869,-0.371 0.809,-6.282 3.239,-6.282 c 0.809,3.141 -1.285,6.534 -3.239,6.282 Z"  fill="#77b255"/>
	</g>
</svg>
