<svg xmlns="http://www.w3.org/2000/svg" viewBox="0 0 36 36">
	<path d="M 18,6.094 a 9.868,9.868 0 01 8.017,-4.129 a 9.868,9.868 0 01 9.868,9.868 c 0,0.772 -0.098,1.52 -0.268,2.241 c -1.369,8.512 -10.834,17.494 -17.617,19.96 c -6.783,-2.466 -16.248,-11.448 -17.619,-19.96 c -0.168,-0.721 -0.266,-1.469 -0.266,-2.241 a 9.868,9.868 0 01 9.868,-9.868 a 9.868,9.868 0 01 8.017,4.129 Z" fill="#DD2E44"/>
	
	<path d="M 36,15 c -1,5 -4,8 -4,8 h-28 s -3,-3 -4,-8 h36 Z" fill="#fdd888"/>
	<path d="M 14,18 v18 l -5,-5 l -5,5 v-18 h10 Z" fill="#fdd888"/>
	<path d="M 16.8022,9.1938 c 0.574,-0.402 1.044,-0.158 1.044,0.544 v14.659 c 0,0.703 -0.48,0.964 -1.068,0.582 l -7.855,-5.106 l -7.854,5.106 c -0.589,0.382 -1.069,0.121 -1.069,-0.582 v-14.659 c 0,-0.702 0.47,-0.946 1.045,-0.544 l 7.878,5.515 l 7.879,-5.515 Z" fill="#fdcb58"/>
	<circle r="4" cx="9" cy="17" fill="#fdd888"/>
</svg>
