<svg xmlns="http://www.w3.org/2000/svg" viewBox="0 0 36 36">
	<path d="M 28.8096,23.209 c 0,-7.672 -14.144,-7.171 -14.144,-11.803 c 0,-2.242 2.145,-3.338 4.633,-3.338 c 4.184,0 4.929,2.689 6.824,2.689 c 1.342,0 1.989,-0.845 1.989,-1.792 c 0,-2.201 -3.337,-3.867 -6.537,-4.444 v-2.124 c 0,-1.325 -1.073,-2.4 -2.399,-2.4 s -2.4,1.075 -2.4,2.4 v2.199 c -3.489,0.795 -6.49,3.215 -6.49,7.159 c 0,7.369 14.142,7.071 14.142,12.248 c 0,1.793 -1.941,3.586 -5.129,3.586 c -4.781,0 -6.374,-3.236 -8.316,-3.236 c -0.946,0 -1.792,0.795 -1.792,1.996 c 0,1.906 3.195,4.2 7.588,4.84 c 0,0.004 -0.003,0.01 -0.003,0.015 v2.398 c 0,1.326 1.075,2.401 2.401,2.401 c 1.325,0 2.4,-1.075 2.4,-2.401 v-2.398 c 0,-0.028 -0.014,-0.05 -0.016,-0.075 c 3.952,-0.738 7.249,-3.315 7.249,-7.92 Z" fill="#292F33" class="toodark"/>
</svg>
