<svg xmlns="http://www.w3.org/2000/svg" viewBox="0 0 36 36">
	<!--<ellipse cx="18" cy="20.3115" rx="10.688" ry="10.6885"  fill="#6D6E71"/>-->
	<path d="M 26,33.5 h-16 c -1.665,0 -2.479,-1.339 -2.763,-2.31 l -2.664,-0.056 a 0.5,0.5 0 01 -0.472,-0.63 l 0.594,-2.216 l -2.446,-0.651 a 0.5,0.5 0 01 -0.3,-0.741 l 1.199,-1.993 l -2.156,-1.192 a 0.5,0.5 0 01 -0.103,-0.8 l 1.729,-1.647 l -1.729,-1.646 a 0.5,0.5 0 01 0.103,-0.8 l 2.156,-1.194 l -1.2,-1.994 a 0.5,0.5 0 01 0.3,-0.741 l 2.446,-0.65 l -0.594,-2.218 a 0.5,0.5 0 01 0.473,-0.63 l 2.575,-0.053 l 0.058,-2.302 a 0.5,0.5 0 01 0.608,-0.475 l 2.521,0.561 l 0.717,-2.234 a 0.5,0.5 0 01 0.699,-0.294 l 2.284,1.139 l 1.341,-2.009 a 0.5,0.5 0 01 0.744,-0.099 l 1.88,1.633 l 1.88,-1.636 a 0.5,0.5 0 01 0.745,0.1 l 1.34,2.009 l 2.286,-1.139 a 0.5,0.5 0 01 0.699,0.294 l 0.716,2.234 l 2.521,-0.561 a 0.5,0.5 0 01 0.608,0.475 l 0.058,2.302 l 2.574,0.053 a 0.5,0.5 0 01 0.472,0.63 l -0.595,2.217 l 2.449,0.65 a 0.5,0.5 0 01 0.301,0.741 l -1.201,1.994 l 2.155,1.194 a 0.5,0.5 0 01 0.103,0.8 l -1.729,1.646 l 1.729,1.647 a 0.5,0.5 0 01 -0.103,0.8 l -2.154,1.192 l 1.2,1.993 a 0.5,0.5 0 01 -0.3,0.741 l -2.45,0.651 l 0.595,2.216 a 0.5,0.5 0 01 -0.472,0.63 l -2.663,0.056 c -0.285,0.974 -1.099,2.313 -2.764,2.313 Z"   fill="#662113"/>
	<path d="M 16.188,28.824 a 0.5,0.5 0 01 -0.416,-0.223 l -1.058,-1.585 l -1.805,0.899 a 0.5,0.5 0 01 -0.7,-0.295 l -0.564,-1.757 l -1.99,0.442 a 0.5,0.5 0 01 -0.609,-0.476 l -0.045,-1.804 l -2.029,-0.043 a 0.5,0.5 0 01 -0.472,-0.63 l 0.464,-1.732 l -1.92,-0.51 a 0.5,0.5 0 01 -0.3,-0.741 l 0.937,-1.557 l -1.688,-0.934 a 0.5,0.5 0 01 -0.103,-0.8 l 1.352,-1.289 l -1.352,-1.287 a 0.5,0.5 0 01 0.103,-0.8 l 1.689,-0.935 l -0.937,-1.558 a 0.5,0.5 0 01 0.3,-0.741 l 1.922,-0.511 l -0.466,-1.732 a 0.5,0.5 0 01 0.473,-0.63 l 2.029,-0.042 l 0.045,-1.805 a 0.5,0.5 0 01 0.608,-0.475 l 1.99,0.442 l 0.564,-1.756 a 0.5,0.5 0 01 0.7,-0.294 l 1.805,0.899 l 1.058,-1.584 a 0.5,0.5 0 01 0.745,-0.099 l 1.482,1.291 l 1.484,-1.291 a 0.5,0.5 0 01 0.745,0.099 l 1.057,1.583 l 1.807,-0.9 a 0.5,0.5 0 01 0.699,0.295 l 0.562,1.756 l 1.991,-0.442 a 0.5,0.5 0 01 0.608,0.476 l 0.045,1.804 l 2.028,0.042 a 0.5,0.5 0 01 0.472,0.63 l -0.465,1.734 l 1.924,0.511 a 0.5,0.5 0 01 0.301,0.741 l -0.938,1.558 l 1.689,0.935 a 0.5,0.5 0 01 0.103,0.8 l -1.353,1.287 l 1.353,1.289 a 0.5,0.5 0 01 -0.103,0.8 l -1.688,0.934 l 0.938,1.557 a 0.5,0.5 0 01 -0.3,0.741 l -1.925,0.512 l 0.465,1.732 a 0.5,0.5 0 01 -0.472,0.63 l -2.028,0.043 l -0.045,1.804 a 0.5,0.5 0 01 -0.608,0.476 l -1.991,-0.442 l -0.562,1.757 a 0.5,0.5 0 01 -0.699,0.295 l -1.806,-0.899 l -1.058,1.585 a 0.5,0.5 0 01 -0.745,0.1 l -1.485,-1.297 l -1.483,1.294 a 0.5,0.5 0 01 -0.329,0.123 Z"   fill="#8A4B38"/>
	<path d="M 13.5,27.052 h9 c 3.521,0 6.5,2.575 6.5,4.5 c 0,1.65 -1.35,2 -3,2 h-16 c -1.65,0 -3,-0.35 -3,-2 c 0,-1.925 2.99,-4.5 6.5,-4.5 Z"  fill="#8A4B38"/>
	<path d="M 11,35 c -2,0 -2,-4 2,-4 s 4.062,4 2,4 h-4 Z"  fill="#D99E82"/>
	<path d="M 21,35 c -2,0 -2,-4 2,-4 s 4.062,4 2,4 h-4 Z"  fill="#D99E82"/>
	
	<ellipse cx="18" cy="22.778" rx="8.222" ry="7.4"  fill="#D99E82"/>
	<path d="M 11.422,17.846 c 0,-3.289 6.577,-3.289 6.577,-3.289 s 6.577,0 6.577,3.289 c 0,0 -4.111,-1.644 -4.933,0 s -1.644,1.644 -1.644,1.644 s -0.822,0 -1.644,-1.644 s -4.933,0 -4.933,0 Z"   fill="#C1694F"/>
	<circle cx="10.1895" cy="18.2565" r="2.056"  fill="#D99E82"/>
	<circle cx="25.81" cy="18.2565" r="2.056"  fill="#D99E82"/>
	
	<ellipse cx="18" cy="26.479" rx="3.289" ry="3.7"  fill="#E6E7E8"/>
	
	<circle cx="18" cy="27.71" r="1.644"  fill="#231F20"/>
	<circle cx="13.478" cy="21.546" r="1.233"  fill="#231F20"/>
	<circle cx="22.5225" cy="21.546" r="1.233"  fill="#231F20"/>
	
	
	
</svg>
