<svg xmlns="http://www.w3.org/2000/svg" viewBox="0 0 36 36">
	<g transform="translate(-0.74 0)">
		<g>
			<rect width="2" height="5" x="17" y="26" fill="#66757f"/>
			<rect width="2" height="5" x="9" y="26" fill="#66757f"/>
			<rect width="24" height="4" rx="2" x="2" y="30" fill="#99aab5"/>
		</g>
		<g>
			<rect width="2" height="6" x="13" y="3" fill="#99aab5"/>
			<ellipse rx="6" ry="1" cx="7" cy="3" fill="#99aab5"/>
			<ellipse rx="6" ry="1" cx="21" cy="3" fill="#99aab5"/>
			<ellipse rx="2" ry="1" cx="14" cy="3" fill="#66757f"/>
		</g>
		<g>
			<path d="M 35,10 s -6,1 -5,-1 s 3,-6 4,-6 s 1,4 1,7 Z" fill="#ffcc4d"/>
			<path d="M 35,10 c 0,2.007 -5,4 -9.371,4.951 c 0.233,0.818 0.371,1.669 0.371,2.549 c 0,5.799 -3,10.5 -12,10.5 s -12.75,-3.951 -12.75,-9.75 s 6.123,-11.25 12.75,-11.25 h2 c 11,0 19,0.791 19,3 Z" fill="#ffcc4d"/>
			<path d="M 5,13 c 2.092,-2.918 6.467,-4.28 8.787,-2.783 c 1.213,0.783 1.641,4.875 0.276,8.196 c -1.063,2.587 -3.063,2.587 -7.85,2.371 c -4.281,-0.195 -3.304,-4.866 -1.213,-7.784 Z" fill="#3b88c3"/>
			<path d="M 21.841,12.535 c 2.159,3.465 2.07,6.161 -1.841,7.465 c -3,1 -4,-2 -3.841,-5.535 c 0.112,-2.484 0.206,-4.196 1.841,-4.465 c 1.447,-0.24 2.527,0.426 3.841,2.535 Z" fill="#3b88c3"/>
		</g>
		<g transform="translate(33 10) rotate(-35.37)">
			<ellipse rx="1" ry="2.833" cy="-2.833" fill="#99aab5"/>
			<ellipse rx="1" ry="2.833" cy="2.833" fill="#99aab5"/>
			<circle r="1" fill="#66757f"/>
		</g>
	</g>
</svg>
