<svg xmlns="http://www.w3.org/2000/svg" viewBox="0 0 36 36">
	<defs>
		<clipPath id="leaf1">
			<path d="M 8.7383,15.6094 c 1.338,1.631 1.191,3.117 0.898,6.088 c -2.969,-0.294 -4.455,-0.44 -5.795,-2.071 c -1.339,-1.635 -1.861,-3.935 -0.898,-6.089 c 2.301,-0.523 4.456,0.44 5.795,2.072 Z"/>
		</clipPath>
		<clipPath id="leaf2">
			<path d="M 17.1025,6.6084 c 0.874,2.869 -0.124,4.742 -2.119,8.488 c -3.745,-1.996 -5.619,-2.994 -6.494,-5.864 c -0.876,-2.872 -0.315,-6.18 2.118,-8.49 c 3.308,0.56 5.619,2.992 6.495,5.866 Z"/>
		</clipPath>
		<clipPath id="leaf3">
			<path d="M 29.8535,10.1611 c -2.435,1.02 -4.16,0.314 -7.613,-1.097 c 1.411,-3.453 2.118,-5.18 4.549,-6.203 c 2.434,-1.021 5.377,-0.825 7.612,1.096 c -0.194,2.944 -2.116,5.181 -4.548,6.204 Z"/>
		</clipPath>
		<clipPath id="leaf4">
			<path d="M 20.917,22.502 c -2.706,-0.331 -3.895,-1.852 -6.272,-4.889 c 3.039,-2.376 4.558,-3.565 7.265,-3.235 c 2.71,0.332 5.25,2.016 6.274,4.889 c -1.684,2.544 -4.558,3.563 -7.267,3.235 Z"/>
		</clipPath>
		<clipPath id="leaf5">
			<path d="M 14.9585,31.3164 c -2.549,-0.187 -3.733,-1.553 -6.098,-4.288 c 2.735,-2.364 4.102,-3.547 6.652,-3.364 c 2.551,0.185 5.009,1.644 6.098,4.287 c -1.459,2.458 -4.101,3.548 -6.652,3.365 Z"/>
		</clipPath>
	</defs>
	<g clip-path="url(#leaf1)">
		<rect width="36" height="36" fill="#77b255"/>
		<path d="M 2.3218,13.1821 c 1.385,0.98 6.194,6.339 7.315,8.515 s -3.188,2.283 -5.154,0.671 c -1.967,-1.611 -4.789,-2.948 -4.179,-5.159 s 2.018,-4.027 2.018,-4.027 Z" fill="#a6d388"/>
	</g>
	<g clip-path="url(#leaf2)">
		<rect width="36" height="36" fill="#77b255"/>
		<path d="M 14.8281,15.0083 c 0.082,2.994 -8.905,-3.805 -9.151,-5.741 c -0.246,-1.935 -0.441,-5.669 0.998,-7.391 c 1.439,-1.723 2.329,-3.268 3.163,-2.362 c 1.162,1.263 4.907,12.499 4.99,15.494 Z" fill="#a6d388"/>
	</g>
	<g clip-path="url(#leaf3)">
		<rect width="36" height="36" fill="#77b255"/>
		<path d="M 22.2637,9.2349 c 1.507,-0.989 10.404,-5.679 13.838,-5.379 c 3.432,0.301 -4.132,9.849 -12.15,7.626 c -2.339,-0.648 -1.688,-2.247 -1.688,-2.247 Z" fill="#a6d388"/>
	</g>
	<g clip-path="url(#leaf4)">
		<rect width="36" height="36" fill="#77b255"/>
		<path d="M 15.0264,17.252 s 0.406,-3.236 3.039,-5.091 c 2.634,-1.855 6.302,0.153 10.041,1.403 c 3.739,1.252 5.577,8.129 1.823,6.379 c -3.753,-1.75 -13.022,-2.584 -14.903,-2.691 Z" fill="#5c913b"/>
	</g>
	<g clip-path="url(#leaf5)">
		<rect width="36" height="36" fill="#77b255"/>
		<path d="M 8.1113,26.9912 s 0.776,-2.998 3.186,-5.161 c 2.41,-2.161 3.701,-0.561 7.014,-0.368 c 3.315,0.19 9.812,9.681 4.314,6.941 c -5.499,-2.74 -11.947,-1.652 -14.514,-1.412 Z" fill="#5c913b"/>
	</g>
	<path d="M 4.751,35.0605 c -0.584,-0.091 -1.363,-0.831 -1.273,-1.416 c 0.545,-3.563 2.858,-12.168 18.297,-24.755 c 0.458,-0.375 0.976,-0.66 1.365,-0.212 c 0.39,0.446 -0.052,0.949 -0.498,1.339 c -13.288,11.57 -15.514,20.734 -16.023,24.065 c -0.091,0.585 -1.283,1.068 -1.868,0.979 Z" fill="#a06253"/> - unique color
</svg>
