<svg xmlns="http://www.w3.org/2000/svg" viewBox="0 0 36 36">
	this one has a lot of little messed up joins, i wish i had the source shapes.. oh well
	<g fill="#77b255">
		<!--<path d="M 15.6445,33.3721 c -6.032,6.032 -15.715,-7.109 -14.292,-7.109 c 7.11,0 20.327,1.075 14.292,7.109 Z"/>-->
		leaf was replaced early on due to a gap
		<path d="M 15.6445,33.3721 c -6.032,6.032 -15.715,-7.109 -14.292,-7.109 c 3.81,0 9.374,-0.349 12.789,0.867 c 2.958,1.052 4.304,3.441 1.503,6.242 Z"/>
		
		<path d="M 19.6016,32.3291 c 6.509,6.506 17.254,-7.669 15.72,-7.669 c -7.668,0 -22.226,1.161 -15.72,7.669 Z"/>
	</g>
	<g>
		<path d="M 34.6133,15.7539 c 0,0.012 0.111,2.675 -0.932,4.438 c -1.075,1.819 -3.879,4.162 -5.705,2.938 l -0.192,-0.127 c 0.318,1.611 -0.223,3.732 -0.951,5.015 c -1.065,1.862 -2.624,2.639 -3.462,3.04 l -0.077,0.037 c -0.84,0.395 -2.435,1.111 -4.55,0.753 c -2.142,-0.362 -5.443,-2.195 -5.17,-4.439 c -1.013,1.893 -4.608,1.906 -6.566,1.237 c -1.99,-0.683 -2.992,-2.044 -3.515,-2.777 l -0.048,-0.068 c -0.517,-0.737 -1.466,-2.142 -1.443,-4.243 c 0.022,-2.146 1.324,-5.702 3.594,-5.8 l -0.513,-0.051 c -2.276,-0.21 -3.219,-3.896 -3.026,-6.042 c 0.191,-2.08 1.264,-3.385 1.847,-4.074 l 0.053,-0.062 c 0.586,-0.684 1.714,-1.95 3.739,-2.461 c 1.794,-0.453 4.835,-0.25 6.015,1.222 c 0.452,-1.829 2.878,-3.495 4.632,-3.865 c 3.884,-0.816 6.967,1.29 8.146,3.027 c 0.928,1.365 1.707,3.814 1.191,5.49 c 1.73,-0.786 4.374,1.036 5.535,2.585 c 1.223,1.642 1.346,3.326 1.398,4.227 Z" fill="#f4abba"/>
	</g>
	<g>
		this one wouldve obviously been 5 parts (with 2 points each) joined with a circle in the middle, but the outlines of those are lost forever..
		<path d="M 27.542,13.5415 c 2.078,1.159 0.497,6.054 -6.511,3.51 c -0.165,0.462 -0.413,0.879 -0.729,1.241 c 1.644,1.867 4.076,6.123 1.781,7.166 c -2.593,1.178 -4.145,-1.09 -4.036,-5.892 c -0.214,0.037 -0.431,0.066 -0.655,0.066 c -0.84,0 -1.612,-0.273 -2.247,-0.727 c -1.132,1.814 -3.482,5.348 -5.603,3.053 c -2.027,-2.193 1.669,-4.178 4.209,-4.911 c -0.144,-0.406 -0.237,-0.837 -0.237,-1.293 c 0,-0.358 0.064,-0.697 0.154,-1.026 c -3.073,-1.046 -5.704,-2.197 -4.222,-4.199 c 1.371,-1.852 3.912,0.115 5.314,2.392 c 0.692,-0.643 1.612,-1.045 2.632,-1.045 c 0.068,0 0.132,0.017 0.2,0.02 c -0.165,-3.451 1.384,-7.488 3.575,-5.605 c 2.059,1.769 -0.075,4.755 -1.468,6.362 c 0.43,0.321 0.785,0.728 1.051,1.196 c 1.918,-0.742 5.006,-1.305 6.792,-0.308 Z" fill="#ea596e"/>
	</g>
	<g>
		<path d="M 17.707,17.459 c -0.679,0 -0.668,-0.562 -0.832,-1.25 c -0.532,-2.234 -2.381,-6.309 -4.601,-9.163 c -0.508,-0.654 -0.39,-1.596 0.264,-2.105 c 0.654,-0.508 1.596,-0.391 2.105,0.263 c 2.439,3.136 3.263,7.404 3.982,10.421 c 0.191,0.806 0.237,1.601 -0.569,1.792 c -0.117,0.028 -0.234,0.042 -0.349,0.042 Z" fill="#be1931"/>
	</g>
	<g>
		rounded rect:
		<path d="M 15.9043,5.3271 c 0.498,0.684 0.079,1.838 -0.936,2.578 l -0.475,0.346 c -1.016,0.74 -2.242,0.785 -2.741,0.101 l -2.781,-3.816 c -0.498,-0.684 -0.079,-1.838 0.937,-2.578 l 0.475,-0.346 c 1.015,-0.74 2.242,-0.785 2.74,-0.101 l 2.781,3.816 Z" fill="#ffcc4d"/>
	</g>
</svg>
