<svg xmlns="http://www.w3.org/2000/svg" viewBox="0 0 36 36">
	<!-- scaled? -->
	<path d="M 35.4472,32.1204 s -1.098,1.88 -2.874,1.88 h-13.23 c -3.635,0 -4.391,-4.18 -7.605,-10.605 c -3.212,-6.427 -6.905,-3.048 -6.905,-3.048 l -1.215,14.653 h-1.284 s -0.615,-12.552 -1.25,-14.596 c -1.445,-4.65 -0.625,-8.182 -0.625,-8.182 l 8.019,0.543 l 10.099,15.524 l 16.87,3.831 Z" fill="#292f33" class="toodark"/>
	<path d="M 30.4491,26.4974 v0 c -1.137,-0.31 -1.874,-0.625 -1.874,-0.625 c -0.513,0.534 -1.231,0.625 -1.875,0.625 c -3.825,0 -5.807,-1.556 -8.122,-6.873 c -4.998,-11.48 -13.224,-16.244 -15.619,-16.244 c -2.552,0 -3.964,11.871 -2.5,11.871 c 4.607,0 8.415,0.928 11.12,3.749 c 4.042,4.217 5.513,13.12 8.116,13.12 h15.752 s 0.625,-4.061 -4.998,-5.623 Z" fill="#dd2e44"/>
</svg>
