<svg xmlns="http://www.w3.org/2000/svg" viewBox="0 0 36 36">
	<path d="M 0,34 h36 v2 h-36 v-2 Z"  fill="#939598"/>
	
	<!-- these overflow pretty far off the left edge ?? -->
	<path d="M 3,35 L 6,30 S -2.115,28.531 0,24 C 7,9 36,8 36,8 L 36,35 L 3,35 Z"   fill="#BCBEC0"/>
	<path d="M 23,18 L 36,15.29 L 36,35 L 3,35 L 6,30 S -0.894,28.748 -0.31,25 L 8,25 L 23,18 Z"   fill="#3B88C3"/>
	<path d="M 6,30 s -3.012,-0.548 -4.887,-2 h34.887 v2 h -30 Z"  fill="#269"/>
	<path d="M 14,35 l 2,-3 h20 v3 h-22 Z"  fill="#231F20"/>
	
	<path d="M 36,14.142 L 36,16.141 C 31.034,16.572 22.811,18.078 17.581,21.813 C 12.26,25.614 6.337,26.034 2.152,26.034 L -0.287,26.007C -0.415,25.419 -0.351,24.757 -0.004,24.009 L 0.386,24.015 C 4.542,24.085 10.816,24.188 16.419,20.186 C 22.612,15.762 31.653,14.5 36,14.142 Z"   fill="#E6E7E8"/>
	
	<path d="M 12,16 l 3.878,-4.929 c 4.849,-1.939 13.122,-3.051 20.122,-3.051 v2 c -7,-0.001 -18,1.98 -24,5.98 Z"  fill="#A7A9AC"/>
	<path d="M 3.095,19.465 c 3.905,-5.465 8.905,-9.465 15.905,-9.465 c 0.008,0.017 -1,3 -10.465,7.815 c -1.823,0.927 -3.768,1.258 -5.44,1.65 Z"  fill="#58595B"/>
	
	<path d="M 3.549,22.145 c 0.258,-0.722 0.73,-1.416 1.378,-2.048 c 1.617,-0.209 2.979,0.053 3.052,0.594 c 0.074,0.548 -1.197,1.172 -2.839,1.394 c -0.578,0.079 -1.121,0.094 -1.591,0.06 Z"  fill="#FFE8B6"/>
</svg>
