<svg xmlns="http://www.w3.org/2000/svg" viewBox="0 0 36 36">
	<g>
		<path fill="#C1694F" d="M 34.4688,28.1563 c 0.5,0.75 0.614,2.198 0.656,3.156 c 0.028,0.626 -0.906,0.711 -0.906,0.711 l -17.687,0.477 l -14.198,-0.5 s -1.031,-0.402 -1.03,-1.064 c 0,-2.005 0.27,-5.169 0.636,-7.439 c 0.242,-2.89 0.266,-7.215 0.019,-8.206 c -0.292,-1.166 7.416,-2.958 9.791,-3.25 c 2.375,-0.291 5.328,-0.003 5.375,2.334 c 0.084,4.125 3.847,8.295 6,9.542 c 0.102,0.058 0.188,0.124 0.273,0.189 c 2.694,1.574 4.459,1.092 6.571,1.394 c 2.042,0.292 3.91,1.771 4.5,2.656 Z"/>
	</g>
	<g>
		<path fill="#662113" d="M 23.208,32.458 c 0.75,-1.333 2.375,-2.416 4.75,-2.583 s 5.792,-2.531 5.792,-2.531 s 0.969,0 1.531,2.031 c 0.463,1.67 -0.406,2.094 -0.406,2.094 s -3.542,1.989 -5.875,1.614 s -5.792,-0.625 -5.792,-0.625 Z"/>
		<path fill="#662113" d="M 1.9063,24.1563 s 1.753,2.062 5.25,3.094 s 4.422,5.098 4.594,5.156 s -8.526,0.221 -9.328,-0.009 c -0.803,-0.229 -1.195,-1.211 -1.376,-2.58 c -0.265,-2.005 0.86,-5.661 0.86,-5.661 Z"/>
	</g>
	<path fill="#662113" d="M 2.1665,16.0415 c -0.713,0.366 -0.75,-1.25 -0.083,-2 c 0.666,-0.75 6.25,-1.75 7.625,-2 s 4.041,-0.75 4.875,-0.083 c 0.833,0.666 1,2.833 0.958,3.625 c -0.042,0.791 -3.083,-0.417 -5.542,-0.667 c -2.322,-0.236 -6.208,0.292 -7.833,1.125 Z"/>
	
	<g fill="#292F33">
		<path d="M 1.9063,35.5625 v0 c -0.55,0 -1.031,-0.437 -1.156,-1.937 l -0.031,-0.563 c 0.156,-2 0.637,0.625 1.187,0.625 a 1,1 0 01 1,1 c 0,0.55 -0.45,0.875 -1,0.875 Z"/>
		<circle r="1" cx="4.9375" cy="34.8125"/>
		<circle r="1" cx="8" cy="35"/>
		<circle r="1" cx="11.0625" cy="34.8438"/>
		<circle r="1" cx="20" cy="35"/>
		<circle r="1" cx="23" cy="35"/>
		<circle r="1" cx="25.9375" cy="34.875"/>
		<circle r="1" cx="28.9688" cy="34.6875"/>
		<circle r="1" cx="31.9688" cy="34.5"/>
		<path d="M 34.9316,35.0186 h-0.281 c -0.55,0 -1,-0.606 -1,-1.156 a 1,1 0 01 1,-1 c 0.55,0 1.218,-0.675 1.218,-0.125 l -0.062,1.062 c 0,0.55 -0.325,1.219 -0.875,1.219 Z"/>
		
		<path d="M 1.334,31.2158 c 0.787,0.175 2.201,0.662 4.591,0.7 c 2.755,0.043 5.187,-0.525 8.308,-0.525 c 2.991,0 6.9,0.848 10.32,0.7 c 3.486,-0.152 7.349,-0.652 8.191,-0.799 c 1.666,-0.292 2.438,-0.479 2.438,-0.479 s 0.364,-0.021 0.531,0.687 c 0.166,0.708 0.304,2.084 -0.842,2.427 c -2.185,0.656 -7.554,1.113 -12.724,1.05 c -2.626,-0.032 -5.549,-0.81 -6.966,-0.977 c -1.416,-0.167 -2.667,-0.287 -3.062,0 c -0.396,0.287 0.089,0.792 -0.947,0.933 c -2.58,0.349 -8.613,0.044 -9.928,-0.516 c -0.67,-0.285 -1.049,-3.454 0.09,-3.201 Z"/>	
	</g>
	
	<g fill="#292F33">
		<circle r="1.5" cx="14.604" cy="18.5835"/>
		<circle r="1.5" cx="15.9478" cy="21.7813"/>
		<circle r="1.5" cx="18.292" cy="24.458"/>
		<circle r="1.5" cx="21.5625" cy="25.9375"/>
		<circle r="1.5" cx="25" cy="26.8232"/>
	</g>
	
	<g stroke="#292F33" stroke-width="1" stroke-linecap="round" fill="none">
		<path d="M 13.436,20.1025 L 12.826,17.878"/>
		<path d="M 14.9409,23.3828 L 14.1139,21.2293"/>
		<path d="M 17.9326,26.2441 L 16.2931,24.6216"/>
		<path d="M 21.9307,27.8066 L 19.8782,26.7561"/>
		<path d="M 25.9228,28.5625 L 23.6603,28.1145"/>
	</g>
	
	<g stroke="#BE1931" stroke-width="1.6" stroke-linecap="round" fill="none">
		<path d="M 14.5,18.6253 L 18.3335,17.7088"/>
		<path d="M 16,21.8123 L 19.542,19.9583"/>
		<path d="M 18.25,24.5003 L 21.208,21.9583"/>
		<path d="M 21.583,25.9998 L 23,23.2918"/>
		<path d="M 25.0312,26.9066 L 25.4172,24.1671"/>
	</g>
</svg>
