<svg viewBox="0 0 36 36" xmlns="http://www.w3.org/2000/svg">
	<path d="M 25,2.875 l -2.8,1.75 l 2.8,1.75 l -7,0.875 v-5.25 l 7,0.875 Z" fill="#FF8044"/>
	
	<path d="M 28,29 l 4,2 v4 h-28 v-4 l 4,-2 v-2 l 4,-1.938 v-4.062 l 2,-2 h0.123 s -0.732,-3.967 1.377,-5.449 v-1.551 l 1,-1 h3 l 1,1 v1.551 c 2.109,1.482 1.377,5.449 1.377,5.449 h0.123 l 2,2 v4.062 l 4,1.938 v2 Z" fill="#C7521E"/>
	
	<path d="M 1.022,0 h-2.045 s -0.172,-1.049 0.292,-1.523 v-0.521 l 0.292,-0.292 h0.064 c 0.086,-0.435 0.229,-1.314 0.229,-2.337 c 0,-0.584 0.292,-0.584 0.292,0 c 0,1.023 0.143,1.901 0.229,2.337 h0.063 l 0.292,0.292 v0.521 c 0.464,0.474 0.292,1.523 0.292,1.523 Z" transform="translate(3.053, 34)" fill="#C7521E"/>
	<path d="M 1.022,0 h-2.045 s -0.172,-1.049 0.292,-1.523 v-0.521 l 0.292,-0.292 h0.064 c 0.086,-0.435 0.229,-1.314 0.229,-2.337 c 0,-0.584 0.292,-0.584 0.292,0 c 0,1.023 0.143,1.901 0.229,2.337 h0.063 l 0.292,0.292 v0.521 c 0.464,0.474 0.292,1.523 0.292,1.523 Z" transform="translate(7.053, 29)" fill="#C7521E"/>
	<path d="M 1.022,0 h-2.045 s -0.172,-1.049 0.292,-1.523 v-0.521 l 0.292,-0.292 h0.064 c 0.086,-0.435 0.229,-1.314 0.229,-2.337 c 0,-0.584 0.292,-0.584 0.292,0 c 0,1.023 0.143,1.901 0.229,2.337 h0.063 l 0.292,0.292 v0.521 c 0.464,0.474 0.292,1.523 0.292,1.523 Z" transform="translate(11.053, 25)" fill="#C7521E"/>
	
	<path d="M 1.022,0 h-2.045 s -0.172,-1.049 0.292,-1.523 v-0.521 l 0.292,-0.292 h0.064 c 0.086,-0.435 0.229,-1.314 0.229,-2.337 c 0,-0.584 0.292,-0.584 0.292,0 c 0,1.023 0.143,1.901 0.229,2.337 h0.063 l 0.292,0.292 v0.521 c 0.464,0.474 0.292,1.523 0.292,1.523 Z" transform="translate(32.960, 34)" fill="#C7521E"/>
	<path d="M 1.022,0 h-2.045 s -0.172,-1.049 0.292,-1.523 v-0.521 l 0.292,-0.292 h0.064 c 0.086,-0.435 0.229,-1.314 0.229,-2.337 c 0,-0.584 0.292,-0.584 0.292,0 c 0,1.023 0.143,1.901 0.229,2.337 h0.063 l 0.292,0.292 v0.521 c 0.464,0.474 0.292,1.523 0.292,1.523 Z" transform="translate(28.960, 29)" fill="#C7521E"/>
	<path d="M 1.022,0 h-2.045 s -0.172,-1.049 0.292,-1.523 v-0.521 l 0.292,-0.292 h0.064 c 0.086,-0.435 0.229,-1.314 0.229,-2.337 c 0,-0.584 0.292,-0.584 0.292,0 c 0,1.023 0.143,1.901 0.229,2.337 h0.063 l 0.292,0.292 v0.521 c 0.464,0.474 0.292,1.523 0.292,1.523 Z" transform="translate(24.960, 25)" fill="#C7521E"/>
	
	<path d="M 17.5,3 c 0,-2 1,-2 1,0 c 0,5 1,9 1,9 h-3 s 1,-4 1,-9 Z" fill="#662113"/>
	<path d="M 19.846,19 h-3.692 s -0.615,-5 0.615,-5 h2.462 c 1.231,0 0.615,5 0.615,5 Z" fill="#662113"/>
	<path d="M 21,25 h-6 s 0,-4 1.5,-4 h3 c 1.5,0 1.5,4 1.5,4 Z" fill="#662113"/>
	<path d="M 22,29 h-8 s 0,-2 2,-2 h4 c 2,0 2,2 2,2 Z" fill="#662113"/>
	<path d="M 24,34 h-12 s 0,-3 3,-3 h6 c 3,0 3,3 3,3 Z" fill="#292F33"/>

	<path d="M 15.5,12 l 1,-1 h3 l 1,1 h-5 Z" fill="#FF8044"/>
	<path d="M 12,21 l 2,-2 h8 l 2,2 h-12 Z" fill="#FF8044"/>
	<path d="M 8,27 l 2,-2 h16 l 2,2 h-20 Z" fill="#FF8044"/>
	<path d="M 4,31 l 2,-2 h24 l 2,2 h-28 Z" fill="#FF8044"/>
	<path d="M 0,36 l 2,-2 h32 l 2,2 h-36 Z" fill="#FF8044"/>
	
	<path d="M 14,31 h1 v3 h-1 v-3 Z" fill="#FF8044"/>
	<path d="M 21,31 h1 v3 h-1 v-3 Z" fill="#FF8044"/>
	
	<rect x="14" y="25" width="8" height="2" rx="1" fill="#FFA06C"/>
	<rect x="13" y="29" width="10" height="2" rx="1" fill="#FFA06C"/>
	<rect x="11" y="34" width="14" height="2" rx="1" fill="#FFA06C"/>
</svg>
