<svg xmlns="http://www.w3.org/2000/svg" viewBox="0 0 36 36">
	<g>
		<path fill="#99AAB5" d="M 8,31 c -2.968,0 5,-15.311 5,-15.311 c 1.945,-0.887 7.032,-0.006 8.305,-0.048 c 3.86,-0.127 6.579,-1.305 10.331,0 s 4.364,4.685 4.364,8.359 c 0,0.815 -0.465,-0.9 -1.009,-1.661 c 0,0 0.451,3.642 -0.853,6.253 c -0.664,1.327 -1.632,2.556 -1.632,3.753 c 0,1.196 0.494,1.779 0.494,2.655 c 0,0.892 -1,0.981 -2,0.981 c -0.926,0 -3,0.019 -3,-0.981 c 0,-1.423 0.385,-2.394 -0.312,-2.083 c -1.73,0.771 -6.146,0.5 -7.771,-0.167 c -0.767,-0.314 -0.431,1.599 -0.428,1.933 c 0.01,1.112 -0.489,1.317 -2.489,1.317 c -1.741,0 -3,-0.012 -3,-1 s 0.919,-2.179 0.281,-3.781 c -1.281,-3.219 -3.281,-0.219 -6.281,-0.219 Z"/>
		<path fill="#99aab5" d="M 18,23 c -1.413,2.121 -6,8 -10,8 c -4.839,0 -5.484,-0.764 -6.281,-1.375 c -0.792,-0.607 -1.051,-2.042 -0.344,-2.531 c 0,0 -1.312,-1 -1.13,-3.287 c 0.185,-2.331 0.707,-2.611 0.707,-2.611 s 0.109,-0.924 0.652,-1.359 c 0.544,-0.435 1.686,0.163 1.686,0.163 s 3.045,-0.326 3.915,-1.305 s 2.556,-3.534 5.275,-3.534 s 3.045,1.577 4.024,2.066 c 0.978,0.489 2.911,3.652 1.496,5.773 Z"/>
		<path fill="#99aab5" d="M 8.2378,14.8887 c 0.095,-1.09 1.794,-0.652 2.175,0.979 s -0.42,1.167 -0.653,0.598 c -0.489,-1.196 -1.631,-0.326 -1.522,-1.577 Z"/>
		<path fill="#99aab5" d="M 12.3003,15.4868 c 0.258,-0.839 1.142,-1.958 2.338,-2.066 c 1.197,-0.109 1.523,0.979 1.088,1.468 c -0.435,0.49 -0.979,0.163 -1.305,0.109 c -0.327,-0.054 -1.088,0.489 -1.414,0.979 c -0.326,0.489 -0.924,0.217 -0.707,-0.49 Z"/>
	</g>
	<path fill="#F5F8FA" d="M 2.6914,29.6504 c -0.874,-0.185 -1.214,-0.948 -0.885,-2.216 c 0,0 1.005,0.862 1.662,0.816 c 0.215,1.146 -0.148,1.532 -0.777,1.4 Z"/>
	<path fill="#66757f" d="M 4.6011,28.918 c -1.148,0 -2.333,-0.432 -3.327,-1.279 c -0.157,-0.135 -0.175,-0.371 -0.041,-0.529 c 0.135,-0.157 0.371,-0.176 0.529,-0.042 c 1.306,1.116 3.371,1.658 5.038,0.355 c 0.497,-0.388 0.958,-1.104 1.446,-1.861 c 0.912,-1.416 1.945,-3.034 3.602,-2.863 c 0.207,0.02 0.357,0.203 0.337,0.409 s -0.205,0.353 -0.408,0.337 c -1.212,-0.127 -2.066,1.226 -2.901,2.523 c -0.523,0.812 -1.017,1.58 -1.614,2.047 c -0.774,0.604 -1.705,0.903 -2.661,0.903 Z"/>
	<path fill="#66757F" d="M 1.813,20.7402 c 0.611,-0.543 1.694,0.892 1.318,1.374 c -0.535,0.687 -2.308,-0.494 -1.318,-1.374 Z"/>
	<circle fill="#292F33" cx="10" cy="18.5" r="1"/>
</svg>
