<svg xmlns="http://www.w3.org/2000/svg" viewBox="0 0 36 36">
	<path d="M 13,15.689 c 1.945,-0.886 7.032,-0.006 8.304,-0.048 c 3.861,-0.127 6.58,-1.305 10.332,0 s 4.364,4.686 4.364,8.359 c 0,0.816 -0.465,-0.9 -1.008,-1.662 c 0,0 0.451,3.643 -0.854,6.253 c -0.664,1.328 -1.631,2.557 -1.631,3.753 c -0.001,1.197 0.493,1.78 0.493,2.656 c 0,0.892 -1,0.98 -2,0.98 c -0.926,0 -3,0.02 -3,-0.98 c 0,-1.423 0.385,-2.394 -0.312,-2.083 c -1.729,0.771 -6.146,0.5 -7.771,-0.167 c -0.766,-0.314 -0.43,1.598 -0.428,1.932 c 0.01,1.113 -0.489,1.318 -2.489,1.318 c -1.741,0 -3,-0.012 -3,-1 s 0.919,-2.179 0.281,-3.781 c -1.281,-3.219 -3.281,-0.219 -6.282,-0.219 c -2.968,0 5.001,-15.311 5.001,-15.311 Z"  fill="#99AAB5"/>
	<path d="M 3.29,20 s 3.045,-0.326 3.915,-1.305 s 2.556,-3.535 5.275,-3.535 s 3.045,1.577 4.024,2.066 c 0.978,0.49 2.91,3.653 1.496,5.774 s -6,8 -10,8 c -4.84,0 -5.485,-0.764 -6.281,-1.375 c -0.792,-0.607 -1.051,-2.042 -0.344,-2.531 c 0,0 -1.312,-1 -1.131,-3.287 c 0.185,-2.331 0.707,-2.61 0.707,-2.61 s 0.109,-0.924 0.653,-1.359 c 0.544,-0.436 1.686,0.162 1.686,0.162 Z"  fill="#9AAAB4"/>
	<path d="M 8.238,14.889 c 0.095,-1.09 1.794,-0.653 2.175,0.979 s -0.42,1.168 -0.653,0.598 c -0.489,-1.197 -1.631,-0.327 -1.522,-1.577 Z"  fill="#9AAAB4"/>
	<path d="M 12.3,15.487 c 0.258,-0.84 1.142,-1.958 2.338,-2.066 c 1.196,-0.109 1.523,0.979 1.088,1.468 s -0.979,0.163 -1.305,0.109 s -1.088,0.489 -1.414,0.979 c -0.326,0.489 -0.924,0.217 -0.707,-0.49 Z"  fill="#9AAAB4"/>
	
	<path d="M 2.691,29.65 c -0.874,-0.184 -1.213,-0.948 -0.886,-2.216 c 0,0 1.006,0.863 1.663,0.816 c 0.215,1.147 -0.148,1.532 -0.777,1.4 Z"  fill="#F5F8FA"/>
	<path d="M 4.601,28.918 c -1.148,0 -2.333,-0.432 -3.327,-1.279 c -0.157,-0.135 -0.176,-0.371 -0.042,-0.528 c 0.135,-0.157 0.372,-0.177 0.529,-0.042 c 1.306,1.115 3.371,1.657 5.039,0.354 c 0.497,-0.388 0.958,-1.104 1.446,-1.861 c 0.912,-1.416 1.945,-3.033 3.602,-2.862 c 0.207,0.02 0.357,0.203 0.337,0.409 c -0.02,0.205 -0.205,0.353 -0.409,0.337 c -1.212,-0.127 -2.066,1.226 -2.9,2.522 c -0.523,0.812 -1.017,1.58 -1.614,2.047 c -0.774,0.604 -1.705,0.903 -2.661,0.903 Z"  fill="#67757F"/>
	<path d="M 1.813,20.74 c 0.611,-0.543 1.694,0.891 1.318,1.374 c -0.535,0.687 -2.308,-0.494 -1.318,-1.374 Z"  fill="#66757F"/>
	<circle fill="#292F33" cx="10" cy="18.5" r="1"/>
</svg>
