<svg xmlns="http://www.w3.org/2000/svg" viewBox="0 0 36 36">
	<path d="M 31,22 c -3,11 -5.019,14 -13,14 c -8,0 -10,-3 -13,-14 c -2.035,-7.46 2,-14 13,-14 s 15.034,6.54 13,14 Z" fill="#F4900C"/>
	<path d="M 18,33 c -2,0 -7,0 -10.111,-2.577 c -0.779,-1.578 -1.479,-3.556 -2.204,-6.013 c 2.705,1.563 7.203,2.59 12.315,2.59 s 9.609,-1.027 12.314,-2.59 c -0.725,2.458 -1.428,4.438 -2.208,6.014 c -3.106,2.576 -8.106,2.576 -10.106,2.576 Z"   fill="#FFCC4D"/>
	<path d="M 29,11 c 2,4 -3,8 -11,8 s -13,-4 -11,-8 c 1.482,-2.964 4.373,-6 11,-6 s 9.519,3.036 11,6 Z"  fill="#BE1931"/>
	<path d="M 6,11 a 12,6 0 01 24,0 c 0,4 -5.373,6 -12,6 s -12,-2 -12,-6 Z" fill="#FFAC33"/>
	
	<path d=" M
27,10
 C 28,11 29,12
29,13
 C 29,14 28,16
27,15
 C 27,15 29.948,16.154
29,19
 C 28,22 25,21
25,19
 C 25,17 23.447,15.658
23,17
 C 22,20 20,20
19,19
 C 18,18 18,17
18,17
 C 18,17 15,17
16,15
 C 17,13 16,13
16,13
 C 16,13 16,12

17,12
 C 18,12 24,11
25,10
 C 26,9 27,10
27,10
 Z"   fill="#FFE8B6"/>
		
	<path d="M 18,5 c 5.523,0 10,1.67 10,4.278 a 10,4.722 0 01 -10,4.722 a 10,4.722 0 01 -10,-4.722 c 0,-2.608 4.477,-4.278 10,-4.278 Z"    fill="#662113"/>
	
	<path d="M 18,14 c -0.547,0 -1.08,-0.026 -1.603,-0.066 c 0.19,-0.923 -1.397,-2.934 -1.397,-2.934 s 1,-1 2,-1 s 6,0 7,-1 s 3,1 3,1 c 0.201,0.201 0.4,0.402 0.593,0.604 c -1.214,1.961 -5.045,3.396 -9.593,3.396 Z" fill="#F4900C"/>
	
	<path d="M 26,8.5 a 8,3.5 0 01 -16,0 c 0,-1.933 3.582,-5.5 8,-5.5 s 8,3.567 8,5.5 Z" fill="#FFCC4D"/>	
	
	<ellipse fill="#F4900C" cx="18" cy="2.5" rx="2" ry="1.5"/>
</svg>
