<svg xmlns="http://www.w3.org/2000/svg" viewBox="0 0 36 36">
	<path d="M 23.2832,23.2754 c 0,3.716 -3.624,5.255 -7.278,5.319 c -3.979,2.31 -4.306,4.823 -6.225,6.223 c -3.528,2.574 -7.714,0.316 -8.844,-3.021 c -0.857,-2.528 0.716,-4.676 3.805,-11.292 c 4.045,-8.662 5.122,-11.306 8.558,-13.342 c -1.595,-2.489 -1.995,-3.749 -2.359,-4.862 c -0.622,-1.905 0.516,-1.069 1.235,-0.35 c 0.739,0.74 6.147,3.74 6.147,3.74 c 7.278,-2.431 13.291,-1.715 17.678,1.757 v28.553 h-9.767 c -0.015,-0.903 -0.074,-1.795 -0.217,-2.678 c -1.359,-8.412 -2.733,-10.047 -2.733,-10.047 Z" fill="rgb(193,105,79)"/>
	<path d="M 10.3545,9.9243 c 1.716,0.924 1.867,3.941 0.155,6.068 c -1.711,2.126 -4.253,5.912 -4.926,7.778 c -0.661,1.829 -2.318,3.497 -3.946,3.272 c 0.696,-1.592 1.76,-3.635 3.116,-6.538 c 2.569,-5.502 3.947,-8.572 5.49,-10.604 c 0.036,0.009 0.078,0.006 0.111,0.024 Z" fill="rgb(217,158,130)"/>
	<path d="M 36,6.0122 v7.346 c -4.23,-5.627 -10.49,-9.03 -20.091,-7.168 c -1.555,-4.717 11.756,-5.889 20.091,-0.178 Z" fill="rgb(41,47,51)"/>
	<path d="M 19.6631,5.7627 c -2.878,0.233 -7.157,1.595 -9.296,3.967 c 0,0 -0.129,-5.147 3.566,-5.613 c 6.171,-0.779 5.808,0.362 5.808,0.362 l -0.078,1.284 Z" fill="rgb(41,47,51)"/>
	<path d="M 16.3569,1.0562 c 0.558,1.155 4.006,1.79 5.056,6.029 c 1.051,4.24 -3.134,2.95 -4.356,0.855 c -1.362,-2.333 -1.828,-4.161 -1.867,-5.678 c -0.021,-0.802 0.039,-3.539 1.167,-1.206 Z" fill="rgb(193,105,79)"/>
	<path d="M 16.5962,2.8384 c 1.103,0.968 2.448,2.472 2.65,3.955 s -1.125,0.988 -1.736,-0.372 c -0.612,-1.359 -0.753,-2.779 -1.134,-3.233 c -0.38,-0.454 0.22,-0.35 0.22,-0.35 Z" fill="rgb(102,33,19)"/>
	<ellipse cx="3.0352" cy="29.916" rx="1.1865" ry="1.595" fill="rgb(102,33,19)"/>
	<circle cx="15.6954" cy="15.5249" r="1.2445" fill="rgb(41,47,51)"/>
</svg>
