<svg xmlns="http://www.w3.org/2000/svg" viewBox="0 0 36 36">
	rot 45
	<g>
		<path d="M 31.4203,31.4706 c -3.515,3.515 -9.213,3.515 -12.728,0 l -14.142,-14.142 c -3.515,-3.515 -3.515,-9.213 0,-12.728 s 9.213,-3.515 12.728,0 l 14.142,14.142 c 3.515,3.515 3.515,9.213 0,12.728 Z" fill="#d99e82"/>
		<path d="M 29.3346,20.8995 c 3.515,3.515 4.609,8.119 2.475,10.253 c -2.135,2.134 -6.739,1.04 -10.253,-2.475 l -14.142,-14.142 c -3.515,-3.515 -4.609,-8.119 -2.475,-10.253 s 6.738,-1.04 10.253,2.475 l 14.142,14.142 Z" fill="#f7bba6"/>
	</g>
	<g>
		<path d="M 33.1669,28.9745 c 1.415,1.415 1.611,3.51 0.44,4.682 c -1.172,1.171 -3.268,0.976 -4.683,-0.439 l -26.191,-26.192 c -1.415,-1.414 -1.611,-3.511 -0.44,-4.682 c 1.171,-1.172 3.268,-0.975 4.682,0.439 l 26.192,26.192 Z" fill="#dd2e44"/>
	</g>
	<g>
		<path d="M 5.2574,3.8934 c 2.238,2.238 0.824,3.652 3.062,5.89 c 2.237,2.238 3.651,0.823 5.889,3.061 c 2.237,2.237 0.823,3.652 3.061,5.889 c 2.24,2.24 3.654,0.826 5.893,3.065 c 2.242,2.242 0.827,3.656 3.069,5.897 c 2.241,2.241 3.655,0.827 5.896,3.068"/>
	</g>
</svg>
