<svg xmlns="http://www.w3.org/2000/svg" viewBox="0 0 36 36">
	<path d="M 1,27 A 17,9 0 01 4.445,21.569 A 15,8 0 00 3,25 A 15,8 0 00 33,25 A 15,8 0 00 31.555,21.569 A 17,9 0 01 35,27 A 17,9 0 01 1,27 Z"  fill="#DD2E44"/> <!-- this is an ellipse with another ellipse cut out -->
	<path d="M 1,-24 s -2,2 -2,6 s 5,6 5,11 s -4,7 -4,7" stroke-width="3" stroke-linecap="round" stroke-linejoin="round" fill="none" transform="translate(9 26)" stroke="#DD2E44"/>
	<path d="M 1,-24 s -2,2 -2,6 s 5,6 5,11 s -4,7 -4,7" stroke-width="3" stroke-linecap="round" stroke-linejoin="round" fill="none" transform="translate(16 26)" stroke="#DD2E44"/>
	<path d="M 1,-24 s -2,2 -2,6 s 5,6 5,11 s -4,7 -4,7" stroke-width="3" stroke-linecap="round" stroke-linejoin="round" fill="none" transform="translate(23 26)" stroke="#DD2E44"/>
</svg>
