<svg xmlns="http://www.w3.org/2000/svg" viewBox="0 0 36 36">
	<path d="M 21,18 c 0,2 3.246,3.369 5,6 c 2,3 2,10 2,10 h-20 s 0,-7 2,-10 c 1.754,-2.631 5,-4 5,-6 s -3.246,-3.369 -5,-6 c -2,-3 -2,-10 -2,-10 h20 s 0,7 -2,10 c -1.754,2.631 -5,4 -5,6 Z" fill="#ffe8b6"/>
	<path d="M 10,2 h16 s 0,4 -1,7 c -1.303,3.911 -6,5 -6,9 s 0,13 -1,13 s -1,-9 -1,-13 s -4.697,-5.089 -6,-9 c -1,-3 -1,-7 -1,-7 Z" fill="#ffac33"/>
	<rect x="6" y="0" width="24" height="4" rx="2"  fill="#3B88C3"/>
	<rect x="6" y="32" width="24" height="4" rx="2"  fill="#3B88C3"/>
</svg>
