<svg xmlns="http://www.w3.org/2000/svg" viewBox="0 0 36 36">
	<path d="M 21,18 c 0,2 3.246,3.369 5,6 c 2,3 2,10 2,10 h-20 s 0,-7 2,-10 c 1.754,-2.631 5,-4 5,-6 s -3.246,-3.369 -5,-6 c -2,-3 -2,-10 -2,-10 h20 s 0,7 -2,10 c -1.754,2.631 -5,4 -5,6 Z" fill="#ffe8b6"/>
	<path d="M 21,24 c 2,0 3.595,1.784 4,3 c 1,3 1,7 1,7 h-16 s 0,-4 1,-7 c 0.405,-1.216 2,-3 4,-3 c 1,0 2.058,-1 2.058,-2 c -0.058,-1.712 -0.058,-2.846 -0.058,-4 c 0,-3.22 -3.034,-4.562 -4.9,-7 h11.8 c -1.866,2.438 -4.9,3.78 -4.9,7 c 0,1.154 0,2.288 -0.058,4 c 0,1 1.058,2 2.058,2 Z" fill="#ffac33"/>
	
	<rect width="24" height="4" rx="2" x="6" y="0" fill="#3b88c3"/>
	<rect width="24" height="4" rx="2" x="6" y="32" fill="#3b88c3"/>
</svg>
