<svg xmlns="http://www.w3.org/2000/svg" viewBox="0 0 36 36">
	<!-- honestly i would just revert this to the old design but without the background layer. hate all of these: ðŸ˜ï¸ ðŸšï¸ ðŸ  ðŸ¡. the second roof line looks too much like the crack in Derelect House, so i get them all confused. -->
	
	<path d="M 23.216,9.624 l 5.742,-5.742 l 5.743,5.742 v8.133 h-11.485 v-8.133 Z"  fill="#FFCC4D"/>
	<path d="M 10.537,5.259 l 8.296,8.296 v12.157 h-16.592 v-12.157 l 8.296,-8.296 Z"  fill="#FFCC4D"/>
	
	<path d="M 27.318,11.265 h3.281 v6.492 h-3.281 v-6.492 Z"  fill="#662113"/>
	<path d="M 8.463,15.629 h4.148 v10.083 h-4.148 v-10.083 Z"  fill="#662113"/>
	
	<path d="M 24.857,11.265 h1.641 v1.641 h-1.641 v-1.641 Z"  fill="#3B88C3"/>
	<path d="M 31.419,11.265 h1.641 v1.641 h-1.641 v-1.641 Z"  fill="#3B88C3"/>
	<path d="M 31.419,13.726 h1.641 v1.641 h-1.641 v-1.641 Z"  fill="#3B88C3"/>
	<path d="M 4.315,15.629 h3.111 v3.111 h-3.111 v-3.111 Z"  fill="#3B88C3"/>
	<path d="M 4.315,19.777 h3.111 v3.111 h-3.111 v-3.111 Z"  fill="#3B88C3"/>
	
	<path d="M 1.537,24.962 h18 v1.5 h-18 c -0.414,0 -0.75,-0.335 -0.75,-0.75 c 0,-0.414 0.336,-0.75 0.75,-0.75 Z"  fill="#292F33"/>
	<path d="M 35.208,17.007 c 0.415,0 0.75,0.335 0.75,0.75 c 0,0.414 -0.336,0.75 -0.75,0.75 h-12.5 v-1.5 h12.5 Z"  fill="#292F33"/>
	
	<path d="M 34.701,10.445 c -0.21,0 -0.42,-0.08 -0.58,-0.24 l -5.162,-5.162 l -5.162,5.162 c -0.32,0.32 -0.84,0.32 -1.16,0 s -0.32,-0.84 0,-1.16 l 5.742,-5.742 c 0.32,-0.32 0.84,-0.32 1.16,0 l 5.742,5.742 c 0.32,0.32 0.32,0.84 0,1.16 c -0.161,0.159 -0.371,0.24 -0.58,0.24 Z"  fill="#292F33"/>
	<path d="M 19.87,15.629 c -0.265,0 -0.531,-0.101 -0.733,-0.304 l -8.6,-8.6 l -8.6,8.6 c -0.405,0.405 -1.061,0.405 -1.466,0 s -0.405,-1.061 0,-1.466 l 9.333,-9.333 c 0.405,-0.405 1.061,-0.405 1.466,0 l 9.333,9.333 c 0.405,0.405 0.405,1.061 0,1.466 c -0.202,0.202 -0.467,0.304 -0.733,0.304 Z"  fill="#292F33"/>
	
	<!-- fg -->
	<path d="M 21.477,8.438 l 10.523,10.557 v14.519 h-21.046 v-14.519 l 10.523,-10.557 Z"  fill="#FFE8B6"/>
	
	<path d="M 21,19 h1 v14.5 h-1 v-14.5 Z"  fill="#FFCC4D"/>
	<path d="M 14,27 h4 v6.5 h-4 v-6.5 Z"  fill="#C1694F"/>
	<path d="M 14,20 h4 v4 h-4 v-4 Z"  fill="#55ACEE"/>
	<path d="M 25,20 h4 v4 h-4 v-4 Z"  fill="#55ACEE"/>
	<path d="M 25,27 h4 v4 h-4 v-4 Z"  fill="#55ACEE"/>
	
	<rect x="9" y="33.008" width="25" height="2.006" rx="1" ry="1.003"  fill="#66757F"/>
	<path d="M 21,19.603 c -0.256,0 -0.512,-0.098 -0.707,-0.293 c -0.391,-0.391 -0.391,-1.023 0,-1.414 l 6.5,-6.5 l 1.414,1.414 l -6.5,6.5 c -0.195,0.196 -0.451,0.293 -0.707,0.293 Z"  fill="#66757F"/>
	<path d="M 32.884,19.603 c -0.265,0 -0.531,-0.101 -0.733,-0.304 l -10.674,-10.674 l -10.674,10.674 c -0.405,0.405 -1.061,0.405 -1.466,0 s -0.405,-1.061 0,-1.466 l 11.407,-11.407 c 0.405,-0.405 1.061,-0.405 1.466,0 l 11.407,11.407 c 0.405,0.405 0.405,1.061 0,1.466 c -0.202,0.203 -0.467,0.304 -0.733,0.304 Z"  fill="#66757F"/>
</svg>
