<svg xmlns="http://www.w3.org/2000/svg" viewBox="0 0 36 36">
	<path d="M 0,32 c 0,4 4,4 4,4 h28 c 4,0 4,-4 4,-4 v-17 h-36 v17 Z"   fill="#77b255"/>
	
	<path d="M 21,10 v9 h14 v-9 l -7,-7 l -7,7 Z"   fill="#ffcc4d"/>
	<path d="M 2,15 v11 h16 v-11 l -8,-8 l -8,8 Z"   fill="#ffcc4d"/>
	
	<path d="M 22,19 v-9 h-1 v9 h1 Z"   fill="#ffac33"/>
	<path d="M 34,19 h1 v-9 h-1 v9 Z"   fill="#ffac33"/>
	<path d="M 3,26 v-11 h-1 v11 h1 Z"   fill="#ffac33"/>
	<path d="M 17,26 h1 v-11 h-1 v11 Z"   fill="#ffac33"/>
	
	<path d="M 30,19 v-7 h-4 v7 h4 Z"   fill="#662113"/>
	<path d="M 12,26 v-9 h-4 v9 h4 Z"   fill="#662113"/>
	
	<path d="M 25,14 v-2 h-2 v2 h2 Z"   fill="#3b88c3"/>
	<path d="M 33,14 v-2 h-2 v2 h2 Z"   fill="#3b88c3"/>
	<path d="M 25,17 v-2 h-2 v2 h2 Z"   fill="#3b88c3"/>
	<path d="M 33,17 v-2 h-2 v2 h2 Z"   fill="#3b88c3"/>
	<path d="M 7,20 v-3 h-3 v3 h3 Z"   fill="#3b88c3"/>
	<path d="M 16,20 v-3 h-3 v3 h3 Z"   fill="#3b88c3"/>
	<path d="M 7,24 v-3 h-3 v3 h3 Z"   fill="#3b88c3"/>
	<path d="M 16,24 v-3 h-3 v3 h3 Z"   fill="#3b88c3"/>
	
	<path d="M 1,16 l 9,-9 l 9,9" stroke-width="2" stroke-linecap="round" stroke-linejoin="round" fill="none" stroke="#292F33"/>
	<path d="M 21,10 l 7,-7 l 7,7" stroke-width="2" stroke-linecap="round" stroke-linejoin="round" fill="none" stroke="#292F33"/>
	
	<path d="M 10,19 v14 h20 v-14 l -10,-10 l -10,10 Z"   fill="#ffe8b6"/>
	<path d="M 11,33 v-14 h-1 v14 h1 Z"   fill="#ffcc4d"/>
	<path d="M 29,33 h1 v-14 h-1 v14 Z"   fill="#ffcc4d"/>
	
	<path d="M 9,20 l 11,-11 l 11,11" stroke-width="2" stroke-linecap="round" stroke-linejoin="round" fill="none" stroke="#66757f"/>
	
	<path d="M 22,33 v-6 h-4 v6 h4 Z"   fill="#c1694f"/>
	<path d="M 16,25 v-4 h-4 v4 h4 Z"   fill="#55acee"/>
	<path d="M 28,25 v-4 h-4 v4 h4 Z"   fill="#55acee"/>
	<path d="M 22,25 v-4 h-4 v4 h4 Z"   fill="#55acee"/>
	<path d="M 16,31 v-4 h-4 v4 h4 Z"   fill="#55acee"/>
	<path d="M 28,31 v-4 h-4 v4 h4 Z"   fill="#55acee"/>
</svg>
