<svg xmlns="http://www.w3.org/2000/svg" viewBox="0 0 36 36">
	<g fill="#be1931">
		<path d="M 1.7275,21 c -0.617,0 -0.953,-0.256 -1.127,-0.471 c -0.171,-0.211 -0.348,-0.585 -0.225,-1.165 l 2.728,-12.706 l -1.714,0.097 h-0.013 c -0.516,0 -0.892,-0.167 -1.127,-0.458 c -0.219,-0.272 -0.298,-0.621 -0.221,-0.981 c 0.151,-0.701 0.883,-1.285 1.668,-1.329 l 4.008,-0.227 c 0.077,-0.005 0.149,-0.008 0.216,-0.008 c 0.147,0 0.536,0 0.784,0.307 c 0.252,0.312 0.166,0.709 0.138,0.839 l -3.124,14.556 c -0.187,0.884 -0.919,1.489 -1.866,1.542 l -0.125,0.004 Z"/>
		<path d="M 15.8853,5.2544 c 0.534,0 0.956,0.187 1.253,0.556 c 0.653,0.807 0.749,2.479 0.27,4.708 c -0.764,3.562 -2.378,5.754 -4.318,5.863 l -0.14,0.004 c -0.532,0 -0.952,-0.186 -1.249,-0.554 c -0.653,-0.808 -0.75,-2.479 -0.273,-4.707 c 0.765,-3.562 2.38,-5.755 4.32,-5.866 l 0.137,-0.004 ZM 12.4713,19.0004 c 0.109,0 0.22,-0.003 0.332,-0.01 c 3.695,-0.21 6.872,-3.584 7.904,-8.394 c 0.589,-2.746 0.285,-4.958 -0.878,-6.397 c -0.887,-1.097 -2.203,-1.639 -3.793,-1.549 c -3.694,0.208 -6.87,3.583 -7.902,8.395 c -0.589,2.745 -0.285,4.958 0.878,6.396 c 0.824,1.02 2.02,1.559 3.459,1.559 Z"/>
		<path d="M 30.8867,3.6138 c 0.535,0 0.957,0.187 1.256,0.557 c 0.652,0.808 0.749,2.48 0.269,4.707 c -0.764,3.563 -2.379,5.755 -4.318,5.864 l -0.14,0.004 c -0.532,0 -0.954,-0.187 -1.251,-0.555 c -0.653,-0.807 -0.75,-2.48 -0.272,-4.708 c 0.765,-3.561 2.38,-5.754 4.32,-5.865 l 0.136,-0.004 ZM 27.4757,17.3618 c 0.108,0 0.218,-0.002 0.329,-0.01 c 3.696,-0.213 6.871,-3.587 7.902,-8.396 c 0.589,-2.745 0.285,-4.957 -0.878,-6.397 c -0.886,-1.096 -2.187,-1.639 -3.79,-1.549 c -3.694,0.208 -6.87,3.582 -7.903,8.395 c -0.589,2.745 -0.285,4.957 0.878,6.396 c 0.825,1.021 2.022,1.561 3.462,1.561 Z"/>
	</g>
	<!--<path fill="#BB1A34" d="M 11.0005,35.001 c -0.81,0 -1.572,-0.496 -1.873,-1.299 c -0.388,-1.034 0.136,-2.186 1.17,-2.575 c 0.338,-0.126 8.4,-3.108 20.536,-4.12 c 1.102,-0.096 2.068,0.726 2.16,1.827 c 0.091,1.101 -0.727,2.067 -1.827,2.159 c -11.59,0.966 -19.387,3.851 -19.464,3.88 c -0.231,0.086 -0.469,0.128 -0.702,0.128 Z"/>
		<path fill="#BB1A34" d="M 2.0015,29 c -0.804,0 -1.562,-0.488 -1.868,-1.283 c -0.396,-1.031 0.118,-2.188 1.149,-2.583 c 0.542,-0.209 13.515,-5.126 32.612,-6.131 c 1.113,-0.069 2.045,0.789 2.103,1.892 s -0.789,2.044 -1.892,2.102 c -18.423,0.97 -31.261,5.821 -31.389,5.87 c -0.235,0.09 -0.477,0.133 -0.715,0.133 Z"/>-->
	
	
	<g stroke-width="4" stroke-linecap="round" fill="none" stroke="#be1931">
		<path d="M 2,27 s 13,-5 32,-6"/>
		<path d="M 11,33 s 8,-3 20,-4"/>
	</g>
</svg>
