<svg xmlns="http://www.w3.org/2000/svg" viewBox="0 0 36 36">
	<path d="M 1.728,21 c -0.617,0 -0.953,-0.256 -1.127,-0.471 c -0.171,-0.211 -0.348,-0.585 -0.225,-1.165 l 2.728,-12.706 l -1.714,0.097 h-0.013 c -0.517,0 -0.892,-0.168 -1.127,-0.459 c -0.22,-0.272 -0.299,-0.621 -0.221,-0.98 c 0.15,-0.702 0.883,-1.286 1.667,-1.329 l 4.008,-0.227 c 0.078,-0.005 0.15,-0.008 0.217,-0.008 c 0.147,0 0.536,0 0.783,0.306 c 0.252,0.312 0.167,0.709 0.139,0.839 l -3.124,14.557 c -0.187,0.884 -0.919,1.489 -1.866,1.542 l -0.125,0.004 Z"  fill="#BB1A34"/>
	<path d="M 12.471,19 c -1.439,0 -2.635,-0.539 -3.459,-1.559 c -1.163,-1.439 -1.467,-3.651 -0.878,-6.397 c 1.032,-4.812 4.208,-8.186 7.902,-8.395 c 1.59,-0.089 2.906,0.452 3.793,1.549 c 1.163,1.439 1.467,3.651 0.878,6.397 c -1.032,4.81 -4.208,8.184 -7.904,8.394 c -0.112,0.008 -0.223,0.011 -0.332,0.011 Z M 15.885,5.254 l -0.137,0.004 c -1.94,0.111 -3.555,2.304 -4.32,5.866 c -0.478,2.228 -0.381,3.899 0.272,4.707 c 0.297,0.368 0.717,0.555 1.249,0.555 l 0.14,-0.004 c 1.94,-0.109 3.554,-2.301 4.318,-5.864 c 0.478,-2.228 0.382,-3.9 -0.27,-4.708 c -0.296,-0.369 -0.718,-0.556 -1.252,-0.556 Z"   fill="#BB1A34"/>
	<path d="M 27.476,17.361 c -1.439,0 -2.637,-0.539 -3.462,-1.56 c -1.163,-1.439 -1.467,-3.651 -0.878,-6.397 c 1.033,-4.813 4.209,-8.186 7.903,-8.394 c 1.603,-0.09 2.903,0.453 3.79,1.549 c 1.163,1.439 1.467,3.651 0.878,6.396 c -1.031,4.809 -4.206,8.183 -7.902,8.396 c -0.112,0.008 -0.221,0.01 -0.329,0.01 Z M 30.887,3.614 l -0.136,0.004 c -1.941,0.111 -3.556,2.304 -4.32,5.865 c -0.478,2.229 -0.381,3.901 0.272,4.708 c 0.297,0.368 0.719,0.555 1.251,0.555 l 0.14,-0.004 c 1.939,-0.109 3.554,-2.302 4.318,-5.864 c 0.479,-2.227 0.383,-3.899 -0.27,-4.707 c -0.298,-0.37 -0.72,-0.557 -1.255,-0.557 Z"   fill="#BB1A34"/>
	<path d="M 11,35.001 c -0.81,0 -1.572,-0.496 -1.873,-1.299 c -0.388,-1.034 0.136,-2.187 1.17,-2.575 c 0.337,-0.126 8.399,-3.108 20.536,-4.12 c 1.101,-0.096 2.067,0.727 2.159,1.827 c 0.092,1.101 -0.727,2.067 -1.827,2.159 c -11.59,0.966 -19.386,3.851 -19.464,3.88 c -0.23,0.086 -0.468,0.128 -0.701,0.128 Z"  fill="#BB1A34"/>
	<path d="M 2.001,29 c -0.804,0 -1.563,-0.488 -1.868,-1.283 c -0.396,-1.031 0.118,-2.188 1.149,-2.583 c 0.542,-0.209 13.516,-5.126 32.612,-6.131 c 1.113,-0.069 2.045,0.789 2.103,1.892 c 0.059,1.103 -0.789,2.045 -1.892,2.103 c -18.423,0.97 -31.261,5.821 -31.389,5.87 c -0.235,0.089 -0.477,0.132 -0.715,0.132 Z"  fill="#BB1A34"/>
	</svg>
