<svg xmlns="http://www.w3.org/2000/svg" viewBox="0 0 36 36">
	<path d="M 31,18 c 1.1,0 2,0.9 2,2 v15 c 0,0.55 -0.45,1 -1,1 h-28 c -0.55,0 -1,-0.45 -1,-1 v-15 c 0,-1.1 0.9,-2 2,-2 h26 Z"  fill="#D99E82"/>
	<path d="M 14,26 h8 v10 h-8 v-10 Z"  fill="#662113"/>
	<path d="M 33,24.671 c -0.117,0.108 -0.262,0.206 -0.446,0.207 c -0.447,0 -0.804,-0.458 -0.804,-0.458 s -0.134,0.416 -0.759,0.458 s -0.848,-0.458 -0.848,-0.458 s -0.044,0.5 -0.759,0.5 s -0.938,-0.542 -0.938,-0.542 s -0.268,0.541 -0.982,0.583 c -0.714,0.041 -0.714,-0.542 -0.714,-0.542 s -0.134,0.542 -0.759,0.542 c -0.624,0 -0.803,-0.583 -0.803,-0.583 s -0.178,0.541 -0.848,0.583 s -0.759,-0.625 -0.759,-0.625 s -0.133,0.459 -0.803,0.542 c -0.669,0.083 -0.714,-0.5 -0.714,-0.5 s -0.267,0.584 -0.803,0.542 s -0.759,-0.542 -0.759,-0.542 s -0.179,0.5 -0.938,0.542 c -0.759,0.041 -0.804,-0.542 -0.804,-0.542 s -0.357,0.542 -0.982,0.542 s -0.625,-0.542 -0.625,-0.542 s -0.223,0.5 -0.893,0.5 s -0.67,-0.542 -0.67,-0.542 s -0.313,0.583 -0.893,0.583 c -0.581,0 -0.67,-0.542 -0.67,-0.542 s -0.268,0.417 -0.848,0.417 c -0.581,0 -0.938,-0.5 -0.938,-0.5 s -0.312,0.459 -0.848,0.417 c -0.536,-0.041 -0.759,-0.458 -0.759,-0.458 s -0.044,0.584 -0.803,0.542 s -0.893,-0.5 -0.893,-0.5 s -0.223,0.542 -0.848,0.5 s -0.804,-0.542 -0.804,-0.542 s -0.134,0.5 -0.804,0.5 s -1.027,-0.5 -1.027,-0.5 s -0.357,0.666 -0.848,0.583 c -0.491,-0.084 -0.982,-0.542 -0.982,-0.542 s -0.305,0.237 -0.625,0.37 v-2.34 h30 v2.347 Z"  fill="#C1694F"/>
	<path d="M 5,36 h-1 c -0.552,0 -1,-0.448 -1,-1 v-14 h2 v15 Z  M 32,36 h-1 v-15 h2 v14 c 0,0.552 -0.448,1 -1,1 Z"  fill="#6621134D"/>
	<path d="M 5,21 h5 v15 h-5 v-15 Z M 26,21 h5 v15 h-5 v-15 Z"  fill="#66211326"/>
	
	<path d="M 4.958,27.292 s 0.083,0.875 0.083,1.875 s -0.083,5.792 -0.083,5.792 c -0.917,-2 0,-7.667 0,-7.667 Z M 31,26.417 s 0.958,7 0.042,9 c 0,0 -0.241,-5.5 -0.241,-6.5 s 0.199,-2.5 0.199,-2.5 Z"  fill="#C1694FE6"/>
	<path d="M 9.958,25.667 s 0.125,1.875 0.125,2.875 s -0.083,7.125 -0.083,7.125 c -0.917,-2 -0.042,-10 -0.042,-10 Z M 25.926,25.375 s 0.991,7.375 0.074,9.375 c 0,0 -0.157,-4.542 -0.157,-5.542 s 0.083,-3.833 0.083,-3.833 Z"  fill="#C1694FB3"/>
	
	<path d="M 16.997,5.203 s -1.003,-1.274 -0.821,-1.813 c 0.148,-0.437 0.775,-0.343 0.867,0 c 0,0 0.182,-0.784 0.593,-0.882 c 0.41,-0.098 0.593,0.735 0.593,0.735 s 0.365,-0.735 0.775,-0.588 s 0.137,0.931 0.137,0.931 s 0.319,-0.539 0.775,-0.196 s -1.231,2.058 -1.231,2.058 s -1.368,0.294 -1.688,-0.245 Z"  fill="#FFD983"/>
	<path d="M 1.582,22.303 l 3.238,-0.686 l 29.052,0.098 l 1.14,1.029 s 0.183,0.784 -0.456,0.931 c -0.638,0.147 -0.912,-0.588 -0.912,-0.588 s -0.274,0.637 -0.73,0.637 s -0.821,-0.539 -0.821,-0.539 s -0.136,0.49 -0.775,0.539 s -0.867,-0.539 -0.867,-0.539 s -0.045,0.588 -0.775,0.588 s -0.958,-0.637 -0.958,-0.637 s -0.273,0.637 -1.003,0.686 s -0.73,-0.637 -0.73,-0.637 s -0.136,0.637 -0.775,0.637 s -0.821,-0.686 -0.821,-0.686 s -0.182,0.637 -0.866,0.686 s -0.775,-0.735 -0.775,-0.735 s -0.137,0.539 -0.821,0.637 s -0.73,-0.588 -0.73,-0.588 s -0.274,0.686 -0.821,0.637 s -0.775,-0.637 -0.775,-0.637 s -0.183,0.588 -0.958,0.637 s -0.821,-0.637 -0.821,-0.637 s -0.364,0.637 -1.003,0.637 s -0.639,-0.637 -0.639,-0.637 s -0.228,0.588 -0.912,0.588 s -0.684,-0.637 -0.684,-0.637 s -0.319,0.686 -0.912,0.686 s -0.684,-0.637 -0.684,-0.637 s -0.274,0.49 -0.867,0.49 s -0.958,-0.588 -0.958,-0.588 s -0.319,0.539 -0.866,0.49 s -0.775,-0.539 -0.775,-0.539 s -0.046,0.686 -0.821,0.637 s -0.912,-0.588 -0.912,-0.588 s -0.228,0.637 -0.867,0.588 s -0.821,-0.637 -0.821,-0.637 s -0.137,0.588 -0.821,0.588 s -1.049,-0.588 -1.049,-0.588 s -0.366,0.784 -0.867,0.686 s -1.003,-0.637 -1.003,-0.637 s -0.638,0.588 -1.049,0.539 s -0.958,-0.539 -0.73,-1.274 Z"  fill="#FFD983"/>
	<path d="M 18.242,4.234 c 1.193,0.87 5.855,4.785 9.428,8.098 c 3.041,2.821 6.631,7.847 8.193,9.703 c 0.309,0.367 0.063,0.951 -0.398,0.951 h-34.928 c -0.449,0 -0.7,-0.554 -0.416,-0.928 c 1.091,-1.433 3.487,-5.248 7.162,-8.794 c 4.634,-4.472 9.2,-8.214 10.379,-9.037 c 0.18,-0.125 0.403,-0.122 0.58,0.007 Z"  fill="#FFD983"/>
	
	<path d="M 16.085,7.064 s -6.795,6.321 -7.89,7.496 c -1.095,1.176 -5.245,6.762 -5.245,6.762 s 2.235,-4.557 4.424,-6.909 s 8.711,-7.349 8.711,-7.349 Z M 21.604,8.632 s 2.417,2.94 3.512,4.115 c 1.095,1.176 4.834,8.33 4.834,8.33 s -3.512,-5.293 -4.743,-7.154 c -0.897,-1.355 -3.603,-5.291 -3.603,-5.291 Z M 15.492,9.269 l -2.325,4.263 c -0.783,1.434 -3.74,6.468 -3.74,6.468 s 0.747,-3.215 2.051,-5.44 c 1.323,-2.253 4.014,-5.291 4.014,-5.291 Z M 19.141,10.151 s 0.755,2.38 1.095,4.703 c 0.365,2.498 0.684,6.86 0.684,6.86 s -0.685,-3.626 -1.095,-5.929 c -0.46,-2.582 -0.684,-5.634 -0.684,-5.634 Z"  fill="#FFAC33"/>
</svg>
