<svg xmlns="http://www.w3.org/2000/svg" viewBox="0 0 36 36">
	another one where i totally changed the colors.
	purple seemed nice, it's not used very often
	(also the official blue palette is more of a cyan/aqua color which didn't fit very well)
	
	some of these shapes are oddly well grid aligned, this needs more investigation...
	
	stem
	<rect width="2" height="13.5" rx="1" x="16" y="22" fill="#A06253"/>
	leaves
	<g>
		<g fill="#A6D388">
			<path d="M 16,36 h-2 c -0.393,-6.101 -3.456,-11.22 -7.526,-15.606 c -0.371,-0.393 0.124,-1.046 0.6,-0.8 c 5.967,2.889 9.495,9.91 8.926,16.406 Z"/>
			<path d="M 27.495,21.212 c 0.522,-0.134 0.857,0.606 0.417,0.909 c -4.484,3.381 -8.302,8.184 -8.912,13.879 h-2 c -0.361,-6.423 4.245,-13.119 10.495,-14.788 Z"/>
		</g>
		<g fill="#77B255">
			<path d="M 16,36 c -0.339,-3.845 -3.272,-6.763 -6.883,-7.81 c -1.22,-0.39 -2.509,-0.595 -3.886,-0.663 c -0.527,-0.007 -0.665,-0.789 -0.181,-0.98 c 4.417,-1.859 9.954,0.549 12.062,4.789 c 0.429,0.808 1.209,3.301 0.872,4.664 h-1.984 Z"/>
			<path d="M 29.873,26.538 c 0.497,0.126 0.477,0.887 -0.017,0.992 c -4.443,0.785 -8.267,3.849 -8.856,8.47 h-2 c -0.566,-5.664 5.268,-11.141 10.873,-9.462 Z"/>
		</g>
	</g>
	
	<g>
		<path fill="#CBB7EA" d="M 27.031,17.306 c 0.15,0.96 -0.771,0.655 -1.781,0.279 c -1.014,-0.402 -2.212,-0.813 -2.558,-0.888 c -0.223,-0.072 -0.442,-0.138 -0.659,-0.203 c 0.429,1.245 0.622,2.613 0.804,3.931 c -0.159,1.285 -1.596,-0.002 -2.655,-1.126 c -0.072,0.526 -0.186,1.036 -0.357,1.628 c -0.222,0.828 -0.839,1.813 -1.737,2.051 a 0.961,0.961 0 01 -0.254,-0.033 c -0.147,0.245 -0.299,0.49 -0.448,0.738 c -1.003,0.881 -1.861,-1.363 -2.098,-2.102 c -0.547,0.076 -1.151,0.04 -1.714,0.008 c -1.105,-0.339 -0.364,-1.852 -0.019,-2.493 c -2.185,-0.596 -2.501,0.121 -4.289,-0.525 c -0.317,-0.216 1.232,-3.012 3.259,-3.112 c -0.509,-0.395 -0.976,-0.805 -1.457,-1.22 c -0.918,-0.799 -2.005,-1.636 -3.325,-2.167 c -0.389,-0.298 -0.394,-0.559 -0.111,-0.783 c 0.28,-0.228 0.847,-0.418 1.53,-0.481 c 0.585,-0.081 1.237,-0.024 1.831,0.079 c -0.021,-0.018 -0.047,-0.032 -0.066,-0.052 c -0.705,-0.8 -0.997,-1.549 -1.231,-2.452 c -0.279,-0.921 -0.225,-1.766 -0.942,-2.423 c -0.198,-0.306 -0.261,-0.563 -0.001,-0.784 c 0.246,-0.218 0.819,-0.318 1.426,-0.151 a 3.255,3.255 0 01 0.771,0.325 l 0.021,-0.069 c 0.017,-0.112 0.039,-0.202 0.067,-0.317 a 4.828,4.828 0 01 0.222,-0.637 a 7.673,7.673 0 01 0.707,-1.247 c 0.538,-0.824 1.281,-1.633 1.581,-2.567 c 0.204,-0.316 0.431,-0.466 0.723,-0.302 c 0.312,0.158 0.585,0.628 0.742,1.188 a 4.591,4.591 0 01 0.145,0.798 a 3.407,3.407 0 01 0.504,0.282 c 0.51,0.341 0.987,0.857 1.3,1.229 a 3.826,3.826 0 01 0.342,-0.594 c 0.42,-0.591 1.023,-1.236 1.493,-2.01 c 0.541,-0.488 1.072,-0.038 1.387,0.776 c 0.33,0.798 0.32,1.879 0.314,2.181 c -0.02,0.312 -0.068,0.63 -0.152,0.938 h0.001 a 3.522,3.522 0 01 1.438,0.209 a 4.088,4.088 0 01 1.049,0.579 c 0.266,0.208 0.514,0.426 0.455,0.474 c 0.077,0.333 0.849,0.825 1.683,0.41 c 0.33,-0.056 0.571,-0.012 0.679,0.235 c 0.114,0.241 0.076,0.688 -0.222,1.153 c -0.287,0.466 -0.847,0.909 -1.494,1.109 c -0.472,0.154 -0.951,0.179 -1.368,0.137 c -0.016,0.44 -0.149,0.886 -0.367,1.268 c -0.048,0.085 -0.111,0.158 -0.166,0.238 a 9.211,9.211 0 01 0.424,0.052 c 0.719,0.1 1.56,0.372 2.194,0.786 a 5.588,5.588 0 01 1.576,1.487 c 0.285,0.904 -0.649,0.744 -1.555,0.757 c -0.081,-0.002 -0.157,0.006 -0.237,0.007 c 1.17,0.93 2.033,2.182 2.595,3.406 Z"/>
		<g fill="#AA8DD8">
			<path d="M 19.218,16.131 c -0.291,0.627 -0.748,1.115 -1.231,1.566 c -0.183,0.179 -0.384,0.328 -0.582,0.48 c 0.171,0.289 0.271,0.641 0.43,0.98 c 0.266,0.693 0.46,1.394 0.502,2.161 a 0.114,0.114 0 01 -0.109,0.121 c -1.027,-0.485 -1.795,-1.33 -2.503,-2.179 c -0.024,-0.033 -0.042,-0.07 -0.063,-0.105 c -0.436,0.334 -1.016,0.459 -1.562,0.698 c -0.862,0.31 -1.733,0.553 -2.668,0.635 c -0.091,0.01 -0.154,-0.104 -0.097,-0.175 c 0.7,-0.923 1.566,-1.653 2.487,-2.318 l -0.038,-0.02 c -0.631,-0.37 -1.212,-0.791 -1.717,-1.358 a 0.116,0.116 0 01 0.011,-0.163 c 0.916,-0.227 1.847,-0.14 2.757,0.019 c 0.005,-0.172 0.013,-0.349 0.007,-0.529 c 0.029,-0.731 0.127,-1.442 0.39,-2.154 a 0.116,0.116 0 01 0.149,-0.067 c 0.682,0.758 1.05,1.706 1.35,2.657 c 0.761,-0.264 1.543,-0.436 2.377,-0.378 a 0.12,0.12 0 01 0.11,0.129 Z"/>
			<path d="M 26.823,14.911 a 0.11,0.11 0 01 0.109,0.113 c -0.425,0.703 -1.068,1.226 -1.691,1.722 c -0.368,0.242 -0.683,0.537 -1.042,0.702 c 0.313,0.909 0.525,1.836 0.43,2.822 a 0.12,0.12 0 01 -0.131,0.106 c -0.627,-0.329 -1.103,-0.826 -1.543,-1.342 c -0.212,-0.24 -0.378,-0.503 -0.562,-0.757 c -0.028,-0.035 -0.042,-0.08 -0.062,-0.122 c -0.072,0.027 -0.146,0.048 -0.222,0.062 c -1.074,0.137 -2.148,0.176 -3.218,-0.122 a 0.116,0.116 0 01 -0.079,-0.143 c 0.518,-0.568 1.189,-0.932 1.852,-1.266 c 0.112,-0.058 0.227,-0.105 0.341,-0.153 c -0.248,-0.296 -0.469,-0.632 -0.73,-0.942 c -0.58,-0.786 -1.098,-1.6 -1.479,-2.521 a 0.109,0.109 0 01 0.06,-0.141 c 1.261,0.422 2.34,1.256 3.371,2.087 a 4.11,4.11 0 00 0.079,-0.274 c 0.241,-0.728 0.54,-1.417 1.001,-2.062 a 0.114,0.114 0 01 0.159,-0.025 c 0.395,0.871 0.492,1.819 0.516,2.76 c 0.916,-0.304 1.851,-0.522 2.841,-0.504 Z"/>
			<path d="M 20.024,10.903 a 0.118,0.118 0 01 0.003,0.165 c -0.804,0.27 -1.642,0.29 -2.471,0.23 c 0.073,0.291 0.132,0.594 0.221,0.893 c 0.206,0.91 0.344,1.82 0.315,2.774 a 0.11,0.11 0 01 -0.113,0.105 c -1.042,-0.9 -1.714,-2.149 -2.354,-3.35 c -0.173,0.12 -0.357,0.237 -0.533,0.374 c -0.625,0.416 -1.274,0.765 -2.021,0.979 c -0.061,0.017 -0.124,-0.019 -0.141,-0.08 c 0.259,-1.119 0.93,-2.061 1.615,-2.947 c 0.029,-0.033 0.063,-0.061 0.095,-0.091 c -0.306,-0.297 -0.498,-0.724 -0.769,-1.115 c -0.407,-0.689 -0.747,-1.398 -0.945,-2.199 a 0.112,0.112 0 01 0.083,-0.136 c 1.16,0.381 2.104,1.186 2.993,1.982 c 0.016,0.017 0.029,0.037 0.045,0.054 c 0.247,-0.227 0.567,-0.403 0.862,-0.632 c 0.625,-0.416 1.274,-0.765 2.021,-0.979 a 0.115,0.115 0 01 0.141,0.08 c -0.216,0.932 -0.721,1.739 -1.278,2.495 c 0.133,0.063 0.268,0.127 0.41,0.183 c 0.66,0.318 1.272,0.69 1.821,1.215 Z"/>
			<path d="M 22.819,5.536 c 0.35,0.421 1.379,1.447 1.384,1.94 c -1.102,-0.267 -2.054,-0.874 -2.985,-1.475 c -0.059,0.219 -0.135,0.44 -0.188,0.67 c -0.159,0.427 -0.537,1.753 -0.923,1.911 c -0.337,-0.953 -0.335,-1.939 -0.312,-2.916 c -0.262,0.051 -0.54,0.072 -0.817,0.127 c -0.448,0.031 -1.809,0.228 -2.104,-0.059 c 0.76,-0.734 1.707,-1.143 2.645,-1.54 c 0.09,-0.032 0.184,-0.054 0.28,-0.069 c -0.052,-0.24 -0.019,-0.511 -0.037,-0.792 a 4.913,4.913 0 01 0.249,-1.536 c 0.019,-0.062 0.105,-0.079 0.147,-0.03 c 0.511,0.574 0.804,1.176 1.043,1.848 c 0.337,-0.152 0.73,-0.2 1.113,-0.314 c 0.469,-0.075 1.812,-0.406 2.16,-0.15 c -0.66,0.745 -1.506,1.225 -2.358,1.678 c 0.239,0.219 0.455,0.476 0.703,0.707 Z"/>
			<path d="M 14.764,4.804 c 0.311,0.409 1.279,1.476 1.243,1.938 c -1.11,-0.301 -2.042,-0.96 -2.959,-1.599 c -0.116,-0.092 -0.221,-0.199 -0.313,-0.321 c -0.044,0.046 -0.092,0.087 -0.143,0.124 c -0.696,0.45 -1.38,0.801 -2.239,0.971 a 0.085,0.085 0 01 -0.1,-0.067 c 0.183,-0.567 0.529,-1.047 0.86,-1.47 c 0.06,-0.079 0.129,-0.145 0.194,-0.218 c -0.106,-0.055 -0.213,-0.112 -0.326,-0.162 c -0.309,-0.19 -1.387,-0.754 -1.398,-1.12 c 0.717,-0.178 1.407,-0.135 2.097,-0.036 a 4.974,4.974 0 01 0.044,-1.698 a 0.086,0.086 0 01 0.102,-0.068 c 0.447,0.342 0.764,0.793 1.026,1.218 c 0.052,0.081 0.089,0.167 0.133,0.25 c 0.104,-0.076 0.212,-0.153 0.315,-0.24 a 5.45,5.45 0 01 1.453,-0.767 a 0.085,0.085 0 01 0.108,0.053 c -0.163,0.858 -0.593,1.539 -1.068,2.214 l -0.008,0.008 c 0.376,0.246 0.642,0.647 0.979,0.99 Z"/>
			<path d="M 15.672,20.413 c 0.023,1.661 -0.687,3.322 -0.687,3.323 c -0.904,-0.623 -0.71,-1.482 -0.71,-1.482 c -0.373,0.311 -1.857,0.022 -1.857,0.022 s 0.772,-1.439 3.254,-1.863 Z"/>
			<path d="M 19.601,19.608 c 1.229,-0.1 2.874,0.831 3.539,2.127 c 0,0 -0.889,-0.066 -1.537,-0.216 c 0,0 0.233,0.54 0.224,1.379 c 0,0 -0.764,-0.507 -1.047,-1.105 c 0,0 -0.041,0.804 -0.557,1.445 c -0.596,-1.178 -0.647,-1.944 -0.622,-3.63 Z"/>
			<path d="M 13.891,15.277 c -1.006,0.451 -2.807,0.68 -3.956,0.066 c 0,0 0.408,-0.301 1.031,-0.658 c 0,0 -0.581,-0.257 -1.19,-0.927 c 0,0 0.977,-0.16 1.64,0.106 c 0,0 -0.157,-0.377 -0.106,-1.111 c 1.04,0.562 2.099,1.096 2.581,2.524 Z"/>
			<path d="M 12.569,10.355 s -1.072,-0.363 -1.996,-0.066 s -2.212,-0.182 -2.212,-0.182 c 0.559,-0.663 1.371,-0.839 1.371,-0.839 c -0.712,-0.31 -1.288,-1.282 -1.288,-1.282 l 1.79,0.24 c -0.336,-0.82 -0.136,-1.733 -0.136,-1.733 c 1.748,1.316 1.216,2.503 2.471,3.862 Z"/>
			<path d="M 16.204,4.748 c -0.902,-1.344 -0.122,-3.323 -0.282,-4.033 c 0,0 0.759,0.906 0.819,1.515 c 0,0 0.544,-1.359 1.254,-1.759 c 0,0 -0.024,1.533 -0.174,2.003 c 0,0 0.727,-0.213 1.306,-0.453 c -0.07,1.325 -1.83,1.794 -2.923,2.727 Z"/>
			<path d="M 21.189,11.998 c 0.056,-1.892 0.787,-3.044 1.008,-4.501 c 0.416,0.659 0.561,0.976 0.558,1.885 c 0,0 0.929,-1.079 2.034,-1.334 c 0,0 -0.046,1.167 -1.241,2.048 c 0,0 1.539,-0.56 2.15,-0.005 c -1.374,0.623 -2.676,1.881 -4.509,1.907 Z"/>
		</g>
		<g fill="#9266CC">
			<circle cx="15.882" cy="17.732" r=".743"/>
			<circle cx="22.91" cy="16.63" r=".743"/>
			<circle cx="16.101" cy="10.2" r=".743"/>
			<circle cx="20.811" cy="4.885" r=".615"/>
			<circle cx="12.616" cy="3.705" r=".581"/>
			
			<path d="M 12.64,9.56 c 0.129,0.192 0.341,0.824 0.119,1.048 a 0.5,0.5 0 01 -0.163,0.143 c -0.577,0.25 -1.038,-0.073 -1.54,0.1 c -0.62,0.199 -0.745,0.894 -1.128,1.21 c -0.119,-0.681 0.086,-1.515 0.743,-1.941 c 0.319,-0.202 0.678,-0.266 1.01,-0.282 c -0.35,-0.833 -0.191,-1.994 0.201,-2.697 c 0.024,-0.044 0.095,-0.029 0.098,0.021 c 0.094,0.843 0.221,1.678 0.66,2.398 Z"/>
			<path d="M 22.007,19.091 c 0.037,-0.035 0.098,0.003 0.085,0.052 c -0.188,0.737 -1.197,1.154 -2.014,1.043 a 2.316,2.316 0 01 -1.204,2.002 c -0.045,0.024 -0.094,-0.027 -0.071,-0.071 c 0.263,-0.661 0.533,-1.408 0.274,-2.081 c -0.05,-0.196 -0.115,-0.371 -0.066,-0.705 c 0.007,-0.033 0.022,-0.048 0.031,-0.075 a 0.28,0.28 0 01 0.044,-0.105 c 0.009,-0.015 0.018,-0.031 0.028,-0.043 a 0.333,0.333 0 01 0.11,-0.074 c 0.006,-0.002 0.01,-0.008 0.015,-0.009 a 0.316,0.316 0 01 0.153,-0.017 c 0.767,0.037 1.112,0.506 1.936,0.346 c 0.226,-0.044 0.462,-0.099 0.679,-0.263 Z"/>
			<path d="M 21.77,11.215 c 1.118,-0.509 2.901,-0.145 3.393,0.817 c -0.656,-0.172 -1.298,-0.348 -1.973,-0.216 c -0.676,0.068 -1.195,0.486 -1.921,0.387 a 0.26,0.26 0 01 -0.193,-0.12 c -0.055,-0.027 -0.104,-0.065 -0.135,-0.123 c -0.34,-0.568 -0.076,-1.055 -0.092,-1.63 c 0.01,-0.535 0.028,-1.083 -0.187,-1.592 a 0.05,0.05 0 01 0.025,-0.066 c 0.592,0.248 0.859,0.999 0.985,1.585 c 0.043,0.317 0.11,0.645 0.098,0.958 Z"/>
		</g>
	</g>
</svg>
