<svg xmlns="http://www.w3.org/2000/svg" viewBox="0 0 36 36">
	<path d="M 4.66,7.479 c -1.743,-0.71 -1.071,-2.145 -1.548,-2.137 c -0.07,0.001 -0.124,0.009 -0.19,0.012 c 0.088,-0.058 0.184,-0.109 0.278,-0.161 c 0.138,0.14 0.32,0.268 0.57,0.362 c 1.208,0.453 7.322,1.888 9.738,2.869 c 2.416,0.982 4.438,1.788 6.007,1.349 c 2.225,-0.623 11.431,-2.406 12.941,-2.859 c 0.236,-0.071 0.349,-0.166 0.383,-0.273 c 0.518,0.558 1.164,1.267 -0.494,1.617 c -1.977,0.417 -7.912,1.744 -9.209,2.103 c -2.85,0.788 -4.664,0.467 -4.667,2.996 c -0.001,1.195 0.14,4.918 0.178,9.239 l 0.001,0.134 c -0.405,-0.036 -0.786,0.013 -1.196,0.117 c 0.049,-4.014 0.185,-7.407 0.185,-8.533 c 0,-2.479 -1.967,-3.499 -4.727,-4.279 c -3.057,-0.863 -6.322,-1.77 -8.25,-2.556 Z"  fill="#F5F8FA"/>
	<path d="M 1.009,10.872 c -0.09,-2.364 0.284,-4.44 1.913,-5.519 c 0.067,-0.002 0.121,-0.011 0.19,-0.012 c 0.477,-0.007 -0.195,1.428 1.548,2.138 c 1.928,0.786 5.193,1.693 8.251,2.557 c 2.76,0.78 4.727,1.8 4.727,4.279 c 0,1.126 -0.136,4.519 -0.185,8.533 c -0.465,0.118 -0.971,0.297 -1.625,0.496 c -2.466,0.751 -8.592,2.467 -12.344,3.136 c -0.72,0.128 -1.156,0.403 -1.36,0.736 c -0.756,-1.042 -1.153,-2.48 -0.996,-4.403 c 0.237,-2.911 -0.023,-9.388 -0.119,-11.941 Z"  fill="#ADD3E0"/>
	<path d="M 33.208,27.8 c -2.037,-0.465 -11.553,-3.853 -12.92,-4.544 c -0.658,-0.332 -1.168,-0.484 -1.638,-0.526 l -0.001,-0.134 c -0.038,-4.32 -0.179,-8.044 -0.178,-9.239 c 0.003,-2.529 1.817,-2.208 4.667,-2.996 c 1.297,-0.358 7.231,-1.686 9.209,-2.103 c 1.657,-0.35 1.011,-1.059 0.494,-1.617 c 0.019,-0.063 0.018,-0.129 -0.019,-0.2 c 1.345,0.64 2.315,1.998 2.167,4.907 c -0.179,3.505 -0.357,11.168 -0.238,13.604 c 0.066,1.349 0.163,2.524 -0.275,3.431 c -0.402,-0.274 -0.843,-0.486 -1.268,-0.583 Z"  fill="#C1E1EA"/>
	<path d="M 13.509,8.424 c -2.416,-0.982 -8.53,-2.416 -9.739,-2.868 c -0.25,-0.094 -0.432,-0.223 -0.57,-0.362 c 0.492,-0.27 1.078,-0.465 1.788,-0.559 c 2.365,-0.314 7.106,-1.496 9.446,-2.02 c 2.107,-0.472 4.617,-0.587 6.594,0.119 c 2.495,0.891 8.377,2.732 10.931,3.386 c 0.204,0.052 0.402,0.118 0.595,0.194 c 0.075,0.099 0.177,0.21 0.286,0.327 c -0.033,0.107 -0.146,0.202 -0.383,0.273 c -1.51,0.453 -10.716,2.237 -12.941,2.859 c -1.57,0.439 -3.591,-0.368 -6.007,-1.349 Z"  fill="#D2ECF3"/>
	<path d="M 18.648,22.73 c 0.037,4.757 -0.203,8.658 -0.139,9.313 c 0.061,0.61 0.32,1.223 0.771,1.608 c -0.783,0.13 -1.603,0.142 -2.424,0.042 c 0.402,-0.258 0.671,-0.634 0.717,-1.072 c 0.067,-0.637 -0.175,-4.565 -0.127,-9.281 l 0.006,-0.493 c 0.41,-0.103 0.791,-0.153 1.196,-0.117 Z" fill="#CFE1EA80"/>
	<path d="M 17.573,32.621 c -0.046,0.438 -0.314,0.814 -0.717,1.071 c -0.97,-0.119 -1.938,-0.39 -2.838,-0.84 c -2.971,-1.485 -7.664,-3.148 -9.743,-3.98 c -0.873,-0.349 -1.604,-0.903 -2.152,-1.657 c 0.204,-0.332 0.641,-0.608 1.36,-0.736 c 3.752,-0.669 9.878,-2.385 12.344,-3.136 c 0.654,-0.199 1.16,-0.379 1.625,-0.496 l -0.006,0.493 c -0.049,4.717 0.194,8.644 0.127,9.281 Z"  fill="#9BC2D4"/>
	<path d="M 32.078,30.001 c -3.149,0.772 -9.327,2.495 -11.346,3.268 c -0.46,0.175 -0.948,0.299 -1.451,0.382 c -0.451,-0.385 -0.71,-0.997 -0.771,-1.608 c -0.065,-0.655 0.175,-4.555 0.138,-9.313 c 0.47,0.041 0.98,0.194 1.638,0.526 c 1.368,0.691 10.885,4.079 12.922,4.544 c 0.425,0.097 0.866,0.309 1.268,0.583 c -0.352,0.73 -1.051,1.287 -2.398,1.618 Z"  fill="#9BC2D4"/>
	<path d="M 7.571,18.69 c -3.911,3.322 -5.322,9.72 -5.206,6.824 c 0.096,-2.391 -0.017,-9.487 -0.006,-12.439 c 0.009,-2.491 0.416,-4.634 3.725,-3.095 c 2.538,1.18 7.2,2.114 9.384,3.59 c 1.411,0.954 -2.464,0.505 -7.897,5.12 Z"  fill="#C1E1EA"/>
	<path d="M 30.169,15.439 c -3.578,-2.42 -5.866,-2.882 -4.986,-3.476 c 1.362,-0.92 4.606,-1.227 6.486,-1.767 c 2.187,-0.629 1.991,0.692 1.997,2.245 c 0.006,1.84 -0.06,5.288 0,6.779 c 0.072,1.806 -0.847,-1.988 -3.497,-3.781 Z"  fill="#D2ECF3"/>
	</svg>
