<svg xmlns="http://www.w3.org/2000/svg" viewBox="0 0 36 36">
	<path d="M 36,3 v5 c -1,1.55 -3.955,4.811 -5.031,6.559 c -1.907,3.1 -3.465,5.152 -3.783,5.917 c -0.318,0.764 -1.338,1.161 -2.597,1.644 c -1.259,0.484 -4.927,1.488 -8.283,1.785 c -3.355,0.296 -10.521,0.982 -12.899,0.616 c -3.038,-0.468 -4.528,-3.896 -2.426,-6.949 c 0.685,-0.994 2.947,-0.59 6.42,-0.415 s 10.708,0.324 13.88,-0.854 s 6.512,-2.407 10.328,-7.632 c 1.364,-1.868 3.391,-4.376 4.391,-5.671 Z"  fill="#F4900C"/>
	<path d="M 7,24.591 v-7.459 c 0,0.008 0.262,0.017 0.403,0.025 c 3.472,0.175 10.705,0.324 13.877,-0.854 c 0.338,-0.126 0.68,-0.253 1.024,-0.385 l 0.424,6.784 c -1.715,0.471 -4.13,1.001 -6.419,1.203 c -2.254,0.199 -6.309,0.572 -9.309,0.686 Z"  fill="#31373D"/>
	<path d="M 17,28 h14 v4 a 7,2 0 01 -14,0 v-4 Z"  fill="#31373D"/>
	<ellipse fill="#66757F" cx="23.996" cy="28" rx="7" ry="2"/>
	</svg>
