<svg xmlns="http://www.w3.org/2000/svg" viewBox="0 0 36 36">
	<defs>
		<clipPath id="stick2">
			<path d="M 36,3 v5 c -1,1.55 -3.955,4.811 -5.03,6.559 c -1.907,3.099 -3.465,5.152 -3.783,5.916 s -1.338,1.161 -2.597,1.645 s -4.927,1.487 -8.283,1.784 s -10.521,0.983 -12.899,0.616 c -3.038,-0.467 -4.528,-3.896 -2.427,-6.949 c 0.685,-0.994 2.948,-0.59 6.42,-0.415 s 10.708,0.324 13.88,-0.853 s 6.513,-2.407 10.328,-7.632 c 1.364,-1.868 3.391,-4.376 4.391,-5.671 Z"/>
		</clipPath>
	</defs>
	
	<g clip-path="url(#stick2)">
		<rect width="36" height="36" fill="#f4900c"/>
		<path d="M 7,11 h15 l 1,16 h-16 v-16 z" fill="#31373D"/>
	</g>
	
	<g>
		<path d="M 17,28 h14 v4 a 7,2 0 01 -7,2 a 7,2 0 01 -7,-2 v-4 Z" fill="#31373D"/>
		<ellipse cx="24" cy="28" rx="7" ry="2" fill="#66757F"/>
	</g>
</svg>
