<svg xmlns="http://www.w3.org/2000/svg" viewBox="0 0 36 36">
	<defs>
		<clipPath id="stick2">
			<path d="M 36,3 c -1,1.295 -3.027,3.803 -4.391,5.671 c -3.815,5.225 -7.156,6.454 -10.328,7.632 c -3.172,1.177 -10.407,1.029 -13.88,0.853 c -3.472,-0.175 -5.735,-0.579 -6.42,0.415 c -2.101,3.053 -0.611,6.482 2.427,6.949 c 2.378,0.367 9.544,-0.32 12.899,-0.616 c 3.356,-0.297 7.024,-1.3 8.283,-1.785 c 1.259,-0.483 2.279,-0.88 2.597,-1.643 c 0.318,-0.765 1.876,-2.818 3.783,-5.917 c 1.075,-1.748 4.03,-5.009 5.03,-6.559 v-5 Z"/>
		</clipPath>
	</defs>
	
	<g clip-path="url(#stick2)">
		<rect width="36" height="36" fill="#f4900c"/>
		<path d="M 7,11 h15 l 1,16 h-16 v-16 z" fill="#31373D"/>
	</g>
	
	<g>
		<path d="M 17,28 h14 v4 a 7,2 0 01 -7,2 a 7,2 0 01 -7,-2 v-4 Z" fill="#31373D"/>
		<ellipse cx="24" cy="28" rx="7" ry="2" fill="#66757F"/>
	</g>
</svg>
