<svg xmlns="http://www.w3.org/2000/svg" viewBox="0 0 36 36">
	<path d="M 26,33 c 2,2 -11,2 -9,0 c 3,0 3,-3 3,-3 h3 s 0,3 3,3 Z"  fill="#99AAB5"/>
	<path d="M 12,33 c 2,2 -11,2 -9,0 c 3,0 3,-3 3,-3 h3 s 0,3 3,3 Z"  fill="#99AAB5"/>
	<path d="M 30,36 h-28 c -1.104,0 -2.104,-3 -1,-3 h28 c 3,0 3,-3 4,-4 c 5,3 2,7 -3,7 Z"  fill="#99AAB5"/>
	<path d="M 1,28 c 0,-9 2,-14 2,-21 c 0,-2.279 13,-2 13,0 s -1.5,10 5,13 c 6.268,2.893 15,2 15,8 h-35 Z"  fill="#E6E7E8"/>
	<path d="M 36,28 a 2,2 0 01 -2,2 s -15,1 -20,-1 c -2.602,-1.041 -0.667,1 -3,1 h-8 a 2,2 0 01 -2,-2 v-1 h10 c 6,0 1,1 25,1 Z"   fill="#E6E7E8"/>
	
	<path d="M 18,18 l -1.6875,1.7505" stroke-linecap="round" fill="none" stroke-width="2" stroke="#DD2E44"/>
	<path d="M 20,22 l 1,-2"  stroke-linecap="round" fill="none" stroke-width="2" stroke="#DD2E44"/>
	<path d="M 24,23 l 0.2085,-1.4585" stroke-linecap="round" fill="none" stroke-width="2" stroke="#DD2E44"/>
	
</svg>
