<svg xmlns="http://www.w3.org/2000/svg" viewBox="0 0 36 36">
	<rect x="0" y="28" rx="4" width="36" height="8" fill="#C1694F"/>
	<path d="M 36,32 h-36 v-9 c 0,-2.209 0.791,-3 3,-3 h30 c 2.209,0 3,0.791 3,3 v9 Z"   fill="#D99E82"/>
	<path d="M 11,20 h14 a 7,7 0 01 -14,0 Z"   fill="#662113"/>
	<path d="M 26.716,8 c 1.224,0 1.516,0.623 0.653,1.489 l -7.863,7.863 a 2.224,2.224 0 01 -3.146,0 l -7.863,-7.863 c -0.865,-0.866 -0.572,-1.489 0.651,-1.489 h4.785 v-6 a 2,2 0 01 2,-2 h4 a 2,2 0 01 2,2 v6 h4.783 Z"   fill="#77B255"/>
</svg>
