<svg xmlns="http://www.w3.org/2000/svg" viewBox="0 0 36 36">
	<rect width="36" height="36" rx="4" fill="#3B88C3"/>
	<g fill="#ffffff">
		<g>
			<path d="M 17,6 h-14 v-3 h14 v3 Z"/>
			<path d="M 17,9 v3 h-5 v5 h-4 v-5 h-5 v-3 h14 Z"/>
		</g>
		<path d="M 32,5 v3 l -3,-1.2 v6.2 c 0,2 -2,4 -5,4 c -2,0 -3,-1 -3,-2 c 0,-2 2,-4 4,-4 c 0.81,0 1.462,0.077 2,0.203 v-8.203 l 5,2 Z"/>
		<path d="M 12.8301,27.7571 l 0.74,-0.855 c 0.494,-0.57 0.836,-0.874 1.444,-0.874 c 0.551,0 1.045,0.475 1.045,1.196 c 0,0.513 -0.437,1.122 -1.045,1.805 l -0.475,0.514 l 1.292,1.462 c 0.266,0.304 0.418,0.513 0.418,0.95 c 0,0.645 -0.608,1.272 -1.33,1.272 c -0.437,0 -0.722,-0.132 -1.006,-0.436 l -1.312,-1.368 c -1.234,1.083 -2.488,1.804 -4.179,1.804 c -2.546,0 -4.654,-1.443 -4.654,-4.102 c 0,-1.881 1.311,-3.268 2.869,-4.123 c -0.742,-0.74 -1.254,-1.501 -1.254,-2.565 c 0,-2.166 2.032,-3.191 3.989,-3.191 c 1.71,0 3.875,0.969 3.875,2.982 c 0,1.52 -1.196,2.698 -2.412,3.325 l 1.995,2.204 ZM 9.3721,21.4121 c -0.494,0 -1.14,0.379 -1.14,0.949 c 0,0.571 0.266,0.912 1.007,1.634 c 0.57,-0.285 1.387,-0.798 1.387,-1.481 c 0,-0.856 -0.76,-1.102 -1.254,-1.102 ZM 8.1371,26.5591 c -0.855,0.552 -1.634,1.216 -1.634,2.299 c 0,1.198 0.817,1.863 1.976,1.863 c 1.026,0 1.691,-0.418 2.413,-1.103 l -2.755,-3.059 Z"/>
		<g>
			<path d="M 19.7301,22.3229 c 0,-1.652 1.235,-3.077 2.926,-3.077 c 1.69,0 2.925,1.425 2.925,3.077 c 0,1.654 -1.235,3.059 -2.925,3.059 c -1.691,0 -2.926,-1.405 -2.926,-3.059 ZM 23.6431,22.3229 c 0,-0.607 -0.36,-1.139 -0.987,-1.139 s -0.988,0.532 -0.988,1.139 c 0,0.609 0.361,1.121 0.988,1.121 s 0.987,-0.512 0.987,-1.121 Z"/>
			<path d="M 28.2601,19.7399 c 0.247,-0.474 0.437,-0.608 0.874,-0.608 c 0.589,0 1.12,0.475 1.12,1.063 c 0,0.153 0,0.286 -0.152,0.571 l -6.383,11.949 c -0.285,0.399 -0.399,0.627 -0.854,0.627 c -0.494,0 -1.084,-0.475 -1.084,-1.045 c 0,-0.285 0.114,-0.551 0.191,-0.703 l 6.288,-11.854 Z"/>
			<path d="M 26.4171,30.1689 c 0,-1.652 1.235,-3.077 2.926,-3.077 c 1.69,0 2.924,1.425 2.924,3.077 c 0,1.653 -1.234,3.059 -2.924,3.059 c -1.691,0 -2.926,-1.406 -2.926,-3.059 ZM 30.3301,30.1689 c 0,-0.607 -0.36,-1.14 -0.987,-1.14 s -0.988,0.533 -0.988,1.14 c 0,0.608 0.361,1.121 0.988,1.121 s 0.987,-0.513 0.987,-1.121 Z"/>
		</g>
	</g>
</svg>
