<svg xmlns="http://www.w3.org/2000/svg" viewBox="0 0 36 36">
	<rect width="36" height="36" rx="4" fill="#3B88C3"/>
	<g fill="#ffffff">
		<path d="M 9.6128,6.0957 h-1.121 c -0.912,0 -1.292,-0.665 -1.292,-1.311 c 0,-0.665 0.475,-1.311 1.292,-1.311 h2.698 c 0.817,0 1.273,0.589 1.273,1.349 v10.81 c 0,0.949 -0.608,1.481 -1.425,1.481 s -1.425,-0.532 -1.425,-1.481 v-9.537 Z"/>
		<path d="M 28.1152,14.4922 c 0.836,0 1.48,0.38 1.48,1.254 s -0.644,1.254 -1.367,1.254 h-6.345 c -0.835,0 -1.481,-0.38 -1.481,-1.254 c 0,-0.399 0.246,-0.741 0.437,-0.969 c 1.577,-1.881 3.286,-3.59 4.729,-5.68 c 0.343,-0.494 0.666,-1.083 0.666,-1.767 c 0,-0.778 -0.59,-1.463 -1.368,-1.463 c -2.185,0 -1.14,3.078 -2.964,3.078 c -0.912,0 -1.387,-0.646 -1.387,-1.387 c 0,-2.394 2.128,-4.312 4.465,-4.312 c 2.336,0 4.217,1.538 4.217,3.951 c 0,2.641 -2.944,5.262 -4.559,7.295 h3.477 Z"/>
		<path d="M 14.7417,22.7227 c 0,1.196 -0.513,2.241 -1.558,2.906 c 1.368,0.627 2.318,1.901 2.318,3.401 c 0,2.28 -2.09,4.198 -4.788,4.198 c -2.811,0 -4.559,-2.07 -4.559,-3.571 c 0,-0.741 0.779,-1.273 1.463,-1.273 c 1.291,0 0.988,2.223 3.134,2.223 c 0.988,0 1.786,-0.76 1.786,-1.767 c 0,-2.66 -3.23,-0.703 -3.23,-2.944 c 0,-1.995 2.698,-0.647 2.698,-2.755 c 0,-0.722 -0.513,-1.273 -1.368,-1.273 c -1.804,0 -1.557,1.862 -2.849,1.862 c -0.779,0 -1.235,-0.703 -1.235,-1.406 c 0,-1.482 2.033,-3.078 4.142,-3.078 c 2.735,0 4.046,1.995 4.046,3.477 Z"/>
		<path d="M 21.1808,30.018 c -0.931,0 -1.33,-0.627 -1.33,-1.121 c 0,-0.418 0.152,-0.646 0.266,-0.836 l 4.255,-7.713 c 0.418,-0.76 0.95,-1.102 1.939,-1.102 c 1.101,0 2.183,0.703 2.183,2.432 v5.832 h0.324 c 0.741,0 1.33,0.494 1.33,1.254 c 0,0.759 -0.589,1.254 -1.33,1.254 h-0.324 v1.614 c 0,1.007 -0.398,1.482 -1.367,1.482 s -1.368,-0.475 -1.368,-1.482 v-1.614 h-4.578 ZM 25.7588,22.21 h-0.038 l -2.565,5.3 h2.603 v-5.3 Z"/>
	</g>
</svg>
