<svg xmlns="http://www.w3.org/2000/svg" viewBox="0 0 36 36">
	<rect width="36" height="36" rx="4" fill="#3B88C3"/>
	<g fill="#ffffff">
		<path d="M 15.6721,15.3282 c 0,0.703 0,1.786 -1.311,1.786 c -0.798,0 -1.12,-0.437 -1.31,-1.159 c -0.703,0.836 -1.558,1.273 -2.603,1.273 c -2.565,0 -4.521,-2.185 -4.521,-5.262 c 0,-3.002 2.013,-5.301 4.521,-5.301 c 1.007,0 1.995,0.399 2.603,1.254 c 0.076,-0.665 0.646,-1.14 1.31,-1.14 c 1.311,0 1.311,1.083 1.311,1.786 v6.763 ZM 10.8281,14.7202 c 1.425,0 2.109,-1.444 2.109,-2.754 c 0,-1.311 -0.665,-2.793 -2.109,-2.793 c -1.501,0 -2.166,1.482 -2.166,2.793 c 0,1.31 0.684,2.754 2.166,2.754 Z"/>
		<path d="M 20.326,3.8922 c 0,-0.912 0.57,-1.52 1.367,-1.52 c 0.798,0 1.369,0.608 1.369,1.52 v3.723 c 0.721,-0.627 1.652,-0.95 2.602,-0.95 c 2.944,0 4.407,2.755 4.407,5.414 c 0,2.584 -1.747,5.149 -4.503,5.149 c -0.929,0 -1.994,-0.418 -2.506,-1.254 c -0.171,0.722 -0.609,1.14 -1.369,1.14 c -0.797,0 -1.367,-0.608 -1.367,-1.52 v-11.702 ZM 25.208,14.7202 c 1.425,0 2.128,-1.481 2.128,-2.754 c 0,-1.292 -0.703,-2.793 -2.128,-2.793 c -1.463,0 -2.146,1.368 -2.146,2.697 c 0,1.33 0.645,2.85 2.146,2.85 Z"/>
		<path d="M 14.1816,25.7051 c -0.684,0 -1.292,-0.532 -2.166,-0.532 c -1.558,0 -2.298,1.386 -2.298,2.793 c 0,1.348 0.817,2.755 2.298,2.755 c 0.684,0 1.71,-0.571 2.033,-0.571 c 0.646,0 1.177,0.551 1.177,1.198 c 0,1.405 -2.355,1.879 -3.343,1.879 c -2.945,0 -4.901,-2.412 -4.901,-5.261 c 0,-2.774 2.013,-5.3 4.901,-5.3 c 1.083,0 3.343,0.398 3.343,1.728 c 0,0.57 -0.398,1.311 -1.044,1.311 Z"/>
		<path d="M 29.672,31.5939 c 0,0.912 -0.57,1.52 -1.367,1.52 c -0.76,0 -1.198,-0.418 -1.368,-1.139 c -0.513,0.835 -1.578,1.253 -2.507,1.253 c -2.755,0 -4.503,-2.565 -4.503,-5.148 c 0,-2.66 1.463,-5.414 4.407,-5.414 c 0.95,0 1.881,0.322 2.603,0.949 v-3.722 c 0,-0.913 0.57,-1.521 1.368,-1.521 c 0.797,0 1.367,0.608 1.367,1.521 v11.701 ZM 24.79,25.1729 c -1.425,0 -2.128,1.501 -2.128,2.793 c 0,1.272 0.703,2.755 2.128,2.755 c 1.501,0 2.147,-1.521 2.147,-2.85 c 0,-1.33 -0.684,-2.698 -2.147,-2.698 Z"/>
	</g>
</svg>
