<svg xmlns="http://www.w3.org/2000/svg" viewBox="0 0 36 36">
	<rect width="36" height="36" rx="4" fill="#3B88C3"/>
	<g fill="#ffffff">
		<path d="M 12.8211,22.3277 c 0,0.704 0,1.786 -1.31,1.786 c -0.799,0 -1.121,-0.436 -1.311,-1.159 c -0.703,0.836 -1.558,1.274 -2.603,1.274 c -2.565,0 -4.521,-2.186 -4.521,-5.263 c 0,-3.001 2.013,-5.3 4.521,-5.3 c 1.007,0 1.995,0.399 2.603,1.254 c 0.076,-0.665 0.646,-1.14 1.311,-1.14 c 1.31,0 1.31,1.083 1.31,1.786 v6.762 ZM 7.9771,21.7207 c 1.425,0 2.109,-1.444 2.109,-2.755 s -0.665,-2.792 -2.109,-2.792 c -1.501,0 -2.166,1.481 -2.166,2.792 s 0.684,2.755 2.166,2.755 Z"/>
		<path d="M 14.3807,10.8917 c 0,-0.912 0.57,-1.52 1.367,-1.52 c 0.798,0 1.369,0.608 1.369,1.52 v3.724 c 0.721,-0.627 1.652,-0.95 2.602,-0.95 c 2.944,0 4.407,2.754 4.407,5.414 c 0,2.584 -1.747,5.149 -4.503,5.149 c -0.93,0 -1.994,-0.418 -2.506,-1.254 c -0.171,0.722 -0.608,1.139 -1.369,1.139 c -0.797,0 -1.367,-0.608 -1.367,-1.52 v-11.702 ZM 19.2627,21.7207 c 1.425,0 2.128,-1.482 2.128,-2.755 c 0,-1.292 -0.703,-2.792 -2.128,-2.792 c -1.463,0 -2.146,1.367 -2.146,2.697 s 0.645,2.85 2.146,2.85 Z"/>
		<path d="M 32.0869,16.7051 c -0.684,0 -1.292,-0.532 -2.165,-0.532 c -1.559,0 -2.299,1.387 -2.299,2.793 c 0,1.348 0.817,2.755 2.299,2.755 c 0.684,0 1.709,-0.571 2.032,-0.571 c 0.647,0 1.178,0.551 1.178,1.198 c 0,1.405 -2.356,1.88 -3.344,1.88 c -2.944,0 -4.901,-2.413 -4.901,-5.262 c 0,-2.774 2.014,-5.301 4.901,-5.301 c 1.083,0 3.344,0.399 3.344,1.729 c 0,0.57 -0.399,1.311 -1.045,1.311 Z"/>
	</g>
</svg>
