<svg xmlns="http://www.w3.org/2000/svg" viewBox="0 0 36 36">
	<rect width="36" height="36" rx="4" fill="#3B88C3"/>
	<g fill="#ffffff">
		<path d="M 8.0044,4.8227 c 0.323,-0.874 1.064,-1.577 2.033,-1.577 c 1.007,0 1.71,0.665 2.032,1.577 l 3.724,10.334 c 0.114,0.305 0.152,0.57 0.152,0.704 c 0,0.74 -0.608,1.253 -1.311,1.253 c -0.797,0 -1.197,-0.417 -1.387,-0.988 l -0.57,-1.785 h-5.281 l -0.57,1.766 c -0.19,0.59 -0.589,1.007 -1.367,1.007 c -0.76,0 -1.406,-0.57 -1.406,-1.33 c 0,-0.303 0.095,-0.531 0.133,-0.627 l 3.818,-10.334 ZM 8.2134,11.7187 h3.609 l -1.766,-5.509 h-0.038 l -1.805,5.509 Z"/>
		<path d="M 20.402,4.8992 c 0,-0.912 0.627,-1.425 1.5,-1.425 h3.648 c 1.975,0 3.571,1.33 3.571,3.343 c 0,1.33 -0.551,2.223 -1.766,2.793 v0.038 c 1.615,0.228 2.887,1.576 2.887,3.229 c 0,2.679 -1.785,4.123 -4.407,4.123 h-3.913 c -0.874,0 -1.52,-0.551 -1.52,-1.444 v-10.657 ZM 23.252,14.4922 h2.241 c 1.027,0 1.786,-0.589 1.786,-1.652 c 0,-0.893 -0.684,-1.501 -2.013,-1.501 h-2.014 v3.153 ZM 23.252,8.8312 h1.48 c 0.932,0 1.54,-0.551 1.54,-1.501 c 0,-0.893 -0.704,-1.349 -1.54,-1.349 h-1.48 v2.85 Z"/>
		<path d="M 11.0537,19.2461 c 1.387,0 4.084,0.456 4.084,2.127 c 0,0.685 -0.475,1.273 -1.177,1.273 c -0.779,0 -1.311,-0.665 -2.907,-0.665 c -2.355,0 -3.571,1.995 -3.571,4.313 c 0,2.261 1.235,4.198 3.571,4.198 c 1.596,0 2.242,-0.798 3.021,-0.798 c 0.854,0 1.253,0.856 1.253,1.292 c 0,1.823 -2.868,2.241 -4.274,2.241 c -3.856,0 -6.535,-3.058 -6.535,-6.99 c 0,-3.952 2.66,-6.991 6.535,-6.991 Z"/>
		<path d="M 19.898,20.9379 c 0,-0.875 0.608,-1.463 1.463,-1.463 h3.154 c 4.254,0 6.686,2.735 6.686,6.952 c 0,3.989 -2.583,6.573 -6.496,6.573 h-3.307 c -0.627,0 -1.5,-0.342 -1.5,-1.425 v-10.637 ZM 22.748,30.3779 h1.918 c 2.451,0 3.572,-1.805 3.572,-4.084 c 0,-2.432 -1.14,-4.198 -3.761,-4.198 h-1.729 v8.282 Z"/>
	</g>
</svg>
