<svg xmlns="http://www.w3.org/2000/svg" viewBox="0 0 36 36">
	<path d="M 32.664,8.519 c 2.754,2.825 3.336,7.232 3.336,11.272 c 0,5.263 -1.982,11.31 -6.357,14.244 c -3.007,2.016 -7.593,1.836 -11.643,1.836 s -8.636,0.18 -11.643,-1.836 c -4.375,-2.933 -6.357,-8.981 -6.357,-14.244 c 0,-4.04 0.582,-8.447 3.336,-11.272 c 3.3,-3.385 9.244,-3.769 14.664,-3.769 s 11.364,0.384 14.664,3.769 Z"  fill="#F4900C"/>
	
	<path d="M 8.024,15.421 c 0.128,-2.127 1.841,-4.932 3.736,-4.818 s 3.256,3.108 3.127,5.234 s -1.238,3.683 -3.658,3.537 c -2.421,-0.147 -3.334,-1.826 -3.205,-3.953 Z"  fill="#642116"/>
	<path d="M 27.976,15.421 c 0.129,2.127 -0.784,3.806 -3.205,3.953 c -2.42,0.146 -3.529,-1.411 -3.658,-3.537 s 1.232,-5.12 3.127,-5.234 c 1.896,-0.116 3.608,2.691 3.736,4.818 Z"  fill="#642116"/>
	
	<path d="M 20.654,21.159 c 0.587,1.092 -0.875,1.716 -2.656,1.716 s -3.241,-0.623 -2.654,-1.716 l 1.598,-2.596 c 0.291,-0.542 0.674,-0.813 1.057,-0.817 c 0.384,0.004 0.766,0.275 1.057,0.817 l 1.598,2.596 Z"  fill="#642116"/>
	
	<path d="M 29.948,24.23 a 0.25,0.25 0 01 0.222,0.366 l -2.755,5.219 a 0.25,0.25 0 01 -0.366,0.086 l -2.034,-1.458 l -3.005,3.633 a 0.25,0.25 0 01 -0.36,0.028 l -3.65,-3.268 l -3.65,3.269 a 0.25,0.25 0 01 -0.36,-0.028 l -3.004,-3.633 l -2.034,1.458 a 0.25,0.25 0 01 -0.367,-0.087 l -2.754,-5.219 a 0.25,0.25 0 01 0.221,-0.366 h0.841 a 0.25,0.25 0 01 0.181,0.077 l 2.23,2.334 l 2.698,-2.169 a 0.25,0.25 0 01 0.353,0.041 l 2.409,3.062 l 3.053,-3.266 a 0.25,0.25 0 01 0.365,0 l 3.054,3.266 l 2.408,-3.062 a 0.25,0.25 0 01 0.353,-0.041 l 2.698,2.169 l 2.231,-2.334 a 0.25,0.25 0 01 0.181,-0.077 h0.841 Z" fill="#642116"/> <!-- stroke maybe? -->
	
	<path d="M 20.783,5.444 c 0.069,0.42 -0.222,0.764 -0.647,0.764 h-4.451 c -0.426,0 -0.717,-0.344 -0.647,-0.764 l 0.745,-4.472 c 0.07,-0.421 0.476,-0.764 0.902,-0.764 h2.451 c 0.426,0 0.832,0.344 0.901,0.764 l 0.746,4.472 Z"  fill="#3F7123"/>
</svg>
