<svg xmlns="http://www.w3.org/2000/svg" viewBox="0 0 36 36">
	
	<clipPath id="clip1">
		<path d="M 31,19 c 1.65,0 4,3.583 4,7 v6 a 3,3 0 01 -3,3 h-5 h-5 a 3,3 0 01 -3,-3 v-6 c 0,-3.417 2.35,-7 4,-7 h4 h4 Z"/>
	</clipPath>
	<g clip-path="url(#clip1)">
		<rect width="36" height="36" fill="#F26522"/>
		<path fill="#D14A15" d="M 23,20 h8 c 0,2 0.2,4 -3,5 v4 c 0,2.219 2.267,4 7,4 v2 h-16 v-2 c 4.733,0 7,-1.781 7,-4 v-4 c -3.2,-1 -3,-3 -3,-5 Z"/>
	</g>
	
	<clipPath id="clip2">
		<path d="M 13,19 c 1.65,0 4,3.583 4,7 v6 a 3,3 0 01 -3,3 h-5 h-5 a 3,3 0 01 -3,-3 v-6 c 0,-3.417 2.35,-7 4,-7 h4 h4 Z"/>
	</clipPath>
	<g clip-path="url(#clip2)">
		<rect width="36" height="36" fill="#27AAE1"/>
		<path fill="#005792" d="M 5,20 h8 c 0,2 0.2,4 -3,5 v4 c 0,2.219 2.267,4 7,4 v2 h-16 v-2 c 4.733,0 7,-1.781 7,-4 v-4 c -3.2,-1 -3,-3 -3,-5 Z"/>
	</g>
	
	<g fill="#BBDDF5">
		<circle cx="4" cy="27" r="1"/>
		<circle cx="14" cy="30" r="1"/>
	</g>
	<g fill="#FFB699">
		<circle cx="22" cy="30" r="1"/>
		<circle cx="32" cy="30" r="1"/>
	</g>
	
	<path fill="#292F33" d="M 17,13 v3 c 0,3 -6.207,3 -8,3 c -1.976,0 -8,0 -8,-3 v-3 c 0,-4.418 3.582,-6 8,-6 s 8,1.582 8,6 Z"/>
	<path fill="#292F33" d="M 35,12 v6 c 0,3 -5.707,0 -7.5,0 c -1.976,0 -8.5,3 -8.5,0 v-6 a 8,8 0 01 8,-8 a 8,8 0 01 8,8 Z"/>
	
	<path d="M 3,14 v-2.1 h12 v2.1 c 0,3 -0.406,7 -6,7 s -6,-3 -6,-7 Z" fill="#F5F8FA"/>
	<path d="M 21,14 v-2.1 h12 v2.1 c 0,3 -0.406,7 -6,7 s -6,-3 -6,-7 Z" fill="#F5F8FA"/>
	
	<ellipse cx="9.02" cy="19.297" rx="1.5" ry="0.531" fill="#A0041E"/>
	<ellipse cx="27.02" cy="19.297" rx="1.5" ry="0.531" fill="#A0041E"/>
	
	<!-- eyes -->
	<g fill="#292F33">
		<path d="M 13.6034,16.3613 c 0.659,0.106 0.649,0.531 0.043,0.565 c -0.605,0.034 -2.12,0.119 -2.789,0.438 c -0.67,0.318 -0.93,-0.424 -0.572,-0.685 c 0.861,-0.788 2.412,-0.464 3.318,-0.318 Z"/>
		<path d="M 4.4361,16.3613 c 0.906,-0.146 2.457,-0.47 3.318,0.318 c 0.358,0.261 0.098,1.003 -0.572,0.685 c -0.669,-0.319 -2.184,-0.404 -2.789,-0.438 c -0.606,-0.034 -0.616,-0.459 0.043,-0.565 Z"/>
	</g>
	<g fill="#292F33">
		<path d="M 31.6034,16.3613 c 0.659,0.106 0.649,0.531 0.043,0.565 c -0.605,0.034 -2.12,0.119 -2.789,0.438 c -0.67,0.318 -0.93,-0.424 -0.572,-0.685 c 0.861,-0.788 2.412,-0.464 3.318,-0.318 Z"/>
		<path d="M 22.4361,16.3613 c 0.906,-0.146 2.457,-0.47 3.318,0.318 c 0.358,0.261 0.098,1.003 -0.572,0.685 c -0.669,-0.319 -2.184,-0.404 -2.789,-0.438 c -0.606,-0.034 -0.616,-0.459 0.043,-0.565 Z"/>
	</g>
	
	<!-- slight asymmetry in M33 14c0 3-.406 7-6 7s-6-3-6-7c3.031 0 6-2 6-2s3.031 2 6 2z. the fact that it's caused by 3.031 being repeated (instead of one being 6-3.031 makes me wonder if it was written by hand.. -->
	
	<path d="M 21,11 l -1,3 h1 c 3.031,0 6,-2 6,-2 s 3.031,2 6,2 h1 l -1,-3 h-12 Z" fill="#292F33"/>
	<ellipse cx="9" cy="12.1527" rx="7" ry="1.83" fill="#292F33"/>
	
	<path fill="#26AAE1" d="M 12.125,7.8738 c 0,3.46 -6.25,3.46 -6.25,0 s 1.399,-6.874 3.125,-6.874 s 3.125,3.414 3.125,6.874 Z"/>
	
	<g>
		<path fill="#F26522" d="M 32.0198,6.2586 c 0,0.61 -2.88,1.164 -5,1.57 c -2.12,-0.406 -5,-0.96 -5,-1.57 a 5,2.259 0 01 5,-2.259 a 5,2.259 0 01 5,2.259 Z"/>
		<g stroke-linecap="round" fill="none" stroke-width="2" stroke="#D14A15">
			<path d="M 24,5 l -2,-2"/>
			<path d="M 27,5 v-3"/>
			<path d="M 30,5 l 2,-2"/>
		</g>
		
		<g fill="#D14A15">
			<circle cx="22" cy="3" r="1.562"/>
			<circle cx="27" cy="2" r="1.562"/>
			<circle cx="32" cy="3" r="1.562"/>
		</g>
	</g>
	
	<!-- fans -->
	<path fill="#FFCC4D" d="M 9,21.876 l 1.18,0.003 c 0.484,0.001 0.928,0.324 0.85,0.98 l -1.152,10.143 c -0.098,0.513 -0.394,0.812 -0.878,0.81 c -0.484,0.002 -0.78,-0.297 -0.878,-0.81 l -1.152,-10.143 c -0.078,-0.656 0.366,-0.979 0.85,-0.98 l 1.18,-0.003 Z"/> <!-- drawn by distorting a rounded rect -->
	<path fill="#FFCC4D" d="M 27,22 c 4.527,0 6,3 6,3 l -6,4 l -6,-4 s 1.473,-3 6,-3 Z"/>
	
</svg>
