<svg xmlns="http://www.w3.org/2000/svg" viewBox="0 0 36 36">
	<circle r="17" cx="18" cy="18" fill="none" stroke="#dd2e44" stroke-width="2"/>
	<g fill="#dd2e44">
		<g>
			<path d="M 26.4495,6.7959 c 1.482,0 2.133,0.572 2.133,1.95 v4.784 c 0,1.378 -0.651,1.95 -2.133,1.95 h-8.736 c -1.508,0 -2.158,-0.572 -2.158,-1.95 v-4.784 c 0,-1.378 0.65,-1.95 2.158,-1.95 h8.736 ZM 17.3755,13.2959 c 0,0.494 0.234,0.624 0.702,0.624 h7.983 c 0.467,0 0.701,-0.13 0.701,-0.624 v-1.43 h-9.386 v1.43 ZM 26.7615,10.3319 v-1.378 c 0,-0.468 -0.234,-0.598 -0.701,-0.598 h-7.983 c -0.468,0 -0.702,0.13 -0.702,0.598 v1.378 h9.386 Z"/>
		</g>
		<g>
			<path d="M 26.8395,20.7849 h2.834 c 0.469,0 0.703,0.312 0.703,0.832 c 0,0.493 -0.234,0.831 -0.703,0.831 h-2.834 v4.967 c 0,1.794 -0.935,2.392 -2.886,2.392 c -0.936,0 -1.819,-0.052 -2.496,-0.208 c -0.364,-0.078 -0.676,-0.416 -0.676,-0.884 c 0,-0.078 0,-0.156 0.027,-0.234 c 0.104,-0.52 0.467,-0.78 0.805,-0.78 c 0.053,0 0.078,0 0.131,0.026 c 0.675,0.182 1.482,0.234 1.976,0.234 c 0.988,0 1.221,-0.182 1.221,-1.014 v-4.499 h-11.232 c -0.468,0 -0.702,-0.311 -0.702,-0.805 c 0,-0.546 0.234,-0.858 0.702,-0.858 h11.232 v-2.003 h-10.868 c -0.468,0 -0.702,-0.364 -0.702,-0.832 c 0,-0.494 0.234,-0.832 0.702,-0.832 h15.419 c 0.441,0 0.675,0.338 0.675,0.832 c 0,0.468 -0.234,0.832 -0.675,0.832 h-2.653 v2.003 Z"/>
			<path d="M 17.5315,23.0469 c 0.26,0 0.52,0.103 0.676,0.26 c 0.91,0.884 1.794,1.872 2.445,2.756 c 0.103,0.156 0.156,0.337 0.156,0.52 c 0,0.286 -0.131,0.571 -0.416,0.806 c -0.234,0.208 -0.494,0.286 -0.728,0.286 c -0.26,0 -0.52,-0.105 -0.651,-0.312 c -0.65,-0.936 -1.56,-2.054 -2.314,-2.835 c -0.156,-0.155 -0.234,-0.363 -0.234,-0.545 c 0,-0.26 0.13,-0.495 0.364,-0.703 c 0.208,-0.155 0.468,-0.233 0.702,-0.233 Z"/>
		</g>
		<g>
			<path d="M 13.7095,6.9249 c 0,0.157 -0.052,0.339 -0.156,0.495 c -1.222,1.976 -3.146,4.004 -5.096,5.46 c -0.208,0.182 -0.442,0.26 -0.65,0.26 c -0.26,0 -0.495,-0.13 -0.728,-0.416 c -0.156,-0.182 -0.234,-0.39 -0.234,-0.598 c 0,-0.286 0.156,-0.546 0.416,-0.754 c 1.846,-1.274 3.51,-3.094 4.602,-4.94 c 0.208,-0.261 0.494,-0.39 0.78,-0.39 c 0.208,0 0.39,0.051 0.572,0.156 c 0.312,0.181 0.494,0.442 0.494,0.727 Z"/>
			<path d="M 9.7055,21.5389 c 0,-1.066 0.078,-2.184 0.286,-3.407 c -0.65,0.806 -1.352,1.509 -2.08,2.055 c -0.156,0.13 -0.312,0.182 -0.52,0.182 c -0.26,0 -0.546,-0.131 -0.78,-0.39 c -0.131,-0.208 -0.182,-0.416 -0.182,-0.624 c 0,-0.287 0.104,-0.547 0.338,-0.729 c 2.236,-1.742 3.926,-3.9 5.2,-6.214 c 0.182,-0.312 0.442,-0.468 0.728,-0.468 c 0.182,0 0.364,0.052 0.52,0.156 c 0.364,0.182 0.52,0.442 0.52,0.754 c 0,0.156 -0.052,0.312 -0.13,0.468 c -0.494,0.884 -1.196,1.95 -1.924,2.886 v13.209 c 0,0.494 -0.39,0.754 -0.988,0.754 c -0.572,0 -0.988,-0.26 -0.988,-0.754 v-7.878 Z"/>
		</g>
	</g>
</svg>
