<svg xmlns="http://www.w3.org/2000/svg" viewBox="0 0 36 36" xml:space="preserve">
	<path d="M 8,8 h20 a 2.415,2.415 0 01 -0.708,1.708 l -0.178,0.178 a 0.1,0.1 0 00 0.04,0.165 l 0.795,0.265 a 3,3 0 01 2.051,2.846 v18.476 a 12,3.252 0 01 -12,3.252 a 12,3.252 0 01 -12,-3.252 v-18.476 a 3,3 0 01 2.051,-2.846 l 0.556,-0.185 a 0.256,0.256 0 00 0.1,-0.424 a 2.415,2.415 0 01 -0.707,-1.707 Z" fill="#C4C9C8"/>
	<ellipse rx="11" ry="3" cx="18" cy="30.5" fill="#AEB3B2"/>
	
	<path d="M 18,12 c -1.145,0 -5.129,-0.07 -8.335,-0.974 a 0.5,0.5 0 11 0.271,-0.963 c 3.083,0.87 6.952,0.937 8.064,0.937 s 4.981,-0.067 8.063,-0.937 a 0.501,0.501 0 01 0.271,0.963 c -3.205,0.904 -7.189,0.974 -8.334,0.974 Z" fill="#AEB3B2"/>
	<rect width="2" height="18" rx="1" x="9" y="13" fill="#FFF"/>
	
	<path d="M 29,6.8 c 0,1.657 -4.925,3.2 -11,3.2 s -11,-1.543 -11,-3.2 s 4.925,-2.8 11,-2.8 s 11,1.143 11,2.8 Z" fill="#F19020"/>
	<path d="M 7,4 h22 v2.8 h-22 v-2.8 Z" fill="#F19020"/>
	<ellipse rx="11" ry="3" cx="18" cy="4" fill="#F9CA55"/>
	<path d="M 10.465,4 c -0.296,-0.157 -0.465,-0.324 -0.465,-0.5 a 8,1.5 0 01 8,-1.5 a 8,1.5 0 01 8,1.5 c 0,0.176 -0.169,0.343 -0.465,0.5 c -1.099,-0.582 -4.053,-1 -7.535,-1 s -6.436,0.418 -7.535,1 Z" fill="#F19020"/>
</svg>
