<svg xmlns="http://www.w3.org/2000/svg" viewBox="0 0 36 36">
	the colors on this one were just absurd.
	<g>
		<path fill="#226699" d="M 18.422,9.449 c -3.34,2.94 -4.264,7.993 -4.429,12.309 c -0.105,4.384 1.292,10.209 -3.24,12.987 c -0.268,0.168 -0.543,-0.241 -0.27,-0.421 c 4.283,-2.8 2.682,-8.253 2.761,-12.577 c 0.01,-2.333 0.301,-4.687 0.967,-6.947 c 0.696,-2.229 1.669,-4.505 3.59,-6.134 a 0.5,0.5 0 11 0.621,0.783 Z"/>
		<path fill="#226699" d="M 27.832,13.668 c 1.117,4.799 -3.963,9.399 -7.835,11.342 c -4.171,2.252 -9.802,0.14 -13.133,3.929 a 0.25,0.25 0 01 -0.388,-0.316 c 0.769,-0.961 1.828,-1.658 2.963,-2.083 c 3.318,-1.19 7.125,-0.53 10.235,-2.207 c 3.425,-1.776 8.191,-6.139 7.206,-10.359 c -0.212,-0.624 0.757,-0.942 0.952,-0.306 Z"/>
		
		<path fill="#55ACEE" d="M 17.805,10.942 c -1.742,0.106 -2.921,1.913 -3.594,3.443 c -1.059,2.571 -2.316,5.778 -5.162,6.974 c -2.355,1.174 -6.204,0.74 -7.128,3.703 c -0.042,0.322 -0.561,0.241 -0.493,-0.085 c 0.849,-3.29 4.865,-3.025 7.329,-4.241 c 2.676,-1.253 3.597,-4.066 4.653,-6.705 c 0.781,-1.842 2.082,-3.902 4.368,-4.09 c 0.665,-0.025 0.702,0.991 0.027,1.001 Z"/>
		<path fill="#55ACEE" d="M 27.29,13.132 c 3.707,3.082 -0.069,7.801 0.191,11.535 c 0.164,2.362 1.777,4.401 1.328,6.919 c -0.059,0.317 -0.563,0.223 -0.49,-0.101 c 0.255,-1.464 -0.423,-2.932 -0.937,-4.406 c -1.443,-3.038 0.133,-6.347 0.592,-9.331 c 0.154,-1.336 -0.087,-3.011 -1.233,-3.78 c -0.56,-0.354 -0.004,-1.212 0.549,-0.836 Z"/>
		<path fill="#55ACEE" d="M 15.202,7.795 c -0.212,3.584 -3.446,5.669 -5.227,8.402 c -1.823,2.74 -1.88,6.285 -3.691,9.045 c -1.056,1.856 -2.543,4.293 -5.064,4.028 c -0.321,-0.047 -0.25,-0.548 0.076,-0.494 c 2.203,0.174 3.504,-2.121 4.443,-3.839 c 1.198,-1.835 1.486,-3.961 2.172,-6.098 c 0.638,-2.131 1.9,-4.13 3.425,-5.714 c 1.455,-1.593 2.76,-3.353 2.869,-5.402 c 0.034,-0.654 1.055,-0.598 0.997,0.072 Z"/>
		<path fill="#55ACEE" d="M 31.369,13.485 c 0.594,3.204 -0.718,6.369 -2.896,8.603 c -2.928,2.592 -5.417,3.76 -4.604,8.249 c 0.267,1.195 0.792,2.693 -0.048,3.826 c -0.184,0.237 -0.494,0.428 -0.822,0.439 c -0.323,0.015 -0.35,-0.479 -0.025,-0.499 c 0.848,-0.158 0.816,-1.496 0.683,-2.208 c -1.029,-2.977 -0.704,-6.466 2.029,-8.424 c 1.518,-1.255 3.013,-2.477 3.849,-4.28 c 0.83,-1.704 1.293,-3.723 0.859,-5.486 c -0.156,-0.636 0.836,-0.874 0.975,-0.22 Z"/>
	</g>
	
	<g>
		<path fill="#55ACEE" d="M 21.62,10.225 l 0.306,0.122 a 2.238,2.238 0 01 0.962,1.893 c -0.022,0.745 -0.434,1.486 -1.062,1.919 c -0.364,0.278 -0.772,0.453 -1.112,0.751 s -0.632,0.785 -0.622,1.323 c 0.007,0.379 0.153,0.718 0.085,1.096 c -0.137,0.77 -0.92,1.044 -1.415,1.688 c -0.416,0.541 -0.608,1.292 -0.655,1.866 c -0.115,1.415 0.682,2.175 -0.693,3.865 c -0.836,1.027 -2.195,1.737 -2.866,2.729 c -0.514,0.759 -0.42,1.456 -1.014,2.129 c -0.366,0.414 -0.928,0.725 -1.467,0.961 c -0.54,0.236 -1.091,0.422 -1.579,0.684 c -0.372,0.2 -0.71,0.46 -0.849,0.729 c -0.124,0.24 -0.199,0.501 -0.465,0.702 c -0.367,0.278 -0.952,0.305 -1.414,0.251 c -0.463,-0.054 -0.931,-0.162 -1.367,-0.058 c -0.366,0.087 -0.622,0.305 -0.913,0.45 a 2.159,2.159 0 01 -1.537,0.122 c -0.26,-0.078 -0.495,-0.21 -0.686,-0.378 c -0.173,-0.152 -0.26,-0.359 -0.417,-0.512 c -0.357,-0.35 -0.664,-0.704 -0.916,-1.131 c 1.376,0.709 3.191,0.755 5.071,-0.028 c 2.542,-1.059 4.797,-3.51 6.481,-6.4 c 1.696,-2.909 2.69,-6.062 3.732,-8.864 c 1.032,-2.788 2.375,-5.025 4.412,-5.909 Z"/>
		<path fill="#55ACEE" d="M 27.485,11.325 c -0.404,0.425 -0.818,0.869 -1.139,1.364 c -0.256,0.396 -0.543,0.706 -0.53,1.199 c 0.01,0.396 0.147,0.776 0.209,1.171 c 0.062,0.394 0.034,0.837 -0.237,1.152 c -0.238,0.276 -0.627,0.412 -0.855,0.706 c -0.416,0.538 -0.104,1.301 -0.375,1.93 c -0.216,0.501 -0.751,0.811 -1.233,1.129 c -0.3,0.198 -0.609,0.436 -0.818,0.737 c -0.188,0.271 -0.194,0.519 -0.266,0.809 c -0.149,0.603 -0.265,1.179 -0.307,1.803 c -0.071,1.046 0.067,2.321 -0.49,3.435 c -0.355,0.71 -1.032,1.365 -1.352,2.017 c -0.673,1.371 -0.324,3.161 0.398,4.205 c -0.103,-0.149 -0.777,-0.178 -0.96,-0.239 c -0.32,-0.107 -0.675,-0.221 -0.946,-0.424 c -0.466,-0.349 -1.108,-0.402 -1.499,-0.852 c -0.349,-0.4 -0.403,-1.163 0.044,-1.662 c 0.295,-0.329 0.733,-0.473 0.99,-0.827 c 0.284,-0.392 0.229,-0.868 0.128,-1.248 s -0.226,-0.787 -0.036,-1.198 c 0.263,-0.57 1.015,-0.885 1.243,-1.444 c 0.113,-0.276 0.067,-0.551 -0.03,-0.778 s -0.242,-0.422 -0.333,-0.646 c -0.257,-0.632 0.018,-1.49 0.601,-2.09 c 0.666,-0.685 1.352,-1.352 1.75,-2.16 c 0.392,-0.796 0.348,-1.255 1.058,-2.777 c 1.103,-2.365 2.218,-3.668 2.782,-4.965 c 0.433,-1 0.161,-1.177 0.442,-1.813 c 0.186,-0.422 0.712,-0.623 1.17,-0.446 c 0.612,0.236 1.035,1.057 0.766,1.655 a 0.96,0.96 0 01 -0.175,0.257 Z"/>
		<path fill="#226699" d="M 23.236,10.729 c -4.499,2.926 -5.866,8.1 -7.864,12.781 c -2.086,5.045 -6.908,10.377 -13.045,8.984 c -0.931,-0.222 -0.64,-1.639 0.308,-1.463 c 1.099,0.231 2.434,0.107 3.591,-0.282 c 6.499,-2.301 7.403,-10.077 9.909,-15.665 c 1.103,-2.562 3.058,-5.014 5.246,-6.712 a 1.5,1.5 0 11 1.855,2.357 Z"/>
		<path fill="#226699" d="M 25.22,9.778 c 2.215,4.187 -2.942,7.691 -2.201,11.836 c 0.138,0.894 0.422,2.015 0.231,3.247 c -0.358,2.247 -2.128,3.489 -2.832,5.337 c -0.299,0.715 -0.263,1.64 0.073,1.943 c 0.704,0.656 -0.285,1.751 -1.01,1.109 c -0.586,-0.519 -0.795,-1.215 -0.856,-1.816 c -0.355,-2.605 2.249,-4.605 2.58,-6.841 c 0.131,-1.202 -0.665,-2.828 -0.595,-4.256 c -0.03,-2.975 2.019,-5.565 2.271,-8.357 c -0.02,-0.435 -0.163,-0.491 -0.278,-0.796 c -0.778,-1.69 1.638,-2.983 2.617,-1.406 Z"/>
	</g>
	
	<g>
		<path fill="#88C9F9" d="M 27.752,1.218 c 5.177,2.347 7.273,8.759 4.685,14.322 c -0.854,1.832 -1.014,0.02 -1.995,0.064 c -0.634,0.029 -1.311,2.453 -2.604,1.196 c -0.451,-0.438 -0.287,-1.458 -1.472,-1.8 c -0.696,-0.2 -2.162,1.163 -2.714,0.6 c -0.51,-0.521 -0.846,-1.896 -1.564,-2.221 c -0.718,-0.326 -2.007,0.432 -2.728,0.275 c -0.782,-0.17 -0.578,-1.993 -1.186,-2.384 c -0.69,-0.442 -2.126,0.049 -2.782,-0.193 c -0.818,-0.302 -0.069,-2.011 -0.459,-2.503 c -0.604,-0.762 -2.102,0.298 -1.249,-1.533 c 2.592,-5.563 8.89,-8.17 14.068,-5.823 Z"/>
		<path fill="#BBDDF5" d="M 32.229,12.277 c -0.437,0.995 -1.143,1.531 -1.832,1.227 c -2.919,-1.289 2.067,-4.482 -8.809,-8.328 c -4.906,-1.735 0.714,-5.7 6.026,-3.192 c 4.945,2.335 5.625,7.995 4.615,10.293 Z"/>
		<path fill="#FFFFFF" d="M 15.342,7.222 c 1.036,-3.838 5.256,-5.241 8.789,-5.396 a 0.25,0.25 0 01 0.059,0.496 c -3.288,0.34 -7.072,1.627 -7.883,5.166 c -0.165,0.649 -1.157,0.38 -0.965,-0.266 Z"/>
		<path fill="#FFFFFF" d="M 18.602,10.079 c 1.173,-2.806 3.089,-5.43 5.88,-6.717 a 0.25,0.25 0 01 0.18,0.466 c -2.458,1.29 -4.223,4.003 -5.105,6.547 c -0.177,0.661 -1.185,0.354 -0.955,-0.296 Z"/>
		<path fill="#FFFFFF" d="M 26.528,13.827 c 0.869,-2.875 1.236,-6.186 0.725,-9.17 c -0.069,-0.306 0.413,-0.421 0.487,-0.113 c 0.699,3.19 0.506,6.418 -0.26,9.591 a 0.5,0.5 0 11 -0.952,-0.308 Z"/>
		<path fill="#FFFFFF" d="M 22.48,12.027 l 3.311,-7.603 c 0.123,-0.295 0.589,-0.099 0.46,0.197 l -2.852,7.8 c -0.243,0.643 -1.216,0.231 -0.919,-0.394 Z"/>
		<path fill="#FFFFFF" d="M 30.64,14.388 c 0.682,-3.508 0.699,-7.739 -2.1,-10.342 c -0.238,-0.208 0.089,-0.585 0.33,-0.376 c 1.526,1.268 2.415,3.168 2.763,5.081 c 0.359,1.928 0.278,3.897 -0.008,5.809 a 0.5,0.5 0 11 -0.985,-0.172 Z"/>
	</g>
</svg>
