<svg xmlns="http://www.w3.org/2000/svg" viewBox="0 0 36 36">
	<rect x="4" y="0" width="28" height="36" rx="4"  fill="#E6E7E8"/>
	
	<path d="M 9,28 a 4,4 0 00 4,-4 a 4,4 0 00 -1.293,-2.929 a 5,5 0 01 4.293,4.929 a 5,5 0 01 -5,5 a 5,5 0 01 -4.929,-4.293 a 4,4 0 00 2.929,1.293 Z"   fill="#553788"/>
	<path d="M 27,28 a 4,4 0 00 2.929,-1.293 a 5,5 0 01 -4.929,4.293 a 5,5 0 01 -5,-5 a 5,5 0 01 4.293,-4.929 a 4,4 0 00 -1.293,2.929 a 4,4 0 00 4,4 Z"  fill="#553788"/>
	<path d="M 14,24 a 4,9 0 01 8,0 c 0,4.971 -3,9 -4,9 s -4,-4.029 -4,-9 Z"  fill="#9266CC"/>
	
	<path d="M 11,7 a 5,5 0 01 5,5 c 0,2.519 0.13,4.583 -2.293,4.929 c 0.79,-0.731 -0.707,-0.929 -0.707,-2.929 a 4,4 0 00 -4,-4 a 4,4 0 00 -2.929,1.293 a 5,5 0 01 4.929,-4.293 Z"   fill="#DD2E44"/>
	<circle fill="#A0041E" cx="6" cy="11" r="1"/>
	<path d="M 23,14 c 0,2 -1.497,2.198 -0.707,2.929 c -2.424,-0.346 -2.293,-2.41 -2.293,-4.929 a 5,5 0 01 5,-5 a 5,5 0 01 4.929,4.293 a 4,4 0 00 -2.929,-1.293 a 4,4 0 00 -4,4 Z"   fill="#55ACEE"/>
	<circle fill="#269" cx="30" cy="11" r="1"/>
	<path d="M 14,12 c 0,-4.971 4,-9 4,-9 s 4,4.029 4,9 a 4,9 0 01 -8,0 Z" fill="#FFAC33"/>
	<circle fill="#DD2E44" cx="18" cy="3" r="1"/>
	
	<path d="M 13,17 c 0,-3.866 3,-4 5,-4 s 5,0.134 5,4 a 5,7 0 01 -10,0 Z"  fill="#EDBB9F"/>
	<circle fill="#662113" cx="16" cy="17" r="1"/>
	<circle fill="#662113" cx="20" cy="17" r="1"/>
	<path d="M 20,20 a 1,1 0 01 -4,0 h4 Z"  fill="#662113"/>
</svg>
