<svg viewBox="0 0 36 36" xmlns="http://www.w3.org/2000/svg">
	<path d="M 18,0 l 18,5 v29 l -18,2 l -18,-2 v-29 l 18,-5 Z"/>
	<path d="M 18,36 v-36 l 18,5 v29 l -18,2 Z" fill="#292F33"/>
	<path d="M 0,11.146 l 18,-3.532 v3.764 l -18,3.268 v-3.5 Z" fill="#FFAC33"/>
	<path d="M 0,16.792 l 0.539,-0.091 v3.096 l -0.539,0.078 v-3.083 Z" fill="#FFAC33"/>
	<path d="M 3.247,16.244 l 3.299,-0.556 v3.239 l -3.299,0.478 v-3.161 Z" fill="#FFAC33"/>
	<path d="M 9.317,15.22 l 4.229,-0.713 v3.407 l -4.229,0.612 v-3.306 Z" fill="#FFAC33"/>
	<path d="M 16.317,14.04 l 1.683,-0.284 v3.513 l -1.683,0.244 v-3.473 Z" fill="#FFAC33"/>
	<path d="M 1.595,17.23 v-0.039 c 0,-0.393 0.134,-0.712 0.299,-0.712 s 0.299,0.319 0.299,0.712 v0.039 c 0.194,0.203 0.331,0.58 0.331,1.03 c 0,0.479 -0.151,0.886 -0.367,1.076 c -0.059,0.182 -0.152,0.308 -0.263,0.308 s -0.204,-0.127 -0.264,-0.308 c -0.215,-0.189 -0.367,-0.597 -0.367,-1.076 c 0.001,-0.45 0.137,-0.827 0.332,-1.03 Z" fill="#FFAC33"/>
	<path d="M 14.611,15.131 v-0.042 c 0,-0.421 0.143,-0.763 0.32,-0.763 s 0.32,0.342 0.32,0.763 v0.042 c 0.208,0.217 0.355,0.621 0.355,1.103 c 0,0.513 -0.162,0.949 -0.393,1.152 c -0.064,0.195 -0.163,0.33 -0.282,0.33 s -0.218,-0.135 -0.282,-0.33 c -0.231,-0.203 -0.393,-0.639 -0.393,-1.152 c 0.001,-0.482 0.147,-0.886 0.355,-1.103 Z" fill="#FFAC33"/>
	<path d="M 7.612,16.2 v-0.042 c 0,-0.421 0.143,-0.763 0.32,-0.763 s 0.32,0.342 0.32,0.763 v0.042 c 0.208,0.217 0.355,0.621 0.355,1.103 c 0,0.513 -0.162,0.949 -0.393,1.152 c -0.064,0.195 -0.163,0.33 -0.282,0.33 s -0.218,-0.135 -0.282,-0.33 c -0.231,-0.203 -0.393,-0.639 -0.393,-1.152 c 0,-0.481 0.147,-0.885 0.355,-1.103 Z" fill="#FFAC33"/>
	<path d="M 18,7.614 l 18,3.532 v3.5 l -18,-3.268 v-3.764 Z" fill="#FFD983"/>
	<path d="M 36,16.792 v3.083 l -0.539,-0.078 v-3.096 l 0.539,0.091 Z" fill="#FFD983"/>
	<path d="M 29.454,15.688 l 3.299,0.556 v3.161 l -3.299,-0.478 v-3.239 Z" fill="#FFD983"/>
	<path d="M 22.454,14.507 l 4.229,0.713 v3.306 l -4.229,-0.612 v-3.407 Z" fill="#FFD983"/>
	<path d="M 18,13.756 l 1.683,0.284 v3.473 l -1.683,-0.244 v-3.513 Z" fill="#FFD983"/>
	<path d="M 34.405,17.23 c 0.195,0.203 0.331,0.58 0.331,1.03 c 0,0.479 -0.152,0.887 -0.367,1.076 c -0.06,0.182 -0.152,0.308 -0.263,0.308 s -0.204,-0.126 -0.263,-0.308 c -0.216,-0.19 -0.367,-0.597 -0.367,-1.076 c 0,-0.45 0.137,-0.827 0.331,-1.03 v-0.039 c 0,-0.393 0.134,-0.712 0.299,-0.712 s 0.299,0.319 0.299,0.712 v0.039 Z" fill="#FFD983"/>
	<path d="M 28.388,16.2 c 0.208,0.218 0.355,0.622 0.355,1.103 c 0,0.513 -0.162,0.949 -0.393,1.152 c -0.064,0.195 -0.163,0.33 -0.282,0.33 s -0.218,-0.135 -0.282,-0.33 c -0.231,-0.203 -0.393,-0.639 -0.393,-1.152 c 0,-0.482 0.147,-0.886 0.355,-1.103 v-0.042 c 0,-0.421 0.143,-0.763 0.32,-0.763 s 0.32,0.342 0.32,0.763 v0.042 Z" fill="#FFD983"/>
	<path d="M 21.389,15.131 c 0.208,0.217 0.354,0.621 0.355,1.103 c 0,0.513 -0.162,0.949 -0.393,1.152 c -0.064,0.195 -0.163,0.33 -0.282,0.33 s -0.218,-0.135 -0.282,-0.33 c -0.231,-0.203 -0.393,-0.639 -0.393,-1.152 c 0,-0.482 0.147,-0.886 0.355,-1.103 v-0.042 c 0,-0.421 0.143,-0.763 0.32,-0.763 s 0.32,0.342 0.32,0.763 v0.042 Z" fill="#FFD983"/>
</svg>
