<svg xmlns="http://www.w3.org/2000/svg" viewBox="0 0 36 36">
	<!-- back ear -->
	<path d="M 6.513,0.886 c 0,0.984 0.649,3.926 1.153,5.047 s -0.505,0.35 -1.442,-0.771 s -1.657,-2.244 -1.225,-3.435 s 1.514,-2.173 1.514,-0.841 Z"  fill="#BF6952"/>
	<!-- body -->
	<path d="M 0.314,10.699 c 0.003,-0.851 1.114,-1.701 3.1,-3.224 c 0.661,-0.508 1.081,-1.683 1.778,-2.103 c 1.567,-0.945 4.268,-1.038 5.418,0.319 c 1.424,1.682 1.277,3.859 1.099,6.892 c -0.12,2.046 2.186,1.497 5.363,3.356 c 4.304,2.519 6.208,7.044 7.044,9.487 c 0.836,2.444 1.507,6.459 4.658,6.909 c 2.961,0.423 5.079,-0.672 5.722,-1.508 s 1.479,-0.836 1.093,0.193 c -0.385,1.029 -1.735,4.855 -6.815,4.855 s -8.23,-5.204 -8.809,-5.976 c -0.579,-0.771 -1.56,-0.698 -1.974,-0.838 c 0.207,2.689 -1.048,4.368 -0.598,5.332 s 0.514,1.607 -0.193,1.607 h-6.944 c -1.35,0 -1.157,-0.836 0.064,-1.029 c 1.222,-0.193 4.115,-0.386 4.694,-0.579 s 0.244,-1.104 -0.45,-2.215 c -0.756,-1.211 -1.479,-3.986 -1.479,-3.986 c -4.822,-1.222 -6.271,-5.355 -7.201,-10.095 c -0.55,-2.805 0.711,-5.478 0.629,-6.276 s -1.983,0.229 -3.316,0.561 c -1.663,0.415 -2.887,-0.721 -2.883,-1.682 Z"  fill="#D99E82"/>
	<!-- arm -->
	<path d="M 6.042,22.625 c -0.259,0.531 -0.006,1.019 -0.158,1.355 c -0.225,0.497 -1.254,0.804 -1.35,-0.032 c -0.097,-0.836 -0.021,-1.948 0.45,-2.572 c 0.322,-0.427 3.279,-2.797 3.408,-2.893 s -0.354,-2.893 -0.354,-2.893 s 0.096,-1.125 1.447,-0.868 c 1.35,0.257 1.318,1.415 1.318,2.636 s 0.225,2.443 -0.386,2.733 s -4.117,2.003 -4.375,2.534 Z"  fill="#D99E82"/>
	<!-- ear -->
	<path d="M 9.973,0.255 c 0.912,-0.665 1.009,1.963 0.793,2.804 s -1.875,3.014 -1.875,3.014 s -1.297,0.631 -1.297,-0.911 s 1.514,-4.276 2.379,-4.907 Z"  fill="#D99E82"/>
	<path d="M 10.062,2.09 c -0.778,-0.464 -2.225,2.808 -1.766,3.055 c 0.459,0.248 2.346,-2.709 1.766,-3.055 Z"  fill="#BF6952"/>
	<!-- arm line -->
	<path d="M 7.274,22.34 c -0.125,0 -0.244,-0.073 -0.297,-0.195 c -0.071,-0.164 0.004,-0.354 0.168,-0.426 c 1.066,-0.464 1.99,-1.182 2.367,-1.533 c 0.15,-0.182 0.523,-1.447 0.777,-2.511 c 0.042,-0.174 0.219,-0.278 0.39,-0.24 c 0.174,0.042 0.281,0.216 0.24,0.39 c -0.223,0.931 -0.645,2.536 -0.966,2.835 c -0.546,0.508 -1.546,1.216 -2.55,1.652 c -0.042,0.019 -0.086,0.028 -0.129,0.028 Z"  fill="#BF6952"/>
	<!-- eye/nose -->
	<path d="M 6.657,7.405 c 0,0.465 -0.387,0.841 -0.865,0.841 s -0.865,-0.377 -0.865,-0.841 s 0.387,-0.561 0.865,-0.561 s 0.865,0.096 0.865,0.561 Z"  fill="#292F33"/>
	<path d="M 0.314,10.139 c 0.869,-0.528 1.081,0.911 0.793,1.402 c -0.289,0.49 -1.37,-1.052 -0.793,-1.402 Z"  fill="#292F33"/>
</svg>
