<svg xmlns="http://www.w3.org/2000/svg" viewBox="0 0 36 36">
	<rect x="0" y="10" width="36" height="20" rx="2"  fill="#99AAB5"/>
	
	<g  fill="#292F33">
		<g>
			<rect x="2.5" y="17" width="3" height="3" rx="1"/>
			<rect x="6.5" y="17" width="3" height="3" rx="1"/>
			<rect x="10.5" y="17" width="3" height="3" rx="1"/>
			<rect x="14.5" y="17" width="3" height="3" rx="1"/>
			<rect x="18.5" y="17" width="3" height="3" rx="1"/>
			<rect x="22.5" y="17" width="3" height="3" rx="1"/>
			<rect x="26.5" y="17" width="3" height="3" rx="1"/>
			<rect x="30.5" y="17" width="3" height="3" rx="1"/>
			<rect x="4.5" y="21" width="3" height="3" rx="1"/>
			<rect x="8.5" y="21" width="3" height="3" rx="1"/>
			<rect x="12.5" y="21" width="3" height="3" rx="1"/>
			<rect x="16.5" y="21" width="3" height="3" rx="1"/>
			<rect x="20.5" y="21" width="3" height="3" rx="1"/>
			<rect x="24.5" y="21" width="3" height="3" rx="1"/>
			<rect x="28.5" y="21" width="3" height="3" rx="1"/>
		</g>
		<g>
			<rect x="6" y="25" width="4" height="3" rx="1"/>
			<rect x="26" y="25" width="4" height="3" rx="1"/>
			<rect x="11" y="25" width="14" height="3" rx="1"/>
		</g>
		<g>
			<rect x="2.5" y="12.083" width="3" height="2" rx="1"/>
			<rect x="6.5" y="12.083" width="3" height="2" rx="1"/>
			<rect x="10.5" y="12.083" width="3" height="2" rx="1"/>
			<rect x="14.5" y="12.083" width="3" height="2" rx="1"/>
			<rect x="18.5" y="12.083" width="3" height="2" rx="1"/>
			<rect x="22.5" y="12.083" width="3" height="2" rx="1"/>
			<rect x="26.5" y="12.083" width="3" height="2" rx="1"/>
			<rect x="30.5" y="12.083" width="3" height="2" rx="1"/>
		</g>
	</g>
</svg>
