<svg xmlns="http://www.w3.org/2000/svg" viewBox="0 0 36 36">
	<rect width="36" height="36" rx="4" fill="#3B88C3"/>
	<path d="M 16.3892,14.4893 c 0.744,-0.155 1.551,-0.31 2.326,-0.31 c 3.752,0 6.418,2.977 6.418,6.604 c 0,5.178 -2.852,8.589 -8.217,8.589 c -2.201,0 -6.821,-1.427 -6.821,-4.155 c 0,-1.147 0.961,-2.108 2.108,-2.108 c 1.241,0 2.729,1.984 4.806,1.984 c 2.171,0 3.288,-2.109 3.288,-4.062 c 0,-1.86 -1.055,-3.131 -2.977,-3.131 c -1.799,0 -2.078,1.023 -3.66,1.023 c -1.209,0 -1.829,-0.93 -1.829,-1.457 c 0,-0.404 0.062,-0.713 0.093,-1.055 l 0.776,-6.542 c 0.34,-2.418 0.93,-2.945 2.418,-2.945 h7.472 c 1.427,0 2.263,0.836 2.263,1.953 c 0,2.139 -1.611,2.325 -2.17,2.325 h-5.829 l -0.465,3.287 Z" fill="#ffffff"/>
</svg>
