<svg xmlns="http://www.w3.org/2000/svg" viewBox="0 0 36 36">
	<rect width="36" height="36" rx="4" fill="#3B88C3"/>
	<path d="M 24.1094,12.2256 c 0,1.954 -0.836,3.659 -2.542,4.744 c 2.232,1.024 3.782,3.101 3.782,5.55 c 0,3.721 -3.41,6.852 -7.813,6.852 c -4.589,0 -7.441,-3.379 -7.441,-5.829 c 0,-1.209 1.271,-2.077 2.388,-2.077 c 2.108,0 1.612,3.628 5.115,3.628 c 1.613,0 2.915,-1.24 2.915,-2.884 c 0,-4.34 -5.271,-1.147 -5.271,-4.806 c 0,-3.255 4.402,-1.054 4.402,-4.495 c 0,-1.179 -0.836,-2.078 -2.232,-2.078 c -2.945,0 -2.542,3.039 -4.651,3.039 c -1.271,0 -2.015,-1.148 -2.015,-2.295 c 0,-2.418 3.318,-5.023 6.759,-5.023 c 4.465,0 6.604,3.256 6.604,5.674 Z" fill="#ffffff"/>
</svg>
