<svg xmlns="http://www.w3.org/2000/svg" viewBox="0 0 36 36">
	<rect width="36" height="36" rx="4" fill="#3B88C3"/>
	<path d="M 10.343,22.303 c 0,-2.481 1.364,-4.31 3.318,-5.364 c -1.457,-1.054 -2.357,-2.481 -2.357,-4.434 c 0,-3.628 3.008,-5.953 6.697,-5.953 c 3.597,0 6.729,2.294 6.729,5.953 c 0,1.736 -0.869,3.473 -2.388,4.434 c 2.109,1.054 3.318,2.976 3.318,5.364 c 0,4.309 -3.504,7.069 -7.659,7.069 c -4.278,0 -7.658,-2.915 -7.658,-7.069 ZM 15.769,13.001 c 0,1.396 0.807,2.356 2.232,2.356 c 1.427,0 2.265,-0.96 2.265,-2.356 c 0,-1.333 -0.807,-2.356 -2.265,-2.356 c -1.457,0 -2.232,1.023 -2.232,2.356 ZM 15.18,21.992 c 0,1.582 0.93,3.102 2.821,3.102 c 1.768,0 2.822,-1.52 2.822,-3.102 c 0,-1.953 -1.116,-3.1 -2.822,-3.1 c -1.797,0 -2.821,1.364 -2.821,3.1 Z" fill="#ffffff"/>
</svg>
