<svg xmlns="http://www.w3.org/2000/svg" viewBox="0 0 36 36">
	<rect width="36" height="36" rx="4" fill="#3B88C3"/>
	<path d="M 10.7697,24.1317 c -1.519,0 -2.171,-1.022 -2.171,-1.829 c 0,-0.682 0.248,-1.055 0.435,-1.364 l 6.945,-12.589 c 0.682,-1.24 1.55,-1.798 3.162,-1.798 c 1.799,0 3.566,1.148 3.566,3.969 v9.518 h0.528 c 1.209,0 2.17,0.807 2.17,2.047 c 0,1.241 -0.961,2.046 -2.17,2.046 h-0.528 v2.636 c 0,1.643 -0.651,2.418 -2.232,2.418 c -1.582,0 -2.233,-0.775 -2.233,-2.418 v-2.636 h-7.472 ZM 18.2417,11.3887 h-0.062 l -4.186,8.65 h4.248 v-8.65 Z" fill="#ffffff"/>
</svg>
