<svg xmlns="http://www.w3.org/2000/svg" viewBox="0 0 36 36">
	<rect width="36" height="36" rx="4" fill="#3B88C3"/>
	<path d="M 23.0859,24.9072 c 1.365,0 2.42,0.62 2.42,2.046 c 0,1.427 -1.055,2.047 -2.233,2.047 h-10.356 c -1.365,0 -2.418,-0.62 -2.418,-2.047 c 0,-0.65 0.402,-1.209 0.712,-1.581 c 2.574,-3.069 5.365,-5.861 7.721,-9.271 c 0.558,-0.806 1.086,-1.767 1.086,-2.883 c 0,-1.271 -0.961,-2.388 -2.233,-2.388 c -3.566,0 -1.861,5.023 -4.837,5.023 c -1.488,0 -2.264,-1.054 -2.264,-2.263 c 0,-3.907 3.473,-7.038 7.287,-7.038 s 6.883,2.511 6.883,6.449 c 0,4.309 -4.805,8.589 -7.441,11.906 h5.673 Z" fill="#ffffff"/>
</svg>
