<svg xmlns="http://www.w3.org/2000/svg" viewBox="0 0 36 36">
	<rect width="36" height="36" rx="4" fill="#3B88C3"/>
	<path d="M 13.7854,16.1945 h-2.667 c -1.023,0 -1.488,-0.744 -1.488,-1.488 c 0,-0.745 0.465,-1.489 1.488,-1.489 h3.101 l 0.682,-4.991 c 0.155,-1.117 0.62,-1.489 1.55,-1.489 c 0.744,0 1.426,0.496 1.426,1.241 c 0,0.465 0,0.248 -0.061,0.744 l -0.621,4.495 h2.977 l 0.682,-4.991 c 0.155,-1.117 0.62,-1.489 1.55,-1.489 c 0.744,0 1.427,0.496 1.427,1.241 c 0,0.465 0,0.248 -0.062,0.744 l -0.621,4.495 h2.667 c 1.023,0 1.487,0.744 1.487,1.489 c 0,0.744 -0.464,1.488 -1.487,1.488 h-3.101 l -0.496,3.535 h2.666 c 1.024,0 1.489,0.744 1.489,1.488 s -0.465,1.489 -1.489,1.489 h-3.099 l -0.683,4.991 c -0.155,1.117 -0.62,1.488 -1.55,1.488 c -0.744,0 -1.426,-0.496 -1.426,-1.24 c 0,-0.465 0,-0.248 0.062,-0.744 l 0.62,-4.495 h-2.977 l -0.682,4.991 c -0.155,1.117 -0.62,1.488 -1.55,1.488 c -0.744,0 -1.427,-0.496 -1.427,-1.24 c 0,-0.465 0,-0.248 0.062,-0.744 l 0.621,-4.495 h-2.667 c -1.023,0 -1.488,-0.745 -1.488,-1.489 s 0.465,-1.488 1.488,-1.488 h3.101 l 0.496,-3.535 ZM 16.2964,19.7295 h2.946 l 0.496,-3.535 h-2.946 l -0.496,3.535 Z" fill="#ffffff"/>
</svg>
