<svg xmlns="http://www.w3.org/2000/svg" viewBox="0 0 36 36">
	<rect width="36" height="36" rx="4" fill="#3B88C3"/>
	<g fill="#FFFFFF"> this was #f5f8fa but i changed it to be consistent with the other keycaps
		<path d="M 7.2134,10.9751 h-1.958 c -1.592,0 -2.255,-1.162 -2.255,-2.289 c 0,-1.16 0.829,-2.288 2.255,-2.288 h4.71 c 1.426,0 2.223,1.028 2.223,2.354 v18.875 c 0,1.658 -1.061,2.586 -2.488,2.586 c -1.425,0 -2.487,-0.928 -2.487,-2.586 v-16.652 Z"/>
		<path d="M 27.5859,18.2065 c 0,-2.521 -0.232,-7.696 -3.616,-7.696 c -3.383,0 -3.615,5.175 -3.615,7.696 c 0,2.355 0.232,7.695 3.615,7.695 c 3.384,0 3.616,-5.34 3.616,-7.695 ZM 15.1799,18.2065 c 0,-5.407 2.09,-12.207 8.79,-12.207 s 8.791,6.8 8.791,12.207 c 0,5.406 -2.091,12.207 -8.791,12.207 s -8.79,-6.801 -8.79,-12.207 Z"/>
	</g>
</svg>
