<svg xmlns="http://www.w3.org/2000/svg" viewBox="0 0 36 36">
	<rect width="36" height="36" rx="4" fill="#3B88C3"/>
	<path d="M 25.7843,14.2412 c 0,4.682 -4.743,11.255 -7.876,14.17 c -0.248,0.248 -0.62,0.496 -0.992,0.744 c -0.341,0.217 -0.682,0.217 -0.93,0.217 c -0.868,0 -2.202,-1.148 -2.202,-2.264 c 0,-0.433 0.28,-0.805 0.652,-1.27 c 1.24,-1.52 3.256,-3.504 4.279,-4.961 l -0.062,-0.063 c -0.559,0.248 -1.272,0.372 -1.954,0.372 c -3.72,0 -6.48,-3.286 -6.48,-6.945 c 0,-4.031 3.193,-7.689 7.782,-7.689 c 4.776,0 7.783,3.565 7.783,7.689 ZM 20.9473,14.2412 c 0,-1.736 -1.086,-3.225 -2.946,-3.225 c -1.767,0 -2.945,1.427 -2.945,3.225 c 0,1.644 0.992,3.225 2.945,3.225 c 1.768,0 2.946,-1.396 2.946,-3.225 Z" fill="#ffffff"/>
</svg>
