<svg xmlns="http://www.w3.org/2000/svg" viewBox="0 0 36 36">
	<defs>
		<g id="wheel1">
			<circle r="4.5" fill="#292f33"/>
			<circle r="3" fill="#dd2e44"/>
		</g>
	</defs>
	
	<use href="#wheel1" x="4.5" y="31.5"/>
	<use href="#wheel1" x="31.5" y="31.5"/>
	
	<path d="M 9.2995,4.3236 l -1.956,-0.416 c -0.807,-0.171 -1.327,-0.972 -1.156,-1.779 c 0.172,-0.807 0.972,-1.327 1.779,-1.155 l 1.957,0.416 c 0.807,0.171 1.327,0.972 1.155,1.779 c -0.171,0.807 -0.972,1.327 -1.779,1.155 Z" fill="#dd2e44"/>
	
	<path d="M 4.3951,31.9977 c -0.269,-0.057 -0.442,-0.324 -0.385,-0.593 l 6.002,-28.238 c 0.057,-0.269 0.324,-0.442 0.593,-0.385 s 0.442,0.324 0.385,0.593 l -6.002,28.238 c -0.057,0.269 -0.324,0.442 -0.593,0.385 Z" fill="#99aab5"/>
	
	<g>
		<rect width="23" height="3" rx="1.5" x="10" y="30" fill="#55acee"/>
		<g transform="translate(31.5 31.5)">
			<path d="m -6.25,0 a 6.25,6.25 0 01 6.25,-6.25 A 6.25,6.25 0 01 3.69,-5.04" stroke-width="1.5" stroke-linecap="round" fill="none" stroke="#55acee"/>
		</g>
		
		<path d="M 5.6287,26.1169 c 0.232,-1.119 0.476,-2.298 0.708,-3.428 c 4.089,0.848 7.163,4.469 7.163,8.81 l -3.5,-0.004 c -0.002,-2.648 -1.876,-4.858 -4.371,-5.378 Z" fill="#55acee"/>
		<path d="M 6.1235,26.2607 l -0.978,-0.208 c -0.538,-0.114 -0.885,-0.648 -0.77,-1.186 l 1.247,-5.869 c 0.114,-0.538 0.648,-0.884 1.186,-0.77 l 0.978,0.208 c 0.538,0.114 0.885,0.648 0.771,1.186 l -1.248,5.869 c -0.114,0.538 -0.648,0.884 -1.186,0.77 Z" fill="#55acee"/>
	</g>
	
	<g>
		<path d="M 10.8404,1.6752 c 0.807,0.172 1.327,0.972 1.155,1.779 l -1.351,6.358 c -0.114,0.538 -0.648,0.885 -1.186,0.77 l -0.978,-0.208 c -0.538,-0.114 -0.885,-0.648 -0.771,-1.186 l 1.352,-6.358 c 0.171,-0.807 0.972,-1.327 1.779,-1.155 Z" fill="#55acee"/>
	</g>
	<g>
		<path d="M 14.1053,5.3451 l -2.934,-0.624 c -0.807,-0.171 -1.327,-0.972 -1.156,-1.779 c 0.172,-0.807 0.972,-1.327 1.779,-1.155 l 2.935,0.624 c 0.807,0.171 1.327,0.972 1.155,1.779 c -0.171,0.807 -0.972,1.327 -1.779,1.155 Z" fill="#dd2e44"/>
	</g>
	<g>
		<path d="M 15.9034,4.1938 c -0.172,0.81 -0.969,1.328 -1.779,1.155 c -0.81,-0.172 -1.328,-0.968 -1.155,-1.779 c 0.172,-0.81 0.968,-1.327 1.779,-1.155 c 0.81,0.172 1.327,0.969 1.155,1.779 Z" fill="#ea596e"/>
	</g>
</svg>
