<svg xmlns="http://www.w3.org/2000/svg" viewBox="0 0 36 36">
	<defs>
		<g id="wheel1">
			<circle r="4.5" fill="#292f33"/>
			<circle r="3" fill="#dd2e44"/>
		</g>
		<clipPath id="st">
			<path d="M 0,0 L 4.15823,-19.56295 H 20 V 0 Z"/>
		</clipPath>
	</defs>
	
	<use href="#wheel1" x="4.5" y="31.5"/>
	<use href="#wheel1" x="31.5" y="31.5"/>
	
	handlebars (1)
	<g transform="translate(4.5,31.5) rotate(12)">
		<rect x="-4.4557" y="-30.58026" width="5" height="3" rx="1.5" fill="#dd2e44"/>
		<rect x="-0.49915" y="-29.36010" width="1" height="29.86878" rx="0.5" fill="#99aab5"/>
	</g>
	
	<rect width="23" height="3" rx="1.5" x="10" y="30" fill="#55acee"/>
	
	<g transform="translate(31.5 31.5)">
		<path d="m -6.25,0 a 6.25,6.25 0 01 6.25,-6.25 A 6.25,6.25 0 01 3.69,-5.04" stroke-width="1.5" stroke-linecap="round" fill="none" stroke="#55acee"/>
	</g>
	
	<g transform="translate(4.5 31.5)">
		<circle r="7.25" stroke-width="3.5" stroke="#55acee" fill="none" clip-path="url(#st)"/>
	</g>
	
	handlebars (2)
	<g transform="translate(4.5 31.5) rotate(12)">
		<rect x="-1.50123" y="-13.46232" width="3" height="8" rx="1" fill="#55acee"/>
		<path d="M -1.49916,-28.9915 a 1.5,1.5 0 01 3,0 v 6.5 a 1,1 0 01 -1,1 h-1 a 1,1 0 01 -1,-1 v -6.5 z" fill="#55acee"/>
		<rect x="-0.54247" y="-30.58032" width="6" height="3" rx="1.5" fill="#dd2e44"/>
		<circle cx="3.97712" cy="-29.08057" r="1.5" fill="#ea596e"/>
	</g>
</svg>
