<svg xmlns="http://www.w3.org/2000/svg" viewBox="0 0 36 36">
	<path d="M 22.45,32.289 l -21.858,-13.537 l 5.958,-18.041 l 18.042,5.958 l -2.142,25.62 Z"  fill="#55ACEE"/>
	
	<path d="M 20.5415,28.5 L 7.822,3.237" stroke-linecap="round" fill="none" stroke-width="2" stroke="#269"/>
	<path d="M 3.119,17.48 L 22.066,7.94" stroke-linecap="round" fill="none" stroke-width="2" stroke="#269"/>
	
	<path d="M 27.367,35.339 c -2.44,0 -4.521,-1.268 -6.199,-3.784 a 1,1 0 01 1.664,-1.11 c 1.564,2.343 3.359,3.228 5.644,2.781 c 0.945,-0.184 1.793,-0.98 2.27,-2.132 c 0.701,-1.693 0.47,-3.668 -0.62,-5.282 c -2.006,-2.971 -2.777,-6.787 -2.063,-10.21 c 0.615,-2.956 2.24,-5.344 4.698,-6.905 a 1,1 0 11 1.072,1.688 c -2.516,1.598 -3.462,3.941 -3.813,5.625 c -0.604,2.905 0.055,6.151 1.765,8.683 c 1.466,2.172 1.769,4.851 0.811,7.167 c -0.734,1.772 -2.131,3.018 -3.736,3.329 c -0.513,0.1 -1.009,0.15 -1.493,0.15 Z"   fill="#3B88C3"/> <!-- not sure.. -->
	<!-- todo! -->
	<!-- these are all the same shape probably -->
	<path d="M 31.532,30.992 c 2.678,-0.716 5.059,0.348 3.717,2.74 c -1.35,2.407 -3.376,0.41 -4.157,-2.075 c -2.677,0.716 -5.059,-0.348 -3.717,-2.74 c 1.35,-2.407 3.376,-0.41 4.157,2.075 Z"  fill="#9266CC"/>
	<path d="M 30.107,23.953 c -1.242,2.478 -3.619,3.553 -4.517,0.961 c -0.904,-2.607 1.934,-2.797 4.311,-1.731 c 1.242,-2.478 3.619,-3.553 4.517,-0.961 c 0.904,2.607 -1.934,2.797 -4.311,1.731 Z"  fill="#9266CC"/>
	<path d="M 28.846,17.356 c -2.427,1.339 -4.995,0.879 -4.267,-1.766 c 0.732,-2.661 3.179,-1.209 4.534,1.015 c 2.427,-1.339 4.994,-0.879 4.267,1.766 c -0.732,2.661 -3.179,1.21 -4.534,-1.015 Z"  fill="#9266CC"/>
	<path d="M 31.743,10.799 c -2.759,-0.259 -4.623,-2.084 -2.534,-3.861 c 2.103,-1.788 3.309,0.788 3.177,3.39 c 2.76,0.259 4.623,2.084 2.534,3.861 c -2.103,1.788 -3.309,-0.788 -3.177,-3.39 Z"  fill="#9266CC"/>
</svg>
