<svg xmlns="http://www.w3.org/2000/svg" viewBox="0 0 36 36">
	<path d="M 34.146,13.151 c 2.391,9.635 -6.295,17.402 -14.948,19.548 s -14.34,-3.532 -16.385,-11.773 c -2.044,-8.24 0.328,-15.92 8.98,-18.066 c 8.652,-2.148 19.801,0.005 22.353,10.291 Z"  fill="#C1694F"/>
	<ellipse rx="12.298" ry="15.372" transform="translate(14.004 18.149) rotate(-13.933)"  fill="#C1694F"/>
	<ellipse rx="10.762" ry="13.451" transform="translate(14.004 18.149) rotate(-13.933)"  fill="#A6D388"/>
	<ellipse rx=" 9.761" ry="12.450" transform="translate(14.004 18.149) rotate(-13.933)"  fill="#77B255"/>
	
	<path d="M 18.974,18.518 l -2.799,1.311 l 1.656,4.152 l -2.955,-2.326 l -0.697,4.171 l -1.378,-4.098 l -2.651,1.745 l 1.006,-3.976 l -3.043,-1.701 l 2.8,-1.315 l -1.657,-4.149 l 2.957,2.115 l 0.697,-4.172 l 1.379,4.31 l 2.645,-1.745 l -1.001,3.973 l 3.041,1.705 Z"  stroke-width="2" stroke-linejoin="round" fill="#A6D388" stroke="#A6D388"/>
	
	<path d="M 16.788,18.019 l -1.709,0.812 l 1.076,2.538 l -1.846,-1.288 l -0.378,2.556 l -0.91,-2.634 l -1.606,1.077 l 0.566,-2.437 l -1.902,-1.034 l 1.706,-0.813 l -1.078,-2.539 l 1.852,1.286 l 0.373,-2.556 l 0.911,2.637 l 1.61,-1.079 l -0.567,2.438 l 1.902,1.036 Z"  stroke-width="1" stroke-linejoin="round" fill="#C6E5B3" stroke="#C6E5B3" />
	
	<ellipse rx="0.992" ry="0.661" transform="translate(8.7055,15.234) rotate(65.234)"  fill="#292F33"/>
	<ellipse rx="0.992" ry="0.661" transform="translate(15.362,11.8655) rotate(-76.354)"  fill="#292F33"/>
	<ellipse rx="0.992" ry="0.661" transform="translate(12.718,21.780) rotate(-76.389)"  fill="#292F33"/>
	<ellipse rx="0.992" ry="0.661" transform="translate(15.9755,24.390) rotate(65.246)"  fill="#292F33"/>
	
	<ellipse rx="0.764" ry="0.422" transform="translate(17.4045,16.125) rotate(-43.844)"  fill="#292F33"/>
	<ellipse rx="0.764" ry="0.422" transform="translate(12.042,14.246) rotate(64.631)"  fill="#292F33"/>
	<ellipse rx="0.764" ry="0.422" transform="translate(8.1505,20.8545) rotate(-43.867)"  fill="#292F33"/>
	
	<ellipse rx="0.880" ry="0.659" transform="translate(18.582,20.680) rotate(47.092)"  fill="#292F33"/>
</svg>
