<svg xmlns="http://www.w3.org/2000/svg" viewBox="0 0 36 36">
	<path d="M 25.94,15.188 c 2.045,8.239 -1.642,16.246 -8.235,17.881 c -6.592,1.636 -13.593,-3.719 -15.638,-11.958 c -2.044,-8.24 1.642,-16.246 8.236,-17.882 c 6.59,-1.636 13.593,3.718 15.637,11.959 Z"  fill="#C1694F"/>
	<path d="M 34.146,13.151 c 2.391,9.635 -6.295,17.402 -14.948,19.548 s -14.34,-3.532 -16.385,-11.773 c -2.044,-8.24 0.328,-15.92 8.98,-18.066 c 8.652,-2.148 19.801,0.005 22.353,10.291 Z"  fill="#C1694F"/>
	<path d="M 24.448,15.558 c 1.789,7.211 -1.438,14.215 -7.205,15.646 c -5.768,1.434 -11.895,-3.253 -13.685,-10.463 c -1.788,-7.21 1.438,-14.215 7.207,-15.647 c 5.766,-1.43 11.893,3.254 13.683,10.464 Z"  fill="#77B255"/>
	<path d="M 12.871,5.837 c 4.713,0 9.174,4.19 10.607,9.962 c 0.811,3.267 0.56,6.581 -0.707,9.331 c -1.231,2.674 -3.28,4.486 -5.768,5.103 c -0.61,0.152 -1.238,0.228 -1.868,0.228 c -4.712,0 -9.172,-4.19 -10.605,-9.962 c -1.654,-6.662 1.252,-13.138 6.476,-14.434 c 0.609,-0.151 1.236,-0.228 1.865,-0.228 Z M 12.871,4.837 c -0.702,0 -1.406,0.084 -2.106,0.257 c -5.769,1.432 -8.995,8.437 -7.206,15.647 c 1.572,6.335 6.492,10.721 11.575,10.721 c 0.702,0 1.409,-0.084 2.109,-0.258 c 5.766,-1.431 8.994,-8.435 7.205,-15.646 c -1.573,-6.335 -6.494,-10.721 -11.577,-10.721 Z"   fill="#A6D388"/>
	<g fill="#A6D388">
	<path d="M 18.974,18.518 l -2.799,1.311 l 1.656,4.152 l -2.955,-2.326 l -0.697,4.171 l -1.378,-4.098 l -2.651,1.745 l 1.006,-3.976 l -3.043,-1.701 l 2.8,-1.315 l -1.657,-4.149 l 2.957,2.115 l 0.697,-4.172 l 1.379,4.31 l 2.645,-1.745 l -1.001,3.973 l 3.041,1.705 Z"  />
	<path d="M 14.178,26.826 c -0.426,0 -0.81,-0.271 -0.947,-0.682 l -0.964,-2.868 l -1.567,1.032 c -0.343,0.228 -0.792,0.221 -1.129,-0.021 c -0.336,-0.238 -0.491,-0.66 -0.39,-1.06 l 0.817,-3.232 l -2.373,-1.326 c -0.328,-0.184 -0.525,-0.534 -0.512,-0.908 c 0.013,-0.375 0.235,-0.71 0.574,-0.87 l 1.947,-0.914 l -1.308,-3.274 c -0.165,-0.413 -0.038,-0.884 0.312,-1.158 c 0.35,-0.273 0.838,-0.284 1.199,-0.026 l 1.653,1.183 l 0.432,-2.59 c 0.076,-0.456 0.454,-0.8 0.914,-0.833 c 0.472,-0.022 0.885,0.253 1.025,0.693 l 0.977,3.053 l 1.544,-1.019 c 0.344,-0.227 0.794,-0.22 1.129,0.019 c 0.336,0.239 0.492,0.66 0.391,1.06 l -0.813,3.231 l 2.373,1.33 c 0.326,0.184 0.523,0.535 0.51,0.909 c -0.014,0.375 -0.235,0.71 -0.574,0.869 l -1.945,0.912 l 1.307,3.276 c 0.168,0.42 0.032,0.9 -0.33,1.171 c -0.363,0.271 -0.862,0.265 -1.217,-0.015 l -1.628,-1.282 l -0.419,2.506 c -0.076,0.452 -0.45,0.796 -0.907,0.832 l -0.081,0.002 Z"  />
	<path d="M 12.801,20.728 c -0.193,0 -0.384,0.055 -0.55,0.164 l -0.5,0.329 l 0.374,-1.479 c 0.112,-0.438 -0.086,-0.897 -0.481,-1.118 l -1.343,-0.75 l 1.038,-0.487 c 0.479,-0.225 0.699,-0.784 0.503,-1.276 l -0.391,-0.979 l 0.181,0.129 c 0.281,0.2 0.646,0.243 0.964,0.11 c 0.319,-0.132 0.547,-0.419 0.604,-0.759 l 0.016,-0.097 l 0.12,0.375 c 0.096,0.299 0.325,0.535 0.62,0.639 s 0.622,0.063 0.883,-0.109 l 0.496,-0.327 l -0.372,1.477 c -0.11,0.438 0.087,0.896 0.481,1.117 l 1.342,0.752 l -1.036,0.485 c -0.479,0.224 -0.7,0.784 -0.504,1.275 l 0.275,0.691 l -0.027,-0.021 c -0.278,-0.217 -0.65,-0.272 -0.979,-0.146 c -0.329,0.128 -0.567,0.419 -0.625,0.768 l -0.038,0.225 l -0.103,-0.306 c -0.099,-0.294 -0.329,-0.525 -0.622,-0.627 c -0.106,-0.037 -0.216,-0.055 -0.326,-0.055 Z"  />
	</g>
	<g fill="#C6E5B3">
	<path d="M 16.788,18.019 l -1.709,0.812 l 1.076,2.538 l -1.846,-1.288 l -0.378,2.556 l -0.91,-2.634 l -1.606,1.077 l 0.566,-2.437 l -1.902,-1.034 l 1.706,-0.813 l -1.078,-2.539 l 1.852,1.286 l 0.373,-2.556 l 0.911,2.637 l 1.61,-1.079 l -0.567,2.438 l 1.902,1.036 Z"  />
	<path d="M 13.931,23.137 c -0.211,0 -0.402,-0.134 -0.472,-0.337 l -0.698,-2.021 l -1.066,0.716 c -0.17,0.114 -0.394,0.114 -0.563,-0.004 c -0.169,-0.116 -0.25,-0.324 -0.203,-0.524 l 0.48,-2.066 l -1.569,-0.852 c -0.165,-0.09 -0.266,-0.265 -0.261,-0.453 s 0.115,-0.357 0.285,-0.438 l 1.274,-0.607 l -0.891,-2.099 c -0.087,-0.205 -0.028,-0.443 0.145,-0.583 c 0.173,-0.141 0.417,-0.149 0.601,-0.022 l 1.188,0.826 l 0.256,-1.757 c 0.033,-0.228 0.218,-0.404 0.448,-0.425 c 0.228,-0.028 0.444,0.116 0.52,0.334 l 0.7,2.024 l 1.071,-0.718 c 0.171,-0.114 0.394,-0.112 0.562,0.004 c 0.169,0.117 0.25,0.325 0.203,0.525 l -0.48,2.067 l 1.568,0.854 c 0.165,0.09 0.266,0.265 0.261,0.453 s -0.116,0.357 -0.285,0.438 l -1.277,0.607 l 0.89,2.097 c 0.087,0.205 0.028,0.443 -0.146,0.584 c -0.173,0.141 -0.418,0.147 -0.601,0.021 l -1.184,-0.826 l -0.26,1.757 c -0.034,0.228 -0.219,0.403 -0.448,0.425 h-0.048 Z"  />
	<path d="M 13.021,19.503 c -0.099,0 -0.196,0.029 -0.279,0.085 l -0.553,0.371 l 0.279,-1.203 c 0.051,-0.219 -0.051,-0.446 -0.248,-0.553 l -1.041,-0.565 l 0.821,-0.391 c 0.242,-0.115 0.349,-0.4 0.245,-0.646 l -0.401,-0.945 l 0.429,0.298 c 0.142,0.099 0.324,0.117 0.484,0.048 c 0.158,-0.069 0.27,-0.215 0.295,-0.386 l 0.077,-0.525 l 0.241,0.697 c 0.05,0.147 0.166,0.262 0.313,0.311 c 0.146,0.047 0.309,0.027 0.438,-0.059 l 0.558,-0.374 l -0.28,1.205 c -0.051,0.219 0.051,0.445 0.248,0.552 l 1.04,0.566 l -0.823,0.392 c -0.242,0.114 -0.35,0.399 -0.246,0.646 l 0.398,0.938 l -0.421,-0.294 c -0.143,-0.1 -0.325,-0.116 -0.484,-0.049 c -0.158,0.069 -0.271,0.215 -0.296,0.386 l -0.079,0.533 l -0.243,-0.701 c -0.05,-0.147 -0.166,-0.262 -0.313,-0.311 c -0.052,-0.017 -0.106,-0.026 -0.159,-0.026 Z"  />
	</g>
	<path d="M 9.306,14.957 c 0.229,0.497 0.147,1.024 -0.185,1.178 c -0.332,0.153 -0.786,-0.127 -1.016,-0.624 c -0.229,-0.497 -0.147,-1.024 0.185,-1.177 c 0.331,-0.154 0.786,0.126 1.016,0.623 Z"  fill="#292F33"/>
	<path d="M 16.004,12.021 c -0.129,0.532 -0.521,0.894 -0.876,0.809 c -0.356,-0.087 -0.538,-0.589 -0.409,-1.121 s 0.521,-0.894 0.877,-0.807 c 0.354,0.085 0.537,0.586 0.408,1.119 Z"  fill="#292F33"/>
	<path d="M 13.36,21.935 c -0.129,0.532 -0.52,0.894 -0.875,0.809 c -0.357,-0.087 -0.539,-0.588 -0.41,-1.12 c 0.129,-0.531 0.521,-0.895 0.877,-0.808 c 0.354,0.086 0.537,0.587 0.408,1.119 Z"  fill="#292F33"/>
	<path d="M 16.576,24.113 c 0.229,0.497 0.147,1.023 -0.185,1.179 c -0.331,0.151 -0.786,-0.128 -1.016,-0.625 c -0.228,-0.496 -0.148,-1.023 0.185,-1.178 c 0.332,-0.152 0.787,0.127 1.016,0.624 Z"  fill="#292F33"/>
	<path d="M 17.697,16.43 c -0.304,0.292 -0.68,0.391 -0.843,0.225 c -0.161,-0.17 -0.045,-0.542 0.258,-0.835 c 0.303,-0.292 0.681,-0.393 0.843,-0.224 s 0.047,0.542 -0.258,0.834 Z"  fill="#292F33"/>
	<path d="M 12.423,14.065 c 0.181,0.38 0.158,0.768 -0.053,0.871 c -0.212,0.098 -0.53,-0.129 -0.71,-0.509 s -0.156,-0.77 0.056,-0.871 c 0.21,-0.101 0.528,0.128 0.707,0.509 Z"  fill="#292F33"/>
	<path d="M 8.443,21.159 c -0.304,0.292 -0.679,0.392 -0.843,0.225 c -0.16,-0.169 -0.045,-0.542 0.258,-0.834 c 0.303,-0.291 0.68,-0.393 0.843,-0.225 c 0.162,0.169 0.047,0.542 -0.258,0.834 Z"  fill="#292F33"/>
	<path d="M 19.065,20.231 c 0.329,0.356 0.382,0.842 0.116,1.093 c -0.267,0.246 -0.752,0.159 -1.082,-0.195 c -0.33,-0.356 -0.384,-0.843 -0.116,-1.094 c 0.267,-0.248 0.751,-0.16 1.082,0.196 Z"  fill="#292F33"/>
	</svg>
