<svg xmlns="http://www.w3.org/2000/svg" viewBox="0 0 36 36">
	<path d="M 34.146,13.151 c 2.391,9.635 -6.295,17.402 -14.948,19.548 s -14.34,-3.532 -16.385,-11.773 c -2.044,-8.24 0.328,-15.92 8.98,-18.066 c 8.652,-2.148 19.801,0.005 22.353,10.291 Z"  fill="#C1694F"/>
	<ellipse rx="12.298" ry="15.372" transform="translate(14.003 18.149) rotate(-13.933)"  fill="#C1694F"/>
	<ellipse rx="10.762" ry="13.451" transform="translate(14.003 18.149) rotate(-13.933)"  fill="#A6D388"/>
	<ellipse rx=" 9.761" ry="12.450" transform="translate(14.003 18.149) rotate(-13.933)"  fill="#77B255"/>

	
	
	<path d="M 18.974,18.518 l -2.799,1.311 l 1.656,4.152 l -2.955,-2.326 l -0.697,4.171 l -1.378,-4.098 l -2.651,1.745 l 1.006,-3.976 l -3.043,-1.701 l 2.8,-1.315 l -1.657,-4.149 l 2.957,2.115 l 0.697,-4.172 l 1.379,4.31 l 2.645,-1.745 l -1.001,3.973 l 3.041,1.705 Z"  stroke-width="2" stroke-linejoin="round" fill="#A6D388" stroke="#A6D388"/>
	
	<path d="M 16.788,18.019 l -1.709,0.812 l 1.076,2.538 l -1.846,-1.288 l -0.378,2.556 l -0.91,-2.634 l -1.606,1.077 l 0.566,-2.437 l -1.902,-1.034 l 1.706,-0.813 l -1.078,-2.539 l 1.852,1.286 l 0.373,-2.556 l 0.911,2.637 l 1.61,-1.079 l -0.567,2.438 l 1.902,1.036 Z"  stroke-width="1" stroke-linejoin="round" fill="#C6E5B3" stroke="#C6E5B3" />
	
	<!--<path d="M 9.306,14.957 c 0.229,0.497 0.147,1.024 -0.185,1.178 c -0.332,0.153 -0.786,-0.127 -1.016,-0.624 c -0.229,-0.497 -0.147,-1.024 0.185,-1.177 c 0.331,-0.154 0.786,0.126 1.016,0.623 Z"  fill="#292F33"/>
	<path d="M 16.004,12.021 c -0.129,0.532 -0.521,0.894 -0.876,0.809 c -0.356,-0.087 -0.538,-0.589 -0.409,-1.121 s 0.521,-0.894 0.877,-0.807 c 0.354,0.085 0.537,0.586 0.408,1.119 Z"  fill="#292F33"/>
	<path d="M 13.36,21.935 c -0.129,0.532 -0.52,0.894 -0.875,0.809 c -0.357,-0.087 -0.539,-0.588 -0.41,-1.12 c 0.129,-0.531 0.521,-0.895 0.877,-0.808 c 0.354,0.086 0.537,0.587 0.408,1.119 Z"  fill="#292F33"/>
	<path d="M 16.576,24.113 c 0.229,0.497 0.147,1.023 -0.185,1.179 c -0.331,0.151 -0.786,-0.128 -1.016,-0.625 c -0.228,-0.496 -0.148,-1.023 0.185,-1.178 c 0.332,-0.152 0.787,0.127 1.016,0.624 Z"  fill="#292F33"/>
	<path d="M 17.697,16.43 c -0.304,0.292 -0.68,0.391 -0.843,0.225 c -0.161,-0.17 -0.045,-0.542 0.258,-0.835 c 0.303,-0.292 0.681,-0.393 0.843,-0.224 s 0.047,0.542 -0.258,0.834 Z"  fill="#292F33"/>
	<path d="M 12.423,14.065 c 0.181,0.38 0.158,0.768 -0.053,0.871 c -0.212,0.098 -0.53,-0.129 -0.71,-0.509 s -0.156,-0.77 0.056,-0.871 c 0.21,-0.101 0.528,0.128 0.707,0.509 Z"  fill="#292F33"/>
	<path d="M 8.443,21.159 c -0.304,0.292 -0.679,0.392 -0.843,0.225 c -0.16,-0.169 -0.045,-0.542 0.258,-0.834 c 0.303,-0.291 0.68,-0.393 0.843,-0.225 c 0.162,0.169 0.047,0.542 -0.258,0.834 Z"  fill="#292F33"/>
	<path d="M 19.065,20.231 c 0.329,0.356 0.382,0.842 0.116,1.093 c -0.267,0.246 -0.752,0.159 -1.082,-0.195 c -0.33,-0.356 -0.384,-0.843 -0.116,-1.094 c 0.267,-0.248 0.751,-0.16 1.082,0.196 Z"  fill="#292F33"/>-->
	
	<ellipse rx="0.6613087403021375" ry="0.991736104011546" transform="translate(4.35275,7.617125) rotate(-65.23393692235223)" fill="#292F33"/>
<ellipse rx="0.661167338878744" ry="0.9919939515944641" transform="translate(7.680875,5.93275) rotate(76.35429187058094)" fill="#292F33"/>
<ellipse rx="0.661049544285449" ry="0.9918761263383649" transform="translate(6.359,10.889875) rotate(76.38938230915332)" fill="#292F33"/>
<ellipse rx="0.6613087403021375" ry="0.9926441960743034" transform="translate(7.98775,12.195125) rotate(-65.24602824878727)" fill="#292F33"/>
<ellipse rx="0.4225887480754783" ry="0.7638196776726821" transform="translate(8.70225,8.062625) rotate(43.843787061574076)" fill="#292F33"/>
<ellipse rx="0.4222596949745499" ry="0.7635633568997402" transform="translate(6.021125,7.123) rotate(-64.63072169312855)" fill="#292F33"/>
<ellipse rx="0.42222801896605583" ry="0.7638196776726821" transform="translate(4.07525,10.42725) rotate(43.867268439651454)" fill="#292F33"/>
<ellipse rx="0.6594619018563543" ry="0.8798757014487899" transform="translate(9.291,10.339875) rotate(-47.09239801321712)" fill="#292F33"/>
	</svg>
