<svg xmlns="http://www.w3.org/2000/svg" viewBox="0 0 36 36">
	<!-- derived from oldest ai file -->
	<g class="toolight">
		<path fill="#9AAAB4" d="M 23,34 s -2,-1 -5,-1 s -5,1 -5,1 l 0.999,-32 h8.002 l 0.999,32 Z"/>
		
		<path fill="#E1E8ED" d="M 17.978,0 h1 c 2,0 4,2 4,2 s 3.228,1.273 6.228,2.273 s 6.821,18.206 6.794,19.395 c -0.022,0.96 -4.746,1.866 -4.975,1.263 c -0.516,-1.362 -1.717,-5.296 -2.83,-10.804 c 0,11 2.416,19.707 2.416,19.707 s -5.633,2.166 -8.633,2.166 c -1,-4 -1,-17 -1,-20 s -3,-16 -3,-16 Z"/>
		<path fill="#E1E8ED" d="M 18,0 s -3.001,13 -3.001,16 s 0.001,16 -0.999,20 c -3,0 -8.633,-2.166 -8.633,-2.166 s 2.415,-8.707 2.415,-19.707 c -1.112,5.811 -2.313,9.442 -2.829,10.804 c -0.229,0.603 -4.953,-0.303 -4.975,-1.263 c -0.028,-1.189 3.793,-18.395 6.793,-19.395 s 6.228,-2.273 6.228,-2.273 s 2.001,-2 4.001,-2 h1 Z"/>
		
		<path fill="#BB1A34" d="M 23.918,13.8135 c 0,1.116 -0.159,2.021 -0.354,2.021 c -0.196,0 -0.355,-0.905 -0.355,-2.021 s 0.159,-2.021 0.355,-2.021 c 0.195,0 0.354,0.905 0.354,2.021 Z"/>
		<path fill="#4289C1" d="M 24.918,13.8135 c 0,1.116 -0.159,2.021 -0.354,2.021 c -0.196,0 -0.355,-0.905 -0.355,-2.021 s 0.159,-2.021 0.355,-2.021 c 0.195,0 0.354,0.905 0.354,2.021 Z"/>
		<path fill="#F5F8FA" d="M 25.918,16.9175 c -0.39,0.153 -2.209,0.167 -2.709,-0.042 c -0.5,-0.208 -0.687,-0.437 -0.729,-1.02 c -0.041,-0.584 0.063,-2.855 0.063,-2.855 h3.959 s 0.125,1.625 0.125,3 c 0,0.584 -0.255,0.738 -0.709,0.917 Z"/>
		
		<path fill="#F5F8FA" d="M 12.1802,28.167 c -0.537,0.062 -2.667,-0.25 -3.084,-0.459 c -0.565,-0.282 -0.648,-0.614 -0.583,-1.208 c 0.064,-0.594 0.31,-1.344 0.424,-3.5 c 0.909,0.417 2.951,0.542 4.535,0.583 c 0,1.813 -0.333,3.417 -0.333,3.417 c -0.067,0.55 -0.422,1.105 -0.959,1.167 Z"/>
		<path fill="#F5F8FA" d="M 23.8203,28.167 c -0.537,-0.062 -0.893,-0.617 -0.96,-1.167 c 0,0 -0.332,-1.604 -0.332,-3.417 c 1.583,-0.041 3.626,-0.166 4.534,-0.583 c 0.114,2.156 0.361,2.906 0.425,3.5 s -0.018,0.926 -0.583,1.208 c -0.417,0.209 -2.548,0.521 -3.084,0.459 Z"/>
		
		<path fill="#F5F8FA" d="M 24.002,4 l -2.001,1 l 2.001,1 l -3.001,10.004 h-6.002 l -3,-10.004 l 2,-1 l -2,-1 s 3.001,-4 5.001,-4 h1 h1 c 2,0 5.002,4 5.002,4 Z"/>
		<path fill="#CCD6DD" d="M 21.001,3.5 h-6.002 v-1 c 0,-1.104 0.896,-2 2,-2 h2.002 c 1.104,0 2,0.896 2,2 v1 Z"/>
		<path fill="#9AAAB4" d="M 21.001,31.7119 h-6.002 v-28.211 c 0,-1.105 0.896,-2 2,-2 h2.002 c 1.104,0 2,0.895 2,2 v28.211 Z"/>
	</g>
</svg>
