<svg xmlns="http://www.w3.org/2000/svg" viewBox="0 0 36 36">
	<path d="M 32.017,20.181 c 1.31,1.31 1.34,3.436 0.03,4.748 l -10.059,10.088 c -1.31,1.31 -3.377,1.31 -4.688,0 l -14.554,-14.672 c -0.657,-0.657 -0.746,-1.519 -0.746,-2.38 v-10.082 c 0,-1.854 1.029,-2.883 2.883,-2.883 h10.077 c 0.863,0 1.727,0.087 2.385,0.746 l 14.672,14.435 Z M 5.5,8.5 v4 h4 v-4 h-4 z"  fill="#FFD983"/>
	
	<path d="M 4.773,7.772 a 3.662,3.662 0 01 5.18,5.18 a 3.662,3.662 0 01 -5.18,-5.18 Z M 8.422,9.303 a 1.498,1.498 0 00 -2.119,2.119 a 1.498,1.498 0 00 2.119,-2.119 Z" fill="#D99E82"/>
	
	<path d="M 7.80,9.794 L 16.285,1.309" stroke-linecap="round" fill="none" stroke-width="2" stroke="#C1694F"/>
</svg>
