<svg xmlns="http://www.w3.org/2000/svg" viewBox="0 0 36 36">
	<path d="M 33.772,12.827 l -1.28,0.44 -0.761,2.291 -0.431,0.178 0.782,-2.324 -1.837,0.632 -0.941,2.924 -0.389,-0.125 0.851,-2.644 -1.862,0.604 -0.848,2.627 -0.389,-0.125 0.757,-2.347 -1.861,0.604 -0.755,2.338 -2.349,0.762 -0.739,2.284 -0.389,-0.125 0.648,-2.003 -1.878,0.61 -0.766,2.36 -0.389,-0.126 0.674,-2.078 -1.86,0.604 -0.519,1.601 -0.388,-0.126 0.428,-1.319 -2.34,0.759 0.759,-2.34 -1.319,0.428 -0.126,-0.388 1.6,-0.52 0.604,-1.86 -2.078,0.675 -0.126,-0.388 2.36,-0.766 0.61,-1.879 -2.003,0.648 -0.125,-0.388 2.284,-0.739 0.608,-1.872 -0.519,0.167 -0.125,-0.388 3.137,-1.013 0.604,-1.861 -2.347,0.757 -0.125,-0.388 2.627,-0.848 0.605,-1.863 -2.643,0.851 -0.125,-0.388 2.925,-0.941 0.634,-2.036 -2.421,0.745 0.134,-0.431 2.425,-0.756 0.299,-0.959 0.388,0.126 -0.213,0.686 2.247,-0.7 -0.676,2.418 2.961,-0.947 1.218,-0.186 0.163,0.591 -1.176,3.709 3.524,-1.135 0.805,0.097 -0.214,1.222 -0.95,2.982 2.259,-0.717 -0.756,2.274 0.993,-0.343 0.125,0.388 Z M 30.671,11.38 l 0.599,-1.86 l -1.858,0.6 l -0.601,1.864 l 1.86,-0.604 Z M 21.139,14.903 l -1.86,0.604 l -0.604,1.86 l 1.86,-0.604 l 0.604,-1.86 Z M 19.435,15.027 l 1.86,-0.604 l 0.608,-1.874 l -1.859,0.602 l -0.609,1.876 Z M 21.619,14.747 l -0.604,1.86 l 1.875,-0.608 l 0.601,-1.86 l -1.872,0.608 Z M 21.775,14.268 l 1.872,-0.607 l 0.605,-1.87 l -1.869,0.604 l -0.608,1.873 Z M 25.164,8.968 l 0.601,-1.86 l -1.862,0.601 l -0.604,1.861 l 1.865,-0.602 Z M 25.489,9.292 l -0.604,1.865 l 1.864,-0.603 l 0.602,-1.863 l -1.862,0.601 Z M 25.01,9.446 l -1.865,0.602 l -0.606,1.868 l 1.868,-0.604 l 0.603,-1.866 Z M 24.731,11.635 l -0.605,1.87 l 1.867,-0.606 l 0.603,-1.867 l -1.865,0.603 Z M 27.074,10.877 l -0.603,1.866 l 1.86,-0.604 l 0.602,-1.864 l -1.859,0.602 Z M 32.022,7.183 l -1.855,0.599 l -0.6,1.861 l 1.857,-0.601 l 0.598,-1.859 Z M 29.688,7.936 l -1.859,0.6 l -0.601,1.863 l 1.859,-0.602 l 0.601,-1.861 Z M 27.505,8.213 l 0.601,-1.859 l -1.861,0.6 l -0.602,1.86 l 1.862,-0.601 Z M 28.859,4.019 l -1.858,0.598 l -0.601,1.858 l 1.86,-0.6 l 0.599,-1.856 Z M 26.522,4.771 l -1.859,0.599 l -0.604,1.861 l 1.862,-0.601 l 0.601,-1.859 Z M 23.109,3.618 l -0.629,2.027 l 1.859,-0.598 l 0.58,-1.986 l -1.81,0.557 Z M 22.325,6.123 l -0.605,1.863 l 1.859,-0.6 l 0.604,-1.861 l -1.858,0.598 Z M 21.565,8.464 l -0.604,1.861 l 1.859,-0.6 l 0.604,-1.861 l -1.859,0.6 Z M 20.806,10.803 l -0.606,1.87 l 1.859,-0.602 l 0.606,-1.868 l -1.859,0.6 Z M 18.468,11.558 l -0.607,1.872 l 1.859,-0.602 l 0.607,-1.87 l -1.859,0.6 Z M 17.705,13.908 l -0.61,1.879 l 1.86,-0.604 l 0.609,-1.876 l -1.859,0.601 Z M 16.94,16.266 l -0.604,1.86 l 1.86,-0.604 l 0.604,-1.86 l -1.86,0.604 Z M 17.437,19.862 l 0.603,-1.861 l -1.86,0.604 l -0.604,1.861 l 1.861,-0.604 Z M 19.776,19.103 l 0.604,-1.861 l -1.86,0.604 l -0.604,1.861 l 1.86,-0.604 Z M 22.134,18.337 l 0.601,-1.861 l -1.875,0.609 l -0.604,1.861 l 1.878,-0.609 Z M 24.483,17.575 l 0.601,-1.859 l -1.869,0.606 l -0.602,1.86 l 1.87,-0.607 Z M 25.238,15.237 l 0.601,-1.86 l -1.867,0.606 l -0.602,1.86 l 1.868,-0.606 Z M 27.578,14.477 l 0.6,-1.859 l -1.86,0.604 l -0.6,1.859 l 1.86,-0.604 Z M 29.919,13.717 l 0.598,-1.859 l -1.86,0.604 l -0.6,1.859 l 1.862,-0.604 Z M 30.398,13.562 l 1.846,-0.638 l 0.61,-1.818 l -1.858,0.597 l -0.598,1.859 Z"  fill="#292F33"/>
	
	<path d="M 27.783,17.28 l -1.473,-0.229 c 0.331,-2.125 -0.304,-4.169 -1.741,-5.608 c -1.438,-1.437 -3.478,-2.076 -5.608,-1.742 l -0.229,-1.472 c 2.598,-0.405 5.112,0.382 6.89,2.16 c 1.778,1.779 2.565,4.291 2.161,6.891 Z"  fill="#292F33"/>
	<path d="M 30.558,16.604 l -1.477,-0.194 c 0.351,-2.659 -0.515,-5.249 -2.372,-7.106 c -1.857,-1.858 -4.452,-2.722 -7.105,-2.373 l -0.195,-1.477 c 3.126,-0.412 6.167,0.607 8.354,2.796 c 2.187,2.188 3.207,5.232 2.795,8.354 Z"  fill="#292F33"/>
	
	<path d="M 2.101,35.559 a 1.165,1.165 0 01 -1.648,-1.648 l 11.678,-11.678 a 1.165,1.165 0 01 1.647,1.647 l -11.677,11.679 Z"   fill="#269"/>
	
	<path d="M 32.53,3.481 c 3.028,3.027 5.171,7.952 1.251,11.874 c -1.466,1.468 -2.913,1.742 -4.444,2.033 c -2.084,0.396 -4.445,0.845 -8.032,4.431 c -1.691,1.691 -3.065,1.774 -4.278,1.848 c -0.964,0.059 -1.797,0.109 -2.917,0.899 c -0.129,0.092 -0.28,0.136 -0.429,0.136 c -0.192,0 -0.382,-0.074 -0.527,-0.218 l -1.624,-1.624 c -0.256,-0.256 -0.291,-0.66 -0.082,-0.956 c 0.79,-1.121 0.84,-1.954 0.899,-2.918 c 0.074,-1.213 0.157,-2.588 1.848,-4.279 c 3.586,-3.586 4.035,-5.948 4.431,-8.031 c 0.291,-1.531 0.565,-2.978 2.033,-4.445 c 3.92,-3.92 8.845,-1.775 11.871,1.25 Z M 32.729,14.299 c 0.26,-0.26 0.483,-0.525 0.676,-0.789 c -0.244,-2.691 -1.292,-5.41 -3.424,-7.478 c -2.13,-2.066 -4.522,-3.141 -7.48,-3.427 c -0.266,0.194 -0.529,0.419 -0.79,0.68 c -1.143,1.143 -1.344,2.202 -1.622,3.669 c -0.415,2.182 -0.93,4.896 -4.841,8.807 c -0.184,0.185 -0.338,0.36 -0.476,0.53 c -0.259,1.086 -0.261,2.598 1.045,3.904 s 2.818,1.303 3.904,1.045 c 0.171,-0.138 0.346,-0.292 0.531,-0.477 c 3.911,-3.911 6.625,-4.426 8.807,-4.841 c 1.467,-0.279 2.526,-0.48 3.67,-1.623 Z
M 25.6045,0.6925 a 1.104,1.104 0 00 0,2.208 a 1.104,1.104 0 10 0,-2.208 z
M 29.26,2.4585 a 1.104,1.104 0 00 0,2.208 a 1.104,1.104 0 10 0,-2.208 z
M 32.401,5.646 a 1.104,1.104 0 00 0,2.208 a 1.104,1.104 0 10 0,-2.208 z
M 34.214,9.271 a 1.104,1.104 0 00 0,2.208 a 1.104,1.104 0 10 0,-2.208 z
"   fill="#55ACEE"/> <!-- wish -->
	
	<path d="M 32.548,13.134 a 0.25,0.25 0 01 -0.226,-0.356 c 0.261,-0.558 0.74,-1.28 1.078,-1.764 c -0.662,0.064 -1.479,-0.086 -1.831,-0.905 c -0.398,-0.927 -0.023,-2.09 0.243,-2.716 c -0.75,0.093 -2.164,0.147 -2.812,-0.63 c -0.604,-0.722 -0.469,-1.896 -0.313,-2.593 c -0.67,0.312 -1.847,0.729 -2.735,0.345 c -0.482,-0.209 -0.797,-0.535 -0.933,-0.966 c -0.101,-0.317 -0.088,-0.649 -0.029,-0.947 c -0.497,0.388 -1.183,0.838 -1.907,1.047 a 0.25,0.25 0 01 -0.139,-0.481 c 1.254,-0.363 2.446,-1.584 2.458,-1.597 a 0.25,0.25 0 01 0.393,0.304 c -0.005,0.01 -0.512,0.855 -0.299,1.525 c 0.092,0.29 0.306,0.505 0.654,0.656 c 1.049,0.455 2.782,-0.576 2.801,-0.586 a 0.25,0.25 0 01 0.365,0.298 c -0.007,0.018 -0.634,1.838 0.066,2.675 c 0.577,0.689 2.222,0.511 2.808,0.384 a 0.25,0.25 0 01 0.272,0.365 c -0.01,0.016 -0.898,1.639 -0.435,2.72 c 0.421,0.979 1.812,0.507 1.871,0.486 a 0.25,0.25 0 01 0.283,0.385 c -0.01,0.013 -1.007,1.349 -1.407,2.206 a 0.25,0.25 0 01 -0.226,0.145 Z"   fill="#292F33"/>
	<circle fill="#F4900C" cx="24.937" cy="28.875" r="3.4"/>
</svg>
