<svg xmlns="http://www.w3.org/2000/svg" viewBox="0 0 36 36">
	optical illusion ladder
	<g>
		<rect x="10" y="5" width="16" height="3" rx="1"  fill="#D99E82"/>
		<rect x="10" y="13" width="16" height="3" rx="1"  fill="#D99E82"/>
		<rect x="10" y="21" width="16" height="3" rx="1"  fill="#D99E82"/>
		<rect x="10" y="29" width="16" height="3" rx="1"  fill="#D99E82"/>
		
		<rect width="16" height="1.5" x="10" y="6.5" rx=".75" fill="#662113"/>
		<rect width="16" height="1.5" x="10" y="14.5" rx=".75" fill="#662113"/>
		<rect width="16" height="1.5" x="10" y="22.5" rx=".75" fill="#662113"/>
		<rect width="16" height="1.5" x="10" y="30.5" rx=".75" fill="#662113"/>
	</g>
	<g>
		i feel like this rail should be moved behind the ladder rungs?
		<rect x="7" y="1" width="4" height="34" rx="1"  fill="#D99E82"/>
		<rect x="9" y="1" width="2" height="34" rx="1"  fill="#662113"/>
	</g>
	<g>
		<rect x="25" y="1" width="4" height="34" rx="1"  fill="#c1694f"/>
		<rect x="27" y="1" width="2" height="34" rx="1"  fill="#662113"/>
	</g>
</svg>
