<svg xmlns="http://www.w3.org/2000/svg" viewBox="0 0 36 36">
	<!-- 0.008... -->
	<path d="M 34,29.096 l 2,4.896 l -2,2.008 h-32 l -2,-2.009 l 2,-4.895 c 0.333,-1.004 0.896,-2.008 2,-2.008 h1 a 2,2.008 0 01 -2,-2.008 v-17.072 a 2,2.008 0 01 2,-2.008 h26 a 2,2.008 0 01 2,2.008 v17.072 a 2,2.008 0 01 -2,2.008 h1 c 1.104,0 1.583,1.045 2,2.008 Z"   fill="#CCD6DD"/>
	<rect x="5" y="8.009" width="26" height="17.07" rx="1" ry="1.004"  fill="#5DADEC"/>
	<path d="M 0,34.075 h36 a 2,2 0 01 -1.992,1.925 h-32 
a 2,2 0 01 -1.992,-1.925 z" fill="#9AAAB4"/>
	<!-- 3d perspective transform -->
	<path d="M 22.375,33.113 h-7.781 c -0.375,0 -0.538,-0.343 -0.484,-0.675 s 0.359,-1.793 0.383,-1.963 s 0.274,-0.375 0.524,-0.375 h7.015 c 0.297,0 0.49,0.163 0.55,0.489 s 0.302,1.641 0.321,1.941 s -0.169,0.583 -0.528,0.583 Z"   fill="#9AAAB4"/>
	<path d="M 32.906,31.042 c 0.219,0.533 -0.447,1.004 -0.998,1.004 h-6.594 s -1.11,-0.015 -1.221,-0.586 c -0.126,-0.641 -0.396,-1.578 -0.438,-1.782 c -0.065,-0.313 -0.311,-0.566 -0.811,-0.566 h-8.578 c -0.468,0 -0.782,0.267 -0.856,0.531 c -0.048,0.172 -0.271,1.148 -0.463,1.796 c -0.166,0.561 -1.103,0.608 -1.103,0.608 h-7.578 c -0.552,0 -1.219,-0.408 -1,-1.004 l 0.688,-1.977 c 0.25,-0.628 0.604,-1.036 1.156,-1.036 h25.848 c 0.553,0 0.949,0.377 1.188,0.837 l 0.76,2.175 Z"   fill="#AEBBC1"/>
</svg>
