<svg xmlns="http://www.w3.org/2000/svg" viewBox="0 0 36 36">
	<path d="M 6.401,28.55 c -5.007,-5.007 -6.14,-11.991 -1.134,-16.997 c 5.007,-5.006 11.992,-3.874 16.998,1.133 c 5.007,5.005 6.303,14.377 13.669,15.794 c -13.031,12.039 -24.527,5.076 -29.533,0.07 Z"    fill="#A6D388"/>
	<path d="M 24.684,29.81 l -0.135,0.376 c -0.377,1.484 0.534,4.487 0.534,4.487 c -0.637,-0.231 -3.261,-2.938 -3.344,-5.931 c -1.437,-0.66 -2.931,-1.56 -4.457,-2.755 c -1.945,3.912 -0.48,8.635 -0.48,8.635 c -0.729,-0.444 -4.383,-5.987 -1.958,-10.784 c -0.057,-0.057 -0.113,-0.106 -0.17,-0.163 l -3.501,-3.502 l -0.387,0.388 c -3.321,3.32 -3.789,8.562 -3.789,8.562 c -0.627,-0.627 -2.313,-7.199 1.748,-11.261 l 0.059,-0.059 l -8.293,-8.293 c -0.626,-0.626 -0.575,-1.691 0.051,-2.317 c 0.625,-0.625 1.691,-0.677 2.317,-0.05 l 8.292,8.294 l 0.736,-0.735 c 4.061,-4.061 10.298,-2.039 10.924,-1.412 c 0,0 -4.905,0.131 -8.226,3.451 l -1.064,1.065 l 1.85,1.85 c 0.438,0.438 0.868,0.851 1.294,1.25 l 0.613,-0.638 c 3.984,-4.141 8.945,-1.313 9.583,-0.7 c 0,0 -3.694,-0.8 -6.944,2.584 l -0.84,0.871 c 1.289,1.058 2.515,1.942 3.673,2.675 c 2.407,-1.654 5.932,-1.775 6.485,-1.429 c 0,0 -2.902,1.697 -3.854,2.909 c 6.573,3.227 10.359,1.476 10.359,1.476 c -0.418,0.418 -4.948,2.79 -11.076,1.156 Z"    fill="#77B255"/>
	
	<path d="M 22.083,10 c -0.396,0 -0.771,-0.238 -0.928,-0.628 c -0.205,-0.512 0.042,-1.092 0.553,-1.299 c 0.166,-0.068 4.016,-1.698 4.416,-6.163 a 1,1 0 11 1.992,0.178 c -0.512,5.711 -5.451,7.755 -5.661,7.839 c -0.122,0.05 -0.248,0.073 -0.372,0.073 Z"    fill="#5DADEC"/>
	<path d="M 27.083,14 c -0.414,0 -0.801,-0.259 -0.944,-0.671 c -0.181,-0.52 0.092,-1.088 0.61,-1.271 c 0.188,-0.068 4.525,-1.711 5.38,-8.188 a 1,1 0 11 1.982,0.262 c -1.021,7.75 -6.468,9.733 -6.699,9.813 c -0.109,0.037 -0.22,0.055 -0.329,0.055 Z"    fill="#5DADEC"/>
	<path d="M 30.084,20 c -0.353,0 -0.694,-0.188 -0.877,-0.519 c -0.266,-0.483 -0.089,-1.091 0.394,-1.357 c 0.027,-0.015 2.751,-1.536 3.601,-3.518 a 1,1 0 01 1.837,0.788 c -1.123,2.62 -4.339,4.408 -4.475,4.483 c -0.153,0.083 -0.317,0.123 -0.48,0.123 Z"    fill="#5DADEC"/>
</svg>
