<svg xmlns="http://www.w3.org/2000/svg" viewBox="0 0 36 36">
	<!-- similar to ClosedBook -->
	<path d="M 36,26 a 4,4 0 01 -4,4 h-23 a 4,4 0 01 -4,-4 v-19.687 c 0,-2.209 5.791,-6.313 8,-6.313 h17.625 c 3.094,0 5.375,2.312 5.375,5.375 v20.625 Z"   fill="#F4900C"/>
	<path d="M 34,30 a 4,4 0 01 -4,4 h-20 a 4,4 0 01 -4,-4 v-26 a 2,2 0 01 2,-2 h22 a 4,4 0 01 4,4 v24 Z"   fill="#CCD6DD"/>
	<rect x="5" y="4" width="27" height="30" rx="3"  fill="#E1E8ED"/>
	<rect x="6" y="6" width="26" height="30" rx="4"  fill="#FFAC33"/>
	<path d="M 9,6 h1 v30 h-2 a 4,4 0 01 -4,-4 v-26.625 c 0,-2.875 3.312,-5.375 7.281,-5.375 h2.719 v2 h-1.562 c -2.313,0 -3.606,0.309 -4.438,1.25 c -0.731,0.828 -0.688,2.75 1,2.75 Z"   fill="#F4900C"/>
	<path d="M 30,32 a 4,4 0 01 -4,4 h-16 v-28 h16.335 c 2.209,0 3.665,1.456 3.665,3.665 v20.335 Z"   fill="#FFCC4D"/>
	
	<ellipse cx="7.0525" cy="32.979" rx="1.4895" ry="1.271"  fill="#662113"/>
	<ellipse cx="7.0525" cy="24.979" rx="1.4895" ry="1.271"  fill="#662113"/>
	<ellipse cx="7.0525" cy="16.979" rx="1.4895" ry="1.271"  fill="#662113"/>
	<ellipse cx="7.0525" cy="8.979" rx="1.4895" ry="1.271"  fill="#662113"/>
	
	<path d="M 4,34 c 0.87,0 1.57,-0.515 1.877,-1 c 0.225,-0.354 0.537,-0.674 1.017,-0.729 c 0.579,-0.064 1.325,0.401 1.048,1.16 c -0.554,1.524 -2.047,2.569 -3.901,2.569 a 3.958,3.5 0 01 -3.958,-3.5 c 0,-1.921 1.75,-3.475 3.917,-3.496 v1.996 a 2,1.5 0 00 -2,1.5 a 2,1.5 0 00 2,1.5 Z"    fill="#66757F"/>
	<path d="M 4,26 c 0.87,0 1.57,-0.515 1.877,-1 c 0.225,-0.354 0.537,-0.674 1.017,-0.729 c 0.579,-0.064 1.325,0.401 1.048,1.16 c -0.554,1.524 -2.047,2.569 -3.901,2.569 a 3.958,3.5 0 01 -3.958,-3.5 c 0,-1.921 1.75,-3.475 3.917,-3.496 v1.996 a 2,1.5 0 00 -2,1.5 a 2,1.5 0 00 2,1.5 Z"    fill="#66757F"/>
	<path d="M 4,18 c 0.87,0 1.57,-0.515 1.877,-1 c 0.225,-0.354 0.537,-0.674 1.017,-0.729 c 0.579,-0.064 1.325,0.401 1.048,1.16 c -0.554,1.524 -2.047,2.569 -3.901,2.569 a 3.958,3.5 0 01 -3.958,-3.5 c 0,-1.921 1.75,-3.475 3.917,-3.496 v1.996 a 2,1.5 0 00 -2,1.5 a 2,1.5 0 00 2,1.5 Z"    fill="#66757F"/>
	<path d="M 4,10 c 0.87,0 1.57,-0.515 1.877,-1 c 0.225,-0.354 0.537,-0.674 1.017,-0.729 c 0.579,-0.064 1.325,0.401 1.048,1.16 c -0.554,1.524 -2.047,2.569 -3.901,2.569 a 3.958,3.5 0 01 -3.958,-3.5 c 0,-1.921 1.751,-3.476 3.917,-3.496 v1.996 a 2,1.5 0 00 -2,1.5 a 2,1.5 0 00 2,1.5 Z"    fill="#66757F"/>
</svg>
