<svg xmlns="http://www.w3.org/2000/svg" viewBox="0 0 36 36">
	<rect width="36" height="36" rx="4" fill="#226699"/>
	
	<g>
		<g fill="#F5F8FA">
			<path d="M 14,18 v-3 a 2,2 0 01 2,-2 h4 a 2,2 0 01 2,2 v3 h-2 v-2 a 1,1 0 00 -1,-1 h-2 a 1,1 0 00 -1,1 v2 h-2 z"/>
			<g>
				<path d="M 10,17 h1 v13 h-1 a 2,2 0 01 -2,-2 v-9 a 2,2 0 01 2,-2 Z"/>
				<rect x="13" y="17" width="10" height="13"/>
				<path d="M 26,17 a 2,2 0 01 2,2 v9 a 2,2 0 01 -2,2 h-1 v-13 h1 Z"/>
			</g>
		</g>
		<g>
			<path d="M 32,10 a 2,2 0 01 2,2 v20 a 2,2 0 01 -2,2 h-28 a 2,2 0 01 -2,-2 v-20 a 2,2 0 01 2,-2 h28 ZM 32,31 v-18 a 1,1 0 00 -1,-1 h-26 a 1,1 0 00 -1,1 v18 a 1,1 0 00 1,1 h26 a 1,1 0 00 1,-1 Z" fill="#f5f8fa"/> (not a stroke)
		</g>
		<g fill="#f5f8fa">
			<path d="M 11,5.5 a 3.5,3.5 0 01 7,0 a 3.5,3.5 0 01 -7,0 ZM 13.5,7 a 1.5,1.5 0 00 0,-3 a 1.5,1.5 0 00 0,3 Z"/>
			<path d="M 24,4 c 0.552,0 1,-0.104 1,1 c 0,2 -0.448,3 -1,3 a 1,2 0 01 -1,-2 h-0.669 c -0.247,0.926 -0.747,2 -1.331,2 s -1.084,-1.074 -1.331,-2 h-2.669 v-2 h7 Z"/> - i think the other bump on this key is a part of an ellipse but maybe not..
		</g>
	</g>
</svg>
