<svg xmlns="http://www.w3.org/2000/svg" viewBox="0 0 36 36">
	<path d="M 11.405,3.339 c 6.48,-1.275 8.453,1.265 11.655,0.084 s 0.093,2.82 -0.745,3.508 c -0.84,0.688 -8.141,4.809 -11.307,3.298 s -3.182,-6.186 0.397,-6.89 Z"  fill="#5C913B"/>
	
	<path d="M 15,15 c -3,-4 -5,-11 -14,-13" stroke-width="2" stroke-linecap="round" fill="none" stroke="#77B255"/>
	<path d="M 34.3,31.534 c -0.094,1.083 0.682,2.356 -0.403,3.441 c -0.616,0.617 -2.418,-0.124 -3.566,0.094 c -0.003,0.001 -0.006,0 -0.008,0.002 c -9.542,1.989 -15.018,0.109 -19.98,-4.853 c -6.093,-6.092 -5.857,-13.915 -2.688,-19.117 c 0.363,-1.1 -0.167,-2.938 0.714,-3.819 c 0.898,-0.899 2.236,-0.351 3.815,-0.965 c 5.087,-1.754 12.966,-1.733 18.767,4.067 c 5.993,5.994 6.12,15.772 3.346,21.107 c 0,0.015 0.005,0.026 0.003,0.043 Z"  fill="#FFCC4D"/>
	<path d="M 8.208,6.583 c 0.922,1.08 1.699,3.162 0.992,7.538 c -0.708,4.374 -3.883,7.559 -4.938,9.269 s -2.914,3.975 -2.621,0.445 c 0.292,-3.528 -2.877,-7.465 -0.29,-12.653 c 2.587,-5.189 6.857,-4.599 6.857,-4.599 Z"  fill="#77B255"/>
	</svg>
