<svg xmlns="http://www.w3.org/2000/svg" viewBox="0 0 36 36">
	<path d="M 11.405,3.339 c 6.48,-1.275 8.453,1.265 11.655,0.084 s 0.093,2.82 -0.745,3.508 c -0.84,0.689 -8.14,4.809 -11.306,3.298 c -3.167,-1.511 -3.184,-6.185 0.396,-6.89 Z" fill="#5c913b"/>
	<path d="M 15,15 c -3,-4 -5,-11 -14,-13" stroke-width="2" stroke-linecap="round" fill="none" stroke="#77B255"/>
	<path d="M 30.951,10.384 c 5.994,5.994 6.12,15.772 3.346,21.107 c -0.091,1.126 0.686,2.398 -0.4,3.483 c -0.617,0.618 -2.418,-0.124 -3.575,0.096 c -9.542,1.989 -15.018,0.11 -19.98,-4.852 c -6.092,-6.092 -5.856,-13.915 -2.687,-19.117 c 0.363,-1.1 -0.167,-2.938 0.714,-3.819 c 0.899,-0.899 2.237,-0.351 3.815,-0.965 c 5.088,-1.754 12.967,-1.733 18.767,4.067 Z" fill="#ffcc4d"/>
	<path d="M 8.208,6.583 c 0.922,1.081 1.699,3.163 0.991,7.537 c -0.708,4.375 -3.883,7.559 -4.938,9.269 s -2.914,3.976 -2.621,0.445 c 0.293,-3.528 -2.877,-7.464 -0.289,-12.652 c 2.587,-5.189 6.857,-4.599 6.857,-4.599 Z" fill="#77b255"/>
</svg>
