<svg xmlns="http://www.w3.org/2000/svg" viewBox="0 0 36 36">
	<ellipse rx="1.333" ry="2" cx="7.333" cy="14" fill="#FFCC4D"/>
	<path d="M 35 28 v-7c0 -3.5 -2.5 -4 -7 -4" stroke-linecap="round" stroke-linejoin="round" stroke-width="2" fill="none" stroke="#FFCC4D"/> <!-- not 100% sure -->
	<path d="M 34,23 c -1,5 -2,13 -2,13 h-6 s -1,-1 1,-2 l 2,-1 v-3 s -2,-1 -4,-4 c 0,0 -5,1 -7,1 h-3 l -1,9 h-6 s 0,-2 1,-2 s 2,-1 2,-1 l -1,-12 s -3.419,-0.581 -5,1 c -2,2 -3,2 -3,2 s -2,-1.625 -2,-3.625 s 4,-6.375 7,-6.375 s 5,-1 6,-1 c 5.099,0 8,3 10,3 c 4,0 7,-1 9,0 s 3,2 2,7 Z" fill="#FFCC4D"/>
	<g fill="#FFAC33" stroke="#F4900C" stroke-width="1">
		<circle cx="10.5" cy="16.5" r="1.5"/>
		<circle cx="17.5" cy="16.5" r="1.5"/>
		<circle cx="14.5" cy="21.5" r="1.5"/>
		<circle cx="21.5" cy="23.5" r="1.5"/>
		<circle cx="24.5" cy="18.5" r="1.5"/>
		<circle cx="28.5" cy="23.5" r="1.5"/>
		<circle cx="31.5" cy="18.5" r="1.5"/>
	</g>
	
	<circle fill="#292F33" cx="4" cy="17" r="1"/>
	<path d="M 0,20 c 1,-1 2,0 2,0 s -1,0 -1,2 c -1,0 -1,-2 -1,-2 Z"  fill="#292F33"/>	
</svg>
