<svg xmlns="http://www.w3.org/2000/svg" viewBox="0 0 36 36">
	<path d="M 0,34 h36 v2 h-36 v-2 Z"  fill="#939598"/>
	<path d="M 5,32.064 v-8.065 c 0,-2 5,-14.999 5,-14.999 s 1,-3 7,-3 h19 v25.999 l -31,0.065 Z"  fill="#D1D3D4"/>
	<rect x="4" y="27" width="10" height="4" rx="1"  fill="#D1D3D4"/>
	<path d="M 36,35 h-31.473 c -0.531,0 -1.136,-0.671 -1.353,-1.5 l -0.783,-3 c -0.216,-0.829 0.609,-1.5 1.609,-1.5 h32 v6 Z"  fill="#F4900C"/>
	
	<path d="M 17,6 h4.896 c -0.304,1.615 -1.403,3 -3.896,3 c -3,0 -4,1 -5,3 s -2,6 -3,9 c -0.885,2.651 -2.552,2.959 -5,2.995 c 0.008,-2.015 5,-14.995 5,-14.995 s 1,-3 7,-3 Z"  fill="#414042"/>
	<path d="M 36,10 v14 h-16 c -2.209,0 -3.692,-1.791 -3.312,-4 l 1.033,-6 c 0.379,-2.209 2.299,-4 4.286,-4 h13.993 Z"  fill="#414042"/>
	
	<path d="M 9,18 c -1,3 -3,3 -3,3 h-0.277 c 1.07,-3.461 3.036,-8.727 3.877,-10.949 c 3.063,0.507 0.344,5.117 -0.6,7.949 Z"  fill="#55ACEE"/>
	<path d="M 36,12 v10 h-15 c -1.578,0 -1.976,-1.279 -1.704,-2.857 l 0.737,-4.286 c 0.271,-1.578 0.967,-2.857 3.062,-2.857 h12.905 Z"  fill="#3B88C3"/>
	
	<rect x="5" y="25" width="4" height="2" rx="1"  fill="#DD2E44"/>
</svg>
