<svg xmlns="http://www.w3.org/2000/svg" viewBox="0 0 36 36">
	<g>
<path d=" M
7.104,10.4828
L
2.813,26.1388
L
6.8235,33.1778
L
13.864,29.1668
L
20.174,6.1453
L
17.5,1.4518
L
12.807,4.1253
L
7.759,22.5438
L
9.0955,24.8893
L
11.4425,23.5528
L
14.471,12.5023
"/>
		<path d="M 7.104,10.4828 l -4.291,15.656 a 0.001,0.001 0 00 11.051,3.028 l 6.31,-23.0215 a 0.001,0.001 0 00 -7.367,-2.02 l -5.048,18.4185 a 0.001,0.001 0 00 3.6835,1.009 l 3.0285,-11.0505"/>
		<path d="M 28.2805,23.4238L25.582,12.2868L23.2765,10.8813L21.87,13.1868L26.367,31.7468L30.9785,34.5598L33.791,29.9483L28.17,6.7478L21.253,2.5288L17.034,9.4463L20.8565,25.2228"/>
	</g>
	<g>
		<path d="M 18.1419,9.7744 l 0.973,4.017 l 0.324,-1.194 l -0.945,-4.101 l -0.352,1.278 Z" fill="#66757f"/>
	</g>
	<g>
		<path d="M 16.6966,15.035 l 0.969,4.031 l 0.358,-1.291 l -0.974,-4.016 l -0.353,1.276 Z" fill="#66757f"/>
	</g>
	<g>
		<path d="M 21.0726,3.6453 s 0.304,-0.126 0.538,-0.173 c 0,0 -0.25,-1.015 -1.023,-1.797 l -0.552,0.208 s 0.732,0.762 1.037,1.762 Z" fill="#66757f"/>
	</g>
	<g>
		<path d="M 18.8841,5.1834 s 0.266,-0.328 0.397,-0.434 c 0,0 -0.09,-1.086 -1.012,-1.797 l -0.416,0.387 c 0.844,0.555 1.031,1.844 1.031,1.844 Z" fill="#66757f"/>
	</g>
</svg>
