<svg xmlns="http://www.w3.org/2000/svg" viewBox="0 0 36 36">
	<g>
<path d=" M
7.104,10.4828
L
2.813,26.1388
L
6.8235,33.1778
L
13.864,29.1668
L
20.174,6.1453
L
17.5,1.4518
L
12.807,4.1253
L
7.759,22.5438
L
9.0955,24.8893
L
11.4425,23.5528
L
14.471,12.5023
"/>
	</g>
	<g>
		<path d="M 18.1419,9.7744 l 0.973,4.017 l 0.324,-1.194 l -0.945,-4.101 l -0.352,1.278 Z" fill="#66757f"/>
	</g>
	<g>
		<path d="M 16.6966,15.035 l 0.969,4.031 l 0.358,-1.291 l -0.974,-4.016 l -0.353,1.276 Z" fill="#66757f"/>
	</g>
	<g>
		<path d="M 21.0726,3.6453 s 0.304,-0.126 0.538,-0.173 c 0,0 -0.25,-1.015 -1.023,-1.797 l -0.552,0.208 s 0.732,0.762 1.037,1.762 Z" fill="#66757f"/>
	</g>
	<g>
		<path d="M 18.8841,5.1834 s 0.266,-0.328 0.397,-0.434 c 0,0 -0.09,-1.086 -1.012,-1.797 l -0.416,0.387 c 0.844,0.555 1.031,1.844 1.031,1.844 Z" fill="#66757f"/>
	</g>
</svg>
