<svg xmlns="http://www.w3.org/2000/svg" viewBox="0 0 36 36">
	yeah rotated scaled whatever..
	
	feet
	<g fill="#3e721d">
		<ellipse rx="0.7235" ry="0.724" cx="14.5958" cy="3.167"/>
		<circle r="0.724" cx="14.7882" cy="1.6182"/>
		<ellipse rx="0.7235" ry="0.724" cx="16.36" cy="1.1494"/>
		<path d="M 15.6597,6.8437 c 0.485,-2.03 0.384,-3.139 -0.553,-3.677 c -0.937,-0.537 0.336,-2.665 1.977,-0.792 s 1.428,3.618 0.661,4.852 c -0.766,1.235 -2.334,0.66 -2.085,-0.383 Z"/>
	</g>
	<g fill="#3e721d">
		<circle r="0.724" cx="11.5958" cy="12.0635"/>
		<circle r="0.724" cx="11.298" cy="13.7407"/>
		<ellipse rx="0.7235" ry="0.724" cx="12.7457" cy="14.4648"/>
		<path d="M 15.1802,9.7954 c 0.471,-0.964 2.047,-0.411 1.854,1.029 c -0.193,1.441 -1.138,2.924 -3.595,3.326 c -2.457,0.403 -2.087,-2.048 -1.023,-1.868 c 1.065,0.181 1.848,-0.61 2.764,-2.487 Z"/>
	</g>
	<g fill="#3e721d">
		<ellipse rx="0.7237" ry="0.72481" transform="translate(21.3584,23.54725) rotate(-18.82895990227675)"/>
		<ellipse rx="0.7237" ry="0.7237" transform="translate(22.13115,24.81485) rotate(-18.82300694089753)"/>
		<ellipse rx="0.72339" ry="0.7237" transform="translate(23.7584,24.5748) rotate(-18.848137790339024)"/>
		<path d="M 26.5156,16.0557 c 0.871,0.58 2.676,4.686 1.193,3.505 c -1.481,-1.182 -3.819,-0.52 -3.67,0.037 c 0.147,0.557 0.622,2.891 -0.157,4.169 c -0.778,1.277 -2.497,0.985 -1.92,-0.491 c 0.575,-1.479 -1.463,-4.09 -1.145,-4.94 c 0.317,-0.85 3.627,-3.657 5.699,-2.28 Z"/>
	</g>
	<g fill="#3e721d">
		<ellipse rx="0.724" ry="0.7245" cx="33.5221" cy="8.5889"/>
		<ellipse rx="0.7235" ry="0.724" cx="35.0265" cy="9.3135"/>
		<circle r="0.724" cx="34.6803" cy="11.0303"/>
		<path d="M 27.584,15.2378 c -1.546,-1.949 0.975,-5.482 1.794,-5.87 c 0.821,-0.387 2.572,0.403 3.997,-0.294 c 1.424,-0.697 1.745,0.854 0.65,1.874 c -1.227,1.142 -2.241,1.334 -3.119,1.525 c -0.563,0.122 -0.032,2.033 -0.008,3.971 c 0.022,1.798 -2.664,-0.386 -3.314,-1.206 Z"/>
	</g>
	body
	<g>
		<path d="M 0.2085,5.6519 c 0.264,-1.053 4.656,-4.723 8.641,-4.034 c 2.024,0.351 2.942,3.354 5.102,3.429 c 11.29,0.389 22.272,11.138 18.847,21.391 c -1.505,4.506 -5.618,8.797 -15.461,5.001 c -1.955,-0.754 -3.97,-1.986 -7.824,-1.227 c -2.852,0.563 -3.149,3.159 -2.803,4.497 c 0.272,1.048 -0.161,1.582 -0.7,0.759 c -1.226,-1.868 -1.317,-4.348 0.642,-5.956 c 3.912,-3.211 9.248,-1.284 13.138,-0.059 c 6.481,2.044 9.917,-3.651 6.345,-10.315 c -3.503,-6.54 -9.812,-8.324 -14.005,-8.817 c -1.168,-0.137 -3.639,2.049 -5.367,1.743 c -3.62,-0.643 -6.745,-5.648 -6.555,-6.412 Z" fill="#3e721d"/>
	</g>
	<g>
		<path d="M 0.2085,5.6519 c 0.264,-1.053 4.656,-4.723 8.641,-4.034 c 2.024,0.351 2.942,3.354 5.102,3.429 c 11.29,0.389 22.272,11.138 18.847,21.391 c -1.505,4.506 -5.618,8.797 -15.461,5.001 c -1.955,-0.754 -3.97,-1.986 -7.824,-1.227 c -2.852,0.563 -3.149,3.159 -2.803,4.497 c 0.134,0.516 0.098,0.906 -0.039,1.073 c -0.921,-1.282 -1.362,-4.34 0.662,-5.865 c 3.539,-2.667 8.568,-0.131 13.301,1.042 c 10.251,2.541 12.183,-7.995 7.908,-14.875 c -5.187,-8.348 -21.542,-10.334 -28.334,-10.432 Z" fill="#77b255"/>
	</g>
	eyes
	<g>
		<circle r="1" cx="7" cy="3" fill="#292f33"/>
		<circle r="1" cx="6" cy="10" fill="#292f33"/>
	</g>
</svg>
