<svg xmlns="http://www.w3.org/2000/svg" viewBox="0 0 36 36">
	<path d="M 6.755,2.246 s 0.665,0.523 1.314,1.434 c 0.621,0.871 0.316,0.946 -0.315,0.473 s -2.034,-1.342 -2.455,-1.815 c -0.42,-0.473 -0.67,-1.668 -0.173,-1.391 c 0.579,0.323 1.186,0.931 1.629,1.299 Z"  fill="#C1694F"/>
	<path d="M 8.191,0.736 c 0.328,0.339 0.735,2.394 0.735,2.394 s 1.282,0.092 2.407,0.786 c 4.5,2.776 2.542,9.542 3.944,11.102 c 0.432,0.48 9.681,-1.643 14.222,0.544 c 3.844,1.852 3.083,4.646 4.083,5.271 c 0.758,0.474 -2,1.25 -2.578,-2.313 c -0.506,11.147 -1.072,13.867 -1.672,16.354 c -0.339,1.406 -1.979,1.601 -1.792,-0.333 c 0.1,-1.027 0.463,-7.223 -0.583,-8.792 c -0.75,-1.125 -4.708,2.417 -11.707,1.773 c -0.485,4.276 -1.097,7.136 -1.272,7.519 c -0.562,1.229 -1.863,1.218 -1.676,-0.009 c 0.187,-1.228 0.447,-4.949 -0.884,-9.01 c -5.626,-3.98 -1.626,-14.189 -3.253,-16.146 c -0.362,-0.435 -2.647,-0.981 -3.314,-1.048 c -0.666,-0.067 -1.265,-0.172 -1.664,-0.239 c -0.4,-0.067 -0.994,-1.776 -0.927,-2.242 s 0.394,-0.623 1.26,-0.956 s 0.988,-0.222 0.942,-0.728 c -0.097,-1.052 2.183,-1.774 3.481,-1.645 c -0.133,-0.133 -1.08,-1.786 -1.354,-2.393 c -0.35,-0.774 1.068,-0.442 1.602,0.111 Z"  fill="#D99E82"/>
	<path d="M 2.901,6.241 c 0.068,0.342 -0.394,0.394 -0.315,0.69 s 0.536,1.256 0.95,1.157 s 0.909,-0.07 0.224,0.259 c -0.522,0.25 -0.847,0.012 -0.847,0.012 s -0.772,-1.473 -0.693,-1.894 c 0.08,-0.419 0.661,-0.322 0.681,-0.224 Z"  fill="#C1694F"/>
	<path d="M 7.473,0.846 c -0.608,-0.157 0.653,2.351 0.909,2.311 c 0.196,-0.03 -0.412,-2.182 -0.909,-2.311 Z"  fill="#C1694F"/>
	<path d="M 9.945,6.692 s 1.009,1.324 0.252,2.269 c -0.756,0.946 -2.333,0.63 -2.333,0.63 s 1.513,-0.441 1.891,-1.198 c 0.379,-0.755 0.19,-1.701 0.19,-1.701 Z"  fill="#C1694F"/>
	
	<path d="M 7.58,4.805 c 0,0.405 -0.328,0.733 -0.733,0.733 s -0.732,-0.328 -0.732,-0.733 s 0.367,-0.31 0.772,-0.31 s 0.693,-0.095 0.693,0.31 Z"  fill="#292F33"/>
	<path d="M 2.22,6.146 c 0.062,-0.462 1.54,-0.335 1.005,0.138 c -0.335,0.296 -1.104,0.591 -1.005,-0.138 Z"  fill="#292F33"/>
</svg>
