<svg xmlns="http://www.w3.org/2000/svg" viewBox="0 0 36 36">
	the layering on this one was sooo bad before
	
	antennae:
	<g>
		<path fill="#BE1931" d="M 17.541,12.5 c -0.258,0 -0.478,-0.199 -0.498,-0.461 c -0.498,-6.35 -2.635,-10.064 -6.018,-10.459 c -0.274,-0.032 -0.47,-0.28 -0.438,-0.555 c 0.032,-0.273 0.274,-0.468 0.555,-0.438 c 2.263,0.264 6.17,2.093 6.898,11.374 c 0.022,0.275 -0.184,0.516 -0.459,0.538 c -0.014,0.001 -0.027,0.001 -0.04,0.001 Z"/>
		<path fill="#BE1931" d="M 18.959,12.5 c -0.013,0 -0.026,0 -0.04,-0.001 c -0.275,-0.022 -0.481,-0.263 -0.459,-0.538 c 0.728,-9.281 4.635,-11.11 6.899,-11.374 c 0.27,-0.038 0.523,0.164 0.555,0.438 c 0.031,0.275 -0.165,0.523 -0.439,0.555 c -3.383,0.395 -5.52,4.109 -6.018,10.459 c -0.02,0.262 -0.239,0.461 -0.498,0.461 Z"/>
	</g>
	legs:
	<g fill="#BE1931">
		<path d="M 14.8472,22.4014 c -0.021,0.001 -0.042,0.001 -0.064,0 c -2.117,-0.068 -4.919,-1.006 -6.246,-5.077 c -0.135,-0.413 0.089,-0.864 0.503,-0.998 c 0.414,-0.135 0.856,0.085 0.992,0.498 l 0.003,0.012 c 0.312,0.959 1.263,3.876 4.799,3.991 c 0.435,0.014 0.776,0.378 0.762,0.812 c -0.014,0.414 -0.343,0.743 -0.749,0.762 Z"/>
		<path d="M 9.4995,28.0391 c 0.151,-0.222 0.411,-0.359 0.698,-0.343 c 3.034,0.181 4.578,-1.938 5.086,-2.634 c 0.256,-0.351 0.75,-0.429 1.1,-0.172 c 0.352,0.255 0.415,0.747 0.173,1.099 c -1.698,2.33 -3.869,3.434 -6.453,3.28 c -0.434,-0.026 -0.766,-0.399 -0.74,-0.834 c 0.009,-0.147 0.058,-0.283 0.136,-0.396 Z"/>
		<path d="M 14.3618,23.9678 c 0.421,-0.063 0.767,-0.142 1.022,-0.2 l 0.179,-0.04 c 0.425,-0.092 0.695,-0.511 0.603,-0.937 c -0.092,-0.425 -0.515,-0.698 -0.937,-0.602 l -0.193,0.043 c -1.087,0.245 -3.634,0.823 -6.463,-1.15 c -0.356,-0.248 -0.849,-0.161 -1.096,0.196 c -0.249,0.356 -0.161,0.847 0.195,1.096 c 2.665,1.858 5.166,1.823 6.69,1.594 Z"/>
		<path d="M 15.4033,25.2979 c 0.376,-0.199 1.053,-0.624 1.053,-0.624 c 0.371,-0.228 0.487,-0.712 0.259,-1.083 c -0.228,-0.37 -0.718,-0.488 -1.083,-0.259 l -0.168,0.105 c -0.945,0.59 -3.157,1.981 -6.479,1.056 c -0.418,-0.116 -0.854,0.13 -0.97,0.548 c -0.117,0.419 0.129,0.854 0.548,0.97 c 3.13,0.87 5.478,0.01 6.84,-0.713 Z"/>
		<path d="M 21.833,22.4014 c 0.021,0.001 0.043,0.001 0.064,0 c 2.117,-0.068 4.919,-1.006 6.246,-5.077 c 0.135,-0.413 -0.089,-0.864 -0.502,-0.998 c -0.415,-0.135 -0.857,0.085 -0.993,0.498 l -0.003,0.012 c -0.312,0.959 -1.263,3.876 -4.799,3.991 c -0.435,0.014 -0.776,0.378 -0.762,0.812 c 0.014,0.414 0.344,0.743 0.749,0.762 Z"/>
		<path d="M 27.1807,28.0391 c -0.15,-0.222 -0.411,-0.359 -0.697,-0.343 c -3.034,0.181 -4.579,-1.938 -5.087,-2.634 c -0.256,-0.351 -0.749,-0.429 -1.1,-0.172 c -0.351,0.255 -0.415,0.747 -0.173,1.099 c 1.698,2.33 3.869,3.434 6.453,3.28 c 0.435,-0.026 0.766,-0.399 0.74,-0.834 c -0.009,-0.147 -0.058,-0.283 -0.136,-0.396 Z"/>
		<path d="M 22.3184,23.9678 c -0.421,-0.063 -0.767,-0.142 -1.021,-0.2 l -0.179,-0.04 c -0.426,-0.092 -0.696,-0.511 -0.604,-0.937 c 0.092,-0.425 0.516,-0.698 0.937,-0.602 l 0.193,0.043 c 1.087,0.245 3.635,0.823 6.463,-1.15 c 0.357,-0.248 0.849,-0.161 1.097,0.196 c 0.249,0.356 0.161,0.847 -0.196,1.096 c -2.665,1.858 -5.166,1.823 -6.69,1.594 Z"/>
		<path d="M 21.2773,25.2979 c -0.376,-0.199 -1.054,-0.624 -1.054,-0.624 c -0.371,-0.228 -0.486,-0.712 -0.258,-1.083 c 0.227,-0.37 0.717,-0.488 1.083,-0.259 l 0.168,0.105 c 0.945,0.59 3.157,1.981 6.479,1.056 c 0.419,-0.116 0.854,0.13 0.97,0.548 c 0.117,0.419 -0.129,0.854 -0.548,0.97 c -3.13,0.87 -5.478,0.01 -6.84,-0.713 Z"/>
	</g>
	claws:
	<g fill="#BE1931">
		<path d="M 8.9824,6.9224 c 0.752,-0.779 2.316,-2.461 1.59,-3.955 c 0.949,0.078 6.757,6.159 -0.06,9.074 c -1.072,-0.138 -1.53,-5.119 -1.53,-5.119 Z"/>
		<path d="M 7.6353,12.0127 c 0.133,1.429 2.975,2.889 5.023,3.227 c 0.262,-0.57 -1.353,-2.236 -2.227,-3.245 c -0.487,-0.564 -0.701,-1.905 -2.185,-1.321 c -1.484,0.583 -0.611,1.339 -0.611,1.339 Z"/>
		<path d="M 11.7417,13.7925 c -0.655,0 -0.83,1.754 2.489,2.544 c 3.318,0.789 1.56,-0.878 1.048,-1.667 c -0.655,-1.008 -3.537,-0.877 -3.537,-0.877 Z"/>
		<path d="M 27.6289,6.9224 c -0.752,-0.779 -2.315,-2.461 -1.59,-3.955 c -0.948,0.078 -6.757,6.159 0.06,9.074 c 1.072,-0.138 1.53,-5.119 1.53,-5.119 Z"/>
		<path d="M 28.9766,12.0127 c -0.134,1.429 -2.976,2.889 -5.023,3.227 c -0.262,-0.57 1.353,-2.236 2.226,-3.245 c 0.488,-0.564 0.701,-1.905 2.186,-1.321 c 1.483,0.583 0.611,1.339 0.611,1.339 Z"/>
		<path d="M 24.8701,13.7925 c 0.654,0 0.829,1.754 -2.489,2.544 c -3.319,0.789 -1.56,-0.878 -1.048,-1.667 c 0.655,-1.008 3.537,-0.877 3.537,-0.877 Z"/>
	</g>
	body (back to front):
	<g fill="#BE1931">
		<path d="M 17.7544,30.3164 c -0.726,0.329 -4.25,2.171 -4.354,5.46 c 0.069,0.79 2.73,-1.25 5.011,-1.25 v-3.453 l -0.657,-0.757 Z"/>
		<path d="M 19.0352,30.3164 c 0.726,0.329 4.25,2.171 4.354,5.46 c -0.07,0.79 -2.73,-1.25 -5.011,-1.25 v-3.453 l 0.657,-0.757 Z"/>
	</g>
	<g>
		<path fill="#89021F" d="M 15.4648,25.3818 c -0.187,0.987 -0.075,6.218 2.961,6.612 v-7.007 l -2.961,0.395 Z"/>
		<path fill="#89021F" d="M 21.1514,25.3818 c 0.187,0.987 0.075,6.218 -2.961,6.612 v-7.007 l 2.961,0.395 Z"/>
	</g>
	<g>
		<path fill="#A0041E" d="M 18.3809,23.04 c 0,1.001 0.019,3.326 0.019,4.877 c -0.576,0 -1.491,-0.016 -2.437,-0.301 c -1.498,-0.45 -1.114,-3.9 -0.615,-4.701 l 3.033,0.125 Z"/>
		<path fill="#A0041E" d="M 18.2354,23.04 c 0,1.001 -0.152,3.326 -0.152,4.877 c 0.576,0 1.624,-0.016 2.57,-0.301 c 1.497,-0.45 1.113,-3.9 0.614,-4.701 l -3.032,0.125 Z"/>
		<path fill="#BE1931" d="M 15.3765,26.0889 c 0.205,0.596 0.615,1.234 2.803,1.234 c 1.528,0 3.031,-0.264 2.987,-1.343 c -0.571,0.462 -1.277,0.66 -2.987,0.66 c -1.823,0 -2.803,-0.551 -2.803,-0.551 Z"/>
	</g>
	<g>
		<path fill="#BE1931" d="M 18.3345,19.2383 c 0,1.114 0.022,3.702 0.022,5.429 c -0.655,0 -1.696,-0.018 -2.772,-0.334 c -1.703,-0.501 -1.267,-4.343 -0.699,-5.234 l 3.449,0.139 Z"/>
		<path fill="#BE1931" d="M 18.2817,19.2383 c 0,1.114 -0.166,3.702 -0.166,5.429 c 0.656,0 1.84,-0.018 2.916,-0.334 c 1.704,-0.501 1.267,-4.343 0.699,-5.234 l -3.449,0.139 Z"/>
		<path fill="#DD2E44" d="M 15.2725,22.9229 c 0.217,0.595 0.653,1.233 2.975,1.233 c 1.62,0 3.216,-0.264 3.169,-1.343 c -0.606,0.463 -1.355,0.661 -3.169,0.661 c -1.935,0 -2.975,-0.551 -2.975,-0.551 Z"/>
	</g>
	<g>
		<path fill="#DD2E44" d="M 18.3345,11.7314 c 0,2.169 0.28,8.822 0.28,9.497 c -1.398,0 -5.301,0.338 -5.083,-3.133 c 0.219,-3.471 2.358,-6.364 4.803,-6.364 Z"/>
		<path fill="#DD2E44" d="M 18.2817,11.7314 c 0,2.169 -0.21,8.822 -0.21,9.497 c 1.397,0 5.231,0.338 5.012,-3.133 c -0.218,-3.471 -2.357,-6.364 -4.802,-6.364 Z"/>
		<path fill="#EA596E" d="M 14.375,18.9062 c 0.281,0.844 0.844,1.75 3.844,1.75 c 2.093,0 4.156,-0.375 4.093,-1.906 c -0.781,0.656 -1.75,0.937 -4.093,0.937 c -2.5,0 -3.844,-0.781 -3.844,-0.781 Z"/>
	</g>
	
	claw jaws:
	<g>
		<path fill="#DD2E44" d="M 8.2202,0.0415 c -2.633,0.67 -4.675,5.092 -4.174,7.847 c 0.781,4.302 2.992,5.787 5.427,6.164 c 0.748,-0.057 3.294,-3.474 0.577,-6.272 s -2.504,-5.856 -1.83,-7.739 Z"/>
		<path fill="#DD2E44" d="M 28.3916,0.0415 c 2.633,0.67 4.675,5.092 4.174,7.847 c -0.781,4.302 -2.992,5.787 -5.428,6.164 c -0.748,-0.057 -3.294,-3.474 -0.576,-6.272 c 2.717,-2.798 2.504,-5.856 1.83,-7.739 Z"/>
		<path fill="#EA596E" d="M 8.812,12.7812 c -0.106,0 -0.214,-0.022 -0.316,-0.07 c -2.026,-0.944 -3.158,-2.62 -3.362,-4.98 c -0.035,-0.412 0.266,-0.812 0.678,-0.848 c 0.413,-0.036 0.773,0.231 0.81,0.643 c 0,0.001 0.006,0.074 0.006,0.075 c 0.064,0.737 0.234,2.694 2.501,3.75 c 0.376,0.175 0.538,0.621 0.363,0.997 c -0.127,0.273 -0.397,0.433 -0.68,0.433 Z"/>
		<path fill="#EA596E" d="M 27.75,12.7812 c -0.282,0 -0.553,-0.16 -0.68,-0.433 c -0.174,-0.376 -0.012,-0.822 0.364,-0.997 c 2.267,-1.056 2.436,-3.013 2.5,-3.75 l 0.754,-0.007 l 0.741,0.137 c -0.205,2.36 -1.336,4.036 -3.363,4.98 c -0.102,0.048 -0.21,0.07 -0.316,0.07 Z"/>
	</g>
	
	eye stalks:
	<g fill="#BE1931">
		<ellipse rx="1.01518" ry="1.43498" transform="translate(16.5781,12.9403) rotate(-10.19829930044176)"/>
		<ellipse rx="1.01518" ry="1.43498" transform="translate(19.875,12.8958) rotate(10.19829930044179)"/>
	</g>
	eyes:
	<g fill="#292F33">
		<ellipse rx="1.01518" ry="1.43498" transform="translate(16.4531,12.2323) rotate(-10.19829930044176)"/>
		<ellipse rx="1.01518" ry="1.43488" transform="translate(19.98945,12.2323) rotate(10.18847307869288)"/>
	</g>
</svg>
