<svg xmlns="http://www.w3.org/2000/svg" viewBox="0 0 36 36">
	<path d="M 4,10 a 10,10 0 01 20,0 v10 h-4 v-10 a 6,6 0 00 -12,0 v10 h-4 v-10 Z"   fill="#AAB8C2"/>
	<rect x="0" y="14" width="28" height="22" rx="4" fill="#FFAC33"/>
	<path d="M 32,21 l -1,4 l 1,4 l -16,4 l -11,-7 h12.184 a 3,3 0 00 2.816,2 a 3,3 0 00 0,-6 a 3,3 0 00 -2.816,2 h-12.184 l 11,-7 l 16,4 Z"  fill="#66757F"/>
	<path d="M 36,17 v16 h-3 c -0.55,0 -1.201,-0.402 -1.447,-0.895 l -3.105,-6.211 c -0.246,-0.492 -0.246,-1.297 0,-1.789 l 3.105,-6.211 c 0.246,-0.492 0.897,-0.894 1.447,-0.894 h3 Z"  fill="#292F33"/> <!-- curves? -->
</svg>
