<svg xmlns="http://www.w3.org/2000/svg" viewBox="0 0 36 36">
	<g>
		<path d="M 22,20 v-10 a 8,8 0 00 -16,0 v10" fill="none" stroke-width="4" stroke="#AAB8C2"/>
		<rect x="0" y="14" width="28" height="22" rx="4" fill="#FFAC33"/>
	</g>
	<g>
		<path d="M 32,21 l -1,4 l 1,4 l -16,4 l -11,-7 h12.184 a 3,3 0 00 2.816,2 a 3,3 0 00 0,-6 a 3,3 0 00 -2.816,2 h-12.184 l 11,-7 l 16,4 Z"  fill="#66757F"/>
		<path d="M 36,17 v16 h-3 c -0.55,0 -1.201,-0.402 -1.447,-0.895 l -3.106,-6.21 c -0.246,-0.493 -0.246,-1.297 0,-1.79 l 3.106,-6.21 c 0.246,-0.493 0.897,-0.895 1.447,-0.895 h3 Z" fill="#292f33"/> <!-- curves? -->
	</g>
</svg>


