<svg xmlns="http://www.w3.org/2000/svg" viewBox="0 0 36 36">
	<g>
		<path d="M 22,20 v-10 a 8,8 0 00 -16,0 v10" fill="none" stroke-width="4" stroke="#AAB8C2"/>
		<rect x="0" y="14" width="28" height="22" rx="4" fill="#FFAC33"/>
	</g>
	key
	<g fill="#c1694f">
		<rect x="25" y="13" width="4" height="11" rx="2"/>
		<rect x="27" y="26" width="2" height="4" rx="1"/>
		<rect x="27" y="31" width="2" height="3" rx="1"/>
		<rect x="23" y="14" width="5" height="22" rx="2.5"/>
		<path d="M 26,0 a 9,9 0 01 0,18 a 9,9 0 01 0,-18 ZM 26,6 a 2,2 0 00 0,-4 a 2,2 0 00 0,4 Z"/> circle with hole
	</g>
</svg>
