<svg xmlns="http://www.w3.org/2000/svg" viewBox="0 0 36 36">
	<path d="M 4,10 a 10,10 0 01 20,0 v10 h-4 v-10 a 6,6 0 00 -12,0 v10 h-4 v-10 Z"   fill="#AAB8C2"/>
	<rect x="0" y="14" width="28" height="22" rx="4" fill="#FFAC33"/>
	<path d="M 35,9 a 9,9 0 01 -6,8.477 v4.523 a 2,2 0 01 -1,1.723 v2.277 a 1,1 0 01 1,1 v2 a 1,1 0 01 -1,1 v1 a 1,1 0 01 1,1 v1 a 1,1 0 01 -1,1 c -0.018,0 -0.032,-0.009 -0.05,-0.01 a 2.5,2.5 0 01 -4.95,-0.49 v-16.023 a 9,9 0 01 -6,-8.477 a 9,9 0 01 18,0 Z M 26,2 a 2,2 0 00 0,4 a 2,2 0 00 0,-4 z"  fill="#C1694F"/>
</svg>
