<svg xmlns="http://www.w3.org/2000/svg" viewBox="0 0 36 36">
	<path d="M 33.6805,33.6805 L 13.584,13.5835" stroke-linecap="round" fill="none" stroke-width="3.91985" stroke="#FFAC33"/>
	<circle cx="14.08" cy="14.08" r="13.72" fill="#DD2E44"/>
	<path d="M 16.0859,14.8276 c 0.161,-0.086 0.288,-0.211 0.376,-0.356 c -0.071,0.565 -0.406,1.09 -0.946,1.378 c -0.297,0.158 -0.637,0.19 -0.957,0.093 c -0.321,-0.098 -0.585,-0.314 -0.743,-0.611 c -0.21,-0.393 -0.06,-0.884 0.333,-1.094 c 0.067,-0.036 0.14,-0.053 0.212,-0.053 c 0.161,0 0.318,0.087 0.399,0.239 c 0.255,0.478 0.848,0.66 1.326,0.404 Z m 1.325,12.548 c -1.459,0.092 -2.938,-0.065 -4.379,-0.503 c -3.155,-0.961 -5.748,-3.092 -7.3,-6.003 c -1.217,-2.282 -1.473,-4.901 -0.719,-7.376 c 0.752,-2.473 2.424,-4.507 4.706,-5.723 c 1.781,-0.95 3.822,-1.15 5.752,-0.561 c 1.929,0.586 3.514,1.89 4.463,3.67 c 0.734,1.377 0.888,2.958 0.433,4.451 c -0.454,1.494 -1.462,2.721 -2.84,3.456 c -1.056,0.562 -2.267,0.682 -3.412,0.332 c -1.144,-0.347 -2.085,-1.122 -2.648,-2.177 c -0.879,-1.648 -0.253,-3.704 1.395,-4.583 c 0.593,-0.317 1.272,-0.384 1.915,-0.187 c 0.231,0.07 0.447,0.171 0.644,0.3 c -0.672,-0.328 -1.486,-0.34 -2.194,0.037 c -1.347,0.718 -1.858,2.399 -1.14,3.746 c 0.404,0.758 1.079,1.313 1.901,1.564 c 0.822,0.25 1.692,0.165 2.45,-0.24 c 1.836,-0.98 2.534,-3.271 1.555,-5.107 c -0.562,-1.055 -1.502,-1.828 -2.645,-2.175 c -1.143,-0.348 -2.353,-0.23 -3.408,0.332 c -2.602,1.388 -3.59,4.633 -2.202,7.236 c 0.809,1.517 2.161,2.629 3.806,3.129 c 1.646,0.5 3.388,0.331 4.906,-0.478 c 1.839,-0.98 3.187,-2.62 3.794,-4.614 c 0.606,-1.994 0.4,-4.105 -0.58,-5.945 c -1.195,-2.241 -3.193,-3.883 -5.622,-4.623 c -2.432,-0.74 -5.004,-0.489 -7.245,0.707 c -2.744,1.464 -4.754,3.908 -5.66,6.883 c -0.905,2.976 -0.598,6.125 0.866,8.869 c 0.917,1.721 2.151,3.202 3.623,4.392 c 1.923,1.028 4.12,1.615 6.454,1.615 c 1.151,0 2.263,-0.157 3.331,-0.424 Z" fill="#f4900c"/>
	<path d="M 14.6558,14.502 c -0.054,0.143 -0.16,0.255 -0.297,0.318 c -0.554,0.249 -0.8,0.9 -0.55,1.453 c 0.119,0.265 0.328,0.458 0.576,0.562 c -0.202,-0.016 -0.402,-0.061 -0.597,-0.134 c -0.54,-0.204 -0.969,-0.606 -1.206,-1.133 c -0.166,-0.366 -0.179,-0.777 -0.036,-1.154 c 0.142,-0.376 0.423,-0.676 0.791,-0.841 c 0.129,-0.059 0.267,-0.088 0.405,-0.088 c 0.118,0 0.236,0.021 0.349,0.064 c 0.247,0.094 0.442,0.276 0.551,0.517 c 0.063,0.14 0.067,0.294 0.014,0.436 Z m 9.859,-6.003 c -1.57,-3.473 -6.117,-7.313 -11.772,-7.935 c -0.212,-0.023 -0.423,-0.033 -0.633,-0.047 c -3.6,0.52 -6.743,2.429 -8.871,5.176 c 3.382,-2.808 6.776,-3.214 9.264,-2.943 c 4.837,0.532 8.695,3.75 10.007,6.654 c 2.009,4.448 0.023,9.702 -4.424,11.71 c -1.669,0.755 -3.534,0.813 -5.247,0.165 c -1.715,-0.646 -3.075,-1.923 -3.829,-3.594 c -1.195,-2.647 -0.015,-5.774 2.632,-6.97 c 2.007,-0.906 4.38,-0.01 5.286,1.996 c 0.564,1.251 0.19,2.691 -0.822,3.524 c 0.263,-0.27 0.47,-0.593 0.607,-0.956 c 0.261,-0.692 0.237,-1.444 -0.067,-2.118 c -0.35,-0.775 -0.981,-1.369 -1.777,-1.669 c -0.798,-0.301 -1.663,-0.274 -2.437,0.077 c -0.903,0.407 -1.593,1.141 -1.944,2.068 c -0.349,0.926 -0.318,1.934 0.09,2.837 c 0.479,1.061 1.343,1.872 2.432,2.284 c 1.09,0.412 2.276,0.373 3.336,-0.105 c 2.598,-1.174 3.76,-4.246 2.586,-6.847 c -1.405,-3.111 -5.083,-4.497 -8.195,-3.095 c -3.752,1.696 -5.425,6.128 -3.731,9.88 c 0.997,2.206 2.792,3.891 5.056,4.745 c 1.041,0.393 2.124,0.59 3.205,0.59 c 1.268,0 2.534,-0.27 3.725,-0.808 c 5.551,-2.509 8.03,-9.066 5.523,-14.619 Z" fill="#ffcc4d"/>
</svg>
