<svg xmlns="http://www.w3.org/2000/svg" viewBox="0 0 36 36">
	ooh, this one is surprisingly nice maybe
	
	<g transform="translate(3.854, 32.146) rotate(45)">
		<g>
			<ellipse rx="8" ry="4" cy="-4" fill="#B52E04"/>
			<path fill="#B52E04" d="M -4,-15 h8 l 3.91323,10.40451 h-15.82646 l 3.91323,-10.40451 Z"/> tangent to ellipse
		</g>
		
		<g stroke-width="1" stroke="#662113" fill="none" stroke-linecap="round">
			<path d="M -6,-14.5 l -5.5,-17.5"/>
			<path d="M 6,-14.5 l 5.5,-17.5"/>
		</g>
		
		<g>
			<path fill="#662113" d="M 0,2 c -3.3138,0 -5.65898,-0.9491 -6,-2 s 2.6862,-2 6,-2 s 6.34102,0.9491 6,2 s -2.6862,2 -6,2 Z" transform="translate(0 -14.24749) scale(1.07303)"/>
			<path fill="#C1694F" d="M 0,2 c -3.3138,0 -5.65898,-0.9491 -6,-2 s 2.6862,-2 6,-2 s 6.34102,0.9491 6,2 s -2.6862,2 -6,2 Z" transform="translate(0 -15)"/>
			<path d=" M 6,-15 H -6 L -11.51382,-32 H 11.51382 Z" fill="#C1694F"/>
			
			<path fill="#662113" d="M 0,-36.18336 c 6.33851,0 11.51311,1.19501 11.51311,5.0346 c 0,2.7266 -6.2494,4.13657 -11.51311,4.13657 s -11.51311,-1.40997 -11.51311,-4.13657 c 0,-3.83959 5.1746,-5.0346 11.51311,-5.0346 Z"/>
			<path fill="#BE1931" d="M 0,-36.81198 c 6.33992,0 11.51311,1.11935 11.51311,4.7157 c 0,2.55407 -5.15339,4.20233 -11.51311,4.20233 s -11.51311,-1.64897 -11.51311,-4.20233 c 0,-3.59635 5.17319,-4.7157 11.51311,-4.7157 Z"/>
			<ellipse rx="11.5" ry="4" cy="-32.5" fill="#662113"/>
			
			<path fill="#D99E82" d="M 0,-36.81198 c 5.77742,0 10.57337,0.93691 11.38088,3.82332 c -0.76721,1.82787 -5.56281,3.23784 -11.38088,3.23784 s -10.61367,-1.40997 -11.38088,-3.23784 c 0.80751,-2.88641 5.60346,-3.82332 11.38088,-3.82332 Z"/> hmm.. clipped
			<ellipse rx="10.5" ry="3" cy="-34" fill="#FFE8B6"/>
		</g>
		
		<g stroke-width="1" stroke="#662113" fill="none" stroke-linecap="round">	
			<path d="M 0,-13 v-16"/>
			<path d="M -2.2,-13 l -2.8,-16.3"/>
			<path d="M 2.2,-13 l 2.8,-16.3"/>
			<path d="M -4.3,-13.5 l -4.7,-16.7"/>
			<path d="M 4.3,-13.5 l 4.7,-16.7"/>
		</g>
	</g>
</svg>
