<svg xmlns="http://www.w3.org/2000/svg" viewBox="0 0 36 36">
	<g>
		<rect x="17" y="3" width="2" height="5" fill="#66757F"/>
		<g>
			<path fill="#CCD6DD" d="M 8,4 s 2,-4 7,-4 h6 c 2,0 2,4 0,4 h-6 c -5,0 -6,1 -6,1 l -1,-1 Z"/>
			if only this was a clip path...
			<path fill="#99AAB5" d="M 8.4644,4.4644 c 1.017,-1.087 2.677,-2.464 6.536,-2.464 c 4.524,0 6,0.078 7.496,0.078 c -0.024,0.973 -0.522,1.922 -1.496,1.922 h-6 c -5,0 -6,1 -6,1 l -0.536,-0.536 Z"/>
		</g>
		<path fill="#99AAB5" d="M 12,12 v-3 a 2,2 0 01 2,-2 h8 a 2,2 0 01 2,2 v3 h-12 Z"/>
	</g>
	<g>
		<path fill="#FFAC33" d="M 24,11 c 5,0 6,21 6,21 a 4,4 0 01 -4,4 h-16 a 4,4 0 01 -4,-4 s 1,-21 6,-21 h12 Z"/>
		<rect width="12" height="1" rx="0.5" x="12" y="12" fill="#FFCC4D"/>
		<path fill="#FFE8B6" d="M 18,18 s 4,4.791 4,7 a 4,4 0 01 -8,0 c 0,-2.209 4,-7 4,-7 Z"/>
	</g>
</svg>
