<svg xmlns="http://www.w3.org/2000/svg" viewBox="0 0 36 36">
	<rect x="0" y="8" width="21" height="11" rx="4"  fill="#BE1931"/>
	<rect x="16" y="1" width="20" height="9" rx="4"  fill="#BE1931"/>
	<path d="M 0,12 h33 v24 h-31 a 2,2 0 01 -2,-2 v-22 Z"  fill="#F4ABBA"/>
	<path d="M 16,5 h20 v29 a 2,2 0 01 -2,2 h-18 v-31 Z"  fill="#FFD4DE"/>
	<path d="M 2,32 h12 v4 h-12 v-4 Z"  fill="#3B88C3"/>
	<rect x="2" y="26" width="5" height="4" fill="#3B88C3"/>
	<rect x="9" y="26" width="5" height="4" fill="#3B88C3"/>
	<rect x="18" y="20" width="4" height="4" fill="#55ACEE"/>
	<rect x="18" y="26" width="4" height="4" fill="#55ACEE"/>
	<rect x="18" y="14" width="4" height="4" fill="#55ACEE"/>
	<rect x="18" y="8" width="4" height="4" fill="#55ACEE"/>
	<rect x="24" y="20" width="4" height="4" fill="#55ACEE"/>
	<rect x="24" y="26" width="4" height="4" fill="#55ACEE"/>
	<rect x="24" y="14" width="4" height="4" fill="#55ACEE"/>
	<rect x="24" y="8" width="4" height="4" fill="#55ACEE"/>
	<rect x="30" y="20" width="4" height="4" fill="#55ACEE"/>
	<rect x="30" y="26" width="4" height="4" fill="#55ACEE"/>
	<rect x="30" y="14" width="4" height="4" fill="#55ACEE"/>
	<rect x="30" y="8" width="4" height="4" fill="#55ACEE"/>
	<path d="M 22,32 h8 v4 h-8 v-4 Z"  fill="#3B88C3"/>
	<path d="M 10,14 h2 v10 h-2 v-4 h-4 v4 h-2 v-10 h2 v4 h4 v-4 Z"  fill="#3B88C3"/>
	<path d="M 10,14 h2 v10 h-2 v-4 h-4 v4 h-2 v-10 h2 v4 h4 v-4 Z"  fill="#DD2E44"/>
	<path d="M 3,3 c 0,-2.761 3.963,-4 5,0 c 1.122,-4 5,-2.761 5,0 c 0,3 -5,6 -5,6 s -5,-3 -5,-6 Z"  fill="#EA596E"/>
</svg>
