<svg xmlns="http://www.w3.org/2000/svg" viewBox="0 0 36 36">
	<g fill="#E1E8ED" class="toolight">
		<rect width="24" height="29.7" x="6" y="3"/>
		<ellipse cx="18" cy="3" rx="12" ry="3"/>
	</g>
	
	blood juice
	<g>
		<g fill="#DD2E44"> changed from #D42544
			<path d="M 30,32.7 c 0,1.657 -5.372,3.3 -12,3.3 s -12,-1.643 -12,-3.3 s 5.372,-2.7 12,-2.7 s 12,1.043 12,2.7 Z"/> distorted ellipse
			<rect width="24" height="8" x="6" y="24.7"/>
		</g>
		<path d="M 30,24.7 c 0,1.657 -5.372,3.3 -12,3.3 s -12,-1.643 -12,-3.3 s 5.372,-2.7 12,-2.7 s 12,1.043 12,2.7 Z" fill="#EA596E"/> changed from #FF475C
	</g>
	
	terminal
	<g>
		<g fill="#99AAB5">
			<ellipse cx="18" cy="4" rx="10" ry="2"/>
			<rect x="8" y="3" width="20" height="1"/>
		</g>
		
		<ellipse fill="#CCD6DD" cx="18" cy="3" rx="10" ry="2"/>
		
		<g fill="#99AAB5">
			<ellipse cx="18" cy="2.5" rx="4" ry="1"/>
			<rect x="14" y="1" width="8" height="1.5"/>
		</g>
		
		<ellipse fill="#CCD6DD" cx="18" cy="1" rx="4" ry="1"/>
	</g>
	
	labels
	<g fill="#FFF">
		<path d="M 21.956,12.788 c 0.091,0.544 -0.321,1.066 -0.922,1.136 c -0.676,0.079 -1.355,0.121 -2.035,0.147 v1.929 a 1,1 0 01 -2,0 v-1.93 a 26.188,26.188 0 01 -2.035,-0.147 c -0.601,-0.07 -1.012,-0.591 -0.922,-1.136 a 1.042,1.042 0 01 1.152,-0.851 c 0.6,0.07 1.202,0.109 1.804,0.133 v-2.069 a 1,1 0 01 2,0 v2.07 a 24.781,24.781 0 00 1.804,-0.133 a 1.042,1.042 0 01 1.154,0.851 Z"   fill="#99AAB5"/>
		<path d="M 20.304,30.534 a 1.048,1.048 0 01 1.153,0.854 c 0.091,0.544 -0.326,1.067 -0.934,1.134 a 23.123,23.123 0 01 -5.045,0 c -0.609,-0.067 -1.026,-0.59 -0.934,-1.134 a 1.048,1.048 0 01 1.153,-0.854 a 21.119,21.119 0 00 4.607,0 Z"/>
	</g>
</svg>
