<svg xmlns="http://www.w3.org/2000/svg" viewBox="0 0 36 36">
	<path d="M 18,0 a 12,3 0 01 12,3 v29.7 h-24 v-29.7 a 12,3 0 01 12,-3 Z"   fill="#E1E8ED"/>
	<path d="M 6,24.7 h24 v8 c 0,1.657 -5.373,3.3 -12,3.3 s -12,-1.643 -12,-3.3 v-8 Z"   fill="#D42544"/>
	<path d="M 30,24.7 c 0,1.657 -5.373,3.3 -12,3.3 s -12,-1.643 -12,-3.3 s 5.373,-2.7 12,-2.7 s 12,1.043 12,2.7 Z"   fill="#FF475C"/>
	<path d="M 21.956,12.788 c 0.091,0.544 -0.321,1.066 -0.922,1.136 c -0.676,0.079 -1.355,0.121 -2.035,0.147 v1.929 a 1,1 0 01 -2,0 v-1.93 a 26.188,26.188 0 01 -2.035,-0.147 c -0.601,-0.07 -1.012,-0.591 -0.922,-1.136 a 1.042,1.042 0 01 1.152,-0.851 c 0.6,0.07 1.202,0.109 1.804,0.133 v-2.069 a 1,1 0 01 2,0 v2.07 a 24.781,24.781 0 00 1.804,-0.133 a 1.042,1.042 0 01 1.154,0.851 Z"   fill="#99AAB5"/>
	<path d="M 26.651,3 h1.349 v1 a 10,2 0 01 -10,2 a 10,2 0 01 -10,-2 v-1 h1.349 c 1.73,-0.597 4.952,-1 8.651,-1 s 6.921,0.403 8.651,1 Z"   fill="#99AAB5"/>
	<ellipse fill="#CCD6DD" cx="18" cy="3" rx="10" ry="2"/>
	<path d="M 14,1 h8 v1.5 a 4,1 0 01 -4,1 a 4,1 0 01 -4,-1 v-1.5 Z"   fill="#99AAB5"/>
	<ellipse fill="#CCD6DD" cx="18" cy="1" rx="4" ry="1"/>
	<path d="M 15.478,32.522 c -0.609,-0.067 -1.026,-0.59 -0.934,-1.134 a 1.048,1.048 0 01 1.153,-0.854 c 1.531,0.168 3.076,0.168 4.607,0 a 1.048,1.048 0 01 1.153,0.854 c 0.091,0.544 -0.326,1.067 -0.934,1.134 a 23.123,23.123 0 01 -5.045,0 Z"   fill="#FFF"/>
</svg>
