<svg xmlns="http://www.w3.org/2000/svg" viewBox="0 0 36 36">
	ooh, this one is nice
	
	handle
	<g>
		<rect width="2" height="7" x="13" y="2" fill="#CCD6DD"/>
		<rect width="2" height="7" x="21" y="2" fill="#CCD6DD"/>
		<rect width="2" height="2" x="13" y="1" fill="#292F33"/>
		<rect width="2" height="2" x="21" y="1" fill="#292F33"/>
		<rect x="13" y="0" width="10" height="2" rx="1" fill="#292F33"/>
	</g>
	wheels
	<g>
	<circle fill="#292F33" cx="9" cy="35" r="1"/>
	<circle fill="#292F33" cx="27" cy="35" r="1"/>
	<rect x="8" y="31.2" width="3" height="3" rx="1" fill="#292F33"/>
	<rect x="25" y="31.2" width="3" height="3" rx="1" fill="#292F33"/>
	</g>
	side handle
	<rect x="6" y="17" width="2" height="8" rx="1" fill="#292F33"/>
	bag
	<g>
		<rect x="7" y="8" width="22" height="25" rx="2" fill="#3b88c3"/>
		<rect x="9" y="10" width="18" height="8" rx="1" fill="#55acee"/>
		<rect x="9" y="19" width="18" height="12" rx="1" fill="#55acee"/>
		zippers
		<g>
			<rect x="10" y="11" width="16" height="1" rx="0.5" fill="#226699"/>
			<rect x="10" y="20" width="16" height="1" rx="0.5" fill="#226699"/>
			<rect x="10" y="11" width="2" height="1" rx="0.5" fill="#F5F8FA"/>
			<rect x="10" y="20" width="2" height="1" rx="0.5" fill="#F5F8FA"/>
		</g>
	</g>
</svg>
