<svg xmlns="http://www.w3.org/2000/svg" viewBox="0 0 36 36">
	<defs>
		weird strokes..
		<path id="ring1" d="M 0,-0.025 c 1.374,0 2.027,0.683 2.098,0.76 c 0.173,0.192 0.157,0.488 -0.035,0.661 c -0.089,0.08 -0.202,0.12 -0.313,0.12 c -0.128,0 -0.255,-0.052 -0.348,-0.155 c -0.012,-0.013 -0.444,-0.451 -1.402,-0.451 s -1.389,0.437 -1.407,0.456 c -0.177,0.185 -0.471,0.196 -0.658,0.022 s -0.203,-0.462 -0.032,-0.652 c 0.07,-0.078 0.723,-0.761 2.097,-0.761 Z"/>
	</defs>
	
	<g>
		<g fill="#F4ABBA">
			<circle cx="12" cy="20" r="1"/>
			<circle cx="24" cy="20" r="1"/>
			<path d="M 18,17 c -2,0 -5.375,3.781 -5.375,3.781 l -1.25,-1.562 l 6.625,-7.019 l 6.625,7.019 l -1.25,1.562 s -3.375,-3.781 -5.375,-3.781 Z"/>
			<rect x="16" y="1" width="4" height="15.5" rx="2"/>
		</g>
		this is just a 100px shadow at the bottom of the previous layer
		<path d="M 24.781,19.625 c 0.033,-0.041 0.044,-0.091 0.07,-0.136 c 0.208,0.348 0.198,0.8 -0.07,1.136 c -0.198,0.246 -0.488,0.375 -0.782,0.375 c -0.219,0 -0.439,-0.071 -0.624,-0.219 c 0,0 -3.375,-3.781 -5.375,-3.781 s -5.375,3.781 -5.376,3.781 c -0.184,0.148 -0.405,0.219 -0.624,0.219 c -0.293,0 -0.583,-0.128 -0.781,-0.375 c -0.269,-0.336 -0.279,-0.788 -0.07,-1.136 c 0.026,0.045 0.037,0.094 0.07,0.136 c 0.197,0.247 0.488,0.375 0.781,0.375 c 0.22,0 0.44,-0.071 0.625,-0.219 c 0,0 3.375,-3.781 5.375,-3.781 s 5.375,3.781 5.375,3.781 c 0.185,0.148 0.405,0.219 0.624,0.219 c 0.294,0 0.584,-0.129 0.782,-0.375 Z"  fill="#EA596E"/>
		
		<g  fill="#EA596E">
			<use href="#ring1" x="18" y="2"/>
			<use href="#ring1" x="18" y="5"/>
			<use href="#ring1" x="18" y="8"/>
			<use href="#ring1" x="18" y="11"/>
		</g>
	</g>
	
	hmm some kinda bad overlap here..
	
	lung 1
	<g>
		<path d="M 13.36,9.023 c 0.963,3.156 1.366,6.654 0.891,11.348 c -0.376,3.711 -0.368,5.728 0.119,8.554 c 0.297,1.723 -0.804,2.936 -2.495,3.98 c -4.039,2.495 -9.525,1.346 -10.158,-0.416 c -1.366,-3.802 0.119,-6.594 0.065,-10.59 c -0.056,-4.143 1.657,-8.295 3.499,-10.737 c 4.198,-5.566 7.268,-4.795 8.079,-2.139 Z"  fill="#DD2E44"/>
		<path d="M 13.36,9.023 c 0.963,3.156 1.366,6.654 0.892,11.347 c -0.212,2.092 -0.302,3.645 -0.253,5.109 c 0.038,1.133 -0.551,3.649 -2.242,4.693 c -4.04,2.495 -8.495,-0.119 -10.04,2.317 c -1.366,-3.802 0.119,-6.594 0.065,-10.59 c -0.056,-4.143 1.657,-8.295 3.499,-10.737 c 4.198,-5.566 7.268,-4.795 8.079,-2.139 Z"  fill="#EA596E"/>
	</g>
	
	lung 2
	<g>
		<path d="M 22,9.075 c 0.04,-2.777 3.003,-3.141 7.459,0.958 c 2.483,2.284 4.044,6.757 4.871,11.584 c 0.832,4.856 0.387,10.182 -0.119,11.525 c -0.614,1.628 -5.371,2.294 -8.673,0.119 c -2.128,-1.401 -3.455,-3.863 -3.03,-6.772 c 1.129,-7.723 -0.653,-7.248 -0.508,-17.414 Z"  fill="#DD2E44"/>
		<path d="M 22,9.075 c 0.04,-2.777 3.003,-3.141 7.459,0.958 c 2.483,2.284 4.044,6.757 4.871,11.584 c 0.832,4.856 0.387,10.182 -0.119,11.525 c -0.297,-3.089 -3.683,-1.426 -7.307,-3.03 c -1.089,-0.482 -1.515,-0.926 -1.426,-3.327 c 0.119,-3.208 -2.598,-2.198 -2.598,-4.34 c 0.001,-3.97 -0.994,-5.397 -0.88,-13.37 Z"  fill="#EA596E"/>
	</g>
</svg>
