<!--<svg xmlns="http://www.w3.org/2000/svg" viewBox="0 0 36 36">
	<g>
		<path d="M 25.4854,22.6562 l -2.828,2.828 l -3.712,-3.711 c -1.961,1.397 -4.354,2.227 -6.945,2.227 a 12,12 0 01 -12,-12 a 12,12 0 01 12,-12 a 12,12 0 01 12,12 c 0,2.591 -0.83,4.983 -2.226,6.945 l 3.711,3.711 Z" fill="#9aaab4"/>
	</g>
	<circle r="8" cx="12" cy="12" fill="#bdddf4"/>
	<g>
		<path d="M 34.7275,29.1719 c 1.562,1.563 1.563,4.096 0.001,5.656 c -1.563,1.563 -4.096,1.563 -5.658,0 l -5.656,-5.656 l -2.829,-2.828 c -0.781,-0.781 -0.781,-2.047 0,-2.828 l 2.829,-2.828 c 0.781,-0.782 2.046,-0.782 2.828,0 l 8.485,8.484 Z" fill="#67757f"/>
	</g>
</svg>-->

<svg xmlns="http://www.w3.org/2000/svg" viewBox="0 0 36 36">
	why did they have to go and scale this one so weirdly.. it was fine before
	<g transform="translate(13.5859 13.6689) rotate(-45)">
		<rect width="4" height="7" x="-2" y="10.51892" fill="#99aab5"/>
		<path fill="#66757F" d="M 4,25.8355 a 4,4 0 01 -4,4 a 4,4 0 01 -4,-4 v-8.314 a 2,2 0 01 2,-2 h4 a 2,2 0 01 2,2 v8.314 Z"/>
		<circle r="13.5" fill="#8899A6"/>
		<circle r="9.5" fill="#BBDDF5"/>
	</g>
</svg>
