<svg xmlns="http://www.w3.org/2000/svg" viewBox="0 0 36 36">
	<g>
		<path fill="#BE1931" d="M 29.543,25.021 s -3.928,5.122 -5.43,6.613 c -5.508,5.468 -14.418,5.488 -19.906,0 s -5.469,-14.398 -0.001,-19.906 c 1.491,-1.502 6.613,-5.43 6.613,-5.43 h5.139 v6.227 s -3.132,2.395 -6.153,5.006 c -2.297,1.987 -2.215,6.094 0.098,8.407 s 6.42,2.395 8.407,0.098 c 2.611,-3.021 5.005,-6.153 5.005,-6.153 h6.228 v5.138 Z"/>
		<g fill="#CCD6DD">
			<path d="M 19.47,8.319 a 1,1 0 01 -0.137,1.42 l -3.375,2.786 l -5.139,-6.227 l 3.377,-2.786 a 1,1 0 01 1.42,0.136 l 3.854,4.671 Z"/>
			<path d="M 27.522,16.371 l 4.671,3.854 a 1,1 0 01 0.136,1.421 l -2.786,3.375 l -6.228,-5.138 l 2.786,-3.376 a 1,1 0 01 1.421,-0.136 Z"/>
		</g>
	</g>
	<g>
		these were exceptionally badly corrupted, with like 20 redundant points each at some of the rounded corners
		<path fill="#FFAC33" d="M 23.7165,4.223 a 0.187,0.187 0 01 -0.088,0.309 l -5.134,1.257 a 0.187,0.187 0 01 -0.173,-0.311 l 1.935,-1.896 l -1.757,-1.793 a 0.187,0.187 0 01 0.089,-0.309 l 5.135,-1.256 a 0.187,0.187 0 01 0.173,0.311 l -1.937,1.895 l 1.757,1.793 Z"/>
		<path fill="#FFAC33" d="M 35.8283,15.1052 a 0.187,0.187 0 01 -0.03,0.319 l -4.819,2.174 a 0.187,0.187 0 01 -0.226,-0.274 l 1.555,-2.217 l -2.054,-1.443 a 0.187,0.187 0 01 0.031,-0.32 l 4.818,-2.173 a 0.187,0.187 0 01 0.228,0.275 l -1.558,2.216 l 2.055,1.443 Z"/>
	</g>
</svg>
