<svg xmlns="http://www.w3.org/2000/svg" viewBox="0 0 36 36">
	<path d="M 9.396,20.496 c -1.583,1.396 3.114,-8.776 4.476,-9.392 c 1.384,-0.626 4.085,-0.488 5.078,0.439 s 3.071,1.78 5.454,2.508 s 4.299,0.759 5.579,2.194 c 1.871,2.098 2.456,4.052 2.522,5.575 c 0.066,1.522 -0.861,3.575 -0.861,3.575 c -0.066,0.927 -1.059,3.774 -1.324,4.767 s -0.175,2.278 -0.043,3.139 c 0.133,0.861 -0.993,1.253 -2.979,1.324 c -1.854,0.066 -2.45,-0.132 -2.251,-0.927 s -0.222,-4.86 -0.288,-5.655 c -0.066,-0.794 -2.383,-0.794 -3.112,-1.059 s -4.436,-1.258 -4.635,-0.927 s -0.464,3.509 -0.53,4.701 c -0.067,1.192 0.288,1.55 0.089,2.742 s -2.384,1.258 -3.973,1.192 s -1.92,-0.397 -1.523,-1.589 s 0.374,-2.609 0.374,-4.463 s -2.053,-8.144 -2.053,-8.144 Z"  fill="#662113"/>
	<path d="M 35.627,28.281 c 0.53,1.523 -0.132,2.119 -1.327,0.335 c -0.526,-0.789 -0.596,-2.185 -0.596,-2.185 c -0.066,0.927 -1.059,3.774 -1.324,4.767 s -0.175,2.278 -0.043,3.139 c 0.133,0.861 -0.993,1.253 -2.979,1.324 c -1.854,0.066 -2.45,-0.132 -2.251,-0.927 s -0.133,-4.328 -0.199,-5.123 c -0.012,-0.147 -0.108,-0.284 -0.237,-0.417 c -0.207,0.24 -0.387,0.393 -0.422,0.405 l -0.522,-0.995 c -0.057,-0.026 -0.115,-0.05 -0.175,-0.075 l -0.481,1.388 l -0.564,-1.634 l -0.601,0.935 l -0.693,-1.069 l -0.562,1.64 l -0.449,-2.156 l -0.692,0.957 l -0.498,-0.897 l -0.529,1.925 l -0.479,-2.204 l -0.02,-0.001 l -0.645,0.751 l -0.403,-0.587 c -0.192,0.416 -0.327,3.048 -0.392,4.216 c -0.067,1.192 0.288,1.55 0.089,2.742 s -2.384,1.258 -3.973,1.192 s -1.92,-0.397 -1.523,-1.589 s 0.374,-2.609 0.374,-4.463 c 0,-1.36 -1.103,-5.101 -1.691,-7.001 c -0.958,1.077 -1.919,2.612 -2.309,3.965 c -0.243,0.771 0.24,2.181 0.24,2.181 l -0.799,-0.285 v1.598 l -0.799,-0.4 s -0.354,1.086 -0.799,1.769 l -0.201,-0.67 c -0.332,0.331 -0.698,0.666 -1.14,1.01 c -2.333,1.813 -4.138,2.284 -4.762,2.374 s -1.666,-2.465 -0.733,-3.012 s 2.684,-1.35 3.715,-3.193 c 1.015,-1.813 1.151,-4.726 0.987,-6.98 l -0.777,0.481 c 0.223,-0.862 0.52,-2.022 0.52,-2.022 c -0.159,0.266 -1.09,0.481 -1.09,0.481 c 0.318,-0.372 0.883,-1.674 0.883,-1.674 l -0.541,-0.609 s 1.059,-0.877 1.09,-1.688 c 0.007,-0.189 0.035,-0.335 0.074,-0.455 c 0.052,-0.334 0.114,-0.671 0.187,-1.012 l -0.543,0.055 l 0.704,-1.654 l -0.971,0.258 c 0.206,-0.462 1.485,-1.592 1.485,-1.592 l -0.772,-0.012 c 0.205,-0.565 1.131,-1.22 1.131,-1.22 l -1.042,0.031 c 0.359,-0.462 2.02,-1.188 2.02,-1.188 l -0.802,-0.059 c 0.206,-0.247 0.813,-0.717 1.641,-1.093 c 0.09,-0.069 0.191,-0.131 0.304,-0.184 c 0.965,-0.451 1.335,-1.475 2.53,-1.674 c 0.768,-0.127 1.569,0.12 2.326,0.539 c 0.584,0.323 1.141,0.748 1.638,1.183 c 0.443,0.388 0.936,0.574 1.425,0.68 c 0.05,-0.005 0.096,-0.013 0.147,-0.016 c 0.684,-0.035 1.536,-1.048 2.27,-1.061 l -0.582,0.999 s 2.136,-0.679 2.719,-0.602 l -0.995,0.859 s 1.357,-0.255 2.112,0.319 c -0.151,0.09 -1.139,0.287 -1.139,0.287 s 2.142,0.201 2.555,0.759 l -1.32,0.401 l 0.026,0.023 c 0.229,0.006 0.839,0.031 1.217,0.16 c 0.471,0.16 1.628,0.619 1.628,0.619 l -1.289,0.444 c 0.86,0.597 1.864,1.162 2.984,1.504 c 1.373,0.419 2.556,0.912 3.576,1.515 c 0.94,0.285 1.747,0.251 2.149,0.532 l -0.318,0.504 s 1.47,0.14 2.03,0.98 l -1.283,0.318 s 1.574,0.834 1.854,1.338 l -1.126,0.118 s 0.965,0.964 1.069,2.108 l -0.619,-0.435 c 0.187,0.995 0.234,1.915 0.263,2.576 c 0.066,1.523 0.529,3.906 1.059,5.429 Z"  fill="#C1694F"/>
	<path d="M 9.808,21.064 c 0.21,-0.483 2.405,0.741 2.089,1.28 c -0.338,0.573 -0.835,1.548 -2.118,2.947 c -1.703,1.857 -4.102,1.988 -6.011,1.73 s -3.402,-1.921 -3.59,-3.465 c -0.223,-1.839 0.293,-3.33 1.777,-4.256 c 0.537,-0.335 0.979,-0.133 0.567,0.31 c -0.994,1.068 -1.208,2.69 -0.46,4.254 c 0.707,1.477 3.06,1.544 4.917,0.904 c 1.524,-0.525 2.829,-3.704 2.829,-3.704 Z"  fill="#DA9E82"/>
	<path d="M 9.808,21.064 c 0.21,-0.483 2.405,0.741 2.088,1.28 c -0.337,0.573 -0.926,1.538 -2.209,2.937 c -1.703,1.857 -3.913,1.832 -5.822,1.574 s -3.317,-1.783 -3.505,-3.327 c -0.224,-1.838 0.178,-2.94 1.455,-3.95 c 0.497,-0.393 0.709,-0.294 0.297,0.149 c -0.994,1.068 -1.016,2.713 -0.267,4.277 c 0.707,1.477 3.133,1.62 4.99,0.98 c 1.523,-0.526 2.973,-3.92 2.973,-3.92 Z"  fill="#FFE9B7"/>
	<circle fill="#292F33" cx="11" cy="14" r="1"/>
	<path d="M 15.552,10.936 s 1.573,1.231 2.327,1.711 c 0.753,0.479 0.89,2.053 0.274,2.874 c -0.616,0.822 -1.437,1.985 -2.053,3.148 c -0.615,1.163 -1.3,1.369 -2.463,1.095 c -1.164,-0.274 -0.753,-1.232 -0.753,-1.232 c 0.205,0.479 1.231,0.958 1.984,0.342 s 1.027,-2.19 1.848,-3.148 s 0.684,-2.121 0.205,-2.532 c -0.479,-0.41 -1.301,-1.642 -1.369,-2.258 Z"  fill="#662113"/>
	
	<path d="M 30.355,17.471 c 0.175,0.738 0.01,1.891 -0.319,1.115 s -0.49,-2.059 -0.49,-2.059 s 0.634,0.205 0.809,0.944 Z M 32.046,18.67 s 0.466,0.031 0.645,0.853 c 0.18,0.822 0.096,2.072 -0.215,1.196 s -0.43,-2.049 -0.43,-2.049 Z M 32.627,23.092 s 0.552,0.316 0.626,1.251 s -0.183,1.773 -0.398,0.76 c -0.215,-1.014 -0.228,-2.011 -0.228,-2.011 Z M 29.313,25.071 s 0.642,0.569 0.702,1.33 s -0.272,1.615 -0.475,0.792 s -0.227,-2.122 -0.227,-2.122 Z M 31.284,27.484 s 0.516,0.685 0.425,1.443 s -0.586,1.528 -0.622,0.682 c -0.036,-0.847 0.197,-2.125 0.197,-2.125 Z M 28.161,18.491 s 0.642,0.247 0.716,1.182 s -0.278,1.93 -0.493,0.917 c -0.214,-1.013 -0.223,-2.099 -0.223,-2.099 Z M 27.79,22.823 s 0.418,0.011 0.361,0.947 c -0.056,0.936 -0.544,1.873 -0.616,0.84 c -0.072,-1.034 0.255,-1.787 0.255,-1.787 Z M 30.738,21.601 s 0.464,0.219 0.674,1.133 c 0.209,0.914 -0.009,1.683 -0.369,0.712 s -0.305,-1.845 -0.305,-1.845 Z M 26.419,15.588 s 0.442,-0.235 0.604,0.685 s -0.002,2.037 -0.336,1.057 s -0.268,-1.742 -0.268,-1.742 Z M 21.755,12.896 s 0.713,-0.088 1.102,0.59 c 0.39,0.677 0.545,1.622 -0.012,0.955 s -1.09,-1.545 -1.09,-1.545 Z M 22.891,16.124 s 0.527,0.094 0.662,0.863 c 0.136,0.769 -0.041,1.711 -0.337,0.894 s -0.325,-1.757 -0.325,-1.757 Z M 22.019,20.207 s 0.554,0.639 0.558,1.42 s -0.41,1.211 -0.564,0.356 s 0.006,-1.776 0.006,-1.776 Z M 25.302,25.191 s 0.579,0.073 0.582,0.854 s -0.33,1.679 -0.484,0.824 c -0.154,-0.856 -0.098,-1.678 -0.098,-1.678 Z M 20.024,23.416 s 0.353,0.64 0.276,1.417 s -0.44,1.133 -0.505,0.267 s 0.229,-1.684 0.229,-1.684 Z M 18.55,24.935 s 0.353,0.639 0.276,1.417 c -0.077,0.777 -0.44,1.133 -0.505,0.267 s 0.229,-1.684 0.229,-1.684 Z M 23.731,25.783 s 0.353,0.64 0.276,1.417 s -0.44,1.133 -0.505,0.267 s 0.229,-1.684 0.229,-1.684 Z M 17.668,20.15 s 0.412,0.907 0.335,1.685 c -0.077,0.777 -0.41,1.252 -0.475,0.386 c -0.065,-0.867 0.14,-2.071 0.14,-2.071 Z M 13.987,24.486 c -0.132,-0.771 0.239,-1.081 0.239,-1.081 s 0.257,0.963 0.283,1.826 s -0.39,0.025 -0.522,-0.745 Z M 15.7,27.156 c -0.132,-0.77 0.199,-1.062 0.199,-1.062 s 0.297,0.944 0.323,1.807 s -0.39,0.025 -0.522,-0.745 Z M 14.405,30.327 c -0.132,-0.77 0.249,-0.928 0.249,-0.928 s 0.247,0.81 0.273,1.673 s -0.39,0.025 -0.522,-0.745 Z M 19.739,11.529 s 0.829,0.369 1.099,1.101 c 0.27,0.733 0.263,1.691 -0.173,0.94 s -0.926,-2.041 -0.926,-2.041 Z M 19.676,17.936 s 0.679,0.602 0.717,1.382 s -0.256,1.692 -0.447,0.844 c -0.19,-0.848 -0.27,-2.226 -0.27,-2.226 Z M 25.102,18.708 s 0.751,0.51 0.886,1.28 c 0.136,0.769 -0.041,1.711 -0.337,0.894 s -0.549,-2.174 -0.549,-2.174 Z M 23.682,21.254 s 0.516,0.298 0.548,1.078 c 0.033,0.781 -0.266,1.691 -0.452,0.842 s -0.096,-1.92 -0.096,-1.92 Z M 7.259,14.74 s -0.402,1.027 -0.715,1.563 c -0.312,0.536 -0.491,0 -0.223,-0.536 s 0.938,-1.027 0.938,-1.027 Z M 8.42,10.318 s -0.536,0.625 -0.983,0.982 c -0.447,0.358 -0.536,-0.134 -0.134,-0.491 s 1.117,-0.491 1.117,-0.491 Z M 6.857,13.087 c -0.402,0.447 -0.358,-0.179 -0.089,-0.491 c 0,0 0.58,-0.759 1.295,-0.938 s -0.804,0.982 -1.206,1.429 Z M 9.626,8.933 c -0.536,0.402 -0.402,-0.312 0.134,-0.491 c 0.758,-0.252 1.206,-0.313 1.206,-0.313 s -0.804,0.402 -1.34,0.804 Z M 7.214,17.017 s -0.491,1.028 -0.804,1.652 c -0.313,0.626 -0.491,0.179 -0.134,-0.625 s 0.938,-1.027 0.938,-1.027 Z M 7.75,19.34 s -0.447,1.027 -0.67,1.652 c -0.223,0.626 -0.357,0 -0.134,-0.625 s 0.804,-1.027 0.804,-1.027 Z M 9.447,17.687 s -0.089,1.028 -0.134,1.652 c -0.045,0.626 -0.358,0.179 -0.313,-0.357 s 0.447,-1.295 0.447,-1.295 Z M 6.991,22.377 s -0.536,0.893 -0.849,1.474 c -0.312,0.581 -0.446,-0.179 -0.089,-0.67 s 0.938,-0.804 0.938,-0.804 Z M 7.169,29.568 c 0.045,-0.67 0.358,-1.698 0.358,-1.698 s 0.178,0.67 0.178,1.251 s -0.581,1.117 -0.536,0.447 Z M 4.445,29.568 s -0.893,0.804 -1.474,1.072 s 0,-0.58 0.491,-0.759 c 0.492,-0.179 0.983,-0.313 0.983,-0.313 Z M 4.132,31.89 s -0.044,0.536 -0.76,0.894 c -0.714,0.357 -0.938,-0.134 -0.357,-0.313 s 1.117,-0.581 1.117,-0.581 Z M 14.449,8.576 c -0.804,-0.536 -1.028,-0.848 -1.028,-0.848 s 1.251,0.178 1.519,0.625 c 0.268,0.446 0.313,0.759 -0.491,0.223 Z M 13.641,11.009 c -0.466,-0.549 -1.094,-1.477 -1.094,-1.477 s 0.637,0.245 1.122,0.654 s 0.438,1.372 -0.028,0.823 Z M 12.975,16.973 c -0.219,-0.686 -0.419,-1.373 -0.419,-1.373 s 0.396,0.273 0.687,0.837 s -0.048,1.222 -0.268,0.536 Z M 14.539,14.427 c -0.22,-0.686 -0.419,-1.373 -0.419,-1.373 s 0.396,0.273 0.687,0.837 s -0.048,1.222 -0.268,0.536 Z M 27.803,15.901 c -0.219,-0.686 -0.419,-1.373 -0.419,-1.373 s 0.396,0.273 0.687,0.837 s -0.048,1.222 -0.268,0.536 Z M 28.429,31.311 c -0.102,-0.713 -0.183,-1.424 -0.183,-1.424 s 0.344,0.335 0.537,0.94 s -0.252,1.197 -0.354,0.484 Z M 17.269,32.571 c 0.08,-0.716 0.18,-1.424 0.18,-1.424 s 0.25,0.411 0.284,1.045 c 0.035,0.634 -0.545,1.095 -0.464,0.379 Z M 11.055,10.05 s -0.804,0.804 -1.072,1.25 c -0.268,0.447 -0.447,-0.089 -0.179,-0.491 s 1.251,-0.759 1.251,-0.759 Z"  fill="#66211399"/>
	</svg>
