<svg xmlns="http://www.w3.org/2000/svg" viewBox="0 0 36 36">
	<g fill="#662113">
		<path d="M 2,29 h32 l 1,6 h-8 s -1,-2 -3,-2 h-12 c -2,0 -3,2 -3,2 h-8 l 1,-6 Z"/> <!-- joined halfs -->
		<path d="M 6,20 l 4,9 l -8,-1 c 4,0 4,-7 4,-8 Z"/>
		<path d="M 30,20 c 0,1 0,8 4,8 l -8,1 l 4,-9 Z"/>
		<circle cx="18" cy="20" r="12"/>
	</g>
	<rect x="0" y="34" width="10" height="2" rx="1"  fill="#A0041E"/>
	<rect x="26" y="34" width="10" height="2" rx="1"  fill="#A0041E"/>
	<rect x="1" y="28" width="34" height="2" rx="1"  fill="#A0041E"/>
	<circle cx="18" cy="20" r="9"  fill="#FFAC33"/>
	<circle cx="18" cy="20" r="8"  fill="#F5F8FA"/>
	
	<path d="M 18,20 s -0.119,1 -1.5,1 s -3.5,-1 -3.5,-1 s 2.119,-1 3.5,-1 s 1.5,1 1.5,1 Z"  fill="#C1694F"/>
	<path d="M 19,16.5 a 1,3.5 0 01 -2,0 c 0,-1.934 1,-3.5 1,-3.5 s 1,1.567 1,3.5 Z"  fill="#C1694F" /> <!-- modified ellipse -->
	<circle fill="#662113" cx="18" cy="20" r=".586"/>
</svg>
