<svg xmlns="http://www.w3.org/2000/svg" viewBox="0 0 36 36">
	<g transform="translate(-2.02 36) scale(1.03) translate(0 -36)">
		<g>
			<path fill="#DD2E44" d="M 13.4648,27.0918 l 10.823,0.949 c 0.275,0.025 0.519,-0.18 0.542,-0.454 c 0.025,-0.274 -0.18,-0.517 -0.454,-0.542 l -10.824,-0.949 c -0.274,-0.025 -0.518,0.181 -0.542,0.454 c -0.024,0.274 0.181,0.518 0.455,0.542 Z"/>
			<path fill="#DD2E44" d="M 24.2881,28.041 v0 c -0.273,-0.023 -0.479,-0.268 -0.454,-0.541 l 0.435,-4.981 c 0.025,-0.274 0.268,-0.479 0.542,-0.455 s 0.479,0.268 0.455,0.541 l -0.436,4.982 c -0.023,0.273 -0.268,0.478 -0.542,0.454 Z"/>
			<path fill="#DD2E44" d="M 13.5498,20.4609 v0 c -0.274,-0.023 -0.518,0.181 -0.542,0.455 l -1.015,11.597 c -0.024,0.273 0.181,0.517 0.454,0.542 c 0.274,0.023 0.518,-0.181 0.542,-0.455 l 1.016,-11.597 c 0.024,-0.274 -0.181,-0.518 -0.455,-0.542 Z"/>
		</g>
		<g>
			<path fill="#292F33" d="M 23.5234,20.5918 c 1.432,-0.205 2.834,-0.147 2.346,0.544 c -0.49,0.692 -1.576,1.905 -3.419,1.707 c -1.843,-0.197 0.185,-2.123 1.073,-2.251 Z"/>
			<path fill="#292F33" d="M 22.4502,22.8428 l -9.962,-0.871 c -0.996,-0.087 -0.996,-0.087 -0.909,-1.083 c 0.048,-0.548 0.536,-0.957 1.083,-0.909 l 9.963,0.871 c 0.548,0.048 0.956,0.536 0.908,1.084 c -0.087,0.996 -0.087,0.996 -1.083,0.908 Z"/>
		</g>
		<g>
			<path fill="#DD2E44" d="M 22.9639,23.1357 l -10.958,-0.958 c -0.274,-0.024 -0.479,-0.269 -0.455,-0.542 c 0.024,-0.274 0.268,-0.479 0.542,-0.454 l 10.958,0.958 c 0.273,0.024 0.478,0.267 0.454,0.542 c -0.023,0.273 -0.268,0.478 -0.541,0.454 Z"/>
		</g>
		<g>
			<path fill="#292F33" d="M 27.2773,9.4546 l -0.871,9.961 c -0.087,0.997 -0.087,0.997 -1.084,0.91 c -0.548,-0.048 -0.956,-0.536 -0.908,-1.083 l 0.871,-9.962 c 0.048,-0.549 0.535,-0.957 1.083,-0.909 c 0.997,0.086 0.997,0.086 0.909,1.083 Z"/>
		</g>
		<g>
			<path fill="#DD2E44" d="M 27.7139,8.9961 l -0.959,10.958 c -0.023,0.274 -0.268,0.479 -0.541,0.455 c -0.274,-0.024 -0.479,-0.267 -0.455,-0.542 l 0.959,-10.958 c 0.024,-0.274 0.267,-0.478 0.542,-0.455 c 0.273,0.024 0.478,0.268 0.454,0.542 Z"/>
		</g>
		<g>
			<path fill="#292F33" d="M 24.6201,18.5195 l -7.552,-0.661 c -0.756,-0.066 -0.756,-0.066 -0.69,-0.812 c 0.035,-0.41 0.405,-0.716 0.82,-0.68 l 7.553,0.661 c 0.415,0.036 0.725,0.402 0.689,0.812 c -0.064,0.745 -0.064,0.745 -0.82,0.68 Z"/>
		</g>
		<g>
			<path fill="#DD2E44" d="M 22.5527,22.0967 c 1.004,0.088 2.988,0.261 3.25,-2.728 c 0.262,-2.988 1.258,-2.901 0.996,0.087 c -0.262,2.99 -1.908,3.849 -4.333,3.637 c -1.993,-0.175 -1.905,-1.171 0.087,-0.996 Z"/>
			<path fill="#DD2E44" d="M 12.1035,21.1826 c 1.993,0.166 2.392,1.218 0.4,1.038 c -0.883,-0.079 -0.962,0.297 -1.163,1.064 c -0.189,0.721 -0.456,1.803 -0.858,3.317 c -0.295,1.112 -1.221,0.713 -0.976,-0.257 c 0.41,-1.631 0.798,-3.05 1.052,-3.953 c 0.258,-0.922 0.501,-1.297 1.545,-1.209 Z"/>
		</g>
		<g>
			<path fill="#66757F" d="M 25.7988,28.25 c -0.414,0.718 -1.331,0.963 -2.049,0.549 s -0.963,-1.331 -0.549,-2.049 s 1.331,-0.963 2.049,-0.549 s 0.963,1.331 0.549,2.049 Z"/>
			<path fill="#66757F" d="M 31.2451,30.8174 l -6.062,-3.5 l 3.499,-6.063 l -0.865,-0.5 l -3.5,6.063 l -6.062,-3.5 l -0.5,0.865 l 6.062,3.5 l -3.5,6.063 l 0.865,0.5 l 3.501,-6.063 l 6.062,3.5 l 0.5,-0.865 Z"/>
			<path fill="#66757F" d="M 26.9238,34.6152 l -1.812,-6.762 l 6.762,-1.811 l -0.259,-0.966 l -6.761,1.811 l -1.812,-6.761 l -0.966,0.259 l 1.812,6.761 l -6.762,1.812 l 0.259,0.966 l 6.762,-1.812 l 1.811,6.762 l 0.966,-0.259 Z"/>
			
			<circle r="7.5" cx="24.5" cy="27.5" stroke-width="2" fill="none" stroke="#292F33"/>
			<circle r="7" cx="24.5" cy="27.5" stroke-width="1" fill="none" stroke="#66757F"/>
		</g>
		<g>
			<path fill="#66757F" d="M 15.3481,33.5674 l -2.165,-1.25 l 1.25,-2.165 l -0.866,-0.5 l -1.25,2.165 l -2.165,-1.25 l -0.5,0.865 l 2.165,1.25 l -1.25,2.165 l 0.866,0.5 l 1.25,-2.165 l 2.165,1.25 l 0.5,-0.865 Z"/>
		</g>
		<g>
			<path fill="#292F33" d="M 12.5,29 c -1.933,0 -3.5,1.567 -3.5,3.5 s 1.567,3.5 3.5,3.5 s 3.5,-1.567 3.5,-3.5 s -1.567,-3.5 -3.5,-3.5 ZM 12.5,35 c -1.381,0 -2.5,-1.119 -2.5,-2.5 s 1.119,-2.5 2.5,-2.5 s 2.5,1.119 2.5,2.5 s -1.119,2.5 -2.5,2.5 Z"/>
		</g>
		<g>
			<path fill="#DD2E44" d="M 10.2876,25.3633 v0 c -0.266,-0.071 -0.541,0.088 -0.612,0.354 l -1.553,5.795 c -0.071,0.266 0.088,0.541 0.353,0.613 c 0.266,0.071 0.541,-0.088 0.613,-0.354 l 1.553,-5.796 c 0.071,-0.265 -0.088,-0.541 -0.354,-0.612 Z"/>
		</g>
		<g>
			<path fill="#66757F" d="M 8.4761,32.125 l -3.864,-1.035 c -0.265,-0.071 -0.425,-0.348 -0.353,-0.613 c 0.071,-0.266 0.346,-0.424 0.612,-0.354 l 3.864,1.036 c 0.265,0.07 0.425,0.347 0.353,0.612 c -0.071,0.266 -0.346,0.425 -0.612,0.354 Z"/>
		</g>
		<g>
			<path fill="#DD2E44" d="M 30.1025,9.9692 l -2.954,-0.521 c -0.271,-0.048 -0.453,-0.308 -0.405,-0.579 c 0.047,-0.271 0.308,-0.454 0.579,-0.406 l 2.954,0.521 c 0.271,0.048 0.453,0.309 0.406,0.579 c -0.048,0.271 -0.309,0.454 -0.58,0.406 Z"/>
		</g>
		<g>
			<path fill="#292F33" d="M 31.0879,10.1431 l -2.615,-0.468 c -0.271,-0.048 -0.26,-0.274 -0.212,-0.545 c 0.047,-0.271 0.115,-0.487 0.386,-0.44 l 2.615,0.468 c 0.27,0.048 0.453,0.308 0.405,0.579 s -0.308,0.453 -0.579,0.406 Z"/>
		</g>
	</g>
</svg>
