<svg xmlns="http://www.w3.org/2000/svg" viewBox="0 0 36 36">
	this is a lot of work.. nnh tired
	<g transform="translate(-2.02 36) scale(1.03) translate(0 -36)">
		
		<g transform="rotate(5)">
			<g transform="translate(0.35569 0.79985)">
				<path fill="#292F33" d="M 24.87289,17.66339 c 1.40868,-0.32902 2.8104,-0.39344 2.38449,0.33661 s -1.40398,2.03596 -3.25738,2 s 0,-2.1317 0.87289,-2.33661 Z"/>
				<!--<path d="M 24,20 c 3,0 3.5,-2.5 3.5,-2.5 c -5,-0.5 -3.5,2.5 -3.5,2.5 Z" fill="#292F33"/> redrawn (this is just a patch to hide the gap between seat cushions)-->
				<path fill="#292F33" d="M 24,20 h-10 c -1,0 -1,0 -1,-1 a 1,1 0 01 1,-1 h10 a 1,1 0 01 1,1 c 0,1 0,1 -1,1 Z"/>
			</g>
			<g transform="translate(0.99783 0.04124)">
				<path fill="#292F33" d="M 27,7 v10 c 0,1 0,1 -1,1 a 1,1 0 01 -1,-1 v-10 a 1,1 0 01 1,-1 c 1,0 1,0 1,1 Z"/>
			</g>
			
			<g stroke-width="1" stroke-linecap="round" fill="none" stroke="#DD2E44">
				<path d="M 0,-5 v5 h-10.86515" transform="translate(26.63985 25.31688)"/>
				<path d=" M 15.2812,20.70249 V 31.34387"/>
				<path d="M 13,20 h 10.5 c 1,0 3.5,0 3.5,-3.5 v-10.5" transform="translate(0.89271,0.546565)"/>
			</g>
		</g>
		handle:
		<g transform="rotate(10) translate(0.37687 0.59033)">
			<path d="M 31,3.5 L 28,3.5" stroke-width="1" stroke-linecap="round" fill="none" stroke="#DD2E44"/>
			<path fill="#292F33" d="M 32,4 h-2.65632 c -0.27615,0 -0.30381,-0.22385 -0.30381,-0.5 s 0.02766,-0.5 0.30381,-0.5 h2.65632 a 0.5,0.5 0 01 0.5,0.5 a 0.5,0.5 0 01 -0.5,0.5 Z"/>
		</g>
		armrest: (ugh scaled)
		<g>
			<path fill="#292F33" d="M 24.6201,18.5195 l -7.552,-0.661 c -0.756,-0.066 -0.756,-0.066 -0.69,-0.812 c 0.035,-0.41 0.405,-0.716 0.82,-0.68 l 7.553,0.661 c 0.415,0.036 0.725,0.402 0.689,0.812 c -0.064,0.745 -0.064,0.745 -0.82,0.68 Z"/>
		</g>
		footrest:
		<g>
			<path fill="#DD2E44" d="M 12.1035,21.1826 c -1.044,-0.088 -1.287,0.287 -1.545,1.209 s 0.581,1.66 0.782,0.893 s 0.28,-1.143 1.163,-1.064 c 1.992,0.18 1.593,-0.872 -0.4,-1.038 Z"/>
			<g transform="rotate(15) translate(0.00176,0.33643)">
				<path d="M 16.5,28 V 18.5" stroke-width="1" stroke-linecap="round" fill="none" stroke="#DD2E44"/>
				<path d="M 16.5,28 H 12.5" stroke-width="1" stroke-linecap="round" fill="none" stroke="#66757F"/>
			</g>
		</g>
		
		large wheel
		<g transform="translate(24.5 27.5) rotate(-15)">
			<g fill="none" stroke="#66757F" stroke-width="1">
				<path d="M -7.5,0 h 15"/>
				<path d="M -7.5,0 h 15" transform="rotate(90)"/>
				<path d="M -7.5,0 h 15" transform="rotate(45)"/>
				<path d="M -7.5,0 h 15" transform="rotate(-45)"/>
				<circle r="7.25" stroke-width="1.5"/>
			</g>
			<circle r="1.5" fill="#66757F"/>
			<circle r="8" stroke-width="1" fill="none" stroke="#292F33"/>
		</g>
		small wheel
		<g transform="translate(12.5 32.5) rotate(30)">
			<g fill="none" stroke="#66757F" stroke-width="1">
				<path d="M -3,0 h 6"/>
				<path d="M -3,0 h 6" transform="rotate(90)"/>
			</g>
			<circle r="3" stroke-width="1" fill="none" stroke="#292F33"/>
		</g>
	</g>
</svg>
