<svg xmlns="http://www.w3.org/2000/svg" viewBox="0 0 36 36">
	5 deg:
	<g>
		<path fill="#DD2E44" d="M 11.8301,26.8223 l 11.18,0.98 c 0.274,0.025 0.517,-0.18 0.542,-0.454 l 0.003,-0.03 c 0.023,-0.274 -0.181,-0.517 -0.455,-0.542 l -11.18,-0.98 c -0.274,-0.025 -0.518,0.18 -0.542,0.454 l -0.003,0.03 c -0.024,0.273 0.181,0.518 0.455,0.542 Z"/>
		<path fill="#DD2E44" d="M 23.0098,27.8027 l -0.03,-0.003 c -0.274,-0.023 -0.478,-0.268 -0.454,-0.541 l 0.451,-5.161 c 0.024,-0.274 0.268,-0.479 0.542,-0.455 l 0.03,0.003 c 0.273,0.023 0.479,0.267 0.454,0.542 l -0.451,5.161 c -0.024,0.273 -0.268,0.478 -0.542,0.454 Z"/>
		<path fill="#DD2E44" d="M 11.9478,19.9941 l -0.03,-0.003 c -0.274,-0.023 -0.518,0.181 -0.542,0.455 l -1.048,11.977 c -0.025,0.273 0.18,0.517 0.454,0.541 l 0.03,0.003 c 0.274,0.024 0.518,-0.181 0.542,-0.454 l 1.048,-11.977 c 0.025,-0.274 -0.18,-0.518 -0.454,-0.542 Z"/>
		<path fill="#292F33" d="M 22.207,20.1279 c 1.475,-0.212 2.919,-0.152 2.416,0.561 c -0.504,0.712 -1.623,1.961 -3.521,1.757 c -1.9,-0.204 0.191,-2.187 1.105,-2.318 Z"/>
		<path fill="#292F33" d="M 21.1016,22.4463 l -10.262,-0.897 c -1.027,-0.09 -1.027,-0.09 -0.937,-1.117 c 0.05,-0.564 0.552,-0.985 1.116,-0.936 l 10.263,0.898 c 0.564,0.049 0.985,0.552 0.936,1.115 c -0.09,1.027 -0.09,1.027 -1.116,0.937 Z"/>
		<path fill="#DD2E44" d="M 21.6455,22.75 l -11.319,-0.99 c -0.274,-0.025 -0.478,-0.268 -0.454,-0.542 l 0.002,-0.03 c 0.024,-0.274 0.268,-0.479 0.542,-0.455 l 11.319,0.991 c 0.273,0.023 0.478,0.267 0.454,0.542 l -0.003,0.029 c -0.023,0.274 -0.268,0.478 -0.541,0.455 Z"/>
		<path fill="#292F33" d="M 26.0742,8.6543 l -0.897,10.262 c -0.09,1.026 -0.09,1.026 -1.117,0.936 c -0.564,-0.049 -0.986,-0.551 -0.936,-1.115 l 0.897,-10.263 c 0.05,-0.564 0.552,-0.986 1.116,-0.936 c 1.027,0.09 1.027,0.09 0.937,1.116 Z"/>
		<path fill="#DD2E44" d="M 26.5254,8.1675 l -0.99,11.319 c -0.025,0.273 -0.268,0.477 -0.542,0.454 l -0.03,-0.003 c -0.274,-0.023 -0.479,-0.268 -0.455,-0.541 l 0.991,-11.319 c 0.023,-0.274 0.267,-0.478 0.541,-0.454 l 0.03,0.002 c 0.274,0.024 0.478,0.268 0.455,0.542 Z"/>
		<path fill="#292F33" d="M 23.3369,17.9922 l -7.78,-0.681 c -0.778,-0.068 -0.778,-0.068 -0.711,-0.836 c 0.037,-0.422 0.417,-0.737 0.845,-0.7 l 7.781,0.68 c 0.427,0.038 0.747,0.414 0.71,0.837 c -0.067,0.768 -0.067,0.768 -0.845,0.7 Z"/>
		<path fill="#DD2E44" d="M 21.207,21.6777 c 1.034,0.09 3.078,0.269 3.348,-2.81 c 0.269,-3.079 1.296,-2.989 1.026,0.09 c -0.27,3.078 -1.966,3.964 -4.464,3.745 c -2.053,-0.179 -1.963,-1.205 0.09,-1.025 Z"/>
		<path fill="#DD2E44" d="M 10.4429,20.7354 c 2.053,0.172 2.464,1.255 0.412,1.07 c -0.91,-0.082 -0.991,0.306 -1.198,1.096 c -0.195,0.743 -0.469,1.857 -0.883,3.417 c -0.305,1.146 -1.259,0.733 -1.007,-0.265 c 0.424,-1.679 0.822,-3.141 1.084,-4.073 c 0.266,-0.948 0.516,-1.335 1.592,-1.245 Z"/>
	</g>
	
	15 deg (large wheel)
	<g>
		<path fill="#66757F" d="M 24.5508,28.0166 c -0.427,0.739 -1.371,0.992 -2.11,0.565 c -0.74,-0.426 -0.993,-1.372 -0.566,-2.11 c 0.427,-0.739 1.371,-0.993 2.111,-0.566 c 0.739,0.426 0.992,1.372 0.565,2.111 Z"/>
		<path fill="#66757F" d="M 30.1611,30.6611 l -6.245,-3.605 l 3.605,-6.246 l -0.891,-0.515 l -3.606,6.245 l -6.245,-3.606 l -0.515,0.893 l 6.245,3.605 l -3.606,6.245 l 0.893,0.515 l 3.605,-6.245 l 6.245,3.606 l 0.515,-0.892 Z"/>
		<path fill="#66757F" d="M 25.71,34.5732 l -1.866,-6.965 l 6.965,-1.867 l -0.267,-0.994 l -6.965,1.866 l -1.866,-6.966 l -0.995,0.267 l 1.866,6.966 l -6.965,1.866 l 0.266,0.995 l 6.966,-1.866 l 1.866,6.965 l 0.995,-0.267 Z"/>
		<path fill="#292F33" d="M 23.2129,18.4875 c -4.836,0 -8.756,3.921 -8.756,8.757 s 3.92,8.756 8.756,8.756 s 8.756,-3.92 8.756,-8.756 s -3.92,-8.757 -8.756,-8.757 ZM 23.2129,33.9395 c -3.698,0 -6.696,-2.998 -6.696,-6.695 c 0,-3.699 2.998,-6.697 6.696,-6.697 s 6.696,2.998 6.696,6.697 c 0,3.697 -2.998,6.695 -6.696,6.695 Z"/>
		<path fill="#66757F" d="M 23.2129,19.5175 c -4.267,0 -7.726,3.459 -7.726,7.727 c 0,4.266 3.459,7.725 7.726,7.725 s 7.726,-3.459 7.726,-7.725 c 0,-4.268 -3.459,-7.727 -7.726,-7.727 ZM 23.2129,33.9395 c -3.698,0 -6.696,-2.998 -6.696,-6.695 c 0,-3.699 2.998,-6.697 6.696,-6.697 s 6.696,2.998 6.696,6.697 c 0,3.697 -2.998,6.695 -6.696,6.695 Z"/>
	</g>
	30 deg (small wheel)
	<g>
		<path fill="#66757F" d="M 13.7852,33.4941 l -2.23,-1.288 l 1.287,-2.231 l -0.892,-0.514 l -1.288,2.229 l -2.23,-1.287 l -0.515,0.892 l 2.23,1.288 l -1.287,2.23 l 0.892,0.515 l 1.287,-2.23 l 2.231,1.288 l 0.515,-0.892 Z"/>
		<path fill="#292F33" d="M 10.8511,28.7887 c -1.991,0 -3.605,1.615 -3.605,3.606 s 1.614,3.605 3.605,3.605 s 3.605,-1.614 3.605,-3.605 s -1.614,-3.606 -3.605,-3.606 ZM 10.8511,34.9697 c -1.422,0 -2.575,-1.153 -2.575,-2.575 c 0,-1.423 1.153,-2.575 2.575,-2.575 s 2.576,1.152 2.576,2.575 c 0,1.422 -1.154,2.575 -2.576,2.575 Z"/>
	</g>
	15 deg:
	<g>
		<path fill="#DD2E44" d="M 8.5869,25.0469 l -0.029,-0.008 c -0.266,-0.071 -0.541,0.088 -0.613,0.354 l -1.607,5.999 c -0.071,0.265 0.088,0.541 0.353,0.612 l 0.029,0.008 c 0.266,0.071 0.542,-0.088 0.613,-0.354 l 1.608,-5.999 c 0.071,-0.265 -0.088,-0.542 -0.354,-0.612 Z"/>
		<path fill="#66757F" d="M 6.7202,32.0117 l -4.009,-1.074 c -0.266,-0.072 -0.425,-0.347 -0.354,-0.613 l 0.008,-0.029 c 0.071,-0.265 0.347,-0.425 0.612,-0.353 l 4.01,1.074 c 0.265,0.071 0.424,0.347 0.354,0.612 l -0.008,0.029 c -0.071,0.266 -0.347,0.425 -0.613,0.354 Z"/>
	</g>
	10 deg:
	<g>
		<path fill="#DD2E44" d="M 28.999,9.1875 l -3.072,-0.542 c -0.272,-0.048 -0.454,-0.309 -0.407,-0.579 l 0.006,-0.03 c 0.048,-0.271 0.308,-0.453 0.579,-0.406 l 3.074,0.542 c 0.27,0.048 0.453,0.309 0.405,0.579 l -0.005,0.03 c -0.048,0.271 -0.309,0.453 -0.58,0.406 Z"/>
		<path fill="#292F33" d="M 29.999,9.3638 l -2.693,-0.482 c -0.28,-0.049 -0.269,-0.283 -0.219,-0.561 c 0.049,-0.279 0.118,-0.502 0.397,-0.453 l 2.694,0.481 c 0.279,0.05 0.467,0.318 0.418,0.597 s -0.318,0.467 -0.597,0.418 Z"/>
	</g>
</svg>
