<svg xmlns="http://www.w3.org/2000/svg" viewBox="0 0 36 36">
	<path d="M 19,35 a 1,1 0 01 -2,0 v-6.04 c -6.577,0.127 -9.841,1.453 -10.417,0.957 c -0.497,-0.428 2.979,-2.694 2.417,-3.229 c -0.562,-0.536 -9,-5.084 -9,-5.771 s 2.895,-0.5 3.125,-1 s -3.208,-4.584 -2.708,-5.5 c 0.5,-0.917 5.086,1.166 5.375,0.708 c 0.288,-0.458 -0.292,-3.5 0.208,-3.875 s 5.25,4.916 5.917,4.292 c 0.666,-0.625 -1.542,-10.5 -1.086,-10.699 c 0.456,-0.198 3.419,1.366 3.793,1.282 c 0.374,-0.083 2.694,-6.125 3.376,-6.125 s 3.002,6.042 3.376,6.125 c 0.374,0.084 3.337,-1.48 3.793,-1.282 c 0.456,0.199 -1.752,10.074 -1.086,10.699 c 0.667,0.624 5.417,-4.667 5.917,-4.292 s -0.08,3.417 0.208,3.875 c 0.289,0.458 4.875,-1.625 5.375,-0.708 c 0.5,0.916 -2.938,5 -2.708,5.5 s 3.125,0.313 3.125,1 s -8.438,5.235 -9,5.771 c -0.563,0.535 2.914,2.801 2.417,3.229 c -0.576,0.496 -3.84,-0.83 -10.417,-0.957 v6.04 Z" fill="#dd2e44"/>
</svg>
