<svg xmlns="http://www.w3.org/2000/svg" viewBox="0 0 36 36">
	<path d="M 36,20.917 c 0,0.687 -8.438,5.235 -9,5.771 c -0.562,0.535 2.913,2.801 2.417,3.229 c -0.576,0.496 -3.84,-0.83 -10.417,-0.957 v6.04 a 1,1 0 01 -2,0 v-6.04 c -6.578,0.127 -9.841,1.453 -10.417,0.957 c -0.497,-0.427 2.979,-2.694 2.417,-3.229 c -0.562,-0.536 -9,-5.083 -9,-5.771 s 2.894,-0.5 3.125,-1 s -3.208,-4.583 -2.708,-5.5 s 5.086,1.166 5.375,0.708 c 0.288,-0.458 -0.292,-3.5 0.208,-3.875 s 5.25,4.916 5.916,4.291 c 0.667,-0.625 -1.541,-10.5 -1.085,-10.698 s 3.419,1.365 3.793,1.282 s 2.694,-6.125 3.376,-6.125 s 3.002,6.042 3.376,6.126 c 0.374,0.083 3.337,-1.48 3.793,-1.282 s -1.752,10.073 -1.086,10.698 c 0.667,0.624 5.417,-4.667 5.917,-4.292 s -0.08,3.417 0.208,3.875 c 0.289,0.459 4.875,-1.624 5.375,-0.708 s -2.938,5 -2.708,5.5 s 3.125,0.312 3.125,1 Z"   fill="#DD2E44"/>
</svg>
