<svg xmlns="http://www.w3.org/2000/svg" viewBox="0 0 36 36">
	<rect width="36" height="36" rx="4" x="0" y="0" fill="#88C9F9"/>
	<path d="M 24,2 c 1,0 2,3 3,3 s 3,0 3,1 s -3,1 -3,2 s -1,1 -2,1 s -3,0 -3,-1 s 2,0 2,-1 s -1,-5 0,-5 Z M 21,10 c 0,-1 2,-1 2,-1 s 1,2 0,2 s -2,-1 -2,-1 Z M 23,12 s 1,0 1,1 s 1,1 2,1 s 0,3 -1,3 s -1,2 -1,3 s 0,3 -1,3 s -2,1 -2,2 s -1,1 -2,1 s -2,0 -2,1 s -1,2 -2,2 s -1,-1 -1,-2 s -3,0 -3,0 h-2 c -1,0 -1,1 -3,1 s 1,-1 1,-2 s 2,-1 3,-1 s 5,-1 5,-1 s 1,-2 2,-2 s 2,-1 2,-2 s 1,-2 2,-2 s 1,-2 1,-3 s 0,-3 1,-3 Z M 8,30 c 0,-1 0,-2 1,-2 h3 c 1,0 1,0 0,1 s -1,0 -2,0 s 0,2 -1,2 s -1,-1 -1,-1 Z M 4,33 c 0,-1 1,-1 1,-2 s -1,0 -1,-1 s 1,-1 2,-1 s 1,1 1,2 s -1,1 -1,2 s -1,1 -1,1 s -1,0 -1,-1 Z" fill="#3E721D"/>
</svg>
