<svg xmlns="http://www.w3.org/2000/svg" viewBox="0 0 36 36">
	todo:
	- finish paths
	- change this to use standard colors
	
	<defs>
		computed average
		<g id="maraca1">
			<!--<path fill="#E3CBB1" d="M 5.5,8 c 0,6 -4,6.81208 -4,10 c 0,5.625 0.5,9 0.5,12.375 c 0,4.5 -1,5.625 -1,5.625 h-2 s -1,-1.125 -1,-5.625 c 0,-3.375 0.5,-6.75 0.5,-12.375 c 0,-3.18792 -4,-4 -4,-10 c 0,-4.10784 2,-8 5.5,-8 s 5.5,3.89216 5.5,8 Z"/>-->
		<path fill="#E3CBB1" d=" M
5.50034,7.99933
 C 5.49995,13.99969 1.50008,14.81166
1.50009,18.00033
 C 1.50038,23.62523 2.00004,27.00074
1.99999,30.37518
 C 1.99965,34.87541 0.9997,36.00026
0.9997,36.00026
 L
-1.00021,36.00012
 C -1.00021,36.00012 -2.00065,34.87496
-2.00047,30.3752
 C -2.00035,26.99978 -1.50037,23.62523
-1.50028,18
 C -1.50009,14.81206 -5.50003,13.99973
-5.49981,7.99984
 C -5.4997,3.89179 -3.49921,-0.00051
0.00036,-0.00049
 C 3.49994,-0.00047 5.50006,3.89161
5.50034,7.99933
 Z"/>
		<path fill="#35A7BA" d=" M
1.67123,16.90486
 C 0.9115,16.0134 -0.91024,16.01232
-1.67044,16.90496
 C -2.12013,15.5039 -3.36903,14.47898
-4.31966,12.80164
 C -3.87281,10.37836 3.87305,10.37961
4.32027,12.80129
 C 3.36916,14.47913 2.12136,15.50371
1.67123,16.90486
Z"/>		
		<path fill="#166784" d=" M
1.49955,17.91372
 C 0.91342,17.20587 -0.91278,17.20439
-1.50012,17.91392
 L
-1.50731,17.9069
 A 3.54,3.54 -40 00
-1.67089,16.90454
 C -0.90992,16.01145 0.91206,16.01257
1.67025,16.9037
 C 1.57067,17.2144 1.51533,17.54672
1.50657,17.90653
 L
1.49955,17.91372
Z"/>
		<!-- <path fill="#166784" d=" M
1.50023,17.91544
 C 0.91316,17.20692 -0.91987,17.19955
-1.50676,17.90858
 C -1.51657,17.54957 -1.57106,17.21687
-1.67076,16.90602
 C -0.91055,16.01319 0.91094,16.01424
1.6708,16.9059
 A 3.632,3.632 20 00
1.50023,17.91544
 Z"/> -->
		<path fill="#EF7100" d=" M
-0.00028,-0.00019
 C 2.56749,-0.00073 4.32334,2.09713
5.07942,4.83577
 C 4.12026,3.62329 2.06127,2.91521
-0.00003,2.91518
 C -2.06085,2.91533 -4.12028,3.62375
-5.07958,4.83582
 C -4.32367,2.0974 -2.56835,-0.00003
-0.00028,-0.00019
 Z"/>
	</g>
	</defs>
	
	<g transform="translate(32.448 4.8224) rotate(40)">
		<use href="#maraca1"/>
		<path fill="#EF7100" d=" M
5.50075,7.99925
 C 5.50086,8.48477 5.46587,8.92534
5.41762,9.347
 L
3.89808,7.91724
 A 11.87,11.87 -40 00
2.00149,9.02045
 A 0.749,0.749 -40 01
1.05689,8.96194
 L
-0.56261,7.46594
 A 12.21,12.21 -40 00
-2.02714,8.92849
 A 0.737,0.737 -40 01
-2.55209,9.19275
 A 0.744,0.744 -40 01
-3.10639,8.99732
 L
-4.52909,7.69386
 A 12.507,12.507 -40 00
-5.43425,9.22097
 A 11.89,11.89 -40 01
-5.3874,6.34892
 C -5.32813,6.27177 -5.27886,6.18735
-5.21907,6.11238
 A 0.747,0.747 -40 01
-4.12566,6.02775
 L
-2.65172,7.37828
 A 13.692,13.692 -40 01
-0.97823,5.88007
 A 0.75,0.75 -40 01
-0.01702,5.92725
 L
1.63794,7.45617
 A 13.34,13.34 -40 01
3.76431,6.33899
 A 0.749,0.749 -40 01
4.56644,6.48441
 L
5.48125,7.34594
 C 5.4921,7.56268 5.50078,7.77993
5.50075,7.99925
Z"/>
		shadow:
<path fill="#CBAB8D" d=" M
2.00084,30.37354
 C 2.00021,32.3361 1.8102,33.65605
1.59534,34.52167
 C 0.9726,32.26891 -0.83376,30.71823
-1.99011,31.08412
 C -1.99575,30.85649 -2.00013,30.62258
-1.99969,30.37418
 C -1.99902,28.34632 -1.81938,26.30927
-1.67529,23.79425
 C -1.10624,24.64044 0.69652,25.54275
1.72778,24.65131
 C 1.86035,26.77885 2.00142,28.58204
2.00084,30.37354
Z"/>

	</g>
	
	<g transform="translate(5.3438 1.8291) rotate(-20)">
		
		<use href="#maraca1"/>		
		
		<path fill="#EF7100" d=" M
-5.42129,9.31976
 C -5.46756,8.90598 -5.50007,8.47486
-5.5007,8.00001
 C -5.49985,7.72576 -5.4902,7.45365
-5.47235,7.1824
 C -5.16511,6.85578 -4.85633,6.51909
-4.55055,6.19939
 A 0.743,0.743 20 01
-3.66795,6.0492
 A 17.236,17.236 20 01
-1.8297,7.13862
 C -1.26549,6.60011 -0.70505,6.07194
-0.14683,5.55573
 A 0.755,0.755 20 01
0.84962,5.53424
 A 21.17,21.17 20 01
2.49234,7.08778
 C 2.9821,6.66903 3.4675,6.25934
3.94793,5.85742
 A 0.748,0.748 20 01
5.02132,5.97248
 C 5.15514,6.14569 5.28034,6.33386
5.41117,6.51237
 A 11.946,11.946 20 01
5.43121,9.25248
 C 5.0752,8.65466 4.70271,8.07
4.30277,7.51686
 C 3.84652,7.90204 3.3853,8.29499
2.92007,8.69606
 A 0.75,0.75 20 01
1.87043,8.62689
 C 1.39471,8.09192 0.89446,7.58634
0.37806,7.11637
 C -0.15632,7.61678 -0.69412,8.12659
-1.23474,8.64708
 A 0.749,0.749 20 01
-2.19634,8.71318
 C -2.73823,8.31907 -3.29473,7.96221
-3.85809,7.64756
 C -4.37762,8.19488 -4.89937,8.75416
-5.42129,9.31976
 Z"/>
	</g>
</svg>
