<svg xmlns="http://www.w3.org/2000/svg" viewBox="0 0 36 36">
	<defs>
	<g id="maraca1">
		<path fill="#E3CBB1" d=" M
5.50034,7.99933
 C 5.49995,13.99969 1.50008,14.81166
1.50009,18.00033
 C 1.50038,23.62523 2.00004,27.00074
1.99999,30.37518
 C 1.99965,34.87541 0.9997,36.00026
0.9997,36.00026
 L
-1.00021,36.00012
 C -1.00021,36.00012 -2.00065,34.87496
-2.00047,30.3752
 C -2.00035,26.99978 -1.50037,23.62523
-1.50028,18
 C -1.50009,14.81206 -5.50003,13.99973
-5.49981,7.99984
 C -5.4997,3.89179 -3.49921,-0.00051
0.00036,-0.00049
 C 3.49994,-0.00047 5.50006,3.89161
5.50034,7.99933
 Z"/>
		
		<path fill="#35A7BA" d=" M
-1.32425,14.85337
 C -1.48071,13.19593 1.48155,13.19602
1.32489,14.85304
 C 0.62447,14.99127 -0.62396,14.99136
-1.32418,14.85313
 C -1.4806,13.19584 1.48126,13.19591
1.32495,14.85321
 C 0.62455,14.99176 -0.62371,14.99134
-1.32425,14.85337
 Z"/>
		<path fill="#EF7100" d=" M
-0.00028,-0.00019
 C 2.56749,-0.00073 4.32334,2.09713
5.07942,4.83577
 C 4.12026,3.62329 2.06127,2.91521
-0.00003,2.91518
 C -2.06085,2.91533 -4.12028,3.62375
-5.07958,4.83582
 C -4.32367,2.0974 -2.56835,-0.00003
-0.00028,-0.00019
 Z"/>
	</g>
	</defs>
	
	<g transform="translate(32.448 4.8224) rotate(40)">
		<use href="#maraca1"/>
		<path fill="#166784" d=" M
1.49955,17.91372
 C 0.91342,17.20587 -0.91278,17.20439
-1.50012,17.91392
 L
-1.50731,17.9069
 A 3.54,3.54 -40 00
-1.67089,16.90454
 C -0.90992,16.01145 0.91206,16.01257
1.67025,16.9037
 C 1.57067,17.2144 1.51533,17.54672
1.50657,17.90653
 L
1.49955,17.91372
 Z"/>
		<path fill="#EF7100" d=" M
5.50075,7.99925
 C 5.50086,8.48477 5.46587,8.92534
5.41762,9.347
 L
3.89808,7.91724
 A 11.87,11.87 -40 00
2.00149,9.02045
 A 0.749,0.749 -40 01
1.05689,8.96194
 L
-0.56261,7.46594
 A 12.21,12.21 -40 00
-2.02714,8.92849
 A 0.737,0.737 -40 01
-2.55209,9.19275
 A 0.744,0.744 -40 01
-3.10639,8.99732
 L
-4.52909,7.69386
 A 12.507,12.507 -40 00
-5.43425,9.22097
 A 11.89,11.89 -40 01
-5.3874,6.34892
 C -5.32813,6.27177 -5.27886,6.18735
-5.21907,6.11238
 A 0.747,0.747 -40 01
-4.12566,6.02775
 L
-2.65172,7.37828
 A 13.692,13.692 -40 01
-0.97823,5.88007
 A 0.75,0.75 -40 01
-0.01702,5.92725
 L
1.63794,7.45617
 A 13.34,13.34 -40 01
3.76431,6.33899
 A 0.749,0.749 -40 01
4.56644,6.48441
 L
5.48125,7.34594
 C 5.4921,7.56268 5.50078,7.77993
5.50075,7.99925
 Z"/>
<path fill="#CBAB8D" d=" M
2.00084,30.37354
 C 2.00021,32.3361 1.8102,33.65605
1.59534,34.52167
 C 0.9726,32.26891 -0.83376,30.71823
-1.99011,31.08412
 C -1.99575,30.85649 -2.00013,30.62258
-1.99969,30.37418
 C -1.99902,28.34632 -1.81938,26.30927
-1.67529,23.79425
 C -1.10624,24.64044 0.69652,25.54275
1.72778,24.65131
 C 1.86035,26.77885 2.00142,28.58204
2.00084,30.37354
Z"/>
<!--<path fill="#E3CBB1" d="M 31.52,14.486 c -3.857,4.596 -7.443,2.647 -9.494,5.09 c -3.615,4.309 -5.402,7.216 -7.571,9.801 c -2.893,3.447 -4.382,3.666 -4.382,3.666 l -1.532,-1.286 s -0.043,-1.505 2.85,-4.952 c 2.17,-2.585 4.722,-4.849 8.338,-9.158 c 2.049,-2.442 -0.493,-5.636 3.364,-10.232 c 2.641,-3.147 6.675,-4.843 9.356,-2.593 s 1.711,6.517 -0.929,9.664 Z"/>
		<path fill="#CBAB8D" d="M 14.457,29.376 c -1.262,1.503 -2.256,2.392 -2.977,2.917 c 0.971,-2.126 0.584,-4.475 -0.537,-4.938 c 0.142,-0.178 0.289,-0.36 0.449,-0.55 c 1.304,-1.553 2.751,-2.998 4.478,-4.832 c -0.108,1.014 0.693,2.864 2.056,2.844 c -1.266,1.715 -2.317,3.187 -3.469,4.559 Z"/>
		<path fill="#35A7BA" d="M 20.911,11.852 c 1.9,-1.569 7.833,3.411 6.619,5.553 c -1.807,0.674 -3.422,0.657 -4.667,1.441 c -0.009,-1.171 -1.404,-2.343 -2.56,-2.148 c 0.556,-1.362 0.258,-2.95 0.608,-4.846 Z"/>
		<path fill="#166784" d="M 20.302,16.698 c 1.157,-0.195 2.552,0.977 2.56,2.147 c -0.276,0.174 -0.532,0.393 -0.77,0.663 l -0.01,0.001 c 0.006,-0.919 -1.392,-2.094 -2.298,-1.928 l -0.001,-0.01 a 3.54,3.54 0 00 0.519,-0.873 Z"/>
		<path fill="#EF7100" d="M 32.449,4.822 c 1.967,1.65 1.964,4.386 0.783,6.97 c 0.044,-1.545 -1.078,-3.411 -2.657,-4.736 s -3.612,-2.106 -5.126,-1.794 c 2.339,-1.612 5.033,-2.091 7,-0.44 Z"/>
		<path fill="#EF7100" d="M 31.52,14.486 c -0.312,0.372 -0.622,0.687 -0.93,0.979 l -0.245,-2.072 a 11.87,11.87 0 00 -2.162,-0.374 a 0.749,0.749 0 01 -0.686,-0.652 l -0.279,-2.187 a 12.21,12.21 0 00 -2.062,0.179 a 0.737,0.737 0 01 -0.572,-0.135 a 0.744,0.744 0 01 -0.299,-0.506 l -0.252,-1.913 a 12.507,12.507 0 00 -1.675,0.588 a 11.89,11.89 0 01 1.882,-2.17 c 0.095,-0.021 0.187,-0.054 0.281,-0.073 a 0.747,0.747 0 01 0.892,0.638 l 0.261,1.982 a 13.692,13.692 0 01 2.245,-0.072 a 0.75,0.75 0 01 0.706,0.654 l 0.285,2.235 a 13.34,13.34 0 01 2.347,0.511 a 0.749,0.749 0 01 0.521,0.627 l 0.147,1.248 c -0.131,0.173 -0.264,0.345 -0.405,0.513 Z"/>-->
	</g>
	
	<g transform="translate(5.3438 1.8291) rotate(-20)">
		<!--<path fill="#E3CBB1" d="M 5.5,8 c 0,6 -4,6.81208 -4,10 c 0,5.625 0.5,9 0.5,12.375 c 0,4.5 -1,5.625 -1,5.625 h-2 s -1,-1.125 -1,-5.625 c 0,-3.375 0.5,-6.75 0.5,-12.375 c 0,-3.18792 -4,-4 -4,-10 c 0,-4.10784 2,-8 5.5,-8 s 5.5,3.89216 5.5,8 Z"/>-->
		<use href="#maraca1"/>		
		<path fill="#166784" d=" M
1.50023,17.91544
 C 0.91316,17.20692 -0.91987,17.19955
-1.50676,17.90858
 C -1.51657,17.54957 -1.57106,17.21687
-1.67076,16.90602
 C -0.91055,16.01319 0.91094,16.01424
1.6708,16.9059
 A 3.632,3.632 20 00
1.50023,17.91544
 Z"/>
		<path fill="#EF7100" d=" M
-5.42129,9.31976
 C -5.46756,8.90598 -5.50007,8.47486
-5.5007,8.00001
 C -5.49985,7.72576 -5.4902,7.45365
-5.47235,7.1824
 C -5.16511,6.85578 -4.85633,6.51909
-4.55055,6.19939
 A 0.743,0.743 20 01
-3.66795,6.0492
 A 17.236,17.236 20 01
-1.8297,7.13862
 C -1.26549,6.60011 -0.70505,6.07194
-0.14683,5.55573
 A 0.755,0.755 20 01
0.84962,5.53424
 A 21.17,21.17 20 01
2.49234,7.08778
 C 2.9821,6.66903 3.4675,6.25934
3.94793,5.85742
 A 0.748,0.748 20 01
5.02132,5.97248
 C 5.15514,6.14569 5.28034,6.33386
5.41117,6.51237
 A 11.946,11.946 20 01
5.43121,9.25248
 C 5.0752,8.65466 4.70271,8.07
4.30277,7.51686
 C 3.84652,7.90204 3.3853,8.29499
2.92007,8.69606
 A 0.75,0.75 20 01
1.87043,8.62689
 C 1.39471,8.09192 0.89446,7.58634
0.37806,7.11637
 C -0.15632,7.61678 -0.69412,8.12659
-1.23474,8.64708
 A 0.749,0.749 20 01
-2.19634,8.71318
 C -2.73823,8.31907 -3.29473,7.96221
-3.85809,7.64756
 C -4.37762,8.19488 -4.89937,8.75416
-5.42129,9.31976
 Z"/>
		
		<!--<path fill="#E3CBB1" d="M 13.248,7.465 c 2.052,5.639 -1.429,7.77 -0.338,10.765 c 1.924,5.286 3.548,8.287 4.702,11.458 c 1.539,4.229 0.984,5.628 0.984,5.628 l -1.879,0.684 s -1.325,-0.715 -2.864,-4.943 c -1.155,-3.172 -1.839,-6.514 -3.763,-11.8 c -1.09,-2.996 -5.126,-2.391 -7.178,-8.029 c -1.405,-3.86 -0.856,-8.202 2.432,-9.399 s 6.499,1.776 7.904,5.636 Z"/>
		<path fill="#35A7BA" d="M 12.696,17.144 c -1.019,-0.578 -2.731,0.044 -3.14,1.143 c -0.902,-1.163 -2.426,-1.699 -3.893,-2.95 c -0.409,-2.43 6.87,-5.078 8.119,-2.955 c -0.32,1.902 -1.142,3.291 -1.086,4.762 Z"/>
		<path fill="#166784" d="M 12.881,18.151 c -0.794,-0.465 -2.519,0.155 -2.828,1.022 c -0.132,-0.334 -0.297,-0.628 -0.497,-0.886 c 0.409,-1.099 2.121,-1.721 3.14,-1.143 a 3.632,3.632 0 00 0.185,1.007 Z"/>
		<path fill="#EF7100" d="M 2.224,8.111 c -0.226,-2.832 0.706,-5.402 3.119,-6.281 s 4.78,0.492 6.427,2.807 c -1.316,-0.812 -3.493,-0.773 -5.43,-0.068 c -1.936,0.705 -3.629,2.075 -4.116,3.542 Z"/>
		<path fill="#EF7100" d="M 3.437,12.441 c -0.185,-0.373 -0.363,-0.767 -0.526,-1.213 c -0.093,-0.258 -0.177,-0.517 -0.253,-0.778 c 0.177,-0.412 0.352,-0.834 0.53,-1.239 a 0.743,0.743 0 01 0.778,-0.443 a 17.236,17.236 0 01 2.1,0.395 c 0.346,-0.699 0.692,-1.387 1.04,-2.063 a 0.755,0.755 0 01 0.929,-0.361 a 21.17,21.17 0 01 2.075,0.898 c 0.317,-0.561 0.633,-1.112 0.947,-1.654 a 0.748,0.748 0 01 1.048,-0.259 c 0.185,0.117 0.367,0.251 0.551,0.374 a 11.946,11.946 0 01 0.956,2.568 c -0.539,-0.44 -1.089,-0.862 -1.654,-1.245 c -0.297,0.518 -0.596,1.045 -0.896,1.581 a 0.75,0.75 0 01 -1.01,0.294 c -0.63,-0.34 -1.273,-0.644 -1.919,-0.909 c -0.331,0.653 -0.662,1.316 -0.992,1.99 a 0.749,0.749 0 01 -0.881,0.391 c -0.644,-0.185 -1.289,-0.33 -1.926,-0.433 c -0.301,0.692 -0.6,1.396 -0.897,2.106 Z"/>-->
	</g>
</svg>
