<svg xmlns="http://www.w3.org/2000/svg" viewBox="0 0 36 36">
	<g>
		<path fill="#E3CBB1" d="M 31.52,14.486 c -3.857,4.596 -7.443,2.647 -9.494,5.09 c -3.615,4.309 -5.402,7.216 -7.571,9.801 c -2.893,3.447 -4.382,3.666 -4.382,3.666 l -1.532,-1.286 s -0.043,-1.505 2.85,-4.952 c 2.17,-2.585 4.722,-4.849 8.338,-9.158 c 2.049,-2.442 -0.493,-5.636 3.364,-10.232 c 2.641,-3.147 6.675,-4.843 9.356,-2.593 s 1.711,6.517 -0.929,9.664 Z"/>
		<path fill="#CBAB8D" d="M 14.457,29.376 c -1.262,1.503 -2.256,2.392 -2.977,2.917 c 0.971,-2.126 0.584,-4.475 -0.537,-4.938 c 0.142,-0.178 0.289,-0.36 0.449,-0.55 c 1.304,-1.553 2.751,-2.998 4.478,-4.832 c -0.108,1.014 0.693,2.864 2.056,2.844 c -1.266,1.715 -2.317,3.187 -3.469,4.559 Z"/>
		<path fill="#35A7BA" d="M 20.911,11.852 c 1.9,-1.569 7.833,3.411 6.619,5.553 c -1.807,0.674 -3.422,0.657 -4.667,1.441 c -0.009,-1.171 -1.404,-2.343 -2.56,-2.148 c 0.556,-1.362 0.258,-2.95 0.608,-4.846 Z"/>
		<path fill="#166784" d="M 20.302,16.698 c 1.157,-0.195 2.552,0.977 2.56,2.147 c -0.276,0.174 -0.532,0.393 -0.77,0.663 l -0.01,0.001 c 0.006,-0.919 -1.392,-2.094 -2.298,-1.928 l -0.001,-0.01 a 3.54,3.54 0 00 0.519,-0.873 Z"/>
		<path fill="#EF7100" d="M 32.449,4.822 c 1.967,1.65 1.964,4.386 0.783,6.97 c 0.044,-1.545 -1.078,-3.411 -2.657,-4.736 s -3.612,-2.106 -5.126,-1.794 c 2.339,-1.612 5.033,-2.091 7,-0.44 Z"/>
		<path fill="#EF7100" d="M 31.52,14.486 c -0.312,0.372 -0.622,0.687 -0.93,0.979 l -0.245,-2.072 a 11.87,11.87 0 00 -2.162,-0.374 a 0.749,0.749 0 01 -0.686,-0.652 l -0.279,-2.187 a 12.21,12.21 0 00 -2.062,0.179 a 0.737,0.737 0 01 -0.572,-0.135 a 0.744,0.744 0 01 -0.299,-0.506 l -0.252,-1.913 a 12.507,12.507 0 00 -1.675,0.588 a 11.89,11.89 0 01 1.882,-2.17 c 0.095,-0.021 0.187,-0.054 0.281,-0.073 a 0.747,0.747 0 01 0.892,0.638 l 0.261,1.982 a 13.692,13.692 0 01 2.245,-0.072 a 0.75,0.75 0 01 0.706,0.654 l 0.285,2.235 a 13.34,13.34 0 01 2.347,0.511 a 0.749,0.749 0 01 0.521,0.627 l 0.147,1.248 c -0.131,0.173 -0.264,0.345 -0.405,0.513 Z"/>
	</g>
	
	<g>
		<path fill="#E3CBB1" d="M 13.248,7.465 c 2.052,5.639 -1.429,7.77 -0.338,10.765 c 1.924,5.286 3.548,8.287 4.702,11.458 c 1.539,4.229 0.984,5.628 0.984,5.628 l -1.879,0.684 s -1.325,-0.715 -2.864,-4.943 c -1.155,-3.172 -1.839,-6.514 -3.763,-11.8 c -1.09,-2.996 -5.126,-2.391 -7.178,-8.029 c -1.405,-3.86 -0.856,-8.202 2.432,-9.399 s 6.499,1.776 7.904,5.636 Z"/>
		<path fill="#35A7BA" d="M 12.696,17.144 c -1.019,-0.578 -2.731,0.044 -3.14,1.143 c -0.902,-1.163 -2.426,-1.699 -3.893,-2.95 c -0.409,-2.43 6.87,-5.078 8.119,-2.955 c -0.32,1.902 -1.142,3.291 -1.086,4.762 Z"/>
		<path fill="#166784" d="M 12.881,18.151 c -0.794,-0.465 -2.519,0.155 -2.828,1.022 c -0.132,-0.334 -0.297,-0.628 -0.497,-0.886 c 0.409,-1.099 2.121,-1.721 3.14,-1.143 a 3.632,3.632 0 00 0.185,1.007 Z"/>
		<path fill="#EF7100" d="M 2.224,8.111 c -0.226,-2.832 0.706,-5.402 3.119,-6.281 s 4.78,0.492 6.427,2.807 c -1.316,-0.812 -3.493,-0.773 -5.43,-0.068 c -1.936,0.705 -3.629,2.075 -4.116,3.542 Z"/>
		<path fill="#EF7100" d="M 3.437,12.441 c -0.185,-0.373 -0.363,-0.767 -0.526,-1.213 c -0.093,-0.258 -0.177,-0.517 -0.253,-0.778 c 0.177,-0.412 0.352,-0.834 0.53,-1.239 a 0.743,0.743 0 01 0.778,-0.443 a 17.236,17.236 0 01 2.1,0.395 c 0.346,-0.699 0.692,-1.387 1.04,-2.063 a 0.755,0.755 0 01 0.929,-0.361 a 21.17,21.17 0 01 2.075,0.898 c 0.317,-0.561 0.633,-1.112 0.947,-1.654 a 0.748,0.748 0 01 1.048,-0.259 c 0.185,0.117 0.367,0.251 0.551,0.374 a 11.946,11.946 0 01 0.956,2.568 c -0.539,-0.44 -1.089,-0.862 -1.654,-1.245 c -0.297,0.518 -0.596,1.045 -0.896,1.581 a 0.75,0.75 0 01 -1.01,0.294 c -0.63,-0.34 -1.273,-0.644 -1.919,-0.909 c -0.331,0.653 -0.662,1.316 -0.992,1.99 a 0.749,0.749 0 01 -0.881,0.391 c -0.644,-0.185 -1.289,-0.33 -1.926,-0.433 c -0.301,0.692 -0.6,1.396 -0.897,2.106 Z"/>
	</g>
</svg>
