<svg xmlns="http://www.w3.org/2000/svg" viewBox="0 0 36 36">
	<path d="M 34,6 c 2.365,3.548 1,19 1,20 s -5,1 -5,1 h-1 v8 s -3,1 -11,1 s -11,-1 -11,-1 v-8 h-1  s -5,0 -5,-1 s -0.907,-17.186 1,-21 c 1,-2 9,-3 16,-3 s 14,1 16,4 Z"  fill="#E1E8ED"/>
	
	<path d="M 12,2 l 6,-1.25 l 6,1.25 l -6,11.5 l -6,-11.5 Z"  fill="#66757F"/>
	
	<path d="M 12,0.625 s 2.25,-0.547 6,-0.547 s 6,0.547 6,0.547 v2.375 s -1.625,-1 -6,-1 s -6,1 -6,1 v-2.375 Z"  fill="#CCD6DD"/>
	<path d="M 17.818,14.722 s -6.692,-11.381 -6.692,-12.36 c 0,-1 0.874,-1.737 0.874,-1.737 l 6.761,12.573 l -0.943,1.524 Z"  fill="#99AAB5"/>
	<path d="M 7,35 v-3 l 17,-31.375 s 0.748,0.737 0.748,1.737 c 0,0.979 -17.748,32.638 -17.748,32.638 Z"  fill="#99AAB5"/>
	
	<!-- look at all these really nice integer paths -->
	
	<path d="M 7,27 h-1 v-13 c 0,-1 1,-2 1,-2 v15 Z"  fill="#99AAB5"/>
	<path d="M 30,27 h-1 v-15 s 1,1 1,2 v13 Z"  fill="#99AAB5"/>
	
	<path d="M 7,22 s 5,2 11,2 s 11,-2 11,-2 v3 s -4,2 -11,2 s -11,-2 -11,-2 v-3 Z"  fill="#292F33"/>
	<path d="M 12,33 c 1,-5 4,-9 4,-9 l 2,3 c -2,2 -3,7 -3,7 l -3,-1 Z"  fill="#292F33"/>
	<path d="M 24,33 l -3,1 s -1,-5 -3,-7 l 2,-3 s 3,4 4,9 Z"  fill="#292F33"/>
	<path d="M 21,24 s 1,0 1,1 s -1,2 -1,2 s -2,1 -3,1 s -3,-1 -3,-1 s -1,-1 -1,-2 s 1,-1 1,-1 s 2,-1 3,-1 s 3,1 3,1 Z"  fill="#292F33"/>
</svg>
