<svg xmlns="http://www.w3.org/2000/svg" viewBox="0 0 36 36">
	<g>
		todo:
		hmm these are like? scaled or something? but also the circle centers are (3,3) apart (without rotation) but ..
		<path d="M 14.0171,10.3677 l -5.844,-5.844 c 0.846,-1.017 0.804,-2.525 -0.15,-3.479 c -1.011,-1.011 -2.65,-1.011 -3.662,0 c -0.621,0.621 -0.856,1.479 -0.715,2.282 c -0.804,-0.141 -1.661,0.095 -2.282,0.716 c -1.011,1.011 -1.011,2.651 0,3.662 c 0.954,0.954 2.462,0.996 3.479,0.149 l 5.844,5.844 l 3.33,-3.33 Z" fill="#ffd983"/>
		<path d="M 25.9355,22.2871 l 5.845,5.844 c 1.016,-0.846 2.524,-0.805 3.478,0.15 c 1.012,1.011 1.012,2.651 0,3.661 c -0.621,0.621 -1.478,0.857 -2.282,0.716 c 0.142,0.804 -0.095,1.661 -0.716,2.281 c -1.011,1.012 -2.65,1.012 -3.661,0 c -0.955,-0.954 -0.996,-2.462 -0.149,-3.478 l -5.845,-5.844 l 3.33,-3.33 Z" fill="#ffd983"/>
	</g>
	<g>
		<path d="M 10,32.45578 c 0,4.9707 -3.9247,6 -10,6 s -10,-1.0293 -10,-6 c 0,-2.3087 1.81726,-4 1.81726,-7 s -1.81726,-4.6913 -1.81726,-7 c 0,-4.9707 3.9247,-6 10,-6 s 10,1.0293 10,6 c 0,2.3087 -1.81726,4 -1.81726,7 s 1.81726,4.6913 1.81726,7 Z" fill="#c1694f" transform="rotate(-45)"/>
		<path d="M 14,22 c 1,-3 5,-7 8,-8" stroke-width="2" stroke-linecap="round" stroke="#662113" fill="none"/>
	</g>
</svg>
