<svg xmlns="http://www.w3.org/2000/svg" viewBox="0 0 36 36">
	<circle fill="#66757F" cx="8.553" cy="29.973" r="4.478"/>
	<circle fill="#66757F" cx="8.489" cy="9.789" r="2.42"/>
	
	<path d="M 10.482,34.451 c -0.936,-0.354 1,-1 1,-4 c 0,-2 -0.632,-3.735 0,-5 c 1,-2 5.097,-5.019 10,-6 c 5,-1 13,0 14,6 c 0.658,3.946 -2,6 -5,8 s -14.71,3 -20,1 Z"  fill="#CCD6DD"/>
	<path d="M 30.482,33.451 c -3,2 -14.71,3 -20,1 c -0.919,-0.347 0.93,-0.983 0.994,-3.852 c 2.754,0.063 7.093,-0.014 11.692,-0.798 c 5.485,-0.935 9.7,-2.877 12.309,-4.37 l 0.005,0.02 c 0.658,3.946 -2,6 -5,8 Z"  fill="#99AAB5"/>
	
	<path d="M 2.495,31.311 c -3.926,-5.609 -1.447,-12.69 0.586,-17.247 c 1.559,-3.495 3.025,-4.696 3.025,-4.696 l 4.557,2.033 s -1.724,4.645 -1.192,8.237 c 0.561,3.786 1.227,6.976 -0.596,10.341 s -5.399,2.734 -6.38,1.332 Z"  fill="#99AAB5"/>
	
	<path d="M 6.316,8.176 c 0.421,-2.384 3.856,-7.922 5.048,-7.712 s 6.94,2.454 7.922,3.856 s -1.052,5.959 -2.244,5.749 s -0.771,-2.594 -0.771,-2.594 s 0.21,-1.192 -1.192,-0.21 l -2.804,1.963 c -1.402,0.982 -5.959,-1.052 -5.959,-1.052 Z"  fill="#99AAB5"/>
	<path d="M 6.316,8.176 c -0.981,-1.402 -0.35,-4.978 -0.14,-6.169 c 0.21,-1.192 2.594,-0.771 2.173,1.613 c -0.42,2.383 0.771,2.594 0.771,2.594 l -2.804,1.962 Z"  fill="#99AAB5"/>
	<path d="M 6.316,8.176 c 0.421,-2.384 3.856,-7.922 5.048,-7.712 s 6.94,2.454 7.922,3.856 c -5.749,-2.244 -7.782,2.313 -8.192,5.174 c -1.886,-0.027 -4.778,-1.318 -4.778,-1.318 Z"  fill="#CCD6DD"/>
	
	<path d="M 7.952,10.192 l 2.711,1.21 s -1.724,4.645 -1.192,8.237 c 0.561,3.786 1.227,6.976 -0.596,10.341 c -0.754,1.392 -1.808,2.1 -2.855,2.353 c -4.436,-9.786 1.932,-22.141 1.932,-22.141 Z"  fill="#CCD6DD"/>
</svg>
