<svg xmlns="http://www.w3.org/2000/svg" viewBox="0 0 36 36">
	<rect width="36" height="36" rx="4" fill="#9266cc"/>
	<g>
		<path d="M 17.4716,18.2698 c -4.057,0.282 -4.909,0.84 -4.909,1.258 c 0,0.469 2.469,0.915 4.453,1.274 c 3.935,0.71 8.397,1.517 8.397,3.733 c 0,2.693 -7.635,3.296 -7.959,3.32 c -2.336,0.327 -2.456,0.812 -2.456,0.907 c 0,0.188 0.208,0.832 2.885,1.236 c 4.291,0.648 4.51,2.765 4.52,3.005 c 0.015,0.321 -0.099,0.542 -0.306,0.589 c -0.019,0.005 -0.069,0.011 -0.089,0.011 c -0.216,0 -0.341,-0.159 -0.499,-0.359 c -0.374,-0.476 -1.153,-1.466 -3.932,-1.893 c -3.643,-0.561 -5.34,-1.381 -5.34,-2.583 c 0,-0.887 0.596,-1.981 5.245,-2.564 c 4.976,-0.623 5.23,-1.596 5.231,-1.606 c 0,-0.737 -2.89,-1.27 -5.314,-1.587 c -5.326,-0.697 -7.598,-1.746 -7.598,-3.508 c 0,-1.871 3.033,-3.194 7.725,-3.371 c 4.393,-0.167 6.62,-0.699 6.62,-1.585 c 0,-0.168 -0.318,-1.007 -6.59,-1.007 c -3.276,0 -10.597,-0.867 -10.597,-3.956 c 0,-2.557 2.291,-4.039 5.14,-4.039 c 2.086,0 3.303,1.735 3.355,1.803 c 0.046,0.062 0.056,0.141 0.026,0.212 c -0.031,0.071 -0.097,0.122 -0.177,0.138 l -2.272,0.449 l 1.461,0.576 c 0.094,0.038 0.153,0.125 0.149,0.219 s -0.072,0.176 -0.169,0.205 c -0.554,0.167 -1.098,0.252 -1.62,0.252 c -1.521,0 -2.437,-0.704 -2.71,-0.95 c -0.975,0 -2.746,2.468 7.568,2.903 l 0.305,0.011 c 2.708,0.094 9.05,0.317 9.05,3.309 c 0,2.93 -6.48,3.381 -9.593,3.598 Z" fill="#ffffff"/>
		<ellipse rx="0.7595" ry="0.442" cx="12.3067" cy="6.9004" fill="#9266cc"/>
		<!-- <path d="M 13.0662,6.9004 a 0.76,0.442 0 01 -0.76,0.442 a 0.759,0.442 0 01 -0.759,-0.442 a 0.759,0.442 0 01 0.759,-0.442 a 0.76,0.442 0 01 0.76,0.442 Z" fill="#9266cc"/> -->
	</g>
	<g>
		<rect x="16" y="24.606" width="4" height="3.872" fill="#9266cc"/>
		<rect x="16" y="15.075" width="4" height="3.872" fill="#9266cc"/>
	</g>
	<g fill="#ffffff">
		<path d="M 17,30.3353 c 0.578,0.129 1.132,0.209 2,0.408 v2.257 a 1,1 0 01 -1,1 a 1,1 0 01 -1,-1 v-2.665 Z"/>
		<path d="M 19,21.7888 v7.506 c -0.562,-0.141 -1.462,-0.352 -2,-0.418 v-7.457 l 2,0.369 Z"/>
		<path d="M 17,19.8101 v-8.247 c 0.739,0.033 1.618,0.069 2,0.084 v8.542 l -2,-0.379 Z"/>
		<path d="M 19,10.4379 l -2,-0.092 v-5.016 a 1,1 0 01 1,-1 a 1,1 0 01 1,1 v5.108 Z"/>
		<circle r="2.5" cx="18" cy="4.5"/>
	</g>
</svg>
