<svg xmlns="http://www.w3.org/2000/svg" viewBox="0 0 36 36">
	<g>
		<path d="M 0,0 c 8.561,0 15.5,9 15.5,16 c 0,8.837 -6.939,16 -15.5,16 s -15.5,-6.163 -15.5,-15 c 0,-10 6.939,-17 15.5,-17 Z" fill="#a6d388" transform="translate(10.5,4.876) rotate(-30)"/>
		<!--<path d="M 31.9238,10.9824 c 4.418,7.652 1.99,17.326 -5.424,21.606 c -7.414,4.281 -16.505,2.414 -20.924,-5.241 c -4.999,-8.659 -2.49,-18.191 4.924,-22.471 c 7.414,-4.281 17.924,0.044 21.424,6.106 Z" fill="#a6d388"/>-->
	</g>
	<g fill="#77b255">
		<!-- outside? <path d="M2 16c1 -3 3 -5 4 -5" /> -->
		
		<path d="M 24,6 c -3,-1 -5.496,-0.664 -3,1 c 3,2 5.293,5.879 6,8 c 1,3 1,5 0,4 s -2,-4 -4,-6 c -3.535,-3.536 -6,-5 -7,-5 s -0.841,1.372 2,8 c 3,7 3.259,13.647 1,8 c -2,-5 -6,-13 -7,-14 s -2,1 -3,4 s 1,12 1,12 s 0,4 -3,-4 c -2.896,-7.721 0,-11 -1,-11 c -0.48,0 -1.192,0.471 -1.913,1.284 c 1.219,-3.059 3.403,-5.67 6.413,-7.408 c 7.277,-4.201 17.52,-0.108 21.206,5.776 c 1.023,2.27 1.13,3.602 0.294,2.348 c -2,-3 -5,-6 -8,-7 Z"/> this was obviously clipped but i dont have the clip path :(
		
		<path d="M 11.9609,30.5332 c -0.961,-0.533 -1.727,-1.977 -2.409,-3.226 s 0.277,-1.276 0.887,-0.159 c 0.681,1.249 1.204,1.613 1.886,2.862 c 0.681,1.249 0.193,0.832 -0.364,0.523 Z"/> not sure..
		
		<path d="M 0,0 c -1,-2 -1,-3 -2,-5 s -1,-4 0,-2 s 2,4 2,5 s 0,2 0,2 Z" transform="translate(21.5039 30.9063) rotate(3.56)"/>
		
		<path d="M 27,19 s -1.581,-3.581 0,-2 c 1,1 2,3.838 2,7 c 0,5 0,3 -1,0 s 0,-2 -1,-5 Z"/>
	</g>
	<g>
		<!--<path d="M 11.9336,6.3579 c -0.479,0.276 -1.091,0.112 -1.367,-0.366 c -1.105,-1.914 -1.26,-4.303 -1.266,-4.404 c -0.033,-0.55 0.387,-1.022 0.937,-1.058 c 0.551,-0.033 1.025,0.386 1.06,0.936 c 0.001,0.021 0.137,2.028 1.001,3.526 c 0.277,0.478 0.114,1.09 -0.365,1.366 Z" fill="#5c913b"/>-->
		<path d="M 0.5,1 c 0,-2 1,-4 1,-4" stroke-width="2" stroke-linecap="round" fill="none" stroke="#5C913B" transform="translate(10.5,4.876) rotate(-30)"/>
	</g>
</svg>
