<svg xmlns="http://www.w3.org/2000/svg" viewBox="0 0 36 36">
	<g transform="rotate(-30) translate(6.65599 9.47269)">
		<path d="M 0,0 c 8.561,0 15.5,9 15.5,16 c 0,8.836 -6.94,16 -15.5,16 s -15.5,-6.163 -15.5,-15 c 0,-10 6.94,-17 15.5,-17 Z"      fill="#A6D388"/>
		<path d="M 0,0 c 8.403,0 15.227,8.666 15.477,15.605 c -0.249,2.477 -0.822,3.684 -0.919,2.18 c -0.232,-3.598 -1.33,-7.696 -3.428,-10.062 s -4.428,-3.323 -3.098,-0.634 c 1.598,3.232 1.644,7.738 1.196,9.928 c -0.634,3.098 -1.634,4.83 -2,3.464 s 0.268,-4.464 -0.464,-7.196 c -1.293,-4.83 -2.696,-7.33 -3.562,-7.83 s -1.414,0.768 -2.268,7.928 c -0.902,7.562 -4.001,13.448 -3.134,7.428 c 0.768,-5.33 1.304,-14.258 0.938,-15.624 s -2.232,-0.134 -4.598,1.964 s -5.134,10.892 -5.134,10.892 s -2,3.464 -0.598,-4.964 c 1.352,-8.134 5.5,-9.526 4.634,-10.026 c -0.415,-0.24 -1.268,-0.188 -2.299,0.155 c 2.585,-2.04 5.782,-3.209 9.257,-3.210 Z"  fill="#77B255"/>
		<path d="M -11.564,22.95 c -0.566,-0.942 -0.508,-2.574 -0.474,-3.997 s 0.877,-0.967 0.847,0.305 c -0.035,1.422 0.237,1.999 0.203,3.421 s -0.248,0.817 -0.576,0.271 Z"  fill="#77B255"/>
		<path d="M -3.486,28.045 c 0.273,-2.22 0.825,-3.053 1.097,-5.272 c 0.273,-2.22 1.379,-3.886 1.106,-1.667 c -0.273,2.22 -0.545,4.44 -1.097,5.273 c -0.555,0.833 -1.106,1.666 -1.106,1.666 Z"  fill="#77B255"/>
		<path d="M 7.227,20.482 s 0.421,-3.892 1,-1.732 c 0.366,1.366 -0.187,4.324 -1.768,7.062 c -2.5,4.33 -1.5,2.598 -0.866,-0.5 s 1,-1.732 1.634,-4.83 Z"  fill="#77B255"/>
		
		<path d="M 0.5,1 c 0,-2 1,-4 1,-4" stroke-width="2" stroke-linecap="round" fill="none" stroke="#5C913B"/>
	</g>	
</svg>
