<svg xmlns="http://www.w3.org/2000/svg" viewBox="0 0 36 36">
	<path d="M 36,32 a 4,4 0 01 -4,4 h-28 a 4,4 0 01 -4,-4 v-28 a 4,4 0 01 4,-4 h28 a 4,4 0 01 4,4 v28 Z" fill="#553788"/>
	<path d="M 32,0 a 4,4 0 01 4,4 v10.667 c -4,1.75 -7.813,-2.126 -10.062,0.208 c -2.251,2.334 -3.579,7.687 -10.704,7.187 c -4.206,-0.294 -5.067,3.104 -7.901,7.188 c -0.782,1.128 -0.24,5.471 -1.709,6.75 h-1.624 a 4,4 0 01 -4,-4 v-19.553 c 1.743,-1.5 3.808,0.555 5,0.991 c 3.063,1.117 3.583,-5.844 10.742,-4.969 c 4.305,0.526 -1.185,-6.813 3.502,-8.469 h12.756 Z" fill="#744eaa"/>
	<path d="M 36,32 a 4,4 0 01 -4,4 h-28 a 4,4 0 01 -4,-4 v-2.121 c 2.038,-0.65 2.546,-0.419 3.833,-1.545 c 1.5,-1.313 2.579,-1.389 3.392,-0.826 c 0.812,0.562 2.15,2.492 3.275,1.742 s 3.958,-4.833 5.833,-3.583 s 2.5,4.083 4.373,3.133 c 1.129,-0.572 3.44,-1.591 5.127,-0.466 c 1.688,1.125 3.792,1.541 4.667,0.853 c 0.875,-0.687 1.641,-1.692 2.917,-1.853 c 0.666,-0.084 1.813,0.86 2.583,1.7 v2.966 Z" fill="#292f33"/>
	
	
	<!-- note; these tend to be aligned to integers, but by their edge points, not centers. so it's hard to tell here -->
	<circle r="1.16675" cx="6.16725" cy="15.66675" fill="#aa8dd8"/>
	<circle r="1.094" cx="14.8435" cy="11.0312" fill="#aa8dd8"/>
	<circle r="1.31225" cx="21.99975" cy="5.31275" fill="#aa8dd8"/>
	<circle r="0.781" cx="24.4065" cy="8.7187" fill="#aa8dd8"/>
	<circle r="1" cx="18.75" cy="19.75" fill="#aa8dd8"/>
	<circle r="0.93725" cx="30.99975" cy="20.42215" fill="#aa8dd8"/>
	<circle r="1.15625" cx="31.53075" cy="10.90645" fill="#aa8dd8"/>
	
	<circle r="0.656" cx="21.6253" cy="23.7275" fill="#cbb7ea"/>
	<circle r="0.81225" cx="11.74975" cy="2.56275" fill="#cbb7ea"/>
	<circle r="0.672" cx="4.934" cy="5.938" fill="#cbb7ea"/>
	<circle r="0.81225" cx="27.90605" cy="26.00805" fill="#cbb7ea"/>
	<circle r="0.93425" cx="5.93445" cy="25.49635" fill="#cbb7ea"/>
	<circle r="1.469" cx="9.531" cy="18.7812" fill="#cbb7ea"/>
	<circle r="1.67525" cx="18.67485" cy="14.80055" fill="#cbb7ea"/>
	<circle r="0.71875" cx="27.96925" cy="4.46845" fill="#cbb7ea"/>
	<circle r="1" cx="33.3125" cy="3" fill="#cbb7ea"/>
	
	<circle r="0.896" cx="10.4375" cy="7.562" fill="#f5f8fa"/>
	<circle r="0.781" cx="33.5315" cy="15.6562" fill="#f5f8fa"/>
	<circle r="0.68725" cx="24.99975" cy="13.53145" fill="#f5f8fa"/>
	<circle r="0.59375" cx="11.93795" cy="14.71845" fill="#f5f8fa"/>
	<circle r="1.15625" cx="21.59325" cy="11.23995" fill="#f5f8fa"/>
	<circle r="0.96875" cx="27.90675" cy="8.15595" fill="#f5f8fa"/>
	<circle r="1.336" cx="14.8984" cy="18.0859" fill="#f5f8fa"/>
	<circle r="0.879" cx="1.7538" cy="24.1289" fill="#f5f8fa"/>
	<circle r="0.64825" cx="5.35125" cy="21.07935" fill="#f5f8fa"/>
	<circle r="0.81225" cx="31.34355" cy="5.75025" fill="#f5f8fa"/>
</svg>
