<svg xmlns="http://www.w3.org/2000/svg" viewBox="0 0 36 36">
	really really good!
	<defs>
		<path id="frame1" d="M -11,0 c 0.894,0 2.706,-0.69 2.706,-0.69 s 0.164,-0.587 1.04,-1.069 c 0.594,-0.327 1.604,-0.089 1.604,-0.089 s 0.324,-0.834 1.634,-1.366 c 0.95,-0.387 2.016,0.214 2.016,0.214 c 0,-1 0.977,-2 2,-2 l 1,1 v5 h-12 Z"/>
		<path id="frame2" d="M 0,-4 c -1,0 -2,2 -1,3 c 0,0 -1,-1 -2,-1 s -1,1 -1,1 s -3,-1 -3,1 h-1.133" fill="none" stroke-width="0.75" stroke-linejoin="round" stroke-linecap="round"/> there's some special shaping at the top of this path but it's too small to be visible
		<path id="frame2_short" d="M 0,-2 c -1,0 -2,1 -1,1.5 c 0,0 -1,-0.5 -2,-0.5 s -1,0.5 -1,0.5 s -3,-0.5 -3,0.5 h-1.133" fill="none" stroke-width="0.75" stroke-linejoin="round" stroke-linecap="round"/> same as previous but scaled 50% vertically
	</defs>
	
	<g fill="#FFAC33">
		<use href="#frame1" transform="translate(18 6)"/>
		<use href="#frame1" transform="matrix(-1 0 0 1 18 6)"/>
		<use href="#frame1" transform="matrix(1 0 0 -1 18 32) scale(1 0.6)"/>
		<use href="#frame1" transform="matrix(-1 0 0 -1 18 32) scale(1 0.6)"/>
		<rect width="24" height="26" rx="1" x="6" y="6"/>
	</g>
	<g stroke="#C1694F">
		<use href="#frame2" transform="translate(18 6)"/>
		<use href="#frame2" transform="matrix(-1 0 0 1 18 6)"/>
		<use href="#frame2_short" transform="matrix(1 0 0 -1 18 31.7)"/>
		<use href="#frame2_short" transform="matrix(-1 0 0 -1 18 31.7)"/>
	</g>
	
	<g>
		<rect x="7.5" y="7.5" width="21" height="23" fill="#D99E82"/>
		<path fill="#FFD983" d="M 28.5,30.5 h-21 l 2.5,-2.5 l 16,-18 l 2.5,-2.5 v23 Z"/>
	</g>
	<g>
		<rect x="9" y="9" width="18" height="20" fill="#BBDDF5"/>
		<path fill="#F5F8FA" d="M 24.231,9 h2.769 v5.385 l -9,14.615 h-6.231 l 12.462,-20 Z"/>
	</g>
	<g>
		<path fill="#662113" d="M 7,31 v-24 h22 l -0.5,1 h-20.5 v22.5 l -1,0.5 Z"/>
		<path fill="#C1694F" d="M 7,31 l 1,-1 h20 v-22 l 1,-1 v24 h-22 Z"/>
	</g>
</svg>
