<svg xmlns="http://www.w3.org/2000/svg" viewBox="0 0 36 36">
	
	<path d="M -11,0 c 0.894,0 2.706,-0.69 2.706,-0.69 s 0.164,-0.587 1.04,-1.069 c 0.594,-0.327 1.604,-0.089 1.604,-0.089 s 0.324,-0.834 1.634,-1.366 c 0.95,-0.387 2.016,0.214 2.016,0.214 c 0,-1 0.977,-2 2,-2 l 1,1 V 0 H -11 Z" fill="#FFAC33"/> orig tall
	
	
	<path d="M -11,0 c 0.894,0 2.706,-0.414 2.706,-0.414 s 0.164,-0.353 1.04,-0.642 c 0.594,-0.196 1.604,-0.053 1.604,-0.053 s 0.324,-0.501 1.634,-0.82 c 0.95,-0.231 2.016,0.129 2.016,0.129 c 0,-0.6 0.977,-1.2 2,-1.2 s 2,0.6 2,1.2 c 0,0 1.066,-0.36 2.016,-0.129 c 1.311,0.32 1.634,0.82 1.634,0.82 s 1.01,-0.143 1.604,0.053 c 0.877,0.29 1.04,0.642 1.04,0.642 s 1.812,0.414 2.706,0.414 h-22 Z" fill="#FFAC33"/> orig short
	
	
	
	<path d=" M	-11,0	 C -10.106,0 -8.294,-2.07	-8.294,-2.07	 C -8.294,-2.07 -8.13 ,-3.831	-7.254,-5.277	 C -6.66,-6.258 -5.65,-5.544	-5.65,-5.544	 C -5.65,-5.544 -5.326,-8.046	-4.016,-9.642	 C -3.066,-10.803 -2,-9	-2,-9	 C -2,-12 -1.023,-15	0,-15	 C 1.023,-15 2,-12	2,-9	 C 2,-9 3.066,-10.803	4.016,-9.642	 C 5.327,-8.046 5.65,-5.544	5.65,-5.544	 C 5.65,-5.544 6.66,-6.258	7.254,-5.277	 C 8.131,-3.831 8.294,-2.07	8.294,-2.07	 C 8.294,-2.07 10.106,0	11,0	 L	-11,0	 Z" fill="#FFAC33"/> tall 3
	<path d=" M	 11,0	 C -10.106,0 -8.294,-2.07	-8.294,-2.07	 C -8.294,-2.07 -8.131,-3.831	-7.254,-5.277	 C -6.66,-6.258 -5.65,-5.544	-5.65,-5.544	 C -5.65,-5.544 -5.327,-8.046	-4.016,-9.642	 C -3.066,-10.803 -2,-9	-2,-9	 C -2,-12 -1.023,-15	0,-15	 C 1.023,-15 2,-12	2,-9	 C 2,-9 3.066,-10.803	4.016,-9.642	 C 5.326,-8.046 5.65,-5.544	5.65,-5.544	 C 5.65,-5.544 6.66,-6.258	7.254,-5.277	 C 8.13 ,-3.831 8.294,-2.07	8.294,-2.07	 C 8.294,-2.07 10.106,0	11,0	 L	-11,0	 Z" fill="#FFAC33"/> tall 3 flip
	<path d=" M	-11,0	 C -10.106,0 -8.294,-2.07	-8.294,-2.07	 C -8.294,-2.07 -8.13 ,-3.835	-7.254,-5.28	 C -6.66,-6.26  -5.65,-5.545	-5.65,-5.545	 C -5.65,-5.545 -5.326,-8.05	-4.016,-9.645	 C -3.066,-10.8   -2,-9	-2,-9	 C -2,-12 -1.023,-15	0,-15	 C 1.023,-15 2,-12	2,-9	 C 2,-9 3.066,-10.8  	4.016,-9.645	 C 5.327,-8.045 5.65,-5.545	5.65,-5.545	 C 5.65,-5.545 6.66,-6.26	7.254,-5.28 	 C 8.131,-3.83  8.294,-2.07	8.294,-2.07	 C 8.294,-2.07 10.106,0	11,0	 L	-11,0	 Z" fill="#FFAC33"/> short 5
	<path d=" M	 11,0	 C -10.106,0 -8.294,-2.07	-8.294,-2.07	 C -8.294,-2.07 -8.131,-3.83	-7.254,-5.28	 C -6.66,-6.26  -5.65,-5.545	-5.65,-5.545	 C -5.65,-5.545 -5.327,-8.045	-4.016,-9.645	 C -3.066,-10.8   -2,-9	-2,-9	 C -2,-12 -1.023,-15	0,-15	 C 1.023,-15 2,-12	2,-9	 C 2,-9 3.066,-10.8   	4.016,-9.645	 C 5.326,-8.05  5.65,-5.545	5.65,-5.545	 C 5.65,-5.545 6.66,-6.26	7.254,-5.28 	 C 8.13 ,-3.835 8.294,-2.07	8.294,-2.07	 C 8.294,-2.07 10.106,0	11,0	 L	-11,0	 Z" fill="#FFAC33"/> short 5 flip
	
	<path d=" M	-11,0	 C -10.106,0 -8.294,-2.07	-8.294,-2.07	 C -8.294,-2.07 -8.13 ,-3.831	-7.254,-5.278	 C -6.66,-6.259 -5.65,-5.544	-5.65,-5.544	 C -5.65,-5.544 -5.326,-8.046	-4.016,-9.643	 C -3.066,-10.802 -2,-9	-2,-9	 C -2,-12 -1.023,-15	0,-15	 C 1.023,-15 2,-12	2,-9	 C 2,-9 3.066,-10.803	4.016,-9.642	 C 5.327,-8.046 5.65,-5.544	5.65,-5.544	 C 5.65,-5.544 6.66,-6.258	7.254,-5.277	 C 8.131,-3.831 8.294,-2.07	8.294,-2.07	 C 8.294,-2.07 10.106,0	11,0	 L	-11,0	 Z" fill="#FFAC33"/> tall 3
	
	<path d="M 7,6 c 0.894,0 2.706,-0.69 2.706,-0.69 s 0.164,-0.587 1.04,-1.069 c 0.594,-0.327 1.604,-0.089 1.604,-0.089 s 0.324,-0.834 1.634,-1.366 c 0.95,-0.387 2.016,0.214 2.016,0.214 c 0,-1 0.977,-2 2,-2 s 2,1 2,2 c 0,0 1.066,-0.601 2.016,-0.214 c 1.311,0.532 1.634,1.366 1.634,1.366 s 1.01,-0.238 1.604,0.089 c 0.877,0.482 1.04,1.069 1.04,1.069 s 1.812,0.69 2.706,0.69 v26 c -0.894,0 -2.706,0.414 -2.706,0.414 s -0.164,0.353 -1.04,0.642 c -0.594,0.196 -1.604,0.053 -1.604,0.053 s -0.324,0.501 -1.634,0.82 c -0.95,0.231 -2.016,-0.129 -2.016,-0.129 c 0,0.6 -0.977,1.2 -2,1.2 s -2,-0.6 -2,-1.2 c 0,0 -1.066,0.36 -2.016,0.129 c -1.311,-0.32 -1.634,-0.82 -1.634,-0.82 s -1.01,0.143 -1.604,-0.053 c -0.877,-0.29 -1.04,-0.642 -1.04,-0.642 s -1.812,-0.414 -2.706,-0.414 v-26 Z" fill="#FFAC33"/>
	<rect width="24" height="26" rx="1" x="6" y="6" fill="#FFAC33"/>
	
	
	<path fill="#D99E82" d="M 8,8 h20 v22 h-20 v-22 Z"/>
	<path fill="#FFD983" d="M 28,30 h-20 l 20,-22 v22 Z"/>
	<path fill="#BBDDF5" d="M 9,9 h18 v20 h-18 v-20 Z"/>
	<path fill="#F5F8FA" d="M 24.231,9 h2.769 v5.385 l -9,14.615 h-6.231 l 12.462,-20 Z"/>
	<path fill="#662113" d=" M
28,8
 L
7,8
 L
7,7
 L
29,7
 L
28,8
 Z M
8,30
 L
7,31
 L
7,8
 L
8,8
 L
8,30
 Z"/>
	<path fill="#C1694F" d="M 29,31 h-22 l 1,-1 h21 v1 ZM 29,7 v23 h-1 v-22 l 1,-1 Z"/>
	
	<path d="M 9.868,6.375 a 0.375,0.375 0 01 -0.375,-0.375 a 0.375,0.375 0 01 0.375,-0.375 h0.791 c 0.089,-0.472 0.34,-0.75 0.558,-0.907 c 0.714,-0.516 1.866,-0.341 2.489,-0.19 c 0.156,-0.456 0.55,-0.903 1.294,-0.903 c 0.43,0 0.851,0.151 1.211,0.343 c -0.005,-0.326 0.061,-0.671 0.203,-1.013 c 0.303,-0.732 0.868,-1.222 1.438,-1.299 c 0.046,-0.02 0.096,-0.031 0.148,-0.031 s 0.102,0.011 0.148,0.03 c 0.57,0.077 1.134,0.567 1.437,1.299 c 0.142,0.342 0.209,0.687 0.204,1.013 c 0.359,-0.191 0.781,-0.342 1.211,-0.342 c 0.744,0 1.138,0.447 1.294,0.903 c 0.622,-0.15 1.771,-0.327 2.489,0.19 c 0.218,0.157 0.469,0.435 0.559,0.907 h0.79 a 0.375,0.375 0 01 0.375,0.375 a 0.375,0.375 0 01 -0.375,0.375 h-1.132 a 0.375,0.375 0 01 -0.375,-0.375 c 0,-0.317 -0.092,-0.537 -0.28,-0.673 c -0.553,-0.398 -1.794,-0.114 -2.227,0.029 c -0.112,0.038 -0.239,0.018 -0.338,-0.052 c -0.097,-0.071 -0.155,-0.183 -0.155,-0.304 c -0.003,-0.144 -0.056,-0.625 -0.625,-0.625 c -0.688,0 -1.483,0.641 -1.733,0.888 v0.001 c -0.148,0.146 -0.385,0.146 -0.531,0 c -0.144,-0.144 -0.147,-0.376 -0.007,-0.523 l 0.001,-0.001 l 0.005,-0.005 c 0.405,-0.405 0.347,-1.037 0.157,-1.494 c -0.204,-0.494 -0.588,-0.866 -0.892,-0.866 s -0.688,0.372 -0.891,0.867 c -0.19,0.457 -0.248,1.089 0.157,1.494 l 0.005,0.005 l 0.001,0.001 c 0.139,0.147 0.137,0.379 -0.007,0.523 c -0.146,0.146 -0.384,0.146 -0.53,0 l -0.001,-0.001 c -0.251,-0.248 -1.046,-0.889 -1.734,-0.889 c -0.569,0 -0.623,0.481 -0.625,0.628 c -0.002,0.119 -0.061,0.232 -0.158,0.301 c -0.097,0.07 -0.221,0.09 -0.335,0.052 c -0.434,-0.144 -1.676,-0.427 -2.227,-0.029 c -0.188,0.136 -0.28,0.356 -0.28,0.673 a 0.375,0.375 0 01 -0.375,0.375 h-1.132 ZM 26.132,31.325 a 0.378,0.375 0 01 0.378,0.375 a 0.375,0.375 0 01 -0.375,0.375 h-0.848 c -0.049,0.093 -0.117,0.177 -0.204,0.251 c -0.611,0.517 -2.155,0.381 -2.854,0.287 c -0.165,0.227 -0.507,0.462 -1.227,0.462 c -0.435,0 -0.865,-0.084 -1.226,-0.187 l -0.009,0.044 c -0.147,0.62 -0.956,1.143 -1.766,1.143 s -1.619,-0.524 -1.765,-1.143 c -0.003,-0.015 -0.007,-0.029 -0.009,-0.044 c -0.362,0.103 -0.791,0.187 -1.226,0.187 c -0.72,0 -1.063,-0.235 -1.227,-0.462 c -0.701,0.093 -2.243,0.23 -2.854,-0.287 c -0.086,-0.074 -0.155,-0.158 -0.204,-0.251 h-0.848 a 0.375,0.375 0 01 -0.375,-0.375 a 0.375,0.375 0 01 0.375,-0.375 h1.134 a 0.375,0.375 0 01 0.375,0.375 c 0.365,0.338 1.74,0.269 2.563,0.13 c 0.11,-0.016 0.221,0.013 0.304,0.084 c 0.085,0.071 0.133,0.176 0.133,0.286 c 0.011,0.003 0.159,0.125 0.625,0.125 c 0.896,0 1.824,-0.456 1.833,-0.461 c 0.184,-0.091 0.409,-0.016 0.502,0.168 c 0.093,0.186 0.018,0.411 -0.168,0.503 c -0.152,0.077 -0.221,0.153 -0.203,0.225 c 0.052,0.222 0.521,0.565 1.035,0.565 s 0.983,-0.342 1.035,-0.565 c 0.017,-0.073 -0.051,-0.149 -0.203,-0.225 c -0.186,-0.092 -0.261,-0.317 -0.168,-0.503 s 0.318,-0.259 0.502,-0.168 c 0.01,0.005 0.937,0.461 1.833,0.461 c 0.466,0 0.613,-0.122 0.629,-0.165 c 0,-0.111 0.047,-0.196 0.131,-0.267 c 0.084,-0.07 0.192,-0.081 0.302,-0.063 c 0.825,0.138 2.2,0.207 2.533,-0.076 c 0,-0.207 0.198,-0.429 0.405,-0.429 h1.132 Z" fill="#C1694F"/>
</svg>
