<svg xmlns="http://www.w3.org/2000/svg" viewBox="0 0 36 36" xml:space="preserve">	
,27.078 	<path d="M 30.038,27.078 c -6.22,8.567 -18.861,8.556 -25.074,0 c -0.014,-0.013 -0.024,-0.037 -0.037,-0.049 a 15.418,15.418 0 01 -0.216,-17.769 c 0.05,-0.096 0.129,-0.2 0.231,-0.31 c 6.218,-8.603 18.905,-8.592 25.115,0 a 1.5,1.5 0 01 0.232,0.31 a 15.457,15.457 0 01 -0.205,17.779 l -0.046,0.039 Z"  fill="#49A8FF"/>	
	
	
,05.016 	<path d="M 17,5.016 c -0.672,0.017 -1.342,0.062 -2.002,0.142 c 0.613,-0.853 1.29,-1.41 2.002,-1.589 v1.447 Z"  fill="#B0F7FF"/>
,05.158 	<path d="M 14.998,5.158 c 0.614,-0.852 1.29,-1.41 2.002,-1.589 v1.447 c -0.672,0.017 -1.342,0.062 -2.002,0.142 Z"  fill="#49A8FF"/>

,05.158 	<path d="M 20.002,5.158 c -0.66,-0.08 -1.33,-0.125 -2.002,-0.142 v-1.447 c 0.712,0.179 1.389,0.736 2.002,1.589 Z"  fill="#B0F7FF"/>
,05.016 	<path d="M 18,5.016 v-1.447 c 0.712,0.179 1.389,0.736 2.002,1.589 c -0.66,-0.08 -1.33,-0.125 -2.002,-0.142 Z"  fill="#49A8FF"/>


,05.964 	<path d="M 11.096,5.964 a 10.44,10.44 0 01 3.637,-2.022 a 8.52,8.52 0 00 -1.027,1.411 c -0.907,0.161 -1.781,0.371 -2.61,0.611 Z"  fill="#ADE3FF"/>
,05.964 	<path d="M 11.095,5.964 a 10.44,10.44 0 01 3.637,-2.022 a 8.575,8.575 0 00 -1.026,1.411 c -0.907,0.161 -1.781,0.371 -2.611,0.611 Z"  fill="#49A8FF"/>

,05.964 	<path d="M 23.905,5.964 c -0.83,-0.24 -1.704,-0.45 -2.611,-0.611 c -0.321,-0.543 -0.664,-1.013 -1.026,-1.411 a 10.44,10.44 0 01 3.637,2.022 Z"  fill="#ADE3FF"/>
,05.964 	<path d="M 23.905,5.964 c -0.83,-0.24 -1.704,-0.45 -2.611,-0.611 a 8.575,8.575 0 00 -1.026,-1.411 a 10.44,10.44 0 01 3.637,2.022 Z"  fill="#49A8FF"/>


,11.006 	<path d="M 17,11.006 a 69.042,69.042 0 00 -4.331,0.181 c 0.405,-1.95 0.978,-3.635 1.66,-4.932 c 0.857,-0.133 1.751,-0.216 2.671,-0.24 v4.991 Z"  fill="#ADE3FF"/>
,11.186 	<path d="M 12.669,11.186 c 0.405,-1.95 0.978,-3.634 1.66,-4.932 a 20.83,20.83 0 01 2.671,-0.239 v4.99 a 69.81,69.81 0 00 -4.331,0.181 Z"  fill="#49A8FF"/>

,11.006 	<path d="M 18,11.006 v-4.991 c 0.92,0.024 1.814,0.107 2.671,0.24 c 0.682,1.297 1.255,2.982 1.66,4.932 a 69.042,69.042 0 00 -4.331,-0.181 Z"  fill="#F0FFFF"/>
,11.187 	<path d="M 22.331,11.187 a 69.042,69.042 0 00 -4.331,-0.181 v-4.991 c 0.92,0.024 1.814,0.107 2.671,0.24 c 0.682,1.298 1.255,2.983 1.66,4.932 Z"  fill="#49A8FF"/>


,11.829 	<path d="M 7.11,11.829 c 0.609,-1.624 1.446,-3.083 2.466,-4.309 a 23.65,23.65 0 01 3.547,-1.047 c -0.621,1.338 -1.129,2.962 -1.492,4.798 c -1.604,0.139 -3.161,0.328 -4.521,0.558 Z"  fill="#F0FFFF"/>
,11.827 	<path d="M 7.11,11.827 c 0.609,-1.624 1.446,-3.083 2.466,-4.309 a 23.974,23.974 0 01 3.547,-1.046 c -0.621,1.339 -1.129,2.962 -1.492,4.798 a 58.043,58.043 0 00 -4.521,0.557 Z"  fill="#49A8FF"/>

,11.827 	<path d="M 27.89,11.827 c -1.36,-0.229 -2.918,-0.418 -4.521,-0.557 c -0.363,-1.836 -0.871,-3.459 -1.492,-4.798 a 23.974,23.974 0 01 3.547,1.046 c 1.02,1.226 1.857,2.685 2.466,4.309 Z"  fill="#B0F7FF"/>
,11.829 	<path d="M 27.89,11.829 a 57.483,57.483 0 00 -4.521,-0.558 c -0.363,-1.836 -0.871,-3.46 -1.492,-4.798 a 23.65,23.65 0 01 3.547,1.047 c 1.02,1.226 1.857,2.685 2.466,4.309 Z"  fill="#49A8FF"/>


,12.529 	<path d="M 30.92,12.529 c -0.516,-0.176 -1.155,-0.339 -1.884,-0.489 a 16.574,16.574 0 00 -1.802,-3.741 c 0.96,0.47 1.642,0.9 1.968,1.175 a 14.443,14.443 0 01 1.718,3.055 Z"  fill="#F0FFFF"/>
,12.04 	<path d="M 29.036,12.04 a 16.574,16.574 0 00 -1.802,-3.741 c 0.96,0.469 1.642,0.9 1.968,1.175 a 14.443,14.443 0 01 1.718,3.055 a 16.318,16.318 0 00 -1.884,-0.489 Z"  fill="#49A8FF"/>

,12.529 	<path d="M 4.08,12.529 a 14.487,14.487 0 01 1.718,-3.055 c 0.326,-0.275 1.008,-0.706 1.968,-1.175 a 16.574,16.574 0 00 -1.802,3.741 a 16.116,16.116 0 00 -1.884,0.489 Z"  fill="#B0F7FF"/>
,12.529 	<path d="M 4.08,12.529 a 14.443,14.443 0 01 1.718,-3.055 c 0.326,-0.275 1.007,-0.705 1.968,-1.175 a 16.66,16.66 0 00 -1.802,3.741 a 15.97,15.97 0 00 -1.884,0.489 Z"  fill="#49A8FF"/>

,17.254 	<path d="M 31.963,17.254 c -0.329,0.096 -1.005,0.198 -1.981,0.295 c -0.036,-1.536 -0.248,-3.015 -0.62,-4.409 c 1.071,0.235 1.763,0.452 1.997,0.596 a 14.434,14.434 0 01 0.604,3.518 Z"  fill="#A8C1FF"/>
,17.549 	<path d="M 29.981,17.549 a 18.8,18.8 0 00 -0.62,-4.409 c 1.07,0.235 1.762,0.452 1.997,0.596 c 0.345,1.12 0.542,2.302 0.604,3.518 c -0.329,0.096 -1.004,0.198 -1.981,0.295 Z"  fill="#49A8FF"/>
,17.549 	<path d="M 5.019,17.549 c -0.977,-0.097 -1.652,-0.199 -1.981,-0.295 a 14.443,14.443 0 01 0.604,-3.518 c 0.234,-0.144 0.926,-0.361 1.997,-0.596 a 18.8,18.8 0 00 -0.62,4.409 Z"  fill="#ADE3FF"/>
,17.549 	<path d="M 5.019,17.549 c -0.977,-0.097 -1.652,-0.199 -1.981,-0.295 c 0.062,-1.217 0.259,-2.398 0.604,-3.518 c 0.234,-0.144 0.926,-0.361 1.997,-0.596 a 18.8,18.8 0 00 -0.62,4.409 Z"  fill="#49A8FF"/>

,17.638 	<path d="M 28.985,17.638 c -1.302,0.104 -2.979,0.196 -4.987,0.262 c -0.005,-1.995 -0.164,-3.883 -0.445,-5.617 a 53.996,53.996 0 01 4.704,0.636 a 17.755,17.755 0 01 0.728,4.719 Z"  fill="#F0FFFF"/>
,17.9 	<path d="M 23.998,17.9 a 35.79,35.79 0 00 -0.445,-5.616 c 1.84,0.172 3.436,0.402 4.704,0.636 c 0.44,1.475 0.696,3.06 0.728,4.718 c -1.303,0.104 -2.98,0.196 -4.987,0.262 Z"  fill="#49A8FF"/>

,17.9 	<path d="M 11.002,17.9 c -2.007,-0.066 -3.684,-0.158 -4.987,-0.262 a 17.708,17.708 0 01 0.728,-4.719 c 1.268,-0.234 2.864,-0.464 4.704,-0.636 c -0.281,1.734 -0.44,3.622 -0.445,5.617 Z"  fill="#B0F7FF"/>
,17.899 	<path d="M 11.002,17.899 a 109.636,109.636 0 01 -4.987,-0.262 c 0.032,-1.657 0.288,-3.242 0.728,-4.718 a 53.996,53.996 0 01 4.704,-0.636 a 35.79,35.79 0 00 -0.445,5.616 Z"  fill="#49A8FF"/>

,17.929 	<path d="M 12.002,17.929 a 34.576,34.576 0 01 0.48,-5.735 c 1.398,-0.107 2.916,-0.177 4.518,-0.189 v5.993 c -1.821,-0.004 -3.492,-0.028 -4.998,-0.069 Z"  fill="#ADE3FF"/>
,17.998 	<path d="M 17,17.998 a 206.135,206.135 0 01 -4.999,-0.069 c 0.004,-2.026 0.177,-3.966 0.48,-5.735 a 66.538,66.538 0 01 4.519,-0.189 v5.993 Z"  fill="#49A8FF"/>

,17.998 	<path d="M 18,17.998 v-5.993 a 66.538,66.538 0 01 4.519,0.189 a 34.595,34.595 0 01 0.48,5.735 c -1.507,0.04 -3.178,0.065 -4.999,0.069 Z"  fill="#B0F7FF"/>
,17.929 	<path d="M 22.998,17.929 c -1.506,0.041 -3.177,0.065 -4.998,0.069 v-5.993 c 1.602,0.012 3.12,0.082 4.518,0.189 c 0.303,1.768 0.476,3.708 0.48,5.735 Z"  fill="#49A8FF"/>

,22.298 	<path d="M 3.651,22.298 c -0.403,-1.294 -0.62,-2.668 -0.64,-4.088 c 0.444,0.118 1.089,0.236 2.011,0.343 a 18.727,18.727 0 00 0.716,4.645 c -1.144,-0.381 -1.878,-0.72 -2.087,-0.9 Z"  fill="#F0FFFF"/>
,23.198 	<path d="M 5.739,23.198 c -1.145,-0.381 -1.878,-0.72 -2.088,-0.9 a 14.452,14.452 0 01 -0.64,-4.088 c 0.444,0.118 1.089,0.236 2.012,0.343 c 0.047,1.625 0.294,3.183 0.716,4.645 Z"  fill="#49A8FF"/>

,23.198 	<path d="M 29.261,23.198 c 0.421,-1.461 0.669,-3.02 0.716,-4.645 c 0.923,-0.107 1.568,-0.225 2.012,-0.343 a 14.416,14.416 0 01 -0.64,4.088 c -0.21,0.181 -0.943,0.519 -2.088,0.9 Z"  fill="#F1C6FF"/>
,23.197 	<path d="M 29.261,23.197 c 0.421,-1.461 0.669,-3.02 0.716,-4.645 c 0.923,-0.107 1.568,-0.225 2.012,-0.344 a 14.412,14.412 0 01 -0.64,4.089 c -0.21,0.181 -0.943,0.519 -2.088,0.9 Z"  fill="#49A8FF"/>

,23.549 	<path d="M 6.878,23.549 c -0.501,-1.518 -0.791,-3.169 -0.853,-4.894 c 1.242,0.109 2.867,0.202 4.993,0.263 a 34.586,34.586 0 00 0.577,5.635 c -1.832,-0.274 -3.435,-0.639 -4.717,-1.004 Z"  fill="#F0FFFF"/>
,24.553 	<path d="M 11.596,24.553 a 37.787,37.787 0 01 -4.716,-1.004 a 17.658,17.658 0 01 -0.853,-4.894 c 1.24,0.109 2.866,0.202 4.992,0.263 c 0.047,2.015 0.247,3.913 0.577,5.635 Z"  fill="#49A8FF"/>
,24.553 	<path d="M 23.404,24.553 a 34.366,34.366 0 00 0.577,-5.635 c 2.126,-0.061 3.752,-0.154 4.992,-0.263 c -0.062,1.725 -0.352,3.376 -0.853,4.894 a 37.787,37.787 0 01 -4.716,1.004 Z"  fill="#CCB3FF"/>
,23.549 	<path d="M 28.122,23.549 c -1.282,0.365 -2.885,0.73 -4.717,1.004 c 0.329,-1.722 0.529,-3.62 0.577,-5.635 c 2.126,-0.061 3.751,-0.154 4.993,-0.263 a 17.658,17.658 0 01 -0.853,4.894 Z"  fill="#49A8FF"/>

,24.696 	<path d="M 12.647,24.696 c -0.356,-1.749 -0.575,-3.7 -0.628,-5.752 a 235.782,235.782 0 00 4.981,0.055 v5.992 c -1.536,-0.02 -2.997,-0.129 -4.353,-0.295 Z"  fill="#B0F7FF"/>
,24.991 	<path d="M 17,24.991 a 40.197,40.197 0 01 -4.353,-0.295 c -0.356,-1.75 -0.575,-3.701 -0.628,-5.752 c 1.442,0.033 3.093,0.052 4.981,0.055 v5.992 Z"  fill="#49A8FF"/>

<path d="M 18,24.991 v-5.992 c 1.888,-0.003 3.539,-0.022 4.981,-0.055 c -0.053,2.052 -0.272,4.003 -0.628,5.752 a 39.945,39.945 0 01 -4.353,0.295 Z"  fill="#ADE3FF"/>
,24.696 	<path d="M 22.353,24.696 a 40.197,40.197 0 01 -4.353,0.295 v-5.992 c 1.888,-0.003 3.539,-0.022 4.981,-0.055 c -0.053,2.052 -0.272,4.003 -0.628,5.752 Z"  fill="#49A8FF"/>

,26.389 	<path d="M 5.695,26.389 a 14.415,14.415 0 01 -1.546,-2.735 c 0.536,0.242 1.2,0.485 1.97,0.721 c 0.425,1.162 0.96,2.247 1.592,3.236 c -0.999,-0.493 -1.695,-0.945 -2.016,-1.222 Z"  fill="#F0FFFF"/>
,27.611 	<path d="M 7.711,27.611 c -0.999,-0.493 -1.695,-0.945 -2.016,-1.222 a 14.47,14.47 0 01 -1.546,-2.735 c 0.536,0.242 1.2,0.485 1.97,0.721 c 0.425,1.162 0.96,2.248 1.592,3.236 Z"  fill="#49A8FF"/>

,27.611 	<path d="M 27.289,27.611 a 16.559,16.559 0 00 1.592,-3.236 c 0.77,-0.236 1.435,-0.479 1.97,-0.721 a 14.47,14.47 0 01 -1.546,2.735 c -0.321,0.277 -1.017,0.729 -2.016,1.222 Z"  fill="#CCB3FF"/>
,27.611 	<path d="M 27.289,27.611 a 16.559,16.559 0 00 1.592,-3.236 a 16.89,16.89 0 00 1.97,-0.721 a 14.47,14.47 0 01 -1.546,2.735 c -0.321,0.277 -1.018,0.728 -2.016,1.222 Z"  fill="#49A8FF"/>

,28.391 	<path d="M 9.498,28.391 a 14.829,14.829 0 01 -2.18,-3.677 a 40.513,40.513 0 00 4.492,0.874 c 0.335,1.452 0.768,2.746 1.274,3.855 c -1.336,-0.277 -2.546,-0.652 -3.586,-1.052 Z"  fill="#B0F7FF"/>
,29.444 	<path d="M 13.083,29.444 a 23.18,23.18 0 01 -3.587,-1.052 a 14.81,14.81 0 01 -2.18,-3.677 c 1.323,0.341 2.856,0.646 4.493,0.874 c 0.335,1.452 0.768,2.746 1.274,3.855 Z"  fill="#49A8FF"/>

,29.444 	<path d="M 21.917,29.444 c 0.506,-1.109 0.939,-2.403 1.274,-3.855 a 40.811,40.811 0 00 4.493,-0.874 a 14.81,14.81 0 01 -2.18,3.677 a 23.18,23.18 0 01 -3.587,1.052 Z"  fill="#F1C6FF"/>
,28.391 	<path d="M 25.502,28.391 a 23.1,23.1 0 01 -3.586,1.052 c 0.506,-1.109 0.939,-2.403 1.274,-3.855 a 40.513,40.513 0 00 4.492,-0.874 a 14.829,14.829 0 01 -2.18,3.677 Z"  fill="#49A8FF"/>

,29.892 	<path d="M 18,29.892 v-3.902 a 41.391,41.391 0 00 4.12,-0.268 c -0.373,1.526 -0.851,2.86 -1.405,3.936 c -0.865,0.131 -1.774,0.212 -2.715,0.234 Z"  fill="#A8C1FF"/>
,29.892 	<path d="M 18,29.892 v-3.901 a 41.391,41.391 0 00 4.12,-0.268 c -0.374,1.525 -0.852,2.859 -1.405,3.935 c -0.865,0.131 -1.774,0.212 -2.715,0.234 Z"  fill="#49A8FF"/>

,29.893 	<path d="M 17,29.893 a 21.7,21.7 0 01 -2.715,-0.235 c -0.554,-1.076 -1.032,-2.41 -1.405,-3.935 c 1.338,0.153 2.726,0.249 4.12,0.268 v3.902 Z"  fill="#CCB3FF"/>
,29.893 	<path d="M 17,29.893 a 21.513,21.513 0 01 -2.715,-0.235 c -0.554,-1.076 -1.032,-2.41 -1.405,-3.935 c 1.338,0.153 2.726,0.249 4.12,0.268 v3.902 Z"  fill="#49A8FF"/>


,32.058 	<path d="M 14.733,32.058 a 10.498,10.498 0 01 -3.755,-2.13 a 24.664,24.664 0 00 2.676,0.626 a 8.66,8.66 0 00 1.079,1.504 Z"  fill="#F1C6FF"/>
,32.058 	<path d="M 14.733,32.058 a 10.475,10.475 0 01 -3.755,-2.13 c 0.838,0.247 1.735,0.46 2.676,0.626 a 8.66,8.66 0 00 1.079,1.504 Z"  fill="#49A8FF80"/>

,32.058 	<path d="M 20.267,32.058 a 8.66,8.66 0 00 1.079,-1.504 a 24.61,24.61 0 00 2.676,-0.626 a 10.475,10.475 0 01 -3.755,2.13 Z"  fill="#CCB3FF"/>
,32.058 	<path d="M 20.267,32.058 a 8.66,8.66 0 00 1.079,-1.504 c 0.94,-0.166 1.838,-0.379 2.676,-0.626 a 10.498,10.498 0 01 -3.755,2.13 Z"  fill="#49A8FF"/>

,32.431 	<path d="M 17,32.431 c -0.741,-0.186 -1.446,-0.775 -2.079,-1.688 a 21.98,21.98 0 00 2.079,0.15 v1.538 Z"  fill="#A8C1FF"/>
,32.431 	<path d="M 17,32.431 c -0.741,-0.186 -1.446,-0.775 -2.079,-1.688 a 21.98,21.98 0 00 2.079,0.15 v1.538 Z"  fill="#49A8FF"/>

,32.431 	<path d="M 18,32.431 v-1.538 a 21.98,21.98 0 00 2.079,-0.15 c -0.633,0.913 -1.338,1.502 -2.079,1.688 Z"  fill="#F1C6FF"/>
,32.431 	<path d="M 18,32.431 v-1.538 a 21.653,21.653 0 00 2.079,-0.15 c -0.633,0.913 -1.338,1.502 -2.079,1.688 Z"  fill="#49A8FF"/>


,06.5 	<path d="M 33,6.5 a 0.5,0.5 0 01 -1,0 a 2.5,2.5 0 00 -2.5,-2.5 a 0.5,0.5 0 01 0,-1 a 2.5,2.5 0 00 2.5,-2.5 a 0.5,0.5 0 01 1,0 a 2.5,2.5 0 00 2.5,2.5 a 0.5,0.5 0 01 0,1 a 2.5,2.5 0 00 -2.5,2.5 Z"  fill="#CCB3FF"/>
,07.5 	<path d="M 3,7.5 a 0.5,0.5 0 01 -1,0 a 1.5,1.5 0 00 -1.5,-1.5 a 0.5,0.5 0 01 0,-1 a 1.5,1.5 0 00 1.5,-1.5 a 0.5,0.5 0 01 1,0 a 1.5,1.5 0 00 1.5,1.5 a 0.5,0.5 0 01 0,1 a 1.5,1.5 0 00 -1.5,1.5 Z"  fill="#49A8FF"/>
,34.5 	<path d="M 33,34.5 a 0.5,0.5 0 01 -1,0 a 2.5,2.5 0 00 -2.5,-2.5 a 0.5,0.5 0 01 0,-1 a 2.5,2.5 0 00 2.5,-2.5 a 0.5,0.5 0 01 1,0 a 2.5,2.5 0 00 2.5,2.5 a 0.5,0.5 0 01 0,1 a 2.5,2.5 0 00 -2.5,2.5 Z"  fill="#B0F7FF"/>

<g stroke-width="1" fill="none" stroke="blue">
<ellipse cx="17.5" cy="18" rx="6" ry="15"/>
<ellipse cx="17.5" cy="18" rx="12" ry="15"/>
<ellipse cx="17.5" cy="18" rx="15" ry="15"/>

<ellipse cx="17.5" cy="17.5" rx="15.25" ry="1"/>
<!--<ellipse cx="17.5" cy="17" rx="19.25" ry="8.5"/>-->
<ellipse cx="17.5" cy="17.5" rx="18.75" ry="8"/>

</g>
</svg>
