<svg xmlns="http://www.w3.org/2000/svg" viewBox="0 0 36 36">
	<path d="M 8,27 h20 s 2,4 2,6 s -4,3 -12,3 s -12,-1 -12,-3 s 2,-6 2,-6 Z" fill="#66757f"/>
	<path d="M 9,6 c 2,0 2,20 0,20 c -4,0 -5,-1 -4,-10 c 1,-9 1,-10 4,-10 Z" fill="#66757f"/>
	<path d="M 27,6 c 3,0 3,1 4,10 c 1,9 0,10 -4,10 c -2,0 -2,-20 0,-20 Z" fill="#66757f"/>
	<path d="M 8,3 s 1,-3 10,-3 s 10,3 10,3 s 1,6 1,14 s -1,14 -1,14 s -1,2 -10,2 s -10,-2 -10,-2 s -1,-3 -1,-14 s 1,-14 1,-14 Z" fill="#ccd6dd"/>
	<path d="M 28,8 c 0,0.782 -4.273,1.562 -6.139,1.866 c -0.695,2.643 -0.697,8.134 -0.697,8.134 c -0.727,-2.911 -0.396,-6.343 -0.162,-8 h-0.002 s 0,-2 -3,-2 c -2.059,0 -2.705,0.942 -2.907,1.533 c 0.222,1.388 0.712,5.249 -0.093,8.467 c 0,0 -0.001,-5.452 -0.689,-8.106 c -1.763,-0.282 -6.311,-1.087 -6.311,-1.894 c 0,-1 3,-4 10,-4 s 10,3 10,4 Z" fill="#66757f"/>
	<path d="M 14,20 c 0,-1 2,-3 4,-3 s 4,2 4,3 s -1,1 -4,1 s -4,0 -4,-1 Z" fill="#66757f"/>
	<path d="M 12,24 s 2,-2 6,-2 s 6,2 6,2 s -2,-1 -6,-1 s -6,1 -6,1 Z" fill="#66757f"/>
	<path d="M 12,26 c 0,-1 2,-2 6,-2 s 6,1 6,2 s -1,1 -6,1 s -6,0 -6,-1 Z" fill="#66757f"/>
</svg>
