<svg xmlns="http://www.w3.org/2000/svg" viewBox="0 0 36 36">
	<rect width="36" height="36" rx="4" fill="#f4900c"/>
	<g>
		<path d="M 19,24 v4 h-14 v-20 h14 v2 h2 v-4 c 0,-3 -3,-3 -3,-3 h-12 c -3,0 -3,3 -3,3 v24 c 0,3 3,3 3,3 h12 c 3,0 3,-3 3,-3 v-6 h-2 Z" fill="#ffffff"/>
		<g fill="#ffffff">
			<path d="M 14.8413,16.9155 c 0,-1.728 -0.9,-3.285 -2.685,-3.285 s -2.685,1.557 -2.685,3.285 c 0,1.743 0.871,3.285 2.685,3.285 s 2.685,-1.542 2.685,-3.285 ZM 7.2433,16.9155 c 0,-2.971 1.999,-5.256 4.913,-5.256 c 2.871,0 4.913,2.357 4.913,5.256 c 0,2.957 -1.985,5.256 -4.913,5.256 c -2.899,0 -4.913,-2.299 -4.913,-5.256 Z"/>
			<path d="M 18.5264,12.9453 c 0,-0.586 0.4,-1.114 1.114,-1.114 h3.657 c 0.627,0 0.957,0.485 0.957,0.985 c 0,0.486 -0.315,0.985 -0.957,0.985 h-2.628 v2.086 h2.213 c 0.686,0 1.029,0.486 1.029,0.971 c 0,0.5 -0.343,1 -1.029,1 h-2.213 v3.113 c 0,0.714 -0.457,1.115 -1.072,1.115 c -0.614,0 -1.071,-0.401 -1.071,-1.115 v-8.026 Z"/>
			<path d="M 26.2969,12.9453 c 0,-0.586 0.4,-1.114 1.114,-1.114 h3.657 c 0.627,0 0.957,0.485 0.957,0.985 c 0,0.486 -0.315,0.985 -0.957,0.985 h-2.628 v2.086 h2.213 c 0.686,0 1.029,0.486 1.029,0.971 c 0,0.5 -0.343,1 -1.029,1 h-2.213 v3.113 c 0,0.714 -0.457,1.115 -1.072,1.115 c -0.614,0 -1.071,-0.401 -1.071,-1.115 v-8.026 Z"/>
		</g>
	</g>
</svg>
