<svg xmlns="http://www.w3.org/2000/svg" viewBox="0 0 36 36">
	<path d="M 31.898,23.938 a 5,5 0 01 2.102,4.062 a 5,5 0 01 -3.322,4.69 c -1.305,2.531 -3.299,3.31 -4.678,3.31 h-16 c -1.228,0 -2.942,-0.622 -4.225,-2.544 a 5,5 0 01 -2.775,-4.456 a 5,5 0 01 0.609,-2.345 a 5,5 0 01 -1.609,-3.655 a 5,5 0 01 3.433,-4.725 c 1.148,-2.842 2.567,-4.275 2.567,-4.275 l 6,-8 h8 l 6,8 s 3.3,3.32 3.898,9.938 Z"  fill="#FDD888"/> <!-- the bulges are circles, but idk what the base shape is. could figure it out eventually but would take a while.. -->
	<path d="M 18,6 h -3 c -1.656,0 -4,-2.344 -4,-4 c 0,0 0,-2 2,-2 c 0.789,0 1,1 2,1 s 1,-1 3,-1 s 2,1 3,1 s 1.212,-1 2,-1 c 2,0 2,2 2,2 c 0,1.656 -2.343,4 -4,4 h -3 Z"  fill="#FDD888"/> <!--<path d="M 18,6 c -0.549,0 -1.057,-0.158 -1.5,-0.416 c -0.443,0.258 -0.951,0.416 -1.5,0.416 c -1.656,0 -4,-2.344 -4,-4 c 0,0 0,-2 2,-2 c 0.789,0 1,1 2,1 s 1,-1 3,-1 s 2,1 3,1 s 1.212,-1 2,-1 c 2,0 2,2 2,2 c 0,1.656 -2.343,4 -4,4 c -0.549,0 -1.057,-0.158 -1.5,-0.416 c -0.442,0.258 -0.95,0.416 -1.5,0.416 Z"  fill="#FDD888"/>-->
	<rect x="12" y="5" width="12" height="2" rx="1"  fill="#BF6952"/>
	<path d="M 23.901,24.542 c 0,2.687 -2,4.189 -4.398,4.619 c 0.001,0.015 0.009,0.028 0.009,0.045 v1.398 c 0,0.772 -0.651,1.4 -1.455,1.4 s -1.456,-0.628 -1.456,-1.4 v-1.398 l 0.001,-0.01 c -2.665,-0.373 -4.603,-1.711 -4.603,-2.824 c 0,-0.7 0.513,-1.164 1.087,-1.164 c 1.178,0 2.144,1.889 5.045,1.889 c 1.933,0 3.111,-1.046 3.111,-2.093 c 0,-3.02 -8.579,-2.846 -8.579,-7.145 c 0,-2.301 1.821,-3.713 3.937,-4.176 v-1.283 c 0,-0.773 0.651,-1.4 1.456,-1.4 c 0.804,0 1.454,0.627 1.454,1.4 v1.24 c 1.941,0.336 3.965,1.308 3.965,2.592 c 0,0.553 -0.392,1.046 -1.205,1.046 c -1.149,0 -1.601,-1.569 -4.139,-1.569 c -1.51,0 -2.811,0.639 -2.811,1.947 c 0,2.701 8.581,2.409 8.581,6.886 Z"  fill="#67757F"/>
</svg>
