<svg xmlns="http://www.w3.org/2000/svg" viewBox="0 0 36 36">
	<!-- tail -->
	<path d="M 29,6 c 3,1 2,5 -1,5 c -2,0 -4,-2 -4,-4 s 1.5,-5 5,-5 s 6,3 6,7 v15 c 0,5.5 -3,8 -9,8" stroke-linecap="round" stroke-linejoin="round" stroke-width="2" stroke="#BF6952" fill="none"/>
	<!-- body -->
	<path d="M 20,36 c -1,0 -1.5,-0.191 -1.5,-1 c 0,-1.104 0.806,-2 5.5,-2 c 0.187,0 0.365,-0.021 0.541,-0.052 c -0.181,0.018 -0.353,0.052 -0.541,0.052 c -4.83,0 -6,-1.432 -6,-6 c 0,-1.457 0.608,-3.373 0.871,-5.053 c -1.262,2.532 -3.213,4.079 -3.871,6.053 c -0.632,1.897 0,5 2,5 c 1,0 1,3 -2,3 c -2,0 -6,-3 -3,-8 c 2.027,-3.379 5.137,-6.239 5.849,-9.607 c -0.943,-0.448 -2.588,-0.392 -5.319,0.443 c -0.57,0.222 -1.148,0.387 -1.718,0.489 c -0.561,0.121 -1.01,0.159 -1.362,0.13 c -0.014,0 -0.029,0.002 -0.043,0.002 c -3.801,0 -10.58,-5.075 -9.229,-7.058 c 3,-4.399 3.258,-11.399 9.229,-11.399 c 5.714,0 8.517,4.188 8.748,9.305 c 4.098,-0.244 8.159,1.968 10.024,5.695 c 1.879,3.758 2.38,7.726 1.776,10.889 c -0.047,1.432 -0.13,2.638 -0.24,3.655 l -0.317,2.135 c -0.67,3.318 -1.747,3.321 -2.398,3.321 h-7 Z" fill="#BF6952"/>
	<!-- face -->
	<path d="M 9.178,12 c 0,5.428 -4.04,6.318 -5.996,4.909 c -2.174,-1.566 -3.715,-3.466 -3.004,-4.509 c 0.302,-0.444 0.577,-0.914 0.832,-1.4 c 0.659,-1.255 1.622,-2.022 2.655,-2.4 c -0.055,-0.258 -0.087,-0.526 -0.087,-0.8 a 3.8,3.8 0 01 7.6,0 c 0,1.482 -0.858,2.753 -2.097,3.378 c 0.058,0.261 0.097,0.532 0.097,0.822 Z" fill="#D79E84"/>
	<!-- ear -->
	<path d="M 15.5,3 a 3.5,3.5 0 01 0,7 c -1.933,0 -1.678,-1.567 -1.678,-3.5 s -0.255,-3.5 1.678,-3.5 Z" fill="#D79E84"/> <!-- squished circle -->
	<!-- eye -->
	<ellipse rx="1.0855" ry="1.6285" cx="6.34985" cy="8.37135" fill="#292F33"/>
	<!-- mouth -->
	<path d="M 0,13 h0.915 c 1.085,0 3.085,-1.552 3.085,-1 s -2.17,2 -3.085,2 s -0.915,-0.448 -0.915,-1 Z" fill="#642116"/>
</svg>
