<svg xmlns="http://www.w3.org/2000/svg" viewBox="0 0 36 36">
	<!-- wish i had the clip paths and strokes here.. -->
	<path fill="#FFAC33" d="M 35.1504,20.0098 c -0.115,-3.396 -0.216,-7.078 -0.216,-7.078 c 0,-4.97 -7.546,-8.929 -16.934,-8.929 c -9.389,0 -17,4.03 -17,9 c 0,0 -0.101,4.364 -0.101,7.439 c 0,3.074 0.162,5.153 0.162,5.153 c 0.108,1.186 0.511,2.056 1.533,3.211 c 0.41,0.463 1.115,0.891 1.596,1.051 c 0.48,0.159 1.89,-0.48 1.89,-0.48 l 11.92,-4.373 l 4.553,6.831 s 0.506,0.894 1.27,1.258 c 0.763,0.363 1.723,-0.016 2.601,-0.281 c 5.121,-1.549 8.132,-3.981 8.618,-6.461 c 0.118,-0.604 0.215,-3.158 0.108,-6.341 Z"/>
	<g>
		<path fill="#F4900C" d="M 18,4.0034 c -9.389,0 -17,4.03 -17,9 c 0,1.905 1.125,3.668 3.033,5.124 l 13.967,-5.124 l 5.653,8.48 c 6.606,-1.235 11.347,-4.561 11.347,-8.48 c 0,-4.97 -7.611,-9 -17,-9 Z"/>
		<path fill="#994500" d="M 18,4.0034 c -8.836,0 -16,3.806 -16,8.5 c 0,1.941 1.24,3.726 3.304,5.158 l 12.696,-4.658 l 5.042,7.562 c 6.363,-1.123 10.958,-4.306 10.958,-8.062 c 0,-4.694 -7.163,-8.5 -16,-8.5 Z"/>
		<path fill="#662113" d="M 18,4.0034 c -8.317,0 -15.059,3.582 -15.059,8 c 0,1.984 1.369,3.797 3.622,5.195 l 11.437,-4.195 l 4.431,6.646 c 6.154,-1.005 10.628,-4.048 10.628,-7.646 c 0,-4.418 -6.743,-8 -15.059,-8 Z"/>
	</g>
	<path fill="#662113" d="M 23.2295,22.875 c -0.642,-1.016 -5.229,-8.368 -5.229,-8.368 s -10.79,4.011 -12.894,4.766 c -0.993,0.357 -0.757,3.185 -0.701,5.297 c 0.108,4.045 0.485,3.98 1.564,3.5 c 2.427,-1.079 12.031,-4.557 12.031,-4.557 s 3.88,5.852 4.959,7.362 c 0.395,0.552 0.738,1.247 0.81,-2.421 c 0.041,-2.111 0.107,-4.555 -0.54,-5.579 Z"/>
	<g>
		<path fill="#FFAC33" d="M 18.1118,16.1143 s -3.89,0.812 -3.89,4.423 c 0,3.741 3.776,2.212 3.776,2.212 s 2.247,2.843 2.839,-0.357 c 0.573,-3.095 -2.725,-6.278 -2.725,-6.278 Z"/>
		<path fill="#F4900C" d="M 17.9976,18.4336 s -1.78,0.265 -1.78,1.941 c 0,1.739 1.726,1.133 1.726,1.133 s 1.189,1.292 1.403,-0.323 c 0.211,-1.602 -1.349,-2.751 -1.349,-2.751 Z"/>
	</g>
	<g>
		<path fill="#F4900C" d="M 26.5742,31.8662 c -0.054,0 -0.109,-0.009 -0.163,-0.027 c -0.261,-0.09 -0.399,-0.375 -0.31,-0.636 c 0.477,-1.381 0.169,-7.087 -0.178,-8.773 c -0.057,-0.27 0.117,-0.535 0.387,-0.59 c 0.268,-0.063 0.535,0.116 0.591,0.387 c 0.299,1.446 0.744,7.566 0.146,9.302 c -0.072,0.207 -0.266,0.337 -0.473,0.337 Z"/>
		<path fill="#F4900C" d="M 2.5171,27.6592 c -0.24,0 -0.452,-0.173 -0.493,-0.417 c -0.328,-1.961 -0.179,-7.172 0.167,-8.844 c 0.056,-0.271 0.319,-0.444 0.592,-0.388 c 0.27,0.056 0.443,0.32 0.388,0.591 c -0.324,1.565 -0.468,6.638 -0.16,8.475 c 0.045,0.272 -0.139,0.53 -0.411,0.576 c -0.028,0.005 -0.056,0.007 -0.083,0.007 Z"/>
		<path fill="#F4900C" d="M 30.6729,30.0322 c -0.054,0 -0.109,-0.009 -0.163,-0.027 c -0.261,-0.09 -0.399,-0.375 -0.31,-0.636 c 0.477,-1.381 0.17,-7.087 -0.177,-8.773 c -0.057,-0.27 0.117,-0.535 0.387,-0.59 c 0.266,-0.061 0.534,0.116 0.591,0.387 c 0.299,1.447 0.744,7.568 0.145,9.302 c -0.072,0.207 -0.266,0.337 -0.473,0.337 Z"/>
		<path fill="#F4900C" d="M 33.8564,27.2275 c -0.033,0 -0.066,-0.003 -0.1,-0.01 c -0.27,-0.053 -0.446,-0.317 -0.391,-0.589 c 0.351,-1.757 0.268,-6.905 -0.053,-8.46 c -0.057,-0.27 0.117,-0.534 0.388,-0.59 c 0.265,-0.055 0.534,0.117 0.591,0.388 c 0.344,1.667 0.431,6.975 0.054,8.86 c -0.048,0.237 -0.256,0.401 -0.489,0.401 Z"/>
	</g>
	<g fill="#994500">
		<path fill="#994500" d="M 6.3745,16 c -0.109,0 -0.219,-0.036 -0.312,-0.109 c -1.807,-1.444 -2.625,-2.966 -2.429,-4.524 c 0.388,-3.079 4.646,-5.033 4.827,-5.114 c 0.253,-0.116 0.548,-0.002 0.662,0.25 c 0.113,0.251 0.002,0.547 -0.25,0.661 c -0.04,0.018 -3.931,1.806 -4.247,4.329 c -0.148,1.189 0.545,2.405 2.061,3.616 c 0.216,0.173 0.251,0.487 0.079,0.703 c -0.099,0.124 -0.244,0.188 -0.391,0.188 Z"/>
		<path fill="#994500" d="M 26.542,17.6665 c -0.219,0 -0.419,-0.144 -0.481,-0.365 c -0.075,-0.265 0.08,-0.541 0.345,-0.616 c 0.045,-0.013 4.469,-1.294 5.105,-4.29 c 0.617,-2.905 -3.962,-5.002 -4.008,-5.023 c -0.252,-0.113 -0.364,-0.409 -0.251,-0.661 c 0.113,-0.253 0.412,-0.363 0.661,-0.251 c 0.22,0.099 5.358,2.458 4.576,6.144 c -0.762,3.587 -5.606,4.986 -5.812,5.043 c -0.045,0.013 -0.09,0.019 -0.135,0.019 Z"/>
	</g>
	<g fill="#994500">
		<path d="M 16.1016,11.8721 c 0.022,0.002 0.044,0.003 0.066,0.003 c 0.385,0 0.712,-0.295 0.746,-0.685 c 0.036,-0.413 -0.27,-0.776 -0.682,-0.812 l -1.871,-0.162 l 0.748,-2.672 c 1.775,-0.417 2.438,-1.216 2.535,-1.346 c 0.242,-0.326 0.174,-0.775 -0.144,-1.027 c -0.317,-0.251 -0.785,-0.196 -1.046,0.114 c -0.01,0.012 -1.085,1.238 -4.735,0.973 c -0.41,-0.035 -0.772,0.281 -0.803,0.694 c -0.029,0.413 0.281,0.772 0.694,0.802 c 0.394,0.029 0.764,0.042 1.112,0.042 c 0.27,0 0.522,-0.01 0.766,-0.025 l -0.647,2.313 l -1.901,-0.165 c -0.42,-0.041 -0.776,0.269 -0.812,0.682 c -0.035,0.414 0.27,0.777 0.682,0.813 l 0.969,0.083 l -3.492,2.747 c -0.188,0.148 -0.287,0.368 -0.287,0.59 c 0,0.163 0.053,0.326 0.161,0.463 c 0.148,0.188 0.368,0.286 0.59,0.286 c 0.162,0 0.326,-0.052 0.463,-0.16 l 2.736,-2.152 l -0.609,2.175 l 1.736,-0.636 l 0.508,-1.82 l 0.737,1.362 l 1.424,-0.522 l -1.129,-2.087 l 1.485,0.129 Z"/>
		<path d="M 23.7256,18.4951 c 0.146,0.143 0.335,0.213 0.524,0.213 c 0.196,0 0.39,-0.075 0.537,-0.226 c 0.29,-0.296 0.284,-0.771 -0.012,-1.06 c -1.564,-1.526 -1.816,-4.858 -1.819,-4.891 c -0.008,-0.121 -0.05,-0.228 -0.107,-0.325 c 1.071,-2.898 1.251,-5.646 1.263,-5.848 c 0.023,-0.413 -0.292,-0.768 -0.706,-0.792 c -0.414,-0.033 -0.768,0.292 -0.792,0.705 c -0.003,0.067 -0.37,5.63 -3.138,8.946 l 0.862,1.293 c 0.55,-0.604 1.025,-1.274 1.428,-1.977 c 0.297,1.27 0.869,2.897 1.96,3.962 Z"/>
		<path d="M 26.6709,9.8418 c -0.225,-0.347 -0.689,-0.446 -1.037,-0.221 l -1.542,1 c -0.348,0.225 -0.446,0.69 -0.221,1.037 c 0.144,0.222 0.384,0.342 0.63,0.342 c 0.14,0 0.281,-0.039 0.407,-0.12 l 1.542,-1 c 0.348,-0.226 0.447,-0.69 0.221,-1.038 Z"/>
		<path d="M 19.9189,11.23 c 0.147,0.152 0.343,0.229 0.539,0.229 c 0.188,0 0.376,-0.071 0.522,-0.211 c 0.297,-0.289 0.305,-0.764 0.017,-1.061 l -1.291,-1.333 c -0.289,-0.299 -0.764,-0.306 -1.06,-0.018 c -0.298,0.289 -0.306,0.763 -0.018,1.061 l 1.291,1.333 Z"/>
	</g>
</svg>
