<svg xmlns="http://www.w3.org/2000/svg" viewBox="0 0 36 36">
	<defs>
		<clipPath id="rect2">
			<rect x="0" y="0" width="36" height="36" rx="4"/>
		</clipPath>
	</defs>
	
	<g clip-path="url(#rect2)">
		<rect width="36" height="36" fill="#226699"/>
		<circle cx="28.5" cy="7.5" r="5.5" fill="#FFD983"/>
		
		<!--<path d="M 9,16 c -0.03,0 -0.06,-0.001 -0.09,-0.004 c -0.345,-0.031 -0.649,-0.239 -0.805,-0.549 c -1.006,-2.013 -2.259,-4.519 0.063,-8.002 c 1.984,-2.976 4.367,-4.825 6.22,-4.825 c 1.262,0 2.612,0.888 2.612,3.38 c 0,0.265 -0.105,0.52 -0.293,0.707 c -0.697,0.697 -4.512,5.7 -6.907,8.893 c -0.19,0.253 -0.487,0.4 -0.8,0.4 Z" fill="#ffcc4d"/>
		<path d="M 12,24 c -0.038,0 -0.077,-0.002 -0.115,-0.007 c -0.336,-0.039 -0.629,-0.244 -0.78,-0.546 c -1.366,-2.733 -1.029,-5.216 1.095,-8.047 c 1.99,-2.653 3.356,-3.785 4.566,-3.785 c 2.234,0 2.234,3.301 2.234,4.385 c 0,0.265 -0.105,0.52 -0.293,0.707 c -0.766,0.766 -4.219,4.87 -5.939,6.934 c -0.191,0.228 -0.473,0.359 -0.768,0.359 Z" fill="#ffcc4d"/>
		<path d="M 4,37 c -0.552,0 -1,-0.447 -1,-1 c 0,-11.875 5.076,-23.49 14.293,-32.707 c 0.391,-0.391 1.023,-0.391 1.414,0 s 0.391,1.023 0,1.414 c -8.839,8.839 -13.707,19.952 -13.707,31.293 c 0,0.553 -0.448,1 -1,1 Z" fill="#77b255"/>
		<path d="M 4.9995,37 h-0.026 c -0.541,0 -0.974,-0.445 -0.974,-0.988 c 0,-2.42 8.299,-17.76 17.515,-22.88 c 0.483,-0.269 1.091,-0.097 1.36,0.385 c 0.268,0.483 0.094,1.09 -0.389,1.358 c -8.661,4.813 -16.384,19.289 -16.486,21.145 c -0.029,0.532 -0.47,0.98 -1,0.98 Z" fill="#77b255"/>
		<path d="M 2.999,37 c -0.475,0 -0.896,-0.339 -0.983,-0.822 l -0.02,-0.111 c -0.892,-4.914 -2.572,-17.234 1.09,-25.473 c 0.225,-0.505 0.814,-0.734 1.32,-0.508 c 0.505,0.225 0.732,0.815 0.508,1.32 c -3.436,7.731 -1.809,19.573 -0.95,24.305 l 0.02,0.111 c 0.098,0.543 -0.263,1.064 -0.806,1.162 c -0.06,0.011 -0.12,0.016 -0.179,0.016 Z" fill="#77b255"/>
		
		<path d="M 18,27 c -0.552,0 -1,-0.447 -1,-1 c 0,-2.023 -0.489,-2.47 -0.639,-2.558 c -0.609,-0.363 -2.173,0.503 -3.107,1.02 c -0.291,0.16 -0.563,0.31 -0.807,0.433 c -0.494,0.246 -1.094,0.046 -1.342,-0.448 c -0.247,-0.494 -0.046,-1.094 0.448,-1.342 c 0.222,-0.111 0.47,-0.248 0.735,-0.394 c 1.476,-0.815 3.499,-1.929 5.089,-0.991 c 1.092,0.644 1.623,2.044 1.623,4.28 c 0,0.553 -0.448,1 -1,1 Z" fill="#77b255"/>-->
		
		<g fill="#e1e8ed">
			<circle cx="25.5" cy="30.5" r="2.5"/>
			<circle cx="21.5" cy="30.5" r="2.5"/>
			<circle cx="29.5" cy="30.5" r="2.5"/>
			<circle cx="27.5" cy="26.5" r="2.5"/>
			<circle cx="23.5" cy="26.5" r="2.5"/>
			<circle cx="25.5" cy="22.5" r="2.5"/>
		</g>
		<path d="M 18,32 h15 v4 h-15 v-4 Z" fill="#c1694f"/>
		
		<!-- not totally confident with these paths but visually they're fine -->
		<g stroke-width="2" stroke-linecap="round" stroke-linejoin="round" fill="none" stroke="#77b255">
			<path d="M 12,23 c -1,-2 -1.17952,-4.09715 1,-7 c 3,-4 5,-5 5,0 c -1,1 -6,7 -6,7" fill="#ffcc4d" stroke="#ffcc4d"/>
			<path d="M 16,6 c -1,1 -7,9 -7,9 c -1,-2 -2,-4 0,-7 c 3.13,-4.69 7,-6 7,-2" fill="#ffcc4d" stroke="#ffcc4d"/>
			
			<path d="M 12,24 c 2,-1 6,-4 6,2"/>
			<path d="M 4,36 c 0,-3 0,-18 14,-32"/>
			<path d="M 3,36 c -0.3333,-2 -3,-16 1,-25"/>
			<path d="M 5,36 c 0,-2 8,-17 17,-22"/>
		</g>
		<!-- distorted, though this one goes mostly offscreen so could probably be fixed without impact, -->
		<path d="M 1.001,24 c -0.367,0 -0.72,-0.202 -0.896,-0.553 c -0.153,-0.308 -0.331,-0.707 -0.527,-1.15 c -0.418,-0.945 -1.526,-3.446 -2.162,-3.642 c 0.003,0.023 -0.21,0.17 -0.521,0.792 c -0.248,0.493 -0.847,0.694 -1.342,0.448 c -0.494,-0.248 -0.695,-0.675 -0.448,-1.169 c 0.63,-1.26 1.411,-1.726 2.321,-1.726 h0.046 c 1.814,0 2.941,2.415 3.935,4.659 c 0.181,0.411 0.345,0.695 0.488,0.98 c 0.247,0.494 0.046,1.051 -0.448,1.299 c -0.143,0.071 -0.296,0.062 -0.446,0.062 Z" fill="#77b255"/>
	</g>
</svg>
