<svg xmlns="http://www.w3.org/2000/svg" viewBox="0 0 36 36">
	<path d="M 23,4.326 c 0,4.368 9.823,6.651 9.823,13.206 c 0,2.184 -1.099,4.468 -2.192,4.468 h-15.291 c -1.092,0 -2.177,-2.284 -2.177,-4.468 c 0,-6.554 9.837,-8.838 9.837,-13.206 Z"  fill="#F4900C"/>
	<path d="M 5.995,0.326 c 0,1.837 2.828,2.918 2.828,5.675 c 0,0.919 -0.317,2 -0.631,2 h-4.402 c -0.315,0 -0.627,-1.081 -0.627,-2 c 0,-2.757 2.832,-3.838 2.832,-5.675 Z"  fill="#F4900C"/>
	
	<path d="M 35,33.815 c 0,1.207 -0.289,2.185 -2.185,2.185 h-19.66 c -1.895,0 -2.155,-0.978 -2.155,-2.185 v-10.921 c 0,-1.206 0.26,-1.894 2.156,-1.894 h19.66 c 1.895,0 2.184,0.688 2.184,1.894 v10.921 Z"  fill="#FFD983"/>
	<rect x="1" y="31" width="22" height="5" rx="2"  fill="#FFD983"/>
	
	<rect x="3" y="7" width="6" height="28" fill="#FFD983"/>
	
	<path d="M 26,29 v7 h-6 v-7 c 0,-3 1.896,-5 3,-5 s 3,2 3,5 Z"  fill="#662113"/>
	<path d="M 18,31.333 v4.667 h-4 v-4.667 c 0,-2 1.264,-3.333 2,-3.333 s 2,1.333 2,3.333 Z"  fill="#662113"/>
	<path d="M 32,31.333 v4.667 h-4 v-4.667 c 0,-2 1.264,-3.333 2,-3.333 s 2,1.333 2,3.333 Z"  fill="#662113"/>
	
	<rect x="2" y="7" width="8" height="2" rx="1"  fill="#FFAC33"/>
	<rect x="2" y="11" width="8" height="2" rx="1"  fill="#FFAC33"/>
</svg>
