<svg xmlns="http://www.w3.org/2000/svg" viewBox="0 0 36 36">
	<g stroke-width="2" fill="none">
		<circle cx="6.5" cy="29.5" r="4.5" stroke="#99aab5"/>
		<circle cx="29.5" cy="29.5" r="4.5" stroke="#99aab5"/>
		<circle cx="6.5" cy="29.414" r="5.5" stroke="#292f33"/> why are these not at 29.5 ?
		<circle cx="29.5" cy="29.414" r="5.5" stroke="#292f33"/>
	</g>
	<g>
		<g fill="#99aab5">
			<rect width="11" height="2" rx="1" x="19" y="28" fill="#99aab5"/>
			<rect width="11" height="2" rx="1" x="-5.5" y="-1" transform="translate(26.5 26) rotate(51.516)"/>
		</g>
		<g transform="translate(31 27.5) rotate(-21.91)">
			<path d="M 5,0.5 l -0.5,0.5 h-9 l-0.5,-0.5 v-1 l 0.5,-0.5 h9 l 0.5,0.5 v1 Z" fill="#FFFFFF"/>
			<rect width="10" height="1" x="-5" y="-1.5" fill="#ccd6dd"/>
			<rect width="10" height="1" x="-5" y="0.5" fill="#66757f"/>
		</g>
	</g>
	<g>
		<path d="M 6.5,22 a 7.5,7.5 0 01 7.16,5.263 c -1.216,-2.054 -3.756,-1.436 -4.66,0.375 c -1,2 -4,3.413 -2,-0.587 c 1.1,-2.2 -1.433,-3.865 -4.264,-4.031 a 7.5,7.5 0 01 3.764,-1.02 Z" fill="#77b255"/>
		<rect width="2" height="11" rx="1" x="-1" y="-5.5" fill="#ccd6dd" transform="translate(9.5 25) rotate(32.6)"/>
	</g>
	<g>
		<path d="M 34,17 c 2,-1 2,0 2,1 s -2.103,2.368 -4,3 c -3,1 -5,0 -8,3 s -2,7 -2,7 h-7 c -1.563,0 -0.907,-1.335 -0.907,-4 c 0,-1.875 -2.093,-4 -5.093,-6 s 0.718,-3.047 1.529,-3.632 c 0.971,-0.701 2.769,-1.368 4.087,-1.368 c 1.818,0 3.051,1 3.604,1.951 c 1.005,1.729 7.62,0.049 8.62,0.049 s 2.16,-1.449 4.16,-0.449 s 1,0.449 3,-0.551 Z" fill="#77b255"/>
		<path d="M 9,21 c -2.907,-1.476 -5.264,-3.323 -5.264,-4.042 c 0,-1.465 4.456,-5.134 3.975,-4.476 c -1.15,1.573 -0.489,3.476 1.487,3.476 s 2.709,6.518 -0.198,5.042 Z" fill="#77b255"/>
	</g>
	<path d="M 19,18.1372 c 1.366,0.385 5.645,-0.007 6.802,-0.098 c 1.157,-0.09 1.594,0.452 0,1.25 c -1.802,0.901 -5.615,3.161 -6.802,3.625 c -0.998,0.391 -4.5,-1.211 -4.917,-1.696 c -0.416,-0.486 3.745,-3.411 4.917,-3.081 Z" fill="#292f33"/>
	<path d="M 34,17 s 0.256,1.102 -2.451,1.102 s -2.549,-1.102 -1.549,-1.102 s 2.451,0.04 4,0 Z" fill="#292f33"/>
	<circle r="2" cx="19" cy="29" fill="#66757f"/>
	<g>
		<rect width="2" height="4" rx="0.928" x="-1" y="-2" fill="#66757f" transform="translate(10 16) rotate(21.826)"/>
		<rect width="3" height="1" rx="0.5" x="-1.5" y="-0.5" fill="#292f33" transform="translate(11.5 14.5) rotate(-19.85)"/>
	</g>
	<path d="M 8.606,10.5693 c 0.704,0.61 0.345,1.692 -1.045,3.485 c -1.391,1.794 -3.582,2.521 -2.359,0.542 s 3.404,-4.027 3.404,-4.027 Z" fill="#ccd6dd"/>
</svg>
