<svg xmlns="http://www.w3.org/2000/svg" viewBox="0 0 36 36">
	<clipPath id="rect1">
		<path d="M 36,32 s 0,4 -4,4 h-28 s -4,0 -4,-4 v-28 c 0,-4 4,-4 4,-4 h28 c 4,0 4,4 4,4 v28 Z"/> <!--<rect width="36" height="36"/>-->
	</clipPath>
	<g clip-path="url(#rect1)">
		<circle r="999" fill="#88c9f9"/>
		<g fill="#f5f8fa" transform="translate(22 8) scale(0.333) translate(0 -20)"> standard cloud:
			<path d="M 5,20 L 5,15 L 10.5,8.5 L 19.5 6.5 L 28,12 L 28,20 Z"/>
			<circle cx="5" cy="15" r="5"/>
			<circle cx="10.5" cy="8.5" r="4.5"/>
			<circle cx="19.5" cy="6.5" r="6.5"/>
			<circle cx="28" cy="12" r="8"/>
		</g>
		<rect y="19" width="36" height="17" fill="#77b255"/>
		<path d="M 34,36 h-32 l 11.625,-17 h8.75 Z" fill="#d99e82"/>
	</g>
	<g>
		<path d="M 4,36 l 10.625,-17 h6.75 l 10.625,17 h-28 Z" fill="#58595b"/>
		<path d="M 6.625,36 l 8.75,-17 h5.25 l 8.75,17 h-22.75 Z" fill="#808285"/>
	</g>
	<g>
		<path d="M 24,36 h-1 l -4,-17 h0.5 l 4.5,17 Z" fill="#ccd6dd"/>
		<path d="M 17,19 l -4,17 h-1 l 4.5,-17 h0.5 Z" fill="#ccd6dd"/>
		<rect width="14" height="1" x="11" y="33" fill="#808285"/>
		<rect width="14" height="1" x="11" y="30" fill="#808285"/>
		<rect width="12" height="1" x="11.9375" y="27.3125" fill="#808285"/>
		<rect width="10" height="1" x="13" y="25" fill="#808285"/>
		<rect width="8" height="1" x="14" y="23" fill="#808285"/>
		<rect width="6" height="0.6875" x="15" y="21.3125" fill="#808285"/>
		<rect width="6" height="0.6875" x="15" y="19.875" fill="#808285"/>
	</g>
	<g fill="#66757f">
		<rect width="1" height="12" rx="0.5" x="7" y="10"/>
		<rect width="1" height="12" rx="0.5" x="28" y="10"/>
		<rect width="22" height="1" rx="0.5" x="7" y="10"/>
		<rect width="22" height="1" rx="0.5" x="7" y="15"/>
	</g>
	<g>
		<rect width="18" height="6" rx="1" x="9" y="10" fill="#5c913b"/>
		<rect width="2" height="2" x="21" y="11" fill="#a6d488"/>
		<rect width="2" height="2" x="13" y="11" fill="#a6d488"/>
		<rect width="4" height="1" x="12" y="14" fill="#77b255"/>
		<rect width="4" height="1" x="20" y="14" fill="#77b255"/>
	</g>
</svg>
