<svg xmlns="http://www.w3.org/2000/svg" viewBox="0 0 36 36">
	should this one be raised upwards to match the other vehicles?
	<g>
		<rect width="3" height="2" rx="1" x="30" y="22" fill="#f4900c"/>
	</g>
	<g>
		<circle r="4.5" cx="5.5" cy="31.5" fill="#292f33"/>
		<circle r="4.5" cx="29.5" cy="31.5" fill="#292f33"/>
		<circle r="2.5" cx="5.5" cy="31.5" fill="#99aab5"/>
		<circle r="2.5" cx="29.5" cy="31.5" fill="#99aab5"/>
	</g>
	<g>
		<path d="M 5.8535,24.082 l 2.615,-6.989 l -0.469,-1.094 s -0.916,0.008 -1,-1 c -0.083,-1.006 2.408,-3.079 3,-3 c 0.593,0.081 0,2 0,2 s 2.32,0.558 2,2 c -0.319,1.444 -2.375,8.688 -2.375,8.688 s 1.75,0.875 2.375,2.312 c 0.449,1.032 1.681,1.018 3,1 c 1.319,-0.016 4.393,-0.007 5,-2 c 0.607,-1.991 1,-3 1,-3 l -1,-1 l 10,-2 s -0.89,1.982 1,3 c 2.168,1.169 2.861,2.669 4,5 c 0.749,1.534 0.449,1.897 -1,2 c -1.941,0.14 -4.44,0.386 -5.79,0.535 c -1.197,0.134 -2.284,1.651 -4.164,1.651 s -10.052,0.049 -12.046,-0.186 c -3.496,-0.409 -4.758,-3 -10,-3 c -2.072,0 -1.06,-1.563 0.028,-2.665 c 1.209,-1.226 3.801,-2.4 3.826,-2.252 Z" fill="#dd2e44"/>
		<rect width="7" height="4" rx="2" x="17" y="29" fill="#be1931"/>
		<rect width="7" height="2" rx="1" x="13" y="31" fill="#be1931"/>
	</g>
	<rect width="1" height="2" rx="0.5" x="7" y="14" fill="#f4900c"/>
	<g>
		<path d="M 22,22 c -1.618,0 -2.431,0.306 -3,-1 s -0.02,-2 1,-2 s 5.728,-0.181 8,-1 c 2.273,-0.819 3.053,-0.831 3,0 s -1,2 -1,2 s -1.254,2 -8,2 Z" fill="#292f33"/>
	</g>
	<g>
		<rect width="5.25" height="2" rx="1" x="9.75" y="14" fill="#292f33"/>
	</g>
	<g>
		i feel like the rx values here should be 0.5 and 1
		<rect width="1" height="5" x="-0.5" y="-2.5" rx="0.484" transform="translate(11.7334,13.2869) rotate(45)" fill="#292f33"/>
		<rect width="2" height="4" rx="0.937" x="12" y="9" fill="#292f33"/>
	</g>
</svg>
