<svg xmlns="http://www.w3.org/2000/svg" viewBox="0 0 36 36">
	<g>
		<g fill="#66757f">
			<rect width="5" height="4" rx="1" x="30" y="16"/>
			<rect width="2" height="7" x="32" y="18"/>
		</g>
		<g>
			<path d="M 12,21 c -4,0 -6,-1.781 -6,-1.781 s 5,-4.219 10,-4.219 h0.029 l -0.029,5 s 0,1 -4,1 Z" fill="#e1e8ed"/>
			<path d="M 15,20 c 0,3.162 -7.752,-0.899 -7.752,-0.899 c 3.55,-2.691 6.752,-3.058 7.752,-3.058 v3.957 Z" fill="#3b88c3"/>
		</g>
		<g transform="translate(1 18.0859) scale(1 1.1463)">
			<path d="M 0,0 l 31,1 c 1.5,1.5 1,5 1,5 s -22,1 -26,-1 s -6,-5 -6,-5 Z" fill="#ccd6dd"/>
			<path d="M 6,5 c -2.308,-1.15415 -3.945,-2.63718 -4.922,-3.68926 l 30.682,1.0198 c 0.528,1.63308 0.24,3.66946 0.24,3.66946 s -22,1 -26,-1 Z" fill="#f4900c"/> nnm..
		</g>
	</g>
	<rect width="36" height="12" x="0" y="24" fill="#55acee"/>
</svg>
