<svg xmlns="http://www.w3.org/2000/svg" viewBox="0 0 36 36">
	<g fill="#8899A6">
		<rect x="0" y="3" width="36" height="2"/>
		<rect x="0" y="10" width="36" height="2"/>
		<rect x="0" y="17" width="36" height="2"/>
		<rect x="0" y="24" width="36" height="2"/>
		<rect x="0" y="31" width="36" height="2"/>
		<rect x="0" y="4" width="6" height="28"/>
	</g>
	<g>
		<path d="M 27.8276,20.5621 c 0.22,0.673 0.332,1.35 0.332,2.015 c 0,1.092 -0.291,2.102 -0.868,3 c -0.513,0.801 -1.26,1.422 -2.225,1.85 c 0.069,0.362 0.164,0.814 0.288,1.349 c 0.173,0.789 0.299,1.411 0.384,1.869 c 0.086,0.459 0.129,0.924 0.129,1.419 c 0,0.755 -0.189,1.445 -0.559,2.046 c -0.381,0.607 -0.895,1.076 -1.529,1.403 c -0.618,0.323 -1.31,0.487 -2.053,0.487 c -1.031,0 -1.954,-0.296 -2.74,-0.877 c -0.828,-0.623 -1.266,-1.468 -1.306,-2.508 c 0.031,-0.515 0.145,-0.956 0.338,-1.362 c 0.206,-0.432 0.492,-0.785 0.853,-1.051 c 0.346,-0.275 0.789,-0.436 1.3,-0.471 h0.006 c 0.447,0 0.848,0.117 1.226,0.341 c 0.378,0.245 0.671,0.554 0.886,0.929 c 0.218,0.407 0.328,0.835 0.328,1.282 c 0,0.634 -0.22,1.179 -0.653,1.622 c -0.162,0.164 -0.342,0.3 -0.537,0.405 c 0.367,0.051 0.821,0.003 1.289,-0.18 c 0.331,-0.132 0.606,-0.307 0.839,-0.533 c 0.217,-0.208 0.352,-0.418 0.401,-0.621 c 0.139,-0.345 0.198,-0.759 0.198,-1.3 c 0,-0.357 -0.036,-0.732 -0.11,-1.122 c -0.075,-0.388 -0.192,-0.912 -0.349,-1.56 c -0.098,-0.393 -0.181,-0.734 -0.244,-1.022 c -1.376,0.239 -2.789,0.059 -4.02,-0.51 c -0.877,-0.407 -1.66,-0.977 -2.325,-1.695 c -0.662,-0.723 -1.181,-1.547 -1.546,-2.45 c -0.365,-0.92 -0.553,-1.882 -0.561,-2.864 c 0.037,-0.962 0.216,-1.848 0.534,-2.655 c 0.323,-0.83 0.738,-1.613 1.233,-2.323 c 0.501,-0.721 1.019,-1.374 1.539,-1.943 c 0.489,-0.521 1.111,-1.172 1.881,-1.951 c -0.342,-1.313 -0.535,-2.661 -0.576,-4.013 c 0.009,-0.962 0.106,-1.858 0.292,-2.684 c 0.178,-0.834 0.434,-1.556 0.786,-2.2 c 0.341,-0.646 0.754,-1.154 1.224,-1.506 c 0.916,-0.678 1.309,-0.622 1.704,-0.266 c 0.098,0.087 0.228,0.234 0.386,0.431 c 1.085,1.535 1.627,3.369 1.627,5.475 c 0,1.003 -0.131,1.967 -0.399,2.945 c -0.26,0.97 -0.646,1.894 -1.145,2.741 c -0.46,0.777 -1.003,1.474 -1.616,2.076 l 0.533,2.594 c 0.159,-0.017 0.281,-0.026 0.367,-0.026 c 0.722,0 1.371,0.15 1.981,0.459 c 0.604,0.305 1.118,0.72 1.529,1.233 c 0.405,0.496 0.725,1.076 0.948,1.722 ZM 24.7056,25.7401 c 0.726,-0.517 1.081,-1.386 1.081,-2.632 c -0.065,-0.465 -0.215,-0.913 -0.456,-1.302 c -0.243,-0.41 -0.549,-0.715 -0.946,-0.939 c -0.224,-0.13 -0.466,-0.221 -0.726,-0.276 l 1.047,5.149 ZM 23.5466,7.1011 c 0.173,-0.496 0.261,-0.971 0.261,-1.414 c 0,-0.19 -0.017,-0.36 -0.047,-0.494 c -0.031,-0.246 -0.08,-0.383 -0.15,-0.454 c -0.063,-0.058 -0.144,-0.087 -0.259,-0.087 c -0.323,0 -0.64,0.237 -0.944,0.705 c -0.287,0.496 -0.526,1.095 -0.696,1.756 c -0.188,0.717 -0.289,1.396 -0.304,2.081 c 0.021,0.419 0.071,0.811 0.149,1.164 c 0.086,-0.091 0.183,-0.196 0.288,-0.322 c 0.33,-0.386 0.653,-0.842 0.959,-1.359 c 0.314,-0.52 0.563,-1.05 0.743,-1.576 ZM 18.6016,18.5801 c -0.758,1.08 -1.157,2.272 -1.187,3.545 c 0.014,0.525 0.128,1.068 0.341,1.584 c 0.211,0.516 0.525,0.98 0.958,1.423 c 0.852,0.849 1.986,1.304 3.369,1.349 c 0.313,-0.02 0.665,-0.071 1.046,-0.152 l -1.092,-5.508 c -0.223,0.141 -0.441,0.33 -0.655,0.572 c -0.345,0.4 -0.515,0.828 -0.515,1.303 c 0,0.281 0.106,0.626 0.308,0.994 c 0.184,0.341 0.453,0.588 0.821,0.758 c 0.355,0.099 0.579,0.375 0.579,0.72 c 0,0.142 -0.057,0.486 -0.594,0.613 l -0.122,0.029 l -0.12,-0.03 c -0.875,-0.22 -1.604,-0.692 -2.169,-1.4 c -0.563,-0.715 -0.855,-1.538 -0.871,-2.451 c 0.026,-0.991 0.32,-1.897 0.872,-2.717 c 0.479,-0.71 1.084,-1.249 1.801,-1.611 l -0.339,-1.739 c -0.979,0.881 -1.778,1.775 -2.431,2.718 Z" fill="#31373D"/>
	</g>
</svg>
