<svg xmlns="http://www.w3.org/2000/svg" viewBox="0 0 36 36">
	<path d="M 0,34 v-32 s 0,-2 2,-2 h32 c 2,0 2,2 2,2 v32 s 0,2 -2,2 h-32 s -2,0 -2,-2 Z"  fill="#31373D" class="toodark"/>
	<g  fill="#E1E8ED">
		<path d="M 2,33 v-28 h6 v28 s 0,1 -1,1 h-4 c -1,0 -1,-1 -1,-1 Z"/>
		<path d="M 10,33 v-28 h7 v28 s 0,1 -1,1 h-5 c -1,0 -1,-1 -1,-1 Z"/>
		<path d="M 19,33 v-28 h7 v28 s 0,1 -1,1 h-5 c -1,0 -1,-1 -1,-1 Z"/>
		<path d="M 28,33 v-28 h6 v28 s 0,1 -1,1 h-4 c -1,0 -1,-1 -1,-1 Z"/>
	</g>
	<g  fill="#31373D">
		<path d="M 6,23 v-20 h6 v20 s 0,1 -1,1 h-4 c -1,0 -1,-1 -1,-1 Z"/>
		<path d="M 15,23 v-20 h6 v20 s 0,1 -1,1 h-4 c -1,0 -1,-1 -1,-1 Z"/>
		<path d="M 24,23 v-20 h6 v20 s 0,1 -1,1 h-4 c -1,0 -1,-1 -1,-1 Z"/>
	</g>
</svg>
