<svg xmlns="http://www.w3.org/2000/svg" viewBox="0 0 36 36">
	<path fill="#1213BD" d="M 18.146,0 c 4.875,0 9.395,2.177 12.59,5.441 s 5.264,7.881 5.264,12.861 s -2.46,9.198 -5.655,12.462 s -7.324,5.153 -12.199,5.153 s -9.763,-1.113 -12.958,-4.377 s -5.188,-8.257 -5.188,-13.238 s 2.574,-9.38 5.769,-12.644 s 7.502,-5.658 12.377,-5.658 Z"/>
	<path fill="#FFFFFF" d="M 18,5.608 c 3.313,0 6.203,1.845 8.375,4.017 s 3.619,5.062 3.619,8.375 s -1.093,6.559 -3.264,8.73 s -5.417,2.798 -8.73,2.798 s -6.089,-1.095 -8.261,-3.267 s -3.427,-4.948 -3.427,-8.261 s 0.899,-6.445 3.071,-8.617 s 5.304,-3.775 8.617,-3.775 Z"/>
	<path fill="#88C9F9" d="M 18,10.215 c 4.418,0 7.871,3.367 7.871,7.785 s -3.453,8.112 -7.871,8.112 s -7.739,-3.694 -7.739,-8.112 s 3.321,-7.785 7.739,-7.785 Z"/>
	<path fill="#292F33" d="M 18.175,12.990 c 2.665,0 4.9,2.17 4.9,4.835 s -2.235,4.908 -4.9,4.908 s -4.731,-2.243 -4.731,-4.908 s 2.066,-4.835 4.731,-4.835 Z"/>
</svg>
