<svg xmlns="http://www.w3.org/2000/svg" viewBox="0 0 36 36">
	<defs>
		<clipPath id="square1">
			<rect width="36" height="36" rx="4"/>
		</clipPath>
		<clipPath id="tie1">
			<path d="M 19.3408,35.4551 c -0.738,0.726 -1.944,0.726 -2.681,0 l -6.633,-6.529 c -0.737,-0.726 -0.932,-2.033 -0.434,-2.904 l 7.5,-18.447 c 0.499,-0.871 1.315,-0.871 1.814,0 l 7.5,18.447 c 0.498,0.871 0.303,2.178 -0.434,2.904 l -6.632,6.529 Z" fill="#dd2e44"/>
		</clipPath>
		<path id="knot1" d="M 23,5.7778 c 0,1.964 -2.791,7.112 -5,7.112 s -5,-5.148 -5,-7.112 c 0,-1.783 2.791,-2.778 5,-2.778 s 5,0.995 5,2.778 Z"/>
	</defs>
	
	<rect width="36" height="36" rx="4" fill="#88c9f9"/>
	
	<g>
		<g clip-path="url(#tie1)">
			<rect width="36" height="36" fill="#dd2e44"/>
			<use href="#knot1" y="1.778" fill="#a0041e"/>
		</g>
		<use href="#knot1" fill="#dd2e44"/>
	</g>
	
	<g clip-path="url(#square1)">
		<path d="M 0,0 h17 c 1,0 2,0 2,1 c 0,2.209 -8.791,13.005 -11,13.005 c -1.221,0 -5.926,-4.981 -8,-7.751 V 0 Z" fill="#4ca0d3"/>
		<path d="M 17,1 c 0,-1 1,-1 2,-1 h17 v6.254 c -2.074,2.77 -6.779,7.751 -8,7.751 c -2.209,0 -11,-10.796 -11,-13.005 Z" fill="#4ca0d3"/>
		<ellipse cx="18" cy="-0.5" rx="15" ry="3.5" fill="#226699"/>
	</g>
</svg>
