<svg viewBox="0 0 36 36" xmlns="http://www.w3.org/2000/svg">
	<path d="M 7,23 h22 s -1.5,9.5 -2.5,10.5 s -5.5,1.5 -8.5,1.5 s -7.5,-0.5 -8.5,-1.5 s -2.5,-10.5 -2.5,-10.5 Z" fill="#BE1931"/>
	<path d="M 25.512,20.158 c 1.502,5.263 -1.502,11.842 -7.512,11.842 s -9.015,-6.579 -7.512,-11.842 s 13.522,-5.263 15.024,0 Z" fill="#F5F8FA"/>
	<path d="M 24.579,20.158 c 1.316,5.263 -1.316,10.526 -6.579,10.526 s -7.895,-5.263 -6.579,-10.526 s 11.842,-5.263 13.158,0 Z" fill="#292F33"/>
	<path d="M 21.766,24.057 c 0.255,0.089 -1.81,3.008 -3.269,1.55 c -0.058,-0.058 -0.105,-0.114 -0.148,-0.169 v1.218 a 0.344,0.344 0 01 -0.688,0 v-1.218 c -0.043,0.056 -0.09,0.111 -0.148,0.169 c -1.459,1.458 -3.524,-1.461 -3.269,-1.55 c 0.878,-0.306 2.789,-0.147 3.417,0.458 v-4.048 a 0.344,0.344 0 01 0.688,0 v4.048 c 0.628,-0.605 2.539,-0.764 3.417,-0.458 Z"  fill="#77B255"/>
	<ellipse fill="#EA596E" cx="18" cy="23" rx="11" ry="2"/>
	<ellipse fill="#662113" cx="18" cy="23" rx="10.2" ry="1.5"/>
	<path d="M 9.614,23.853 c -0.06,-0.75 -0.096,-1.449 -0.095,-2.047 c 0,-4.453 3.635,-6.633 3.635,-9.904 c 0,-1.09 -1.212,-3.27 -1.212,-5.451 c 0,-2.18 2.423,-5.451 6.058,-5.451 s 6.058,3.271 6.059,5.452 c 0,2.18 -1.212,4.361 -1.212,5.451 c 0,3.271 3.635,5.451 3.635,9.904 c 0,0.597 -0.036,1.296 -0.096,2.046 c -1.842,0.391 -4.909,0.647 -8.386,0.647 s -6.544,-0.256 -8.386,-0.647 Z" fill="#DD2E44"/>
	<path d="M 22.721,5.421 c -1.098,-1.168 -8.344,-1.168 -9.442,0 c 0.664,-1.983 2.515,-3.421 4.721,-3.421 s 4.057,1.438 4.721,3.421 Z" fill="#F5F8FA"/>
	<path d="M 18,24.5 c -1.733,0 -3.36,-0.064 -4.787,-0.177 c -1.159,-1.79 -1.529,-4.195 -0.922,-6.323 c 1.142,-4 3.426,-5 1.142,-9 h9.134 c -2.283,4 0,5 1.142,9 c 0.608,2.128 0.238,4.532 -0.922,6.323 c -1.427,0.113 -3.054,0.177 -4.787,0.177 Z" fill="#F5F8FA"/>
	<path d="M 18,24.5 c -1.312,0 -2.562,-0.037 -3.712,-0.104 c -1.389,-1.533 -1.897,-3.962 -1.288,-6.396 c 1,-4 3,-4 1,-8 h8 c -2,4 0,4 1,8 c 0.609,2.434 0.101,4.863 -1.288,6.396 c -1.15,0.067 -2.4,0.104 -3.712,0.104 Z" fill="#292F33"/>
	<path d="M 20.547,21.347 c 0.173,0.06 -1.223,2.033 -2.209,1.047 c -0.039,-0.039 -0.071,-0.077 -0.1,-0.114 v0.823 a 0.232,0.232 0 01 -0.464,0 v-0.823 c -0.029,0.037 -0.061,0.075 -0.1,0.114 c -0.986,0.986 -2.381,-0.987 -2.209,-1.047 c 0.593,-0.207 1.885,-0.1 2.309,0.309 v-2.736 a 0.232,0.232 0 01 0.464,0 v2.736 c 0.424,-0.409 1.716,-0.516 2.309,-0.309 Z"  fill="#77B255"/>
	<path d="M 16.742,20.931 c -0.144,-0.062 -0.257,-0.194 -0.32,-0.351 l -0.294,-0.768 l -0.757,-0.324 c -0.311,-0.133 -0.436,-0.447 -0.303,-0.757 l 0.317,-0.739 l -0.317,-0.759 c -0.126,-0.314 0.035,-0.666 0.349,-0.792 l 0.76,-0.298 l 0.337,-0.786 c 0.133,-0.311 0.446,-0.436 0.757,-0.303 l 0.757,0.324 l 0.759,-0.317 c 0.157,-0.063 0.328,-0.064 0.472,-0.002 s 0.259,0.19 0.322,0.347 l 0.296,0.764 l 0.769,0.329 c 0.31,0.133 0.436,0.446 0.303,0.757 l -0.337,0.786 l 0.317,0.759 c 0.126,0.314 -0.035,0.666 -0.349,0.792 l -0.76,0.298 l -0.317,0.74 c -0.133,0.31 -0.447,0.436 -0.757,0.303 l -0.769,-0.329 l -0.759,0.317 c -0.158,0.061 -0.332,0.07 -0.476,0.009 Z" fill="#CCD6DD"/>
	<path d="M 20.644,16.498 c 0.311,0.133 0.436,0.446 0.304,0.757 l -0.337,0.786 l 0.021,0.051 c -0.435,-0.039 -1.166,-0.107 -1.585,-0.149 c 0.001,0.016 0.005,0.031 0.005,0.048 c 0,0.351 -0.174,0.659 -0.439,0.849 l 1.206,1.05 l -0.317,0.739 c -0.133,0.31 -0.447,0.436 -0.757,0.303 l -0.735,-0.315 l -0.003,-1.58 h-0.001 c -0.342,0 -0.642,-0.166 -0.833,-0.419 l -1.045,1.195 l -0.001,-0.001 l -0.757,-0.324 c -0.31,-0.133 -0.436,-0.446 -0.303,-0.757 l 0.316,-0.739 h1.576 c 0,-0.288 0.117,-0.55 0.306,-0.739 l -1.104,-1.105 l 0.014,-0.006 l 0.337,-0.786 c 0.133,-0.31 0.446,-0.436 0.757,-0.303 l 0.736,0.315 v1.578 c 0.246,0 0.469,0.088 0.647,0.23 l -0.002,-0.028 s 0.848,-0.701 1.212,-1.012 l 0.013,0.033 l 0.769,0.329 Z" fill="#E1E8ED"/>
	<circle fill="#F4900C" cx="18.006" cy="17.991" r="1.162"/>
	<path d="M 22.721,5.421 a 5,5 0 01 0.279,1.579 a 5,5 0 01 -10,0 a 5,5 0 01 0.279,-1.578 l 4.721,-1.711 l 4.721,1.71 Z" fill="#FFD983"/>
	<path d="M 22.721,5.421 a 5,5 0 01 0.278,1.565 c -2.532,-0.151 -4.999,-2.986 -4.999,-2.986 s -2.467,2.835 -4.999,2.985 a 5,5 0 01 0.278,-1.564 c 2.41,-2.555 7.032,-2.555 9.442,0 Z" fill="#F4900C"/>
	<rect x="16" y="6" width="1" height="2" rx="0.5" fill="#662113"/>
	<rect x="19" y="6" width="1" height="2" rx="0.5" fill="#662113"/>
	<path d="M 18,10.499 c -0.771,0 -1.525,-0.258 -1.557,-0.269 a 0.375,0.375 0 01 0.245,-0.709 c 0.007,0.002 0.67,0.228 1.312,0.228 c 0.646,0 1.305,-0.225 1.311,-0.228 a 0.375,0.375 0 01 0.247,0.709 c -0.034,0.011 -0.787,0.269 -1.558,0.269 Z"  fill="#DD2E44"/>
</svg>
