<svg xmlns="http://www.w3.org/2000/svg" viewBox="0 0 36 36">
	<path d="M 32,0 a 4,4 0 01 4,4 v22 h-36 v-22 a 4,4 0 01 4,-4 h28 Z"  fill="#269"/>
	<path d="M 10,36 v-29 l 4,-4 h2 l 4,4 v29 h-10 Z"  fill="#3F484C"/>
	<path d="M 33,11 v25 h-9 v-25 c 0,-1 1,-1 1,-1 h7 s 1,0 1,1 Z"  fill="#3F484C"/>
	<path d="M 28,19 v17 h-10 v-17 s 0,-1 1,-1 h8 s 1,0 1,1 Z"  fill="#292F33"/>
	<path d="M 11,21 c 1,0 1,1 1,1 v14 h-8 a 4,4 0 01 -4,-4 v-19 h5 c 1,0 1,1 1,1 v7 h5 Z"  fill="#292F33"/>
	<path d="M 32,25 h4 v7 a 4,4 0 01 -4,4 h-1 v-10 s 0,-1 1,-1 Z"  fill="#292F33"/>
	<path d="M 8,31 h2 v2 h-2 v-2 Z"  fill="#FFCC4D"/>
	<path d="M 8,23 h2 v2 h-2 v-2 Z"  fill="#FFCC4D"/>
	<path d="M 6,27 h2 v2 h-2 v-2 Z"  fill="#FFCC4D"/>
	<path d="M 16,9 h2 v2 h-2 v-2 Z"  fill="#FFCC4D"/>
	<path d="M 16,13 h2 v2 h-2 v-2 Z"  fill="#FFCC4D"/>
	<path d="M 14,17 h2 v2 h-2 v-2 Z"  fill="#FFCC4D"/>
	<path d="M 24,20 h2 v2 h-2 v-2 Z"  fill="#FFCC4D"/>
	<path d="M 22,24 h2 v2 h-2 v-2 Z"  fill="#FFCC4D"/>
	<path d="M 20,30 h2 v2 h-2 v-2 Z"  fill="#FFCC4D"/>
	<path d="M 29,12 h2 v2 h-2 v-2 Z"  fill="#FFCC4D"/>
	<path d="M 29,16 h2 v2 h-2 v-2 Z"  fill="#FFCC4D"/>
	
	<path d="
M 6.5,7 
a 2.5,2.5 0 00 0.853,-0.159
a 3,3 0 01 -2.353,1.159 
a 3,3 0 01 0,-6 
a 3,3 0 01 0.784,0.117 
a 2.5,2.5 0 00 -1.784,2.383 
a 2.5,2.5 0 00 2.5,2.5 
Z" fill="#FFF"/>
	<circle cx="10.5" cy="2.5" r=".5" fill="#FFF"/>
	<circle cx="7.5" cy="11.5" r=".5" fill="#FFF"/>
	<circle cx="22" cy="5" r="1" fill="#FFF"/>
	<circle cx="26.5" cy="5.5" r=".5" fill="#FFF"/>
	<circle cx="31" cy="3" r="1" fill="#FFF"/>
	<circle cx="31.5" cy="7.5" r=".5" fill="#FFF"/>
</svg>
