<svg xmlns="http://www.w3.org/2000/svg" viewBox="0 0 36 36">
	<circle r="17" cx="18" cy="18" fill="#000000"/>
	<g>
		<g fill="#ffffff">
			<ellipse rx="3" ry="3.5" cx="20" cy="7.5"/>
			<path d="M 26,13 s 0,-2 -2,-2 h-7 c -1,0 -2,1 -2,1 l -2,2 h-4 s -1,0 -1,1 s 1,1 1,1 h3 h2 l 2,-1.171 v16.171 s 0,1 1,1 h1 s 1,0 1,-1 v-8 s 0,-1 1,-1 s 1,1 1,1 v8 s 0,1 1,1 h1 s 1,0 1,-1 v-9 s 2,0 2,-2 v-7 Z"/>
		</g>
		<g fill="#ffffff">
			eggs..
			<ellipse rx="1.621" ry="1.533" cx="7.621" cy="19.467"/>
			<ellipse rx="1.621" ry="1.533" cx="11.621" cy="22.467"/>
			<ellipse rx="1.621" ry="1.533" cx="9.621" cy="26.467"/>
		</g>
	</g>
	<g stroke="#dd2e44" fill="none">
		<path d="M 6,6 L 30,30" stroke-width="2.5"/>
		<circle r="17" cx="18" cy="18" stroke-width="2"/>
	</g>
</svg>
