<svg xmlns="http://www.w3.org/2000/svg" viewBox="0 0 36 36">
	<circle r="17" cx="18" cy="18" fill="#000000"/>
	<g>
		nnh..
		<!--<path d="M 23.703,17 h-0.017 c -0.407,0 -0.733,-0.261 -0.733,-0.668 c 0,-0.219 0.082,-2.149 2.929,-4.047 c 1.474,-0.984 1.784,-2.61 1.447,-3.721 c -0.315,-1.042 -1.164,-1.63 -2.328,-1.63 c -1.771,0 -2.26,0.957 -2.394,1.524 c -0.169,0.714 0.088,1.28 0.268,1.369 c 0.399,0.199 0.8,0.218 1.075,0.049 c 0.196,-0.122 0.301,-0.331 0.301,-0.606 c 0,-0.415 0.336,-0.75 0.75,-0.75 s 0.75,0.336 0.75,0.75 c 0,0.799 -0.369,1.485 -1.013,1.883 c -0.721,0.446 -1.668,0.451 -2.534,0.018 c -0.907,-0.453 -1.36,-1.766 -1.057,-3.053 c 0.396,-1.675 1.836,-2.675 3.854,-2.675 c 1.844,0 3.251,1.011 3.764,2.704 c 0.601,1.986 -0.243,4.216 -2.051,5.422 c -2.173,1.449 -2.259,2.723 -2.261,2.779 c -0.019,0.402 -0.35,0.652 -0.75,0.652 Z" fill="#ffffff"/> original path, replaced sometime before v2.0.0 to smooth out a kink (the new one looks better but old one might be more useful for determining the original stroke) -->
		<path d="M 23.703,17 h-0.017 c -0.407,0 -0.733,-0.261 -0.733,-0.668 c 0,-0.219 0.082,-2.149 2.929,-4.047 c 1.474,-0.984 1.784,-2.61 1.447,-3.721 c -0.315,-1.042 -1.164,-1.63 -2.328,-1.63 c -1.771,0 -2.26,0.957 -2.394,1.524 c -0.169,0.714 0.046,1.179 0.268,1.369 c 0.325,0.279 0.8,0.218 1.075,0.049 c 0.196,-0.122 0.301,-0.331 0.301,-0.606 c 0,-0.415 0.336,-0.75 0.75,-0.75 s 0.75,0.336 0.75,0.75 c 0,0.799 -0.369,1.485 -1.013,1.883 c -0.721,0.446 -1.832,0.4 -2.557,-0.005 c -0.886,-0.494 -1.337,-1.743 -1.034,-3.03 c 0.396,-1.675 1.836,-2.675 3.854,-2.675 c 1.844,0 3.251,1.011 3.764,2.704 c 0.601,1.986 -0.243,4.216 -2.051,5.422 c -2.173,1.449 -2.259,2.723 -2.261,2.779 c -0.018,0.401 -0.35,0.652 -0.75,0.652 Z" fill="#ffffff"/>
		<g fill="#ffffff">
			<path d="M 22,19 h-16 s -2,0 -2,2 v1 c 0,2 2,2 2,2 h16 v-5 Z"/>
			<path d="M 27,19 h-3 v5 h3 s 2,0 2,-2 v-1 c 0,-2 -2,-2 -2,-2 Z"/>
		</g>
	</g>
	<g stroke="#dd2e44" fill="none">
		<path d="M 6,6 L 30,30" stroke-width="2.5"/>
		<circle r="17" cx="18" cy="18" stroke-width="2"/>
	</g>
</svg>
