<svg xmlns="http://www.w3.org/2000/svg" viewBox="0 0 36 36">
	<!-- similar to ClosedBook -->
	<path d="M 35,26 a 4,4 0 01 -4,4 h-25 a 4,4 0 01 -4,-4 v-19.687 c 0,-2.209 5.791,-6.313 8,-6.313 h19.625 c 3.094,0 5.375,2.312 5.375,5.375 v20.625 Z"   fill="#C1694F"/>
	<path d="M 33,30 a 4,4 0 01 -4,4 h-22 a 4,4 0 01 -4,-4 v-26 a 2,2 0 01 2,-2 h24 a 4,4 0 01 4,4 v24 Z"   fill="#CCD6DD"/>
	<rect x="2" y="4" width="29" height="30" rx="3"  fill="#E1E8ED"/>
	<rect x="3" y="6" width="28" height="30" rx="4"  fill="#C1694F"/>
	<path d="M 6,6 h1 v30 h-2 a 4,4 0 01 -4,-4 v-26.625 c 0,-2.875 3.312,-5.375 7.281,-5.375 h2.719 v2 h-1.562 c -2.313,0 -3.606,0.309 -4.438,1.25 c -0.731,0.828 -0.688,2.75 1,2.75 Z"   fill="#C1694F"/>
	<path d="M 29,32 a 4,4 0 01 -4,4 h-18 v-28 h18.335 c 2.209,0 3.665,1.456 3.665,3.665 v20.335 Z"   fill="#D99E82"/>
	<rect x="11" y="14" width="14" height="6" rx="2"  fill="#E1E8ED"/>
</svg>
