<svg xmlns="http://www.w3.org/2000/svg" viewBox="0 0 36 36">
	<g transform="translate(16.565 18.238) rotate(-45)">
		<path d="M -8.93,0 a 1.5,1.5 0 01 1.5,1.5 v3.06 c 0,0.828 0,1.5 -1.5,1.5 s -1.5,-2.02 -3,-2.02 h-0.75 c -1.5,0 -1.5,2.02 -3,2.02 s -1.5,-0.672 -1.5,-1.5 v-3.06 a 1.5,1.5 0 01 1.5,-1.5 h6.75 Z" fill="#31373D" transform="scale(1.041 1.238)"/>
		
		<path d="M 7,2 h-26.964 a 2,2 0 01 0,-4 h26.469 L 10.5,0 Z"  fill="#67757F"/>
		<path d="M 2,2 a 2,2 0 01 -4,0 v-4 a 2,2 0 01 4,0 v4 Z"   fill="#67757F"/>
		<!-- circles -->
		<path d="M 10.5,-10 a 5.5,5.5 0 11 0,11 a 5.5,5.5 0 11 0,-11 Z M 10.5,-1 a 3.5,3.5 0 10 0,-7 a 3.5,3.5 0 00 0,7 z" fill="#31373D" />
		<path d="M 18.5,-5 a 5.5,5.5 0 11 0,11 a 5.5,5.5 0 11 0,-11 Z M 18.5,4 a 3.5,3.5 0 10 0,-7 a 3.5,3.5 0 00 0,7 z" fill="#31373D" />
		<path d="M 10.5,0 a 5.5,5.5 0 11 0,11 a 5.5,5.5 0 11 0,-11 Z M 10.5,9 a 3.5,3.5 0 10 0,-7 a 3.5,3.5 0 00 0,7 z" fill="#31373D" />
	</g>
	<circle fill="#31373D" cx="26" cy="9" r="1"/> <!-- hack to fill a gap -->
</svg>
