<svg xmlns="http://www.w3.org/2000/svg" viewBox="0 0 36 36">
	<g transform="translate(16.565 18.238) rotate(-45)">
		<path d="M -8.93,0 a 1.5,1.5 0 01 1.5,1.5 v3.06 c 0,0.828 0,1.5 -1.5,1.5 s -1.5,-2.02 -3,-2.02 h-0.75 c -1.5,0 -1.5,2.02 -3,2.02 s -1.5,-0.672 -1.5,-1.5 v-3.06 a 1.5,1.5 0 01 1.5,-1.5 h6.75 Z" fill="#31373D" transform="scale(1.041 1.238)"/>
		
		<path d="M 7,2 h-26.968 a 2,2 0 01 0,-4 h26.468 L 10.5,0 Z"  fill="#66757f"/>
		<path d="M 2,2 a 2,2 0 01 -4,0 v-4 a 2,2 0 01 4,0 v4 Z"   fill="#66757f"/>
		<g>
			<circle fill="#31373D" cx="13" cy=".5" r="1"/> <!-- hack to fill a gap -->
			<!-- circles -->
			<g stroke-width="2" fill="none" stroke="#31373D">
				<circle r="4.5" cx="10.5" cy="5.5"/>
				<circle r="4.5" cx="10.5" cy="-4.5"/>
				<circle r="4.5" cx="18.5" cy="0.5"/>
			</g>
		</g>
	</g>
</svg>
