<svg xmlns="http://www.w3.org/2000/svg" viewBox="0 0 36 36">
	<path d="M 13.241,23.993 c 1.274,-1.617 4.455,-0.891 6.416,0.535 s 3.089,4.337 1.901,5.941 s -4.158,1.96 -6.416,0.416 c -2.258,-1.545 -3.446,-4.931 -1.901,-6.892 Z"  fill="#909B50"/>
	<path d="M 17.696,3.201 c 2.802,0.342 3.208,2.97 2.792,5.703 s -2.436,5.347 -4.693,5.228 s -3.149,-3.446 -2.792,-6.238 s 2.258,-4.99 4.693,-4.693 Z"  fill="#909B50"/>
	
	<path d="M 1.879,32.493 A 0.625 0.625 0 01 0.724,32.011 C 3.117,26.255 6.786,23.366 9.444,21.956 C 11.014,21.123 12.382,19.707 13.48,18.569 C 14.143,17.882 14.716,17.289 15.247,16.897 C 16.604,15.894 21.582,12.402 21.794,12.254 A 0.625 0.625 0 01 22.511,13.278 C 22.46,13.314 17.334,16.909 15.99,17.903 C 15.543,18.234 15.004,18.792 14.38,19.439 C 13.22,20.64 11.776,22.135 10.03,23.061 C 7.554,24.375 4.13,27.079 1.879,32.493 Z"  fill="#C1694F"/>
	<path d="M 6.916,23.929 C 6.906,23.816 6.675,21.127 6.796,19.492 A 0.625 0.625 0 01 8.043,19.583 C 7.929,21.119 8.159,23.793 8.161,23.82 A 0.625 0.625 0 01 6.916,23.929 Z"  fill="#C1694F"/>
	<path d="M 13.199,24.755 L 12.968,24.605 C 12.131,24.06 10.569,23.055 9.805,23.128 A 0.625 0.625 0 01 9.667,21.886 C 10.796,21.769 12.192,22.607 13.65,23.558 L 13.878,23.706 A 0.625 0.625 0 01 13.199,24.755 Z"  fill="#C1694F"/>
	<path d="M 15.068,17.699 C 14.534,16.72 15.256,13.677 15.453,13.187 A 0.625 0.625 0 01 16.613,13.651 C 16.351,14.305 15.982,16.668 16.169,17.107 A 0.625 0.625 0 01 15.068,17.699 Z"  fill="#C1694F"/>
	<path d="M 19.407,20.044 C 17.831,18.896 16.423,18.481 15.101,18.781 A 0.625,0.625 0 01 14.825,17.561 C 16.514,17.179 18.256,17.66 20.142,19.032 A 0.625,0.625 0 01 19.407,20.044 Z"  fill="#C1694F"/>
	<path d="M 23.191,16.503 C 22.171,16.143 20.067,15.62 18.663,15.93 A 0.625,0.625 0 01 18.392,14.709 C 20.466,14.252 23.293,15.212 23.607,15.324 A 0.625,0.625 0 01 23.191,16.503 Z"  fill="#C1694F"/>
	
	<path d="M 34.449,2.845 c 2.5,1.136 -1.426,5.406 -3.624,6.653 c -2.198,1.248 -10.455,5.406 -10.99,5.049 s 3.089,-6.772 6.713,-9.148 s 6.594,-3.148 7.901,-2.554 Z"  fill="#3E721D"/>
	<path d="M 18.944,18.587 c 1.344,-0.504 6.772,1.366 9.386,3.149 c 2.614,1.782 4.04,4.634 2.911,5.584 s -5.822,0.238 -8.792,-2.436 s -4.456,-5.94 -3.505,-6.297 Z"  fill="#3E721D"/>
	<path d="M 9.617,2.964 c 2.225,-0.384 2.851,4.218 2.139,7.782 s -3.802,10.634 -4.337,10.752 c -0.535,0.119 -2.911,-5.822 -2.495,-10.158 c 0.416,-4.337 2.97,-8.079 4.693,-8.376 Z"  fill="#3E721D"/>
	<path d="M 32.341,19.492 c -0.8,2.707 -3.459,2.674 -6.086,1.812 s -4.871,-3.285 -4.381,-5.492 s 3.918,-2.536 6.613,-1.724 c 2.695,0.813 4.549,3.051 3.854,5.404 Z"  fill="#909B50"/>
	<path d="M 27.109,14.505 c 1.928,0.463 3.149,1.248 3.505,1.842 s -0.059,1.248 -0.95,0.594 c -0.891,-0.653 -3.03,-1.485 -4.099,-1.663 c -1.07,-0.179 0.059,-1.13 1.544,-0.773 Z"  fill="#C7CC62"/>
	<path d="M 16,4.228 c 1.399,-0.646 2.673,0 2.614,0.416 s -1.842,0 -2.673,0.891 s -1.96,1.307 -1.723,0.653 s 1.01,-1.604 1.782,-1.96 Z"  fill="#C7CC62"/>
	<path d="M 17.544,24.247 c 1.432,0.102 2.97,2.198 2.436,2.614 s -1.663,-1.663 -2.733,-1.901 c -1.069,-0.237 -1.366,-0.831 0.297,-0.713 Z"  fill="#C7CC62"/>
	</svg>
