<svg xmlns="http://www.w3.org/2000/svg" viewBox="0 0 36 36">
	<g transform="translate(18 0)">
		<path fill="#9268CA" d="M 9,12.964 c 0,3 -3.34,4.144 -2,8.036 c 1.292,3.753 2,6 2,7 c -5,1 -7,6 -7,8 h-4 c 0,-3 -2,-7 -7,-8 c 0,-1 0.708,-3.247 2,-7 c 1.34,-3.892 -2,-5.036 -2,-8.036 s 3.198,-9.355 4,-12.964 h1 c 0,2 -1,9 4,9 s 4,-7 4,-9 h1 c 0.802,3.609 4,9.964 4,12.964 Z"/>
		<path fill="#7450A8" d="M 3,17 c 1.914,0 3.827,-0.007 5.741,-2.635 c -0.554,1.522 -1.825,2.656 -2.024,4.43 c -1.365,-0.795 -5.267,-0.795 -6.717,-0.795 s -5.352,0 -6.717,0.795 c -0.199,-1.774 -1.47,-2.908 -2.024,-4.43 c 1.914,2.628 3.827,2.635 5.741,2.635 h3 h3 Z"/>
		<path fill="#7450A8" d="M -8.495,25.569 c 2.611,1.327 7.495,4.955 7.495,10.431 h-1 c 0,-3 -2,-7 -7,-8 c 0,-0.494 0.175,-1.296 0.505,-2.431 Z"/>
		<path fill="#7450A8" d="M 9,28 c -5,1 -7,6 -7,8 h-1 c 0,-5.476 4.884,-9.104 7.495,-10.431 c 0.33,1.135 0.505,1.937 0.505,2.431 Z"/>
		
		<path fill="#78B159" d="M 6.694,19 c -0.019,0.311 0.003,0.645 0.061,1 h-13.51 c 0.058,-0.355 0.08,-0.689 0.061,-1 h13.388 Z"/>
		<path fill="#78B159" d="M 7,21 c 0.251,0.729 0.473,1.383 0.678,2 h-15.356 c 0.205,-0.617 0.427,-1.271 0.678,-2 h14 Z"/>
	</g>
	i believe one of these is an elliptical arc with radii 21.0 and 13.66? at -4,36
</svg>
