<svg xmlns="http://www.w3.org/2000/svg" viewBox="0 0 36 36">
	<path d="M 0,29 v-22 a 4,4 0 01 4,-4 h6.563 c 5.437,0 4.875,5 8.437,5 h9 a 4,4 0 01 4,4 v17 a 4,4 0 01 -4,4 h-24 a 4,4 0 01 -4,-4 Z" fill="#226699"/>
	TODO: this is skewed by like  6.7° 
	<path d="M 32.3359,12 c 2.209,0 3.818,1.791 3.594,4 l -1.524,13 c -0.224,2.209 -2.197,4 -4.406,4 h-26 c -0.228,0 -0.423,-0.023 -0.6,-0.061 c -1.922,-0.291 -3.4,-1.935 -3.4,-3.939 c 0,-0.05 0.01,-0.097 0.012,-0.146 c -0.032,0.636 0.431,1.143 1.074,1.143 c 0.628,0 1.185,-0.393 1.3,-0.999 l 0.02,0.002 l 0.524,-4.126 l 0.492,-3.874 c 0.225,-2.209 2.197,-4 4.406,-4 h9 c 3.563,0 3.508,-5 8.946,-5 h6.562 Z" fill="#55acee"/>
</svg>
