<svg xmlns="http://www.w3.org/2000/svg" viewBox="0 0 36 36">
	<circle r="4" cx="18" cy="27" fill="#269"/> <!-- not exactly correct but nhhh -->
	<rect width="36" height="23" rx="4" y="7" fill="#269"/>
	<rect x="16" y="7" width="4" height="22" rx="2"  fill="#292F33"/>
	<rect x="2" y="6" width="16" height="22" rx="2"  fill="#99AAB5"/>
	<rect x="18" y="6" width="16" height="22" rx="2"  fill="#99AAB5"/>
	<path d="M 18,26 c -1,-2 -3.657,-2 -4,-2 c -2,0 -5,2 -8,2 c -1,0 -2,-0.896 -2,-2 v-16 c 0,-1.104 1,-2 2,-2 c 3.255,0 6,-2 8,-2 c 3,0 4,1.896 4,3 v19 Z"  fill="#E1E8ED"/>
	<path d="M 18,26 v-19 c 0,-1.104 1,-3 4,-3 c 2,0 4.744,2 8,2 c 1,0 2,0.896 2,2 v16 c 0,1.104 -1,2 -2,2 c -3,0 -6,-2 -8,-2 c -0.343,0 -3,0 -4,2 Z"  fill="#CCD6DD"/>
</svg>
