<svg xmlns="http://www.w3.org/2000/svg" viewBox="0 0 36 36">
	<path d="M 22,33 c 0,2.209 -8,2.209 -8,0 v-10 a 4,4 0 01 8,0 v10 Z" fill="#C1694F"/>
	<path d="M 2,11 a 8,8 0 01 8,-8 a 8,8 0 01 8,8 v12 h-16 v-12 Z" fill="#292f33"/>
	you again..
	<g>
		<path d="M 20,18.7607 c 0,1.236 -1.065,2.239 -2.293,2.239 h-15.414 c -1.229,0 -2.293,-1.003 -2.293,-2.239 v-10.521 c 0,-1.237 1.064,-2.24 2.293,-2.24 h15.414 c 1.228,0 2.293,1.003 2.293,2.24 v10.521 Z" fill="#ccd6dd"/>
		<path d="M 6.6367,12.7959 c 0.217,-0.219 0.568,-0.219 0.787,0 c 0.216,0.219 0.216,0.573 0,0.792 l -6.729,6.764 c -0.28,-0.268 -0.483,-0.608 -0.596,-0.984 l 6.538,-6.572 Z" fill="#99aab5"/>
		<path d="M 13.3638,12.7959 l 6.537,6.572 c -0.113,0.376 -0.316,0.716 -0.596,0.984 l -6.728,-6.764 c -0.217,-0.219 -0.217,-0.573 0,-0.792 c 0.218,-0.219 0.569,-0.219 0.787,0 Z" fill="#99aab5"/>
		<path d="M 17.707,6 c 1.228,0 2.293,1.003 2.293,2.239 v1.407 l -8.105,8.126 c -1.054,1.061 -2.77,1.061 -3.822,0 l -8.073,-8.114 v-1.419 c 0,-1.236 1.064,-2.239 2.293,-2.239 h15.414 Z" fill="#99aab5"/>
		<path d="M 17.707,6 c 1.17,0 2.182,0.914 2.275,2.07 l -8.41,8.346 c -0.868,0.875 -2.276,0.909 -3.145,0.035 l -8.407,-8.396 c 0.101,-1.149 1.107,-2.055 2.273,-2.055 h15.414 Z" fill="#e1e8ed"/>
	</g>
	<path d="M 26,3 a 8,8 0 01 8,8 v12 h-8 h-8 v-12 a 8,8 0 00 -8,-8 h16 Z" fill="#99aab5"/>
	<g fill="#DD2E44" transform="translate(22 15)">
		<rect width="4" height="14" rx="2" x="-2" y="-12"/>
		<rect width="8" height="6" rx="2" x="-2" y="-14"/>
	</g>
</svg>
