<svg xmlns="http://www.w3.org/2000/svg" viewBox="0 0 36 36">
	<path d="M 36,32 h-8 v-5 c 0,-1 -1,-1 -1,0 c 0,7 -4,6 -4,6 l -2,2 l -1,-1 c 0,-0.552 -1.448,-1 -2,-1 s -2,0.448 -2,1 l -1,1 l -2,-2 s -4,1 -4,-6 c 0,-1 -1,-1 -1,0 v5 h-8 c 0,-12 2,-28 18,-28 s 18,16 18,28 Z"  fill="#E26000"/>
	<circle fill="#E26000" cx="18" cy="13.5" r="11.5"/>
	<path d="M 6.5,19.607 c 0,-2.366 0.974,-4.536 2.596,-6.235 c -0.023,-0.244 -0.04,-0.491 -0.04,-0.747 c 0,-4.763 2.044,-8.625 8.944,-8.625 s 8.944,3.862 8.945,8.625 c 0,0.256 -0.017,0.503 -0.04,0.747 c 1.621,1.699 2.595,3.869 2.595,6.235 c 0,5.444 -7.667,7.393 -11.5,7.393 s -11.5,-1.949 -11.5,-7.393 Z"  fill="#C45400"/>
	
	<path d="M 32,31 c 3,0 4,1 4,1 v1 a 1,1 0 01 -2,0 a 1,1 0 01 -2,0 a 1,1 0 01 -2,0 a 1,1 0 01 -2,0 v-1 s 1,-1 4,-1 Z" fill="#D9B981"/>
	<path d="M 4,31 c 3,0 4,1 4,1 v1 a 1,1 0 01 -2,0 a 1,1 0 01 -2,0 a 1,1 0 01 -2,0 a 1,1 0 01 -2,0 v-1 s 1,-1 4,-1 Z" fill="#D9B981"/>
	<path d="M 17.295,33 c -0.235,2.224 -5,4 -6,2 c -0.247,-0.494 -2.341,-4.936 -2.535,-5.453 a 1,1 0 01 1.873,-0.701 a 1,1 0 01 1.873,-0.701 a 1,1 0 01 1.873,-0.701 a 1,1 0 01 1.873,-0.701 c 0.193,0.514 1.148,5.263 1.043,6.257 Z" fill="#D9B981"/>
	<path d="M 18.705,33 c -0.105,-0.994 0.85,-5.743 1.043,-6.257 a 1,1 0 01 1.873,0.701 a 1,1 0 01 1.873,0.701 a 1,1 0 01 1.873,0.701 a 1,1 0 01 1.873,0.701 c -0.194,0.517 -2.288,4.959 -2.535,5.453 c -1,2 -5.765,0.224 -6,-2 Z" fill="#D9B981"/>
	
	<path d="M 8,17.571 c 0,-2.057 0.847,-3.944 2.257,-5.421 c -0.02,-0.212 -0.035,-0.427 -0.035,-0.65 c 0,-4.142 1.778,-7.5 7.778,-7.5 s 7.778,3.358 7.778,7.499 c 0,0.223 -0.015,0.438 -0.035,0.65 c 1.41,1.478 2.257,3.365 2.257,5.422 c 0,4.734 -6.667,6.429 -10,6.429 s -10,-1.695 -10,-6.429 Z"  fill="#D9B981"/>
	
	<path d="M 13,19 s 1.5,1.5 5,1.5 s 5,-1.5 5,-1.5" stroke-linecap="round" stroke-linejoin="round" stroke-width="1" stroke="#292F33" fill="none"/>
	
	<circle fill="#292F33" cx="16" cy="11" r="1"/>
	<circle fill="#292F33" cx="20" cy="11" r="1"/>
	
	
	<path d="M 0,0 c 0,-1.65 1.35,-3 3,-3" stroke-linecap="round" stroke-linejoin="round" stroke-width="1" fill="none" transform="translate(12.67 10.573) rotate(14.63)" stroke="#FFE8B6"/>
	<path d="M 0,0 c 0,-1.65 1.35,-3 3,-3" stroke-linecap="round" stroke-linejoin="round" stroke-width="1" fill="none" transform="matrix(-1 0 0 1 23.33 10.573) rotate(14.63)" stroke="#FFE8B6"/>
	
	<circle fill="#C09154" cx="17.5" cy="13.5" r=".5"/>
	<circle fill="#C09154" cx="18.5" cy="13.5" r=".5"/>
	
	<path d="M 13,5 s 2,-1 5,-1 s 5,1 5,1 l -2,3 l -1,-1 l -2,3 l -2,-3 l -1,1 l -2,-3 Z"  fill="#C09154"/>
	<path d="M 13,5 s 2,-2 5,-2 s 5,2 5,2 l -2,2 l -1,-2 l -2,3 l -2,-3 l -1,2 l -2,-2 Z"  fill="#E26000"/>
</svg>
