<svg xmlns="http://www.w3.org/2000/svg" viewBox="0 0 36 36">
	<defs>
		<path id="arm" d="M 13.34155,16.8943 c 1.589,-0.049 3.203,2.0275 2.5035,3.314 c -1.1195,2.061 -4.1345,2.0865 -5.7395,1.1835 c -1.79,-1.007 -3.732,-4.1575 -2.647,-5.2435 c 2.266,2.68 4.7105,0.783 5.883,0.746 Z"/>
		<clipPath id="body2">
			<path d="M -5,-6 h10 s 3.74313,15.48821 1,20 c -1.64204,2.70187 -3.2386,4 -6,4 s -4.56437,-1.18176 -6,-4 c -2.74351,-5.38616 1,-20 1,-20 Z" transform="translate(12.603 12.603) rotate(-45) scale(1.112)"/>
		</clipPath>
		
		<path id="whisker1" d="M 3.4124,15.3229 c -0.047,0.265 -0.299,0.441 -0.564,0.393 c -0.264,-0.0475 -0.44,-0.301 -0.393,-0.5645 c 0.408,-2.269 1.793,-3.891 3.707,-4.339 c 0.2605,-0.06 0.5225,0.1015 0.584,0.363 c 0.061,0.262 -0.1015,0.523 -0.3625,0.584 c -1.524,0.3565 -2.6345,1.689 -2.9715,3.5635 Z"/>
		<path id="whisker2" d="M 5.1141,15.967 c -0.268,0.02 -0.5005,-0.1825 -0.5205,-0.4495 c -0.0785,-1.0835 0.4925,-2.498 1.5865,-3.008 c 0.243,-0.1125 0.532,-0.008 0.646,0.235 c 0.113,0.243 0.0085,0.533 -0.2355,0.646 c -0.6705,0.3135 -1.078,1.3395 -1.0275,2.056 c 0.019,0.27 -0.1815,0.501 -0.449,0.5205 Z"/>
		<path id="mouth" d="M 10.0933,9.52345 c 0.489,0.739 0.386,1.9395 -0.249,2.9205 c -0.556,0.858 -1.3875,1.2885 -2.2235,1.1495 c -0.224,-0.037 -0.3755,-0.2485 -0.3385,-0.473 c 0.037,-0.224 0.2495,-0.3755 0.473,-0.3385 c 0.724,0.1205 1.22,-0.509 1.399,-0.7855 c 0.4415,-0.6805 0.5525,-1.5675 0.2535,-2.019 c -0.1255,-0.1895 -0.0735,-0.4445 0.116,-0.57 c 0.189,-0.1255 0.4445,-0.0735 0.5695,0.116 Z"/>
	</defs>
	
	<g transform="translate(12.603 12.603) rotate(-45) scale(1.112)">
		tail
		<path d="M 0,11 c 1.1046,0 2,1.5816 2,6 s -0.8954,12 -2,12 s -2,-7.5816 -2,-12 s 0.8954,-6 2,-6 Z" fill="#A78E81"/>
		body
		<path d="M -5,-6 h10 s 3.74313,15.48821 1,20 c -1.64204,2.70187 -3.2386,4 -6,4 s -4.56437,-1.18176 -6,-4 c -2.74351,-5.38616 1,-20 1,-20 Z" fill="#A78E81"/>
		face
		<g>
			ears
			<path d="M 4,-9 c 1,-1 2,-1 2,0 c 0,2 -1,3 -2,3 v-3 Z" fill="#A78E81"/>
			<path d="M -4,-9 v3 c -1,0 -2,-1 -2,-3 c 0,-1 1,-1 2,0 Z" fill="#A78E81"/>
			head
			<path d="M 0,-2 c -3.977,0 -6,-1.2385 -6,-4 s 2.023,-5 6,-5 s 6,2.2385 6,5 s -2.023,4 -6,4 Z" fill="#A78E81"/>
			<path d="M 0,0 c -3.977,0 -6,-3 -6,-4.5556 c 0,-2.45457 4,-2.4444 6,-2.4444 s 6,-0.01017 6,2.4444 c 0,1.5556 -2.023,4.5556 -6,4.5556 Z" fill="#CAB8AC"/>
			eyes
			<circle r="1" cx="3" cy="-7" fill="#292F33"/>
			<circle r="1" cx="-3" cy="-7" fill="#292F33"/>
			nose
			<path d="M 2,-6 a 2,2 0 01 -2,2 a 2,2 0 01 -2,-2 c 0,-1.105 0.895,-1 2,-1 s 2,-0.105 2,1 Z" fill="#292F33"/>
		</g>
	</g>
<!--	
	 body 
	<path d="M 3.954,11.816 l 7.862,-7.862 s 15.121,9.234 16.513,14.938 c 0.833,3.416 0.598,5.691 -1.573,7.863 s -4.519,2.66 -7.863,1.573 c -6.392,-2.079 -14.939,-16.512 -14.939,-16.512 Z"  fill="#A78E81"/>
	 head 
	<path d="M 12.603,3.167 c 2.171,2.171 1.554,4.736 -1.573,7.863 s -5.692,3.744 -7.863,1.573 s -2.34,-5.523 0.787,-8.649 s 6.477,-2.958 8.649,-0.787 Z"  fill="#A78E81"/>

	 tail 
	<path d="M 27.542,24.397 c 3.474,3.474 8.731,10.139 7.863,11.008 c -0.868,0.868 -7.534,-4.389 -11.008,-7.863 s -4.014,-5.422 -3.145,-6.29 c 0.868,-0.869 2.816,-0.329 6.29,3.145 Z"  fill="#A78E81"/>
	<path d="M 25.635,28.904 s -2.941,-3.675 -5.023,-4.289 c 3.706,0.582 4.248,-1.879 4.125,-4.043 c 0.429,2.349 2.838,3.758 4.186,5.044 c -2.113,-1.623 -3.573,-1.491 -4.186,-0.878 c -0.603,0.603 -0.123,2.532 0.898,4.166 Z"  fill="#846659"/>
	 face 
	<path d="M 13.738,4.303 c 1.223,1.223 1.991,5.173 -1.136,8.3 s -7.076,2.359 -8.3,1.136 c -1.93,-1.93 1.223,-5.067 2.796,-6.64 s 4.71,-4.726 6.64,-2.796 Z"  fill="#CAB8AC"/>

-->
<path fill="#A78E81" d="M 16.1294,26.8516 c 4.231,5.36 8.793,7.808 10.465,6.52 c 1.623,-1.25 -0.324,-2.578 -2.173,-6.955 c -1.937,-4.58 -10.528,-2.397 -8.292,0.435 Z"/>
<path fill="#A78E81" d="M 26.8496,16.0703 c 5.36,4.231 7.804,8.858 6.516,10.53 c -1.25,1.623 -2.578,-0.324 -6.954,-2.174 c -4.581,-1.936 -2.394,-10.592 0.438,-8.356 Z"/>
		
	 legs
	<path fill="#846659" d="M 25.6348,28.9043 c -1.021,-1.634 -1.501,-3.563 -0.898,-4.166 c 0.612,-0.612 2.072,-0.745 4.185,0.878 c -1.348,-1.286 -3.757,-2.695 -4.185,-5.043 c 0.122,2.164 -0.419,4.625 -4.125,4.043 c 2.083,0.612 5.023,4.288 5.023,4.288 Z"/>
	
	arms 
	<g clip-path="url(#body2)" fill="#846659">
		<use href="#arm" transform="translate(1.1628,1.356)"/>
		<use href="#arm" transform="matrix(0 1 1 0 0 0) translate(1.1628,1.356)"/>
	</g>
	<g fill="#CAB8AC">
		<use href="#arm"/>
		<use href="#arm" transform="matrix(0 1 1 0 0 0)"/>
	</g>
	mouth 
	<g fill="#A78E81">
		<use href="#mouth"/>
		<use href="#mouth" transform="matrix(0 1 1 0 0 0)"/>
		
		<!--<path d="M 10.0937,9.5236 c 0.489,0.739 0.386,1.939 -0.249,2.92 c -0.488,0.752 -1.186,1.176 -1.914,1.176 c -0.103,0 -0.207,-0.009 -0.31,-0.026 c -0.224,-0.037 -0.376,-0.249 -0.338,-0.473 c 0.037,-0.224 0.25,-0.375 0.473,-0.338 c 0.722,0.12 1.22,-0.51 1.399,-0.786 c 0.441,-0.681 0.552,-1.568 0.253,-2.019 c -0.125,-0.19 -0.073,-0.444 0.116,-0.57 s 0.445,-0.074 0.57,0.116 Z"/>
		<path d="M 10.0929,9.5233 c 0.207,0.312 0.308,0.706 0.308,1.132 c 0,0.582 -0.189,1.222 -0.557,1.789 c -0.556,0.858 -1.387,1.288 -2.223,1.149 c -0.224,-0.037 -0.375,-0.248 -0.339,-0.473 c 0.037,-0.224 0.249,-0.376 0.473,-0.339 c 0.726,0.121 1.22,-0.508 1.399,-0.785 c 0.442,-0.68 0.553,-1.567 0.254,-2.019 c -0.126,-0.189 -0.074,-0.445 0.116,-0.57 c 0.189,-0.125 0.444,-0.073 0.569,0.116 Z"/>
		
		
		<path d="M 10.6553,10.4009 c -0.426,0 -0.82,-0.101 -1.132,-0.308 c -0.189,-0.125 -0.241,-0.38 -0.116,-0.569 c 0.125,-0.19 0.381,-0.242 0.57,-0.116 c 0.452,0.299 1.339,0.188 2.019,-0.254 c 0.277,-0.179 0.906,-0.673 0.785,-1.399 c -0.037,-0.224 0.115,-0.436 0.339,-0.473 c 0.225,-0.036 0.436,0.115 0.473,0.339 c 0.139,0.836 -0.291,1.667 -1.149,2.223 c -0.567,0.368 -1.207,0.557 -1.789,0.557 Z"/>-->
	</g>
	whiskers
	<g fill="#66757f">
		<use href="#whisker1"/>
		<use href="#whisker1" transform="matrix(0 1 1 0 0 0)"/>
		<use href="#whisker2"/>
		<use href="#whisker2" transform="matrix(0 1 1 0 0 0)"/>
		<!--<path d="M 3.4062,15.3295 c -0.042,0.235 -0.247,0.4 -0.478,0.4 c -0.028,0 -0.057,-0.002 -0.086,-0.007 c -0.264,-0.048 -0.44,-0.301 -0.393,-0.565 c 0.408,-2.269 1.793,-3.891 3.707,-4.339 c 0.26,-0.059 0.522,0.102 0.584,0.363 c 0.061,0.262 -0.102,0.523 -0.363,0.584 c -1.524,0.356 -2.634,1.689 -2.971,3.564 Z"/> orig big left
		<path d="M 3.4186,15.3163 c -0.047,0.265 -0.299,0.441 -0.564,0.393 c -0.264,-0.047 -0.44,-0.301 -0.393,-0.564 c 0.408,-2.269 1.793,-3.891 3.707,-4.339 c 0.261,-0.061 0.523,0.101 0.584,0.363 c 0.009,0.037 0.013,0.074 0.013,0.111 c 0,0.221 -0.151,0.42 -0.375,0.473 c -1.524,0.357 -2.635,1.689 -2.972,3.563 Z"/> flip big right-->
		<!--<path d="M 5.1078,15.9736 c -0.012,0.001 -0.024,0.001 -0.036,0.001 c -0.252,0 -0.466,-0.195 -0.484,-0.451 c -0.079,-1.078 0.492,-2.498 1.586,-3.008 c 0.244,-0.112 0.532,-0.008 0.646,0.235 c 0.113,0.243 0.008,0.533 -0.235,0.646 c -0.671,0.313 -1.08,1.335 -1.028,2.056 c 0.02,0.268 -0.181,0.501 -0.449,0.521 Z"/> orig small left
		<path d="M 5.1204,15.9604 c -0.268,0.02 -0.501,-0.182 -0.521,-0.449 c -0.078,-1.089 0.493,-2.498 1.587,-3.008 c 0.242,-0.113 0.532,-0.008 0.646,0.235 c 0.03,0.066 0.045,0.136 0.045,0.205 c 0,0.184 -0.104,0.358 -0.281,0.441 c -0.67,0.314 -1.076,1.344 -1.027,2.056 c 0.018,0.272 -0.182,0.501 -0.449,0.52 Z"/> flip small right-->
	</g>
</svg>
