<svg xmlns="http://www.w3.org/2000/svg" viewBox="0 0 36 36">
	<defs>
		<path id="arm" d="M 13.34155,16.8943 c 1.589,-0.049 3.203,2.0275 2.5035,3.314 c -1.1195,2.061 -4.1345,2.0865 -5.7395,1.1835 c -1.79,-1.007 -3.732,-4.1575 -2.647,-5.2435 c 2.266,2.68 4.7105,0.783 5.883,0.746 Z"/>
		<clipPath id="body2">
			<path d="M -5,-6 h10 s 3.74313,15.48821 1,20 c -1.64204,2.70187 -3.2386,4 -6,4 s -4.56437,-1.18176 -6,-4 c -2.74351,-5.38616 1,-20 1,-20 Z" transform="translate(12.603 12.603) rotate(-45) scale(1.112)"/>
		</clipPath>
		
		<path id="whisker1" d="M 6.27315,11.2859 c -1.719,0.40225 -2.96675,1.8795 -3.33925,3.95125"/>
		<path id="whisker2" d="M 6.38535,12.95 c -0.88225,0.41175 -1.3715,1.632 -1.307,2.532"/>
		<path id="mouth" d="M 7.68805,13.1877 c 0.78,0.12975 1.44375,-0.40025 1.81125,-0.9675 c 0.53825,-0.83075 0.64525,-1.8745 0.25125,-2.46975"/>
	</defs>
	
	<g transform="translate(12.603 12.603) rotate(-45) scale(1.112)">
		tail
		<path d="M 0,11 c 1.1046,0 2,1.5816 2,6 s -0.8954,12 -2,12 s -2,-7.5816 -2,-12 s 0.8954,-6 2,-6 Z" fill="#A78E81"/>
		body
		<path d="M -5,-6 h10 s 3.74313,15.48821 1,20 c -1.64204,2.70187 -3.2386,4 -6,4 s -4.56437,-1.18176 -6,-4 c -2.74351,-5.38616 1,-20 1,-20 Z" fill="#A78E81"/>
		face
		<g>
			ears
			<path d="M 4,-9 c 1,-1 2,-1 2,0 c 0,2 -1,3 -2,3 v-3 Z" fill="#A78E81"/>
			<path d="M -4,-9 v3 c -1,0 -2,-1 -2,-3 c 0,-1 1,-1 2,0 Z" fill="#A78E81"/>
			head
			<path d="M 0,-2 c -3.977,0 -6,-1.2385 -6,-4 s 2.023,-5 6,-5 s 6,2.2385 6,5 s -2.023,4 -6,4 Z" fill="#A78E81"/>
			<path d="M 0,0 c -3.977,0 -6,-3 -6,-4.5556 c 0,-2.45457 4,-2.4444 6,-2.4444 s 6,-0.01017 6,2.4444 c 0,1.5556 -2.023,4.5556 -6,4.5556 Z" fill="#CAB8AC"/>
			eyes
			<circle r="1" cx="3" cy="-7" fill="#292F33"/>
			<circle r="1" cx="-3" cy="-7" fill="#292F33"/>
			nose
			<path d="M 2,-6 a 2,2 0 01 -2,2 a 2,2 0 01 -2,-2 c 0,-1.105 0.895,-1 2,-1 s 2,-0.105 2,1 Z" fill="#292F33"/>
		</g>
	</g>
	
	legs
	<g>
		<path fill="#A78E81" d="M 16.1294,26.8516 c 4.231,5.36 8.793,7.808 10.465,6.52 c 1.623,-1.25 -0.324,-2.578 -2.173,-6.955 c -1.937,-4.58 -10.528,-2.397 -8.292,0.435 Z"/>
		<path fill="#A78E81" d="M 26.8496,16.0703 c 5.36,4.231 7.804,8.858 6.516,10.53 c -1.25,1.623 -2.578,-0.324 -6.954,-2.174 c -4.581,-1.936 -2.394,-10.592 0.438,-8.356 Z"/>
		<path fill="#846659" d="M 25.6348,28.9043 c -1.021,-1.634 -1.501,-3.563 -0.898,-4.166 c 0.612,-0.612 2.072,-0.745 4.185,0.878 c -1.348,-1.286 -3.757,-2.695 -4.185,-5.043 c 0.122,2.164 -0.419,4.625 -4.125,4.043 c 2.083,0.612 5.023,4.288 5.023,4.288 Z"/>
	</g>
	
	arms 
	<g clip-path="url(#body2)" fill="#846659">
		<use href="#arm" transform="translate(1.1628,1.356)"/>
		<use href="#arm" transform="matrix(0 1 1 0 0 0) translate(1.1628,1.356)"/>
	</g>
	<g fill="#CAB8AC">
		<use href="#arm"/>
		<use href="#arm" transform="matrix(0 1 1 0 0 0)"/>
	</g>
	
	<g>
		mouth 
		<g stroke="#A78E81" stroke-width="0.8224" fill="none" stroke-linecap="round">
			<use href="#mouth"/>
			<use href="#mouth" transform="matrix(0 1 1 0 0 0)"/>
		</g>
		whiskers
		<g stroke="#66757f" stroke-width="0.9723" fill="none" stroke-linecap="round">
			<use href="#whisker1"/>
			<use href="#whisker1" transform="matrix(0 1 1 0 0 0)"/>
			<use href="#whisker2"/>
			<use href="#whisker2" transform="matrix(0 1 1 0 0 0)"/>
		</g>
	</g>
</svg>
