<svg xmlns="http://www.w3.org/2000/svg" viewBox="0 0 36 36">
	<!-- body -->
	<path d="M 3.954,11.816 l 7.862,-7.862 s 15.121,9.234 16.513,14.938 c 0.833,3.416 0.598,5.691 -1.573,7.863 s -4.519,2.66 -7.863,1.573 c -6.392,-2.079 -14.939,-16.512 -14.939,-16.512 Z"  fill="#A78E81"/>
	<!-- ears -->
	<path d="M 2.381,8.671 l 2.358,2.359 c -0.786,0.787 -2.358,0.787 -3.931,-0.786 c -0.786,-0.787 0,-1.573 1.573,-1.573 Z"  fill="#A78E81"/>
	<path d="M 8.671,2.381 c 0,-1.573 0.786,-2.359 1.573,-1.573 c 1.573,1.573 1.573,3.145 0.786,3.931 l -2.359,-2.358 Z"  fill="#A78E81"/>
	<!-- head -->
	<path d="M 12.603,3.167 c 2.171,2.171 1.554,4.736 -1.573,7.863 s -5.692,3.744 -7.863,1.573 s -2.34,-5.523 0.787,-8.649 s 6.477,-2.958 8.649,-0.787 Z"  fill="#A78E81"/>
	<!-- legs -->
	<path d="M 16.129,26.852 c -2.235,-2.832 6.355,-5.015 8.291,-0.435 c 1.85,4.376 3.798,5.704 2.174,6.954 c -1.672,1.288 -6.234,-1.159 -10.465,-6.519 Z"  fill="#A78E81"/>
	<path d="M 26.85,16.07 c 5.36,4.231 7.803,8.858 6.516,10.53 c -1.25,1.624 -2.578,-0.324 -6.954,-2.174 c -4.581,-1.936 -2.394,-10.591 0.438,-8.356 Z"  fill="#A78E81"/>
	<!-- tail -->
	<path d="M 27.542,24.397 c 3.474,3.474 8.731,10.139 7.863,11.008 c -0.868,0.868 -7.534,-4.389 -11.008,-7.863 s -4.014,-5.422 -3.145,-6.29 c 0.868,-0.869 2.816,-0.329 6.29,3.145 Z"  fill="#A78E81"/>
	<path d="M 25.635,28.904 s -2.941,-3.675 -5.023,-4.289 c 3.706,0.582 4.248,-1.879 4.125,-4.043 c 0.429,2.349 2.838,3.758 4.186,5.044 c -2.113,-1.623 -3.573,-1.491 -4.186,-0.878 c -0.603,0.603 -0.123,2.532 0.898,4.166 Z"  fill="#846659"/>
	<!-- arms -->
	<path d="M 17.008,21.564 c -0.937,1.726 -3.194,2.013 -4.85,1.534 c -1.376,-1.523 -2.69,-3.188 -3.848,-4.765 c 0.007,-0.333 0.102,-0.62 0.311,-0.829 c 2.266,2.68 4.711,0.782 5.883,0.746 c 1.59,-0.049 3.203,2.027 2.504,3.314 Z"  fill="#846659"/>
	<path d="M 18.25,14.504 c 0.036,-1.172 1.933,-3.617 -0.746,-5.882 c 0.193,-0.193 0.453,-0.286 0.753,-0.306 c 1.605,1.179 3.306,2.51 4.851,3.882 c 0.463,1.651 0.168,3.88 -1.544,4.81 c -1.286,0.699 -3.363,-0.915 -3.314,-2.504 Z"  fill="#846659"/>
	<path d="M 13.341,16.895 c 1.589,-0.049 3.203,2.028 2.504,3.314 c -1.12,2.061 -4.135,2.086 -5.74,1.183 c -1.79,-1.007 -3.732,-4.157 -2.646,-5.243 c 2.265,2.68 4.709,0.783 5.882,0.746 Z"  fill="#CAB8AC"/>
	<path d="M 16.894,13.342 c 0.036,-1.172 1.933,-3.617 -0.746,-5.882 c 1.086,-1.086 4.236,0.856 5.243,2.646 c 0.903,1.605 0.878,4.62 -1.183,5.74 c -1.286,0.699 -3.363,-0.915 -3.314,-2.504 Z"  fill="#CAB8AC"/>
	<!-- face -->
	<path d="M 13.738,4.303 c 1.223,1.223 1.991,5.173 -1.136,8.3 s -7.076,2.359 -8.3,1.136 c -1.93,-1.93 1.223,-5.067 2.796,-6.64 s 4.71,-4.726 6.64,-2.796 Z"  fill="#CAB8AC"/>
	<!-- mouth -->
	<path d="M 10.655,10.401 c -0.426,0 -0.82,-0.101 -1.132,-0.308 c -0.189,-0.125 -0.241,-0.38 -0.116,-0.57 s 0.38,-0.242 0.57,-0.116 c 0.452,0.299 1.339,0.188 2.019,-0.253 c 0.276,-0.179 0.906,-0.674 0.785,-1.399 c -0.037,-0.224 0.114,-0.436 0.338,-0.473 c 0.225,-0.036 0.436,0.114 0.473,0.338 c 0.139,0.836 -0.291,1.668 -1.15,2.224 c -0.565,0.368 -1.205,0.557 -1.787,0.557 Z"  fill="#A78E81"/>
	<path d="M 7.931,13.619 c -0.103,0 -0.207,-0.009 -0.31,-0.026 c -0.224,-0.038 -0.376,-0.249 -0.338,-0.473 s 0.251,-0.375 0.473,-0.338 c 0.722,0.121 1.22,-0.509 1.399,-0.786 c 0.441,-0.681 0.553,-1.568 0.253,-2.019 c -0.125,-0.189 -0.074,-0.444 0.116,-0.57 c 0.189,-0.126 0.445,-0.074 0.57,0.116 c 0.489,0.739 0.387,1.939 -0.249,2.92 c -0.488,0.753 -1.187,1.176 -1.914,1.176 Z"  fill="#A78E81"/>
	<!-- nose/eyes -->
	<path d="M 9.457,6.312 c 0.868,0.868 0.868,2.277 0,3.145 s -2.277,0.868 -3.145,0 s -0.082,-1.49 0.787,-2.358 s 1.49,-1.655 2.358,-0.787 Z"  fill="#292F33"/>
	<circle fill="#292F33" cx="4.74" cy="9.457" r="1.112"/>
	<circle fill="#292F33" cx="9.457" cy="4.74" r="1.112"/>
	<!-- whiskers -->
	<path d="M 2.928,15.73 c -0.028,0 -0.057,-0.002 -0.086,-0.008 c -0.264,-0.047 -0.44,-0.3 -0.393,-0.564 c 0.407,-2.269 1.793,-3.891 3.707,-4.338 c 0.261,-0.06 0.523,0.102 0.584,0.363 c 0.061,0.262 -0.101,0.523 -0.363,0.584 c -1.524,0.356 -2.634,1.689 -2.971,3.564 c -0.042,0.233 -0.246,0.399 -0.478,0.399 Z" fill="#67757F"/>
	<path d="M 5.072,15.974 c -0.253,0 -0.466,-0.195 -0.484,-0.451 c -0.079,-1.078 0.493,-2.498 1.586,-3.008 c 0.244,-0.113 0.533,-0.009 0.646,0.235 c 0.113,0.243 0.009,0.533 -0.235,0.646 c -0.671,0.313 -1.08,1.335 -1.028,2.056 c 0.02,0.268 -0.181,0.501 -0.449,0.52 c -0.013,0.002 -0.024,0.002 -0.036,0.002 Z" fill="#67757F"/>
	<path d="M 11.28,6.765 c -0.037,0 -0.074,-0.004 -0.111,-0.013 c -0.262,-0.061 -0.424,-0.323 -0.363,-0.584 c 0.448,-1.914 2.07,-3.299 4.338,-3.707 c 0.264,-0.047 0.517,0.129 0.564,0.393 s -0.128,0.517 -0.393,0.564 c -1.875,0.337 -3.207,1.447 -3.564,2.971 c -0.05,0.225 -0.25,0.376 -0.471,0.376 Z" fill="#67757F"/>
	<path d="M 12.944,6.877 c -0.069,0 -0.139,-0.015 -0.205,-0.046 c -0.244,-0.113 -0.348,-0.403 -0.235,-0.646 c 0.51,-1.093 1.919,-1.664 3.008,-1.586 c 0.268,0.019 0.469,0.253 0.449,0.52 c -0.019,0.267 -0.248,0.468 -0.52,0.449 c -0.712,-0.048 -1.742,0.357 -2.056,1.028 c -0.083,0.177 -0.258,0.281 -0.441,0.281 Z" fill="#67757F"/>
</svg>
