<svg xmlns="http://www.w3.org/2000/svg" viewBox="0 0 36 36">
	WIP, see below
	<g>
		<path d="M 15.2026,31.5566 c 0.332,0.619 0.104,1.391 -0.514,1.724 l -3.358,1.816 c -0.618,0.334 -1.389,0.103 -1.724,-0.514 c -0.333,-0.62 -0.104,-1.391 0.514,-1.725 l 0.282,-0.154 h-1.408 a 1.272,1.27 0 01 -1.272,-1.27 a 1.272,1.273 0 01 1.272,-1.273 h2.544 s 0,-3.817 1.272,-5.088 l 1.272,-1.273 c 1.272,0 0,1.841 0,2.544 c 0,0 -1.443,2.545 0.589,4.717 c 0.214,0.112 0.408,0.267 0.531,0.496 Z" fill="#ffac33"/>
		<path d="M 20.7988,31.5566 c 0.123,-0.229 0.317,-0.384 0.53,-0.496 c 2.034,-2.172 0.589,-4.717 0.589,-4.717 c 0,-0.703 -1.271,-2.544 0,-2.544 l 1.273,1.273 c 1.272,1.271 1.272,5.088 1.272,5.088 h2.544 a 1.271,1.273 0 01 1.271,1.273 a 1.271,1.27 0 01 -1.271,1.27 h-1.408 l 0.281,0.154 c 0.62,0.334 0.848,1.105 0.515,1.725 c -0.336,0.617 -1.106,0.848 -1.726,0.514 l -3.356,-1.816 c -0.618,-0.333 -0.847,-1.105 -0.514,-1.724 Z" fill="#ffac33"/>
	</g>
	<g>
		<path d="M 7.3169,11 s 11.834,8.042 7.833,12.8 c -4,4.758 -6.875,5.2 -6.875,5.2 s -6.681,-8.917 -0.958,-18 Z" fill="#662113"/>
		<path d="M 28.6592,11 c 5.723,9.083 -0.958,18 -0.958,18 s -2.874,-0.442 -6.875,-5.2 s 7.833,-12.8 7.833,-12.8 Z" fill="#662113"/>
		<path d="M 29.5625,12.7378 c 0,10.297 -3.152,20.595 -11.563,20.595 c -8.409,0 -11.562,-10.298 -11.562,-20.595 c 0,-10.298 5.177,-10.654 11.562,-10.654 c 6.387,0 11.563,0.356 11.563,10.654 Z" fill="#662113"/>
		<path d="M 28.2783,11.2915 s -7.963,-5.242 -6.744,-7.667 c 0.963,-1.916 6.744,-2.875 6.744,-2.875 s 2.891,4.45 0,10.542 Z" fill="#662113"/>
		<path d="M 7.7217,11.2915 c -2.891,-6.092 0,-10.542 0,-10.542 s 5.782,0.959 6.746,2.875 c 1.218,2.425 -6.746,7.667 -6.746,7.667 Z" fill="#662113"/>
	</g>
	<g>
		<path d="M 27.666,17.7383 c 0,10.297 -7.774,14.595 -9.666,14.595 s -9.666,-4.298 -9.666,-14.595 c 0,-10.298 19.332,-10.298 19.332,0 Z" fill="#c1694f"/>
	</g>
	<g>
		<path d="M 14.9287,4.3735 c 1.997,0.749 3.071,2.306 3.071,5.001 c 0,3.914 -4.665,4.59 -7.301,3.963 c -1.964,-0.466 -3.458,-2.525 -3.904,-4.662 c -1.149,-4.705 0.927,-7.926 0.927,-7.926 s 2.98,2.04 7.207,3.624 Z" fill="#c1694f"/>
	</g>
	<g>
		<path d="M 21.0713,4.3735 c 4.227,-1.584 7.206,-3.624 7.206,-3.624 s 2.076,3.221 0.928,7.926 c -0.446,2.137 -1.94,4.196 -3.903,4.662 c -2.637,0.627 -7.302,-0.049 -7.302,-3.963 c 0,-2.695 1.074,-4.252 3.071,-5.001 Z" fill="#c1694f"/>
	</g>
	this one was scaled from 36x36 down to 34.5x34.5 for some reason.
	I'm not sure which parts were aligned initially or what other scaling took place here though.
	ideally it should be scaled back up to fill the bounding box.
	<g transform="translate(18 18) scale(0.958333) translate(-18 -18)">
		eyes
		<g>
			<circle r="4" cx="12" cy="8" fill="#ffd983"/>
			<circle r="4" cx="24" cy="8" fill="#ffd983"/>
			<circle r="2" cx="12" cy="8" fill="#292f33"/>
			<circle r="2" cx="24" cy="8" fill="#292f33"/>
		</g>
		beak
		<g>
			<path d="M 21,12.5 c 0,2.48535 -3,3.5 -3,3.5 s -3,-1.01465 -3,-3.5 s 3,-3.5 3,-3.5 s 3,1.01465 3,3.5 Z" fill="#ffcc4d"/>
			<path d="M 21,12.5 c 0,2.48535 -3,3.5 -3,3.5 s -3,-1.01465 -3,-3.5 c 1.25,1.25 3,1.5 3,1.5 s 1.75,-0.25 3,-1.5 Z" fill="#f4900c"/>
		</g>
	</g>
</svg>
