<svg xmlns="http://www.w3.org/2000/svg" viewBox="0 0 36 36">
	the paths on this one are surprisingly clean
	
	<g>
		<path fill="#662113" d="M 33.4941,16.3779 c 0.091,1.91 3.313,4.003 2.202,6.16 c -0.505,0.981 -1.306,1.277 -1.904,1.682 c -0.104,0.641 1.31,1.199 0.478,2.684 c -0.207,0.37 -2.243,0.958 -2.796,2.246 c -0.462,1.082 -2.396,0.916 -3.368,1.548 c -0.069,0.065 -0.138,0.128 -0.209,0.191 c -0.054,0.054 -0.122,0.098 -0.165,0.163 c 0,0 0.005,-0.02 0.007,-0.027 c -1.213,1.05 -2.201,1.552 -3.567,0.899 c -1.805,-0.862 -2.306,0.205 -3.09,0.535 c -1.206,0.507 -3.224,0.92 -4.396,-0.208 c -0.492,-0.475 -1.865,-0.758 -3.564,-0.268 c -1.573,0.455 -5.049,-0.385 -5.347,-3.534 c -1.011,-3.407 -2.162,-4.859 -2.162,-6.17 c 0,-2 -1.643,-2.753 -1.643,-2.753 s -2.08,-0.474 -1.961,-1.781 c 0.129,-1.409 -1.396,-2.466 -1.396,-5.466 c 0,0 32.654,-0.667 32.881,4.099 Z"/>
		<path fill="#C1694F" d="M 0.613,8.279 c 1,-3 5,-4 8,-4 s 13,1 16,3 s 9,7 9,8 s 2,4 2,5 s -1,3 -2,3 s 1,1 0,3 c -0.447,0.895 -4,3 -5,3 s -2,2 -3,2 s -3,-1 -4,0 s -3,1 -5,0 s -3,0 -4,0 s -4,-2 -4,-3 s -1,-6 -2,-7 s -2,-4 -4,-5 s -3,-5 -2,-8 Z"/> <!-- ooh! -->
	</g>
	<g>
		<path fill="#CCD6DD" d="M 3.127,8.1416 c 1.817,-2.312 4.486,-2.862 7.486,-2.862 s 12,1 15,3 c 1.543,1.029 3.616,2.851 5.265,4.514 c 1.557,1.571 2.735,3 2.735,3.486 c 0,1 2,3 2,4 s -1,2 -2,2 s -0.607,1.799 -1,4 c -0.221,1.246 -2.845,2.24 -4,2 c -0.978,-0.204 -2,2 -3,2 s -3,-1 -4,0 s -2,2 -4,1 s -3,-1 -4,-1 s -4,-1 -4,-2 s -1,-6 -2,-7 s -2,-4 -4,-5 s -2.44,-5.652 -0.486,-8.138 Z"/>
		<path fill="#E1E8ED" d="M 4.2007,9.0498 c 1.984,-2.462 5.422,-2.395 8.422,-2.395 s 9.633,0.395 12.633,2.395 s 7.358,6.229 7.358,7.229 s 2.302,3.579 2.302,4.579 s -1.302,0.421 -2.302,0.421 s 0.495,2.945 -0.505,4.945 c -0.448,0.894 -2.495,1.055 -3.495,1.055 s -1.946,2.496 -2.946,2.496 s -3.054,-1.496 -4.054,-0.496 s -1.541,2.734 -3.541,1.734 s -3.583,-2.216 -4.459,-1.734 c -1.652,0.909 -3,-1 -3,-2 s -1.698,-6.578 -2.698,-7.578 s -1.302,-3.871 -3.302,-4.871 s -1.633,-4.266 -0.413,-5.78 Z"/>
	</g>
	<g>
		<path fill="#FFAC33" d="M 3.4863,8.3921 c 1.232,-2.293 5.088,-2.356 7.216,-2.265 c 2.127,0.09 8.418,0.996 10.083,2.99 c 1.665,1.993 3.886,3.625 5.273,4.259 s 5.457,2.084 5.365,4.078 c -0.092,1.993 -1.573,2.809 -1.573,2.809 s 2.128,1.993 1.111,3.534 c -1.018,1.54 -4.903,2.084 -6.569,1.087 c -1.665,-0.997 -3.237,1.088 -5.92,0.634 c -2.682,-0.453 -4.995,-1.541 -6.845,-4.802 c -1.85,-3.262 -4.811,-5.346 -6.383,-6.706 c -1.573,-1.359 -2.683,-3.896 -1.758,-5.618 Z"/>
		<path fill="#FFD983" d="M 26.8936,23.6279 c -0.579,0 -1.096,-0.122 -1.45,-0.343 c -0.57,-0.354 -1.154,-0.526 -1.784,-0.526 c -0.644,0 -1.214,0.181 -1.765,0.355 c -0.568,0.18 -1.105,0.35 -1.766,0.35 c -0.22,0 -0.455,-0.02 -0.707,-0.064 c -2.894,-0.506 -4.914,-1.975 -6.358,-4.619 c -1.521,-2.784 -3.504,-4.195 -5.099,-5.33 c -0.552,-0.393 -1.03,-0.733 -1.414,-1.077 c -1.199,-1.077 -2.088,-2.871 -1.499,-4.01 c 0.492,-0.951 1.611,-1.375 3.627,-1.375 c 0.511,0 1.01,0.025 1.472,0.048 l 0.407,0.019 c 4.172,0.185 7.588,1.072 8.501,2.207 c 1.848,2.297 4.961,4.532 6.5,5.261 c 0.261,0.125 0.595,0.262 0.968,0.414 c 0.905,0.371 3.314,1.355 3.279,2.14 c -0.05,1.128 -1.015,1.536 -1.124,1.579 l -2.397,0.937 l 2.125,1.461 c 0.57,0.394 1.31,1.219 1.137,1.491 c -0.391,0.617 -1.533,1.082 -2.653,1.082 Z"/>
	</g>
	
	<ellipse rx="3.5865" ry="2.143" cx="16.8663" cy="15.1841" fill="#FFAC33"/>
	<g>
		<circle r="3.5" cx="16.8662" cy="12.4028" fill="#E1E8ED"/>
		<ellipse rx="2.1655" ry="1.832" cx="16.8667" cy="11.2285" fill="#FFFFFF"/>
	</g>
</svg>
