<svg xmlns="http://www.w3.org/2000/svg" viewBox="0 0 36 36">
	<rect x="0" y="5" width="36" height="26" rx="4"  fill="#31373D"/>
	<rect x="2" y="7" width="32" height="16" rx="2"  fill="#C6E5B3"/>
	<rect x="2" y="25" width="12" height="4" rx="2"  fill="#66757F"/>
	<rect x="16" y="25" width="12" height="4" rx="2"  fill="#66757F"/>
	<circle fill="#DD2E44" cx="32" cy="27" r="2"/>
	<path d="M24.616 16.138c-.291 0-.416-.196-.416-.351 0-.131.048-.202.083-.262l1.332-2.414c.131-.238.297-.345.606-.345.345 0 .684.22.684.761v1.826h.101c.232 0 .416.155.416.393 0 .238-.184.392-.416.392h-.101v.506c0 .315-.125.464-.428.464s-.428-.149-.428-.464v-.506h-1.433zm1.433-2.444h-.012l-.803 1.659h.815v-1.659zm-5.744 1.171c0-.961.372-2.17 1.563-2.17 1.192 0 1.563 1.209 1.563 2.17s-.372 2.171-1.563 2.171c-1.191 0-1.563-1.209-1.563-2.171zm2.206 0c0-.448-.041-1.368-.643-1.368s-.643.92-.643 1.368c0 .419.041 1.368.643 1.368.602.001.643-.949.643-1.368zm-5.781 1.201c-.291 0-.416-.196-.416-.351 0-.131.048-.202.083-.262l1.332-2.414c.131-.238.297-.345.606-.345.345 0 .684.22.684.761v1.826h.101c.232 0 .416.155.416.393 0 .238-.184.392-.416.392h-.101v.506c0 .315-.125.464-.428.464s-.428-.149-.428-.464v-.506H16.73zm1.433-2.444h-.012l-.803 1.659h.815v-1.659zm-5.744 1.315c0-.961.372-2.17 1.563-2.17 1.192 0 1.563 1.209 1.563 2.17s-.372 2.171-1.563 2.171c-1.191-.001-1.563-1.21-1.563-2.171zm2.206 0c0-.448-.041-1.368-.643-1.368s-.643.92-.643 1.368c0 .419.041 1.368.643 1.368s.643-.95.643-1.368zm-5.781 1.201c-.291 0-.416-.196-.416-.351 0-.131.048-.202.083-.262l1.332-2.414c.131-.238.297-.345.606-.345.345 0 .684.22.684.761v1.826h.101c.232 0 .416.155.416.393 0 .238-.184.392-.416.392h-.101v.506c0 .315-.125.464-.428.464s-.428-.149-.428-.464v-.506H8.844zm1.433-2.444h-.012l-.803 1.659h.815v-1.659z" fill="#77B255"/>
</svg>
