<svg xmlns="http://www.w3.org/2000/svg" viewBox="0 0 36 36">
	<path d="M 21,2 l10,10 h-10 v-10 z" fill="#E1E8ED"/>
	<path d="M 31,11 L 22,2" stroke-linecap="round" fill="none" stroke-width="4" stroke="#E1E8ED"/>
	
	<path d="M 22,0 v9 c 0,1 1,2 2,2 h9 v21 a 4,4 0 01 -4,4 h-22 a 4,4 0 01 -4,-4 v-28 a 4,4 0 01 4,-4 h15 Z"   fill="#CCD6DD"/>
	<path d="M 22,0 v9 c 0,1 1,2 2,2 h9 v2 h-9 a 4,4 0 01 -4,-4 v-9 h2 Z"   fill="#99AAB5"/>
	<rect x="7" y="7" width="10" height="2" rx="1"  fill="#99AAB5"/>
	<rect x="7" y="11" width="10" height="2" rx="1"  fill="#99AAB5"/>
	<rect x="7" y="15" width="22" height="2" rx="1"  fill="#99AAB5"/>
	<rect x="7" y="19" width="22" height="2" rx="1"  fill="#99AAB5"/>
	<rect x="7" y="23" width="22" height="2" rx="1"  fill="#99AAB5"/>
	<rect x="7" y="27" width="22" height="2" rx="1"  fill="#99AAB5"/>
</svg>
