<svg xmlns="http://www.w3.org/2000/svg" viewBox="0 0 36 36">
	<rect x="0" y="5" width="36" height="26" rx="4"  fill="#31373D" class="toodark"/>
	<rect x="2" y="25" width="12" height="4" rx="2"  fill="#66757F"/>
	<rect x="16" y="25" width="12" height="4" rx="2"  fill="#66757F"/>
	<circle fill="#DD2E44" cx="32" cy="27" r="2"/>
	<g>
		<rect x="2" y="7" width="32" height="16" rx="2"  fill="#C6E5B3"/>
		<g fill="#77b255"> 40404 (i could merge the repeated digits but  nnh..)
			<path d="M 8.8438,16.1379 c -0.291,0 -0.416,-0.196 -0.416,-0.351 c 0,-0.13 0.047,-0.202 0.083,-0.261 l 1.332,-2.415 c 0.131,-0.238 0.297,-0.345 0.606,-0.345 c 0.345,0 0.684,0.22 0.684,0.761 v1.826 h0.102 c 0.231,0 0.416,0.155 0.416,0.393 s -0.185,0.392 -0.416,0.392 h-0.102 v0.506 c 0,0.315 -0.125,0.463 -0.428,0.463 s -0.428,-0.148 -0.428,-0.463 v-0.506 h-1.433 ZM 10.2768,13.6939 h-0.012 l -0.803,1.659 h0.815 v-1.659 Z"/>
			<path d="M 12.4188,14.9367 c 0,-0.961 0.372,-2.17 1.563,-2.17 c 1.192,0 1.563,1.209 1.563,2.17 s -0.371,2.171 -1.563,2.171 c -1.191,0 -1.563,-1.21 -1.563,-2.171 ZM 14.6248,14.9367 c 0,-0.448 -0.041,-1.368 -0.643,-1.368 c -0.601,0 -0.643,0.92 -0.643,1.368 c 0,0.419 0.042,1.368 0.643,1.368 c 0.602,0 0.643,-0.949 0.643,-1.368 Z"/>
			<path d="M 16.7298,16.0664 c -0.291,0 -0.416,-0.196 -0.416,-0.351 c 0,-0.13 0.047,-0.202 0.083,-0.261 l 1.332,-2.415 c 0.131,-0.238 0.297,-0.345 0.606,-0.345 c 0.345,0 0.684,0.22 0.684,0.761 v1.826 h0.102 c 0.231,0 0.416,0.155 0.416,0.393 s -0.185,0.392 -0.416,0.392 h-0.102 v0.506 c 0,0.315 -0.125,0.463 -0.428,0.463 s -0.428,-0.148 -0.428,-0.463 v-0.506 h-1.433 ZM 18.1628,13.6224 h-0.012 l -0.803,1.659 h0.815 v-1.659 Z"/>
			<path d="M 20.3048,14.8652 c 0,-0.961 0.372,-2.171 1.563,-2.171 c 1.192,0 1.563,1.21 1.563,2.171 s -0.371,2.171 -1.563,2.171 c -1.191,0 -1.563,-1.21 -1.563,-2.171 ZM 22.5108,14.8652 c 0,-0.448 -0.041,-1.368 -0.643,-1.368 c -0.601,0 -0.643,0.92 -0.643,1.368 c 0,0.419 0.042,1.368 0.643,1.368 c 0.602,0 0.643,-0.949 0.643,-1.368 Z"/>
			<path d="M 24.6158,16.1379 c -0.291,0 -0.416,-0.196 -0.416,-0.351 c 0,-0.13 0.047,-0.202 0.083,-0.261 l 1.332,-2.415 c 0.131,-0.238 0.297,-0.345 0.606,-0.345 c 0.345,0 0.684,0.22 0.684,0.761 v1.826 h0.102 c 0.231,0 0.416,0.155 0.416,0.393 s -0.185,0.392 -0.416,0.392 h-0.102 v0.506 c 0,0.315 -0.125,0.463 -0.428,0.463 s -0.428,-0.148 -0.428,-0.463 v-0.506 h-1.433 ZM 26.0488,13.6939 h-0.012 l -0.803,1.659 h0.815 v-1.659 Z"/>
		</g>
	</g>
</svg>
