<svg xmlns="http://www.w3.org/2000/svg" viewBox="0 0 36 36">
	<g transform="translate(0.4277 34.7441) rotate(45) translate(2 0)">
		<g>
			<path d="M 3,-15 h-6 c -0.79327,-3.37329 -2,-7.38368 -2,-12 c 0,-9.94123 3,-21 5,-21 s 5,11.05877 5,21 c 0,4.61632 -1.20673,8.62671 -2,12 Z" fill="#3b88c3"/>
		</g>
		<g>
			<path d="M -2,0 s 1.207,-2.751 -0.084,-5 c -0.70372,-1.22678 -1.916,-4 -1.916,-6 s 2,-5 2,-5 h4 s 2,2 2,5 c 0,7 -6,11 -6,11 Z" fill="#c1694f"/>
			<path d="M -2,0 s 1.207,-2.751 -0.084,-5 c -0.38976,-0.67849 -0.92999,-1.8339 -1.33941,-3.06639 c -0.53669,-1.4828 0.80964,-2.16446 1.54857,-0.93361 c 0.74953,1.25039 1.68786,1.14221 2.31294,0.18761 c 0.62438,-0.9553 1.49978,-0.56215 1.87454,0.12516 c 0.3677,0.67458 1.26997,0.67882 1.56837,-0.70711 c -0.80893,5.99768 -5.88101,9.39434 -5.88101,9.39434 Z" fill="#a0041e"/>
		</g>
		<g fill="#ccd6dd">
			skewed rrects:
			<path d="M 3.6838,-19 c 0.55295,0 0.90792,0.44686 0.79478,1 l -0.41083,2 c -0.11384,0.55247 -0.61659,1 -1.12359,1 h-5.83009 c -0.507,0 -1.01046,-0.44753 -1.12289,-1 l -0.41083,-2 c -0.11314,-0.55314 0.24183,-1 0.79479,-1 h7.30866 Z"/>
		</g>
	</g>
</svg>
