<svg xmlns="http://www.w3.org/2000/svg" viewBox="0 0 36 36">
	<g>
		too many damn points..
		<path fill="#C1694F" d="M 21.9785,20.4248 c -0.055,-0.805 -0.138,-1.583 -0.248,-2.325 c -0.133,-0.89 -0.299,-1.728 -0.484,-2.513 c -0.172,-0.724 -0.357,-1.397 -0.549,-2.017 c -0.288,-0.932 -0.584,-1.739 -0.853,-2.4 c -0.527,-1.299 -0.943,-2.043 -0.943,-2.043 l -3.612,0.466 s 0.417,0.87 0.868,2.575 c 0.183,0.693 0.371,1.525 0.54,2.495 c 0.086,0.491 0.166,1.012 0.238,1.573 c 0.1,0.781 0.183,1.632 0.242,2.549 c 0.033,0.518 0.058,1.058 0.074,1.619 c 0.006,0.205 0.015,0.402 0.019,0.611 c 0.009,0.656 -0.036,1.323 -0.118,1.99 c -0.074,0.599 -0.182,1.196 -0.311,1.788 c -0.186,0.849 -0.414,1.682 -0.67,2.475 c -0.208,0.643 -0.431,1.261 -0.654,1.841 c -0.345,0.89 -0.69,1.691 -0.989,2.359 c -0.502,1.119 -0.871,1.863 -0.871,2.018 c 0,0.491 0.349,1.408 2.797,2.02 c 3.827,0.956 4.196,-0.621 4.196,-0.621 s 0.243,-0.738 0.525,-2.192 c 0.141,-0.718 0.289,-1.606 0.424,-2.678 c 0.081,-0.642 0.156,-1.349 0.222,-2.116 c 0.068,-0.801 0.125,-1.667 0.165,-2.606 c 0.03,-0.71 0.047,-1.471 0.054,-2.259 c 0.003,-0.246 0.008,-0.484 0.008,-0.737 c 0,-0.642 -0.029,-1.262 -0.07,-1.872 Z"/>
		<g fill="#D99E82">
			<path d="M 18.3062,30.0674 c -1.403,-0.244 -2.298,-0.652 -2.789,-0.959 c -0.344,0.891 -0.69,1.691 -0.989,2.359 c 0.916,0.498 2.079,0.895 3.341,1.115 c 0.729,0.127 1.452,0.19 2.131,0.19 c 0.414,0 0.803,-0.033 1.176,-0.08 c 0.14,-0.718 0.289,-1.605 0.423,-2.678 c -0.443,0.157 -1.547,0.358 -3.293,0.053 Z"/>
			<path d="M 19.3662,25.3945 c -1.093,-0.107 -1.935,-0.349 -2.525,-0.602 c -0.185,0.849 -0.413,1.682 -0.67,2.475 c 0.865,0.326 1.881,0.562 2.945,0.666 c 0.429,0.042 0.855,0.064 1.271,0.064 c 0.501,0 0.978,-0.04 1.434,-0.099 c 0.068,-0.801 0.125,-1.667 0.165,-2.606 c -0.628,0.137 -1.51,0.211 -2.62,0.102 Z"/>
			<path d="M 19.6748,23.2617 c 0.822,0 1.63,-0.082 2.366,-0.228 c 0.003,-0.246 0.008,-0.484 0.008,-0.737 c 0,-0.641 -0.029,-1.262 -0.07,-1.872 c -0.53,0.138 -1.285,0.272 -2.353,0.286 c -1.084,-0.005 -1.847,-0.155 -2.374,-0.306 c 0.006,0.204 0.015,0.401 0.018,0.61 c 0.01,0.656 -0.035,1.323 -0.117,1.99 c 0.762,0.161 1.605,0.253 2.46,0.257 h0.062 Z"/>
			<path d="M 19.4268,18.6851 c 0.824,-0.119 1.589,-0.333 2.304,-0.585 c -0.133,-0.89 -0.299,-1.728 -0.485,-2.514 c -0.496,0.204 -1.199,0.432 -2.181,0.573 c -0.91,0.131 -1.605,0.123 -2.129,0.077 c 0.1,0.781 0.182,1.632 0.242,2.549 c 0.152,0.006 0.29,0.03 0.446,0.03 c 0.587,0 1.199,-0.044 1.803,-0.13 Z"/>
			<path d="M 20.6973,13.5693 c -0.288,-0.931 -0.584,-1.738 -0.853,-2.4 c -0.442,0.222 -1.003,0.456 -1.736,0.659 c -0.795,0.221 -1.437,0.309 -1.951,0.34 c 0.184,0.692 0.371,1.524 0.54,2.495 c 0.682,-0.068 1.384,-0.179 2.094,-0.376 c 0.679,-0.189 1.309,-0.442 1.906,-0.718 Z"/>
		</g>
	</g>
	<g>
		<path fill="#3E721D" d="M 32.6104,4.3047 a 0.25,0.25 0 01 -0.306,0.375 c -0.028,-0.013 -2.987,-1.315 -7.326,0.646 c -2.932,1.327 -6.121,4.752 -6.153,4.787 a 0.25,0.25 0 01 -0.244,0.073 c -0.034,-0.008 -3.4,-0.848 -8.201,-1.702 c -4.698,-0.836 -7.515,1.136 -7.543,1.156 a 0.25,0.25 0 01 -0.367,-0.32 c 0.037,-0.07 3.763,-6.943 9.962,-5.837 c 2.258,0.402 3.968,1.399 5.093,2.967 c 0.604,-2.461 2.27,-4.368 4.851,-5.535 c 5.754,-2.604 10.19,3.329 10.234,3.39 Z"/>
		<path fill="#5C913B" d="M 27.8838,7.6299 c 7.19,3.797 5.242,12.509 5.222,12.597 a 0.375,0.375 0 01 -0.704,0.075 c -0.023,-0.047 -2.299,-4.74 -7.257,-7.513 c -2.52,-1.408 -5.084,-2.057 -6.846,-2.355 c -1.758,1.534 -4.234,3.845 -6.309,6.341 c -3.822,4.598 -5.334,10.064 -5.349,10.118 a 0.375,0.375 0 01 -0.689,0.086 c -0.045,-0.08 -4.41,-8.036 0.573,-14.423 c 4.03,-5.166 8.789,-5.193 11.364,-4.706 c 2.146,-1.413 5.59,-2.548 9.995,-0.22 Z"/>
	</g>
</svg>
