<svg xmlns="http://www.w3.org/2000/svg" viewBox="0 0 36 36">
	restored to original colors
	
	<defs>
		<clipPath id="clipPath60" clipPathUnits="userSpaceOnUse">
			<rect width="2.4687" height="8.0983" x="25.2188" y="16.6563"/>
		</clipPath>
	</defs>
	plate
	<g>
		<ellipse rx="18" ry="10" cx="18" cy="23.9482" fill="#8899A6"/>
		<ellipse rx="18" ry="10" cx="18" cy="22.1982" fill="#ccd6dd"/>
	</g>
	<g transform="translate(18 4) scale(1.076923) translate(-18 -4.7777)">
		pancakes
		<g>
			<ellipse rx="13" ry="7.2222" cx="18" cy="20" fill="#f4900c"/>
			<ellipse rx="13" ry="7.2222" cx="18" cy="18" fill="#ffac33"/>
			<ellipse rx="13" ry="7.2222" cx="18" cy="16" fill="#f4900c"/>
			<ellipse rx="13" ry="7.2222" cx="18" cy="14" fill="#ffac33"/>
			<ellipse rx="13" ry="7.2222" cx="18" cy="12" fill="#f4900c"/>
		</g>
		<!--<path d="M 16.625,10.7656 c 0,0.009 -0.007,0.016 -0.016,0.016 h-0.031 c -0.009,0 -0.015,-0.007 -0.015,-0.016 s 0.006,-0.016 0.015,-0.016 h0.031 c 0.009,0 0.016,0.007 0.016,0.016 Z" fill="#ffd983"/> --> what are u..
		
		14x7.777
		13x7.222
		syrup
		<g>
			<path d="M 15.5313,6.9687 c 5.372,1.639 4.5,0.625 7.969,0.562 c 3.469,-0.062 5.719,1.657 3.437,2.126 c -2.521,0.518 -5.775,2.647 -2.406,4.125 c 1.781,0.781 2.904,2.419 3.156,2.989 c -0.593,0.5 -1.264,0.873 -2.479,1.271 c -0.25,-1.375 -2.146,-2.51 -5.208,-3.448 c -3.649,-1.117 -6.657,-1.187 -8.719,-0.156 c -4.118,2.059 -5.148,-0.735 -2.75,-2.406 c 1.031,-0.719 2.063,-1.969 2,-2.719 c -0.242,-2.902 1.312,-3.469 5,-2.344 Z" fill="#d3790d"/>
			<path d="M 25.2188,18 l 2.469,-1.344 s -0.031,2.063 -0.031,5.282 c 0,3.218 -2.376,3.562 -2.376,1.624 c 0,-0.994 -0.062,-2.718 -0.062,-5.562 Z" fill="#D3790D80"/>
		</g>
		butter:
		<g>
			<path d="M 21.5352,8.5972 c 0.391,0.223 0.392,1.583 0,1.806 l -2.828,1.612 c -0.391,0.223 -1.024,0.223 -1.414,0 l -2.829,-1.612 c -0.391,-0.223 -0.391,-1.583 0,-1.806 l 2.829,-0.612 c 0.39,-0.223 1.023,-0.223 1.414,0 l 2.828,0.612 Z" fill="#ffac33"/>
			<rect width="6" height="6" rx="1" x="-3" y="-3" transform="translate(18 9) scale(1 0.57) rotate(45)" fill="#ffd983"/>
			
<!--			<path d=" M
0,0
 L
0,4
 A 1,1 0 01
-1,5
 L
-5,5
 C -5.5523,5 -7.24041,3.31266
-7.24,2.76
 L
-6,0
 A 1,1 0 01
-5,-1
 L
-2.24,-2.24
 C -1.68729,-2.24041 0,-0.5523
0,0
Z" fill="#ffac33"/>
			sqrt(1.241^2*2)*0.57 = 1
			sqrt(1.241^2*2) = 1/0.57
-->
		</g>
	</g>
</svg>
