<svg xmlns="http://www.w3.org/2000/svg" viewBox="0 0 36 36">
	<circle fill="#272B2B" cx="7" cy="6" r="6"/>
	<circle fill="#272B2B" cx="29" cy="6" r="6"/>
	<circle fill="#66757F" cx="7" cy="6" r="4"/>
	<circle fill="#66757F" cx="29" cy="6" r="4"/>
	
	<path d="M 35,22 c 0,7 -6.375,12 -17,12 s -17,-5 -17,-12 c 0,0 1.308,-22 17,-22 s 17,22 17,22 Z"  fill="#EEE"/>
	
	<path d="M 20.709,12.654 c 4.454,-2.776 11.291,4.346 6.243,10.016 c -3.489,3.921 -6.952,2.33 -6.952,2.33 s -2.636,-10.26 0.709,-12.346 Z"  fill="#272B2B"/>
	<path d="M 15.267,12.665 c 3.345,2.085 0.709,12.345 0.709,12.345 s -3.463,1.591 -6.953,-2.329 c -5.047,-5.671 1.79,-12.793 6.244,-10.016 Z"  fill="#272B2B"/>
	
	<path fill="#66757F" d="M 11,17 s 0,-2 2,-2 s 2,2 2,2 v2 s 0,2 -2,2 s -2,-2 -2,-2 v-2 Z"/>
	<path fill="#66757F" d="M 21,17 s 0,-2 2,-2 s 2,2 2,2 v2 s 0,2 -2,2 s -2,-2 -2,-2 v-2 Z"/>
	
	<circle fill="#CCD6DD" cx="18" cy="30" r="6"/>
	<circle fill="#DD2E44" cx="18" cy="30" r="4"/>
	
	
	<path d="M 18,20 s 11,3.687 11,7 s -2.687,6 -6,6 c -2.088,0 -3.926,-1.067 -5,-2.685 c -1.075,1.618 -2.912,2.685 -5,2.685 c -3.313,0 -6,-2.687 -6,-6 s 11,-7 11,-7 Z"  fill="#FFF"/>
	
	<path d="M 13.125,25 c 1.625,-1 8.124,-1 9.749,0 s -3.249,4 -4.874,4 s -6.499,-3 -4.875,-4 Z"  fill="#272B2B"/>
	</svg>
