<svg xmlns="http://www.w3.org/2000/svg" viewBox="0 0 36 36">
	feet
	<g stroke-width="1" stroke-linecap="round" stroke="#66757F" fill="none">
		<path d="M 17.5,34.5 l 2,-2 v-3"/>
		<path d="M 16.5,32.5 h3"/>
		<path d="M 22.5,34.5 l 2,-2 v-3"/>
		<path d="M 21.5,32.5 h3"/>
	</g>
	beak
	<g>
		<path fill="#F4900C" d="M 3.5293,13.7974 c -0.729,-0.39 -0.382,-3.672 1.479,-4.548 c 1.86,-0.875 3.428,-0.657 2.881,1.24 s -3.515,3.761 -4.36,3.308 Z"/>
		<path fill="#FFAC33" d="M 6.3252,4 c 1.268,-0.496 1.198,4.487 0.825,4.451 c -0.373,-0.037 -1.105,0.107 -1.674,1.314 c -1.154,2.448 -0.475,4.268 -0.851,4.371 c -1.375,0.376 -2.61,-1.348 -2.594,-4.048 c 0.016,-2.71 1.738,-5.088 4.294,-6.088 Z"/>
	</g>
	body
	<g>
		<path fill="#77B255" d="M 34.5244,31.3838 c -0.014,0.499 -1.916,0.822 -5.592,-3.599 c -2.928,3.09 -7.374,3.182 -11.821,1.422 c -4.998,-1.979 -8.382,-6.925 -7.701,-13.976 c 0.383,-3.954 -5.228,-3.587 -5.081,-8.899 c 0.111,-3.994 3.512,-5.535 6.374,-5.456 c 4.74,0.131 6.821,5.293 8.052,6.561 c 6.495,6.688 15.81,22.47 15.769,23.947 Z"/>
		<path fill="#EA596E" d="M 28.9326,27.7852 c -5.776,2.863 -14.208,-2.515 -15.798,-11.917 c -0.666,0.716 -1.363,4.988 -0.784,7.778 c -1.38,-0.834 -2.904,-4.072 -2.94,-8.415 c -0.682,7.051 2.703,11.996 7.701,13.976 c 4.447,1.76 8.893,1.668 11.821,-1.422 Z"/>
		<path fill="#3B88C3" d="M 13.1348,15.8677 s 1.737,5.788 7.33,9.387 c 5.592,3.599 8.468,2.53 8.468,2.53 s -2.94,3.363 -7.648,2.084 c -4.707,-1.278 -9.32,-5.998 -8.15,-14.001 Z"/>
		<path fill="#5C913B" d="M 16.938,9.4175 c 7.847,1.841 11.995,18.368 11.995,18.368 s -5.569,3.265 -13.005,-4.977 c -5.656,-6.268 -1.495,-13.979 1.01,-13.391 Z"/>
	</g>
	neck shadow
	<path fill="#5C913B" d="M 10.7241,13.2588 c -0.79,0 -1.509,-0.189 -1.976,-0.45 c -0.248,-0.139 -0.336,-0.453 -0.197,-0.701 s 0.453,-0.336 0.7,-0.198 c 0.665,0.373 2.406,0.63 3.614,-0.423 c 0.213,-0.186 0.539,-0.165 0.726,0.05 s 0.164,0.54 -0.05,0.726 c -0.837,0.729 -1.877,0.996 -2.817,0.996 Z"/>
	eye
	<circle r="1" cx="8" cy="6" fill="#292F33"/>
</svg>
