<svg xmlns="http://www.w3.org/2000/svg" viewBox="0 0 36 36">
	<defs>
		<clipPath id="slice1">
			<path d="M 15,36 L 36,15 V 36 Z"/>
			<path d="M 36,11 L 11,36 V 11 Z"/>
		<!--<path d="M 29,18 L 18,29 V 18 Z"/>
			<path d="M 18,35 L 18,33 L 32,19 V 35 Z"/>-->
		</clipPath>
	</defs>
	
	<rect width="36" height="36" rx="4" x="0" y="0" fill="#226699"/>
	<g>
		head:
		<path d="M 31,11 a 6,6 0 01 -12,0 h12 Z" fill="#f5f8fa"/>
		hat:
		<g fill="#f5f8fa">
			<rect x="16" y="7" width="5" height="2" rx="2" ry="1"/>
			<path d="M 31,5 a 1,1 0 01 1,1 c 0,0.552 -0.447,3 -1,3 h-12 c -.553,0 -1,-2.448 -1,-3 a 1,1 0 01 1,-1 h12 Z"/>
		</g>
		body:
		<g fill="#f5f8fa" clip-path="url(#slice1)">
			<rect x="19" y="19" width="12" height="15" rx="2"/>
		</g>
		arm:
		<path d="M 9,21 s 2,3 6,3 s 6,-3 6,-3" stroke-width="4" stroke-linecap="round" stroke="#f5f8fa" fill="none"/>
		passport:
		<g fill="#f5f8fa">
			<path d="M 12,3.04 c 0.552,-0.157 1,0.162 1,0.715 v8 c 0,0.553 -0.448,1.128 -1,1.285 v-5.795 c 0,-0.552 -0.448,-1.128 -1,-1.285 l -5.426,-1.266 c 0.131,-0.099 0.272,-0.18 0.426,-0.224 l 6,-1.43 Z" fill="#f5f8fa"/>
			- dang they messed around with this one too much :(		
			<rect width="7" height="10" rx="1" transform="translate(3 5.755) matrix(1 0.2857 0 1 0 0)"/> 0.2857 ≈ 2/7
		</g>
	</g>
</svg>
