<svg xmlns="http://www.w3.org/2000/svg" viewBox="0 0 36 36">
	<path d="M 16.7056,16.1133 c 0,4.483 -2.554,2.038 -5.706,2.038 c -3.151,0 -5.705,2.445 -5.705,-2.038 c 0,-2.926 2.554,-6.113 5.705,-6.113 c 3.152,0 5.706,3.187 5.706,6.113 Z" fill="#662113"/>
	<!--<path d="M 5.0742,8.0366 c 0.393,1.335 0.007,2.625 -0.862,2.881 c -0.87,0.256 -1.893,-0.619 -2.286,-1.954 c -0.394,-1.335 -0.008,-2.625 0.862,-2.882 c 0.869,-0.255 1.893,0.62 2.286,1.955 Z" fill="#662113"/>-->
	<ellipse rx="1.64083" ry="2.52065" transform="translate(3.5002,8.49985) rotate(-16.407879941278395)"/>
	
	<!--<path d="M 20.0742,8.9814 c -0.407,1.332 -1.442,2.196 -2.312,1.93 c -0.869,-0.265 -1.244,-1.561 -0.836,-2.893 c 0.407,-1.331 1.441,-2.196 2.311,-1.93 c 0.869,0.266 1.244,1.561 0.837,2.893 Z" fill="#662113"/>-->
	<ellipse rx="1.646" ry="2.52175" transform="translate(18.49995,8.4999) rotate(17.00716250788561)"/>
	
	<!--<path d="M 9.9639,4.1221 c 0.366,1.898 -0.217,3.606 -1.302,3.815 c -1.085,0.208 -2.261,-1.161 -2.626,-3.059 s 0.218,-3.606 1.303,-3.815 c 1.084,-0.209 2.26,1.161 2.625,3.059 Z" fill="#662113"/>-->
	<ellipse rx="2.00004" ry="3.50008" transform="translate(8.00015,4.5001) rotate(-10.894182986837905)"/>
	
	<!--<path d="M 15.9595,4.9004 c -0.387,1.894 -1.578,3.25 -2.66,3.029 s -1.646,-1.936 -1.259,-3.83 c 0.387,-1.893 1.578,-3.25 2.66,-3.029 c 1.082,0.222 1.646,1.936 1.259,3.83 Z" fill="#662113"/>-->
	<ellipse rx="2.00001" ry="3.50031" transform="translate(14,4.4999) rotate(11.547897871236273)"/>
	
	<path d="M 30.7061,32.1133 c 0,4.483 -2.555,2.038 -5.706,2.038 s -5.706,2.445 -5.706,-2.038 c 0,-2.926 2.555,-6.113 5.706,-6.113 s 5.706,3.187 5.706,6.113 Z" fill="#662113"/>
	<path d="M 19.0742,24.0361 c 0.394,1.336 0.007,2.626 -0.862,2.882 c -0.87,0.256 -1.893,-0.619 -2.286,-1.954 c -0.394,-1.336 -0.008,-2.626 0.862,-2.882 c 0.869,-0.256 1.893,0.619 2.286,1.954 Z" fill="#662113"/>
	<path d="M 34.0742,24.9814 c -0.407,1.332 -1.442,2.196 -2.312,1.93 c -0.869,-0.266 -1.244,-1.561 -0.836,-2.893 c 0.407,-1.332 1.442,-2.196 2.311,-1.93 s 1.244,1.561 0.837,2.893 Z" fill="#662113"/>
	<path d="M 23.9639,20.1221 c 0.365,1.897 -0.218,3.606 -1.302,3.814 c -1.085,0.209 -2.261,-1.16 -2.626,-3.058 s 0.218,-3.606 1.302,-3.815 c 1.085,-0.209 2.261,1.161 2.626,3.059 Z" fill="#662113"/>
	<path d="M 29.96,20.9004 c -0.388,1.894 -1.578,3.25 -2.66,3.029 s -1.647,-1.936 -1.26,-3.83 c 0.388,-1.894 1.578,-3.25 2.66,-3.029 c 1.082,0.222 1.647,1.936 1.26,3.83 Z" fill="#662113"/>

<!--<svg xmlns="http://www.w3.org/2000/svg" viewBox="0 0 36 36">
	<g>
		<ellipse rx="1.6405" ry="2.521" transform="translate(3.5 8.5) rotate(-16.480)" fill="#662113"/>
		<ellipse rx="2" ry="3.5" transform="translate(8 4.5) rotate(-10.902)" fill="#662113"/>
		<ellipse rx="2" ry="3.5" transform="translate(14 4.5) rotate(11.5442)" fill="#662113"/>
		<ellipse rx="1.6464" ry="2.521" transform="translate(18.5 8.5) rotate(17.005)" fill="#662113"/>
		center of paw print : scaled down from 7 units wide (~0.815)
		<path id="paw_center" d="M 0,0 c 3.8656,0 7,3.9098 7,7.5 c 0,5.5 -3.1338,2.5 -7,2.5 s -7,3 -7,-2.5 c 0,-3.5896 3.1345,-7.5 7,-7.5 Z" transform="translate(11,10) scale(0.815)" fill="#662113"/>
	</g>
	<g transform="translate(14 16)">
		<ellipse rx="1.6405" ry="2.521" transform="translate(3.5 8.5) rotate(-16.480)" fill="#662113"/>
		<ellipse rx="2" ry="3.5" transform="translate(8 4.5) rotate(-10.902)" fill="#662113"/>
		<ellipse rx="2" ry="3.5" transform="translate(14 4.5) rotate(11.5442)" fill="#662113"/>
		<ellipse rx="1.6464" ry="2.521" transform="translate(18.5 8.5) rotate(17.005)" fill="#662113"/>
		center of paw print : scaled down from 7 units wide (~0.815)
		<path id="paw_center" d="M 0,0 c 3.8656,0 7,3.9098 7,7.5 c 0,5.5 -3.1338,2.5 -7,2.5 s -7,3 -7,-2.5 c 0,-3.5896 3.1345,-7.5 7,-7.5 Z" transform="translate(11,10) scale(0.815)" fill="#662113"/>
	</g>
	-->
	<!--<path d="M 16.706,16.113 c 0,4.483 -2.554,2.038 -5.706,2.038 c -3.151,0 -5.706,2.446 -5.706,-2.038 c 0,-2.926 2.555,-6.113 5.706,-6.113 s 5.706,3.187 5.706,6.113 Z"  fill="#662113"/>-->
	
	<!--<path d="M 30.706,32.113 c 0,4.483 -2.555,2.038 -5.706,2.038 s -5.706,2.445 -5.706,-2.038 c 0,-2.925 2.555,-6.113 5.706,-6.113 s 5.706,3.188 5.706,6.113 Z"  fill="#662113"/>
		<path d="M 19.074,24.036 c 0.394,1.336 0.007,2.626 -0.862,2.882 c -0.87,0.256 -1.893,-0.619 -2.286,-1.954 c -0.393,-1.336 -0.007,-2.626 0.862,-2.882 c 0.87,-0.256 1.893,0.619 2.286,1.954 Z"  fill="#662113"/>
		<path d="M 34.074,24.981 c -0.407,1.332 -1.442,2.196 -2.312,1.93 c -0.869,-0.266 -1.244,-1.561 -0.837,-2.892 c 0.407,-1.332 1.442,-2.196 2.312,-1.93 c 0.869,0.265 1.244,1.56 0.837,2.892 Z"  fill="#662113"/>
		<path d="M 23.964,20.122 c 0.365,1.897 -0.218,3.606 -1.302,3.814 c -1.085,0.209 -2.261,-1.16 -2.626,-3.059 c -0.365,-1.898 0.218,-3.606 1.302,-3.815 c 1.085,-0.208 2.261,1.162 2.626,3.06 Z"  fill="#662113"/>
		<path d="M 29.96,20.9 c -0.388,1.893 -1.578,3.25 -2.66,3.029 c -1.082,-0.222 -1.647,-1.937 -1.26,-3.83 c 0.388,-1.894 1.578,-3.25 2.66,-3.029 c 1.082,0.222 1.647,1.937 1.26,3.83 Z"  fill="#662113"/>-->
</svg>
