<svg xmlns="http://www.w3.org/2000/svg" viewBox="0 0 36 36">
	<g>
		<ellipse rx="1.6405" ry="2.521" transform="translate(3.5 8.5) rotate(-16.480)" fill="#662113"/>
		<ellipse rx="2" ry="3.5" transform="translate(8 4.5) rotate(-10.902)" fill="#662113"/>
		<ellipse rx="2" ry="3.5" transform="translate(14 4.5) rotate(11.5442)" fill="#662113"/>
		<ellipse rx="1.6464" ry="2.521" transform="translate(18.5 8.5) rotate(17.005)" fill="#662113"/>
		<!-- center of paw print : scaled down from 7 units wide (~0.815) -->
		<path id="paw_center" d="M 0,0 c 3.8656,0 7,3.9098 7,7.5 c 0,5.5 -3.1338,2.5 -7,2.5 s -7,3 -7,-2.5 c 0,-3.5896 3.1345,-7.5 7,-7.5 Z" transform="translate(11,10) scale(0.815)" fill="#662113"/>
	</g>
	<g transform="translate(14 16)">
		<ellipse rx="1.6405" ry="2.521" transform="translate(3.5 8.5) rotate(-16.480)" fill="#662113"/>
		<ellipse rx="2" ry="3.5" transform="translate(8 4.5) rotate(-10.902)" fill="#662113"/>
		<ellipse rx="2" ry="3.5" transform="translate(14 4.5) rotate(11.5442)" fill="#662113"/>
		<ellipse rx="1.6464" ry="2.521" transform="translate(18.5 8.5) rotate(17.005)" fill="#662113"/>
		<!-- center of paw print : scaled down from 7 units wide (~0.815) -->
		<path id="paw_center" d="M 0,0 c 3.8656,0 7,3.9098 7,7.5 c 0,5.5 -3.1338,2.5 -7,2.5 s -7,3 -7,-2.5 c 0,-3.5896 3.1345,-7.5 7,-7.5 Z" transform="translate(11,10) scale(0.815)" fill="#662113"/>
	</g>
	
	<!--<path d="M 16.706,16.113 c 0,4.483 -2.554,2.038 -5.706,2.038 c -3.151,0 -5.706,2.446 -5.706,-2.038 c 0,-2.926 2.555,-6.113 5.706,-6.113 s 5.706,3.187 5.706,6.113 Z"  fill="#662113"/>-->
	
	<!--<path d="M 30.706,32.113 c 0,4.483 -2.555,2.038 -5.706,2.038 s -5.706,2.445 -5.706,-2.038 c 0,-2.925 2.555,-6.113 5.706,-6.113 s 5.706,3.188 5.706,6.113 Z"  fill="#662113"/>
		<path d="M 19.074,24.036 c 0.394,1.336 0.007,2.626 -0.862,2.882 c -0.87,0.256 -1.893,-0.619 -2.286,-1.954 c -0.393,-1.336 -0.007,-2.626 0.862,-2.882 c 0.87,-0.256 1.893,0.619 2.286,1.954 Z"  fill="#662113"/>
		<path d="M 34.074,24.981 c -0.407,1.332 -1.442,2.196 -2.312,1.93 c -0.869,-0.266 -1.244,-1.561 -0.837,-2.892 c 0.407,-1.332 1.442,-2.196 2.312,-1.93 c 0.869,0.265 1.244,1.56 0.837,2.892 Z"  fill="#662113"/>
		<path d="M 23.964,20.122 c 0.365,1.897 -0.218,3.606 -1.302,3.814 c -1.085,0.209 -2.261,-1.16 -2.626,-3.059 c -0.365,-1.898 0.218,-3.606 1.302,-3.815 c 1.085,-0.208 2.261,1.162 2.626,3.06 Z"  fill="#662113"/>
		<path d="M 29.96,20.9 c -0.388,1.893 -1.578,3.25 -2.66,3.029 c -1.082,-0.222 -1.647,-1.937 -1.26,-3.83 c 0.388,-1.894 1.578,-3.25 2.66,-3.029 c 1.082,0.222 1.647,1.937 1.26,3.83 Z"  fill="#662113"/>-->
</svg>
