<svg xmlns="http://www.w3.org/2000/svg" viewBox="0 0 36 36">
	very good, nicely aligned! (other than a few minor anomalies)
	
	tail
	<g>
		<g>
			<path fill="#A6D388" d="M 18,4 c 9.941,0 18,9.2572 18,21.9092 c 0,3.818 -2,5.0908 -18,5.0908 s -18,-1.2728 -18,-5.0908 c 0,-12.652 8.059,-21.9092 18,-21.9092 Z"/>
		</g>
		<g stroke-width="1" stroke-linecap="round" stroke="#77B255" fill="none">
			<path d="M 18,28.5 l 16.5,-5.5"/>
			<path d="M 18,25.5 l 14.5,-10.5"/>
			<path d="M 18,21.5 l 8.5,-13.5"/>
			<path d="M 17.5,28.5 l -16.5,-5.5"/>
			<path d="M 17.5,25.5 l -14.5,-10.5"/>
			<path d="M 17.5,21.5 l -8.5,-13.5"/>
			<path d="M 17.5,23.5 v -18"/>
		</g>
		<g fill="#55ACEE">
			<circle r="2" cx="32.5" cy="27"/>
			<circle r="2" cx="32.5" cy="20"/>
			<circle r="2" cx="28.5" cy="13"/>
			<circle r="2" cx="21.5" cy="8"/>
			<circle r="1.5" cx="28" cy="28.5"/>
			<circle r="1.5" cx="28" cy="22.5"/>
			<circle r="1.5" cx="25" cy="16.5"/>
			<circle r="1" cx="24.5" cy="29"/>
			<circle r="1" cx="24.5" cy="24"/>
			<circle r="1" cx="21.5" cy="20"/>
			
			<circle r="2" cx="3" cy="27"/>
			<circle r="2" cx="3" cy="20"/>
			<circle r="2" cx="7" cy="13"/>
			<circle r="2" cx="14" cy="8"/>
			<circle r="1.5" cx="7.5" cy="28.5"/>
			<circle r="1.5" cx="7.5" cy="22.5"/>
			<circle r="1.5" cx="10.5" cy="16.5"/>
			<circle r="1" cx="11" cy="29"/>
			<circle r="1" cx="11" cy="24"/>
			<circle r="1" cx="14" cy="20"/>
		</g>
	</g>
	feet:
	<g stroke-width="1" stroke-linecap="round" stroke="#292F33" fill="none">
		<path d="M 14.5,35.5 l 2,-2 v-2"/>
		<path d="M 13.5,33.5 h3"/>
		<path d="M 21.5,35.5 l -2,-2 v-2"/>
		<path d="M 22.5,33.5 h-3"/>
	</g>
	body:
	<g>
		beak
		<path fill="#226699" d="M 15,16 c -1,-2 0,-4 0,-4 s 0,1 1,2 c 0,-3 1,-3 1,-3 s 0,2 1,3 s -3,2 -3,2 Z"/>
		this one had some weird seams at the top and bottom
		<path transform="translate(18)" fill="#226699" d=" M
0,16.004
 C 0.42,16.051 2.837,17.119
2.305,17.882
 C 0.303,20.75 1.767,23.344
2.437,24.5
 C 3.271,25.939 4.563,27
4.997,29
 C 5.358,30.668 2.75,32.981
0,32.998
 L
-0.03,32.998
 C -2.781,32.981 -5.389,30.668
-5.027,29
 C -4.594,27 -3.302,25.939
-2.468,24.5
 C -1.797,23.344 -0.334,20.75
-2.336,17.882
 C -2.868,17.119 -0.451,16.051
-0.03,16.004
 L
0,16.004
 Z"/>
	</g>
	head:
	<g>
		<path fill="#292F33" d="M 19,16 c 3,0 6,2 6,2 s -3,1 -6,0 s 0,-2 0,-2 Z"/>
		<circle r="3" cx="18" cy="16" fill="#226699"/>
		<circle r="1" cx="19" cy="16" fill="#292F33"/>
	</g>
</svg>
