<svg xmlns="http://www.w3.org/2000/svg" viewBox="0 0 36 36">
	recolored.
	gosh i need to post my palette data soon..
	this one has a lot of seams too, need to fix those.
	and please PLEASE stop generating arc commands, it's so fucking bad you have no idea..
	
	<path fill="#77B255" d="M 30.689,5.208 c 0.423,0.635 -0.415,6.66 0.183,7.137 c -0.119,1.223 -0.311,2.248 -0.69,3.762 c -0.44,1.501 -1.958,2.35 -2.969,3.627 c -0.844,1.066 -0.933,2.734 -1.721,3.977 c -0.563,0.888 -1.9,1.246 -3.059,2.004 c -1.03,0.686 -1.866,2.099 -2.892,2.895 c -1.51,1.054 -2.428,0.729 -4.244,1.167 c -1.737,0.678 -2.341,1.801 -5.279,3.008 c -2.238,0.143 -3.847,1.587 -6.031,1.37 c -0.994,-0.098 -1.832,0.493 -2.456,1.181 a 0.63,0.63 0 01 -1.093,-0.472 a 90.987,90.987 0 01 0.172,-1.989 c 0.727,-6.831 5.627,-10.826 9.722,-13.891 c 5.307,-3.972 10.43,-8.617 13.846,-11.322 c 0.6,0.08 6.511,-2.454 6.511,-2.454 Z"/>
	
	<ellipse transform="rotate(-44.928 23.89 11.958)" fill="#A6D388" cx="23.892" cy="11.958" rx="1.639" ry="1.139"/>
	<ellipse transform="rotate(-44.928 18.738 16.996)" fill="#A6D388" cx="18.739" cy="16.996" rx="1.639" ry="1.139"/>
	<ellipse rx="1.63873" ry="1.13882" transform="translate(13.2915,21.432) rotate(-44.7383)" fill="#A6D388"/>
	<ellipse rx="1.63873" ry="1.13882" transform="translate(8.1535,25.679) rotate(-44.7383)" fill="#A6D388"/>
	
	<path fill="#A6D388" d="M 1.551,32.639 a 0.5,0.5 0 01 0.404,-0.58 c 0.06,-0.01 0.119,-0.029 0.179,-0.04 c 5.789,-1.075 11.31,-4.206 16.439,-9.278 l 0.001,-0.001 c 0.308,-0.305 0.62,-0.59 0.925,-0.909 a 80.357,80.357 0 00 4.982,-5.688 c 1.242,-1.572 2.279,-3.04 3.075,-4.35 c 0.111,-0.183 0.325,-0.553 0.33,-0.561 c 0.339,-0.59 0.622,-1.142 0.848,-1.652 a 6.837,6.837 0 00 0.591,1.067 c -1.554,3.117 -4.768,7.346 -9.104,11.875 c -5.588,5.837 -11.675,9.377 -18.09,10.521 a 0.5,0.5 0 01 -0.58,-0.404 Z"/>
	
	<path fill="#77B255" d="M 34.905,2.015 c -0.014,0.182 -0.067,0.349 -0.151,0.498 c -0.214,0.389 -0.307,0.828 -0.266,1.269 a 4.744,4.744 0 01 0.017,0.297 c 0.022,0.909 -0.653,2.003 -1.541,2.764 c -0.397,1.864 -0.008,3.383 1.617,6.739 c -2.308,-0.03 -5.407,-3.885 -5.088,-6.841 c -2.748,1.115 -3.506,-0.657 -7.84,0.86 c 2.408,-3.66 4.185,-1.636 7.496,-3.776 c 0.165,-1.374 1.374,-2.444 2.884,-2.456 h0.014 a 0.659,0.659 0 00 0.525,-0.259 a 1.284,1.284 0 01 1.13,-0.51 a 1.313,1.313 0 01 1.203,1.415 Z"/>
	<path fill="#5C913B" d="M 32.007,5.501 c -0.612,1.995 -0.147,4.203 0.814,6.032 c 0.032,0.048 -0.041,0.104 -0.08,0.059 c -1.298,-1.444 -2.181,-3.528 -1.91,-5.502 l 1.176,-0.589 Z"/>
	<path fill="#5C913B" d="M 30.689,5.208 c -1.616,1.214 -3.711,0.918 -5.559,0.835 c -0.053,0.009 -0.077,-0.071 -0.026,-0.092 c 0.888,-0.335 1.804,-0.32 2.688,-0.603 a 9.579,9.579 0 00 2.37,-0.988 c 0.541,-0.295 1.031,0.495 0.527,0.848 Z"/>
	<path fill="#A6D388" d="M 30.405,3.462 c -0.377,-0.362 -0.185,-0.99 0.43,-1.402 s 1.419,-0.454 1.796,-0.092 s 0.185,0.989 -0.43,1.402 s -1.419,0.454 -1.796,0.092 Z"/>
	<path fill="#A6D388" d="M 33.165,0.997 c 0.224,-0.15 0.515,-0.166 0.653,-0.034 s 0.067,0.359 -0.156,0.51 s -0.515,0.166 -0.653,0.034 s -0.068,-0.36 0.156,-0.51 Z"/>
	<path fill="#3E721D" d="M 29.494,6.74 c -0.319,2.955 2.78,6.811 5.087,6.841 c -1.283,0.172 -2.609,-0.353 -3.71,-1.234 c -0.598,-0.478 -1.125,-1.064 -1.548,-1.699 c -0.229,-0.344 -0.432,-0.701 -0.591,-1.067 c -0.329,0.744 -0.76,1.526 -1.178,2.213 c 0.02,-0.285 0.022,-0.568 -0.003,-0.846 c -0.532,-0.407 -1.164,-0.695 -1.877,-0.785 a 3.934,3.934 0 00 -4.394,3.412 a 3.883,3.883 0 00 0.253,1.911 c -0.319,-0.132 -0.652,-0.24 -1.012,-0.285 a 3.934,3.934 0 00 -4.394,3.412 c -0.059,0.47 -0.019,0.927 0.081,1.364 c -0.354,-0.162 -0.729,-0.29 -1.135,-0.341 a 3.934,3.934 0 00 -4.394,3.412 a 3.87,3.87 0 00 0.018,1.01 a 3.934,3.934 0 00 -5.155,3.237 a 3.873,3.873 0 00 0.818,2.9 a 5.203,5.203 0 00 2.787,-0.567 c -2.288,1.135 -4.627,1.948 -7.014,2.391 c 0.586,-3.143 2.406,-7.142 8.952,-11.794 c 4.461,-3.17 10.358,-9.488 14.811,-12.308 c -0.556,-0.072 -1.119,-0.174 -1.719,-0.254 c -0.753,-0.1 -1.568,-0.161 -2.523,-0.063 c 4.334,-1.517 5.092,0.255 7.84,-0.86 Z"/>
	<path fill="#3E721D" d="M 18.573,22.741 c -2.967,2.933 -6.068,5.195 -9.27,6.81 a 5.164,5.164 0 00 2.631,-3.878 a 5.27,5.27 0 00 0.022,-0.904 c 0.082,0.069 0.155,0.144 0.231,0.218 a 3.969,3.969 0 01 0.227,0.241 c 0.065,0.076 0.132,0.15 0.192,0.231 a 3.88,3.88 0 01 0.274,0.42 c 2.134,-0.426 3.86,-2.138 4.147,-4.417 c 0.041,-0.328 0.043,-0.651 0.024,-0.97 a 3.923,3.923 0 01 0.293,0.269 a 4.028,4.028 0 01 0.475,0.571 a 3.907,3.907 0 01 0.144,0.218 c 2.282,-0.307 4.164,-2.094 4.465,-4.487 c 0.044,-0.351 0.051,-0.699 0.026,-1.039 a 3.811,3.811 0 01 0.342,0.306 c 0.03,0.03 0.058,0.061 0.087,0.092 c 0.04,0.042 0.084,0.084 0.121,0.128 c 0.517,-0.063 1.013,-0.203 1.477,-0.406 a 80.58,80.58 0 01 -4.982,5.688 c -0.306,0.318 -0.618,0.604 -0.926,0.909 Z"/>
</svg>
