<svg xmlns="http://www.w3.org/2000/svg" viewBox="0 0 36 36">
	strangely two controlpoints in this outline is at an exact integer position hmm..
	<path d="M 7.681,9.097 c 1.587,-3.151 7.698,-1.916 11.958,2.171 c 2.697,2.586 8.056,1.498 11.498,4.804 c 3.493,3.354 3.259,9.361 -3.053,15.767 c -5.084,5.161 -12.084,5.161 -16.249,1.545 c -4.388,-3.811 -2.476,-8.61 -4.412,-13.585 c -1.936,-4.976 -4.323,-10.424 0.258,-10.702 Z"  fill="#A6D388"/>
	stem is weirdly distored, hm
	<path d="M 8.178,9.534 c -0.43,0.448 -1.114,0.489 -1.527,0.093 c -3.208,-3.079 -3.918,-7.544 -3.946,-7.776 c -0.074,-0.586 0.348,-1.157 0.939,-1.278 c 0.592,-0.121 1.131,0.257 1.205,0.842 c 0.006,0.05 0.657,3.997 3.359,6.59 c 0.413,0.397 0.4,1.081 -0.03,1.529 Z"  fill="#662113"/>
</svg>
