<svg xmlns="http://www.w3.org/2000/svg" viewBox="0 0 36 36">
	<defs>
		<clipPath id="penclip">
			<path id="pen2" d="M 5,-25 v3 c 0,3 -1,13 -2,13 l -3,3 l -3,-3 c -1,0 -2,-10 -2,-13 v-3 c -0.531,0 -0.562,-0.875 -0.562,-1.875 s 0.562,-21.125 5.562,-21.125 s 5.562,20.125 5.562,21.125 s -0.031,1.875 -0.562,1.875 Z"/>
		</clipPath>
	</defs>
	
	<g transform="translate(0 36) rotate(45) translate(0 -0.1111)">
		<ellipse rx="1" ry="4.5" cx="0" cy="-4.5" fill="#c1694f"/>
		body
		
		<use href="#pen2" fill="#31373D"/>
		
		<path d="M -1.971,-46 s 0.38,2 -0.81,2 s -1.625,0.781 -2.312,3.5 s -1.1886,6.532 -1.1886,6.532 s 0.8136,1 0.8136,2.061 s -0.376,1.46442 -1.032,1.97 c -0.39542,0.305 -1,-0.193 -1,-2.063 c 0,-3.62565 1.407,-10.062 2.032,-11.937 s 2.1864,-2.063 3.497,-2.063 Z" fill="#ffac33"/> nhhh dont use this one
		<g clip-path="url(#penclip)">
			<rect width="36" x="-18" y="-46" height="2" fill="#ffac33"/>
			<rect width="36" x="-18" y="-28" height="3" fill="#ffcc4d"/>
		</g>
		<path d="M -3,-9 h6 s -0.219,1.75 -0.951,4.181 c -0.549,1.819 -1.049,2.819 -1.049,2.819 h-2 s -0.5,-1 -1.049,-2.819 c -0.732,-2.431 -0.951,-4.181 -0.951,-4.181 Z" fill="#ffcc4d"/>
	</g>
</svg>
