<svg xmlns="http://www.w3.org/2000/svg" viewBox="0 0 36 36">
	<g transform="translate(0 36) rotate(45) translate(0 -0.1111)">
		<ellipse rx="1" ry="4.5" cx="0" cy="-4.5" fill="#c1694f"/>
	body
	<path d="M 5,-25 v3 c 0,3 -1,13 -2,13 l -3,3 l -3,-3 c -1,0 -2,-10 -2,-13 v-3 c -0.531,0 -0.562,-0.875 -0.562,-1.875 s 0.562,-21.125 5.562,-21.125 s 5.562,20.125 5.562,21.125 s -0.031,1.875 -0.562,1.875 Z" fill="#31373D"/>
	<g>
		<path d=" M
-3,-9
L
3,-9
 C 3,-9 2.7814,-7.25009
2.04884,-4.81906
 C 1.5,-3 1,-2
1,-2
 L
-1,-2
 C -1,-2 -1.5,-3
-2.04884,-4.81835
 C -2.7814,-7.2508 -3,-9
-3,-9
 Z" fill="#ffcc4d"/>
	</g>
	<g>
		<path d=" M
5.56224,-26.87563
 C 5.56224,-25.87578 5.53184,-25
5,-25
 L
-5,-25
 C -5.53085,-25 -5.56267,-25.87507
-5.56267,-26.87492
 C -5.56267,-26.99513 -5.55348,-27.39606
-5.53085,-28
 L
5.53184,-28
 C 5.55305,-27.39677 5.56295,-26.99513
5.56224,-26.87563
 Z" fill="#ffcc4d"/>
	</g>
	<g>

		<path d=" M
-3.28281,-44
 C -3.02967,-44.75115 -2.74966,-45.42431
-2.43853,-46
 L
2.4398,-46
 C 2.75022,-45.42431 3.03094,-44.75044
3.28338,-44
 L
-3.28281,-44
 Z" fill="#ffac33"/>
	</g>
		<path d=" M
-1.971,-46
 C -1.971,-46 -1.59,-44
-2.781,-44
 C -3.971,-44 -4.4057,-43.21927
-5.093,-40.5
 C -5.781,-37.781 -6.2816,-33.9682
-6.2816,-33.9682
 C -6.2816,-33.9682 -5.468,-32.9682
-5.468,-31.90698
 C -5.468,-30.844 -5.844,-30.44256
-6.5,-29.937
 C -6.89542,-29.63222 -7.5,-30.13
-7.5,-32
 C -7.5,-35.62565 -6.093,-42.06245
-5.468,-43.937
 C -4.844,-45.81223 -3.2816,-46
-1.971,-46
Z" fill="#ffac33"/>
	</g>
</svg>
