<svg xmlns="http://www.w3.org/2000/svg" viewBox="0 0 36 36">
	idk..
	<g>
		<path d="M 35.2217,33.5977 c -0.647,-2.101 -1.705,-6.059 -2.325,-7.566 c -0.501,-1.216 -0.969,-2.438 -1.544,-3.014 c -0.575,-0.575 -1.553,-0.53 -2.143,0.058 c 0,0 -2.468,1.674 -3.353,2.783 c -1.109,0.882 -2.785,3.357 -2.785,3.357 c -0.59,0.59 -0.635,1.568 -0.06,2.143 c 0.576,0.575 1.798,1.043 3.015,1.544 c 1.506,0.62 5.465,1.675 7.566,2.325 c 0.358,0.11 1.739,-1.271 1.629,-1.63 Z" fill="#d99e82"/>
		<path d="M 32.0781,34.7627 s 2.709,1.489 3.441,0.757 c 0.733,-0.733 -0.764,-3.435 -0.764,-3.435 s -2.568,0.048 -2.677,2.678 Z" fill="#292f33"/>
	</g>
	<g>
		<path d="M 31.3525,23.0176 s -1.046,1.047 -4.17,4.17 c -3.122,3.124 -4.163,4.165 -4.163,4.165 l -15.628,-15.627 l 8.335,-8.333 l 15.626,15.625 Z" fill="#ffcc4d"/>
	</g>
	<g>
		<path d="M 13.6426,5.3081 c 1.151,1.151 1.151,3.016 0,4.167 l -4.167,4.167 c -1.151,1.151 -3.017,1.151 -4.167,0 l -4.167,-4.167 c -1.151,-1.151 -1.151,-3.016 0,-4.167 l 4.167,-4.167 c 1.15,-1.151 3.016,-1.151 4.167,0 l 4.167,4.167 Z" fill="#ea596e"/>
		<path d="M 10.5176,2.1826 l -8.334,8.334 l 5.208,5.209 l 8.335,-8.334 l -5.209,-5.209 Z" fill="#ccd6dd"/>
		<path d="M 12.6011,4.2661 l -8.334,8.334 l -1.042,-1.042 l 8.334,-8.334 l 1.042,1.042 Z" fill="#99aab5"/>
		<path d="M 14.6841,6.3496 l -8.334,8.335 l -1.041,-1.042 l 8.333,-8.335 l 1.042,1.042 Z" fill="#99aab5"/>
	</g>
</svg>
