<svg xmlns="http://www.w3.org/2000/svg" viewBox="0 0 36 36">
	<defs>
		<path id="foot1" d="M 0.333,0 c 0,1.1046 -6.7908,2 -9,2 s -1,-0.8954 -1,-2 s -1.2092,-2 1,-2 s 9,0.8954 9,2 Z"/>
		<path id="wing1" d="M 7.56743,7.87288 c 1.54182,1.48843 3.17966,3.63733 4.25605,5.78968 c 2.09939,4.19878 2.6828,9.83906 1.78896,10.28511 c -0.75132,0.37631 -2.00079,-1.33558 -3.62312,-4.3753 s -3.96371,-13.18792 -2.42189,-11.69949 Z"/> this is rotated and like..
	</defs>
	<g transform="translate(18) scale(1.1613)">
		1.1613.. = 36/31
		feet
		<g fill="#ffac33">
			<use href="#foot1" transform="matrix(1 0 0 1 0 29)"/>
			<use href="#foot1" transform="matrix(-1 0 0 1 0 29)"/>
		</g>
		body
		<g fill="#292f33" class="toodark">
			<use href="#wing1" transform="scale(1 1)"/>
			<use href="#wing1" transform="scale(-1 1)"/>
			<path d="M 0,29 c -4,0 -10,-0.0586 -10,-10 s 6,-19 10,-19 s 10,9.0586 10,19 s -6,10 -10,10 Z"/>
		</g>
		<g>
			<path d="M 8,17 a 8,12 0 01 -16,0 a 8,12 0 01 4.83541,-11.02096 c 0.73195,0.52269 1.87034,1.02096 3.16459,1.02096 s 2.43264,-0.49827 3.16459,-1.02096 a 8,12 0 01 4.83541,11.02096 Z" fill="#f5f8fa"/>
		</g>
		eye
		<circle cx="-2" cy="3" r="1" fill="#f5f8fa"/>
		beak
		<path d="M 3,2.16667 c 5,0 7,3 6,3 h-5 c -3.3138,0 -4,-0.67155 -4,-1.5 s -0.3138,-1.5 3,-1.5 Z" fill="#ffac33"/>
	</g>
</svg>
