<svg xmlns="http://www.w3.org/2000/svg" viewBox="0 0 36 36">
	<g transform="translate(18) scale(1.1613)"> 36/31
	<g fill="#ffac33">
		<path d="M 0.333,29 c 0,1.1046 -6.7908,2 -9,2 s -1,-0.8954 -1,-2 s -1.2092,-2 1,-2 s 9,0.8954 9,2 Z"/>
		<path d="M 0.333,29 c 0,1.1046 -6.7908,2 -9,2 s -1,-0.8954 -1,-2 s -1.2092,-2 1,-2 s 9,0.8954 9,2 Z" transform="scale(-1 1)"/>
	</g>
	<g fill="#292f33" class="toodark">
		<path d=" M
7.56787,7.87331
 C 9.10926,9.36131 10.7471,11.51064
11.82349,13.66256
 C 13.92287,17.86134 14.50585,23.50162
13.61201,23.94767
 C 12.86112,24.32398 11.61165,22.61209
9.98932,19.57323
Z"/>
<path d="M
-9.98932,19.57151
 C -11.61165,22.61209 -12.86112,24.32398
-13.61288,23.94767
 C -14.50671,23.50162 -13.92287,17.86134
-11.82349,13.66256
 C -10.7471,11.50978 -9.10926,9.36131
-7.56701,7.87245
Z"/>
		<path d="M 0,29 c -4,0 -10,-0.0586 -10,-10 s 6,-19 10,-19 s 10,9.0586 10,19 s -6,10 -10,10 Z"/>
	</g>
	<g>
		<path d="M 8,17 a 8,12 0 01 -16,0 a 8,12 0 01 4.83541,-11.02096 c 0.73195,0.52269 1.87034,1.02096 3.16459,1.02096 s 2.43264,-0.49827 3.16459,-1.02096 a 8,12 0 01 4.83541,11.02096 Z" fill="#f5f8fa"/>
	</g>
	<circle cx="-2" cy="3" r="1" fill="#f5f8fa"/>
	<g>
		<path d="M 3,2.16667 c 5,0 7,3 6,3 h-5 c -3.3138,0 -4,-0.67155 -4,-1.5 s -0.3138,-1.5 3,-1.5 Z" fill="#ffac33"/>
	</g>
	</g>
</svg>
