<svg xmlns="http://www.w3.org/2000/svg" viewBox="0 0 36 36">
	<path d="M 22,4.587 c 0,6.075 -3.667,18.333 -11,18.333 s -11,-12.257 -11,-18.333 c 0,-7.18 8.25,-3.667 11,-3.667 c 2.712,0 11,-3.551 11,3.667 Z"  fill="#A6D388"/>
	
	<path d="M 5.5,11.92 c 4.583,2.75 7.333,2.75 11,0 c 2.75,-1.833 -1.833,6.417 -5.5,6.417 s -8.25,-8.25 -5.5,-6.417 Z"  fill="#5C913B"/>
	
	<path d="M 4.487,7.748 a 0.917,0.917 0 01 -1.64,-0.821 c 0.636,-1.272 1.933,-2.15 3.303,-2.235 c 0.839,-0.047 2.458,0.155 3.779,2.137 a 0.917,0.917 0 01 -1.525,1.017 c -0.61,-0.915 -1.355,-1.374 -2.14,-1.324 c -0.73,0.045 -1.428,0.526 -1.777,1.226 Z"   fill="#5C913B"/>
	<path d="M 17.514,7.747 c -0.35,-0.699 -1.047,-1.18 -1.777,-1.226 c -0.776,-0.042 -1.529,0.409 -2.14,1.324 a 0.917,0.917 0 01 -1.525,-1.017 c 1.32,-1.983 2.931,-2.186 3.779,-2.137 c 1.37,0.085 2.667,0.963 3.303,2.235 a 0.917,0.917 0 01 -1.64,0.821 Z"   fill="#5C913B"/>
	
	<path d="M 36,17.667 c 0,6.074 -3.667,18.333 -11,18.333 s -11,-12.259 -11,-18.333 c 0,-7.181 8.25,-3.667 11,-3.667 c 2.713,0 11,-3.552 11,3.667 Z"  fill="#CBB7EA"/>
	<path d="M 29.5,30.151 c -3.5,-2.151 -5.5,-2.151 -9,0 c -2.75,1.833 0.833,-4.417 4.5,-4.417 s 7.25,6.25 4.5,4.417 Z"  fill="#9266CC"/>
	
	<path d="M 17.819,21.411 a 0.917,0.917 0 01 -1.639,-0.821 c 0.7,-1.399 2.404,-2.49 4.051,-2.592 c 1.489,-0.099 2.815,0.585 3.698,1.911 a 0.917,0.917 0 01 -1.525,1.018 c -0.522,-0.782 -1.215,-1.148 -2.059,-1.099 c -1.121,0.069 -2.164,0.859 -2.526,1.583 Z"   fill="#9266CC"/>
	<path d="M 32.18,21.409 c -0.36,-0.723 -1.403,-1.512 -2.524,-1.582 c -0.842,-0.047 -1.539,0.316 -2.06,1.099 a 0.917,0.917 0 01 -1.525,-1.018 c 0.884,-1.326 2.188,-2.009 3.699,-1.911 c 1.648,0.103 3.352,1.194 4.051,2.593 a 0.917,0.917 0 01 -1.641,0.819 Z"   fill="#9266CC"/>
</svg>
