<svg xmlns="http://www.w3.org/2000/svg" viewBox="0 0 36 36">
	<g>
		<clipPath id="dish1">
			<rect width="34" height="6" x="1" y="15"/>
			<ellipse rx="17" ry="9" cx="18" cy="21"/>
		</clipPath>
	</g>
	<g>
		<g clip-path="url(#dish1)">
			<rect width="36" height="36" fill="#99AAB5"/>
			<rect x="2" width="4" height="36" fill="#E1E8ED"/>
			<rect x="32" width="2" height="36" fill="#E1E8ED"/>
		</g>
		<ellipse rx="17" ry="9" cx="18" cy="15" fill="#CCD6DD"/>
		<ellipse rx="15.1115" ry="7.5" cx="18" cy="14.5" fill="#99AAB5"/>
		<!-- <path fill="#99AAB5" d="M 18,9 c -7.661,0 -13.974,2.832 -14.961,6.5 c -0.089,-0.328 -0.15,-0.66 -0.15,-1 a 15.111,7.5 0 01 15.111,-7.5 a 15.111,7.5 0 01 15.111,7.5 c 0,0.34 -0.061,0.672 -0.15,1 c -0.986,-3.668 -7.3,-6.5 -14.961,-6.5 Z"/> -->
	</g>
	<g>
		<path d="M 32.961,15.5 c -0.986,3.668 -7.3,6.5 -14.961,6.5 s -13.974,-2.832 -14.961,-6.5 c 0.986,-3.668 7.3,-6.5 14.961,-6.5 s 13.974,2.832 14.961,6.5 Z" fill="#EA596E"/>
		<g fill="#F5F8FA">
			<ellipse rx="1.5" ry="1" cx="11.5" cy="13"/>
			<ellipse rx="1.5" ry="1" cx="8.5" cy="15"/>
			<ellipse rx="1.5" ry="1" cx="15.5" cy="14"/>
			<ellipse rx="1.5" ry="1" cx="11.5" cy="17"/>
			<ellipse rx="1.5" ry="1" cx="21.5" cy="18"/>
		</g>
	</g>
</svg>
