<svg xmlns="http://www.w3.org/2000/svg" viewBox="0 0 36 36">
	feet
	<path fill="#F47C01" d="M 17.4,28.18 s 0.09,1.28 -0.03,1.95 c -0.12,0.68 -0.46,0.73 -1.03,0.95 c -0.52,0.2 -1.39,0.45 -1.58,0.95 c -0.02,0.06 0.03,0.12 0.09,0.1 l 0.79,-0.27 c 0.04,-0.01 0.07,0.04 0.03,0.06 c -0.33,0.21 -0.76,0.59 -0.77,1.09 c 0,0.06 0.06,0.1 0.11,0.06 l 1.3,-0.82 c 0.03,-0.02 0.07,0.01 0.05,0.05 c -0.09,0.2 -0.25,0.61 -0.11,0.87 c 0.02,0.04 0.08,0.05 0.12,0.02 c 0.28,-0.26 1.37,-1.31 1.51,-1.74 c 0.16,-0.49 -0.01,-0.53 0.1,-1.32 s 0.28,-2.45 0.28,-2.45 Z"/>
	<path fill="#F47C01" d="M 16.23,27.41 s -0.5,2.11 -0.56,2.39 c 0,0 -0.11,0.5 -0.5,0.83 s -1.46,0.91 -1.46,0.91 c -0.02,0.02 -0.06,0.01 -0.08,-0.02 c -0.11,-0.22 0.16,-0.56 0.34,-0.75 c 0.03,-0.03 0,-0.09 -0.05,-0.07 l -1.26,0.47 c -0.03,0.01 -0.06,-0.02 -0.06,-0.05 c 0,-0.38 0.53,-0.62 0.87,-0.74 a 0.04,0.04 0 00 0.035,-0.045 a 0.04,0.04 0 00 -0.045,-0.035 l -0.7,0.01 c -0.04,0 -0.06,-0.05 -0.03,-0.08 c 0.1,-0.1 0.31,-0.27 0.54,-0.31 c 0.33,-0.06 1.06,0 1.5,-0.06 c 0.22,-0.03 0.35,-0.16 0.43,-0.29 c 0.06,-0.1 0.09,-0.22 0.1,-0.34 l 0.14,-1.7 l 0.79,-0.12 Z"/>
	
	tail
	<path fill="#F47C01" d="M 23.54,25.62 c 0.19,1.5 3.46,-1.32 4.5,3.42 c 0,0 -0.64,-1 -1.43,-1.34 c -1.06,-0.45 -1.78,1.11 -0.76,1.63 c 0.09,0.04 0.18,0.08 0.28,0.12 c 1.33,0.49 1.44,1.93 1.38,3.5 s 0.6,1.92 0.6,1.92 s -1.29,-0.11 -1.53,-1.23 s -0.28,-2.01 -1.22,-2.43 c 0,0 0.78,1.04 0.43,2.05 c -0.35,1 -0.29,1.92 0.58,2.73 c 0,0 -1.53,0.05 -1.92,-1.81 s -0.49,-1.84 -0.86,-1.76 c -0.38,0.08 -0.37,1.05 0.37,1.77 c 0,0 -1.63,-0.34 -1.85,-1.36 c -0.61,-2.88 -1.52,-1.29 -1.92,-3.17 c -0.04,-0.16 -0.06,-0.33 -0.07,-0.5 c -0.01,-0.16 -0.01,-0.31 -0.01,-0.47 l -0.06,-3.04 c 0.3,0.14 0.57,0.13 0.81,0.05 c 0.77,-0.26 1.28,-0.84 1.28,-0.84 c 0.67,-0.71 2.2,-0.99 3.02,0.1 c 0,0 -1.8,-0.75 -1.62,0.66 Z"/>
	
	wings
	<path fill="#F47C01" d="M 13.59,18.61 l -1.43,3.47 c -4.36,-0.69 -5.84,-4.57 -5.84,-4.57 l 1.51,-0.25 c 0.15,-0.03 0.18,-0.22 0.05,-0.3 c -2.38,-1.42 -2.38,-4.3 -2.38,-4.3 l 2.61,2.02 c 0.09,0.07 0.2,-0.04 0.14,-0.13 c -3.31,-5.05 0.37,-9.86 0.37,-9.86 l 1.36,3.12 c 0.06,0.13 0.25,0.09 0.25,-0.05 c -0.09,-7.07 8.16,-7.76 8.16,-7.76 c -4.34,3.9 -5.45,11.15 -5.63,12.64 c -0.02,0.16 -0.09,0.31 -0.21,0.42 c -1.59,1.4 -1.1,4.49 -0.39,5.27 c 0.74,0.81 1.43,0.28 1.43,0.28 Z"/>
	<path fill="#F47C01" d=" M
18.32,23.59
 C 18.81,24.75 20.05,25.65
20.04,25.64
 C 17.673,26.827 11.415,20.703
13.343,18.741
 C 13.775,18.302 14.21,17.99
14.45,17.75
 C 15.11,17.09 14.62,15.77

13.96,15.61
 C 13.884,15.592 13.811,15.582
13.74,15.579
 C 13.74,14.74 13.84,14.26
14.61,13.991
 C 15.058,13.956 15.565,13.97
16.1,13.97

 C 17.91,13.97 18.4,12.82
18.4,12.82
 C 18.4,12.82 18.59,14.4
17.21,15.12
 C 16.83,15.32 16.66,15.77
16.8,16.18
 C 17,16.78 17.24,17.6
17.33,18.33
 C 17.49,19.64 17.66,20.3
18.48,20.3
 C 19.13,20.3 20.23,19.73
20.78,18.16
 C 21.72,15.47 20.8,14.14
20.15,13.58
 C 19.89,13.36 19.83,12.98
20.02,12.69
 C 21.02,11.18 23.36,6.59
20.37,0
 C 20.37,0 27.6,3.12
24.63,9.07
 C 24.59,9.15 24.7,9.22
24.75,9.15
 L
27.68,5.52
 C 27.68,5.52 30.77,9.23
25.56,13.8
 C 25.48,13.87 25.56,13.99
25.66,13.95
 L
30.48,11.76
 C 30.48,11.76 31.1,16.56
25.12,19.1
 C 25.01,19.14 25.04,19.3
25.16,19.3
 L
29.99,19.15
 C 29.99,19.15 24.57,24.74
18.32,23.59
 Z"/>
	left wing shadows
	<g fill="#F4531F">
		<path d="M 13.48,1.69 c -1.78,1.65 -2.39,5.58 -2.57,7.29 c -0.02,0.21 -0.31,0.26 -0.4,0.06 l -0.53,-1.23 c 0.06,0.13 0.25,0.09 0.25,-0.05 c -0.04,-3.07 1.5,-4.94 3.25,-6.07 Z"/>
 		<path d="M 8.24,14.54 c -2.48,-3.79 -1.02,-7.45 -0.14,-9.03 c -1.12,3.99 0.65,8.18 1.51,9.87 c 0.1,0.18 -0.12,0.36 -0.28,0.24 l -1.21,-0.94 c 0.08,0.05 0.18,-0.05 0.12,-0.14 Z"/>
		<path d="M 5.54,13.17 c 0.89,2.45 2.65,3.28 3.69,3.56 c 0.15,0.04 0.14,0.25 -0.01,0.28 l -1.35,0.23 c 0.11,-0.05 0.13,-0.21 0.01,-0.28 c -1.76,-1.05 -2.22,-2.9 -2.34,-3.79 Z"/>
		<path d="M 12.16,22.08 c -4.35,-0.68 -5.83,-4.57 -5.84,-4.57 c 0,0 2.01,3.15 6.1,2.44 c 0.25,-0.05 0.47,-0.07 0.65,-0.08 l -0.91,2.21 Z"/>
	</g>
	right wing shadows
	<g fill="#F4531F">
		<path d="M 23.69,10.43 c -0.07,0.08 -0.2,-0.01 -0.14,-0.1 c 1.65,-2.98 1.18,-6.49 1.18,-6.49 c 0.462,0.904 1.163,2.714 -0.1,5.23 c -0.03,0.06 0.02,0.12 0.08,0.11 l -1.02,1.25 Z"/>
		<path d="M 23.37,14.63 c -0.11,0.06 -0.05,0.22 0.07,0.2 c 0.35,-0.05 0.66,-0.18 0.66,-0.18 l 1.55,-0.7 c -0.09,0.03 -0.16,-0.09 -0.09,-0.15 c 3.95,-3.34 2.92,-6.49 2.92,-6.49 s -0.86,5.03 -5.11,7.32 Z"/>
		<path d="M 30.26,13.82 c 0,0.01 -2.64,4.58 -7.38,5.05 c -0.13,0.01 -0.14,0.19 -0.02,0.22 c 0.44,0.1 1.18,0.21 2.29,0.21 c -0.11,0 -0.14,-0.16 -0.03,-0.2 c 4.49,-1.85 5.14,-5.28 5.14,-5.28 Z"/>
		<path d="M 17.7,21.33 c 4.9,2.21 12.29,-2.18 12.29,-2.18 s -4.53,4.65 -10.08,4.58 c -0.03,0 -0.05,0.01 -0.09,0.01 c -1.18,0.06 0.21,1.89 0.22,1.9 h-2.34 h-1 v-4.31 h1 Z"/>
	</g>
	tail shadow
	<path fill="#F4531F" d="M 25.03,33.79 c 0.39,1.34 0.56,1.89 1.34,2.2 c 0,0 -1.53,0.05 -1.92,-1.81 c -0.27,-1.29 -0.4,-1.68 -0.58,-1.77 c 0,0 0.77,0.05 1.16,1.38 Z"/>
	<path fill="#F4531F" d="M 26.78,32 c 0.5,1.25 0.15,2.25 1.32,2.86 l 0.01,0.01 s -1.29,-0.11 -1.53,-1.23 s -0.28,-2.01 -1.22,-2.43 c 0,0 0.92,-0.46 1.42,0.79 Z"/>
	
	belly
	<path d="M 17.71,21.34 c 0.03,0.35 0.08,0.66 0.15,0.96 c 0.13,0.58 0.33,1.09 0.57,1.51 c 0.11,0.22 0.25,0.43 0.39,0.61 c 0.61,0.78 1.23,1.22 1.23,1.23 c 0,0.02 -0.24,0.51 -1.04,0.98 c -0.15,0.09 -0.27,0.24 -0.31,0.41 c -0.11,0.44 -0.39,1.29 -0.94,1.47 c -0.7,0.23 -0.55,-0.93 -1.23,-1.45 c -0.48,1.28 -1.27,0.7 -1.27,0.2 s -0.69,-1.39 -0.69,-1.39 c -0.66,-0.45 -1.28,-0.94 -1.56,-1.36 h0.02 c -0.43,-0.55 -0.74,-1.21 -0.87,-1.98 c -0.31,-1.91 0.4,-3.19 1.27,-3.85 c 1.35,-1.02 4.09,-0.29 4.28,2.66 Z" fill="#FFAC33"/>
	
	
	tail fire
	<path fill="#FFAC33" d="M 26.3,25.76 c -0.84,-0.26 -0.44,-1.22 0.23,-0.78 c 0.68,0.44 0.76,1.3 0.76,1.3 s -0.15,-0.26 -0.99,-0.52 Z"/>
	<path fill="#FFAC33" d="M 28.11,29.41 c 0.71,0.47 1.12,1.2 0.85,2.14 c -0.17,0.62 -0.26,1.51 -0.26,1.51 c -0.42,-0.51 -0.75,-1.22 -0.5,-1.95 c 0.25,-0.72 -0.09,-1.7 -0.09,-1.7 Z"/>
	tail light
	<path fill="#FFAC33" d="M 20.12,29.15 c -0.01,-0.16 -0.01,-0.32 -0.01,-0.46 l -0.06,-3.04 s 0.41,4.09 1.69,4.15 c 1.24,0.05 0.62,3.89 2.08,4.36 c -0.39,-0.11 -1.53,-0.48 -1.71,-1.33 c -0.61,-2.88 -1.52,-1.29 -1.92,-3.17 c -0.04,-0.17 -0.06,-0.34 -0.07,-0.51 Z"/>

	
	eye
	<circle cx="14.91" cy="14.84" r="0.29" fill="#292F33"/>
	beak
	<path fill="#FFCC4D" d="M 13.74,15.58 c -0.54,-0.02 -0.93,0.36 -0.93,0.37 c 0,-1.51 0.74,-1.87 1.8,-1.95 c -0.05,0.03 -0.83,0.62 0.17,1.62 l -1.04,-0.04 Z"/>
</svg>
