<svg xmlns="http://www.w3.org/2000/svg" viewBox="0 0 36 36">
	<g fill="#f4900c">
		<path d="M 29.1855,33.2793 l -23.265,-23.266 c -1.167,-1.166 -1.221,-3.021 -0.121,-4.121 s 2.954,-1.045 4.121,0.121 l 23.265,23.266 c 1.166,1.166 1.221,3.021 0.121,4.121 s -2.955,1.045 -4.121,-0.121 Z"/> offcenterstretched gosh
		<rect width="6" height="4" x="-3" y="-2" rx="2" transform="translate(5.536 5.536) rotate(-45)"/>
	</g>
	<g>
		<path d="M 23,1 c 5,2 -1.071,1.67 -3,2 c -5.96,1.022 -9.178,3.822 -11.178,5.822 s -4.8,5.218 -5.822,11.178 c -0.33,1.929 0,8 -2,3 c -0.743,-1.857 -3,-11 4,-18 s 16.143,-4.743 18,-4 Z" fill="#66757f"/>
	</g>
</svg>
