<svg xmlns="http://www.w3.org/2000/svg" viewBox="0 0 36 36">
	<g fill="#F4900C">
		<path d="M 7.728,3.1323 s 0.418,-1.003 1.661,-0.838 s 9.668,1.593 13.676,3.454 c 4.01,1.861 8.53,4.059 11.358,7.384 c 0.75,0.883 0.445,1.529 0.445,1.529 l -1.036,7.437 s -0.3,1.49 -1.737,1.886 c -1.439,0.397 -29.588,8.154 -29.588,8.154 s -1.507,0.345 -1.507,-1.207 v-7.765 s 0.152,-0.933 0.52,-2.026 c 0.369,-1.094 6.208,-18.008 6.208,-18.008 Z"/>
	</g>
	<g fill="#A0041E">
		<path d="M 30.6094,20.5469 c 0.642,0.613 0.778,0.965 0.719,1.297 c -0.033,0.189 -0.127,0.296 -0.313,0.344 l -29.419,8.115 c -0.04,0.009 -0.08,0.014 -0.119,0.014 c -0.107,0 -0.214,-0.036 -0.3,-0.102 c -0.117,-0.093 -0.187,-0.235 -0.187,-0.386 c 0,-0.308 6.278,-18.918 6.278,-18.918 c 0.071,-0.215 0.285,-0.347 0.506,-0.329 c 7.826,0.746 18.387,5.707 22.835,9.965 Z"/>
		<path d="M 31.3232,21.8789 l -30.323,8.15 v-7.112 s 5.331,-11.975 6.397,-19.255 c 16.745,2.418 24.752,11.116 24.752,11.116 l -0.826,7.101 Z"/>
	</g>
	<g fill="#BE1931">
		<ellipse rx="2.573" ry="2.5725" cx="5.6145" cy="25.5317"/>
		<ellipse rx="2.573" ry="2.5725" cx="10.6145" cy="21.5317"/>
		<ellipse rx="2.573" ry="2.5725" cx="16.6145" cy="22.5317"/>
		<ellipse rx="2.573" ry="2.5725" cx="21.6145" cy="18.5317"/>
		<ellipse rx="2.573" ry="2.5725" cx="27.6145" cy="19.5317"/>
	</g>
	<g fill="#F4900C">
		<path d="M 32.0957,13.498 c 0.642,0.614 0.717,1.338 0.657,1.669 c -0.033,0.19 -0.174,0.342 -0.359,0.389 l -30.798,7.747 c -0.039,0.008 -0.079,0.013 -0.118,0.013 c -0.108,0 -0.214,-0.035 -0.3,-0.101 c -0.118,-0.093 -0.187,-0.236 -0.187,-0.386 c 0,-0.039 -0.09,-0.749 0.085,-1.297 c 1.21,-3.794 6.192,-17.621 6.192,-17.621 c 0.072,-0.215 0.286,-0.348 0.507,-0.329 c 7.826,0.746 19.873,5.658 24.321,9.916 Z"/>
		<path d="M 32.0957,13.498 c 0.642,0.614 0.113,0.346 0.054,0.677 c -0.034,0.19 -0.174,0.341 -0.36,0.389 l -30.194,7.739 c -0.039,0.008 -0.079,0.013 -0.118,0.013 c -0.108,0 -0.214,-0.035 -0.3,-0.101 c -0.118,-0.093 -0.187,-0.236 -0.187,-0.386 c 0,-0.309 6.277,-17.918 6.277,-17.918 c 0.072,-0.215 0.286,-0.348 0.507,-0.329 c 7.826,0.746 19.873,5.658 24.321,9.916 Z"/>
	</g>
	one of the scariest..
	<g fill="#FFCC4D">
		<path d="M 18.27,10.1919 l 1.842,2.491 l -4.301,0.428 l -1.806,-2.415 l 4.265,-0.504 ZM 9.65,20.2389 l -1.834,-2.457 l 4.458,-0.526 l 1.437,1.942 l 5.583,-1.431 l -0.921,-1.233 l 4.218,-0.498 l 0.571,0.772 l 5.57,-1.456 l -0.029,-0.039 l 0.325,-0.038 l 3.613,-0.945 c -0.098,-0.27 -0.261,-0.56 -0.545,-0.832 c -0.613,-0.586 -1.38,-1.184 -2.249,-1.783 l -3.57,0.355 l -1.941,-2.595 l 1.416,-0.168 c -3.435,-1.761 -7.531,-3.361 -11.415,-4.435 l 1.437,1.944 l -4.348,0.432 l -1.669,-2.232 l 3.527,-0.417 c -1.951,-0.496 -3.83,-0.857 -5.509,-1.017 c -0.221,-0.018 -0.435,0.114 -0.507,0.329 c 0,0 -1.376,3.586 -2.768,7.74 l 3.454,-0.239 l 1.708,2.31 l -4.539,0.451 l -1.022,-1.338 c -0.721,2.154 -1.569,4.362 -2.151,6.124 l 2.124,2.709 l 5.576,-1.429 Z"/>
		<path d="M 1.9504,18.959 s -0.075,-1.197 0.758,-3.359 s 1.2,-3.017 1.392,-2.765 c 0.193,0.252 -0.559,2.998 -0.85,3.665 c -0.292,0.667 -0.758,2.04 -0.98,2.313 c -0.221,0.272 -0.32,0.146 -0.32,0.146 Z"/>
		<path d="M 4.5003,11.6512 s 0.062,-1.526 0.437,-2.589 c 0.375,-1.062 1.048,-1.681 1.139,-1.931 c 0.09,-0.249 0.07,-1.506 0.32,-2.09 c 0.25,-0.583 0.758,-1.71 1.379,-1.459 s -1.396,4.314 -1.638,5.126 c -0.241,0.813 -1.637,2.943 -1.637,2.943 Z"/>
	</g>
	<g fill="#F4900C">
		<path d="M 10.8617,17.4873 c 0.807,-0.218 2.42,-1.237 4.013,-1.456 c 1.594,-0.219 3.531,0.617 4.108,0.549 c 0.578,-0.068 1.797,-0.212 2.313,-0.273 s 2.829,-1.339 4.173,-1.526 c 1.344,-0.188 3.145,0.762 3.791,0.584 c 0,0 0.719,0.203 0,0.294 c -0.718,0.09 -2.601,-0.646 -3.645,-0.472 c -1.502,0.25 -2.574,1.113 -4.319,1.393 c -1.051,0.169 -1.792,0.307 -2.421,0.357 c -1.164,0.094 -2.6,-0.779 -4.068,-0.529 c -1.469,0.25 -2.275,1.243 -3.945,1.404 c -0.99,0.096 -0.617,-0.158 0,-0.325 Z"/>
		<path d="M 6.5417,20.4483 c 1.194,-0.278 2.57,-0.742 3.108,-0.21 l -2.691,1.032 l -2.885,0.397 s 0.093,-0.667 2.468,-1.219 Z"/>
		<path d="M 16.3958,17.8958 c 1.489,-0.356 2.464,-0.425 2.898,-0.129 l -2.719,1.025 l -2.864,0.406 s 0.247,-0.719 2.685,-1.302 Z"/>
		<path d="M 25.7083,15.5833 c 1.082,-0.297 2.479,-0.437 2.833,-0.354 c 0,0 2.858,-0.741 3.992,-0.871 c 0,0 -2.605,0.892 -3.413,1.1 s -5.901,1.616 -5.959,1.35 c -0.057,-0.267 0.88,-0.767 2.547,-1.225 Z"/>
		<path d="M 6.8618,11.4873 c 0.807,-0.218 2.419,-1.237 4.013,-1.456 s 3.531,0.617 4.108,0.549 s 1.797,-0.212 2.313,-0.273 s 2.829,-1.339 4.173,-1.526 c 1.344,-0.188 3.145,0.762 3.791,0.584 c 0,0 0.718,0.203 0,0.294 c -0.718,0.09 -2.601,-0.646 -3.646,-0.472 c -1.501,0.25 -2.573,1.113 -4.318,1.393 c -1.051,0.169 -1.792,0.307 -2.421,0.357 c -1.164,0.094 -2.6,-0.779 -4.068,-0.529 c -1.469,0.25 -2.276,1.243 -3.945,1.404 c -0.99,0.096 -0.617,-0.158 0,-0.325 Z"/>
		<path d="M 8.8479,17.6603 s 0.746,0.371 -0.348,0.34 s -1.625,-0.594 -3.25,-0.419 s -2.324,1.2 -2.991,1.407 s -0.187,0.544 -0.187,0.544 l -0.122,-0.573 s 1.3,-1.397 3.195,-1.736 c 1.894,-0.338 2.944,0.527 3.703,0.437 Z"/>
		<path d="M 28,15.2346 l 1.579,0.092 l 0.421,-0.327 l -0.281,0.89 l -1.313,0.405 l -0.406,-1.06 Z"/>
		<path d="M 7.125,4.7187 c 1.469,-0.406 2.426,0.322 3.489,0.196 s 1.079,0.167 0.261,0.335 s -2.86,-0.545 -3.706,-0.269 s -0.985,1.15 -0.985,1.15 l 0.139,-0.874 s -0.162,-0.271 0.802,-0.538 Z"/>
		<path d="M 9.0962,13.7784 c -0.739,0.118 -1.409,-0.153 0,-0.33 s 1.83,-0.679 2.748,-1.042 c 1.797,-0.712 3.625,0.386 4.531,0 c 0.432,-0.184 0.824,0.6 -0.46,0.6 c -0.79,0 -1.665,-0.663 -3.071,-0.382 c -1.544,0.307 -1.688,0.824 -3.748,1.154 Z"/>
		<path d="M 19.4684,12.7466 c -0.644,0.064 -1.062,-0.184 0,-0.34 c 1.062,-0.157 1.688,-0.813 3.282,-1.125 c 1.593,-0.313 3.233,0.395 3.875,0.33 c 0.642,-0.066 0.473,0.377 -0.348,0.458 c -0.822,0.082 -1.996,-0.632 -3.309,-0.418 c -1.312,0.213 -2.64,1.01 -3.5,1.095 Z"/>
		<path d="M 3.2618,14.1923 l 0.16,-0.385 c 0.642,-0.255 1.474,0.068 2.192,-0.12 c 0.719,-0.188 0.666,0.156 -0.113,0.448 c -0.78,0.292 -1.524,-0.131 -2.239,0.057 Z"/>
		<path d="M 8.5312,6.9687 c -0.749,0.033 -1.375,0.375 -1.948,0.63 s -1.083,0.36 -1.083,0.36 l 0.255,-0.36 c 1.13,-0.245 1.057,-0.536 2.517,-0.817 c 1.46,-0.282 2.478,0.187 3.181,0.147 c 0.704,-0.039 1.107,0.207 0.145,0.302 c -0.963,0.096 -1.712,-0.323 -3.067,-0.262 Z"/>
		<path d="M 15.5618,6.837 c -0.938,0.056 -0.906,-0.243 0,-0.308 s 2.032,-0.653 2.032,-0.653 l 0.55,0.19 c -0.949,0.065 -1.695,0.718 -2.582,0.771 Z"/>
	</g>
</svg>
