<svg xmlns="http://www.w3.org/2000/svg" viewBox="0 0 36 36">
	<path d="M 34.193,13.329 c 1.147,2.544 1.807,5.322 1.807,8.15 c 0,9.989 -8.011,12.521 -18,12.521 s -18,-2.532 -18,-12.521 c 0,-2.839 0.666,-5.629 1.821,-8.181 c -0.374,-0.365 -0.711,-0.778 -0.989,-1.249 c -1.684,-2.853 -0.269,-10.292 0.592,-10.8 c 0.695,-0.41 5.506,1.044 8.227,3.118 c 2.493,-1.488 5.328,-2.367 8.349,-2.367 c 3.031,0 5.876,0.884 8.374,2.381 c 2.717,-2.082 7.551,-3.543 8.246,-3.132 c 0.862,0.508 2.278,7.946 0.592,10.8 c -0.286,0.485 -0.632,0.909 -1.019,1.28 Z"  fill="#F4ABBA"/>
	<path d="M 7.398,5.965 c -2.112,1.738 -3.879,3.937 -5.152,6.42 c -0.731,-3.267 -0.218,-7.928 0.352,-8.265 c 0.398,-0.235 2.634,0.578 4.8,1.845 Z"  fill="#EA596E"/>
	<path d="M 33.753,12.384 c -1.272,-2.482 -3.038,-4.681 -5.152,-6.42 c 2.166,-1.267 4.403,-2.08 4.801,-1.845 c 0.57,0.337 1.084,4.998 0.351,8.265 Z"  fill="#EA596E"/>
	<path d="M 28,23.125 c 0,4.487 -3.097,9.375 -10,9.375 c -6.904,0 -10,-4.888 -10,-9.375 s 3.096,-5.625 10,-5.625 c 6.903,0 10,1.138 10,5.625 Z"  fill="#EA596E"/>
	<path fill="#662113" d="M15 24.6c0 1.857-.34 2.4-1.5 2.4s-1.5-.543-1.5-2.4c0-1.856.34-2.399 1.5-2.399s1.5.542 1.5 2.399zm9 0c0 1.857-.34 2.4-1.5 2.4s-1.5-.543-1.5-2.4c0-1.856.34-2.399 1.5-2.399s1.5.542 1.5 2.399z"/>
	<circle fill="#292F33" cx="7" cy="17" r="2"/>
	<circle fill="#292F33" cx="29" cy="17" r="2"/>
	</svg>
