<svg xmlns="http://www.w3.org/2000/svg" viewBox="0 0 36 36">
	<defs>
		<clipPath id="pill1">
			<path d="M 0,9.5 a 9.5,9.5 0 01 9.5,-9.5 a 9.5,9.5 0 01 6.7175,2.7825 l 17,17 a 9.5,9.5 0 01 2.7825,6.7175 a 9.5,9.5 0 01 -9.5,9.5 a 9.5,9.5 0 01 -6.7175,-2.7825 l -17,-17 a 9.5,9.5 0 01 -2.7825,-6.7175 Z"/>		
		</clipPath>
	</defs>
	<g clip-path="url(#pill1)">
		<path d="M -1,-1 H 24.3448 V 24.5395 H -1 Z" fill="#ffcc4d"/>
		<path d="M -1,37 L 33,2 H36 V37 Z" fill="#be1931"/>
	</g>
	
	11.1045,24.5395
	24.3448,10.9098
	
<!--	<path d=" M
33.207,19.7734
 L
36,26.5
 L
26.5,36
 L
19.789,33.2244
 L
11.1052,24.5403 **
 L
24.3387,10.9183 *
 L
33.207,19.7734
 Z" fill="#be1931"/>
	<path d=" M
15.9214,2.5132
 L
24.3387,10.9183 *
 L
11.1052,24.5403 **
 L
2.5,15.9352
 L
0,9.5
 L
9.5,0
 L
15.9214,2.5132
 Z" fill="#ffcc4d"/>-->
</svg>
