<svg viewBox="0 0 36 36" xmlns="http://www.w3.org/2000/svg">
	<!-- fear -->
	
	<!-- GREEN -->
	<path d="M 21.1,10.785 c 0.772,-0.386 8.347,-4.574 8.881,-4.812 c 0.535,-0.238 1.188,-0.208 0.832,0.594 s -5.941,9.475 -6.119,9.802 s -2.257,-2.05 -2.554,-2.762 c -0.297,-0.713 -1.04,-2.822 -1.04,-2.822 Z" fill="#77B255"/>
	<!-- GREEN -->
	<path d="M 8.083,26.837 l 0.969,2.301 l 0.017,3.925 s -0.548,0.279 -0.678,0.334 s 0.103,0.73 0.103,0.73 l -1.034,0.097 l -0.442,-0.684 s -0.426,0.566 -0.869,0.608 s -0.633,-0.652 -0.633,-0.652 l -0.555,-0.346 l 0.496,-0.806 l -0.083,-0.642 l -0.694,-0.191 s 0.456,-0.821 0.561,-1.3 s 0.335,-1.269 0.353,-1.712 s 0.696,-0.777 1.026,-0.965 c 0.331,-0.188 0.343,-0.644 0.343,-0.644 s 0.278,-0.23 1.12,-0.053 Z" fill="#77B255"/>
	<!-- PURPLE -->
	<path d="M 21.658,28.8 l 1.088,0.996 l 0.208,2.124 s 0.638,3.076 0.52,3.134 s -1.065,0.461 -1.065,0.461 l -0.301,-0.624 l -1.366,-0.074 l -0.431,0.861 c -0.184,0.368 -1.322,0.252 -1.322,0.252 l 0.106,-1.137 l -0.254,-1.135 l 0.728,-0.861 l -0.651,-0.141 s 0.253,-0.54 0.325,-0.988 c 0.073,-0.449 0.206,-0.794 0.2,-1.204 s 0.603,-0.754 0.899,-0.944 c 0.296,-0.191 0.284,-0.613 0.284,-0.613 s 0.245,-0.227 1.032,-0.107 Z" fill="#9266CC"/>
	<!-- PINK -->
	<path d="M 7.619,26.928 l 0.518,1.232 l 1.08,1.165 l -0.648,0.829 l 1.071,1.023 l -0.548,0.642 s 0.801,1.354 0.827,1.416 c 0.026,0.061 -0.83,0.398 -0.83,0.398 l -0.732,-1.432 l -0.752,0.341 l -0.25,-1.079 l 0.259,-1.874 l -0.531,-2.049 l 0.536,-0.612 Z" fill="#E954D2"/>
	<!-- BLUE -->
	<path d="M 7.083,27.54 l 0.703,0.211 l 0.106,1.527 l -0.262,1.682 l 0.301,1.928 l -0.346,1.669 s -0.855,-0.026 -0.838,-0.106 s 0.419,-1.434 0.419,-1.434 l -0.128,-1.759 l 0.045,-3.718 Z" fill="#3B88C3"/>
	<!--<path d="M 3.371,12.819 c 0.787,-0.12 1.032,0.107 1.032,0.107 s -0.012,0.422 0.284,0.613 c 0.296,0.19 0.905,0.534 0.899,0.944 s 0.417,0.804 0.2,1.204 c -0.057,0.104 0.329,0.654 0.329,0.654 l -0.386,0.594 l 0.55,1.5 l -0.564,0.342 l 0.324,1.173 s -0.915,-0.317 -1.322,-0.252 c -0.19,0.03 -0.606,0.149 -0.606,0.149 l -1.191,-0.936 l -0.301,0.624 s -0.947,-0.403 -1.065,-0.461 c -0.069,-0.034 0.189,-1.037 0.344,-1.811 c 0.015,-0.074 -0.163,-1.025 -0.163,-1.025 l 0.564,-0.52 l -0.089,-1.619 l 0.52,-0.297 l 0.641,-0.983 Z" fill="#55ACEE"/>-->
	<!-- RED -->
	<path d="M 12.694,12.864 s -0.505,5.673 -0.832,5.406 s -7.663,-4.188 -8.079,-4.515 s -0.267,-0.861 0.297,-0.891 c 0.565,-0.03 7.485,0.089 8.614,0 Z" fill="#EA596E"/>
	<!-- RED -->
	<path d="M 21.233,28.908 l 0.833,0.754 l 0.768,1.379 l -0.557,0.799 l 0.502,0.525 l 0.066,0.987 s 0.634,0.443 0.661,0.498 s -0.571,1.178 -0.571,1.178 l -0.662,-0.777 l -0.765,-0.155 l -0.286,-0.984 l 0.143,-1.745 l -0.595,-1.866 l 0.463,-0.593 Z" fill="#EA596E"/>
	<!-- RED -->
	<path d="M 30.113,5.236 c 0.816,-0.37 1.142,-0.189 1.142,-0.189 s 0.1,0.476 0.47,0.6 s 1.118,0.327 1.221,0.787 s 0.487,1.238 0.685,1.718 s 0.816,1.241 0.816,1.241 l -0.665,0.352 l 0.04,0.691 l 0.656,0.736 l -0.494,0.484 s -0.059,0.769 -0.514,0.822 s -0.995,-0.448 -0.995,-0.448 l -0.315,0.814 l -1.062,0.124 s 0.106,-0.759 -0.036,-0.788 s -0.749,-0.202 -0.749,-0.202 l -0.737,-4.12 l 0.537,-2.622 Z" fill="#EA596E"/>
	<!-- CYAN -->
	<path d="M 21.471,29.528 l 0.49,1.559 l -0.505,2.629 s 0.33,1.187 0.342,1.262 c 0.012,0.074 -0.794,0.98 -0.794,0.98 l -0.234,-1.559 l 0.377,-1.766 l -0.478,-1.709 l 0.193,-1.426 l 0.609,0.03 Z" fill="#55ACEE"/>
	<!-- YELLOW -->
	<path d="M 7.44,27.414 l -0.21,0.596 l 0.277,0.778 l -0.875,1.505 l 0.163,1.116 l -0.427,1.05 l 0.216,1.118 l -0.665,-0.058 l -0.311,-0.618 l 0.445,-1.614 l -0.011,-1.18 l 0.466,-1.261 l -0.19,-0.693 l 0.705,-0.999 l 0.417,0.26 Z" fill="#FFCC4D"/>
	<!-- YELLOW -->
	<path d="M 21.004,29.337 l -0.163,0.561 l -0.528,0.907 l 0.092,1.233 l 0.472,0.935 l -0.605,1.08 l 0.145,0.866 l -0.461,0.935 l -0.364,-1.355 l 0.329,-1.514 l -0.071,-1.089 l -0.22,-1.106 l 0.594,-0.698 l 0.382,-0.974 l 0.398,0.219 Z" fill="#FFCC4D"/>
	<!-- PURPLE 2 -->
	<path d="M 16.065,22.889 l 6.728,-2.004 s -0.891,7.797 -1.069,8.554 s -0.802,0.713 -1.114,0.178 s -4.545,-6.728 -4.545,-6.728 Z" fill="#AA8DD8"/>
	<!-- ORANGE -->
	<path d="M 11.937,18.879 c 0.256,-0.077 1.931,1.455 2.525,1.842 c 0.594,0.386 2.317,1.455 2.554,1.842 c 0.238,0.386 0.743,0.416 -0.238,0.921 s -8.436,4.04 -9.03,4.396 s -0.906,-0.059 -0.327,-0.936 c 0.646,-0.976 4.219,-7.976 4.516,-8.065 Z" fill="#F4900C"/>
	<!-- GREEN 2 -->
	<circle fill="#3E721D" cx="18.037" cy="16.128" r="7"/>
	<!-- PURPLE -->
	<path d="M 13.704,15.419 c 0.55,-3.766 3.208,-5.818 5.242,-6.224 c 3.435,0.446 6.091,3.377 6.091,6.934 c 0,0.898 -0.176,1.754 -0.484,2.543 c -0.208,-0.289 -0.452,-0.573 -0.78,-0.847 c -3.202,-2.669 -7.262,-2.732 -10.083,-2.26 c -0.372,2.742 0.099,5.047 0.972,6.695 l -0.004,-0.002 c -0.89,-1.677 -1.364,-4.034 -0.954,-6.839 Z" fill="#9266CC"/>
	<!-- BLUE -->
	<path d="M 23.773,17.825 c 0.329,0.273 0.572,0.558 0.781,0.847 c -1.018,2.607 -3.548,4.457 -6.516,4.457 c -1.225,0 -2.375,-0.316 -3.376,-0.869 c -0.874,-1.648 -1.344,-3.954 -0.972,-6.695 c 2.821,-0.472 6.881,-0.408 10.083,2.26 Z" fill="#3B88C3"/>
	<!-- PINK -->
	<path d="M 21.575,16.339 c 0.982,-0.507 2.673,-0.119 3.475,0.653 s 5.376,6.356 6.208,7.099 s 0.297,0.861 -1.069,0.475 s -7.99,-1.337 -8.584,-1.485 c -0.594,-0.149 -1.416,-0.517 -1.782,-1.723 c -0.505,-1.662 0.832,-4.543 1.752,-5.019 Z" fill="#E954D2"/>
	<!-- CYAN -->
	<path d="M 9.037,17.128 s 2.264,-1.863 4.162,-3.046 c 1.884,-1.175 4.405,-0.891 5.673,0.95 c 1.248,1.812 0.505,4.396 -0.743,5.228 c -1.177,0.784 -2.97,1.277 -4.752,0.089 c -1.86,-1.24 -4.34,-3.221 -4.34,-3.221 Z" fill="#55ACEE"/>
	<!-- CYAN -->
	<path d="M 3.371,12.819 c 0.787,-0.12 1.032,0.107 1.032,0.107 s -0.012,0.422 0.284,0.613 c 0.296,0.19 0.905,0.534 0.899,0.944 s 0.417,0.804 0.2,1.204 c -0.057,0.104 0.329,0.654 0.329,0.654 l -0.386,0.594 l 0.55,1.5 l -0.564,0.342 l 0.324,1.173 s -0.915,-0.317 -1.322,-0.252 c -0.19,0.03 -0.606,0.149 -0.606,0.149 l -1.191,-0.936 l -0.301,0.624 s -0.947,-0.403 -1.065,-0.461 c -0.069,-0.034 0.189,-1.037 0.344,-1.811 c 0.015,-0.074 -0.163,-1.025 -0.163,-1.025 l 0.564,-0.52 l -0.089,-1.619 l 0.52,-0.297 l 0.641,-0.983 Z" fill="#55ACEE"/>
	<!-- GREEN -->
	<path d="M 30.338,25.013 l 0.92,-0.743 l 1.396,0.535 l 0.208,1.871 l 1.099,1.277 l -0.148,2.05 l -0.505,1.663 l -1.337,0.475 l -1.218,-1.901 l -0.712,1.01 l -0.743,-1.663 l 0.327,-2.02 l 0.713,-1.366 v-1.188 Z" fill="#77B255"/>
	<!-- PINK -->
	<path d="M 30.823,24.237 l 0.742,1.129 l -0.475,1.901 l 0.535,1.426 l -0.238,2.97 l -0.713,0.178 l 0.357,-2.911 l -0.595,-1.425 l 0.476,-2.139 l -0.089,-1.129 Z" fill="#E954D2"/>
	<!-- YELLOW -->
	<path d="M 16.258,11.468 c -1.147,0.428 -3.163,0.683 -3.222,-0.029 c -0.059,-0.713 -0.267,-8.777 -0.267,-10.025 s 0.519,-1.144 0.965,-0.342 c 0.28,0.504 4.603,7.485 5.049,8.317 c 0.445,0.831 -0.891,1.47 -2.525,2.079 Z" fill="#FFCC4D"/>
	<!-- YELLOW -->
	<path d="M 13.763,0.079 l 0.722,1.051 l 0.585,0.319 l -0.1,1.736 l 0.635,0.557 s -0.201,1.019 -0.184,1.099 c 0.174,0.83 0.465,1.906 0.387,1.942 c -0.132,0.062 -1.198,0.494 -1.198,0.494 l -0.339,-0.669 l -1.34,1.004 s -0.468,-0.128 -0.682,-0.16 c -0.458,-0.069 -1.487,0.271 -1.487,0.271 l 0.365,-1.258 l -0.635,-0.366 l 0.618,-1.608 l -0.434,-0.637 s 0.435,-0.589 0.371,-0.701 c -0.244,-0.428 0.232,-0.851 0.225,-1.291 s 0.678,-0.808 1.011,-1.012 s 0.319,-0.657 0.319,-0.657 s 0.276,-0.243 1.161,-0.114 Z" fill="#FFCC4D"/>
	<!-- YELLOW -->
	<path d="M 10.574,17.433 v1.106 l 0.777,1.273 l 0.356,1.882 l -0.809,1.549 l -0.777,-0.941 l -1.328,1.771 l -1.457,-0.442 l -0.55,-1.55 l -0.162,-1.909 l 1.198,-1.19 l 0.227,-1.743 l 1.521,-0.498 l 1.004,0.692 Z" fill="#FFCC4D"/>
	<!-- YELLOW -->
	<path d="M 30.6,5.23 l 0.658,0.525 l -0.143,2.265 l 0.622,1.909 l -0.045,1.186 l -0.825,-0.193 l -0.464,1.662 s -0.929,-0.166 -0.915,-0.236 s 0.563,-1.666 0.563,-1.666 l -0.677,-0.553 l 0.886,-1.309 l -0.814,-0.728 l 0.866,-1.458 l 0.288,-1.404 Z" fill="#FFCC4D"/>
	<!-- YELLOW -->
	<path d="M 30.753,25.339 l 0.247,0.692 l -0.503,1.493 l 0.612,1.261 l -0.022,2.041 l -1.107,0.87 l 0.266,-2.402 l -0.621,-1.401 c 0.002,-0.084 0.458,-0.515 0.484,-0.595 l 0.644,-1.959 Z" fill="#FFCC4D"/>
	<!-- PURPLE 2 -->
	<path d="M 13.285,0.195 l 0.935,0.806 l 0.864,1.479 l -0.626,0.857 l 0.564,0.563 l 0.075,1.059 s 0.713,0.474 0.744,0.534 s -0.642,1.264 -0.642,1.264 l -0.744,-0.834 l -0.86,-0.166 l -0.322,-1.055 l 0.161,-1.871 l -0.67,-2 l 0.521,-0.636 Z" fill="#AA8DD8"/>
	<!--<path d="M 3.558,13.547 l 0.609,-0.03 l 0.193,1.426 l -0.478,1.71 l 0.377,1.766 l -0.234,1.559 s -0.806,-0.906 -0.794,-0.98 c 0.012,-0.075 0.342,-1.262 0.342,-1.262 l -0.505,-2.629 l 0.49,-1.56 Z" fill="#F4900C"/>
	<path d="M 3.796,12.927 l 0.463,0.593 l -0.595,1.866 l 0.143,1.745 l -0.287,0.984 l -0.764,0.155 l -0.662,0.777 s -0.598,-1.123 -0.571,-1.178 c 0.027,-0.056 0.661,-0.498 0.661,-0.498 l 0.066,-0.987 l 0.502,-0.525 l -0.556,-0.799 l 0.768,-1.379 l 0.832,-0.754 Z" fill="#EA596E"/>
	<path d="M 4.025,13.356 l 0.398,-0.218 l 0.382,0.973 l 0.594,0.698 l -0.22,1.106 l -0.071,1.09 l 0.329,1.514 l -0.364,1.355 l -0.461,-0.936 l 0.145,-0.866 l -0.605,-1.08 l 0.472,-0.935 l 0.092,-1.233 l -0.528,-0.907 l -0.163,-0.561 Z" fill="#3B88C3"/>-->
	<!-- GREEN 2 -->
	<path d="M 31.989,25.458 l 0.297,1.248 l 0.713,1.128 l -0.476,0.802 l 0.684,2.377 l -0.713,0.386 l -0.624,-2.941 l 0.386,-1.01 l -0.564,-0.802 l 0.297,-1.188 Z" fill="#3E721D"/>
	<!-- RED -->
	<path d="M 9.416,16.855 l -0.079,0.871 c -0.011,0.12 -0.001,0.241 0.029,0.358 l 0.375,1.443 c 0.062,0.241 0.037,0.496 -0.072,0.719 l -0.339,0.694 c -0.092,0.187 -0.125,0.398 -0.095,0.604 l 0.343,2.395 l -0.777,-0.166 l -0.234,-2.498 c -0.017,-0.176 0.012,-0.354 0.083,-0.516 l 0.323,-0.734 c 0.099,-0.224 0.115,-0.476 0.046,-0.711 l -0.263,-0.899 c -0.094,-0.319 -0.029,-0.664 0.174,-0.928 l 0.486,-0.632 Z" fill="#EA596E"/>
	<!-- RED -->
	<path d="M 3.796,12.927 l 0.463,0.593 l -0.595,1.866 l 0.143,1.745 l -0.287,0.984 l -0.764,0.155 l -0.662,0.777 s -0.598,-1.123 -0.571,-1.178 c 0.027,-0.056 0.661,-0.498 0.661,-0.498 l 0.066,-0.987 l 0.502,-0.525 l -0.556,-0.799 l 0.768,-1.379 l 0.832,-0.754 Z" fill="#EA596E"/>
	<!-- RED -->
	<path d="M 13.553,0.86 l 0.552,1.672 l -0.568,2.819 s 0.37,1.274 0.384,1.354 c 0.013,0.08 -0.893,1.051 -0.893,1.051 l -0.263,-1.672 l 0.424,-1.894 l -0.538,-1.833 l 0.217,-1.529 l 0.685,0.032 Z" fill="#EA596E"/>
	<!-- PURPLE -->
	<path d="M 9.637,17.882 l 0.702,1.825 c 0.029,0.074 0.525,0.476 0.527,0.554 l -0.676,1.305 l 0.289,2.238 l -1.207,-0.811 l -0.024,-1.901 l 0.667,-1.175 l -0.548,-1.391 l 0.27,-0.644 Z" fill="#9266CC"/>
	<!-- GREEN -->
	<path d="M 31.258,5.755 l 0.759,3.888 l 0.209,1.873 s 0.666,1.332 0.699,1.412 s -0.826,0.295 -0.826,0.295 l -0.669,-1.674 l -0.066,-2.088 l -0.589,-1.707 l -0.186,-1.624 l 0.669,-0.375 Z" fill="#77B255"/>
	<!-- GREEN -->
	<path d="M 13.027,0.655 l -0.183,0.602 l -0.594,0.972 l 0.103,1.322 l 0.532,1.003 l -0.681,1.158 l 0.163,0.928 l -0.518,1.004 l -0.41,-1.453 l 0.37,-1.624 l -0.08,-1.168 l -0.248,-1.186 l 0.668,-0.748 l 0.43,-1.044 l 0.448,0.234 Z" fill="#77B255"/>
	<!-- ORANGE -->
	<path d="M 30.874,5.701 l 0.371,-0.363 l 0.903,0.892 l -0.058,0.769 l 0.713,1.22 l 0.215,1.239 l 0.76,1.596 l -0.196,0.716 l -0.66,0.206 l 0.003,-1.219 l -0.633,-1.008 l -0.049,-1.206 l -1.173,-1.387 l 0.13,-0.876 l -0.326,-0.579 Z" fill="#F4900C"/>
	<!-- ORANGE -->
	<path d="M 3.558,13.547 l 0.609,-0.03 l 0.193,1.426 l -0.478,1.71 l 0.377,1.766 l -0.234,1.559 s -0.806,-0.906 -0.794,-0.98 c 0.012,-0.075 0.342,-1.262 0.342,-1.262 l -0.505,-2.629 l 0.49,-1.56 Z" fill="#F4900C"/>
	<!-- BLUE -->
	<path d="M 4.025,13.356 l 0.398,-0.218 l 0.382,0.973 l 0.594,0.698 l -0.22,1.106 l -0.071,1.09 l 0.329,1.514 l -0.364,1.355 l -0.461,-0.936 l 0.145,-0.866 l -0.605,-1.08 l 0.472,-0.935 l 0.092,-1.233 l -0.528,-0.907 l -0.163,-0.561 Z" fill="#3B88C3"/>
	<!-- BLUE -->
	<path d="M 8.774,17.848 l 0.324,1.106 l -0.615,0.747 l 0.421,0.941 l -0.68,2.74 l -0.777,-0.36 l 0.745,-2.214 l -0.518,-0.747 l 0.777,-1.051 l 0.323,-1.162 Z" fill="#3B88C3"/>
</svg>
