<svg xmlns="http://www.w3.org/2000/svg" viewBox="0 0 36 36">
	<path d="M 14,30.529 h-9 v-18.941 c 0,-2.469 2.031,-5.588 4.5,-5.588 s 4.5,3.119 4.5,5.588 v18.941 Z"  fill="#77B255"/>
	<path d="M 23,30.529 h-9 v-24.941 c 0,-2.469 2.031,-5.588 4.5,-5.588 s 4.5,3.119 4.5,5.588 v24.941 Z"  fill="#77B255"/>
	<path d="M 32,30.529 h-9 v-11.941 c 0,-2.469 2.031,-5.588 4.5,-5.588 s 4.5,3.119 4.5,5.588 v11.941 Z"  fill="#77B255"/>
	
	<ellipse cx="9.471" cy="11.588" rx="2.985" ry="3.98"  fill="#FFE8B6"/>
	<!-- extra ? <ellipse cx="18.471" cy="5.588" rx="2.985" ry="3.98"  fill="#FFE8B6"/> -->
	<ellipse cx="18.471" cy="5.588" rx="2.985" ry="3.98"  fill="#FFE8B6"/>
	<ellipse cx="27.471" cy="18.588" rx="2.985" ry="3.98"  fill="#FFE8B6"/>
	
	<rect x="2" y="30" width="33" height="5" rx="2.5"  fill="#D99E82"/>
	
	<rect x="4" y="17" width="11" height="2" rx="1"  fill="#5C913B"/>
	<rect x="13" y="13" width="11" height="2" rx="1"  fill="#5C913B"/>
	<rect x="13" y="21" width="11" height="2" rx="1"  fill="#5C913B"/>
	
	<path d="M 31,27 c 2,1 4,3 4,4 v1 h-33 v-1 c 0,-1 2,-3 4,-4 c 0.811,-0.405 1.626,-0.75 2.442,-1.05 c 0.447,1.042 1.089,2.752 1.267,3.259 c 0.28,0.795 1.019,1.178 0.833,-0.291 c -0.082,-0.645 -0.295,-2.516 -0.386,-3.53 c 2.143,-0.618 4.266,-0.924 6.292,-1.016 c 0.096,1.488 0.192,3.469 0.26,4.171 c 0.125,1.291 1.5,1.375 1.625,-0.042 c 0.081,-0.925 0.333,-2.417 0.483,-4.144 c 2.713,0.087 5.176,0.509 7.162,0.995 c -0.275,1.113 -0.634,3.197 -0.736,3.729 c -0.2,1.044 0.405,1.439 0.925,0.169 c 0.262,-0.641 0.916,-2 1.561,-3.426 c 2.043,0.611 3.272,1.176 3.272,1.176 Z"  fill="#5C913B"/> <!-- i assume the top surface is some kind of ellipse but not sure of the radius... -->
</svg>
