<svg xmlns="http://www.w3.org/2000/svg" viewBox="0 0 36 36">
	leafs
	todo: figure this out. e.g. maybe each leaf started as a separate shape?
	<path d="M 18.2412,9.6328 s 1.697,-2.713 4.422,-0.82 c 0,0 -3.671,2.12 -2.642,6.727 l -6.118,3.532 s -4.701,-2.486 -9.123,-1.668 c 0,0 1.402,-1.637 3.574,-2.251 c -0.653,-1.168 -3.851,-1.055 -3.851,-1.055 c 1.21,-1.607 3.192,-1.082 4.355,-1.371 c -1.356,-0.73 -3.26,-1.321 -5.856,-1.229 c 1.697,-2.714 5.645,-1.527 5.645,-1.527 s -1.5,-2.6 -5.45,-3.787 c 0,0 2.848,-1.64 5.902,0.151 c -0.416,-1.786 -0.802,-3.916 -0.572,-4.962 l 2.318,2.671 c 0.375,-1.4 1.021,-2.865 2.142,-3.513 c 0,0 -0.474,2.007 1.029,4.608 c 0,0 0.472,-2.007 3.67,-2.12 c -1.223,0.707 -2.921,3.42 -2.169,4.719 c 0,0 1.695,-2.712 4.894,-2.825 c 0,0 -2.447,1.413 -2.17,4.72 Z" fill="#5c913b"/>
	bg
	<defs>
		<clipPath id="fruit1">
			rotated 30deg, maybe scaled up by like 1.05975?
			<!--<path d="M 29.5605,22.8799 c 2.488,4.309 1.218,9.7 -2.837,12.041 s -9.359,0.746 -11.846,-3.562 l -1.589,-2.753 c -2.489,-4.31 -1.218,-9.699 2.837,-12.04 c 4.055,-2.342 9.359,-0.747 11.846,3.562 l 1.589,2.752 Z"/>-->
			<path d="M 13.3622,32.6456 a 8,8.5 0 01 -16,0 l 0,-3 a 8,8.5 0 01 16,0 l 0,3 Z" transform="scale(1.05975) rotate(-30)"/>
		</clipPath>
	</defs>
	
	<g clip-path="url(#fruit1)">
		<circle r="999" fill="#FFAC33"/>
		<g transform="translate(24.35 18.121) scale(1.05975) rotate(23)">
			todo sort this etc.
			<path d="M -20,-10 h36 v36 h-36 v-36 Z
M -8,0 v2 h2 v-2 h-2 Z
M -8,12 v2 h2 v-2 h-2 Z
M 8,12 v2 h2 v-2 h-2 Z
M 8,8 v2 h2 v-2 h-2 Z
M 8,4 v2 h2 v-2 h-2 Z
M 0,0 v2 h2 v-2 h-2 Z
M 4,0 v2 h2 v-2 h-2 Z
M 4,16 v2 h2 v-2 h-2 Z
M 0,16 v2 h2 v-2 h-2 Z
M 2,4 h-2 v2 h2 v-2 Z
M -4,0 v2 h2 v-2 h-2 Z
M -4,4 v2 h2 v-2 h-2 Z
M -8,4 v2 h2 v-2 h-2 Z
M -8,10 h2 v-2 h-2 v2 Z
M -2,14 v-2 h-2 v2 h2 Z
M -4,10 h2 v-2 h-2 v2 Z
M 2,14 v-2 h-2 v2 h2 Z
M 0,10 h2 v-2 h-2 v2 Z
M 6,14 v-2 h-2 v2 h2 Z
M 6,10 v-2 h-2 v2 h2 Z
M 6,6 v-2 h-2 v2 h2 Z" fill="#FFCC4D"/>
		</g>
	</g>
</svg>
