<svg xmlns="http://www.w3.org/2000/svg" viewBox="0 0 36 36">
	leafs
	<path d="M 18.241,9.633 s 1.697,-2.713 4.421,-0.818 c 0,0 -3.671,2.12 -2.642,6.727 l -6.119,3.532 s -4.701,-2.487 -9.123,-1.669 c 0,0 1.403,-1.637 3.575,-2.251 c -0.653,-1.168 -3.851,-1.055 -3.851,-1.055 c 1.21,-1.607 3.192,-1.082 4.355,-1.371 c -1.356,-0.731 -3.259,-1.322 -5.856,-1.23 c 1.698,-2.713 5.646,-1.526 5.646,-1.526 s -1.5,-2.6 -5.45,-3.788 c 0,0 2.848,-1.64 5.903,0.15 c -0.416,-1.785 -0.803,-3.915 -0.573,-4.959 l 2.318,2.67 c 0.374,-1.399 1.02,-2.865 2.141,-3.512 c 0,0 -0.473,2.006 1.03,4.607 c 0,0 0.472,-2.007 3.67,-2.12 c -1.223,0.707 -2.921,3.419 -2.169,4.719 c 0,0 1.695,-2.713 4.894,-2.826 c 0,0 -2.447,1.413 -2.17,4.72 Z"  fill="#5C913B"/>
	bg
	<defs>
		<clipPath id="fruit1">
			rotated 20deg, maybe scaled up by like 1.05975?
			<path d="M 29.56,22.88 c 2.488,4.309 1.218,9.7 -2.837,12.041 s -9.359,0.746 -11.846,-3.562 l -1.589,-2.753 c -2.488,-4.31 -1.217,-9.699 2.837,-12.04 c 4.055,-2.341 9.359,-0.747 11.846,3.562 l 1.589,2.752 Z"/>
		</clipPath>
	</defs>
	
	<g clip-path="url(#fruit1)">
		<circle r="999" fill="#FFAC33"/>
		<!--<path d="M 30.562,25.364 l -0.062,-0.029 l -0.828,1.951 l 1.155,0.49 c -0.015,0.74 -0.125,1.467 -0.316,2.167 l -1.667,-0.707 l -0.828,1.951 l 1.693,0.72 c -0.361,0.632 -0.812,1.215 -1.334,1.736 l -1.189,-0.504 l -0.828,1.951 l 0.017,0.007 c -1.063,0.547 -2.199,0.835 -3.343,0.883 l -1.403,-0.595 l -0.215,0.507 c -0.704,-0.107 -1.396,-0.295 -2.061,-0.572 l 0.324,-0.764 l -1.951,-0.828 l -0.229,0.538 c -1.028,-0.749 -1.933,-1.722 -2.618,-2.909 l -1.589,-2.753 c -0.061,-0.103 -0.108,-0.21 -0.163,-0.315 l 0.401,-0.946 l -1.006,-0.427 c -1.305,-3.809 -0.018,-8.006 3.262,-10.128 l 1.884,0.8 l 0.818,-1.926 c 3.566,-0.751 7.461,0.956 9.486,4.466 l 0.075,0.131 l -0.624,1.471 l 1.951,0.828 v-0.001 l 0.186,0.323 c 0.462,0.799 0.793,1.636 1.002,2.484 ZM 24.35,18.121 l -0.829,1.951 l 1.951,0.828 l 0.828,-1.95 l -1.95,-0.829 ZM 24.644,22.852 l -1.951,-0.828 l -0.828,1.951 l 1.951,0.827 l 0.828,-1.95 ZM 20.447,16.465 l -0.829,1.952 l 1.951,0.828 l 0.829,-1.952 l -1.951,-0.828 ZM 18.791,20.367 l -0.827,1.951 l 1.95,0.828 l 0.828,-1.951 l -1.951,-0.828 ZM 14.889,18.712 l -0.828,1.949 l 1.95,0.828 l 0.828,-1.949 l -1.95,-0.828 ZM 12.405,24.565 l 1.95,0.828 l 0.829,-1.952 l -1.951,-0.828 l -0.828,1.952 ZM 16.601,30.95 l 0.828,-1.95 l -1.951,-0.828 l -0.828,1.951 l 1.951,0.827 ZM 16.306,26.22 l 1.951,0.828 l 0.829,-1.952 l -1.951,-0.827 l -0.829,1.951 ZM 20.502,32.606 l 0.828,-1.949 l -1.95,-0.829 l -0.828,1.95 l 1.95,0.828 ZM 20.208,27.876 l 1.951,0.829 l 0.828,-1.952 l -1.951,-0.829 l -0.828,1.952 ZM 24.405,34.264 l 0.828,-1.951 l -1.951,-0.828 l -0.828,1.951 l 1.951,0.828 ZM 26.062,30.36 l 0.828,-1.951 l -1.95,-0.828 l -0.828,1.952 l 1.95,0.827 ZM 27.718,26.459 l 0.828,-1.951 l -1.951,-0.827 l -0.828,1.95 l 1.951,0.828 Z" fill="#FFCC4D"/>-->
		<g transform="translate(24.35 18.121) scale(1.05975) rotate(23)">
			todo sort this etc.
			<path d="M -20,-10 h36 v36 h-36 v-36 Z
M -8,0 v2 h2 v-2 h-2 Z
M -8,12 v2 h2 v-2 h-2 Z
M 8,12 v2 h2 v-2 h-2 Z
M 8,8 v2 h2 v-2 h-2 Z
M 8,4 v2 h2 v-2 h-2 Z
M 0,0 v2 h2 v-2 h-2 Z
M 4,0 v2 h2 v-2 h-2 Z
M 4,16 v2 h2 v-2 h-2 Z
M 0,16 v2 h2 v-2 h-2 Z
M 2,4 h-2 v2 h2 v-2 Z
M -4,0 v2 h2 v-2 h-2 Z
M -4,4 v2 h2 v-2 h-2 Z
M -8,4 v2 h2 v-2 h-2 Z
M -8,10 h2 v-2 h-2 v2 Z
M -2,14 v-2 h-2 v2 h2 Z
M -4,10 h2 v-2 h-2 v2 Z
M 2,14 v-2 h-2 v2 h2 Z
M 0,10 h2 v-2 h-2 v2 Z
M 6,14 v-2 h-2 v2 h2 Z
M 6,10 v-2 h-2 v2 h2 Z
M 6,6 v-2 h-2 v2 h2 Z" fill="#FFCC4D"/>
		</g>
	</g>
</svg>
