<svg xmlns="http://www.w3.org/2000/svg" viewBox="0 0 36 36">
	<path d="M 23.106,5.971 c 4.119,4.119 4.556,8.849 2.582,13.071 l -9.26,8.372 c -3.922,1.265 -8.153,0.496 -11.707,-3.058 c -5.491,-5.491 -6.491,-14.722 -1.414,-19.799 c 5.077,-5.078 14.308,-4.077 19.799,1.414 Z"    fill="#DD2E44"/>
	<path d="M 15.564,27.655 l 10.948,-10.947 c -0.191,0.791 -0.467,1.57 -0.824,2.334 c -0.212,0.666 -0.455,1.516 -0.653,2.481 c -0.379,1.848 1.607,3.541 3.021,4.955 s 5.657,4.242 6.364,4.949 s 0,1.414 -0.707,2.122 l -0.707,0.707 l -0.707,0.707 c -0.708,0.707 -1.415,1.414 -2.122,0.707 s -3.535,-4.95 -4.949,-6.364 c -1.414,-1.415 -3.107,-3.401 -4.955,-3.021 c -1.208,0.248 -2.244,0.568 -2.942,0.806 l -0.903,0.323 c -0.286,0.092 -0.575,0.171 -0.864,0.241 Z"   fill="#D99E82"/>
	<path d="M 20.277,22.942 l 1.414,-1.414 l 12.022,12.021 l -1.414,1.414 l -12.022,-12.021 Z"  fill="#FFCC4D"/>
	<circle fill="#CCD6DD" cx="31.5" cy="6.5" r="3.5"/>
</svg>
