<svg xmlns="http://www.w3.org/2000/svg" viewBox="0 0 36 36">
	<g transform="translate(33.006 34.256) rotate(-45)">
		<path d="M 0,-42 c 7.18,0 13,7.234 13,15 c 0,5.824 -3.035,9.478 -7.417,11.067 l -12.467,-0.627 c -3.668,-1.879 -6.116,-5.415 -6.116,-10.44 c 0,-7.766 5.82,-15 13,-15 Z" fill="#DD2E44"/>
		<path d="M -1,0 c -1,0 -2,0 -2,-1 s 1,-6 1,-8 s 0.208,-4.602 -1.367,-5.64 c -1.03,-0.679 -1.989,-1.185 -2.65,-1.51 l -0.867,-0.41 c -0.268,-0.138 -0.528,-0.286 -0.782,-0.44 h15.482 c -0.694,0.424 -1.44,0.78 -2.233,1.067 c -0.621,0.322 -1.393,0.751 -2.216,1.293 c -1.574,1.039 -1.367,3.64 -1.367,5.64 s 1,7 1,8 s -1,1 -2,1 h-2 Z" fill="#D99E82"/>
		<path d="M -1,-17 h2 v17 h-2 v-17 Z" fill="#FFCC4D"/>
	</g>
	<circle fill="#CCD6DD" cx="31.5" cy="6.5" r="3.5"/>
</svg>
