<svg xmlns="http://www.w3.org/2000/svg" viewBox="0 0 36 36">
	<g transform="translate(33.006 34.256) rotate(-45)">
	<path d="M 13,-27 
C 13,-21.17573 9.96455,-17.52211 5.58332,-15.93253 
L -6.88439,-16.56044 
C -10.55215,-18.43922 -13,-21.97476 -13,-27 
C -13,-34.76632 -7.180,-42 0,-42 
C 7.180,-42 13,-34.76632 13,-27 
Z" fill="#DD2E44"/>
	<path d="
M -7.66574,-17 
L 7.81636,-17 
C 7.122,-16.576 6.376,-16.22032 5.58332,-15.93253 
C 4.96248,-15.6115 4.18961,-15.18229 3.36724,-14.640
C 1.79252,-13.6012 2,-11 2,-9 
C 2,-7 3,-2 3,-1 
C 3,-0 2,-0 1,0 
L -1,0 
C -2,-0 -3,-0 -3,-1 
C -3,-2 -2,-7 -2,-9 
C -2,-11 -1.79181,-13.602 -3.36724,-14.640
C -4.39679,-15.31876 -5.35563,-15.825 -6.01748,-16.15032 
L -6.88439,-16.56044 
C -7.15168,-16.69762 -7.41189,-16.84611 -7.66574,-17 
Z" fill="#D99E82"/>
	<path d="M -1,-17 L 1,-17 L 1,0 L -1,0 L -1,-17 Z"   fill="#FFCC4D"/>
	</g>
	<circle fill="#CCD6DD" cx="31.5" cy="6.5" r="3.5"/>
</svg>
