<svg xmlns="http://www.w3.org/2000/svg" viewBox="0 0 36 36">
	<!-- background -->
	<rect x="0" y="5" width="36" height="26" rx="4"  fill="#31373D"/>
	<!-- crossed bones -->
	<path d="M -11,0 a 1,1 0 11 1,-1 h20 a 1,1 0 11 1,1 a 1,1 0 11 -1,1 h-20 a 1,1 0 11 -1,-1 z" transform="translate(18,23) rotate(-20)" fill="#E6E7E8"/>
	<path d="M -11,0 a 1,1 0 11 1,-1 h20 a 1,1 0 11 1,1 a 1,1 0 11 -1,1 h-20 a 1,1 0 11 -1,-1 z" transform="translate(18,23) rotate(20)" fill="#E6E7E8"/>
	<!-- teeth -->
	<path d="M 14,15.5 h2 v2.5 a 1,1 0 01 -2,0 v-2.5" fill="#E6E7E8"/>
	<path d="M 17,16.5 h2 v1.5 a 1,1 0 01 -2,0 v-1.5" fill="#E6E7E8"/>
	<path d="M 20,15.5 h2 v2.5 a 1,1 0 01 -2,0 v-2.5" fill="#E6E7E8"/>
	<!-- skull -->
	<path d="
M 18,7 c 4,0 6,3.239 6,6 s -3.239,4 -6,4 s -6,-1.239 -6,-4 s 2,-6 6,-6 Z 

M 15.5,14 a 1.5,1.5 0 00 1.5,-1.5 c 0,-0.829 0,-1.5 -1.5,-1.5 a 1.5,1.5 0 00 -1.5,1.5 c 0,1.5 0.671,1.5 1.5,1.5 Z

M 20.5,14 c 0.828,0 1.5,0 1.5,-1.5 a 1.5,1.5 0 00 -1.5,-1.5 c -1.5,0 -1.5,0.671 -1.5,1.5 a 1.5,1.5 0 00 1.5,1.5 Z" fill="#E6E7E8"/>
	<!-- nose hole (this is a different color than the bg, definitely a mistake) -->
	<ellipse fill="#292F33" cx="18" cy="15.5" rx="1" ry=".5"/>
</svg>
