<svg xmlns="http://www.w3.org/2000/svg" viewBox="0 0 36 36">
	<path d="M 19,15 s 3,-1 3,0 s 0,1 -1,3 s -4,2 -3,1 s 1,-3 1,-4 Z"  fill="#9aaab4" />
	<path d="M 29,12 a 2,2 0 01 -4,0 c 0,-2.814 1.864,-7 7,-7 a 2,2 0 01 0,4 c -2.855,0 -3,2.499 -3,3 Z"  fill="#9aaab4"/><!--<path d="M27,12 c 0,-2 1.19,-5 5,-5" stroke-linecap="round" stroke-width="4" fill="none" stroke="#9aaab4"/> aa what is this shape -->
	<path d="M 25,4 a 4,4 0 00 4,4 v8 a 2,2 0 01 -2,2 h-1 c -0.415,3.47 -3.419,6 -7,6 a 7,7 0 01 -7,-7 v-4 h-10 a 2,2 0 01 -2,-2 v-5 h1 a 2,2 0 01 2,-2 h1 a 2,2 0 01 2,2 h6 a 2,2 0 01 2,-2 h11 Z M 19,22 c 2.438,0 4.817,-2.609 5,-5 l -10,-2 c -0.127,0.551 -1,7 5,7 Z"    fill="#9aaab4" />
	<path d="M 26,18 l 3,-5 s 5,0 6,9 l 1,6 s 0,4 -4,4 h-2 c -4,0 -4,-4 -4,-4 v-10 Z"  fill="#bf6952" />
	
	<path d="M 21,6 a 4,4 0 01 0,8 h-6 c -2.209,0 -2,-1.791 -2,-4 s -0.204,-4 2,-4 h6 Z"   fill="#67757f" />
	<rect x="14" y="7" width="7" height="2" rx="1"  fill="#ccd6dd" />
	<rect x="14" y="11" width="7" height="2" rx="1"  fill="#ccd6dd" />
</svg>
