<svg xmlns="http://www.w3.org/2000/svg" viewBox="0 0 36 36">
	<path d="M 25,4 c 0,2.209 1.791,4 4,4 v8 c 0,1.104 -0.896,2 -2,2 h-1 c -0.415,3.47 -3.419,6 -7,6 c -3.866,0 -7,-3.135 -7,-7 v-3 v-1 h-10 c -1.104,0 -2,-0.896 -2,-2 v-2 v-3 h1 c 0,-1.104 0.896,-2 2,-2 h1 c 1.104,0 2,0.896 2,2 h6 c 0,-1.104 0.896,-2 2,-2 h11 Z M 19,22 c 2.438,0 4.817,-2.609 5,-5 l -10,-2 c -0.127,0.551 -1,7 5,7 Z"   fill="#9aaab4" />
	
	<path d="M 26,18 l 3,-5 s 5,0 6,9 l 1,6 s 0,4 -4,4 h-2 c -4,0 -4,-4 -4,-4 v-10 Z"  fill="#bf6952" />
	<path d="M 27,14 c 1.104,0 2,-0.896 2,-2 c 0,-0.501 0.145,-3 3,-3 c 1.104,0 2,-0.896 2,-2 s -0.896,-2 -2,-2 c -5.136,0 -7,4.186 -7,7 c 0,1.104 0.896,2 2,2 Z"  fill="#9aaab4" />
	<path d="M 19,15 s 3,-1 3,0 s 0,1 -1,3 s -4,2 -3,1 s 1,-3 1,-4 Z"  fill="#9aaab4" />
	<path d="M 25,10 c 0,2.209 -1.791,4 -4,4 h-5.995 c -2.209,0 -2,-1.791 -2,-4 h-0.005 c 0,-2.209 -0.204,-4 2.005,-4 h5.995 c 2.209,0 4,1.791 4,4 Z"  fill="#67757f" />
	<path d="M 20,9 h-5 c -0.552,0 -1,-0.448 -1,-1 s 0.448,-1 1,-1 h5 c 0.553,0 1,0.448 1,1 s -0.447,1 -1,1 Z"  fill="#ccd6dd" />
	<path d="M 20,13 h-5 c -0.552,0 -1,-0.448 -1,-1 s 0.448,-1 1,-1 h5 c 0.553,0 1,0.448 1,1 s -0.447,1 -1,1 Z"  fill="#ccd6dd" />
</svg>
