<svg xmlns="http://www.w3.org/2000/svg" viewBox="0 0 36 36">
	<defs>
		<clipPath id="pizza1">
			<path d="M 18,3 c 6.047,0 10.392,1.689 12.135,2.551 c 0.782,0.387 0.569,1.228 0.569,1.228 l -10.704,27.221 s -0.896,2 -2,2 s -2,-2 -2,-2 s -10.563,-26.667 -10.688,-27.104 c -0.125,-0.438 -0.062,-1.045 0.415,-1.278 c 1.657,-0.808 6.06,-2.618 12.273,-2.618 Z"/> hm.. asymmetrical
		</clipPath>
	</defs>
	crust
	<path d="M 3,5 c 0,-2 6.716,-5 15,-5 s 15,3 15,5 c 0,0.343 -0.104,0.677 -0.301,1 c -1.699,2 -7.442,-2 -14.699,-2 s -13,4 -14.699,2 c -0.197,-0.323 -0.301,-0.657 -0.301,-1 Z" fill="#f4900c"/>
	<g clip-path="url(#pizza1)">
		cheese
		<circle r="999" fill="#ffcc4d"/>
		pepperoni
		<g fill="#be1931">
			<circle r="4" cx="14" cy="31"/>
			<circle r="4" cx="13" cy="20"/>
			<circle r="4" cx="16" cy="8"/>
			<circle r="4" cx="25" cy="13"/>
			<circle r="4" cx="23" cy="25"/>
			<circle r="4" cx="6" cy="12"/>
		</g>
	</g>
</svg>
