<svg xmlns="http://www.w3.org/2000/svg" viewBox="0 0 36 36" xml:space="preserve">
	<!-- this one has a lot of strokes but can't figure them out right now. also yay arc commands! -->
	
	<path d="M 34.5,32.423 a 0.5,0.5 0 01 -0.5,-0.5 v-2.423 a 0.5,0.5 0 01 1,0 v2.423 a 0.5,0.5 0 01 -0.5,0.5 Z"  fill="#AEB3B2"/>
	<path d="M 26,35.236 a 0.5,0.5 0 01 -1,0 v-2.736 a 0.5,0.5 0 01 1,0 v2.736 Z"  fill="#AEB3B2"/>
	<path d="M 20,33.344 a 0.5,0.5 0 01 -1,0 v-4.844 a 0.5,0.5 0 01 1,0 v4.844 Z"  fill="#AEB3B2"/>
	<path d="M 17.488,0.991 a 0.499,0.499 0 01 -0.36,0.608 c -0.664,0.17 -1.128,0.767 -1.128,1.453 l -0.017,4.577 l -4.533,17 a 0.5,0.5 0 01 -0.967,-0.258 l 0.294,-1.103 l -8.088,2.696 l -0.468,1.671 a 0.5,0.5 0 01 -0.962,-0.27 l 4.741,-16.934 v-4.379 a 2.5,2.5 0 01 1.88,-2.422 c 0.271,-0.069 0.539,0.094 0.608,0.361 s -0.092,0.54 -0.36,0.608 c -0.664,0.17 -1.128,0.767 -1.128,1.453 l -0.019,4.582 l -0.801,2.862 l 7.906,-2.635 l 0.914,-3.427 v-4.382 a 2.498,2.498 0 01 1.88,-2.421 a 0.497,0.497 0 01 0.608,0.36 Z M 13.778,12.018 l -7.923,2.642 l -0.73,2.606 l 7.961,-2.654 l 0.692,-2.594 Z M 12.086,18.361 l 0.692,-2.593 l -7.978,2.659 l -0.73,2.606 l 8.016,-2.672 Z M 3.015,24.802 l 8.071,-2.69 l 0.692,-2.594 l -8.033,2.678 l -0.73,2.606 Z"   fill="#AEB3B2"/>
	
<path d="M 34.686,25.856 a 0.5,0.5 0 01 0.314,0.464 v3.18 a 0.501,0.501 0 01 -0.684,0.465 l -1.643,-0.657 a 10.518,10.518 0 01 -5.333,-4.75 l -7.299,-13.479 a 5.472,5.472 0 00 -3.183,-2.626 l -1.508,-0.476 c -0.208,-0.066 -0.35,-0.259 -0.35,-0.477 v-3 a 0.5,0.5 0 01 0.65,-0.477 l 3.63,1.145 a 6.463,6.463 0 01 3.761,3.104 l 7.545,13.934 a 8.092,8.092 0 00 4.1,3.65 Z"  fill="#DD551F"/>
	<path d="M 34.686,25.856 a 0.5,0.5 0 01 0.314,0.464 v3.18 a 0.499,0.499 0 01 -0.22,0.414 a 0.497,0.497 0 01 -0.465,0.049 l -0.022,-0.009 v-2.928 a 0.5,0.5 0 00 -0.314,-0.464 a 8.083,8.083 0 01 -4.1,-3.65 l -7.545,-13.933 a 6.466,6.466 0 00 -3.761,-3.104 l -3.573,-1.127 v-0.248 a 0.5,0.5 0 01 0.65,-0.477 l 3.63,1.145 a 6.463,6.463 0 01 3.761,3.104 l 7.545,13.934 a 8.092,8.092 0 00 4.1,3.65 Z"  fill="#FA8948"/>
	<path d="M 20.919,10.603 a 0.497,0.497 0 01 -0.281,0.712 l -9,3 a 0.5,0.5 0 01 -0.597,-0.236 a 5.472,5.472 0 00 -3.183,-2.626 l -1.508,-0.476 a 0.5,0.5 0 01 -0.009,-0.951 l 9,-3 a 0.51,0.51 0 01 0.309,-0.003 l 1.508,0.476 a 6.47,6.47 0 01 3.761,3.104 Z"  fill="#FAA572"/>
	<path d="M 29.854,26.275 a 0.5,0.5 0 01 -0.196,0.828 l -9,3 a 0.504,0.504 0 01 -0.512,-0.12 a 10.461,10.461 0 01 -1.809,-2.425 l -7.299,-13.479 a 0.5,0.5 0 01 0.282,-0.713 l 9,-3 a 0.497,0.497 0 01 0.598,0.236 l 7.299,13.479 a 9.497,9.497 0 00 1.637,2.194 Z"  fill="#FAC19C"/>
	<path d="M 34.658,29.974 l -9,3 a 0.491,0.491 0 01 -0.343,-0.01 l -1.643,-0.657 a 10.451,10.451 0 01 -3.524,-2.325 a 0.5,0.5 0 01 0.195,-0.827 l 9,-3 a 0.501,0.501 0 01 0.512,0.121 a 9.427,9.427 0 00 3.188,2.103 l 1.643,0.657 a 0.501,0.501 0 01 -0.028,0.938 Z"  fill="#FAA572"/>
	<path d="M 25.686,28.856 a 0.5,0.5 0 01 0.314,0.464 v3.18 a 0.501,0.501 0 01 -0.684,0.465 l -1.643,-0.657 a 10.518,10.518 0 01 -5.333,-4.75 l -7.299,-13.479 a 5.472,5.472 0 00 -3.183,-2.626 l -1.508,-0.476 c -0.208,-0.066 -0.35,-0.259 -0.35,-0.477 v-3 a 0.5,0.5 0 01 0.65,-0.477 l 3.63,1.146 a 6.463,6.463 0 01 3.761,3.104 l 7.545,13.933 a 8.092,8.092 0 00 4.1,3.65 Z"  fill="#DD551F"/>
	<path d="M 25.686,28.856 a 0.5,0.5 0 01 0.314,0.464 v3.18 a 0.499,0.499 0 01 -0.22,0.414 a 0.497,0.497 0 01 -0.465,0.049 l -0.022,-0.009 v-2.928 a 0.5,0.5 0 00 -0.314,-0.464 a 8.083,8.083 0 01 -4.1,-3.65 l -7.545,-13.933 a 6.466,6.466 0 00 -3.761,-3.104 l -3.573,-1.127 v-0.248 a 0.5,0.5 0 01 0.65,-0.477 l 3.63,1.146 a 6.463,6.463 0 01 3.761,3.104 l 7.545,13.933 a 8.092,8.092 0 00 4.1,3.65 Z"  fill="#FA8948"/>
	<path d="M 10.5,8.742 a 0.5,0.5 0 01 -0.5,-0.5 v-2.19 c 0,-0.467 -0.212,-0.898 -0.58,-1.185 a 1.487,1.487 0 00 -1.292,-0.268 a 0.5,0.5 0 01 -0.248,-0.968 a 2.485,2.485 0 01 2.153,0.447 c 0.614,0.477 0.967,1.196 0.967,1.974 v2.189 a 0.5,0.5 0 01 -0.5,0.501 Z"  fill="#AEB3B2"/>
	<path d="M 19.5,5.742 a 0.5,0.5 0 01 -0.5,-0.5 v-2.19 c 0,-0.467 -0.212,-0.898 -0.58,-1.185 a 1.487,1.487 0 00 -1.292,-0.269 a 0.5,0.5 0 01 -0.248,-0.968 a 2.484,2.484 0 01 2.153,0.447 c 0.614,0.478 0.967,1.197 0.967,1.975 v2.189 a 0.5,0.5 0 01 -0.5,0.501 Z"  fill="#AEB3B2"/>
</svg>
