<svg xmlns="http://www.w3.org/2000/svg" viewBox="0 0 36 36">
	<path d="M 10.378,3.072 c 2.343,2.343 1.636,5.435 -0.707,7.778 s -5.435,3.05 -7.778,0.707 s -2.429,-7.47 -0.707,-9.192 s 6.849,-1.636 9.192,0.707 Z"  fill="#CCD6DD"/>
	<path d="M 25.622,3.072 c 2.343,-2.343 7.47,-2.429 9.192,-0.707 s 1.636,6.849 -0.707,9.192 s -5.435,1.636 -7.778,-0.707 s -3.05,-5.435 -0.707,-7.778 Z"  fill="#CCD6DD"/>
	
	<path d="M 8.695,4.467 c 1.562,1.562 0.855,3.388 -0.707,4.95 s -3.388,2.269 -4.95,0.707 s -1.414,-5.657 -0.706,-6.364 s 4.802,-0.855 6.363,0.707 Z"  fill="#66757F"/>
	<path d="M 27.305,4.467 c 1.561,-1.562 5.656,-1.414 6.364,-0.707 c 0.707,0.707 0.855,4.802 -0.707,6.364 s -3.388,0.855 -4.95,-0.707 s -2.269,-3.388 -0.707,-4.95 Z"  fill="#66757F"/>
	
	<path d="M 34.017,15 c 0,13 -11,18 -16,18 s -16,-6 -16,-19 c 0,0 -1.178,-12 16,-12 c 17,0 16,13 16,13 Z"  fill="#E1E8ED"/>
	<path d="M 18,15 c 5,0 7,9.687 7,13 s -2,7 -7,7 s -7,-3.687 -7,-7 s 2,-13 7,-13 Z"  fill="#CCD6DD"/>
	
	<path fill="#DD2E44" d="M16 32s.095 2 2.095 2 2.095-2 2.095-2-2.095.158-2.095-2c0 1-2.095 2-2.095 2z"/>
	
	<path d="M -4,1 s 0.5,1 2,1 c 1.8,0 2,-2 2,-2 s 0.2,2 2,2 c 1.5,0 2,-1 2,-1 " stroke-width="1" stroke-linecap="round" stroke-linejoin="round" fill="none" transform="translate(18, 30)" stroke="#292F33"/>
	<path d="M 14.579,24.298 c 1.853,-1.141 4.989,-1.141 6.842,0 c 1.854,1.14 -1.14,5.702 -3.421,5.702 s -5.274,-4.562 -3.421,-5.702 Z"  fill="#272B2B"/>
	
	<rect x="24" y="15" width="3" height="4" rx="1.5"  fill="#272B2B"/>
	<rect x="9" y="15" width="3" height="4" rx="1.5"  fill="#272B2B"/> <!-- color ? -->
</svg>
