<svg xmlns="http://www.w3.org/2000/svg" viewBox="0 0 36 36">
	<path fill="#DD2E44" d="M 34.1592,28.8125 h-32.162 l 2.67,-26.108 c 0.158,-1.537 1.452,-2.704 2.996,-2.704 h20.588 c 1.534,0 2.823,1.153 2.993,2.678 l 2.915,26.134 Z"/>
	<circle r="9.366" cx="18.0691" cy="14" fill="#BE1931"/>
	<path fill="#99AAB5" d="M 35.5205,29.1807 l 0.479,4.819 c 0,2 -2,2 -2,2 h-32 s -2,0 -2,-2 l 0.48,-4.819 h35.041 Z"/>
	<path fill="#CCD6DD" d="M 35.5938,29.9121 h-35.188 l 0.074,-0.731 c 0.14,-0.739 0.769,-1.181 1.52,-1.181 h32 c 0.752,0 1.38,0.442 1.521,1.181 l 0.073,0.731 Z"/>
	<path fill="#EC9DAD" d="M 29.6475,13.6299 c 0.182,0.029 0.314,0.187 0.314,0.37 c 0,0.184 -0.132,0.341 -0.314,0.37 l -7.668,1.248 l 4.538,6.308 c 0.108,0.149 0.091,0.353 -0.039,0.484 c -0.131,0.129 -0.336,0.146 -0.484,0.039 l -6.308,-4.538 l -1.247,7.667 c -0.029,0.181 -0.187,0.315 -0.37,0.315 c -0.184,0 -0.341,-0.133 -0.37,-0.315 l -1.248,-7.667 l -6.308,4.538 c -0.149,0.107 -0.353,0.09 -0.484,-0.039 c -0.13,-0.131 -0.147,-0.335 -0.039,-0.484 l 4.538,-6.308 l -7.668,-1.248 c -0.182,-0.029 -0.315,-0.186 -0.315,-0.37 c 0,-0.183 0.133,-0.341 0.315,-0.37 l 7.668,-1.248 l -4.538,-6.308 c -0.108,-0.149 -0.091,-0.353 0.039,-0.484 c 0.131,-0.129 0.335,-0.146 0.484,-0.039 l 6.308,4.538 l 1.248,-7.667 c 0.029,-0.182 0.186,-0.314 0.37,-0.314 c 0.183,0 0.341,0.133 0.37,0.314 l 1.247,7.667 l 6.309,-4.538 c 0.148,-0.107 0.353,-0.09 0.484,0.039 c 0.13,0.131 0.147,0.336 0.039,0.484 l -4.539,6.308 l 7.668,1.248 Z"/> rounded corners etc. maybe later
</svg>
