<svg xmlns="http://www.w3.org/2000/svg" viewBox="0 0 36 36">
	<path d="M 25.039,33.133 s 1.206,-0.905 1.408,0.05 c 0.201,0.955 0.101,1.759 -0.905,1.86 c -1.005,0.101 -2.011,0.101 -1.86,-0.754 c 0.079,-0.448 0.553,-0.502 1.357,-1.156 Z" fill="#66757F"/>
	<path d="M 9.101,33.133 s 1.207,-0.905 1.408,0.05 s 0.101,1.759 -0.905,1.86 c -1.005,0.101 -2.011,0.101 -1.86,-0.754 c 0.079,-0.448 0.553,-0.502 1.357,-1.156 Z" fill="#66757F"/>
	<path d="M 19.446,23.182 c -1.712,-0.009 -0.057,-4.727 7.433,-5.017 c -0.141,0.634 -0.132,2.338 -0.885,4.641 c -0.515,1.577 -0.128,4.288 0.268,5.843 c 1.48,5.812 -0.106,5.518 -1.11,4.995 c -0.436,-0.227 -0.397,-2.223 -0.708,-4.676 c -0.306,-2.418 -0.995,-1.185 -2.264,-4.419 c -0.396,-1.009 -0.855,-1.357 -2.734,-1.367 Z" fill="#66757F"/>
	<path d="M 9.702,32.226 c -1.444,-0.38 0.837,-6.535 -1.191,-8.533 c -1.355,-1.334 1.369,-7.759 2.854,-7.596 c 1.483,0.163 0.692,4.949 0.484,6.839 c -0.144,1.308 -1.288,5.351 -0.726,7.671 c 0.323,1.336 -0.694,1.811 -1.421,1.619 Z" fill="#66757F"/>
	<path d="M 12.318,31.59 c -0.147,1.785 -1.27,2.066 -2.616,1.955 s -2.408,-0.571 -2.261,-2.356 s 1.357,-3.143 2.704,-3.033 c 1.347,0.111 2.32,1.649 2.173,3.434 Z" fill="#66757F"/>
	<path d="M 27.758,31.562 c -0.043,1.79 -1.053,2.138 -2.287,2.109 s -2.226,-0.425 -2.183,-2.215 s 1.078,-3.219 2.312,-3.19 s 2.2,1.506 2.158,3.296 Z" fill="#66757F"/>
	
	<path d="M 28.256,16.743 c 0.012,0.102 0.074,0.54 0.074,0.663 c 0,0.65 0.378,2.312 0.143,4.723 c -0.161,1.651 0.805,4.214 1.529,5.646 c 2.705,5.352 1.094,5.41 0,5.117 c -0.475,-0.127 -0.87,-2.083 -1.706,-4.411 c -0.823,-2.293 -1.705,-1.117 -3.646,-3.999 c -0.606,-0.899 -1.104,-1.927 -2.941,-1.529 c -1.673,0.363 -3.079,0.647 -4.529,0.647 c -4.181,0 -5.071,-1.287 -5.071,-4.571 s 3.389,-4.866 7.57,-4.866 c 3.038,0 6.217,-0.013 7.734,1.236 c 1.942,-0.915 3.005,-1.925 3.005,-5.594 c 0,-0.53 -0.178,-1.056 0.352,-1.056 s 0.603,0.879 0.603,1.408 c 0,4.604 -1.124,5.318 -3.117,6.586 Z" fill="#CCD6DD"/>
	<path d="M 13.772,32.472 c -1.489,-0.111 -0.364,-6.578 -2.722,-8.174 c -1.575,-1.066 -0.064,-7.879 1.425,-7.988 c 1.488,-0.109 1.58,4.741 1.719,6.637 c 0.096,1.312 -0.294,5.496 0.681,7.675 c 0.561,1.254 -0.352,1.906 -1.103,1.85 Z" fill="#CCD6DD"/>
	
	<path d="M 13.231,7.67 c 0.328,1.726 -1.846,3.731 -4.913,4.172 c -6.15,0.884 -7.16,-2.459 -7.291,-3.511 c -0.104,-0.834 2.703,-1.177 6.395,-3.149 c 4.572,-2.442 5.481,0.762 5.809,2.488 Z" fill="#CCD6DD"/>
	
	<path d="M 2.521,8.864 c 0.001,0.623 0.022,1.247 -0.589,1.363 c -0.372,0.071 -1.213,-0.281 -1.423,-1.138 c -0.184,-0.756 0.286,-1.202 0.898,-1.319 c 0.611,-0.116 1.113,0.305 1.114,1.094 Z" fill="#292F33"/>
	<circle cx="7.715" cy="6.871" r="1" fill="#292F33"/>
	
	<path d="M 30.016,33.887 s 1.207,-0.905 1.408,0.05 s 0.101,1.759 -0.905,1.86 c -1.005,0.101 -2.011,0.101 -1.86,-0.754 c 0.079,-0.448 0.553,-0.502 1.357,-1.156 Z" fill="#99AAB5"/>
	<path d="M 13.425,33.887 s 1.207,-0.905 1.408,0.05 s 0.101,1.759 -0.905,1.86 c -1.005,0.101 -2.011,0.101 -1.86,-0.754 c 0.079,-0.448 0.553,-0.502 1.357,-1.156 Z" fill="#99AAB5"/>
	<path d="M 16.443,31.811 c 0.18,1.782 -0.873,2.262 -2.217,2.398 s -2.471,-0.124 -2.652,-1.905 c -0.18,-1.782 0.763,-3.338 2.108,-3.474 c 1.344,-0.136 2.581,1.199 2.761,2.981 Z" fill="#99AAB5"/>
	<path d="M 32.689,31.553 c 0.374,1.751 -0.528,2.324 -1.735,2.582 s -2.264,0.103 -2.638,-1.648 s 0.302,-3.382 1.509,-3.639 c 1.207,-0.258 2.49,0.953 2.864,2.705 Z" fill="#99AAB5"/>
	
	<path d="M 20.914,18.184 c 0,4.6 -1.198,7.245 -5.767,7.791 c -5.644,0.675 -10.032,-2.963 -9.608,-7.544 c 0.528,-5.707 3.78,-7.425 7.29,-7.431 c 4.601,-0.008 8.085,2.582 8.085,7.184 Z" fill="#99AAB5"/>
	<path d="M 22.575,18.402 c 0,4.6 -2.859,7.027 -7.428,7.573 c -5.644,0.675 -10.032,-2.963 -9.608,-7.544 c 0.528,-5.707 3.772,-7.665 7.282,-7.671 c 2.598,-0.005 5.43,0 7.179,2.607 c 2.123,0.561 2.575,3.032 2.575,5.035 Z" fill="#99AAB5"/>
	
	<path d="M 23.341,13.677 c 1.414,0.069 2.967,1.455 2.402,2.714 s -1.616,1.537 -2.564,1.408 c -1.106,-0.151 -2.492,-0.819 -2.279,-2.594 c 0.117,-0.976 1.111,-1.593 2.441,-1.528 Z" fill="#99AAB5"/>
	
	<path d="M 33.201,11.086 c 0.093,1.789 -1.087,3.305 -2.634,3.385 s -2.878,-1.306 -2.971,-3.095 s 0.245,-4.364 1.792,-4.444 s 3.72,2.365 3.813,4.154 Z" fill="#99AAB5"/>
	
	<path d="M 14.179,3.118 c 1.659,0.201 2.564,1.86 2.613,4.173 c 1.156,0.955 1.729,2.591 1.81,4.072 c 0.201,3.67 -1.108,5.631 -4.223,5.631 c -2.184,0 -3.533,-1.605 -3.414,-3.12 c -1.752,0.06 -2.719,-0.964 -2.719,-2.36 c 0,-1.447 1.281,-3.117 1.561,-4.308 l 0.078,-0.333 c 0.206,-0.916 -0.878,-1.662 -1.801,-1.493 c -2.435,0.445 -3.064,0.428 -3.683,-0.654 c -0.596,-1.043 0.477,-3.166 2.287,-2.815 c 0.101,-1.408 2.417,-1.832 3.814,-1.832 c 3.325,0 3.633,1.878 3.677,3.039 Z" fill="#66757F"/>
</svg>
