<svg xmlns="http://www.w3.org/2000/svg" viewBox="0 0 36 36">
	<path d="M 31.301,11 c 1.656,0 3,1.343 3,3 s -1.343,3 -3,3 c -0.171,0 -0.335,-0.023 -0.498,-0.05 l 0.015,0.05 l -0.636,14.004 c -0.1,2.198 -1.982,3.996 -4.182,3.996 h-16 c -2.2,0 -4.082,-1.798 -4.181,-3.996 l -0.637,-14.004 l 0.016,-0.053 c -0.173,0.03 -0.348,0.053 -0.53,0.053 c -1.657,0 -3,-1.343 -3,-3 s 1.343,-3 3,-3 h26.633 Z"  fill="#E1E8ED"/>
	<path d="M 28.668,17 h2.172 l -0.68,14.003 c -0.048,1.19 -0.629,2.252 -1.492,2.986 v-16.989 Z"  fill="#DA2F47"/>
	<path d="M 22.668,17 h3 v18 h-3 v-18 Z"  fill="#DA2F47"/>
	<path d="M 16.668,35 v-18 h3 v18 h-3 Z"  fill="#DA2F47"/>
	<path d="M 10.668,17 h3 v18 h-3 v-18 Z"  fill="#DA2F47"/>
	<path d="M 5.16,17 h2.508 v17.257 c -1.052,-0.726 -1.774,-1.912 -1.828,-3.254 l -0.68,-14.003 Z"  fill="#DA2F47"/>
	<path d="M 5.16,17 h25.68 l -0.098,2 h-25.485 l -0.097,-2 Z" fill="#99AAB599"/>
	<path d="M 30.929,11.07 c 0.618,0.185 1.071,0.752 1.071,1.43 c 0,0.829 -0.672,1.5 -1.5,1.5 h-25 c -0.828,0 -1.5,-0.671 -1.5,-1.5 c 0,-0.78 0.597,-1.413 1.357,-1.486 c -0.222,-0.46 -0.357,-0.969 -0.357,-1.514 c 0,-1.933 1.567,-3.5 3.5,-3.5 c 0.187,0 0.366,0.027 0.545,0.055 c 0.21,-1.168 1.227,-2.055 2.455,-2.055 c 1.225,0 2.24,0.882 2.454,2.046 c 0.39,0.071 0.743,0.236 1.047,0.466 l -0.001,-0.012 c 0,-1.381 1.119,-2.5 2.5,-2.5 c 0.822,0 1.544,0.402 2,1.013 c 0.373,-0.5 0.923,-0.856 1.563,-0.969 c -0.039,-0.176 -0.063,-0.357 -0.063,-0.544 c 0,-1.381 1.119,-2.5 2.5,-2.5 c 1.245,0 2.269,0.913 2.46,2.104 c 0.168,-0.065 0.349,-0.104 0.54,-0.104 c 0.828,0 1.5,0.671 1.5,1.5 c 0,0.198 -0.04,0.385 -0.11,0.558 c 0.513,0.139 0.913,0.539 1.052,1.052 c 0.173,-0.07 0.361,-0.11 0.558,-0.11 c 0.828,0 1.5,0.671 1.5,1.5 c 0,0.535 -0.282,1.001 -0.704,1.267 c 0.434,0.449 0.704,1.059 0.704,1.733 c 0,0.197 -0.028,0.386 -0.071,0.57 Z"  fill="#FFD983"/>
	<g fill="#FFAC33">
	<circle cx="28" cy="8" r="1"/>
	<circle cx="24.5" cy="5.5" r="1.5"/>
	<circle cx="12" cy="7" r="1"/>
	<path d="M 31,12.5 c 0,0.176 -0.036,0.343 -0.092,0.5 h-3.908 c 0,-0.552 0.448,-1 1,-1 c 0.031,0 0.057,0.015 0.086,0.017 c 0.202,-0.59 0.756,-1.017 1.414,-1.017 c 0.828,0 1.5,0.672 1.5,1.5 Z"  />
	<path d="M 9.5,12 c -0.652,0 -1.201,0.419 -1.408,1 h-2 c -0.056,-0.157 -0.092,-0.324 -0.092,-0.5 c 0,-0.828 0.672,-1.5 1.5,-1.5 c 0.386,0 0.734,0.15 1,0.39 c 0.172,-0.155 0.38,-0.27 0.61,-0.332 c -0.07,-0.173 -0.11,-0.36 -0.11,-0.558 c 0,-0.828 0.672,-1.5 1.5,-1.5 c 0.692,0 1.27,0.472 1.442,1.11 c 0.173,-0.07 0.36,-0.11 0.558,-0.11 c 0.828,0 1.5,0.672 1.5,1.5 c 0,0.237 -0.06,0.459 -0.159,0.659 c 0.2,-0.099 0.422,-0.159 0.659,-0.159 c 0.386,0 0.734,0.15 1,0.39 c 0.172,-0.155 0.38,-0.27 0.61,-0.332 c -0.07,-0.173 -0.11,-0.36 -0.11,-0.558 c 0,-0.692 0.472,-1.269 1.11,-1.442 c -0.07,-0.173 -0.11,-0.36 -0.11,-0.558 c 0,-0.828 0.672,-1.5 1.5,-1.5 c 0.248,0 0.478,0.066 0.684,0.172 c 0.315,-0.69 1.008,-1.172 1.816,-1.172 c 1.104,0 2,0.896 2,2 c 0,0.101 -0.015,0.197 -0.03,0.294 c 0.302,-0.183 0.652,-0.294 1.03,-0.294 c 1.104,0 2,0.896 2,2 c 0,0.601 -0.27,1.133 -0.69,1.5 l 0.566,0.5 h-2.968 c 0.056,-0.157 0.092,-0.324 0.092,-0.5 c 0,-0.693 -0.472,-1.27 -1.11,-1.442 c 0.07,-0.173 0.11,-0.36 0.11,-0.558 c 0,-0.829 -0.672,-1.5 -1.5,-1.5 s -1.5,0.671 -1.5,1.5 c 0,0.237 0.06,0.459 0.158,0.658 c -0.199,-0.098 -0.421,-0.158 -0.658,-0.158 c -0.828,0 -1.5,0.671 -1.5,1.5 c 0,0.176 0.036,0.343 0.092,0.5 h-4.184 c 0.056,-0.157 0.092,-0.324 0.092,-0.5 c 0,-0.829 -0.672,-1.5 -1.5,-1.5 c -0.692,0 -1.27,0.472 -1.442,1.11 c -0.173,-0.07 -0.36,-0.11 -0.558,-0.11 Z"  />
	</g>
	<path d="M 4,13 h28 v1 c 0,0.552 -0.447,1 -1,1 h-26 c -0.552,0 -1,-0.448 -1,-1 v-1 Z"  fill="#FFF"/>
	</svg>
