<svg xmlns="http://www.w3.org/2000/svg" viewBox="0 0 36 36">
	<circle fill="#D99E82" cx="18" cy="4" r="4"/>
	<path d="M 14,4 h8 v4 h-8 v-4 Z"  fill="#EDBB9F"/>
	<path d="M 11,10 h14 v15 h-14 v-15 Z"  fill="#EDBB9F"/>
	<path d="M 23,8 a 2,2 0 01 2,2 h-14 a 2,2 0 01 2,-2 h10 Z"  fill="#D99E82"/>
	<path d="M 33,12 a 2,2 0 01 2,2 h-34 a 2,2, 0 01 2,-2 h30 Z"  fill="#D99E82"/>
	
	<path d="M 1,18 h34 v16 a 2,2 0 01 -2,2 h-30 a 2,2 0 01 -2,-2 v-16 Z"  fill="#BE1931"/>
	<path d="M 1,14 h34 v3 h-34 v-3 Z"  fill="#FFE8B6"/>
	<path d="M 1,16 h34 v2 h-34 v-2 Z"  fill="#C1694F"/>
	
	<path d="M 15,36 v-6 a 3,3 0 01 6,0 v6 h-6 Z"    fill="#CCD6DD"/>
	<path d="M 25,34 v-4 a 2,2 0 01 6,0 v4 h-6 Z"    fill="#AAB8C2"/>
	<path d="M 5,34 v-4 a 2,2 0 01 6,0 v4 h-6 Z"    fill="#AAB8C2"/>
	
	<path d="M 21.667,21.244
c 0.206,-0.203 0.415,0.006 0.416,0.005
l 0.626,0.633
s 0.208,0.205 0.004,0.404
c -0.208,0.204 -0.392,0.016 -0.392,0.016
l -2.467,2.468
c -1.226,1.226 -3.216,1.226 -4.442,0 c -1.227,-1.228 -1.227,-3.215 0,-4.442 c 1.226,-1.226 3.216,-1.226 4.442,0 c 0.457,0.456 0.743,1.019 0.859,1.609 l -0.895,0.894 c 0.085,-0.657 -0.12,-1.341 -0.622,-1.846 c -0.866,-0.864 -2.265,-0.864 -3.128,0 c -0.862,0.863 -0.862,2.263 0,3.127 c 0.864,0.863 2.263,0.863 3.128,0
l 2.464,-2.465
s -0.197,-0.202 0.007,-0.403
Z"  fill="#FFAC33"/>
	<path d="M 14.22,23.579 c -0.135,-0.469 -0.175,-0.957 -0.122,-1.438 l -0.085,-0.085 c -0.824,-0.822 -0.33,-1.978 -0.495,-2.141 c -0.164,-0.164 -0.329,0 -0.329,0 l -1.974,1.977 c -0.164,0.164 0,0.328 0,0.328 c 0.164,0.164 1.372,-0.275 2.087,0.441 l 0.918,0.918 Z"   fill="#FFAC33"/>
</svg>
