<svg xmlns="http://www.w3.org/2000/svg" viewBox="0 0 36 36">
	<defs>
		<clipPath id="letter1">
			<path d="M 11,6 h14 v15 c 0,2 -2,2 -2,2 h-10 c -2,0 -2,-2 -2,-2 v-15 Z"/>
		</clipPath>
	</defs>
	<rect width="9" height="10" x="14" y="26" fill="#66757f"/>
	<g>
		<rect width="26" height="29" rx="4" x="5" y="0" fill="#dd2e44"/>
	</g>
	<g>
		<path d="M 27,12 h-18 s -2,0 -2,-2 v-3 l 2,-2 h18 l 2,2 v3 c 0,2 -2,2 -2,2 Z" fill="#292f33"/>
	</g>
	<g clip-path="url(#letter1)">
		<rect width="36" height="36" fill="#e1e8ed"/>
		<path d="M 24,24 h-14 v-19 h13 l -8,8 l 9,11 Z" fill="#ccd6dd"/>
		<path d="M 23,24 s -7,-9 -8,-10 s 0,-2 0,-2 l 7,-7 l 1,1 l -7,7 l 8,10 l -1,1 Z" fill="#66757f"/>
	</g>
	<path d="M 7,7 v-1 s 0,-2 2,-2 h18 s 2,0 2,2 v1 h-22 Z" fill="#a0041e"/>
</svg>
