<svg xmlns="http://www.w3.org/2000/svg" viewBox="0 0 36 36">
	<defs>
		<clipPath id="food1">
			<path d="M 4,16 c -0.542,-2.169 2,-6 7,-5 c 1,-1 2.838,-2 6,-2 c 2,0 5.612,1.775 4,5 c -1,2 -5,5 -10,3 c -1,1 -6,3 -7,-1 Z"/>
		</clipPath>
		<clipPath id="food2">
			<path d="M 5,16 c 0.525,-1.313 5,-3 10,3 c 1,1 4.586,1.586 6,3 c 1,1 0,2 -4,2 s -14,-3 -12,-8 Z"/>
		</clipPath>
	</defs>
	<g>
		<path d="M 1,17 h34 c 0,1.913 0.087,15.769 -13.125,17.918 c -2.042,0.332 -6.459,0.249 -8.838,-0.102 c -12.243,-1.804 -12.037,-14.098 -12.037,-17.816 Z" fill="#292f33"/>
		<path d="M 1.819,19.947 c 4.327,-5.712 14.121,4.634 9.183,5.71 s -13.51,0.002 -9.183,-5.71 Z" fill="#66757f"/>
		<path d="M 33.388,13.247 c -2.467,5.574 -13.739,-3.51 -11.035,-4.382 s 13.502,-1.192 11.035,4.382 Z" fill="#66757f"/> don't know what the handles real shape was. i just extended the path smoothly
		<path d="M 35,17.056 a 17,9.444 0 01 -34,0 c 0,-5.216 7.611,-8.444 17,-8.444 s 17,3.228 17,8.444 Z" fill="#66757f"/> 5.216 ≈ 9.444*0.5523
	</g>
	
	<ellipse rx="15" ry="7" cx="18" cy="18" fill="#ffcc4d"/>
	<g clip-path="url(#food1)">
		<circle r="999" fill="#77b255"/>
		<path d="M 19,9 s 4,1 6,3 s -4,6 -7,7 s -13,-1 -6,-2 s 8,-7 7,-8 Z" fill="#5c913b"/>
	</g>
	<g clip-path="url(#food2)">
		<circle r="999" fill="#d99e82"/>
		<path d="M 6,20 c 2,1 11,3 14,1 s 3,1 3,2 s -3,5 -8,3 s -9,-3 -9,-4 v-2 Z" fill="#b27962"/>
	</g>
	<g stroke-linecap="round" fill="none" stroke="#ffe8b6">
		<path d="M 27,17 l -3,-1" stroke-width="4"/>
		<path d="M 26,21 h-2" stroke-width="2"/>
	</g>
</svg>
