<svg xmlns="http://www.w3.org/2000/svg" viewBox="0 0 36 36">
	<rect x="0" y="11" width="36" height="25" rx="2"  fill="#9266CC"/>
	<rect x="0" y="6" width="36" height="24" rx="2"  fill="#CBB8E9"/>
	
	<path d="M 33,28.5 h-30 a 1.5,1.5 0 01 -1.5,-1.5 v-18 a 1.5,1.5 0 01 1.5,-1.5 h30 a 1.5,1.5 0 01 1.5,1.5 v18 a 1.5,1.5 0 01 -1.5,1.5 Z M 3,8.5 a 0.5,0.5 0 00 -0.5,0.5 v18 a 0.5,0.5 0 00 0.5,0.5 h30 a 0.5,0.5 0 00 0.5,-0.5 v-18 a 0.5,0.5 0 00 -0.5,-0.5 h-30 Z" fill="#9266CC" />
	
	<circle fill="#AA8DD8" cx="25" cy="18" r="6.5"/>
	
	<path d="M 14,6 h8 v24 l -4,4 l -4,-4 v-24 Z"  fill="#FFE8B6"/>
	<path d="M 14,30 h8 v6 h-8 v-6 Z"  fill="#FFAC33"/>
	
	<path d="M 9.308,17.315 c 0.439,0 0.755,0.228 0.755,0.72 s -0.316,0.72 -0.755,0.72 h-1.915 c 0.053,0.299 0.123,0.632 0.123,1.159 c 0,0.826 -0.544,2.09 -1.51,2.951 h5.919 c 0.44,0 0.756,0.228 0.756,0.72 s -0.316,0.721 -0.756,0.721 h-7.025 c -0.491,0 -0.931,-0.123 -0.931,-0.738 c 0,-0.754 2.002,-1.58 2.002,-3.67 c 0,-0.316 -0.018,-0.755 -0.123,-1.142 h-1.774 c -0.439,0 -0.755,-0.228 -0.755,-0.72 s 0.316,-0.72 0.755,-0.72 h1.353 c -0.421,-0.755 -0.86,-1.581 -0.86,-2.511 c 0,-1.845 1.809,-3.109 3.793,-3.109 c 2.09,0 4.022,1.722 4.022,3.109 c 0,0.474 -0.298,0.755 -0.737,0.755 c -1.177,0 -0.562,-2.424 -3.268,-2.424 c -1.142,0 -2.266,0.615 -2.266,1.774 c 0,0.931 0.527,1.633 0.931,2.406 h2.266 v-0.001 Z"  fill="#9266CC"/>
</svg>
