<svg xmlns="http://www.w3.org/2000/svg" viewBox="0 0 36 36">
	<g fill="#f4900c">
		hm i think this shape can be split apart more..
		<path d="M 35,16 c 0,3 -1.315,5.662 -3,8 c -0.434,0.601 -0.904,1.146 -1.401,1.647 c 0.358,0.603 0.617,1.091 0.78,1.353 c 0.621,1 -0.379,2 -1.379,2 c -0.69,0 -1.205,-0.618 -1.745,-1.483 c -2.807,1.756 -6.278,2.483 -10.255,2.483 c -3.978,0 -7.448,-0.727 -10.255,-2.483 c -0.54,0.865 -1.055,1.483 -1.745,1.483 c -1,0 -2,-1 -1.379,-2 c 0.162,-0.262 0.422,-0.75 0.779,-1.353 c -0.497,-0.501 -0.967,-1.046 -1.4,-1.647 c -1.686,-2.338 -3,-5 -3,-8 c 0,-8 6,-11 12,-11 c 1.738,0 3.471,0.371 5,1.096 c 1.528,-0.725 3.262,-1.096 5,-1.096 c 6,0 12,3 12,11 Z
M 19,14 c 0,-0.708 -0.381,-1.415 -1,-2.034 c -0.619,0.619 -1,1.326 -1,2.034 c 0,0 -0.422,1.736 1,3.207 c 1.422,-1.471 1,-3.207 1,-3.207 Z
M 13,14 c 0,-1.502 0.313,-2.816 0.861,-3.941 c -0.286,-0.036 -0.573,-0.059 -0.861,-0.059 c -1.151,0 -4.947,-0.159 -6,3 c -0.796,2.387 -0.41,4.686 1.215,6.94 c 0.31,0.431 0.665,0.812 1.04,1.167 c 1.274,-0.985 2.838,-1.789 4.745,-2.107 c 0.341,-0.057 0.653,-0.126 0.95,-0.202 c -1.372,-1.525 -1.95,-3.322 -1.95,-4.798 Z
M 18,24 c 2.296,0 4.475,-0.394 6.324,-1.266 c -0.657,-0.372 -1.415,-0.643 -2.324,-0.734 c -1.565,-0.158 -2.885,-0.525 -4,-1.025 c -1.115,0.5 -2.435,0.867 -4,1.025 c -0.909,0.091 -1.667,0.362 -2.324,0.734 c 1.848,0.872 4.027,1.266 6.324,1.266 Z
M 23,14 c 0,1.476 -0.578,3.273 -1.95,4.798 c 0.296,0.076 0.609,0.145 0.95,0.202 c 1.906,0.318 3.471,1.122 4.745,2.107 c 0.375,-0.355 0.729,-0.736 1.04,-1.167 c 1.625,-2.254 2.011,-4.553 1.215,-6.94 c -1.053,-3.159 -4.85,-3 -6,-3 c -0.288,0 -0.576,0.023 -0.861,0.059 c 0.547,1.125 0.861,2.439 0.861,3.941 Z"/>
	</g>
	shadows:
	<g fill="#66211380">
		<path d="M 11.751,22.7637 c 0.357,0.166 0.732,0.305 1.113,0.436 c -0.587,0.326 -1.721,1.059 -2.489,2.238 c -0.674,1.034 -1.199,1.995 -1.552,2.687 c -0.353,-0.178 -0.697,-0.374 -1.032,-0.581 c 0.366,-0.51 0.896,-1.315 1.584,-2.544 c 0.596,-1.064 1.582,-1.788 2.376,-2.236 Z"/>
		<path d="M 23.4434,22.3301 s 1.927,0.152 3.369,2.67 c 1.442,2.517 2.004,3.31 2.004,3.31 c -0.189,-0.225 -0.374,-0.493 -0.562,-0.793 c -0.25,0.157 -0.51,0.295 -0.77,0.435 c -0.42,-0.734 -1.057,-1.816 -1.797,-2.952 c -0.612,-0.94 -1.395,-1.617 -1.96,-2.032 c 0.197,-0.08 0.406,-0.144 0.597,-0.234 c -0.275,-0.155 -0.572,-0.288 -0.886,-0.402 l 0.005,-0.002 Z"/>
		<path d="M 21.0498,18.7988 c 0.297,0.075 0.609,0.145 0.95,0.201 c 0.029,0.005 0.053,0.015 0.081,0.02 c -0.189,0.31 -0.52,0.71 -1.081,1.23 c -0.544,0.506 -1.178,0.911 -1.701,1.204 c -0.457,-0.142 -0.895,-0.298 -1.296,-0.477 c 0.399,-0.193 0.804,-0.427 1.161,-0.724 c 0.684,-0.567 1.455,-1.178 2.024,-1.622 c -0.048,0.056 -0.088,0.113 -0.138,0.168 Z"/>
		<path d="M 18.5835,12.7114 c -0.159,-0.256 -0.346,-0.507 -0.581,-0.743 c 0.417,-0.429 1.121,-1.038 1.998,-1.343 c 0.773,-0.269 1.575,-0.428 2.158,-0.518 c 0.142,0.297 0.266,0.61 0.376,0.935 c -1.824,0.145 -3.219,1.057 -3.951,1.669 Z"/>
	</g>
	salt:
	<g fill="#ffe8b6">
		<circle r="1" cx="12" cy="7"/>
		<circle r="1" cx="22" cy="8"/>
		<circle r="1" cx="19" cy="9"/>
		<circle r="1" cx="3" cy="14"/>
		<circle r="1" cx="6" cy="11"/>
		<circle r="1" cx="31" cy="17"/>
		<circle r="1" cx="31" cy="9"/>
		<circle r="1" cx="14" cy="27"/>
		<circle r="1" cx="21" cy="26"/>
		<circle r="1" cx="25" cy="27"/>
		<circle r="1" cx="7" cy="22"/>
	</g>
</svg>
