<svg xmlns="http://www.w3.org/2000/svg" viewBox="0 0 36 36">
	<path d="M 30,12 h-24 v-7 a 1.846,2 0 01 1.846,-2 h20.309 a 1.845,2 0 01 1.845,2 v7 Z"   fill="#67757F"/>
	<path d="M 30,31 a 2,2 0 01 -2,2 h-20 a 2,2 0 01 -2,-2 v-3 h24 v3 Z"   fill="#67757F"/>
	<path d="M 34,25 c 0,1 -1,3 -3,3 h-26 c -2,0 -3,-2 -3,-3 v-9 a 4,4 0 01 4,-4 h24 a 4,4 0 01 4,4 v9 Z"   fill="#5DADEC"/>
	<circle fill="#F5F8FA" cx="30.5" cy="19.5" r="1.5"/>
	<path d="M 30,25 v4 h-24 v-4 a 2.182,2 0 01 2.182,-2 h19.636 a 2.182,2 0 01 2.182,2 Z"   fill="#292F33"/>
	<path d="M 27,12 h-18 v-10 a 2,2 0 01 2,-2 h14 a 2,2 0 01 2,2 v10 Z"   fill="#E1E8ED"/>
	<path d="M 27,34 a 2,2 0 01 -2,2 h-14 a 2,2 0 01 -2,-2 v-8 h18 v8 Z"   fill="#E1E8ED"/>
	<path d="M 30,15 a 2,2 0 01 -2,2 h-20 a 2,2 0 01 -2,-2 v-4 h24 v4 Z"   fill="#4289C1"/>
	<rect x="11" y="28" width="14" height="2" rx="1"  fill="#9AAAB4"/>
	<rect x="11" y="31" width="14" height="2" rx="1"  fill="#9AAAB4"/>
	<path d="M 9,25 h18 v2 h-18 v-2 Z"   fill="#9AAAB4"/>
</svg>
