<svg xmlns="http://www.w3.org/2000/svg" viewBox="0 0 36 36">
	<g>
		<!--old: <path d="M 15.0488,20.9531 s 5.771,-10.952 -2.049,-3.13 c -7.821,7.821 -13.593,17.205 -12.811,17.989 c 0.781,0.784 10.168,-4.991 17.988,-12.812 c 7.821,-7.821 -3.128,-2.047 -3.128,-2.047 Z" fill="#99aab5"/>-->
		<path d="M 14,17.823 s -14.595,17.206 -13.812,17.989 s 17.989,-13.812 17.989,-13.812 l -4.177,-4.177 Z" fill="#99aab5"/>
	</g>
	<g>
		<path d="M 23.6514,23.2969 l -10.95,-10.949 l 9.387,-7.821 l 9.384,9.385 l -7.821,9.385 Z" fill="#be1931"/> a
		<!--<path d="M 34.5996,13.9121 c -1.727,1.729 -4.528,1.729 -6.255,0 l -6.257,-6.256 c -1.729,-1.727 -1.729,-4.53 0,-6.258 c 1.726,-1.727 4.529,-1.727 6.257,0 l 6.255,6.258 c 1.729,1.727 1.729,4.528 0,6.256 Z" fill="#dd2e44"/>
			<path d="M 25.2148,27.9912 c -1.727,1.729 -4.528,1.729 -6.258,0 l -10.948,-10.951 c -1.727,-1.727 -1.727,-4.528 0,-6.256 c 1.728,-1.729 4.531,-1.729 6.258,0 l 10.948,10.949 c 1.729,1.73 1.729,4.529 0,6.258 Z" fill="#dd2e44"/>-->
		<g stroke-width="8.849" stroke-linecap="round" fill="none" stroke="#DD2E44">
			<path d="M 31.472,10.784 L 25.216,4.528"/>
			<path d="M 22.087,24.862 L 11.138,13.913"/>
		</g>
	</g>
</svg>
