<svg xmlns="http://www.w3.org/2000/svg" viewBox="0 0 36 36">
	<path d="M 33.799,0.005 c 0.456,0.174 -4.269,16.044 -7.024,20.839 c 2.42,2.561 4.225,5.818 4.225,8.984 c 0,3.234 -1.635,5.139 -4,5.94 c -2.531,0.858 -5,-0.94 -9,-0.94 s -6.469,1.797 -9,0.94 c -2.365,-0.8 -4,-2.706 -4,-5.94 c 0,-3.167 1.805,-6.423 4.226,-8.985 c -2.757,-4.794 -7.48,-20.664 -7.025,-20.838 c 0.467,-0.178 7.999,3.972 9.969,9.132 c 1.166,3.051 1.685,6.057 1.652,8.112 c 1.469,-0.791 2.921,-1.249 4.178,-1.249 s 2.709,0.459 4.178,1.248 c -0.034,-2.054 0.486,-5.06 1.652,-8.112 c 1.971,-5.16 9.502,-9.309 9.969,-9.131 Z"  fill="#99AAB5"/>
	<ellipse cx="18.1665" cy="30" rx="6.8335" ry="5"  fill="#CCD6DD"/>
	
	<path d="M 21,30.578 c 0,2.762 -0.238,3 -3,3 c -2.761,0 -3,-0.238 -3,-3 c 0,-1 6,-1 6,0 Z"  fill="#FFF"/>
	<circle fill="#292F33" cx="12.5" cy="24.328" r="1.5"/>
	<circle fill="#292F33" cx="23.5" cy="24.328" r="1.5"/>
	
	<path d="M 12.692,17.922 c -0.937,0.609 -1.857,1.348 -2.723,2.172 c -2.156,-4.723 -5.102,-14.741 -4.783,-14.863 c 0.363,-0.138 4.515,3.091 6.049,7.107 c 0.777,2.034 1.279,4.044 1.457,5.584 Z"  fill="#F4ABBA"/>
	<path d="M 26.03,20.094 c -0.866,-0.824 -1.786,-1.563 -2.723,-2.172 c 0.178,-1.54 0.68,-3.549 1.457,-5.583 c 1.534,-4.016 5.687,-7.246 6.05,-7.107 c 0.318,0.121 -2.628,10.139 -4.784,14.862 Z"  fill="#F4ABBA"/>
	<path d="M 21,25.828 c 0,1.657 -2,3 -3,3 s -3,-1.343 -3,-3 s 6,-1.657 6,0 Z"  fill="#F4ABBA"/>
	</svg>
