<svg xmlns="http://www.w3.org/2000/svg" viewBox="0 0 36 36">
	<path d="M 9,11 c 0,-4.142 -2,-11 -1,-11 s 7,4 5,11 c -1.138,3.983 -0.896,4 -2,4 s -2,0.142 -2,-4 Z"  fill="#99AAB5"/>
	<path d="M 4.789,12.375 c -1.063,-4.003 -4.756,-10.119 -3.789,-10.375 c 0.966,-0.257 7.792,2.07 7.655,9.349 c -0.078,4.142 0.161,4.096 -0.907,4.379 s -1.897,0.65 -2.959,-3.353 Z"  fill="#99AAB5"/>
	<path d="M 9.55,11.704 c 0,-3.414 -1.297,-9.065 -0.648,-9.065 c 0.648,0 4.538,3.296 3.241,9.065 c -0.738,3.282 -0.581,3.296 -1.297,3.296 s -1.296,0.117 -1.296,-3.296 Z"  fill="#F4ABBA"/>
	<path d="M 5.5,12.914 c -0.875,-3.299 -3.579,-8.429 -2.952,-8.595 c 0.627,-0.167 5.232,2.022 5.458,7.93 c 0.129,3.361 0.285,3.335 -0.407,3.519 c -0.692,0.183 -1.223,0.445 -2.099,-2.854 Z"  fill="#F4ABBA"/>
	
	<circle fill="#CCD6DD" cx="32.5" cy="28.5" r="3.5"/>
	<path d="M 30.733,31.736 c 0.116,0.074 0.213,0.157 0.267,0.264 c 2,4 -5.478,4 -11,4 c -3,0 -5,-0.119 -5,-1.5 c 0,-0.229 0.635,-0.774 1.512,-1.298 c -1.273,-0.386 -2.463,-0.914 -3.531,-1.577 c -0.067,2.158 -0.393,4.375 -1.981,4.375 c -2,0 0,-5 -3,-10 l -0.001,-0.003 c -4.119,-0.027 -7.999,-0.534 -7.999,-4.664 c 0,-4.264 4.136,-8.333 8.4,-8.333 c 2.417,0 4.192,0.41 5.277,1.54 c 1.494,-0.383 3.266,-0.54 5.323,-0.54 c 7.18,0 14,3.82 14,11 c 0,3.218 -0.773,5.354 -2.267,6.736 Z"  fill="#99AAB5"/>
	<circle fill="#292F33" cx="6" cy="18" r="1"/>
	<path d="M 2,21 c 0,1.104 -0.5,2 -1,2 s -1,-0.896 -1,-2 s 0.448,-1 1,-1 s 1,-0.104 1,1 Z"  fill="#F4ABBA"/>
	</svg>
