<svg xmlns="http://www.w3.org/2000/svg" viewBox="0 0 36 36">
	<path d="M 30,23 l 2,-6 h3 l -2,6 h-3 Z" fill="#414042"/>
	<path d="M 29,19 s 7,0 7,2 v4 v1 v7 a 1,1 0 01 -1,1 h-34 c -0.552,0 -1.125,-0.354 -1,-1 l 2.359,-10 c 0.11,-0.594 0.94,-1.013 1.56,-1.23 l 6.081,-1.77 l 6,-5 h9 c 1,0 4,4 4,4 Z" fill="#f4900c"/>
	<path d="M 30,18 l 1,-1 l 5,-1 v2 h-6 Z" fill="#f4900c"/>
	<g>
		<path d="M 16.0938,20 h11.906 l -5,14 h-12 l 5.094,-14 Z" fill="#3b88c3"/>
	</g>
	<g>
		<circle r="3.5" cx="19.5" cy="26.5" fill="#ffffff"/>
		<path d="M 21.0547,25.2422 c 0,0.441 -0.189,0.826 -0.574,1.072 c 0.504,0.231 0.853,0.699 0.853,1.254 c 0,0.84 -0.769,1.547 -1.763,1.547 c -1.037,0 -1.682,-0.764 -1.682,-1.316 c 0,-0.274 0.287,-0.469 0.539,-0.469 c 0.477,0 0.364,0.818 1.156,0.818 c 0.364,0 0.659,-0.279 0.659,-0.65 c 0,-0.981 -1.192,-0.26 -1.192,-1.086 c 0,-0.734 0.995,-0.238 0.995,-1.016 c 0,-0.265 -0.188,-0.468 -0.505,-0.468 c -0.665,0 -0.573,0.685 -1.05,0.685 c -0.287,0 -0.455,-0.258 -0.455,-0.517 c 0,-0.547 0.749,-1.135 1.527,-1.135 c 1.009,0 1.492,0.736 1.492,1.281 Z" fill="#292F33"/>
	</g>
	<g>
		<path d="M 17,16 h8 v4 h-13 l 5,-4 Z" fill="#88c9f9"/>
	</g>
	<g>
		<rect width="4" height="2" rx="1" x="2" y="23" fill="#ffcc4d"/>
	</g>
	<g>
		<path d="M 36,22 v3 h-1 a 1,1 0 01 -1,-1 v-1 a 1,1 0 01 1,-1 h1 Z" fill="#dd2e44"/>
	</g>
	<g>
		<circle r="4" cx="8" cy="31" fill="#292f33"/>
		<circle r="4" cx="29" cy="31" fill="#292f33"/>
		<circle r="2" cx="8" cy="31" fill="#4B545D"/> colors nnhh
		<circle r="2" cx="29" cy="31" fill="#4B545D"/>
	</g>
</svg>
