<svg xmlns="http://www.w3.org/2000/svg" viewBox="0 0 36 36">
	<path d="M 36,1 v17.042 c -9.916,0 -17.958,8.041 -17.958,17.958 h-17.042 c 0,-19.882 15.118,-35 35,-35 Z"  fill="#8767AC"/>
	<path d="M 0,35.999 c 0,-19.868 16.095,-35.976 35.959,-35.999 v3.042 c -18.183,0.022 -32.917,14.768 -32.917,32.957 h-3.042 Z"  fill="#EB2027"/>
	<path d="M 3.083,36 c 0,-18.189 14.734,-32.935 32.917,-32.957 v3 c -16.527,0.022 -29.917,13.425 -29.917,29.957 h-3 Z"  fill="#F19020"/>
	<path d="M 6.083,36 c 0,-16.532 13.39,-29.935 29.917,-29.957 v3 c -14.87,0.022 -26.917,12.082 -26.917,26.957 h-3 Z"  fill="#FFCB4C"/>
	<path d="M 9.083,36 c 0,-14.875 12.047,-26.935 26.917,-26.957 v3 c -13.212,0.022 -23.917,10.74 -23.917,23.957 h-3 Z"  fill="#5C903F"/>
	<path d="M 12.083,36 c 0,-13.217 10.705,-23.935 23.917,-23.957 v3.001 c -11.555,0.022 -20.917,9.396 -20.917,20.956 h-3 Z"  fill="#226798"/>
</svg>
