<svg xmlns="http://www.w3.org/2000/svg" viewBox="0 0 36 36">
	<g fill="rgb(41,47,51)">
		<path d="M 25 35  c -2.75,0 -2,-6 -2,-6 c 0,-1.104 2.646,-2 3.75,-2 s 3.25,-0.104 3.25,1 c 0,0 -2.25,7 -5,7 Z"/>
		<path d="M 14 35  c -2.75,0 -4,-6 -4,-6 c 0,-1.104 2.646,-2 3.75,-2 s 3.25,-0.104 3.25,1 c 0,0 -0.25,7 -3,7 Z"/>
	</g>
	<g fill="rgb(102,117,127)">
		<path d="M 28 36  c -2.75,0 -2,-6 -2,-6 c 0,-1.104 2.646,-2 3.75,-2 s 3.25,-0.104 3.25,1 c 0,0 -2.25,7 -5,7 Z"/>
		<path d="M 17 36  c -2.75,0 -4,-6 -4,-6 c 0,-1.104 2.646,-2 3.75,-2 s 3.25,-0.104 3.25,1 c 0,0 -0.25,7 -3,7 Z"/>
	</g>
	<path d="M 21.231,9.976 c 10.024,0 14.519,3.625 14.519,11.408 s -4.495,11.408 -14.519,11.408 s -13.481,-3.626 -13.481,-11.408 s 3.457,-11.408 13.481,-11.408 Z" fill="rgb(225,232,237)"/>
	<path d="M 17,17.667 c 0,9.333 -4.655,11.333 -8.958,11.333 s -7.042,-6.64 -7.042,-11.333 s 2.739,-5.667 7.042,-5.667 s 8.958,0.973 8.958,5.667 Z" fill="rgb(153,170,181)"/>
	<circle cx="4.5" cy="20.5" r="1.5" fill="rgb(41,47,51)"/>
	<path d="M 0,13.5 c 0,-1.933 3.687,-2.5 7,-2.5 s 10.409,-1.332 8.75,1.75 c -1.75,3.25 -2.128,2.606 -7.128,4.606 c -3.077,1.231 -8.622,0.894 -8.622,-3.856 Z" fill="rgb(225,232,237)"/>
	<path d="M 16 13.696  c 3.353,2.427 5.43,6.139 3.724,11.089 c -1.368,3.967 -6.817,3.116 -9.617,1.127 c -2.798,-1.988 -2.642,-4.792 -1.733,-6.291 c 0.909,-1.497 4.158,-1.228 6.024,0.097 c 0.934,0.663 0.288,1.56 -0.72,1.068 c -2.292,-1.118 -3.037,1.444 -1.246,2.882 c 1.265,1.016 3.274,1.049 3.655,-1.01 c 0.671,-3.629 -3.505,-6.274 -7.465,-5.301 c 2.378,-1.357 4.539,-5.716 7.378,-3.661 Z" fill="rgb(255,204,77)"/>
</svg>
