<svg xmlns="http://www.w3.org/2000/svg" viewBox="0 0 36 36">
	<path d="m 0,0 h7 c 3,0 5,2.25 5,4.25 c 0,3 -2,4.75 -5,4.75 h-24" stroke-width="2" stroke-linecap="round" stroke-linejoin="round" fill="none" transform="translate(23, 26)" stroke="#EA596E"/>
	
	<path d="M 12,24.5 c 0,3.038 4.942,6.256 2,5.5 c -3.406,-0.875 -7.094,-0.825 -9,-1 c -3.014,-0.275 -5,-0.162 -5,-2 c 0,-1.593 1,-4 4,-5 c 2.121,-0.707 5.593,-7.044 9,-5 c 2.604,1.562 -1,4.463 -1,7.5 Z"  fill="#66757F"/>
	<path d="M 10.594,18.312 s -0.156,0.864 -1.219,0.897 c -1.063,0.031 -1.021,-0.709 -2.896,-1.188 c -0.875,-0.223 -1,-0.521 0.167,-0.521 c 0.729,0 1.507,0.217 1.431,0.042 c -0.114,-0.261 -1.001,-0.552 -2.077,-0.667 c -0.583,-0.063 -0.625,-0.542 0.104,-0.542 c 1.656,0.002 3.23,0.262 4.49,1.979 Z"  fill="#66757F"/>
	
	<path d="M 33,23.5 c 0,5.247 -5.753,7.5 -11,7.5 s -12,-0.753 -12,-6 c 0,-7 4,-14 14,-14 c 5.247,0 9,4 9,12.5 Z"  fill="#66757F"/>
	<path d="M 26.442,11.325 c 1.078,0.402 -4.823,1.597 -5.854,0.973 c -1.032,-0.625 -1.825,-0.891 -2.641,-0.797 c -0.545,0.062 -0.903,-0.168 -0.031,-0.5 c 1.751,-0.667 4.346,0.11 4.065,-0.109 c -0.293,-0.229 -1.122,-0.792 -1.731,-0.933 c -0.462,-0.106 -0.751,-0.542 0,-0.625 c 2.25,-0.25 4.542,1.375 6.192,1.991 Z"  fill="#66757F"/>
	
	<path d="M 9.781,17.844 c 0,-2.594 -2.375,-3.219 -1.188,-5.031 c 0.706,-1.078 2.588,-0.635 3.051,-0.582 c -0.037,1.332 1.605,1.875 2.054,1.049 c 0.378,0.372 0.71,0.83 0.962,1.361 c 0.914,1.923 -0.461,4.49 -1.958,5.201 c -1.494,0.711 -2.921,0.132 -2.921,-1.998 Z"  fill="#66757F"/>
	
	<path d="M 13.633,16.14 c 0.084,1.279 -0.481,2.67 -1.396,2.915 c -0.914,0.246 -1.277,-0.728 -1.608,-1.961 s -0.95,-2.686 -0.036,-2.932 c 0.915,-0.246 2.931,0.317 3.04,1.978 Z"  fill="#E6AAAA"/>
	<circle fill="#292F33" cx="8" cy="23" r="1"/>
	
</svg>
