<svg xmlns="http://www.w3.org/2000/svg" viewBox="0 0 36 36">
	<g>
		<path d="M 32.272,32.272 l -19.4375,-19.4375" stroke-width="5.891" stroke-linecap="round" fill="none" stroke="#77B255"/>
		<path fill="#77B255" d="M 8.5303,21.3037 a 3.731,3.731 0 01 -5.276,0 l -1.666,-1.666 a 3.731,3.731 0 01 0,-5.276 l 12.773,-12.773 a 3.731,3.731 0 01 5.276,0 l 1.666,1.666 a 3.731,3.731 0 01 0,5.276 l -12.773,12.773 Z"/>
		<path fill="#5C913B" d="M 14.2227,18.3877 l -1.388,-1.388 l 4.165,-4.165 l 1.388,1.388 l -4.165,4.165 Z"/>
	</g>
	<g stroke-linecap="round" fill="none">
		<path stroke="#5C913B" d="M 21.7748,21.775 l 9.803,9.8025" stroke-width="7.854"/>
		<path stroke="#3E721D" d="M 22.5532,24.6358 l 2.0825,-2.0825" stroke-width="2.945"/>
		<path stroke="#3E721D" d="M 26.0239,28.1069 l 2.083,-2.083" stroke-width="2.945"/>
		<path stroke="#3E721D" d="M 29.4951,31.5776 l 2.0825,-2.0825" stroke-width="2.945"/>	
	</g>
	<g stroke-linecap="round" fill="none" stroke="#E1E8ED" stroke-width="1.964">
		<path d="M 4.504,17 l 12.496,-12.496"/>
		<path d="M 6.586,19.082 l 12.496,-12.496"/>
	</g>
	<g>
		<path fill="#A6D388" d="M 3.4717,15.2549 a 1.486,1.486 0 01 -2.101,0 l -0.338,-0.338 l 13.884,-13.884 l 0.338,0.338 a 1.486,1.486 0 01 0,2.101 l -11.783,11.783 Z"/>
	</g>
</svg>
