<svg xmlns="http://www.w3.org/2000/svg" viewBox="0 0 36 36">
	<!--
	<g id="arrow2">
		<path d="M 22,30 v-6 h11 c 1.85,0 1.55,-1.781 1.55,-1.781 s 0.327,0.561 0.375,0.651 c 0.327,0.614 0.544,1.552 0.034,2.505 l -3.089,6.122 a 1,1 0 01 -0.87,0.503 h-9 Z" fill="#77b255"/>
		<g stroke-width="2" stroke-linejoin="round" stroke="#77b255" fill="#77b255">
			<path d="M 22,34 l -6,-6 l 6,-6 z"/>
		</g>
	</g>
	-->
	
	<g>
		<path d="M 30.496,28.868 a 1,1 0 01 -1.364,-0.372 l -4.235,-6.975 c -0.275,-0.48 -0.167,-1.08 0.312,-1.354 l 4.958,-3 c 0.156,-0.09 0.496,-0.167 0.664,-0.167 c 0.348,0 0.672,0.198 0.857,0.521 l 3.107,5.122 l 0.164,2.232 l -4.463,3.993 Z" fill="#3e721d"/>
		<path d="M 20.2498,2.9193 a 1,1 0 01 0.289,1.384 l -4.292,6.94 c -0.303,0.463 -0.886,0.639 -1.348,0.336 l -4.925,-3.054 c -0.15,-0.099 -0.373,-0.367 -0.449,-0.517 c -0.159,-0.309 -0.129,-0.688 0.075,-0.999 l 3.152,-5.094 l 1.914,-1.159 l 5.584,2.163 Z" fill="#3e721d"/>
		<path d="M 3.2305,25.033 a 1,1 0 01 1.027,-0.97 l 8.16,0.004 c 0.553,0.017 1.009,0.42 0.995,0.972 l -0.014,5.795 c -0.005,0.18 -0.116,0.512 -0.203,0.654 c -0.18,0.297 -0.518,0.472 -0.89,0.461 l -5.991,-0.008 l -1.993,-1.018 l -1.091,-5.89 Z" fill="#3e721d"/>
	</g>
	<g fill="#77b255">
		<path d="M 23,32 a 1,1 0 01 -1,-1 v-6 a 1,1 0 01 1,-1 h10 c 1.85,0 1.55,-1.781 1.55,-1.781 s 0.327,0.561 0.375,0.651 c 0.327,0.614 0.544,1.552 0.034,2.505 l -3.089,6.122 a 1,1 0 01 -0.87,0.503 h-8 Z"/>
		<path d="M 21.293,34.707 l -6,-6 a 1,1 0 01 0,-1.414 l 6,-6 a 1,1 0 01 1.707,0.707 v12 a 1,1 0 01 -1.707,0.707 Z"/>
	</g>
	<g fill="#77b255">
		<path d="M 26.4443,8.1753 a 1,1 0 01 -0.437,1.346 l -5.346,2.724 a 1,1 0 01 -1.344,-0.437 l -4.541,-8.91 c -0.84,-1.649 -2.291,-0.573 -2.291,-0.573 s 0.352,-0.546 0.41,-0.629 c 0.399,-0.57 1.135,-1.189 2.216,-1.167 l 6.857,-0.029 a 1,1 0 01 0.844,0.547 l 3.632,7.128 Z"/>
		<path d="M 29.6313,8.4666 l -2.622,8.071 a 1,1 0 01 -1.259,0.642 l -8.07,-2.622 a 1,1 0 01 -0.146,-1.842 l 10.692,-5.448 a 1,1 0 01 1.405,1.199 Z"/>
	</g>
	<g fill="#77b255">
		<path d="M 4.4512,17.002 a 1,1 0 01 1.374,-0.334 l 5.126,3.118 a 1,1 0 01 0.334,1.374 l -5.197,8.543 c -0.961,1.58 0.717,2.25 0.717,2.25 s -0.65,-0.013 -0.752,-0.019 c -0.696,-0.038 -1.609,-0.341 -2.159,-1.271 l -3.624,-5.821 a 1,1 0 01 0.023,-1.006 l 4.158,-6.834 Z"/>
		<path d="M 3.0252,14.1354 l 8.245,-2.005 a 1,1 0 01 1.208,0.734 l 2.007,8.244 a 1,1 0 01 -1.491,1.091 l -10.252,-6.236 a 1,1 0 01 0.283,-1.828 Z"/>
	</g>
</svg>
