<svg xmlns="http://www.w3.org/2000/svg" viewBox="0 0 36 36">
	<!-- nhh.. -->
	<path fill="#FA3C32" d="M 21.5029,0.4072 l 14.059,14.059 l -21.088,21.087 a 1,1 0 01 -1.406,0 l -12.653,-12.652 a 1,1 0 01 0,-1.406 l 21.088,-21.088 Z"/>
	<path fill="#B3282C" d="M 20.4134,1.4968 l 14.015,14.102 l -1.327,1.327 c -2.767,-0.124 -6.561,-2.343 -9.139,-4.921 c -2.542,-2.542 -4.692,-6.468 -4.85,-9.207 l 1.301,-1.301 Z"/>
	<path fill="#DC282C" d="M 35.5615,13.0601 a 1,1 0 01 0,1.406 l -1.133,1.133 c -2.667,0.417 -6.789,-1.705 -9.572,-4.488 c -2.734,-2.735 -4.792,-6.967 -4.443,-9.614 l 1.089,-1.09 a 1,1 0 01 1.407,0 l 12.652,12.653 Z"/>
	
	<path fill="#FFE933" d="M 15.8867,20.082 c 1.775,1.775 4.201,3.09 6.334,2.291 c -0.121,0.296 -0.342,0.679 -0.759,1.096 c -2.408,2.408 -5.975,0.113 -7.525,-1.437 s -3.845,-5.117 -1.437,-7.525 c 0.418,-0.418 0.8,-0.638 1.095,-0.758 c -0.798,2.132 0.517,4.558 2.292,6.333 Z"/>
	<path fill="#FFE933" d="M 15.6558,15.7158 c -0.01,0.01 -0.021,0.018 -0.032,0.027 c -0.451,0.452 -0.117,1.699 1.393,3.21 c 1.511,1.51 2.758,1.844 3.209,1.393 c 0.011,-0.011 0.018,-0.022 0.028,-0.032 c 0.976,0.756 1.686,1.183 1.944,1.332 c -0.861,0.399 -1.838,0.392 -2.924,-0.045 c -1.357,-0.545 -2.482,-1.583 -2.903,-2.003 c -0.42,-0.421 -1.458,-1.546 -2.003,-2.902 c -0.437,-1.086 -0.444,-2.063 -0.045,-2.925 c 0.149,0.258 0.578,0.969 1.333,1.945 Z"/>
	<path fill="#FFE933" d="M 19.1035,16.8657 c 0.898,0.898 1.41,2.206 0.664,2.982 c -0.149,0.03 -0.97,-0.083 -2.266,-1.379 c -1.296,-1.297 -1.411,-2.117 -1.38,-2.268 c 0.776,-0.745 2.084,-0.233 2.982,0.665 Z"/>
	
	<g stroke-width="0.679" stroke-linecap="round" fill="none" stroke="#FFE933">
		<path d="M 19.3358,15.0807 L 20.0018,13.4492"/>
		<path d="M 17.3104,14.3337 L 17.2249,12.4477"/>
		<path d="M 20.8875,16.633 L 22.5195,15.967"/>
		<path d="M 21.6356,18.6589 L 23.5216,18.7434"/>
	</g>
	
</svg>
