<svg xmlns="http://www.w3.org/2000/svg" viewBox="0 0 36 36">
	<g class="toodark">
		<circle cx="18" cy="18" r="17" stroke-width="2" fill="none" stroke="#31373D"/>
		<path d="M 15.4282,16.6904 h3.193 c 1.705,0 2.885,-1.023 2.885,-2.759 c 0,-1.767 -1.18,-2.729 -2.885,-2.729 h-3.193 v5.488 ZM 10.7772,9.3424 c 0,-1.488 0.837,-2.419 2.387,-2.419 h5.457 c 4.775,0 7.721,2.14 7.721,7.008 c 0,3.41 -2.574,5.364 -5.737,5.86 l 5.272,5.643 c 0.433,0.465 0.619,0.93 0.619,1.364 c 0,1.209 -0.961,2.387 -2.324,2.387 c -0.559,0 -1.303,-0.217 -1.799,-0.806 l -6.884,-8.34 h-0.061 v6.728 c 0,1.551 -0.992,2.418 -2.326,2.418 c -1.333,0 -2.325,-0.867 -2.325,-2.418 v-17.425 Z" fill="#31373D"/>
	</g>
</svg>
