<svg xmlns="http://www.w3.org/2000/svg" viewBox="0 0 36 36">
	<defs>
		<clipPath id="circle1">
			<circle r="17" cx="18" cy="18"/>
		</clipPath>
	</defs>
	
	<circle r="17" cx="18" cy="18" fill="#c1694f"/>
	<g fill="#e29386">
		<path d="M 27.2578,27.6416 c -0.461,0.316 -1.091,0.199 -1.406,-0.263 c -0.316,-0.46 -0.198,-1.091 0.261,-1.406 l 1.67,-1.144 c 0.46,-0.315 1.089,-0.198 1.406,0.263 c 0.315,0.46 0.198,1.091 -0.263,1.405 l -1.668,1.145 Z"/>
		<rect width="4" height="2" x="-2" y="-1" rx="1" transform="translate(31 20) rotate(22.16)"/>
		<path d="M 25.2021,15.291 c -0.519,-0.21 -0.768,-0.801 -0.555,-1.318 c 0.209,-0.517 0.801,-0.766 1.317,-0.556 l 1.875,0.764 c 0.515,0.211 0.764,0.8 0.553,1.318 c -0.211,0.517 -0.799,0.766 -1.318,0.555 l -1.872,-0.763 Z"/>
		<path d="M 4.2012,22.291 c -0.517,-0.21 -0.766,-0.801 -0.554,-1.318 c 0.21,-0.517 0.801,-0.766 1.318,-0.556 l 1.873,0.764 c 0.517,0.211 0.765,0.8 0.555,1.318 c -0.211,0.518 -0.801,0.767 -1.318,0.556 l -1.874,-0.764 Z"/>
		<path d="M 7.7578,16.1416 c -0.461,0.316 -1.091,0.199 -1.406,-0.264 c -0.316,-0.46 -0.198,-1.09 0.261,-1.405 l 1.67,-1.144 c 0.46,-0.315 1.089,-0.198 1.406,0.263 c 0.315,0.46 0.198,1.091 -0.263,1.406 l -1.668,1.144 Z"/>
		<path d="M 16.7861,19.8809 c -0.768,-0.312 -1.137,-1.188 -0.824,-1.956 c 0.314,-0.766 1.189,-1.135 1.956,-0.823 l 2.778,1.133 c 0.767,0.312 1.136,1.186 0.824,1.954 c -0.312,0.767 -1.188,1.136 -1.956,0.824 l -2.778,-1.132 Z"/>
		<path d="M 10.6016,25.9326 c 0.522,-0.199 1.106,0.062 1.306,0.586 c 0.197,0.519 -0.067,1.105 -0.588,1.303 l -1.892,0.72 c -0.518,0.2 -1.103,-0.063 -1.302,-0.586 c -0.2,-0.523 0.063,-1.106 0.585,-1.306 l 1.891,-0.717 Z"/>
	</g>
	<g clip-path="url(#circle1)">
		<path d="M 26,33 c 0,1.104 -0.896,2 -2,2 h-12 c -1.104,0 -2,-0.896 -2,-2 v-12 c 0,-1.104 0.896,-2 2,-2 h12 c 1.104,0 2,0.896 2,2 v12 Z" fill="#292f33"/>
	</g>
</svg>
