<svg xmlns="http://www.w3.org/2000/svg" viewBox="0 0 36 36">
	<!--<path d="M 27.066,26.519 l -3.343,-2.508 l -1.786,4.465 l -2.887,-5.774 l -2.938,4.896 l -1.848,-4.621 l -9.202,7.528 l 5.487,-10.13 h-3.881 l 1.716,-2.574 l -4.531,-2.718 l 4.118,-1.831 l -2.457,-3.275 l 4.026,0.895 l -2.169,-5.207 l 4.985,3.323 l 1.336,-4.453 l 2.858,4.763 l 2.887,-5.774 l 1.817,4.544 l 4.727,-4.297 l -1.292,6.028 l 4.33,-0.865 l -2.769,3.691 h4.375 l -3.243,2.433 l 4.716,2.83 l -4.587,1.835 l 2.475,3.3 l -3.787,-0.841 l 0.867,4.337 Z"  fill="#E1E8ED"/>-->
	<path d="M 29.489,20.277 l 3.523,4.699 l -5.213,-1.158 l 1.133,5.663 l -4.656,-3.492 l -2.214,5.535 l -3.113,-6.227 l -3.062,5.104 l -2.151,-5.379 l -12.798,10.472 l 7.513,-13.87 h-4.119 l 2.284,-3.426 l -5.469,-3.281 l 4.882,-2.17 l -3.543,-4.724 l 4.974,1.105 l -2.831,-6.793 l 7.015,4.676 l 1.664,-5.546 l 3.142,5.237 l 3.113,-6.227 l 2.183,5.456 l 6.272,-5.702 l -1.708,7.971 l 5.671,-1.134 l -3.231,4.309 h5.625 l -4.757,3.567 l 5.284,3.17 l -5.413,2.165 Z"  fill="#67757F"/>
	<path d="M 19.05,22.702 l -2.938,4.896 l -1.849,-4.621 l -9.202,7.528 l 5.487,-10.13 h-3.88 l 1.716,-2.574 l -4.531,-2.719 l 4.118,-1.83 l -2.457,-3.275 l 4.026,0.895 l -2.169,-5.207 l 4.985,3.323 l 1.336,-4.454 l 2.858,4.763 l 2.887,-5.773 l 1.817,4.544 l 4.728,-4.298 l -1.292,6.029 l 4.329,-0.866 l -2.769,3.691 h4.375 l -3.243,2.433 l 4.716,2.83 l -4.587,1.835 l 2.476,3.301 l -3.787,-0.842 l 0.867,4.337 l -3.344,-2.508 l -1.786,4.465 l -2.887,-5.773 Z"  fill="#E1E8ED"/>
</svg>
