<svg xmlns="http://www.w3.org/2000/svg" viewBox="0 0 36 36">
	<defs>
		<clipPath id="planet1">
			<circle r="10.694" cx="18" cy="18"/>
		</clipPath>
	</defs>
	
	<g clip-path="url(#planet1)">
		<rect width="36" height="36" fill="#FFCC4D"/>
		<path fill="#F4900C" d="M 10.228,22.751 c 0.245,-0.017 0.663,0.172 1.125,0.399 c -0.949,0.683 -1.77,0.562 -2.54,0.273 h-1.313 v-1.588 h0.525 c 0.514,0.608 1.218,0.983 2.203,0.916 Z"/>
<path fill="#F4900C" d="M 23.086,8.608 v-0.608 h3.165 v3.196 c 0.105,2.353 -1.272,4.268 -2.389,3.996 c -0.955,-0.232 -2.006,0.415 -2.489,1.258 c -0.946,1.657 -3.578,0.602 -3.373,1.887 c 0.107,0.67 -4.375,-0.232 -5.122,1.043 c -0.449,0.765 -3.515,-0.433 -4.175,-0.763 c -0.488,-0.243 -0.974,-0.808 -1.351,-1.526 h-0.352 v-5.421 h2.391 c 0.258,0.771 1.505,0.523 1.921,1.167 c 0.442,0.683 3.893,-0.839 3.894,-0.16 c 0.002,1.436 3.909,-0.43 4.857,-2.087 c 0.481,-0.843 1.319,-1.852 2.274,-1.619 c 0.562,0.137 0.794,-0.035 0.749,-0.363 Z"/>
		<path fill="#F4900C" d="M 26.267,24.783 v4.217 h-10.653 v-0.582 c 0.898,-0.167 1.776,-0.267 2.387,-0.309 c 1.212,-0.083 2.273,-1.452 3.049,-1.297 c 1.508,0.302 1.993,-1.46 4.242,-1.703 c 0.304,-0.033 0.637,-0.16 0.975,-0.326 Z"/>
	</g>
	<!-- todo: these are derrived from ellipses -->
	<path fill="#E85E00" d="M 23.2246,8.6733 c 0.953,0.535 1.811,1.214 2.555,2.003 c 2.49,-0.157 4.009,0.429 3.882,1.777 c -0.065,0.705 -0.583,1.542 -1.43,2.434 c -2.108,2.222 -6.31,4.796 -11.07,6.602 c -3.309,1.255 -6.259,1.9 -8.367,1.934 c -2.145,0.036 -3.418,-0.562 -3.302,-1.802 c 0.076,-0.816 0.752,-1.807 1.852,-2.858 c -0.018,-0.253 -0.039,-0.506 -0.039,-0.763 c 0,-0.848 0.109,-1.67 0.296,-2.461 c -4.301,2.983 -7.102,6.268 -7.102,8.83 c 0,3.487 5.163,4.558 12.276,2.957 c 1.65,-0.371 3.405,-0.886 5.224,-1.549 c 3.9,-1.419 7.49,-3.3 10.399,-5.316 c 4.301,-2.983 7.101,-6.268 7.101,-8.831 c 0,-3.486 -5.162,-4.558 -12.275,-2.957 Z"/>
	<path fill="#F4900C" d="M 6.356,18.0513 c -0.742,0.711 -1.369,1.525 -1.88,2.382 c -0.49,0.853 -0.908,1.812 -0.845,2.671 c 0.036,0.857 0.683,1.365 1.559,1.602 c 0.874,0.226 1.845,0.287 2.833,0.228 c 1.963,-0.089 3.93,-0.415 5.841,-0.965 c 1.924,-0.504 3.792,-1.224 5.616,-2.036 c 3.648,-1.628 7.067,-3.788 10.131,-6.382 c 0.369,-0.333 0.772,-0.648 1.125,-0.986 c 0.333,-0.336 0.647,-0.713 0.91,-1.097 c 0.522,-0.768 0.826,-1.667 0.335,-2.352 c -0.49,-0.696 -1.495,-1.075 -2.453,-1.271 c -0.981,-0.186 -2.009,-0.23 -3.03,-0.111 c 0.992,-0.265 2.036,-0.395 3.088,-0.315 c 1.03,0.092 2.172,0.299 3.008,1.221 c 0.409,0.457 0.598,1.144 0.523,1.746 c -0.056,0.611 -0.293,1.15 -0.562,1.635 c -0.278,0.485 -0.59,0.925 -0.946,1.347 c -0.352,0.404 -0.709,0.778 -1.072,1.163 c -2.931,2.994 -6.44,5.414 -10.261,7.159 c -3.816,1.72 -7.974,2.91 -12.261,2.754 c -1.056,-0.04 -2.157,-0.134 -3.236,-0.548 c -0.533,-0.209 -1.082,-0.516 -1.5,-1.015 c -0.429,-0.491 -0.634,-1.172 -0.589,-1.775 c 0.098,-1.213 0.704,-2.152 1.349,-2.975 c 0.665,-0.819 1.448,-1.525 2.317,-2.08 Z"/>
</svg>
