<svg xmlns="http://www.w3.org/2000/svg" viewBox="0 0 36 36">
	<g>
		<path d="M 9.4414,14.5947 c 0.458,-1.372 7.41,-7.525 13.286,-10.22 c 1.528,-0.701 6.602,-2.834 8.35,-3.271 c 3.604,-0.901 5.09,-1.013 4.589,2.646 c -0.707,5.171 -4.619,12.597 -8.706,19.751 c -2.68,4.213 -4.233,6.423 -10.365,3.357 c -6.132,-3.065 -9.197,-6.131 -7.154,-12.263 Z" fill="#b90053"/>
		<!--<path d="M 9.4414,14.5947 c 0.458,-1.372 7.41,-7.525 13.286,-10.22 c 1.528,-0.701 5.188,-2.066 6.936,-2.503 c 3.604,-0.902 7.747,-2.319 5.327,0.459 c -3.525,4.047 -3.943,14.015 -8.03,21.17 c -2.68,4.213 -4.233,6.423 -10.365,3.357 c -6.132,-3.065 -9.197,-6.131 -7.154,-12.263 Z" fill="#c1694f"/>-->
		<path d="M 26.96,6.3774 c 1.14,0.57 2.703,3.605 2.703,4.506 s -0.901,-0.901 -2.703,-2.704 c -1.803,-1.802 -1.803,-2.703 0,-1.802 Z" fill="#8e0042"/>
		<path d="M 27.1406,14.4067 c 0.606,0.578 1.009,2.787 0.836,3.354 s -0.395,-0.739 -1.183,-2.22 c -0.789,-1.479 -0.615,-2.047 0.347,-1.134 Z" fill="#8e0042"/>
		<ellipse rx="9.70842" ry="7.66555" transform="translate(17.1062,20.2158) rotate(44.629)" fill="#ffcc4d"/>
	</g>
	<g>
		<path d="M 21,32 c 0,2.209 -4.477,4 -10,4 s -10,-2 -10,-4 c 0,-0.371 -0.203,-2.6 0.083,-2.958 c 1.257,-1.573 5.419,-1.042 9.917,-1.042 c 4.908,0 9.133,-0.865 9.979,1 c 0.107,0.233 0.021,2.754 0.021,3 Z" fill="#b90053"/>
		<ellipse rx="10" ry="4" cx="11" cy="29" fill="#ffd671"/> why isnt this just light yellow
	</g>
</svg>
