<svg xmlns="http://www.w3.org/2000/svg" viewBox="0 0 36 36">
	<path d="M 12,4.157 s 4,-1.075 5,-1.075 s 5,1.075 5,1.075 s 4,4.298 5,4.298 c 0,0 2,0 4,2.149 s 2,6.447 2,6.447 s 2,4.298 2,6.447 s -1,4.298 -2,5.373 s -5,2.149 -5,2.149 s -1,2.149 -3,3.224 c -6,1.075 -10,0 -10,0 l -2,-2.149 s -7,-1.075 -8,-1.075 s -4,-4.298 -4,-5.373 s 0,-4.298 1,-7.522 c 2,-3.224 3,-4.298 3,-4.298 s -1,-2.148 0,-4.297 c 2,-2.149 6,-3.224 6,-3.224 l 1,-2.149 Z"  fill="#66757F"/>
	<path d="M 12.409,4.49 s 3.633,-1.021 4.574,-1.021 s 4.99,1.149 4.99,1.149 s 3.574,4.022 4.515,4.022 c 0,0 2.038,-0.045 3.921,1.979 s 1.708,5.617 1.708,5.617 s 1.883,4.046 1.883,6.069 s -0.941,4.047 -1.882,5.059 s -4.706,2.023 -4.706,2.023 s -0.941,2.023 -2.824,3.035 c -5.647,1.012 -9.412,0 -9.412,0 l -1.882,-2.023 s -6.588,-1.012 -7.529,-1.012 s -3.765,-4.047 -3.765,-5.059 s 0,-4.047 0.941,-7.082 c 1.883,-3.035 2.824,-4.046 2.824,-4.046 s -1.188,-1.643 -0.247,-3.667 c 1.882,-2.023 5.881,-3.064 5.881,-3.064 l 1.01,-1.979 Z"  fill="#99AAB5"/>
	<path d="M 12.771,5.312 s 3.398,-0.892 4.278,-0.892 s 4.667,1.003 4.667,1.003 s 3.342,3.511 4.222,3.511 c 0,0 1.906,-0.039 3.667,1.727 c 1.76,1.766 1.598,4.903 1.598,4.903 s 0.275,4.245 0.988,4.373 c 1.81,0.324 0.167,3.713 -0.713,4.596 s -7.01,1.277 -7.01,1.277 s 0.216,2.755 -1.545,3.639 c -5.281,0.883 -7.565,0.246 -7.565,0.246 l -1.76,-1.766 s -4.29,-4.097 -5.17,-4.097 s -5.393,-0.319 -5.393,-1.202 s 0,-3.533 0.88,-6.182 c 1.76,-2.649 2.641,-3.533 2.641,-3.533 s -1.111,-1.435 -0.231,-3.201 c 1.76,-1.766 5.5,-2.675 5.5,-2.675 l 0.946,-1.727 Z"  fill="#CCD6DD"/>
	
	<path d="M 6.29,12.597 l 3.981,1.851 l -2.08,1.468 l -4.274,0.532 l 2.373,-3.851 Z"  fill="#99AAB5"/>
	<path d="M 20.2,26.754 c -0.501,-0.269 -0.688,-2.495 -0.43,-2.68 s 2.666,0.185 3.225,0.277 s 3.956,-0.185 4.3,0.185 s 1.173,1.726 1.462,2.541 c 0.289,0.816 -1.591,0.693 -2.322,0.508 s -5.547,-0.461 -6.235,-0.831 Z"  fill="#99AAB5"/>
	
	<path d="M 12.587,12.022 c 0.653,0 3.386,-0.064 3.98,0 s 2.495,1.851 1.604,2.043 s -3.267,0.83 -3.624,0.894 s -1.663,-1.149 -2.079,-1.468 c -0.415,-0.32 -0.593,-1.469 0.119,-1.469 Z M 20.073,10.235 c 0.33,-0.531 1.604,-0.702 1.663,-0.128 c 0.059,0.575 -0.297,1.851 -1.01,1.787 c -0.713,-0.063 -1.129,-0.893 -0.653,-1.659 Z M 16.627,23.704 c 0.593,-0.071 1.723,-0.192 1.723,0.319 s -0.713,0.702 -1.545,0.638 c -0.831,-0.063 -0.713,-0.893 -0.178,-0.957 Z"  fill="#99AAB5"/>
	
	<path d="M 7.3,9.597 c 0.49,-0.155 3.861,-1.596 4.574,-1.532 s 3.743,1.787 3.03,2.362 s -4.634,0.128 -5.762,0.128 s -2.852,-0.639 -1.842,-0.958 Z M 4.924,17.321 c 0.303,-0.571 4.337,-0.766 4.337,-0.766 s 5.228,2.107 5.228,2.426 s -4.752,2.49 -5.228,2.553 s -4.575,-3.766 -4.337,-4.213 Z M 16.627,21.215 c -0.094,-0.505 2.02,-3.575 2.436,-3.83 s 6,-1.724 6.95,-1.724 s 3.98,2.234 4.04,2.681 c 0.059,0.447 -2.673,3.511 -3.386,3.766 c -0.713,0.256 -9.862,0.064 -10.04,-0.893 Z M 21.974,12.788 c 0.534,-1.276 3.742,-2.872 4.634,-3.001 c 0.891,-0.128 2.614,1.149 2.792,1.596 s -0.891,2.171 -1.485,2.426 c -0.594,0.256 -6.166,-0.484 -5.941,-1.021 Z M 17.578,4.937 c 0.498,0.107 3.802,0.894 4.218,1.532 s -1.96,2.617 -2.614,2.681 c -0.653,0.064 -5.109,-2.681 -5.584,-3 s 3.088,-1.405 3.98,-1.213 Z M 14.31,16.619 c 0.519,-0.446 2.317,-0.511 2.733,-0.319 s -0.475,1.532 -1.01,1.596 c -0.535,0.063 -2.317,-0.767 -1.723,-1.277 Z"  fill="#E1E8ED"/>
	
	<path d="M 1.597,21.981 s 1.129,3.766 1.426,4.213 s 4.099,0.128 4.574,0.128 s 2.792,1.213 2.792,1.213 s -3.089,0.83 -4.158,0.702 s -3.848,-0.627 -4.099,-1.341 s -0.535,-4.915 -0.535,-4.915 Z M 13.063,31.364 c -0.416,-0.638 0.238,-2.745 0.594,-2.49 s 1.426,1.021 1.485,1.66 c 0.059,0.638 1.129,1.851 1.901,2.234 s 4.99,0.383 5.703,0.128 s 2.376,-1.66 2.792,-2.49 s 0.896,-0.891 1.874,-1.02 s 1.922,0.844 0.588,1.634 c -1.333,0.79 -2.759,2.195 -4.422,2.514 s -7.069,0.575 -8.02,0.192 s -2.495,-2.362 -2.495,-2.362 Z"  fill="#66757F"/>
	
	<path d="M 26.191,26.385 c 0.593,-0.159 2.02,-0.319 1.96,0.128 c -0.059,0.447 -0.653,1.277 -1.129,1.213 s -1.306,-1.213 -0.831,-1.341 Z"  fill="#66757F"/>
	<path d="M 22.33,30.854 c 0.656,-0.109 1.663,-0.638 1.604,0 s -0.772,1.468 -1.545,1.341 c -0.772,-0.128 -0.831,-1.214 -0.059,-1.341 Z"  fill="#66757F"/>
	</svg>
