<svg xmlns="http://www.w3.org/2000/svg" viewBox="0 0 36 36">
	<path d="M 32.612,16.645 h-4.083 v4 h4.083 v1 h-4.083 v4 h4.083 v1 h-4.083 v4 h4.083 v1 h-4.083 v4.355 h-1 v-4.355 h-8.979 v4.355 h-1 v-4.355 h-8.938 v4.355 h-1 v-4.355 h-5.407 v-1 h5.407 v-4 h-5.407 v-1 h5.407 v-3.208 h1 v3.208 h8.938 v-4 h-4.75 v-1 h4.75 v-4.604 h1 v4.604 h8.979 v-4 h-3.11 v-1 h3.11 v-7.312 h1 v7.312 h4.083 v1 Z M 8.612,30.645 h8.938 v-4 h-8.938 v4 Z M 27.529,30.645 v-4 h-8.979 v4 h8.979 Z M 27.529,25.645 v-4 h-8.979 v4 h8.979 Z"   fill="#E1E8ED"/>
	
	<path d="M 5.05,36 h-4 v-10 h4 v10 Z"   fill="#CCD6DD"/>
	<path d="M 15.05,36 h-4 v-15.5 h4 v15.5 Z"   fill="#CCD6DD"/>
	<path d="M 25.05,36 h-4 v-23 l 4,-3 v26 Z"    fill="#CCD6DD"/>
	<path d="M 35.05,36 h-4 v-29 h4 v29 Z"   fill="#CCD6DD"/>
	
	<path d="M 5.05,36 h-1 v-10 h1 v10 Z"   fill="#8899A6"/>
	<path d="M 15.05,36 h-1 v-15.5 h1 v15.5 Z"   fill="#8899A6"/>
	<path d="M 25.05,36 h-1 v-26 h1 v26 Z"   fill="#8899A6"/>
	<path d="M 35.05,36 h-1 v-29 h1 v29 Z"   fill="#8899A6"/>
	
	<path d="M 18.804,16.378 c 5.288,-4.469 10.282,-8.69 13.323,-8.69 c 1.483,0 2.763,0.399 3.873,1.05 v1.786 c -1.127,-0.824 -2.413,-1.337 -3.873,-1.337 c -2.451,0 -6.975,3.856 -11.764,7.939 c -5.941,5.065 -12.976,11.06 -20.363,13.725 v-1.816 c 6.491,-2.264 12.948,-7.708 18.804,-12.657 Z"  fill="#CCD6DD"/>
	<path d="M 32.127,4.688 c 1.434,0 2.719,0.253 3.873,0.691 v3.36 c -1.11,-0.651 -2.39,-1.05 -3.873,-1.05 c -3.041,0 -8.035,4.221 -13.323,8.69 c -5.856,4.949 -12.313,10.392 -18.804,12.657 v-3.196 c 5.653,-2.282 11.523,-7.237 16.867,-11.753 c 5.968,-5.044 11.121,-9.399 15.26,-9.399 Z"  fill="#DD2E44"/>
	
	<!-- todo: lots of identical components here -->
	<path d="M 10.912,14.422 l -0.368,0.29 c -0.142,0.112 -0.348,0.087 -0.459,-0.054 l -0.918,-1.164 c -0.112,-0.142 -0.087,-0.348 0.054,-0.459 l 0.368,-0.29 c 0.142,-0.112 0.348,-0.087 0.459,0.054 l 0.918,1.164 c 0.112,0.142 0.088,0.347 -0.054,0.459 Z"  fill="#1C6399"/>
	<path d="M 14.35,11.79 l -0.368,0.29 c -0.142,0.112 -0.348,0.087 -0.459,-0.054 l -0.918,-1.164 c -0.112,-0.142 -0.087,-0.348 0.054,-0.459 l 0.368,-0.29 c 0.142,-0.112 0.348,-0.087 0.459,0.054 l 0.918,1.164 c 0.112,0.142 0.088,0.347 -0.054,0.459 Z"  fill="#1C6399"/>
	<path d="M 20.87,6.582 l -0.368,0.29 c -0.142,0.112 -0.348,0.087 -0.459,-0.054 l -0.918,-1.164 c -0.112,-0.142 -0.087,-0.348 0.054,-0.459 l 0.368,-0.29 c 0.142,-0.112 0.348,-0.087 0.459,0.054 l 0.918,1.164 c 0.113,0.141 0.088,0.347 -0.054,0.459 Z"  fill="#1C6399"/>
	<path d="M 24.341,3.918 l -0.368,0.29 c -0.142,0.112 -0.348,0.087 -0.459,-0.054 l -0.918,-1.164 c -0.112,-0.142 -0.087,-0.348 0.054,-0.459 l 0.368,-0.29 c 0.142,-0.112 0.348,-0.087 0.459,0.054 l 0.918,1.164 c 0.112,0.141 0.088,0.347 -0.054,0.459 Z"  fill="#1C6399"/>
	<path d="M 17.693,12.275 L 16.284,13.427 L 15.334,12.266 L 16.743,11.114 L 17.693,12.275 Z"   fill="#1C6399"/>
	<path d="M 9.349,14.069 c 0.82,1.044 0.676,1.731 0.154,2.141 s -1.224,0.387 -2.044,-0.656 s -1.062,-2.222 -0.54,-2.632 c 0.523,-0.411 1.61,0.103 2.43,1.147 Z"  fill="#EA596E"/>
	<path d="M 12.745,11.401 c 0.82,1.044 0.676,1.731 0.154,2.141 s -1.224,0.387 -2.044,-0.656 s -1.062,-2.222 -0.54,-2.632 c 0.523,-0.411 1.61,0.103 2.43,1.147 Z"  fill="#A6D388"/>
	
	<path d="M 19.178,6.108 c 0.82,1.044 0.676,1.731 0.154,2.141 s -1.224,0.387 -2.043,-0.657 c -0.82,-1.044 -1.062,-2.222 -0.539,-2.632 c 0.521,-0.41 1.608,0.104 2.428,1.148 Z"  fill="#F4900C"/>
	<path d="M 22.628,3.387 c 0.82,1.044 0.676,1.731 0.154,2.141 s -1.224,0.387 -2.043,-0.657 c -0.82,-1.044 -1.062,-2.222 -0.539,-2.632 c 0.521,-0.41 1.609,0.104 2.428,1.148 Z"  fill="#AA8DD8"/>
	
	<path d="M 13.599,11.67 c 0.697,-0.548 1.734,-0.39 2.317,0.353 l 0.406,0.517 c 0.583,0.742 0.454,1.816 -0.288,2.399 l -7.459,5.86 c -0.371,0.292 -0.909,0.227 -1.2,-0.144 c -0.272,-0.346 -1.19,-3.16 0.332,-4.356 l 5.892,-4.629 Z"  fill="#3B94D9"/>
	<path d="M 23.429,3.709 c 0.696,-0.547 1.734,-0.389 2.317,0.354 l 0.406,0.517 c 0.583,0.742 0.454,1.816 -0.288,2.399 l -7.46,5.859 c -0.371,0.292 -0.909,0.227 -1.2,-0.144 c -0.272,-0.346 -1.19,-3.161 0.332,-4.356 l 5.893,-4.629 Z"  fill="#3B94D9"/>
	
	<path d="M 9.096,20.838 c -0.148,0 -0.295,-0.066 -0.394,-0.192 c -0.171,-0.217 -0.132,-0.532 0.086,-0.702 l 7.059,-5.515 c 0.215,-0.168 0.53,-0.132 0.701,0.086 c 0.171,0.217 0.132,0.532 -0.086,0.702 l -7.059,5.515 c -0.09,0.072 -0.198,0.106 -0.307,0.106 Z"  fill="#E1E8ED"/>
	<path d="M 18.883,12.932 c -0.148,0 -0.295,-0.066 -0.394,-0.192 c -0.171,-0.217 -0.132,-0.532 0.086,-0.702 l 7.059,-5.515 c 0.216,-0.169 0.53,-0.132 0.701,0.086 c 0.171,0.217 0.132,0.532 -0.086,0.702 l -7.059,5.515 c -0.091,0.071 -0.199,0.106 -0.307,0.106 Z"  fill="#E1E8ED"/>
	</svg>
