<svg xmlns="http://www.w3.org/2000/svg" viewBox="0 0 36 36">
	<g>
		<path d="M 10,27.5 c 0,1.381 -2.567,3.5 -4.5,3.5 s -4.5,-2.119 -4.5,-3.5 s 2.567,-1.5 4.5,-1.5 s 4.5,0.119 4.5,1.5 Z"  fill="#292F33"/>
		<path d="M 29,27.5 c 0,1.381 -2.567,3.5 -4.5,3.5 s -4.5,-2.119 -4.5,-3.5 s 2.567,-1.5 4.5,-1.5 s 4.5,0.119 4.5,1.5 Z"  fill="#292F33"/>
		<path d="M 29,27 h4 s 0,4 -2,3 s -2,-2 -2,-3 Z"  fill="#292F33"/>
		<path d="M 34.787,28.795 c 1.332,1.332 0.729,1.683 -0.603,3.016 c -1.332,1.332 -1.683,1.935 -3.016,0.603 c -1.332,-1.332 -1.935,-2.889 -0.603,-4.222 s 2.889,-0.73 4.222,0.603 Z"  fill="#F4900C"/>
	</g>
	
	<g>
		<path d="M 33.3,24.074 s 0.594,-0.074 0.594,0.926 s -0.462,1 -1.466,1 v1 h-13.282 v-1 c -4.037,0 -8.513,-2.89 -10.439,-2.89 l -0.57,2.89 v1 h-6.17 v-1 c 0,-1.368 -0.843,-3.084 -0.848,-4 c -0.01,-2 0.647,-4.224 0.647,-4.224 l 15.607,5.335 l 15.927,0.963 Z" fill="#662113"/>
		<path d="M 26.472,16.478 c 2.275,1.044 6.63,2.361 7,3.336 c 1.041,2.742 -0.173,4.26 -0.173,4.26 h-13.037 c -2.275,0 -3.82,-0.27 -6.127,-1.29 c -5.947,-2.631 -8.602,-2.55 -11.525,-3.254 c -0.832,-0.201 -1.32,-1.023 -1.044,-2.236 c 0.248,-1.088 1.631,-3.426 1.631,-3.426 s 0.696,-2.313 0.696,-4.238 s -0.963,-4.814 -0.963,-4.814 s 8.296,-4.362 11.554,-4.64 l 4.516,13.824 l 7.472,2.478 Z" fill="#88C9F9"/> gross layer, lots of weird gaps
		<path d="M 26.258,16.371 l 2.338,1.033 s -1.666,1.071 -2.974,0.768 s -4.042,-0.934 -6.698,-3.794 s -5.312,-6.48 -4.792,-11.558 l 0.28,-1.856 h1.036 l 0.963,-0.916 c 0.633,-0.029 1.926,0.916 1.926,0.916 s -2.745,3.023 1.926,10.978 c 0.18,0.204 3.755,3.31 5.995,4.429 Z" fill="#EA596E"/>
		<path d="M 15.448,0.965 c -1.891,1.9 -1.107,8.629 1.825,11.354 c -5.863,-5.079 -2.788,-12.142 -2.788,-12.142 l 0.963,0.788 Z"  fill="#269"/>
		<g stroke-linecap="round" stroke="#BE1931" stroke-width="2">
			<path d="M 16.6145,12.9695 l 2.772,-1.817"/>
			<path d="M 20.9825,16.4615 l 1.595,-2.176"/>
			<path d="M 25.5005,18.2275 l 0.613,-1.739"/>
			<path d="M 13.483,2.535 l 3.985,0.345"/>
			<path d="M 14.053,7.798 l 3.723,-0.687"/>
		</g>
	</g>
	
	<g>
		<rect x="1" y="26" width="34" height="2" rx="1"  fill="#99AAB5"/>
		<g>
			<circle fill="#F4900C" cx="5.5" cy="31.5" r="4.5"/>
			<circle fill="#F4900C" cx="24.5" cy="31.5" r="4.5"/>
			<circle fill="#662113" cx="5.5" cy="31.5" r="2.25"/>
			<circle fill="#662113" cx="24.5" cy="31.5" r="2.25"/>
		</g>
	</g>
</svg>
