<svg xmlns="http://www.w3.org/2000/svg" viewBox="0 0 36 36">
	<ellipse fill="#E1E8ED" cx="24" cy="12" rx="8" ry="12"/>
	<path d="M 7,0 h17 v24 h-17 v-24 Z"  fill="#E1E8ED"/>
	
	<path d="M 7,12 h17 v12 h-17 v-12 Z"  fill="#99AAB5"/>
	<ellipse fill="#CCD6DD" cx="7" cy="12" rx="7" ry="12"/>
	<ellipse fill="#99AAB5" cx="6" cy="12" rx="3" ry="5"/>
	<path d="M 3.25,10.01 c 0.462,-1.77 1.518,-3.01 2.75,-3.01 c 1.657,0 3,2.239 3,5 c 0,0.616 -0.076,1.2 -0.198,1.745 c -0.649,-2.088 -2.871,-3.642 -5.552,-3.735 Z"  fill="#66757F"/>
	
	<g class="toolight">
		<path d="M 32,12 v12 c 0,9 4,12 4,12 h-18 s -4,-3 -4,-12 v-13 l 18,1 Z"  fill="#E1E8ED"/>
		<path d="M 32,12 v12 c 0,6.151 1.867,9.496 3.05,11 h-16.667 c -0.7,-0.7 -2.954,-3.317 -3.383,-9 v-14 c 0,-4.684 -1.451,-8.716 -3.678,-11 h15.871 c 2.828,1.85 4.807,6.076 4.807,11 Z"  fill="#F5F8FA"/>
		
		<g fill="#CCD6DD">
			<path d="M 16.5,13 h-1.5 v-1 h1.5 c 0.275,0 0.5,0.225 0.5,0.5 s -0.225,0.5 -0.5,0.5 Z"/>
			<rect x="18" y="12" width="3" height="1" rx="0.5"/>
			<rect x="22" y="12" width="3" height="1" rx="0.5"/>
			<rect x="26" y="12" width="3" height="1" rx="0.5"/>
			<path d="M 32,13 h-1.5 c -0.275,0 -0.5,-0.225 -0.5,-0.5 s 0.225,-0.5 0.5,-0.5 h1.5 v1 Z"/>
			<path d="M 16.5,25 h-1.5 v-1 h1.5 c 0.275,0 0.5,0.225 0.5,0.5 s -0.225,0.5 -0.5,0.5 Z"/>
			<rect x="18" y="24" width="3" height="1" rx="0.5"/>
			<rect x="22" y="24" width="3" height="1" rx="0.5"/>
			<rect x="26" y="24" width="3" height="1" rx="0.5"/>
			<path d="M 32,25 h-1.5 c -0.275,0 -0.5,-0.225 -0.5,-0.5 s 0.225,-0.5 0.5,-0.5 h1.5 v1 Z"/>
		</g>
	</g>
</svg>
