<svg xmlns="http://www.w3.org/2000/svg" viewBox="0 0 36 36">
	<g>
		regular feet
		<path d="M 24.8799,33.0967 c 0.263,0.486 0.082,1.093 -0.404,1.355 l -2.639,1.427 c -0.486,0.263 -1.093,0.082 -1.355,-0.404 c -0.263,-0.486 -0.082,-1.093 0.404,-1.356 l 0.222,-0.12 h-1.108 a 1,1 0 01 0,-2 h2 s 0,-3 1,-4 l 1,-1 c 1,0 0,1.448 0,2 c 0,0 -1.135,2.001 0.462,3.707 c 0.168,0.089 0.32,0.211 0.418,0.391 Z" fill="#ffac33"/>
		<path d="M 17.8799,33.0967 c 0.263,0.486 0.082,1.093 -0.404,1.355 l -2.639,1.427 c -0.486,0.263 -1.093,0.082 -1.355,-0.404 c -0.263,-0.486 -0.082,-1.093 0.404,-1.356 l 0.222,-0.12 h-1.108 a 1,1 0 01 0,-2 h2 s 0,-3 1,-4 l 1,-1 c 1,0 0,1.448 0,2 c 0,0 -1.134,2.001 0.463,3.707 c 0.167,0.089 0.32,0.211 0.417,0.391 Z" fill="#ffac33"/>
	</g>
	
	<path d="M 5.0156,8 a 2.5,2 0 01 0,4 c -1.381,0 -3.5,-1 -3.5,-2 s 2.119,-2 3.5,-2 Z" fill="#ffac33"/>
	<path d="M 13.5156,2 c 2,1 2,5 -2,5 h-1.287 c 0.337,0.488 0.55,1.133 0.55,2 c 0,5 -3,5 -4,4 c 0,3 0,7 -3,7 s -1.515,-3 -0.515,-4 s 0.736,-3 0.736,-4 v-4.613 c -1.383,0.024 -2.484,-0.905 -2.484,-2.387 c 0,-2.938 3,-2 3,-2 s 0,-3 3,-3 s 3,3 3,3 s 1,-2 3,-1 Z" fill="#dd2e44"/>
	
	<path d="M 32.5156,9 c 4,10 0,22 -13,22 c -7.732,0 -13,-6 -14,-11 c -1.177,-5.883 -1,-8 -1,-12 c 0,-2.738 2.118,-4.824 5,-4 c 7,2 5,10 12,10 c 10,0 8.23,-11.923 11,-5 Z" fill="#e1e8ed" class="toolight"/>
	
	<circle r="1" cx="7.5156" cy="8" fill="#292f33"/>
</svg>
