<svg xmlns="http://www.w3.org/2000/svg" viewBox="0 0 36 36">
	<g>
		<path d="M 19.3203,25.3584 c -0.113,0 -0.217,0.003 -0.32,0.005 v-0.415 c 4.804,-0.479 8.548,-4.264 8.548,-7.301 c 0,-3.249 0,1.47 -9.562,1.47 c -9.558,0 -9.558,-4.719 -9.558,-1.47 c 0,3.043 3.757,6.838 8.572,7.305 v0.411 c -0.104,-0.002 -0.207,-0.005 -0.321,-0.005 c -2.553,0 -6.603,-2.05 -6.603,-1.32 c 0,0.645 4.186,4.016 6.924,4.796 v6.166 c 0,0.552 0.447,1 1,1 c 0.552,0 1,-0.448 1,-1 v-6.166 c 2.738,-0.78 6.924,-4.151 6.924,-4.796 c 0,-0.73 -4.05,1.32 -6.604,1.32 Z" fill="#3e721d"/>
		
	</g>
	<g>
		<path d="M 26.5273,7.353 c -3.887,-4.412 1.506,-5.882 -2.592,-5.882 c -0.713,0 -1.921,0.44 -3.29,1.189 c -0.694,-1.572 -1.622,-2.66 -2.645,-2.66 c -2.051,0 -3.726,4.342 -3.873,8.27 c -1.109,1.542 -1.855,3.234 -1.855,4.965 c 0,6.092 2.59,8.824 6.479,8.824 c 7.776,0 13.643,-8.048 7.776,-14.706 Z" fill="#a0041e"/>
		this is the following layer but with an ellipse added.
		the whole thing is scaled though, so cant figure out the coords right now.
	</g>
	<g>
		<path d="M 23.7275,13.2354 c 0,6.092 -2.59,8.823 -6.479,8.823 c -7.776,0 -13.644,-8.048 -7.776,-14.705 c 3.888,-4.412 -1.506,-5.883 2.592,-5.883 c 2.592,0 11.663,5.674 11.663,11.765 Z" fill="#be1931"/>
		this layer can definitely be split into 3 components!
	</g>
</svg>
