<svg xmlns="http://www.w3.org/2000/svg" viewBox="0 0 36 36">
	<defs>
		<clipPath id="ball3">
			<path d="M 8.254,8.254 c 7.164,-7.164 19.185,-10.181 24.816,-5.324 c 5.905,7.728 1.84,17.652 -5.324,24.816 s -19.185,10.181 -24.816,5.324 c -4.857,-5.631 -1.84,-17.652 5.324,-24.816 Z"/>
		</clipPath>
	</defs>
	<g clip-path="url(#ball3)">
		<rect width="36" height="36" fill="#3b88c3"/>
		<path d="M 35.834,7.333 l 2.916,4.25 s -5,18 -9,20.25 s -15.583,2.584 -17.5,2.417 s -2,-1.667 -0.833,-2.167 c 15.083,-5.583 24.083,-20.333 24.417,-24.75 Z" fill="#ccd6dd"/>
		<path d="M 12,8 c 13.182,-10.866 20.917,-5.916 21.333,-4.75 c 1.417,14.167 -17.417,22.667 -25.25,24.584 c -1.918,0.47 -4.131,0.896 -4.333,-0.917 c -0.529,-4.726 0.666,-12.667 8.25,-18.917 Z" fill="#e1e8ed"/>
	</g>
</svg>
