<svg xmlns="http://www.w3.org/2000/svg" viewBox="0 0 36 36">
	<defs>
		<clipPath id="shirt1">
			<path d="M 18,36 c -7.406,0 -14.434,-1.193 -15.628,-2.388 c 1.194,-2.39 2.56,-11.73 2.56,-16.507 c 0,-4.778 -0.705,-6.552 -3.827,-11.159 c 0,-2.531 2.413,-4.466 4.251,-5.384 c 0.764,-0.382 1.837,0.534 1.947,1.085 c 1.061,5.298 6.864,9.861 10.697,9.861 c 3.885,0 9.809,-4.69 10.752,-10.08 c 0.084,-0.48 1.136,-1.251 1.896,-0.873 c 1.841,0.916 4.27,2.854 4.27,5.391 c -3.121,4.607 -3.822,6.381 -3.822,11.159 c 0,4.777 1.351,14.117 2.546,16.507 c -1.195,1.195 -8.238,2.388 -15.642,2.388 Z"/>
		</clipPath>
	</defs>
	
	<path d="M 6.3184,1.0308 c 1.499,1.499 13.184,8.685 23.386,0 c 1.299,1.19 1.474,6.039 -0.73,7.626 c -2.203,1.587 -10.137,9.608 -16,6.083 c -5.862,-3.526 -7.096,-5.863 -7.317,-8.464 c -0.22,-2.599 0.661,-5.245 0.661,-5.245 Z" fill="#226699"/>
	<g clip-path="url(#shirt1)">
		<rect width="36" height="36" fill="#55acee"/>
		<path d="M 34.8809,6.3643 l -32.133,20.157 l -1.146,7.098 l 33.72,-20.863 l -0.441,-6.392 Z" fill="#ffd983"/>
	</g>
</svg>
