<svg xmlns="http://www.w3.org/2000/svg" viewBox="0 0 36 36">
	<g>
		<path fill="#99AAB5" d="M 1.3564,26.7627 c 0.621,-1.188 8.854,-12.722 17.213,-19.194 l 0.98,1.264 c -7.324,5.672 -14.792,15.651 -16.463,18.168 c -0.157,0.237 -1.73,-0.238 -1.73,-0.238 Z"/>
		<path fill="#99AAB5" d="M 9.6484,34.4238 l -0.714,-1.432 c 1.067,-0.532 12.235,-8.36 18.666,-16.358 l 1.246,1.003 c -6.431,8 -17.591,15.986 -19.198,16.787 Z"/>
		nh
		<circle r="5.026" cx="5.864" cy="30.136" stroke="#99AAB5" stroke-width="1.675" fill="none"/>
	</g>
	<g>
		<path fill="#99AAB5" d="M 19.6699,3.938 c -1.131,1.131 -1.923,2.197 -2.441,3.211 c -0.427,0.835 -0.241,1.852 0.422,2.516 l 8.685,8.684 c 0.663,0.663 1.68,0.848 2.515,0.422 c 1.013,-0.518 2.081,-1.31 3.211,-2.441 c 5.133,-5.133 4.381,-9.929 0.959,-13.351 s -8.218,-4.174 -13.351,0.959 Z"/>
		<path fill="#66757F" d="M 30.5439,9.8491 c -0.616,2.499 -4.394,4.096 -6.195,0.878 c -1.849,2.601 0,5.214 1.181,6.816 c -2.072,-1.876 -5.127,-4.89 -7.222,-7.222 c 2.048,1.467 3.85,1.516 3.85,0.851 c 0,-2.419 2.132,-5.887 4.552,-5.887 s 4.413,2.215 3.834,4.564 Z"/>
	</g>
</svg>
