<svg xmlns="http://www.w3.org/2000/svg" viewBox="0 0 36 36">
	<!-- scaled ?? -->
	
	<path d="M 33,21 c 1,5 0.056,9.325 0,9.5 c -0.479,1.501 -2.254,3.5 -7.5,3.5 s -7.188,-1.916 -7.5,-3.5 c -0.034,-0.173 -1,-5.5 0,-9.5 c 0.699,-2.794 2.251,-7.006 3.824,-10.083 c -1.724,-1.283 -3.337,-3.781 -3.337,-8.49 c 0.47,-0.47 2.827,-0.427 3.513,-0.427 c 0.687,0 2.858,-1 2.858,-1 h0.685 h0.687 s 2.4,1 3.77,1 c 1.371,0 2,0 2.652,0.502 c 0,4.767 -1.559,7.235 -3.359,8.483 c 1.599,3.059 3.147,7.218 3.707,10.015 Z"  fill="#55acee" />
	<path d="M 32.626,2.2959 c 0,0.988 -2.162,1.789 -7.083,1.789 s -7.083,-0.801 -7.083,-1.789 c 0,-0.989 2.162,-1.789 7.083,-1.789 s 7.083,0.8 7.083,1.789 Z"  fill="#3b88c3" />
	<path d="M 25.4307,4.6436 c -3.154,0 -5.515,-0.701 -6.154,-1.001 c -0.5,-0.235 -0.716,-0.83 -0.481,-1.33 s 0.827,-0.716 1.33,-0.481 c 0.732,0.344 5.593,1.708 11.045,-0.094 c 0.522,-0.172 1.09,0.112 1.263,0.636 c 0.174,0.525 -0.111,1.09 -0.636,1.264 c -2.274,0.751 -4.466,1.006 -6.367,1.006 Z"  fill="#88c9f9" />
	
	<ellipse ry="1.7295" rx="1.771" transform="translate(26.896,16.39575)"  fill="#88c9f9"/>
	<ellipse ry="1.7295" rx="1.771" transform="translate(28.896,18.39575)"  fill="#88c9f9"/>
	<ellipse ry="1.7295" rx="1.771" transform="translate(26.896,19.39575)"  fill="#88c9f9"/>
	<ellipse rx="1.28251" ry="1.313" transform="translate(21.58845,27.1726) rotate(21.721)"  fill="#88c9f9"/>
	<ellipse rx="1.28251" ry="1.313" transform="translate(23.51525,26.344) rotate(21.713)"  fill="#88c9f9"/>
	<ellipse rx="1.28251" ry="1.313" transform="translate(23.6551,27.9959) rotate(21.732)"  fill="#88c9f9"/>
	
	<circle r="1.125" transform="translate(27.625,18.125)"  fill="#bbddf5"/>
	<circle r="0.7915" transform="translate(23.00025,27.08375)"  fill="#bbddf5"/>
	
	<path d="M 19.6523,24.3887 c 0,10.264 -5.922,11.814 -8.93,11.814 c -2.171,0 -8.366,-1.707 -8.366,-11.906 c 0,-1.777 1.64,-1.297 2.478,-1.297 h5.301 h0.837 h0.837 h5.301 c 1.674,0 2.542,0.285 2.542,1.389 Z"  fill="#ccd6dd" />
	<path d="M 19.6211,23.6914 c 0,1.206 -2.639,2.184 -8.649,2.184 s -8.649,-0.978 -8.649,-2.184 c 0,-1.207 2.639,-2.184 8.649,-2.184 s 8.649,0.977 8.649,2.184 Z"  fill="#8899a6" />
	<path d="M 10.8276,26.3379 c -3.801,0 -6.643,-0.841 -7.413,-1.202 c -0.5,-0.235 -0.715,-0.829 -0.482,-1.329 c 0.235,-0.501 0.829,-0.718 1.331,-0.482 c 0.906,0.425 6.927,2.115 13.649,-0.105 c 0.527,-0.175 1.09,0.11 1.263,0.636 c 0.174,0.524 -0.111,1.089 -0.635,1.262 c -2.757,0.911 -5.411,1.22 -7.713,1.22 Z"  fill="#ffffff" />
</svg>
