<svg xmlns="http://www.w3.org/2000/svg" viewBox="0 0 36 36">
	<g>
		<path fill="#66757F" d="M 26,4 c 0,3 -3.582,6 -8,6 s -8,-3 -8,-6 c 0,-4.418 6,-4 8,-4 s 8,-0.418 8,4 Z"/>
		<ellipse rx="1.2" ry="0.6" cx="15" cy="1.5" fill="#CCD6DD"/>
		<ellipse rx="1.2" ry="0.6" cx="21" cy="1.5" fill="#CCD6DD"/>
		<ellipse rx="1.2" ry="0.6" cx="18" cy="3.5" fill="#CCD6DD"/>
	</g>
	<g>
		<clipPath id="lid1">
			<rect x="11" y="8" width="14" height="7" rx="1.528"/>
		</clipPath>
		<path fill="#66757F" d="M 25,12 h-14 v-2.472 c 0,-0.844 0.684,-1.262 1.528,-1.262 h10.944 c 0.843,0 1.528,0.418 1.528,1.262 v2.472 Z"/>
		<g clip-path="url(#lid1)" fill="#CCD6DD">
			<rect width="14" height="1" x="11" y="8"/>
			<rect width="14" height="1" x="11" y="10"/>
			<rect width="14" height="1" x="11" y="12"/>
		</g>
	</g>
	<g>
		<path fill="#CCD6DD" d="M 24.3057,12 c 0.978,0 1.812,0.707 1.973,1.671 l 3.334,20 c 0.203,1.22 -0.738,2.329 -1.974,2.329 h-19.278 c -1.236,0 -2.176,-1.109 -1.972,-2.329 l 3.333,-20 c 0.161,-0.964 0.995,-1.671 1.973,-1.671 h12.611 Z"/>
		<path fill="#F5F8FA" d="M 9.5418,34 c -0.618,0 -1.089,-0.555 -0.987,-1.164 l 3,-18.001 c 0.081,-0.481 0.498,-0.835 0.987,-0.835 h10.9175 c 0.488,0 0.905,0.353 0.986,0.835 l 3,18 c 0.102,0.61 -0.368,1.165 -0.986,1.165 h-16.9175 Z"/>
		<path fill="#CCD6DD" d="M 19.315,13 L 21,13 L 22,35 L 20,35 Z"/>
	</g>
</svg>
