<svg xmlns="http://www.w3.org/2000/svg" viewBox="0 0 36 36">
	TODO: this one
	
	so.. this one is like,
	the bread slices layers are transformed like, around
	scale(0.6135 1)
	rotate(-45)
	scale(1.67)
	<g>
		<path d="M 33.874,21.7207 l -6.909,-4.226 l -6.907,-4.228 c -1.526,-0.934 -4.001,-0.934 -5.527,0 c 0,0 -5.527,3.382 -6.908,4.228 c -1.382,0.845 -0.691,1.268 -2.072,2.114 c -1.382,0.844 -2.072,0.422 -3.454,1.267 c -1.383,0.845 -1.526,2.447 0,3.382 l 6.907,4.228 l 6.909,4.227 c 1.525,0.935 4.145,0.848 5.524,0 c 1.383,-0.845 0.693,-1.266 2.074,-2.114 c 1.381,-0.844 2.071,-0.422 3.454,-1.266 c 1.383,-0.847 6.909,-4.227 6.909,-4.227 c 1.524,-0.935 1.525,-2.45 0,-3.385 Z" fill="#f4900c"/>
	</g>
	<g>
		<path d="M 35,21.5156 l -34,-0.516 v1.625 l 34.018,0.792 l -0.018,-1.901 Z" fill="#f4900c"/>
	</g>
	<g>
		<path d="M 35,20.5156 l -34,-0.516 v1.625 l 34.018,0.792 l -0.018,-1.901 Z" fill="#f4900c"/>
	</g>
	<g>
		<path d="M 33.873,18.7207 l -6.908,-4.226 l -6.907,-4.228 c -1.526,-0.934 -4.001,-0.934 -5.527,0 c 0,0 -5.527,3.382 -6.908,4.228 c -1.381,0.845 -0.691,1.268 -2.072,2.114 c -1.382,0.844 -2.072,0.422 -3.454,1.267 c -1.383,0.845 -1.526,2.447 0,3.382 l 6.907,4.228 l 6.909,4.227 c 1.526,0.935 4.145,0.848 5.524,0 c 1.383,-0.845 0.693,-1.266 2.074,-2.114 c 1.381,-0.844 2.071,-0.422 3.454,-1.266 c 1.383,-0.847 6.908,-4.227 6.908,-4.227 c 1.525,-0.935 1.526,-2.45 0,-3.385 Z" fill="#ffac33"/>
	</g>
	<g>
		<path d="M 32.8496,19.5684 l -7.072,-4.229 l -7.071,-4.227 s -1.506,-0.791 -2.828,0 c 0,0 -5.766,3.447 -6.963,4.162 c -1.196,0.716 -1.033,1.464 -2.23,2.179 c -1.196,0.715 -2.338,0.553 -3.535,1.267 c -1.414,0.847 0,1.694 0,1.694 l 7.071,4.227 l 7.071,4.228 s 1.414,0.844 2.828,0 c 1.198,-0.717 0.926,-1.398 2.122,-2.115 c 1.197,-0.716 2.447,-0.619 3.644,-1.334 c 1.197,-0.713 6.963,-4.163 6.963,-4.163 s 1.321,-0.9 0,-1.689 Z" fill="#ffd983"/>
	</g>
	<g>
		<path d="M 7.9937,25.5664 c -0.925,0.786 0.997,3.518 3.249,2.063 c 0.561,1.109 3.956,3.843 6.299,0.102 c 0.485,0.878 5.772,2.248 6.875,-2.244 c 0.178,-0.601 -6.028,-1.885 -9.36,-1.865 c -1.839,0.01 -5.318,0.46 -7.063,1.944 Z" fill="#77b255"/>
	</g>
	<g>
		<path d="M 3.1626,17.7988 c -0.784,0.737 -2.265,2.22 -0.688,4.439 c 0.688,1.163 2.116,1.919 2.306,1.56 c 0.445,-0.846 1.334,-1.586 2.669,-1.507 c -0.017,-0.301 -0.649,2.733 1.577,3.541 c 1.092,0.396 2.265,-0.238 3.6,-1.638 c 2.137,-2.243 7.582,-1.196 9.11,-0.609 c 1.547,0.596 2.903,0.985 2.498,2.576 c -0.089,0.35 0.722,0.654 1.548,0.364 c 1.388,-0.487 3.395,-1.694 3.75,-3.018 c 0.991,-0.173 1.734,0.102 2.305,0.858 c 0.284,0.373 1.254,0.463 1.669,-0.025 c 0.733,-0.861 1.934,-3.505 0.233,-5.774 c -1.942,-2.59 -4.895,-3.964 -11.527,-4.519 c -6.633,-0.554 -15.167,0.107 -19.05,3.752 Z" fill="#77b255"/>
	</g>
	<g>
		<path d="M 31,25.041 c 0,0.529 -0.895,0.959 -2,0.959 h-22 c -1.104,0 -2,-0.43 -2,-0.959 v-10.551 c 0,-0.53 0.896,-0.49 2,-0.49 h22 c 1.105,0 2,-0.04 2,0.49 v10.551 Z" fill="#ffcc4d"/>
	</g>
	<g>
		<path d="M 33.3105,19.9873 c 0,2.768 -4.586,5.013 -10.242,5.013 c -5.658,0 -10.243,-2.245 -10.243,-5.013 c 0,-2.769 4.585,-5.013 10.243,-5.013 c 5.656,0 10.242,2.244 10.242,5.013 Z" fill="#be1931"/>
	</g>
	<g>
		<path d="M 33.874,15.7207 l -6.909,-4.226 l -6.907,-4.228 c -1.526,-0.934 -4.001,-0.934 -5.527,0 c 0,0 -5.527,3.382 -6.908,4.228 c -1.382,0.845 -0.691,1.268 -2.072,2.114 c -1.382,0.844 -2.072,0.422 -3.454,1.267 c -1.383,0.845 -1.526,2.447 0,3.382 l 6.907,4.228 l 6.909,4.227 c 1.525,0.935 4.145,0.848 5.524,0 c 1.383,-0.845 0.693,-1.266 2.074,-2.114 c 1.381,-0.844 2.071,-0.422 3.454,-1.266 c 1.383,-0.847 6.909,-4.227 6.909,-4.227 c 1.524,-0.935 1.525,-2.45 0,-3.385 Z" fill="#f4900c"/>
	</g>
	<g>
		<path d="M 35,15.5156 l -34,-0.516 v1.625 l 34.018,0.792 l -0.018,-1.901 Z" fill="#f4900c"/>
	</g>
	<g>
		<path d="M 35,14.5156 l -34,-0.516 v1.625 l 34.018,0.792 l -0.018,-1.901 Z" fill="#f4900c"/>
	</g>
	<g>
		<path d="M 33.873,12.7207 l -6.908,-4.226 l -6.907,-4.228 c -1.526,-0.934 -4.001,-0.934 -5.527,0 c 0,0 -5.527,3.382 -6.908,4.228 c -1.381,0.845 -0.691,1.268 -2.072,2.114 c -1.382,0.844 -2.072,0.422 -3.454,1.267 c -1.383,0.845 -1.526,2.447 0,3.382 l 6.907,4.228 l 6.909,4.227 c 1.526,0.935 4.145,0.848 5.524,0 c 1.383,-0.845 0.693,-1.266 2.074,-2.114 c 1.381,-0.844 2.071,-0.422 3.454,-1.266 c 1.383,-0.847 6.908,-4.227 6.908,-4.227 c 1.525,-0.935 1.526,-2.45 0,-3.385 Z" fill="#ffac33"/>
	</g>
	<g>
		<path d="M 32.8496,13.5684 l -7.072,-4.229 l -7.071,-4.227 s -1.506,-0.791 -2.828,0 c 0,0 -5.766,3.447 -6.963,4.162 c -1.196,0.716 -1.033,1.464 -2.23,2.179 c -1.196,0.716 -2.338,0.553 -3.535,1.267 c -1.414,0.847 0,1.694 0,1.694 l 7.071,4.227 l 7.071,4.228 s 1.414,0.844 2.828,0 c 1.198,-0.717 0.926,-1.398 2.122,-2.115 c 1.197,-0.716 2.447,-0.619 3.644,-1.334 c 1.197,-0.713 6.963,-4.163 6.963,-4.163 s 1.321,-0.9 0,-1.689 Z" fill="#ffd983"/>
	</g>
</svg>
