<svg xmlns="http://www.w3.org/2000/svg" viewBox="0 0 36 36">
	<g transform="rotate(45) translate(0.041686 0)">
		<g>
			<path d="M 16,-1.5 v2 s -2,1 -4,2 c -1.265,0.632 -2,0 -2,-1 s 0,-3 0,-4 s 0.735,-1.632 2,-1 c 2,1 4,2 4,2 Z" fill="#99aab5"/>
			<circle r="1" cx="10.20655" cy="-0.5" fill="#99aab5"/>
		</g>
		<g>
			<rect width="3" height="15" x="20" y="-7" fill="#99aab5"/>
			
			<rect width="11" height="11" rx="2" x="16" y="6" fill="#55acee"/>
			<rect width="11" height="11" rx="2" x="16" y="-17" fill="#55acee"/>
			
			<rect width="11" height="2" x="16" y="8" fill="#88c9f9"/>
			<rect width="11" height="2" x="16" y="-10" fill="#88c9f9"/>
			<rect width="11" height="2" x="16" y="13" fill="#88c9f9"/>
			<rect width="11" height="2" x="16" y="-15" fill="#88c9f9"/>
		</g>
		<g>
			<rect width="14" height="10" rx="2" x="14" y="-5" fill="#ccd6dd"/>
			<path d="M 25.70651,-4.97235 a 4,5 0 01 0,10 c -2.2092,0 -1,-2.2385 -1,-5 s -1.2092,-5 1,-5 Z" fill="#ccd6dd"/>
		</g>
		<g>
			<path d="M 38,-0.5 l -6,1.5 v-3 l 6,1.5 Z" fill="#99aab5"/>
			<path d="M 34,-5.5 v10 c -3,0 -5,-2.2385 -5,-5 c 0,-2.7615 2,-5 5,-5 Z" fill="#99aab5"/> 2.7615.. = 5*0.5523..
			<circle r="1" cx="37.7927" cy="-0.5" fill="#99aab5"/>
		</g>
	</g>
	
	<g>
		hm..
		<path d="M 23.6816,30.4307 c 0,-0.017 0.001,-0.034 0.002,-0.051 c 0.027,-0.552 0.497,-0.976 1.049,-0.949 c 0.015,0.001 2.156,0.063 3.8,-1.58 c 1.636,-1.638 1.578,-3.773 1.58,-3.801 c -0.033,-0.55 0.397,-1.02 0.948,-1.049 c 0.552,-0.027 1.021,0.398 1.049,0.95 c 0.012,0.122 0.123,3.028 -2.163,5.314 c -2.288,2.287 -5.192,2.17 -5.314,2.164 c -0.535,-0.027 -0.951,-0.469 -0.951,-0.998 Z" fill="#ffac33"/>
		<path d="M 24.2383,33.9893 c 0,-0.109 0.018,-0.221 0.057,-0.33 c 0.181,-0.522 0.752,-0.796 1.273,-0.613 c 0.107,0.034 2.877,0.892 5.964,-2.196 c 3.127,-3.126 2.414,-6.126 2.382,-6.252 c -0.137,-0.529 0.184,-1.077 0.716,-1.216 c 0.53,-0.139 1.073,0.172 1.216,0.702 c 0.046,0.17 1.078,4.205 -2.9,8.18 c -4.014,4.016 -7.876,2.726 -8.038,2.668 c -0.412,-0.143 -0.67,-0.53 -0.67,-0.943 Z" fill="#ffac33"/>
	</g>
</svg>
