<svg xmlns="http://www.w3.org/2000/svg" viewBox="0 0 36 36">
		scaled rotated..
	TODO: probably 45° 2:2.273 scale
	<g>
		<path d="M 10.7456,21.5205 c 1.668,0 7.43,4.345 7.427,9.701 c 0.003,5.359 -14.853,5.359 -14.854,-0.001 c 0.001,-5.355 5.759,-9.7 7.427,-9.7 Z" fill="#99aab5"/>
		<path d="M 10.9136,32.5205 c 2.746,0 5.264,-0.588 7.242,-1.564 c 0.003,0.088 0.017,0.175 0.017,0.265 c 0.003,5.359 -14.853,5.359 -14.854,-0.001 c 0,-0.147 0.021,-0.291 0.029,-0.437 c 2.023,1.079 4.666,1.737 7.566,1.737 Z" fill="#66757f"/>
	</g>
	<g>
		<path d="M 8.5405,25.1816 c -8.84,-8.838 -5.164,-17.337 -2.468,-20.032 c 2.695,-2.695 9.915,0.158 16.13,6.372 c 6.213,6.213 9.066,13.432 6.371,16.129 c -2.696,2.694 -11.194,6.371 -20.033,-2.469 Z" fill="#ccd6dd"/>
		<path d="M 12.4434,21.2783 c -6.213,-6.212 -9.066,-13.434 -6.371,-16.128 c 2.695,-2.696 9.915,0.158 16.13,6.371 c 6.213,6.213 9.066,13.433 6.371,16.129 c -2.695,2.694 -9.916,-0.158 -16.13,-6.372 Z" fill="#66757f"/>
	</g>
	<g fill="#ccd6dd">
		<path d="M 22.2021,11.5215 c 0.443,0.444 0.443,1.163 0,1.607 l -7.233,7.231 c -0.444,0.444 -1.163,0.444 -1.607,0 c -0.445,-0.443 -0.445,-1.163 0,-1.607 l 7.232,-7.231 c 0.445,-0.445 1.163,-0.445 1.608,0 Z"/>
		<path d="M 23.8086,9.9146 c 0.887,0.887 0.887,2.327 0,3.214 c -0.888,0.888 -2.327,0.888 -3.215,0 c -0.887,-0.887 -0.887,-2.327 0,-3.214 c 0.888,-0.888 2.327,-0.888 3.215,0 Z"/>
	</g>
	<g fill="#ffac33">
		<path d="M 28.2361,13.0766 a 1,1 0 01 -0.949,-1.049 c 0.001,-0.016 0.063,-2.157 -1.58,-3.8 c -1.638,-1.637 -3.773,-1.579 -3.801,-1.58 a 1,1 0 01 -1.049,-0.948 a 1,1 0 01 0.95,-1.049 c 0.122,-0.012 3.028,-0.123 5.314,2.163 c 2.287,2.287 2.17,5.191 2.164,5.314 a 1,1 0 01 -1.049,0.949 Z"/>
		<path d="M 31.5157,12.465 a 1,1 0 01 -0.613,-1.274 c 0.034,-0.107 0.892,-2.877 -2.196,-5.963 c -3.126,-3.127 -6.126,-2.415 -6.252,-2.383 a 1,1 0 01 -1.215,-0.715 a 1,1 0 01 0.701,-1.217 c 0.17,-0.046 4.205,-1.078 8.18,2.901 c 4.016,4.013 2.726,7.875 2.668,8.038 a 1,1 0 01 -1.273,0.613 Z"/>
	</g>
</svg>
