<svg xmlns="http://www.w3.org/2000/svg" viewBox="0 0 36 36">
	scaled by like, 1/1.186 or something..
	
	legs
	<g>
		<path d="M 17.68,22 h2.373 s 3.56,14 1.187,14 h-2.373 c -1.187,0 -2.374,0.119 0,-4.627 c 0.75,-1.5 -1.187,-9.373 -1.187,-9.373 Z" fill="#3e721d"/>
		<path d="M 5.2547,19.3866 l 2.373,2.67 s -1.186,7.417 -1.186,8.603 c 0,1.187 0,5.34 -1.187,5.34 h-2.373 c -1.187,0 -1.187,-2.373 1.186,-7.12 c 0.751,-1.5 1.187,-9.493 1.187,-9.493 Z" fill="#3e721d"/>
	</g>
	body
	<g>
		<path d="M 12.3741,5.2507 c -2.068,0.018 -4.209,-0.435 -5.523,2.099 c -1.404,2.709 -2.065,8.579 0.777,9.664 c 2.478,0.946 7.933,-1.187 13.865,1.186 c 5.933,2.373 8.306,16.612 13.016,16.631 c 1.223,0.004 1.205,1.123 0,1.132 c -5.914,0.045 -8.509,-5.897 -9.509,-5.897 c 0,0 1,5.934 0,5.934 h-4 c -1,0 0,-3.081 0,-4.267 v-1.667 s -1.593,1.218 -5.937,1.218 c -3.282,0 -6.063,-1.218 -6.063,-1.218 s 1,5.934 0,5.934 h-3.745 c -1.678,0 0.165,-4.013 0,-5.933 c -0.102,-1.182 -0.511,-4.757 -1.224,-5.933 c -1.726,-2.848 -2.763,-11.522 -1.929,-15.286 c 0.781,-3.526 3.122,-6.633 4.675,-7.511 c 1.519,-0.858 2.862,-1.499 6.19,-0.965 c 1.775,0.285 3.591,2.922 2.891,4.274 c -0.421,0.811 -1.94,0.592 -3.484,0.605 Z" fill="#77b255"/>
	</g>
	spots
	<g fill="#5c913b">
		<circle r="0.5757" transform="translate(9.6682,18.65525) rotate(-17.2)"/>
		<circle r="0.8196" transform="translate(13.3087,19.97575) rotate(-17.2)"/>
		<circle r="0.43602" transform="translate(12.05075,18.43595) rotate(-17.2)"/>
		<circle r="0.41246" transform="translate(14.5309,18.0985) rotate(-17.2)"/>
		<circle r="0.76236" transform="translate(17.04005,18.5514) rotate(-17.2)"/>
		<circle r="0.4878" transform="translate(22.0555,20.44915) rotate(-17.2)"/>
		<circle r="0.4878" transform="translate(16.2013,20.44915) rotate(-17.2)"/>
		<circle r="0.4878" transform="translate(20.4193,19.14325) rotate(-17.2)"/>
		<circle r="0.72204" transform="translate(18.69435,19.4117) rotate(-17.2)"/>
	</g>
	eye
	<path d="M 12.9674,2.1815 c 0,0.328 -0.265,0.593 -0.593,0.593 s -0.594,-0.265 -0.594,-0.593 s 0.266,-0.593 0.594,-0.593 s 0.593,0.265 0.593,0.593 Z" fill="#292f33"/> color changed from #000
</svg>
