<svg xmlns="http://www.w3.org/2000/svg" viewBox="0 0 36 36">
	<g fill="#A0041E">
		<path d="M 13,2 c 1,-1 8.77,-1.499 7,1 c -2.89,4.08 -1,27 -1,27 c -5,0 -4,-1 -6,-1 s -4,-1 -4,-1 s 0,-11 1,-18 c 0.424,-2.97 2,-7 3,-8 Z"/>
		<path d="M 18.1016,33.8859 c -0.05,-0.522 -0.143,-2.261 -0.143,-3.535 a 0.5,0.5 0 01 1,0 c 0,1.224 0.091,2.947 0.138,3.439 a 0.5,0.5 0 01 -0.995,0.096 Z"/>
		<path d="M 16.4566,33.7921 c -0.05,-0.522 -0.143,-2.261 -0.143,-3.536 a 0.5,0.5 0 01 1,0 c 0,1.225 0.091,2.948 0.138,3.44 a 0.5,0.5 0 01 -0.995,0.096 Z"/>
	</g>
	<g fill="#DD2E44">
		<path d="M 7,12 c 0.425,-2.97 1.143,-4.964 3.409,-6.27 c 1.225,-0.706 9.591,-4.73 6.591,-0.73 s -1,27 -1,27 c -5,0 -4,-1 -6,-1 s -4,-1 -4,-1 s 0,-11 1,-18 Z"/>
		<path d="M 5.7603,34.2658 c -0.058,-0.595 -0.072,-2.676 0.234,-3.841 a 0.5,0.5 0 01 0.967,0.254 c -0.273,1.04 -0.25,3.03 -0.206,3.491 a 0.5,0.5 0 01 -0.995,0.096 Z"/>
		<path d="M 7.3287,34.6476 c -0.057,-0.584 -0.066,-2.515 0.246,-3.829 a 0.5,0.5 0 01 0.973,0.23 c -0.277,1.166 -0.272,3.002 -0.224,3.503 a 0.5,0.5 0 01 -0.995,0.096 Z"/>
		<path d="M 9.0118,34.9962 c -0.044,-0.453 -0.099,-2.601 0.226,-3.977 a 0.5,0.5 0 01 0.973,0.229 c -0.276,1.171 -0.25,3.176 -0.204,3.652 a 0.5,0.5 0 01 -0.995,0.096 Z"/>
		<path d="M 10.8662,35.1172 c 0,-0.309 -0.007,-0.587 -0.013,-0.851 c -0.023,-0.911 -0.042,-1.697 0.242,-2.927 a 0.5,0.5 0 01 0.975,0.224 c -0.256,1.108 -0.239,1.801 -0.218,2.679 c 0.007,0.27 0.014,0.558 0.014,0.875 a 0.5,0.5 0 01 -1,0 Z"/>
		<path d="M 12.7423,35.5363 c -0.054,-0.561 -0.014,-2.362 0.214,-3.625 a 0.5,0.5 0 01 0.985,0.178 c -0.223,1.234 -0.244,2.929 -0.204,3.351 a 0.5,0.5 0 01 -0.995,0.096 Z"/>
		<path d="M 14.9508,35.4416 c -0.034,-0.349 -0.022,-1.142 -0.007,-2.06 c 0.007,-0.502 0.015,-1.022 0.015,-1.476 a 0.5,0.5 0 01 1,0 c 0,0.459 -0.008,0.984 -0.015,1.492 c -0.013,0.813 -0.026,1.655 0.002,1.948 a 0.5,0.5 0 01 -0.995,0.096 Z"/>
		<path d="M 13.483,4.274 s -2.649,1.212 -3.074,1.456 c -1.423,0.82 -2.235,1.913 -2.748,3.347 c 1.884,0.775 5.205,1.091 7.981,1.189 c 0.009,-0.097 1.588,-1.099 1.588,-1.099 l 0.001,-4.493 l -3.748,-0.4 Z" fill="#A0041E"/>
	</g>
	<!-- scaled, i think. maybe 0.92 ish -->
	<g fill="#DD2E44" transform="translate(19 0)">
		<path d="M 0,9 s -3.477,0 -9.016,-0.92 s -1.846,-3.679 -0.923,-6.439 s 6.247,-0.92 9.939,-0.92 c 3.63,0 9.075,-1.84 9.982,0.92 s 4.538,5.519 -0.907,6.439 s -9.075,0.92 -9.075,0.92 Z"/>
		<path d="M 0,2.638 c -6.462,0 -8.308,-1.772 -7.385,-1.772 s 3.693,0.751 7.385,0.751 s 6.462,-0.751 7.385,-0.751 s -0.923,1.772 -7.385,1.772 Z" fill="#A0041E"/>
	</g>
</svg>
