<svg xmlns="http://www.w3.org/2000/svg" viewBox="0 0 36 36">
	<rect x="0" y="13" width="36" height="23" rx="2"  fill="#FFCC4D"/>
	<path d="M 34,13 a 2,2 0 01 2,2 h-36 a 2,2 0 01 2,-2 h32 Z"  fill="#6D6E71"/>
	
	<rect x="2" y="18" width="26" height="4" fill="#3B88C3"/>
	<rect x="2" y="24" width="26" height="4" fill="#3B88C3"/>
	<rect x="2" y="30" width="26" height="4" fill="#3B88C3"/>
	
	<rect x="30" y="18" width="4" height="4" fill="#3B88C3"/>
	<rect x="30" y="24" width="4" height="4" fill="#3B88C3"/>
	<rect x="30" y="30" width="4" height="4" fill="#3B88C3"/>
	
	<path d="M 22,0 a 2,2 0 01 2,2 v34 h-20 v-34 a 2,2 0 01 2,-2 h16 Z"  fill="#FFE8B6"/>
	<path d="M 22,0 a 2,2 0 01 2,2 h-20 a 2,2 0 01 2,-2 h16 Z"  fill="#808285"/>
	
	<rect x="6" y="18" width="4" height="4" fill="#55ACEE"/>
	<rect x="6" y="24" width="4" height="4" fill="#55ACEE"/>
	<rect x="6" y="30" width="4" height="4" fill="#55ACEE"/>
	<rect x="12" y="18" width="4" height="4" fill="#55ACEE"/>
	<rect x="12" y="24" width="4" height="4" fill="#55ACEE"/>
	<rect x="18" y="18" width="4" height="4" fill="#55ACEE"/>
	<rect x="18" y="24" width="4" height="4" fill="#55ACEE"/>
	<rect x="18" y="30" width="4" height="4" fill="#55ACEE"/>
	
	<path d="M 12,30 h4 v6 h-4 v-6 Z"  fill="#269"/>
	<circle fill="#A7A9AC" cx="14" cy="9" r="6"/>
	<circle fill="#E6E7E8" cx="14" cy="9" r="4"/>
	<path d="M 17,10 h-3 a 1,1 0 01 -1,-1 v-5 a 1,1 0 01 2,0 v4 h2 a 1,1 0 01 0,2 Z"  fill="#A0041E"/>
	</svg>
