<svg xmlns="http://www.w3.org/2000/svg" viewBox="0 0 36 36">
	not suitable as a reference
	<g>
		<path d="M 1,3 l 2,-2 l 4,2 l 0.805,2.597 l 12,12 l -2.207,2.207 l-12,-12 l -2.597,-0.805 l -2,-4 Z" fill="#99AAB5"/>
		<path d="M 3.155,1.078 l 0.605,0.302 l -2.38,2.38 l -0.324,-0.646 l -0.004,-0.166 l 1.87,-1.87 h0.233 Z"  fill="#66757F"/>
		<path d="M 2.147,3.573 l 1.648,-1.649 l 2.763,1.426 l -2.228,2.168 l -2.183,-1.945 Z"  fill="#E1E8ED"/>
		<path d="M 8.035,8.079 a 0.612,1.175 -45 01 0.866,-0.866 l 9.254,9.254 a 0.612,1.175 -45 01 -0.866,0.866 l -9.254,-9.254 Z" fill="#E1E8ED"/>
	</g>
	<g>
		<g>
			<path d="M 14.067,19.128 l 5.061,-5.061 a 1.371,1.371 45 01 1.939,0 a 1.371,1.371 45 01 0,1.939 l -0.323,0.324 a 1.8286,1.8286 45 01 2.586,0 l 10.964,10.964 a 1.8286,1.8286 45 01 0,2.586 l -4.414,4.414 a 1.8286,1.8286 45 01 -2.586,0 l -10.964,-10.964 a 1.8286,1.8286 45 01 0,-2.586 l -0.324,0.323 a 1.371,1.371 45 01 -1.939,0 a 1.371,1.371 45 01 0,-1.939 Z" fill="#DD2E44"/>
		</g>
		<path d="M 15.832,17.947 l 3.338,-3.338 a 1.175,0.612 -45 01 0.866,0.866 l -3.338,3.338 a 1.175,0.612 -45 01 -0.866,-0.866 Z" fill="#EA596E"/>
		<g fill="#A0041E">
			<path d="M 22.037,18.916 a 0.914,0.914 45 01 1.293,-1.293 l 9.672,9.672 a 0.914,0.914 45 01 -1.293,1.293 l -9.672,-9.672 Z"/>
			<path d="M 17.623,23.33 a 0.914,0.914 45 01 1.293,-1.293 l 9.672,9.672 a 0.914,0.914 45 01 -1.293,1.293 l -9.672,-9.672 Z"/>
			<path d="M 20.626,19.177 l 10.632,10.632 a 0.914,1.015 -45 01 -1.292,1.292 l -10.632,-10.632 a 0.914,1.015 -45 01 1.292,-1.292 Z"/>
		</g>
	</g>
</svg>
