<svg xmlns="http://www.w3.org/2000/svg" viewBox="0 0 36 36">
	back flipper
	<g>
		<path d="M 7.708,16.15 c 0.002,-2.145 1.184,-0.685 2.374,0.398 s 2.055,4.347 1.56,5.379 s -1.91,3.469 -2.367,3.985 s -1.534,0.912 -2.424,0.868 s -4.405,-0.17 -5.254,-0.265 s -1.032,-0.494 -0.198,-0.538 s 4.068,-0.353 4.99,-0.453 s 1.436,-0.948 1.51,-1.562 c 0.073,-0.614 -0.193,-5.539 -0.191,-7.812 Z" fill="#292F33"/>
		<path d="M 8.11,19.867 c -0.153,-1.414 -0.339,-5.618 0.171,-4.463 s 1.666,4.203 1.097,7.238 c -0.115,0.613 -0.422,1.719 -0.684,2.352 s -0.751,0.882 -1.518,0.91 s -0.575,-0.294 0.012,-0.467 s 0.967,-0.54 1.052,-2.122 c 0.07,-1.295 -0.13,-3.448 -0.13,-3.448 Z" fill="#66757F"/>
		<path d="M 8.375,20.025 c 0.021,-0.966 0.687,0.889 0.675,1.357 c -0.012,0.467 -0.403,2.312 -0.528,2.885 c -0.124,0.573 -0.657,0.817 -0.458,0.36 c 0.199,-0.456 0.348,-2.244 0.353,-2.773 s -0.05,-1.467 -0.042,-1.829 Z" fill="#99AAB5"/>
	</g>
	back whiskers
	<g fill="#99AAB5">
		<path d="M 2.888,5.096 c -0.105,-0.555 -0.092,-1.586 0.168,-1.875 a 0.13,0.13 0 01 0.194,0.174 c -0.159,0.176 -0.216,1.072 -0.106,1.652 a 0.13,0.13 0 01 -0.256,0.049 Z"/>
		<path d="M 3.408,6.005 c -0.203,-0.74 -0.075,-1.858 -0.008,-2.097 a 0.13,0.13 0 01 0.25,0.07 c -0.069,0.246 -0.172,1.299 0.008,1.959 a 0.13,0.13 0 01 -0.25,0.068 Z"/>
		<path d="M 4.047,6.946 c -0.45,-1.338 -0.336,-2.578 -0.331,-2.63 a 0.13,0.13 0 01 0.259,0.026 c -0.001,0.012 -0.113,1.238 0.318,2.521 a 0.13,0.13 0 01 -0.246,0.083 Z"/>
		<path d="M 4.92,7.887 c -0.779,-1.808 -0.767,-3.11 -0.766,-3.164 a 0.13,0.13 0 01 0.13,-0.128 h0.002 a 0.13,0.13 0 01 0.128,0.132 c 0,0.013 -0.011,1.305 0.745,3.059 a 0.13,0.13 0 01 -0.239,0.101 Z"/>
	</g>
	body:
	<g>
		<path d="M 2.85,1.802 c 0.708,-0.674 1.726,-0.02 2.38,0.023 c 0.939,0.062 1.79,-0.263 3.018,-0.116 s 3.479,0.487 4.434,2.202 c 0.787,1.415 1.852,3.802 2.682,4.979 c 1.019,1.445 2.753,3.657 3.875,4.803 c 1.206,1.232 4.908,2.917 6.094,3.118 c 2.351,0.399 6.989,1.903 8.042,5.612 s 1.328,5.824 0.563,6.513 s -1.571,-0.297 -2.595,-1.585 c -1.025,-1.288 -4.498,-1.939 -7.478,-1.897 s -8.146,1.437 -11.177,-0.752 c -3.034,-2.19 -4.614,-6.029 -5.104,-9.706 s -0.205,-4.92 -0.574,-6.185 c -0.41,-1.405 -1.306,-3.029 -2.635,-3.678 s -2.244,-2.647 -1.525,-3.331 Z" fill="#66757F"/>
		<path d="M 2.85,1.802 c 0.708,-0.674 1.726,-0.02 2.38,0.023 c 0.939,0.062 1.79,-0.263 3.018,-0.116 s 3.479,0.487 4.434,2.202 c 0.787,1.415 1.852,3.802 2.682,4.979 c 1.019,1.445 2.753,3.657 3.875,4.803 c 1.206,1.232 4.908,2.917 6.094,3.118 c 2.351,0.399 6.989,1.903 8.042,5.612 s 1.328,5.824 0.563,6.513 s -1.158,-0.539 -2.183,-1.827 s -4.751,-2.343 -7.73,-2.301 s -8.188,1.199 -11.22,-0.989 c -3.034,-2.19 -4.73,-5.144 -5.22,-8.821 s -0.205,-4.92 -0.574,-6.185 c -0.41,-1.405 -1.306,-3.029 -2.635,-3.678 s -2.245,-2.649 -1.526,-3.333 Z" fill="#99AAB5"/>
	</g>
	ear
	<path d="M 11.228,3.835 c 0.614,0.074 1.113,0.812 0.397,0.656 c -0.716,-0.155 -0.397,-0.656 -0.397,-0.656 Z" fill="#66757F"/>
	nose
	<path d="M 2.932,1.7 c 0.567,-0.453 1.162,-0.032 0.464,0.416 s -0.936,-0.038 -0.464,-0.416 Z" fill="#292F33"/>
	mouth
	<path d="M 3.232,4.046 s -0.177,-0.773 0.274,-0.915 s 2.077,0.242 2.929,1.222 c 0,0 -2.116,-1.03 -2.659,-0.878 s -0.544,0.571 -0.544,0.571 Z" fill="#292F33"/>
	eye
	<path d="M 7.584,2.037 c 0.616,0.048 0.535,0.642 0.059,0.553 c -0.475,-0.088 -0.812,-0.611 -0.059,-0.553 Z" fill="#292F33"/>
	front whiskers
	<g>
		<path d="M 5.089,4.535 c -0.213,-0.949 -0.958,-1.66 -0.965,-1.667 a 0.13,0.13 0 01 0.178,-0.189 c 0.033,0.031 0.81,0.771 1.041,1.8 a 0.13,0.13 0 01 -0.254,0.056 Z" fill="#CCD6DD"/>
		<path d="M 6.341,5.321 c -0.377,-1.214 -1.404,-2.154 -1.415,-2.164 a 0.13,0.13 0 01 0.175,-0.193 c 0.044,0.041 1.09,0.997 1.488,2.279 a 0.13,0.13 0 01 -0.248,0.078 Z" fill="#CCD6DD"/>
		<path d="M 7.399,6.049 c -0.524,-1.521 -1.584,-2.511 -1.595,-2.521 a 0.13,0.13 0 01 0.177,-0.192 c 0.045,0.042 1.118,1.042 1.665,2.627 a 0.13,0.13 0 01 -0.247,0.086 Z" fill="#CCD6DD"/>
		<path d="M 8.591,7.381 c -0.521,-1.892 -1.608,-3.114 -1.62,-3.126 a 0.13,0.13 0 01 0.194,-0.174 c 0.045,0.05 1.138,1.276 1.677,3.231 a 0.13,0.13 0 01 -0.251,0.069 Z" fill="#CCD6DD"/>
	</g>
	tail
	<path d="M 33.061,27.495 c 1.51,-0.349 2.406,3.478 1.786,5.029 c -0.63,1.575 -2.047,1.961 -3.222,2.137 c -0.587,0.088 -1.068,0.122 -1.475,-0.043 c -0.397,-0.161 -0.362,-0.509 0.09,-0.589 c 0.384,-0.067 1.006,-0.244 1.309,-0.356 c 0.35,-0.13 0.523,-0.437 0.523,-0.437 s -1.84,0.665 -3.083,0.379 c -1.278,-0.293 -0.694,-0.811 0.417,-0.884 c 0.802,-0.053 1.698,-0.253 2.426,-0.845 c 0,0 -0.93,0.38 -1.975,0.493 s -2.13,0.04 -1.423,-0.662 c 0.144,-0.143 1.235,-0.286 1.906,-0.485 c 0.797,-0.238 1.448,-0.623 1.448,-0.623 s -1.43,0.331 -2.018,0.311 c -0.697,-0.023 -0.758,-0.423 -0.502,-0.552 c 0.531,-0.267 1.41,-0.367 1.929,-0.558 c 0.957,-0.352 0.348,-1.965 1.864,-2.315 Z" fill="#292F33"/>
	front flipper:
	<g>
		<path d="M 15.746,19.496 c 0.717,-1.191 2.136,-2.256 2.668,-1.613 c 0.532,0.644 1.174,3.19 1.228,4.163 s -0.203,3.559 0.324,4.158 s 2.819,1.411 3.58,1.566 s 1.066,0.403 0.047,0.461 s -5.33,-0.454 -6.082,-0.517 c -0.752,-0.062 -1.851,-0.274 -2.466,-0.816 s -0.671,-1.391 -0.517,-2.618 s 0.285,-3.233 1.218,-4.784 Z" fill="#292F33"/>
		<path d="M 16.148,19.095 c 0.71,-1.195 1.811,-2.23 2.346,-1.589 s 0.949,2.896 1.008,3.869 s -0.337,4.357 0.193,4.952 c 0.53,0.596 1.599,0.993 2.361,1.144 s 1.346,0.481 0.326,0.431 c -1.188,-0.058 -3.616,-0.357 -4.367,-0.43 c -0.911,-0.088 -1.902,-0.339 -2.519,-0.878 s -0.716,-1.166 -0.569,-2.394 c 0.148,-1.228 0.297,-3.549 1.221,-5.105 Z" fill="#66757F"/>
		<path d="M 15.817,19.193 c 0.71,-1.195 2.314,-2.753 2.849,-2.111 s 1.774,2.046 1.212,4.034 c -0.265,0.937 -1.059,4.589 -0.528,5.185 s 1.033,0.93 1.795,1.081 s 1.179,0.375 0.159,0.325 c -1.187,-0.058 -2.462,-0.326 -3.213,-0.399 c -0.91,-0.088 -1.655,-0.403 -2.331,-0.867 c -0.47,-0.323 -0.736,-1.32 -0.586,-2.548 c 0.232,-1.889 -0.281,-3.144 0.643,-4.7 Z" fill="#99AAB5"/>
	</g>
</svg>
