<svg xmlns="http://www.w3.org/2000/svg" viewBox="0 0 36 36">
	<defs>
		<g id="armrest">
			<path d="M 26,19 h2 v6 l-1,1 h-1 v-7" fill="#66757F"/>
			<path fill="#99AAB5" d="M 31,18 v4 c 0,1 0,2 -2,3 l -2,1 v-7 l 4,-1 Z"/>
			<path fill="#99AAB5" d="M 31.253,15 h0.968 c 0.592,0 0.779,0.479 0.779,1.071 v0.267 c 0,0.406 -0.229,0.776 -0.592,0.958 l -4.984,2.48 c -0.149,0.074 -0.312,0.224 -0.95,0.224 h-0.564 c -0.476,0 -0.91,-0.479 -0.91,-1.071 v-0.267 c 0,-0.406 0.229,-0.776 0.592,-0.958 l 5.182,-2.591 c 0.149,-0.074 0.313,-0.113 0.479,-0.113 Z"/>
			<path fill="#CCD6DD" d="M 33,15.996 v0.498 c 0,0.233 -0.185,0.579 -0.541,0.802 l -5.105,2.478 c -0.409,0.205 -0.89,-0.093 -0.89,-0.55 v-0.428 c 0,-0.416 0.204,-0.683 0.605,-0.891 l 5.213,-2.584 c 0.408,-0.205 0.718,0.217 0.718,0.675 Z"/>
		</g>
		<g id="leg">
			<rect width="4" height="11" rx="2" x="25" y="22" fill="#99AAB5"/>
			<path fill="#99AAB5" d="M 22.524,35.462 l -0.615,0.301 l 1.091,-7.492 l 6,-3 v5.443 l -0.996,2.003 l -5.48,2.745 Z"/>
			<rect width="4" height="11" rx="2" x="19" y="25" fill="#66757F"/>
		</g>
	</defs>
	
	legs
	<g class="interleave">
		<use href="#leg" x="-14"/>
		<use href="#leg"/>
	</g>
	
	right armrest
	<use href="#armrest" x="-20"/>
	
	back
	<g>
		<rect width="19.967" height="23" rx="4" x="11.033" y="1" fill="#55ACEE"/>
		<rect width="19.967" height="23" rx="4" x="10.033" y="1" fill="#3b88c3"/>
		<rect width="10" height="8" x="15" y="1" fill="#E1E8ED"/>
	</g>
	
	seat
	<g>
		<path fill="#55ACEE" d="M 10.805,20.131 l 17.271,-0.131 l -6,3 l -17.629,0.183 l 0.295,-0.183 l 5.763,-2.865 l 0.3,-0.004 Z"/>
		<path fill="#55ACEE" d="M 24,28.623 l -0.615,0.301 l 0.615,-4.355 l 6,-3 v3.145 l -0.52,1.164 l -5.48,2.745 Z"/>
		<rect width="20" height="6" rx="1" x="10" y="20" fill="#55ACEE"/>
		<rect width="20" height="6" rx="1" x="4" y="23" fill="#226699"/>
	</g>
	
	right armrest
	<use href="#armrest"/>
</svg>
