<svg xmlns="http://www.w3.org/2000/svg" viewBox="0 0 36 36">
	<path d="M 25,0 h11 l -12.666,15.333 H 18 L 18,8 L25,0 Z"  fill="#3B88C3"/>
	<path d="M 18,8 L 23.333 15.333 L 12.667 15.333 L 0,0 h11 l 7,8 Z"  fill="#55ACEE"/>
	
	<rect x="12.667" y="13.333" width="10.667" height="4" rx="2" fill="#CCD6DD"/>
	<circle r="10.667" cx="18" cy="25.333" fill="#CCD6DD"/>
	
	<path d="M 22.002,28.921 a 0.355,0.355 0 01 0.355,0.355 v1.683 a 0.355,0.355 0 01 -0.355,0.355 h-7.732 a 0.355,0.355 0 01 -0.355,-0.355 v-0.374 c 1.084,-1.421 3.851,-5.18 4.955,-6.862 c 0.243,-0.374 0.486,-0.898 0.486,-1.421 c 0,-0.711 -0.599,-1.346 -1.646,-1.346 c -0.766,0 -1.458,0.542 -1.813,0.935 a 0.355,0.355 0 01 -0.523,0 l -1.141,-1.159 a 0.355,0.355 0 01 -0.019,-0.487 c 0,0 1.515,-1.832 3.74,-1.832 c 2.674,0 4.244,1.701 4.244,3.777 c 0,0.991 -0.28,1.551 -0.729,2.43 c -0.598,1.067 -2.132,3.067 -3.01,4.301 h3.543 Z"   fill="#627077"/>
</svg>
