<svg xmlns="http://www.w3.org/2000/svg" viewBox="0 0 36 36">
	<path fill="#55ACEE" d="M 0,0 l 14,17 l 11.52,-4.75 l -7.52,-4.25 l -7,-8 h-11 Z"/>
	<path fill="#3B88C3" d="M 25,0 l -7,8 l 5.391,7.312 l 1.225,-1.489 l 11.384,-13.823 h-11 Z"/>
	
	<rect width="10.667" height="4" rx="2" x="12.666" y="13.333" fill="#CCD6DD"/>
	
	<circle r="10.667" cx="18" cy="25.333" fill="#CCD6DD"/>
	
	<path fill="#627077" d="M 22.002 28.921 c 0.187,0 0.355,0.168 0.355,0.355 v1.682 c 0,0.188 -0.168,0.356 -0.355,0.356 h-7.731 c -0.206,0 -0.355,-0.168 -0.355,-0.356 v-0.373 c 1.084,-1.421 3.851,-5.18 4.955,-6.862 c 0.242,-0.374 0.486,-0.898 0.486,-1.421 c 0,-0.711 -0.6,-1.346 -1.647,-1.346 c -0.766,0 -1.458,0.541 -1.812,0.935 c -0.15,0.149 -0.375,0.149 -0.524,0 l -1.141,-1.159 c -0.13,-0.114 -0.149,-0.337 -0.019,-0.487 c 0,0 1.515,-1.832 3.74,-1.832 c 2.674,0 4.244,1.701 4.244,3.778 c 0,0.99 -0.28,1.55 -0.729,2.429 c -0.598,1.067 -2.131,3.067 -3.009,4.301 h3.542 Z"/>
</svg>
