<svg xmlns="http://www.w3.org/2000/svg" viewBox="0 0 36 36">
	<g fill="#77b255">
		<!-- ugh can't figure out the upper left stem shape. might be  <path d="M12 -6c7 -3 6 -11.2 6 -15z" /> ish ? also i swear i've seen these leaf shapes before.. i bet they're also possible to figure out.-->
		<path d="M 22.9111,14.3975 c -1.082,0.719 -2.047,1.559 -2.88,2.422 c -0.127,-4.245 -1.147,-9.735 -6.772,-12.423 c -1.113,-6.054 -14.093,-2.978 -12.931,-2.391 c 2.314,1.171 3.545,4.148 5.034,5.715 c 2.653,2.792 5.603,2.964 7.07,0.779 c 3.468,2.254 3.697,6.529 3.59,11.098 c -0.011,0.505 -0.022,0.976 -0.022,1.403 v8 v6 c 0,1.104 4,1.104 4,0 v-6 v-5.491 c 0.542,-0.954 2.122,-3.505 4.43,-5.294 c 1.585,1.393 4.141,0.949 6.462,-1.495 c 1.49,-1.567 2.293,-4.544 4.608,-5.715 c 1.221,-0.617 -12.801,-3.994 -12.589,3.392 Z"/>
	</g>
</svg>
