<svg xmlns="http://www.w3.org/2000/svg" viewBox="0 0 36 36">
	<path d="M 12.2031,21.6045 s 5.836,1.709 6.722,5.96 c 0.884,4.252 0.745,7.694 -0.207,7.694 h-2.646 c -0.552,0 -0.926,-1.519 0.731,-2.047 c -1.657,-0.624 -3.436,-2.786 -0.262,-5.507 c -3.075,-2.885 -4.338,-6.1 -4.338,-6.1 Z" fill="rgb(193,105,79)"/>
	<path d="M 9.6348,21.7393 s 3.831,0.543 3.512,5.314 c -0.319,4.772 -1.529,8.209 -2.212,8.209 h-2.902 c -0.383,0 -0.544,-2.064 1.269,-2.064 c 0.228,-0.936 0.542,-2.703 0.612,-4.866 c 0.114,-3.536 -0.279,-6.593 -0.279,-6.593 Z" fill="rgb(193,105,79)"/>
	
	<path d="M 28.0479,33.0605 c 3.843,1.899 6.261,-2.333 4.772,-4.752 c -1.204,-1.956 -3.696,-1.547 -3.255,-2.046 c 0.698,-0.791 2.665,-1.138 4.558,0.093 c 1.861,1.209 2.372,5.116 0.512,7.07 c -1.59,1.669 -6.038,2.588 -8.512,-0.326 c -4.719,-5.559 -1.273,-1.62 1.925,-0.039 Z" fill="rgb(217,158,130)"/>
	<path d="M 25.4473,21.7969 c 2.02,2.634 3.522,5.614 3.6,8.253 c 0.088,2.985 -1.788,5.488 -2.897,5.488 c -0.279,0 -7.114,0 -8.197,0.043 c -0.182,-0.389 -0.693,-1.602 0.91,-2.122 c -0.821,-0.348 -1.68,-0.46 -2.147,-1.22 c -0.559,-0.907 -0.593,-2.419 0.523,-3.419 c -1.064,-0.505 -1.64,-1.116 -2.582,-2.266 c 0.298,3.427 -1.035,9.066 -1.848,9.066 c -0.685,0 -3.543,0.043 -3.543,0.043 s -0.911,-1.702 1.341,-2.178 c 0.597,-2.676 0.871,-6.797 0.09,-9.756 c -1.843,-2.02 -1.257,-4.35 -1.411,-5.822 c -0.412,-3.949 -0.945,-4.854 -2.837,-5.018 c -3.33,-0.287 -5.364,-1.425 -5.051,-4.821 c 0.259,-2.807 2.94,0.215 4.917,-2.822 c 0.352,-0.542 0.975,-1.578 1.754,-1.872 c 3.253,-1.225 6.496,0.604 6.496,4.229 c 0,0.834 0.113,4.101 2.515,6.029 c 3.439,2.762 5.961,5.026 8.367,8.165 Z" fill="rgb(217,158,130)"/>
	
	<path d="M 18.1143,28.2119 c -0.415,0.204 -0.732,0.417 -0.875,0.608 c -1.064,-0.505 -1.64,-1.116 -2.582,-2.267 c -0.008,-0.199 -0.015,-0.561 -0.034,-0.906 c 0.715,0.662 1.805,1.724 2.79,2.179 c 0.327,0.152 0.556,0.277 0.701,0.386 Z" fill="rgb(244,199,181)"/>
	<path d="M 10.665,23.6895 c -1.065,-4.822 0.12,-9.98 -3.638,-10.713 c 1.428,0.317 1.893,1.42 2.26,4.931 c 0.152,1.463 -0.423,3.771 1.378,5.782 Z" fill="rgb(244,199,181)"/>
	
	<path d="M 16.4253,29.0762 c 0.93,-1.418 3.989,-1.93 6.082,-1.686 c 0,0 -5.452,0.086 -6.059,2.664 c -0.372,1.581 -0.857,0.294 -0.023,-0.978 Z" fill="rgb(193,105,79)"/>
	<path d="M 16.52,32.5723 c -1.003,-1.144 -0.601,-2.657 -0.135,-1.101 c 0.506,1.693 3,1.64 5.093,1.587 c 0.849,-0.02 0.889,0.228 0.889,0.228 c -1.482,0.017 -2.637,-0.204 -3.718,0.245 c -0.921,0.383 -1.641,-0.402 -2.129,-0.959 Z" fill="rgb(193,105,79)"/>
	
	<circle cx="3.053" cy="10.503" r="0.488" fill="rgb(193,105,79)"/>
	<circle cx="3.695" cy=" 9.804" r="0.269" fill="rgb(193,105,79)"/>
	<circle cx="4.099" cy="10.503" r="0.269" fill="rgb(193,105,79)"/>
	
	<circle cx="8.067" cy="6.675" r="0.928" fill="rgb(41,47,51)"/>
	
	<path d="M 2.5029,8.3262 c -0.109,0.761 -0.494,1.192 -0.879,1.133 c -0.76,-0.117 -1.392,-1.087 -1.392,-1.856 s 0.624,-0.964 1.392,-0.928 c 1.043,0.048 1.002,0.788 0.879,1.651 Z" fill="rgb(39,43,43)"/>
	
	<path d="M 16.873,13.0908 c -0.461,0 -0.746,-0.018 -0.797,-0.021 c -0.276,-0.019 -0.484,-0.257 -0.465,-0.533 c 0.018,-0.274 0.237,-0.484 0.532,-0.465 c 0.056,0.002 5.985,0.36 10.488,-2.669 c 4.437,-2.983 4.841,-8.424 4.845,-8.479 c 0.018,-0.275 0.256,-0.487 0.531,-0.466 c 0.275,0.017 0.484,0.254 0.467,0.529 c -0.016,0.243 -0.43,5.981 -5.285,9.247 c -3.832,2.576 -8.476,2.857 -10.316,2.857 Z" fill="rgb(160,4,30)"/>
	<path d="M 8.5884,14.0767 c 1.116,-0.14 4.486,-0.19 7.023,-2.093 c 0.558,-0.419 1.326,0.913 0.93,1.163 c -3.209,2.023 -6.965,2.279 -7.814,2.279 c -0.465,0 -0.731,-1.275 -0.139,-1.349 Z" fill="rgb(41,47,51)"/>
	<path d="M 9.2163,17.6792 c 0.844,0.243 2.594,0.28 3.39,0.234 c 0.797,-0.045 6.165,-0.723 6.165,-0.723 l 0.189,1.445 s -5.659,0.826 -6.554,0.942 c -0.896,0.117 -3.1,0.803 -3.1,0.803 s -0.255,-0.616 -0.32,-1.289 c -0.065,-0.683 0.23,-1.412 0.23,-1.412 Z" fill="rgb(41,47,51)"/>
	<path d="M 20.1445,22.6787 l 1.377,0.957 s -2.544,3.872 -4.874,5.087 l -1.249,-1.237 s 1.303,-0.868 2.439,-2.1 c 1.197,-1.299 2.307,-2.707 2.307,-2.707 Z" fill="rgb(41,47,51)"/>
	<path d="M 19.4717,14.8208 c 1.484,1.412 4.14,4.233 5.954,6.558 c 0.389,0.499 -0.791,1.488 -1.35,2.14 c -0.557,0.651 -2.436,2.632 -3.581,1.441 c -1.163,-1.209 -3.255,-3.162 -4.79,-4.697 c -1.079,-1.079 -1.007,-2.649 -0.093,-3.349 c 0.591,-0.453 1.302,-1.349 1.256,-2.465 c -0.02,-0.459 0.151,-0.964 0.558,-0.977 c 0.452,-0.014 1.186,0.531 2.046,1.349 Z" fill="rgb(160,4,30)"/>
	<path d="M 16.1094,16.4385 c 0.335,-0.386 0.627,-0.895 0.722,-1.487 c 1.924,1.654 5.528,5.013 7.784,7.987 c -0.195,0.207 -0.39,0.405 -0.539,0.58 c -0.13,0.151 -0.333,0.376 -0.581,0.615 c -1.819,-2.191 -5.27,-5.719 -7.386,-7.695 Z" fill="rgb(244,171,186)"/>
	<path d="M 16.6836,15.4941 c 1.551,1.344 5.541,5.135 7.674,7.717 c -0.103,0.107 -0.199,0.212 -0.281,0.307 c -0.034,0.039 -0.072,0.082 -0.114,0.129 c -1.752,-2.014 -5.173,-5.544 -7.544,-7.627 c 0.103,-0.163 0.192,-0.338 0.265,-0.526 Z" fill="rgb(245,248,250)"/>
	
	<path d="M 15.1665,9.4946 c 0.348,2.515 -1.157,2.898 -2.383,2.898 s -3.054,-1.251 -2.748,-3.77 c 0.134,-1.108 0.555,-2.193 0.809,-3.176 c 0.335,-1.303 1.199,-1.732 1.893,-1.367 c 1.666,0.874 2.205,3.797 2.429,5.415 Z" fill="rgb(102,33,19)"/>
</svg>
