<svg xmlns="http://www.w3.org/2000/svg" viewBox="0 0 36 36">
	colors ?
	<g> (opacity ½)
		<circle r="14" cx="14" cy="18" fill="#F9CA5580"/>
		<ellipse fill="#65471B80" cx="7" cy="16" rx="2" ry="3"/>
		<ellipse fill="#65471B80" cx="17" cy="16" rx="2" ry="3"/>
		<circle fill="#65471B80" cx="12" cy="25" r="3"/>
	</g>
	<g>
		<circle r="14" cx="22" cy="18" fill="#F9CA55CC"/>
		<ellipse fill="#65471BCC" cx="19" cy="16" rx="2" ry="3"/>
		<ellipse fill="#65471BCC" cx="29" cy="16" rx="2" ry="3"/>
		<circle fill="#65471BCC" cx="24" cy="25" r="3"/>
	</g>
	the linecaps are slightly off from the official version, but only because the official used arc commands with incorrect radius values. (mine should more closely match how the strokes appeared in the editor)
	<g fill="none" stroke-width="1.5" stroke-linecap="round" stroke="#55ACEE">
		<path d="M 4.807,34.7855 a 14.2795,14.2795 0 01 -3.7715,-3.165"/>
		<path d="M 6.358,32.596 a 12.653,12.653 0 01 -3.3405,-2.8035"/>
		
		<path d="M 34.9655,31.6215 a 14.2695,14.2695 0 01 -3.7715,3.164"/>
		<path d="M 32.9835,29.7915 a 12.6295,12.6295 0 01 -3.3405,2.8035"/>
		
		<path d="M 1.035,4.3785 a 14.241,14.241 0 01 3.7715,-3.164"/>
		<path d="M 3.017,6.207 a 12.629,12.629 0 01 3.34,-2.8035"/>
		
		<path d="M 31.1925,1.2135 a 14.2795,14.2795 0 01 3.7715,3.165"/>
		<path d="M 29.6415,3.4025 a 12.653,12.653 0 01 3.3405,2.8035"/>
	</g>
</svg>
