<svg xmlns="http://www.w3.org/2000/svg" viewBox="0 0 36 36">
	<defs>
		<path id="food1" d="M 0,3.5 c 1.933,0 -1.16667,-1.567 -1.16667,-3.5 s 3.1,-3.5 1.16667,-3.5 a 3.5,3.5 0 00 0,7 Z" fill="#77b255"/>
		<path id="handle1" d="M -4,-4 a 4,4 0 01 8,0 c 0,3.11111 -1.7908,4 -4,4 s -4,-0.88889 -4,-4 ZM 3,-4.88889 a 3,3 0 00 -6,0 c 0,2.33333 1.3431,3 3,3 s 3,-0.66667 3,-3 Z" transform="scale(1.5435 1.1748)"/>
	</defs>
	
	<g fill="#292f33" class="toodark">
		<use href="#handle1" transform="translate(2.487 33.513) rotate(45)"/>
		<use href="#handle1" transform="translate(33.513 2.487) rotate(-135)"/>
		<circle r="17" cx="18" cy="18"/>
	</g>
	
	<g>
		<circle r="13.6" cx="18" cy="18" fill="#ffac33"/>
		
		<g fill="#f4900c">
			<circle r="2" cx="15" cy="17"/>
			<circle r="1" cx="24" cy="24"/>
			<circle r="1" cx="11" cy="23"/>
		</g>
		
		<use href="#food1" x="10.5" y="16.5"/>
		<use href="#food1" transform="translate(18.4846 25.0242) scale(0.919) rotate(-64.2263)"/>
		
		PoultryLeg?
		<g>
			<path d="M 19.4453,10.665 l -1.447,1.446 l -2.538,-2.538 c -0.441,0.368 -1.096,0.35 -1.511,-0.065 c -0.439,-0.439 -0.439,-1.152 0,-1.59 c 0.27,-0.27 0.642,-0.373 0.991,-0.311 c -0.061,-0.349 0.041,-0.722 0.311,-0.991 c 0.44,-0.44 1.151,-0.44 1.59,0 c 0.415,0.414 0.433,1.069 0.065,1.51 l 2.539,2.539 Z" fill="#ffe8b6"/>
			<path d="M 27.6689,20.3359 c -0.722,0.723 -3.146,2.605 -6.039,-0.286 c -1.764,-1.762 -1.674,-3.038 -2.464,-5.547 c -0.294,-0.745 -1.973,-2.334 -2.334,-2.695 c 0.361,-0.361 1.936,-0.489 1.936,-0.489 s -0.127,-1.321 0.235,-1.682 c 0.361,0.361 1.775,1.664 2.859,2.026 c 2.644,0.655 4.065,0.554 5.828,2.317 c 2.53,2.53 0.702,5.633 -0.021,6.356 Z" fill="#c1694f"/>
		</g>
	</g>
</svg>
