<svg xmlns="http://www.w3.org/2000/svg" viewBox="0 0 36 36">
	<path d="M 15,15 c -6,-8.75 -3.584,-15 -1,-15 c 2.208,0 2.5,2.833 4.875,2.833 c 1.748,0 2.857,-1.342 4.327,-1.342 c 4.339,0 1.61,9.196 -2.202,14.509 c 8.25,-7.75 14.009,-3.667 14.009,-1.334 c 0,2.334 -2.471,3.067 -2.669,4.542 c -0.232,1.733 2.292,3.042 1.41,4.709 c -3.161,5.975 -13.474,-0.552 -15.517,-2.767 c 0.394,3.207 1.785,7.574 5.619,11.381 c 1.419,1.409 0.231,2.457 -0.185,2.823 c -0.415,0.364 -1.479,1.297 -2.823,-0.187 c -3.3,-3.643 -4.101,-9.635 -3.856,-14.158 c -7.997,6.447 -16.044,4.906 -16.044,1.613 c 0,-2.335 2.419,-2.718 2.597,-4.372 c 0.188,-1.739 -2.172,-2.766 -1.544,-4.519 c 1.919,-5.356 11.503,-0.356 13.003,1.269 Z" fill="#77b255"/>
</svg>
