<svg xmlns="http://www.w3.org/2000/svg" viewBox="0 0 36 36">
	<defs>
		<path id="tooth" d="M 0,0 c -0.492,0 -1,-2.18 -1,-2.673 v-1.779 c 0,-0.493 0.508,0.888 1,0.888 s 1,-1.381 1,-0.888 v1.779 c 0,0.493 -0.508,2.673 -1,2.673 Z"/>
	</defs>
	
	body
	<g>
		<path d="M 36,21 c 0,5 -3,9 -11,11 c -7.062,1.766 -21,-0.934 -21,-2 c 0,-1.129 2.503,-1.371 6.813,-1.125 c 10.937,0.625 13.749,-3.857 11.999,-5.25 c -3.062,-2.438 -6.437,0.375 -12.062,-0.125 c -6.968,-0.619 -10.75,-6.028 -10.75,-7.5 c 0,-2 11.716,-8 20,-8 s 16,4.25 16,13 Z" fill="#66757f"/>
	</g>
	eye
	<path d="M 15,12.5 a 1.5,1.5 0 01 -3,0 c 0,-0.828 0.671,-0.5 1.5,-0.5 s 1.5,-0.329 1.5,0.5 Z" fill="#292f33"/>
	fin
	<path d="M 14,9 c 2,-5 5.291,-9 7.958,-9 s -0.958,2 4.042,10 s -12,-1 -12,-1 Z" fill="#66757f"/>
	tail
	<path d="M 3,30 c 0,-4 -1.04,-6 0.146,-6 c 1.185,0 6.011,4.031 6.011,6.24 s -4.826,5.76 -6.011,5.76 c -1.186,0 -0.146,-2 -0.146,-6 Z" fill="#66757f"/>
	fin
	<g>
		<path d="M 26.9209,22.5 l 7.996,7.5 s -3.242,1.833 -7.996,-7.5 Z" fill="#292f33"/>
		<path d="M 26.9209,22.5 l 5.537,-3.833 s 3.875,9.916 2.459,11.333 c -2.583,-1 -7.996,-7.5 -7.996,-7.5 Z" fill="#66757f"/>
	</g>
	teeth
	<g fill="#ffffff">
		<use href="#tooth" x="8" y="22.9796"/>
		<use href="#tooth" x="11" y="22.9796"/>
		<use href="#tooth" x="14" y="21.9796"/>
		<use href="#tooth" x="17" y="21.9796"/>
		
		<path d="M 6,20 v-3 h13 v2 h-6 l -7,1 Z" fill="#66757f"/>
	</g>
	mouth
	<path d="M 18.417,19.167 c 0.712,0.372 -7.261,-0.74 -13.37,2.541 c -0.559,-0.321 -1.077,-0.668 -1.547,-1.028 c 1.532,-1.524 10.917,-3.596 14.917,-1.513 Z" fill="#292f33"/>
</svg>
