<svg xmlns="http://www.w3.org/2000/svg" viewBox="0 0 36 36">
	<defs>
		<clipPath id="bowl1">
			<path d="M 16.7686,22 h15.844 s -1.968,6.493 -6.165,10.57 c -2.408,2.342 -6.078,2.534 -8.959,2.534 c -1.44,0 -5.491,-0.18 -7.899,-2.52 c -3.536,-3.438 -5.784,-10.584 -5.784,-10.584 h12.963 Z" fill="#55acee"/>
		</clipPath>
		<clipPath id="ice1">
			<path d="M 3.8569,19.2832 c -7.153,-2.631 6.386,-18.917 14.05,-18.917 c 5.113,0 5.262,2.781 10.627,5.611 c 6.283,3.315 6.335,11.917 4.955,12.91 c -1.38,0.991 -7.408,2.779 -15.633,2.779 c -7.306,0 -13.098,-2.052 -13.999,-2.383 Z"/>
		</clipPath>
	</defs>
	<g clip-path="url(#bowl1)">
		<rect width="36" height="36" fill="#55acee"/>
		<path d="M 32.6123,23.5508 c 0,2.32 -4.858,4.899 -14.403,4.899 c -9.546,0 -14.404,-2.579 -14.404,-4.899 c 0,-2.319 4.858,-4.198 14.404,-4.198 c 9.545,0 14.403,1.879 14.403,4.198 Z" fill="#3b88c3"/>
		+18.2093
	</g>
	<path d="M 2,17 h32 v4.453 c 0,2.318 -7.25,4.198 -16,4.198 s -16,-1.88 -16,-4.198 v-4.453 Z" fill="#55acee"/>
	
	<g clip-path="url(#ice1)">
		<rect width="36" height="36" fill="#f9d2dc"/>
		<path d="M 3.4697,10.1108 s -1.354,-3.754 2.107,-9.556 c 3.462,-5.801 9.13,-2.145 17.81,-3.121 c 8.681,-0.975 15.704,14.189 11.489,13.164 c -4.215,-1.024 -7.927,-2.534 -10.735,0.196 c -2.81,2.731 -9.383,4.875 -12.293,0.975 c -2.911,-3.901 -6.823,-2.389 -8.378,-1.658 Z" fill="#f98097"/>
	</g>
	<g fill="#ea596e">
		<circle r="1" cx="12" cy="7"/>
		<circle r="1" cx="18" cy="10"/>
		<circle r="1" cx="22" cy="5"/>
	</g>
</svg>
