<svg xmlns="http://www.w3.org/2000/svg" viewBox="0 0 36 36">
	from MoonViewingCeremony
	<g transform="translate(7 -2)">
		<g stroke-width="2" stroke-linecap="round" stroke-linejoin="round" fill="none" stroke="#77b255">
			<path d="M 12,23 c -1,-2 -1.17952,-4.09715 1,-7 c 3,-4 5,-5 5,0 c -1,1 -6,7 -6,7" fill="#ffcc4d" stroke="#ffcc4d"/>
			<path d="M 16,6 c -1,1 -7,9 -7,9 c -1,-2 -2,-4 0,-7 c 3.13,-4.69 7,-6 7,-2" fill="#ffcc4d" stroke="#ffcc4d"/>
			<path d="M 12,24 c 2,-1 6,-4 6,2"/>
			<path d="M 4,36 c 0,-3 0,-18 14,-32"/>
			<path d="M 3,36 c -0.3333,-2 -3,-16 1,-25"/>
			<path d="M 5,36 c 0,-2 8,-17 17,-22"/>
		</g>	
		<path d="M 1.001,24 c -0.367,0 -0.72,-0.202 -0.896,-0.553 c -0.153,-0.308 -0.331,-0.707 -0.527,-1.15 c -0.418,-0.945 -1.526,-3.446 -2.162,-3.642 c 0.003,0.023 -0.21,0.17 -0.521,0.792 c -0.248,0.493 -0.847,0.694 -1.342,0.448 c -0.494,-0.248 -0.695,-0.675 -0.448,-1.169 c 0.63,-1.26 1.411,-1.726 2.321,-1.726 h0.046 c 1.814,0 2.941,2.415 3.935,4.659 c 0.181,0.411 0.345,0.695 0.488,0.98 c 0.247,0.494 0.046,1.051 -0.448,1.299 c -0.143,0.071 -0.296,0.062 -0.446,0.062 Z" fill="#77b255"/>
	</g>
</svg>
