<svg xmlns="http://www.w3.org/2000/svg" viewBox="0 0 36 36">
	<!--<path d="M 0,26 l 18.04,-12.05 l 17.96,12.061 v7.989 a 2,2 0 01 -2,2 h-32 a 2,2 0 01 -2,-2 v-8 Z"  fill="#99aab5"/>-->
	<path d="M 0,26 l 18,-12 l 18,12 v8 a 2,2 0 01 -2,2 h-32 a 2,2 0 01 -2,-2 v-8 Z"  fill="#99aab5"/>
	<path d="M 36,33 v1 h-36 v-1 h36 Z" fill="#66757f"/>
	<path d="M 36,30 v1 h-36 v-1 h36 Z" fill="#66757f"/>
	<path d="M 36,27 v1 h-36 v-1 h36 Z" fill="#66757f"/>
	<!--<path d="M 1.4971,25 l 1.497,-1 h30.012 l 1.489,1 h-32.998 Z" fill="#66757f"/>-->
	<path d="M 1.5,25 l 1.5,-1 h30 l 1.5,1 h-33 Z" fill="#66757f"/>
	
	<path d="M 5,3 a 13,3 0 01 26,0 v33 h-26 v-33 Z" fill="#e1e8ed"/>
	
	<path d="M  8,36 v-34.916 c 0.594,-0.165 1.268,-0.313 2,-0.445 v35.361 h-2 Z" fill="#ccd6dd"/>
	<path d="M 14,36 v-35.854 c 0.646,-0.048 1.315,-0.083 2,-0.107 v35.961 h-2 Z" fill="#ccd6dd"/>
	<path d="M 20,36 v-35.961 c 0.685, 0.024 1.355, 0.059 2, 0.107 v35.854 h-2 Z" fill="#ccd6dd"/>
	<path d="M 26,36 v-35.361 c 0.731, 0.132 1.406, 0.280 2, 0.445 v34.916 h-2 Z" fill="#ccd6dd"/>
	
	<path d="M 31,10 a 13,3 0 00 -26,0 v-2 a 13,3 0 01 26,0 v2 Z" fill="#ccd6dd"/>
	<path d="M 31,16 a 13,3 0 00 -26,0 v-2 a 13,3 0 01 26,0 v2 Z" fill="#ccd6dd"/>
	<path d="M 31,28 a 13,3 0 00 -26,0 v-2 a 13,3 0 01 26,0 v2 Z" fill="#ccd6dd"/>
	<path d="M 31,34 a 13,3 0 00 -26,0 v-2 a 13,3 0 01 26,0 v2 Z" fill="#ccd6dd"/>
	
	<path d="M 31,22 a 13,3 0 00 -26,0 v-2 a 13,3 0 01 26,0 v2 Z" fill="#292f33"/>
	
	<path d="M 11.130,5.583 h-0.708 c -0.576,0 -0.815,-0.42 -0.815,-0.828 c 0,-0.419 0.299,-0.827 0.815,-0.827 h1.703 c 0.516,0 0.804,0.372 0.804,0.851 v6.825 c 0,0.6 -0.384,0.935 -0.9,0.935 c -0.515,0 -0.899,-0.335 -0.899,-0.935 v-6.021 Z" fill="#be1931"/>
	
	<path d="M 14.010,7.731 c 0,-1.955 0.755,-4.414 3.178,-4.414 s 3.178,2.459 3.178,4.414 s -0.755,4.414 -3.178,4.414 s -3.178,-2.459 -3.178,-4.414 Z M 18.4951,7.7305 c 0,-0.912 -0.084,-2.783 -1.307,-2.783 s -1.307,1.871 -1.307,2.783 c 0,0.852 0.084,2.782 1.307,2.782 s 1.307,-1.93 1.307,-2.782 Z" fill="#be1931"/>
	
	<path d="M 27.087,6.758 c 0,1.811 -1.835,4.353 -3.046,5.481 c -0.096,0.096 -0.24,0.192 -0.384,0.288 c -0.131,0.084 -0.263,0.084 -0.36,0.084 c -0.335,0 -0.852,-0.444 -0.852,-0.875 c 0,-0.168 0.109,-0.313 0.252,-0.492 c 0.481,-0.588 1.26,-1.356 1.656,-1.919 l -0.024,-0.024 c -0.216,0.096 -0.492,0.144 -0.756,0.144 c -1.439,0 -2.506,-1.271 -2.506,-2.687 c 0,-1.559 1.235,-2.974 3.01,-2.974 c 1.847,0 3.01,1.379 3.01,2.974 Z M 25.2158,6.7578 c 0,-0.671 -0.419,-1.247 -1.139,-1.247 c -0.683,0 -1.139,0.552 -1.139,1.247 c 0,0.636 0.383,1.248 1.139,1.248 c 0.684,0 1.139,-0.54 1.139,-1.248 Z" fill="#be1931"/>
</svg>

