<svg xmlns="http://www.w3.org/2000/svg" viewBox="0 0 36 36">
	<rect x="5" y="7" width="4" height="28" rx="2"  fill="#DD2E44"/>
	<rect x="27" y="7" width="4" height="28" rx="2"  fill="#DD2E44"/>
	<rect x="0" y="14" width="36" height="4" rx="2"  fill="#DD2E44"/>
	<path d="M 18,10 c -12,0 -15,-1 -15,-1 c -1.266,-0.266 -2,-0.896 -2,-2 s 0.896,-2 2,-2 h30 c 1.104,0 2,0.896 2,2 s -0.781,1.719 -2,2 c 0,0 -3,1 -15,1 Z"   fill="#DD2E44"/>
	<rect x="16" y="7" width="4" height="10" rx="2"  fill="#DD2E44"/>
	<path d="M 18,7 c -12,0 -16,-1 -16,-1 c -1.208,-0.196 -1.898,-0.891 -1.9,-2 c 0,-1.1 -0.202,-3 0.9,-3 c 0,0 4,2 17,2 s 17,-2 17,-2 c 1.102,0 0.9,1.9 0.9,3 c -0.002,1.109 -0.692,1.804 -1.9,2 c 0,0 -4,1 -16,1 Z"    fill="#292F33"/>
	<rect x="3" y="32" width="8" height="4" rx="2"  fill="#292F33"/>
	<rect x="25" y="32" width="8" height="4" rx="2"  fill="#292F33"/>
</svg>
