<svg xmlns="http://www.w3.org/2000/svg" viewBox="0 0 36 36">
	nnot sure about my recoloring. maybe the original hue was nicer..
	<defs>
		<clipPath id="hull1">
			<path d="M 5,19 h26 s -1.355,8 -4.875,14 s -8.125,0 -8.125,0 s -4.605,6 -8.125,0 s -4.875,-14 -4.875,-14 Z"/>
		</clipPath>
	</defs>

	<g>
		<g>
			<rect width="4" height="5" x="16" y="0" fill="#292f33"/>
			<rect width="4" height="4" x="16" y="2" fill="#CCD6DD"/>
			<rect width="2" height="4" x="18" y="2" fill="#AAB8C2"/>
			<rect width="2" height="2" x="16" y="0" fill="#4B545D"/> not sure..
		</g>

		<g>
			<g fill="#E1E8ED" class="toolight">
				<path d="M 28.154,19 v1 h-20.308 v-1 l 0.846,-14 h18.616 l 0.846,14 Z"/>
				<rect width="24" height="6" x="6" y="9"/>
			</g>
			<rect width="16" height="5" x="10" y="15" fill="#CCD6DD"/>
			<rect width="12" height="3" x="12" y="17" fill="#AAB8C2"/>
			<rect width="16" height="2" x="10" y="7" fill="#AAB8C2"/>
			<rect width="20" height="2" x="8" y="11" fill="#66757F"/>
		</g>
		
		<g clip-path="url(#hull1)">
			<circle r="999" fill="#66757f"/>
			<rect width="18" height="36" fill="#99aab5"/>
			<rect width="36" y="21" height="2" fill="#be1931"/>
			<rect width="18" x="18" y="21" height="2" fill="#a0041e"/>
		</g>
	</g>
	
	<rect width="36" height="6" x="0" y="30" fill="#55acee"/>
</svg>
