<svg xmlns="http://www.w3.org/2000/svg" viewBox="0 0 36 36">
	<g stroke-width="2" stroke-linecap="round" fill="none" stroke="#55acee">
		<path d="M 10.707,10.293 l -9.414,9.414"/>
		<path d="M 13.707,13.293 l -12.707,12.707"/>
		<path d="M 16.707,16.293 l -15.707,15.707"/>
		<path d="M 19.707,19.293 l -12.707,12.707"/>
		<path d="M 22.707,22.293 l -9.414,9.414"/>
	</g>
	<g>
		<path d="M 31.543,17.5298 c 2.185,2.197 4.395,5.041 4.395,9.47 v6.707 a 2,2 0 01 -4,0 v-6.707 c 0,-2.806 -1.287,-4.691 -3.223,-6.64 l -0.182,0.181 a 2,2 0 01 -2.829,0 l -13.556,-13.556 a 2,2 0 01 0,-2.829 l 3,-3 a 2,2 0 01 2.829,0 l 13.556,13.557 a 2,2 0 01 0.01,2.817 Z" fill="#66757f"/>
		<path d="M 30.689,19.5562 L 13.1325,2" stroke="#99aab5" stroke-width="4" stroke-linecap="round" fill="none"/>
	</g>
</svg>
