<svg xmlns="http://www.w3.org/2000/svg" viewBox="0 0 36 36">
	<defs>
		<clipPath id="body1">
			<path d="M 5,15 c -3.477,-1.328 -3.561,-5.188 -3,-6 c 2.813,-4.062 12.806,-4.631 20.123,-3.238 c 4.49,0.855 8.714,3.556 11.255,7.484 c 1.704,2.632 3.319,5.982 1.338,11.753 l -0.098,0.286 l -0.301,0.992 c -0.152,-0.003 -0.481,0.076 -0.799,0.153 c -0.94,0.226 -2.226,0.535 -3.018,-0.117 c -0.439,-0.364 -0.644,-0.959 -0.608,-1.771 c 0.072,-1.618 -1.647,-5.997 -4.454,-7.555 c -2.879,-1.598 -5.606,-2.481 -8.628,-2.545 c -2.938,-0.063 -9.646,1.385 -11.81,0.558 Z"/>
		</clipPath>
		<clipPath id="tail1">
			<path d="M 26.877,30.422 c 1.081,-0.979 2.108,-2.463 2.619,-3.779 c 0.253,-0.65 0.375,-1.236 0.365,-1.743 c -0.005,-0.256 0.033,-0.49 0.112,-0.695 h0.001 c 0.146,-0.377 0.587,-1.15 0.817,-0.803 c 1.682,2.508 3.283,0.533 3.686,0.738 c 0.254,0.129 0.396,0.405 0.356,0.686 c -0.153,1.059 -1.765,8.264 -2.328,9.716 l -0.049,0.118 c -0.376,0.851 -1.073,1.34 -1.779,1.249 c -0.332,-0.044 -1.128,-0.292 -1.347,-1.661 c -0.064,-0.412 -0.191,-0.697 -0.339,-0.762 c -0.14,-0.062 -0.495,-0.009 -1.033,0.343 c -0.532,0.35 -1.143,0.341 -1.591,-0.022 c -0.552,-0.447 -0.705,-1.302 -0.385,-2.131 c 0.177,-0.453 0.479,-0.875 0.895,-1.254 Z"/>
		</clipPath>
	</defs>
	
	at some point these legs were moved from the uppermost layer, to below everything
	<g stroke-linecap="round" fill="none" stroke="#DD2E44" stroke-width="2">
		<path d="M 15.613,16.4009 l 0.5035,-3.9685"/>
		<path d="M 19.5616,16.9282 l 1.17,-3.825"/>
		<path d="M 23.1837,18.1781 l 2.096,-3.407"/>
	</g>

	<g stroke-linecap="round" fill="none" stroke="#BE1931" stroke-width="2">
		<path d="M 14.2241,14.9275 l -0.0355,-4"/>
		<path d="M 18.6657,15.1337 l 0.926,-3.892"/>
		<path d="M 22.7457,16.4313 l 1.8035,-3.5705"/>
	</g>
	<path d="M 4.458,7.4292 s 0.878,1.191 -0.636,1.047 s -4.378,-1.069 -3.458,-4.016 c 0.923,-2.956 5.17,-3.325 10.454,-2.581 c 5.175,0.728 13.376,2.277 15.576,2.08 s 2.605,-2.147 2.261,-2.875 c -0.345,-0.727 0.337,-1.151 0.787,-0.682 c 0.451,0.47 0.824,2.799 -0.965,4.078 c -2.254,1.612 -11.642,-1.016 -20.218,-1.789 s -8.331,5.058 -3.801,4.738 Z" fill="#BE1931"/>
	
	<path d="M 6.0835,6.7085 s 0.792,1.25 -0.708,1 s -4.292,-1.375 -3.167,-4.25 c 1.128,-2.884 5.392,-2.952 10.61,-1.838 c 5.111,1.09 13.183,3.214 15.391,3.171 c 2.208,-0.041 2.75,-1.958 2.458,-2.708 s 0.417,-1.125 0.833,-0.625 s 0.625,2.85 -1.25,4 c -2.363,1.449 -11.541,-1.833 -20.042,-3.208 c -8.5,-1.375 -8.667,4.458 -4.125,4.458 Z" fill="#DD2E44"/>
	
	<g clip-path="url(#body1)">
		<rect width="36" height="36" fill="#DD2E44"/>
		<path d="M 24.3203,17.3018 c -1.922,-2.735 -17.601,5.1 -22.32,-4.302 c 3.719,1.715 10.626,-0.864 16.542,-0.333 c 11.866,1.065 12.207,10.134 12.249,10.922 c -0.526,5.802 -6.471,-6.287 -6.471,-6.287 Z" fill="#BE1931"/>
		<path d="M 23.2188,8.5693 c -0.891,0.87 -1.635,1.078 -1.025,-0.066 c 0.611,-1.145 2.617,-3.183 3.751,-3.682 c 1.704,-0.83 3.696,1.435 2.081,1.471 c -1.618,0.035 -3.754,1.247 -4.807,2.277 Z" fill="#BE1931"/>
		<path d="M 35.6836,13.7412 c -2.289,-1.22 -5.321,-3.227 -7.51,-2.143 c -2.188,1.084 -0.978,-0.467 0.026,-1.205 c 1.623,-1.192 4.047,-0.749 5.186,0.302 c 1.14,1.049 2.298,3.046 2.298,3.046 Z" fill="#BE1931"/>
		<path d="M 37.9209,21.2168 c -1.732,-1.931 -3.894,-4.855 -6.321,-4.586 c -2.427,0.268 -0.759,-0.775 0.437,-1.124 c 1.933,-0.564 4.059,0.683 4.769,2.061 c 0.711,1.376 1.115,3.649 1.115,3.649 Z" fill="#BE1931"/>
	</g>
	
	i think the tail is reused between this and fried shrimp?
	
	<g clip-path="url(#tail1)">
		<rect width="36" height="36" fill="#BE1931"/>
		<path d="M 29.9102,35.7168 s -5.373,1.341 -3.405,-1.472 c 5.579,-6.497 1.718,-0.831 3.405,1.472 Z" fill="#292f33"/>
	</g>
	
	<circle r="1" cx="7" cy="9" fill="#292f33"/>
</svg>
