<svg xmlns="http://www.w3.org/2000/svg" viewBox="0 0 36 36">
	nhhhh
	<g>
		<path fill="#A0041E" d="M 32.4355,2.8213 c 1.801,1.799 3.779,2.737 0,6.517 l -19.551,19.55 c -4.595,4.595 -5.464,7.572 -11.406,1.63 c -3.258,-3.258 0.285,-3.543 4.888,-8.147 l 19.552,-19.55 c 1.8,-1.8 4.718,-1.8 6.517,0 Z"/>
		<path fill="#DD2E44" d="M 33.9355,4.3208 c 1.801,1.799 1.801,4.717 0,6.517 l -19.551,19.551 c -4.073,4.073 -8.342,4.693 -11.405,1.63 c -3.258,-3.258 0.284,-3.543 4.888,-8.148 l 19.551,-19.55 c 1.8,-1.8 4.718,-1.8 6.517,0 Z"/>
	</g>
	
	<g>
		<g>
			<path fill="#3B88C3" d="M 15.3008,33.1797 c -0.929,-0.927 -0.672,-2.687 0.572,-3.932 c 1.244,-1.244 3.005,-1.5 3.932,-0.572 c 0.929,0.928 0.672,2.688 -0.572,3.932 c -1.245,1.245 -3.005,1.501 -3.932,0.572 Z"/>
			<path fill="#3B88C3" d="M 19.0684,27.9365 l 0.736,0.739 l -4.504,4.504 l -0.738,-0.736 l 4.506,-4.507 Z"/>
			<path fill="#88C9F9" d="M 14.6133,32.4932 c -0.928,-0.928 -0.672,-2.688 0.573,-3.933 c 1.244,-1.244 3.004,-1.5 3.932,-0.572 s 0.672,2.688 -0.573,3.932 c -1.244,1.245 -3.004,1.501 -3.932,0.573 Z"/>
		</g>
		<g>
			<path fill="#808285" d="M 17.6509,29.3965 c 0.302,0.367 0.243,0.973 -0.207,1.423 s -1.032,0.476 -1.422,0.207 c -3.469,-2.397 -3.068,-3.798 -2.618,-4.248 c 0.451,-0.45 1.149,-1.149 4.247,2.618 Z"/>
			<path fill="#A7A9AC" d="M 16.2427,29.8301 c -1.103,1.237 -2.763,0.609 -3.935,-0.562 c -1.171,-1.171 -1.301,-2.466 -0.129,-3.638 c 1.171,-1.172 2.359,-0.703 3.531,0.469 c 1.172,1.17 1.755,2.359 0.533,3.731 Z"/>
		</g>
		<g>
			<path fill="#3B88C3" d="M 9.1387,27.4004 c -1.007,-1.006 -0.729,-2.915 0.621,-4.266 c 1.35,-1.349 3.259,-1.628 4.266,-0.621 s 0.729,2.916 -0.622,4.266 c -1.349,1.35 -3.259,1.629 -4.265,0.621 Z"/>
			<path fill="#3B88C3" d="M 13.2261,21.7119 l 0.799,0.802 l -4.886,4.886 l -0.801,-0.798 l 4.888,-4.89 Z"/>
			<path fill="#88C9F9" d="M 8.3926,26.6553 c -1.007,-1.007 -0.729,-2.916 0.622,-4.267 c 1.35,-1.349 3.259,-1.628 4.265,-0.621 c 1.007,1.007 0.729,2.916 -0.621,4.266 c -1.349,1.351 -3.259,1.629 -4.266,0.622 Z"/>
			<path fill="#3B88C3" d="M 11.6509,23.3965 c 0.336,0.335 0.243,0.973 -0.207,1.423 s -1.086,0.542 -1.422,0.207 c -0.336,-0.336 -0.243,-0.973 0.207,-1.423 s 1.087,-0.542 1.422,-0.207 Z"/>
		</g>
	</g>
	
	<g>
		<g>
			<path fill="#3B88C3" d="M 29.3018,19.1797 c -0.93,-0.926 -0.673,-2.686 0.572,-3.931 c 1.243,-1.244 3.003,-1.5 3.931,-0.572 c 0.928,0.927 0.672,2.687 -0.572,3.931 c -1.244,1.245 -3.004,1.501 -3.931,0.572 Z"/>
			<path fill="#3B88C3" d="M 33.0684,13.937 l 0.736,0.739 l -4.503,4.504 l -0.738,-0.736 l 4.505,-4.507 Z"/>
			<path fill="#88C9F9" d="M 28.6143,18.4937 c -0.929,-0.928 -0.672,-2.688 0.572,-3.933 c 1.244,-1.244 3.003,-1.5 3.931,-0.572 s 0.672,2.688 -0.572,3.932 s -3.003,1.5 -3.931,0.573 Z"/>
		</g>
		<g>
			<path fill="#808285" d="M 31.6504,15.397 c 0.303,0.367 0.244,0.973 -0.207,1.423 c -0.449,0.45 -1.03,0.476 -1.421,0.207 c -3.469,-2.397 -3.068,-3.798 -2.617,-4.248 c 0.449,-0.45 1.148,-1.149 4.245,2.618 Z"/>
			<path fill="#A7A9AC" d="M 30.2432,15.8306 c -1.103,1.237 -2.764,0.609 -3.935,-0.562 s -1.301,-2.466 -0.129,-3.638 c 1.171,-1.172 2.359,-0.703 3.531,0.469 c 1.172,1.17 1.755,2.359 0.533,3.731 Z"/>
		</g>
		<g>
			<path fill="#3B88C3" d="M 23.1396,13.4009 c -1.008,-1.006 -0.73,-2.915 0.621,-4.266 c 1.35,-1.349 3.259,-1.628 4.266,-0.621 c 1.006,1.007 0.728,2.916 -0.622,4.266 s -3.259,1.629 -4.265,0.621 Z"/>
			<path fill="#3B88C3" d="M 27.2266,7.7124 l 0.8,0.802 l -4.887,4.886 l -0.801,-0.798 l 4.888,-4.89 Z"/>
			<path fill="#88C9F9" d="M 22.3936,12.6558 c -1.008,-1.007 -0.729,-2.916 0.621,-4.267 c 1.35,-1.349 3.26,-1.628 4.266,-0.621 c 1.007,1.007 0.728,2.916 -0.621,4.266 c -1.35,1.351 -3.26,1.629 -4.266,0.622 Z"/>
			<path fill="#3B88C3" d="M 25.6514,9.397 c 0.336,0.335 0.243,0.973 -0.207,1.423 s -1.086,0.542 -1.422,0.207 c -0.336,-0.336 -0.243,-0.973 0.207,-1.423 s 1.086,-0.542 1.422,-0.207 Z"/>
		</g>
	</g>
</svg>
