<svg xmlns="http://www.w3.org/2000/svg" viewBox="0 0 36 36">
	<path d="M 36,15.05 v16.95 a 4,4 0 01 -4,4 h-28 a 4,4 0 01 -4,-4 v-2 s 15.958,-6.875 36,-14.95 Z"  fill="#E1E8ED"/> <!-- i feel bad removing the cute corners with just 1 control point, but.. for consistency, need to change them all to arcs.. -->
	
	<path d="M 27.34,20.272 c -1.343,0.494 -14.171,5.809 -14.301,5.862 a 0.875,0.875 0 01 -1.179,-0.617 c -0.212,-0.975 -0.354,-1.747 -0.354,-2.351 a 0.875,0.875 0 01 0.238,-0.598 c 1.627,-1.715 3.689,-3.483 5.058,-4.608 c -1.308,-2.187 -4.363,-7.227 -5.038,-8.319 a 0.875,0.875 0 01 0.234,-1.164 c 1.012,-0.722 6.832,-4.626 7.079,-4.792 a 0.875,0.875 0 01 1.159,0.176 c 0.639,0.791 2.349,3.617 4.16,6.609 c 0.864,1.428 1.712,2.828 2.382,3.903 a 0.875,0.875 0 01 0.102,0.237 c 0.01,0.039 1.029,3.928 1.029,4.847 a 0.875,0.875 0 01 -0.569,0.815 Z"    fill="#55ACEE"/>
	<path d="M 26.882,14.611 c 0.005,0.022 0.318,1.215 0.597,2.436 l -0.78,0.305 c -1.614,0.634 -3.443,1.352 -4.774,1.77 c -0.099,0.031 -0.2,0.047 -0.3,0.047 c -0.345,0 -0.675,-0.18 -0.859,-0.49 c -0.496,-0.835 -1.589,-2.892 -2.489,-4.759 c -1.721,-3.57 -1.905,-4.466 -1.039,-5.043 c 2.88,-2.044 2.948,-3.578 2.999,-4.698 c 0.004,-0.095 0.008,-0.195 0.015,-0.297 c 0.648,0.81 2.346,3.616 4.146,6.589 c 0.864,1.428 1.712,2.828 2.382,3.903 c 0.045,0.073 0.08,0.153 0.102,0.237 Z"  fill="#3B88C3"/>
	
	<path d="M 11.7485,26.5 L 18.9565,23.458" stroke-linecap="round" fill="none" stroke-width="1.738" stroke="#269"/>
	<path d="M 23.834,21.4175 L 28.625,19.334" stroke-linecap="round" fill="none" stroke-width="1.738" stroke="#269"/>
	
	<path d="M 16.69,13.6605 L 19.1875,12.0315" stroke-linecap="round" fill="none" stroke-width="1.738" stroke="#269"/>
	<path d="M 18.6795,16.736 L 21.6465,16.266" stroke-linecap="round" fill="none" stroke-width="1.738" stroke="#269"/>
	<path d="M 19.542,21.2075 L 17.811,20.2825" stroke-linecap="round" fill="none" stroke-width="1.738" stroke="#269"/>
	
	<path d="M 34,19 c -7,3 -24,10 -26,11 s -4,1 -5,-1"  stroke-linejoin="round" stroke-linecap="round" fill="none" stroke-width="2" stroke="#BE1931"/> <!-- really proud of figuring this one out -->
	
	<!--<path d="M 5.594,31.657 c -0.208,0 -0.411,-0.014 -0.61,-0.042 c -1.264,-0.181 -2.259,-0.931 -2.878,-2.168 c -0.247,-0.494 -0.047,-1.095 0.447,-1.342 c 0.495,-0.246 1.095,-0.047 1.342,0.447 c 0.632,1.266 1.864,1.45 3.658,0.553 c 1.23,-0.615 7.657,-3.303 14.462,-6.148 c 4.396,-1.838 8.793,-3.677 11.592,-4.876 c 0.503,-0.219 1.095,0.017 1.312,0.525 c 0.218,0.507 -0.017,1.095 -0.525,1.313 c -2.802,1.201 -7.205,3.042 -11.608,4.884 c -6.474,2.707 -13.169,5.507 -14.339,6.092 c -1.015,0.507 -1.972,0.762 -2.853,0.762 Z"  fill=""/>-->
	
	<path d="M 23.542,4.6665 L 29.167,1.5" stroke-linecap="round" fill="none" stroke-width="1.738" stroke="#BBDDF5"/>
	<path d="M 26.042,8.3755 L 29.375,6.5" stroke-linecap="round" fill="none" stroke-width="1.738" stroke="#BBDDF5"/>
	<path d="M 28.042,12.375 L 30.25,11.167" stroke-linecap="round" fill="none" stroke-width="1.738" stroke="#BBDDF5"/>
</svg>
