<svg xmlns="http://www.w3.org/2000/svg" viewBox="0 0 36 36">
	<defs>
		<clipPath id="boot1">
			<path d="M 12.7085,26.2021 c -0.139,0 -0.277,-0.033 -0.402,-0.1 c -0.229,-0.119 -0.392,-0.333 -0.447,-0.585 c -0.212,-0.974 -0.353,-1.747 -0.353,-2.35 c 0,-0.223 0.085,-0.437 0.238,-0.598 c 1.627,-1.715 3.69,-3.483 5.058,-4.608 c -1.308,-2.187 -4.363,-7.227 -5.038,-8.32 c -0.24,-0.389 -0.138,-0.897 0.235,-1.163 c 1.012,-0.722 6.831,-4.626 7.079,-4.792 c 0.374,-0.252 0.877,-0.174 1.159,0.176 c 0.638,0.791 2.348,3.617 4.16,6.609 c 0.864,1.428 1.712,2.828 2.382,3.903 c 0.046,0.073 0.08,0.153 0.102,0.237 c 0.01,0.039 1.03,3.928 1.03,4.847 c 0,0.364 -0.228,0.689 -0.57,0.815 c -1.342,0.494 -14.171,5.809 -14.3,5.863 c -0.107,0.044 -0.22,0.066 -0.333,0.066 Z"/>
		</clipPath>
	</defs>
	<path d="M 0,32 v-2 s 15.958,-6.875 36,-14.95 v16.95 s 0,4 -4,4 h-28 c -4,0 -4,-4 -4,-4 Z" fill="#e1e8ed"/>
	<!-- <path d="M 36,15.05 v16.95 a 4,4 0 01 -4,4 h-28 a 4,4 0 01 -4,-4 v-2 s 15.958,-6.875 36,-14.95 Z"  fill="#E1E8ED"/> i feel bad removing the cute corners with just 1 control point, but.. for consistency, need to change them all to arcs.. actually no ww.. -->
	
	<!-- i suspect the entire boot (except the 3B88C3 overlay) is scaled -->
	<g clip-path="url(#boot1)">
		<rect width="36" height="36" fill="#55acee"/>
		<path d="M 22.6699,2.1841 c -0.275,-0.36 -0.759,-0.489 -1.175,-0.318 c -1.177,0.484 -1.224,1.541 -1.259,2.312 c -0.05,1.12 -0.119,2.654 -2.998,4.698 c -0.866,0.577 -0.682,1.473 1.039,5.042 c 0.9,1.867 1.993,3.924 2.489,4.759 c 0.183,0.31 0.513,0.49 0.859,0.49 c 0.1,0 0.201,-0.016 0.3,-0.047 c 1.331,-0.418 3.16,-1.136 4.774,-1.769 c 1.176,-0.461 2.286,-0.897 3.04,-1.155 c 0.386,-0.131 0.676,-0.434 0.797,-0.83 c 0.416,-1.373 -2.23,-5.808 -7.866,-13.182 Z" fill="#3b88c3"/>
	</g>
	
	<g stroke-linecap="round" fill="none" stroke-width="1.738" stroke="#269">
		<path d="M 11.75,26.5 L 18.958,23.458"/>
		<path d="M 23.834,21.417 L 28.625,19.333"/> 
		
		<path d="M 16.6889,13.6603 L 19.1864,12.0313"/>
		<path d="M 18.6802,16.736 L 21.6477,16.266"/>
		<path d="M 19.542,21.2076 L 17.811,20.2831"/>
	</g>
	
	<g stroke-linecap="round" fill="none" stroke-width="1.738" stroke="#bbddf5">
		<path d="M 23.542,4.6667 L 29.167,1.5"/>
		<path d="M 26.042,8.375 L 29.375,6.5"/>
		<path d="M 28.042,12.375 L 30.25,11.1667"/>
	</g>
	
	<path d="M 34,19 c -7,3 -24,10 -26,11 s -4,1 -5,-1"  stroke-linejoin="round" stroke-linecap="round" fill="none" stroke-width="2" stroke="#BE1931"/> <!-- really proud of figuring this one out -->
</svg>
