<svg xmlns="http://www.w3.org/2000/svg" viewBox="0 0 36 36">
	idk..
	
	<path fill="#292F33" d="M 35.876,23.5713 c 0,-3.299 -1.021,-5.408 -4.901,-9.145 c -2.747,-2.645 -2.089,-5.807 -0.238,-5.365 c 1.852,0.443 2.23,2.294 2.23,2.294 s 1.133,-1.449 -0.378,-2.937 c 1.096,0.361 1.729,1.157 2.005,2.271 c 1.43,-1.817 2.426,-6.125 -1.376,-8.94 c -3.524,-2.609 -9.194,-2.081 -12.303,1.612 c -3.517,4.175 -1.507,8.346 1.266,10.673 c 1.675,1.406 3.089,2.617 3.878,3.925 c -3.409,-0.743 -7.491,0.538 -9.063,1.167 c -1.629,0.652 -2.544,-0.232 -2.864,-0.324 c 1.077,-2.555 -2.965,-2.347 -2.996,-0.726 c -0.39,-0.049 -0.802,-0.069 -1.22,-0.07 c -0.023,-1.441 -2.206,-0.91 -2.111,0.294 c -0.223,0.066 -0.447,0.124 -0.669,0.216 c -3.234,1.355 -2.582,3.238 -4.578,4.597 c -1.179,0.804 -2.345,0.388 -2.345,2.18 c 0,0.985 1.584,1.759 3.171,1.835 c 3.057,0.145 4.583,-0.806 5.802,-0.48 c 3.326,0.89 4.069,4.401 4.497,6.752 c 0.387,2.129 0.339,2.596 1.317,2.542 c 0.978,-0.055 3,0.168 3,-2.832 c 1.704,-0.273 3.975,0.717 7,0.387 c 0.422,-0.046 0.697,2.074 1.272,2.34 c 0.515,0.237 2.15,0.146 2.931,-0.634 c 0.569,-0.569 0.59,-1.486 0.595,-2.466 c 4.87,-2.041 6.078,-6.19 6.078,-9.166 Z" class="toodark"/>
	stripes
	<g fill="#E1E8ED">
		<path d="M 4.9512,21.4238 c 0.414,-1.833 1.85,-3.155 4.074,-3.374 c 1.541,-0.15 2.111,0.027 2.111,0.027 s -0.693,1.065 -1.502,1.285 c -1.135,0.309 -2.784,-0.181 -4.683,2.062 Z"/>
		<path d="M 15.5806,19.4346 c 2.747,1.122 4.557,4.731 7.591,6.159 c 6.082,2.862 9.112,-0.932 9.826,-3.386 c 0.853,-2.931 -1.514,-6.219 -4.542,-9.066 c -3.594,-3.381 -2.753,-7.869 -0.797,-9.456 c 1.898,-1.542 4.229,-2.085 7.121,-0.365 c -2.415,-2.553 -5.113,-2.595 -7.534,-1.589 c -2.422,1.005 -5.037,4.145 -3.606,7.981 c 1.293,3.468 5.367,5.673 6.33,8.397 c 0.492,1.393 -0.282,4.221 -2.835,4.566 c -4.221,0.572 -6.578,-2.724 -11.554,-3.241 Z"/>
		<path d="M 17.1167,19.373 s 2.972,-0.698 5.834,-0.533 c 2.863,0.165 4.157,0.533 4.157,0.533 s 0.733,-1.839 -2.395,-4.568 c -3.557,-3.104 -5.712,-5.297 -4.482,-9.159 c 1.085,-3.41 6.271,-6.86 11.46,-4.779 c -5.464,-1.2 -8.464,2.02 -9.565,3.974 s -1.183,4.761 1.624,7.872 c 2.807,3.11 5.367,4.761 4.183,6.853 c -0.4,0.708 -2.175,1.472 -4.679,0.816 c -1.881,-0.492 -3.99,-1.229 -6.137,-1.009 Z"/>
	</g>
	eye
	<circle r="1" transform="translate(8.1702,21.4241) rotate(15)" fill="#E1E8ED"/>
</svg>
