<svg xmlns="http://www.w3.org/2000/svg" viewBox="0 0 36 36">
	<path d="M 36,32 a 4,4 0 01 -4,4 h-28 a 4,4 0 01 -4,-4 v-4.938 s 17,-10 36,-14 v18.938 Z"   fill="#E1E8ED"/>
	
	<path d="M 26.004,15.523 c -1.341,0.693 -17.35,9.168 -19.132,10.044 c -2.822,1.388 -5.22,0.05 -6.416,-1.769 c -0.616,-0.937 -0.406,-1.218 0,-1.312 s 1.424,-0.277 1.688,0.25 c 0.437,0.875 2.531,2.031 3.625,1.531 c 1.093,-0.5 17.937,-9.531 18.562,-9.812 c 0.625,-0.282 0.906,-0.282 1.375,0 c 0.469,0.281 1.315,0.543 0.298,1.068 Z" fill="#9D0522"/>
	<path d="m 0,0 l 2.48,-6.666 l 3.333,3.833" stroke-linecap="round" stroke-linejoin="round" fill="none" stroke-width="1" stroke="#9D0522" transform="translate(9.878 22.862)"/>
	
	<path d="M 11.1435,28.7635 L 1.8425,23.7035" stroke-linecap="round" fill="none" stroke-width="1" stroke="#E75A70"/>
	
	<path d="M 26.004,15.523 c -1.341,0.693 -17.35,9.168 -19.132,10.044 c -2.822,1.388 -5.22,0.05 -6.416,-1.769 c -0.616,-0.937 -0.406,-1.218 0,-1.312 s 1.424,-0.277 1.688,0.25 c 0.437,0.875 2.531,2.031 3.625,1.531 c 1.093,-0.5 17.937,-9.531 18.562,-9.812 c 0.625,-0.282 0.906,-0.282 1.375,0 c 0.469,0.281 1.315,0.543 0.298,1.068 Z" fill="#9D0522" transform="translate(9.448 5.084)"/>
	<path d="m 0,0 l 2.48,-6.666 l 3.333,3.833" stroke-linecap="round" stroke-linejoin="round" fill="none" stroke-width="1" stroke="#9D0522" transform="translate(19.167 27.77)"/>
	<path d="m 0,0 l 2.48,-6.666 l 3.333,3.833" stroke-linecap="round" stroke-linejoin="round" fill="none" stroke-width="1" stroke="#9D0522" transform="translate(28.483 22.862)"/>
	
	<path d="M 23.921,10.779 c 1.076,-0.558 1.113,-0.628 2.249,-0.024 c 1.136,0.605 6.569,3.484 7.21,3.826 c 0.815,0.433 1.112,0.591 -0.449,1.421 c -1.696,0.901 -12.305,6.511 -12.931,6.822 c -0.766,0.381 -1.312,0.328 -2.207,-0.112 c -0.718,-0.352 -6.548,-3.462 -7.275,-3.875 c -0.821,-0.465 -0.483,-0.706 0.768,-1.37 c 1.251,-0.665 12.635,-6.688 12.635,-6.688 Z"  fill="#C1694F"/>
	<path d="M 34.047, 13.780 v 1.344 h-1 v -1.344 h1z"  fill="#C1694F"/>
	<path d="M 10.07, 17.038 v 1.344 h1 v -1.344 h-1z"  fill="#C1694F"/>
	
	<path d="M 23.921,10.779 c 1.076,-0.558 1.113,-0.628 2.249,-0.024 c 1.136,0.605 6.569,3.484 7.21,3.826 c 0.815,0.433 1.112,0.591 -0.449,1.421 c -1.696,0.901 -12.305,6.511 -12.931,6.822 c -0.766,0.381 -1.312,0.328 -2.207,-0.112 c -0.718,-0.352 -6.548,-3.462 -7.275,-3.875 c -0.821,-0.465 -0.483,-0.706 0.768,-1.37 c 1.251,-0.665 12.635,-6.688 12.635,-6.688 Z"  fill="#D99E82" transform="translate(0 -1.344)"/>
	
	<path d="M 12.531,16.875 l 12.313,-6.544" stroke-linecap="round" fill="none" stroke-width="1" stroke="#BF6952"/>
	<path d="M 19.246,20.325 l 12.313,-6.544" stroke-linecap="round" fill="none" stroke-width="1" stroke="#BF6952"/>
	<path d="M 17.075,19.192 l 12.313,-6.544" stroke-linecap="round" fill="none" stroke-width="1" stroke="#BF6952"/>
	<path d="M 14.840,18.060 l 12.313,-6.544" stroke-linecap="round" fill="none" stroke-width="1" stroke="#BF6952"/>
	<!-- #BF6952 and #C1694F are really close.. is that a mistake ? -->
</svg>
