<svg xmlns="http://www.w3.org/2000/svg" viewBox="0 0 36 36">
	<path d="M 6,21 c -1.105,0 -2,-0.895 -2,-2 v-15 c 0,-1.105 0.895,-1 2,-1 s 2,-0.105 2,1 c 0,0 -0.606,6.424 0,11.997 c 0.54,4.974 4,6.003 4,6.003 c 0,1.105 -4.895,-1 -6,-1 Z"  fill="#7A5C44"/>
	<path d="M 20,25.999 c -1.105,0 -2,-0.895 -2,-2 v-21 c 0,-1.105 0.895,-1 2,-1 s 2,-0.105 2,1 c 0,0 -0.446,5.108 -0.125,9.297 c 0.32,4.187 0.125,11.703 0.125,11.703 c 0,1.104 -0.895,2 -2,2 Z"  fill="#7A5C44"/>
	<path d="M 36,4 l -36,4 v-4 l 36,-2 v2 Z"  fill="#662113"/>
	<path d="M 22.644,18.406 c 1.376,-2.447 6.356,2.594 6.133,6.146 c -0.139,2.198 -0.887,4.228 -4.229,7.035 c -1.925,1.617 -5.363,3.173 -9.548,3.413 c -4.413,0.253 -7.993,-0.877 -10.101,-2.789 c -3.609,-3.275 -3.975,-11.697 -4.099,-14.035 c -0.222,-4.188 -0.178,-10.247 0.2,-12.876 c 0.235,-1.632 1.026,-2.38 2.476,-2.476 c 1.932,-0.128 3.454,-0.049 3.61,0.783 c -0.674,0.055 -2.086,0.284 -2.086,1.213 c 0,0 -0.416,4.892 0.078,9.124 c 0.624,5.346 4.322,5.525 7.129,5.881 c 0.779,0.098 1.572,0.29 2.364,0.491 c -0.161,-1.855 -0.291,-4.032 -0.315,-6.016 c -0.045,-3.653 0.597,-8.772 0.744,-10 c 0.146,-1.227 0.949,-2.301 2.402,-2.301 c 1.935,0 3.528,-0.002 3.684,0.83 c -0.674,0.055 -2.086,0.062 -2.086,0.991 c 0,0 -0.601,4.598 -0.601,8.742 c 0,2.761 0.336,5.007 0.668,6.594 c 0.285,1.358 1.015,1.484 1.417,1.443 c 0.797,-0.384 1.527,-1.067 2.16,-2.193 Z"  fill="#A78E81"/>
	<path d="M 35.025,22.671 c -2.101,3.201 -6.277,4.173 -10.759,1.232 s -5.253,-7.159 -3.152,-10.36 s 7.488,-2.584 10.384,-0.624 s 5.628,6.551 3.527,9.752 Z"  fill="#A78E81"/>
	<path d="M 33.271,23.178 c -1.5,2.287 -5.164,2.984 -9.005,0.464 s -4.419,-6.001 -2.918,-8.288 c 1.5,-2.287 4.294,-1.921 8.135,0.6 s 5.288,4.938 3.788,7.224 Z"  fill="#E2D2C7"/>
	
	<path d="M 20.565,14.564 c 2.924,-1.216 5.78,-0.288 6.115,1.328 c 0.242,1.164 -0.31,2.639 -1.956,2.981 c -1.013,0.211 -3.152,-0.32 -4.65,-0.759 c -0.186,-1.214 -0.008,-2.424 0.491,-3.55 Z"  fill="#292F33"/>
	<path d="M 34.307,23.581 c -0.834,0.906 -1.873,1.551 -3.061,1.864 c -0.999,-1.199 -2.337,-2.951 -2.548,-3.964 c -0.342,-1.646 0.792,-2.739 1.956,-2.981 c 1.617,-0.335 3.605,1.915 3.653,5.081 Z"  fill="#292F33"/>
	<path d="M 28.047,22.475 c -0.72,1.098 -2.194,1.403 -3.291,0.683 c -1.098,-0.72 -1.403,-2.194 -0.683,-3.291 c 0.72,-1.098 1.542,-0.41 2.639,0.31 s 2.055,1.2 1.335,2.298 Z"  fill="#292F33"/>
	<path d="M 27.979,25.122 c -0.024,0 -0.049,-0.002 -0.073,-0.005 c -4.479,-0.654 -6.297,-4.07 -6.372,-4.216 c -0.126,-0.244 -0.031,-0.545 0.214,-0.672 c 0.246,-0.13 0.546,-0.031 0.674,0.211 c 0.017,0.031 1.673,3.109 5.629,3.687 c 0.273,0.04 0.462,0.294 0.423,0.567 c -0.037,0.249 -0.25,0.428 -0.495,0.428 Z"  fill="#292F33"/> <!-- definitely a stroke with width 1.0 but nnhh -->
	
	<circle fill="#F5F8FA" cx="23.389" cy="16.576" r="1.188"/>
	<circle fill="#F5F8FA" cx="31.338" cy="21.792" r="1.188"/>

</svg>
