<svg xmlns="http://www.w3.org/2000/svg" viewBox="0 0 36 36">
	<rect x="0.5" y="8" width="35" height="20" fill="#CCD6DD"/>
	<rect x="0.5" y="13" width="35" height="10" fill="#E1E8ED"/>
	
	<ellipse rx="3" ry="1.5" cx="6" cy="26.5" fill="#F4900C"/>
	<ellipse rx="3" ry="1.5" cx="18" cy="26.5" fill="#F4900C"/>
	<ellipse rx="3" ry="1.5" cx="30" cy="26.5" fill="#F4900C"/>
	
	<ellipse rx="3" ry="2.5" cx="6" cy="9.5" fill="#9266CC"/>
	<ellipse rx="3" ry="2.5" cx="18" cy="9.5" fill="#9266CC"/>
	<ellipse rx="3" ry="2.5" cx="30" cy="9.5" fill="#9266CC"/>

	<path d="M 6.795,15.685 h-2.816 c -0.594,0 -0.814,-0.385 -0.814,-0.759 c 0,-0.385 0.209,-0.759 0.814,-0.759 h3.983 c 0.561,0 0.791,0.506 0.791,0.792 c 0,0.22 -0.121,0.451 -0.252,0.726 l -2.729,5.545 c -0.308,0.616 -0.429,0.836 -0.924,0.836 c -0.605,0 -0.913,-0.463 -0.913,-0.781 c 0,-0.133 0.033,-0.231 0.11,-0.385 l 2.75,-5.215 Z" fill="#BE1931"/>
	<path d="M 18.795,15.685 h-2.816 c -0.594,0 -0.814,-0.385 -0.814,-0.759 c 0,-0.385 0.209,-0.759 0.814,-0.759 h3.983 c 0.561,0 0.791,0.506 0.791,0.792 c 0,0.22 -0.121,0.451 -0.252,0.726 l -2.729,5.545 c -0.308,0.616 -0.429,0.836 -0.924,0.836 c -0.605,0 -0.913,-0.463 -0.913,-0.781 c 0,-0.133 0.033,-0.231 0.11,-0.385 l 2.75,-5.215 Z" fill="#BE1931"/>
	<path d="M 30.795,15.685 h-2.816 c -0.594,0 -0.814,-0.385 -0.814,-0.759 c 0,-0.385 0.209,-0.759 0.814,-0.759 h3.983 c 0.561,0 0.791,0.506 0.791,0.792 c 0,0.22 -0.121,0.451 -0.252,0.726 l -2.729,5.545 c -0.308,0.616 -0.429,0.836 -0.924,0.836 c -0.605,0 -0.913,-0.463 -0.913,-0.781 c 0,-0.133 0.033,-0.231 0.11,-0.385 l 2.75,-5.215 Z" fill="#BE1931"/>
	
	<path d="M 36,27 a 4,4 0 01 -4,4 h-28 a 4,4 0 01 -4,-4 v-18 a 4,4 0 01 4,-4 h28 a 4,4 0 01 4,4 v18 Z M 11,24 v-12 c 0,-2.209 -0.791,-3 -3,-3 h-4 c -2.209,0 -3,0.791 -3,3 v12 c 0,2.209 0.791,3 3,3 h4 c 2.209,0 3,-0.791 3,-3 Z M 23,24 v-12 c 0,-2.209 -0.791,-3 -3,-3 h-4 c -2.209,0 -3,0.791 -3,3 v12 c 0,2.209 0.791,3 3,3 h4 c 2.209,0 3,-0.791 3,-3 Z M 35,24 v-12 c 0,-2.209 -0.791,-3 -3,-3 h-4 c -2.209,0 -3,0.791 -3,3 v12 c 0,2.209 0.791,3 3,3 h4 c 2.209,0 3,-0.791 3,-3 Z"  fill="#31373D" />
</svg>
