<svg xmlns="http://www.w3.org/2000/svg" viewBox="0 0 36 36">
	not really finished idk..
	
	
	landing gear
	<g>
		<path d="M 25.8193,10.7305 c -0.22,0.132 -0.505,0.061 -0.637,-0.158 l -3.134,-5.201 c -0.133,-0.219 -0.063,-0.504 0.157,-0.636 l 0.061,-0.038 c 0.22,-0.132 0.505,-0.062 0.637,0.158 l 3.136,5.201 c 0.132,0.219 0.061,0.504 -0.158,0.636 l -0.062,0.038 Z" fill="#66757f"/>
		<path d="M 25.2695,10.1807 l 0.037,-0.062 c 0.133,-0.22 0.418,-0.29 0.637,-0.158 l 5.2,3.135 c 0.221,0.133 0.291,0.418 0.158,0.637 l -0.037,0.062 c -0.132,0.22 -0.417,0.29 -0.637,0.157 l -5.2,-3.135 c -0.219,-0.132 -0.29,-0.417 -0.158,-0.636 Z" fill="#66757f"/>
	</g>
	wheels
	<clipPath id="body1">
		<path d="M 3.5,20.54940 a 2,2 0 01 -2,2 h-3 a 2,2 0 01 -2,-2 v-11 c 0,-1.105 0.895,-3.66 2,-3.66 h3 c 1.105,0 2,2.555 2,3.66 v11 Z"/>
	</clipPath>
	<g transform="translate(36 0) rotate(45)">
		<rect width="2" height="4" rx="0.87249" x="-7.5" y="11.40922" fill="#292f33"/>
		<rect width="2" height="4" rx="0.82441" x="5.5" y="11.40922" fill="#292f33"/>
		s
		<g transform="translate(0.5 -0.042151)">
			<path d="M 6,39 a 1,1 0 01 1,1 v3 a 1,1 0 01 -1,1 h-13 a 1,1 0 01 -1,-1 v-3 a 1,1 0 01 1,-1 l 6,-1 h1 l 6,1 Z" fill="#be1931"/>
		</g>
		prop
		<g transform="translate(0 0.0497525)">
			<ellipse cy="6" rx="0.5" ry="2.5" fill="#be1931"/>
			<ellipse cx="-2.27" cy="5" rx="2.5" ry="0.5" fill="#be1931"/>
			<ellipse cx="2.3" cy="5" rx="2.5" ry="0.5" fill="#be1931"/>
		</g>
		body
		<path d="M 3.5,20.54940 a 2,2 0 01 -2,2 h-3 a 2,2 0 01 -2,-2 v-11 c 0,-1.105 0.895,-3.66 2,-3.66 h3 c 1.105,0 2,2.555 2,3.66 v11 Z" fill="#ccd6dd"/>
		<path d="M 3.5,21.59681 c 0,-9.891 -1.567,-10.908 -3.5,-10.908 s -3.5,1.017 -3.5,10.908 c 0,9.891 2.908,24.908 3.5,24.908 s 3.5,-15.017 3.5,-24.908 Z" fill="#ccd6dd"/>
		<g clip-path="url(#body1)">
			<rect height="7.54921" width="36" x="-18" fill="#226699"/>
		</g>
		window
		<path d="M -0.97227,15.26735 c -0.817,0 -1.556,-0.019 -2.142,0.325 v-0.085 a 2.419,2.419 0 01 2.419,-2.419 h1.39 a 2.419,2.419 0 01 2.419,2.419 v0.085 c -0.586,-0.344 -1.325,-0.325 -2.142,-0.325 h-1.944 Z" fill="#66757f"/>
		wing
		<path d="M 15.7887,17 a 2,2 0 01 2,2 l -0.29276,3.87922 l -13.32437,1.7066 h-8.34314 l -13.32437,-1.7066 l -0.29276,-3.87922 a 2,2 0 01 2,-2 h31.5774 Z" fill="#be1931"/>
		s
		<path d="M 0.42,41.263 a 0.42,5.242 0 01 -0.42,5.242 a 0.42,5.242 0 01 -0.42,-5.242 a 0.42,5.242 0 01 0.42,-5.242 a 0.42,5.242 0 01 0.42,5.242 Z" fill="#be1931"/>
		c
		<g transform="translate(0 0.95765)">
			<path d="M -2.5,41 v2 h-4 a 1,1 0 01 0,-2 h4 Z" fill="#ea596e"/>
			<path d="M 2.5,43 v-2 h4 a 1,1 0 01 0,2 h-4 Z" fill="#ea596e"/>
		</g>
	</g>
	<g>
		wha..
		<path d="M 16.5249,10.4897 l -2.205,2.205 l -6.881,-8.9 l 1.105,-1.286 l 7.981,7.981 Z" fill="#ea596e"/>
		<path d="M 33.4678,27.4326 l -1.286,1.105 l -9.44,-7.294 l 2.269,-2.269 l 8.457,8.458 Z" fill="#ea596e"/>
	</g>
</svg>
