<svg xmlns="http://www.w3.org/2000/svg" viewBox="0 0 36 36">
	landing gear
	<g>
		<path d="M 25.8193,10.7305 c -0.22,0.132 -0.505,0.061 -0.637,-0.158 l -3.134,-5.201 c -0.133,-0.219 -0.063,-0.504 0.157,-0.636 l 0.061,-0.038 c 0.22,-0.132 0.505,-0.062 0.637,0.158 l 3.136,5.201 c 0.132,0.219 0.061,0.504 -0.158,0.636 l -0.062,0.038 Z" fill="#66757f"/>
		<path d="M 25.2695,10.1807 l 0.037,-0.062 c 0.133,-0.22 0.418,-0.29 0.637,-0.158 l 5.2,3.135 c 0.221,0.133 0.291,0.418 0.158,0.637 l -0.037,0.062 c -0.132,0.22 -0.417,0.29 -0.637,0.157 l -5.2,-3.135 c -0.219,-0.132 -0.29,-0.417 -0.158,-0.636 Z" fill="#66757f"/>
	</g>
	wheels
	<clipPath id="body1">
		<path d="M 3.5,20.54940 a 2,2 0 01 -2,2 h-3 a 2,2 0 01 -2,-2 v-11 c 0,-1.105 0.895,-3.66 2,-3.66 h3 c 1.105,0 2,2.555 2,3.66 v11 Z"/>
	</clipPath>
	<g transform="translate(36 0) rotate(45)">
		<rect width="2" height="4" rx="0.87249" x="-7.5" y="11.40922" fill="#292f33"/>
		<rect width="2" height="4" rx="0.82441" x="5.5" y="11.40922" fill="#292f33"/>
		hs
		<g transform="translate(0.5 -0.042151)">
			<path d="M 6,39 a 1,1 0 01 1,1 v3 a 1,1 0 01 -1,1 h-13 a 1,1 0 01 -1,-1 v-3 a 1,1 0 01 1,-1 l 6,-1 h1 l 6,1 Z" fill="#be1931"/>
		</g>
		prop
		<g transform="translate(0 0.0497525)">
			<ellipse cy="6" rx="0.5" ry="2.5" fill="#be1931"/>
			<ellipse cx="-2.27" cy="5" rx="2.5" ry="0.5" fill="#be1931"/>
			<ellipse cx="2.3" cy="5" rx="2.5" ry="0.5" fill="#be1931"/>
		</g>
		body
		<path d="M 3.5,20.54940 a 2,2 0 01 -2,2 h-3 a 2,2 0 01 -2,-2 v-11 c 0,-1.105 0.895,-3.66 2,-3.66 h3 c 1.105,0 2,2.555 2,3.66 v11 Z" fill="#ccd6dd"/>
		<path d="M 3.5,21.59681 c 0,-9.891 -1.567,-10.908 -3.5,-10.908 s -3.5,1.017 -3.5,10.908 c 0,9.891 2.908,24.908 3.5,24.908 s 3.5,-15.017 3.5,-24.908 Z" fill="#ccd6dd"/>
		<g clip-path="url(#body1)">
			<rect height="7.54921" width="36" x="-18" fill="#226699"/>
		</g>
	</g>
	window
	<g>
		<path d="M 24.5166,10.1079 c -0.577,-0.577 -1.087,-1.113 -1.744,-1.284 l 0.06,-0.06 c 0.946,-0.945 2.478,-0.945 3.422,0 l 0.983,0.982 c 0.944,0.945 0.944,2.477 0,3.422 l -0.061,0.061 c -0.171,-0.658 -0.707,-1.168 -1.285,-1.746 l -1.375,-1.375 Z" fill="#66757f"/>
	</g>
	<g>
		<path d="M 35.1318,23.1729 c 0.781,0.781 0.781,2.049 0,2.828 l -2.95,2.537 l -10.617,-8.204 l -5.9,-5.899 l -8.226,-10.64 l 2.535,-2.95 c 0.782,-0.781 2.048,-0.781 2.829,0 l 22.329,22.328 Z" fill="#be1931"/>
	</g>
	<g>
		<path d="M 7.1191,29.4746 c -2.047,2.047 -3.84,3.573 -4.003,3.409 c -0.164,-0.163 1.362,-1.956 3.409,-4.003 c 2.048,-2.048 3.84,-3.574 4.004,-3.41 s -1.363,1.956 -3.41,4.004 Z" fill="#be1931"/>
	</g>
	<g>
		<path d="M 3.8652,27.2021 l 0.698,0.698 l -0.698,0.699 l -0.017,0.017 l -0.699,0.698 l -0.699,-0.698 l -0.715,-0.716 l -1.423,-1.423 c -0.385,-0.385 -0.385,-1.01 0,-1.397 l 0.017,-0.017 c 0.386,-0.385 1.012,-0.385 1.397,0 l 1.423,1.423 l 0.716,0.716 Z" fill="#ea596e"/>
		<path d="M 10.9277,34.2646 c 0.391,0.391 0.391,1.023 0,1.414 s -1.023,0.391 -1.415,0 l -1.44,-1.44 l -0.681,-0.681 l -0.707,-0.707 l 1.414,-1.414 l 0.707,0.707 l 0.682,0.681 l 1.44,1.44 Z" fill="#ea596e"/>
		<path d="M 16.5249,10.4897 l -2.205,2.205 l -6.881,-8.9 l 1.105,-1.286 l 7.981,7.981 Z" fill="#ea596e"/>
		<path d="M 33.4678,27.4326 l -1.286,1.105 l -9.44,-7.294 l 2.269,-2.269 l 8.457,8.458 Z" fill="#ea596e"/>
	</g>
</svg>
