<svg xmlns="http://www.w3.org/2000/svg" viewBox="0 0 36 36">
	i shifted this one down by 0.0645
	<defs>
		<path id="antenna1" d="M 0,0 c 0,1 -2,0 -1,-3 s 0.414,-5 -1,-5 c -1,0 0,-4 2,-2 s 0,6 0,10 Z" fill="#9266cc"/>
	</defs>
	<g>
		<use href="#antenna1" x="5.125" y="15.625"/>
		<use href="#antenna1" x="9" y="15.625"/>
		<path d="M 34,36 h-23 c -5,0 -7.272,-3.09 -8,-6 c -1,-4 2,-11 0,-12 s -3,-1 -3,-3 s 4.47,-5.265 7,-4 c 4,2 2.767,6.932 2,10 c -0.88,3.521 1.115,3.594 5,5 c 4.939,1.787 12.32,4.439 14,5 c 3,1 8,3 8,4 s -1,1 -2,1 Z" fill="#aa8dd8"/>
	</g>
	<g>
		<path d="M 10.9248,25 c -0.913,-0.316 4.208,-12 10.585,-12 s 11.547,4.477 11.547,10 c 0,5.521 -2.283,11 -8.66,11 c -9.623,0 -10.585,-8 -13.472,-9 Z" fill="#ffcc4d"/>
		<path d="M 24.3961,26 c 0.962,-1 0.962,-3 -0.336,-3.665 c -0.707,-0.362 -1.558,-0.076 -2.234,0.345 c -0.676,0.422 -1.153,1.092 -1.344,1.886 c -0.271,1.123 -0.103,2.288 0.469,3.282 c 0.573,0.992 1.484,1.693 2.565,1.972 c 1.474,0.385 3.005,0.147 4.31,-0.666 c 1.304,-0.812 2.225,-2.105 2.594,-3.638 c 1.015,-4.223 -1.465,-8.518 -5.528,-9.574 c -5.339,-1.386 -10.766,1.998 -12.1,7.544 c -0.259,1.073 -1.308,1.727 -2.335,1.455 c -1.03,-0.267 -1.657,-1.353 -1.399,-2.425 c 1.848,-7.686 9.375,-12.378 16.767,-10.455 c 6.123,1.591 9.86,8.062 8.329,14.425 c -0.619,2.571 -2.163,4.737 -4.347,6.098 c -1.504,0.938 -3.185,1.418 -4.893,1.418 c -0.776,0 -1.559,-0.1 -2.332,-0.301 c -2.078,-0.539 -3.828,-1.887 -4.931,-3.797 c -1.102,-1.908 -1.423,-4.148 -0.903,-6.306 c 0.44,-1.832 1.541,-3.376 3.098,-4.347 c 1.558,-0.973 3.386,-1.254 5.148,-0.797 c 1.553,0.404 2.776,1.623 3.358,3.347 c 0.576,1.707 0.082,3.244 -1.069,4.199 c -1.283,1.065 -3.639,0.781 -2.887,0 Z" fill="#ffac33"/>
	</g>
</svg>
