<svg xmlns="http://www.w3.org/2000/svg" viewBox="0 0 36 36">
	<defs>
		<g id="snowflake1" fill="#88C9F9">
			<rect width="1" height="5" rx="0.5" x="-0.5" y="-2.5" transform="rotate(56.306)"/>
			<rect width="1" height="5" rx="0.5" x="-0.5" y="-2.5" transform="rotate(-56.306)"/>
			<rect width="1" height="5" rx="0.5" x="-0.5" y="-2.5"/>
		</g>
	</defs>
	<!-- body -->
	<circle cx="18" cy="26" r="10" fill="#E1E8ED"/>
	<circle cx="18" cy="11" r="6"  fill="#E1E8ED"/>
	<!-- buttons -->
	<circle cx="18" cy="24" r="1"  fill="#414042"/>
	<circle cx="18" cy="29" r="1"  fill="#414042"/>
	<!-- eyes -->
	<circle cx="15" cy="10" r="1"  fill="#414042"/>
	<circle cx="21" cy="10" r="1"  fill="#414042"/>
	<!-- hat -->
	<g>
		<path d="M 23,7 h-10 v-5 a 2,2 0 01 2,-2 h6 a 2,2 0 01 2,2 v5 Z" fill="#414042"/>
		<rect x="11" y="6" width="14" height="2" rx="1"  fill="#231F20"/>
	</g>
	<!-- nose -->
	<circle cx="18" cy="12" r="1"  fill="#F4900C"/>
	<!-- arms -->
	<path d="M 3,21 l 2,-2 h1 l -0.5875,-3.0765 M 3,18 l 7,3" stroke-width="2" stroke-linecap="round" fill="none" stroke="#FFAC33"/>
	<path d="M 29,13 l 1,4 l 3,1 M 32,15 l -6,6" stroke-width="2" stroke-linecap="round" fill="none" stroke="#FFAC33"/>
	<!-- scarf -->
	<g>
	<rect x="13" y="16" width="3" height="10" rx="1"  fill="#DD2E44"/>
	<rect x="12" y="15" width="12" height="3" rx="1.5"  fill="#DD2E44"/>
	</g>
	<!-- snow -->
	<use href="#snowflake1" x="4" y="10.5"/>
	<use href="#snowflake1" x="4" y="27.5"/>
	<use href="#snowflake1" x="8" y="3.5"/>
	<use href="#snowflake1" x="28" y="3.5"/>
	<use href="#snowflake1" x="33" y="9.5"/>
	<use href="#snowflake1" x="32" y="24.5"/>
</svg>
