<svg xmlns="http://www.w3.org/2000/svg" viewBox="0 0 36 36">
	<circle fill="#F5F8FA" cx="18" cy="18" r="18"/>
	
	<g fill="none" stroke-width="2" stroke="#CCD6DD">
		<path d="M 18,10 L 18,3"/>
		<path d="M 11.417,14.5 L 3.3755,11.9575"/>
		<path d="M 25.042,14.2085 L 31.792,12.25"/>
		<path d="M 27.042,29.167 L 21.583,21.834"/>
		<path d="M 8.75,29.0835 L 13.875,21.7085"/>
		<path d="M 3.5,26.0625 L 1.3125,18"/>
		<path d="M 22,33 L 13,33"/>
		<path d="M 32.1255,26.1255 L 34.25,17.5"/>
		<path d="M 30.313,6.688 L 22.751,2.313"/>
		<path d="M 5.5,6.6875 L 11.6885,2.2495"/>
	</g>
	
	<!-- also check out early twemoji relases which used clip-path -->
	
	<path d="M 25.493,13.516 A 1,1 0 01 25.865,14.652 L 22.948,23.319 A 1,1 0 01 22,24 L 13.042,24 A 1,1 0 01 12.082,23.28 L 9.582,14.697 A 1,1 0 01 9.957,13.606 L 17.124,8.439 A 1,1 0 01 18.285,8.433 L 25.493,13.516 Z"   fill="#31373D"/>
	
	<path d="M 0.642,19.302 L 0.04,18.788 C 0.028,18.525 0,18.266 0,18 C 0,12.884 2.145,8.277 5.572,5 L 6,5 A 1,1 0 01 6.98,6.2 L 5.647,12.741 A 1,1 0 01 5.539,13.032 L 2.164,19.032 A 1,1 0 01 0.642,19.302 Z"    fill="#31373D"/>
	
	
	<path d="M 10.634,2.306 L 11.155,1.356 C 13.266,0.486 15.575,0 18,0 C 20.18,0 22.26,0.407 24.193,1.117 L 24.485,2.56 A 0.75,0.75 0 01 23.872,3.449 L 17.788,4.449 A 0.75,0.75 0 01 17.545,4.449 L 11.17,3.407 A 0.75,0.75 0 01 10.634,2.306 Z"    fill="#31373D"/>
	
	<path d="M 34.22,19

L 34.213,19
C 33.973,19 33.741,19.053 33.601,18.858
C 33.549,18.786 33.511,18.791 33.487,18.707
C 33.258,18.226 31.598,15.429 30.106,12.925

A 0.75,0.75 0 01 30.013,12.701
L 28.846,6.503
A 0.75,0.75 0 01 29.63,5.624
L 31.134,5.719
C 34.144,8.936 36,13.247 36,18
C 36,18.083 35.989,18.164 35.988,18.247
C 34.543,19.094 34.418,19 34.22,19 Z

"    fill="#31373D"/>
	<path d="M 14.29,33.894 L 12.79,35.227 C 8.199,33.84 4.382,30.673 2.146,26.524 C 2.636,24.565 2.794,24.5 3.331,24.5 A 0.75,0.75 0 01 3.573,24.539 C 3.645,24.564 3.754,24.6 9.639,27.669 A 0.75,0.75 0 01 9.85,27.832 L 14.35,32.832 A 0.75,0.75 0 01 14.29,33.894 Z"    fill="#31373D"/>
	<path d="M 32.784,25.236 L 33.496,27.125 C 31.196,31.023 27.479,33.977 23.042,35.271 L 21.275,33.831 A 0.75,0.75 0 01 21.175,32.769 L 25.425,27.686 A 0.75,0.75 0 01 25.699,27.481 L 31.782,24.814 A 0.75,0.75 0 01 32.784,25.236 Z"    fill="#31373D"/>
</svg>
