<svg xmlns="http://www.w3.org/2000/svg" viewBox="0 0 36 36">
	<!--<path d="M 27,19.2757 h5 v5 a 5,5 0 01 -5,5 a 5,5 0 01 -4.966,-4.667 h2.299 v-4.549 a 5,5 0 01 2.667,-0.784 Z" fill="#55acee"/>
	<path d="M 15,15.2757 h5 v5 a 5,5 0 01 -5,5 a 5,5 0 01 -4.966,-4.667 h2.299 v-4.549 a 5,5 0 01 2.667,-0.784 Z" fill="#55acee"/>-->
	
	<path d="M 23,23 l 0,-16 h9 l -0,16 h-9 Z" fill="#1c6399"/>
	<path d="M 11,19 l 0,-16 h9 l -0,16 h-9 Z" fill="#1c6399"/>
	
	<path d="M 23.6765,34.682 l -6.354,-6.354 l 6.881,-6.875 l 6.354,6.354 l -6.881,6.875 Z" fill="#1c6399"/>
	<path d="M 11.6765,30.682 l -6.354,-6.354 l 6.881,-6.875 l 6.354,6.354 l -6.881,6.875 Z" fill="#1c6399"/>
	
	<path d="M 23.6765,34.682 a 4.5,4.5 0 01 -6.364,0 a 4.5,4.5 0 01 0,-6.364 c 0,0 1.149,0.133 3.69,2.674 s 2.674,3.69 2.674,3.69 Z" fill="#55acee"/>
	<path d="M 11.6765,30.682 a 4.5,4.5 0 01 -6.364,0 a 4.5,4.5 0 01 0,-6.364 c 0,0 1.149,0.133 3.69,2.674 s 2.674,3.69 2.674,3.69 Z" fill="#55acee"/>
	
	<path d="M 30,4 a 2,2 0 01 2,2 v2 h-9 v-2 a 2,2 0 01 2,-2 h5 Z" fill="#55acee"/>
	<path d="M 18,0 a 2,2 0 01 2,2 v2 h-9 v-2 a 2,2 0 01 2,-2 h5 Z" fill="#55acee"/>
	
	<path d="M 13.75,19 h 6.25 v 1.25 a 5,5 0 01 -1.464 3.536 z" fill="#55acee"/> 1.464... = (1-sqrt(0.5))*5 ,  3.536... = sqrt(0.5)*5
	
	<path d="M 23,12 v-2 h9 v2 h-9 Z" fill="#ffcc4d"/>
	<path d="M 23,16 v-2 h9 v2 h-9 Z" fill="#ffcc4d"/>
	<path d="M 11,8 v-2 h9 v2 h-9 Z" fill="#ffcc4d"/>
	<path d="M 11,12 v-2 h9 v2 h-9 Z" fill="#ffcc4d"/>
</svg>
