<svg xmlns="http://www.w3.org/2000/svg" viewBox="0 0 36 36">
	<!--<path d="M 27,19.2757 h5 v5 a 5,5 0 01 -5,5 a 5,5 0 01 -4.966,-4.667 h2.299 v-4.549 a 5,5 0 01 2.667,-0.784 Z" fill="#55acee"/>
	<path d="M 15,15.2757 h5 v5 a 5,5 0 01 -5,5 a 5,5 0 01 -4.966,-4.667 h2.299 v-4.549 a 5,5 0 01 2.667,-0.784 Z" fill="#55acee"/>-->
	
	<path d="M 18,0 a 2,2 0 01 2,2 v2 l -4.5,4.5 l -4.5,-4.5 v-2 a 2,2 0 01 2,-2 h5 Z" fill="#55acee"/>
	<path d="M 18,0 a 2,2 0 01 2,2 v2 l -4.5,4.5 l -4.5,-4.5 v-2 a 2,2 0 01 2,-2 h5 Z" fill="#55acee" transform="translate(12 4)"/>
	
	<circle cx="8.5" cy="27.5" r="4.5" fill="#55acee"/>
	<circle cx="8.5" cy="27.5" r="4.5" fill="#55acee" transform="translate(12 4)"/>
	
	<path d="M 20,19 v 1.276 a 5,5 0 01 -5,5 L 12.5,18.276 h7 z" fill="#55acee"/>
	<path d="M 20,19 v 1.276 a 5,5 0 01 -5,5 L 12.5,18.276 h7 z" fill="#55acee" transform="translate(12 4)"/>
	
	<g fill="#1c6399">
		<rect x="11" y="4" width="9" height="15"/>
		<path d="M 11.69,30.69 s -0.133,-1.149 -2.674,-3.69 s -3.69,-2.674 -3.69,-2.674 l 6.881,-6.875 l 6.364,6.364 l -6.881,6.875 Z"/>	
	</g>
	<g fill="#1c6399" transform="translate(12 4)">
		<rect x="11" y="4" width="9" height="15"/>
		<path d="M 11.69,30.69 s -0.133,-1.149 -2.674,-3.69 s -3.69,-2.674 -3.69,-2.674 l 6.881,-6.875 l 6.364,6.364 l -6.881,6.875 Z"/>	
	</g>
	
	6.434^2 * 2 ≈ 9^2
		
	<!--<path d="M 13.75,19 h 6.25 v 1.25 a 5,5 0 01 -1.464 3.536 z" fill="#55acee"/> 1.464... = (1-sqrt(0.5))*5 ,  3.536... = sqrt(0.5)*5-->
	
	<g fill="#ffcc4d">
		<path d="M 11,8.067 v-2 h9 v2 h-9 Z"/>
		<path d="M 11,12.067 v-2 h9 v2 h-9 Z"/>
	</g>
	<g fill="#ffcc4d" transform="translate(12 4)">
		<path d="M 11,8.067 v-2 h9 v2 h-9 Z"/>
		<path d="M 11,12.067 v-2 h9 v2 h-9 Z"/>
	</g>
</svg>
