<svg xmlns="http://www.w3.org/2000/svg" viewBox="0 0 36 36">
	<defs>
		<clipPath id="cone1">
			<path d="M 17.182,23 h9.001 s -2.173,6.5 -3.169,9.752 c -0.998,3.253 -3.787,3.248 -5.423,3.248 c -0.818,0 -4.423,0.005 -5.422,-3.248 c -0.998,-3.252 -2.351,-9.752 -2.351,-9.752 h7.364 Z"/>
		</clipPath>
		<clipPath id="icecream1">
			<path d="M 19.594,4.575 c 0.463,-0.173 0.942,-0.255 1.413,-0.255 c 1.493,0 2.908,0.823 3.502,2.179 c 0.782,1.784 0.011,3.592 -1.799,4.663 s -4.835,3.069 -9.575,3.069 a 3.774,3.486 0 01 -3.774,-3.486 c 0,-1.461 0.976,-2.712 2.36,-3.229 l 7.873,-2.941 Z"/>
		</clipPath>
		<clipPath id="icecream2">
			<path d="M 20.27,8.343 c 0.601,-0.236 1.222,-0.347 1.833,-0.347 c 1.936,0 3.77,1.121 4.54,2.97 c 1.014,2.432 0.014,4.896 -2.331,6.356 s -6.272,4.182 -12.417,4.182 a 4.895,4.75 0 01 -4.895,-4.75 c 0,-1.993 1.266,-3.698 3.06,-4.402 l 10.21,-4.009 Z"/>
		</clipPath>
		<clipPath id="icecream3">
			<path d="M 13.143,3.985 s 3.379,-1.231 6.941,-1.231 c 2.374,0 1.625,1.666 1.625,1.666 s -1.087,1.196 -2.142,1.874 s -2.828,1.942 -5.597,1.942 a 2.206,2.206 0 01 -2.206,-2.206 c 0,-0.925 0.57,-1.717 1.379,-2.044 v-0.001 Z"/>
		</clipPath>
	</defs>
	cone:
	<g fill="#ffcc4d">
		<path d="M 17.1816,23 h9.001 s -2.173,6.5 -3.169,9.752 c -0.998,3.254 -3.787,3.248 -5.422,3.248 c -0.818,0 -4.424,0.006 -5.423,-3.248 c -0.998,-3.252 -2.35,-9.752 -2.35,-9.752 h7.363 Z"/>
	</g>
	shadow:
	<g clip-path="url(#cone1)" fill="#ffac33">
		<path d="M 0,28 c -5.422,0 -8.182,-1.843 -8.182,-3.5 s 2.76,-3 8.182,-3 s 8.182,1.343 8.182,3 s -2.76,3.5 -8.182,3.5 Z"/>
	</g>
	cone rim:
	<g fill="#ffcc4d">
		<path d="M 9,20 h18 v3 a 9,3 0 01 -9,3 a 9,3 0 01 -9,-3 v-3 Z"/>
		<ellipse rx="9" ry="3" cx="18" cy="20"/> this ellipse isnt really visible but, its nice to have
	</g>
	cone inside:
	<ellipse rx="8.182" ry="2.5" cx="18" cy="20.5" fill="#f4900c"/>
	ice cream:
	<g fill="#ffe8b6">
		<path d="M 28.375,17.15 c 0,2.405 -2.42,3.825 -4.791,4.225 c -5.667,0.958 -13.751,1.033 -13.751,-1.371 s 11.783,-7.208 14.188,-7.208 s 4.354,1.949 4.354,4.354 Z"/>
		<path d="M 26.644,10.966 c 1.014,2.432 0.014,4.896 -2.332,6.355 c 0,0 -6.272,4.183 -12.417,4.183 c -2.703,0 -4.895,-2.127 -4.895,-4.75 c 0,-1.993 1.267,-3.697 3.061,-4.402 l 10.209,-4.009 c 2.506,-0.983 5.36,0.191 6.374,2.623 Z"/>
		<path d="M 24.5088,6.499 c 0.782,1.784 0.011,3.592 -1.799,4.663 c 0,0 -4.835,3.068 -9.575,3.068 c -2.084,0 -3.774,-1.56 -3.774,-3.484 c 0,-1.463 0.976,-2.713 2.36,-3.23 l 7.873,-2.941 c 1.933,-0.722 4.134,0.14 4.915,1.924 Z"/>
		<path d="M 20.6943,4.9209 s -0.072,0.695 -1.128,1.373 c 0,0 -2.828,1.942 -5.597,1.942 c -1.218,0 -2.206,-0.987 -2.206,-2.206 c 0,-0.925 0.571,-1.717 1.379,-2.045 c 0,0 2.209,-0.845 5.771,-0.845 c 2.374,0 1.781,1.781 1.781,1.781 Z"/>
		<path d="M 16.9824,0.1387 c 1.781,2.375 4.156,1.177 4.751,2.959 c 0.562,1.689 -1.189,2.374 -1.189,2.374 h-4.749 s -1.782,-3.552 1.187,-5.333 Z"/>
	</g>
	ice cream shading:
	<g fill="#ffd983">
		<g clip-path="url(#icecream1)">
			<path d="M 9.167,12.3789 c 3.417,0 9.708,-1.125 16.5,-5.833 c 2.103,-1.458 3.667,0.875 2,2.458 s -14.083,7.417 -18.333,6.625 s -0.167,-3.25 -0.167,-3.25 Z"/>
		</g>
		<g clip-path="url(#icecream2)">
			<path d="M 6.792,18.3374 c 1.542,0.708 5.458,0.583 7.958,-0.125 s 11.25,-3.542 12.542,-6.667 s 2.833,-0.583 2.458,1.792 s -11.166,11.458 -16.291,10.375 s -8.334,-0.792 -8.667,-2.583 c -0.333,-1.792 2,-2.792 2,-2.792 Z"/>
		</g>
		<g clip-path="url(#icecream3)">
			<path d="M 11.5,6.5454 c 2.417,0.25 10.333,-2.292 10.5,-4.375 s 1.625,1.75 1.125,2.417 c -0.5,0.666 -9.958,5.708 -13.375,3.5 c -3.417,-2.209 1.75,-1.542 1.75,-1.542 Z"/>
		</g>
	</g>
</svg>
