<svg xmlns="http://www.w3.org/2000/svg" viewBox="0 0 36 36">
	<defs>
		<clipPath id="cone1">
			<path d="M 17.182,23 h-7.364 s 1.353,6.5 2.351,9.752 v0 c 0.999,3.253 4.604,3.248 5.422,3.248 v0 c 1.636,0 4.425,0.005 5.423,-3.248 v0 c 0.996,-3.252 3.169,-9.752 3.169,-9.752 v0 h-9.001 Z"/>
		</clipPath>
		<clipPath id="icecream1">
			<path d="M 19.594,4.575 l -7.874,2.939 l 0.001,0.002 c -1.384,0.517 -2.36,1.768 -2.36,3.229 v0 c 0,1.925 1.69,3.486 3.774,3.486 v0 c 4.74,0 9.575,-3.069 9.575,-3.069 v0 c 1.81,-1.071 2.581,-2.879 1.799,-4.663 v0 c -0.594,-1.356 -2.009,-2.179 -3.502,-2.179 v0 c -0.471,0 -0.95,0.082 -1.413,0.255 Z"/>
		</clipPath>
		<clipPath id="icecream2">
			<path d="M 20.27,8.343 l -10.211,4.008 l 0.001,0.001 c -1.794,0.704 -3.06,2.409 -3.06,4.402 v0 c 0,2.623 2.192,4.75 4.895,4.75 v0 c 6.145,0 12.417,-4.182 12.417,-4.182 v0 c 2.345,-1.46 3.345,-3.924 2.331,-6.356 v0 c -0.77,-1.849 -2.604,-2.97 -4.54,-2.97 v0 c -0.611,0 -1.232,0.111 -1.833,0.347 Z"/>
		</clipPath>
		<clipPath id="icecream3">
			<path d="M 13.143,3.985 v0.001 c -0.809,0.327 -1.379,1.119 -1.379,2.044 v0 c 0,1.219 0.987,2.206 2.206,2.206 v0 c 2.769,0 5.597,-1.942 5.597,-1.942 v0 c 1.055,-0.678 2.142,-1.874 2.142,-1.874 v0 s 0.749,-1.666 -1.625,-1.666 v0 c -3.562,0 -6.941,1.231 -6.941,1.231 Z"/>
		</clipPath>
	</defs>
	cone:
	<g fill="#ffcc4d">
		<path d="M 17.1816,23 h-7.363 s 1.352,6.5 2.35,9.752 c 0.999,3.254 4.605,3.248 5.423,3.248 c 1.635,0 4.424,0.006 5.422,-3.248 c 0.996,-3.252 3.169,-9.752 3.169,-9.752 h-9.001 Z"/>
	</g>
	shadow:
	<g clip-path="url(#cone1)" fill="#ffac33">
		<path d="M 26.1826,24.5 c 0,1.657 -2.76,3.5 -8.183,3.5 c -5.422,0 -8.181,-1.843 -8.181,-3.5 s 2.759,-3 8.181,-3 c 5.423,0 8.183,1.343 8.183,3 Z"/>
	</g>
	cone rim:
	<g fill="#ffcc4d">
		<path d="M 9,20 v3 c 0,1.657 4.03,3 9,3 s 9,-1.343 9,-3 v-3 h-18 Z"/>
		<path d="M 27,20 c 0,1.657 -4.03,3 -9,3 s -9,-1.343 -9,-3 s 4.03,-3 9,-3 s 9,1.343 9,3 Z"/> this ellipse isnt really visible but, it's nice to have
	</g>
	cone inside:
	<path d="M 26.1826,20.5 c 0,1.381 -3.664,2.5 -8.183,2.5 s -8.181,-1.119 -8.181,-2.5 s 3.662,-2.5 8.181,-2.5 s 8.183,1.119 8.183,2.5 Z" fill="#f4900c"/>
	ice cream:
	<g fill="#ffe8b6">
		<path d="M 28.375,17.1499 c 0,-2.405 -1.949,-4.354 -4.354,-4.354 s -14.188,4.803 -14.188,7.208 c 0,2.404 8.084,2.329 13.751,1.371 c 2.371,-0.4 4.791,-1.82 4.791,-4.225 Z"/>
		<path d="M 26.6436,10.9658 c -1.014,-2.432 -3.868,-3.606 -6.374,-2.623 l -10.21,4.008 l 0.001,0.001 c -1.794,0.705 -3.061,2.409 -3.061,4.402 c 0,2.623 2.192,4.75 4.895,4.75 c 6.145,0 12.417,-4.183 12.417,-4.183 c 2.346,-1.459 3.346,-3.923 2.332,-6.355 Z"/>
		<path d="M 24.5088,6.499 c -0.781,-1.784 -2.982,-2.646 -4.915,-1.924 l -7.874,2.939 l 0.001,0.002 c -1.384,0.517 -2.36,1.767 -2.36,3.23 c 0,1.924 1.69,3.484 3.774,3.484 c 4.74,0 9.575,-3.068 9.575,-3.068 c 1.81,-1.071 2.581,-2.879 1.799,-4.663 Z"/>
		<path d="M 20.6943,4.9209 s 0.593,-1.781 -1.781,-1.781 c -3.562,0 -5.771,0.845 -5.771,0.845 v0.001 c -0.808,0.327 -1.379,1.119 -1.379,2.044 c 0,1.219 0.988,2.206 2.206,2.206 c 2.769,0 5.597,-1.942 5.597,-1.942 c 1.056,-0.678 1.128,-1.373 1.128,-1.373 Z"/>
		<path d="M 16.9824,0.1387 c 1.781,2.375 4.156,1.177 4.751,2.959 c 0.562,1.689 -1.189,2.374 -1.189,2.374 h-4.749 s -1.782,-3.552 1.187,-5.333 Z"/>
	</g>
	ice cream shading:
	<g fill="#ffd983">
		<g clip-path="url(#icecream1)">
			<path d="M 9.167,12.3789 c 3.417,0 9.708,-1.125 16.5,-5.833 c 2.103,-1.458 3.667,0.875 2,2.458 s -14.083,7.417 -18.333,6.625 s -0.167,-3.25 -0.167,-3.25 Z"/>
		</g>
		<g clip-path="url(#icecream2)">
			<path d="M 6.792,18.3374 c 1.542,0.708 5.458,0.583 7.958,-0.125 s 11.25,-3.542 12.542,-6.667 s 2.833,-0.583 2.458,1.792 s -11.166,11.458 -16.291,10.375 s -8.334,-0.792 -8.667,-2.583 c -0.333,-1.792 2,-2.792 2,-2.792 Z"/>
		</g>
		<g clip-path="url(#icecream3)">
			<path d="M 11.5,6.5454 c 2.417,0.25 10.333,-2.292 10.5,-4.375 s 1.625,1.75 1.125,2.417 c -0.5,0.666 -9.958,5.708 -13.375,3.5 c -3.417,-2.209 1.75,-1.542 1.75,-1.542 Z"/>
		</g>
	</g>
</svg>
