<svg xmlns="http://www.w3.org/2000/svg" viewBox="0 0 36 36">
	<defs>
		<clipPath id="cone1">
			<path d="M 17.1816,23 h9.001 s -2.173,6.5 -3.169,9.752 c -0.998,3.254 -3.787,3.248 -5.422,3.248 c -0.818,0 -4.424,0.006 -5.423,-3.248 c -0.998,-3.252 -2.35,-9.752 -2.35,-9.752 h7.363 Z"/>
		</clipPath>
		<clipPath id="icecream1">
			<path d="M 24.5088,6.499 c 0.782,1.784 0.011,3.592 -1.799,4.663 c 0,0 -4.835,3.068 -9.575,3.068 c -2.084,0 -3.774,-1.56 -3.774,-3.484 c 0,-1.463 0.976,-2.713 2.36,-3.23 l 7.873,-2.941 c 1.933,-0.722 4.134,0.14 4.915,1.924 Z"/>
		</clipPath>
		<clipPath id="icecream2">
			<path d="M 26.644,10.966 c 1.014,2.432 0.014,4.896 -2.332,6.355 c 0,0 -6.272,4.183 -12.417,4.183 c -2.703,0 -4.895,-2.127 -4.895,-4.75 c 0,-1.993 1.267,-3.697 3.061,-4.402 l 10.209,-4.009 c 2.506,-0.983 5.36,0.191 6.374,2.623 Z"/>
		</clipPath>
		<clipPath id="icecream3">
			<path d="M 13.143,3.985 v0.001 c -0.809,0.327 -1.379,1.119 -1.379,2.044 v0 c 0,1.219 0.987,2.206 2.206,2.206 v0 c 2.769,0 5.597,-1.942 5.597,-1.942 v0 c 1.055,-0.678 2.142,-1.874 2.142,-1.874 v0 s 0.749,-1.666 -1.625,-1.666 v0 c -3.562,0 -6.941,1.231 -6.941,1.231 Z"/> <!-- special-->
		</clipPath>
	</defs>
	<g>
		cone:
		<g clip-path="url(#cone1)">
			<rect width="36" height="36" fill="#FFCC4D"/>
			<path d="M 18,28 c -5.422,0 -8.182,-1.843 -8.182,-3.5 s 2.76,-3 8.182,-3 s 8.182,1.343 8.182,3 s -2.76,3.5 -8.182,3.5 Z" fill="#ffac33"/>
		</g>
		cone rim:
		<g fill="#ffcc4d">
			<g>
				<ellipse rx="9" ry="3" cx="18" cy="23"/>
				<rect width="18" height="3" x="9" y="20"/>
			</g>
		</g>
		<g>
			<ellipse rx="9" ry="3" cx="18" cy="20" fill="#ffcc4d"/> this ellipse isnt really visible but, its nice to have
			cone inside:
			<ellipse rx="8.182" ry="2.5" cx="18" cy="20.5" fill="#f4900c"/>
		</g>
	</g>
	<g>
		ice cream:
		<g fill="#ffe8b6">
			<path d="M 28.375,17.15 c 0,2.405 -2.42,3.825 -4.791,4.225 c -5.667,0.958 -13.751,1.033 -13.751,-1.371 s 11.783,-7.208 14.188,-7.208 s 4.354,1.949 4.354,4.354 Z"/>
			<path d="M 26.644,10.966 c 1.014,2.432 0.014,4.896 -2.332,6.355 c 0,0 -6.272,4.183 -12.417,4.183 c -2.703,0 -4.895,-2.127 -4.895,-4.75 c 0,-1.993 1.267,-3.697 3.061,-4.402 l 10.209,-4.009 c 2.506,-0.983 5.36,0.191 6.374,2.623 Z"/>
			<path d="M 24.5088,6.499 c 0.782,1.784 0.011,3.592 -1.799,4.663 c 0,0 -4.835,3.068 -9.575,3.068 c -2.084,0 -3.774,-1.56 -3.774,-3.484 c 0,-1.463 0.976,-2.713 2.36,-3.23 l 7.873,-2.941 c 1.933,-0.722 4.134,0.14 4.915,1.924 Z"/>
			<path d="M 20.6943,4.9209 s -0.072,0.695 -1.128,1.373 c 0,0 -2.828,1.942 -5.597,1.942 c -1.218,0 -2.206,-0.987 -2.206,-2.206 c 0,-0.925 0.571,-1.717 1.379,-2.045 c 0,0 2.209,-0.845 5.771,-0.845 c 2.374,0 1.781,1.781 1.781,1.781 Z"/>
			<path d="M 16.9824,0.1387 c 1.781,2.375 4.156,1.177 4.751,2.959 c 0.562,1.689 -1.189,2.374 -1.189,2.374 h-4.749 s -1.782,-3.552 1.187,-5.333 Z"/>
		</g>
		
		ice cream shading:
		<g fill="#ffd983">
			<g clip-path="url(#icecream1)">
				<path d="M 9.167,12.3789 c 3.417,0 9.708,-1.125 16.5,-5.833 c 2.103,-1.458 3.667,0.875 2,2.458 s -14.083,7.417 -18.333,6.625 s -0.167,-3.25 -0.167,-3.25 Z"/>
			</g>
			<g clip-path="url(#icecream2)">
				<path d="M 6.792,18.3374 c 1.542,0.708 5.458,0.583 7.958,-0.125 s 11.25,-3.542 12.542,-6.667 s 2.833,-0.583 2.458,1.792 s -11.166,11.458 -16.291,10.375 s -8.334,-0.792 -8.667,-2.583 c -0.333,-1.792 2,-2.792 2,-2.792 Z"/>
			</g>
			<g clip-path="url(#icecream3)">
				<path d="M 11.5,6.5454 c 2.417,0.25 10.333,-2.292 10.5,-4.375 s 1.625,1.75 1.125,2.417 c -0.5,0.666 -9.958,5.708 -13.375,3.5 c -3.417,-2.209 1.75,-1.542 1.75,-1.542 Z"/>
			</g>
		</g>
	</g>
</svg>
