<svg xmlns="http://www.w3.org/2000/svg" viewBox="0 0 36 36">
	some paths are approx but very close
	<g>
		colors changed:
		<ellipse rx="18" ry="10" cx="18" cy="24" fill="#99AAB5"/>
		<ellipse rx="18" ry="10" cx="18" cy="22" fill="#E1E8ED"/>
	</g>
	
	<g>
		<ellipse rx="14.8" ry="7.611" cx="18" cy="21.611" fill="#ffcc4d"/>
		<g stroke-width="2" stroke="#ffe8b6" stroke-linecap="round" stroke-linejoin="round" fill="none">
			<path d="M 11,26 c 4,0 6,-4 2,-5 c -2.755,-0.689 -4,2 -6,0 c -1.581,-1.581 2,-4 4,-4"/>
			<path d="M 17,27 c 6,0 10.348,-1.348 13,-4"/>
			<path d="M 29,19 c 0,1 -5,5 -9,4 s 1,-3 4,-4 c 2.125,-0.707 -1,-3 -4,-3 s -4.3,0.3 -5,1"/>
		</g>
	</g>
	
	<g>
		<path d="M 27,20.5 c 0,2.485 -2.029,5.5 -7,5.5 s -4,-2 -12,-5 c -3.376,-1.266 5.029,-5 10,-5 a 9,4.5 0 01 9,4.5 Z" fill="#dd2e44"/>
		<g stroke-width="2" stroke="#ea596e" stroke-linecap="round" stroke-linejoin="round" fill="none">
			<path d="M 11,21 c 1.789,-0.894 4,-1 5,0 c 0.707,0.707 0.5,1.5 0,2"/>
			<path d="M 16,17 c 1,1 2,2 4,2 c 1,0 3,0 4,-1"/>
			<path d="M 20,23 c 2,0 5,-1 6,-2"/>
		</g>
	</g>
	
	<g>
		<path d="M 13,5 c 1,8 3,12 4,14" stroke-width="2" stroke="#ffac33" stroke-linecap="round" stroke-linejoin="round" fill="none"/>
		fork
		<path d="M 35.125,11.042 c 0.359,0.223 0.344,1.912 0.079,2.396 c -0.265,0.485 -1.351,1.541 -1.837,1.276 l -14.804,-6.592 c -0.017,-0.009 -0.029,-0.023 -0.045,-0.033 c -0.269,0.08 -0.57,0.203 -0.903,0.343 c -0.938,0.395 -2.136,0.9 -3.792,0.9 c -1.393,0 -2.663,-1.252 -4.823,-2.332 c -0.494,-0.247 -1.247,-0.506 -1,-1 s 0.951,-0.143 1.447,0.105 c 3.149,1.575 5.015,1.35 6.434,0.86 c -2.267,-0.693 -6.395,-2.134 -6.839,-2.34 c -0.542,-0.25 -0.5,-0.583 -0.042,-0.625 c 0.744,-0.067 4.827,0.528 7.485,1.455 c -2.187,-2.311 -4.427,-2.425 -6.132,-2.487 c -0.161,-0.006 -1.201,0.049 -1.186,-0.343 c 0.014,-0.405 0.583,-0.634 0.833,-0.625 c 2.319,0.084 6.534,-0.77 9.885,4.539 l 15.24,4.503 Z" fill="#99aab5"/>
		<path d="M 13,5 c -4,5 -1,12 0,13" stroke-width="2" stroke="#ffac33" stroke-linecap="round" stroke-linejoin="round" fill="none"/>
	</g>
</svg>
