<svg xmlns="http://www.w3.org/2000/svg" viewBox="0 0 36 36">
	<rect x="0" y="0" width="36" height="36" rx="4"  fill="#269"/>
	
	<g fill="none" stroke-width="2" stroke="#FFCC4D">
		<path d="M 18,21 l 7.834,-13"/>
		<path d="M 18,21 l 8.917,-6.5" stroke-linecap="round"/>
		<path d="M 18,21 l 13.834,-1.5"/>
		<path d="M 18,21 l 12.3335,4.083" stroke-linecap="round"/>
		<path d="M 18,21 l 11.708,10.375"/>
		<path d="M 18,21 l 3.2265,11.8565"/>
		<path d="M 18,21 l -3,9" stroke-linecap="round"/>
		<path d="M 18,21 l -13.25,10.5"/>
		<path d="M 18,21 l -12.333,1.4165" stroke-linecap="round"/>
		<path d="M 18,21 l -14.5,-6.917"/>
		<path d="M 18,21 l -10.6665,-15.167"/>
	</g>
	
	<path d="M 20,0 v19 a 2,2 0 01 -2,2 a 2,2 0 01 -2,-2 v-19 h4 Z" fill="#55ACEE"/>
	
	<g fill="#F5F8FA">
		<circle r="3" cx="18" cy="21"/>
		
		<circle r="1.75" cx="25.917" cy="8"/>
		<circle r="2.2085" cx="32.12525" cy="19.41625"/>
		<circle r="2.958" cx="29.708" cy="31.375"/>
		<circle r="1.606" cx="21.227" cy="32.856"/>
		<circle r="2.35925" cx="4.60365" cy="31.6943"/>
		<circle r="1.75" cx="3.0771" cy="13.917"/>
		<circle r="2.83325" cx="6.91675" cy="5.167"/>
	</g>
</svg>
