<svg xmlns="http://www.w3.org/2000/svg" viewBox="0 0 36 36">
	<!-- todo: these could be rendered using strokes, and also why are they asymmetrical? -->
	<path d="M 34.3467,16.8931 a 1,1 0 01 0,1.875 l -8.896,3.293 l -3.324,11.223 a 1,1 0 01 -1.918,0 l -3.323,-11.223 l -8.896,-3.293 a 1,1 0 01 0,-1.875 l 8.9,-3.294 l 3.322,-10.891 a 1,1 0 01 1.912,0 l 3.323,10.891 l 8.9,3.294 Z" fill="#FFAC33"/> <!-- #AA8ED6 -->
	<path d="M 14.3472,27.8936 a 1,1 0 01 0,1.875 l -2.301,0.853 l -0.907,3.622 a 1,1 0 01 -1.94,0 l -0.907,-3.622 l -2.301,-0.853 a 1,1 0 01 0,-1.875 l 2.313,-0.856 l 0.9,-3.3 a 1,1 0 01 1.93,0 l 0.9,3.3 l 2.313,0.856 Z" fill="#FFCC4D"/> <!-- #FCAB40 -->
	<path d="M 10.0093,6.231 a 1,1 0 01 0,1.876 l -2.365,0.875 l -0.875,2.365 a 1,1 0 01 -1.876,0 l -0.876,-2.365 l -2.364,-0.875 a 1,1 0 01 0,-1.876 l 2.364,-0.875 l 0.876,-2.365 a 1,1 0 01 1.876,0 l 0.875,2.365 l 2.365,0.875 Z" fill="#FFCC4D"/> <!-- #5DADEC -->
</svg>
