<svg xmlns="http://www.w3.org/2000/svg" viewBox="0 0 36 36">
	<path d="M 18,6.094 a 9.868,9.868 0 01 8.017,-4.129 a 9.868,9.868 0 01 9.868,9.868 c 0,0.772 -0.098,1.52 -0.268,2.241 c -1.369,8.512 -10.834,17.494 -17.617,19.96 c -6.783,-2.466 -16.248,-11.448 -17.619,-19.96 c -0.168,-0.721 -0.266,-1.469 -0.266,-2.241 a 9.868,9.868 0 01 9.868,-9.868 a 9.868,9.868 0 01 8.017,4.129 Z" fill="#DD2E44"/>
	<path d="M 34.347,23.893 a 1,1 0 01 0,1.876 l -3.824,1.416 l -1.416,3.824 a 1,1 0 01 -1.876,0 l -1.416,-3.824 l -3.824,-1.416 a 1,1 0 01 0,-1.876 l 3.824,-1.416 l 1.416,-3.824 a 1,1 0 01 1.876,0 l 1.416,3.824 l 3.824,1.416 Z" fill="#FDCB58"/>
	<path d="M 11.347,7.893 a 1,1 0 01 0,1.876 l -2.365,0.876 l -0.876,2.365 a 1,1 0 01 -1.876,0 l -0.876,-2.365 l -2.365,-0.876 a 1,1 0 01 0,-1.876 l 2.365,-0.876 l 0.876,-2.365 a 1,1 0 01 1.876,0 l 0.876,2.365 l 2.365,0.876 Z" fill="#FDCB58"/>
</svg>
