<svg xmlns="http://www.w3.org/2000/svg" viewBox="0 0 36 36">
	motor shaft
	<path d="M 33,27 h-2 l 1,-8 h2 l -1,8 Z" fill="#5c913b"/>
	<g>
		hull
		<path d="M 1,14 c 9.055,0.053 11,1 17,2 c 2.959,0.493 7,1 11,1 c 2,0 4,1 4,4 c 0,2 0.534,3.186 -5.433,3.814 c -3.977,0.419 -14.567,-1.814 -18.567,-3.814 c -6,-3 -9,-7.006 -8,-7 Z" fill="#dd2e44"/>
	</g>
	water 1
	<rect width="36" height="12" x="0" y="24" fill="#55acee"/>
	<g>
		stripe
		<path d="M 30.5918,24.3223 c -1.187,-0.019 -2.458,-0.173 -3.716,-0.33 c -6.421,-0.803 -13.199,-2.208 -19.905,-4.109 c -1.984,-1.194 -3.525,-2.444 -4.568,-3.484 c 8.24,2.673 16.761,4.613 24.721,5.609 c 2.187,0.273 4.623,0.572 5.886,-0.047 c -0.015,1.054 -0.296,1.822 -2.418,2.361 Z" fill="#a0041e"/>
		top
		<path d="M 5,13 c 4,0 11,0 18,1 s 10,1 10,3 v3 c 0,1.414 -6.869,0.447 -10,0 c -7,-1 -14,-3 -18,-4 c -4.047,-1.011 -7,-3 0,-3 Z" fill="#ffcc4d"/>
	</g>
	<g>
		motor
		<path d="M 34,16 c 1.104,0 2,1.896 2,3 s -0.896,1 -2,1 h-1 v-1 a 1,1 0 00 -1,-1 h-1 a 2,2 0 01 2,-2 h1 Z" fill="#5c913b"/>
	</g>
	<g>
		inside
		<path d="M 30,16 c 0.97,0.243 0,2 -1,3 s -10,-1 -10,-1 l 2,-3 s 5,0 9,1 Z" fill="#c1694f"/>
		<path d="M 29,19 c -1,1 -10,-1 -10,-1 l 1.293,-1.939 c 1.086,-0.051 2.278,-0.015 3.527,0.127 c 2.45,0.279 4.605,0.901 6.079,1.665 c -0.254,0.41 -0.571,0.819 -0.899,1.147 Z" fill="#a0041e"/>
		seat
		<!--from <ellipse cx="23" cy="17" rx="1" ry="3" fill="#292f33"/>-->
		<path d="M 22,17 a 1,3 0 01 2,0 a 1,3 0 01 -0.241,1.933 c -0.557,-0.057 -1.09,-0.15 -1.592,-0.278 a 1,3 0 01 -0.167,-1.655 Z" fill="#292f33"/>
		windshield
		<path d="M 21,15 l -2,3 l -4,-1 l 2,-2 l 4,-1 v1 Z" fill="#55acee"/>
	</g>
	
	water 2
	<path d="M 12,24 c 3,-2 7,-5 6,-3 s -1,3 1,2 c 2,-1 5,-2 4,0 s 2,1 3,0 s 4,0 3,1 s -9,2 -12,2 s -5,-2 -5,-2 Z" fill="#55acee"/>
</svg>
