<svg xmlns="http://www.w3.org/2000/svg" viewBox="0 0 36 36">
	<g class="toodark">
		<g fill="none" stroke="#31373D" stroke-width="2" stroke-linecap="round">
			<!-- strokes are directly from older release -->
			<path d="M 8,2 c -0.042,5.625 3,11 7,14"/>
			<path d="M 16,18 c -2,0 -9,-1 -12,-8"/>
			<path d="M 16,20 c -1,0 -9,-1 -12,8"/>
			<path d="M 16,20 c -5,3 -8,11 -8,15"/>
			<path d="M 28,2 c 0.042,5.625 -3,11 -7,14"/>
			<path d="M 20,18 c 2,0 9,-1 12,-8"/>
			<path d="M 20,20 c 1,0 9,-1 12,8"/>
			<path d="M 20,20 c 5,3 8,11 8,15"/>
			
			<path d="M 15,10 c 0,1 0,2 1,3"/>
			<path d="M 21,10 c 0,1 0,2 -1,3"/>
		</g>
		<g>
			<path d="M 24,25.208 c 0,3.751 -2.688,6.792 -6,6.792 c -3.314,0 -6,-3.041 -6,-6.792 s 2.686,-6.792 6,-6.792 c 3.312,0 6,3.041 6,6.792" fill="#31373D"/>
			<path d="M 22,17 c 0,3.314 -1.79,6 -4,6 c -2.208,0 -4,-2.686 -4,-6 s 1.792,-6 4,-6 c 2.21,0 4,2.686 4,6" fill="#31373D"/>
		</g>
	</g>
</svg>
