<svg xmlns="http://www.w3.org/2000/svg" viewBox="0 0 36 36">
	<defs>
		<path id="ring1" d="M 8.543,7.083 c 0.064,0.579 -0.4,1.302 -1.159,1.026 c -1.525,-0.554 -2.57,-2.072 -2.57,-3.925 c 0,-2.186 1.567,-4.005 3.5,-4.005 c 1.921,0 3.476,1.821 3.497,3.821 h-1.997 c 0,-1 -0.67,-1.905 -1.5,-1.905 c -0.829,0 -1.5,0.99 -1.5,2.095 c 0,0.869 0.515,1.57 1,1.876 c 0.355,0.225 0.674,0.538 0.729,1.017 Z"/>
	</defs>
	<g fill="#66757f">
	<path d="M 9.814,4 l 0.998,-0.998 l 0.999,0.998 v2.391 h-1.997 v-2.391 Z"/>
	<path d="M 15.814,4 l 0.998,-0.998 l 0.999,0.998 v2.391 h-1.997 v-2.391 Z"/>
	<path d="M 21.814,4 l 0.998,-0.998 l 0.999,0.998 v2.391 h-1.997 v-2.391 Z"/>
	<path d="M 27.814,4 l 0.998,-0.998 l 0.999,0.998 v2.391 h-1.997 v-2.391 Z"/>
	</g>
	<g>
		<rect width="28" height="32" rx="4" x="5" y="4" fill="#55acee"/>
		<rect width="28" height="32" rx="4" x="3" y="4" fill="#ccd6dd"/>
		<g fill="#99aab5">
			<rect width="22" height="2" rx="1" x="6" y="14"/>
			<rect width="22" height="2" rx="1" x="6" y="19"/>
			<rect width="22" height="2" rx="1" x="6" y="24"/>
			<rect width="14" height="2" rx="1" x="6" y="29"/>
		</g>
	</g>
	<g fill="#292f33">
		<ellipse rx="1.2705" ry="1.4895" cx="7.8354" cy="7.241"/>
		<ellipse rx="1.2705" ry="1.4895" cx="13.8354" cy="7.241"/>
		<ellipse rx="1.2705" ry="1.4895" cx="19.8354" cy="7.241"/>
		<ellipse rx="1.2705" ry="1.4895" cx="25.8354" cy="7.241"/>
	</g>
	<g fill="#66757f">
		<use href="#ring1" x="0"/>
		<use href="#ring1" x="6"/>
		<use href="#ring1" x="12"/>
		<use href="#ring1" x="18"/>
	</g>
</svg>
