<svg xmlns="http://www.w3.org/2000/svg" viewBox="0 0 36 36">
	TODO: this consists of several scaled copies of the same shape
	
	<defs>
		<clipPath id="shell1">
			<path d="M 24.83,5.471 c 0.221,-0.028 0.441,-0.042 0.658,-0.042 c 2.622,0 4.858,2.033 5.254,5.955 c 0.426,4.252 -10.359,21.297 -13.752,21.724 c -2.175,0.274 -5.547,-2.28 -5.913,-5.912 l -1.329,-13.157 c -0.366,-3.629 1.687,-6.873 4.585,-7.239 l 10.497,-1.329 Z"/>
		</clipPath>
		<clipPath id="shell2">
			<path d="M 16.668,1.773 c 0.165,-0.021 0.328,-0.031 0.49,-0.031 c 1.945,0 3.602,1.507 3.896,4.418 c 0.318,3.154 -7.686,15.799 -10.204,16.119 c -1.612,0.201 -4.115,-1.694 -4.387,-4.39 l -0.986,-9.758 c -0.271,-2.693 1.252,-5.1 3.402,-5.373 l 7.789,-0.985 Z"/>
		</clipPath>
	</defs>
	
	<path d="M 29.0488,7.0327 c 4.423,4.424 5.71,21.367 1.289,25.788 c -4.425,4.424 -12.185,3.783 -16.607,-0.64 c -2.979,-2.979 -3.834,-10.952 0.589,-15.377 c 4.424,-4.421 10.306,-14.194 14.729,-9.771 Z" fill="#ccd6dd"/>
	<path d="M 16.9897,33.1084 c -2.175,0.273 -5.546,-2.28 -5.913,-5.912 l -1.329,-13.157 c -0.366,-3.63 1.687,-6.873 4.586,-7.24 l 10.496,-1.328 c 2.898,-0.365 5.483,1.666 5.912,5.912 c 0.426,4.252 -10.359,21.297 -13.752,21.725 Z" fill="#ccd6dd"/>
	<g clip-path="url(#shell1)">
		<path d="M 10.3491,26.4678 c -2.174,0.274 -5.548,-2.282 -5.915,-5.914 l -1.327,-13.154 c -0.367,-3.632 1.686,-6.875 4.584,-7.243 l 10.498,-1.327 c 2.898,-0.366 5.483,1.665 5.912,5.911 c 0.428,4.254 -10.359,21.299 -13.752,21.727 Z" fill="#99aab5"/>
	</g>
	<path d="M 10.8501,22.2783 c -1.613,0.202 -4.115,-1.693 -4.388,-4.389 l -0.985,-9.758 c -0.272,-2.694 1.252,-5.1 3.402,-5.374 l 7.788,-0.984 c 2.151,-0.272 4.069,1.234 4.387,4.386 c 0.318,3.155 -7.686,15.8 -10.204,16.119 Z" fill="#ccd6dd"/>
	<g clip-path="url(#shell2)">
		<path d="M 5.3511,16.7793 c -1.612,0.204 -4.114,-1.693 -4.387,-4.387 l -0.985,-9.759 c -0.272,-2.695 1.251,-5.101 3.401,-5.375 l 7.788,-0.983 c 2.151,-0.273 4.069,1.232 4.388,4.386 c 0.317,3.156 -7.687,15.8 -10.205,16.118 Z" fill="#99aab5"/>
	</g>
	<path d="M 6.2471,12.8057 c -0.993,0.125 -2.533,-1.043 -2.701,-2.702 l -0.606,-6.006 c -0.167,-1.659 0.77,-3.14 2.093,-3.308 l 4.795,-0.606 c 1.324,-0.168 2.503,0.759 2.699,2.699 c 0.197,1.943 -4.732,9.725 -6.28,9.923 Z" fill="#ccd6dd"/>
	<path d="M 30.6094,14.3965 c 0.801,2.371 1.545,11.57 -1.532,15.543 c -3.079,3.972 -8.043,-1.389 -5.312,-6.205 c 2.73,-4.815 6.035,-11.734 6.844,-9.338 Z" fill="#66757f"/>
</svg>
