<svg xmlns="http://www.w3.org/2000/svg" viewBox="0 0 36 36">
	<g>
		<rect width="3" height="8" rx="1" x="33" y="17" fill="#292f33"/>
	</g>
	<g>
		<path d="M 5,31 l -4,-1 s -1,-0.424 -1,-2.043 s 1,-1.957 1,-1.957 v-3 c 0,-3 4,-4 4,-4 l 4,-1 s 3,-7 6,-7 h14 c 4,0 3,6 4,7 s 1,7 1,9 c 0,3 -2,4 -3,4 h-26 Z" fill="#3b88c3"/>
		<rect width="25" height="3" rx="1.5" x="7" y="22" fill="#55acee"/>
	</g>
	<g fill="#bbddf5">
		<rect width="6" height="5" rx="1" x="24" y="13"/>
		<path d="M 13,17 c 0,-1 2,-4 3,-4 h5 a 1,1 0 01 1,1 v3 a 1,1 0 01 -1,1 h-7 c -0.552,0 -1,0 -1,-1 Z"/>
	</g>
	<g>
		<circle r="4" cx="9" cy="31" fill="#292f33"/>
		<circle r="4" cx="27" cy="31" fill="#292f33"/>
		<circle r="2" cx="9" cy="31" fill="#ccd6dd"/>
		<circle r="2" cx="27" cy="31" fill="#ccd6dd"/>
	</g>
</svg>
