<svg xmlns="http://www.w3.org/2000/svg" viewBox="0 0 36 36">
	whale
	<g>
		<path d="M 32,12 c 2.122,-2.122 5,14.313 -3,21 c -2.757,2.305 -6,2.969 -8,2.969 c -2.371,0 -10.029,0.031 -13,0.031 c -7.18,0 -8,-4.925 -8,-11 s 0.82,-11 8,-11 c 6,0 10,2 13,3.996 c 4.977,3.312 5.992,3.861 8,2.004 c 3.213,-2.97 1,-6 3,-8 Z" fill="#3B88C3"/>
		<path d="M 32,14 c -4,0 -6,-3 -7,-5 s 3,1 6,0 s 5,-4 5,-2 s 0.123,7 -4,7 Z" fill="#3B88C3"/>
		<path d="M 15,33 c 14,0 17,-5 19.003,-10 c -0.465,3.727 -2.041,7.523 -5.003,10 c -2.757,2.305 -6,2.969 -8,2.969 c -2.371,0 -10.029,0.031 -13,0.031 c -4.035,0 -6.061,-1.555 -7.062,-3.996 c -0.781,-1.902 3.062,0.996 14.062,0.996 Z" fill="#88C9F9"/> Originally this emoji was colored Deep Purple + Light Purple. Later it was changed to Deep Blue + *Blue*. Ive changed it to Light Blue which seems like an obvious better choice.
		<circle r="1.5" cx="6.5" cy="25.5" fill="#292f33"/>
	</g>
	
	water
	<g fill="#55acee">
		<path d="M 10,7 c 0,2.209 -0.896,6 -2,6 s -2,-3.791 -2,-6 s 0.896,-2 2,-2 s 2,-0.209 2,2 Z"/>
		<path d="M 8,5 s -1,5 -2,3 s -4,-1 -4,-3 s 6,-3 6,0 Z"/>
		<path d="M 8,5 c 0,-3 6,-2 6,0 s -3,1 -4,3 s -2,-3 -2,-3 Z"/>
	</g>
</svg>
