<svg xmlns="http://www.w3.org/2000/svg" viewBox="0 0 36 36">
	<g fill="#be1931">
		<path d="M 13,15.8672 l 7.552,6.544 s -0.851,0 -1.701,0.851 c -3.008,3.006 -8.507,4.252 -11.059,3.402 c -2.552,-0.851 -1.702,-3.402 0.851,-2.552 c 2.551,0.851 6.909,-3.991 4.357,-8.245 Z"/>
		<path d="M 23,15.8672 c -2.552,4.254 1.806,9.096 4.357,8.245 c 2.553,-0.85 3.404,1.701 0.851,2.552 c -2.552,0.85 -8.052,-0.396 -11.059,-3.402 c -0.85,-0.851 -1.701,-0.851 -1.701,-0.851 l 7.552,-6.544 Z"/>
	</g>
	<g fill="#ea596e">
		<path d="M 18,0 s 13,5 13,11 s -13,14 -13,14 s -13,-8 -13,-14 s 13,-11 13,-11 Z"/>
	</g>
	<g fill="#ea596e">
		<path d="M 9,17 l 7.989,8.814 s -0.851,0 -1.701,0.85 c -3.008,3.008 -8.507,4.254 -11.059,3.403 c -2.553,-0.85 -1.702,-3.403 0.85,-2.552 s 6.473,-6.261 3.921,-10.515 Z"/>
		<path d="M 27,17 c -2.553,4.254 1.368,11.366 3.921,10.515 c 2.552,-0.851 3.402,1.702 0.85,2.552 c -2.552,0.851 -8.051,-0.395 -11.059,-3.403 c -0.851,-0.85 -1.701,-0.85 -1.701,-0.85 l 7.989,-8.814 Z"/>
	</g>
	<path d="M 18,0 s 9,6 9,11 c 0,3.833 -9,12 -9,12 s -9,-8.167 -9,-12 c 0,-5 9,-11 9,-11 Z" fill="#f4abba"/>
	<path d="M 25,21 c -1,6 3.599,12.124 5.921,11.35 c 2.552,-0.851 3.402,2.552 0.851,3.402 c -2.552,0.851 -7.07,-0.533 -10.208,-3.402 c -1.863,-1.702 -3.564,-1.702 -3.564,-1.702 s -1.701,0 -3.563,1.702 c -3.14,2.869 -7.656,4.253 -10.208,3.402 c -2.553,-0.85 -1.702,-4.253 0.85,-3.402 c 2.322,0.774 6.921,-5.35 5.921,-11.35 c -2,-5 4,-7.482 4,-9.983 c 0,-6.108 1.969,-9.735 2.969,-9.735 s 3.031,3.627 3.031,9.735 c 0,2.501 6,4.983 4,9.983 Z" fill="#f4abba"/>
	<circle r="2.5" cx="14.5" cy="23.5" fill="#292f33"/>
	<circle r="2.5" cx="21.5" cy="23.5" fill="#292f33"/>
</svg>
