<svg xmlns="http://www.w3.org/2000/svg" viewBox="0 0 36 36">
	<rect x="0" y="0" width="36" height="36" rx="4"  fill="#88C9F9"/>
	<path d="M 26.496,9.174 c 0.885,0.767 1.671,1.644 2.322,2.622 l 7.182,-1.796 v2 l -5.818,2.494 c 0.519,1.406 0.818,2.919 0.818,4.506 c 0,0.081 0.004,0.187 0.008,0.287 l 4.992,0.713 v2 h-4.769 c 0.352,3.233 1.06,7.871 1.769,10 c 0.447,1.342 -0.821,1.632 -1,2 c -0.465,0.956 0,2 0,2 h-28 s -4,0 -4,-4 v-18 s 1,2.001 2,5 c 0.079,0.237 0.157,0.456 0.235,0.681 l 2.748,-0.393 c 0.004,-0.097 0.016,-0.19 0.017,-0.288 c 0,-1.587 0.298,-3.1 0.819,-4.506 l -5.819,-2.494 v-2 l 7.181,1.796 c 0.667,-0.999 1.47,-1.895 2.38,-2.673 l -4.561,-9.123 h2 l 5.445,7.26 c 1.144,-0.543 2.378,-0.921 3.676,-1.109 l 0.879,-6.151 h2 l 0.879,6.151 c 1.323,0.192 2.579,0.582 3.741,1.141 l 6.38,-7.292 h2 l -5.504,9.174 Z M 4,24 s 0.319,-0.819 0.597,-2 h-1.483 c 0.514,1.253 0.886,2 0.886,2 Z"   fill="#157569"/>
	<path d="M 7,18 s 1,-2 4,-4 s 6,-2 6,-3 s -2,-2 -6,1 c -3.578,2.684 -4,6 -4,6 Z"  fill="#3FC9B9"/>
	<path d="M 29,18 s -0.423,-3.316 -4,-6 c -4,-3 -6,-2 -6,-1 c 0,1 3,1 6,3 s 4,4 4,4 Z"  fill="#3FC9B9"/>
	<path d="M 18,14 c 6,0 8,4 8,4 s -2,-2 -4,-2 s -2,2 -2,2 v2 c 0,1 -2,1 -2,1 s -2,0 -2,-1 v-2 s 0,-2 -2,-2 s -4,2 -4,2 s 2,-4 8,-4 Z M 23,20 c 2,0 4,-1 4,-1 s 0,9 -2,10 c -1.265,0.633 -4,-1 -7,-1 s -5.735,1.633 -7,1 c -2,-1 -2,-10 -2,-10 s 2,1 4,1 s 2,-1 2,-1 s 0.082,2.815 1,4 h4 c 0.917,-1.185 1,-4 1,-4 s 0,1 2,1 Z M 15,25 h6 s -1,-1 -3,-1 s -3,1 -3,1 Z"   fill="#3FC9B9"/>
	<path d="M 2,23 s 3,7 6,9 c 2.456,1.638 7.31,2.605 9.379,4 h-1.154 c -2.857,-1.281 -7.824,-3.101 -9.225,-1 c -1.474,2.211 -2,-1 -2,-2 s 0,-4 -2,-1 c -0.785,1.177 -2,-4 -1,-9 Z"  fill="#3FC9B9"/>
</svg>
