<svg xmlns="http://www.w3.org/2000/svg" viewBox="0 0 36 36">
	<defs>
		<path id="chopstick" d="M -1,0 a 1,1 0 01 1,-1 h23 a 1,1 0 01 1,1 c 0,0.552 -0.447,2 -1,2 l -23,-1 a 1,1 0 01 -1,-1 Z" fill="#aa695b"/>
	</defs>
	
	bowl
	<g>
		<path d="M 18,36 c -14.958,0 -17,-14 -17,-18 h34 c 0,2 -1.958,18 -17,18 Z" fill="#ccd6dd"/>
		
		<g stroke-width="1" stroke="#ea596e" stroke-linecap="round" stroke-linejoin="round" fill="none">
			<path d="M 18,30.5 h-3.5 v-2 h5 v4 h-2.5"/>
			<path d="M 25,31.5 l 2.5,-1 l -0.094,-3.218 l -4.906,1.218 v2 l 3.5,-1"/>
			<path d="M 10,29.657 l -1.937,-0.657 l 0.062,-1.75 l 3.843,1.125 l -0.094,3.407 l -3.219,-1.032"/>
			<path d="M 4.484,27.031 l -0.984,-0.594 v-1.562 l 2.328,1.313 l 0.016,2.812 l -1.375,-0.844"/>
		</g>
		<path d="M 29.5732,29.2881 c -0.112,0 -0.201,-0.03 -0.288,-0.078 c -0.158,-0.088 -0.285,-0.31 -0.285,-0.491 v-2.563 c 0,-0.184 0.102,-0.354 0.265,-0.441 c 0.59,-0.314 1.28,-0.727 1.838,-1.061 c 0.39,-0.233 0.718,-0.429 0.911,-0.533 c 0.149,-0.078 0.33,-0.077 0.476,0.003 c 0.148,0.081 0.245,0.231 0.258,0.4 c 0.034,0.438 -0.113,1.545 -0.144,1.763 c -0.02,0.153 -0.112,0.289 -0.247,0.366 l -1.203,0.688 c -0.238,0.132 -0.545,0.053 -0.683,-0.187 c -0.136,-0.239 -0.053,-0.545 0.187,-0.682 l 0.987,-0.564 c 0.018,-0.14 0.035,-0.293 0.052,-0.444 c -0.026,0.015 -0.054,0.032 -0.08,0.048 c -0.49,0.293 -1.078,0.645 -1.617,0.942 v1.625 c 0.173,-0.094 0.407,-0.229 0.723,-0.427 l 0.339,0.379 l 0.19,0.471 c -0.949,0.589 -1.391,0.786 -1.679,0.786 Z" fill="#ea596e"/> hecked
		<path d="M 35,17.0557 a 17,9.444 0 01 -17,9.444 a 17,9.444 0 01 -17,-9.444 c 0,-5.216 7.611,-8.444 17,-8.444 s 17,3.228 17,8.444 Z" fill="#99aab5"/>
	</g>
	liquid
	<ellipse rx="15" ry="7" cx="18" cy="18" fill="#ffac33"/>
	chopsticks
	<g>
		<use href="#chopstick" transform="translate(12 6)"/>
		<use href="#chopstick" transform="translate(11.9973 2.9432) rotate(-4.7)"/>
	</g>
	noodles
	<g stroke-width="2" stroke="#ffd983" stroke-linecap="round" fill="none">
		<!--<path d="M 22,24 c -1.18,0 -2.122,-0.196 -2.801,-0.584 c -0.767,-0.438 -1.207,-1.143 -1.207,-1.933 c 0,-1.855 2.34,-3.483 5.008,-3.483 c 0.553,0 1,0.448 1,1 c 0,0.553 -0.447,1 -1,1 c -1.872,0 -3.008,1.03 -3.008,1.483 c 0,0.077 0.153,0.169 0.199,0.197 c 0.21,0.119 0.724,0.32 1.809,0.32 c 2.404,0 5,-1.529 5,-4 c 0,-0.721 -0.939,-1.183 -1.343,-1.348 c -2.019,-0.825 -5.291,-0.579 -6.944,1.104 c -1.441,1.468 -3.792,1.956 -6.29,1.302 c -1.538,-0.402 -3.319,-1.339 -3.705,-2.761 c -0.197,-0.725 0.008,-1.437 0.575,-2.004 c 2.293,-2.293 6.578,-2.293 9.707,-2.293 c 0.553,0 1,0.448 1,1 s -0.447,1 -1,1 c -2.779,0 -6.586,0 -8.293,1.707 c -0.052,0.053 -0.064,0.081 -0.064,0.082 c 0.024,0.156 0.571,0.763 1.807,1.189 c 1.571,0.541 3.676,0.559 4.837,-0.623 c 2.318,-2.361 6.46,-2.644 9.127,-1.554 c 1.644,0.672 2.586,1.838 2.586,3.199 c 0,3.706 -3.634,6 -7,6 Z" fill="#ffd983"/>-->
		<path d="M 19,13 c -3,0 -7,0 -9,2 c -2,2.04 5,5.1 8,2.06 c 3,-3.07 10,-2.06 10,0.94 s -3,5 -6,5 c -5.11,0 -2.98,-4 1,-4"/> approx..
		<path d="M 6,17 c 0,1 2,6 9,6"/>
		
		<path d="M 14,2 v12"/>
		<path d="M 18,1 v15"/>
	</g>
</svg>
