<svg xmlns="http://www.w3.org/2000/svg" viewBox="0 0 36 36">
	<defs>
		<path id="chopstick" d="M -1,0 a 1,1 0 01 1,-1 h23 a 1,1 0 01 1,1 c 0,0.552 -0.447,2 -1,2 l -23,-1 a 1,1 0 01 -1,-1 Z" fill="#aa695b"/>
	</defs>
	
	bowl
	<g>
		<path d="M 18,36 c -14.958,0 -17,-14 -17,-18 h34 c 0,2 -1.958,18 -17,18 Z" fill="#ccd6dd"/>
		<g>
			<path d="M 19.5,33 h-2.5 a 0.5,0.5 0 01 -0.5,-0.5 a 0.5,0.5 0 01 0.5,-0.5 h2 v-3 h-4 v1 h3 a 0.5,0.5 0 01 0.5,0.5 a 0.5,0.5 0 01 -0.5,0.5 h-3.5 a 0.5,0.5 0 01 -0.5,-0.5 v-2 a 0.5,0.5 0 01 0.5,-0.5 h5 a 0.5,0.5 0 01 0.5,0.5 v4 a 0.5,0.5 0 01 -0.5,0.5 Z" fill="#ea596e"/>
			<path d="M 25,32 c -0.198,0 -0.386,-0.119 -0.464,-0.314 c -0.102,-0.256 0.022,-0.547 0.278,-0.65 l 2.176,-0.871 l -0.065,-2.249 l -3.925,0.975 v0.949 c 0.734,-0.206 1.958,-0.553 2.858,-0.819 c 0.262,-0.077 0.543,0.072 0.621,0.337 c 0.079,0.265 -0.073,0.543 -0.337,0.621 c -1.378,0.408 -3.507,1.002 -3.507,1.002 c -0.155,0.042 -0.313,0.011 -0.438,-0.083 c -0.124,-0.094 -0.197,-0.242 -0.197,-0.398 v-2 c 0,-0.229 0.156,-0.43 0.38,-0.485 l 4.906,-1.219 c 0.144,-0.036 0.303,-0.004 0.422,0.087 c 0.121,0.092 0.193,0.232 0.198,0.384 l 0.094,3.218 c 0.006,0.21 -0.119,0.402 -0.314,0.479 l -2.5,1 c -0.061,0.024 -0.124,0.036 -0.186,0.036 Z" fill="#ea596e"/>
			<path d="M 29.5732,29.2881 c -0.112,0 -0.201,-0.03 -0.288,-0.078 c -0.158,-0.088 -0.285,-0.31 -0.285,-0.491 v-2.563 c 0,-0.184 0.102,-0.354 0.265,-0.441 c 0.59,-0.314 1.28,-0.727 1.838,-1.061 c 0.39,-0.233 0.718,-0.429 0.911,-0.533 c 0.149,-0.078 0.33,-0.077 0.476,0.003 c 0.148,0.081 0.245,0.231 0.258,0.4 c 0.034,0.438 -0.113,1.545 -0.144,1.763 c -0.02,0.153 -0.112,0.289 -0.247,0.366 l -1.203,0.688 c -0.238,0.132 -0.545,0.053 -0.683,-0.187 c -0.136,-0.239 -0.053,-0.545 0.187,-0.682 l 0.987,-0.564 c 0.018,-0.14 0.035,-0.293 0.052,-0.444 c -0.026,0.015 -0.054,0.032 -0.08,0.048 c -0.49,0.293 -1.078,0.645 -1.617,0.942 v1.625 c 0.173,-0.094 0.407,-0.229 0.723,-0.427 l 0.339,0.379 l 0.19,0.471 c -0.949,0.589 -1.391,0.786 -1.679,0.786 Z" fill="#ea596e"/>
			<path d="M 11.875,32.2813 c -0.051,0 -0.103,-0.008 -0.152,-0.023 l -3.219,-1.032 c -0.263,-0.085 -0.408,-0.366 -0.324,-0.629 s 0.367,-0.404 0.629,-0.324 l 2.585,0.828 l 0.064,-2.355 l -2.856,-0.836 l -0.026,0.735 l 1.585,0.537 c 0.261,0.089 0.401,0.372 0.313,0.634 c -0.089,0.262 -0.372,0.4 -0.635,0.314 l -1.937,-0.657 c -0.209,-0.071 -0.347,-0.27 -0.339,-0.491 l 0.062,-1.75 c 0.006,-0.154 0.082,-0.298 0.208,-0.388 c 0.125,-0.09 0.283,-0.118 0.433,-0.074 l 3.843,1.125 c 0.218,0.064 0.366,0.267 0.36,0.493 l -0.094,3.407 c -0.004,0.157 -0.083,0.303 -0.211,0.394 c -0.085,0.061 -0.186,0.092 -0.289,0.092 Z" fill="#ea596e"/>
			<path d="M 5.8437,29.5 c -0.091,0 -0.181,-0.024 -0.262,-0.074 l -1.375,-0.844 c -0.235,-0.144 -0.309,-0.452 -0.164,-0.687 c 0.144,-0.236 0.451,-0.311 0.688,-0.165 l 0.608,0.374 l -0.009,-1.624 l -1.33,-0.75 v0.425 l 0.743,0.449 c 0.236,0.142 0.312,0.449 0.17,0.685 c -0.143,0.236 -0.449,0.312 -0.687,0.17 l -0.984,-0.594 c -0.15,-0.09 -0.242,-0.253 -0.242,-0.428 v-1.562 c 0,-0.178 0.094,-0.342 0.248,-0.432 c 0.153,-0.089 0.343,-0.091 0.498,-0.004 l 2.328,1.313 c 0.156,0.088 0.253,0.253 0.254,0.433 l 0.016,2.812 c 0.001,0.182 -0.097,0.35 -0.254,0.439 c -0.077,0.043 -0.162,0.064 -0.246,0.064 Z" fill="#ea596e"/>
		</g>
		<path d="M 35,17.0557 a 17,9.444 0 01 -17,9.444 a 17,9.444 0 01 -17,-9.444 c 0,-5.216 7.611,-8.444 17,-8.444 s 17,3.228 17,8.444 Z" fill="#99aab5"/>
	</g>
	liquid
	<ellipse rx="15" ry="7" cx="18" cy="18" fill="#ffac33"/>
	chopsticks
	<g>
		<use href="#chopstick" transform="translate(12 6)"/>
		<use href="#chopstick" transform="translate(11.9973 2.9432) rotate(-4.7)"/>
	</g>
	noodles
	<g stroke-width="2" stroke="#ffd983" stroke-linecap="round" fill="none">
		<!--<path d="M 22,24 c -1.18,0 -2.122,-0.196 -2.801,-0.584 c -0.767,-0.438 -1.207,-1.143 -1.207,-1.933 c 0,-1.855 2.34,-3.483 5.008,-3.483 c 0.553,0 1,0.448 1,1 c 0,0.553 -0.447,1 -1,1 c -1.872,0 -3.008,1.03 -3.008,1.483 c 0,0.077 0.153,0.169 0.199,0.197 c 0.21,0.119 0.724,0.32 1.809,0.32 c 2.404,0 5,-1.529 5,-4 c 0,-0.721 -0.939,-1.183 -1.343,-1.348 c -2.019,-0.825 -5.291,-0.579 -6.944,1.104 c -1.441,1.468 -3.792,1.956 -6.29,1.302 c -1.538,-0.402 -3.319,-1.339 -3.705,-2.761 c -0.197,-0.725 0.008,-1.437 0.575,-2.004 c 2.293,-2.293 6.578,-2.293 9.707,-2.293 c 0.553,0 1,0.448 1,1 s -0.447,1 -1,1 c -2.779,0 -6.586,0 -8.293,1.707 c -0.052,0.053 -0.064,0.081 -0.064,0.082 c 0.024,0.156 0.571,0.763 1.807,1.189 c 1.571,0.541 3.676,0.559 4.837,-0.623 c 2.318,-2.361 6.46,-2.644 9.127,-1.554 c 1.644,0.672 2.586,1.838 2.586,3.199 c 0,3.706 -3.634,6 -7,6 Z" fill="#ffd983"/>-->
		<path d="M 19,13 c -3,0 -7,0 -9,2 c -2,2.04 5,5.1 8,2.06 c 3,-3.07 10,-2.06 10,0.94 s -3,5 -6,5 c -5.11,0 -2.98,-4 1,-4"/> approx..
		<path d="M 6,17 c 0,1 2,6 9,6"/>
		
		<path d="M 14,2 V 14"/>
		<path d="M 18,1 V 16"/>
	</g>
</svg>
