<svg xmlns="http://www.w3.org/2000/svg" viewBox="0 0 36 36">
	<g>
		upper part is simple, rotated 15.05 deg
		<path d="M 24.7896,18.9887
 L
24.7046,19.3067
 C 24.3836,20.4977 24.5046,22.1087
24.6326,23.8127
 C 24.8296,26.4207 25.0516,29.3767
23.7376,31.8377
 C 22.4076,34.3297 19.8036,35.8147
16.7686,35.8147
 L
16.7266,35.8147
 C 13.8316,35.8007 11.2506,34.4317
10.1496,32.3247
 C 9.4046,30.8997 9.3336,29.2067
9.2646,27.5717
 C 9.1736,25.4087 9.0796,23.1727
7.4916,21.3627
 L
3.5426,16.8627
 L
5.0456,15.5427
 L
8.9946,20.0437
 C 11.0486,22.3837 11.1626,25.0947
11.2626,27.4877
 C 11.3256,28.9687 11.3846,30.3687
11.9226,31.3997
 C 12.6726,32.8337 14.6066,33.8047
16.7356,33.8147
 L
16.7686,33.8147
 C 19.0526,33.8147 20.9966,32.7247
21.9736,30.8957
 C 23.0136,28.9477 22.8236,26.4127
22.6386,23.9627
 C 22.4976,22.0827 22.3646,20.3087
22.7726,18.7867
 L
22.8566,18.4757
 L
24,18
Z
" fill="#31373D"/>
		<path fill="#31373D" d=" M
28.9766,16.4917
 L
29.9996,16.9997
 L
29.7866,18.3067
 C 28.6276,18.8247 27.3936,19.1007
26.1416,19.1017
 C 25.6916,19.1017 25.2406,19.0577
24.7896,18.9887
 L
22.8566,18.4757
 C 21.2126,17.8377 19.8056,16.7447
18.7876,15.3027
 L
18.9996,13.9997
 L
20.4176,14.1477
 C 20.3986,14.1197 20.3826,14.0897
20.3646,14.0617
 C 21.3056,15.4347 22.6856,16.4207
24.3116,16.8577
 C 25.8856,17.2807 27.5216,17.1457
28.9886,16.4857
 L
28.9766,16.4917
 Z"/>
		<path fill="#99AAB5" d=" M
29.791,18.3179
 L
28.977,16.4919
 C 30.913,15.6269 32.339,13.9579
32.888,11.9129
 L
33.666,9.0159
 C 33.952,7.9509 33.318,6.8519
32.253,6.5659
 L
32.772,4.6339
 C 34.902,5.2069 36.17,7.4049
35.598,9.5349
 L
34.819,12.4319
 C 34.113,15.0609 32.28,17.2069
29.791,18.3179
 Z"/>
		<path fill="#99AAB5" d=" M
18.7852,15.3037
 C 17.2302,13.1067 16.7382,10.3577
17.4352,7.7617
 L
18.2142,4.8647
 C 18.7862,2.7337 20.9852,1.4667
23.1142,2.0387
 L
22.5962,3.9707
 C 21.5282,3.6847 20.4312,4.3187
20.1452,5.3837
 L
19.3672,8.2807
 C 18.8242,10.3007 19.2072,12.4387
20.4182,14.1477
 L
18.7852,15.3037
 Z"/>
	</g>
	<g>
		<path fill="#99AAB5" d=" M
1.2583,18.8672
 C -0.1987,17.2062 -0.0337,14.6792
1.6263,13.2222
 C 3.2873,11.7652 5.8143,11.9302
7.2713,13.5902
 C 8.7283,15.2512 8.5633,17.7782
6.9033,19.2352
 C 5.2423,20.6922 2.7153,20.5272
1.2583,18.8672
 Z"/>
	</g>
	<g>
		<path fill="#31373D" d=" M
2.7617,17.5479
 C 2.0327,16.7179 2.1157,15.4539
2.9457,14.7259
 C 3.7757,13.9969 5.0397,14.0799
5.7677,14.9099
 C 6.4967,15.7399 6.4137,17.0039
5.5837,17.7319
 C 4.7537,18.4609 3.4907,18.3789
2.7617,17.5479
 Z"/>
	</g>
	<g>
		<path fill="#31373D" d=" M
22.5596,6.0322
 C 21.7596,5.8172 21.2856,4.9942
21.4996,4.1942
 L
22.2786,1.2972
 C 22.4936,0.4972 23.3166,0.0222
24.1166,0.2382
 C 24.9166,0.4522 25.3906,1.2752
25.1756,2.0752
 L
24.3976,4.9722
 C 24.1826,5.7722 23.3596,6.2472
22.5596,6.0322
 Z"/>
		<path fill="#31373D" d=" M
31.252,8.3672
 C 30.451,8.1522 29.978,7.3292
30.192,6.5292
 L
30.971,3.6322
 C 31.186,2.8322 32.008,2.3582
32.809,2.5732
 C 33.608,2.7872 34.083,3.6102
33.868,4.4102
 L
33.09,7.3072
 C 32.874,8.1082 32.052,8.5822
31.252,8.3672
 Z"/>
	</g>
</svg>
