<svg xmlns="http://www.w3.org/2000/svg" viewBox="0 0 36 36">
	<g>
		upper part is simple, rotated 15.05 deg
		<path d="M 24.7896,18.9887
 L
24.7046,19.3067
 C 24.3836,20.4977 24.5046,22.1087
24.6326,23.8127
 C 24.8296,26.4207 25.0516,29.3767
23.7376,31.8377
 C 22.4076,34.3297 19.8036,35.8147
16.7686,35.8147
 L
16.7266,35.8147
 C 13.8316,35.8007 11.2506,34.4317
10.1496,32.3247
 C 9.4046,30.8997 9.3336,29.2067
9.2646,27.5717
 C 9.1736,25.4087 9.0796,23.1727
7.4916,21.3627
 L
3.5426,16.8627
 L
5.0456,15.5427
 L
8.9946,20.0437
 C 11.0486,22.3837 11.1626,25.0947
11.2626,27.4877
 C 11.3256,28.9687 11.3846,30.3687
11.9226,31.3997
 C 12.6726,32.8337 14.6066,33.8047
16.7356,33.8147
 L
16.7686,33.8147
 C 19.0526,33.8147 20.9966,32.7247
21.9736,30.8957
 C 23.0136,28.9477 22.8236,26.4127
22.6386,23.9627
 C 22.4976,22.0827 22.3646,20.3087
22.7726,18.7867
 L
22.8566,18.4757
 L
24,18
Z
" fill="#31373D"/>
	</g>
	*****************************
	
	<defs>
		<path id="tube1" d="M -5,-13 a 3,3 0 00 -3,3 v 3 a 8,8 0 00 16,0 v-3 a 3,3 0 00 -3,-3" fill="none" stroke-width="2" transform="translate(24.3116 16.8577) rotate(15.04)"/>
		<clipPath id="clip1">
			<path d="M 17.1522,16.4597 l 1.633,-1.156 l 1.633,-1.156 l 1.633,-1.156 l 6.1118,1.6742 l 0.814,1.826 l 0.814,1.826 l 0.814,1.826 L 23,22Z"/>
		</clipPath>
		<clipPath id="clip2">
			<path d="M 0,0 V 15.3037 H 20.4182 V 10 H 28.977 V 18.3179 H 36 V 0 H 0 Z"/>
		</clipPath>
	</defs>
	
	29.791,18.3179 L 28.977,16.4919
	20.4182,14.1477 L 18.7852,15.3037

	<!--<path d="M18.7852,15.3037 L 20.4182,14.1477 l 1.633,-1.156 A 0,0 0 01 28.977,16.4919 L 29.791,18.3179 l 0.814,1.826 A 0,0 0 01 18.7852,15.3037" fill="red"/>-->

	<!--<path d="M 18.7852,15.3037 l 1.633,-1.156 a 0,0 0 01 8.5588,2.3442  a 0,0 0 01 -11.0058,-3.0142"/>-->
	
	<g clip-path="url(#clip2)">
		<use href="#tube1" stroke="#99AAB5"/>
	</g>
	<g clip-path="url(#clip1)">
		<use href="#tube1" stroke="#31373D"/>
	</g>
	
	sneaky..
	<g transform="translate(4.26475,16.2288) rotate(-41.270)">
		<circle r="4" fill="#99AAB5"/>
		<circle r="2" fill="#31373D"/>
	</g>
	
	<g transform="translate(24.3116 16.8577) rotate(15.04)">	
		<rect width="3" height="6" rx="1.5" x="-6" y="-16" fill="#31373D"/>
		<rect width="3" height="6" rx="1.5" x="3" y="-16" fill="#31373D"/>
	</g>
</svg>
