<svg xmlns="http://www.w3.org/2000/svg" viewBox="0 0 36 36">
	<g>
		upper part is simple, rotated 15.05 deg
		<path d="M 24.7896,18.9887
 L
24.7046,19.3067
 C 24.3836,20.4977 24.5046,22.1087
24.6326,23.8127
 C 24.8296,26.4207 25.0516,29.3767
23.7376,31.8377
 C 22.4076,34.3297 19.8036,35.8147
16.7686,35.8147
 L
16.7266,35.8147
 C 13.8316,35.8007 11.2506,34.4317
10.1496,32.3247
 C 9.4046,30.8997 9.3336,29.2067
9.2646,27.5717
 C 9.1736,25.4087 9.0796,23.1727
7.4916,21.3627
 L
3.5426,16.8627
 L
5.0456,15.5427
 L
8.9946,20.0437
 C 11.0486,22.3837 11.1626,25.0947
11.2626,27.4877
 C 11.3256,28.9687 11.3846,30.3687
11.9226,31.3997
 C 12.6726,32.8337 14.6066,33.8047
16.7356,33.8147
 L
16.7686,33.8147
 C 19.0526,33.8147 20.9966,32.7247
21.9736,30.8957
 C 23.0136,28.9477 22.8236,26.4127
22.6386,23.9627
 C 22.4976,22.0827 22.3646,20.3087
22.7726,18.7867
 L
22.8566,18.4757
 L
24,18
Z
" fill="#31373D"/>
	</g>
	<g>
		<path fill="#99AAB5" d=" M
1.2583,18.8672
 C -0.1987,17.2062 -0.0337,14.6792
1.6263,13.2222
 C 3.2873,11.7652 5.8143,11.9302
7.2713,13.5902
 C 8.7283,15.2512 8.5633,17.7782
6.9033,19.2352
 C 5.2423,20.6922 2.7153,20.5272
1.2583,18.8672
 Z"/>
	</g>
	<g>
		<path fill="#31373D" d=" M
2.7617,17.5479
 C 2.0327,16.7179 2.1157,15.4539
2.9457,14.7259
 C 3.7757,13.9969 5.0397,14.0799
5.7677,14.9099
 C 6.4967,15.7399 6.4137,17.0039
5.5837,17.7319
 C 4.7537,18.4609 3.4907,18.3789
2.7617,17.5479
 Z"/>
	</g>
	
	*****************************
	
	<g transform="translate(24.3116 16.8577) rotate(15.04)">	
		<path fill="#31373D" d=" M
4.41023,-1.564
 L
5.53001,-1.33886
 L
5.66346,-0.02136
 C 4.67858,0.77965 3.55847,1.36641
2.34962,1.69226
 C 1.91503,1.80903 1.46806,1.88357
1.01461,1.93396
 L
-0.9853,1.94014
 C -2.73854,1.7506 -4.38097,1.06015
-5.73829,-0.06829
 L
-5.87167,-1.38167
 L
-4.46384,-1.6067
 C -4.48945,-1.62881 -4.51269,-1.65363
-4.53734,-1.676
 C -3.27229,-0.59422 -1.6837,-0
0,0
 C 1.62985,0 3.17478,-0.55484
4.42026,-1.57291
 L
4.41023,-1.564
 Z"/>
		<path fill="#99AAB5" d=" M
5.67061,-0.01169
 L
4.41066,-1.56391
 C 6.05588,-2.90166 7,-4.88352
7,-7
 L
7,-10
 C 7,-11.10332 6.10145,-12
5,-12
 L
5,-14
 C 7.20432,-14 9,-12.20617
9,-10
 L
9,-7
 C 9,-4.27865 7.78606,-1.73051
5.67061,-0.01169
 Z"/>
		<path fill="#99AAB5" d=" M
-5.74035,-0.0667
 C -7.81219,-1.78493 -9,-4.3121
-9,-7
 L
-9,-10
 C -9,-12.20638 -7.20632,-14
-5,-14
 L
-5,-12
 C -6.10636,-12 -7,-11.10254
-7,-10
 L
-7,-7
 C -7,-4.90845 -6.07625,-2.94307
-4.46326,-1.60686
 L
-5.74035,-0.0667
Z"/>
		<path d="M -5,-13 a 3,3 0 00 -3,3 v 3 a 8,8 0 00 16,0 v-3 a 3,3 0 00 -3,-3" fill="none" stroke-width="2" stroke="red"/>
		<rect width="3" height="6" rx="1.5" x="-6" y="-16" fill="#31373D"/>
		<rect width="3" height="6" rx="1.5" x="3" y="-16" fill="#31373D"/>
	</g>
</svg>
