<svg xmlns="http://www.w3.org/2000/svg" viewBox="0 0 36 36">
	<path d="M 22.614,34.845 c -4.063,3.342 -9.614,-2.845 -11.488,-6.254 c -2.823,-5.137 -8.127,-8.591 -8.127,-13.518 c 0.001,-7.073 4.123,-10.309 14.9,-11.438 c 10.485,-1.098 15.099,5.365 15.1,9.286 c 0.001,4.079 -4.263,8.54 -4.265,12.551 c -0.003,6.339 -2.658,8.219 -6.12,9.373 Z"  fill="#BE1931"/>
	<path d="M 26.252,3.572 c 1.748,1.428 -6.111,0.434 -6.557,0.453 c 0.305,0.975 1.305,1.975 1.446,2.264 c 0.479,0.985 -1.612,0.769 -2.141,0.711 c -1.147,-0.125 -3.993,-1.181 -4.11,-1.466 c -0.89,1.466 -3.778,2.454 -4.6,2.724 c -0.244,0.079 -2.594,0.644 -2.632,0.169 c -0.058,-0.726 0.342,-1.427 1.342,-2.427 c -0.789,0.175 -3,1.423 -3,1 c 0,-1 1.278,-2.356 3,-3 c -0.24,-0.173 -3,0.353 -3,0 c 0,-1 3.203,-1.575 3.858,-1.635 c 0.142,-0.365 -0.941,-0.324 -1.858,-0.365 c -1.685,-0.074 1,-1 3,-1 c 3,0 3.469,0.576 3.981,0.688 c 2.019,-1.688 6.019,-1.688 6.044,-0.993 c -0.261,0.136 -0.503,0.288 -0.74,0.442 c 0.936,-0.164 1.868,-0.36 2.837,-0.423 c 2.214,-0.145 -0.427,1.024 -1.4,1.087 c -0.278,0.018 -0.547,0.057 -0.82,0.094 c 2.07,0.127 4.072,0.633 5.35,1.677 Z"  fill="#77B255"/>
	<!-- these are all very cursed -->
	<path d="M 9.339,17.306 c 0.209,2.252 -2.195,0.46 -2.331,-1 c -0.209,-2.252 2.195,-0.46 2.331,1 Z"  fill="#F4ABBA"/>
	<path d="M 16.797,17.859 c 0.051,0.455 -0.02,1.626 -0.774,1.444 c -0.46,-0.109 -0.76,-0.573 -0.938,-1.062 c -0.247,-0.543 -0.34,-1.178 -0.209,-1.737 c 0.159,-0.679 0.768,-0.867 1.234,-0.316 c 0.405,0.48 0.618,1.049 0.687,1.671 v0 Z" fill="#F4ABBA"/>
	<path d="M 22.549,13.018 c 0.476,-0.955 0.17,-3.962 -0.831,-1.954 c -0.476,0.954 -0.171,3.962 0.831,1.954 Z"  fill="#F4ABBA"/>
	<path d="M 29.76,11.561 c 0.063,0.746 -0.298,1.784 -0.965,2.189 c -0.359,0.218 -0.62,0.117 -0.797,-0.11 l -0.013,-0.009 c -0.996,-0.72 0.195,-3.938 1.384,-3.08 c 0.318,0.23 0.361,0.653 0.391,1.01 v0 Z" fill="#F4ABBA"/>
	<path d="M 28.415,20.128 c 1.016,-1.569 -0.545,-3.451 -1.78,-1.542 c -1.016,1.568 0.546,3.45 1.78,1.542 Z"  fill="#F4ABBA"/>
	<path d="M 22.667,23.022 c 0.173,-1.938 -2.309,-2.752 -2.51,-0.496 c -0.173,1.938 2.309,2.752 2.51,0.496 Z"  fill="#F4ABBA"/>
	<path d="M 13.031,21.844 v0 c 1.039,0.302 2.799,2.423 1.479,2.509 c -0.5,0.033 -1.086,-0.416 -1.428,-0.73 c -0.306,-0.282 -1.244,-1.206 -0.804,-1.703 c 0.178,-0.202 0.461,-0.185 0.753,-0.076 Z"  fill="#F4ABBA"/>
	<path d="M 25.998,27.717 c -1.522,1.674 -1.767,-1.31 -0.798,-2.376 c 1.523,-1.674 1.767,1.31 0.798,2.376 Z"  fill="#F4ABBA"/>
	<path d="M 12.599,13.753 c -0.742,0.05 -0.83,-0.836 -0.786,-1.407 c 0.038,-0.498 0.34,-1.905 1.042,-1.952 l 0.281,-0.019 c 0.742,-0.049 0.829,0.836 0.785,1.407 c -0.038,0.498 -0.339,1.906 -1.042,1.952 l -0.28,0.019 Z"  fill="#F4ABBA"/>
	<path d="M 20.445,29.01 c 0.395,0.764 0.252,1.623 -0.32,1.919 s -1.357,-0.081 -1.753,-0.844 c -0.395,-0.764 -0.252,-1.623 0.32,-1.919 c 0.573,-0.296 1.357,0.081 1.753,0.844 Z"  fill="#F4ABBA"/>
	<!--
	<path d="M 12.599,13.753 l 0.28,-0.019 c 0.703,-0.046 1.004,-1.454 1.042,-1.952 c 0.044,-0.571 -0.043,-1.456 -0.785,-1.406 l -0.281,0.018 c -0.702,0.047 -1.004,1.454 -1.042,1.952 c -0.044,0.571 0.044,1.457 0.786,1.407 v0 Z" fill="currentColor"/>
	<path d="M 25.998,27.717 c -1.522,1.674 -1.767,-1.31 -0.798,-2.376 c 1.523,-1.674 1.767,1.31 0.798,2.376 Z" fill="currentColor"/>
	<path d="M 22.667,23.023 c 0.173,-1.937 -2.309,-2.752 -2.51,-0.496 c -0.173,1.936 2.309,2.751 2.51,0.496 Z" fill="currentColor"/>
	<path d="M 28.415,20.128 c 1.016,-1.569 -0.545,-3.451 -1.78,-1.542 c -1.016,1.568 0.546,3.45 1.78,1.542 Z" fill="currentColor"/>
	<path d="M 22.549,13.018 c 0.476,-0.955 0.17,-3.962 -0.831,-1.954 c -0.476,0.954 -0.171,3.962 0.831,1.954 Z" fill="currentColor"/>
	<path d="M 9.339,17.306 c 0.209,2.251 -2.195,0.459 -2.331,-1 c -0.209,-2.252 2.195,-0.46 2.331,1 Z" fill="currentColor"/>
	-->
</svg>
