<svg xmlns="http://www.w3.org/2000/svg" viewBox="0 0 36 36">
	<g>
		<path d="M 33.208,6.4585 c 4.875,15.126 -0.041,26.209 -13.208,27.542 c -12.615,1.277 -19.834,-10 -18.959,-19.875 c 3.5,-9.417 28.834,-11.875 32.167,-7.667 Z" fill="#edb97f"/>
		<circle r="2" cx="26" cy="23" fill="#e5a157"/>
		<circle r="1" cx="23" cy="28" fill="#e5a157"/>
		<circle r="1.5" cx="15.5" cy="24.5" fill="#e5a157"/>
	</g>
	<g>
		<path d="M 4,12 c 2.736,-2.348 13,-8 25,-6 c 8,0.75 -0.708,7.542 -9.708,9.542 c -7.87,1.748 -20.292,0.75 -15.292,-3.542 Z" fill="#ffd983"/>
	</g>
	<g>
		<path d="M 29.6563,8.625 s -5.281,2.438 -11.094,4.25 c -5.812,1.812 -11.53,1.197 -8.521,-1.875 c 2,-2.042 3.834,-2.687 5.167,-7.583 c 0.219,-0.803 3.823,-0.667 5.542,0.833 c 0.5,-2.417 2.292,-2.5 3.125,-1.906 c 0.018,0.013 0.792,0.489 1.5,1.864 c 2.875,-0.75 3.844,-3.208 4.812,-2.395 c 0.656,0.75 0.906,5.312 -0.531,6.812 Z" fill="#77b255"/>
		<path d="M 12.25,10.542 s -3.361,5.122 -7,3.958 c -2.083,-0.666 -3.25,-5.5 -1.25,-7.04 c 1.402,-1.079 7.75,-0.418 8.25,3.082 Z" fill="#77b255"/>
	</g>
	<g>
		<path d="M 5.25,14.5 c -1.336,-0.528 0.625,-3.499 2.75,-4.083 s 3.126,0.5 3.542,1.083 c 0.041,-0.583 0.875,-1.583 1.583,-1.792 c 0.708,-0.208 1.542,0.167 1.958,1.042 c 0,-0.917 0.042,-3.875 3.334,-4.833 c 0.875,-0.292 3.375,-0.375 3.917,1 c 0.833,-0.709 3.584,-1.333 4.25,0.375 c 0.291,-0.5 2.625,-1.375 3.541,0.291 c 0.667,0.917 -0.362,1.802 -2.041,2.917 c -5.459,3.625 -17.667,6.042 -22.834,4 Z" fill="#662113"/>
	</g>
	<g>
		<circle r="1.25" cx="7.8335" cy="12.4585" fill="#c1694f"/>
		<circle r="1.25" cx="23.834" cy="10.4585" fill="#c1694f"/>
		<circle r="1.584" cx="20.167" cy="8.7925" fill="#c1694f"/>
		<circle r="0.709" cx="11.2915" cy="13.917" fill="#c1694f"/>
	</g>
	<g>
		<path d="M 16.75,10.0625 c 0.297,-0.604 3.341,2.123 2.563,3.875 c -0.751,0.375 -3.375,0.844 -6.126,1.125 c 1.23,-0.875 2.896,-3.646 3.563,-5 Z" fill="#dd2e44"/>
		<path d="M 15.9375,11.5625 c 0.487,-0.975 2.313,1.687 1.687,2.781 c -0.968,0.282 -3.718,0.688 -4.593,0.782 c 0.625,-0.813 2.406,-2.563 2.906,-3.563 Z" fill="#ea596e"/>
	</g>
	<g>
		<path d="M 21.5625,13.4063 c 0.406,-2.719 3.188,-4.031 4.312,-3.344 c 1.688,-2.75 2.719,-1.125 2.657,0.156 c -2.5,1.938 -6.219,2.969 -6.969,3.188 Z" fill="#77b255"/>
	</g>
</svg>
