<svg xmlns="http://www.w3.org/2000/svg" viewBox="0 0 36 36">
	<defs>
		<path id="ray" d="M -2,-1 s 0,-2 2,-2 s 2,2 2,2 v2 s 0,2 -2,2 s -2,-2 -2,-2 v-2 Z" fill="#FFAC33"/>
	</defs>
	
	<use href="#ray" transform="translate(8 29) rotate(-135)"/>
	<use href="#ray" transform="translate(3 18) rotate(-90)"/>
	<use href="#ray" transform="translate(7 8) rotate(-45)"/>
	<use href="#ray" transform="translate(18 3) rotate(0)"/>
	<use href="#ray" transform="translate(29 8) rotate(45)"/>
	<use href="#ray" transform="translate(33 18) rotate(90)"/>
	<circle fill="#FFAC33" cx="18" cy="18" r="10"/>
	
	<g fill="#E1E8ED" transform="translate(36 36) scale(.7778 .80) translate(-36 -20)">
		<path d="M 5,20 L 5,15 L 10.5,8.5 L 19.5 6.5 L 28,12 L 28,20 Z"/>
		<circle cx="5" cy="15" r="5"/>
		<circle cx="10.5" cy="8.5" r="4.5"/>
		<circle cx="19.5" cy="6.5" r="6.5"/>
		<circle cx="28" cy="12" r="8"/>
	</g>
</svg>
