<svg xmlns="http://www.w3.org/2000/svg" viewBox="0 0 36 36">
	<defs>
		<path id="ray" d="M -2,-1 s 0,-2 2,-2 s 2,2 2,2 v2 s 0,2 -2,2 s -2,-2 -2,-2 v-2 Z" fill="#FFAC33"/>
	</defs>
	
	<use href="#ray" transform="translate(3 16) rotate(-90)"/>
	<use href="#ray" transform="translate(5.75 6.75) rotate(-45)"/>
	<use href="#ray" transform="translate(16 3) rotate(0)"/>
	<use href="#ray" transform="translate(26.25 6.75) rotate(45)"/>
	<use href="#ray" transform="translate(29 16) rotate(90)"/>
	<circle fill="#FFAC33" cx="16" cy="16" r="9"/>
	
	<g fill="#E1E8ED" transform="matrix(1 0 0 1 0 16)">
		<path d="M 5,20 L 5,15 L 10.5,8.5 L 19.5 6.5 L 28,12 L 28,20 Z"/>
		<circle cx="5" cy="15" r="5"/>
		<circle cx="10.5" cy="8.5" r="4.5"/>
		<circle cx="19.5" cy="6.5" r="6.5"/>
		<circle cx="28" cy="12" r="8"/>
	</g>
</svg>
