<svg xmlns="http://www.w3.org/2000/svg" viewBox="0 0 36 36">
	<path d="M 28,27 c 4,0 7,-2 7,-2 s 0,9 -9,9 h-6 s 0,2 -2,2 s -2,-2 -2,-2 h-6 c -9,0 -9,-9 -9,-9 s 3,2 7,2 c 8,0 8,6 8,6 v-11 h4 v11 s 0,-6 8,-6 Z"  fill="#3E721D"/>
	<path d="M 21.125,27.662 a 1.666,1.666 0 01 -0.927,-0.283 l -2.323,-1.575 l -2.322,1.575 a 1.666,1.666 0 01 -2.418,-0.648 l -1.225,-2.527 l -2.797,0.204 a 1.666,1.666 0 01 -1.77,-1.768 l 0.201,-2.8 l -2.523,-1.225 a 1.666,1.666 0 01 -0.648,-2.418 l 1.573,-2.323 l -1.573,-2.322 a 1.666,1.666 0 01 0.648,-2.417 l 2.523,-1.225 l -0.201,-2.797 a 1.666,1.666 0 01 1.77,-1.771 l 2.797,0.201 l 1.225,-2.523 a 1.666,1.666 0 01 2.418,-0.648 l 2.322,1.573 l 2.323,-1.573 a 1.666,1.666 0 01 2.417,0.648 l 1.225,2.523 l 2.8,-0.201 a 1.666,1.666 0 01 1.768,1.771 l -0.204,2.797 l 2.527,1.225 a 1.666,1.666 0 01 0.647,2.417 l -1.575,2.322 l 1.575,2.323 a 1.666,1.666 0 01 -0.647,2.418 l -2.527,1.225 l 0.204,2.8 a 1.666,1.666 0 01 -1.768,1.768 l -2.8,-0.204 l -1.225,2.527 a 1.666,1.666 0 01 -1.49,0.931 Z"   fill="#FFAC33"/>
	<circle fill="#732700" cx="18" cy="14" r="7"/>
</svg>
