<svg xmlns="http://www.w3.org/2000/svg" viewBox="0 0 36 36">
	<path fill="#31373D" d="M 18.0162,15.7356 s -1.438,0 -1.677,0.957 c -0.424,1.69 -0.718,5.55 -3.115,6.745 c -1.072,0.533 -6.665,0.992 -8.149,-0.24 c -1.438,-1.198 -1.918,-5.788 -2.158,-6.505 s -1.437,-1.436 -1.677,-1.675 c -0.239,-0.239 -0.239,-1.196 0,-1.436 c 0.479,-0.478 6.136,-0.904 12.223,-0.238 c 1.214,0.132 1.678,0.478 4.553,0.478 c 2.877,0 3.339,-0.346 4.554,-0.479 c 6.089,-0.665 11.744,-0.239 12.223,0.239 c 0.241,0.24 0.241,1.197 0,1.436 c -0.24,0.239 -1.439,0.957 -1.677,1.674 c -0.24,0.718 -0.72,5.32 -2.155,6.517 c -1.486,1.232 -7.079,0.773 -8.152,0.238 c -2.395,-1.193 -2.691,-5.064 -3.115,-6.755 c -0.239,-0.956 -1.678,-0.956 -1.678,-0.956 Z" class="toodark"/>
	<!-- this could use some more detail.. -->
</svg>
