<svg xmlns="http://www.w3.org/2000/svg" viewBox="0 0 36 36">
	<path d="M 32,0 a 4,4 0 01 4,4 v27 h-36 v-27 a 4,4 0 01 4,-4 h28 Z"  fill="#FFCC4D"/>
	<path d="M 32.1143,18.7363 c 1.587,-0.451 1.587,-1.147 0.001,-1.599 l -4.056,-1.203 l 3.3,-2.615 c 1.291,-1.023 1.008,-1.687 -0.629,-1.498 l -4.249,0.518 l 2.079,-3.738 c 0.802,-1.44 0.281,-1.963 -1.158,-1.162 l -3.742,2.05 l 0.497,-4.22 c 0.188,-1.634 -0.492,-1.915 -1.516,-0.623 l -2.651,3.349 l -1.17,-4.11 c -0.451,-1.587 -1.189,-1.587 -1.641,0 l -1.169,4.11 l -2.655,-3.352 c -1.023,-1.289 -1.704,-1.007 -1.515,0.629 l 0.493,4.247 l -3.733,-2.08 c -1.442,-0.803 -1.964,-0.281 -1.161,1.161 l 2.08,3.733 l -4.247,-0.493 c -1.636,-0.189 -1.918,0.492 -0.629,1.515 l 3.352,2.655 l -4.11,1.169 c -1.587,0.452 -1.587,1.19 0,1.642 l 4.11,1.169 l -3.349,2.653 c -1.292,1.024 -1.011,1.705 0.623,1.517 l 4.22,-0.5 l -2.066,3.742 c -0.8,1.439 -0.27,1.96 1.169,1.158 l 3.745,-2.079 l -0.494,4.247 c -0.189,1.637 0.491,1.918 1.515,0.627 l 2.652,-3.351 l 1.169,4.111 c 0.452,1.586 1.106,1.586 1.557,-0.001 l 1.169,-4.11 l 2.729,3.351 c 1.022,1.29 1.709,1.01 1.521,-0.625 l -0.495,-4.22 l 3.74,2.065 c 1.441,0.803 1.963,0.272 1.16,-1.167 l -2.05,-3.748 l 4.22,0.497 c 1.635,0.188 1.915,-0.492 0.625,-1.515 l -3.351,-2.737 l 4.11,-1.169 Z" fill="#F4900C"/>
	<circle fill="#FFE8B6" cx="18" cy="18" r="9.629"/>
	
	<!--<path d="M 36,32 c 0,2.209 -1.791,4 -4,4 h-17.553 v-9.325 c 2.959,-3.852 7.875,-9.675 10.553,-9.675 c 2.818,0 8.114,6.448 11,10.261 v4.739 Z"  fill="#5C913B"/>
	<path d="M 9,23 c 1.402,0 3.419,1.6 5.447,3.675 c 3.757,3.844 7.553,9.325 7.553,9.325 h-18 c -2.209,0 -4,-1.791 -4,-4 v-1.293 c 2.922,-3.598 6.751,-7.707 9,-7.707 Z"  fill="#3E721D"/>-->
	<path d="M 32,36 h-20 v-6 s 9,-13 13,-13 c 3.5,0 11,10.261 11,10.261 v4.739 a 4,4 0 01 -4,4 Z" fill="#5C913B"/>
	<path d="M 22,36 h-18 a 4,4 0 01 -4,-4 v-1.293 s 6,-7.707 9,-7.707 c 4,0 13,13 13,13 Z" fill="#3E721D"/>
	
	<!-- hills source; -->
	<!--<path d="M 38,30 v6 h-26 v-6 s 9,-13 13,-13 s 13,13 13,13 Z"   fill="#5c913b"/>
	<path d="M -4,36 s 9,-13 13,-13 s 13,13 13,13 h-26 Z"   fill="#3e721d"/>-->
</svg>
