<svg xmlns="http://www.w3.org/2000/svg" viewBox="0 0 36 36">
	<!-- similar to Cityscape -->
	<path d="M 32,0 a 4,4 0 01 4,4 v27 h-36 v-27 a 4,4 0 01 4,-4 h28 Z"  fill="#FFCC4D"/>
	
	<path d="M 32.1143,18.7363 c 1.587,-0.451 1.587,-1.147 0.001,-1.599 l -4.056,-1.203 l 3.3,-2.615 c 1.291,-1.023 1.008,-1.687 -0.629,-1.498 l -4.249,0.518 l 2.079,-3.738 c 0.802,-1.44 0.281,-1.963 -1.158,-1.162 l -3.742,2.05 l 0.497,-4.22 c 0.188,-1.634 -0.492,-1.915 -1.516,-0.623 l -2.651,3.349 l -1.17,-4.11 c -0.451,-1.587 -1.189,-1.587 -1.641,0 l -1.169,4.11 l -2.655,-3.352 c -1.023,-1.289 -1.704,-1.007 -1.515,0.629 l 0.493,4.247 l -3.733,-2.08 c -1.442,-0.803 -1.964,-0.281 -1.161,1.161 l 2.08,3.733 l -4.247,-0.493 c -1.636,-0.189 -1.918,0.492 -0.629,1.515 l 3.352,2.655 l -4.11,1.169 c -1.587,0.452 -1.587,1.19 0,1.642 l 4.11,1.169 l -3.349,2.653 c -1.292,1.024 -1.011,1.705 0.623,1.517 l 4.22,-0.5 l -2.066,3.742 c -0.8,1.439 -0.27,1.96 1.169,1.158 l 3.745,-2.079 l -0.494,4.247 c -0.189,1.637 0.491,1.918 1.515,0.627 l 2.652,-3.351 l 1.169,4.111 c 0.452,1.586 1.106,1.586 1.557,-0.001 l 1.169,-4.11 l 2.729,3.351 c 1.022,1.29 1.709,1.01 1.521,-0.625 l -0.495,-4.22 l 3.74,2.065 c 1.441,0.803 1.963,0.272 1.16,-1.167 l -2.05,-3.748 l 4.22,0.497 c 1.635,0.188 1.915,-0.492 0.625,-1.515 l -3.351,-2.737 l 4.11,-1.169 Z" fill="#F4900C" transform="translate(0-2)"/>	
	<circle fill="#FFE8B6" cx="18" cy="16" r="9.629"/>
	
	<path d="M 10,36 v-21 l 4,-4 h2 l 4,4 v21 h-10 Z"  fill="#485359"/>
	<path d="M 33,19 v16 l -1,1 h-8 v-17 c 0,-1 1,-1 1,-1 h7 s 1,0 1,1 Z"  fill="#485359"/> <!-- this building originally interfered with the curved corner -->
	
	<path d="M 28,25 v11 h-10 v-11 s 0,-1 1,-1 h8 s 1,0 1,1 Z"  fill="#292F33"/>
	<path d="M 11,27 c 1,0 1,1 1,1 v8 h-8 a 4,4 0 01 -4,-4 v-11 h5 c 1,0 1,1 1,1 v5 h5 Z"  fill="#292F33"/>
	<path d="M 32,31 h4 v1 a 4,4 0 01 -4,4 h-1 v-4 s 0,-1 1,-1 Z"  fill="#292F33"/>
	<path d="M 8,29 h2 v2 h-2 v-2 Z"  fill="#FFCC4D"/>
	<path d="M 6,33 h2 v2 h-2 v-2 Z"  fill="#FFCC4D"/>
	<path d="M 16,17 h2 v2 h-2 v-2 Z"  fill="#FFCC4D"/>
	<path d="M 16,21 h2 v2 h-2 v-2 Z"  fill="#FFCC4D"/>
	<path d="M 14,25 h2 v2 h-2 v-2 Z"  fill="#FFCC4D"/>
	<path d="M 24,26 h2 v2 h-2 v-2 Z"  fill="#FFCC4D"/>
	<path d="M 22,30 h2 v2 h-2 v-2 Z"  fill="#FFCC4D"/>
	<path d="M 29,20 h2 v2 h-2 v-2 Z"  fill="#FFCC4D"/>
	<path d="M 29,24 h2 v2 h-2 v-2 Z"  fill="#FFCC4D"/>
</svg>
