<svg xmlns="http://www.w3.org/2000/svg" viewBox="0 0 36 36">
	<path d="M 34.77,18 l -4.72596,2.39571 l 3.44942,4.02189 l -5.28301,0.4048 l 1.64773,5.03578 l -5.03578,-1.64773 l -0.4048,5.28301 l -4.02189,-3.44942 l -2.39571,4.72596 l -2.39571,-4.72596 l -4.02189,3.44942 l -0.4048,-5.28301 l -5.03578,1.64773 l 1.64773,-5.03578 l -5.28301,-0.4048 l 3.44942,-4.02189 l -4.72596,-2.39571 l 4.72596,-2.39571 l -3.44942,-4.02189 l 5.28301,-0.4048 l -1.64773,-5.03578 l 5.03578,1.64773 l 0.4048,-5.28301 l 4.02189,3.44942 l 2.39571,-4.72596 l 2.39571,4.72596 l 4.02189,-3.44942 l 0.4048,5.28301 l 5.03578,-1.64773 l -1.64773,5.03578 l 5.28301,0.4048 l -3.44942,4.02189 l 4.72596,2.39571 Z" stroke-width="2.06" stroke-linejoin="round" fill="#F4900C" stroke="#F4900C"/> <!-- make_star(12.28, 16.77, 16) -->
	<circle cx="18" cy="18" r="13"  fill="#FFCC4D"/>
	<path d="M 18,23.471 c 6.222,0 8,-2.328 8,-1.229 c 0,1.102 -3.556,3.981 -8,3.981 s -8,-2.879 -8,-3.981 s 1.778,1.229 8,1.229 Z" fill="#F4900C"/>
	<circle cx="23.333" cy="14.667" r="2.667" fill="#F4900C"/>
	<circle cx="12.666" cy="14.667" r="2.667" fill="#F4900C"/>
</svg>
