<svg xmlns="http://www.w3.org/2000/svg" viewBox="0 0 36 36">
	body:
	<g>
		<path fill="#E1E8ED" d="M 3.4272,7.0342 c -1.049,-1.086 -1.535,-2.903 0.201,-5.106 c 1.735,-2.202 9.143,-2.87 8.61,4.939 c -0.067,1.835 -0.768,4.605 -2.603,8.376 c -0.468,0.968 -1.269,2.537 -1.603,4.84 c 0.968,-0.802 3.905,-2.236 6.908,-1.836 c 3.004,0.4 18.054,7.141 21.058,4.305 c 0.1,1.168 -3.638,12.781 -18.555,12.781 s -17.32,-7.508 -17.32,-10.912 c 0,-3.405 0.868,-5.173 3.371,-7.542 c 2.503,-2.37 6.341,-8.01 4.605,-10.512 c -0.367,0.667 -2.77,2.636 -4.672,0.667 Z"/>
		<path fill="#CCD6DD" d="M 10.2017,26.5566 c -0.033,0 0.834,-2.336 -0.333,-2.536 c 3.631,-1.938 3.994,-2.186 7.298,-3.521 s 14.694,0.851 17.129,1.919 c -2.503,6.04 -6.999,10.774 -15.384,10.745 c -5.743,-0.018 -9.277,-4.471 -8.71,-6.607 Z"/>
		<path fill="#CCD6DD" d="M 7.7187,4.7622 s 0.425,0.74 0.394,1.631 c -0.005,-0.008 -0.008,-0.018 -0.013,-0.027 c -0.262,0.476 -1.556,1.604 -2.965,1.508 c -0.144,-0.065 -0.28,-0.142 -0.411,-0.23 c 0.322,-0.046 0.593,-0.132 0.751,-0.267 c 1.504,-0.466 2.24,-1.629 2.244,-2.615 Z"/>
	</g>
	beak, eye
	<g>
		<path fill="#292F33" d="M 5.4746,7.377 c -0.271,0.084 -1.753,-0.038 -2.047,-0.343 c -0.614,-0.635 -1.019,-1.526 -0.916,-2.592 c 0.342,-1.054 1.371,-1.29 2.785,-0.912 c -0.067,-0.567 0.851,-1.168 1.351,-0.633 c 0.501,0.533 0.167,1.351 -0.617,1.267 c -0.334,0.401 -0.401,1.936 -0.401,2.903 c 0,0.123 -0.056,0.225 -0.155,0.31 Z"/>
		<path fill="#F4900C" d="M 0.7534,10.5708 c -0.921,0.167 -0.33,-1.101 0.104,-1.434 c 1.636,-1.802 1.675,-3.84 1.575,-4.375 c 1.669,0.234 3.465,2.306 3.164,2.64 c -1.068,1.201 -3.993,2.905 -4.843,3.169 Z"/>
	</g>
	wing
	<g>
		<path fill="#E1E8ED" d="M 9.3008,24.0869 c 0.034,-1.468 1.368,-7.375 9.077,-7.542 c 7.709,-0.166 8.31,4.672 14.416,-0.467 c -0.099,1.301 -2.268,15.017 -13.848,15.017 c -9.211,0 -9.678,-5.539 -9.645,-7.008 Z"/>
	</g>
</svg>
