<svg viewBox="0 0 36 36" xmlns="http://www.w3.org/2000/svg">
	<path d="M 26,9 v27 h-16 v-27 l 8,-8 l 8,8 Z" fill="#A7A9AC"/>
	<path d="M 11,36 h-7 a 2,2 0 01 -2,-2 v-14 h9 v16 Z" fill="#D1D3D4"/>
	<path d="M 25,36 v-16 h9 v14 a 2,2 0 01 -2,2 h-7 Z" fill="#D1D3D4"/>
	<path d="M 10,34 h16 v2 h-16 v-2 Z" fill="#D1D3D4"/>
	<path d="M 12,19.785 h-10.928 a 2,2 0 01 0.514,-1.914 l 3.536,-3.536 a 2,2 0 01 2.828,0 l 3.536,3.536 a 2,2 0 01 0.514,1.914 Z" fill="#67757F"/>
	<path d="M 24.008,19.785 a 2,2 0 01 0.514,-1.914 l 3.536,-3.536 a 2,2 0 01 2.828,0 l 3.536,3.536 a 2,2 0 01 0.514,1.914 h-10.928 Z" fill="#67757F"/>
	<path d="M 8,28.785 c 0,0.828 -0.672,-1 -1.5,-1 s -1.5,1.828 -1.5,1 v-4.5 a 1.5,1.5 0 01 3,0 v4.5 Z" fill="#67757F"/>
	<path d="M 31,28.785 c 0,0.828 -0.672,-1 -1.5,-1 s -1.5,1.828 -1.5,1 v-4.5 a 1.5,1.5 0 01 3,0 v4.5 Z" fill="#67757F"/>
	<path d="M 15,27.5 a 3,2.5 0 01 6,0 v6.5 h-6 v-6.5 Z" fill="#67757F"/>
	<!-- corner radius something like 2,2.17 ? -->
	<path d="M 17.799,20 c -0.693,0 -1.33,-0.388 -1.703,-1.038 l -0.672,-1.173 h-1.581 c -0.714,0 -1.34,-0.346 -1.676,-0.926 c -0.345,-0.597 -0.326,-1.344 0.05,-1.999 l 0.765,-1.335 l -0.766,-1.336 c -0.377,-0.657 -0.395,-1.404 -0.049,-2 c 0.336,-0.579 0.962,-0.924 1.675,-0.924 h1.581 l 0.671,-1.172 c 0.375,-0.651 1.011,-1.039 1.704,-1.039 c 0.67,0 1.295,0.368 1.674,0.984 l 0.757,1.227 h1.855 c 0.726,0 1.356,0.353 1.685,0.945 c 0.337,0.603 0.3,1.354 -0.102,2.006 l -0.809,1.31 l 0.808,1.309 c 0.401,0.651 0.439,1.401 0.102,2.007 c -0.329,0.591 -0.958,0.944 -1.684,0.944 h-1.854 l -0.76,1.23 c -0.375,0.613 -1.001,0.98 -1.671,0.98 Z" fill="#67757F"/>
	<path d="M 22.086,16.789 h-8.243 c -0.358,0 -0.653,-0.155 -0.81,-0.427 c -0.167,-0.288 -0.148,-0.652 0.052,-1 l 3.878,-6.768 c 0.196,-0.341 0.5,-0.536 0.836,-0.536 c 0.323,0 0.624,0.185 0.822,0.507 l 4.196,6.798 c 0.212,0.344 0.24,0.706 0.079,0.995 c -0.152,0.274 -0.447,0.431 -0.81,0.431 Z M 13.988,15.791 l 7.922,0.002 l -4.108,-6.658 l -3.814,6.656 Z" fill="#FFCC4D"/>
	<path d="M 17.799,19 c -0.336,0 -0.64,-0.195 -0.836,-0.536 l -3.878,-6.768 c -0.2,-0.348 -0.219,-0.714 -0.052,-1 c 0.157,-0.271 0.452,-0.427 0.81,-0.427 h8.243 c 0.363,0 0.658,0.157 0.81,0.431 c 0.161,0.288 0.133,0.651 -0.079,0.995 l -4.196,6.799 c -0.198,0.322 -0.499,0.506 -0.822,0.506 Z M 13.987,11.265 l 3.814,6.658 l 4.109,-6.655 l -7.923,-0.003 Z" fill="#FFCC4D"/>
	<rect x="1" y="18.785" width="11" height="2" rx="1" fill="#292F33"/>
	<rect x="24" y="18.785" width="11" height="2" rx="1" fill="#292F33"/>
	<path d="M 10,9 l 8,-8 8,8" stroke-width="2" stroke-linecap="round" stroke-linejoin="round" fill="none" stroke="#292F33"/>
</svg>
