<svg viewBox="0 0 36 36" xmlns="http://www.w3.org/2000/svg">
	<path d="M 2,7 l 3,29 h26 l 3,-29 h-32 Z" fill="#e1e8ed"/>
	<path d="M 26,11 l 8,-10 h-18 L 8.97,9" stroke-linecap="round" stroke-width="2" fill="none" stroke="#66757f" stroke-linejoin="round"/> <!-- in the original, the stroke actually narrows near the left end? maybe intentional but.. <path d="M 34.9014,0.5669 c -0.167,-0.347 -0.517,-0.567 -0.901,-0.567 h-18 c -0.304,0 -0.592,0.138 -0.781,0.376 l -5.78,6.624 h2.561 l 4.48,-5 h15.439 l -6.701,8.376 c -0.344,0.431 -0.274,1.06 0.157,1.405 c 0.184,0.147 0.405,0.219 0.624,0.219 c 0.294,0 0.584,-0.128 0.782,-0.375 l 8,-10 c 0.24,-0.3 0.286,-0.712 0.12,-1.058 Z" fill="#66757f"/> -->
	<path d="M 2,7 l 3,29 h10 l -1,-29 h-12 Z" fill="#99aab5"/>
	
	<g fill="#dd2e44">
		<path d="M 30.4949,32 h-14 l 2.16,-3 h10 l 1.84,3 Z"/>
		<path d="M 27.4219,28 h-7.429 l 0.768,-1 h6 l 0.661,1 Z"/>
		<path d="M 28.8139,26 h-10 l 2.16,-3 h6 l 1.84,3 Z"/>
		<path d="M 27.0266,22 h-6 l 1.053,-1 h4 l 0.947,1 Z"/>
		<path d="M 27.1329,20 h-6 l 2.16,-3 h2 l 1.84,3 Z"/>
		<path d="M 25.3456,16 h-2 l 1.16,-3 l 0.84,3 Z"/>
	</g>
	<g fill="#be1931">
		<path d="M 14.0077,32 h-8.839 l 0.944,-3 h6.314 l 1.581,3 Z"/>
		<path d="M 11.5089,28 h-4.69 l 0.345,-1 h3.788 l 0.557,1 Z"/>
		<path d="M 12.1085,26 h-6.314 l 0.945,-3 h3.788 l 1.581,3 Z"/>
		<path d="M 10.4215,22 h-3.788 l 0.525,-1 h2.526 l 0.737,1 Z"/>
		<path d="M 10.2093,20 h-3.788 l 0.944,-3 h1.263 l 1.581,3 Z"/>
		<path d="M 8.5223,16 h-1.263 l 0.313,-3 l 0.95,3 Z"/>
	</g>
</svg>
