<svg xmlns="http://www.w3.org/2000/svg" viewBox="0 0 36 36">
	todo: move this layer to the top (and cut out the top section) so we dont need that extra hack layer
	<path d="M 33.78,27.231 c -1.291,1.871 -4.5,5.347 -6.505,6.817 s -2.862,1.13 -5.033,-0.491 c -0.893,-0.667 -2.386,-1.98 -4.591,-4.677 c -1.087,-1.33 -1.409,-1.758 -2.429,-2.65 c -2.851,-2.496 -13.511,-12.855 -13.511,-12.855 c -1.211,-1.367 -0.454,-3.368 0.586,-5 s 2.905,-3.26 4.57,-4.805 s 3.527,-2.54 5.469,-1.094 c 1.22,0.909 7.031,6.671 12.044,11.522 c 0.566,0.547 1.367,1.37 2.361,2.05 c 3.52,2.406 5.168,4.411 5.881,5.391 c 1.413,1.942 2.449,3.921 1.158,5.792 Z" fill="#FFCC4D"/>
	
	<path d="M 11.86,2.68 c 2.72,3 -6.68,13.32 -10.02,10.16 c -2.72,-3 6.68,-13.32 10.02,-10.16 Z" fill="#FFAC33"/>
	
	<path d="M 11.898,6.109 c -1.078,2.373 -4.679,5.93 -6.516,6.906 c -0.999,0.532 -2.984,0.459 -3.169,-0.417 s -0.088,-2.177 1.49,-2.231 c 0,0 -0.416,-1.252 0.326,-2.072 s 1.595,-0.839 2.161,-0.946 c 0.646,-0.123 1.242,-0.924 1.359,-1.705 s 0.717,-1.723 1.325,-2.105 c 0.528,-0.331 1.313,-0.624 2.482,-0.479 s 1.128,1.76 0.542,3.049 Z" fill="#C1694F"/>
	
	<g fill="#D99E82">
		<circle cx="4.125" cy="12.468" r="1.328"/>
		<circle cx="6.214" cy="8.442" r="0.84"/>
		<circle cx="9.777" cy="8.012" r="1.853"/>
		<circle cx="11.32" cy="4.468" r="1.232"/>
		
		todo: circles..
		<path d=" M
4.316,11.179
 C 4.292,11.062 4.279,10.94
4.279,10.815
 C 4.279,9.966 4.863,9.258
5.649,9.055
 L
6.709,9.102
 C 6.882,9.163 7.042,9.247
7.187,9.355
 C 7.339,8.972 7.626,8.662
7.989,8.474
 L
10.306,6.245
 C 10.34,5.949 10.454,5.678
10.653,5.477
 H 12.2
L
9.14,10.34
L 
4.316 13.50
 Z"/>
		<circle cx="9.008" cy="5.377" r=".691"/>
	</g>
	<g fill="#FFD983">
		<circle cx="3.318" cy="11.729" r=".657"/>
		<circle cy="9.61" cx="6.005" r="0.87"/>
		<circle cx="5.8785" cy="11.138" r="1.1245"/>
		<ellipse rx="0.70305" ry="0.64434" transform="translate(10.3305,4.427) rotate(36.1856)"/>
		<ellipse cx="10.427" cy="6.883" rx="1.332" ry="1.306"/>
		<ellipse cx="8.241" cy="9.657" rx="0.792" ry="0.77"/>
		<circle cx="7.848" cy="7.732" r=".78"/>
	</g>
	<g fill="#FFE8B6">
		<ellipse cx="5.735" cy="10.963" rx=".684" ry=".645"/>
		<circle cx="10.47" cy="5.943" r=".739"/>
		<circle cx="8.55" cy="8.786" r=".708"/>
		<circle cx="2.882" cy="11.86" r=".449"/>
		<circle cx="6.547" cy="6.658" r=".613"/>
		<circle cx="3.428" cy="9.977" r=".568"/>
		<circle cx="9.164" cy="6.892" r=".568"/>
	</g>
	<g fill="#FFAC33">
		<ellipse cx="4.798" cy="8.875" rx=".488" ry=".469"/>
		<ellipse cx="8.184" cy="6.803" rx=".547" ry=".469"/>
		<ellipse cx="4.219" cy="12.016" rx=".527" ry=".488"/>
		<ellipse cx="9.32" cy="4.909" rx=".43" ry=".469"/>
	</g>
	<g fill="#DD2E44">
		<circle cx="3.666" cy="12.187" r=".371"/>
		<ellipse cx="6.728" cy="10.096" rx=".488" ry=".449"/>
		<circle cx="7.694" cy="5.177" r=".41"/>
		<circle cx="8.952" cy="7.947" r=".371"/>
		<circle cx="5.148" cy="7.188" r=".511"/>
		<ellipse cx="10.88" cy="4.13" rx=".391" ry=".352"/>
	</g>
	
	<g>
		<path d="M 11.86,2.68 l 3.72,4.02 l -10.36,9.35 l -3.38,-3.21 c 3.34,3.16 12.74,-7.16 10.02,-10.16 Z" fill="#FFCC4D"/>
		<path d="M 6.899,14.801 s 3.797,3.054 4.581,4.003 s 8.337,9.946 9.121,11.019 s 2.518,3.467 2.518,3.467 s -7.14,-8.419 -8.172,-9.657 s -8.048,-8.832 -8.048,-8.832 Z" fill="#FFAC33"/>
		<path d="M 13.461,13.232 s 2.401,1.668 2.931,2.312 c 0.529,0.643 0.412,0.99 -0.083,0.66 c -0.496,-0.331 -2.848,-2.972 -2.848,-2.972 Z" fill="#FFAC33"/>
		<path d="M 17.464,18.226 s 4.664,4.375 5.407,5.448 s 4.457,5.283 4.953,6.067 c 0.495,0.784 0.619,2.064 0.619,2.064 s -1.114,-2.435 -2.683,-4.086 s -4.829,-4.994 -5.448,-5.695 c -0.619,-0.702 -2.848,-3.798 -2.848,-3.798 Z" fill="#FFAC33"/>
		<path d="M 19.064,16.326 s 3.358,2.024 4.206,3.016 s 3.975,3.807 4.547,4.537 s 0.636,1.159 0.636,1.159 s -1.166,-1.479 -2.893,-2.963 s -2.921,-2.421 -3.608,-3.056 s -2.888,-2.693 -2.888,-2.693 Z" fill="#FFAC33"/>
		<path d="M 13.915,8.775 s 2.93,1.981 3.467,2.6 s 1.733,1.898 1.527,2.146 s -1.321,-1.156 -1.981,-1.692 c -0.661,-0.536 -3.013,-3.054 -3.013,-3.054 Z" fill="#FFAC33"/>
	</g>
	
	todo: strokes
	
	<path d="M 24.992,34.054 c -0.304,0 -0.595,-0.175 -0.729,-0.47 c -0.575,-1.271 -1.422,-2.395 -2.102,-3.297 c -0.154,-0.205 -0.3,-0.398 -0.433,-0.581 c -1.5,-2.052 -3.386,-4.594 -3.769,-5.006 c -0.314,-0.338 -0.94,-1.133 -1.665,-2.052 c -0.499,-0.634 -1.013,-1.287 -1.413,-1.772 c -1.412,-1.713 -1.495,-3.458 -0.216,-4.554 c 1.303,-1.117 2.316,-2.479 2.938,-3.425 c 0.591,-0.9 1.331,-1.142 1.848,-1.186 c 1.153,-0.099 2.462,0.634 3.898,2.172 c 0.976,1.045 2.886,2.529 4.42,3.721 l 0.33,0.256 c 2.333,1.815 3.998,3.47 5.09,5.061 c 0.25,0.364 0.158,0.862 -0.206,1.112 c -0.366,0.253 -0.863,0.157 -1.112,-0.206 c -0.984,-1.434 -2.583,-3.017 -4.754,-4.704 l -0.329,-0.256 c -1.579,-1.227 -3.545,-2.754 -4.608,-3.893 c -1.022,-1.096 -1.992,-1.721 -2.593,-1.67 c -0.153,0.013 -0.388,0.076 -0.646,0.469 c -0.678,1.033 -1.789,2.523 -3.234,3.762 c -0.795,0.682 0.021,1.851 0.409,2.321 c 0.406,0.492 0.929,1.156 1.436,1.8 c 0.645,0.817 1.311,1.663 1.58,1.954 c 0.525,0.565 2.895,3.79 3.888,5.15 c 0.13,0.177 0.271,0.363 0.42,0.562 c 0.728,0.966 1.633,2.169 2.28,3.6 c 0.183,0.403 0.004,0.877 -0.398,1.059 c -0.107,0.05 -0.219,0.073 -0.33,0.073 Z" fill="#F4900C"/>
	
	<path d="M 6.008,13.141 c -1.268,0.797 -3.701,1.161 -4.531,-0.117 s -0.669,-2.758 -0.039,-4.219 c 0.859,-1.993 3.358,-4.881 5.624,-6.289 c 0.94,-0.584 3.125,-1.211 4.18,-0.742 c 1.705,0.757 2.032,2.461 1.055,4.57 c -1.24,2.68 -3.867,5.274 -6.289,6.797 ZM 7.805,3.297 c -1.487,0.743 -3.907,2.891 -4.922,4.727 c -0.748,1.353 -1.601,3.086 -0.859,4.375 c 0.375,0.652 2.229,0.718 3.359,0.117 c 1.836,-0.976 4.937,-4.033 6.016,-6.406 c 0.586,-1.289 0.391,-2.617 -0.039,-3.047 c -0.32,-0.32 -1.602,-0.743 -3.555,0.234 Z" fill="#FFE8B6"/>
	<path d="M 15.696,27.613 c -0.384,0 -0.75,-0.223 -0.916,-0.597 c -0.223,-0.505 0.006,-1.096 0.511,-1.318 c 1.573,-0.693 4.542,-2.287 6.76,-5.164 c 2.202,-2.856 1.835,-6.188 1.831,-6.221 c -0.065,-0.547 0.323,-1.046 0.87,-1.113 c 0.55,-0.072 1.046,0.318 1.114,0.865 c 0.021,0.168 0.489,4.161 -2.231,7.689 c -2.489,3.229 -5.791,5.003 -7.537,5.773 c -0.13,0.059 -0.267,0.086 -0.402,0.086 Z" fill="#FFE8B6"/>
	<path d="M 24.327,27.031 c -0.463,0 -0.879,-0.323 -0.978,-0.795 l -1.133,-5.395 c -0.074,-0.351 0.046,-0.714 0.313,-0.952 s 0.642,-0.315 0.982,-0.201 l 4.688,1.566 c 0.523,0.175 0.806,0.741 0.631,1.266 c -0.174,0.522 -0.737,0.807 -1.266,0.631 l -3.033,-1.014 l 0.774,3.688 c 0.113,0.54 -0.232,1.07 -0.773,1.184 c -0.067,0.015 -0.136,0.022 -0.205,0.022 Z" fill="#FFE8B6"/>
</svg>
