<svg xmlns="http://www.w3.org/2000/svg" viewBox="0 0 36 36">
	<defs id="defs6">
		<clipPath id="clipPath34">
			<path d="M 18.4561,17.2725 c 0.875,-0.524 5.387,-2.693 6.682,-3.288 c 0.524,1.679 2.903,15.462 9.234,15.146 c 1.469,0.07 0.105,1.504 -1.085,1.644 c -1.188,0.141 -2.901,-0.174 -3.602,-0.489 c 0.21,0.734 0.272,2.972 0.245,3.742 c -0.035,0.945 -1.129,0.59 -2.169,-0.035 c -6.227,-3.742 -9.305,-16.72 -9.305,-16.72 Z"/>
		</clipPath>
	</defs>
	<path d="M 22.168,13.976 a 1,1 0 01 -1.752,0.964 c -1.003,-1.82 -1.381,-3.77 -1.685,-5.336 c -0.082,-0.427 -0.161,-0.834 -0.248,-1.215 a 1,1 0 01 1.95,-0.445 c 0.091,0.401 0.174,0.83 0.262,1.279 c 0.291,1.504 0.621,3.207 1.473,4.753 Z" fill="#000000"/>
	<!-- newer shape: <path d="M20.416 14.94c-1.003-1.821-1.381-3.77-1.685-5.336-.083-.427 1.579-2.199 1.701-1.66.092.401.175.83.263 1.279.291 1.503.621 3.207 1.473 4.752.267.485-1.569 1.296-1.752.965z" fill="#000000"/>
		only differs in non-visible areas.. is this just an optimization? or was it intending to be placed above other things? -->
	
	<g clip-path="url(#clipPath34)">
		<rect width="36" height="36" fill="#be1931"/>
		<path d="M 18.2119,19.2314 s -0.77,-2.693 -0.875,-2.693 c -0.104,0 8.046,-3.393 8.046,-3.393 l 1.259,2.273 s -8.186,3.673 -8.43,3.813 Z" fill="#a0041e"/>
	</g>
	
	<path d="M 18.2119,17.4478 c -0.875,0.35 -1.644,-1.435 -0.49,-1.924 c 1.154,-0.49 6.016,-2.833 7.206,-3.253 c 1.189,-0.42 1.504,1.434 0.489,1.924 c -1.014,0.489 -6.07,2.799 -7.205,3.253 Z" fill="#ffac33"/>
	
	<!-- leafs 1 -->
	<!-- todo: reuse leafs -->
	<path d="M 6.1948,14.0444 c -1.895,-1.62 4.242,-5.004 7.798,-6.138 c -0.251,1.072 -5.064,8.474 -7.798,6.138 Z" fill="#a6d388"/>
	<path d="M 25.5391,4.3857 c 0.964,-2.299 6.061,2.512 8.226,5.55 c -1.097,0.089 -9.616,-2.233 -8.226,-5.55 Z" fill="#a6d388"/>
	<!-- stems -->
	<path d="M 4.5835,34.125 a 1.5,1.5 0 01 -3,0 c 0,-0.192 -0.005,-0.438 -0.011,-0.734 c -0.087,-4.165 -0.059,-16.531 8.428,-30.808 c 0.423,-0.712 1.055,-1.254 1.766,-0.831 c 0.712,0.423 0.323,1.369 -0.1,2.081 c -8.049,13.539 -7.177,25.543 -7.095,29.495 c 0.007,0.322 0.012,0.589 0.012,0.797 Z" fill="#5c913b"/>
	<path d="M 9.181,34.369 a 1.5,1.5 0 01 -2.945,-0.572 c 0.035,-0.18 0.078,-0.448 0.132,-0.793 c 3.4,-21.295 13.516,-28.269 21.799,-30.838 c 0.799,-0.244 2.104,-0.359 2.349,0.431 c 0.245,0.792 -0.6,1.282 -1.391,1.528 c -7.472,2.316 -16.638,9.579 -19.794,29.352 c -0.062,0.387 -0.111,0.689 -0.15,0.892 Z" fill="#5c913b"/>
	
	<g stroke-linecap="round" fill="none" stroke-width="3" stroke="#3e721d">
		<path d="M 2.0835,31.541 L 4.1665,31.416"/>
		<path d="M 9.9165,7.1245 L 7.7915,6.208"/>
		<path d="M 5.4585,19.416 L 3.2085,18.833"/>
		<path d="M 22.667,7.2495 L 21.375,5.333"/>
		<path d="M 14.6665,16.7915 L 12.125,15.458"/>
		<path d="M 9.9165,28.458 L 7.7085,27.875"/>
	</g>

	<!-- leafs 2 -->
	<path d="M 4.9585,15.208 c -2.252,1.068 -2.834,-5.917 -2.417,-9.625 c 0.875,0.667 5.667,8.083 2.417,9.625 Z" fill="#a6d388"/>	
</svg>
