<svg xmlns="http://www.w3.org/2000/svg" viewBox="0 0 36 36">
	<defs>
		<clipPath id="car1">
			<path d="M 8,27 l 3.684,-9 c 0.904,-2.209 2.909,-4 4.478,-4 h12.072 c 1.569,0 3.106,1.791 3.433,4 l 1.333,9 h-25 Z"/>
			<path d="M 36,25 v3 a 4,4 0 01 -4,4 h-27 l -3.215,-2 v-2 l 0.587,-3 c 0.434,-2.209 2.466,-4 4.539,-4 h25.335 a 3.754,4 0 01 3.754,4 Z"/>
			<rect x="0" y="28" width="8" height="4" rx="2"/>
		</clipPath>
	</defs>
	
	<g>
		<path d="M 19.5,12 c 0.828,0 1.572,0.661 1.661,1.478 l 0.216,1.971 c 0.089,0.816 -0.83,1.495 -2.053,1.515 s -2.094,-0.635 -1.947,-1.464 l 0.356,-2 c 0.148,-0.828 0.939,-1.5 1.767,-1.5 Z" fill="#ccd6dd"/>
	</g>
	<g clip-path="url(#car1)">
		<circle r="999" fill="#ffcc4d"/>
		<rect width="36" height="2" y="24" fill="#f4900c"/>
	</g>
	<g>
		<circle r="4" cx="10" cy="31" fill="#292f33"/>
		<circle r="4" cx="27" cy="31" fill="#292f33"/>
		<circle r="2" cx="10" cy="31" fill="#ccd6dd"/>
		<circle r="2" cx="27" cy="31" fill="#ccd6dd"/>
	</g>
	<g fill="#55acee">
		<path d="M 24,21 v-5 h2.327 c 2.885,0 3.042,1 3.437,3.5 c 0.092,0.592 0.142,1.084 0.156,1.5 h-5.92 Z"/>
		<path d="M 22,16 v5 h-9.319 c 0.118,-0.412 0.277,-0.901 0.472,-1.5 c 0.611,-1.933 2.253,-3.5 3.847,-3.5 h5 Z"/>
	</g>
</svg>
