<svg xmlns="http://www.w3.org/2000/svg" viewBox="0 0 36 36">
	base
	<g>
		<ellipse fill="#269" cx="17.5" cy="31.5" rx="8" ry="2"/>
		<path d="M 11.173,31.777 s 3.297,0.757 6.371,0.668 c 2.539,-0.074 5.614,-0.356 6.505,-0.757 c 0,0 -1.069,1.381 -6.416,1.381 s -6.46,-1.292 -6.46,-1.292 Z" fill="#3B88C3"/>
	</g>
	
	lid 1
	<ellipse fill="#269" cx="17.5" cy="15.25" rx="8.5" ry="2.25"/>
	
	teapot
	<g>
		<path d="M 33.582,16.654 c 3.518,-0.202 2.185,1.133 1.072,1.712 c -0.505,0.262 -1.515,1.738 -2.098,4.234 c -0.455,1.948 -0.847,5.658 -5.213,5.391 c -2.994,-0.183 -0.045,-7.084 -0.045,-7.084 s 1.871,3.119 3.876,-1.47 c 0.895,-2.049 1.409,-2.726 2.408,-2.783 Z" fill="#3B88C3"/>
		<path d="M 5.829,28.351 c -1.112,0 -2.138,-0.351 -3.021,-1.04 c -1.95,-1.522 -2.641,-4.499 -2.641,-6.311 c 0,-2.422 1.331,-4.875 3.875,-4.875 c 1.546,0 2.209,0.537 2.911,1.104 c 0.394,0.319 0.801,0.648 1.48,0.988 l -0.782,1.931 c -0.849,-0.424 -1.375,-0.85 -1.798,-1.192 c -0.607,-0.491 -0.884,-0.715 -1.811,-0.715 c -1.46,0 -2.125,1.254 -2.125,2.759 c 0,1.531 0.608,3.551 1.967,4.611 c 0.822,0.643 1.815,0.822 2.945,0.54 l 0.425,2.017 c -0.486,0.122 -0.963,0.183 -1.425,0.183 Z" fill="#3B88C3"/>
		<path d="M 29,24.727 c 0,6.527 -6.9,7.273 -11.5,7.273 s -11.5,-0.746 -11.5,-7.273 s 4.775,-12.727 11.5,-12.727 s 11.5,6.2 11.5,12.727 Z" fill="#3B88C3"/>
		<path d="M 29.485,26.965 c 2.762,-0.223 2.807,-7.262 4.633,-8.153 c 0.031,-0.015 0.052,-0.018 0.082,-0.031 c -0.525,0.64 -1.206,1.94 -1.645,3.82 c -0.422,1.805 -0.795,5.117 -4.32,5.382 c -1.915,3.531 -7.119,4.097 -10.798,4.097 c -3.589,0 -8.501,-0.547 -10.521,-3.847 c -0.369,0.071 -0.733,0.118 -1.087,0.118 c -1.111,0 -2.138,-0.351 -3.021,-1.04 c -0.49,-0.382 -0.899,-0.856 -1.239,-1.38 c 1.04,0.89 2.318,1.521 2.966,1.658 c 2.112,0.445 1.782,-0.757 1.782,-0.757 c 1.381,1.826 3.965,3.965 10.96,3.965 c 7.797,0 10.292,-2.54 11.139,-4.589 c 0,0 0.58,0.796 1.069,0.757 Z" fill="#269"/>
		<path d="M 4.891,17.698 c 1.025,0.579 2.228,1.559 2.228,1.559 l -0.174,0.492 c -0.456,-0.285 -0.803,-0.559 -1.092,-0.793 c -0.607,-0.491 -0.885,-0.715 -1.811,-0.715 c -1.429,0 -2.092,1.202 -2.12,2.664 c -0.131,-0.674 -0.102,-1.58 0.34,-2.316 c 0.669,-1.114 1.989,-1.253 2.629,-0.891 Z" fill="#269"/>
		<ellipse fill="#269" cx="34.364" cy="17.141" rx="1.047" ry=".334"/>
	</g>
	
	lid 2
	<path d="M 26,15.25 a 8.5,2.25 0 01 -17,0 l 1,-0.75 a 7.5,1.5 0 00 15,0 l 1,0.75 Z" fill="#269"/>
	<ellipse fill="#269" cx="17.5" cy="11" rx="2.8" ry="1.5"/>
</svg>
