<svg xmlns="http://www.w3.org/2000/svg" viewBox="0 0 36 36">
	in v2.0.0 this was changed from july 15 to march 21, and the month name was centered. much later it was changed to the standard july 17 by reverting back to the old version and changing the number. but this also reverted back to the old non-centered month name, which i think wasn't a good idea.
	<rect width="34" height="32" rx="4" x="1" y="4" fill="#292f33"/>
	<rect width="30" height="20" rx="2" x="3" y="14" fill="#e1e8ed"/>
	<path d="M 33,16 h-30 v-8 a 2,2 0 01 2,-2 h26 a 2,2 0 01 2,2 v8 Z" fill="#dd2e44"/>
	<g fill="#66757f">
		15
		<!--<path d="M 11.6094,21 h-0.695 c -1.086,0 -1.537,-0.731 -1.537,-1.5 c 0,-0.792 0.564,-1.5 1.537,-1.5 h2.211 c 0.97,0 1.513,0.701 1.513,1.605 v10.865 c 0,1.13 -0.556,1.762 -1.529,1.762 s -1.5,-0.632 -1.5,-1.762 v-9.47 Z"/>
			<path d="M 20.3076,22.5029 c 0.541,-0.112 0.924,-0.126 1.443,-0.126 c 2.515,0 4.302,1.995 4.302,4.427 c 0,3.471 -1.912,5.757 -5.507,5.757 c -1.475,0 -4.572,-0.955 -4.572,-2.785 c 0,-0.769 0.644,-1.414 1.412,-1.414 c 0.831,0 1.83,1.33 3.222,1.33 c 1.455,0 2.203,-1.413 2.203,-2.721 c 0,-1.248 -0.706,-2.1 -1.994,-2.1 c -1.207,0 -1.393,0.686 -2.453,0.686 c -0.811,0 -1.364,-0.536 -1.303,-1.656 l 0.563,-3.758 c 0.248,-1.759 0.677,-2.143 1.759,-2.143 h5.436 c 1.037,0 1.646,0.609 1.646,1.421 c 0,1.557 -1.173,1.579 -1.579,1.579 h-4.24 l -0.338,1.503 Z"/>-->
		17
		<path d="M 23.115,20.484 h-5.205 c -1.098,0 -1.504,-0.712 -1.504,-1.403 c 0,-0.712 0.386,-1.403 1.504,-1.403 h7.362 c 1.038,0 1.464,0.935 1.464,1.464 c 0,0.407 -0.224,0.834 -0.468,1.342 l -5.043,10.25 c -0.569,1.139 -0.793,1.545 -1.708,1.545 c -1.119,0 -1.688,-0.854 -1.688,-1.444 c 0,-0.244 0.061,-0.427 0.204,-0.712 l 5.082,-9.639 Z"/>
		<path d="M 11.63,20.376 v10.318 c 0,1.017 0.475,1.586 1.349,1.586 s 1.376,-0.57 1.376,-1.586 v-11.572 c 0,-0.813 -0.488,-1.444 -1.362,-1.444 h-1.813 c -0.874,0 -1.383,0.637 -1.383,1.349 c 0,0.691 0.407,1.349 1.383,1.349 h0.45 Z"/>
	</g>
	<g fill="#f5f8fa">
		JUL
		<g>
			<path d="M 8.0645,13.001 c 0,1.679 -1,2.119 -1.851,2.119 c -0.645,0 -1.721,-0.27 -1.721,-1.14 c 0,-0.269 0.216,-0.609 0.524,-0.609 c 0.374,0 0.702,0.37 1.122,0.37 c 0.524,0 0.524,-0.52 0.524,-0.84 v-3.297 c 0,-0.5 0.298,-0.78 0.7,-0.78 c 0.403,0 0.702,0.28 0.702,0.78 v3.397 Z"/>
			<path d="M 8.7954,9.6035 c 0,-0.5 0.299,-0.78 0.702,-0.78 c 0.402,0 0.701,0.28 0.701,0.78 v2.488 c 0,0.92 0.552,1.649 1.44,1.649 c 0.85,0 1.43,-0.769 1.43,-1.649 v-2.488 c 0,-0.5 0.299,-0.78 0.702,-0.78 c 0.402,0 0.701,0.28 0.701,0.78 v2.568 c 0,1.679 -1.291,2.949 -2.833,2.949 c -1.561,0 -2.843,-1.25 -2.843,-2.949 v-2.568 Z"/>
			<path d="M 15.2598,9.6035 c 0,-0.5 0.3,-0.78 0.702,-0.78 s 0.701,0.28 0.701,0.78 v4.017 h1.665 c 0.477,0 0.682,0.38 0.672,0.72 c -0.018,0.33 -0.261,0.659 -0.672,0.659 h-2.338 c -0.458,0 -0.73,-0.319 -0.73,-0.819 v-4.577 Z"/>
		</g>
		MAR
		<!--<g>
			<path d="M 8.2986,9.2921 c 0,-0.393 0.311,-0.704 0.704,-0.704 h0.156 c 0.301,0 0.511,0.155 0.639,0.365 l 1.701,2.77 l 1.709,-2.778 c 0.146,-0.238 0.347,-0.357 0.631,-0.357 h0.155 c 0.393,0 0.704,0.311 0.704,0.704 v5.082 c 0,0.393 -0.311,0.704 -0.704,0.704 c -0.384,0 -0.695,-0.32 -0.695,-0.704 v-3.19 l -1.234,1.901 c -0.146,0.22 -0.329,0.357 -0.585,0.357 s -0.439,-0.137 -0.585,-0.357 l -1.216,-1.874 v3.181 c 0,0.384 -0.311,0.686 -0.694,0.686 c -0.384,0 -0.686,-0.302 -0.686,-0.686 v-5.1 Z" fill="#ffffff"/>
			<path d="M 19.3822,12.345 l -0.886,-2.112 l -0.887,2.112 h1.773 ZM 15.4242,14.118 l 2.231,-5.036 c 0.155,-0.348 0.438,-0.558 0.822,-0.558 h0.082 c 0.384,0 0.659,0.21 0.814,0.558 l 2.23,5.036 c 0.046,0.101 0.073,0.192 0.073,0.284 c 0,0.374 -0.292,0.676 -0.667,0.676 c -0.329,0 -0.548,-0.192 -0.676,-0.484 l -0.43,-1.006 h-2.815 l -0.448,1.051 c -0.119,0.274 -0.357,0.439 -0.649,0.439 c -0.366,0 -0.649,-0.292 -0.649,-0.658 c 0,-0.101 0.037,-0.201 0.082,-0.302 Z" fill="#ffffff"/>
			<path d="M 25.1643,11.7327 c 0.685,0 1.079,-0.366 1.079,-0.905 v-0.019 c 0,-0.603 -0.421,-0.914 -1.107,-0.914 h-1.399 v1.838 h1.427 ZM 22.3303,9.3287 c 0,-0.393 0.311,-0.704 0.704,-0.704 h2.221 c 0.814,0 1.444,0.229 1.864,0.649 c 0.357,0.357 0.549,0.859 0.549,1.462 v0.019 c 0,1.005 -0.502,1.627 -1.28,1.947 l 0.978,1.188 c 0.138,0.174 0.229,0.32 0.229,0.539 c 0,0.393 -0.329,0.649 -0.667,0.649 c -0.32,0 -0.531,-0.155 -0.695,-0.365 l -1.371,-1.737 h-1.125 v1.398 c 0,0.393 -0.31,0.704 -0.703,0.704 s -0.704,-0.311 -0.704,-0.704 v-5.045 Z"/>
		</g>-->
	</g>
	<g fill="#f4abba">
		<circle r="1" cx="31" cy="14"/>
		<circle r="1" cx="28" cy="14"/>
		<circle r="1" cx="25" cy="14"/>
		<circle r="1" cx="25" cy="11"/>
		<circle r="1" cx="28" cy="11"/>
		<circle r="1" cx="31" cy="11"/>
	</g>
	<g fill="#99aab5">
		<rect width="2" height="8" rx="1" x="9" y="0"/>
		<rect width="2" height="8" rx="1" x="25" y="0"/>
	</g>
</svg>
