<svg viewBox="0 0 36 36" xmlns="http://www.w3.org/2000/svg">
	<path d="M 25,22 c 2,3 1.502,8.056 -0.122,9 c -6.878,4 -2.878,-2 -6.878,-2 s 0,6 -6.878,2 c -1.624,-0.944 -2.122,-6 -0.122,-9 h0.253 c -0.16,-0.798 -0.253,-1.633 -0.253,-2.5 c 0,-5.247 3.134,-9.5 7,-9.5 s 7,4.253 7,9.5 c 0,0.867 -0.093,1.702 -0.253,2.5 h0.253 Z" fill="#C1694F"/>
	<!--<path d="M 23.667,20.458 c 0.458,4 -2.353,7.184 -5.667,7.184 s -6.125,-3.184 -5.667,-7.184 c 0.177,-1.544 -0.292,-3.562 -0.23,-5.25 c 1.387,1.084 3.95,1.792 5.897,1.792 s 4.535,-0.708 5.922,-1.792 c 0.062,1.688 -0.432,3.706 -0.255,5.25 Z" fill="#C1694F"/>-->
	<path d="M 12.373,14 c 0,3 -1,8 -1,8 s 2,2 0,4 c -1.581,1.581 -6,1 -5,-5 s 6,-7 6,-7 Z" fill="#C1694F"/>
	<path d="M 23.627,14 s 5,1 6,7 s -3.419,6.581 -5,5 c -2,-2 0,-4 0,-4 s -1,-5 -1,-8 Z" fill="#C1694F"/>
	<circle fill="#C1694F" cx="11" cy="4" r="4"/>
	<circle fill="#C1694F" cx="25" cy="4" r="4"/>
	<circle fill="#662113" cx="11" cy="4" r="2"/>
	<circle fill="#662113" cx="25" cy="4" r="2"/>
	
	<path d="M 24.467,26.924 c -0.062,-0.039 -1.504,-0.979 -1.46,-2.89 c 0.027,-1.165 0.799,-1.967 1.174,-2.289 c 0.118,-2.072 -0.636,-4.143 -0.644,-4.164 a 0.5,0.5 0 01 0.938,-0.347 c 0.037,0.099 0.893,2.448 0.688,4.809 a 0.5,0.5 0 01 -0.215,0.369 c -0.008,0.005 -0.918,0.654 -0.94,1.646 c -0.031,1.353 0.986,2.016 0.997,2.022 a 0.5,0.5 0 01 -0.538,0.844 Z"  fill="#934035"/>
	<path d="M 11.534,26.926 a 0.5,0.5 0 01 -0.538,-0.845 c 0.04,-0.025 1.027,-0.688 0.997,-2.022 c -0.023,-0.991 -0.933,-1.641 -0.942,-1.646 a 0.5,0.5 0 01 -0.213,-0.368 c -0.205,-2.36 0.65,-4.709 0.687,-4.809 a 0.5,0.5 0 01 0.938,0.346 c -0.008,0.021 -0.761,2.099 -0.644,4.165 c 0.375,0.322 1.146,1.124 1.174,2.289 c 0.044,1.91 -1.398,2.851 -1.459,2.89 Z"  fill="#934035"/>
	
	<!--<ellipse transform="translate(24.878 31) rotate(-45)" fill="#D99E82" rx="2.5" ry="2"/>-->
	<path d="M 13,13 c 1,0 5,0 5,2 s -1,9 -1,9 c -1,-2 -3,-2 -3,-2 c 0,-3 1,-5 1,-5 c -2,1 -3,-1 -3,-2 s -1,-2 1,-2 Z" fill="#A0041E"/>
	<path d="M 23,13 c 2,0 1,1 1,2 s -1,3 -3,2 c 0,0 1,2 1,5 c 0,0 -2,0 -3,2 c 0,0 -1,-7 -1,-9 s 4,-2 5,-2 Z" fill="#A0041E"/>
	<ellipse fill="#C1694F" cx="18" cy="8.5" rx="8" ry="7.5"/>
	<ellipse transform="translate(11.122 30.5) rotate(45)" fill="#C1694F" rx="5" ry="4.5"/>
	<ellipse transform="translate(24.878 30.5) rotate(-45)" fill="#C1694F" rx="5" ry="4.5"/>
	
	<path d="M 20.511,29.423 a 0.5,0.5 0 01 -0.92,-0.391 c 2.255,-5.301 8.141,-3.641 8.198,-3.623 a 0.5,0.5 0 01 -0.28,0.96 c -0.207,-0.061 -5.096,-1.42 -6.998,3.054 Z"  fill="#934035"/>
	<path d="M 15.501,29.447 c -2.274,-4.635 -6.795,-3.15 -6.986,-3.086 a 0.5,0.5 0 01 -0.326,-0.946 c 0.055,-0.02 5.543,-1.845 8.21,3.592 a 0.5,0.5 0 01 -0.898,0.44 Z"  fill="#934035"/>
	<!--<path d="M 12.889,32.768 c -0.781,0.781 -2.206,0.623 -3.182,-0.354 c -0.976,-0.976 -1.135,-2.401 -0.354,-3.182 s 2.206,-0.623 3.182,0.354 s 1.135,2.401 0.354,3.182 Z" fill="#D99E82"/>-->
	<ellipse rx="2.7" ry="3.15" transform="translate(11.1215,31) rotate(-45)"  fill="#D99E82"/>
	<ellipse rx="2.7" ry="3.15" transform="translate(24.8785,31) rotate(45)"  fill="#D99E82"/>
	
	<path d="M 18.058,9.563 c -6.808,0 -4.612,5.562 -0.147,5.562 c 4.464,0 6.955,-5.562 0.147,-5.562 Z" fill="#D99E82"/>
	
	<circle fill="#292F33" cx="15" cy="8" r="1"/>
	<circle fill="#292F33" cx="21" cy="8" r="1"/>
	<path d="M 16.737,11.065 c -0.327,-0.568 0.082,-1.277 0.737,-1.277 h1.052 c 0.655,0 1.065,0.71 0.737,1.277 l -0.526,0.911 c -0.327,0.567 -1.146,0.567 -1.474,0 l -0.526,-0.911 Z" fill="#292F33"/>
	
	<path d="M 16,13 s 2,2 4,0" stroke-width="0.5" stroke-linecap="round" stroke-linejoin="round" fill="none" stroke="#292F33"/>
	
</svg>
