<svg xmlns="http://www.w3.org/2000/svg" viewBox="0 0 36 36">
	<path d="M 34.0596,26.4072 l -3.496,-3.496 c -1.93,-1.93 -5.06,-1.93 -6.989,0 c -0.719,0.718 -1.167,1.602 -1.352,2.528 c -5.765,-1.078 -11.372,-6.662 -11.721,-11.653 c 0.948,-0.176 1.854,-0.628 2.587,-1.36 c 1.93,-1.931 1.93,-5.061 0,-6.991 l -3.495,-3.495 c -1.93,-1.93 -5.06,-1.93 -6.99,0 c -10.485,10.486 20.971,41.942 31.456,31.456 c 1.93,-1.929 1.93,-5.059 0,-6.989 Z" fill="#31373D" class="toodark"/>
	<path transform="translate(2.6036,1.9402) scale(0.9986)" d=" M
0,0
 C 1.9327,-1.9327 5.06708,-1.9327
7,0
 L
10.5,3.5
 C 12.43237,5.43259 12.43237,8.56697
10.5,10.5
 C 9.76564,11.23369 8.85837,11.68632
7.90905,11.86257
 C 8.25854,16.86055 13.87338,22.45236
19.64644,23.53187
 C 19.8317,22.60457 20.28033,21.71934
21,21
 C 22.93203,19.06763 26.06641,19.06763
28,21
 L
31.5,24.5
 C 33.4327,26.43392 33.4327,29.5683
31.5,31.5
 C 21,42 -10.5,10.5
0,0
 Z" fill="#31373D" class="toodark"/>
</svg>
