<svg xmlns="http://www.w3.org/2000/svg" viewBox="0 0 36 36">
	<g>
		<path d="M 18,4 c 15,0 18,4.462 18,7.5 s -8.059,-0.5 -18,-0.5 s -18,3.538 -18,0.5 s 3,-7.5 18,-7.5 Z" fill="#be1931"/>
		<path d="M 31,8.5 c 2.761,0 5,1.127 5,3.75 s -2.239,3.75 -5,3.75 s -5,-1.127 -5,-3.75 s 2.239,-3.75 5,-3.75 Z" fill="#be1931"/>
		<path d="M 5,8.5 c 2.761,0 5,1.127 5,3.75 s -2.239,3.75 -5,3.75 s -5,-1.127 -5,-3.75 s 2.239,-3.75 5,-3.75 Z" fill="#be1931"/>
	</g>
	<g>
		<rect x="11" y="7" rx="2" width="4" height="8" fill="#dd2e44"/>
		<rect x="21" y="7" rx="2" width="4" height="8" fill="#dd2e44"/>
		<path d="M 25,11 c 2,0 4.409,2.346 5.966,4.993 c 1.658,2.818 3.487,5.976 3.968,7.007 c 0.618,1.324 1.066,2 1.066,4 s -1.791,5 -4,5 h-28 c -2.209,0 -4,-3 -4,-5 s 0.488,-2.761 1.067,-4 c 0.481,-1.03 2.306,-4.185 3.964,-7 c 1.559,-2.649 3.969,-5 5.969,-5 h14 Z" fill="#dd2e44"/>
	</g>
	<g fill="#ffffff">
		<ellipse rx="2.0455" ry="0.818" cx="18" cy="14.8184"/>
		<ellipse rx="2.0455" ry="0.818" cx="13.0911" cy="14.8184"/>
		<ellipse rx="2.0455" ry="0.818" cx="22.9089" cy="14.8184"/>
		<ellipse rx="2.4545" ry="1.2275" cx="18" cy="17.6821"/>
		<ellipse rx="2.4545" ry="1.2275" cx="23.7273" cy="17.6821"/>
		<ellipse rx="2.4545" ry="1.2275" cx="12.2727" cy="17.6821"/>
		<ellipse rx="3.2725" ry="1.6365" cx="18" cy="21.3638"/>
		<ellipse rx="3.2725" ry="1.6365" cx="25.3635" cy="21.3638"/>
		<ellipse rx="3.2725" ry="1.6365" cx="10.6365" cy="21.3638"/>
	</g>
</svg>
