<svg xmlns="http://www.w3.org/2000/svg" viewBox="0 0 36 36">
	<!-- this one is a scaled and messed up version of the original -->
	
	<path d="M 16.812,33 L 9.859,10.803L 26.172,10.803C 26.729,10.803 27.231,11.108 27.451,11.62L 35.794,31.075C 35.978,31.505 35.934,31.992 35.678,32.382C 35.419,32.772 34.982,33 34.515,33L 16.812,33Z"   fill="#F4900C"/>
	<path d="M 1.515,33 c -0.467,0 -0.904,-0.236 -1.162,-0.625 c -0.256,-0.391 -0.3,-0.885 -0.116,-1.315 l 8.348,-19.479 c 0.218,-0.51 0.722,-0.843 1.278,-0.843 c 0.557,0 1.061,0.333 1.279,0.843 l 8.348,19.479 c 0.184,0.431 0.139,0.924 -0.117,1.315 c -0.256,0.389 -0.693,0.625 -1.161,0.625 h-16.697 Z"  fill="#FFCC4D"/>
	<path d="M 9.859,14.182 l 2.781,18.818 h-5.563 l 2.782,-18.818 Z"  fill="#292F33"/>
	<path d="M 15.46,31.456 l 0.621,1.544 h-3.441 l 2.82,-1.544 Z"  fill="#FFAC33"/>
	<path d="M 4.257,31.456 l 2.82,1.544 h-3.441 l 0.621,-1.544 Z"  fill="#FFAC33"/>
	<path d="M 12.64,33 l -2.781,-18.818 l 6.547,17.032 c -1.237,1.141 -3.766,1.786 -3.766,1.786 Z"  fill="#FFE8B6"/>
	<path d="M 7.077,33 s -2.529,-0.645 -3.766,-1.786 l 6.546,-17.031 l -2.78,18.817 Z"  fill="#FFE8B6"/>
</svg>
