<svg xmlns="http://www.w3.org/2000/svg" viewBox="0 0 36 36">
	<path fill="#CCD6DD" d="M 32.4326,10.4663 l -10.909,10.909 l -6.961,-6.962 l 10.908,-10.908 l 6.962,6.961 Z"/>
	<g>
		<path fill="#68E090" d="M 8.1025,34.3994 c -5.603,-0.399 -6.603,-4.337 -6.467,-6.468 c 0.321,-5.07 15.601,-16.551 15.601,-16.551 l 12.517,1.931 s -17.39,21.392 -21.651,21.088 Z"/>
	</g>
	<g fill="#8899A6">
		<path d=" M
35.5325,11.0801
 C 35.5195,11.0931 35.5025,11.1011
35.4895,11.1131
 C 35.4835,11.1201 35.4815,11.1291
35.4745,11.1361
 L
12.8705,33.7401
 A 7.478,7.478 0 01
2.2955,33.7391
 A 7.478,7.478 0 01
2.2945,23.1641
 L
24.8995,0.5601
 C 24.9055,0.5541 24.9145,0.5521
24.9195,0.5461
 C 24.9325,0.5321 24.9415,0.5151
24.9545,0.5021
  L
25.4125,4.2901
 L
4.4165,25.2851
 A 4.478,4.478 0 00
4.4165,31.6181
 A 4.478,4.478 0 00
10.7495,31.6191
 L
31.7455,10.6231
 Z"/>
		<ellipse rx="2.94581" ry="7.47978" transform="translate(30.2435,5.7911) rotate(-45)"/>
	</g>
	<g>
		<path fill="#CCD6DD" d="M 34.2441,8.6499 c -0.463,0.462 -2.372,-0.697 -4.265,-2.59 c -1.892,-1.893 -3.052,-3.802 -2.589,-4.264 c 0.461,-0.463 2.371,0.697 4.264,2.589 c 1.893,1.893 3.052,3.803 2.59,4.265 Z"/>
	</g>
	<g>
		<path fill="#17BF63" d="M 29.1963,13.144 c -0.059,0.378 -2.627,0.75 -5.69,0.343 c -3.064,-0.408 -5.483,-1.223 -5.403,-1.821 c 0.079,-0.597 2.627,-0.75 5.691,-0.342 c 3.062,0.408 5.494,1.224 5.402,1.82 Z"/>
		<path fill="#17BF63" d="M 10.8398,23.2471 c -0.31,0.31 -0.813,0.311 -1.123,0 s -0.31,-0.812 0,-1.123 c 0.31,-0.31 0.813,-0.31 1.123,0 c 0.31,0.311 0.31,0.812 0,1.123 Z"/>
		<path fill="#17BF63" d="M 14.1572,25.8613 c -0.506,0.507 -1.328,0.507 -1.835,0 c -0.506,-0.507 -0.506,-1.328 0.001,-1.834 c 0.506,-0.507 1.327,-0.507 1.834,0 c 0.506,0.507 0.507,1.327 0,1.834 Z"/>
		<path fill="#17BF63" d="M 15.8345,20.5381 c -0.477,0.477 -1.25,0.477 -1.727,0 c -0.476,-0.477 -0.475,-1.249 0.001,-1.726 c 0.476,-0.476 1.249,-0.476 1.726,0 c 0.476,0.477 0.477,1.25 0,1.726 Z"/>
		<path fill="#17BF63" d="M 8.9663,29.3955 c -0.581,0.581 -1.524,0.581 -2.105,0 c -0.582,-0.581 -0.582,-1.524 0,-2.105 c 0.581,-0.582 1.523,-0.582 2.105,0.001 c 0.581,0.581 0.582,1.523 0,2.104 Z"/>
		<path fill="#17BF63" d="M 20.3623,20.2373 c -0.412,0.413 -1.083,0.414 -1.496,0 c -0.413,-0.412 -0.412,-1.082 0,-1.495 c 0.414,-0.414 1.083,-0.414 1.496,-0.001 c 0.413,0.414 0.413,1.083 0,1.496 Z"/>
		<path fill="#17BF63" d="M 19.1543,15.9502 c -0.27,0.271 -0.708,0.27 -0.979,0 c -0.27,-0.271 -0.27,-0.708 0,-0.979 c 0.271,-0.27 0.709,-0.27 0.979,0 c 0.271,0.271 0.271,0.708 0,0.979 Z"/>
	</g>
</svg>
