<svg xmlns="http://www.w3.org/2000/svg" viewBox="0 0 36 36">
	come on, this totally couldve been aligned..
	<path fill="#CCD6DD" d="M 32.4326,10.4663 l -10.909,10.909 l -6.961,-6.962 l 10.908,-10.908 l 6.962,6.961 Z"/>
	<g>
		<path fill="#68E090" d="M 8.1025,34.3994 c -5.603,-0.399 -6.603,-4.337 -6.467,-6.468 c 0.321,-5.07 15.601,-16.551 15.601,-16.551 l 12.517,1.931 s -17.39,21.392 -21.651,21.088 Z"/>
	</g>
	<g>
		<path d="M 34.437,10.0516 l -22.627,22.627 a 5.978,5.978 0 01 -8.454,0 a 5.978,5.978 0 01 0,-8.454 l 22.627,-22.627" stroke-width="3" stroke="#8899A6" fill="none"/>
		<ellipse rx="2.94581" ry="7.47978" transform="translate(30.2435,5.7911) rotate(-45)" fill="#8899A6"/>
	</g>
	<g>
		<ellipse rx="1.1844" ry="4.84651" transform="translate(30.81685,5.22265) rotate(-45)" fill="#CCD6DD"/>
	</g>
	<g fill="#17BF63">
		<path d="M 29.1963,13.144 c -0.059,0.378 -2.627,0.75 -5.69,0.343 c -3.064,-0.408 -5.483,-1.223 -5.403,-1.821 c 0.079,-0.597 2.627,-0.75 5.691,-0.342 c 3.062,0.408 5.494,1.224 5.402,1.82 Z"/> not an ellipse !
		<circle r="0.79408" transform="translate(10.2783,22.6856) rotate(45)"/>
		<circle r="1.29701" transform="translate(13.23995,24.9443) rotate(45)"/>
		<circle r="1.22064" transform="translate(14.97125,19.6751) rotate(45)"/>
		<circle r="1.48828" transform="translate(7.9138,28.34325) rotate(45)"/>
		<circle r="1.05765" transform="translate(19.6143,19.48955) rotate(45)"/>
		<circle r="0.69226" transform="translate(18.6648,15.4607) rotate(45)"/>
	</g>
</svg>
