<svg xmlns="http://www.w3.org/2000/svg" viewBox="0 0 36 36">
	<g transform="translate(30 6) rotate(45)">
		<path d="M 0,-5 a 5,5 0 01 5,5 v26.2372 a 7,7 0 01 0,9.82596 a 7,7 0 01 -10,0 a 7,7 0 01 0,-9.86273 v-26.20043 a 5,5 0 01 5,-5 Z" fill="#ccd6dd"/> <!-- todo: maybe put notches (smaller) back into this layer so it doesnt show behind the marks ?  -->
	</g>
	<circle cx="8" cy="28" r="7" fill="#ccd6dd"/>
	
	<circle cx="8" cy="28" r="4" fill="#dd2e44"/>
	<g transform="translate(30 6) rotate(45)">
		<path d="M 0,-1.306 a 2,2 0 01 2,2 v26.97 a 4,4 0 01 2,3.44 a 4,4 0 01 -4,4 a 4,4 0 01 -4,-4 a 4,4 0 01 2,-3.44 v-26.97 a 2,2 0 01 2,-2 Z" fill="#dd2e44"/>
		
		<path d="M -1,23.677 h-4 v-2 h4 a 1,1 0 01 0,2 Z" fill="#292f33"/>
		<path d="M -1,18.677 h-4 v-2 h4 a 1,1 0 01 0,2 Z" fill="#292f33"/>
		<path d="M -1,13.677 h-4 v-2 h4 a 1,1 0 01 0,2 Z" fill="#292f33"/>
		<path d="M -1,8.677 h-4 v-2 h4 a 1,1 0 01 0,2 Z" fill="#292f33"/>
		
		<path d="M -1,3.69435 h-4 v-2 h4 a 1,1 0 01 0,2 Z" fill="#292f33"/>
	</g>
</svg>
