<svg xmlns="http://www.w3.org/2000/svg" viewBox="0 0 36 36">
	<!-- this one was very noisy before -->
	
	<g fill="#ccd6dd">
		<path d="M 0,-5 a 5,5 0 01 5,5 v26.5 h-10 v-26.5 a 5,5 0 01 5,-5 Z" transform="translate(30 6) rotate(45)"/> <!-- todo: maybe put notches (smaller) back into this layer so it doesnt show behind the marks ?  -->
		<circle cx="8" cy="28" r="7"/>
	</g>
	
	<g fill="#dd2e44">
		<path d="M 0,-1.306 a 2,2 0 01 2,2 v27 h-4 v-27 a 2,2 0 01 2,-2 Z" transform="translate(30 6) rotate(45)"/>
		<circle cx="8" cy="28" r="4"/>
	</g>
	
	<g transform="translate(30 6) rotate(45)" fill="#292f33">
		<path d="M -1,23.677 h-4 v-2 h4 a 1,1 0 01 0,2 Z"/>
		<path d="M -1,18.677 h-4 v-2 h4 a 1,1 0 01 0,2 Z"/>
		<path d="M -1,13.677 h-4 v-2 h4 a 1,1 0 01 0,2 Z"/>
		<path d="M -1,8.677 h-4 v-2 h4 a 1,1 0 01 0,2 Z"/>
		
		<path d="M -1,3.69435 h-4 v-2 h4 a 1,1 0 01 0,2 Z"/>
	</g>
</svg>
