<svg xmlns="http://www.w3.org/2000/svg" viewBox="0 0 36 36">
	<path fill="#55ACEE" d="M 0,0 l 14,17 l 11.52,-4.75 l -7.52,-4.25 l -7,-8 h-11 Z"/>
	<path fill="#3B88C3" d="M 25,0 l -7,8 l 5.391,7.312 l 1.225,-1.489 l 11.384,-13.823 h-11 Z"/>
	
	<rect width="10.667" height="4" rx="2" x="12.666" y="13.333" fill="#FF8A3B"/>
	<circle r="10.667" cx="18" cy="25.333" fill="#FF8A3B"/>
	
	<path fill="#7C4119" d="M 14.121 29.351 l 1.178,-1.179 c 0.131,-0.132 0.318,-0.149 0.468,-0.038 c 0,0 1.159,0.862 2.056,0.862 c 0.804,0 1.628,-0.674 1.628,-1.497 s -0.843,-1.514 -2.226,-1.514 h-0.639 c -0.186,0 -0.354,-0.168 -0.354,-0.356 v-1.551 c 0,-0.206 0.168,-0.356 0.354,-0.356 h0.639 c 1.309,0 2,-0.636 2,-1.439 c 0,-0.805 -0.691,-1.403 -1.496,-1.403 c -0.823,0 -1.346,0.43 -1.626,0.748 c -0.132,0.15 -0.356,0.15 -0.504,0.02 l -1.141,-1.123 c -0.151,-0.131 -0.131,-0.356 0,-0.486 c 0,0 1.533,-1.646 3.571,-1.646 c 2.169,0 4.039,1.329 4.039,3.423 c 0,1.438 -1.085,2.505 -1.926,2.896 v0.058 c 0.879,0.374 2.262,1.532 2.262,3.141 c 0,2.038 -1.777,3.571 -4.357,3.571 c -2.354,0 -3.552,-1.16 -3.944,-1.664 c -0.113,-0.131 -0.094,-0.337 0.018,-0.467 Z"/>
</svg>
