<svg xmlns="http://www.w3.org/2000/svg" viewBox="0 0 36 36">
	<path d="M 25,0 h11 l -12.666,15.333 H 18 L 18,8 L25,0 Z"  fill="#3B88C3"/>
	<path d="M 18,8 L 23.333 15.333 L 12.667 15.333 L 0,0 h11 l 7,8 Z"  fill="#55ACEE"/>
	
	<rect x="12.667" y="13.333" width="10.667" height="4" rx="2" fill="#FF8A3B"/>
	<circle r="10.667" cx="18" cy="25.333" fill="#FF8A3B"/>
		
	<path d="M 14.121,29.35 l 1.178,-1.178 a 0.355,0.355 0 01 0.467,-0.038 c 0,0 1.159,0.861 2.056,0.861 c 0.805,0 1.628,-0.673 1.628,-1.496 s -0.842,-1.514 -2.225,-1.514 h-0.639 a 0.354,0.355 0 01 -0.354,-0.355 v-1.552 a 0.354,0.355 0 01 0.354,-0.355 h0.639 c 1.309,0 2,-0.635 2,-1.439 c 0,-0.805 -0.691,-1.402 -1.496,-1.402 c -0.823,0 -1.346,0.43 -1.626,0.747 a 0.355,0.355 0 01 -0.504,0.02 l -1.141,-1.122 a 0.355,0.355 0 01 0,-0.486 c 0,0 1.533,-1.646 3.57,-1.646 c 2.169,0 4.039,1.328 4.039,3.422 c 0,1.439 -1.085,2.505 -1.926,2.897 v0.057 c 0.879,0.374 2.262,1.533 2.262,3.141 c 0,2.038 -1.776,3.572 -4.357,3.572 c -2.354,0 -3.552,-1.16 -3.944,-1.664 a 0.355,0.355 0 01 0.019,-0.47 Z"  fill="#7C4119"/>
</svg>
