<svg xmlns="http://www.w3.org/2000/svg" viewBox="0 0 36 36">
	<path d="M 34.768,10.813 a 3.872,3.872 0 01 0,5.476 l -5.911,5.911 a 2,2 0 00 -0.857,-0.2 a 2,2 0 00 -2,2 a 2,2 0 00 0.2,0.857 l -9.911,9.911 a 3.872,3.872 0 01 -5.476,0 l -9.581,-9.581 a 3.872,3.872 0 01 0,-5.476 l 9.911,-9.911 a 2,2 0 00 0.857,0.2 a 2,2 0 00 2,-2 a 2,2 0 00 -0.2,-0.857 l 5.911,-5.911 a 3.872,3.872 0 01 5.476,0 l 9.581,9.581 ZM 24,22 a 2,2 0 00 2,-2 a 2,2 0 00 -2,-2 a 2,2 0 00 -2,2 a 2,2 0 00 2,2 ZM 20,18 a 2,2 0 00 2,-2 a 2,2 0 00 -2,-2 a 2,2 0 00 -2,2 a 2,2 0 00 2,2 ZM 16,14 a 2,2 0 00 2,-2 a 2,2 0 00 -2,-2 a 2,2 0 00 -2,2 a 2,2 0 00 2,2 Z" fill="#ccd6dd"/>
	
	<g stroke-width="2" stroke-linecap="round" fill="none" stroke="#99AAB5">
		<path d="M 5,23 l 7,-7"/>
		<path d="M 8,26 l 7,-7"/>
		<path d="M 11,29 l 4,-4"/>
	</g>
	<!-- A -->
	<path d="M 20.3973,6.7831 c -0.245,-0.534 -0.228,-1.179 0.204,-1.611 c 0.45,-0.45 1.06,-0.467 1.611,-0.204 l 6.277,2.951 c 0.185,0.085 0.322,0.187 0.381,0.246 c 0.331,0.331 0.289,0.832 -0.026,1.145 c -0.355,0.356 -0.72,0.348 -1.06,0.179 l -1.051,-0.543 l -2.357,2.357 l 0.534,1.044 c 0.179,0.347 0.186,0.712 -0.161,1.059 c -0.34,0.34 -0.883,0.373 -1.222,0.034 c -0.136,-0.135 -0.194,-0.279 -0.22,-0.339 l -2.91,-6.318 ZM 23.5693,9.7681 l 1.611,-1.611 l -3.248,-1.671 l -0.016,0.017 l 1.653,3.265 Z" fill="#99aab5"/>
</svg>
