<svg xmlns="http://www.w3.org/2000/svg" viewBox="0 0 36 36">
	<defs>
		<clipPath id="body1">
			<path d="M 7,14 c 3,0 5,-1 6,-1 c 5.099,0 7,3 9,3 c 4,0 7,-1 9,0 s 3,2 2,7 s -2,13 -2,13 h-6 s -1,-1 1,-2 l 2,-1 v-2 s -2,-1 -4,-4 c 0,0 -4,1 -6,1 h-3 l -1,8 h-6 s 0,-2 1,-2 s 2,-1 2,-1 l -1,-10 h-3 c -2.829,0 -5,1 -5,1 s -2,-1.625 -2,-3.625 s 4,-6.375 7,-6.375 Z"/>
		</clipPath>
		<path id="stripe" d="M 0,0 c 1,-1 3,0 3,0 s 0,6 -2,9 c 1,-5 -1,-9 -1,-9 Z" fill="rgb(41,47,51)"/>
	</defs>
	* ear:
	<ellipse rx="1.333" ry="2" cx="7.333" cy="14" fill="rgb(255,172,51)"/>
	* tail:
	<path d="M 28,17 c 4,0 7,2 7,5 s 0,6 -2,9" stroke-linecap="round" stroke-linejoin="round" stroke-width="2" fill="none" stroke="rgb(255,172,51)"/>	
	* body:
	<g clip-path="url(#body1)">
		<rect width="36" height="36" fill="rgb(255,172,51)"/>
		stripes:
		<path d="M 0,0 c 1,-1 3,0 3,0 s 0,8 -3,12 c 2,-6 0,-12 0,-12 Z" transform="translate(16 13)" fill="rgb(41,47,51)"/>
		<use href="#stripe" x="19" y="14"/>
		<use href="#stripe" x="22" y="13"/>
		<use href="#stripe" x="25" y="12"/>
		<use href="#stripe" x="28" y="14.444"/>
		<use href="#stripe" x="12" y="12"/>
	</g>
	* eye:
	<circle cx="5" cy="17" r="1" fill="rgb(41,47,51)"/>
	* nose:
	<path d="M 0 20 c 1,-1 2,0 2,0 s -1,0 -1,2 c -1,0 -1,-2 -1,-2 Z" fill="rgb(41,47,51)"/>
</svg>
