<svg xmlns="http://www.w3.org/2000/svg" viewBox="0 0 36 36">
	<g>
		<path d="M 24,18 h8 v2.142 a 4,4 0 00 -3,3.858 v10 a 2,2 0 01 -2,2 h-18 c -1.104,0 -1.736,-0.896 -1.41,-2 l 3.542,-12 c 0.326,-1.104 1.294,-2 2.161,-2 h10.707 v-2 Z" fill="#AAB8C2"/>
	</g>
	<g>
		<path d="M 22,21.875 c 0,3.521 -4.478,7.125 -10,7.125 c -5.523,0 -10,-3.604 -10,-7.125 c 0,-1.875 0.833,-1.875 10,-1.875 c 9.166,0 10,0 10,1.875 Z" fill="#E1E8ED"/>
		<rect width="23" height="2" rx="1.15" ry="1" x="2" y="18" fill="#E1E8ED"/>
	</g>
	<g>
		<rect width="12" height="18" rx="2" x="22" y="2" fill="#E1E8ED" class="toolight"/>
		<rect x="22" y="4" width="12" height="2" fill="#CCD6DD"/>
	</g>
	<g>
		<rect width="23" height="2" rx="1" x="2" y="20" fill="#AAB8C2"/>
	</g>
	<g>
		<path d="M 18,16 a 2,2 0 01 2,2 h-16 a 2,2 0 01 2,-2 h12 Z" fill="#99AAB5"/>
		<path d="M 20,0 a 2,2.25 0 01 2,2.25 v13.5 a 2,2.25 0 01 -2,2.25 v-16 Z" fill="#99AAB5"/>
		<circle r="2" cx="20" cy="16" fill="#CCD6DD"/>
	</g>
</svg>
