<svg xmlns="http://www.w3.org/2000/svg" viewBox="0 0 36 36">
	<path d="M 16.103,26 h3 v10 h-3 v-10 Z"  fill="#BE1931"/>
	
	<path d="M 20.719,19.459 c 0.029,0.104 2.782,9.543 12.027,16.541 h-5.827 c -2.453,-1.656 -5.721,-2.678 -9.317,-2.678 s -6.863,1.022 -9.316,2.678 h-5.825 c 9.28,-7.015 11.996,-16.435 12.025,-16.539 l 6.233,-0.002 Z M 17.603,30.322 c 2.151,0 4.201,0.328 6.092,0.906 c -1.28,-1.659 -2.303,-3.264 -3.119,-4.717 h-5.947 c -0.816,1.452 -1.839,3.058 -3.119,4.717 c 1.891,-0.577 3.942,-0.906 6.093,-0.906 Z"   fill="#DD2E44"/>
	<path d="M 14.539,16.038 h6.185 c 0.225,1.239 0.486,2.437 0.785,3.5 h-7.755 c 0.298,-1.063 0.56,-2.261 0.785,-3.5 Z"  fill="#DD2E44"/>
	<path d="M 19.774,9.205 c 0.109,1.002 0.249,2.212 0.425,3.5 h-5.136 c 0.176,-1.288 0.317,-2.498 0.425,-3.5 h4.286 Z"  fill="#DD2E44"/>
	<path d="M 19.583,4.083 c 0.288,0 0.521,0.224 0.521,0.5 v1.318 h-4.929 v-1.318 c 0,-0.276 0.234,-0.5 0.521,-0.5 h1.166 l 0.205,-3.758 c 0,-0.097 0.081,-0.175 0.182,-0.175 h0.848 c 0.1,0 0.182,0.078 0.182,0.175 l 0.205,3.758 h1.099 Z"  fill="#DD2E44"/>
	<!-- lots of strange tiny radius corners -->
	<path d="M 23.42,19.586 c 0.07,0.051 0.108,0.132 0.102,0.215 c 0,0 -0.203,3.44 -0.265,3.552 c -0.074,0.134 -0.508,0.48 -0.588,0.48 h-10.111 c -0.08,0 -0.515,-0.347 -0.588,-0.48 c -0.061,-0.111 -0.265,-3.552 -0.265,-3.552 c -0.005,-0.083 0.033,-0.164 0.102,-0.215 l 0.875,-0.642 c 0.045,-0.033 0.101,-0.051 0.158,-0.051 h9.547 c 0.057,0 0.113,0.018 0.158,0.051 l 0.875,0.642 Z"  fill="#CDD6DD"/>
	<path d="M 20.199,12.705 c 0.148,1.085 0.322,2.22 0.524,3.333 h-6.184 c 0.202,-1.113 0.376,-2.248 0.524,-3.333 h5.136 Z"  fill="#CDD6DD"/>
	
	<path d="M 19.657,8.089 l 0.117,1.116 h-4.286 c 0.045,-0.415 0.084,-0.785 0.118,-1.119 c 0.03,0.005 4.026,0.007 4.051,0.003 Z"  fill="#CDD6DD"/>
	<path d="M 19.657,8.089 c -0.025,0.004 -4.021,0.002 -4.051,-0.003 c 0.059,-0.569 0.135,-1.278 0.135,-1.278 h3.781 s 0.076,0.71 0.135,1.281 Z"  fill="#AAB8C2"/>
	<path d="M 15.175,5.901 h4.93 v1.318 c 0,0.276 -0.234,0.5 -0.521,0.5 h-3.888 c -0.288,0 -0.521,-0.224 -0.521,-0.5 v-1.318 Z"  fill="#E1E8ED"/>
	
	</svg>
