<svg xmlns="http://www.w3.org/2000/svg" viewBox="0 0 36 36">
	<!-- no change -->
	<path d="M 22.494,5.344 c 4.096,0 13.481,2.995 13.482,14.244 c 0,9.036 -8.047,16.361 -17.974,16.361 s -16.976,-7.325 -16.976,-16.361 c 0,-11.121 7.413,-14.298 15.886,-14.298 c 0.851,0 2.772,0.127 3.591,0.231 c 0.639,-0.111 1.304,-0.177 1.991,-0.177 Z" fill="#DD2E44"/>
	<path d="M 8.439,0.091 s 3.399,1.259 5.54,3.651 c 1.092,1.219 2.644,1.259 2.644,1.259 c 0,-3.274 4.28,-4.029 4.28,-4.029 c -2.77,2.77 -1.385,4.155 -1.385,4.155 c 1.637,-3.274 6.925,-1.763 6.925,-1.763 c -3.273,0 -4.911,1.637 -4.911,1.637 c 3.225,-0.084 4.911,1.636 4.911,1.636 c -1.637,-1.636 -6.548,0 -6.548,0 c 1.637,0 1.637,4.91 1.637,4.91 c 0,-3.273 -4.909,-3.273 -4.909,-3.273 c 1.636,0 1.636,3.273 1.636,3.273 c 0,-1.636 -3.273,-3.273 -3.273,-3.273 c -1.637,0 -6.547,1.637 -6.547,1.637 c 1.637,-1.637 5.54,-3.4 5.54,-3.4 s -1.968,0.054 -2.266,-1.51 c -0.504,-2.644 -1.637,-3.274 -3.274,-4.91 Z" fill="#77B255"/>
</svg>
