<svg xmlns="http://www.w3.org/2000/svg" viewBox="0 0 36 36">
	<g transform="translate(11.49 13.82) rotate(-45)">
		<g>
			<path fill="#CCD6DD" d="M 1,-9 v12 h8 l -1,-2 l 1,-2 l -1,-2 l 1,-2 l -1,-2 l 1,-2 h-8 Z"/>
			<g fill="#99AAB5">
				<rect width="7.5" height="1" rx="0.5" x="0" y="-7.5"/>
				<rect width="7.5" height="1" rx="0.5" x="0" y="-5.5"/>
				<rect width="7.5" height="1" rx="0.5" x="0" y="-3.5"/>
				<rect width="7.5" height="1" rx="0.5" x="0" y="-1.5"/>
				<rect width="7.5" height="1" rx="0.5" x="0" y="0.5"/>
			</g>
		</g>
		<g>
			<rect width="4" height="29" rx="2" x="-2" y="0" fill="#289193"/>
			<g fill="#3DB8C1">
				<!--<path d="M -2,3 v-12 a 1,1 0 01 1,-1 h2 a 1,1 0 01 1,1 v12 a 2,2 0 01 -2,2 a 2,2 0 01 -2,-2 Z"/>-->
				<circle cx="0" cy="3" r="2"/>
				<rect x="-2" y="-10" width="4" height="14" rx="1"/>
			</g>
		</g>
	</g>
</svg>
