<svg xmlns="http://www.w3.org/2000/svg" viewBox="0 0 36 36">
	<g fill="#E1E8ED" class="toolight">
		<path d="M 18,2 v21 c -4,-0.002 -4.423,13 -6.423,13 c -1.187,0 -2.172,-2.169 -2.748,-5.09 c -0.419,-2.123 -0.273,-8.373 0.171,-10.91 c -2,-2.998 -6,-17.375 -1.998,-19.3 c 4.108,-1.976 5.998,1.3 10.998,1.3 Z"/>
		<path d="M 18,2 c 5,0 6.89,-3.276 10.998,-1.3 c 4.002,1.925 0.002,16.302 -1.998,19.3 c 0.444,2.537 0.59,8.787 0.171,10.91 c -0.575,2.921 -1.561,5.09 -2.748,5.09 c -2,0 -2.423,-13.002 -6.423,-13 v-21 Z"/>
	</g>
	<path d="M 18,7.259 c 2.078,0 4.551,-0.726 5.509,-1.617 c 0.304,-0.282 0.32,-0.756 0.039,-1.06 c -0.283,-0.303 -0.755,-0.321 -1.06,-0.039 c -0.547,0.508 -2.519,1.217 -4.489,1.217 c -1.834,0 -3.716,-0.656 -4.556,-1.273 c -0.334,-0.244 -0.802,-0.174 -1.048,0.161 c -0.245,0.333 -0.173,0.803 0.161,1.048 c 1.025,0.753 3.166,1.563 5.444,1.563 Z"  fill="#9AAAB4"/>
	</svg>
