<svg xmlns="http://www.w3.org/2000/svg" viewBox="0 0 36 36">
	<defs>
		<clipPath id="hat1">
			<path d="M 6,30 L 4,3.8 v-0.467 H 32 v0.467 L 30,30 v3 h-24 v-3 z"/>	
		</clipPath>
	</defs>
	
	<g fill="#31373D">
		<path d="M 0,31 c 0,2.762 8.611,5 18,5 s 18,-2.238 18,-5 s -8.611,-5 -18,-5 s -18,2.238 -18,5"/> - derived from 17x5 ellipse
		<path d="M 6,30 L 4,3.8 v-0.467 H 32 v0.467 L 30,30 v3 h-24 v-3 z"/>
		<ellipse cx="18" cy="3.333" ry="3.267" rx="14"/>
	</g>
	<path d="M 7,4 c 3,1 11,3 22,0" stroke-width="2" stroke-linecap="round" stroke="#66757F" fill="none"/>
	<g clip-path="url(#hat1)">
		<path d="M 8.6045,30.792 c 4.458,1.708 13.958,1.646 18.807,0.149 c 1.466,-0.453 2.776,-1.733 2.776,-3.191 c 0,-3.256 3.742,-7.25 2.271,-6.75 c -8.271,2.813 -19.771,3 -28.25,-0.208 c -9.995,-3.782 0.125,2.625 0.792,3.875 c 0.4,0.751 0.833,1.347 0.833,2.729 c 0,1.75 1.289,2.829 2.771,3.396 Z" fill="#744EAA"/> <!-- silly layer -->
	</g>
	
	
	
	<!--<path d="M 30.198,27.385 c 3.504,0.91 5.802,2.191 5.802,3.615 c 0,2.762 -8.611,5 -18,5 s -18,-2.238 -18,-5 c 0,-1.424 2.298,-2.705 5.802,-3.615 l -1.802,-23.585 c 0,-0.135 0.008,-0.255 0.022,-0.365 c -0.005,-0.034 -0.022,-0.067 -0.022,-0.102 c 0,-1.805 6.268,-3.267 14,-3.267 c 7.731,0 14,1.463 14,3.267 c 0,0.035 -0.018,0.077 -0.021,0.11 c 0.013,0.11 0.021,0.238 0.021,0.373 l -1.802,23.569 Z"  fill="#31373D"/>
	<path d="M 17.536,6.595 c -4.89,0 -8.602,-0.896 -10.852,-1.646 c -0.524,-0.175 -0.808,-0.741 -0.633,-1.265 s 0.739,-0.808 1.265,-0.633 c 2.889,0.963 10.762,2.891 21.421,-0.016 c 0.529,-0.142 1.082,0.168 1.227,0.702 c 0.146,0.533 -0.169,1.083 -0.702,1.228 c -4.406,1.202 -8.347,1.63 -11.726,1.63 Z"  fill="#66757F"/>
	<path d="M 30.198,27.385 l 0.014,0.005 c -0.009,0.12 -0.024,0.242 -0.024,0.361 c 0,1.458 -1.309,2.738 -2.776,3.191 c -4.849,1.497 -14.349,1.559 -18.807,-0.149 c -1.482,-0.568 -2.771,-1.646 -2.771,-3.396 c 0,-0.426 -0.044,-0.772 -0.113,-1.076 l -0.393,-5.142 c 7.731,2.584 17.611,2.534 25.316,0.377 l -0.446,5.829 Z"  fill="#744EAA"/>-->
</svg>
