<svg xmlns="http://www.w3.org/2000/svg" viewBox="0 0 36 36">
	<defs>
		<clipPath id="clipPath28a">
			<path d="M 21,0 c 6.042,0 8.794,1.622 9.708,3.416 c 1.125,2.209 0.459,9.584 -2.208,14.667 c -4.39,8.367 -9.25,13.959 -13.75,15.917 c -3.553,1.546 -2.625,-1.333 -2.625,-1.333 s 3.583,-5.792 2.667,-11.084 c -0.711,-4.106 -3.387,-4.937 -6.042,-8.583 c -3.125,-4.292 -3.444,-7.461 -2.5,-9 c 1.125,-1.834 5.333,-4 14.75,-4 Z"/>
		</clipPath>
		<clipPath id="clipPath36a">
			<path d="M 3.125,-6.75 h29.834 v13.0835 h-29.834 v-13.0835 Z"/>
		</clipPath>
	</defs>
	
	<!-- this one looks kinda cool without the clip path.. -->
	<g clip-path="url(#clipPath28a)">
		<rect width="36" height="36" fill="#8899a6"/>
		<g clip-path="url(#clipPath36a)">
			<path d="M 32.959,2.375 s -0.915,1.088 -3.25,-0.167 c -3.334,-1.791 -11.297,-2.141 -17.542,-0.291 c -5.209,1.541 -1.761,4.174 8.792,2.666 c 2.625,-0.375 2.5,-1.708 -3.292,-1.458 c -0.849,0.037 8.458,-0.5 8.458,-0.5 l -2.458,3.25 l -16.709,0.458 l -3.833,-2.125 l 25.084,-10.958 l 4.75,9.125 Z" fill="#788895"/>
		</g>
		<g fill="#66757f">
			<path d="M 13.7827,8.0962 c -5.301,0 -8.381,-0.856 -9.381,-2.596 c -0.617,-1.075 -0.256,-2.161 0.055,-2.633 a 1,1 0 01 1.682,1.081 c -0.041,0.073 -0.151,0.314 0.008,0.573 c 0.288,0.47 1.927,1.966 10.883,1.48 c 4.57,-0.246 7.833,-1.281 7.762,-2 c -0.073,-0.751 -2.723,-1.158 -7.774,-0.8 c -1.559,0.111 -3.913,0.348 -3.976,-0.201 c -0.062,-0.549 2.11,-0.873 3.792,-1.063 c 5.541,-0.625 8.832,-0.33 9.773,1.058 c 0.353,0.521 0.39,1.153 0.102,1.734 c -0.84,1.692 -4.686,3.006 -9.571,3.269 c -1.204,0.065 -2.322,0.098 -3.355,0.098 Z"/>
			<path d="M 15.2764,15.832 c -7.378,0 -9.446,-3.434 -9.551,-3.617 a 1,1 0 01 1.729,-1.005 c 0.064,0.098 2.796,4.29 13.764,2.181 c 0.539,-0.104 3.063,-0.813 3.204,-0.141 c 0.113,0.54 -1.766,1.287 -2.297,1.437 c -2.875,0.813 -4.92,1.145 -6.849,1.145 Z"/>
			<path d="M 13.3906,10.9688 c -0.047,-0.609 2.079,-0.708 2.688,-0.766 c 10.796,-1.031 13.342,-3.471 14.296,-4.975 c 0.852,-1.341 0.41,-2.481 0.391,-2.529 a 1,1 0 01 1.839,-0.786 c 0.036,0.084 0.879,2.079 -0.496,4.315 c -2.023,3.291 -7.077,4.882 -15.921,5.413 c -0.02,0.001 -2.725,0.268 -2.797,-0.672 Z"/>
			<path d="M 18.8306,22.9678 c -6.294,0 -6.843,-3.087 -6.887,-3.482 a 1,1 0 01 1.983,-0.261 c 0.03,0.113 0.651,2.228 7.386,2.135 c 0.56,-0.008 2.095,-0.206 2.156,0.343 c 0.062,0.549 -1.141,1.016 -1.951,1.104 c -0.995,0.108 -1.888,0.161 -2.687,0.161 Z"/>
			<path d="M 18.4219,17.8125 c 0.047,-0.594 1.669,-0.686 2.219,-0.734 c 8.031,-0.703 10.069,-4.818 10.172,-5 a 1,1 0 01 1.752,0.962 c -0.12,0.222 -2.976,5.191 -11.877,5.553 c -0.014,0.001 -2.336,0.108 -2.266,-0.781 Z"/>
			<path d="M 17.0625,30.0938 c -1.609,-0.078 -2.759,-0.448 -3.578,-1.344 c -1.223,-1.336 -1.031,-2.97 -1.01,-3.166 a 1,1 0 01 1.989,0.2 c -0.002,0.033 -0.077,1.068 0.554,1.747 c 0.44,0.472 0.951,0.985 2.154,1.079 c 1.203,0.093 1.672,0.156 1.703,0.547 c 0.065,0.81 -1.283,0.962 -1.812,0.937 Z"/>
			<path d="M 19.7344,26.6504 c -0.316,0 -0.641,-0.009 -0.977,-0.027 c -0.551,-0.03 -1.756,-0.369 -1.726,-0.92 c 0.03,-0.552 1.316,-0.602 1.859,-0.641 c 6.125,-0.437 7.742,-3.26 7.814,-3.394 a 1,1 0 01 1.784,0.904 c -0.087,0.174 -2.12,4.078 -8.754,4.078 Z"/>
		</g>
	</g>
	<!-- these are all circles but i'm lazy..-->
	<path d="M 28.6416,36 h-27.25 c -0.142,-0.312 -0.225,-0.656 -0.225,-1.021 a 2.479,2.479 0 01 2.479,-2.479 c 0.107,0 0.208,0.019 0.312,0.031 c 0.381,-1.872 2.036,-3.281 4.021,-3.281 c 1.745,0 3.226,1.094 3.82,2.63 c 0.435,0.074 0.831,0.251 1.171,0.504 c 0.262,-0.079 0.534,-0.134 0.822,-0.134 c 0.82,0 1.555,0.347 2.078,0.896 c 0.496,-0.902 1.444,-1.521 2.546,-1.521 c 0.569,0 1.095,0.169 1.543,0.45 c 0.686,-1.116 1.907,-1.867 3.313,-1.867 c 2.008,0 3.643,1.525 3.853,3.478 c 0.89,0.269 1.542,1.085 1.542,2.064 c 0,0.086 -0.015,0.167 -0.025,0.25 Z" fill="#ccd6dd"/>
</svg>
