<svg xmlns="http://www.w3.org/2000/svg" viewBox="0 0 36 36">
	<path d="M 33,17 c 0,9.389 -2.188,19 -15,19 s -15,-9.611 -15,-19 s 5.611,-14 15,-14 c 9.465,0 15,4.701 15,14 Z"   fill="#66757F"/>
	<path d="M 18,3 c 8.763,0 14,3.047 14,10.969 s -1.937,16.031 -14,16.031 s -14,-8.109 -14,-16.031 s 5.237,-10.969 14,-10.969 Z" fill="#99AAB5"/>
	<path d="M 29,12.5 c 0,5.247 -4.925,8.5 -11,8.5 s -11,-3.253 -11,-8.5 a 11,9.5 0 01 22,0 Z"   fill="#CCD6DD"/>
	<path d="M 28,10 c 0,5.523 -4.477,8 -10,8 s -10,-2.477 -10,-8 a 10,10 0 01 20,0 Z"   fill="#744EAA"/>
	<path d="M 17,23 v4.75 c 0,1 -9.672,-1 -9.672,-6 c 0,-1.375 0.301,-1.973 2.316,-0.984 c 4.491,2.203 7.356,1.686 7.356,2.234 Z"   fill="#292F33"/>
	<path d="M 19,23 c 0,-0.548 2.865,-0.031 7.356,-2.234 c 2.015,-0.989 2.316,-0.391 2.316,0.984 c 0,5 -9.672,7 -9.672,6 v-4.75 Z"   fill="#292F33"/>
</svg>
