<svg xmlns="http://www.w3.org/2000/svg" viewBox="0 0 36 36">
	<g>
		<rect width="3" height="9" x="11" y="11" fill="#ccd6dd"/>
		<rect width="3" height="2" x="11" y="13" fill="#66757f"/>
	</g>
	<path d="M 24,26.1572 a 3.675,4.843 0 01 -3.675,4.843 h-15.616 c -2.029,0 -3.488,-1.565 -3.257,-3.494 l 0.624,-5.242 c 0.231,-1.929 1.992,-3.807 3.928,-4.199 l 14.629,-3.21 c 1.863,-0.442 3.367,1.364 3.367,4.037 v7.265 Z" fill="#77b255"/>
	<g>
		<path d="M 16.5347,24.167 l 2.138,-15.333 c 0.295,-2.118 1.987,-3.834 3.779,-3.834 h7.303 a 3.245,3.834 0 01 3.245,3.834 v15.333 a 4,3.833 0 01 -4,3.833 h-9 c -2.209,0 -3.76,-1.717 -3.465,-3.833 Z" fill="#292f33"/>
		<path d="M 18.2451,25 l 1.716,-14 c 0.136,-1.104 0.989,-2 1.906,-2 h7.473 a 1.66,2 0 01 1.66,2 v14 a 2,2 0 01 -2,2 h-9 c -1.105,0 -1.89,-0.896 -1.755,-2 Z" fill="#bbddf5"/>
		<path d="M 32.5879,7 h-13.248 c 0.718,-1.187 1.886,-2 3.112,-2 h7.303 c 1.227,0 2.281,0.813 2.833,2 Z" fill="#77b255"/>
	</g>
	
	<rect width="18" height="10" x="15" y="21" fill="#77b255"/>
	<path d="M 33,23 h-31 l 1,-2 h30 v2 Z" fill="#ffcc4d"/>
	<path d="M 33,16 v4 l -10,9 l -7,-1 l 3,-10 l 3,-2 h11 Z" fill="#77b255"/>
	<g>
		<circle r="4" cx="8" cy="31" fill="#292f33"/>
		<circle r="8.889" cx="27.111" cy="26.111" fill="#292f33"/>
		
		<circle r="2" cx="8" cy="31" fill="#ffcc4d"/>
		<circle r="5.556" cx="27.111" cy="26.111" fill="#ffcc4d"/>
		
		<circle r="3.333" cx="27.111" cy="26.111" fill="#ffe8b6"/>
		
		<circle r="1" cx="8" cy="31" fill="#f4900c"/>
		<circle r="2.222" cx="27.111" cy="26.111" fill="#f4900c"/>
	</g>
	
	<path d="M 16,27.75 L 18,21 s 1,-5 5,-5 h 10" stroke-width="2" stroke-linecap="round" fill="none" stroke="#5c913b"/>
	<path d="M 2,28 l 1,-8" stroke-width="2" stroke-linecap="round" fill="none" stroke="#3e721d"/>
</svg>
