<svg xmlns="http://www.w3.org/2000/svg" viewBox="0 0 36 36">
	<g class="toodark" fill="#31373D">
		<path d="M 5.2075,12.6738 h-2.834 c -1.248,0 -1.768,-0.91 -1.768,-1.794 c 0,-0.91 0.65,-1.794 1.768,-1.794 h9.568 c 1.119,0 1.768,0.884 1.768,1.794 c 0,0.884 -0.52,1.794 -1.768,1.794 h-2.834 v13.053 c 0,1.299 -0.832,2.027 -1.95,2.027 s -1.95,-0.728 -1.95,-2.027 v-13.053 Z"/>
		<path d="M 16.4658,10.9321 c 0.156,-0.936 1.17,-2.002 2.548,-2.002 c 1.301,0 2.314,0.936 2.601,1.872 l 3.067,10.296 h0.053 l 3.068,-10.296 c 0.285,-0.936 1.301,-1.872 2.599,-1.872 c 1.379,0 2.393,1.066 2.549,2.002 l 2.418,14.507 c 0.026,0.157 0.026,0.313 0.026,0.444 c 0,1.142 -0.832,1.871 -1.871,1.871 c -1.327,0 -1.848,-0.598 -2.03,-1.821 l -1.533,-10.581 h-0.053 l -3.119,10.894 c -0.181,0.623 -0.676,1.508 -2.08,1.508 s -1.898,-0.885 -2.08,-1.508 l -3.121,-10.894 h-0.051 l -1.535,10.581 c -0.182,1.223 -0.702,1.821 -2.028,1.821 c -1.04,0 -1.872,-0.729 -1.872,-1.871 c 0,-0.131 0,-0.287 0.026,-0.444 l 2.418,-14.507 Z"/>
	</g>
</svg>
	
