<svg viewBox="0 0 36 36" xmlns="http://www.w3.org/2000/svg">
	<path d="M 2,36 l 11,-17 h10 l 11,17 h-32 Z" fill="#A7A9AC"/>
	<path d="M 5,36 l 10,-17 h6 l 10,17 h-26 Z" fill="#58595B"/>
	<path d="M 8,36 l 9,-17 h2 l 9,17 h-20 Z" fill="#808285"/>
	<path d="M 27.076,25.3 c -1.888,2.516 -4.799,4.699 -9.076,4.699 c -4.278,0 -7.187,-2.182 -9.076,-4.699 l 4.076,-6.3 h10 l 4.076,6.3 Z" fill="#58595B"/>
	<rect x="8" y="34" width="20" height="2" rx="1" fill="#A7A9AC"/>
	<rect x="10" y="30" width="16" height="2" rx="1" fill="#A7A9AC"/>
	<path d="M 18,0 c 9,0 12,3 12,9 v8 c 0,1.999 -3,11 -12,11 s -12,-9.001 -12,-11 v-8 c 0,-6 3,-9 12,-9 Z" fill="#A7A9AC"/>
	<path d="M 6,10 s 0,3 4,9 c 0,0 -4,-2 -4,-6 v-3 Z" fill="#269"/>
	<path d="M 30,10 v3 c 0,4 -4,6 -4,6 c 4,-6 4,-9 4,-9 Z" fill="#269"/>
	<path d="M 8,11 c 0,-9 4.477,-10 10,-10 s 10,1 10,10 c 0,6 -4.477,11 -10,11 s -10,-5 -10,-11 Z"  fill="#E6E7E8"/>
	<path d="M 17,4.997 v4.966 c -3.488,-0.232 -6,-1.621 -6,-2.463 v-1.667 c 0,-0.792 3.692,-0.838 6,-0.836 Z" fill="#55ACEE"/>
	<path d="M 19,4.997 c 2.308,-0.002 6,0.045 6,0.836 v1.666 c 0,0.842 -2.512,2.231 -6,2.463 v-4.965 Z" fill="#55ACEE"/>
	<path d="M 18,21.999 c -1.641,0 -3.186,-0.45 -4.552,-1.227 c 0.783,-1.043 2.522,-1.772 4.552,-1.772 s 3.77,0.729 4.553,1.771 c -1.368,0.778 -2.911,1.228 -4.553,1.228 Z" fill="#FFAC33"/>
</svg>
