<svg xmlns="http://www.w3.org/2000/svg" viewBox="0 0 36 36">
	color changes ideas:
	
	lower saturation to match pink:
	#88C9F9 
	#F4ABBA
	#EEE / #E1E8ED
	
	higher saturation to match blue:
	#5BCEFA
	#F4A2B2
	#EEE

	<path d="
M 36,9
v 1.2
l -4,7.8
l 4,7.8
v 1.2
a 4,4 0 01 -4,4
h -28
a 4,4 0 01 -4,-4
v -1.2
l 4,-7.8
l -4,-7.8
v -1.2
a 4,4 0 01 4,-4
h 28
a 4,4 0 01 4,4
z
"  fill="#5BCEFA"/>
	
	<path d="M 36,15.4
l -2,2.6
l 2,2.6
v 5.2
h -36
v -5.2
l 2,-2.6
l -2,-2.6
v -5.2
h 36
v 5.2
z
" fill="#F5A9B8"/> rounding error; should be #F4ABBA ?
	<path d="M 0,15.4 h36 v5.2 h-36 v-5.2 Z" fill="#EEE"/>
</svg>
