<svg xmlns="http://www.w3.org/2000/svg" viewBox="0 0 36 36">
	<defs>
		<clipPath id="bus1">
			<rect width="36" height="20" x="0" y="11" rx="3"/>	
		</clipPath>
	</defs>
	
	<g>
		note: i adjusted colors
		<path d="M 15,11 c 5,-6 12,-7 12,-7 h3" stroke-width="2" stroke-linecap="round" stroke-linejoin="round" fill="none" stroke="#66757F"/>
		<rect width="14" height="4" x="11" y="9" fill="#99AAB5"/>
	</g>
	
	<g clip-path="url(#bus1)">
		<rect width="36" height="23" fill="#E1E8ED"/>
		<rect width="36" height="13" y="23" fill="#77B255"/>
		<rect width="36" height="2" x="0" y="22" fill="#5C913B"/>
		
		windows:
		<g fill="#55ACEE">
			<rect width="7" height="7" rx="1" x="-1" y="15"/>
			<rect x="8" y="15" width="5" height="5" rx="1"/>
			<rect x="15" y="15" width="5" height="5" rx="1"/>
			<rect x="22" y="15" width="5" height="5" rx="1"/>
			<rect x="29" y="15" width="5" height="5" rx="1"/>
		</g>
		
		<circle cx="7" cy="31" r="6" fill="#5C913B"/>
		<circle cx="29" cy="31" r="6" fill="#5C913B"/>
	</g>
	
	<g>
		<rect width="1" height="2" x="0" y="25" fill="#FFE8B6"/>
		<rect width="1" height="2" x="35" y="25" fill="#EA596E"/>
		<rect width="1" height="2" x="35" y="22" fill="#F4ABBA"/>
	</g>
	
	<g>
		<circle cx="7" cy="31" r="4" fill="#000000"/>
		<circle fill="#99AAB5" cx="7" cy="31" r="2"/>
		<circle cx="29" cy="31" r="4" fill="#000000"/>
		<circle fill="#99AAB5" cx="29" cy="31" r="2"/>
	</g>
</svg>
