<svg xmlns="http://www.w3.org/2000/svg" viewBox="0 0 36 36">
	<defs>
		<clipPath id="body1">
			<path id="body2" d="M 30.2314,19.0342 c 0,6.854 -6.591,12.41 -13.445,12.41 c -5.294,0 -11.666,-3.285 -14.291,-6.205 c -0.773,-0.859 -4.325,-1.034 -1.222,-3.102 c -3.103,-2.069 0.359,-2.012 0.989,-3.103 c 2.463,-4.263 6.251,-14.479 14.524,-14.479 c 8.274,0 13.445,7.625 13.445,14.479 Z"/>
		</clipPath>
	</defs>
	
	fins
	<path d="M 8.2314,10 c 6,-8 14,-10 18,-10 c 1,0 1,1 0,1 s -6,2 -7,9 s -11,0 -11,0 Z" fill="#ffac33"/>
	<path d="M 7.2314,28 s 8,-4 9,0 s 9,7 10,7 s 2,1 -1,1 c -5,0 -14,-5 -18,-8 Z" fill="#ffac33"/>
	<path d="M 29,19 c 0,-4.418 3.791,-10 6,-10 s -2,5.582 -2,10 s 4.209,10 2,10 s -6,-5.582 -6,-10 Z" fill="#ffcc4d"/>
	body
	<use href="#body2" fill="#ffcc4d"/>
	stripes
	<g clip-path="url(#body1)" stroke="#f4900c" fill="none" stroke-width="2" stroke-linecap="round">
		<path d="M 24,16 c 1,-5 6,-5 6,-5"/>
		<path d="M 19,18 c 0.23,-7.05 7,-10 7,-10"/> m..
		<path d="M 24,5 s -10,3 -10,15"/>
	</g>
	eye
	<circle r="1.5" cx="9.5" cy="15.5" fill="#292f33"/>
</svg>
