<svg xmlns="http://www.w3.org/2000/svg" viewBox="0 0 36 36">
	<defs>
		<clipPath id="stick1">
			<path d="M 24.7451,4.9009 l 1.98,1.335 s -5.873,12.307 -6.741,13.698 c -0.869,1.39 -1.846,0.297 -1.47,-0.484 c 0.309,-0.638 6.231,-14.549 6.231,-14.549 Z"/>
		</clipPath>
		<clipPath id="umbrella2">
			<path d="M 32.3301,12.0562 h-0.001 c -1.309,0 -3.754,-0.424 -7.97,-2.446 c -6.363,-3.052 -8.228,-5.863 -7.891,-7.343 c 0.144,-0.633 0.676,-1.059 1.324,-1.059 c 0.312,0 1.494,0.006 2.975,0.014 c 2.47,0.012 5.774,0.028 7.233,0.028 c 0.322,0 0.625,0.156 0.812,0.417 c 0.189,0.263 4.566,6.375 5.585,7.957 c 0.33,0.429 0.4,0.953 0.185,1.419 c -0.214,0.462 -0.778,1.013 -2.252,1.013 Z"/> <!-- this wouldve been calculated from the stroke -->
		</clipPath>
	</defs>
	
	<path d="M 19,27.2549 v3.123 s 2.743,1.369 5.121,2.777 c 1.336,0.791 0.206,1.651 -0.011,1.723 c -0.562,0.188 -2.124,1.102 -6.764,1.102 c -4.527,0 -6.124,-0.844 -6.781,-1.102 c -0.393,-0.155 -1.047,-1.055 -0.063,-1.617 c 0.914,-0.543 5.498,-2.883 5.498,-2.883 v-3.123 s -7.958,-0.213 -9.834,-4.315 c -1.131,-2.474 0.634,-9.531 0.634,-13.815 c 0,-2.387 2.204,-2.125 3.329,-2.125 h6.123 h1.125 h1.125 h6.124 c 2.249,0 3.416,0.769 3.416,2.25 c 0,4.376 1.679,11.429 0.609,13.93 c -1.651,3.862 -9.651,4.075 -9.651,4.075 Z" fill="#8899a6"/>
	
	<g>
		<path d="M 28,8.4424 c 0,1.621 -2.547,2.935 -10.623,2.935 s -10.623,-1.314 -10.623,-2.935 c 0,-1.622 2.547,-2.935 10.623,-2.935 s 10.623,1.313 10.623,2.935 Z" fill="#ccd6dd"/>
		<path d="M 8.4585,8.5835 s 17.828,-1.662 17.667,0.375 c -0.625,7.917 2.375,13.333 -2.125,14.792 c -4.917,1.592 -8.027,1.911 -13.459,0 c -4.5,-1.584 -0.041,-5.667 -2.083,-15.167 Z" fill="#ccd6dd"/>
	</g>
	
	<g>
		<path d="M 9.0415,14.5835 l 17.083,-0.042 c 0.084,1.417 0.804,5.26 0.334,7 c -0.542,2 -3.875,3.584 -9.125,3.584 c -7.167,0 -8.417,-2 -8.917,-3.25 c -0.465,-1.163 0.542,-6.209 0.625,-7.292 Z" fill="#f4900c"/>
		<ellipse rx="8.5" ry="1.5" cx="17.5" cy="14.5" fill="#ffcc4d"/>
	</g>
	
	<g clip-path="url(#stick1)">
		<rect width="36" height="36" fill="#c1694f"/>
		<path d="M 20.375,14.25 c 1,0.5 1.875,0.625 2.792,0.5 s 0.75,0.667 -0.25,0.875 s -2.833,0.375 -4,0.292 c -1.167,-0.084 1.458,-1.667 1.458,-1.667 Z" fill="#ffac33"/>
		<path d="M 18.4585,16 c 1.167,0 3.75,-0.167 4.458,-0.333 c 0.709,-0.167 0.417,6.207 -1.916,6.166 c -2.334,-0.041 -4.792,0.876 -4.292,-1.208 c 0.5,-2.083 1.75,-4.625 1.75,-4.625 Z" fill="#cc6f00"/>
	</g>
	
	<path d="M 17.3105,11.6753 c -4.292,0 -7.672,-1.007 -8.943,-1.604 c -0.501,-0.234 -0.716,-0.829 -0.481,-1.329 c 0.234,-0.501 0.829,-0.716 1.329,-0.481 c 0.074,0.035 7.707,3.276 16.552,-0.111 c 0.514,-0.2 1.094,0.059 1.291,0.575 c 0.198,0.516 -0.06,1.095 -0.576,1.292 c -3.222,1.234 -6.389,1.658 -9.172,1.658 Z" fill="#ffffff"/>
	
	<g>
		<path d="M 28,2.25 s 4.626,6.458 5.584,7.958 c 0.709,0.834 -1.667,1.917 -8.792,-1.5 c -7.325,-3.513 -8,-6.5 -7,-6.5 c 0.833,0 7.875,0.042 10.208,0.042 Z" fill="#77b255" stroke="#77b255" stroke-width="2" stroke-linejoin="round"/> recovered from hidden layer in twemoji v1.1.0
		<g clip-path="url(#umbrella2)">
			<path d="M 29.584,1.9585 s 4.958,1.333 7.416,3.292 c 2.458,1.958 0,7.458 -4.416,10.583 s -3.834,-2.125 -7.292,-5.417 c 7.833,0.25 5.208,-6.583 4.292,-8.458 Z" fill="#5c913b"/>
		</g>
	</g>
	
	<ellipse rx="1.6875" ry="1.687" cx="28.1875" cy="1.6875" fill="#3e721d"/>
</svg>
