<svg xmlns="http://www.w3.org/2000/svg" viewBox="0 0 36 36">
	todo: not sure about rotate origin/scale
	<g transform="translate(13.31 17.3411) rotate(45) scale(0.9455)">
		bell
		<path d="M 2,-13 c 0,-5 -5,-7 -5,-8 s 1,-1 1,-1 h12 c 1,0 1,1 1,1 c 0,1 -5,3.642 -5,8 h-4 Z" fill="#ffac33"/>
		
		<g stroke="#ffac33" stroke-width="4" fill="none" stroke-linecap="round">
			<path d="M 4,17 v -34"/>
			<rect width="8" height="24" rx="4" x="4" y="-12"/>
			<path d="M 14,-6 h-12"/>
			<path d="M 14,0 h-12"/>
			<path d="M 14,6 h-12"/>
		</g>
		valves
		<rect width="2" height="4" rx="1" x="-3" y="-8" fill="#ccd6dd"/>
		<rect width="2" height="4" rx="1" x="-3" y="-2" fill="#ccd6dd"/>
		<rect width="2" height="4" rx="1" x="-3" y="4" fill="#ccd6dd"/>
		
		mouthpiece
		<g>
			<path d="M 1.5,18.25 a 2.5,2.5 0 01 5,0 v1 h-5 v-1 Z" fill="#ccd6dd"/>
			<rect width="6.65" height="2" rx="1" x="0.675" y="18.2386" fill="#ccd6dd"/>
		</g>
	</g>
</svg>
