<svg xmlns="http://www.w3.org/2000/svg" viewBox="0 0 36 36">
	<defs>
		<clipPath id="shirt1">
			<path d="M 11,2 c -3,0 -11,2 -11,4 s 1,7 2,9 s 8,0 9,-1 s 2,-12 0,-12 Z" fill="#3b88c3"/>
			<path d="M 25,2 c 3,0 11,2 11,4 s -1,7 -2,9 s -8,0 -9,-1 s -2,-12 0,-12 Z" fill="#3b88c3"/>
			<path d="M 25,2 c 2.209,0 5,1.791 5,4 c 0,0 0,20 1,24 s -1.791,4 -4,4 h-18 c -2.209,0 -5,0 -4,-4 s 1,-24 1,-24 c 0,-2.209 2.791,-4 5,-4 h1.068 a 6,3.5 0 00 5.932,3 a 6,3.5 0 00 5.932,-3 h1.068 Z" fill="#3b88c3"/>
		</clipPath>
	</defs>
	
	yeahhhh !
	
	<g clip-path="url(#shirt1)">
		<path d="M35 0v8l-2 7l-1 1v20h-28v-20l-1 -1l-2 -7v-8h8l6 6h6l6 -6z" fill="#3b88c3"/>
		
		<path d="M 1,4.717 C 2,9 3,13 4,15.85 L -1,20 V 3 Z" fill="#55acee"/>
		<path d="M 32,15.85 C 33,13 34,9 35,4.717 L 37,3 V 20 Z" fill="#55acee"/>
		<ellipse cx="18" cy="2" rx="7" ry="5" fill="#55acee"/>
	</g>
</svg>
