<svg xmlns="http://www.w3.org/2000/svg" viewBox="0 0 36 36">
	<defs>
		<clipPath id="shirt1">
			<path d="M 25,2 c 2.209,0 5,1.791 5,4 c 0,0 0,20 1,24 s -1.791,4 -4,4 h-18 c -2.209,0 -5,0 -4,-4 s 1,-24 1,-24 c 0,-2.209 2.791,-4 5,-4 h1.068 a 6,3.5 0 00 5.932,3 a 6,3.5 0 00 5.932,-3 h1.068 Z" fill="#3b88c3"/>
		</clipPath>
		<clipPath id="sleeve1">
			<path d="M 11,2 c -3,0 -11,2 -11,4 s 1,7 2,9 s 8,0 9,-1 s 2,-12 0,-12 Z" fill="#3b88c3"/>
		</clipPath>
		<clipPath id="sleeve2">
			<path d="M 25,2 c 3,0 11,2 11,4 s -1,7 -2,9 s -8,0 -9,-1 s -2,-12 0,-12 Z" fill="#3b88c3"/>
		</clipPath>
	</defs>
	
	<path d=" M
11,2
 L
11,14
 C 10,15 3,17
2,15
 C 1,13 0,8
0,6
 C 0,4 8,2
11,2
 Z" fill="#3b88c3"/>
	<path d=" M
25,2
 C 28,2 36,4
36,6
 C 36,8 35,13
34,15
 C 33,17 26,15
25,14
 C 24,13 23,2
25,2
Z" fill="#3b88c3"/>
	
	<path d=" M
25,2
 L
30,6
 C 30,6 30,26
31,30
 C 32,34 29.209,34
27,34
 L
9,34
 C 6.791,34 4,34
5,30
 C 6,26 6,6
6,6
 L
11,2
l 4,4
h 6
L
25,2
 Z" fill="#3b88c3"/>
	
	<g clip-path="url(#sleeve1)">
		<path d="M 1,4.717 C 2,9 3,13 4,15.85 H -1 V 4.717 H 1 Z" fill="#55acee"/>
	</g>
	<g clip-path="url(#sleeve2)">
		<path d="M 32,15.85 C 33,13 34,9 35,4.717 H 37 V 15.85 H 32 Z" fill="#55acee"/>
	</g>
	<g clip-path="url(#shirt1)">
		<ellipse cx="18" cy="2" rx="7" ry="5" fill="#55acee"/>
	</g>
</svg>
