<svg xmlns="http://www.w3.org/2000/svg" viewBox="0 0 36 36">
	<g fill="#77b255">
		<path d="M 34.751,22 c 0.917,0 -10.563,13.638 -15.751,12.644 v0.356 a 1,1 0 01 -2,0 v-0.401 c -5.087,1.393 -16.877,-12.599 -15.948,-12.599 c 3.439,0 12.195,3.669 15.948,7.341 v-12.341 a 1,1 0 01 2,0 v12.158 c 3.851,-3.609 12.369,-7.158 15.751,-7.158 Z"/>
	</g>
	<g fill="#ea596e">
		<path d="M 25,13.417 c 0,6.351 -1.707,9.583 -7,9.583 s -7,-3.232 -7,-9.583 s 5,-13.417 7,-13.417 s 7,7.066 7,13.417 Z"/>
	</g>
	<g fill="#f4abba">
		<path d="M 22.795,2 c 1,0 6,9 6,13 s -5.502,8 -10.795,8 s -11,-4 -11,-8 s 5,-13 6,-13 c 0.481,0 4.246,14.271 4.992,19.279 c 0.697,-5.008 4.323,-19.279 4.803,-19.279 Z"/>
	</g>
</svg>
