<svg xmlns="http://www.w3.org/2000/svg" viewBox="0 0 36 36">
	<g>
		<path d="M 5.1338,7 s -1,-5 1,0 s -2,9 -3,7 s 4,-2 2,-7 Z" fill="#be1931"/>
		<path d="M 7,6 c 0,1.104 1.933,2 0,2 s -7,-1 -7,-2 s 1.067,-3 3,-3 s 4,1.896 4,3 Z" fill="#ffac33"/>
		<path d="M 6,21 c 0,-6 3.209,-13 1,-13 c -4,0 -4,-1.791 -4,-4 a 4,4 0 01 4,-4 c 7,0 6,9 4,13 c -1.674,3.348 -2.022,8 -5,8 Z" fill="#c1694f"/>
		<circle r="1" cx="6" cy="3" fill="#292f33"/>
	</g>
	<g>
		hmm.. not sure of decomp..
		<path d="M 15,28.9987 s -1.134,2.001 0.463,3.707 c 0.168,0.089 0.32,0.211 0.417,0.391 c 0.263,0.486 0.082,1.093 -0.404,1.355 l -2.639,1.427 c -0.486,0.263 -1.093,0.082 -1.355,-0.404 c -0.263,-0.486 -0.082,-1.093 0.404,-1.356 l 0.222,-0.12 h-1.108 a 1,1 0 01 -1,-1 a 1,1 0 01 1,-1 h2 s 0,-3 1,-4 l 1,-1 c 1,0 0,1.448 0,2 Z" fill="#ffac33"/>
		<path d="M 22,28.9987 s -1.135,2.001 0.462,3.707 c 0.168,0.089 0.32,0.211 0.418,0.391 c 0.263,0.486 0.082,1.093 -0.404,1.355 l -2.639,1.427 c -0.486,0.263 -1.093,0.082 -1.355,-0.404 c -0.263,-0.486 -0.082,-1.093 0.404,-1.356 l 0.222,-0.12 h-1.108 a 1,1 0 01 -1,-1 a 1,1 0 01 1,-1 h2 s 0,-3 1,-4 l 1,-1 c 1,0 0,1.448 0,2 Z" fill="#ffac33"/>
	</g>
	
	<g>
		<path d="M 36,17 c 0,7.959 -5,11.3 -10,11.249 c -2.034,1.796 -4.927,2.751 -8,2.751 a 12,10.8 0 01 -12,-10.8 a 12,10.8 0 01 12,-10.8 c 3,-2.7 7,-6.5 10,-7.4 c 6,3.6 8,7.8 8,15 Z" fill="#31373D" class="toodark"/>
	</g>
	<g>
		<path d="M 23,11.781 c -3.251,-1.594 -5.689,-1.781 -9.603,-1.552 c 1.412,-0.532 2.96,-0.827 4.586,-0.829 c 1.625,0 4.094,0.865 5.017,2.381 Z" fill="#66757f"/>
	</g>
	<g fill="#66757f">
		<path d="M 28.0004,1.9998 c -7,3.688 -2,4.406 3.315,2.424 l 0.003,0.0025 c -7.162,3.574 -3.006,4.73 2.623,3.186 l 0.002,0.0029 c -6.427,2.385 -3.693,4.291 1.462,3.673 l 0.0004,0.0018 c -6.25,1.273 -3.404,3.545 0.52,3.545 l -0.0005,0.002 c -4.61,0.382 -3.8,2.882 0.006,3.351 c -3.556,0.062 -4.18,2.25 -0.778,3.896 v0.001 c -3.402,-1.085 -4.247,0.821 -2.216,3.415 c -2.5,-2.344 -4.031,-1.063 -3.344,2 c -1.468,-2.188 -2.968,-0.208 -3.593,0.749 c 3.76,0.038 7.519,-1.844 9.153,-6.164 v-0.001 c 0.538,-1.424 0.847,-3.111 0.847,-5.084 c 0,-0.755 -0.028,-1.471 -0.075,-2.163 l 0.0005,-0.002 c -0.086,-1.278 -0.254,-2.456 -0.52,-3.545 l -0.0004,-0.0018 c -0.328,-1.344 -0.809,-2.557 -1.462,-3.673 l -0.002,-0.0029 c -0.676,-1.154 -1.541,-2.205 -2.623,-3.186 l -0.003,-0.0025 c -0.937,-0.85 -2.029,-1.652 -3.315,-2.424 Z"/>
	</g>
</svg>
