<svg xmlns="http://www.w3.org/2000/svg" viewBox="0 0 36 36">
	<path d="M 22.88,33.097 c 0.263,0.486 0.082,1.092 -0.404,1.355 l -2.639,1.427 c -0.487,0.263 -1.093,0.082 -1.356,-0.404 c -0.263,-0.487 -0.082,-1.093 0.404,-1.356 l 0.222,-0.12 h-1.107 c -0.553,0 -1,-0.447 -1,-1 s 0.447,-1 1,-1 h2 s 0,-3 1,-4 l 1,-1 c 1,0 0,1.447 0,2 c 0,0 -1.135,2.001 0.462,3.707 c 0.168,0.089 0.32,0.211 0.418,0.391 Z"  fill="#FFAC33"/>
	<path d="M 15.88,33.097 c 0.263,0.486 0.082,1.092 -0.403,1.355 l -2.639,1.427 c -0.487,0.263 -1.093,0.082 -1.356,-0.404 c -0.263,-0.487 -0.082,-1.093 0.404,-1.356 l 0.222,-0.12 h-1.108 c -0.553,0 -1,-0.447 -1,-1 s 0.447,-1 1,-1 h2 s 0,-3 1,-4 l 1,-1 c 1,0 0,1.447 0,2 c 0,0 -1.134,2.001 0.463,3.707 c 0.167,0.089 0.32,0.211 0.417,0.391 Z"  fill="#FFAC33"/>
	<path d="M 7,6 c 0,1.104 1.933,2 0,2 s -7,-1 -7,-2 s 1.067,-3 3,-3 s 4,1.896 4,3 Z"  fill="#FFAC33"/>
	<path d="M 5.134,7 s -1,-5 1,0 s -2,9 -3,7 s 4,-2 2,-7 Z"  fill="#BE1931"/>
	<path d="M 6,21 c 0,-6 3.209,-13 1,-13 c -4,0 -4,-1.791 -4,-4 s 1.791,-4 4,-4 c 7,0 6,9 4,13 c -1.674,3.348 -2.022,8 -5,8 Z"  fill="#C1694F"/>
	<path d="M 36,17 c 0,7.959 -5,11.3 -10,11.249 c -2.034,1.796 -4.927,2.751 -8,2.751 c -6.627,0 -12,-4.836 -12,-10.8 c 0,-5.965 5.373,-10.8 12,-10.8 c 3,-2.7 7,-6.5 10,-7.4 c 6,3.6 8,7.8 8,15 Z"  fill="#31373D"/>
	<circle fill="#292F33" cx="6" cy="3" r="1"/>
	<path d="M 17.984,9.4 c 1.625,0 4.094,0.866 5.017,2.381 c -3.251,-1.594 -5.688,-1.781 -9.602,-1.552 c 1.411,-0.532 2.959,-0.827 4.585,-0.829 Z"  fill="#66757F"/>
	<path d="M 35.926,14.835 c -3.924,0 -6.77,-2.273 -0.52,-3.545 c 0.266,1.089 0.434,2.267 0.52,3.545 Z"  fill="#66757F"/>
	<path d="M 33.941,7.612 c -5.629,1.544 -9.785,0.388 -2.623,-3.186 c 1.082,0.981 1.947,2.032 2.623,3.186 Z"  fill="#66757F"/>
	<path d="M 35.153,22.085 c -3.402,-1.085 -4.247,0.821 -2.215,3.415 c -2.5,-2.344 -4.031,-1.062 -3.344,2 c -1.469,-2.188 -2.969,-0.208 -3.594,0.749 c 3.761,0.038 7.52,-1.844 9.153,-6.164 Z"  fill="#66757F"/>
	<path d="M 31.315,4.424 c -5.315,1.982 -10.315,1.264 -3.315,-2.424 c 1.286,0.771 2.378,1.574 3.315,2.424 Z"  fill="#66757F"/>
	<path d="M 35.153,22.084 c 0.538,-1.424 0.847,-3.111 0.847,-5.084 c 0,-0.755 -0.027,-1.471 -0.074,-2.163 c -4.61,0.382 -3.801,2.882 0.006,3.351 c -3.557,0.062 -4.181,2.25 -0.779,3.896 Z"  fill="#66757F"/>
	<path d="M 33.943,7.615 c 0.654,1.116 1.134,2.329 1.462,3.673 c -5.155,0.618 -7.889,-1.288 -1.462,-3.673 Z"  fill="#66757F"/>
	</svg>
