<svg xmlns="http://www.w3.org/2000/svg" viewBox="0 0 36 36">
	legs
	<g>
		<path d="M 16.715,33.143 c 0,2.761 -1.279,2.857 -2.857,2.857 c -1.579,0 -2.858,-0.096 -2.858,-2.857 c 0,-0.489 0.085,-1.029 0.234,-1.587 c 0.69,-2.59 2.754,-5.556 4.052,-5.556 c 1.578,0 1.429,4.382 1.429,7.143 Z" fill="#77b255"/>
		<path d="M 25.286,33.143 c 0,-2.761 -0.15,-7.143 1.428,-7.143 c 1.298,0 3.361,2.966 4.051,5.556 c 0.15,0.558 0.235,1.098 0.235,1.587 c 0,2.761 -1.279,2.857 -2.858,2.857 c -1.578,0 -2.856,-0.096 -2.856,-2.857 Z" fill="#77b255"/>
	</g>
	tail
	<g>
		<path d="M 36,28.6377 c 0,1.104 -3.518,-0.741 -5,0 c -2,1 -2,-0.896 -2,-2 s 1.343,-1 3,-1 s 4,1.896 4,3 Z" fill="#77b255"/>
	</g>
	head
	<g>
		<path d="M 15,30 c -7,2 -8.804,-7.618 -9.464,-7.618 c -2.378,0 -5.536,-0.423 -5.536,-2.46 c 0,-2.039 2.46,-4.922 6.151,-4.922 c 2.379,0 3.691,2.883 3.691,4.922 c 0,9.842 6.575,9.673 5.158,10.078 Z" fill="#77b255"/>
		<circle r="1" cx="5" cy="18" fill="#292f33"/>
	</g>
	shell
	<g>
		<path d="M 32,27 c 0,4 -5.149,4 -11.5,4 s -11.5,0 -11.5,-4 a 11.5,12 0 01 23,0 Z" fill="#3e721d"/>
		<path d="M 20.5,17 c 1.749,0 3.167,4.51 3.167,8.1 c 0,3.591 -1.418,3.9 -3.167,3.9 s -3.166,-0.309 -3.166,-3.9 c 0,-3.59 1.417,-8.1 3.166,-8.1 Z" fill="#5c913b"/>
		<path d="M 30,24 c 0.871,3.482 -0.784,4 -2.533,4 s -2.533,0.69 -2.533,-2.9 s -1.117,-6.5 0.632,-6.5 s 3.434,1.4 4.434,5.4 Z" fill="#5c913b"/>
		<path d="M 11,24 c 1,-4 3.251,-5.4 5,-5.4 c 1.75,0 0.067,2.91 0.067,6.5 c 0,3.591 -0.785,2.9 -2.534,2.9 s -3.403,-0.517 -2.533,-4 Z" fill="#5c913b"/>
	</g>
</svg>
