<svg xmlns="http://www.w3.org/2000/svg" viewBox="0 0 36 36">
	<path d="M 35.779,21.787 c 0.134,0.535 -0.191,1.077 -0.727,1.216 c -0.081,0.02 -0.163,0.03 -0.244,0.03 c -0.448,0 -0.855,-0.303 -0.969,-0.757 c -0.005,-0.024 -0.386,-1.496 -1.314,-3.425 c -0.09,0.253 -0.193,0.5 -0.319,0.735 c -0.463,3.155 -0.365,8.155 0.354,9.706 c 0.941,2.028 -0.092,3.152 -1.151,5.122 c -1.059,1.969 -2.028,0.94 -1.999,-0.059 c 0.029,-1 1.064,-2.124 1.093,-3.124 c 0.009,-0.31 -0.449,-1.181 -1.083,-2.294 c -0.289,2.001 -0.86,4.038 -1.414,5.067 c -1.059,1.969 -2.028,0.94 -1.999,-0.059 c 0.029,-1 1.117,-3.969 1.146,-4.969 c 0.016,-0.535 -1.36,-2.742 -2.633,-4.985 c -1.593,0.394 -3.291,0.643 -4.855,0.564 c -0.553,-0.005 -1.084,-0.018 -1.593,-0.042 c -0.775,2.849 -0.537,8.368 -0.585,9.989 c -0.059,1.999 -2.058,1.94 -1.999,-0.059 c 0.036,-1.218 -0.24,-4.851 -0.898,-7.973 c -0.246,2.39 -0.108,5.228 -0.144,6.44 c -0.059,1.999 -2.058,1.94 -1.999,-0.059 c 0.059,-1.993 -1.753,-9.976 -3.687,-12.062 c -0.839,-0.827 -1.548,-1.849 -1.927,-3.11 c -0.44,-1.46 0.437,-3.878 0.147,-4.997 c -0.313,-1.201 -2.417,-1.088 -4.701,-1.088 s -0.641,-3.998 1.849,-3.998 s 2.475,-1.027 3.029,-0.911 c 0.347,0.072 0.664,0.189 0.957,0.335 c 0.248,-0.296 0.703,-0.511 1.238,-0.542 c 0.827,-0.049 1.524,0.36 1.556,0.911 c 0.028,0.487 -0.471,0.921 -1.156,1.05 c 0.94,1.28 1.271,2.845 1.256,3.361 c -0.015,0.509 0,1.018 0.26,1.535 c 0.028,-0.049 0.053,-0.102 0.082,-0.151 c 1.843,-3.119 2.135,-10.184 5.295,-10.184 c 3.159,0 2.372,4.279 5.235,4.279 s 1.793,-4.279 4.722,-4.279 s 3.465,7.078 5.372,10.792 c 0.138,0.27 0.258,0.535 0.362,0.797 c 2.5,3.514 3.403,7.039 3.443,7.198 Z"  fill="#C1694F"/>
	<circle cx="7.0975" cy="8.6835" r="1" fill="#292F33"/>
</svg>
