<svg xmlns="http://www.w3.org/2000/svg" viewBox="0 0 36 36">
	<path d="M 9,28.5 a 1.5,1.5 0 01 3,0 v0.5 s 0,3 3,3 s 3,-3 3,-3 v-25.5 a 1.5,1.5 0 01 3,0 v25.5 s 0,6 -6,6 s -6,-6 -6,-6 v-0.5 Z" fill="#66757F"/>
	
	<path d="M 19.5,4 a 16.5,13 0 01 16.5,13 s 0,2 -1,2 s -3,-2 -3,-2 h-25 s -2,2 -3,2 s -1,-2 -1,-2 a 16.5,13 0 01 16.5,-13 Z" fill="#744EAA"/>
	<path d="M 19.5,4 a 12.5,13 0 01 12.5,13 s 0,2 -2,2 s -5,-2 -5,-2 h-11 s -3,2 -5,2 s -2,-2 -2,-2 a 12.5,13 0 01 12.5,-13 Z" fill="#9266CC"/>
	<path d="M 19.5,4 c 3.59,0 5.5,5.82 5.5,13 c 0,0 -3,2 -5,2 h-1 c -2,0 -5,-2 -5,-2 c 0,-7.18 1.91,-13 5.5,-13 Z" fill="#744EAA"/>
</svg>
