<svg xmlns="http://www.w3.org/2000/svg" viewBox="0 0 36 36">
	<path d="M 15.044,22.747 L 4.878,31.685 C 4.375,32.105 3.755,32.363 3.075,32.363 C 1.418,32.363 0.075,30.885 0.075,29.061 C 0.075,27.271 2.126,14.854 2.126,14.854 L 15.044,22.747 Z"   fill="#31373D"/>
	
	<path d="M 33.824,14.854 C 33.824,14.854 35.875,27.271 35.875,29.061 C 35.875,30.885 34.532,32.363 32.875,32.363 C 32.195,32.363 31.575,32.105 31.072,31.685 L 20.906,22.747 L 33.824,14.854 Z"    fill="#31373D"/>
	
	<circle cx="25.975" cy="15.551" r="8.5"  fill="#14171A"/>
	<circle cx="9.975" cy="15.551" r="8.5"  fill="#14171A"/>
	<path d="M 9.975,7.051 h16 v16.87 h-16 v-16.87 Z"   fill="#14171A"/>
	<circle fill="#14171A" cx="13.075" cy="23.301" r="5"/>
	<circle fill="#14171A" cx="22.875" cy="23.301" r="5"/>
	<circle fill="#67757F" cx="22.875" cy="23.301" r="3"/>
	<circle fill="#67757F" cx="13.075" cy="23.301" r="3"/>
	<circle fill="#FFCC4D" cx="25.735" cy="11.133" r="1.603"/>
	<circle fill="#77B255" cx="25.735" cy="17.607" r="1.603"/>
	<circle fill="#50A5E6" cx="22.498" cy="14.37" r="1.603"/>
	<circle fill="#DD2E44" cx="28.972" cy="14.37" r="1.603"/>
	<path d="M 11.148,12.514 l -1.284,1.285 l -1.284,-1.285 v-2.168 a 0.505,0.505 0 01 0.505,-0.505 h1.558 a 0.505,0.505 0 01 0.505,0.505 v2.168 Z"   fill="#8899A6"/>
	<path d="M 8.579,16.144 l 1.284,-1.285 l 1.284,1.285 v2.168 a 0.505,0.505 0 01 -0.505,0.505 h-1.558 a 0.505,0.505 0 01 -0.505,-0.505 v-2.168 Z"   fill="#8899A6"/>
	<path d="M 13.848,13.044 a 0.505,0.506 0 01 0.505,0.506 v1.559 a 0.505,0.505 0 01 -0.505,0.505 h-2.168 l -1.285,-1.285 l 1.285,-1.285 h2.168 Z"   fill="#8899A6"/>
	<path d="M 8.049,13.044 l 1.284,1.283 l -1.285,1.285 h-2.168 a 0.505,0.505 0 01 -0.505,-0.505 v-1.558 a 0.505,0.505 0 01 0.505,-0.505 h2.169 Z"   fill="#8899A6"/>
</svg>
