<svg xmlns="http://www.w3.org/2000/svg" viewBox="0 0 36 36">
	<g class="toodark">
		<path d="M 6,23 l-2,1 s -2,1 -3,1 s -1,-1 -1,-1 v-10 s 0,-1 1,-1 s 3,1 3,1 l 2,1" fill="#31373D"/> hm
		<path d="M 30,31 s 0,4 -4,4 h-18 s -4,0 -4,-4 v-17 s 0,-3 3,-3 h4 v2 c 0,2.01 1.332,5 5,5 h13 c 0.314,0 0.653,-0.037 1,-0.106 v13.106 Z" fill="#31373D"/> cutout..
		<path d="M 9,35 v-9 s 0,-3 2.75,-3 h10.25 s 3,0 3,3 v9 h-2 v-9 s 0,-1 -1,-1 h-10 s -1,0 -1,1 v9 h-2 Z" fill="#66757f"/>
	</g>
	<g>
		<path d="M 30,13 s 4,3 5,3 s 1,-1 1,-1 v-8 s 0,-1 -1,-1 s -5,3 -5,3 v4 Z" fill="#66757f"/>
		<path d="M 29,16 s 3,0 3,-3 v-4 s 0,-3 -3,-3 h-11 s -5,0 -5,5 v2 s 0,3 3,3 h13 Z" fill="#66757f"/>
	</g>
</svg>
