<svg xmlns="http://www.w3.org/2000/svg" viewBox="0 0 36 36">
	<g transform="translate(36) rotate(45)">
		does this have parts which are stroked ?
		<path d=" M
-0.00071,17.09417
 C 5.18026,17.09487 7.49887,20.35958
7.49887,23.59389
 C 7.49887,25.74208 7.03147,26.50505
6.72246,27.01063
 C 6.56337,27.26872 6.49902,27.38257
6.49973,27.59399
 C 6.49902,27.74744 6.42194,27.89664
6.31022,27.98573
 C 6.18931,28.08119 6.03304,28.11584
5.88454,28.08048
 C 5.87394,28.07836 5.44967,27.99634
5.09329,28.35272
 C 4.82247,28.62354 4.50003,29.23307
4.50003,30.59495
 C 4.49932,31.54743 4.74469,32.2411
5.22905,32.659
 C 5.91919,33.25297 6.91692,33.12357
6.92611,33.12145
 C 7.11137,33.09458 7.29593,33.17165
7.40482,33.32297
 C 7.51442,33.47359 7.53139,33.67299
7.44725,33.84057
 C 7.13471,34.46566 7.15168,34.4897
7.32421,34.72022
 C 7.68059,35.19822 8.2781,35.99796
8.2781,38.89144
 C 8.2781,40.68608 7.68484,42.18868
6.51528,43.35823
 L
6.51457,43.35894
 C 4.74822,45.12529 1.99121,45.75532
0,45.75532
 C -1.83918,45.75462 -3.78656,45.23984
-5.20996,44.37505
 C -7.21673,43.156 -8.27881,41.25954
-8.2781,38.89144
 C -8.2781,35.99796 -7.6813,35.19751
-7.32492,34.71951
 C -7.15309,34.4897 -7.13541,34.46495
-7.44796,33.83987
 C -7.53139,33.67299 -7.51513,33.47429
-7.40482,33.32297
 C -7.29451,33.17024 -7.10996,33.09458
-6.9254,33.12215
 C -6.91833,33.12357 -5.8308,33.2664
-5.13713,32.57273
 C -4.71428,32.14988 -4.49932,31.48379
-4.49932,30.59425
 C -4.49932,29.13761 -4.86489,28.53303
-5.17107,28.28201
 C -5.50695,28.00836 -5.87606,28.07907
-5.89161,28.0819
 C -6.03869,28.1116 -6.19567,28.07483
-6.31164,27.98007
 C -6.42831,27.88461 -6.49902,27.74319
-6.49973,27.59399
 C -6.49902,27.38257 -6.56337,27.26872
-6.72246,27.01063
 C -7.03218,26.50576 -7.50028,25.74208
-7.50028,23.59389
 C -7.50028,21.87986 -6.86671,20.3016
-5.71696,19.15185
 C -4.37133,17.80622 -2.39426,17.09487
-0.00071,17.09417
 Z" fill="#f4900c"/>
	</g>
	<g>
		<path d="M 2,32 l 4,-5 s 1,0 2,1 s 1,2 1,2 l -5,4 l -2,-2 Z" fill="#292f33"/>
	</g>
	<g>
		<path d="M 32,5 l -13.879,15 l -2.121,-2.121 l 15,-13.879 l 1,1 Z" fill="#292f33"/>
	</g>
	<g transform="translate(36) rotate(45)">
		<rect width="4.21648" height="6.7586" rx="1.126" x="-2.10824" y="2.8156" fill="#f4900c"/> scaled..?
	</g>
	<g fill="#662113">
		<circle r="1" cx="33" cy="8"/>
		<circle r="1" cx="35" cy="6"/>
		<circle r="1" cx="28" cy="3"/>
		<circle r="1" cx="30" cy="1"/>
	</g>
	<path d="M 13,26 l -3,-3" stroke-width="2" stroke="#662113" stroke-linecap="round" fill="none"/>
</svg>
