<svg xmlns="http://www.w3.org/2000/svg" viewBox="0 0 36 36">
	<g transform="translate(23.9121,12.087) rotate(45)">
		<path d="M 0,0.5 c 4.87,0 7,3 7,6 c 0,3.14 -1,3 -1,4 c 0,0 -2,-0.48 -2,3 s 3,3.02 3,3.02 c -1,2 0.777,0.32 0.777,5.276 c 0,4.91 -4.808,6.364 -7.777,6.364 s -7.777,-1.454 -7.777,-6.364 c 0,-4.956 1.777,-3.276 0.777,-5.276 c 0,0 3,0.46 3,-3.02 s -2,-3 -2,-3 c 0,-1 -1,-0.86 -1,-4 c 0,-3 2.13,-6 7,-6 Z" stroke-width="1" stroke-linejoin="round" stroke="#f4900c" fill="#f4900c" transform="scale(1 1)"/> some of this is APPROXIMATE
	</g>
	
	<g>
		<path fill="#292F33" d="M 34,3 l -15,17 l -3,-3 l 17,-15 l 1,1 Z"/>
		
		<path d="M 13,26 l -3,-3" stroke-width="2" stroke="#662113" stroke-linecap="round" fill="none"/>
		<g fill="#662113">
			<circle r="1" cx="33" cy="8"/>
			<circle r="1" cx="35" cy="6"/>
			<circle r="1" cx="28" cy="3"/>
			<circle r="1" cx="30" cy="1"/>
		</g>
		
		<g transform="translate(36) rotate(45)">
			position adjusted somewhat
			<rect width="0.75" height="34" x="-1" y="7" fill="#CCD6DD"/>
			<rect width="0.75" height="34" x="0.25" y="7" fill="#CCD6DD"/>
			<!-- <path fill="#CCD6DD" d="M4.628 29.935L28.8 5.807l.53.531L5.16 30.466zm.869.869L29.67 6.676l.531.532L6.028 31.335z"/> -->
			<rect width="4.21648" height="6.7586" rx="1.126" x="-2.10824" y="2.8156" fill="#f4900c"/> scaled..?
		</g>
	</g>
	
	<path d="M 2,32 l 4,-5 s 1,0 2,1 s 1,2 1,2 l -5,4 l -2,-2 Z" fill="#292f33"/>
</svg>
