<svg xmlns="http://www.w3.org/2000/svg" viewBox="0 0 36 36">
	<defs>
		<clipPath id="ball1">
			<circle cx="18" cy="18" r="18"/>
		</clipPath>
	</defs>
	<g clip-path="url(#ball1)">
		<rect width="36" height="36" fill="#E6E7E8"/> <!-- color was #E1E8ED at first -->
		<path fill="#99AAB5" d="M 20,18.875 c -7.583,0 -13.074,-1.717 -16.317,-5.103 c -2.984,-3.114 -2.876,-6.485 -2.87,-6.627 c 0.024,-0.552 0.493,-0.972 1.042,-0.957 c 0.55,0.024 0.978,0.487 0.957,1.037 c -0.004,0.118 -0.05,2.727 2.356,5.207 c 2.82,2.907 7.949,4.443 14.832,4.443 c 0.553,0 1,0.448 1,1 s -0.447,1 -1,1 Z"/>
		<path fill="#99AAB5" d="M 19.2021,27.043 c -19.292,0 -23.412,-14.193 -23.452,-14.341 c -0.146,-0.533 0.167,-1.083 0.7,-1.229 c 0.533,-0.149 1.081,0.167 1.228,0.699 c 0.162,0.575 4.074,13.731 23.324,12.829 c 0.544,-0.037 1.019,0.401 1.045,0.953 c 0.025,0.552 -0.402,1.02 -0.953,1.045 c -0.646,0.029 -1.277,0.044 -1.892,0.044 Z"/>
		<path fill="#99AAB5" d="M 20.0625,34 h-0.02 c -19.562,0 -23.407,-12.142 -23.561,-12.645 c -0.162,-0.528 0.135,-1.055 0.663,-1.217 s 1.085,0.149 1.248,0.676 c 0.146,0.459 3.666,10.949 21.69,11.303 c 0.552,0.011 0.991,0.409 0.98,0.961 c -0.011,0.546 -0.456,0.922 -1,0.922 Z"/>
		<path fill="#99AAB5" d="M 20.002,18.3159 c -0.111,0 -0.225,-0.019 -0.335,-0.058 c -0.52,-0.185 -0.793,-0.757 -0.607,-1.277 c 4.191,-11.787 16.224,-8.918 16.346,-8.889 c 0.535,0.135 0.86,0.676 0.727,1.211 c -0.133,0.536 -0.675,0.861 -1.211,0.73 c -0.425,-0.104 -10.401,-2.437 -13.978,7.618 c -0.145,0.409 -0.531,0.665 -0.942,0.665 Z"/>
		<path fill="#99AAB5" d="M 11.5625,17.1265 c -0.105,0 -0.212,-0.017 -0.317,-0.052 c -0.524,-0.175 -0.807,-0.742 -0.631,-1.265 c 5.853,-17.514 21.389,-13.065 21.549,-13.017 c 0.528,0.159 0.827,0.715 0.669,1.243 c -0.158,0.529 -0.72,0.83 -1.244,0.673 c -0.562,-0.168 -13.848,-3.91 -19.078,11.734 c -0.139,0.419 -0.529,0.684 -0.948,0.684 Z"/>
		<path fill="#99AAB5" d="M 16.563,40.6875 c -0.27,0 -0.539,-0.108 -0.735,-0.322 c -0.374,-0.405 -0.35,-1.036 0.054,-1.411 c 0.31,-0.29 7.537,-7.231 3.465,-20.6 c -0.16,-0.528 1.533,-1.788 1.694,-1.26 c 0.011,0.034 0.241,0.747 0.251,0.781 c 4.382,14.553 -3.704,22.227 -4.051,22.547 c -0.193,0.177 -0.436,0.265 -0.678,0.265 Z"/>
		<path fill="#99AAB5" d="M 23.0625,40.5625 c -0.206,0 -0.413,-0.064 -0.591,-0.194 c -0.445,-0.327 -0.541,-0.952 -0.216,-1.398 c 0.099,-0.134 9.724,-13.571 1.917,-27.86 c -0.264,-0.485 -0.086,-1.092 0.399,-1.357 c 0.484,-0.265 1.093,-0.087 1.357,0.398 c 8.427,15.425 -1.955,29.859 -2.06,30.003 c -0.197,0.266 -0.499,0.408 -0.806,0.408 Z"/>
		<path fill="#99AAB5" d="M 27.0615,40.5625 c -0.197,0 -0.397,-0.059 -0.572,-0.181 c -0.452,-0.316 -0.563,-0.939 -0.246,-1.392 c 0.119,-0.171 11.892,-17.29 4.29,-29.137 c -0.298,-0.465 -0.163,-1.083 0.301,-1.382 c 0.464,-0.298 1.082,-0.164 1.382,0.302 c 3.469,5.404 3.804,12.563 0.97,20.705 c -2.107,6.053 -5.175,10.473 -5.305,10.658 c -0.194,0.279 -0.505,0.427 -0.82,0.427 Z"/>
		<path fill="#99AAB5" d="M 5.3311,13.7402 c -0.104,0 -0.209,-0.017 -0.313,-0.051 c -0.524,-0.173 -0.81,-0.738 -0.637,-1.262 c 4.257,-12.914 17.149,-14.224 17.279,-14.236 c 0.54,-0.049 1.034,0.355 1.085,0.904 c 0.051,0.55 -0.354,1.037 -0.903,1.088 c -0.477,0.045 -11.723,1.228 -15.561,12.87 c -0.139,0.42 -0.53,0.687 -0.95,0.687 Z"/>
	</g>
</svg>
