<svg xmlns="http://www.w3.org/2000/svg" viewBox="0 0 36 36">
	<defs>
		<clipPath id="ball1">
			<circle cx="18" cy="18" r="18"/>
		</clipPath>
	</defs>
	<g clip-path="url(#ball1)">
		<rect width="36" height="36" fill="#E6E7E8"/> <!-- color was #E1E8ED at first -->
		<!-- these are strokes but.. as if i'll ever figure any of them out.. -->
		<path fill="#99AAB5" d="M 20,18.875 c -7.583,0 -13.074,-1.717 -16.317,-5.103 c -2.984,-3.114 -2.876,-6.485 -2.87,-6.627 a 1,1 0 01 1.999,0.08 c -0.004,0.118 -0.05,2.727 2.356,5.207 c 2.82,2.907 7.949,4.443 14.832,4.443 a 1,1 0 01 0,2 Z"/>
		<path fill="#99AAB5" d="M 19.2021,27.043 c -19.292,0 -23.412,-14.193 -23.452,-14.341 a 1,1 0 01 1.928,-0.53 c 0.162,0.575 4.074,13.731 23.324,12.829 a 1,1 0 01 0.092,1.998 c -0.646,0.029 -1.277,0.044 -1.892,0.044 Z"/>
		<path fill="#99AAB5" d="M 20.0625,34 h-0.02 c -19.562,0 -23.407,-12.142 -23.561,-12.645 a 0.993,0.993 0 01 1.911,-0.541 c 0.146,0.459 3.666,10.949 21.69,11.303 a 0.942,0.942 0 01 -0.02,1.883 Z"/>
		<path fill="#99AAB5" d="M 20.944,17.6509 a 1,1 0 01 -1.884,-0.67 c 4.191,-11.787 16.224,-8.918 16.346,-8.889 a 1,1 0 01 -0.484,1.941 c -0.425,-0.104 -10.401,-2.437 -13.978,7.618 Z"/>
		<path fill="#99AAB5" d="M 12.5105,16.4425 a 1,1 0 01 -1.896,-0.633 c 5.853,-17.514 21.389,-13.065 21.549,-13.017 a 1,1 0 01 -0.575,1.916 c -0.562,-0.168 -13.848,-3.91 -19.078,11.734 Z"/>
		<path fill="#99AAB5" d="M 17.241,40.4225 a 1,1 0 01 -1.359,-1.468 c 0.31,-0.29 7.537,-7.231 3.465,-20.6 c -0.16,-0.528 1.533,-1.788 1.694,-1.26 c 0.011,0.034 0.241,0.747 0.251,0.781 c 4.382,14.553 -3.704,22.227 -4.051,22.547 Z"/>
		<path fill="#99AAB5" d="M 23.8685,40.1545 a 1,1 0 01 -1.613,-1.184 c 0.099,-0.134 9.724,-13.571 1.917,-27.86 a 1,1 0 01 1.756,-0.959 c 8.427,15.425 -1.955,29.859 -2.06,30.003 Z"/>
		<path fill="#99AAB5" d="M 27.8815,40.1355 a 1,1 0 01 -1.638,-1.146 c 0.119,-0.171 11.892,-17.29 4.29,-29.137 a 1,1 0 01 1.683,-1.08 c 3.469,5.404 3.804,12.563 0.97,20.705 c -2.107,6.053 -5.175,10.473 -5.305,10.658 Z"/>
		<path fill="#99AAB5" d="M 6.2811,13.0532 a 1,1 0 01 -1.9,-0.626 c 4.257,-12.914 17.149,-14.224 17.279,-14.236 a 1,1 0 01 0.182,1.992 c -0.477,0.045 -11.723,1.228 -15.561,12.87 Z"/>
	</g>
</svg>
