<svg xmlns="http://www.w3.org/2000/svg" viewBox="0 0 36 36">
	<ellipse fill="#939598" cx="18" cy="26" rx="18" ry="10"/>
	<ellipse fill="#CCD6DD" cx="18" cy="24" rx="18" ry="10"/>
	<path d="M 15.714,32.54 l -13.139,-7.683 c -1.262,-0.738 -0.929,-3.558 -0.929,-4.785 l 14.069,-6.657 c 1.262,-0.738 3.308,-0.738 4.57,0 l 14.085,6.845 c 0,1.689 0.316,3.859 -0.947,4.597 l -13.138,7.683 c -1.262,0.738 -3.309,0.738 -4.571,0 Z"  fill="#F4900C"/>
	<path d="M 15.714,29.279 l -13.139,-7.683 c -1.262,-0.738 -1.262,-1.934 0,-2.672 l 13.139,-7.683 c 1.262,-0.738 3.308,-0.738 4.57,0 l 13.139,7.683 c 1.262,0.738 1.262,1.934 0,2.672 l -13.139,7.683 c -1.261,0.738 -3.308,0.738 -4.57,0 Z"  fill="#FFAC33"/>
	<path d="M 17.463,14.416 l -1.61,-0.942 c -0.296,-0.173 -0.296,-0.454 0,-0.628 l 1.61,-0.942 c 0.296,-0.173 0.777,-0.173 1.074,0 l 1.61,0.942 c 0.296,0.173 0.296,0.454 0,0.628 l -1.61,0.942 c -0.297,0.174 -0.778,0.174 -1.074,0 Z"  fill="#F4900C"/>
	<path d="M 21.22,16.613 l -1.61,-0.942 c -0.296,-0.173 -0.296,-0.454 0,-0.628 l 1.61,-0.942 c 0.296,-0.173 0.777,-0.173 1.074,0 l 1.61,0.942 c 0.296,0.173 0.296,0.454 0,0.628 l -1.61,0.942 c -0.297,0.174 -0.777,0.174 -1.074,0 Z"  fill="#F4900C"/>
	<path d="M 24.977,18.81 l -1.61,-0.942 c -0.296,-0.173 -0.296,-0.454 0,-0.628 l 1.61,-0.942 c 0.296,-0.173 0.777,-0.173 1.074,0 l 1.61,0.942 c 0.296,0.173 0.296,0.454 0,0.628 l -1.61,0.942 c -0.297,0.174 -0.777,0.174 -1.074,0 Z"  fill="#F4900C"/>
	<path d="M 28.735,21.008 l -1.61,-0.942 c -0.296,-0.173 -0.296,-0.454 0,-0.628 l 1.61,-0.942 c 0.296,-0.173 0.777,-0.173 1.074,0 l 1.61,0.942 c 0.296,0.173 0.296,0.454 0,0.628 l -1.61,0.942 c -0.297,0.173 -0.778,0.173 -1.074,0 Z"  fill="#F4900C"/>
	<path d="M 13.705,16.613 l -1.61,-0.942 c -0.296,-0.173 -0.296,-0.454 0,-0.628 l 1.61,-0.942 c 0.296,-0.173 0.777,-0.173 1.074,0 l 1.61,0.942 c 0.296,0.173 0.296,0.454 0,0.628 l -1.61,0.942 c -0.297,0.174 -0.777,0.174 -1.074,0 Z"  fill="#F4900C"/>
	<path d="M 17.463,18.81 l -1.61,-0.942 c -0.296,-0.173 -0.296,-0.454 0,-0.628 l 1.61,-0.942 c 0.296,-0.173 0.777,-0.173 1.074,0 l 1.61,0.942 c 0.296,0.173 0.296,0.454 0,0.628 l -1.61,0.942 c -0.297,0.174 -0.778,0.174 -1.074,0 Z"  fill="#F4900C"/>
	<path d="M 21.22,21.008 l -1.61,-0.942 c -0.296,-0.173 -0.296,-0.454 0,-0.628 l 1.61,-0.942 c 0.296,-0.173 0.777,-0.173 1.074,0 l 1.61,0.942 c 0.296,0.173 0.296,0.454 0,0.628 l -1.61,0.942 c -0.297,0.173 -0.777,0.173 -1.074,0 Z"  fill="#F4900C"/>
	<path d="M 24.977,23.205 l -1.61,-0.942 c -0.296,-0.173 -0.296,-0.454 0,-0.628 l 1.61,-0.942 c 0.296,-0.173 0.777,-0.173 1.074,0 l 1.61,0.942 c 0.296,0.173 0.296,0.454 0,0.628 l -1.61,0.942 c -0.297,0.173 -0.777,0.173 -1.074,0 Z"  fill="#F4900C"/>
	<path d="M 9.948,18.81 l -1.61,-0.942 c -0.296,-0.173 -0.296,-0.454 0,-0.628 l 1.61,-0.942 c 0.296,-0.173 0.777,-0.173 1.074,0 l 1.61,0.942 c 0.296,0.173 0.296,0.454 0,0.628 l -1.61,0.942 c -0.297,0.174 -0.778,0.174 -1.074,0 Z"  fill="#F4900C"/>
	<path d="M 13.705,21.008 l -1.61,-0.942 c -0.296,-0.173 -0.296,-0.454 0,-0.628 l 1.61,-0.942 c 0.296,-0.173 0.777,-0.173 1.074,0 l 1.61,0.942 c 0.296,0.173 0.296,0.454 0,0.628 l -1.61,0.942 c -0.297,0.173 -0.777,0.173 -1.074,0 Z"  fill="#F4900C"/>
	<path d="M 17.463,23.205 l -1.61,-0.942 c -0.296,-0.173 -0.296,-0.454 0,-0.628 l 1.61,-0.942 c 0.296,-0.173 0.777,-0.173 1.074,0 l 1.61,0.942 c 0.296,0.173 0.296,0.454 0,0.628 l -1.61,0.942 c -0.297,0.173 -0.778,0.173 -1.074,0 Z"  fill="#F4900C"/>
	<path d="M 21.22,25.402 l -1.61,-0.942 c -0.296,-0.173 -0.296,-0.454 0,-0.628 l 1.61,-0.942 c 0.296,-0.173 0.777,-0.173 1.074,0 l 1.61,0.942 c 0.296,0.173 0.296,0.454 0,0.628 l -1.61,0.942 c -0.297,0.173 -0.777,0.173 -1.074,0 Z"  fill="#F4900C"/>
	<path d="M 6.191,21.008 l -1.61,-0.942 c -0.296,-0.173 -0.296,-0.454 0,-0.628 l 1.61,-0.942 c 0.296,-0.173 0.777,-0.173 1.074,0 l 1.61,0.942 c 0.296,0.173 0.296,0.454 0,0.628 l -1.61,0.942 c -0.297,0.173 -0.778,0.173 -1.074,0 Z"  fill="#F4900C"/>
	<path d="M 9.948,23.205 l -1.61,-0.942 c -0.296,-0.173 -0.296,-0.454 0,-0.628 l 1.61,-0.942 c 0.296,-0.173 0.777,-0.173 1.074,0 l 1.61,0.942 c 0.296,0.173 0.296,0.454 0,0.628 l -1.61,0.942 c -0.297,0.173 -0.778,0.173 -1.074,0 Z"  fill="#F4900C"/>
	<path d="M 13.705,25.402 l -1.61,-0.942 c -0.296,-0.173 -0.296,-0.454 0,-0.628 l 1.61,-0.942 c 0.296,-0.173 0.777,-0.173 1.074,0 l 1.61,0.942 c 0.296,0.173 0.296,0.454 0,0.628 l -1.61,0.942 c -0.297,0.173 -0.777,0.173 -1.074,0 Z"  fill="#F4900C"/>
	<path d="M 17.463,27.599 l -1.61,-0.942 c -0.296,-0.173 -0.296,-0.454 0,-0.628 l 1.61,-0.942 c 0.296,-0.173 0.777,-0.173 1.074,0 l 1.61,0.942 c 0.296,0.173 0.296,0.454 0,0.628 l -1.61,0.942 c -0.297,0.173 -0.778,0.173 -1.074,0 Z"  fill="#F4900C"/>
	<path d="M 15.72,16.354 c 4.962,1.514 4.157,0.577 7.359,0.519 c 3.204,-0.057 5.282,1.53 3.175,1.963 c -2.328,0.479 -5.334,2.445 -2.222,3.81 c 1.645,0.721 2.682,2.235 2.915,2.761 c -0.548,0.462 -1.158,0.942 -2.28,1.309 c -0.231,-1.27 -1.992,-2.454 -4.82,-3.32 c -3.37,-1.031 -6.147,-1.096 -8.052,-0.144 c -3.803,1.902 -4.755,-0.678 -2.54,-2.222 c 0.952,-0.664 1.905,-1.818 1.847,-2.511 c -0.223,-2.68 1.212,-3.204 4.618,-2.165 Z"  fill="#D3790D"/>
	<path d="M 24.668,26.542 l 2.281,-1.135 s -0.029,0.675 -0.029,1.021 c 0,2.973 -2.194,3.29 -2.194,1.501 c 0,-0.919 -0.058,-0.931 -0.058,-1.387 Z"  fill="#D3790D80"/>
	<path d="M 22.16,17.651 c 0.46,0.262 0.461,1.863 0,2.125 l -3.328,1.897 c -0.46,0.262 -1.204,0.262 -1.664,0 l -3.329,-1.897 c -0.46,-0.262 -0.46,-1.863 0,-2.125 l 3.329,-0.721 c 0.46,-0.262 1.204,-0.262 1.664,0 l 3.328,0.721 Z"  fill="#FFAC33"/>
	<path d="M 22.16,17.651 c 0.46,0.262 0.461,0.686 0,0.948 l -3.328,1.897 c -0.46,0.262 -1.204,0.262 -1.664,0 l -3.329,-1.897 c -0.46,-0.262 -0.46,-0.686 0,-0.948 l 3.329,-1.897 c 0.46,-0.262 1.204,-0.262 1.664,0 l 3.328,1.897 Z"  fill="#FFD983"/>
	</svg>
