<svg xmlns="http://www.w3.org/2000/svg" viewBox="0 0 36 36">
	todo:
	main waffle can be transformed like
	rotate(45) scale(1 1.71)
	to get the original shapes?
	small rects are width,height=5 and rx=1, separated by 2 (and then scaled)
	larger is  idk.
	
	plate
	<g>
		<ellipse cx="18" cy="26" rx="18" ry="10" fill="#8899A6"/> fixed color
		<ellipse cx="18" cy="24" rx="18" ry="10" fill="#ccd6dd"/>
	</g>
	
	<g transform="scale(1 0.5848) rotate(45)">
		<path d="M 50.4573,28.23435 l -18.5806,0.00076 c -1.78472,0.00001 -4.95907,-3.64526 -6.4427,-5.12889 l 1.89896,-17.99761 a 3.23117,3.23117 0 01 3.23148,-3.23148 l 18.23625,-1.68295 c 2.04226,2.04226 4.88957,4.44267 4.88884,6.2281 l -0.00005,18.57989 a 3.23117,3.23117 0 01 -3.23219,3.23219 Z" fill="#F4900C"/>
		<rect width="25.04294" height="25.04294" rx="3.23117" x="24.70317" y="-0.75126" fill="#FFAC33"/>
		<g fill="#F4900C" transform="scale(0.7593) translate(48.216 1.691)">
			<rect width="5" height="5" rx="1" x="-13" y="14"/>
			<rect width="5" height="5" rx="1" x="-13" y="7"/>
			<rect width="5" height="5" rx="1" x="-13" y="0"/>
			<rect width="5" height="5" rx="1" x="-13" y="21"/>
			<rect width="5" height="5" rx="1" x="-6" y="7"/>
			<rect width="5" height="5" rx="1" x="-6" y="0"/>
			<rect width="5" height="5" rx="1" x="-6" y="21"/>
			<rect width="5" height="5" rx="1" x="-6" y="14"/>
			<rect width="5" height="5" rx="1" x="1" y="0"/>
			<rect width="5" height="5" rx="1" x="1" y="21"/>
			<rect width="5" height="5" rx="1" x="1" y="14"/>
			<rect width="5" height="5" rx="1" x="1" y="7"/>
			<rect width="5" height="5" rx="1" x="8" y="21"/>
			<rect width="5" height="5" rx="1" x="8" y="14"/>
			<rect width="5" height="5" rx="1" x="8" y="7"/>
			<rect width="5" height="5" rx="1" x="8" y="0"/>
		</g>
	</g>
	
	<!--	
	<path d="M 15.714,32.54 l -13.139,-7.683 c -1.262,-0.738 -0.929,-3.558 -0.929,-4.785 l 14.069,-6.657 c 1.262,-0.738 3.308,-0.738 4.57,0 l 14.085,6.845 c 0,1.689 0.316,3.859 -0.947,4.597 l -13.138,7.683 c -1.262,0.738 -3.309,0.738 -4.571,0 Z"  fill="#F4900C"/>
	<path d="M 15.714,29.279 l -13.139,-7.683 c -1.262,-0.738 -1.262,-1.934 0,-2.672 l 13.139,-7.683 c 1.262,-0.738 3.308,-0.738 4.57,0 l 13.139,7.683 c 1.262,0.738 1.262,1.934 0,2.672 l -13.139,7.683 c -1.261,0.738 -3.308,0.738 -4.57,0 Z"  fill="#FFAC33"/>
	<g  fill="#F4900C">
		<path d="M 17.463,14.416 l -1.61,-0.942 c -0.296,-0.173 -0.296,-0.454 0,-0.628 l 1.61,-0.942 c 0.296,-0.173 0.777,-0.173 1.074,0 l 1.61,0.942 c 0.296,0.173 0.296,0.454 0,0.628 l -1.61,0.942 c -0.297,0.174 -0.778,0.174 -1.074,0 Z"/>
		<path d="M 21.22,16.613 l -1.61,-0.942 c -0.296,-0.173 -0.296,-0.454 0,-0.628 l 1.61,-0.942 c 0.296,-0.173 0.777,-0.173 1.074,0 l 1.61,0.942 c 0.296,0.173 0.296,0.454 0,0.628 l -1.61,0.942 c -0.297,0.174 -0.777,0.174 -1.074,0 Z"/>
		<path d="M 24.977,18.81 l -1.61,-0.942 c -0.296,-0.173 -0.296,-0.454 0,-0.628 l 1.61,-0.942 c 0.296,-0.173 0.777,-0.173 1.074,0 l 1.61,0.942 c 0.296,0.173 0.296,0.454 0,0.628 l -1.61,0.942 c -0.297,0.174 -0.777,0.174 -1.074,0 Z"/>
		<path d="M 28.735,21.008 l -1.61,-0.942 c -0.296,-0.173 -0.296,-0.454 0,-0.628 l 1.61,-0.942 c 0.296,-0.173 0.777,-0.173 1.074,0 l 1.61,0.942 c 0.296,0.173 0.296,0.454 0,0.628 l -1.61,0.942 c -0.297,0.173 -0.778,0.173 -1.074,0 Z"/>
		<path d="M 13.705,16.613 l -1.61,-0.942 c -0.296,-0.173 -0.296,-0.454 0,-0.628 l 1.61,-0.942 c 0.296,-0.173 0.777,-0.173 1.074,0 l 1.61,0.942 c 0.296,0.173 0.296,0.454 0,0.628 l -1.61,0.942 c -0.297,0.174 -0.777,0.174 -1.074,0 Z"/>
		<path d="M 17.463,18.81 l -1.61,-0.942 c -0.296,-0.173 -0.296,-0.454 0,-0.628 l 1.61,-0.942 c 0.296,-0.173 0.777,-0.173 1.074,0 l 1.61,0.942 c 0.296,0.173 0.296,0.454 0,0.628 l -1.61,0.942 c -0.297,0.174 -0.778,0.174 -1.074,0 Z"/>
		<path d="M 21.22,21.008 l -1.61,-0.942 c -0.296,-0.173 -0.296,-0.454 0,-0.628 l 1.61,-0.942 c 0.296,-0.173 0.777,-0.173 1.074,0 l 1.61,0.942 c 0.296,0.173 0.296,0.454 0,0.628 l -1.61,0.942 c -0.297,0.173 -0.777,0.173 -1.074,0 Z"/>
		<path d="M 24.977,23.205 l -1.61,-0.942 c -0.296,-0.173 -0.296,-0.454 0,-0.628 l 1.61,-0.942 c 0.296,-0.173 0.777,-0.173 1.074,0 l 1.61,0.942 c 0.296,0.173 0.296,0.454 0,0.628 l -1.61,0.942 c -0.297,0.173 -0.777,0.173 -1.074,0 Z"/>
		<path d="M 9.948,18.81 l -1.61,-0.942 c -0.296,-0.173 -0.296,-0.454 0,-0.628 l 1.61,-0.942 c 0.296,-0.173 0.777,-0.173 1.074,0 l 1.61,0.942 c 0.296,0.173 0.296,0.454 0,0.628 l -1.61,0.942 c -0.297,0.174 -0.778,0.174 -1.074,0 Z"/>
		<path d="M 13.705,21.008 l -1.61,-0.942 c -0.296,-0.173 -0.296,-0.454 0,-0.628 l 1.61,-0.942 c 0.296,-0.173 0.777,-0.173 1.074,0 l 1.61,0.942 c 0.296,0.173 0.296,0.454 0,0.628 l -1.61,0.942 c -0.297,0.173 -0.777,0.173 -1.074,0 Z"/>
		<path d="M 17.463,23.205 l -1.61,-0.942 c -0.296,-0.173 -0.296,-0.454 0,-0.628 l 1.61,-0.942 c 0.296,-0.173 0.777,-0.173 1.074,0 l 1.61,0.942 c 0.296,0.173 0.296,0.454 0,0.628 l -1.61,0.942 c -0.297,0.173 -0.778,0.173 -1.074,0 Z"/>
		<path d="M 21.22,25.402 l -1.61,-0.942 c -0.296,-0.173 -0.296,-0.454 0,-0.628 l 1.61,-0.942 c 0.296,-0.173 0.777,-0.173 1.074,0 l 1.61,0.942 c 0.296,0.173 0.296,0.454 0,0.628 l -1.61,0.942 c -0.297,0.173 -0.777,0.173 -1.074,0 Z"/>
		<path d="M 6.191,21.008 l -1.61,-0.942 c -0.296,-0.173 -0.296,-0.454 0,-0.628 l 1.61,-0.942 c 0.296,-0.173 0.777,-0.173 1.074,0 l 1.61,0.942 c 0.296,0.173 0.296,0.454 0,0.628 l -1.61,0.942 c -0.297,0.173 -0.778,0.173 -1.074,0 Z"/>
		<path d="M 9.948,23.205 l -1.61,-0.942 c -0.296,-0.173 -0.296,-0.454 0,-0.628 l 1.61,-0.942 c 0.296,-0.173 0.777,-0.173 1.074,0 l 1.61,0.942 c 0.296,0.173 0.296,0.454 0,0.628 l -1.61,0.942 c -0.297,0.173 -0.778,0.173 -1.074,0 Z"/>
		<path d="M 13.705,25.402 l -1.61,-0.942 c -0.296,-0.173 -0.296,-0.454 0,-0.628 l 1.61,-0.942 c 0.296,-0.173 0.777,-0.173 1.074,0 l 1.61,0.942 c 0.296,0.173 0.296,0.454 0,0.628 l -1.61,0.942 c -0.297,0.173 -0.777,0.173 -1.074,0 Z"/>
		<path d="M 17.463,27.599 l -1.61,-0.942 c -0.296,-0.173 -0.296,-0.454 0,-0.628 l 1.61,-0.942 c 0.296,-0.173 0.777,-0.173 1.074,0 l 1.61,0.942 c 0.296,0.173 0.296,0.454 0,0.628 l -1.61,0.942 c -0.297,0.173 -0.778,0.173 -1.074,0 Z"/>
	</g>
	-->
	
	syrup
	<g>
		<path fill="#D3790D" d="M 15.72,16.354 c 4.962,1.514 4.157,0.577 7.359,0.519 c 3.204,-0.057 5.282,1.53 3.175,1.963 c -2.328,0.479 -5.334,2.445 -2.222,3.81 c 1.645,0.721 2.682,2.235 2.915,2.761 c -0.548,0.462 -1.158,0.942 -2.28,1.309 c -0.231,-1.27 -1.992,-2.454 -4.82,-3.32 c -3.37,-1.031 -6.147,-1.096 -8.052,-0.144 c -3.803,1.902 -4.755,-0.678 -2.54,-2.222 c 0.952,-0.664 1.905,-1.818 1.847,-2.511 c -0.223,-2.68 1.212,-3.204 4.618,-2.165 Z"/>
		<path fill="#D3790D80" d="M 24.668,26.542 l 2.281,-1.135 s -0.029,0.675 -0.029,1.021 c 0,2.973 -2.194,3.29 -2.194,1.501 c 0,-0.919 -0.058,-0.931 -0.058,-1.387 Z"/>
	</g>
	butter:
	<g transform="translate(18 18.125) scale(1.176) scale(1 0.57) rotate(45)">
		<path d="M -2.7071,2.7071 l 5.4142,-5.4142 s 1.5334,1.3953 1.5334,1.9476 v4 a 1,1 0 01 -1,1 h-4 c -0.5523,0 -1.9476,-1.5334 -1.9476,-1.5334 Z" fill="#ffac33"/> 0.7071 ≈ sqrt(2)/2; 1.2405 ≈ sqrt(2)/2/0.57
		<rect width="6" height="6" rx="1" x="-3" y="-3" fill="#ffd983"/>
	</g>
	<!--
interestingly, seems to be derived from older version of pancake butter
	<path fill="#FFAC33" d="M22.16 17.651c.46.262.461 1.863 0 2.125l-3.328 1.897c-.46.262-1.204.262-1.664 0l-3.329-1.897c-.46-.262-.46-1.863 0-2.125l3.329-.721c.46-.262 1.204-.262 1.664 0l3.328.721z"/>
	<path fill="#FFD983" d="M22.16 17.651c.46.262.461.686 0 .948l-3.328 1.897c-.46.262-1.204.262-1.664 0l-3.329-1.897c-.46-.262-.46-.686 0-.948l3.329-1.897c.46-.262 1.204-.262 1.664 0l3.328 1.897z"/>
-->
</svg>
