<svg xmlns="http://www.w3.org/2000/svg" viewBox="0 0 36 36">
	
	plate
	<g>
		<ellipse cx="18" cy="26" rx="18" ry="10" fill="#8899A6"/> fixed color
		<ellipse cx="18" cy="24" rx="18" ry="10" fill="#ccd6dd"/>
	</g>
	
	<g fill="#F4900C" transform="scale(1 0.5848) rotate(45) scale(0.7593) translate(48.216 14.691)">
		<path d="M 18.23656,22.4938 h-24.47069 c -2.35029,0 -5.51203,-3.74951 -8.20177,-6.4391 l 30.48882,-30.48882 c 2.68966,2.68966 6.43917,5.8514 6.4391,8.20177 v24.47069 a 4.25546,4.25546 0 01 -4.25546,4.25546 Z" fill="#F4900C"/>
		<rect width="32.98161" height="32.98161" rx="4.25546" x="-15.68186" y="-15.68041" fill="#FFAC33"/>
		<rect width="5" height="5" rx="1" x="-13" y="1"/>
		<rect width="5" height="5" rx="1" x="-13" y="-6"/>
		<rect width="5" height="5" rx="1" x="-13" y="-13"/>
		<rect width="5" height="5" rx="1" x="-13" y="8"/>
		<rect width="5" height="5" rx="1" x="-6" y="-6"/>
		<rect width="5" height="5" rx="1" x="-6" y="-13"/>
		<rect width="5" height="5" rx="1" x="-6" y="8"/>
		<rect width="5" height="5" rx="1" x="-6" y="1"/>
		<rect width="5" height="5" rx="1" x="1" y="-13"/>
		<rect width="5" height="5" rx="1" x="1" y="8"/>
		<rect width="5" height="5" rx="1" x="1" y="1"/>
		<rect width="5" height="5" rx="1" x="1" y="-6"/>
		<rect width="5" height="5" rx="1" x="8" y="8"/>
		<rect width="5" height="5" rx="1" x="8" y="1"/>
		<rect width="5" height="5" rx="1" x="8" y="-6"/>
		<rect width="5" height="5" rx="1" x="8" y="-13"/>
	</g>
	
	syrup
	<g>
		<path fill="#D3790D" d="M 15.72,16.354 c 4.962,1.514 4.157,0.577 7.359,0.519 c 3.204,-0.057 5.282,1.53 3.175,1.963 c -2.328,0.479 -5.334,2.445 -2.222,3.81 c 1.645,0.721 2.682,2.235 2.915,2.761 c -0.548,0.462 -1.158,0.942 -2.28,1.309 c -0.231,-1.27 -1.992,-2.454 -4.82,-3.32 c -3.37,-1.031 -6.147,-1.096 -8.052,-0.144 c -3.803,1.902 -4.755,-0.678 -2.54,-2.222 c 0.952,-0.664 1.905,-1.818 1.847,-2.511 c -0.223,-2.68 1.212,-3.204 4.618,-2.165 Z"/>
		<path fill="#D3790D80" d="M 24.668,26.542 l 2.281,-1.135 s -0.029,0.675 -0.029,1.021 c 0,2.973 -2.194,3.29 -2.194,1.501 c 0,-0.919 -0.058,-0.931 -0.058,-1.387 Z"/>
	</g>
	butter:
	<g transform="translate(18 18.125) scale(1.176) scale(1 0.57) rotate(45)">
		<path d="M -2.7071,2.7071 l 5.4142,-5.4142 s 1.5334,1.3953 1.5334,1.9476 v4 a 1,1 0 01 -1,1 h-4 c -0.5523,0 -1.9476,-1.5334 -1.9476,-1.5334 Z" fill="#ffac33"/> 0.7071 ≈ sqrt(2)/2; 1.2405 ≈ sqrt(2)/2/0.57
		<rect width="6" height="6" rx="1" x="-3" y="-3" fill="#ffd983"/>
	</g>
	<!--
interestingly, seems to be derived from older version of pancake butter
	<path fill="#FFAC33" d="M22.16 17.651c.46.262.461 1.863 0 2.125l-3.328 1.897c-.46.262-1.204.262-1.664 0l-3.329-1.897c-.46-.262-.46-1.863 0-2.125l3.329-.721c.46-.262 1.204-.262 1.664 0l3.328.721z"/>
	<path fill="#FFD983" d="M22.16 17.651c.46.262.461.686 0 .948l-3.328 1.897c-.46.262-1.204.262-1.664 0l-3.329-1.897c-.46-.262-.46-.686 0-.948l3.329-1.897c.46-.262 1.204-.262 1.664 0l3.328 1.897z"/>
-->
</svg>
