<svg xmlns="http://www.w3.org/2000/svg" viewBox="0 0 36 36">
	plate
	<g>
		<ellipse cx="18" cy="26" rx="18" ry="10" fill="#8899A6"/> fixed color
		<ellipse cx="18" cy="24" rx="18" ry="10" fill="#ccd6dd"/>
	</g>
	
	<path d="M 15.714,32.54 l -13.139,-7.683 c -1.262,-0.738 -0.929,-3.558 -0.929,-4.785 l 14.069,-6.657 c 1.262,-0.738 3.308,-0.738 4.57,0 l 14.085,6.845 c 0,1.689 0.316,3.859 -0.947,4.597 l -13.138,7.683 c -1.262,0.738 -3.309,0.738 -4.571,0 Z"  fill="#F4900C"/>
	<path d="M 15.714,29.279 l -13.139,-7.683 c -1.262,-0.738 -1.262,-1.934 0,-2.672 l 13.139,-7.683 c 1.262,-0.738 3.308,-0.738 4.57,0 l 13.139,7.683 c 1.262,0.738 1.262,1.934 0,2.672 l -13.139,7.683 c -1.261,0.738 -3.308,0.738 -4.57,0 Z"  fill="#FFAC33"/>
	<g  fill="#F4900C">
		<path d="M 17.463,14.416 l -1.61,-0.942 c -0.296,-0.173 -0.296,-0.454 0,-0.628 l 1.61,-0.942 c 0.296,-0.173 0.777,-0.173 1.074,0 l 1.61,0.942 c 0.296,0.173 0.296,0.454 0,0.628 l -1.61,0.942 c -0.297,0.174 -0.778,0.174 -1.074,0 Z"/>
		<path d="M 21.22,16.613 l -1.61,-0.942 c -0.296,-0.173 -0.296,-0.454 0,-0.628 l 1.61,-0.942 c 0.296,-0.173 0.777,-0.173 1.074,0 l 1.61,0.942 c 0.296,0.173 0.296,0.454 0,0.628 l -1.61,0.942 c -0.297,0.174 -0.777,0.174 -1.074,0 Z"/>
		<path d="M 24.977,18.81 l -1.61,-0.942 c -0.296,-0.173 -0.296,-0.454 0,-0.628 l 1.61,-0.942 c 0.296,-0.173 0.777,-0.173 1.074,0 l 1.61,0.942 c 0.296,0.173 0.296,0.454 0,0.628 l -1.61,0.942 c -0.297,0.174 -0.777,0.174 -1.074,0 Z"/>
		<path d="M 28.735,21.008 l -1.61,-0.942 c -0.296,-0.173 -0.296,-0.454 0,-0.628 l 1.61,-0.942 c 0.296,-0.173 0.777,-0.173 1.074,0 l 1.61,0.942 c 0.296,0.173 0.296,0.454 0,0.628 l -1.61,0.942 c -0.297,0.173 -0.778,0.173 -1.074,0 Z"/>
		<path d="M 13.705,16.613 l -1.61,-0.942 c -0.296,-0.173 -0.296,-0.454 0,-0.628 l 1.61,-0.942 c 0.296,-0.173 0.777,-0.173 1.074,0 l 1.61,0.942 c 0.296,0.173 0.296,0.454 0,0.628 l -1.61,0.942 c -0.297,0.174 -0.777,0.174 -1.074,0 Z"/>
		<path d="M 17.463,18.81 l -1.61,-0.942 c -0.296,-0.173 -0.296,-0.454 0,-0.628 l 1.61,-0.942 c 0.296,-0.173 0.777,-0.173 1.074,0 l 1.61,0.942 c 0.296,0.173 0.296,0.454 0,0.628 l -1.61,0.942 c -0.297,0.174 -0.778,0.174 -1.074,0 Z"/>
		<path d="M 21.22,21.008 l -1.61,-0.942 c -0.296,-0.173 -0.296,-0.454 0,-0.628 l 1.61,-0.942 c 0.296,-0.173 0.777,-0.173 1.074,0 l 1.61,0.942 c 0.296,0.173 0.296,0.454 0,0.628 l -1.61,0.942 c -0.297,0.173 -0.777,0.173 -1.074,0 Z"/>
		<path d="M 24.977,23.205 l -1.61,-0.942 c -0.296,-0.173 -0.296,-0.454 0,-0.628 l 1.61,-0.942 c 0.296,-0.173 0.777,-0.173 1.074,0 l 1.61,0.942 c 0.296,0.173 0.296,0.454 0,0.628 l -1.61,0.942 c -0.297,0.173 -0.777,0.173 -1.074,0 Z"/>
		<path d="M 9.948,18.81 l -1.61,-0.942 c -0.296,-0.173 -0.296,-0.454 0,-0.628 l 1.61,-0.942 c 0.296,-0.173 0.777,-0.173 1.074,0 l 1.61,0.942 c 0.296,0.173 0.296,0.454 0,0.628 l -1.61,0.942 c -0.297,0.174 -0.778,0.174 -1.074,0 Z"/>
		<path d="M 13.705,21.008 l -1.61,-0.942 c -0.296,-0.173 -0.296,-0.454 0,-0.628 l 1.61,-0.942 c 0.296,-0.173 0.777,-0.173 1.074,0 l 1.61,0.942 c 0.296,0.173 0.296,0.454 0,0.628 l -1.61,0.942 c -0.297,0.173 -0.777,0.173 -1.074,0 Z"/>
		<path d="M 17.463,23.205 l -1.61,-0.942 c -0.296,-0.173 -0.296,-0.454 0,-0.628 l 1.61,-0.942 c 0.296,-0.173 0.777,-0.173 1.074,0 l 1.61,0.942 c 0.296,0.173 0.296,0.454 0,0.628 l -1.61,0.942 c -0.297,0.173 -0.778,0.173 -1.074,0 Z"/>
		<path d="M 21.22,25.402 l -1.61,-0.942 c -0.296,-0.173 -0.296,-0.454 0,-0.628 l 1.61,-0.942 c 0.296,-0.173 0.777,-0.173 1.074,0 l 1.61,0.942 c 0.296,0.173 0.296,0.454 0,0.628 l -1.61,0.942 c -0.297,0.173 -0.777,0.173 -1.074,0 Z"/>
		<path d="M 6.191,21.008 l -1.61,-0.942 c -0.296,-0.173 -0.296,-0.454 0,-0.628 l 1.61,-0.942 c 0.296,-0.173 0.777,-0.173 1.074,0 l 1.61,0.942 c 0.296,0.173 0.296,0.454 0,0.628 l -1.61,0.942 c -0.297,0.173 -0.778,0.173 -1.074,0 Z"/>
		<path d="M 9.948,23.205 l -1.61,-0.942 c -0.296,-0.173 -0.296,-0.454 0,-0.628 l 1.61,-0.942 c 0.296,-0.173 0.777,-0.173 1.074,0 l 1.61,0.942 c 0.296,0.173 0.296,0.454 0,0.628 l -1.61,0.942 c -0.297,0.173 -0.778,0.173 -1.074,0 Z"/>
		<path d="M 13.705,25.402 l -1.61,-0.942 c -0.296,-0.173 -0.296,-0.454 0,-0.628 l 1.61,-0.942 c 0.296,-0.173 0.777,-0.173 1.074,0 l 1.61,0.942 c 0.296,0.173 0.296,0.454 0,0.628 l -1.61,0.942 c -0.297,0.173 -0.777,0.173 -1.074,0 Z"/>
		<path d="M 17.463,27.599 l -1.61,-0.942 c -0.296,-0.173 -0.296,-0.454 0,-0.628 l 1.61,-0.942 c 0.296,-0.173 0.777,-0.173 1.074,0 l 1.61,0.942 c 0.296,0.173 0.296,0.454 0,0.628 l -1.61,0.942 c -0.297,0.173 -0.778,0.173 -1.074,0 Z"/>
	</g>
	syrup
	<path fill="#D3790D" d="M 15.72,16.354 c 4.962,1.514 4.157,0.577 7.359,0.519 c 3.204,-0.057 5.282,1.53 3.175,1.963 c -2.328,0.479 -5.334,2.445 -2.222,3.81 c 1.645,0.721 2.682,2.235 2.915,2.761 c -0.548,0.462 -1.158,0.942 -2.28,1.309 c -0.231,-1.27 -1.992,-2.454 -4.82,-3.32 c -3.37,-1.031 -6.147,-1.096 -8.052,-0.144 c -3.803,1.902 -4.755,-0.678 -2.54,-2.222 c 0.952,-0.664 1.905,-1.818 1.847,-2.511 c -0.223,-2.68 1.212,-3.204 4.618,-2.165 Z"/>
<!--	<g transform="translate(18 8.995) scale(.9235) translate(0 1)">
		<path d="M -2.4687,6.9687 c 5.372,1.639 4.5,0.625 7.969,0.562 c 3.469,-0.062 5.719,1.657 3.437,2.126 c -2.521,0.518 -5.775,2.647 -2.406,4.125 c 1.781,0.781 2.904,2.419 3.156,2.989 c -0.593,0.5 -1.264,0.873 -2.479,1.271 c -0.25,-1.375 -2.146,-2.51 -5.208,-3.448 c -3.649,-1.117 -6.657,-1.187 -8.719,-0.156 c -4.118,2.059 -5.148,-0.735 -2.75,-2.406 c 1.031,-0.719 2.063,-1.969 2,-2.719 c -0.242,-2.902 1.312,-3.469 5,-2.344 Z" fill="#d3790d"/>
		
		
		<path d="M 7.2188,18 l 2.469,-1.344 s -0.031,2.063 -0.031,5.282 c 0,3.218 -2.376,3.562 -2.376,1.624 c 0,-0.994 -0.062,-2.718 -0.062,-5.562 Z" fill="#D3790D80"/>
	</g>-->
	<g transform="translate(18 14) translate(-18 -4.7777)">
		butter:
		<g transform="translate(18 9) scale(1 0.57) rotate(45)">
			<path d="M -2.7071,2.7071 l 5.4142,-5.4142 s 1.5334,1.3953 1.5334,1.9476 v4 a 1,1 0 01 -1,1 h-4 c -0.5523,0 -1.9476,-1.5334 -1.9476,-1.5334 Z" fill="#ffac33"/> 0.7071 ≈ sqrt(2)/2; 1.2405 ≈ sqrt(2)/2/0.57
			<rect width="6" height="6" rx="1" x="-3" y="-3" fill="#ffd983"/>
		</g>
	</g>
</svg>
