<svg xmlns="http://www.w3.org/2000/svg" viewBox="0 0 36 36">
	<path d="M 31.5,4 v-1 h2.366 v1 l -3.735,28.013 v0.987 h-24.262 v-0.987 l -3.735,-28.013 v-1 h2.366 v1 l 1.784,4.542 l 1.785,-4.542 v-1 h4.147 v1 l 1.926,4.903 l 1.927,-4.903 v-1 h3.862 v1 l 1.927,4.903 l 1.926,-4.903 v-1 h4.147 v1 l 1.785,4.542 l 1.784,-4.542 ZM 18,6.049 l -2.457,6.42 l 2.457,6.254 l 2.457,-6.254 l -2.457,-6.42 ZM 25.858,5.678 l -2.599,6.791 l 2.457,6.254 l 2.601,-6.62 l -2.459,-6.425 ZM 10.142,5.678 l -2.459,6.425 l 2.601,6.62 l 2.457,-6.254 l -2.599,-6.791 ZM 5.958,16.611 l 1.302,9.811 l 1.573,-4.004 l -2.549,-6.66 l -0.326,0.853 ZM 30.127,16.833 l -0.411,-1.075 l -2.549,6.66 l 1.725,4.39 l 1.235,-9.975 ZM 8.069,32 h4.431 l -2.216,-5.79 l -2.215,5.79 ZM 27.931,32 l -2.215,-5.79 l -2.216,5.79 h4.431 ZM 11.736,22.418 l 2.406,6.126 l 2.407,-6.126 l -2.407,-6.288 l -2.406,6.288 ZM 24.264,22.418 l -2.406,-6.288 l -2.407,6.288 l 2.407,6.126 l 2.406,-6.126 ZM 15.784,32 h4.432 l -2.216,-5.79 l -2.216,5.79 Z" fill="#99aab5"/>
	<rect width="28" height="4" rx="2" x="4" y="32" fill="#66757f"/>
	<rect width="36" height="4" rx="2" x="0" y="0" fill="#66757f"/>
</svg>
