<svg xmlns="http://www.w3.org/2000/svg" viewBox="0 0 36 36">
	<path d=" M
33.398,23.678
 C 33.398,23.678 31.961,30.99
20.679,30.865
 C 9.397,30.74 6.461,21.365
7.961,14.678
 C 10.155,4.893 17.1,4.481
22.773,6.429
 C 26.961,7.866 28.053,12.657
26.248,11.755
 C 24.443,10.853 16.502,8.932
15.023,15.616
 C 13.336,23.241 25.836,28.553
33.398,23.678
Z"  fill="#269"/>
	<!-- badly -->
	<path d=" M
35.988,25.193
 L
36,25.193
 L
36,32
 A 4,4 0 01
32,36
 L
4,36
 A 4,4 0 01
0,32
 L
0,24.802
 C 0,22.552 -0.072,10.139
10.595,4.639
 C 21.262,-0.861 29.222,7.838
29.541,11.9
 C 29.69,13.809 26.844,12.292
25.356,11.148
 C 23.645,9.835 19.148,7.639
15.357,9.494
 C 8.348,12.922 8.44,24.935
18.69,26.935
 C 24.586,28.086 28.994,26.993
31.988,24.074
 C 33.234,22.859 35.988,23.047
35.988,25.193
 Z"  fill="#55ACEE"/>
</svg>
