<svg xmlns="http://www.w3.org/2000/svg" viewBox="0 0 36 36">
	<path d="M 1.687,6.947 h1.761 v5.024 h-1.762 a 1.582,1.582 0 01 -1.582,-1.582 v-1.86 a 1.583,1.582 0 01 1.583,-1.582 Z"    fill="#E95F28"/>
	
	<path d="M 16.61,17.589 h5.278 v1.056 h-5.278 v-1.056 Z"    fill="#FFAC33"/>
	<path d="M 15.928,15.633 c 1.254,1.253 1.254,3.715 0,4.968 a 0.5275,0.5275 0 01 -0.746,-0.746 c 0.845,-0.845 0.845,-2.632 0,-3.476 a 0.5275,0.5275 0 01 0.746,-0.746 Z"     fill="#FFAC33"/>
	
	<path d="M 35.205,11.222 l -1.962,0.609 l -1.306,-4.21 l 1.962,-0.609 c 0.584,-0.181 1.211,0.148 1.392,0.733 l 0.647,2.084 c 0.181,0.585 -0.148,1.212 -0.733,1.393 Z"    fill="#3E721D"/>
	
	<path d="M 8.365,3.219 c 0.923,0 2.727,0.748 2.727,1.671 s -1.804,1.671 -2.727,1.671 a 1.671,1.671 0 01 0,-3.342 Z"     fill="#3E721D"/>
	
	<path d="M 10.156,13.8285 l 2.412,6.621 c 0.4015,1.2425 1.368,1.911 2.745,1.911 h8.575" stroke-width="2.25" stroke="#77B255" fill="none" />
	
	
	<path d="M 4.869,12.905 h17.131 v2.111 h-14.472 c -1.714,0 -2.659,-0.945 -2.659,-2.111 Z"    fill="#5C913B"/>
	<path d="M 35.279,29.382 c 0.426,1.36 -0.59,2.743 -2.015,2.743 h-8.433 a 1.297,1.297 0 01 -1.297,-1.297 c 0,-1.154 1.344,-1.385 0.915,-2.787 v-0.001 l -4.352,-13.79 c -0.217,-0.695 -0.86,-1.168 -1.587,-1.168 h-13.702 a 2.227,2.227 0 01 -2.227,-2.227 v-3.612 c 0,-2.308 7.882,-3.265 14.215,-3.265 c 11.325,0 15.24,1.737 15.24,1.737 c 0.587,0.17 0.884,0.559 1.073,0.928 c 0.436,0.849 1.343,3.173 1.72,4.925 c 0.227,1.055 -0.069,2.064 -1.204,2.899 c -2.083,1.533 -1.833,3.533 -1.077,6.147 s 2.731,8.768 2.731,8.768 Z"    fill="#77B255"/>
	
	<path d="M 4.493,9.189 c 0.1965,-0.0435 7.65,-1.673 13.986,0.33 c 4.584,1.449 7.581,4.9325 9.021,10.4885" stroke-width="2" stroke-linecap="round" fill="none" stroke="#A6D388"/>
	
	<circle fill="#F5F8FA" cx="29.185" cy="10.67" r="3.305"/>
	<circle fill="#FFCC4D" cx="29.185" cy="10.67" r="2.292"/>
</svg>
