<svg xmlns="http://www.w3.org/2000/svg" viewBox="0 0 36 36">
	fixed (?) some strange anomalies
	<path d="M 36,7 c 0,2.394 -0.64,5.417 -2.42,6.544 c 1.302,4.107 1.375,14.478 -4.58,19.456 c -2.757,2.305 -6,3 -8,3 c -18,0 -21,-12 -21,-14 s 5.117,-6.822 11,-8 c 5,-1 7,1 10,3 c 4.977,3.312 6,4.857 8,3 c 2.302,-2.127 1.823,-4.284 2.1,-6.073 c -2.681,-0.352 -5.201,-2.227 -6.1,-4.927 c 3,3 3,-2 6,0 c 3,-3 3,1 5,-2 Z" fill="#3b88c3"/>
	<path d="M 21,36 c -18,0 -21,-12 -21,-14 c 5,-2 9,11 20,11 s 12,-5 14,-10 c -2,13 -12.29,13 -13,13 Z" fill="#55acee"/>
	<circle r="1.5" cx="6.5" cy="21.5" fill="#292f33"/>
</svg>
