<svg xmlns="http://www.w3.org/2000/svg" viewBox="0 0 36 36">
	<g>
		<path d="M 22.7813,4.7148 l -2.396,2.74 s -2.763,-4.654 -5.55,-3.835 c -2.428,0.714 -2.767,3.844 -2.148,7.39 c 0.563,3.228 1.524,8.784 1.928,11.649 c 0.437,3.085 2.081,10.106 2.258,12.05 c 0.104,1.135 -3.783,1.773 -3.965,0.613 c -0.715,-4.583 -1.203,-8.515 -1.893,-12.912 c -0.69,-4.385 -1.823,-9.616 -2.194,-11.914 c -0.363,-2.25 -0.379,-6.924 3.304,-9.478 c 4.966,-3.443 10.656,3.697 10.656,3.697 Z" fill="#77b255"/>
	</g>
	<g fill="#77b255">
		<ellipse rx="3.2" ry="2.4" transform="translate(22.1604,6.3593) rotate(36.4)"/>
		<ellipse rx="3.8" ry="2.777" transform="translate(23.0321,7.46085) rotate(-33.37)"/>
		<path d="M 20.71,8.1436 s 0.874,1.312 -0.164,2.022 c -1.038,0.711 -2.733,-0.546 -2.733,-0.546 s 2.023,-0.328 2.897,-1.476 Z"/>
		<path d="M 23.2607,4.8643 c -0.055,-0.82 1.312,-2.295 1.967,-1.913 c 0,0 -0.874,0.984 -0.054,1.585 c 0.819,0.601 -1.913,0.328 -1.913,0.328 Z"/>
	</g>
	<g>
		<path d="M 13.0811,16.4253 s 1.71,0.642 2.871,1.803 c 1.536,1.536 2.471,4.541 1.269,7.948 c -0.739,2.092 1.069,5.074 1.069,5.074 s -2.013,-1.077 -3.272,-2.671 c -1.279,-1.618 -2.12,-3.833 -2.297,-5.648 c -0.117,-1.197 -0.174,-3.568 0.36,-6.506 Z" fill="#c6e5b3"/>
	</g>
	<g>
		<path d="M 10.2759,13.9771 s 1.007,1.967 1.398,3.021 c 0.545,1.475 1.245,5.481 0,7.151 c -1.073,1.438 -1.761,5.421 -1.761,5.421 s -3.916,-4.275 -2.879,-10.825 c 0.249,-1.57 2.456,-4.405 3.242,-4.768 Z" fill="#a6d388"/>
	</g>
	<g>
		<path d="M 21.25,8.6665 c 0.838,-0.449 3.064,-0.798 4.292,1.958 c 2.042,4.584 -0.015,12.075 -0.769,13.863 c -2.406,5.705 -4.214,1.943 -3.228,-0.392 c 1.063,-2.515 -2.129,-4.062 -2.855,-7.836 c -0.839,-4.361 0.769,-6.635 2.56,-7.593 Z" fill="#dd2e44"/>
		<path d="M 23.3535,7.0796 c 1.322,-1.933 3.245,-2.175 4.541,-0.946 c 6.034,5.723 3.544,16.947 -0.52,19.366 c -2.403,1.43 -0.846,-7.209 -4.088,-10.74 c -1.906,-2.076 -1.959,-5.271 0.067,-7.68 Z" fill="#ea596e"/>
	</g>
</svg>
