<svg xmlns="http://www.w3.org/2000/svg" viewBox="0 0 36 36">
	kind messy..
	<g>
		<path d="M 19,20.2549 v10.123 s 2.743,1.369 5.121,2.777 c 1.336,0.791 0.206,1.651 -0.011,1.723 c -0.562,0.188 -2.124,1.102 -6.764,1.102 c -4.527,0 -6.124,-0.844 -6.781,-1.102 c -0.393,-0.155 -1.047,-1.055 -0.063,-1.617 c 0.914,-0.543 5.498,-2.883 5.498,-2.883 v-10.123 s -10.2,-2.422 -10.2,-16.13 c 0,-2.387 2.204,-2.125 3.329,-2.125 h16.497 c 2.249,0 3.416,0.769 3.416,2.25 c 0,13.792 -10.042,16.005 -10.042,16.005 Z" fill="#8899a6"/>
		<path d="M 29,3.4424 c 0,1.621 -3.547,2.935 -11.623,2.935 s -11.623,-1.314 -11.623,-2.935 c 0,-1.622 3.547,-2.935 11.623,-2.935 s 11.623,1.313 11.623,2.935 Z" fill="#ccd6dd"/>
		<path d="M 7.4585,3.5835 s 19.828,-1.662 19.667,0.375 c -0.625,7.917 -4.667,12.208 -8.167,13.583 c -0.775,0.305 -1.691,0.235 -2.801,-0.123 c -3.241,-1.043 -6.657,-4.335 -8.699,-13.835 Z" fill="#ccd6dd"/>
	</g>
	<g>
		<path d="M 9,9.5 s 11,0.042 17,0.042 c 0,3 -3.666,8.458 -8.667,8.458 c -5,0 -8.333,-5 -8.333,-8.5 Z" fill="#a0041e"/>
		<ellipse rx="8.5" ry="1.5" cx="17.5" cy="9.5" fill="#dd2e44"/>
	</g>
	<g>
		todo: stroke..
		<path d="M 17.168,6.6592 c -5.03,0 -8.783,-1.11 -9.801,-1.587 c -0.5,-0.235 -0.715,-0.83 -0.481,-1.33 c 0.234,-0.501 0.831,-0.716 1.33,-0.481 c 1.239,0.582 9.454,2.894 18.596,-0.127 c 0.523,-0.174 1.088,0.111 1.262,0.635 c 0.174,0.525 -0.111,1.091 -0.635,1.264 c -3.677,1.215 -7.21,1.626 -10.271,1.626 Z" fill="#ffffff"/>
	</g>
</svg>
