<svg xmlns="http://www.w3.org/2000/svg" viewBox="0 0 36 36">
	like most of the 15.0 emojis, this one is just  insane
	I swapped red and blue channels to make the colors more normal (i.e. having a blue tint like all other grays in twemoji, as well as every other font's wing emoji)
	<path fill="#A0ADBA" d="M 17.71,32.837 c 0.29,0.085 1.897,0.739 4.83,1.873 c -1.614,1.893 -12.551,1.672 -15.11,-2.43 c -1.61,-2.3 -0.4,-4.88 -2.44,-7.08 a 6.192,6.192 0 00 0.893,-0.37 c 1.277,1.427 10.213,7.631 11.767,7.99 c 0.007,0 0.039,0.011 0.06,0.017 Z"/>
	<path fill="#AAB8C4" d="M 27.73,28.41 c -0.87,2.69 -7.24,1.9 -7.24,1.9 l 5.23,1.48 c -1.196,2.658 -7.381,1.198 -8.01,1.047 c -0.021,-0.006 -0.053,-0.017 -0.06,-0.017 c -1.524,-0.352 -4.792,-1.333 -5.923,-2.387 l -4.379,-2.495 v-4.121 a 6.554,6.554 0 00 1.096,-1.314 c 1.283,1.161 11.316,5.067 13.306,5.067 l 5.98,0.84 Z"/>
	<path fill="#A5B3BF" d="M 10.906,29.347 a 2.835,2.835 0 00 1.342,0.173 l -0.002,0.006 c -0.079,0.348 -0.262,0.653 -0.518,0.905 c -1.107,1.088 -3.53,1.16 -4.367,-0.793 c -0.636,-2.155 -0.2,-3.383 -1.477,-4.81 a 6.32,6.32 0 00 1.465,-1.013 c 1.495,1.544 1.2,2.987 2.412,4.633 a 2.117,2.117 0 00 0.437,0.483 c 0.027,0.023 0.051,0.048 0.079,0.07 a 2.476,2.476 0 00 0.527,0.302 c 0.034,0.015 0.067,0.031 0.102,0.044 Z"/>
	<path fill="#B3C2CE" d="M 30.74,20.36 c 0.48,3.25 -6.71,4.13 -6.711,4.129 l 5.29,0.4 c -0.56,3.08 -7.57,2.68 -7.57,2.68 c -1.99,0 -4.673,-0.325 -6.415,-1.176 a 2.137,2.137 0 01 -1.203,0.477 c -0.495,0.04 -1.07,-0.066 -1.704,-0.386 c -2.157,-1.088 -2.701,-2.82 -3.983,-3.981 a 6.527,6.527 0 00 0.564,-1.124 c 1.083,0.704 13.729,0.905 16.342,0.071 l 0.02,-0.01 l 5.37,-1.08 Z"/>
	<path fill="#BDCCD7" d="M 26.32,18.03 l 5.009,-1.839 c 0.96,2.5 -5.58,5.1 -5.96,5.25 l -0.02,0.01 c -2.612,0.834 -5.717,1.124 -8.179,0.893 c 0.016,0.794 -0.417,1.659 -1.288,1.999 c -0.495,0.192 -1.126,0.219 -1.903,-0.043 c -2.222,-0.751 -3.889,-2.217 -4.972,-2.921 a 6.56,6.56 0 00 0.301,-1.036 c 1.352,0.378 16.144,-5.019 18.452,-6.435 c 0,0 0.384,0.045 4.75,-2.158 c 1,2.27 -5.79,6.06 -6.19,6.28 c -1.255,0.627 -1.259,0.63 0,0 Z"/>
	<path fill="#C9D8E4" d="M 33.55,6.84 c 1.029,1.78 -2.062,4.632 -5.829,7.091 c -2.321,1.42 -6.98,3.931 -9.58,4.678 c -0.002,-0.004 -0.006,-0.003 -0.008,-0.006 c 0.175,0.543 0.108,1.461 -0.455,2.221 c -0.474,0.639 -1.277,1.041 -2.338,0.932 c -2.621,-0.275 -4.679,-1.035 -6.031,-1.413 l 0.136,-1.258 s 16.765,-10.758 19.385,-13.385 l 4.68,-3.34 c 1.43,1.85 -4.44,7.09 -4.77,7.38 l 4.81,-2.9 Z"/>
	<path fill="#D6E4F0" d="M 15.976,19.5 c -2.018,0.613 -4.56,-0.337 -6.531,-0.415 c 0.006,-0.53 -0.181,-1.617 -0.181,-1.617 l 4.38,-1.087 s 3.301,-0.267 3.344,-0.305 c 0.683,0.04 1.088,0.314 1.243,0.698 c 0.165,0.411 0.041,0.942 -0.329,1.443 c -0.386,0.522 -1.038,1.01 -1.926,1.283 Z"/>
	<path fill="#DDEBF7" d="M 30.77,0.04 c 1.38,1.56 -1.63,5.28 -1.94,5.66 c -2.721,2.721 -7.451,6.399 -10.188,8.083 c -0.251,0.147 -0.755,0.395 -0.884,0.458 c 0.177,0.523 -0.026,1.186 -0.771,1.835 c -0.043,0.037 -0.079,0.075 -0.126,0.113 c -2.334,1.867 -4.987,0.958 -7.598,1.279 c -0.069,-0.292 -0.152,-0.585 -0.263,-0.878 v-0.01 c 2.112,-0.806 4.352,-2.032 6.21,-3.24 c 7.08,-4.56 13.54,-11.26 15.56,-13.3 Z"/>
	<path fill="#D6E4F0" d="M 9,16.59 c 2.142,3.408 -0.586,7.531 -4.01,8.61 c -1.899,-1.884 -3.77,-2.732 -3.92,-6.12 c -0.043,-0.766 0.672,-1.403 1.47,-1.34 c 2.03,0.17 4.22,-0.29 6.46,-1.16 v0.01 Z"/>
	<path fill="#BBC9D5" d="M 4.99,25.2 c -1.899,-1.885 -3.77,-2.733 -3.92,-6.12 c 0.151,2.592 4.444,3.717 5.733,5.225 a 6.581,6.581 0 01 -1.813,0.895 Z"/>
</svg>
