<svg xmlns="http://www.w3.org/2000/svg" viewBox="0 0 36 36">
	<path d="M 14.8584,9.4971 c 0.475,2.326 -0.182,4.236 -2.921,4.638 c -2.741,0.403 -6.7,3.897 -8.848,-1.798 c -1.246,-3.299 -1.998,-10.103 -0.461,-10.329 c 1.536,-0.225 11.756,5.163 12.23,7.489 Z" fill="rgb(102,117,127)"/>
	<path d="M 21.3721,9.4971 c 0.457,-2.326 10.316,-7.714 11.798,-7.489 c 1.482,0.226 0.757,7.03 -0.444,10.329 c -2.073,5.695 -5.892,2.201 -8.537,1.798 c -2.641,-0.402 -3.275,-2.312 -2.817,-4.638 Z" fill="rgb(102,117,127)"/>
	
	<path d="M 12.7837,9.8506 c 0.866,1.392 -2.205,3.833 -3.844,4.568 c -1.638,0.736 -2.915,-0.66 -4.173,-4.099 c -0.55,-1.503 -1.234,-5.532 -0.633,-5.802 c 0.599,-0.269 7.784,3.941 8.65,5.333 Z" fill="rgb(204,214,221)"/>
	<path d="M 23.373,9.8506 c 0.836,-1.392 7.768,-5.602 8.346,-5.333 c 0.579,0.27 -0.081,4.299 -0.612,5.802 c -1.213,3.439 -2.445,4.835 -4.026,4.099 c -1.581,-0.735 -4.543,-3.176 -3.708,-4.568 Z" fill="rgb(204,214,221)"/>
	
	<path d="M 18,34 c -3.795,0 -6.787,-2.71 -8.001,-6.333 c -1.75,-0.875 -3.25,-1.083 -6.458,0.375 c -0.056,-0.531 0.012,-0.973 0.135,-1.344 c 0.043,-0.431 0.197,-0.962 0.386,-1.474 c -0.595,0.026 -1.549,0.186 -2.813,0.818 c -0.025,-0.531 0.082,-0.985 0.282,-1.377 c -0.029,0.014 -0.054,0.024 -0.084,0.039 c 1.104,-3.311 3.311,-5.517 3.311,-5.517 h-2.207 c 2.328,-4.655 4.957,-8.004 8.061,-9.552 c 1.389,-0.878 3.69,-1.345 7.388,-1.346 c 3.686,0.001 5.984,0.466 7.373,1.339 c 3.111,1.544 5.744,4.896 8.076,9.559 h-2.207 s 2.207,2.206 3.31,5.517 c -0.041,-0.021 -0.076,-0.035 -0.116,-0.055 c 0.154,0.409 0.264,0.857 0.272,1.393 c -1.251,-0.626 -2.184,-0.789 -2.769,-0.817 c 0.22,0.596 0.407,1.234 0.399,1.682 c 0.072,0.319 0.102,0.68 0.036,1.093 c -2.708,-1.291 -4.958,-1.666 -6.416,-0.416 c -1.212,3.622 -4.165,6.416 -7.958,6.416 Z" fill="rgb(102,117,127)"/>
	
	<path d="M 16,18 c 0,3 -4,10 2,11.118 c 6,-1.118 2,-8.118 2,-11.118 c 0,-2.761 1.791,-5 4,-5 s 4,2.239 4,5 c 0,0.79 -0.16,1.526 -0.421,2.19 c 3.308,1.412 6.536,3.202 6.973,4.514 c -2.206,-1.104 -3.31,-1.104 -3.31,-1.104 s 1.104,2.208 1.104,3.312 c -2.671,-1.78 -5.341,-2.123 -7.431,-0.451 c -1.214,3.622 -2.915,6.539 -6.915,3.663 c -4,2.876 -5.701,-0.041 -6.915,-3.663 c -2.09,-1.672 -4.76,-1.329 -7.431,0.451 c 0,-1.104 1.104,-3.312 1.104,-3.312 s -1.104,0 -3.31,1.104 c 0.437,-1.312 3.665,-3.102 6.973,-4.513 c -0.261,-0.664 -0.421,-1.401 -0.421,-2.191 c 0,-2.761 1.791,-5 4,-5 s 4,2.239 4,5 Z" fill="rgb(204,214,221)"/>
		
	<path id="eye1" d="M 11,17 s 0,-1.5 1.5,-1.5 s 1.5,1.5 1.5,1.5 v1.5 s 0,1.5 -1.5,1.5 s -1.5,-1.5 -1.5,-1.5 v-1.5 Z" fill="rgb(41,47,51)"/>
	<path id="eye2" d="M 22,17 s 0,-1.5 1.5,-1.5 s 1.5,1.5 1.5,1.5 v1.5 s 0,1.5 -1.5,1.5 s -1.5,-1.5 -1.5,-1.5 v-1.5 Z" fill="rgb(41,47,51)"/>
	
	<path d="M 18,30.124 c -1.02,0 -4.082,-3.76 -3.062,-3.968 c 1.021,-0.208 5.103,-0.208 6.124,0 c 1.02,0.208 -2.042,3.968 -3.062,3.968 Z" fill="rgb(41,47,51)"/>
</svg>
