<svg xmlns="http://www.w3.org/2000/svg" viewBox="0 0 36 36">
	<path d="M 4,20 c 1,0 3,0 5.407,0.401 c 7.654,1.277 9.508,2.434 11.593,3.599 c 2.083,1.165 1.545,0.045 4.163,0.704 c 2.616,0.658 3.837,0.296 6.087,0.756 c 6.783,1.387 4.594,3.603 3.594,4.603 c -2,2 -5.844,0.937 -5.844,0.937 l -5.433,-0.484 l -12.739,-5.096 s -9.108,-1.42 -9.828,-1.42 c -1,0 -1,0 -1,-1 c 0.399,-1.454 1,-3 4,-3 Z" fill="#d99e82"/>
	<path d="M 35,33 h-8 c -5.632,0 -15.398,-6.031 -17,-6 c -0.692,0.013 -1,0.098 -1,4 c 0,2 -1,2 -1,2 h-7 c -1.064,-0.26 -1,-2 -1,-2 c 0.051,-0.999 0,-8 0,-8 s 4.087,-0.993 9.941,0.686 c 5.854,1.68 14.059,5.314 14.059,5.314 h11.969 c 0,1 0.215,3.977 -0.969,4 Z" fill="#c1694f"/>
	<path d="M 21.833,17 c 0.334,-1.24 7.959,0.042 7.875,2 c -0.291,1.625 -1.867,10.732 -1.87,11.084 c 0.037,1.499 -8.882,-0.083 -8.631,-1.417 s 2.29,-10.428 2.626,-11.667 Z" fill="#be1931"/>
</svg>
