<svg xmlns="http://www.w3.org/2000/svg" viewBox="0 0 36 36">
	<!--  -->
	<path fill="#553788" d="M 12,3 h12 s -1,3 -6,3 s -6,-3 -6,-3 Z"/>
	<path fill="#AA8DD8" d="M 12,3 s 2,4 6,4 s 6,-4 6,-4 s 7,6 11,8 l -5,5.6 l -4,-1.6 s -0.25,16 3,19 c 0,0 -5,1 -11,1 s -11,-1 -11,-1 c 3.25,-3 3,-19 3,-19 l -4,1.6 l -5,-5.6 c 4,-2 11,-8 11,-8 Z"/>
	<path fill="#9266CC" d="M 24,3 l -2,7 l -4,-3 l -4,3 l -2,-7 s 3,3 6,3 s 6,-3 6,-3 Z"/>
	<!--<rect fill="#9266CC" width="2" height="28.5" rx="1" x="17" y="6.5"/>-->
	<g stroke-width="2" stroke-linecap="round" fill="none" stroke="#9266CC">
		<path d="M 18,7.5 v 26.5"/>
		<path d="M 6,16 L 2,11"/>
		<path d="M 30,16 L 34,11"/>
	</g>
</svg>
