<!--
pre 2.4.0 construction
<svg xmlns="http://www.w3.org/2000/svg" viewBox="0 0 36 36">
	<g>
	<path fill="#662113" d="M 34.5391,33.4883 s 1.18,0.215 1.18,1.256 c 0,1.043 -1.042,1.256 -2.084,1.256 h-17.72 c -2.084,0 -5.915,-4 -7.915,-4 l -0.592,4 h-6.408 v-2.936 c 0,-2.084 -0.881,-2.285 -0.881,-3.211 c 0,-2.084 0.672,-4.394 0.672,-4.394 l 6.746,0.31 l 9.463,7.231 l 17.539,0.488 Z"/>
	</g>
	<g>
	<path fill="#C1694F" d="M 1.668,27.2813 c -0.864,-0.209 -1.322,-1.305 -1.207,-1.838 c 0.806,-3.732 4.059,-5.039 4.544,-5.039 c 2.363,0 -0.347,-1.148 6.741,6.44 c 7.088,7.585 7.258,-6.049 7.258,-6.049 s 4.084,5.232 6.445,6.316 c 2.363,1.084 10.27,3.381 10.27,4.465 c 0,2.167 -1.18,2.424 -1.18,2.424 h-14.539 c -2.363,0 -4.363,-1.34 -4.363,-1.34 c -7.637,-3.66 -10.933,-4.648 -13.969,-5.379 Z"/>
	<path fill="#C1694F" d="M 2,22 s 1,-2 1,-4 s -1,-17 -1,-17 s 4.917,-1 10,-1 c 5.084,0 7,1 7,1 s -6,15 2,23 c 2.55,2.55 -2,7 -2,7 s -1,2 -4,0 s -13,-9 -13,-9 Z"/>
	</g>
	<path fill="#D99E82" d="M 9,-17 v-20 h2 v20 h-2 Z"/>
</svg>
-->
<svg xmlns="http://www.w3.org/2000/svg" viewBox="0 0 36 36">
	<g>
		<path fill="#662113" d="M 34.5391,33.4883 s 1.18,0.215 1.18,1.256 c 0,1.043 -1.042,1.256 -2.084,1.256 h-17.72 c -2.084,0 -5.915,-4 -7.915,-4 l -0.592,4 h-6.408 v-2.936 c 0,-2.084 -0.881,-2.285 -0.881,-3.211 c 0,-2.084 0.672,-4.394 0.672,-4.394 l 16.209,7.541 l 17.539,0.488 Z"/>
	</g>
	<g>
		<path fill="#C1694F" d="M 25.4492,27.1113 c 2.362,1.084 10.27,3.381 10.27,4.465 c 0,2.167 -1.18,2.424 -1.18,2.424 h-14.539 c -2.363,0 -4.364,-1.34 -4.364,-1.34 c -7.636,-3.66 -10.933,-4.648 -13.968,-5.379 c -0.865,-0.209 -1.371,-1.063 -1.085,-2.322 c 0.258,-1.13 1.694,-3.558 1.694,-3.558 s 0.723,-1.401 0.723,-3.401 s -1,-17 -1,-17 s 2.616,-0.531 6,-0.819 l 1,0.819 l 1,-0.951 c 0.657,-0.031 1.326,-0.049 2,-0.049 c 5.084,0 7,1 7,1 s -4.851,12.138 0,20.4 c 0.194,0.219 4.146,4.653 6.449,5.711 Z"/>
	</g>
	<g>
		<path fill="#D99E82" d="M 10,20 h-2 v-19.818 c 0.644,-0.055 1.313,-0.101 2,-0.133 v19.951 Z"/>
	</g>
</svg>
