<svg xmlns="http://www.w3.org/2000/svg" viewBox="0 0 36 36">
	<path d="M 36,23 c 0,2.071 -8.059,5 -18,5 s -18,-2.929 -18,-5 s 8.059,-5 18,-5 s 18,2.929 18,5 Z" id="path22" fill="#ffd983" />
	<path d="M 29,17 c 0,1.566 -4.925,6 -11,6 s -10.957,-4.434 -10.957,-6 c 0,-7 6.957,-10 10.957,-10 s 11,3 11,10 Z" id="path26" fill="#ffd983" />
	<path d="M 29,21 c -5,3 -17,3 -22,0 c 0,-0.492 0.043,-3.535 0.043,-4 c 5.957,3 15.957,3 21.957,0 c -0.003,0.465 0,3.508 0,4 Z" id="path30" fill="#9266cc" />
	<ellipse rx="2" ry="1" transform="translate(18,24) rotate(-90)" fill="#ffffff"/>
	<ellipse rx="2" ry="1" transform="translate(18,18) rotate(-90)" fill="#ffffff"/>
	<ellipse rx="2" ry="1" transform="translate(15.879,23.121) rotate(-45)"  fill="#ffffff"/>
	<ellipse rx="2" ry="1" transform="translate(20.121,18.879) rotate(-45)"  fill="#ffffff"/>
	<ellipse rx="2" ry="1" transform="translate(15,21) rotate(-0.01)" fill="#ffffff"/>
	<ellipse rx="2" ry="1" transform="translate(21,21)" fill="#ffffff"/>
	<ellipse rx="2" ry="1" transform="translate(15.879,18.879) rotate(44.97)"  fill="#ffffff"/>
	<ellipse rx="2" ry="1" transform="translate(20.121,23.121) rotate(45)" fill="#ffffff"/>
	<circle r="2" cx="18" cy="21" fill="#ffac33"/>
</svg>
