<svg xmlns="http://www.w3.org/2000/svg" viewBox="0 0 36 36">
	<path d="M 17.34,1.835 c 6.027,-0.482 10.871,2.317 10.872,7.53 c 0,0 -0.152,10.758 -0.045,18.757 c 0.094,7 -10.383,7.845 -14.569,5.926 c -2.875,-1.318 -4.946,-3.602 -4.946,-5.703 s 0.348,-17.904 0.348,-20.005 c 0,-2.941 2.231,-6.017 8.34,-6.505 Z"  fill="#662113"/>
	<path d="M 9.142,15.03 s 0.376,11.87 -0.283,8.437 c -0.658,-3.433 -3.382,-5.942 -4.746,-7.729 s 0.409,-4.037 1.219,-3.512 c 0.495,0.32 2.587,1.928 3.81,2.804 Z"  fill="#662113"/>
	
	<path d="M 14.213,34.188 l 0.401,-6.282 l 0.49,6.594 l -0.891,-0.312 Z M 26.198,32.54 l 0.178,-7.352 l 0.49,6.594 l -0.668,0.758 Z"  fill="#292F33"/>
	
	<path d="M 15.639,22.827 l 0.712,-4.589 l 0.09,4.99 l 0.445,4.722 l -1.247,-5.123 Z M 20.896,33.965 l -0.178,-9.98 l 0.846,7.396 l -0.668,2.584 Z M 23.658,20.153 l 0.134,-6.327 l 0.511,3.574 c 0.016,0.111 0.01,0.224 -0.019,0.333 l -0.626,2.42 Z"  fill="#C1694F"/>
	
	<ellipse transform="rotate(-75.345 4.875 13.817)" fill="#C1694F" cx="4.876" cy="13.818" rx="1.167" ry=".706"/>
	<!-- top -->
	<path d="M 10.948,10.993 c -3.695,-3.08 -0.198,-7.429 4.363,-8.469 c 4.054,-0.924 8.759,0.156 10.726,2.207 c 2.308,2.406 2.012,5.43 -1.488,7.288 c -3.645,1.935 -9.833,2.114 -13.601,-1.026 Z"  fill="#C1694F"/>
	<path d="M 11.949,10.568 c -3.208,-2.674 -0.172,-6.45 3.787,-7.352 c 3.52,-0.802 7.602,0.138 9.312,1.916 c 2.228,2.317 1.855,4.938 -1.292,6.327 c -3.437,1.516 -8.536,1.835 -11.807,-0.891 Z"  fill="#FFE8B6"/>
	<path d="M 18.666,11.588 c -2.247,0 -4.511,-0.762 -5.608,-1.658 c -0.808,-0.66 -1.223,-1.544 -1.138,-2.425 c 0.068,-0.703 0.489,-1.723 2.109,-2.591 c 2.326,-1.247 4.73,-1.616 6.949,-1.069 c 2.296,0.564 4.698,2.357 4.477,4.026 c -0.236,1.768 -3.604,3.299 -5.267,3.59 c -0.497,0.087 -1.008,0.127 -1.522,0.127 Z M 18.939,4.6 c -1.451,0 -2.958,0.403 -4.438,1.196 c -0.973,0.521 -1.521,1.146 -1.585,1.806 c -0.053,0.542 0.23,1.109 0.775,1.554 c 1.183,0.966 4.009,1.728 6.326,1.32 c 1.747,-0.306 4.313,-1.742 4.447,-2.737 c 0.128,-0.962 -1.752,-2.438 -3.724,-2.923 c -0.587,-0.145 -1.189,-0.216 -1.801,-0.216 Z M 18.432,9.424 c -0.986,0 -1.906,-0.24 -2.423,-0.663 c -0.433,-0.354 -0.654,-0.835 -0.607,-1.321 c 0.037,-0.38 0.255,-0.926 1.084,-1.371 c 0.629,-0.337 2.067,-0.645 3.043,-0.544 c 1.105,0.111 2.625,0.869 2.589,1.853 c -0.059,1.524 -1.646,1.789 -2.697,1.964 c -0.329,0.055 -0.663,0.082 -0.989,0.082 Z M 19.119,6.506 c -0.79,0 -1.784,0.243 -2.162,0.445 c -0.337,0.181 -0.542,0.394 -0.56,0.585 c -0.014,0.145 0.077,0.313 0.244,0.45 c 0.402,0.329 1.489,0.556 2.615,0.37 c 1.406,-0.234 1.841,-0.472 1.861,-1.016 c -0.039,-0.213 -0.846,-0.736 -1.688,-0.82 c -0.098,-0.009 -0.202,-0.014 -0.31,-0.014 Z"   fill="#D99E82"/>
</svg>
