<svg xmlns="http://www.w3.org/2000/svg" viewBox="0 0 36 36">
	<path d="M 32.407,22.743 c 0.999,2.917 1.435,6.559 -0.25,9.312 c -1.748,2.859 -5.199,3.445 -8.259,2.692 c -3.391,-0.834 -5.526,-3.44 -6.052,-6.823 c -0.471,-3.026 -0.278,-6.172 -1.782,-8.949 c -1.179,-2.177 -3.677,-3.389 -6.158,-2.834 c -2.81,0.628 -2.97,4.158 -2.429,6.429 c 0.63,2.642 1.828,5.465 4.707,6.144 c 2.663,0.628 2.016,4.485 -0.644,4.377 c -4.628,-0.188 -7.459,-4.082 -8.697,-8.183 c -1.199,-3.974 -1.015,-8.846 2.457,-11.668 c 3.015,-2.451 7.297,-2.313 10.728,-0.873 c 3.459,1.45 5.376,5.001 6.106,8.534 c 0.391,1.894 0.42,3.819 0.632,5.734 c 0.18,1.622 0.566,2.93 2.156,3.601 c 0.979,0.413 2.306,0.772 2.986,-0.262 c 0.854,-1.297 0.51,-3.221 0.163,-4.634 c -0.83,-3.377 -2.841,-6.284 -4.793,-9.104 c -2.039,-2.946 -5.037,-6.237 -4.529,-10.094 c 0.502,-3.806 4.42,-6.242 8.099,-5.303 c 3.658,0.933 6.016,4.47 5.842,8.172 c -0.127,2.723 -4.357,2.697 -4.531,0 c -0.092,-1.423 -0.609,-3.182 -2.101,-3.733 c -0.841,-0.311 -1.929,-0.094 -2.336,0.781 c -0.592,1.273 0.411,2.882 1.077,3.916 c 0.983,1.527 2.063,2.995 3.09,4.493 c 1.776,2.591 3.494,5.284 4.518,8.275 Z"  fill="#DD637F"/>
	<path d="M 16.763,14.112 c 1.278,0.804 3.358,3.594 3.876,5.97 c 0.535,2.45 0.585,4.058 0.535,6.037 c -0.045,1.775 -0.998,1.634 -0.958,0 s -0.206,-3.902 -0.652,-5.595 s -1.821,-4.63 -3.425,-5.343 l -7.908,-0.713 s -2.982,0.6 -3.787,6.015 c -0.245,1.649 -0.792,1.115 -0.757,-0.401 c 0.034,-1.516 0.601,-5.48 4.344,-6.861 c 0,0 8.91,0.535 8.732,0.891 Z"  fill="#EF8EA7"/>
	<path d="M 25.839,12.78 c -0.854,0.263 -1.752,0.401 -2.646,0.436 c -0.729,0.027 -1.47,-0.042 -2.2,-0.173 c -0.424,-0.63 -0.825,-1.277 -1.17,-1.941 c 1.061,0.352 2.163,0.535 3.296,0.493 c 0.715,-0.027 1.419,-0.147 2.106,-0.344 c 0.12,-0.035 0.232,-0.079 0.347,-0.12 c 0.321,0.471 0.636,0.947 0.964,1.414 c -0.233,0.086 -0.467,0.164 -0.697,0.235 Z"  fill="#BF345DD9"/>
	<path d="M 27.054,17.736 c -0.775,0.226 -1.591,0.338 -2.399,0.345 c -0.044,0 -0.088,-0.009 -0.132,-0.009 c -0.376,-0.563 -0.758,-1.12 -1.14,-1.672 c 0.401,0.037 0.805,0.089 1.202,0.081 c 0.679,-0.014 1.348,-0.125 1.999,-0.315 c 0.663,-0.194 1.278,-0.497 1.871,-0.849 c 0.311,0.462 0.615,0.928 0.914,1.399 l -0.128,0.074 c -0.689,0.398 -1.423,0.724 -2.187,0.946 Z"  fill="#BF345DD9"/>
	<path d="M 31.93,21.505 c -0.728,0.409 -1.505,0.741 -2.307,0.966 c -0.78,0.219 -1.601,0.319 -2.415,0.344 c -0.231,-0.536 -0.492,-1.059 -0.766,-1.576 c 0.131,0.005 0.261,0.014 0.393,0.012 c 0.766,-0.012 1.511,-0.134 2.249,-0.336 c 0.759,-0.208 1.477,-0.518 2.154,-0.919 c 0.246,0.496 0.48,0.998 0.692,1.509 Z"  fill="#BF345DD9"/>
	<path d="M 33.26,28.277 c -1.076,0.125 -2.19,0.06 -3.217,-0.109 c -0.545,-0.09 -1.077,-0.24 -1.601,-0.415 c -0.014,-0.629 -0.116,-1.268 -0.242,-1.852 c 0.696,0.302 1.425,0.513 2.171,0.651 c 0.978,0.181 1.919,0.149 2.865,0.049 c 0.048,0.56 0.056,1.12 0.024,1.676 Z"  fill="#BF345DD9"/>
	<path d="M 20.059,26.971 c -0.544,0.422 -0.942,0.855 -1.302,1.418 c -0.228,0.357 -0.374,0.721 -0.523,1.092 c -0.163,-0.494 -0.301,-1.002 -0.384,-1.538 c -0.061,-0.395 -0.111,-0.793 -0.155,-1.192 c 0.341,-0.413 0.712,-0.803 1.137,-1.121 c 0.754,-0.564 1.591,-0.978 2.503,-1.218 c 0.406,-0.107 0.815,-0.154 1.224,-0.164 c 0.044,0.542 0.09,1.084 0.139,1.626 c -0.972,0.176 -1.918,0.537 -2.639,1.097 Z"  fill="#BF345DD9"/>
	<path d="M 18.71,21.711 c -0.535,0.366 -1.013,0.835 -1.414,1.348 c -0.105,-0.727 -0.248,-1.444 -0.456,-2.147 c 0.287,-0.254 0.58,-0.503 0.903,-0.722 c 1.099,-0.746 2.46,-1.234 3.82,-1.306 c 0.186,0.535 0.345,1.077 0.472,1.623 c -1.178,0.173 -2.315,0.512 -3.325,1.204 Z"  fill="#BF345DD9"/>
	<path d="M 17.349,16.805 c -0.575,0.464 -1.183,1.027 -1.624,1.663 c -0.358,-0.514 -0.79,-0.959 -1.283,-1.324 c 0.762,-0.944 1.635,-1.79 2.685,-2.413 c 0.458,-0.272 0.962,-0.476 1.474,-0.636 c 0.483,0.456 0.917,0.961 1.303,1.506 c -0.315,0.064 -0.63,0.14 -0.931,0.255 c -0.528,0.201 -1.176,0.588 -1.624,0.949 Z"  fill="#BF345DD9"/>
	<path d="M 7.444,14.669 c 0.263,0.731 0.675,1.396 1.151,2.009 c 0.02,0.025 0.045,0.045 0.065,0.07 c -0.527,0.416 -0.882,0.991 -1.106,1.644 c -0.881,-0.972 -1.588,-2.136 -1.992,-3.327 c -0.179,-0.528 -0.293,-1.122 -0.341,-1.731 c 0.029,-0.025 0.054,-0.052 0.084,-0.076 c 0.561,-0.456 1.166,-0.822 1.802,-1.107 c -0.008,0.067 -0.025,0.131 -0.029,0.199 c -0.048,0.797 0.096,1.571 0.366,2.319 Z"  fill="#BF345DD9"/>
	<path d="M 2.774,16.902 c 0.519,0.96 1.375,1.779 2.211,2.413 c 0.693,0.527 1.456,0.94 2.254,1.273 c 0.007,0.644 0.086,1.276 0.21,1.842 c -1.438,-0.32 -2.794,-0.996 -3.958,-1.905 c -0.415,-0.324 -0.848,-0.71 -1.257,-1.138 c 0.08,-0.854 0.259,-1.689 0.54,-2.485 Z"  fill="#BF345DD9"/>
	<path d="M 3.356,23.982 c 0.694,0.18 1.397,0.259 2.112,0.26 c 0.816,0.001 1.619,-0.105 2.418,-0.24 c 0.182,0.551 0.392,1.091 0.651,1.6 c -1.058,0.268 -2.145,0.42 -3.234,0.417 c -0.695,-0.001 -1.435,-0.066 -2.162,-0.212 c -0.105,-0.292 -0.205,-0.585 -0.294,-0.88 c -0.122,-0.406 -0.226,-0.824 -0.318,-1.246 c 0.266,0.113 0.532,0.224 0.827,0.301 Z"  fill="#BF345DD9"/>
	<path d="M 5.037,29.297 c 0.763,-0.212 1.491,-0.51 2.189,-0.884 c 0.778,-0.418 1.496,-0.927 2.169,-1.491 c 0.368,0.454 0.799,0.844 1.297,1.16 c -0.763,0.738 -1.632,1.371 -2.572,1.863 c -0.616,0.322 -1.268,0.578 -1.93,0.798 c -0.447,-0.435 -0.86,-0.912 -1.232,-1.428 c 0.026,-0.007 0.053,-0.011 0.079,-0.018 Z"  fill="#BF345DD9"/>
	<path d="M 24.163,8.922 c -1.368,0.078 -2.763,-0.13 -4.029,-0.6 c -0.488,-0.181 -0.955,-0.391 -1.403,-0.636 c -0.048,-0.499 -0.047,-1.007 0.021,-1.526 c 0.016,-0.116 0.044,-0.226 0.065,-0.339 c 0.132,0.087 0.256,0.184 0.393,0.264 c 0.647,0.376 1.321,0.679 2.041,0.883 c 0.773,0.219 1.55,0.315 2.33,0.317 c 0.075,0.556 0.305,1.118 0.582,1.637 Z"  fill="#BF345DD9"/>
	<path d="M 22.303,3.096 c -0.08,-0.64 0.015,-1.273 0.237,-1.859 c 0.721,-0.319 1.499,-0.519 2.3,-0.568 c -0.256,0.285 -0.46,0.612 -0.576,0.941 c -0.1,0.281 -0.15,0.506 -0.166,0.714 c -0.011,0.151 -0.017,0.304 -0.012,0.455 c 0.005,0.174 0.009,0.227 0.028,0.32 c 0.14,0.662 0.504,1.188 0.922,1.71 c 0.113,0.142 0.21,0.252 0.314,0.356 c -0.631,-0.013 -1.256,0.25 -1.572,0.826 c -0.17,-0.202 -0.334,-0.409 -0.491,-0.614 c -0.522,-0.681 -0.877,-1.427 -0.984,-2.281 Z"  fill="#BF345DD9"/>
	<path d="M 27.653,3.927 c 0.813,-0.543 1.772,-0.819 2.744,-0.866 c 0.04,-0.002 0.083,0.002 0.124,0.001 c 0.489,0.528 0.905,1.121 1.238,1.762 c -0.041,-0.007 -0.081,-0.016 -0.122,-0.022 c -0.347,-0.05 -0.705,-0.066 -1.056,-0.06 c -0.675,0.011 -1.3,0.195 -1.868,0.537 c -0.45,0.271 -0.866,0.716 -1.147,1.235 c -0.02,0.036 -0.031,0.076 -0.048,0.113 c -0.298,-0.54 -0.72,-0.989 -1.299,-1.251 c 0.37,-0.577 0.864,-1.068 1.434,-1.449 Z"  fill="#BF345DD9"/>
	<path d="M 29.761,33.693 c 0.115,0.107 0.234,0.21 0.356,0.308 l 0.051,0.039 c -0.614,0.375 -1.282,0.642 -1.989,0.804 c -0.452,-0.445 -0.867,-0.94 -1.184,-1.485 c -0.387,-0.666 -0.697,-1.405 -0.842,-2.164 c -0.031,-0.162 -0.061,-0.366 -0.083,-0.582 c 0.705,0.129 1.406,0.041 1.842,-0.621 c 0.024,-0.037 0.038,-0.078 0.06,-0.116 c -0.01,0.26 -0.012,0.523 0.032,0.735 c 0.069,0.336 0.168,0.665 0.294,0.984 c 0.029,0.073 0.059,0.145 0.091,0.217 l 0.04,0.081 c 0.072,0.139 0.145,0.278 0.225,0.413 c 0.168,0.284 0.356,0.557 0.561,0.815 l 0.082,0.097 l 0.13,0.143 c 0.107,0.115 0.219,0.225 0.334,0.332 Z"  fill="#BF345DD9"/>
	<path d="M 23.168,30.928 c -0.35,0.609 -0.653,1.289 -0.677,2.002 c -0.016,0.503 0.09,0.974 0.208,1.446 c -0.834,-0.342 -1.565,-0.813 -2.201,-1.378 c 0.004,-0.094 -0.004,-0.191 0.005,-0.282 c 0.099,-0.974 0.462,-1.868 0.971,-2.699 c 0.385,-0.626 0.927,-1.344 1.57,-1.92 c 0.19,0.639 0.495,1.189 1.005,1.62 c -0.333,0.372 -0.63,0.775 -0.881,1.211 Z"  fill="#BF345DD9"/>
	<path d="M 8.543,10.815 c 1.604,-0.757 6.861,-0.757 9,1.292 c -0.089,0.98 -2.871,6.032 -3.876,5.347 c -0.98,-0.668 -2.495,-0.802 -4.144,-0.446 c -0.936,-0.356 -2.435,-5.506 -0.98,-6.193 Z"  fill="#BF345D"/>
	<path d="M 11.885,14.58 c -2.008,-0.178 -3.472,0.477 -3.473,0.476 c -0.602,-1.729 -0.475,-2.558 -0.475,-2.558 s 1.252,-0.792 3.493,-0.795 c 2.433,-0.003 4.71,0.671 5.69,1.562 l -0.032,0.084 c -0.316,0.672 -0.763,1.48 -1.243,2.211 c -0.054,0.062 -0.113,0.123 -0.173,0.178 c -0.691,-0.356 -2.027,-1.002 -3.787,-1.158 Z"  fill="#D65073"/>
	</svg>
