<svg xmlns="http://www.w3.org/2000/svg" viewBox="0 0 36 36">
	the original seemed to have a misalignment between the body of the wrench (i.e. 2 circles and a rectangle) and the cutouts, so i corrected it to (what i assume was) the intended shape.
	<g fill="#8899a6">
		<path d="M 27,21 l -12,-12 l -6,6 l 12,12 l 6,-6 Z"/>
		<path d="M 36,28 c 0,1 -1,2 -2,1 l -3,-3 s -2,-1 -4,1 s -1,4 -1,4 l 3,3 c 1,1 0,2 -1,2 a 8,8 0 01 -8,-8 a 8,8 0 01 8,-8 a 8,8 0 01 8,8 Z"/>
		<path d="M 0,8 c 0,-1 1,-2 2,-1 l 3,3 s 2,1 4,-1 s 1,-4 1,-4 l -3,-3 c -1,-1 0,-2 1,-2 a 8,8 0 01 8,8 a 8,8 0 01 -8,8 a 8,8 0 01 -8,-8 Z"/>
	</g>
</svg>
