<svg xmlns="http://www.w3.org/2000/svg" viewBox="0 0 36 36">
	(colors adjusted)
	<rect x="3" y="3" width="30" height="30" rx="2" fill="#88c9f9"/>
	<rect x="4" y="4" width="28" height="28" rx="1" fill="#226699"/>
	<path d="M 30.562,15.127 c 0.173,0.237 0.24,0.482 0.199,0.728 c -0.101,0.623 -0.792,0.854 -1.467,1.456 c -0.892,0.795 -3.304,2.032 -4.509,2.501 c -0.904,0.352 -3.209,1.255 -3.96,1.87 c 0.916,0.127 3.434,-0.237 4.637,-0.8 c 2.454,-1.15 2.785,-0.689 2.961,-0.44 c 0.395,0.553 -0.206,1.175 -0.495,1.473 c -2.213,2.29 -7.093,2.322 -7.61,3.038 c -0.59,0.82 -2.82,2.289 -4.043,2.666 c -1.035,0.319 -2.604,1.468 -2.963,1.98 c -0.152,0.217 -0.699,1.193 -1.36,2.401 h-6.952 c -0.551,0 -1,-0.449 -1,-1 v-3.337 c 3.296,-4.243 3.257,-5.14 3.2,-8.797 c -0.041,-2.637 0.555,-3.719 1.186,-4.864 c 1.863,-3.382 1.606,-6.784 3.329,-6.409 c 1.487,0.327 1.449,3.811 0.859,5.226 c -0.332,0.795 -0.229,1.48 -0.022,1.855 c 0.717,1.297 2.772,-0.856 3.659,-2.048 c 1.042,-1.404 5.075,-7.019 6.488,-7.196 a 0.797,0.797 0 01 0.596,0.161 c 0.783,0.636 0.132,1.968 -3.484,7.124 c -0.947,1.35 -2.145,2.573 -1.268,3.458 c 0.771,-0.566 2.687,-1.982 3.874,-2.957 c 1.051,-0.864 4.809,-3.33 5.89,-3.085 a 0.7,0.7 0 01 0.486,0.387 c 0.204,0.446 0.482,1.057 -5.735,5.376 c -1.278,0.889 -2.255,2.109 -2.791,2.869 c 0.4,-0.031 0.967,-0.177 1.682,-0.622 c 0.074,-0.047 7.669,-4.306 8.613,-3.014 Z" fill="#55acee"/>
	<g fill="#FFF">
		arm
		<g>
			<path d="M 8.747,29.272 c -1.697,0.935 -1.901,2.393 -2.121,2.728 h-1.626 c -0.551,0 -1,-0.449 -1,-1 v-1.839 c 2.059,-1.224 3.511,-5.436 3.781,-3.63 c 0,0 0.125,0.837 0.87,1.58 c 0.521,0.52 0.76,0.603 0.76,0.603 c 0.591,0.206 -0.149,1.274 -0.664,1.558 Z"/>
			<path d="M 11.841,29.515 c -0.662,0.792 -1.25,1.635 -1.826,2.485 h-1.736 a 38.098,38.098 0 00 2.146,-3.435 a 0.857,0.857 0 11 1.416,0.95 Z"/>
		</g>
		wrist
		<g>
			<path d="M 11.327,26.382 a 0.59,0.59 0 00 -0.405,-0.702 c -0.191,-0.057 -0.377,-0.139 -0.495,-0.256 a 1.436,1.436 0 11 2.155,-1.885 c 0.179,0.25 0.413,0.449 0.688,0.586 c 0.106,0.053 0.205,0.122 0.294,0.211 a 1.239,1.239 0 01 0,1.75 a 0.781,0.781 0 00 -0.235,0.548 a 0.984,0.984 0 01 -0.287,0.687 a 1.005,1.005 0 01 -1.421,0.002 c -0.327,-0.328 -0.359,-0.667 -0.294,-0.941 Z"/>
			<path d="M 10.664,22.786 a 0.565,0.565 0 01 -0.803,0.001 c -0.15,-0.149 -0.491,-0.173 -0.634,-0.162 c -0.306,0.018 -0.586,-0.206 -0.614,-0.517 s 0.199,-0.585 0.51,-0.615 c 0.096,-0.011 0.974,-0.075 1.54,0.489 a 0.568,0.568 0 01 0.001,0.804 Z"/>
			<path d="M 8.621,25.716 c -0.427,-0.748 -0.448,-1.639 -0.059,-2.445 a 0.568,0.568 0 11 1.024,0.494 c -0.106,0.22 -0.316,0.794 0.022,1.388 a 0.567,0.567 0 11 -0.987,0.563 Z"/>
			<path d="M 9.668,26.235 a 0.73,0.73 0 10 1.034,1.031 a 0.73,0.73 0 00 -1.034,-1.031 Z"/>
		</g>
		fingers:
		<g>
			<path d="M 11.088,8.893 c 0.039,-0.63 1.006,-0.42 0.778,0.17 c -0.205,0.587 -0.309,1.198 -0.366,1.815 c -0.115,-0.076 -0.244,-0.136 -0.387,-0.166 c -0.185,-0.038 -0.364,-0.016 -0.535,0.032 c 0.248,-0.595 0.445,-1.206 0.51,-1.851 Z"/>
			<path d="M 10.337,11.658 c 0.132,-0.907 1.481,-0.501 1.088,0.33 c -0.424,0.898 -0.467,1.899 -0.447,2.895 c -0.167,-0.199 -0.377,-0.367 -0.633,-0.475 a 1.684,1.684 0 00 -1.259,-0.021 c 0.578,-0.843 1.11,-1.72 1.251,-2.729 Z"/>
			<path d="M 10.221,20.013 c 0.069,1.84 -2.682,1.133 -1.74,-0.445 c 0.462,-0.671 0.547,-1.473 0.479,-2.255 c -0.03,-0.258 -0.077,-0.518 -0.192,-0.784 a 1.036,1.036 0 01 1.9,-0.824 c 0.28,0.607 -0.226,1.152 -0.283,1.74 c -0.197,0.82 -0.311,1.731 -0.164,2.568 Z"/>
		</g>
		<g>
			<path d="M 15.165,15.108 a 0.864,0.864 0 11 1.537,0.788 c -1.629,1.82 -3.229,3.663 -4.43,5.805 c -0.544,0.919 -1.86,-0.04 -1.146,-0.84 c 1.589,-1.741 2.909,-3.683 4.039,-5.753 Z"/>
			<path d="M 18.763,10.737 c 0.432,-0.719 1.48,0.054 0.913,0.679 c -0.917,1.022 -1.601,2.206 -2.216,3.432 a 1.768,1.768 0 00 -1.341,-0.999 a 7.76,7.76 0 00 0.884,-0.893 c 0.667,-0.68 1.29,-1.395 1.76,-2.219 Z"/>
			<path d="M 21.201,7.889 c 0.223,-0.25 0.633,0.066 0.452,0.345 l -1.397,2.292 c -0.044,-0.158 -0.116,-0.31 -0.246,-0.428 a 0.893,0.893 0 00 -0.674,-0.227 l 1.865,-1.982 Z"/>
			<path d="M 22.399,6.469 c 0.113,-0.11 0.302,0.037 0.226,0.173 l -0.571,1.107 c -0.036,-0.095 -0.088,-0.184 -0.168,-0.257 a 0.656,0.656 0 00 -0.421,-0.165 l 0.934,-0.858 Z"/>
		</g>
		<g>
			<path d="M 13.81,23.014 a 0.718,0.718 0 11 -0.964,-1.044 c 1.761,-1.281 3.295,-2.812 4.667,-4.503 a 0.864,0.864 0 01 1.213,-0.161 c 0.474,0.349 0.44,1.105 -0.056,1.414 c -0.921,0.595 -1.745,1.295 -2.57,1.995 c -0.801,0.726 -1.603,1.45 -2.29,2.299 Z"/>
			<path d="M 22.753,13.89 c 0.616,-0.554 1.391,0.472 0.684,0.911 c -1.339,0.838 -2.485,1.91 -3.579,3.045 a 1.773,1.773 0 00 -1.029,-1.374 a 29.8,29.8 0 00 1.361,-0.773 c 0.914,-0.522 1.798,-1.091 2.563,-1.809 Z"/>
			<path d="M 25.927,11.929 c 0.286,-0.174 0.586,0.247 0.332,0.461 l -2.005,1.785 c 0.004,-0.164 -0.021,-0.33 -0.111,-0.481 a 0.894,0.894 0 00 -0.578,-0.413 l 2.362,-1.352 Z"/>
			<path d="M 26.812,12.062 a 0.634,0.634 0 00 -0.09,-0.3 a 0.66,0.66 0 00 -0.364,-0.277 l 1.307,-0.686 c 0.14,-0.079 0.284,0.119 0.169,0.228 l -1.022,1.035 Z"/>
		</g>
		<g>
			<path d="M 15.124,24.304 a 0.704,0.704 0 01 -0.989,0.109 c -0.416,-0.316 -0.315,-1.007 0.166,-1.197 c 1.482,-0.698 2.777,-1.741 3.865,-2.958 c 0.609,-0.734 1.733,0.188 1.128,0.929 c -0.764,0.52 -1.635,0.883 -2.363,1.472 c -0.659,0.484 -1.279,1.011 -1.807,1.645 Z"/>
			<path d="M 23.765,17.983 c 0.734,-0.4 1.25,0.79 0.451,1.048 c -1.38,0.453 -2.629,1.165 -3.845,1.95 a 1.774,1.774 0 00 -0.666,-1.551 c 0.441,-0.111 0.88,-0.231 1.314,-0.364 c 0.955,-0.267 1.892,-0.589 2.746,-1.083 Z"/>
			<path d="M 25.088,18.117 c -0.094,-0.241 -0.282,-0.413 -0.502,-0.501 l 2.55,-0.949 c 0.311,-0.125 0.538,0.34 0.252,0.509 l -2.269,1.434 a 0.877,0.877 0 00 -0.031,-0.493 Z"/>
			<path d="M 29.065,15.868 c 0.152,-0.05 0.256,0.172 0.121,0.257 l -1.203,0.818 a 0.656,0.656 0 00 -0.03,-0.312 a 0.656,0.656 0 00 -0.303,-0.343 l 1.415,-0.42 Z"/>
		</g>
		<g>
			<path d="M 15.633,26.033 c -0.689,0.615 -1.632,-0.43 -0.946,-1.052 c 0.707,-0.349 1.523,-0.455 2.216,-0.863 c 0.605,-0.297 1.173,-0.648 1.669,-1.119 a 0.748,0.748 0 01 1.058,0.002 c 0.437,0.411 0.168,1.199 -0.42,1.268 c -1.325,0.26 -2.538,0.914 -3.577,1.764 Z"/>
			<path d="M 23.544,23.145 c -0.991,0.103 -1.947,0.369 -2.883,0.7 c 0.013,-0.112 0.017,-0.226 0.009,-0.342 c -0.02,-0.266 -0.1,-0.511 -0.221,-0.73 a 5.167,5.167 0 00 0.635,-0.058 c 0.778,-0.065 1.55,-0.166 2.294,-0.407 a 0.429,0.429 0 11 0.166,0.837 Z"/>
			<path d="M 25.895,22.292 l -1.393,0.739 a 0.88,0.88 0 00 0.039,-0.486 c -0.057,-0.246 -0.21,-0.443 -0.41,-0.564 c 0.466,-0.087 1.506,-0.21 1.588,-0.23 c 0.312,-0.053 0.455,0.405 0.176,0.541 Z"/>
			<path d="M 27.262,21.131 c 0.149,-0.042 0.247,0.17 0.122,0.256 l -0.858,0.641 a 0.647,0.647 0 00 -0.033,-0.297 a 0.656,0.656 0 00 -0.294,-0.336 l 1.063,-0.264 Z"/>
		</g>
	</g>
</svg>
