<svg xmlns="http://www.w3.org/2000/svg" viewBox="0 0 36 36">
	<rect x="0" y="11" width="36" height="25" rx="2"  fill="#E5A157"/>
	<rect x="0" y="6" width="36" height="24" rx="2"  fill="#FFD983"/>
	
	<path d="M 33,28.5 h-30 a 1.5,1.5 0 01 -1.5,-1.5 v-18 a 1.5,1.5 0 01 1.5,-1.5 h30 a 1.5,1.5 0 01 1.5,1.5 v18 a 1.5,1.5 0 01 -1.5,1.5 Z M 3,8.5 a 0.5,0.5 0 00 -0.5,0.5 v18 a 0.5,0.5 0 00 0.5,0.5 h30 a 0.5,0.5 0 00 0.5,-0.5 v-18 a 0.5,0.5 0 00 -0.5,-0.5 h-30 Z" fill="#E5A157" />
	
	<circle fill="#EDB980" cx="25" cy="18" r="6.5"/>
	
	<path d="M 14,6 h8 v24 l -4,4 l -4,-4 v-24 Z"  fill="#FFE8B6"/>
	<path d="M 14,30 h8 v6 h-8 v-6 Z"  fill="#FFAC33"/>
	
	<path d="M 7.238,18.415 h-2.374 c -0.398,0 -0.709,-0.19 -0.709,-0.57 c 0,-0.383 0.312,-0.573 0.709,-0.573 h1.664 l -2.772,-4.28 c -0.173,-0.259 -0.26,-0.449 -0.26,-0.691 c 0,-0.33 0.33,-0.573 0.607,-0.573 c 0.278,0 0.554,0.122 0.797,0.485 l 3.1,4.661 l 3.102,-4.662 c 0.243,-0.364 0.52,-0.485 0.797,-0.485 c 0.276,0 0.605,0.243 0.605,0.573 c 0,0.243 -0.086,0.432 -0.259,0.691 l -2.772,4.28 h1.664 c 0.399,0 0.711,0.191 0.711,0.573 c 0,0.381 -0.312,0.57 -0.711,0.57 h-2.373 v1.229 h2.373 c 0.399,0 0.711,0.192 0.711,0.573 s -0.312,0.571 -0.711,0.571 h-2.373 v2.668 c 0,0.502 -0.312,0.815 -0.763,0.815 s -0.762,-0.313 -0.762,-0.815 v-2.668 h-2.375 c -0.398,0 -0.709,-0.19 -0.709,-0.571 s 0.312,-0.573 0.709,-0.573 h2.375 v-1.228 h-0.001 Z"  fill="#E5A157"/>
</svg>
