<svg viewBox="0 0 36 36" xmlns="http://www.w3.org/2000/svg" xmlns:ts="data:,a">
	<path id="hair_back_female" d="M 10.947,10.947 c 0,8.896 0,10.948 -2.053,10.948 s -4.790,-2.053 -8.895,-2.053 s -6.785,2.053 -8.895,2.053 c -2.287,0 -2.053,-8.211 -2.053,-10.948 h 21.896 Z"/>
	<!-- original def: <path d="M18 3c6 0 16 3 16 16s0 16-3 16-7-3-13-3-9.915 3-13 3c-3.343 0-3-12-3-16C2 6 12 3 18 3z" fill="#FFE51E" ts:gender="female"/> remember later we want to switch to the non-prescaled versions of these (from the Person emoji) since they use nicer paths, then transform those down to size. scale factors:
neutral: 1.37 | 0.73
-->
	
	<path id="hair_front_female" d="M -10.947,11.54 v -0.866 c 0,-8.895 6.842,-12.152 10.947,-12.152 s 10.948,3.312 10.948,12.207 v 0.896 h -2.738 c 0,-2.737 -2.737,-4.112 -5.474,-4.112 s -6.158,-2.067 -6.158,-2.067 s -1.368,1.341 -2.053,2.026 c -1.368,1.368 -2.736,1.612 -2.736,4.051 l -2.736,0.017 Z" />
	
	<path id="hair_male" d="M 0,0 c 5.648,0 9.178,4.168 9.178,7.641 c 0,3.473 -0.706,4.863 -1.412,3.473 l -1.412,-2.778 c 0,0 -4.235,0 -5.647,-1.39 c 0,0 2.118,4.168 -2.118,0 c 0,0 0.706,2.779 -3.53,-0.694 c 0,0 -2.118,1.389 -2.824,4.862 c -0.196,0.964 -1.412,0 -1.412,-3.473 c -0.001,-3.473 2.823,-7.641 9.177,-7.641 Z" />
	
	<!--<path id="hair_neutral" d="M 0,0 c 6.632,2.146 10.318,6.905 10.086,13.189 c -0.385,10.389 -4.739,16.505 -13.88,16.505 c -4.681,0 -7.469,0.148 -10.092,-3.317 c -1.823,-0.543 -4.103,-1.84 -4.655,-5.896 c -0.487,-3.58 -1.855,-5.791 -1.241,-10.551 c 0.621,-4.81 5.353,-8.456 9.387,-8.534 c 1.551,-2.017 7.757,-2.249 10.395,-1.396 Z" fill="#FFAC33" ts:skin="hair" ts:gender="neutral" transform="scale(0.73)"/>-->
	<path id="hair_neutral" d="M 0,0 c 4.84,1.566 7.531,5.04 7.361,9.625 c -0.281,7.583 -3.459,12.047 -10.131,12.047 c -3.417,0 -5.452,0.108 -7.366,-2.421 c -1.33,-0.396 -2.994,-1.343 -3.397,-4.303 c -0.355,-2.613 -1.354,-4.226 -0.906,-7.701 c 0.453,-3.51 3.907,-6.171 6.851,-6.228 c 1.133,-1.472 5.663,-1.642 7.588,-1.019 Z"/>
	
	
	<!--<path id="hair_male1" d="M18 0c8.615 0 14 6.358 14 11.656 0 5.298-1.077 7.417-2.154 5.298l-2.153-4.238s-6.462 0-8.615-2.12c0 0 3.23 6.358-3.231 0 0 0 1.077 4.239-5.385-1.06 0 0-3.23 2.12-4.308 7.417C5.855 18.423 4 16.954 4 11.656 4 6.357 8.308 0 18 0z" ts:skin="hair" ts:gender="male"/>-->
	
	
	<!-- for the newer emojis -->
	<path id="hair_male1" d="m 0,0 c 8,0 13,6 13,11 0,5 -1,7 -2,5 l -2,-4 c 0,0 -6,0 -8,-2 0,0 3,6 -3,0 0,0 1,4 -5,-1 0,0 -3,2 -4,7 -0.277,1.387 -2,0 -2,-5 0,-5 4,-11 13,-11" transform="scale(0.706 0.695)"/>
	<!-- for the simple emojis -->
	<path id="hair_male2" d="M 0,0 c 8,0 13,6 13,11 s -1,7 -2,5 s -2,-3.5 -2,-3.5 s -6,0 -8,-2 c 0,0 3,6 -3,0 c 0,0 1,4 -5,-1 c 0,0 -3,1.5 -4,6.5 c -0.277,1.387 -2,0 -2,-5 s 4,-11 13,-11 Z" transform="scale(0.78)"/>
	
	
	<path id="hair_neutral1" d="M 1,-2 c -3.585,0 -5.719,0.114 -7.727,-2.54 c -1.396,-0.416 -3.142,-1.409 -3.564,-4.515 c -0.373,-2.741 -1.421,-4.434 -0.951,-8.079 c 0.475,-3.684 4.099,-6.476 7.188,-6.535 c 1.188,-1.544 5.94,-1.723 7.96,-1.069 c 5.078,1.643 7.901,5.287 7.723,10.099 c -0.295,7.955 -3.629,12.639 -10.629,12.639 Z" ts:skin="hair"/>
	<path id="face_neutral1" d="M 0,0 c -4.971,0 -9,-4.111 -9,-9 c 0,-1.675 -0.111,-2.655 0.246,-3.754 c 0.496,-1.53 1.39,-2.565 2.139,-3.03 c 2.584,-1.604 2.792,-3.178 2.792,-3.178 s 0.519,1.18 2.223,2.246 c 2.44,1.526 4.902,0.542 7.162,3.041 c 0.564,0.624 0.475,0.119 0.386,-0.505 s -0.772,-1.752 -1.485,-2.079 c 1.901,0.267 2.769,1.022 3.446,1.96 c 0.772,1.07 1.091,2.258 1.091,5.299 c 0,4.853 -4.029,9 -9,9 Z" ts:skin="skin"/>
	
	<!-- female face overlay -->
	<!--<path id="face_female_old" d="M14 11s-.003 5.308-5 5.936V21 a 9,9 0 00 18,0 v-3.019C15.89 17.605 14 11 14 11z" ts:skin="skin" ts:gender="female"/>  !! -->
	<path id="face_female_old" d="M -4,-21 s 1.889,6.605 13,6.981 v 5.019 c 0,4.971 -4.029,9 -9,9 s -9,-4.029 -9,-9 v -6.064 c 4.997,-0.628 5,-5.936 5,-5.936 Z"/>
	
	<g id="hair_back_female_old">
		<!--<path id="hair_back_female_old" d="M 1,-26 c 6.075,0 11,4.925 11,11 v 9 h -0.018 c -0.183,6.467 -5.471,11.656 -11.982,11.656 s -11.799,-5.189 -11.982,-11.656 h -0.018 v -12 c 0,-3.866 3.134,-7 7,-7 c 0.412,0 0.814,0.043 1.207,0.111 c 1.45,-0.705 3.072,-1.111 4.793,-1.111 Z"/>-->
		<circle cx="0" cy="-6.344" r="12"/>
		<path d="M 12,-6 h-24 v-12 l 24,3 v9 z"/>
		<circle cx="1" cy="-15"     r="11"/>
		<circle cx="-5" cy="-18"      r="7"/>
	</g>
	
	<!-- 
		  source:
		  <ellipse cx="18.001" cy="19.656" rx="12" ry="12" transform="rotate(-80.781 18 19.656)"/>
		  <circle cx="13.001" cy="8" r="7"/>
		  <circle cx="19.001" cy="11" r="11"/>
		  <path d="M30.001 20h-24V8l24 3z"/>

<circle cx="18" cy="19.656" rx="12"/>
<circle cx="13" cy="8"      r="7"/>
<circle cx="19" cy="11"     r="11"/>
<path d="M 30,20 h-24 v-12 l 24,3 v9 z"/>

	-->
	
	<!-- female hair front old
	<path d="M 28,6 l -14,-3 -6,3 v 5 c 6,0 6,-6 6,-6 s 2,7 14,7 z" ts:skin="hair" ts:gender="female"/>
	<path d="M26.999 5V4H8v7c6 0 6-6 6-6s2 7 14 7V5h-1.001z" ts:skin="hair" ts:gender="female"/>
	-->
	
	<!-- 
origin of the male hair shape:
	<path d="
M 0,0
c 8,0 13,6 13,11
s -1,7 -2,5
s -2,-4 -2,-4
s -6,0 -8,-2 c 0,0 3,6 -3,0 c 0,0 1,4 -5,-1 c 0,0 -3,2 -4,7 c -0.277,1.387 -2,0 -2,-5 s 4,-11 13,-11 Z" />

-->
	
	<!--
source paths for hair_neutral and face_neutral:
the new versions are scaled up by 1/1.049x ish ?

to get the Person emoji (large heads) you scale up by 1.306 (exactly)
and the small ones are 0.953

notice also that the eye's rx value is 0.953 (i.e. was scaled down from rx=1)
<rect x="-4.766" y="-1.4295" width="1.906" height="2.859" rx="0.953"/>
so this applies to all features i guess?

hair normal:
<path d="M 0,0 c -3.417,0 -5.452,0.108 -7.366,-2.421 c -1.33,-0.396 -2.994,-1.343 -3.397,-4.303 c -0.355,-2.613 -1.354,-4.226 -0.906,-7.701 c 0.453,-3.51 3.907,-6.171 6.851,-6.228 c 1.133,-1.472 5.663,-1.642 7.588,-1.019 c 4.84,1.566 7.531,5.04 7.361,9.625 c -0.281,7.583 -3.459,12.047 -10.131,12.047 Z" />
hair big
<path d="M 19.317,31.775 c -4.681,0 -7.469,0.148 -10.092,-3.317 c -1.823,-0.543 -4.103,-1.84 -4.655,-5.896 c -0.487,-3.58 -1.855,-5.791 -1.241,-10.551 c 0.621,-4.81 5.353,-8.456 9.387,-8.534 c 1.551,-2.017 7.757,-2.249 10.395,-1.396 c 6.632,2.146 10.318,6.905 10.086,13.189 c -0.385,10.389 -4.739,16.505 -13.88,16.505 Z" />

hair original
<path d="M 1,-2 c -3.585,0 -5.719,0.114 -7.727,-2.54 c -1.396,-0.416 -3.142,-1.409 -3.564,-4.515 c -0.373,-2.741 -1.421,-4.434 -0.951,-8.079 c 0.475,-3.684 4.099,-6.476 7.188,-6.535 c 1.188,-1.544 5.94,-1.723 7.96,-1.069 c 5.078,1.643 7.901,5.287 7.723,10.099 c -0.295,7.955 -3.629,12.639 -10.629,12.639 Z" />

face original
<path d="M 0,0 c -4.971,0 -9,-4.111 -9,-9 c 0,-1.675 -0.111,-2.655 0.246,-3.754 c 0.496,-1.53 1.39,-2.565 2.139,-3.03 c 2.584,-1.604 2.792,-3.178 2.792,-3.178 s 0.519,1.18 2.223,2.246 c 2.44,1.526 4.902,0.542 7.162,3.041 c 0.564,0.624 0.475,0.119 0.386,-0.505 s -0.772,-1.752 -1.485,-2.079 c 1.901,0.267 2.769,1.022 3.446,1.96 c 0.772,1.07 1.091,2.258 1.091,5.299 c 0,4.853 -4.029,9 -9,9 Z" />

for the male face, the source is the `MAN` emoji, scaled down .6555×
the facial features are redrawn though. so this just applies to hair/face/ears shapes

-->	
	
	<path id="hair_neutral_narrow" d="M 0,0 c 4.84,1.566 7.531,5.04 7.362,9.625 c -0.281,7.582 -2.88,12.04 -9.552,12.04 c -3.417,0 -5.452,0.108 -7.366,-2.421 c -1.33,-0.396 -2.994,-1.343 -3.397,-4.303 c -0.356,-2.612 -1.039,-4.011 -0.591,-7.486 c 0.453,-3.511 3.592,-6.386 6.536,-6.443 c 1.132,-1.472 5.083,-1.635 7.008,-1.012 Z"/>
	
	<path id="face_neutral" d="M 0,0 c 0.736,1.019 1.039,2.152 1.041,5.050 a 8.578,8.578 0 01 -17.156,0 c 0,-1.596 -0.106,-2.530 0.234,-3.578 c 0.472,-1.458 1.324,-2.445 2.038,-2.888 c 2.463,-1.529 2.661,-3.029 2.661,-3.029 s 0.495,1.125 2.119,2.141 c 2.325,1.455 4.672,0.517 6.827,2.899 c 0.538,0.595 0.453,0.114 0.368,-0.481 s -0.736,-1.671 -1.416,-1.982 c 1.812,0.254 2.638,0.974 3.284,1.868 Z"/>
	
	<!-- this is the original def, the new one is scaled up by 1.049x -->
	<!-- <path d="M25.909 11.701c-.677-.938-1.545-1.693-3.446-1.96.713.327 1.396 1.455 1.485 2.079.089.624.178 1.129-.386.505-2.26-2.499-4.722-1.515-7.162-3.041-1.704-1.066-2.223-2.246-2.223-2.246s-.208 1.574-2.792 3.178c-.749.465-1.643 1.5-2.139 3.03C8.889 14.345 9 15.325 9 17c0 4.889 4.029 9 9 9s9-4.147 9-9c0-3.041-.319-4.229-1.091-5.299z" ts:skin="skin" ts:gender="neutral"/> -->
	
	<!-- moustache -->
	<path id="moustache1" d="M 0,0 c 0.348,0.1 0.549,0.392 0.450,0.739 c -0.083,0.289 -0.345,0.441 -0.63,0.441 c -0.06,0 -0.122,-0.026 -0.181,-0.042 l -1.266,-0.371 c 0.142,0.192 0.18,0.446 0.066,0.676 c -0.115,0.228 -0.346,0.36 -0.587,0.36 c -0.098,0 -0.198,-0.024 -0.293,-0.071 l -1.033,-0.518 c -0.024,0.215 -0.14,0.414 -0.347,0.518 c -0.094,0.046 -0.194,0.069 -0.292,0.069 c -0.241,0 -0.351,-0.134 -0.465,-0.363 l 0.053,-0.138 l -0.068,0.138 c -0.114,0.229 -0.346,0.363 -0.587,0.363 c -0.098,0 -0.199,-0.023 -0.293,-0.069 c -0.207,-0.104 -0.324,-0.303 -0.346,-0.518 l -1.034,0.518 c -0.094,0.047 -0.194,0.071 -0.293,0.071 c -0.24,0 -0.472,-0.132 -0.587,-0.36 c -0.115,-0.23 -0.077,-0.485 0.066,-0.676 l -1.267,0.371 c -0.06,0.016 -0.121,0.042 -0.18,0.042 c -0.285,0 -0.548,-0.153 -0.63,-0.441 c -0.1,-0.347 0.102,-0.639 0.45,-0.74 l 1.266,-0.274 c 0.405,-0.093 1.174,-0.071 1.536,-0.071 h 3.689 c 0.362,0 1.131,-0.022 1.535,0.072 l 1.268,0.274 Z"/>
	
	<!--<path d="c -2.347,0 -3.575,-1.16 -3.707,-1.293 c -0.391,-0.391 -0.391,-1.023 0,-1.414 c 0.387,-0.387 1.013,-0.39 1.404,-0.01 c 0.051,0.047 0.806,0.717 2.303,0.717 c 1.519,0 2.273,-0.69 2.305,-0.719 c 0.398,-0.373 1.027,-0.362 1.408,0.029 c 0.379,0.393 0.38,1.011 -0.006,1.397 c -0.132,0.133 -1.36,1.293 -3.707,1.293 Z"/>
	<path d="c -1.606,0 -2.447,-0.794 -2.537,-0.885 c -0.268,-0.267 -0.268,-0.7 0,-0.967 c 0.266,-0.265 0.692,-0.267 0.961,-0.007 c 0.035,0.032 0.551,0.491 1.576,0.491 c 1.038,0 1.555,-0.473 1.576,-0.492 c 0.273,-0.256 0.703,-0.248 0.963,0.02 c 0.26,0.269 0.26,0.691 -0.004,0.955 c -0.089,0.091 -0.929,0.885 -2.535,0.885 Z"/>-->
	
	<!--<path d="c -1.606,0 -2.447,-0.794 -2.537,-0.885 c -0.268,-0.267 -0.268,-0.7 0,-0.967 c 0.266,-0.265 0.692,-0.267 0.961,-0.007 c 0.035,0.032 0.551,0.491 1.576,0.491 c 1.038,0 1.555,-0.473 1.576,-0.492 c 0.273,-0.256 0.703,-0.248 0.963,0.02 c 0.26,0.269 0.26,0.691 -0.004,0.955 c -0.089,0.091 -0.929,0.885 -2.535,0.885 Z"/>-->

	
	<g id="face_male">
		<ellipse cx="-8.194" cy="-1.024" rx="1.639" ry=" 2.623"/>
		<ellipse cx=" 8.194" cy="-1.024" rx="1.639" ry=" 2.623"/>
		<ellipse cx=" 0    " cy=" 0    " rx="8.523" ry="10.121"/>
	</g>
	
	
	<!--<path id="mouth_female" d="M 0,0 c -2.5,0 -3.707,-1.293 -3.707,-1.293 a 1,1 0 01 1.414,-1.414 v0 S -1.5,-2 0,-2 s 2.293,-.707 2.293,-.707 a 1,1 0 01 1.414,1.414 v0 S 2.5,0 0,0 z"/>-->
	
	
	
	<!-- 
<use href="defs.svg#face_male" x="22" y="16.959" fill="#FFDC5D" ts:skin="skin" ts:gender="male"/>
<use href="defs.svg#face_female" x="13.734" y="15.717" fill="#FFDC5D" ts:skin="skin" ts:gender="female"/>

<use href="defs.svg#ears_female" x="22" y="15.9355" fill="#FFDC5D" ts:skin="skin" ts:gender="female"/>
0.684

30.194 + 13.805 / 2 ~= 22
31.449 + 15.06 / 2 = 23.2545
26.253 + 9.864 / 2 = 18.0585
9.747 + 26.135 / 2 = 17.941
-->
	
	<path id="face_female" d="M 0,0 c 0,-5.834 3.676,-10.563 8.21,-10.563 s 8.21,4.729 8.21,10.563 s -3.676,10.285 -8.21,10.285 s -8.21,-4.452 -8.21,-10.285 Z"/>
	
	<g id="ears_female">
		<ellipse cx="-8.194" cy="0" rx="1.639" ry=" 2.623"/>
		<ellipse cx=" 8.194" cy="0" rx="1.639" ry=" 2.623"/>
	</g>
	
	<path id="mouth_female" d="M0,0 c -1.606,0 -2.447,-0.794 -2.537,-0.885 c -0.268,-0.267 -0.268,-0.7 0,-0.967 c 0.266,-0.265 0.692,-0.267 0.961,-0.007 c 0.035,0.032 0.551,0.491 1.576,0.491 c 1.038,0 1.555,-0.473 1.576,-0.492 c 0.273,-0.256 0.703,-0.248 0.963,0.02 c 0.26,0.269 0.26,0.691 -0.004,0.955 c -0.089,0.091 -0.929,0.885 -2.535,0.885 Z"/>
	
	<path id="mouth_neutral" d="M0,0 c -2.754,0 -3.6,-0.705 -3.741,-0.848 c -0.256,-0.256 -0.256,-0.671 0,-0.927 c 0.248,-0.248 0.646,-0.255 0.902,-0.023 c 0.052,0.037 0.721,0.487 2.839,0.487 c 2.2,0 2.836,-0.485 2.842,-0.49 c 0.256,-0.255 0.657,-0.243 0.913,0.015 c 0.256,0.256 0.242,0.683 -0.014,0.938 c -0.141,0.143 -0.987,0.848 -3.741,0.848 Z"/>
	
	<rect id="nose_neutral" x="-1.43" y="-0.477" width="2.86" height="0.954" rx="0.477" />
	<rect id="nose_neutral1" x="-1.5" y="-0.5" width="3" height="1" rx="0.5"/>
	<!-- sometimes the neutral nose is this instead:
	<rect width="3" height="1" rx="0.5"/>
	it's better aligned so maybe we should just replace the other one with this?
	-->
	<rect id="nose_male"  x="-1.5" y="-0.75"  width="3"     height="1.5"   rx="0.75"  />
	<rect id="nose_female" x="-1.2685" y="-0.5" width="2.537" height="1"     rx="0.4235"/>
	<!--
<use href="defs.svg#nose_neutral" x="\([^"]*\)" y="\([^"]*\)" → <use href="defs.svg#nose_neutral2" x="\,(+ (string-to-number \1) 1.43)" y="\,(+ (string-to-number \2) 0.477)"

<rect x="\([^"]*\)" y="\([^"]*\)" width="[^"]*" height="[^"]*" rx="[^"]*"\(.* ts:gender="\([a-z]+\)"\) → <use href="defs.svg#nose_\4" x="\1" y="\2"\3

-->
	
	<path id="neck_old" d="M-3,-6.5 h6 v3.5 a 3,3 0 01 -6,0 z" ts:skin="skin"/>
	
		<!--
vampire mouth
X
	<path d="M17.996 24.504c-2.754 0-3.6-1.904-3.741-2.045-.256-.256-.256-.671 0-.927.248-.248.645-.255.902-.024.052.038.721.487 2.839.487 2.2 0 2.836-.485 2.842-.49.255-.255.656-.243.913.013.256.256.242.684-.014.94-.141.142-.986 2.046-3.741 2.046z" fill="#C1694F" data-skin="#C1694F|#C1694F|#C1694F|#915A34|#3D2E24"></path>
	<path d="M15.563 22.004c-.331 0-.637.149-.84.41-.203.261-.274.594-.194.915.008.034.02.067.036.098l1.012 2.072c.084.172.258.281.449.281h.009c.194-.003.369-.119.448-.296l.88-1.973c.012-.027.021-.054.028-.082.064-.257.018-.521-.13-.741-.173-.258-.479-.441-.817-.489l-.767-.18c-.038-.011-.076-.015-.114-.015z" fill="#C1694F" data-skin="#C1694F|#C1694F|#C1694F|#915A34|#3D2E24"></path>
	<path d="M20.391 22.004c-.038 0-.076.004-.113.013l-.809.188c-.297.041-.602.224-.775.482-.148.221-.195.484-.13.741.007.028.017.056.028.082l.88 1.973c.079.177.254.293.448.296h.009c.191 0 .365-.109.449-.281l1.012-2.072c.015-.031.027-.064.036-.098.08-.321.009-.654-.194-.915-.204-.259-.51-.409-.841-.409z" fill="#C1694F" data-skin="#C1694F|#C1694F|#C1694F|#915A34|#3D2E24"></path>
	<path d="M16.371 22.692l-.809-.188c-.368 0-.639.346-.549.703l1.012 2.072.88-1.973c.08-.32-.212-.568-.534-.614z" fill="#F5F8FA"></path>
	<path d="M19.582 22.692l.809-.188c.368 0 .639.346.549.703l-1.012 2.072-.88-1.973c-.079-.32.212-.568.534-.614z" fill="#F5F8FA"></path>
	
	F
	<path d="M18.059 24.504c-2.754 0-3.6-1.904-3.741-2.045-.256-.256-.256-.671 0-.927.248-.248.645-.255.902-.024.052.038.721.487 2.839.487 2.2 0 2.836-.485 2.842-.49.255-.255.656-.243.913.013.256.256.242.684-.014.94-.141.142-.986 2.046-3.741 2.046z" fill="#C1694F" data-skin="#C1694F|#C1694F|#C1694F|#915A34|#3D2E24"></path>
	<path d="M15.626 22.004c-.331 0-.637.149-.84.41-.203.261-.274.594-.194.915.008.034.02.067.036.098l1.012 2.072c.084.172.258.281.449.281h.009c.194-.003.369-.119.448-.296l.88-1.973c.012-.027.021-.054.028-.082.064-.257.018-.521-.13-.741-.173-.258-.479-.441-.817-.489l-.767-.18c-.038-.011-.076-.015-.114-.015z" fill="#C1694F" data-skin="#C1694F|#C1694F|#C1694F|#915A34|#3D2E24"></path>
	<path d="M20.454 22.004c-.038 0-.076.004-.113.013l-.809.188c-.297.041-.602.224-.775.482-.148.221-.195.484-.13.741.007.028.017.056.028.082l.88 1.973c.079.177.254.293.448.296h.009c.191 0 .365-.109.449-.281l1.012-2.072c.015-.031.027-.064.036-.098.08-.321.009-.654-.194-.915-.204-.259-.51-.409-.841-.409z" fill="#C1694F" data-skin="#C1694F|#C1694F|#C1694F|#915A34|#3D2E24"></path>
	<path d="M16.434 22.692l-.809-.188c-.368 0-.639.346-.549.703l1.012 2.072.88-1.973c.08-.32-.212-.568-.534-.614z" fill="#F5F8FA"></path>
	<path d="M19.645 22.692l.809-.188c.368 0 .639.346.549.703l-1.012 2.072-.88-1.973c-.079-.32.213-.568.534-.614z" fill="#F5F8FA"></path>
-->
	
	<!--
<path d="M *\([-0-9.]+\)[, ]\([-0-9.]+\) *[^0-9][^">]*"
 → <use href="defs.svg#mouth_neutral" x="\1" y="\2"
-->
	
	<!--<path d="M17.944 23.543c-1.605 0-2.446-.794-2.536-.885-.268-.267-.268-.7 0-.967.266-.265.692-.267.96-.007.035.032.553.491 1.576.491 1.039 0 1.557-.473 1.577-.492.273-.256.703-.248.963.02.26.269.26.691-.004.955-.089.091-.929.885-2.536.885" fill="#DF1F32"/>-->
	<!--

<use href="defs.svg#mouth_neutral" x="22.134" y="24.686" fill="#C1694F" ts:skin="nose" ts:gender="neutral"/>
		 
	<use href="defs.svg#mouth_female" x="21.944" y="23.543" fill="#DF1F32" ts:gender="female"/>
<use href="defs.svg#mouth_female" x="21.945" y="23.543" fill="#DF1F32" ts:gender="female"/>
<use href="defs.svg#mouth_female" x="17.945" y="22.452" fill="#DF1F32" ts:gender="female"/>
<use href="defs.svg#mouth_female" x="23.2" y="22.452" fill="#DF1F32" ts:gender="female"/>
	 
		 <use href="defs.svg#hair_neutral" x="25.597" y="3.516" fill="#FFAC33" ts:skin="hair" ts:gender="neutral"/>
<use href="defs.svg#hair_neutral" x="25.731" y="3.323" fill="#FFAC33" ts:skin="hair" ts:gender="neutral"/>
<use href="defs.svg#hair_neutral_narrow" x="21.152" y="3.3" fill="#FFAC33" ts:skin="hair" ts:gender="neutral"/>

<use href="defs.svg#hair_neutral" transform="translate(21.906 1.262) scale(1.049)" fill="#FFAC33" ts:skin="hair" ts:gender="neutral"/>
-->
	<!--
		 <use href="defs.svg#hair_back_female" x="21.945" y="5.069" fill="#FFAC33" ts:skin="hair" ts:gender="female"/>
		 <use href="defs.svg#hair_front_female" x="21.945" y="5.069" fill="#FFAC33" ts:skin="hair" ts:gender="female"/>
		 
		 <use href="defs.svg#hair_male" x="22" y="3.48" fill="#FFAC33" ts:skin="hair" ts:gender="male"/>
		 <path d="M21 0c5.648 0 9.178 4.648 9.178 8.121 0 3.473-.706 4.863-1.412 3.473l-1.412-2.778s-4.235 0-5.647-1.39c0 0 2.118 4.168-2.118 0 0 0 .706 2.779-3.53-.694 0 0-2.118 1.389-2.824 4.862-.196.964-1.412 0-1.412-3.473C11.822 4.648 14.646 0 21 0" fill="#FFAC33" ts:skin="hair" ts:gender="male"/> Technologist (alt taller male hair)
	-->
	<!-- 
		  <use href="defs.svg#face_neutral" x="29.413" y="11.021" fill="#FFDC5D" ts:skin="skin" ts:gender="neutral"/>
		  <use href="defs.svg#face_neutral" x="25.413" y="13.466" fill="#FFDC5D" ts:skin="skin" ts:gender="neutral"/>
		  <use href="defs.svg#face_neutral" x="29.547" y="13.273" fill="#FFDC5D" ts:skin="skin" ts:gender="neutral"/>
		  <use href="defs.svg#face_neutral" x="25.547" y="13.243" fill="#FFDC5D" ts:skin="skin" ts:gender="neutral"/>
		  
		  <use href="defs.svg#face_neutral" transform="translate(25.89 15.686) scale(1.049)" fill="#FFDC5D" ts:skin="skin" ts:gender="neutral"/>
		  
		  <rect x="\([^"]*\)"\([^>]*\)/><rect x="\([^"]*\)"\2/> → <rects cx="\,(/ (+ (string-to-number \1) (string-to-number \3)) 2)" dx="\,(- (string-to-number \3) (string-to-number \1))"\2/>
		  
	-->	
	
	<g id="eyes_neutral">
		<rect x="-4.766" y="-1.4295" width="1.906" height="2.859" rx="0.953"/>
		<rect x=" 2.860" y="-1.4295" width="1.906" height="2.859" rx="0.953"/>
	</g>
	<g id="eyes_male">
		<rect x="-5" y="-1.5" width="2" height="3" rx="1"/>
		<rect x=" 3" y="-1.5" width="2" height="3" rx="1"/>
	</g>
	<g id="eyes_female">
		scale factor near: 1.1815 | 0.8465
		<rect x="-4.22875" y="-1.269" width="1.6925" height="2.538" rx="0.8465"/>
		<rect x=" 2.53625" y="-1.269" width="1.6925" height="2.538" rx="0.8465"/>
	</g>

	<!-- 
<rect x="\([^"]*\)"\( y="\([^"]*\)"[^>]*\)/><rect x="\([^"]*\)"\2/> → <use href="defs.svg#eyes_male" x="\,(+ (/ (+ (string-to-number \1) (string-to-number \4)) 2) 1)" dx="\,(- (string-to-number \4) (string-to-number \1))"\2/>
	-->
	
	<g id="eyes_big">
		<rect x="-6" y="-2" width="2" height="4" rx="1"/>
		<rect x=" 4" y="-2" width="2" height="4" rx="1"/>
	</g>
	
	<rect id="nose_big" x="-2" y="-1" width="4" height="2" rx="1"/>
	
	<path id="mouth_female_big" d="M0,1 c -2.347,0 -3.575,-1.16 -3.707,-1.293 c -0.391,-0.391 -0.391,-1.023 0,-1.414 c 0.387,-0.387 1.013,-0.39 1.404,-0.01 c 0.051,0.047 0.806,0.717 2.303,0.717 c 1.519,0 2.273,-0.69 2.305,-0.719 c 0.398,-0.373 1.027,-0.362 1.408,0.029 c 0.379,0.393 0.38,1.011 -0.006,1.397 c -0.132,0.133 -1.36,1.293 -3.707,1.293 Z"/>
	<path id="mouth_male_big"   d="M0,1 c -4.201,0 -5.491,-1.077 -5.707,-1.293 c -0.391,-0.391 -0.391,-1.023 0,-1.414 c 0.378,-0.379 0.984,-0.39 1.376,-0.036 c 0.08,0.058 1.1,0.743 4.331,0.743 c 3.355,0 4.326,-0.739 4.336,-0.747 c 0.39,-0.389 1.001,-0.37 1.393,0.021 c 0.391,0.391 0.369,1.043 -0.021,1.434 c -0.217,0.215 -1.507,1.292 -5.708,1.292 Z" />
	<!-- 
<use href="defs.svg#mouth_female_big" x="18" y="30" ts:skin="mouth" ts:gender="neutral"/>
	<use href="defs.svg#mouth_male_big" x="18" y="30" ts:skin="mouth" ts:gender="male"/>
	<use href="defs.svg#mouth_female_big" x="18" y="29" ts:skin="mouth" ts:gender="female"/>
	-->
	
	<path id="shoulders_male"         d="M -14,36 v-2   c 0,-3.314 2.686,-6   6,-6   h16 c 3.314,0 6,2.686 6,6   v2   Z"/>
	<path id="shoulders_male_tall"    d="M -14,36 v-4   c 0,-3.314 2.686,-6   6,-6   h16 c 3.314,0 6,2.686 6,6   v4   Z"/>
	
	<path id="shoulders_female"       d="M -13,36 v-3.5 c 0,-3.314 3.686,-5.5 7,-5.5 h12 c 3.314,0 7,2.186 7,5.5 v3.5 Z"/>
	<path id="shoulders_female_tall"  d="M -13,36 v-4.5 c 0,-3.314 3.686,-5.5 7,-5.5 h12 c 3.314,0 7,2.186 7,5.5 v4.5 Z"/>
	<!-- messy -->
	<path id="shoulders_neutral_tall" d="M -13.957,36 l -0.043,-1 c 0,-4 3.043,-7 8.043,-7 h 12 c 5,0 7.957,3 7.957,7 l 0.043,1 Z" />
	<!--<path id="shoulders_neutral_tall" d="M -14,36 v-1 c 0,-4 3,-7 8,-7 h 12 c 5,0 8,3 8,7 v1 Z" fill="#F2760F" ts:gender="neutral"/>-->
	<path id="shoulders_simple" d="M -13,36 v -5 c 0,-2.209 1.791,-4 4,-4 h 18 c 2.209,0 4,1.791 4,4 v 5 Z" />
	
	<path d="M35.002 36v-2c0-3.314-2.686-6-6-6h-14c-3.313 0-6 2.686-6 6v2h26z" fill="#FA743E" ts:gender="neutral"/> <!-- nonstandard ? -->
	<path d="M33 36v-1c0-3.313-2.687-6-6-6H9c-3.313 0-6 2.687-6 6v1h30z " fill="#66757F"/>
	<path d="M32 36v-1.64c0-3.313-2.687-6.36-6-6.36H10c-3.313 0-6 3.046-6 6.36V36h28z" fill="#FA743E" ts:gender="neutral"/>
	<path d="M32 36v-1c0-3.313-3.687-7-7-7H11c-3.313 0-7 3.687-7 7v1h28z" fill="#5C913B" ts:gender="female"/>
	<path d="M31 36v-4.5c0-3.314-3.56-5.5-6.875-5.5h-12C8.812 26 5 28.186 5 31.5V36h26z" fill="#3B88C3" ts:gender="female"/>
	<path d="M26.276 28.276h-16c-2.486 0-4.774 1.443-5.762 3.449-.368-.415-.907-.619-1.514-.619-1.1 0-2 .935-2 1.998V36h31v-1.931c0-3.199-2.411-5.793-5.724-5.793z" fill="#FA743E" ts:gender="neutral,female" ts:gender-color=",#9266CC"/>
	<path d="M32 36v-3c0-4-3.685-7-7-7H11c-3.313 0-7 3-7 7v3h28z" fill="#292F33" ts:gender="neutral"/>
	<path d="M31 36v-4.5c0-3.314-3.56-5.5-6.875-5.5h-12C8.812 26 5 28.186 5 31.5V36h26z" fill="#292F33" ts:gender="female"/>
	<!-- narrow (from guard emoji) -->
	<path d="M29.192 36v-1c0-3.314-2.686-6-6-6H11.808c-2.761 0-5 2.239-5 5v2h22.384z" fill="#DD2E44" ts:gender="neutral"/>
	<path d="M30 36v-1c0-3.313-1.687-6-5-6H11c-3.313 0-5 2.687-5 6v1h24z" fill="#DD2E44" ts:gender="male"/>
	<path d="M28 36v-2.5c0-3.313-1.687-5.5-5-5.5H13c-3.313 0-5 2.187-5 5.5V36h20z" fill="#DD2E44" ts:gender="female"/>
	
	<!-- alternate male hair design from fairy emoji ? -->
	<path d="M18.853 2c-2.024 0-3.893.647-5.426 1.737-3.15.164-5.662 2.749-5.662 5.94 0 2.63.012 5.943 3.477 7.177 1.703 2.365 4.474 3.911 7.611 3.911 5.181 0 9.382-4.2 9.382-9.381C28.235 6.201 24.034 2 18.853 2z" ts:skin="hair" ts:gender="male"/>
	
	<!-- 
<use href="defs.svg#shoulders_male" x="18"
<use href="defs.svg#shoulders_simple" x="18" 
<use href="defs.svg#shoulders_female" x="18"
	-->
	
	<!--
PersonShrugging hands (also used by PersonJuggling)
<path d="M4.702 26.495l-.283-.059h-.511c0-.058.023-.112.035-.169-.348-.215-.546-.625-.458-1.048.112-.542.643-.89 1.186-.779l2.091.433h1.676c.863 0 1.562.7 1.562 1.564V28H6.253s-1.481-.669-1.551-1.505z" ts:skin="line"/>
	<path d="M31.298 26.495l.283-.059h.511c0-.058-.023-.112-.035-.169.348-.215.546-.625.458-1.048-.112-.542-.642-.89-1.185-.779l-2.091.433h-1.676c-.863 0-1.562.7-1.562 1.564V28h3.747c-.001 0 1.48-.669 1.55-1.505z" ts:skin="line"/>
	<path d="M0 25.655c0-.432.35-.782.781-.782l4.69.782h3.747c.432 0 .781.351.781.781V28H5L.781 26.437S0 26.087 0 25.655z" ts:skin="skin"/>
	<path d="M36 25.655c0-.432-.35-.782-.781-.782l-4.691.782h-3.747c-.432 0-.781.351-.781.781V28h5l4.219-1.563s.781-.35.781-.782z" ts:skin="skin"/>
person tipping hand: the real source! scaled
<path d="M31.541 15.443c-.144-.693-.822-1.139-1.517-.997L27.35 15H25c-1.104 0-2 .896-2 2v2h5c1.079 0 1.953-.857 1.992-1.927l.355-.073H31c0-.074-.028-.144-.045-.216.444-.276.698-.799.586-1.341z" ts:skin="dark"/>
	<path d="M36 16c0-.552-.447-1-1-1l-6 1h-5c-.553 0-1 .448-1 1v2h6l6-2s1-.447 1-1z" ts:skin="skin"/>

Hand from PersonRaisingHand (also used by PersonFacePalming?)
<path d="M12.421 2.935c-.591-.389-1.387-.224-1.776.367L10 4.284V2c0-1.105-.896-2-2-2H4C2.896 0 2 .896 2 2v8s0 1 1 1h6l1-1V8.957l2.789-4.246c.389-.592.225-1.387-.368-1.776z" ts:skin="skin"/>
	<path d="M4 0h1v5H4z M7,0 h1v5H7z" ts:skin="line"/>
-->
	
	<g id="face_male_old">
		<ellipse cx="-8.941" cy="-12.285" rx="1.788" ry="2.861"/>
		<ellipse cx=" 8.941" cy="-12.285" rx="1.788" ry="2.861"/>
		<path d="M -9,-20.062 l 18,0.312 v 10.75 c 0,4.971 -4.029,9 -9,9 s -9,-4.029 -9,-9 v -11.062 Z" ts:skin="skin" ts:gender="male"/>
	</g>
	
	<!-- old smile -->
	<path id="mouth_smile_old" d="M-4,-2h8s-1 2-4 2-4-2-4-2z"/>
	
	<!-- neck shadow -->
	7.338 <path id="neck_shadow_female" d="M0,0 c -1.378,0 -2.646,-0.313 -3.669,-1.468 v -2.936 h 7.338 v 2.936 c -1.023,1.155 -2.291,1.468 -3.669,1.468 Z" />
	8.728 <path id="neck_shadow_male" d="M0,0 c -1.64,0 -3.148,-0.372 -4.364,-1.746 v -3.491 h 8.728 v 3.491 c -1.217,1.374 -2.724,1.746 -4.364,1.746 Z" />
	<!-- 
	828.1 → 27.719
	935.3 → 26.647
	<use href="defs.svg#neck_shadow_male" x="21.996" y="27.719" ts:skin="dark" ts:gender="neutral,male"/>
	<use href="defs.svg#neck_shadow_female" x="21.99" y="26.647" ts:skin="dark" ts:gender="female"/>
	-->
	necks:
	<path d="M17.64 28.101c.774.562 1.206 1.644 2.3 1.911.326.702.746 1.635 1.122 2.476.355.795 1.486.783 1.825-.02.355-.84.755-1.767 1.074-2.456 1.105-.446 1.611-1.339 2.399-1.911V24.29h-8.72v3.811z" ts:skin="skin" ts:gender="neutral"/>
	<path d="M17.64 28.101c1.744 1.268 2.848 1.55 4.36 1.55 1.512 0 2.615-.283 4.359-1.55V24.29h-8.72v3.811z" ts:skin="skin" ts:gender="male"/>
	<path d="M18.328 27.02c0 1.48 2.172 2.48 3.672 2.48s3.66-1 3.66-2.48v-3.205h-7.332v3.205z" ts:skin="skin" ts:gender="female"/>
	<path d="M17.64 27.937c1.744 1.267 2.848 1.511 4.36 1.511 1.511 0 2.616-.245 4.36-1.511v-3.811h-8.72v3.811z" ts:skin="skin" ts:gender="neutral,male"/>
	<path d="M18.328 27.02c1.466 1.065 2.964 1.207 3.672 1.207s2.194-.142 3.66-1.207v-3.205h-7.332v3.205z" ts:skin="skin" ts:gender="female"/>
<path d="M13.64 30.038c1.745 1.268 2.849 1.963 4.36 1.963s2.615-.696 4.359-1.963v-5.749h-8.72v5.749z" ts:skin="skin" ts:gender="neutral,male"/>
	<path d="M14.328 27.018c1.466 1.065 2.964.98 3.672.98s2.194.085 3.66-.98v-3.203h-7.332v3.203z" ts:skin="skin" ts:gender="female"/>	
</svg>
