<svg viewBox="0 0 36 36" xmlns="http://www.w3.org/2000/svg" xmlns:ts="data:,a">
	<path id="hair_back_female" d="M 0,0 c 4.105,0 10.947,2.053 10.947,10.947 c 0,8.896 0,10.948 -2.053,10.948 c -2.053,0 -4.790,-2.053 -8.895,-2.053 c -4.105,0 -6.785,2.053 -8.895,2.053 c -2.287,0 -2.053,-8.211 -2.053,-10.948 c 0.001,-8.894 6.844,-10.947 10.949,-10.947 Z"/>
	<!-- original def: <path d="M18 3c6 0 16 3 16 16s0 16-3 16-7-3-13-3-9.915 3-13 3c-3.343 0-3-12-3-16C2 6 12 3 18 3z" fill="#FFE51E" ts:gender="female"/> -->
	
	<path id="hair_front_female" d="M -10.22,13.931 h -0.719 c -0.028,-2 -0.008,-2.464 -0.008,-3.257 c 0,-8.895 6.842,-12.152 10.947,-12.152 c 4.105,0 10.948,3.312 10.948,12.207 c 0,1.278 0,1.202 -0.007,3.202 h -0.718 c 0.018,-1 0.04,-0.225 0.04,-0.469 c 0,-3.421 -2.053,0.9 -2.053,-1.837 c 0,-2.737 -2.738,-4.112 -5.474,-4.112 c -2.737,0 -6.158,-2.067 -6.158,-2.067 c 0,0 -1.368,1.341 -2.053,2.026 c -1.368,1.368 -2.736,1.612 -2.736,4.051 c 0,2.437 -2.053,-1.479 -2.053,1.943 c 0,0.241 0.023,-0.535 0.044,0.465 Z"/>
	<!--
<use href="defs.svg#hair_back_female" x="21.945" y="5.069" fill="#FFAC33" ts:skin="hair" ts:gender="female"/>
<use href="defs.svg#hair_front_female" x="21.945" y="5.069" fill="#FFAC33" ts:skin="hair" ts:gender="female"/>
-->
</svg>
