<svg viewBox="0 0 36 36" xmlns="http://www.w3.org/2000/svg" xmlns:ts="data:,a">
	<path id="hair_back_female" d="M 10.947,10.947 c 0,8.896 0,10.948 -2.053,10.948 s -4.790,-2.053 -8.895,-2.053 s -6.785,2.053 -8.895,2.053 c -2.287,0 -2.053,-8.211 -2.053,-10.948 h 21.896 Z"/>
	<!-- original def: <path d="M18 3c6 0 16 3 16 16s0 16-3 16-7-3-13-3-9.915 3-13 3c-3.343 0-3-12-3-16C2 6 12 3 18 3z" fill="#FFE51E" ts:gender="female"/> remember later we want to switch to the non-prescaled versions of these (from the Person emoji) since they use nicer paths, then transform those down to size. scale factors:
neutral: 1.37 | 0.73
-->
	
	<path id="hair_front_female" d="M -10.22,13.931 h -0.719 c -0.028,-2 -0.008,-2.464 -0.008,-3.257 c 0,-8.895 6.842,-12.152 10.947,-12.152 c 4.105,0 10.948,3.312 10.948,12.207 c 0,1.278 0,1.202 -0.007,3.202 h -0.718 c 0.018,-1 0.04,-0.225 0.04,-0.469 c 0,-3.421 -2.053,0.9 -2.053,-1.837 c 0,-2.737 -2.738,-4.112 -5.474,-4.112 c -2.737,0 -6.158,-2.067 -6.158,-2.067 c 0,0 -1.368,1.341 -2.053,2.026 c -1.368,1.368 -2.736,1.612 -2.736,4.051 c 0,2.437 -2.053,-1.479 -2.053,1.943 c 0,0.241 0.023,-0.535 0.044,0.465 Z"/>
	
	<path id="hair_male" d="M 0,0 c 5.648,0 9.178,4.168 9.178,7.641 c 0,3.473 -0.706,4.863 -1.412,3.473 l -1.412,-2.778 c 0,0 -4.235,0 -5.647,-1.39 c 0,0 2.118,4.168 -2.118,0 c 0,0 0.706,2.779 -3.53,-0.694 c 0,0 -2.118,1.389 -2.824,4.862 c -0.196,0.964 -1.412,0 -1.412,-3.473 c -0.001,-3.473 2.823,-7.641 9.177,-7.641 Z" />
	
	<!--<path id="hair_neutral" d="M 0,0 c 6.632,2.146 10.318,6.905 10.086,13.189 c -0.385,10.389 -4.739,16.505 -13.88,16.505 c -4.681,0 -7.469,0.148 -10.092,-3.317 c -1.823,-0.543 -4.103,-1.84 -4.655,-5.896 c -0.487,-3.58 -1.855,-5.791 -1.241,-10.551 c 0.621,-4.81 5.353,-8.456 9.387,-8.534 c 1.551,-2.017 7.757,-2.249 10.395,-1.396 Z" fill="#FFAC33" ts:skin="hair" ts:gender="neutral" transform="scale(0.73)"/>-->
	<path id="hair_neutral" d="M 0,0 c 4.84,1.566 7.531,5.04 7.361,9.625 c -0.281,7.583 -3.459,12.047 -10.131,12.047 c -3.417,0 -5.452,0.108 -7.366,-2.421 c -1.33,-0.396 -2.994,-1.343 -3.397,-4.303 c -0.355,-2.613 -1.354,-4.226 -0.906,-7.701 c 0.453,-3.51 3.907,-6.171 6.851,-6.228 c 1.133,-1.472 5.663,-1.642 7.588,-1.019 Z"/>
	
	<path id="hair_neutral_narrow" d="M 0,0 c 4.84,1.566 7.531,5.04 7.362,9.625 c -0.281,7.582 -2.88,12.04 -9.552,12.04 c -3.417,0 -5.452,0.108 -7.366,-2.421 c -1.33,-0.396 -2.994,-1.343 -3.397,-4.303 c -0.356,-2.612 -1.039,-4.011 -0.591,-7.486 c 0.453,-3.511 3.592,-6.386 6.536,-6.443 c 1.132,-1.472 5.083,-1.635 7.008,-1.012 Z" fill="#FFAC33" ts:skin="hair" ts:gender="neutral"/>
	
	<path id="face_neutral" d="M 0,0 c 0.736,1.019 1.039,2.152 1.041,5.050 a 8.578,8.578 0 01 -17.156,0 c 0,-1.596 -0.106,-2.530 0.234,-3.578 c 0.472,-1.458 1.324,-2.445 2.038,-2.888 c 2.463,-1.529 2.661,-3.029 2.661,-3.029 s 0.495,1.125 2.119,2.141 c 2.325,1.455 4.672,0.517 6.827,2.899 c 0.538,0.595 0.453,0.114 0.368,-0.481 s -0.736,-1.671 -1.416,-1.982 c 1.812,0.254 2.638,0.974 3.284,1.868 Z"/>
	
	<!-- moustache -->
	<path d="M26.524 21.346l-1.267-.275c-.404-.093-1.173-.071-1.535-.071h-3.689c-.362 0-1.131-.022-1.536.071l-1.267.275c-.348.1-.55.392-.45.74.082.288.345.44.63.44.06 0 .12-.026.181-.043l1.266-.37c-.142.192-.18.447-.066.675.115.23.346.36.587.36.098 0 .198-.024.293-.07l1.034-.517c.024.214.14.413.347.516.094.047.194.069.293.069.241 0 .472-.133.587-.362l.068-.138-.053.138c.115.23.224.362.465.362.098 0 .198-.022.293-.069.207-.103.323-.303.347-.516l1.034.517c.094.047.194.07.293.07.241 0 .472-.13.587-.36.114-.229.076-.483-.066-.675l1.266.37c.06.017.121.043.181.043.285 0 .548-.152.63-.44.097-.348-.105-.64-.453-.74z" fill="#FFAC33" ts:skin="hair" ts:gender="male"/>
	<path d="M26.525 21.346l-1.268-.274c-.405-.095-1.173-.072-1.535-.072h-3.689c-.362 0-1.131-.023-1.536.071l-1.266.274c-.348.101-.55.393-.45.74.082.288.345.441.63.441.059 0 .12-.026.18-.042l1.267-.371c-.143.191-.181.446-.066.676.115.228.347.36.587.36.099 0 .199-.024.293-.071l1.034-.518c.022.215.139.414.346.518.094.046.195.069.293.069.241 0 .473-.134.587-.363l.068-.138-.053.138c.114.229.224.363.465.363.098 0 .198-.023.292-.069.207-.104.323-.303.347-.518l1.033.518c.095.047.195.071.293.071.241 0 .472-.132.587-.36.114-.23.076-.484-.066-.676l1.266.371c.059.016.121.042.181.042.285 0 .547-.152.63-.441.099-.347-.102-.639-.45-.739z" fill="#6D6E71" ts:gender="male"/>
	<path d="M26.525 21.346l-1.268-.274c-.404-.094-1.173-.072-1.535-.072h-3.689c-.362 0-1.131-.022-1.536.071l-1.266.274c-.348.101-.55.393-.45.74.082.288.345.441.63.441.059 0 .12-.026.18-.042l1.267-.371c-.143.191-.181.446-.066.676.115.228.347.36.587.36.099 0 .199-.024.293-.071l1.034-.518c.022.215.139.414.346.518.094.046.195.069.293.069.241 0 .473-.134.587-.363l.068-.138-.053.138c.114.229.224.363.465.363.098 0 .198-.023.292-.069.207-.104.323-.303.347-.518l1.033.518c.095.047.195.071.293.071.241 0 .472-.132.587-.36.114-.229.076-.484-.066-.676l1.266.371c.059.016.121.042.181.042.285 0 .547-.152.63-.441.099-.347-.102-.639-.45-.739zz" fill="#FFAC33" ts:skin="hair" ts:gender="male"/>
	
	<g id="face_male">
		<ellipse cx="-8.194" cy="-1.024" rx="1.639" ry=" 2.623"/>
		<ellipse cx=" 8.194" cy="-1.024" rx="1.639" ry=" 2.623"/>
		<ellipse cx=" 0    " cy=" 0    " rx="8.523" ry="10.121"/>
	</g>
	
	<!-- 
<use href="defs.svg#face_male" x="22" y="16.959" fill="#FFDC5D" ts:skin="skin" ts:gender="male"/>
<use href="defs.svg#face_female" x="13.734" y="15.717" fill="#FFDC5D" ts:skin="skin" ts:gender="female"/>

-->
	
	<path id="face_female" d="M 0,0 c 0,-5.834 3.676,-10.563 8.21,-10.563 s 8.21,4.729 8.21,10.563 s -3.676,10.285 -8.21,10.285 s -8.21,-4.452 -8.21,-10.285 Z"/>
	
	<!--
		 <use href="defs.svg#hair_neutral" x="25.597" y="3.516" fill="#FFAC33" ts:skin="hair" ts:gender="neutral"/>
<use href="defs.svg#hair_neutral" x="25.731" y="3.323" fill="#FFAC33" ts:skin="hair" ts:gender="neutral"/>
<use href="defs.svg#hair_neutral_narrow" x="21.152" y="3.3" fill="#FFAC33" ts:skin="hair" ts:gender="neutral"/>

<use href="defs.svg#hair_neutral" transform="translate(21.906 1.262) scale(1.049)" fill="#FFAC33" ts:skin="hair" ts:gender="neutral"/>
-->
	<!--
<use href="defs.svg#hair_back_female" x="21.945" y="5.069" fill="#FFAC33" ts:skin="hair" ts:gender="female"/>
<use href="defs.svg#hair_front_female" x="21.945" y="5.069" fill="#FFAC33" ts:skin="hair" ts:gender="female"/>

<use href="defs.svg#hair_male" x="22" y="3.48" fill="#FFAC33" ts:skin="hair" ts:gender="male"/>
<path d="M21 0c5.648 0 9.178 4.648 9.178 8.121 0 3.473-.706 4.863-1.412 3.473l-1.412-2.778s-4.235 0-5.647-1.39c0 0 2.118 4.168-2.118 0 0 0 .706 2.779-3.53-.694 0 0-2.118 1.389-2.824 4.862-.196.964-1.412 0-1.412-3.473C11.822 4.648 14.646 0 21 0" fill="#FFAC33" ts:skin="hair" ts:gender="male"/> Technologist (alt taller male hair)
	-->
<!-- 
<use href="defs.svg#face_neutral" x="29.413" y="11.021" fill="#FFDC5D" ts:skin="skin" ts:gender="neutral"/>
<use href="defs.svg#face_neutral" x="25.413" y="13.466" fill="#FFDC5D" ts:skin="skin" ts:gender="neutral"/>
<use href="defs.svg#face_neutral" x="29.547" y="13.273" fill="#FFDC5D" ts:skin="skin" ts:gender="neutral"/>
<use href="defs.svg#face_neutral" x="25.547" y="13.243" fill="#FFDC5D" ts:skin="skin" ts:gender="neutral"/>

<use href="defs.svg#face_neutral" transform="translate(25.89 15.686) scale(1.049)" fill="#FFDC5D" ts:skin="skin" ts:gender="neutral"/>

-->	

</svg>
