<svg xmlns="http://www.w3.org/2000/svg" viewBox="0 0 36 36" transform="matrix(1 0 0 -1 0 0)" fill="none">
	<!-- clothes -->
	<path d="M 35 4 v5 c 0,2.209 -1.791,8 -4,8 h-7 c -2.209,0 -4,-5.791 -4,-8 v-5 c 0,-2.209 1.791,-3 4,-3 h7 c 2.209,0 4,0.791 4,3 Z" fill="rgb(170,141,216)"/>
	<path d="M 24,17 c -2.209,0 -4,-5.791 -4,-8 v-5 c 0,-2.209 1.791,-3 4,-3 h7 c 2.209,0 4,0.791 4,3 v5 c 0,2.209 -1.791,8 -4,8 h-7 Z"  />
	<!-- body -->
	<path d="M 28 7 v4 c 3,1 3,3 3,5 h-7 c 0,-2 0,-4 3,-5 v-4 c 0,-1 -1,-3 -3,-3 c 0,-11.851 2.149,-7.223 3.416,-5.521 c 1.232,-2.462 3.584,-12.188 3.584,5.521 c -2,0 -3,2 -3,3 Z" fill="rgb(116,78,170)"/>
	<!-- head -->
	<path d="M 36,24 c 0,4.418 -3.806,8 -8.5,8 s -8.5,-3.582 -8.5,-8 v-6 c 0,-3 6.4,0 8.5,0 c 1.905,0 8.5,-3 8.5,0 v6 Z" fill="rgb(41,47,51)"/>
	<path d="M 34 21 h-13 c 0,-4 1,-7 6.5,-7 s 6.5,4 6.5,7 Z" fill="rgb(225,232,237)"/>
	<!-- nose -->
	<path d="M 29 16.5 c 0,0.276 -0.672,0.5 -1.5,0.5 s -1.5,-0.224 -1.5,-0.5 s 0.672,-0.5 1.5,-0.5 s 1.5,0.224 1.5,0.5 Z" fill="rgb(160,4,30)"/>
	<!-- eyes -->
	<path d="M 22.1338,19.6387 c -0.659,-0.106 -0.649,-0.531 -0.044,-0.565 c 0.606,-0.034 2.121,-0.119 2.791,-0.438 c 0.67,-0.318 0.93,0.424 0.571,0.685 c -0.861,0.788 -2.413,0.463 -3.318,0.318 Z" fill="rgb(41,47,51)"/>
	<path d="M 33.1172,19.6387 c -0.906,0.145 -2.457,0.47 -3.318,-0.318 c -0.358,-0.261 -0.098,-1.003 0.572,-0.685 c 0.669,0.319 2.184,0.404 2.789,0.438 c 0.606,0.034 0.616,0.459 -0.043,0.565 Z" fill="rgb(41,47,51)"/>
	
	<!-- bow -->
	<path d="M 32,32 c 0,1.657 -2.015,3 -4.5,3 s -4.5,-1.343 -4.5,-3 s 2.015,-3 4.5,-3 s 4.5,1.343 4.5,3 Z" fill="rgb(41,47,51)"/>
	<path d="M 30.7051 31.9487 l -2.965,-2.015 l -3.195,2.015 c -1.824,1.231 -3.545,0.438 -3.545,-1.762 v-0.291 c 0,-2.2 1.766,-3.063 3.644,-1.919 c 0,0 1.872,1.018 3.103,1.661 c 1.204,-0.643 2.858,-1.661 2.858,-1.661 c 1.879,-1.144 3.395,-0.281 3.395,1.919 v0.291 c 0,2.2 -1.471,2.993 -3.295,1.762 Z" fill="rgb(170,141,216)"/>
	
	<!-- circles -->
	<path d="M 23,6 c 0,0.553 -0.447,1 -1,1 s -1,-0.447 -1,-1 s 0.447,-1 1,-1 s 1,0.447 1,1 Z" fill="rgb(203,183,234)"/>
	<path d="M 26,10 c 0,0.553 -0.447,1 -1,1 s -1,-0.447 -1,-1 s 0.447,-1 1,-1 s 1,0.447 1,1 Z" fill="rgb(203,183,234)"/>
	<path d="M 32,7 c 0,0.553 -0.447,1 -1,1 s -1,-0.447 -1,-1 s 0.447,-1 1,-1 s 1,0.447 1,1 Z" fill="rgb(203,183,234)"/>
	<path d="M 33,11 c 0,0.553 -0.447,1 -1,1 s -1,-0.447 -1,-1 s 0.447,-1 1,-1 s 1,0.447 1,1 Z" fill="rgb(203,183,234)"/>
	
	
	
	<!-- clothes -->
	<path d="M 16,4 v5 c 0,2.209 -1.791,8 -4,8 h-7 c -2.209,0 -4,-5.791 -4,-8 v-5 c 0,-2.209 1.791,-3 4,-3 h7 c 2.209,0 4,0.791 4,3 Z" fill="rgb(221,46,68)" />
	
	<path d="M 5,17 c -2.209,0 -4,-5.791 -4,-8 v-5 c 0,-2.209 1.791,-3 4,-3 h7 c 2.209,0 4,0.791 4,3 v5 c 0,2.209 -1.791,8 -4,8 h-7 Z"  />
	<!-- body -->
	<path d="M 9,7 v4 c 3,1 3,3 3,5 h-7 c 0,-2 0,-4 3,-5 v-4 c 0,-1 -1,-3 -3,-3 c 0,-11.851 2.149,-7.223 3.416,-5.521 c 1.233,-2.462 3.584,-12.188 3.584,5.521 c -2,0 -3,2 -3,3 Z" fill="rgb(160,4,30)" />
	
	<!-- head -->
	<path d="M 17,24 c 0,4.418 -3.805,8 -8.499,8 s -8.499,-3.582 -8.499,-8 c 0,-2.442 -0.002,-4.904 -0.002,-8 c 0,-3 2.001,2 8.501,2 s 8.499,-5 8.499,-2 v8 Z" fill="rgb(41,47,51)" />
	<path d="M 15 21 h-13 c 0,-4 1,-7 6.5,-7 s 6.5,4 6.5,7 Z" fill="rgb(225,232,237)"/>
	<path d="M 11 32.5 c 0,1.933 -1.119,3.5 -2.5,3.5 c -1.38,0 -2.5,-1.567 -2.5,-3.5 s 1.12,-3.5 2.5,-3.5 c 1.381,0 2.5,1.567 2.5,3.5 Z" fill="rgb(41,47,51)"/>
	
	<!-- nose -->
	<path d="M 10,16.5 c 0,0.276 -0.671,0.5 -1.5,0.5 s -1.5,-0.224 -1.5,-0.5 s 0.671,-0.5 1.5,-0.5 s 1.5,0.224 1.5,0.5 Z" fill="rgb(160,4,30)"/>
	
	<!-- circles -->
	<g fill="rgb(244,171,186)">
		<circle cx="4" cy="11" r="1"/>
		<circle cx="14" cy="6" r="1"/>
		<circle cx="11" cy="10" r="1"/>
		<circle cx="6" cy="7" r="1"/>
	</g>
	
	<!-- eyes -->
	<path d="M 3.1338,19.6387 c -0.659,-0.106 -0.649,-0.531 -0.043,-0.565 c 0.605,-0.034 2.12,-0.119 2.79,-0.438 c 0.67,-0.318 0.929,0.424 0.571,0.685 c -0.861,0.788 -2.412,0.463 -3.318,0.318 Z" fill="rgb(41,47,51)"/>
	<path d="M 14.1172,19.6387 c -0.906,0.145 -2.457,0.47 -3.318,-0.318 c -0.358,-0.261 -0.099,-1.003 0.571,-0.685 c 0.67,0.319 2.185,0.404 2.79,0.438 c 0.606,0.034 0.616,0.459 -0.043,0.565 Z" fill="rgb(41,47,51)"/>
</svg>
