<svg viewBox="0 0 36 36" xmlns="http://www.w3.org/2000/svg">
	<path id="cat_face_bg" d="M 18,36 c -2,0 -8,-1 -12,-4 c -2.633,-1.975 -4.61,-4.284 -5,-5 c -0.343,-0.63 -1.129,-3.487 -0.734,-7.071 c 0.359,-3.269 0.734,-4.929 1.734,-6.929 c 0,0 -3,-9 -1,-12.7 c 0.674,-1.246 7.404,1.688 10,3.7 c 0,0 4,-0.998 7,-0.998 s 7,0.998 7,0.998 c 2.596,-2.012 9.326,-4.946 10,-3.7 c 2,3.7 -1,12.7 -1,12.7 c 1,2 1.375,3.66 1.734,6.929 c 0.395,3.584 -0.391,6.441 -0.734,7.071 c -0.39,0.716 -2.367,3.025 -5,5 c -4,3 -10,4 -12,4 Z" fill="#FFCC4D"/>
	
	<path id="water_drop" d="M 5,10 a 5,5 0 01 -10,0 c 0,-2.762 4,-10 5,-10 s 5,7.238 5,10 Z" fill="#5DADEC"/>
	
	<path id="eye_squinting" d="M 11,0 a 1,1 0 01 0.002,2 c -0.036,0 -2.783,0.027 -5.258,1.268 c 3.905,0.75 6.713,2.825 6.856,2.932 a 1,1 0 01 -1.199,1.601 c -0.038,-0.029 -3.811,-2.801 -8.401,-2.801 a 1,1 0 01 -0.707,-1.707 c 3.256,-3.255 8.486,-3.293 8.707,-3.293 Z" fill="#664500"/>
	
	<g id="mouth_grinning">
		<path d="M 0,-10 c 3.623,0 6.027,-0.422 9,-1 c 0.679,-0.132 2,0 2,2 c 0,4 -4.596,9 -11,9 c -6.405,0 -11,-5 -11,-9 c 0,-2 1.321,-2.131 2,-2 c 2.973,0.578 5.377,1 9,1 Z" fill="#664500" />
		<path d="M -9,-9 s 3,1 9,1 s 9,-1 9,-1 s -2,4 -9,4 s -9,-4 -9,-4 Z" fill="#FFF" />
	</g>
	<g id="mouth_grinning2">
		<path d="M 0,-10 c 3.623,0 6.027,-0.422 9,-1 c 0.679,-0.132 2,0 2,2 c 0,4 -4.596,9 -11,9 c -6.405,0 -11,-5 -11,-9 c 0,-2 1.321,-2.131 2,-2 c 2.973,0.578 5.377,1 9,1 Z" fill="#664500"/>
	</g>
	
	<path id="eye.smiling" d="M -3,3 s 1,-3 3,-3 s 3,3 3,3" fill="none" stroke-width="2" stroke-linejoin="round" stroke-linecap="round" stroke="#664500"/>
	
	<!-- width: 35.77 -->
	<path id="heart" d="M 0,0 c -6.784,-2.466 -16.249,-11.447 -17.619,-19.96 c -0.168,-0.721 -0.266,-1.469 -0.266,-2.241 c 0,-5.451 4.418,-9.868 9.868,-9.868 c 3.307,0 6.226,1.633 8.017,4.129 c 1.791,-2.496 4.71,-4.129 8.018,-4.129 c 5.449,0 9.867,4.418 9.867,9.868 c 0,0.773 -0.098,1.521 -0.268,2.242 c -1.368,8.512 -10.834,17.493 -17.617,19.959 Z"/>
	
	<path id="mouth.smiling2" d="M -9,-5 s 4,3 9,3 s 9,-3 9,-3 s -3,5 -9,5 s -9,-5 -9,-5 Z" stroke-width="1" stroke-linejoin="round" stroke-linecap="round" fill="currentColor" stroke="currentColor"/>
	
	<path id="bg.horn" d="M 0,0 s 4,4 8,4 l -2,4 c -6,0 -6,-8 -6,-8 Z" stroke-width="4" stroke-linejoin="round" stroke="currentColor" fill="currentColor"/>
	<g id="bg.horns">
		<circle fill="currentColor" cx="18" cy="18" r="18"/>
		<use href="#bg.horn" x="2" y="2"/>
		<use href="#bg.horn" transform="translate(34 2) scale(-1 1)"/>
	</g>
	
	<path id="eyebrow.1" d="M 0,0 s 5,0 8,3" stroke-width="2" stroke-linecap="round" stroke="currentColor" fill="none"/>
	
	<g id="eye.angry1">
		<use href="F.svg#eyebrow.1" x="-5.5" y="-4.5"/>
		<ellipse cx="0" cy="0" rx="2.5" ry="3.5" fill="currentColor"/>
	</g>
	
	<path id="eyebrow.2" d="M 0,0 s -4,0 -7,4" stroke-width="2" stroke-linecap="round" stroke="currentColor" fill="none"/>
	<path id="eyebrow.3" d="M 0,0 c 6,0 7,-4 7,-4" stroke-width="2" stroke-linecap="round" stroke="currentColor" fill="none"/>
	<path id="eyebrow.3b" d="M 0,0 c 5,0 7,-4 7,-4" stroke-width="2" stroke-linecap="round" stroke="currentColor" fill="none"/>
	
	<path id="mouth.smiling1" d="M -5,-4.5 s 1 1 5 1s5 -1 5 -1s-1 4 -5 4s-5 -4 -5 -4z" stroke-width="1" fill="currentColor" stroke-linejoin="round" stroke="currentColor"/>
	
	covering for top of head
	<path d="M 18,11 c -8.748,0 -16.033,4.509 -17.656,10.484 c -0.221,-1.128 -0.344,-2.292 -0.344,-3.484 c 0,-9.94 8.06,-18 18,-18 c 9.941,0 18,8.06 18,18 c 0,1.192 -0.122,2.356 -0.344,3.484 c -1.623,-5.975 -8.907,-10.484 -17.656,-10.484 Z" fill="#BDDDF4" />
	<path d="M 18,11 c -8.748,0 -16.033,4.509 -17.656,10.484 c -0.221,-1.128 -0.344,-2.292 -0.344,-3.484 c 0,-9.94 8.06,-18 18,-18 c 9.941,0 18,8.06 18,18 c 0,1.192 -0.122,2.356 -0.344,3.484 c -1.623,-5.975 -8.907,-10.484 -17.656,-10.484 Z" fill="#BDDDF4" />
	
	eye pairs:
	<ellipse fill="#664500" cx="11.5" cy="16.5" rx="2.5" ry="3.5"/><ellipse fill="#664500" cx="24.5" cy="16.5" rx="2.5" ry="3.5"/>
	

</svg>
