<svg viewBox="0 0 36 36" xmlns="http://www.w3.org/2000/svg">
	<circle id="bg.normal" r="18" cx="18" cy="18" fill="currentColor"/>
	
	<g id="bg.blush">
		<circle r="5" cx=" 7" fill="#FF7892"/>
		<circle r="5" cx="29" fill="#FF7892"/>
	</g>
	
	<path id="bg.horn" d="M 0,0 s 4,4 8,4 l -2,4 c -6,0 -6,-8 -6,-8 Z" stroke-width="4" stroke-linejoin="round" stroke="currentColor" fill="currentColor"/>
	
	<g id="bg.horns">
		<circle r="18" cx="18" cy="18" fill="currentColor"/>
		<use href="#bg.horn" x="2" y="2"/>
		<use href="#bg.horn" transform="matrix(-1 0 0 1 34 2)"/>
	</g>
	
	<g id="bg.cat">
		<path d="M 18,36 c -2,0 -8,-1 -12,-4 c -2.633,-1.974 -4.61,-4.284 -5,-5 c -0.344,-0.63 -1.129,-3.487 -0.735,-7.071 c 0.36,-3.269 0.735,-4.929 1.735,-6.929 c 0,0 -3,-9 -1,-12.7 c 0.673,-1.246 7.404,1.689 10,3.7 c 0,0 4,-1 7,-1 s 7,1 7,1 c 2.595,-2.011 9.326,-4.946 10,-3.7 c 2,3.7 -1,12.7 -1,12.7 c 1,2 1.374,3.66 1.734,6.929 c 0.395,3.584 -0.391,6.441 -0.734,7.071 c -0.391,0.716 -2.368,3.026 -5,5 c -4,3 -10,4 -12,4 Z" fill="#FFCC4D"/>	
		<!-- ears -->
		<path d="M 2,3 c 0.447,-1.342 5.64,1 6.64,2 c 0,0 -4.64,3 -5.64,6 c 0,0 -2,-5 -1,-8 Z" fill="#F18F26"/>
		<path d="M 34,3 c 1,3 -1,8 -1,8 c -1,-3 -5.64,-6 -5.64,-6 c 1,-1 6.193,-3.342 6.64,-2 Z" fill="#F18F26"/>
		
		<path d="M 10,8 c -1,1 -2,1.603 -3,2.603 s -2.066,-4 -2.066,-5 c 0,-1.414 6.066,1.397 5.066,2.397 Z" fill="#FFCC4D"/>
		<path d="M 26,8 c -1,-1 5.066,-3.811 5.066,-2.397 c 0,1 -1.066,6 -2.066,5 s -2,-1.603 -3,-2.603 Z" fill="#FFCC4D"/>
	</g>
	
	<g id="bg.monkey">
		<!--
Monkey Face
<path d="M 19.018,36 h-2.036 c -6.718,0 -13.232,-5.152 -13.232,-12.364 c 0,-4.121 1.527,-6.182 1.527,-6.182 s -0.509,-2.061 -0.509,-4.121 c 0,-6.181 6.514,-11.333 13.232,-11.333 s 13.232,6.182 13.232,11.333 c 0,2.061 -0.509,4.121 -0.509,4.121 s 1.527,2.061 1.527,6.182 c 0,7.212 -6.514,12.364 -13.232,12.364 Z"  fill="#BF6952"/>
	<path d="M 30,16.042 c 0,2.358 -1.172,4.441 -2.965,5.719 c 0.503,1.238 0.783,2.6 0.783,4.031 c 0,5.684 -4.396,9.208 -9.818,9.208 s -9.818,-3.524 -9.818,-9.208 c 0,-1.431 0.28,-2.793 0.783,-4.031 c -1.793,-1.278 -2.965,-3.36 -2.965,-5.719 c 0,-3.889 3.175,-7.042 7.091,-7.042 c 1.907,0 3.635,0.752 4.909,1.968 c 1.274,-1.216 3.002,-1.968 4.909,-1.968 c 3.916,0 7.091,3.153 7.091,7.042 Z"  fill="#D79E84"/>
	<ellipse fill="#292F33" cx="13" cy="17" rx="2.25" ry="3.25"/>
	<ellipse fill="#292F33" cx="23" cy="17" rx="2.25" ry="3.25"/>
	<path d="M 18,32.727 c -2.838,0 -5.254,-1.505 -6.162,-3.61 c -0.375,-0.87 0.262,-1.844 1.21,-1.844 h9.904 c 0.948,0 1.585,0.973 1.21,1.844 c -0.908,2.105 -3.324,3.61 -6.162,3.61 Z"  fill="#642116"/>
	<circle fill="#642116" cx="16.25" cy="23" r="1"/>
	<circle fill="#642116" cx="19.75" cy="23" r="1"/>
	<path d="M 22.66,0.175 c -2.182,0 -3.272,3.273 -3.272,3.273 s -6.545,2.182 -4.364,-1.091 s 7.636,-2.182 7.636,-2.182 Z"  fill="#BF6952"/>
		-->
		
		<path d="M 18.985,35 h-1.97 c -6.5,0 -12.803,-4.982 -12.803,-11.956 c 0,-3.985 1.477,-5.978 1.477,-5.978 s -0.492,-1.993 -0.492,-3.985 c 0,-5.978 6.303,-10.96 12.803,-10.96 s 12.803,5.978 12.803,10.96 c 0,1.993 -0.492,3.985 -0.492,3.985 s 1.477,1.993 1.477,5.978 c 0,6.974 -6.303,11.956 -12.803,11.956 Z" fill="#BF6952" />
		<path d="M 22.242,0.17 c -2.121,0 -3.182,3.182 -3.182,3.182 s -6.363,2.121 -4.242,-1.061 s 7.424,-2.121 7.424,-2.121 Z" fill="#BF6952" />
		<path d="M 29.667,15.379 c 0,2.309 -1.14,4.348 -2.884,5.599 c 0.489,1.212 0.761,2.545 0.761,3.946 c 0,5.565 -4.274,9.015 -9.545,9.015 s -9.545,-3.45 -9.545,-9.015 c 0,-1.4 0.272,-2.734 0.761,-3.946 c -1.742,-1.251 -2.882,-3.29 -2.882,-5.599 a 6.894,6.894 0 01 6.894,-6.894 c 1.854,0 3.534,0.735 4.773,1.926 c 1.239,-1.19 2.919,-1.926 4.773,-1.926 a 6.894,6.894 0 01 6.894,6.894 Z" fill="#D79E84" />
		<!-- mouth -->	
		<path d="M 18,31.5 c -2.715,0 -5.027,-1.38 -5.895,-3.309 c -0.359,-0.798 0.25,-1.691 1.157,-1.691 h9.476 c 0.907,0 1.516,0.893 1.157,1.691 c -0.868,1.929 -3.18,3.309 -5.895,3.309 Z" fill="#642116" />
		<!-- nose -->
		<g>
			<ellipse fill="#642116" cx="16.5" cy="22" rx="1" ry="1.061"/> <!-- mistake? -->
			<circle fill="#642116" cx="19.5" cy="22" r="1"/>
		</g>
		<!-- eyes -->
		<ellipse fill="#292F33" cx="13" cy="17" rx="2" ry="3"/>
		<ellipse fill="#292F33" cx="23" cy="17" rx="2" ry="3"/>
	</g>
	
	<g id="nose.cat">
		<!-- nose -->
		<path d="M 18,19.5 c 3,0 3,0.5 3,1.5 s -1.5,3 -3,3 s -3,-2 -3,-3 s 0,-1.5 3,-1.5 Z" fill="#E75A70"/>
		<!-- whiskers -->
		<path d="M 0.701,25 c 0.108,0 0.217,-0.035 0.31,-0.106 c 0.036,-0.029 3.718,-2.869 9.951,-2.395 c 0.28,0.041 0.516,-0.185 0.537,-0.46 s -0.185,-0.516 -0.46,-0.536 c -6.628,-0.515 -10.486,2.478 -10.648,2.605 c -0.217,0.171 -0.254,0.485 -0.083,0.702 c 0.099,0.125 0.245,0.19 0.393,0.19 Z" fill="#FEE7B8" />
		<path d="M 9.569,20.337 c -0.049,0 -0.1,-0.007 -0.149,-0.022 c -4.79,-1.497 -8.737,-0.347 -8.777,-0.336 c -0.265,0.081 -0.543,-0.07 -0.623,-0.335 c -0.079,-0.265 0.071,-0.543 0.335,-0.622 c 0.173,-0.052 4.286,-1.247 9.362,0.338 c 0.264,0.083 0.411,0.363 0.328,0.627 c -0.066,0.213 -0.263,0.35 -0.476,0.35 Z" fill="#FEE7B8"/>
		<path d="M 35.299,25 c -0.108,0 -0.217,-0.035 -0.31,-0.106 c -0.036,-0.029 -3.718,-2.869 -9.951,-2.395 c -0.28,0.041 -0.516,-0.185 -0.537,-0.46 s 0.185,-0.516 0.46,-0.536 c 6.628,-0.515 10.486,2.478 10.648,2.605 c 0.217,0.171 0.254,0.485 0.083,0.702 c -0.099,0.125 -0.245,0.19 -0.393,0.19 Z" fill="#FEE7B8"/>
		<path d="M 26.431,20.337 c -0.213,0 -0.411,-0.137 -0.476,-0.35 c -0.083,-0.264 0.064,-0.544 0.328,-0.627 c 5.076,-1.585 9.189,-0.39 9.362,-0.338 c 0.264,0.079 0.414,0.357 0.335,0.622 c -0.08,0.265 -0.358,0.416 -0.623,0.335 c -0.04,-0.011 -3.987,-1.161 -8.777,0.336 c -0.049,0.015 -0.1,0.022 -0.149,0.022 Z" fill="#FEE7B8"/>
		<!--
			(ugh but what are they really.. i managed to figure out one exactly but not the other) oh well, here are just the automatically computed strokes, at least:
			M 2.2002,29.958 c 0.099,-0.078 3.8685,-2.9945 10.3,-2.5
			M 33.8003,29.958 c -0.0995,-0.078 -3.869,-2.9945 -10.3,-2.5
			M 1.9998,24.9584 c 0.1065,-0.0315 4.137,-1.205 9.0695,0.3365
			M 34.0002,24.9584 c -0.1065,-0.0315 -4.137,-1.205 -9.069,0.3365
			
			M  2.2,29.958 c  0.099 ,-0.078  3.8685,-2.9945  10.3,-2.5
			M 33.8,29.958 c -0.0995,-0.078 -3.869 ,-2.9945 -10.3,-2.5
			
			M  2,24.9584 c  0.1065,-0.0315  4.137,-1.205  9.0695,0.3365
			M 34,24.9584 c -0.1065,-0.0315 -4.137,-1.205 -9.069 ,0.3365
		-->
	</g>
	
	(cold, anxious, fearful, etc.)
	<g id="bg.sweating">
		<defs>
			<clipPath id="circle12">
				<circle r="18" cx="18" cy="18"/>
			</clipPath>
		</defs>
		<g clip-path="url(#circle12)">
			<rect width="36" height="36" fill="#BDDDF4"/>
			<ellipse rx="18" ry="13" cx="18" cy="24" fill="currentColor"/>
		</g>
	</g>
	<!--<path id="bg.sweat" d="M 18,11 c -8.748,0 -16.033,4.509 -17.656,10.484 c -0.221,-1.128 -0.344,-2.292 -0.344,-3.484 c 0,-9.94 8.06,-18 18,-18 c 9.941,0 18,8.06 18,18 c 0,1.192 -0.122,2.356 -0.344,3.484 c -1.623,-5.975 -8.907,-10.484 -17.656,-10.484 Z" fill="#BDDDF4"/>-->
	
	<path id="water_drop" d="M 5,10 a 5,5 0 01 -10,0 c 0,-2.762 4,-10 5,-10 s 5,7.238 5,10 Z" fill="#55acee"/>
	<!-- width: 35.77 -->
	
	<!--<path d="M -6.5,-8 a 8,8 0 01 6.5,3.334 a 8,8 0 01 6.5,-3.334 a 8,8 0 01 8,8 a 8,8 0 01 -0.216,1.817 c -1.111,6.901 -8.784,14.183 -14.284,16.183 c -5.5,-2 -13.173,-9.282 -14.284,-16.183 a 8,8 0 01 -0.216,-1.817 a 8,8 0 01 8,-8 Z"/> my reconstruction -->
	<path id="heart" d="M 0,0 c -6.784,-2.466 -16.249,-11.447 -17.619,-19.96 c -0.168,-0.721 -0.266,-1.469 -0.266,-2.241 c 0,-5.451 4.418,-9.868 9.868,-9.868 c 3.307,0 6.226,1.633 8.017,4.129 c 1.791,-2.496 4.71,-4.129 8.018,-4.129 c 5.449,0 9.867,4.418 9.867,9.868 c 0,0.773 -0.098,1.521 -0.268,2.242 c -1.368,8.512 -10.834,17.493 -17.617,19.959 Z"/>
	<!-- here's one of the oldest versions, maybe just use this: <path d="M 0,0C 0,5.45,-4.418,9.868,-9.867,9.868C -13.175,9.868,-16.094,8.235,-17.885,5.739C -19.675,8.235,-22.595,9.868,-25.902,9.868C -31.352,9.868,-35.77,5.45,-35.77,0C -35.77,-0.772,-35.672,-1.52,-35.504,-2.241C -34.133,-10.753,-24.669,-19.735,-17.885,-22.201C -11.102,-19.735,-1.636,-10.753,-0.268,-2.241C -0.098,-1.52,0,-0.772,0,0"/> -->
	
	<g id="mouth_grinning">
		<path d="M 0,-10 c 3.623,0 6.027,-0.422 9,-1 c 0.679,-0.131 2,0 2,2 c 0,4 -4.596,9 -11,9 s -11,-5 -11,-9 c 0,-2 1.321,-2.131 2,-2 c 2.973,0.578 5.377,1 9,1 Z" fill="#664500"/>
		
		<path d="M -9,-9 s 3,1 9,1 s 9,-1 9,-1 s -2,4 -9,4 s -9,-4 -9,-4 Z" fill="#FFF" />
	</g>
	<g id="mouth_grinning2">
		<path d="M 0,-10 c 3.623,0 6.027,-0.422 9,-1 c 0.679,-0.132 2,0 2,2 c 0,4 -4.596,9 -11,9 c -6.405,0 -11,-5 -11,-9 c 0,-2 1.321,-2.131 2,-2 c 2.973,0.578 5.377,1 9,1 Z" fill="#664500"/>
	</g>
	
	<path d="M -8,-6 s 2,4 8,4 s 8,-4 8,-4 s -3,1 -8,1 s -8,-1 -8,-1 Z" fill="#FFF"/> <!-- teeth for WearyFace -->
	
	<g id="mouth.cat_grin">
		<path d="M 18,33 c -7,0 -10,-4 -10.558,-5.869 s -0.442,-3.131 0.535,-2.94 s 5.023,1.809 10.023,1.809 s 9.046,-1.618 10.023,-1.809 s 1.092,1.071 0.534,2.94 s -3.557,5.869 -10.557,5.869 Z" fill="#292F33"/>
		
		<path d="M 8,25 s 5,2 10,2 s 10,-2 10,-2 s -0.5,3 -1.5,3 s -1.5,-1 -1.5,-1 s -4,2 -7,2 s -7,-2 -7,-2 s -0.5,1 -1.5,1 s -1.5,-3 -1.5,-3 Z" fill="#F5F8FA" />
	</g>
	
	<path 
		id="mouth.grinning3"
		d="M -11,-8.7375 c 11.667,2.756 22,0 22,0 c 0,4 -4.596,9 -11,9 s -11,-5.036 -11,-9 Z" fill="currentColor"/>
	
	<path 
		id="mouth.grinning4" stroke-width="1"
		d="M10 8.5 s -1.05 -8 -10 -8s-10 8 -10 8s6 -2 10 -2c1 0 5.25 0 10 2z"
		stroke-linejoin="round" stroke-linecap="round" fill="currentColor" stroke="currentColor"/>
	
	<path id="mouth.zigzag" d="M-8 -2 l 1 1 l 3 -4 l 4 5 l 4 -5 l 3 4 l 1 -1" stroke-width="2" stroke-linecap="round" stroke-linejoin="round" stroke="currentColor" fill="none"/>
	<!-- 3 -->
	<path id="mouth.kiss" d="M 0,0 s 5,0.25 5,2.5 s -5,2.5 -5,2.5 s 4,-0.25 4,-2.5 s -4,-2.5 -4,-2.5 s 4,-0.25 4,-2.5 s -4,-2.5 -4,-2.5 s 5,0.25 5,2.5 s -5,2.5 -5,2.5 Z" stroke-width="1" stroke-linecap="round" stroke-linejoin="round" stroke="currentColor" fill="currentColor"/>
	
	<path id="mouth.smirking" d="M 0,0 s 5,0 7,-1 l 4,-2 s -1,3 -4,3 z" stroke-width="1" stroke-linecap="round" stroke-linejoin="round" stroke="currentColor" fill="currentColor"/>
	
	<g id="mouth.grimacing">
		<rect x="-12" y="-10" width="24" height="10" rx="5" fill="currentColor"/>
		<path d="M 7,-8 a 3,3 0 01 2.949,2.5 h-3.449 v-2.5 h0.5 Z M 5.5,-8 v2.5 h-3 v-2.5 h3 Z M 1.5,-8 v2.5 h-3 v-2.5 h3 Z M -2.5,-8 v2.5 h-3 v-2.5 h3 Z M -7,-8 h0.5 v2.5 h-3.449 a 3,3 0 01 2.949,-2.5 Z M -7,-2 a 3,3 0 01 -2.949,-2.5 h3.449 v2.5 h-0.5 Z M -5.5,-2 v-2.5 h3 v2.5 h-3 Z M -1.5,-2 v-2.5 h3 v2.5 h-3 Z M 2.5,-2 v-2.5 h3 v2.5 h-3 Z M 7,-2 h-0.5 v-2.5 h3.449 a 3,3 0 01 -2.949,2.5 Z" fill="#FFF" />
	</g>
	
	**********************
	
	<ellipse id="eye.1" rx="2.5" ry="3.5" fill="currentColor"/>
	<g id="eyes.normal13" fill="currentColor">
		<ellipse cx="11.5" rx="2.5" ry="3.5"/>
		<ellipse cx="24.5" rx="2.5" ry="3.5"/>
	</g>
	<g id="eyes.normal12" fill="currentColor">
		<ellipse cx="12" rx="2.5" ry="3.5"/>
		<ellipse cx="24" rx="2.5" ry="3.5"/>
	</g>
	
	<path id="eye.smiling" d="M -3,3 s 1,-3 3,-3 s 3,3 3,3" fill="none" stroke-width="2" stroke-linejoin="round" stroke-linecap="round" stroke="#664500"/>
	<path id="eye.smiling2" d="M -4,2 s 1,-2 4,-2 s 4,2 4,2" fill="none" stroke-width="2" stroke-linejoin="round" stroke-linecap="round" stroke="#664500"/>
	
	<path id="eye.closed" d="M 0,0 s 4,-2 8,0" stroke-width="2" stroke-linecap="round" stroke="currentColor" fill="none"/>
	
	<path id="eye.spiral" d="M -5.774,1.444 a 5.7745,5.7745 0 01 5.774,-5.775 a 4.331,4.331 0 01 0,8.662 a 2.8875,2.8875 0 01 0,-5.775 a 1.444,1.444 0 01 0,2.888" stroke-width="1.75" stroke-linecap="round" stroke="currentColor" fill="none"/> <!-- not exact! -->
	
	<path id="eye.squinting" d="M 0,0 s 5,0 8,3 c -5,0 -9,3 -9,3" stroke-width="2" stroke-linecap="round" stroke-linejoin="round" fill="none" stroke="currentColor"/>
	<!-- todo: put the origin on the stroke line, not the actual visual edge, since the 0.5 offset etc. etc.  -->
	<path id="mouth.smiling1" d="M -5,-4.5 s 1,1 5,1 s 5,-1 5,-1 s -1,4 -5,4 s -5,-4 -5,-4 Z" stroke-width="1" fill="currentColor" stroke-linejoin="round" stroke="currentColor"/>
	<path id="mouth.smiling1b" d="M -4,-3.5 s 1.3,3 4,3 s 4,-3 4,-3 s -1.4,1 -4,1 s-4,-1 -4,-1 z" stroke-width="1" fill="currentColor" stroke-linejoin="round" stroke="currentColor"/> smaller
	<path
		id="mouth.smiling1c" stroke-width="1"
		d="M -4,-2.5 s 1.5,1 4,1 s 4,-1 4,-1 s -1.25,2 -4,2 s -4,-2 -4,-2 Z"
		stroke-linejoin="round" stroke-linecap="round" fill="currentColor" stroke="currentColor"/> <!-- m not sure this is quite right, it doenst line up as well .. zz -->
	
	<path id="mouth.smiling1d" d="M -5,-3 s 1,1 5,1 s 5,-1 5,-1 s -1,2.5 -5,2.5 s -5,-2.5 -5,-2.5 z" stroke-width="1" fill="currentColor" stroke-linejoin="round" stroke="currentColor"/>

	<path
		id="mouth.smiling2" stroke-width="1"
		d="M -9,-5.5 s 4,3 9,3 s 9,-3 9,-3 s -3,5 -9,5 s -9,-5 -9,-5 Z"
		stroke-linejoin="round" stroke-linecap="round" fill="currentColor" stroke="currentColor"/>
	<path class='test'
		id="mouth.smiling2b" stroke-width="1"
		d="M -9,-7 s 4,3 9,3 s 9,-3 9,-3 s -3,6.5 -9,6.5 s -9,-6.5 -9,-6.5 Z"
		stroke-linejoin="round" stroke-linecap="round" fill="currentColor" stroke="currentColor"/>
	<path
		id="mouth.smiling2c" stroke-width="1"
		d="M -7,-5.5 s 3,2 7,2 s 7,-2 7,-2 s -3,5 -7,5 s -7,-5 -7,-5 Z"
		stroke-linejoin="round" stroke-linecap="round" fill="currentColor" stroke="currentColor"/>
	<path
		id="mouth.smiling3" stroke-width="1"
		d="M -7,-4.5 s 2 2 7 2 s 7 -2 7 -2 s -1 4 -7 4 s -7 -4 -7 -4 z"
		stroke-linejoin="round" stroke-linecap="round" fill="currentColor" stroke="currentColor"/>
	
	<path id="mouth.smiling4" d="M -7,-6.5 s 3.244 6 7.244 6s6.756 -6 6.756 -6s-2.756 2.588 -6.756 2.588s-7.244 -2.588 -7.244 -2.588z" stroke-width="1" stroke-linejoin="round" stroke-linecap="round" fill="currentColor" stroke="currentColor" color="#664500"/>
	
	<path id="mouth.smiling5" d="M -8,-4 s 3,4 8,4 s 8,-4 8,-4" stroke-width="2" stroke-linecap="round" stroke="currentColor" fill="none"/>
	
	<g id="eye.angry1">
		<use href="F.svg#eyebrow.1" x="-5.5" y="-4.5"/>
		<ellipse cx="0" cy="0" rx="2.5" ry="3.5" fill="currentColor"/>
	</g>
	
	<path id="eyebrow.13"  d="M 0,0 s 2, 0  4,-2" stroke-width="2" stroke-linecap="round" stroke="currentColor" fill="none"/>
	
	<path id="eyebrow.12b" d="M 0,0 s-4,-1 -6, 1" stroke-width="2" stroke-linecap="round" stroke="currentColor" fill="none"/>
	
	<path id="eyebrow.15"  d="M 0,0 s 4,-1  6,-5" stroke-width="2" stroke-linecap="round" stroke="currentColor" fill="none"/>
	
	<path id="eyebrow.11"  d="M 0,0 s 3,-2  7, 0" stroke-width="2" stroke-linecap="round" stroke="currentColor" fill="none"/>
	<path id="eyebrow.10"  d="M 0,0 s 3,-3  7,-1" stroke-width="2" stroke-linecap="round" stroke="currentColor" fill="none"/>
	<path id="eyebrow.12"  d="M 0,0 s-4,-1 -7, 1" stroke-width="2" stroke-linecap="round" stroke="currentColor" fill="none"/>
	
	<path id="eyebrow.9"   d="M 0,0 s 3,-2  7,-2" stroke-width="2" stroke-linecap="round" stroke="currentColor" fill="none"/>
	<path id="eyebrow.2"   d="M 0,0 s-4, 0 -7, 4" stroke-width="2" stroke-linecap="round" stroke="currentColor" fill="none"/>
	<path id="eyebrow.3"   d="M 0,0 c 6, 0  7,-4 7,-4" stroke-width="2" stroke-linecap="round" stroke="currentColor" fill="none"/>
	<path id="eyebrow.3b"  d="M 0,0 c 5, 0  7,-4 7,-4" stroke-width="2" stroke-linecap="round" stroke="currentColor" fill="none"/>
	<path id="eyebrow.4"   d="M 0,0 s 4, 0  7,-4" stroke-width="2" stroke-linecap="round" stroke="currentColor" fill="none"/> <!-- same as 2 -->
	<path id="eyebrow.6"   d="M 0,0 s-2, 3 -7, 5" stroke-width="2" stroke-linecap="round" stroke="currentColor" fill="none"/>
	<path id="eyebrow.8"   d="M 0,0 s-5, 1 -7, 6" stroke-width="2" stroke-linecap="round" stroke="currentColor" fill="none"/>
	<path id="eyebrow.8b"  d="M 0,0 s-1,-6 -7,-6" stroke-width="2" stroke-linecap="round" stroke="currentColor" fill="none"/>
	
	<path id="eyebrow.7"   d="M 0,0 s-5,-3 -8, 1" stroke-width="2" stroke-linecap="round" stroke="currentColor" fill="none"/>
	<path id="eyebrow.14"  d="M 0,0 s-5,-1 -8, 2" stroke-width="2" stroke-linecap="round" stroke="currentColor" fill="none"/>
	<path id="eyebrow.1"   d="M 0,0 s 5, 0  8, 3" stroke-width="2" stroke-linecap="round" stroke="currentColor" fill="none"/>
	<path id="eyebrow.5"   d="M 0,0 s 5,-1  8, 3" stroke-width="2" stroke-linecap="round" stroke="currentColor" fill="none"/>
	<path id="eyebrow.2b"  d="M 0,0 s 4, 0  8, 4" stroke-width="2" stroke-linecap="round" stroke="currentColor" fill="none"/>
	
	<!-- dont use this -->
	<path id="eyebrow.6a9" d="M 0,0 a 9,9 0 00 -6,0" stroke-width="2" stroke-linecap="round" stroke="currentColor" fill="none"/>
	
	<g id="eye.shiny">
		<circle r="5.5" fill="#F5F8FA"/>
		<circle r="5" cy="-0.5" fill="#292F33"/>
		<g transform="rotate(45)">
			<ellipse cx="-2.667" cy="-0.353" rx="2.0825" ry="2.6745" fill="#FFF"/>
			<ellipse cx="2.837" cy="-0.666" rx="0.9145" ry="1.175" fill="#FFF"/>
		</g>
	</g>
	
	<g id="tongue.1">
		<path d="M -6,-6.0365 v-6.961 s 5.709,1.333 12,0.041 v6.92 c 0,3 -2,6 -6,6 s -6,-3 -6,-6 Z" fill="#EA596E" /> <!-- had to go back to a very old release to get a decent version of this -->
		<path d="M 0.546,-4.7022 v-7.693 l -1.092,-0.006 v7.699 a 0.546,0.546 0 00 1.092,0 Z" fill="#DD2E44"/>
	</g>
	
	<path id="mouth.confused" d="M -13,3 c 2,-5 13,-5 13,-3 c 0,1 -8,-1 -13,3 Z" fill="currentColor"/>
	
	<path id="mouth.smiling1f" d="M -5,-4 s 1 1 5 1s5 -1 5 -1s-1 4 -5 4s-5 -4 -5 -4z" fill="currentColor"/>
	
	
	<path id="hand.coveringmouth" d="M 0,0 c -2.529,-2.715 -2.602,-6.836 -0.318,-9.629 c 0.81,-0.99 1.496,-2.074 2.159,-3.167 l 1.668,-2.758 s 0.58,-1.075 1.656,-0.494 c 1.073,0.581 0.493,1.655 0.493,1.655 l -1.842,4.158 c 0.549,0.565 1.087,-0.178 1.087,-0.178 l 0.222,-0.208 l 0.497,-0.464 l 6.203,-5.781 s 0.789,-0.944 1.622,-0.051 c 0.832,0.893 -0.164,1.614 -0.164,1.614 l -5.866,5.469 c 0.151,0.136 0.614,0.6 0.763,0.745 l 6.278,-5.848 s 0.789,-0.945 1.621,-0.051 c 0.833,0.892 -0.164,1.614 -0.164,1.614 l -6.276,5.85 c 0.132,0.158 0.469,0.54 0.593,0.698 l 5.413,-5.046 s 0.79,-0.944 1.622,-0.051 c 0.833,0.893 -0.165,1.614 -0.165,1.614 l -5.755,5.367 c 0.091,0.204 0.482,0.742 0.55,0.947 l 4.148,-3.866 s 0.789,-0.945 1.621,-0.052 c 0.833,0.893 -0.165,1.614 -0.165,1.614 l -6.699,6.245 s -0.29,0.271 -0.447,0.418 c -2.959,2.758 -7.596,2.595 -10.355,-0.364 Z" fill="#F4900C"/> <!-- is this from (very old) twemoji/svg/1f450.svg ? -->
	
	HANDS:
	yawning: <path d="M 22.468,27.371 l -6.698,6.244 l -0.447,0.418 c -2.959,2.758 -7.596,2.595 -10.355,-0.364 c -2.529,-2.715 -2.602,-6.836 -0.318,-9.629 c 0.81,-0.989 1.496,-2.074 2.159,-3.167 l 1.668,-2.758 s 0.58,-1.074 1.655,-0.493 c 1.073,0.581 0.493,1.655 0.493,1.655 l -1.842,4.158 c 0.549,0.565 1.087,-0.179 1.087,-0.179 l 0.22,-0.207 l 0.497,-0.464 l 6.203,-5.781 s 0.788,-0.944 1.621,-0.051 c 0.832,0.892 -0.164,1.614 -0.164,1.614 l -5.866,5.468 c 0.152,0.137 0.614,0.601 0.764,0.746 l 6.278,-5.848 s 0.789,-0.944 1.621,-0.051 c 0.833,0.892 -0.164,1.614 -0.164,1.614 l -6.276,5.85 c 0.133,0.158 0.469,0.54 0.594,0.698 l 5.413,-5.046 s 0.79,-0.943 1.622,-0.051 c 0.834,0.894 -0.164,1.615 -0.164,1.615 l -5.755,5.366 c 0.091,0.204 0.481,0.742 0.55,0.947 l 4.148,-3.866 s 0.789,-0.945 1.621,-0.052 s -0.165,1.614 -0.165,1.614 Z" fill="#F4900C"/>
	facewithhandovermouth: <path d="M 26.503,27.371 l -6.699,6.244 l -0.447,0.418 c -2.959,2.758 -7.596,2.595 -10.355,-0.364 c -2.529,-2.715 -2.602,-6.836 -0.318,-9.629 c 0.81,-0.989 1.496,-2.074 2.159,-3.167 l 1.668,-2.758 s 0.58,-1.074 1.655,-0.493 c 1.073,0.581 0.493,1.655 0.493,1.655 l -1.842,4.158 c 0.549,0.565 1.087,-0.179 1.087,-0.179 l 0.222,-0.207 l 0.497,-0.464 l 6.203,-5.781 s 0.788,-0.944 1.621,-0.051 c 0.832,0.892 -0.164,1.614 -0.164,1.614 l -5.866,5.468 c 0.152,0.137 0.614,0.601 0.764,0.746 l 6.278,-5.848 s 0.789,-0.944 1.621,-0.051 c 0.833,0.892 -0.164,1.614 -0.164,1.614 l -6.276,5.85 c 0.133,0.158 0.469,0.54 0.594,0.698 l 5.413,-5.046 s 0.79,-0.943 1.622,-0.051 c 0.834,0.894 -0.164,1.615 -0.164,1.615 l -5.755,5.366 c 0.091,0.204 0.481,0.742 0.55,0.947 l 4.147,-3.866 s 0.789,-0.945 1.621,-0.052 s -0.165,1.614 -0.165,1.614 Z" fill="#F4900C"/>
	
	smilingfacewithopenhands:
	<g>
		<path d="M 13.393,23.154 c 0.612,0.879 1.243,1.75 1.972,2.532 c 2.057,2.216 2.211,5.666 0.24,8.069 c -2.151,2.62 -6.02,3 -8.64,0.849 l -0.395,-0.326 l -5.93,-4.868 s -0.872,-0.55 -0.222,-1.341 c 0.648,-0.793 1.357,-0.041 1.357,-0.041 l 3.672,3.012 c 0.047,-0.174 0.346,-0.642 0.41,-0.82 l -5.094,-4.184 s -0.873,-0.551 -0.222,-1.342 c 0.648,-0.79 1.358,-0.042 1.358,-0.042 l 4.792,3.934 c 0.096,-0.138 0.356,-0.474 0.459,-0.614 l -5.555,-4.562 s -0.872,-0.55 -0.222,-1.341 c 0.648,-0.79 1.358,-0.041 1.358,-0.041 l 5.557,4.56 c 0.118,-0.129 0.48,-0.543 0.6,-0.663 l -5.193,-4.266 s -0.871,-0.55 -0.223,-1.341 c 0.65,-0.79 1.359,-0.042 1.359,-0.042 l 5.491,4.508 l 0.44,0.361 s -0.266,-0.211 0.197,0.163 c 1.062,0.859 0.918,0.091 0.918,0.091 l -1.758,-3.38 s -0.543,-0.868 0.324,-1.409 c 0.868,-0.542 1.411,0.325 1.411,0.325 l 1.539,2.219 Z" fill="#F4900C"/>
		<path d="M 11.182,25.478 c 0.224,0.168 0.605,0.215 0.605,0.215 c -2.35,3.161 0.15,6.693 0.4,7.057 c 0.229,0.334 -0.309,0.473 -0.521,0.188 c -3.077,-4.146 -0.484,-7.46 -0.484,-7.46 Z" fill="#B55005" />
	</g>
	<!-- hand -->
	<g>
		<path d="M 35.583,28.07 c 0.649,0.791 -0.223,1.341 -0.218,1.342 l -5.93,4.868 l -0.396,0.326 c -2.62,2.151 -6.49,1.771 -8.64,-0.849 c -1.973,-2.403 -1.819,-5.852 0.239,-8.069 c 0.73,-0.783 1.361,-1.654 1.974,-2.533 l 1.538,-2.219 s 0.542,-0.867 1.411,-0.325 c 0.867,0.541 0.324,1.409 0.324,1.409 l -1.758,3.38 s -0.27,0.913 0.918,-0.091 c 1.187,-1.004 0.197,-0.163 0.197,-0.163 l 0.439,-0.361 l 5.491,-4.508 s 0.709,-0.748 1.359,0.042 c 0.647,0.791 -0.223,1.341 -0.223,1.341 l -5.193,4.266 c 0.121,0.12 0.483,0.534 0.6,0.663 l 5.558,-4.56 s 0.709,-0.749 1.357,0.041 c 0.65,0.791 -0.223,1.341 -0.223,1.341 l -5.555,4.562 c 0.102,0.139 0.363,0.475 0.459,0.614 l 4.792,-3.934 s 0.71,-0.748 1.358,0.042 c 0.65,0.791 -0.223,1.342 -0.223,1.342 l -5.094,4.184 c 0.064,0.177 0.363,0.646 0.41,0.82 l 3.672,-3.012 s 0.709,-0.752 1.357,0.041 Z" fill="#F4900C"/>
		<path d="M 24.765,25.576 s 2.594,3.314 -0.484,7.46 c -0.212,0.285 -0.75,0.146 -0.521,-0.188 c 0.25,-0.364 2.75,-3.896 0.4,-7.057 c -0.001,0.001 0.381,-0.046 0.605,-0.215 Z" fill="#B55005" />
	</g>	
	
	<path id="glasses" d="M 16.767,-2.542 c 0.248,0.239 0.247,1.196 -0.001,1.436 c -0.246,0.238 -1.477,0.515 -1.722,1.232 c -0.246,0.718 -0.248,4.959 -2.213,6.424 c -1.838,1.371 -6.128,1.784 -8.847,0.238 c -2.373,-1.349 -2.289,-4.19 -2.724,-5.881 c -0.155,-0.603 -0.592,-0.907 -1.26,-0.907 s -1.105,0.304 -1.26,0.907 c -0.435,1.692 -0.352,4.532 -2.724,5.881 c -2.719,1.547 -7.009,1.134 -8.848,-0.238 c -1.964,-1.466 -1.966,-5.706 -2.213,-6.424 c -0.245,-0.717 -1.476,-0.993 -1.722,-1.232 c -0.248,-0.24 -0.248,-1.197 -0.001,-1.436 c 0.171,-0.166 1.267,0.274 2.376,-0.291 c 2.288,-1.166 8.07,-2.291 11.833,0.376 c 0.403,0.286 2.087,0.334 2.558,0.313 c 0.471,0.02 2.155,-0.028 2.558,-0.313 c 3.764,-2.667 9.546,-1.542 11.834,-0.376 c 1.109,0.565 2.205,0.125 2.376,0.291 Z M -3.427,1.108 c 0.043,-0.608 0.176,-1.842 -0.829,-2.459 c -1.134,-0.698 -3.462,-0.741 -4.155,-0.741 c -1.513,0 -2.992,0.282 -4.052,0.643 c -0.668,0.228 -0.464,1.711 -0.388,2.318 c 0.119,0.953 0.435,3.501 1.265,4.12 c 0.664,0.495 2.362,0.842 3.587,0.842 h0.001 c 1.106,0 2.163,-0.281 2.974,-0.743 c 1.323,-0.753 1.52,-2.875 1.597,-3.98 Z M 12.851,0.855 c 0.076,-0.607 0.279,-2.081 -0.389,-2.309 c -1.061,-0.361 -2.539,-0.638 -4.052,-0.638 c -0.693,0 -3.02,0.048 -4.155,0.746 c -1.005,0.617 -0.871,1.86 -0.829,2.468 c 0.077,1.105 0.274,3.214 1.597,3.966 c 0.812,0.462 1.868,0.743 2.975,0.743 h0.001 c 1.225,0 2.923,-0.347 3.587,-0.842 c 0.83,-0.619 1.146,-3.18 1.265,-4.134 Z" fill="currentColor"/>
	
	<g id="nose_steam">
		<path d="M -5,8 l 5,-8 l -2,8 z" stroke-linecap="round" stroke-linejoin="round" stroke-width="2" fill="#F5F8FA" stroke="#F5F8FA"/>
		<circle cx="-10" cy="12" r="3" fill="#E1E8ED"/>
		<circle cx="-8" cy="9" r="3" fill="#E1E8ED"/>
		<circle cx="-4" cy="11" r="4" fill="#E1E8ED"/>
	</g>
	
	<path id="dollar_sign" d="M 0,0 c -0.518,0 -0.939,-0.42 -0.939,-0.938 v-0.47 c -1.226,-0.238 -2.157,-0.915 -2.157,-1.594 c 0,-0.462 0.336,-0.824 0.766,-0.824 c 0.296,0 0.544,0.173 0.806,0.356 c 0.38,0.264 0.81,0.564 1.56,0.564 c 0.743,0 1.203,-0.396 1.203,-0.762 c 0,-0.501 -0.772,-0.822 -1.589,-1.162 c -1.141,-0.474 -2.434,-1.012 -2.434,-2.323 c 0,-1.061 0.701,-1.902 1.845,-2.235 v-0.426 c 0,-0.518 0.421,-0.939 0.939,-0.939 s 0.939,0.421 0.939,0.939 v0.393 c 0.956,0.218 1.858,0.738 1.858,1.474 c 0,0.369 -0.257,0.766 -0.821,0.766 c -0.303,0 -0.521,-0.164 -0.731,-0.323 c -0.274,-0.207 -0.585,-0.441 -1.21,-0.441 c -0.177,0 -1.061,0.034 -1.061,0.693 c 0,0.4 0.715,0.676 1.471,0.968 c 1.137,0.439 2.552,0.985 2.551,2.389 c 0,1.237 -0.766,2.144 -2.062,2.459 l 0.005,0.498 c 0,0.517 -0.421,0.938 -0.939,0.938 Z" fill="currentColor"/>
	
	<g id="hands_scream">
		<path d="M 1.404,19 c 4.639,0 7.064,10.04 5.874,17 h-6.46 c 1.904,-6.994 -1.65,-14.06 -0.568,-16.803 l 0.001,-0.014 c 0.313,-0.117 0.689,-0.183 1.153,-0.183 Z" fill="currentColor"/>
		<!-- <path d="M 1.404,19 c 4.639,0 7.064,10.04 5.874,17 h-6.46 c 2.031,-7.46 -2.148,-15.002 -0.286,-17.293 c -0.114,0.14 -0.209,0.297 -0.281,0.476 c 0.313,-0.117 0.689,-0.183 1.153,-0.183 Z" fill="#FCAB40"/> -->
		<path d="M 35.753,19.183 c 1.086,2.728 -2.476,9.772 -0.57,16.817 h-6.46 c -1.192,-6.998 1.232,-17 5.873,-17 c 0.466,0 0.843,0.066 1.157,0.183 Z" fill="currentColor" />
	</g>
	
	<!-- licking lips features
<path d="M 7,22 s 2,8 11,8 s 11,-8 11,-8" stroke-width="2" stroke-linecap="round" stroke="currentColor" fill="none" color="#664500"/>
	-->
	
	<!-- the mouth from Sneezing Face might be related to the mouth from Face With Rolling Eyes -->
	<!-- <path d="M 23.109,23.424 c 1.28,0.308 1.985,0.868 1.985,1.576 s -0.901,0.708 -2.536,0.708 c -2.6,0 -6.952,0 -10.036,2.58 a 0.375,0.375 0 01 -0.575,-0.459 c 2.289,-4.465 8.399,-5.072 11.162,-4.405 Z"  fill="#664500"/> -->
	
	<ellipse cx="24.528" cy="14.024" rx="2.096" ry="3.104" fill="#664500" />
	<ellipse cx="11.553" cy="14.024" rx="2.096" ry="3.104" fill="#664500" /> <!-- nerd face and Disguised Face both use these strange eyes -->
	
	<!--translate(\([-0-9.]+,? [-0-9.]+\)) scale(\([-0-9.]+\),? \([-0-9.]+\)) → matrix(\2 0 0 \3 \1)-->
	
	saluting face
	<path d="M 15,27.75 s 2,0.5 6,0.5 s 6,-.5 6,-.5" stroke-width="2" stroke-linecap="round" fill="none" stroke="currentColor" color="#664500"/>
	
	expressionless mouth
	<rect id="mouth.flat" width="16" height="2" rx="1" x="-8" y="-1" fill="currentColor"/>
	
	unamused, expressionless
	<rect width="9" height="2" rx="1" x="7" y="15" fill="#664500"/>
	Flushed etc.. also mouth for pensive face
	<rect width="10" height="2" rx="1" x="13" y="28" fill="#664500"/>
	
	<!-- eyebrow from face with monocle -->
	<path d="M 0,0 c 1,-1 4,-3 7,1" stroke-width="2" stroke-linecap="round" fill="none" stroke="currentColor" transform="translate(7 7.394)" color="#664500"/>
	
	<!-- diagonal mouth -->
	<path d="M 11,27 l 14,-3" stroke-width="2" stroke-linecap="round" stroke="currentColor" fill="none" color="#664500"/>
	
	<!-- mouth used by Alien -->
	<path d="M 15,29 s 1,1 3,1 s 3,-1 3,-1" stroke-linecap="round" fill="none" stroke-width="2" stroke="#292F33"/>
	
	<!-- melting face mouth -->
	<path d="M -7.75,-4 s 2.3,4 7.75,4 c 3.6,0 6.25,-2 6.25,-2" stroke-width="2" stroke-linecap="round" stroke-linejoin="round" stroke="currentColor" fill="none" transform="translate(18.75 23)" color="#664500"/>
	
	<!-- face with monocle mouth -->
	<path d="M 0,0 c 2,-1 4,-1 6,0" stroke-width="2" stroke-linecap="round" fill="none" stroke="currentColor" transform="translate(14,26)" color="#664500"/>
</svg>
