<svg width="144" height="144" xmlns="http://www.w3.org/2000/svg" viewBox="0 0 36 36">
	<defs>
		<g id="eye">
			<circle  fill="#664500" cx="10.875" cy="17.5" r="5"/>
			these are rotated ellipses but i'm tired shh..
			<path fill="#FFF" d="M 11.337,16.836 c -1.044,1.045 -2.55,1.233 -3.364,0.42 c -0.813,-0.812 -0.627,-2.318 0.418,-3.364 c 1.043,-1.045 2.55,-1.233 3.363,-0.42 c 0.813,0.812 0.627,2.318 -0.417,3.364 Z" transform="translate(7.5 15.5) scale(0.833) translate(-7.5 -15.364)"/>
			<g transform="translate(-2 -0.5)">
				<path fill="#FFF" d="M 14.624,19.681 v0.001 c -0.458,0.459 -1.12,0.541 -1.477,0.184 s -0.275,-1.018 0.183,-1.477 c 0.459,-0.459 1.121,-0.542 1.478,-0.185 s 0.276,1.018 -0.184,1.477 Z"/>
			</g>
		</g>
	</defs>
	
	<circle cx="18" cy="18" r="18" fill="#FFCC4D"/>
	<g fill="#664500">
		<!--<path d="M 20.996,28.477 a 0.978,0.978 0 01 -0.309,-0.049 a 8.647,8.647 0 00 -5.375,0 a 1,1 0 11 -0.617,-1.902 a 10.633,10.633 0 01 6.609,0 c 0.525,0.172 0.813,0.736 0.643,1.26 a 1.002,1.002 0 01 -0.951,0.691 Z"/>-->
		<path d="M 8,10 S 10,10 12,8" stroke-width="2" stroke="#664500" fill="none" stroke-linecap="round"/>
		<path d="M 8,10 S 10,10 12,8" stroke-width="2" stroke="#664500" fill="none" stroke-linecap="round" transform="matrix(-1 0 0 1 36 0)"/>
		<!--<path d="M 28.994,10.011 a 0.995,0.995 0 01 -0.994,0.989 c -0.099,0 -2.44,-0.026 -4.707,-2.293 a 1,1 0 11 1.414,-1.414 c 1.651,1.651 3.237,1.706 3.304,1.707 a 1.005,1.005 0 01 0.983,1.011 Z"/>-->
		<!--<path d="M 12.707,8.707 c -2.267,2.267 -4.608,2.293 -4.707,2.293 a 1,1 0 01 -0.01,-2 c 0.085,-0.002 1.662,-0.066 3.303,-1.707 a 1,1 0 01 1.09,-0.216 a 0.998,0.998 0 01 0.324,1.63 Z"/>-->
		<path d="M 14,27 A 4.75,4.75 0 01 22,27" stroke-width="2" stroke="#664500" fill="none" stroke-linecap="round"/>
		<use href="#eye"/>
		<use href="#eye" x="14.25"/>
	</g>
	
	<!--<path fill="#FFF" d="M 24.5,23 a 5.5,5.5 0 10 0,-11 a 5.5,5.5 0 00 0,11 Z"/>
	<path fill="#292F33" d="M 24.5,22 a 5,5 0 10 0,-10 a 5,5 0 00 0,10 Z"/>
	<path fill="#FFF" d="M 11.5,23 a 5.5,5.5 0 10 0,-11 a 5.5,5.5 0 00 0,11 Z"/>
	<path fill="#292F33" d="M 11.5,22 a 5,5 0 10 0,-10 a 5,5 0 00 0,10 Z"/>-->
<!--	<rect fill="#65471B" x="6" y="12.5" width="10" height="10" rx="10"/>
	<rect fill="#65471B" x="20" y="12.5" width="10" height="10" rx="10"/>
	
-->	
	14.25 ii
	
	<!--<path fill="#FFF" d="M 24.337,16.836 c -1.044,1.045 -2.55,1.233 -3.364,0.42 c -0.813,-0.812 -0.627,-2.318 0.418,-3.364 c 1.043,-1.045 2.55,-1.233 3.363,-0.42 c 0.813,0.812 0.627,2.318 -0.417,3.364 Z"/>
	
	<g transform="translate(-0.75 -0.5)">
	<path fill="#FFF" d="M 27.625,19.681 v0.001 c -0.459,0.459 -1.121,0.541 -1.478,0.184 s -0.275,-1.018 0.183,-1.477 c 0.459,-0.459 1.121,-0.542 1.478,-0.185 s 0.275,1.018 -0.183,1.477 Z"/>
	</g>
	
	<path fill="#FFF" d="M 11.337,16.836 c -1.044,1.045 -2.55,1.233 -3.364,0.42 c -0.813,-0.812 -0.627,-2.318 0.418,-3.364 c 1.043,-1.045 2.55,-1.233 3.363,-0.42 c 0.813,0.812 0.627,2.318 -0.417,3.364 Z"/>
	
	<g transform="translate(-2 -0.5)">
		<path fill="#FFF" d="M 14.624,19.681 v0.001 c -0.458,0.459 -1.12,0.541 -1.477,0.184 s -0.275,-1.018 0.183,-1.477 c 0.459,-0.459 1.121,-0.542 1.478,-0.185 s 0.276,1.018 -0.184,1.477 Z"/>
	</g>-->
</svg>
