<svg viewBox="0 0 36 36" xmlns="http://www.w3.org/2000/svg">
	<use href="F.svg#bg.horns" color="#AA8DD8"/>
	
	AHA
	122.5, 118
	<path id="mouth" d="M -7,-4.708 s 2 2 7 2 s 7 -2 7 -2 s -1 4 -7 4 s -7 -4 -7 -4 z" transform="matrix(1 0 0 -1 18 25.75) scale(.817 0.8475)" stroke-width="1.416" stroke-linejoin="round" stroke-linecap="round" fill="currentColor" stroke="currentColor" color="#553986"/> <!-- this is close but ugh. not sure..-->
	<!--<path id="mouth" d="M 24.282,29.595 c 0.063,0.258 -0.051,0.531 -0.275,0.665 c -0.09,0.053 -0.189,0.079 -0.289,0.079 c -0.153,0 -0.304,-0.064 -0.412,-0.176 c -0.014,-0.014 -1.582,-1.521 -5.305,-1.521 s -5.291,1.506 -5.306,1.522 c -0.188,0.19 -0.476,0.227 -0.703,0.092 c -0.227,-0.136 -0.337,-0.401 -0.274,-0.661 c 0.037,-0.158 0.991,-3.848 6.282,-3.848 c 5.297,0 6.243,3.683 6.282,3.848 Z" fill="#553986"/> <!- idk.. scaled weirdly? .86356 ? i honestly can't figure this one out, it's given me more trouble than any of the other similar mouths. -->-->
	
	<!-- note that the eyes use fake arcs, unlike the eyebrows -->
	<path id="eye1" d="M -2,-1 s 0,-2 2,-2 s 2,2 2,2 v2 s 0,2 -2,2 s -2,-2 -2,-2 v-2 Z" transform="translate(14,19)" fill="#553986"/>
	<path id="eye2" d="M -2,-1 s 0,-2 2,-2 s 2,2 2,2 v2 s 0,2 -2,2 s -2,-2 -2,-2 v-2 Z" transform="translate(22,19)" fill="#553986"/>
	
	<path id="eyebrow1" d="M  9,13 L 15,16" stroke-width="4" stroke-linecap="round" stroke="#553986"/>
	<path id="eyebrow2" d="M 27,13 L 21,16" stroke-width="4" stroke-linecap="round" stroke="#553986"/>
</svg>
