<svg viewBox="0 0 36 36" xmlns="http://www.w3.org/2000/svg">
	<circle cx="18" cy="18" r="18" fill="#FFCC4D" />
	<path d="M 25.485,29.879 c 0.055,0.218 -0.043,0.445 -0.239,0.557 c -0.077,0.043 -0.162,0.064 -0.246,0.064 c -0.128,0 -0.256,-0.05 -0.352,-0.145 c -0.018,-0.018 -1.954,-1.855 -6.648,-1.855 s -6.629,1.837 -6.648,1.856 c -0.161,0.156 -0.405,0.186 -0.6,0.077 c -0.194,-0.112 -0.292,-0.337 -0.237,-0.554 c 0.045,-0.179 1.167,-4.379 7.485,-4.379 c 6.317,0 7.44,4.2 7.485,4.379 Z" fill="#664500" />
	<path d="M 15.707,17.293 c 0.391,0.391 0.391,1.023 0,1.414 c -0.195,0.195 -0.451,0.293 -0.707,0.293 c -0.012,0 -0.024,-0.007 -0.037,-0.007 c 0.018,0.167 0.037,0.333 0.037,0.507 c 0,1.934 -1.119,3.5 -2.5,3.5 s -2.5,-1.566 -2.5,-3.5 c 0,-1.129 0.389,-2.123 0.982,-2.763 c -2.058,-0.715 -3.954,-0.737 -3.983,-0.737 c -0.552,-0.002 -0.999,-0.45 -0.998,-1.002 c 0,-0.551 0.447,-0.998 0.999,-0.998 c 0.221,0 5.452,0.038 8.707,3.293 Z" fill="#664500" />
	<path d="M 29,14 c 0.552,0 0.998,0.447 0.999,0.998 c 0.001,0.552 -0.446,1 -0.997,1.002 c -0.03,0 -1.926,0.022 -3.984,0.737 c 0.593,0.64 0.982,1.634 0.982,2.763 c 0,1.934 -1.119,3.5 -2.5,3.5 s -2.5,-1.566 -2.5,-3.5 c 0,-0.174 0.02,-0.34 0.036,-0.507 c -0.012,0 -0.023,0.007 -0.036,0.007 c -0.256,0 -0.512,-0.098 -0.707,-0.293 c -0.391,-0.391 -0.391,-1.023 0,-1.414 c 3.256,-3.255 8.486,-3.293 8.707,-3.293 Z" fill="#664500" />
	</svg>
