<svg viewBox="0 0 36 36" xmlns="http://www.w3.org/2000/svg">
	<circle fill="#AA8DD8" cx="18" cy="18" r="18"/>
	<path d="M 10,4 c 0.693,0 1.337,0.359 1.701,0.948 c 0.365,0.59 0.398,1.326 0.088,1.946 l -2,4 c -0.339,0.678 -1.032,1.106 -1.789,1.106 c -6.328,0 -8,-6.541 -8,-10 c 0,-0.809 0.487,-1.538 1.235,-1.847 c 0.746,-0.31 1.608,-0.139 2.179,0.433 c 0.955,0.948 4.006,3.414 6.586,3.414 Z" fill="#AA8DD8" />
	<path d="M 34.766,0.153 c 0.747,0.309 1.234,1.038 1.234,1.847 c 0,3.459 -1.672,10 -8,10 c -0.758,0 -1.45,-0.428 -1.789,-1.105 l -2,-4 c -0.309,-0.62 -0.276,-1.357 0.088,-1.946 c 0.364,-0.59 1.008,-0.949 1.701,-0.949 c 2.589,0 5.7,-2.528 6.586,-3.413 c 0.573,-0.573 1.43,-0.745 2.18,-0.434 Z" fill="#AA8DD8" />
	<g stroke-width="4" stroke-linecap="round" stroke="#553986">
		<line x1="9" y1="13" x2="15" y2="16"/>
		<line x1="27" y1="13" x2="21" y2="16"/>
		<line x1="14" y1="18" x2="14" y2="20"/>
		<line x1="22" y1="18" x2="22" y2="20"/>
	</g>
	<path d="M 24.282,29.595 c 0.063,0.258 -0.051,0.531 -0.275,0.665 c -0.09,0.053 -0.189,0.079 -0.289,0.079 c -0.153,0 -0.304,-0.064 -0.412,-0.176 c -0.014,-0.014 -1.582,-1.521 -5.305,-1.521 s -5.291,1.506 -5.306,1.522 c -0.188,0.19 -0.476,0.227 -0.703,0.092 c -0.227,-0.136 -0.337,-0.401 -0.274,-0.661 c 0.037,-0.158 0.991,-3.848 6.282,-3.848 c 5.297,0 6.243,3.683 6.282,3.848 Z" fill="#553986"/>
</svg>
