<svg viewBox="0 0 36 36" xmlns="http://www.w3.org/2000/svg">
	<circle cx="18" cy="18" r="18" fill="#FFCC4D" />
	<path d="M 16,18 c -0.419,0 -0.809,-0.265 -0.949,-0.684 c -0.203,-0.599 -1.017,-2.316 -2.051,-2.316 c -1.062,0 -1.888,1.827 -2.051,2.316 c -0.175,0.523 -0.738,0.808 -1.265,0.632 c -0.524,-0.174 -0.807,-0.741 -0.632,-1.265 c 0.125,-0.376 1.304,-3.683 3.948,-3.683 s 3.823,3.307 3.949,3.684 c 0.175,0.524 -0.108,1.091 -0.632,1.265 c -0.106,0.034 -0.213,0.051 -0.317,0.051 Z" fill="#664500" />
	<path d="M 26,18 c -0.419,0 -0.809,-0.265 -0.948,-0.684 c -0.203,-0.599 -1.019,-2.316 -2.052,-2.316 c -1.062,0 -1.889,1.827 -2.052,2.316 c -0.175,0.523 -0.736,0.808 -1.265,0.632 c -0.523,-0.174 -0.807,-0.741 -0.632,-1.265 c 0.126,-0.376 1.304,-3.683 3.949,-3.683 s 3.823,3.307 3.948,3.684 c 0.175,0.524 -0.108,1.091 -0.632,1.265 c -0.105,0.034 -0.212,0.051 -0.316,0.051 Z" fill="#664500" />
	<path d="M 18,22 c 3.623,0 6.027,-0.422 9,-1 c 0.679,-0.132 2,0 2,2 c 0,4 -4.596,9 -11,9 c -6.405,0 -11,-5 -11,-9 c 0,-2 1.321,-2.131 2,-2 c 2.973,0.578 5.377,1 9,1 Z" fill="#664500" />
	<path d="M 9,23 s 3,1 9,1 s 9,-1 9,-1 s -1.344,6.75 -9,6.75 s -9,-6.75 -9,-6.75 Z" fill="#FFF" />
	<path d="M 18,27.594 c -3.596,0 -6.272,-0.372 -7.937,-0.745 l -0.825,-1.871 c 0.823,0.312 3.889,0.897 8.763,0.897 c 4.954,0 8.037,-0.616 8.864,-0.938 l -0.701,1.842 c -1.634,0.38 -4.419,0.815 -8.164,0.815 Z" fill="#664500" />
	</svg>
