<svg viewBox="0 0 36 36" xmlns="http://www.w3.org/2000/svg">
	<use href="F.svg#bg.cat"/>
		
	<path d="M 25.327,25.622 c 0.153,0.133 0.211,0.344 0.147,0.536 c -0.386,1.156 -1.817,3.342 -4.475,3.342 h-7.008 c -0.087,-0.002 -0.169,-0.025 -0.24,-0.065 v-0.001 h-0.001 v-0.001 c -0.149,-0.086 -0.25,-0.248 -0.25,-0.433 c 0,-0.276 0.224,-0.5 0.5,-0.5 c 0.049,0 4.905,-0.012 6.776,-0.947 l 4,-2 c 0.182,-0.09 0.399,-0.063 0.551,0.069 Z" fill="#292F33" />
	<ellipse cx="12" cy="14.5" rx="2" ry="3.5" fill="#292F33"/>
	<ellipse cx="24" cy="14.5" rx="2" ry="3.5" fill="#292F33"/>
	
	<use href="F.svg#eyebrow.2b" transform="translate(7 7) scale(1 1)" color="#292F33"/>
	<use href="F.svg#eyebrow.2b" transform="translate(29 7) scale(-1 1)" color="#292F33"/>
	
	<use href="F.svg#nose.cat"/>
</svg>
