<svg viewBox="0 0 36 36" xmlns="http://www.w3.org/2000/svg">
	<!-- this is just GrinningCatWithSmilingEyes, with tears added -->
	<use href="F.svg#bg.cat"/>
	
	<use id="mouth" href="F.svg#mouth.cat_grin"/>
	
	<use id="eye1" href="F.svg#mouth.smiling1c" transform="matrix(1 0 0 -1 12 15.5)" color="#292F33"/>
	<use id="eye2" href="F.svg#mouth.smiling1c" transform="matrix(1 0 0 -1 24 15.5)" color="#292F33"/>
	
	<use id="eyebrow1" href="F.svg#eyebrow.2" transform="matrix(1 0 0 1 12 11)" color="#292F33"/>
	<use id="eyebrow2" href="F.svg#eyebrow.2" transform="matrix(-1 0 0 1 24 11)" color="#292F33"/>
	
	<use href="F.svg#nose.cat"/>
	
	<!-- tears -->
	<path d="M 27,19 c 5,2 9,5 9,10 c 0,4 -3,4 -3,4 c -6,0 -2,-8 -6,-14 Z" fill="#5DADEC"/>
	<path d="M 9,19 c -4,6 0,14 -6,14 c 0,0 -3,0 -3,-4 c 0,-5 4,-8 9,-10 Z" fill="#5DADEC"/>
</svg>
