<svg viewBox="0 0 36 36" xmlns="http://www.w3.org/2000/svg">
	<use href="F.svg#cat_face_bg"/>
	<path d="M 18,19.5 c 3,0 3,0.5 3,1.5 s -1.5,3 -3,3 s -3,-2 -3,-3 s -0.001,-1.5 3,-1.5 Z" fill="#E75A70" />
	<path d="M 2,3 c 0.447,-1.342 5.64,1 6.64,2 c 0,0 -4.64,3 -5.64,6 c 0,0 -2,-5 -1,-8 Z" fill="#F18F26" />
	<path d="M 34,3 c 1,3 -1,8 -1,8 c -1,-3 -5.64,-6 -5.64,-6 c 1,-1 6.193,-3.342 6.64,-2 Z" fill="#F18F26" />
	<path d="M 4.934,5.603 c 0,-1.414 6.066,1.397 5.066,2.397 s -2,1.603 -3,2.603 s -2.066,-4 -2.066,-5 Z" fill="#FFCC4D" />
	<path d="M 31.066,5.603 c 0,1 -1.066,6 -2.066,5 s -2,-1.603 -3,-2.603 s 5.066,-3.811 5.066,-2.397 Z" fill="#FFCC4D" />
	<path d="M 0.701,25 c 0.108,0 0.217,-0.035 0.31,-0.106 c 0.036,-0.029 3.718,-2.869 9.951,-2.395 c 0.28,0.041 0.516,-0.185 0.537,-0.46 s -0.185,-0.516 -0.46,-0.536 c -6.628,-0.515 -10.486,2.478 -10.648,2.605 c -0.217,0.171 -0.254,0.485 -0.083,0.702 c 0.099,0.125 0.245,0.19 0.393,0.19 Z" fill="#FEE7B8" />
	<path d="M 9.569,20.337 c 0.213,0 0.41,-0.137 0.476,-0.35 c 0.083,-0.264 -0.064,-0.544 -0.328,-0.627 c -5.076,-1.585 -9.189,-0.39 -9.362,-0.338 c -0.264,0.079 -0.414,0.357 -0.335,0.622 c 0.08,0.265 0.358,0.416 0.623,0.335 c 0.04,-0.011 3.987,-1.161 8.777,0.336 c 0.049,0.015 0.1,0.022 0.149,0.022 Z" fill="#FEE7B8" />
	<path d="M 35.299,25 c 0.148,0 0.294,-0.065 0.393,-0.19 c 0.171,-0.217 0.134,-0.531 -0.083,-0.702 c -0.162,-0.127 -4.02,-3.12 -10.648,-2.605 c -0.275,0.02 -0.481,0.261 -0.46,0.536 s 0.257,0.501 0.537,0.46 c 6.233,-0.474 9.915,2.366 9.951,2.395 c 0.093,0.071 0.202,0.106 0.31,0.106 Z" fill="#FEE7B8" />
	<path d="M 26.431,20.337 c 0.049,0 0.1,-0.007 0.149,-0.022 c 4.79,-1.497 8.737,-0.347 8.777,-0.336 c 0.265,0.081 0.543,-0.07 0.623,-0.335 c 0.079,-0.265 -0.071,-0.543 -0.335,-0.622 c -0.173,-0.052 -4.286,-1.247 -9.362,0.338 c -0.264,0.083 -0.411,0.363 -0.328,0.627 c 0.065,0.213 0.263,0.35 0.476,0.35 Z" fill="#FEE7B8" />
	<path d="M 25.327,25.622 c 0.153,0.133 0.211,0.344 0.147,0.536 c -0.386,1.156 -1.817,3.342 -4.475,3.342 h-7.008 c -0.087,-0.002 -0.169,-0.025 -0.24,-0.065 v-0.001 h-0.001 v-0.001 c -0.149,-0.086 -0.25,-0.248 -0.25,-0.433 c 0,-0.276 0.224,-0.5 0.5,-0.5 c 0.049,0 4.905,-0.012 6.776,-0.947 l 4,-2 c 0.182,-0.09 0.399,-0.063 0.551,0.069 Z" fill="#292F33" />
	<ellipse cx="12" cy="14.5" rx="2" ry="3.5" fill="#292F33"/>
	<ellipse cx="24" cy="14.5" rx="2" ry="3.5" fill="#292F33"/>
	<path d="M 21,12 c -0.256,0 -0.512,-0.098 -0.707,-0.293 c -0.391,-0.391 -0.391,-1.023 0,-1.414 c 4.244,-4.244 8.526,-4.293 8.707,-4.293 c 0.553,0 1,0.448 1,1 c 0,0.551 -0.445,0.998 -0.995,1 c -0.065,0.001 -3.687,0.096 -7.298,3.707 c -0.195,0.195 -0.451,0.293 -0.707,0.293 Z" fill="#292F33"/>
	<path d="M 15,12 c -0.256,0 -0.512,-0.098 -0.707,-0.293 c -3.626,-3.625 -7.262,-3.707 -7.298,-3.707 c -0.551,-0.006 -0.995,-0.455 -0.992,-1.005 c 0.003,-0.551 0.447,-0.995 0.997,-0.995 c 0.18,0 4.463,0.049 8.707,4.293 c 0.391,0.391 0.391,1.023 0,1.414 c -0.195,0.195 -0.451,0.293 -0.707,0.293 Z" fill="#292F33"/>
</svg>
