<svg viewBox="0 0 36 36" xmlns="http://www.w3.org/2000/svg">
	<circle fill="#4289C1" cx="29" cy="3" r="2"/>
	<circle fill="#4289C1" cx="33" cy="8" r="3"/>
	<circle fill="#4289C1" cx="33" cy="4" r="3"/>
	<circle fill="#4289C1" cx="7" cy="3" r="2"/>
	<circle fill="#4289C1" cx="3" cy="8" r="3"/>
	<circle fill="#4289C1" cx="3" cy="4" r="3"/>
	<circle cx="18" cy="18" r="18" fill="#FEE7B8" />
	<circle fill="#4289C1" cx="30.5" cy="4.5" r="2.5"/>
	<circle fill="#4289C1" cx="32" cy="7" r="2"/>
	<circle fill="#4289C1" cx="5.5" cy="4.5" r="2.5"/>
	<circle fill="#4289C1" cx="4" cy="7" r="2"/>
	<circle fill="#FF7892" cx="6.93" cy="21" r="4"/>
	<circle fill="#FF7892" cx="28.93" cy="21" r="4"/>
	<path d="M 27.335,23.629 c 0.178,0.16 0.217,0.423 0.094,0.628 c -0.128,0.215 -3.217,6.743 -9.429,6.743 s -9.3,-6.528 -9.429,-6.743 c -0.123,-0.204 -0.083,-0.468 0.094,-0.628 c 0.178,-0.159 0.444,-0.171 0.635,-0.029 c 0.038,0.029 3.934,2.9 8.7,2.9 c 4.778,0 8.661,-2.871 8.7,-2.9 c 0.191,-0.142 0.457,-0.132 0.635,0.029 Z" fill="#DA2F47" />
	<ellipse fill="#664500" cx="11.5" cy="11.5" rx="2.5" ry="3.5"/>
	<ellipse fill="#664500" cx="25.5" cy="11.5" rx="2.5" ry="3.5"/>
	<circle fill="#BB1A34" cx="18.5" cy="19.5" r="3.5"/>
	</svg>
