<svg viewBox="0 0 36 36" xmlns="http://www.w3.org/2000/svg">
	<use href="F.svg#bg.normal" color="#50A5E6"/>
	<!-- eyebrows -->
	<use href="F.svg#eyebrow.4" transform="translate(5.984 10.375)" color="#1C6399"/>
	<use href="F.svg#eyebrow.4" transform="translate(29.989 10.375) scale(-1 1)" color="#1C6399"/>
	<!-- eyes -->
	<ellipse fill="#1C6399" cx="11.985" cy="15.188" rx="2.5" ry="3.5"/>
	<ellipse fill="#1C6399" cx="23.985" cy="15.188" rx="2.5" ry="3.5"/>
	<!-- mouth -->
	<rect x="6.985" y="21.833" width="22" height="8" rx="4" fill="#FFF" />
	<path fill="#1C6399" d="M24.985 20.812h-14c-2.757 0-5 2.243-5 5s2.243 5 5 5h14c2.757 0 5-2.243 5-5s-2.243-5-5-5zm0 2c1.483 0 2.71 1.084 2.949 2.5h-3.449v-2.5h.5zm-1.5 0v2.5h-3v-2.5h3zm-4 0v2.5h-3v-2.5h3zm-4 0v2.5h-3v-2.5h3zm-4.5 0h.5v2.5h-3.45c.24-1.415 1.467-2.5 2.95-2.5zm0 6c-1.483 0-2.71-1.084-2.949-2.5h3.449v2.5h-.5zm1.5 0v-2.5h3v2.5h-3zm4 0v-2.5h3v2.5h-3zm4 0v-2.5h3v2.5h-3zm4.5 0h-.5v-2.5h3.449c-.239 1.416-1.466 2.5-2.949 2.5z"/>
	<!-- icicles -->
	<path d="M 35.756,15.188 c 0,0.001 0.52,2.895 0.042,5.792 c -0.08,0.485 -0.379,2.472 -0.479,2.979 c -0.098,0.499 -0.637,2.576 -0.734,3.067 c -0.102,0.515 -0.373,3.692 -0.465,4.156 c -0.111,0.562 -0.133,0.92 -0.218,1.349 c -0.183,0.928 -0.19,2.053 -0.599,2.053 c -0.408,0 -0.648,-0.669 -0.832,-1.598 c -0.085,-0.43 -0.189,-0.835 -0.3,-1.398 c -0.092,-0.467 -0.228,-2.341 -0.333,-2.873 c -0.095,-0.483 -0.502,-2.082 -0.602,-2.589 c -0.099,-0.5 -0.417,-2.417 -0.497,-4.392 c -0.023,-0.572 -0.196,-2.697 1.265,-3.152 c 3.706,-1.154 3.752,-3.839 3.752,-3.394 Z" fill="#BDDDF4" />
	<path d="M 0.313,21.375 c 0,-0.29 0.613,1.164 1.148,1.488 c 0.69,0.418 1.23,1.2 2.04,1.887 s 0.808,1.974 0.776,2.594 c -0.136,2.656 -0.486,5.299 -0.562,5.625 c -0.076,0.331 -0.358,2.823 -0.73,2.823 s -0.553,-0.878 -0.693,-1.484 l -0.225,-0.977 c -0.07,-0.302 -0.12,-0.631 -0.2,-0.976 c -0.072,-0.314 -0.421,-2.587 -0.496,-2.913 c -0.076,-0.331 -0.406,-1.643 -0.479,-1.958 c -0.08,-0.347 -0.114,-0.684 -0.19,-0.987 c -0.327,-1.3 -0.389,-5.121 -0.389,-5.122 Z" fill="#BDDDF4" />
	<path d="M 24.266,1.125 s -0.786,0.945 -0.905,1.751 c -0.059,0.393 -0.348,1.004 -0.422,1.5 c -0.064,0.428 -0.055,0.88 -0.125,1.344 c -0.067,0.446 -0.121,0.882 -0.188,1.328 c -0.07,0.462 -0.124,0.886 -0.188,1.312 c -0.074,0.493 0.012,0.797 -0.047,1.188 c -0.121,0.809 -0.323,1.828 -0.552,1.828 s -0.441,-1.126 -0.562,-1.932 c -0.059,-0.393 0.025,-0.875 -0.049,-1.371 c -0.065,-0.428 -0.097,-0.889 -0.167,-1.353 c -0.067,-0.447 -0.182,-0.895 -0.249,-1.341 c -0.069,-0.462 -0.133,-0.916 -0.197,-1.342 c -0.073,-0.493 -0.082,-0.957 -0.141,-1.348 c -0.054,-0.361 -0.342,-1.057 -0.458,-1.559 c -0.144,-0.623 -0.114,-1.025 -0.114,-1.025 s 0.669,-0.006 1.294,0.115 c 0.56,0.108 1.466,0.296 1.753,0.384 c 0.326,0.1 1.317,0.521 1.317,0.521 Z" fill="#BDDDF4" />
	<path d="M 5.875,9.379 s 0.731,-0.164 1.427,-0.309 c 0.453,-0.094 0.812,-0.459 1.553,-0.729 c 0.771,-0.281 1.267,-0.524 1.267,-0.524 s 0.063,1.305 -0.109,1.956 c -0.139,0.525 -0.212,1.203 -0.276,1.58 c -0.07,0.408 -0.109,0.889 -0.197,1.404 c -0.076,0.445 -0.216,0.91 -0.299,1.394 c -0.08,0.467 -0.144,1.014 -0.224,1.481 c -0.083,0.485 -0.105,0.902 -0.182,1.349 c -0.089,0.518 -0.022,0.57 -0.093,0.98 c -0.145,0.843 -0.165,0.727 -0.212,1.186 s -0.394,0.516 -0.544,0.18 s 0.009,-0.521 -0.136,-1.367 c -0.07,-0.408 -0.327,-1.487 -0.41,-1.97 c -0.08,-0.467 -0.188,-1.199 -0.268,-1.666 c -0.083,-0.485 -0.104,-1.267 -0.181,-1.715 c -0.089,-0.518 -0.225,-0.838 -0.295,-1.248 c -0.145,-0.841 -0.821,-1.982 -0.821,-1.982 Z" fill="#BDDDF4" />
</svg>
