<svg xmlns="http://www.w3.org/2000/svg" viewBox="0 0 36 36">
	<circle cx="18" cy="18" r="18" fill="#FFCC4D" />
	<path d="M 6,13 c -0.552,0 -1,-0.448 -1,-1 c 0,-0.551 0.445,-0.998 0.996,-1 c 0.156,-0.002 3.569,-0.086 6.205,-3.6 c 0.331,-0.44 0.957,-0.532 1.4,-0.2 c 0.442,0.331 0.531,0.958 0.2,1.4 c -3.263,4.35 -7.617,4.4 -7.801,4.4 Z" fill="#664500" />
	<path d="M 30,13 c -0.184,0 -4.537,-0.05 -7.8,-4.4 c -0.332,-0.442 -0.242,-1.069 0.2,-1.4 c 0.441,-0.333 1.067,-0.242 1.399,0.2 c 2.641,3.521 6.061,3.599 6.206,3.6 c 0.55,0.006 0.994,0.456 0.991,1.005 c -0.002,0.551 -0.446,0.995 -0.996,0.995 Z" fill="#664500" />
	<path d="M 6.001,22 c 0.208,0 0.419,-0.065 0.599,-0.2 c 0.037,-0.028 3.787,-2.8 8.4,-2.8 c 0.404,0 0.769,-0.243 0.924,-0.617 s 0.069,-0.804 -0.217,-1.09 c -3.255,-3.255 -8.486,-3.293 -8.707,-3.293 c -0.552,0 -0.999,0.447 -0.999,0.998 c -0.001,0.552 0.446,1 0.998,1.002 c 0.035,0 2.782,0.027 5.257,1.268 c -3.905,0.75 -6.713,2.826 -6.856,2.933 c -0.442,0.331 -0.532,0.958 -0.2,1.399 c 0.197,0.262 0.497,0.4 0.801,0.4 Z" fill="#664500" />
	<path d="M 29.999,21.999 c -0.208,0 -0.418,-0.064 -0.598,-0.198 c -0.038,-0.029 -3.811,-2.801 -8.401,-2.801 c -0.404,0 -0.77,-0.243 -0.924,-0.617 c -0.155,-0.374 -0.069,-0.804 0.217,-1.09 c 3.256,-3.255 8.486,-3.293 8.707,-3.293 c 0.552,0 0.998,0.447 0.999,0.998 c 0.001,0.552 -0.446,1 -0.997,1.002 c -0.036,0 -2.783,0.027 -5.258,1.268 c 3.905,0.75 6.713,2.825 6.855,2.933 c 0.441,0.331 0.531,0.956 0.201,1.398 c -0.196,0.261 -0.496,0.4 -0.801,0.4 Z" fill="#664500" />
	<path d="M 18,30 c -0.304,0 -0.591,-0.138 -0.781,-0.375 l -3.194,-3.992 l -2.225,2.967 c -0.174,0.232 -0.44,0.377 -0.729,0.397 c -0.29,0.021 -0.574,-0.085 -0.778,-0.29 l -1,-1 c -0.391,-0.391 -0.391,-1.023 0,-1.414 s 1.023,-0.391 1.414,0 l 0.185,0.185 l 2.308,-3.078 c 0.186,-0.248 0.475,-0.396 0.784,-0.4 c 0.295,-0.01 0.603,0.133 0.796,0.375 l 3.22,4.024 l 3.219,-4.024 c 0.193,-0.241 0.484,-0.375 0.797,-0.375 c 0.31,0.005 0.599,0.152 0.784,0.4 l 2.309,3.077 l 0.185,-0.185 c 0.391,-0.391 1.023,-0.391 1.414,0 s 0.391,1.023 0,1.414 l -1,1 c -0.205,0.205 -0.479,0.314 -0.778,0.29 c -0.289,-0.021 -0.555,-0.165 -0.729,-0.397 l -2.226,-2.967 l -3.193,3.992 c -0.191,0.238 -0.478,0.376 -0.782,0.376 Z" fill="#664500" />
	</svg>
