<svg viewBox="0 0 36 36" xmlns="http://www.w3.org/2000/svg">
	<!-- scaled... -->
	<circle cx="18" cy="21" r="15" fill="#FFCC4D" />
	<ellipse cx="-6.5" cy="0" rx="2.5" ry="3.5" transform="translate(18 19.765) scale(0.823)" fill="#664500" />
	<ellipse cx="6.5" cy="0" rx="2.5" ry="3.5" transform="translate(18 19.765) scale(0.823)" fill="#664500" />
	<use href="F.svg#mouth.smiling2" transform="translate(18 30.44) scale(0.823)" color="#664500"/>
	
	<path d="M 32,6.13 c 2.153,-2.606 5,-0.686 3.558,2.174 c -2.279,4.517 -7.789,7.696 -17.558,7.696 c -9.77,0 -15.28,-3.179 -17.558,-7.696 c -1.442,-2.86 1.405,-4.78 3.558,-2.174 c 1.19,1.44 3.182,1.951 5.076,2.121 c 0.318,-1.538 1.683,-7.251 4.424,-7.251 c 2.403,0 3.269,1.091 4.5,1.091 s 2.097,-1.091 4.5,-1.091 c 2.741,0 4.106,5.713 4.424,7.251 c 1.894,-0.17 3.886,-0.68 5.076,-2.121 Z" fill="#664500" />
	<path d="M 21.5,3 c 2.463,0 3.5,6.75 3.5,6.75 s -1.281,2.25 -7,2.25 c -5.718,0 -7,-2.25 -7,-2.25 s 1.037,-6.75 3.5,-6.75 c 1.869,0 2.543,0.964 3.5,0.964 s 1.631,-0.964 3.5,-0.964 Z" fill="#825D0E" />
	<path d="M 11,6 s 2.074,2 7,2 c 4.927,0 7,-2 7,-2 v2 s -2.222,2 -7,2 s -7,-2 -7,-2 v-2 Z" fill="#664500" />
</svg>
