<svg xmlns="http://www.w3.org/2000/svg" viewBox="0 0 36 36">
	<path d="M 35.734,19.929 c 0.395,3.584 -0.391,6.441 -0.734,7.071 c -0.39,0.716 -2.367,3.025 -5,5 c -4,3 -10,4 -12,4 s -8,-1 -12,-4 c -2.633,-1.975 -4.61,-4.284 -5,-5 c -0.343,-0.63 -1.129,-3.487 -0.734,-7.071 c 0.359,-3.269 0.734,-4.929 1.734,-6.929 c 0,0 -3,-9 -1,-12.7 c 0.674,-1.246 7.404,1.688 10,3.7 c 0,0 4,-0.998 7,-0.998 s 7,0.998 7,0.998 c 2.596,-2.012 9.326,-4.946 10,-3.7 c 2,3.7 -1,12.7 -1,12.7 c 1,2 1.375,3.66 1.734,6.929 Z" fill="#FFCC4D" />
	<path d="M 18,19.5 c 3,0 3,0.5 3,1.5 s -1.5,3 -3,3 s -3,-2 -3,-3 s -0.001,-1.5 3,-1.5 Z" fill="#E75A70" />
	<path d="M 2,3 c 0.447,-1.342 5.64,1 6.64,2 c 0,0 -4.64,3 -5.64,6 c 0,0 -2,-5 -1,-8 Z" fill="#F18F26" />
	<path d="M 34,3 c 1,3 -1,8 -1,8 c -1,-3 -5.64,-6 -5.64,-6 c 1,-1 6.193,-3.342 6.64,-2 Z" fill="#F18F26" />
	<path d="M 4.934,5.603 c 0,-1.414 6.066,1.397 5.066,2.397 s -2,1.603 -3,2.603 s -2.066,-4 -2.066,-5 Z" fill="#FFCC4D" />
	<path d="M 31.066,5.603 c 0,1 -1.066,6 -2.066,5 s -2,-1.603 -3,-2.603 s 5.066,-3.811 5.066,-2.397 Z" fill="#FFCC4D" />
	<path d="M 0.701,25 c 0.108,0 0.217,-0.035 0.31,-0.106 c 0.036,-0.029 3.718,-2.869 9.951,-2.395 c 0.28,0.041 0.516,-0.185 0.537,-0.46 s -0.185,-0.516 -0.46,-0.536 c -6.628,-0.515 -10.486,2.478 -10.648,2.605 c -0.217,0.171 -0.254,0.485 -0.083,0.702 c 0.099,0.125 0.245,0.19 0.393,0.19 Z" fill="#FEE7B8" />
	<path d="M 9.569,20.337 c 0.213,0 0.41,-0.137 0.476,-0.35 c 0.083,-0.264 -0.064,-0.544 -0.328,-0.627 c -5.076,-1.585 -9.189,-0.39 -9.362,-0.338 c -0.264,0.079 -0.414,0.357 -0.335,0.622 c 0.08,0.265 0.358,0.416 0.623,0.335 c 0.04,-0.011 3.987,-1.161 8.777,0.336 c 0.049,0.015 0.1,0.022 0.149,0.022 Z" fill="#FEE7B8" />
	<path d="M 35.299,25 c 0.148,0 0.294,-0.065 0.393,-0.19 c 0.171,-0.217 0.134,-0.531 -0.083,-0.702 c -0.162,-0.127 -4.02,-3.12 -10.648,-2.605 c -0.275,0.02 -0.481,0.261 -0.46,0.536 s 0.257,0.501 0.537,0.46 c 6.233,-0.474 9.915,2.366 9.951,2.395 c 0.093,0.071 0.202,0.106 0.31,0.106 Z" fill="#FEE7B8" />
	<path d="M 26.431,20.337 c 0.049,0 0.1,-0.007 0.149,-0.022 c 4.79,-1.497 8.737,-0.347 8.777,-0.336 c 0.265,0.081 0.543,-0.07 0.623,-0.335 c 0.079,-0.265 -0.071,-0.543 -0.335,-0.622 c -0.173,-0.052 -4.286,-1.247 -9.362,0.338 c -0.264,0.083 -0.411,0.363 -0.328,0.627 c 0.065,0.213 0.263,0.35 0.476,0.35 Z" fill="#FEE7B8" />
	<path d="M 25.362,30.636 c 0.098,0.092 0.158,0.22 0.158,0.364 c 0,0.281 -0.239,0.496 -0.516,0.5 c -0.066,0.012 -0.195,-0.026 -0.281,-0.084 c -0.028,-0.019 -2.931,-1.916 -6.723,-1.916 c -3.805,0 -6.694,1.896 -6.723,1.916 c -0.084,0.057 -0.181,0.084 -0.277,0.084 c -0.125,0 -0.25,-0.047 -0.344,-0.138 c -0.169,-0.162 -0.205,-0.419 -0.084,-0.619 c 0.128,-0.215 3.194,-5.243 7.428,-5.243 c 3.947,0 6.879,4.37 7.362,5.136 Z" fill="#292F33" />
	<g fill="#292F33">
	<ellipse cx="12" cy="14.5" rx="2" ry="3.5"/>
	<ellipse cx="24" cy="14.5" rx="2" ry="3.5"/>
	<path d="M 31.001,14 c -0.305,0 -0.604,-0.138 -0.801,-0.4 c -2.641,-3.521 -6.061,-3.599 -6.206,-3.6 c -0.55,-0.006 -0.994,-0.456 -0.991,-1.005 c 0.003,-0.551 0.447,-0.995 0.997,-0.995 c 0.184,0 4.537,0.05 7.8,4.4 c 0.332,0.442 0.242,1.069 -0.2,1.4 c -0.18,0.135 -0.39,0.2 -0.599,0.2 Z" />
	<path d="M 4.999,14 c -0.208,0 -0.419,-0.065 -0.599,-0.2 c -0.442,-0.331 -0.531,-0.958 -0.2,-1.4 c 3.262,-4.35 7.616,-4.4 7.8,-4.4 c 0.552,0 1,0.448 1,1 c 0,0.551 -0.445,0.998 -0.996,1 c -0.156,0.002 -3.569,0.086 -6.205,3.6 c -0.195,0.262 -0.496,0.4 -0.8,0.4 Z" />
	</g>
	<path d="M 15,31 c 0,2.762 -2.239,5 -5,5 s -5,-2.238 -5,-5 s 4,-13 5,-13 s 5,10.238 5,13 Z" fill="#5DADEC" />
	</svg>
