<svg xmlns="http://www.w3.org/2000/svg" viewBox="0 0 36 36">
	<circle fill="#FFCC4D" cx="18" cy="18" r="18"/>
	<path d="M 23.485,28.879 c 0.055,0.218 -0.043,0.445 -0.239,0.557 c -0.077,0.043 -0.162,0.064 -0.246,0.064 c -0.125,0 -0.249,-0.047 -0.344,-0.137 c -0.039,-0.033 -1.066,-0.863 -4.656,-0.863 c -3.644,0 -4.648,0.855 -4.657,0.863 c -0.163,0.146 -0.408,0.172 -0.596,0.06 c -0.188,-0.113 -0.285,-0.331 -0.232,-0.544 c 0.011,-0.044 1.145,-4.379 5.485,-4.379 s 5.474,4.335 5.485,4.379 Z" fill="#664500" />
	<path d="M 11.226,15.512 c 2.138,0 3.724,1.721 4.091,2.156 c 0.123,0.091 0.203,0.237 0.203,0.402 c 0,0.279 -0.237,0.512 -0.509,0.5 c -0.076,0 -0.14,-0.012 -0.207,-0.04 c -0.003,-0.001 -0.631,-0.254 -1.735,-0.254 c -0.661,0 -1.359,0.089 -2.073,0.265 c -2.369,0.583 -3.369,1.749 -3.379,1.761 c -0.098,0.117 -0.24,0.18 -0.385,0.18 c -0.071,0 -0.144,-0.016 -0.211,-0.047 c -0.205,-0.097 -0.321,-0.317 -0.281,-0.54 c 0.026,-0.146 0.669,-3.56 3.539,-4.267 c 0.311,-0.077 0.63,-0.116 0.947,-0.116 Z" fill="#664500" />
	<path d="M 24.774,15.512 c 0.317,0 0.636,0.039 0.947,0.116 c 2.87,0.707 3.513,4.121 3.539,4.267 c 0.04,0.223 -0.076,0.443 -0.281,0.54 c -0.067,0.031 -0.14,0.047 -0.211,0.047 c -0.145,0 -0.287,-0.063 -0.385,-0.18 c -0.01,-0.012 -1.01,-1.178 -3.379,-1.761 c -0.714,-0.176 -1.412,-0.265 -2.073,-0.265 c -1.104,0 -1.731,0.253 -1.735,0.254 c -0.067,0.028 -0.131,0.04 -0.206,0.04 c -0.272,0.012 -0.509,-0.221 -0.509,-0.5 c 0,-0.165 0.08,-0.311 0.203,-0.402 c 0.366,-0.435 1.952,-2.156 4.09,-2.156 Z" fill="#664500" />
	</svg>
