<svg viewBox="0 0 36 36" xmlns="http://www.w3.org/2000/svg">
	<use id="head" href="F.svg#bg.normal" color="#FFCC4D"/>
	
	<!-- same as Nerd Face -->
	<ellipse id="eye1" rx="2.096" ry="3.104" cx="11.553" cy="14.024" fill="#664500" />
	<ellipse id="eye2" rx="2.096" ry="3.104" cx="24.528" cy="14.024" fill="#664500" />
	
	<!-- moustache -->
	<path d="M -3,0 h 6 M -7,2 l 7,-2 l 7,2 M -4,3 l 4,-2 l 4,2 M -1,3 l 1,-3 l 1,3" stroke-width="2" stroke-linecap="round" stroke-linejoin="round" stroke="#292F33" fill="none" transform="translate(18 24) scale(1.5)"/> <!-- not exactly the same as the current version. but i believe this is more correct -->
	
	<!--<path d="M 28.844,25.39 c 0.792,0.236 1.251,1.092 1.025,1.912 c -0.187,0.679 -0.784,1.122 -1.432,1.122 c -0.137,0 -0.274,-0.02 -0.411,-0.059 l -2.878,-0.853 c 0.321,0.453 0.407,1.065 0.148,1.604 c -0.262,0.542 -0.788,0.855 -1.335,0.855 c -0.224,0 -0.451,-0.053 -0.665,-0.163 l -2.35,-1.219 c -0.054,0.504 -0.319,1.072 -0.789,1.315 c -0.214,0.11 -0.441,0.163 -0.665,0.163 c -0.547,0 -1.074,-0.409 -1.335,-0.951 l -0.157,-0.326 l -0.158,0.326 c -0.261,0.542 -0.788,0.951 -1.335,0.951 c -0.223,0 -0.451,-0.053 -0.665,-0.163 c -0.47,-0.243 -0.734,-0.81 -0.788,-1.315 l -2.35,1.219 c -0.214,0.11 -0.442,0.163 -0.665,0.163 c -0.547,0 -1.074,-0.313 -1.335,-0.855 c -0.26,-0.539 -0.173,-1.151 0.149,-1.604 l -2.878,0.853 c -0.137,0.039 -0.276,0.059 -0.411,0.059 c -0.648,0 -1.245,-0.442 -1.432,-1.122 c -0.227,-0.82 0.232,-1.676 1.023,-1.912 l 4.911,-1.456 c -0.005,-0.051 11.872,-0.051 11.868,0 l 4.91,1.456 Z" fill="#292F33" /> worst extremely corrupted layer -->
	
	<!--<g opacity="0">
		<path d="M 24,23.6 c 0,0.98 -2.332,1.389 -3.931,2.168 c -0.492,0.325 -1.168,0.432 -2.069,0.432 c -1.063,0 -1.811,-0.111 -2.316,-0.549 c -1.581,-0.705 -3.684,-1.121 -3.684,-2.051 c 0,-0.994 1.254,-2.6 2.8,-2.6 l 0.035,0.002 c 0.241,-3.725 1.702,-9.202 3.165,-9.202 c 1.489,0 2.977,5.5 3.177,9.201 l 0.023,-0.001 c 1.546,0 2.8,1.606 2.8,2.6 Z" fill="#FFAC33" />
		<path d="M 21.2,23.8 c 0.218,-0.039 0.842,-0.968 0.842,-1.631 c 0,-1.169 -0.442,-1.169 -0.842,-1.169 c 0,0.4 0.055,0.8 0.055,1.311 c 0,1.089 -0.273,1.528 -0.055,1.489 Z M 14.757,23.8 c 0.218,0.039 -0.055,-0.4 -0.055,-1.489 c 0,-0.511 0.055,-0.911 0.055,-1.311 c -0.4,0 -0.842,0 -0.842,1.169 c 0.001,0.663 0.625,1.592 0.842,1.631 Z" fill="#C1694F" />
		<path d="M 14.403,24.351 c 0.771,0.224 1.286,0.782 1.152,1.244 l -0.002,0.002 c -0.892,-0.383 -1.91,-0.688 -2.631,-1.043 c 0.278,-0.284 0.859,-0.384 1.481,-0.203 Z M 21.597,24.351 c 0.623,-0.182 1.205,-0.081 1.483,0.205 c -0.721,0.355 -1.739,0.661 -2.63,1.044 l -0.004,-0.005 c -0.135,-0.462 0.38,-1.019 1.151,-1.244 Z" fill="#662113" />
	</g>-->
	
	<!-- the Nose emoji -->
	<g transform="translate(18 19) scale(0.4) translate(-18 -18)">
		<defs>
			<clipPath id="clipPath36">
				<path d="M 33,29.5 c 0,2.45 -5.83,3.474 -9.827,5.419 c -1.232,0.814 -2.92,1.081 -5.173,1.081 c -2.658,0 -4.528,-0.276 -5.79,-1.372 c -3.953,-1.764 -9.21,-2.802 -9.21,-5.128 c 0,-2.485 3.134,-6.5 7,-6.5 c 0.028,0 0.06,0.004 0.088,0.004 c 0.601,-9.313 4.255,-23.004 7.912,-23.004 c 3.722,0 7.441,13.749 7.941,23.003 c 0.019,0 0.04,-0.003 0.059,-0.003 c 3.866,0 7,4.015 7,6.5 Z"/>
				<!--<path d="M 18,0 c -3.657,0 -7.311,13.692 -7.912,23.004 v0 c -0.029,0 -0.059,-0.004 -0.088,-0.004 v0 c -3.867,0 -7,4.014 -7,6.5 v0 c 0,2.326 5.257,3.364 9.21,5.128 v0 c 1.262,1.096 3.131,1.372 5.79,1.372 v0 c 2.253,0 3.941,-0.266 5.173,-1.081 v0 c 3.997,-1.946 9.827,-2.969 9.827,-5.419 v0 c 0,-2.486 -3.133,-6.5 -7,-6.5 v0 c -0.019,0 -0.04,0.003 -0.058,0.003 v0 c -0.501,-9.254 -4.221,-23.003 -7.942,-23.003 Z"/>-->
			</clipPath>
		</defs>
		<!--<path d="M 33,29.5 c 0,2.45 -5.83,3.474 -9.827,5.419 c -1.232,0.814 -2.92,1.081 -5.173,1.081 c -2.658,0 -4.528,-0.276 -5.79,-1.372 c -3.953,-1.764 -9.21,-2.802 -9.21,-5.128 c 0,-2.485 3.134,-6.5 7,-6.5 c 0.028,0 0.06,0.004 0.088,0.004 c 0.601,-9.313 4.255,-23.004 7.912,-23.004 c 3.722,0 7.441,13.749 7.941,23.003 c 0.019,0 0.04,-0.003 0.059,-0.003 c 3.866,0 7,4.015 7,6.5 Z" fill="#ffdc5d" />-->
		
		<g clip-path="url(#clipPath36)">
			<rect width="36" height="40"  fill="#FFAC33" />
p			
			<ellipse rx="2.18" ry="3.633" transform="translate(8.3977,33.47) rotate(-73.74)"  fill="#662113"/>
			<ellipse rx="2.18" ry="3.633" transform="translate(27.6023,33.47) rotate(73.74)"  fill="#662113"/>
			<!--
			<path d="M 11.8857,34.4873 s -2.171,1.637 -4.098,1.076 c -1.927,-0.562 -3.215,-1.956 -2.878,-3.111 s 2.172,-1.636 4.098,-1.075 c 1.927,0.561 3.215,1.955 2.878,3.11 Z" fill="#662113" />
			<path d="M 24.1143,34.4873 s 0.951,-2.549 2.878,-3.11 c 1.926,-0.561 3.761,-0.08 4.097,1.075 c 0.338,1.155 -0.951,2.549 -2.876,3.111 c -1.928,0.561 -3.762,0.079 -4.099,-1.076 Z" fill="#662113" />-->
		</g>
		<path d="M 26,30 c 0.544,-0.099 2.105,-2.421 2.105,-4.077 c 0,-2.923 -1.105,-2.923 -2.105,-2.923 c 0,1 0.137,2 0.137,3.278 c 0,2.722 -0.681,3.82 -0.137,3.722 Z" fill="#C1694F" />
		<path d="M 9.8936,30 c 0.544,0.098 -0.137,-1 -0.137,-3.722 c 0,-1.278 0.137,-2.278 0.137,-3.278 c -1,0 -2.104,0 -2.104,2.923 c 0,1.656 1.56,3.978 2.104,4.077 Z" fill="#C1694F" />
	</g>

	<path d="M 14.337,10.19 s -3.406,-1.488 -5.192,-1.547 s -5.357,0.774 -5.357,0.774 s -1.713,-0.893 -0.998,-2.024 c 0.521,-0.826 1.666,-0.416 1.666,-0.416 s -0.758,-1.387 0.76,-2.024 c 1.561,-0.655 2.381,1.19 2.381,1.19 s -0.059,-1.369 1.369,-1.548 s 1.68,1.964 1.68,1.964 s 1.065,-1.66 2.381,-0.595 c 1.25,1.012 1.31,4.226 1.31,4.226 Z" fill="#292F33" />
	<path d="M 21.663,10.19 s 0.06,-3.214 1.31,-4.226 c 1.316,-1.065 2.381,0.595 2.381,0.595 s 0.252,-2.143 1.68,-1.964 c 1.429,0.179 1.369,1.548 1.369,1.548 s 0.82,-1.845 2.381,-1.19 c 1.518,0.637 0.76,2.024 0.76,2.024 s 1.145,-0.409 1.667,0.417 c 0.714,1.131 -0.998,2.024 -0.998,2.024 s -3.571,-0.833 -5.357,-0.774 c -1.787,0.058 -5.193,1.546 -5.193,1.546 Z" fill="#292F33" />
	
	<!-- same as Nerd Face -->
	<use href="F.svg#glasses" x="18.041" y="12.169" color="#292F33"/>
</svg>
