<svg viewBox="0 0 36 36" xmlns="http://www.w3.org/2000/svg">
	<circle fill="#FFCC4D" cx="18" cy="18" r="18"/>
	<ellipse cx="24.528" cy="14.024" rx="2.096" ry="3.104" fill="#65471B" />
	<ellipse cx="11.553" cy="14.024" rx="2.096" ry="3.104" fill="#65471B" />
	<path d="M 28.844,25.39 c 0.792,0.236 1.251,1.092 1.025,1.912 c -0.187,0.679 -0.784,1.122 -1.432,1.122 c -0.137,0 -0.274,-0.02 -0.411,-0.059 l -2.878,-0.853 c 0.321,0.453 0.407,1.065 0.148,1.604 c -0.262,0.542 -0.788,0.855 -1.335,0.855 c -0.224,0 -0.451,-0.053 -0.665,-0.163 l -2.35,-1.219 c -0.054,0.504 -0.319,1.072 -0.789,1.315 c -0.214,0.11 -0.441,0.163 -0.665,0.163 c -0.547,0 -1.074,-0.409 -1.335,-0.951 l -0.157,-0.326 l -0.158,0.326 c -0.261,0.542 -0.788,0.951 -1.335,0.951 c -0.223,0 -0.451,-0.053 -0.665,-0.163 c -0.47,-0.243 -0.734,-0.81 -0.788,-1.315 l -2.35,1.219 c -0.214,0.11 -0.442,0.163 -0.665,0.163 c -0.547,0 -1.074,-0.313 -1.335,-0.855 c -0.26,-0.539 -0.173,-1.151 0.149,-1.604 l -2.878,0.853 c -0.137,0.039 -0.276,0.059 -0.411,0.059 c -0.648,0 -1.245,-0.442 -1.432,-1.122 c -0.227,-0.82 0.232,-1.676 1.023,-1.912 l 4.911,-1.456 c -0.005,-0.051 11.872,-0.051 11.868,0 l 4.91,1.456 Z" fill="#292F33" />
	<path d="M 24,23.6 c 0,0.98 -2.332,1.389 -3.931,2.168 c -0.492,0.325 -1.168,0.432 -2.069,0.432 c -1.063,0 -1.811,-0.111 -2.316,-0.549 c -1.581,-0.705 -3.684,-1.121 -3.684,-2.051 c 0,-0.994 1.254,-2.6 2.8,-2.6 l 0.035,0.002 c 0.241,-3.725 1.702,-9.202 3.165,-9.202 c 1.489,0 2.977,5.5 3.177,9.201 l 0.023,-0.001 c 1.546,0 2.8,1.606 2.8,2.6 Z" fill="#FFAC33" />
	<path d="M 21.2,23.8 c 0.218,-0.039 0.842,-0.968 0.842,-1.631 c 0,-1.169 -0.442,-1.169 -0.842,-1.169 c 0,0.4 0.055,0.8 0.055,1.311 c 0,1.089 -0.273,1.528 -0.055,1.489 Z" fill="#C1694F" />
	<path d="M 14.757,23.8 c 0.218,0.039 -0.055,-0.4 -0.055,-1.489 c 0,-0.511 0.055,-0.911 0.055,-1.311 c -0.4,0 -0.842,0 -0.842,1.169 c 0.001,0.663 0.625,1.592 0.842,1.631 Z" fill="#C1694F" />
	<path d="M 14.403,24.351 c 0.771,0.224 1.286,0.782 1.152,1.244 l -0.002,0.002 c -0.892,-0.383 -1.91,-0.688 -2.631,-1.043 c 0.278,-0.284 0.859,-0.384 1.481,-0.203 Z" fill="#662113" />
	<path d="M 21.597,24.351 c 0.623,-0.182 1.205,-0.081 1.483,0.205 c -0.721,0.355 -1.739,0.661 -2.63,1.044 l -0.004,-0.005 c -0.135,-0.462 0.38,-1.019 1.151,-1.244 Z" fill="#662113" />
	<path d="M 34.808,9.627 c 0.248,0.239 0.247,1.196 -0.001,1.436 c -0.246,0.238 -1.477,0.515 -1.722,1.232 c -0.246,0.718 -0.248,4.959 -2.213,6.424 c -1.838,1.371 -6.128,1.784 -8.847,0.238 c -2.373,-1.349 -2.289,-4.19 -2.724,-5.881 c -0.155,-0.603 -0.592,-0.907 -1.26,-0.907 s -1.105,0.304 -1.26,0.907 c -0.435,1.692 -0.352,4.532 -2.724,5.881 c -2.719,1.547 -7.009,1.134 -8.848,-0.238 c -1.964,-1.466 -1.966,-5.706 -2.213,-6.424 c -0.245,-0.717 -1.476,-0.993 -1.722,-1.232 c -0.248,-0.24 -0.248,-1.197 -0.001,-1.436 c 0.171,-0.166 1.267,0.274 2.376,-0.291 c 2.288,-1.166 8.07,-2.291 11.833,0.376 c 0.403,0.286 2.087,0.334 2.558,0.313 c 0.471,0.02 2.155,-0.028 2.558,-0.313 c 3.764,-2.667 9.546,-1.542 11.834,-0.376 c 1.109,0.565 2.205,0.125 2.376,0.291 Z" fill="#292F33" />
	<path d="M 14.614,13.277 c -0.077,1.105 -0.274,3.227 -1.597,3.98 c -0.811,0.462 -1.868,0.743 -2.974,0.743 h-0.001 c -1.225,0 -2.923,-0.347 -3.587,-0.842 c -0.83,-0.619 -1.146,-3.167 -1.265,-4.12 c -0.076,-0.607 -0.28,-2.09 0.388,-2.318 c 1.06,-0.361 2.539,-0.643 4.052,-0.643 c 0.693,0 3.021,0.043 4.155,0.741 c 1.005,0.617 0.872,1.851 0.829,2.459 Z" fill="#292F33" />
	<path d="M 30.892,13.024 c -0.119,0.954 -0.435,3.515 -1.265,4.134 c -0.664,0.495 -2.362,0.842 -3.587,0.842 h-0.001 c -1.107,0 -2.163,-0.281 -2.975,-0.743 c -1.323,-0.752 -1.52,-2.861 -1.597,-3.966 c -0.042,-0.608 -0.176,-1.851 0.829,-2.468 c 1.135,-0.698 3.462,-0.746 4.155,-0.746 c 1.513,0 2.991,0.277 4.052,0.638 c 0.668,0.228 0.465,1.702 0.389,2.309 Z" fill="#292F33" />
	<path d="M 14.337,10.19 s -3.406,-1.488 -5.192,-1.547 s -5.357,0.774 -5.357,0.774 s -1.713,-0.893 -0.998,-2.024 c 0.521,-0.826 1.666,-0.416 1.666,-0.416 s -0.758,-1.387 0.76,-2.024 c 1.561,-0.655 2.381,1.19 2.381,1.19 s -0.059,-1.369 1.369,-1.548 s 1.68,1.964 1.68,1.964 s 1.065,-1.66 2.381,-0.595 c 1.25,1.012 1.31,4.226 1.31,4.226 Z" fill="#292F33" />
	<path d="M 21.663,10.19 s 0.06,-3.214 1.31,-4.226 c 1.316,-1.065 2.381,0.595 2.381,0.595 s 0.252,-2.143 1.68,-1.964 c 1.429,0.179 1.369,1.548 1.369,1.548 s 0.82,-1.845 2.381,-1.19 c 1.518,0.637 0.76,2.024 0.76,2.024 s 1.145,-0.409 1.667,0.417 c 0.714,1.131 -0.998,2.024 -0.998,2.024 s -3.571,-0.833 -5.357,-0.774 c -1.787,0.058 -5.193,1.546 -5.193,1.546 Z" fill="#292F33" />
	</svg>
