<svg viewBox="0 0 36 36" xmlns="http://www.w3.org/2000/svg">
	<circle cx="18" cy="18" r="17.25" fill="#FFF5DB" />
	<!-- a.. -->
	<path d="M 18.079,35.949 c -0.789,0 -1.571,-0.043 -2.325,-0.129 l 0.17,-1.49 c 1.492,0.169 3.091,0.158 4.74,-0.04 l 0.281,1.475 l -0.096,0.015 c -0.945,0.113 -1.874,0.169 -2.77,0.169 Z M 10.798,34.55 a 16.756,16.756 0 01 -4.378,-2.68 l 0.97,-1.145 a 15.235,15.235 0 00 3.988,2.439 l -0.58,1.386 Z M 25.829,34.227 l -0.652,-1.35 a 16.552,16.552 0 00 3.894,-2.626 l 1.006,1.113 a 18.043,18.043 0 01 -4.248,2.863 Z M 3.046,28.007 a 18.6,18.6 0 01 -2.138,-4.648 l 1.436,-0.436 a 17.099,17.099 0 00 1.965,4.273 l -1.263,0.811 Z M 33.351,27.43 l -1.277,-0.787 a 16.23,16.23 0 00 1.861,-4.308 l 1.449,0.389 a 17.804,17.804 0 01 -2.033,4.706 Z M 0.087,18.314 a 18.58,18.58 0 01 0.553,-5.086 l 1.454,0.367 a 17.067,17.067 0 00 -0.508,4.676 l -1.499,0.043 Z M 34.497,17.669 a 16.466,16.466 0 00 -0.759,-4.632 l 1.43,-0.452 c 0.516,1.631 0.794,3.33 0.829,5.053 l -1.5,0.031 Z M 3.894,9.272 l -1.283,-0.777 a 16.701,16.701 0 01 3.304,-3.93 l 0.987,1.13 a 15.203,15.203 0 00 -3.008,3.577 Z M 31.697,8.811 a 16.645,16.645 0 00 -3.147,-3.487 l 0.961,-1.152 a 18.13,18.13 0 01 3.431,3.801 l -1.245,0.838 Z M 10.848,3.155 l -0.629,-1.361 a 21.776,21.776 0 01 4.843,-1.558 l 0.295,1.471 a 20.309,20.309 0 00 -4.509,1.448 Z M 24.554,2.858 a 16.358,16.358 0 00 -4.527,-1.234 l 0.184,-1.488 c 1.704,0.209 3.367,0.663 4.941,1.347 l -0.598,1.375 Z" fill="#FFCC4D"/>
	<ellipse cx="11.5" cy="16.5" rx="2.5" ry="3.5" fill="#664500"/>
	<ellipse cx="24.5" cy="16.5" rx="2.5" ry="3.5" fill="#664500"/>
	<rect x="10" y="24" width="16" height="2" rx="1" fill="#664500"/>
</svg>
