<svg viewBox="0 0 36 36" xmlns="http://www.w3.org/2000/svg">
	<circle r="17.25" cx="18" cy="18" fill="#FFF5DB"/>
	
	<!--dashes can be generated like:
	<circle cx="18" cy="18" r="17.25" pathLength="22" stroke-dasharray="1" stroke-width="1.5" stroke="#FFCC4D" fill="none" stroke-dashoffset="1.08"/> (idk what the offset they used is) -->
	<path d="M 15.749,35.859 l 0.17,-1.49 a 16.5,16.5 0 00 4.744,-0.085 l 0.281,1.474 a 18,18 0 01 -5.195,0.101 Z M 10.818,34.505 a 18,18 0 01 -4.354,-2.688 l 0.97,-1.145 a 16.5,16.5 0 00 3.963,2.448 l -0.579,1.385 Z M 25.822,34.212 l -0.652,-1.351 a 16.5,16.5 0 00 3.893,-2.619 l 1.006,1.113 a 18,18 0 01 -4.247,2.857 Z M 3.041,28.011 a 18,18 0 01 -2.216,-4.625 l 1.435,-0.436 a 16.5,16.5 0 00 2.043,4.251 l -1.262,0.810 Z M 33.337,27.422 l -1.277,-0.787 a 16.5,16.5 0 00 1.861,-4.303 l 1.449,0.389 a 18,18 0 01 -2.033,4.701 Z M 0.003,18.315 a 18,18 0 01 0.641,-5.086 l 1.455,0.367 a 16.5,16.5 0 00 -0.596,4.676 l -1.5,0.043 Z M 34.497,17.669 a 16.5,16.5 0 00 -0.761,-4.631 l 1.43,-0.452 a 18,18 0 01 0.83,5.052 l -1.499,0.031 Z M 3.969,9.318 l -1.283,-0.777 a 18,18 0 01 3.277,-3.924 l 0.987,1.13 a 16.5,16.5 0 00 -2.981,3.571 Z M 31.702,8.808 a 16.5,16.5 0 00 -3.147,-3.49 l 0.961,-1.152 a 18,18 0 01 3.43,3.804 l -1.244,0.838 Z M 10.838,3.135 l -0.629,-1.362 a 18,18 0 01 4.854,-1.532 l 0.295,1.472 a 16.5,16.5 0 00 -4.520,1.422 Z M 24.554,2.858 a 16.5,16.5 0 00 -4.527,-1.233 l 0.184,-1.489 a 18,18 0 01 4.941,1.346 l -0.598,1.376 Z" fill="#FFCC4D"/>
	
	<use href="F.svg#eyes.normal13" y="16.5" color="#664500"/>
	
	<rect width="16" height="2" rx="1" x="10" y="24" fill="#664500"/>
</svg>
