<svg viewBox="0 0 36 36" xmlns="http://www.w3.org/2000/svg">
	<circle cx="18" cy="18" r="18" fill="#FFCC4D" />
	<path d="M 28.457,17.797 c 0.093,0.208 0.032,0.452 -0.145,0.594 c -0.091,0.072 -0.202,0.109 -0.312,0.109 c -0.104,0 -0.21,-0.033 -0.298,-0.099 c -0.028,-0.02 -1.276,-0.901 -3.702,-0.901 c -2.44,0 -3.69,0.893 -3.702,0.902 c -0.184,0.133 -0.435,0.128 -0.61,-0.014 c -0.177,-0.142 -0.237,-0.384 -0.145,-0.591 c 0.06,-0.135 1.5,-3.297 4.457,-3.297 c 2.958,0 4.397,3.162 4.457,3.297 Z" fill="#664500" />
	<path d="M 17.457,17.797 c 0.092,0.208 0.033,0.452 -0.145,0.594 c -0.091,0.072 -0.202,0.109 -0.312,0.109 c -0.104,0 -0.209,-0.033 -0.298,-0.099 c -0.028,-0.02 -1.276,-0.901 -3.702,-0.901 c -2.441,0 -3.69,0.893 -3.703,0.902 c -0.183,0.133 -0.434,0.128 -0.61,-0.014 s -0.236,-0.384 -0.144,-0.591 c 0.06,-0.135 1.5,-3.297 4.457,-3.297 c 2.958,0 4.397,3.162 4.457,3.297 Z" fill="#664500" />
	<path d="M 13,28 s 1,-4 5,-4 s 5,4 5,4 s -1,-1 -5,-1 s -5,1 -5,1 Z" fill="#664500" />
	<path d="M 11,11 c 0,2.762 -2.238,5 -5,5 c -2.761,0 -5,-2.238 -5,-5 s 4,-10 5,-10 s 5,7.238 5,10 Z" fill="#5DADEC" />
	</svg>
