<svg viewBox="0 0 36 36" xmlns="http://www.w3.org/2000/svg">
	<circle fill="#FFCC4D" cx="18" cy="18" r="18"/>
	<path d="M 22.5,25 c 0.825,0 1.5,0.175 1.5,1 s -1.175,2 -2,2 h-4.5 c -0.11,0 -0.217,-0.014 -0.321,-0.037 c -4.912,-0.369 -6.179,-3.963 -6.179,-3.963 s 1.4,1 7,1 h4.5 Z" fill="#664500" />
	<path d="M 15.813,17.888 c -0.176,0.143 -0.427,0.147 -0.61,0.014 c -0.013,-0.01 -1.261,-0.902 -3.703,-0.902 c -2.441,0 -3.69,0.893 -3.7,0.9 c -0.183,0.137 -0.435,0.133 -0.611,-0.009 c -0.178,-0.142 -0.238,-0.386 -0.146,-0.594 c 0.06,-0.135 1.5,-3.297 4.457,-3.297 c 2.958,0 4.397,3.162 4.457,3.297 c 0.092,0.207 0.032,0.449 -0.144,0.591 Z" fill="#664500" />
	<path d="M 28.812,17.888 c -0.176,0.143 -0.426,0.148 -0.61,0.014 c -0.012,-0.01 -1.261,-0.902 -3.702,-0.902 c -2.44,0 -3.69,0.893 -3.7,0.9 c -0.183,0.137 -0.434,0.133 -0.611,-0.009 c -0.178,-0.142 -0.238,-0.386 -0.146,-0.594 c 0.059,-0.135 1.5,-3.297 4.457,-3.297 c 2.958,0 4.398,3.162 4.457,3.297 c 0.092,0.207 0.032,0.449 -0.145,0.591 Z" fill="#664500" />
	<path d="M 13.114,6.002 c 0.552,0.021 0.982,0.486 0.961,1.038 c -0.022,0.55 -0.484,0.979 -1.034,0.96 c -0.156,-0.004 -3.57,-0.052 -6.339,3.357 c -0.348,0.427 -0.977,0.494 -1.407,0.145 c -0.429,-0.348 -0.494,-0.978 -0.145,-1.407 c 3.428,-4.219 7.78,-4.1 7.964,-4.093 Z" fill="#664500" />
	<path d="M 22.517,7.674 c 0.181,-0.033 4.473,-0.763 8.461,2.933 c 0.406,0.375 0.43,1.008 0.053,1.413 c -0.375,0.407 -1.007,0.429 -1.413,0.054 c -3.228,-2.992 -6.608,-2.456 -6.75,-2.432 c -0.542,0.093 -1.06,-0.27 -1.155,-0.812 c -0.095,-0.541 0.263,-1.057 0.804,-1.156 Z" fill="#664500" />
	<path d="M 23,26 c 0.55,0 1,0.45 1,1 v7.5 c 0,0.825 -0.675,1.5 -1.5,1.5 s -1.5,-0.675 -1.5,-1.5 v-3.5 c 0,0.55 -0.45,1 -1,1 s -1,-0.45 -1,-1 v-4 c 0,-0.55 0.45,-1 1,-1 h3 Z" fill="#88C9F9" />
	</svg>
