<svg viewBox="0 0 36 36" xmlns="http://www.w3.org/2000/svg">
	<circle fill="#FFCC4D" cx="18" cy="18" r="18"/>
	<!-- eyebrows -->
	<use href="F.svg#eyebrow.2" transform="translate(13.078 7) rotate(2.2)" color="#664500"/>
	<use href="F.svg#eyebrow.2" transform="translate(22.692 8.658) scale(-1 1) rotate(10.3)" color="#664500"/>
	<!-- eyes -->
	<use href="F.svg#mouth.smiling1b" transform="translate(11.5 20.5) rotate(180)" color="#664500"/>
	<use href="F.svg#mouth.smiling1b" transform="translate(24.5 20.5) rotate(180)" color="#664500"/>
	<!-- mouth -->
	<path d="M 22.5,25 c 0.825,0 1.5,0.175 1.5,1 s -1.175,2 -2,2 h -4 c -5.6,0 -7,-4 -7,-4 s 1.4,1 7,1 h 4.5 Z" fill="#664500" />
	<!-- drool -->
	<path d="M 23,26 a 1,1 0 01 1,1 v7.5 a 1.5,1.5 0 01 -3,0 v-3.5 a 1,1 0 01 -2,0 v-4 a 1,1 0 01 1,-1 h3 Z" fill="#88C9F9" />
</svg>
