<svg viewBox="0 0 36 36" xmlns="http://www.w3.org/2000/svg">
	<circle cx="18" cy="18" r="18" fill="#FFCC4D" />
	<ellipse fill="#66471B" cx="11.5" cy="14.5" rx="2.5" ry="3.5"/>
	<ellipse fill="#66471B" cx="24.5" cy="14.5" rx="2.5" ry="3.5"/>
	<path d="M 7,21.262 c 11.667,2.756 22,0 22,0 c 0,4 -4.596,9 -11,9 s -11,-5.036 -11,-9 Z" fill="#66471B" />
	<path d="M 18.545,23.604 c 1.668,-0.018 3.533,-0.166 5.455,-0.56 v6.92 c 0,3 -2,6 -6,6 s -6,-3 -6,-6 v-6.961 s 2.238,0.522 5.454,0.596 l 1.091,0.005 Z" fill="#E8596E" />
	<path d="M 18,31.843 c -0.301,0 -0.545,-0.244 -0.546,-0.545 v-7.699 l 1.091,0.005 v7.694 c 0,0.301 -0.244,0.545 -0.545,0.545 Z" fill="#DD2F45" />
	</svg>
