<svg viewBox="0 0 36 36" xmlns="http://www.w3.org/2000/svg">
	<circle fill="#FFCC4D" cx="18" cy="18" r="18"/>
	<ellipse fill="#664500" cx="12.5" cy="16.5" rx="2.5" ry="3.5"/>
	<ellipse fill="#664500" cx="23.5" cy="16.5" rx="2.5" ry="3.5"/>
	<path d="M 29,12 c -5.554,0 -7.802,-4.367 -7.895,-4.553 c -0.247,-0.494 -0.047,-1.095 0.447,-1.342 c 0.492,-0.247 1.092,-0.048 1.34,0.443 c 0.075,0.146 1.821,3.452 6.108,3.452 c 0.553,0 1,0.448 1,1 c 0,0.553 -0.447,1 -1,1 Z" fill="#664500" />
	<path d="M 7,11.994 c -0.552,0 -1,-0.448 -1,-1 s 0.448,-1 1,-1 c 5.083,0 5.996,-3.12 6.033,-3.253 c 0.145,-0.528 0.69,-0.848 1.219,-0.709 c 0.53,0.139 0.851,0.673 0.718,1.205 c -0.049,0.194 -1.266,4.757 -7.97,4.757 Z" fill="#664500" />
	<path d="M 35.968,17.068 s 0.013,2.414 -0.191,3.326 s -0.495,1.316 -1.198,1.747 l -11.685,7.211 l -7.118,-0.963 l 16.187,-10.508 l 4.005,-0.813 Z" fill="#FFAC33" />
	<path d="M 23.485,29.379 c 0.055,0.218 -0.043,0.445 -0.239,0.557 c -0.077,0.043 -0.162,0.064 -0.246,0.064 c -0.125,0 -0.249,-0.047 -0.344,-0.137 c -0.039,-0.033 -1.066,-0.863 -4.656,-0.863 c -3.644,0 -4.648,0.855 -4.657,0.863 c -0.163,0.146 -0.408,0.172 -0.596,0.06 c -0.188,-0.113 -0.285,-0.331 -0.232,-0.544 c 0.011,-0.044 1.145,-2.879 5.485,-2.879 s 5.474,2.835 5.485,2.879 Z" fill="#664500" />
	<path d="M 35.474,15.729 c 0.828,1.104 0.605,2.672 -0.498,3.499 l -12.444,9.335 c -0.286,-0.172 -1.197,-0.539 -1.197,-0.539 l -1.293,-1.036 s -2.404,0.609 -2.66,0.627 c -1.105,0.078 -1.969,0.28 -2.615,0.522 l 17.206,-12.908 c 1.104,-0.828 2.672,-0.604 3.501,0.5 Z" fill="#CCD6DD" />
	<path d="M 28.686,20.87 c 0.447,0.597 0.832,1.014 0.236,1.461 l -7.588,5.692 c -0.77,-0.257 -1.81,-0.461 -3.17,-0.452 c -0.283,0.002 -0.527,0.026 -0.783,0.044 l 9.922,-7.443 c 0.596,-0.447 0.935,0.102 1.383,0.698 Z" fill="#DA2F47" />
	<path d="M 18.599,25.228 l 0.778,-0.584 l 1.197,1.587 l -0.741,0.595 l -1.234,-1.598 Z" fill="#67757F" />
	<path d="M 20.822,23.567 l 0.779,-0.584 l 1.197,1.587 l -0.741,0.595 l -1.235,-1.598 Z" fill="#67757F" />
	<path d="M 23.006,21.948 l 0.778,-0.584 l 1.197,1.587 l -0.741,0.595 l -1.234,-1.598 Z" fill="#67757F" />
	<path d="M 25.187,20.288 l 0.779,-0.584 l 1.197,1.587 l -0.741,0.594 l -1.235,-1.597 Z" fill="#67757F" />
	<path d="M 27.425,18.647 l 0.779,-0.584 l 1.196,1.587 l -0.74,0.595 l -1.235,-1.598 Z" fill="#67757F" />
	<path d="M 29.565,17.029 l 0.779,-0.584 l 1.196,1.587 l -0.74,0.595 l -1.235,-1.598 Z" fill="#67757F" />
	<path d="M 22.531,28.563 l 0.279,-0.204 c 0.329,0.364 0.526,0.726 0.526,0.726 l -0.805,-0.522 Z" fill="#452E04" />
	</svg>
