<svg viewBox="0 0 36 36" xmlns="http://www.w3.org/2000/svg">
	<g id="head">
		<path d="M 0,18 l 18,-16 l 18,16 h-2.439 c -4.273,0 -6.668,8.48 -6.091,15.287 a 18,18 0 01 -18.938,0.001 c 0.574,-6.782 -1.822,-15.288 -6.092,-15.288 h-2.44 Z" fill="#FFCC4D"/> <!-- simplified, maybe too much -->
		<path d="M 0,18 a 18,18 0 01 36,0 c 0,1.192 -0.122,2.356 -0.343,3.484 l 0.095,-2.301 c -0.262,-0.661 -0.822,-1.049 -1.772,-1.143 c -2.992,-4.179 -9.016,-7.04 -15.98,-7.04 c -6.963,0 -12.988,2.862 -15.98,7.041 c -0.946,0.094 -1.504,0.483 -1.768,1.142 l 0.092,2.301 c -0.221,-1.128 -0.344,-2.292 -0.344,-3.484 Z" fill="#BDDDF4"/> <!-- based on bg.sweat -->
	</g>
	
	<rect id="mouth" width="10" height="16" rx="5" x="13" y="18" fill="#664500"/>
	
	<!-- eyes -->
	<ellipse id="eye1" rx="4.242" ry="6" transform="translate(11.413 13.122) rotate(16.6)" fill="#F5F8FA"/>
	<ellipse id="eye2" rx="4.242" ry="6" transform="translate(24.5865 13.122) rotate(-16.6)" fill="#F5F8FA"/>
	
	<use href="F.svg#hands_scream" color="#FCAB40"/>
</svg>
