<svg viewBox="0 0 36 36" xmlns="http://www.w3.org/2000/svg">
	<use href="F.svg#bg.normal" color="#FFCC4D"/>
	
	<use href="F.svg#mouth.smiling1" transform="matrix(1 0 0 -1 17 23.92)" color="#664500"/>
	
	<use href="F.svg#mouth.smiling1c" x="11" y="19.92" color="#664500"/>
	<use href="F.svg#mouth.smiling1c" x="23" y="19.92" color="#664500"/>
	
	<use href="F.svg#eyebrow.2" transform="translate(11.223 10.42) scale(0.963 1)" color="#664500"/>
	<use href="F.svg#eyebrow.2" transform="matrix(-1 0 0 1 22.776 10.42) scale(0.963 1)" color="#664500"/>
	
	<!-- todo -->
	<path d="M 3.24,29.842 c -0.677,-0.95 -0.727,-2.255 -0.015,-3.262 c 0.9,-1.271 2.661,-1.572 3.932,-0.671 c 0.923,0.653 1.325,1.757 1.139,2.801 c 1.121,-0.409 2.418,-0.282 3.465,0.46 c 1.695,1.2 2.096,3.548 0.895,5.243 c -1.2,1.695 -3.548,2.096 -5.243,0.895 c -0.415,-0.294 -0.751,-0.659 -1.006,-1.064 c -0.843,0.31 -1.819,0.215 -2.607,-0.343 c -1.27,-0.9 -1.571,-2.661 -0.671,-3.932 c 0.034,-0.047 0.076,-0.083 0.111,-0.127 Z" fill="#DEE7ED" />
	<path d="M 17.283,27.456 c -0.024,0.016 -1.782,1.313 -3.111,3.113 c -0.49,0.664 -0.777,1.445 -1.039,2.228 c -0.085,0.254 -0.205,0.499 -0.36,0.729 c -0.02,0.05 -0.05,0.09 -0.08,0.14 c -0.15,0.21 -0.32,0.4 -0.51,0.57 c -1.11,0.97 -2.78,1.1 -4.05,0.21 c -0.36,-0.26 -0.65,-0.57 -0.87,-0.93 c -0.74,0.27 -1.59,0.19 -2.27,-0.3 c -1.11,-0.78 -1.37,-2.31 -0.59,-3.42 c 0.03,-0.04 0.07,-0.07 0.1,-0.11 c -0.72,-1 -0.621,-2.476 0.495,-3.358 c 0.964,-0.761 2.293,-0.637 3.215,0.174 l 0.025,0.022 c 1.1,0.988 2.532,1.54 3.988,1.284 c 1.198,-0.211 2.708,-0.593 4.607,-1.232 c 0.23,-0.08 0.49,0.03 0.6,0.25 c 0.12,0.22 0.05,0.49 -0.15,0.63 Z" fill="#F4F7F9" />
</svg>
