<svg viewBox="0 0 36 36" xmlns="http://www.w3.org/2000/svg">
	<circle fill="#FFCC4D" cx="18" cy="18" r="18"/>
	<circle fill="#F5F8FA" cx="24.5" cy="13.5" r="5.5"/>
	<circle fill="#F5F8FA" cx="11.5" cy="13.5" r="5.5"/>
	<path d="M 23.109,23.424 c 1.28,0.308 1.985,0.868 1.985,1.576 s -0.901,0.708 -2.536,0.708 c -2.6,0 -6.952,0 -10.036,2.58 c -0.07,0.058 -0.156,0.087 -0.241,0.087 c -0.083,0 -0.166,-0.027 -0.234,-0.082 c -0.14,-0.111 -0.182,-0.306 -0.1,-0.464 c 2.289,-4.465 8.399,-5.072 11.162,-4.405 Z" fill="#664500" />
	<path d="M 10.5,13 c -1.381,0 -2.5,-1.119 -2.5,-2.5 c 0,-0.671 0.268,-1.277 0.698,-1.726 c 0.652,-0.388 1.388,-0.647 2.178,-0.736 c 1.201,0.182 2.124,1.21 2.124,2.462 c 0,1.381 -1.119,2.5 -2.5,2.5 Z" fill="#664500" />
	<path d="M 23.5,13 c -1.381,0 -2.5,-1.119 -2.5,-2.5 c 0,-0.671 0.268,-1.277 0.699,-1.726 c 0.651,-0.388 1.388,-0.647 2.177,-0.736 c 1.201,0.182 2.124,1.21 2.124,2.462 c 0,1.381 -1.119,2.5 -2.5,2.5 Z" fill="#664500" />
	</svg>
