<svg viewBox="0 0 36 36" xmlns="http://www.w3.org/2000/svg">
	<circle cx="18" cy="18" r="18" fill="#FFCC4D" />
	<ellipse fill="#664500" cx="12" cy="16.5" rx="2.5" ry="2.75"/>
	<ellipse fill="#664500" cx="24" cy="16.5" rx="2.5" ry="3.5"/>
	<path d="M 7.102,12.559 c -0.17,-0.121 -0.305,-0.295 -0.373,-0.509 c -0.171,-0.525 0.117,-1.089 0.643,-1.259 c 5.174,-1.674 8.76,0.795 8.91,0.901 c 0.449,0.317 0.556,0.937 0.241,1.388 s -0.937,0.562 -1.39,0.25 c -0.119,-0.082 -2.959,-1.991 -7.146,-0.636 c -0.311,0.101 -0.636,0.041 -0.885,-0.135 Z" fill="#664500" />
	<rect x="10" y="24" width="16" height="2" rx="1" fill="#664500" />
	<path d="M 30.001,10.408 c -0.368,0 -0.731,-0.161 -0.979,-0.471 c -1.395,-1.751 -4.299,-3.287 -5.314,-3.287 c -0.642,0 -1.925,0.911 -2.604,1.568 c -0.496,0.482 -1.288,0.467 -1.767,-0.028 c -0.48,-0.495 -0.469,-1.285 0.024,-1.766 c 0.391,-0.38 2.436,-2.275 4.347,-2.275 c 2.005,0 5.538,2.056 7.27,4.229 c 0.431,0.54 0.341,1.326 -0.198,1.756 c -0.231,0.185 -0.507,0.274 -0.779,0.274 Z" fill="#664500" />
	</svg>
