<svg viewBox="0 0 36 36" xmlns="http://www.w3.org/2000/svg">
	<circle r="17" cx="18" cy="18" fill="#FFCC4D"/>
	
	<ellipse id="mouth" cx="18" cy="28" rx="4" ry="3" fill="#664500"/>
	
	<g id="eye1">
		<!-- this path had an encoding issue which caused it to be shifted downwards visually, but it's relatively clear what the actual position should've been -->
		<circle r="4.5" cx="23.5" cy="15.5" fill="#F5F8FA"/>
		<!--<path d="M 27.899,14.557 a 4.5,4.5 0 11 -8.8,1.885 a 4.5,4.5 0 01 8.8,-1.885 Z" fill="#F5F8FA"/> -->
		<circle r="2.5" cx="23.5" cy="16.5" fill="#292F33"/>
	</g>
	
	<use id="eyebrow1" href="F.svg#eyebrow.6a9" transform="translate(14.99 8.181) rotate(-7.0847)" color="#664500"/>
	<use id="eyebrow1" href="F.svg#eyebrow.6a9" transform="matrix(-1 0 0 1, 21.01 8.181) rotate(-7.0847)" color="#664500"/>
	
	<!-- hand -->
	<!--<path d="M 13.995,13.645 l 0.324,-0.473 s 0.708,-1.032 1.739,-0.324 c 1.032,0.708 0.325,1.739 0.325,1.739 l -0.683,0.997 c 0.168,0.128 0.332,0.259 0.491,0.389 c 0,0 0.708,-1.032 1.739,-0.324 c 1.032,0.708 0.325,1.739 0.325,1.739 l -1.375,1.94 c 0.138,0.184 0.363,0.289 0.476,0.477 c 0,0 0.708,-1.032 1.739,-0.325 c 1.033,0.708 0.325,1.74 0.325,1.74 l -5.661,8.257 a 7.51,7.51 0 01 -10.438,1.946 a 7.51,7.51 0 01 -2.465,-9.559 c 0.589,-1.17 1.034,-2.407 1.451,-3.648 l 1.054,-3.131 s 0.342,-1.204 1.545,-0.863 c 1.203,0.342 0.862,1.545 0.862,1.545 l -0.913,4.568 c 0.172,0.118 0.337,0.24 0.494,0.366 l 6.037,-8.784 s 0.708,-1.032 1.739,-0.324 s 0.324,1.739 0.324,1.739 l 0.546,0.313 Z" fill="#F19020"/>-->
	
	<!-- WavingHand - not exactly (may be edited etc.) to adjust the spacing between fingers and remove the palm line -->
	<g transform="matrix(-1 0 0 1 3.321 31.423) scale(.6256) translate(-28.428 -33.643)">
		<path fill="#EF9645" d="M4.861 9.147c.94-.657 2.357-.531 3.201.166l-.968-1.407c-.779-1.111-.5-2.313.612-3.093 1.112-.777 4.263 1.312 4.263 1.312-.786-1.122-.639-2.544.483-3.331 1.122-.784 2.67-.513 3.456.611l10.42 14.72L25 31l-11.083-4.042L4.25 12.625c-.793-1.129-.519-2.686.611-3.478z"/>
		<path d="M2.695 17.336s-1.132-1.65.519-2.781c1.649-1.131 2.78.518 2.78.518l5.251 7.658c.181-.302.379-.6.6-.894L4.557 11.21s-1.131-1.649.519-2.78c1.649-1.131 2.78.518 2.78.518l6.855 9.997c.255-.208.516-.417.785-.622L7.549 6.732s-1.131-1.649.519-2.78c1.649-1.131 2.78.518 2.78.518l7.947 11.589c.292-.179.581-.334.871-.498L12.238 4.729s-1.131-1.649.518-2.78c1.649-1.131 2.78.518 2.78.518l7.854 11.454 1.194 1.742c-4.948 3.394-5.419 9.779-2.592 13.902.565.825 1.39.26 1.39.26-3.393-4.949-2.357-10.51 2.592-13.903L24.515 8.62s-.545-1.924 1.378-2.47c1.924-.545 2.47 1.379 2.47 1.379l1.685 5.004c.668 1.984 1.379 3.961 2.32 5.831 2.657 5.28 1.07 11.842-3.94 15.279-5.465 3.747-12.936 2.354-16.684-3.11L2.695 17.336z" fill="#F19020"/>
	</g>
	<!-- VulcanSalute -->
	<g transform="translate(30.686 32.392) scale(0.5658) rotate(-21.41) translate(-18 -36)">
		<!-- fingers - todo: the ends of these should be those fake circle quadrants made from a degenerate cubic bezier -->
		<path d="M11.136 19.038c.259.967-.314 1.961-1.281 2.221l-.362.097c-.967.259-1.961-.314-2.22-1.281L4.069 8.121c-.258-.967.316-1.962 1.283-2.221l.361-.097c.967-.26 1.961.314 2.221 1.281l3.202 11.954zm4.554-2.32c.269 1-.325 2.028-1.325 2.296l-.242.065c-1 .268-2.028-.326-2.296-1.326L7.88 3.022c-.269-1 .325-2.028 1.325-2.296l.242-.065c1-.268 2.028.326 2.297 1.326l3.946 14.731zm4.994 1.204c-.18 1.02-1.152 1.701-2.172 1.521l-.246-.044c-1.02-.18-1.701-1.152-1.521-2.172L19.393 2.21c.18-1.02 1.152-1.701 2.172-1.521l.246.043c1.02.18 1.701 1.153 1.522 2.173l-2.649 15.017zm4.902.991c-.168.952-1.074 1.588-2.027 1.42l-.492-.087c-.952-.168-1.587-1.075-1.42-2.027L24.166 3.94c.168-.951 1.075-1.588 2.026-1.42l.493.087c.952.168 1.587 1.076 1.419 2.027l-2.518 14.279zm3.341 8.446c-.522.903-1.677 1.213-2.581.691l-.191-.111c-.904-.522-1.214-1.677-.691-2.58l5.609-9.718c.522-.903 1.678-1.214 2.582-.692l.191.111c.904.521 1.213 1.678.691 2.581l-5.61 9.718z" fill="#F19020"/>
		<!-- palm -->
		<path d="M6.183 16.007C6.583 17.5 6 21.192 6 24s2.125 12 12 12 10.5-8.234 12-10.666c1.5-2.432-.833-6.375-2-4.375s-2.934 1.163-2.333-2.375-3.12-5.464-3.636-2.544c-.438 2.477-1.438 1.753-.854-.913.583-2.667-3.514-3.42-4.177.207-.487 2.667-1.452.892-1.851-.637s-4.484-1.664-3.951.709c.761 3.387-.005 4.067-1.114-.071-.704-2.625-3.901.672-3.901.672z" fill="#F19020"/>
	</g>
	
	<path d="M 13.997,13.667 l -5.515,8.399 a 0.339,0.339 0 01 -0.471,0.098 a 0.34,0.34 0 01 -0.098,-0.471 l 5.515,-8.399 l 0.569,0.373 Z M 16.247,15.97 l -5.005,7.826 a 0.34,0.34 0 01 -0.47,0.103 a 0.34,0.34 0 01 -0.104,-0.47 l 5.005,-7.826 l 0.574,0.367 Z M 17.456,19.691 l -3.711,5.9 a 0.34,0.34 0 01 -0.47,0.107 a 0.341,0.341 0 01 -0.107,-0.47 l 3.711,-5.9 l 0.577,0.363 Z" fill="#B55005"/>	
	<path d="M 19.696,18.609 l 4.127,5.676 a 0.341,0.341 0 01 -0.274,0.542 a 0.338,0.338 0 01 -0.275,-0.14 l -4.127,-5.676 l 0.549,-0.402 Z M 27.358,14.154 l 1.608,7.821 a 0.34,0.34 0 01 -0.667,0.137 l -1.608,-7.821 l 0.667,-0.137 Z M 17.592,20.584 l 1.174,1.591 l -0.408,0.595 l -1.315,-1.782 c -0.296,-0.404 -0.401,-0.915 -0.287,-1.403 l 0.679,0.093 c -0.068,0.295 -0.021,0.664 0.157,0.906 Z" fill="#B55005"/>
	
</svg>
