<svg viewBox="0 0 36 36" xmlns="http://www.w3.org/2000/svg">
	<!-- based on EnragedFace (even has the mouth layer hidden under the censor -->
	
	<use href="F.svg#bg.normal" color="#DA2F47"/>
	
	<!--mouth <use id="mouth" href="F.svg#mouth.smiling3" transform="matrix(1 0 0 -1 18 25.5)" color="#292F33"/>-->
	
	<use id="eye1" href="F.svg#eye.angry1" x="12.5" y="17.5" color="#292F33"/>
	<use id="eye2" href="F.svg#eye.angry1" transform="matrix(-1 0 0 1 23.5 17.5)" color="#292F33"/>
	
	<g>
		<rect x="4" y="22.739" width="28" height="10.261" rx="2.261" fill="#292F33"/>
		<path d="M 7.8408,27.2295 h-0.817 c -0.314,0 -0.457,-0.229 -0.457,-0.457 s 0.143,-0.456 0.457,-0.456 h0.95 l 0.209,-1.53 c 0.048,-0.342 0.19,-0.456 0.475,-0.456 c 0.228,0 0.438,0.151 0.438,0.379 c 0,0.143 0,0.077 -0.019,0.229 l -0.191,1.378 h0.913 l 0.209,-1.53 c 0.048,-0.342 0.19,-0.456 0.476,-0.456 c 0.228,0 0.437,0.151 0.437,0.379 c 0,0.143 0,0.077 -0.019,0.229 l -0.19,1.378 h0.817 c 0.314,0 0.457,0.228 0.457,0.456 s -0.143,0.457 -0.457,0.457 h-0.95 l -0.153,1.083 h0.818 c 0.314,0 0.456,0.229 0.456,0.457 s -0.142,0.456 -0.456,0.456 h-0.95 l -0.209,1.53 c -0.048,0.343 -0.191,0.456 -0.476,0.456 c -0.228,0 -0.437,-0.151 -0.437,-0.379 c 0,-0.143 0,-0.077 0.019,-0.229 l 0.19,-1.378 h-0.913 l -0.209,1.53 c -0.047,0.343 -0.19,0.456 -0.475,0.456 c -0.228,0 -0.438,-0.151 -0.438,-0.379 c 0,-0.143 0,-0.077 0.019,-0.229 l 0.191,-1.378 h-0.818 c -0.314,0 -0.456,-0.228 -0.456,-0.456 s 0.142,-0.457 0.456,-0.457 h0.951 l 0.152,-1.083 Z M 8.6108,28.3125 h0.903 l 0.152,-1.083 h-0.903 l -0.152,1.083 Z" fill="#FFF"/>
		<path d="M 16.5733,29.7393 c 0,-0.827 0.617,-1.54 1.463,-1.54 c 0.847,0 1.465,0.713 1.465,1.54 c 0,0.826 -0.618,1.53 -1.465,1.53 c -0.846,0 -1.463,-0.704 -1.463,-1.53 v0 Z M 18.5313,29.7393 c 0,-0.305 -0.181,-0.57 -0.495,-0.57 s -0.494,0.265 -0.494,0.57 c 0,0.304 0.18,0.561 0.494,0.561 s 0.495,-0.257 0.495,-0.561 Z M 17.4943,24.5193 c 0.124,-0.237 0.219,-0.303 0.438,-0.303 c 0.294,0 0.56,0.237 0.56,0.532 c 0,0.076 0,0.142 -0.076,0.285 l -3.194,5.979 c -0.142,0.2 -0.199,0.314 -0.427,0.314 c -0.247,0 -0.542,-0.237 -0.542,-0.523 c 0,-0.142 0.057,-0.275 0.095,-0.351 l 3.146,-5.933 Z M 13.2263,25.8123 c 0,-0.827 0.618,-1.54 1.464,-1.54 s 1.464,0.713 1.464,1.54 s -0.618,1.531 -1.464,1.531 s -1.464,-0.704 -1.464,-1.531 Z M 15.1843,25.8123 c 0,-0.303 -0.18,-0.57 -0.494,-0.57 s -0.494,0.267 -0.494,0.57 c 0,0.305 0.18,0.562 0.494,0.562 s 0.494,-0.257 0.494,-0.562 Z" fill="#FFF"/>
		<path d="M 21.0742,24.9189 c 0,-0.399 0.294,-0.646 0.684,-0.646 c 0.38,0 0.684,0.256 0.684,0.646 v3.66 c 0,0.39 -0.304,0.647 -0.684,0.647 c -0.39,0 -0.684,-0.247 -0.684,-0.647 v-3.66 Z M 21.0162,30.5279 c 0,-0.409 0.333,-0.742 0.742,-0.742 s 0.742,0.333 0.742,0.742 s -0.333,0.742 -0.742,0.742 s -0.742,-0.333 -0.742,-0.742 Z" fill="#FFF"/>
		<path d="M 29.152,31.3266 c -0.186,0 -0.303,-0.053 -0.43,-0.197 l -0.724,-0.789 l -0.072,0.067 c -0.702,0.644 -1.308,0.919 -2.025,0.919 c -1.109,0 -2.229,-0.632 -2.229,-2.044 c 0,-1.108 0.867,-1.77 1.384,-2.066 l 0.117,-0.067 l -0.095,-0.098 c -0.425,-0.445 -0.598,-0.813 -0.598,-1.269 c 0,-1.077 0.983,-1.567 1.896,-1.567 c 0.764,0 1.84,0.452 1.84,1.458 c 0,0.95 -0.883,1.5 -1.153,1.647 l -0.116,0.062 l 1.161,1.341 l 0.445,-0.536 c 0.247,-0.298 0.39,-0.422 0.646,-0.422 c 0.205,0 0.424,0.184 0.424,0.522 c 0,0.255 -0.252,0.586 -0.499,0.876 l -0.297,0.335 l 0.706,0.837 c 0.131,0.158 0.185,0.24 0.185,0.429 c 0,0.294 -0.27,0.562 -0.566,0.562 Z M 26.376,25.1416 c -0.28,0 -0.67,0.229 -0.67,0.602 c 0,0.347 0.171,0.559 0.534,0.929 l 0.051,0.052 l 0.064,-0.033 c 0.497,-0.26 0.749,-0.552 0.749,-0.869 c 0,-0.469 -0.377,-0.681 -0.728,-0.681 Z M 25.705,27.8526 c -0.428,0.287 -0.864,0.665 -0.864,1.291 c 0,0.655 0.427,1.078 1.089,1.078 c 0.551,0 0.909,-0.242 1.275,-0.605 l 0.071,-0.07 l -1.5,-1.743 l -0.071,0.049 Z" fill="#FFF"/>
	</g>
</svg>
