<svg viewBox="0 0 36 36" xmlns="http://www.w3.org/2000/svg">
	<path d="M 18,0 c 9.941,0 18,8.06 18,18 c 0,6.051 -2.995,11.392 -7.574,14.655 c -0.108,-6.456 2.232,-13.655 6.17,-13.655 c 0.466,0 0.843,0.066 1.157,0.183 c -0.3,-0.757 -0.959,-1.183 -2.192,-1.183 c -4.273,0 -6.668,8.48 -6.091,15.287 c -2.754,1.709 -5.991,2.713 -9.47,2.713 c -3.478,0 -6.714,-1.003 -9.468,-2.712 c 0.574,-6.782 -1.822,-15.288 -6.092,-15.288 c -1.229,0 -1.886,0.426 -2.189,1.183 c 0.313,-0.117 0.689,-0.183 1.153,-0.183 c 3.933,0 6.274,7.217 6.17,13.655 c -4.578,-3.263 -7.574,-8.604 -7.574,-14.655 c 0,-9.94 8.06,-18 18,-18 Z" fill="#FFCC4D" />
	<path d="M 18,0 c 9.941,0 18,8.06 18,18 c 0,1.192 -0.122,2.356 -0.343,3.484 c -0.235,-0.863 -0.6,-1.691 -1.058,-2.484 c 0.464,0 0.841,0.066 1.153,0.183 c -0.262,-0.661 -0.822,-1.049 -1.772,-1.143 c -2.992,-4.179 -9.016,-7.04 -15.98,-7.04 c -6.963,0 -12.988,2.862 -15.98,7.041 c -0.946,0.094 -1.504,0.483 -1.768,1.142 c 0.312,-0.117 0.687,-0.183 1.15,-0.183 c -0.458,0.793 -0.824,1.621 -1.058,2.484 c -0.221,-1.128 -0.344,-2.292 -0.344,-3.484 c 0,-9.94 8.06,-18 18,-18 Z" fill="#BDDDF4" />
	<path d="M 7.347,11.91 c 0.947,-3.175 3.535,-5.207 5.781,-4.538 c 2.245,0.669 3.297,3.787 2.351,6.962 c -0.945,3.176 -3.533,5.208 -5.779,4.538 c -2.246,-0.669 -3.299,-3.786 -2.353,-6.962 Z" fill="#F5F8FA" />
	<path d="M 28.652,11.91 c 0.946,3.176 -0.107,6.293 -2.352,6.962 c -2.246,0.67 -4.834,-1.362 -5.779,-4.538 c -0.946,-3.175 0.107,-6.293 2.351,-6.962 c 2.245,-0.669 4.833,1.363 5.78,4.538 Z" fill="#F5F8FA" />
	<rect x="13" y="18" width="10" height="16" rx="5" fill="#664500" />
	<path d="M 1.404,19 c 4.639,0 7.064,10.04 5.874,17 h-6.46 c 2.031,-7.46 -2.148,-15.002 -0.286,-17.293 c -0.114,0.14 -0.209,0.297 -0.281,0.476 c 0.313,-0.117 0.689,-0.183 1.153,-0.183 Z" fill="#FCAB40" />
	<path d="M 35.753,19.183 c 1.086,2.728 -2.476,9.772 -0.57,16.817 h-6.46 c -1.192,-6.998 1.232,-17 5.873,-17 c 0.466,0 0.843,0.066 1.157,0.183 Z" fill="#FCAB40" />
	</svg>
