<svg viewBox="0 0 36 36" xmlns="http://www.w3.org/2000/svg">
	<use href="F.svg#bg.normal" color="#FFCC4D"/>
	<path d="M 6.999,17 c -0.15,0 -0.303,-0.034 -0.446,-0.105 c -0.494,-0.247 -0.694,-0.848 -0.447,-1.342 c 0.052,-0.105 1.318,-2.553 4.894,-2.553 c 3.577,0 4.842,2.449 4.894,2.553 c 0.247,0.494 0.046,1.095 -0.447,1.342 c -0.491,0.247 -1.085,0.049 -1.336,-0.436 c -0.044,-0.081 -0.831,-1.459 -3.111,-1.459 c -2.317,0 -3.099,1.433 -3.106,1.447 c -0.175,0.351 -0.528,0.553 -0.895,0.553 Z" fill="#664500" />
	<path d="M 29,17 c -0.367,0 -0.72,-0.202 -0.895,-0.553 c -0.007,-0.014 -0.789,-1.447 -3.106,-1.447 c -2.28,0 -3.067,1.378 -3.111,1.459 c -0.251,0.485 -0.845,0.683 -1.336,0.436 c -0.493,-0.247 -0.694,-0.848 -0.447,-1.342 c 0.052,-0.104 1.317,-2.553 4.894,-2.553 c 3.576,0 4.842,2.448 4.894,2.553 c 0.247,0.494 0.047,1.095 -0.447,1.342 c -0.143,0.071 -0.296,0.105 -0.446,0.105 Z" fill="#664500" />
	<path d="M 29.503,23.52 c -0.814,1.885 -2.858,5.337 -7.188,6.795 c -1.245,0.419 -2.665,0.685 -4.315,0.685 c -9.669,0 -11.948,-8.67 -11.97,-8.758 c -0.133,-0.534 0.191,-1.075 0.725,-1.21 c 0.536,-0.135 1.077,0.189 1.215,0.723 c 0.075,0.296 1.949,7.245 10.03,7.245 s 9.955,-6.949 10.029,-7.244 c 0.138,-0.535 0.679,-0.859 1.215,-0.723 c 0.535,0.135 0.859,0.676 0.725,1.21 c -0.005,0.02 -0.143,0.528 -0.466,1.277 Z" fill="#664500" />
	<path d="M 32.407,26.681 c 1.729,1.729 1.825,4.691 -0.175,6.691 s -5.272,1.728 -7,0 l -2.726,-2.726 l -0.296,-0.296 s -0.466,0.174 -1.051,0.301 c 0,0 -0.347,-0.795 0.388,-0.964 c 0.558,-0.129 1.916,-0.799 2.697,-1.318 c 1.859,-1.236 3.154,-2.849 3.934,-4.171 c 0.593,-1.006 1.273,-0.568 1.273,-0.568 l 2.956,3.051 Z" fill="#E75A70" />
	<path d="M 29.915,31.074 c -0.213,0.213 -0.559,0.213 -0.772,0.001 l -3.653,-3.653 l 0.796,-0.748 l 3.629,3.629 c 0.213,0.213 0.213,0.558 0,0.771 Z" fill="#DE3146" />
</svg>
