<svg viewBox="0 0 36 36" xmlns="http://www.w3.org/2000/svg">
	<circle cx="18" cy="17" r="17" fill="#FFCC4D" />
	<path d="M 28.457,14.297 c 0.093,0.208 0.032,0.452 -0.145,0.594 c -0.091,0.072 -0.202,0.109 -0.312,0.109 c -0.104,0 -0.21,-0.033 -0.298,-0.099 c -0.028,-0.02 -1.276,-0.901 -3.702,-0.901 c -2.44,0 -3.69,0.893 -3.702,0.902 c -0.184,0.133 -0.435,0.128 -0.61,-0.014 c -0.177,-0.142 -0.237,-0.384 -0.145,-0.591 c 0.06,-0.135 1.5,-3.297 4.457,-3.297 c 2.958,0 4.397,3.162 4.457,3.297 Z" fill="#664500" />
	<path d="M 16.457,14.297 c 0.092,0.208 0.033,0.452 -0.145,0.594 c -0.091,0.072 -0.202,0.109 -0.312,0.109 c -0.104,0 -0.21,-0.033 -0.298,-0.099 c -0.028,-0.02 -1.276,-0.901 -3.702,-0.901 c -2.441,0 -3.69,0.893 -3.703,0.902 c -0.183,0.133 -0.434,0.128 -0.61,-0.014 s -0.236,-0.384 -0.144,-0.591 c 0.06,-0.135 1.5,-3.297 4.457,-3.297 c 2.958,0 4.397,3.162 4.457,3.297 Z" fill="#664500" />
	<path d="M 26.503,27.371 l -6.699,6.244 l -0.447,0.418 c -2.959,2.758 -7.596,2.595 -10.355,-0.364 c -2.529,-2.715 -2.602,-6.836 -0.318,-9.629 c 0.81,-0.989 1.496,-2.074 2.159,-3.167 l 1.668,-2.758 s 0.58,-1.074 1.655,-0.493 c 1.073,0.581 0.493,1.655 0.493,1.655 l -1.842,4.158 c 0.549,0.565 1.087,-0.179 1.087,-0.179 l 0.222,-0.207 l 0.497,-0.464 l 6.203,-5.781 s 0.788,-0.944 1.621,-0.051 c 0.832,0.892 -0.164,1.614 -0.164,1.614 l -5.866,5.468 c 0.152,0.137 0.614,0.601 0.764,0.746 l 6.278,-5.848 s 0.789,-0.944 1.621,-0.051 c 0.833,0.892 -0.164,1.614 -0.164,1.614 l -6.276,5.85 c 0.133,0.158 0.469,0.54 0.594,0.698 l 5.413,-5.046 s 0.79,-0.943 1.622,-0.051 c 0.834,0.894 -0.164,1.615 -0.164,1.615 l -5.755,5.366 c 0.091,0.204 0.481,0.742 0.55,0.947 l 4.147,-3.866 s 0.789,-0.945 1.621,-0.052 s -0.165,1.614 -0.165,1.614 Z" fill="#F4900C" />
	</svg>
