<svg viewBox="0 0 36 36" xmlns="http://www.w3.org/2000/svg">
	<circle cx="18" cy="17" r="17" fill="#FFCC4D"/>
	
	<use id="eye1" href="F.svg#mouth.smiling1b" transform="matrix(1 0 0 -1 12 11)" color="#664500"/>
	<use id="eye2" href="F.svg#mouth.smiling1b" transform="matrix(1 0 0 -1 24 11)" color="#664500"/>
	
	<!-- hand (same as SmilingFaceWithOpenHands)-->
	<path d="M 26.503,27.371 l -6.699,6.244 l -0.447,0.418 c -2.959,2.758 -7.596,2.595 -10.355,-0.364 c -2.529,-2.715 -2.602,-6.836 -0.318,-9.629 c 0.81,-0.989 1.496,-2.074 2.159,-3.167 l 1.668,-2.758 s 0.58,-1.074 1.655,-0.493 c 1.073,0.581 0.493,1.655 0.493,1.655 l -1.842,4.158 c 0.549,0.565 1.087,-0.179 1.087,-0.179 l 0.222,-0.207 l 0.497,-0.464 l 6.203,-5.781 s 0.788,-0.944 1.621,-0.051 c 0.832,0.892 -0.164,1.614 -0.164,1.614 l -5.866,5.468 c 0.152,0.137 0.614,0.601 0.764,0.746 l 6.278,-5.848 s 0.789,-0.944 1.621,-0.051 c 0.833,0.892 -0.164,1.614 -0.164,1.614 l -6.276,5.85 c 0.133,0.158 0.469,0.54 0.594,0.698 l 5.413,-5.046 s 0.79,-0.943 1.622,-0.051 c 0.834,0.894 -0.164,1.615 -0.164,1.615 l -5.755,5.366 c 0.091,0.204 0.481,0.742 0.55,0.947 l 4.147,-3.866 s 0.789,-0.945 1.621,-0.052 s -0.165,1.614 -0.165,1.614 Z" fill="#F4900C"/>
	
	<!-- is this from (very old) twemoji/svg/1f450.svg ? -->
</svg>
