<svg viewBox="0 0 36 36" xmlns="http://www.w3.org/2000/svg">
	<use href="F.svg#bg.normal" color="#FFCC4D"/>
	<path d="M 29.52,15.42 c -0.294,0 -0.582,-0.138 -0.771,-0.4 c -2.543,-3.521 -5.837,-3.599 -5.976,-3.6 c -0.53,-0.006 -0.957,-0.456 -0.954,-1.005 c 0.003,-0.551 0.43,-0.995 0.96,-0.995 c 0.177,0 4.369,0.05 7.511,4.4 c 0.32,0.442 0.233,1.069 -0.193,1.4 c -0.174,0.135 -0.376,0.2 -0.577,0.2 Z" fill="#664500" />
	<path d="M 4.48,15.42 c -0.2,0 -0.403,-0.065 -0.577,-0.2 c -0.426,-0.331 -0.511,-0.958 -0.193,-1.4 c 3.141,-4.35 7.334,-4.4 7.511,-4.4 c 0.532,0 0.963,0.448 0.963,1 c 0,0.551 -0.429,0.998 -0.959,1 c -0.15,0.002 -3.437,0.086 -5.975,3.6 c -0.187,0.262 -0.477,0.4 -0.77,0.4 Z" fill="#664500" />
	<path d="M 14.703,17.018 c 0.193,-0.143 0.466,-0.128 0.642,0.041 c 0.175,0.168 0.205,0.436 0.071,0.638 c -0.061,0.091 -1.516,2.223 -4.416,2.223 c -2.901,0 -4.355,-2.132 -4.416,-2.222 c -0.136,-0.203 -0.105,-0.474 0.072,-0.641 c 0.178,-0.169 0.45,-0.183 0.644,-0.037 c 0.01,0.007 1.258,0.9 3.7,0.9 c 2.441,0 3.69,-0.893 3.703,-0.902 Z" fill="#664500" />
	<path d="M 27.345,17.06 c 0.175,0.168 0.206,0.436 0.071,0.637 c -0.061,0.091 -1.516,2.223 -4.416,2.223 c -2.901,0 -4.355,-2.132 -4.416,-2.222 c -0.135,-0.203 -0.105,-0.474 0.072,-0.641 c 0.178,-0.169 0.451,-0.183 0.644,-0.037 c 0.01,0.007 1.259,0.9 3.7,0.9 c 2.44,0 3.69,-0.893 3.702,-0.902 c 0.196,-0.144 0.468,-0.127 0.643,0.042 Z" fill="#664500" />
	<path d="M 22.485,28.299 c 0.055,0.218 -0.043,0.445 -0.239,0.557 c -0.077,0.043 -0.162,0.064 -0.246,0.064 c -0.125,0 -0.249,-0.047 -0.344,-0.137 c -0.039,-0.033 -1.066,-0.863 -4.656,-0.863 c -3.644,0 -4.648,0.855 -4.657,0.863 c -0.163,0.146 -0.408,0.172 -0.596,0.06 c -0.188,-0.113 -0.285,-0.331 -0.232,-0.544 c 0.011,-0.044 1.145,-4.379 5.485,-4.379 s 5.474,4.335 5.485,4.379 Z" fill="#664500" />
	<path d="M 3.24,29.842 c -0.677,-0.95 -0.727,-2.255 -0.015,-3.262 c 0.9,-1.271 2.661,-1.572 3.932,-0.671 c 0.923,0.653 1.325,1.757 1.139,2.801 c 1.121,-0.409 2.418,-0.282 3.465,0.46 c 1.695,1.2 2.096,3.548 0.895,5.243 c -1.2,1.695 -3.548,2.096 -5.243,0.895 c -0.415,-0.294 -0.751,-0.659 -1.006,-1.064 c -0.843,0.31 -1.819,0.215 -2.607,-0.343 c -1.27,-0.9 -1.571,-2.661 -0.671,-3.932 c 0.034,-0.047 0.076,-0.083 0.111,-0.127 Z" fill="#DEE7ED" />
	<path d="M 17.283,27.456 c -0.024,0.016 -1.782,1.313 -3.111,3.113 c -0.49,0.664 -0.777,1.445 -1.039,2.228 c -0.085,0.254 -0.205,0.499 -0.36,0.729 c -0.02,0.05 -0.05,0.09 -0.08,0.14 c -0.15,0.21 -0.32,0.4 -0.51,0.57 c -1.11,0.97 -2.78,1.1 -4.05,0.21 c -0.36,-0.26 -0.65,-0.57 -0.87,-0.93 c -0.74,0.27 -1.59,0.19 -2.27,-0.3 c -1.11,-0.78 -1.37,-2.31 -0.59,-3.42 c 0.03,-0.04 0.07,-0.07 0.1,-0.11 c -0.72,-1 -0.621,-2.476 0.495,-3.358 c 0.964,-0.761 2.293,-0.637 3.215,0.174 l 0.025,0.022 c 1.1,0.988 2.532,1.54 3.988,1.284 c 1.198,-0.211 2.708,-0.593 4.607,-1.232 c 0.23,-0.08 0.49,0.03 0.6,0.25 c 0.12,0.22 0.05,0.49 -0.15,0.63 Z" fill="#F4F7F9" />
	</svg>
