<svg xmlns="http://www.w3.org/2000/svg" viewBox="0 0 36 36">
	<circle cx="18" cy="17" r="17" fill="#FFCB4C" />
	<path d="M 18,27.136 c -3.335,0 -5.548,0.388 -8.284,0.92 c -0.625,0.121 -1.841,0 -1.841,-1.841 c 0,-3.682 4.23,-8.284 10.125,-8.284 s 10.125,4.602 10.125,8.284 c 0,1.841 -1.216,1.961 -1.841,1.841 c -2.737,-0.532 -4.949,-0.92 -8.284,-0.92 Z" fill="#65471B" />
	<path d="M 6.668,18.888 c 0.197,0 0.395,-0.061 0.568,-0.19 c 0.035,-0.026 3.576,-2.644 7.933,-2.644 c 0.381,0 0.726,-0.23 0.872,-0.583 s 0.065,-0.759 -0.205,-1.029 c -3.074,-3.074 -8.014,-3.11 -8.223,-3.11 c -0.522,0 -0.944,0.422 -0.944,0.943 c -0.001,0.521 0.421,0.945 0.942,0.946 c 0.033,0 2.627,0.025 4.965,1.197 c -3.688,0.709 -6.34,2.669 -6.475,2.77 c -0.418,0.313 -0.502,0.905 -0.189,1.322 c 0.185,0.248 0.469,0.378 0.756,0.378 Z" fill="#65471B" />
	<path d="M 29.332,18.888 c -0.196,0 -0.395,-0.061 -0.564,-0.187 c -0.036,-0.027 -3.6,-2.645 -7.935,-2.645 c -0.382,0 -0.727,-0.23 -0.872,-0.583 c -0.147,-0.353 -0.066,-0.759 0.205,-1.029 c 3.075,-3.075 8.015,-3.11 8.223,-3.11 c 0.521,0 0.943,0.422 0.944,0.943 s -0.422,0.944 -0.942,0.946 c -0.034,0 -2.629,0.025 -4.966,1.197 c 3.688,0.708 6.34,2.668 6.475,2.77 c 0.417,0.313 0.502,0.903 0.19,1.321 c -0.186,0.247 -0.47,0.377 -0.758,0.377 Z" fill="#65471B" />
	<path d="M 25.712,32.287 c 4.403,0.349 7.359,0.985 7.359,1.713 c 0,1.105 -6.777,2 -15.137,2 s -15.137,-0.895 -15.137,-2 c 0,-0.728 2.956,-1.364 7.359,-1.713 v-7.101 c 0,-2.592 3.889,-5.185 7.778,-5.185 s 7.778,2.592 7.778,5.185 v7.101 Z" fill="#77AF57" />
	<circle fill="#5D8F3F" cx="15.875" cy="23.228" r="1.235"/>
	<circle fill="#5D8F3F" cx="20.698" cy="25.64" r="1.235"/>
	<circle transform="rotate(-80.781 21.232 30.514)" fill="#5D8F3F" cx="21.232" cy="30.515" r="1.235"/>
	<circle transform="rotate(-80.781 15.107 32.548)" fill="#5D8F3F" cx="15.107" cy="32.548" r="1.765"/>
	</svg>
