<svg viewBox="0 0 36 36" xmlns="http://www.w3.org/2000/svg">
	<circle cx="18" cy="18" r="17" fill="#FFCC4D" />
	<ellipse fill="#65471B" cx="18" cy="28" rx="4" ry="3"/>
	<path d="M 27.899,14.557 a 4.5,4.5 0 11 -8.8,1.885 a 4.5,4.5 0 01 8.8,-1.885 Z" fill="#F4F7F9" />
	<ellipse fill="#292F33" cx="23.5" cy="16.498" rx="2.5" ry="2.498"/>
	<path d="M 26.963,9.931 a 1,1 0 00 0.447,-1.895 a 9.932,9.932 0 00 -6.613,-0.822 a 1,1 0 10 0.426,1.954 a 7.949,7.949 0 01 5.295,0.658 a 0.999,0.999 0 00 0.445,0.105 Z" fill="#65471B" />
	<path d="M 9.037,9.931 a 0.999,0.999 0 00 0.445,-0.105 a 7.949,7.949 0 01 5.295,-0.658 a 1,1 0 10 0.426,-1.954 a 9.94,9.94 0 00 -6.613,0.822 a 1,1 0 00 0.447,1.895 Z" fill="#65471B" />
	<path d="M 13.995,13.645 l 0.324,-0.473 s 0.708,-1.032 1.739,-0.324 c 1.032,0.708 0.325,1.739 0.325,1.739 l -0.683,0.997 c 0.168,0.128 0.332,0.259 0.491,0.389 c 0,0 0.708,-1.032 1.739,-0.324 c 1.032,0.708 0.325,1.739 0.325,1.739 l -1.375,1.94 c 0.138,0.184 0.363,0.289 0.476,0.477 c 0,0 0.708,-1.032 1.739,-0.325 c 1.033,0.708 0.325,1.74 0.325,1.74 l -5.661,8.257 a 7.51,7.51 0 01 -10.438,1.946 a 7.51,7.51 0 01 -2.465,-9.559 c 0.589,-1.17 1.034,-2.407 1.451,-3.648 l 1.054,-3.131 s 0.342,-1.204 1.545,-0.863 c 1.203,0.342 0.862,1.545 0.862,1.545 l -0.913,4.568 c 0.172,0.118 0.337,0.24 0.494,0.366 l 6.037,-8.784 s 0.708,-1.032 1.739,-0.324 s 0.324,1.739 0.324,1.739 l 0.546,0.313 Z" fill="#F19020" />
	<path d="M 34.764,24.896 c -0.026,1.914 0.576,5.672 -4.078,7.496 c -5.202,2.04 -8.22,-2.364 -8.8,-3.843 c -0.579,-1.479 -1.034,-3.542 -1.553,-4.247 l -2.743,-3.719 a 1.027,1.027 0 01 0.217,-1.435 l 0.17,-0.126 a 1.012,1.012 0 01 1.167,-0.012 c 0.098,0.065 0.194,0.128 0.268,0.228 l 3.4,4.612 c 0.92,1.055 0.973,0.481 0.038,-0.902 c -0.01,-0.015 -0.015,-0.03 -0.024,-0.045 l -3.132,-4.294 l -1.149,-1.499 a 1.06,1.06 0 01 0.224,-1.483 l 0.114,-0.084 a 1.062,1.062 0 01 1.484,0.224 l 4.418,5.991 l 0.001,0.001 c 0.526,0.723 1.401,1.459 1.107,-0.047 c -0.03,-0.154 -0.04,-0.295 -0.042,-0.43 l -1.408,-6.978 a 1.06,1.06 0 01 0.83,-1.25 l 0.138,-0.028 c 0.574,-0.116 1.08,0.279 1.196,0.853 l 0.083,0.411 l 1.303,6.232 a 1.388,1.388 0 01 0.057,0.218 c 0.243,1.525 0.919,1.7 0.638,0.305 c -0.008,-0.039 -0.007,-0.071 -0.012,-0.108 l -1.32,-6.783 c -0.108,-0.536 0.195,-0.983 0.731,-1.091 l 0.278,-0.056 a 0.99,0.99 0 01 1.166,0.775 l 1.552,7.69 c 0.015,0.054 0.034,0.105 0.046,0.162 c 0.415,1.988 1.518,2.064 1.72,0.769 l 0.004,-0.014 l 0.517,-3.422 a 1.07,1.07 0 01 1.217,-0.898 l 0.124,0.019 a 1.069,1.069 0 01 0.897,1.217 l -0.844,5.591 Z" fill="#F19020" />
	<path d="M 13.997,13.667 l -5.515,8.399 a 0.339,0.339 0 01 -0.471,0.098 a 0.34,0.34 0 01 -0.098,-0.471 l 5.515,-8.399 l 0.569,0.373 Z" fill="#B55005"/>
	<path d="M 16.247,15.97 l -5.005,7.826 a 0.34,0.34 0 01 -0.47,0.103 a 0.34,0.34 0 01 -0.104,-0.47 l 5.005,-7.826 l 0.574,0.367 Z" fill="#B55005"/>
	<path d="M 17.456,19.691 l -3.711,5.9 a 0.34,0.34 0 01 -0.47,0.107 a 0.341,0.341 0 01 -0.107,-0.47 l 3.711,-5.9 l 0.577,0.363 Z" fill="#B55005"/>
	<path d="M 19.696,18.609 l 4.127,5.676 a 0.341,0.341 0 01 -0.274,0.542 a 0.338,0.338 0 01 -0.275,-0.14 l -4.127,-5.676 l 0.549,-0.402 Z" fill="#B55005"/>
	<path d="M 27.358,14.154 l 1.608,7.821 a 0.34,0.34 0 01 -0.667,0.137 l -1.608,-7.821 l 0.667,-0.137 Z" fill="#B55005"/>
	<path d="M 17.592,20.584 l 1.174,1.591 l -0.408,0.595 l -1.315,-1.782 c -0.296,-0.404 -0.401,-0.915 -0.287,-1.403 l 0.679,0.093 c -0.068,0.295 -0.021,0.664 0.157,0.906 Z" fill="#B55005"/>
</svg>
