<svg xmlns="http://www.w3.org/2000/svg" viewBox="0 0 36 36">
	<circle cx="18" cy="18" r="18" fill="#FFCC4D"/>
	<path d="M 22.657,25.637 a 0.513,0.513 0 01 0.597,-0.06 a 0.497,0.497 0 01 0.231,0.544 c -0.011,0.044 -1.145,4.379 -5.485,4.379 s -5.474,-4.335 -5.484,-4.38 a 0.5,0.5 0 01 0.838,-0.474 s 1.005,0.854 4.646,0.854 c 3.644,0 4.647,-0.855 4.657,-0.863 Z" fill="#664500" />
	<path d="M 28.994,10.011 a 0.995,0.995 0 01 -0.994,0.989 c -0.099,0 -2.44,-0.026 -4.707,-2.293 a 1,1 0 11 1.414,-1.414 c 1.651,1.651 3.237,1.706 3.304,1.707 a 1.005,1.005 0 01 0.983,1.011 Z" fill="#65471B" />
	<path d="M 12.707,8.707 c -2.267,2.267 -4.608,2.293 -4.707,2.293 a 1,1 0 01 -0.01,-2 c 0.085,-0.002 1.662,-0.066 3.303,-1.707 a 1,1 0 01 1.09,-0.216 a 0.998,0.998 0 01 0.324,1.63 Z" fill="#65471B" />
	<path d="M 24.5,23 a 5.5,5.5 0 10 0,-11 a 5.5,5.5 0 00 0,11 Z" fill="#FFF" />
	<path d="M 24.5,22 a 5,5 0 10 0,-10 a 5,5 0 00 0,10 Z" fill="#292F33" />
	<path d="M 24.337,16.836 c -1.044,1.045 -2.55,1.233 -3.364,0.42 c -0.813,-0.812 -0.627,-2.318 0.418,-3.364 c 1.043,-1.045 2.55,-1.233 3.363,-0.42 c 0.813,0.812 0.627,2.318 -0.417,3.364 Z" fill="#FFF" />
	<path d="M 27.625,19.681 v0.001 c -0.459,0.459 -1.121,0.541 -1.478,0.184 s -0.275,-1.018 0.183,-1.477 c 0.459,-0.459 1.121,-0.542 1.478,-0.185 s 0.275,1.018 -0.183,1.477 Z" fill="#FFF" />
	<path d="M 11.5,23 a 5.5,5.5 0 10 0,-11 a 5.5,5.5 0 00 0,11 Z" fill="#FFF" />
	<path d="M 11.5,22 a 5,5 0 10 0,-10 a 5,5 0 00 0,10 Z" fill="#292F33" />
	<path d="M 11.337,16.836 c -1.044,1.045 -2.55,1.233 -3.364,0.42 c -0.813,-0.812 -0.627,-2.318 0.418,-3.364 c 1.043,-1.045 2.55,-1.233 3.363,-0.42 c 0.813,0.812 0.627,2.318 -0.417,3.364 Z" fill="#FFF" />
	<path d="M 14.624,19.681 v0.001 c -0.458,0.459 -1.12,0.541 -1.477,0.184 s -0.275,-1.018 0.183,-1.477 c 0.459,-0.459 1.121,-0.542 1.478,-0.185 s 0.276,1.018 -0.184,1.477 Z" fill="#FFF" />
	<path d="M 29,21 c 0,0.105 -1.015,2 -4.5,2 s -4.5,-1.895 -4.5,-2 c -2,-3.105 2.015,0 4.5,0 s 6.5,-3.105 4.5,0 Z" fill="#5DADEC" />
	<path d="M 16,21 c 0,0.105 -1.015,2 -4.5,2 s -4.5,-1.895 -4.5,-2 c -2,-3.105 2.015,0 4.5,0 s 6.5,-3.105 4.5,0 Z" fill="#5DADEC" />
	</svg>
