<svg viewBox="0 0 36 36" xmlns="http://www.w3.org/2000/svg">
	<circle fill="#FFCC4D" cx="18" cy="18" r="18"/>
	<ellipse fill="#664500" cx="11.5" cy="15.5" rx="2.5" ry="3.5"/>
	<path d="M 28.457,17.797 c 0.093,0.208 0.032,0.452 -0.145,0.594 c -0.091,0.072 -0.202,0.109 -0.312,0.109 c -0.104,0 -0.21,-0.033 -0.298,-0.099 c -0.028,-0.02 -1.276,-0.901 -3.702,-0.901 c -2.44,0 -3.69,0.893 -3.702,0.902 c -0.184,0.133 -0.435,0.128 -0.61,-0.014 c -0.177,-0.142 -0.237,-0.384 -0.145,-0.591 c 0.06,-0.135 1.5,-3.297 4.457,-3.297 c 2.958,0 4.397,3.162 4.457,3.297 Z" fill="#664500" />
	<path d="M 5.999,11 c -0.208,0 -0.419,-0.065 -0.599,-0.2 c -0.442,-0.331 -0.531,-0.958 -0.2,-1.4 c 3.262,-4.35 7.616,-4.4 7.8,-4.4 c 0.552,0 1,0.448 1,1 c 0,0.551 -0.445,0.998 -0.996,1 c -0.155,0.002 -3.568,0.086 -6.204,3.6 c -0.196,0.262 -0.497,0.4 -0.801,0.4 Z" fill="#664500" />
	<path d="M 29.001,14 c -0.305,0 -0.604,-0.138 -0.801,-0.4 c -2.592,-3.456 -6.961,-2.628 -7.004,-2.62 c -0.547,0.11 -1.068,-0.244 -1.177,-0.784 c -0.108,-0.541 0.243,-1.068 0.784,-1.177 c 0.231,-0.047 5.657,-1.072 8.996,3.38 c 0.332,0.442 0.242,1.069 -0.2,1.4 c -0.179,0.136 -0.389,0.201 -0.598,0.201 Z" fill="#664500" />
	<path d="M 20.079,27.042 c 1.335,0.412 2.629,1.156 2.629,2.501 c 0,2.619 -4.912,2.968 -5.472,2.999 l -0.028,0.001 c -0.262,0 -0.482,-0.204 -0.499,-0.469 c -0.017,-0.273 0.19,-0.51 0.464,-0.53 c 0.035,-0.002 3.535,-0.299 3.535,-2.001 s -3.5,-1.999 -3.535,-2.001 c -0.025,-0.002 -0.045,-0.014 -0.069,-0.02 c -0.035,-0.006 -0.069,-0.012 -0.101,-0.027 c -0.028,-0.013 -0.05,-0.03 -0.074,-0.047 c -0.028,-0.02 -0.055,-0.038 -0.078,-0.061 c -0.02,-0.021 -0.035,-0.047 -0.052,-0.071 c -0.018,-0.027 -0.036,-0.054 -0.049,-0.084 c -0.012,-0.029 -0.017,-0.059 -0.023,-0.09 c -0.005,-0.023 -0.017,-0.044 -0.018,-0.068 c -0.001,-0.01 0.004,-0.021 0.004,-0.031 s -0.004,-0.02 -0.004,-0.031 c 0.002,-0.023 0.014,-0.044 0.018,-0.067 c 0.006,-0.031 0.012,-0.063 0.024,-0.092 c 0.015,-0.039 0.036,-0.07 0.059,-0.102 c 0.012,-0.017 0.022,-0.033 0.036,-0.048 c 0.037,-0.041 0.078,-0.072 0.125,-0.098 l 0.019,-0.011 c 0.045,-0.022 0.094,-0.034 0.146,-0.04 c 0.013,-0.002 0.023,-0.01 0.037,-0.011 c 0.035,-0.002 3.535,-0.299 3.535,-2.001 s -3.5,-1.999 -3.535,-2.001 c -0.274,-0.019 -0.481,-0.256 -0.464,-0.53 c 0.018,-0.275 0.253,-0.494 0.527,-0.468 c 0.56,0.031 5.472,0.38 5.472,2.999 c 0,1.344 -1.294,2.088 -2.629,2.5 Z" fill="#664500" />
	<path d="M 34.202,25.803 c -0.92,1.905 -2.153,3.628 -3.653,5.088 c -1.56,0.675 -3.283,1.003 -4.513,0.873 c -1.552,-1.607 -2.967,-5.392 -2.192,-7.948 c 0.05,-0.222 0.125,-0.444 0.23,-0.659 c 0.739,-1.516 2.57,-2.146 4.087,-1.406 c 0.92,0.448 1.51,1.301 1.67,2.237 c 0.837,-0.451 1.871,-0.509 2.793,-0.06 c 0.799,0.389 1.342,1.085 1.578,1.875 Z" fill="#FFAC33" />
	<path d="M 35.654,27.222 c -0.105,0.215 -0.233,0.41 -0.378,0.589 c -1.538,2.182 -5.392,3.395 -7.615,3.161 c -1.552,-1.607 -2.966,-5.392 -2.192,-7.948 c 0.05,-0.222 0.125,-0.444 0.23,-0.659 c 0.739,-1.515 2.57,-2.146 4.087,-1.406 c 0.92,0.448 1.51,1.301 1.67,2.237 c 0.837,-0.451 1.871,-0.509 2.793,-0.06 c 1.515,0.739 2.144,2.57 1.405,4.086 Z" fill="#DD2E44" />
	</svg>
