<svg viewBox="0 0 36 36" xmlns="http://www.w3.org/2000/svg">
	<circle r="17" cx="18" cy="18" fill="#FFCC4D"/>
	
	<ellipse id="mouth" cx="18" cy="28" rx="4" ry="3" fill="#664500"/>
	
	<g id="eye1">
		<!-- this path had an encoding issue which caused it to be shifted downwards visually, but it's relatively clear what the actual position should've been -->
		<circle r="4.5" cx="23.5" cy="15.5" fill="#F5F8FA"/>
		<!--<path d="M 27.899,14.557 a 4.5,4.5 0 11 -8.8,1.885 a 4.5,4.5 0 01 8.8,-1.885 Z" fill="#F5F8FA"/> -->
		<circle r="2.5" cx="23.5" cy="16.5" fill="#292F33"/>
	</g>
	
	<use id="eyebrow1" href="F.svg#eyebrow.6a9" transform="translate(14.99 8.181) rotate(-7.0847)" color="#664500"/>
	<use id="eyebrow1" href="F.svg#eyebrow.6a9" transform="matrix(-1 0 0 1, 21.01 8.181) rotate(-7.0847)" color="#664500"/>
	
	<!-- based on WavingHand -->
	<g transform="translate(3.321 31.423) scale(.6256) rotate(34.4)">
		<path d="M 0,0 a 12,12 0 01 -11.892,-10.37 c -0.281,-2.074 -0.8132,-4.107 -1.384,-6.121 l -1.440,-5.080 s -0.638,-1.896 1.257,-2.534 c 1.895,-0.637 2.533,1.258 2.533,1.258 l 2.926,6.847 h1 v-17 s 0,-2 2,-2 s 2,2 2,2 v0 h1 v-1 s 0,-2 2,-2 s 2,2 2,2 v2 h1 v0 s 0,-2 2,-2 s 2,2 2,2 v4 h1 v0 s 0,-2 2,-2 s 2,2 2,2 v16 a 12,12 0 01 -12,12 Z" fill="#F19020"/>
	</g>
	
	<!-- VulcanSalute -->
	<g transform="translate(30.686 32.392) scale(0.5658) rotate(-21.41)">
		<!-- fingers - todo: the ends of these should be those fake circle quadrants made from a degenerate cubic bezier -->
		<path d="M -6.864,-16.962 a 1.8125,1.8125 0 0 1 -1.281,2.221 l -0.362,0.097 a 1.8125,1.8125 0 0 1 -2.22,-1.281 l -3.204,-11.954 a 1.8125,1.8125 0 0 1 1.283,-2.221 l 0.361,-0.097 a 1.8125,1.8125 0 0 1 2.221,1.281 l 3.202,11.954 Z"   fill="#F19020"/>
		<path d="M -2.31,-19.282 a 1.875,1.875 0 0 1 -1.325,2.296 l -0.242,0.065 a 1.875,1.875 0 0 1 -2.296,-1.326 l -3.947,-14.731 a 1.875,1.875 0 0 1 1.325,-2.296 l 0.242,-0.065 a 1.875,1.875 0 0 1 2.297,1.326 l 3.946,14.731 Z"   fill="#F19020"/>
		<path d="M 2.684,-18.078 a 1.875,1.875 0 0 1 -2.172,1.521 l -0.246,-0.044 a 1.875,1.875 0 0 1 -1.521,-2.172 l 2.648,-15.017 a 1.875,1.875 0 0 1 2.172,-1.521 l 0.246,0.043 a 1.875,1.875 0 0 1 1.522,2.173 l -2.649,15.017 Z"   fill="#F19020"/>
		<path d="M 7.586,-17.087 a 1.75,1.75 0 0 1 -2.027,1.42 l -0.492,-0.087 a 1.75,1.75 0 0 1 -1.42,-2.027 l 2.519,-14.279 a 1.75,1.75 0 0 1 2.026,-1.42 l 0.493,0.087 a 1.75,1.75 0 0 1 1.419,2.027 l -2.518,14.279 Z"   fill="#F19020"/>
		<path d="M 10.927,-8.641 a 1.889,1.889 0 01 -2.581,0.691 l -0.191,-0.111 a 1.889,1.889 0 01 -0.691,-2.58 l 5.609,-9.718 a 1.889,1.889 0 01 2.582,-0.692 l 0.191,0.111 a 1.889,1.889 0 01 0.691,2.581 l -5.61,9.718 Z"   fill="#F19020"/>
		<!-- palm -->
		<path d="M 0,0 c -9.875,0 -12,-9.192 -12,-12 s 0.583,-6.5 0.183,-7.993 c 0,0 3.197,-3.297 3.901,-0.672 c 1.109,4.138 1.875,3.458 1.114,0.071 c -0.533,-2.373 3.552,-2.238 3.951,-0.709 s 1.364,3.304 1.851,0.637 c 0.663,-3.627 4.76,-2.874 4.177,-0.207 c -0.584,2.666 0.416,3.39 0.854,0.913 c 0.516,-2.92 4.237,-0.994 3.636,2.544 s 1.166,4.375 2.333,2.375 s 3.5,1.943 2,4.375 s -2.125,10.666 -12,10.666 Z"   fill="#F19020"/>
	</g>
	
	<!-- hand lines (indecipherable) -->
	<path d="M 13.997,13.667 l -5.515,8.399 a 0.34,0.34 0 01 -0.569,-0.373 l 5.515,-8.399 l 0.569,0.373 Z M 16.247,15.97 l -5.005,7.826 a 0.34,0.34 0 01 -0.574,-0.367 l 5.005,-7.826 l 0.574,0.367 Z M 17.456,19.691 l -3.711,5.9 a 0.34,0.34 0 01 -0.577,-0.363 l 3.711,-5.9 l 0.577,0.363 Z"   fill="#B55005"/>	
	
	<path d="M 19.696,18.609 l 4.127,5.676 a 0.34,0.34 0 01 -0.549,0.402 l -4.127,-5.676 l 0.549,-0.402 Z M 27.358,14.154 l 1.608,7.821 a 0.34,0.34 0 01 -0.667,0.137 l -1.608,-7.821 l 0.667,-0.137 Z M 17.592,20.584 l 1.174,1.591 l -0.408,0.595 l -1.315,-1.782 c -0.296,-0.404 -0.401,-0.915 -0.287,-1.403 l 0.679,0.093 c -0.068,0.295 -0.021,0.664 0.157,0.906 Z"   fill="#B55005"/>	
</svg>
