<svg viewBox="0 0 36 36" xmlns="http://www.w3.org/2000/svg">
	<circle cx="18" cy="18" r="18" fill="#FFCC4D" />
	<path d="M 7.001,15 c 0.19,0 0.383,-0.054 0.554,-0.168 c 0.027,-0.018 2.79,-1.832 6.445,-1.832 c 0.552,0 1,-0.448 1,-1 s -0.448,-1 -1,-1 c -4.254,0 -7.422,2.08 -7.555,2.168 c -0.459,0.306 -0.583,0.927 -0.277,1.387 c 0.193,0.289 0.51,0.445 0.833,0.445 Z" fill="#664500" />
	<path d="M 28.999,15 c 0.323,0 0.641,-0.156 0.833,-0.445 c 0.307,-0.46 0.183,-1.081 -0.277,-1.387 c -0.133,-0.088 -3.301,-2.168 -7.555,-2.168 c -0.553,0 -1,0.448 -1,1 s 0.447,1 1,1 c 3.628,0 6.419,1.815 6.447,1.833 c 0.17,0.113 0.363,0.167 0.552,0.167 Z" fill="#664500" />
	<path d="M 27,22.091 v4.546 l 7.453,-1.356 c -0.341,0.77 -0.741,1.507 -1.182,2.215 l -6.271,1.141 v1.363 c 0,1.104 -0.896,2 -2,2 h-14 c -1.104,0 -2,-0.896 -2,-2 v-1.363 l -6.27,-1.14 c -0.442,-0.708 -0.842,-1.445 -1.183,-2.215 l 7.453,1.355 v-4.546 l -9,-4.091 c 0,-0.66 0.041,-1.309 0.11,-1.95 l 8.89,4.041 v-1.091 c 0,-1.104 0.896,-2 2,-2 h14 c 1.104,0 2,0.896 2,2 v1.091 l 8.891,-4.041 c 0.068,0.641 0.109,1.29 0.109,1.95 l -9,4.091 Z" fill="#F5F8FA" />
	</svg>
