<svg viewBox="0 0 36 36" xmlns="http://www.w3.org/2000/svg">
	<circle cx="18" cy="18" r="18" fill="#FFCC4D" />
	<!-- eyebrow -->
	<path d="M 14.825,9.946 c -0.322,0 -0.64,-0.146 -0.848,-0.423 c -0.991,-1.321 -2.028,-2.029 -3.083,-2.104 c -1.39,-0.095 -2.523,0.947 -2.734,1.158 c -0.414,0.414 -1.084,0.414 -1.497,0 c -0.414,-0.414 -0.414,-1.084 0,-1.497 c 0.457,-0.457 2.129,-1.936 4.381,-1.773 c 1.695,0.12 3.251,1.111 4.627,2.945 c 0.351,0.468 0.256,1.132 -0.211,1.482 c -0.192,0.143 -0.415,0.212 -0.635,0.212 Z" fill="#664500" />
	<!-- eye -->
	<ellipse cx="12.176" cy="14.71" rx="2.647" ry="3.706" fill="#664500"/>
	<!-- monocle -->
	<rect x="31.765" y="13.765" width="2.118" height="22.235" rx="1.059" ry="1.05875" fill="#292F33" />
	<circle cx="24.882" cy="14.294" r="6.882" fill="#F5F8FA"/>
	<path fill="#67757F" d="M32.824 12.706c-.054 0-.105.012-.158.016-.732-3.628-3.943-6.369-7.784-6.369-4.379 0-7.941 3.562-7.941 7.941s3.562 7.941 7.941 7.941c3.468 0 6.416-2.238 7.496-5.343.144.031.292.049.445.049 1.17 0 2.118-.948 2.118-2.118 0-1.169-.948-2.117-2.117-2.117zm-7.942 7.412c-3.211 0-5.823-2.612-5.823-5.824s2.613-5.824 5.823-5.824c3.211 0 5.824 2.612 5.824 5.824s-2.613 5.824-5.824 5.824z"/>
	<path d="M 28.049,9.411 l -8.051,8.051 c -0.592,-0.912 -0.94,-1.998 -0.94,-3.167 c 0,-3.217 2.608,-5.824 5.824,-5.824 c 1.169,0 2.255,0.347 3.167,0.94 Z M 22.397,19.555 l 7.746,-7.746 c 0.357,0.754 0.563,1.595 0.563,2.485 c 0,3.217 -2.608,5.824 -5.824,5.824 c -0.89,0 -1.73,-0.206 -2.485,-0.563 Z" fill="#BDDDF4"/>
	<!-- mouth -->
	<path d="M 21.175,28.588 c 0.389,0 0.763,-0.214 0.948,-0.586 c 0.261,-0.523 0.049,-1.159 -0.474,-1.421 c -2.423,-1.21 -4.879,-1.21 -7.3,0 c -0.524,0.262 -0.736,0.898 -0.474,1.421 c 0.261,0.524 0.897,0.735 1.421,0.474 c 1.819,-0.91 3.587,-0.91 5.406,0 c 0.152,0.076 0.314,0.112 0.473,0.112 Z" fill="#664500" />
</svg>
