<svg viewBox="0 0 36 36" xmlns="http://www.w3.org/2000/svg">
	<use href="F.svg#bg.normal" color="#FFCC4D"/>
	<path d="M 20.001,13 c -0.055,0 -0.109,-0.004 -0.165,-0.014 c -0.545,-0.091 -0.913,-0.606 -0.822,-1.151 c 0.393,-2.364 2.57,-6.835 7.986,-6.835 c 0.553,0 1,0.448 1,1 s -0.447,1 -1,1 c -5.095,0 -5.979,4.954 -6.014,5.165 c -0.081,0.488 -0.505,0.835 -0.985,0.835 Z" fill="#664500" />
	<path d="M 15.999,13 c -0.479,0 -0.902,-0.345 -0.985,-0.833 c -0.037,-0.21 -0.955,-5.167 -6.014,-5.167 c -0.552,0 -1,-0.448 -1,-1 s 0.448,-1 1,-1 c 5.416,0 7.592,4.471 7.986,6.835 c 0.091,0.545 -0.277,1.06 -0.822,1.151 c -0.055,0.01 -0.111,0.014 -0.165,0.014 Z" fill="#664500" />
	<path d="M 11.41,17.892 c -2.335,0 -3.87,-0.997 -3.964,-1.06 c -0.459,-0.306 -0.583,-0.927 -0.277,-1.387 s 0.926,-0.585 1.387,-0.277 c 0.099,0.064 2.602,1.636 5.998,-0.062 c 0.495,-0.247 1.095,-0.046 1.342,0.447 c 0.247,0.494 0.047,1.095 -0.447,1.342 c -1.495,0.746 -2.868,0.997 -4.039,0.997 Z" fill="#664500" />
	<path d="M 24.591,17.892 c -1.172,0 -2.545,-0.251 -4.038,-0.998 c -0.494,-0.247 -0.694,-0.848 -0.447,-1.342 c 0.248,-0.494 0.848,-0.694 1.342,-0.447 c 3.4,1.7 5.899,0.126 6.004,0.059 c 0.46,-0.298 1.081,-0.17 1.382,0.289 c 0.302,0.459 0.179,1.074 -0.278,1.379 c -0.096,0.063 -1.631,1.06 -3.965,1.06 Z" fill="#664500" />
	<path d="M 26.001,27 c -0.305,0 -0.604,-0.138 -0.801,-0.4 c -0.025,-0.034 -2.782,-3.6 -7.2,-3.6 c -4.417,0 -7.174,3.566 -7.202,3.603 c -0.333,0.438 -0.961,0.525 -1.4,0.194 c -0.44,-0.332 -0.529,-0.956 -0.198,-1.397 c 0.135,-0.18 3.362,-4.4 8.8,-4.4 s 8.665,4.221 8.8,4.4 c 0.332,0.441 0.242,1.068 -0.2,1.399 c -0.18,0.136 -0.39,0.201 -0.599,0.201 Z" fill="#664500" />
	<path d="M 15.391,20.08 c 0.453,0.192 0.698,0.686 0.579,1.162 l -2,8 c -0.111,0.446 -0.511,0.758 -0.97,0.758 h-3 c -0.364,0 -0.698,-0.197 -0.874,-0.515 c -0.177,-0.318 -0.166,-0.706 0.026,-1.015 l 5,-8 c 0.26,-0.417 0.786,-0.585 1.239,-0.39 Z" fill="#F5F8FA" />
	<path d="M 26.848,28.47 c 0.193,0.308 0.203,0.697 0.027,1.014 c -0.177,0.319 -0.512,0.516 -0.875,0.516 h-3 c -0.459,0 -0.858,-0.312 -0.969,-0.758 l -2,-8 c -0.12,-0.476 0.126,-0.97 0.579,-1.162 c 0.451,-0.194 0.976,-0.028 1.238,0.39 l 5,8 Z" fill="#F5F8FA" />
	<path d="M 31.982,30.178 c 1.172,0.408 2.018,1.51 2.018,2.822 c 0,1.657 -1.343,3 -3,3 c -1.202,0 -2.23,-0.711 -2.71,-1.731 c -0.722,1.044 -1.925,1.731 -3.29,1.731 c -2.209,0 -4,-1.791 -4,-4 s 1.791,-4 4,-4 c 0.541,0 1.057,0.11 1.527,0.305 c 0.541,-0.787 1.446,-1.305 2.473,-1.305 c 1.656,0 3,1.344 3,3 c 0,0.061 -0.015,0.118 -0.018,0.178 Z" fill="#E1E8ED" />
	<path d="M 11,28 c 2.209,0 4,1.791 4,4 s -1.791,4 -4,4 c -1.366,0 -2.568,-0.687 -3.291,-1.731 c -0.478,1.02 -1.507,1.731 -2.709,1.731 c -1.657,0 -3,-1.343 -3,-3 c 0,-1.312 0.846,-2.414 2.018,-2.822 c -0.004,-0.06 -0.018,-0.117 -0.018,-0.178 c 0,-1.656 1.344,-3 3,-3 c 1.027,0 1.932,0.518 2.473,1.305 c 0.471,-0.195 0.985,-0.305 1.527,-0.305 Z" fill="#E1E8ED" />
	</svg>
