<svg viewBox="0 0 36 36" xmlns="http://www.w3.org/2000/svg">
	<!-- this one is very messy and needs to be redrawn or re-layered -->
	
	<!-- clouds behind -->
	<circle fill="#F5F8FA" cx="30.583" cy="7.966" r="4"/>
	<circle fill="#F5F8FA" cx="5.916" cy="26.096" r="4.296"/>
	<!-- face bg -->
	<circle fill="#FFCC4D" cx="18" cy="18" r="16"/>
	<!-- eyes -->
	<ellipse cx="12.900" cy="17.023" rx="2.157" ry="3.019" fill="#664500" />
	<ellipse cx="24.124" cy="17.023" rx="2.162" ry="3.019" fill="#664500" />
	
	<path d="M 13.931,8.882 c -0.11,0.209 -0.229,0.418 -0.359,0.618 c -0.438,0.668 -0.976,1.265 -1.604,1.774 c -0.598,0.488 -1.255,0.877 -1.963,1.156 c -1.614,0.668 -3.527,0.737 -5.092,0.12 c -0.239,-0.09 -0.478,-0.199 -0.697,-0.329 c -0.947,-0.488 -1.734,-1.216 -2.212,-2.102 c 0.787,0.588 1.684,1.006 2.63,1.216 c 1.355,0.299 2.8,0.189 4.175,-0.418 c 0.588,-0.259 1.126,-0.588 1.594,-0.986 c 0.558,-0.458 1.036,-0.996 1.415,-1.594 c 0.458,-0.717 0.767,-1.514 0.927,-2.361 c 0.578,-0.149 1.116,-0.389 1.574,-0.737 c 0.159,-0.12 0.319,-0.249 0.458,-0.379 c 0.1,1.352 -0.179,2.767 -0.846,4.022 Z M 34.467,7.208 c -0.1,0.339 -0.269,0.658 -0.518,0.937 c -0.299,0.359 -0.707,0.608 -1.166,0.807 c -0.179,0.08 -0.389,0.14 -0.588,0.169 c -0.179,0.279 -0.389,0.538 -0.628,0.787 c -0.578,0.638 -1.325,1.156 -2.152,1.495 c -1.415,0.598 -3.109,0.658 -4.553,0.159 c -0.787,-0.259 -1.525,-0.697 -2.132,-1.265 c -0.498,-0.438 -0.917,-0.967 -1.196,-1.544 c -0.08,-0.149 -0.149,-0.309 -0.209,-0.458 c -0.11,-0.279 -0.189,-0.568 -0.239,-0.857 c 0.12,0.239 0.259,0.458 0.418,0.678 c 0.458,0.648 1.056,1.206 1.764,1.614 h0.01 c 0.568,0.329 1.206,0.558 1.893,0.668 c 1.823,0.309 3.557,-0.299 4.803,-1.475 c 0.07,-0.06 0.13,-0.12 0.199,-0.189 c 0.1,-0.11 0.199,-0.219 0.289,-0.339 c 0.199,-0.229 0.369,-0.478 0.518,-0.747 c 0.488,0.269 1.066,0.409 1.674,0.369 c 0.697,-0.062 1.334,-0.371 1.813,-0.809 Z" fill="#C9D5DD" />
	
	<path d="M 35.378,4.814 c 0.061,0.813 -0.213,1.586 -0.702,2.166 c -0.071,0.081 -0.142,0.153 -0.213,0.224 c -0.478,0.447 -1.108,0.752 -1.81,0.813 c -0.61,0.041 -1.19,-0.102 -1.678,-0.366 c -0.224,0.397 -0.498,0.752 -0.803,1.078 c -0.071,0.071 -0.132,0.132 -0.204,0.193 c -1.24,1.179 -2.979,1.779 -4.799,1.474 c -1.83,-0.295 -3.294,-1.434 -4.088,-2.959 c -0.173,-0.325 -0.315,-0.671 -0.417,-1.037 c -0.275,0.132 -0.569,0.214 -0.885,0.244 c -1.322,0.102 -2.481,-0.885 -2.593,-2.206 c -0.102,-1.332 0.885,-2.481 2.207,-2.593 c 0.845,-0.061 1.607,0.305 2.085,0.915 c 0.732,-1.505 2.217,-2.593 4.006,-2.745 c 2.135,-0.163 4.057,1.047 4.87,2.898 c 0.478,-0.458 1.108,-0.763 1.82,-0.824 c 1.628,-0.132 3.072,1.098 3.204,2.725 Z" fill="#F5F8FA" />
	<path d="M 23.775,5.926 c 0,3.091 -3.162,5.592 -7.067,5.592 c -2.267,0 -4.291,-0.844 -5.582,-2.156 c -1.261,1.485 -3.437,2.471 -5.277,2.471 c -2.786,0 -5.043,-2.257 -5.043,-5.043 s 2.257,-5.043 5.043,-5.043 c 0.071,0 0.152,0 0.224,0.01 c 0.58,-0.783 1.495,-1.281 2.542,-1.281 c 1.23,0 2.298,0.712 2.806,1.739 c 1.291,-1.169 3.183,-1.891 5.287,-1.891 c 3.905,-0.001 7.067,2.501 7.067,5.602 Z" fill="#F5F8FA" />
	
	<path d="M 27.92,4.408 c -0.06,0.409 -0.219,0.827 -0.458,1.216 c -0.319,0.508 -0.777,0.966 -1.345,1.285 c -0.438,0.249 -0.947,0.468 -1.485,0.548 c -0.329,0.817 -0.787,1.584 -1.355,2.272 h-0.01 c -0.169,0.199 -0.349,0.389 -0.538,0.568 c -0.219,0.219 -0.448,0.418 -0.697,0.608 c -1.485,1.146 -3.408,1.793 -5.311,1.774 c -1.644,0 -3.368,-0.478 -4.753,-1.405 c -0.199,-0.13 -0.379,-0.269 -0.558,-0.408 c -0.359,-0.289 -0.697,-0.598 -1.006,-0.937 c -0.329,-0.339 -0.628,-0.707 -0.897,-1.096 c -0.229,-0.37 -0.429,-0.738 -0.598,-1.137 c -0.478,-0.05 -0.957,-0.169 -1.375,-0.379 c -0.209,-0.09 -0.399,-0.199 -0.578,-0.329 c -0.568,-0.408 -1.026,-0.936 -1.255,-1.554 c -0.19,-0.428 -0.269,-0.886 -0.24,-1.315 c 0.429,1.405 1.824,2.302 3.289,2.113 l 0.189,-0.03 c 0.389,-0.07 0.747,-0.229 1.056,-0.428 c 0.199,0.458 0.428,0.887 0.707,1.285 c 0.08,0.13 0.169,0.249 0.269,0.369 c 0.249,0.329 0.538,0.638 0.847,0.907 c 0.518,0.478 1.106,0.867 1.754,1.166 c 0.797,0.379 1.684,0.598 2.621,0.638 c 1.973,0.1 3.786,-0.608 5.131,-1.843 l 0.179,-0.179 c 0.648,-0.628 1.166,-1.395 1.534,-2.242 c 0.658,0.279 1.395,0.329 2.152,0.229 c 0.598,-0.08 1.236,-0.458 1.744,-0.837 c 0.559,-0.41 0.957,-0.819 0.987,-0.859 Z" fill="#DEE7ED" />
	<path d="M 33.607,33.196 c -0.824,0.63 -1.861,0.783 -2.776,0.468 l -0.041,-0.01 c 0,0.02 -0.393,1.209 -1.922,1.2 c -0.671,-0.004 -1.261,-0.285 -1.668,-0.752 c -0.803,0.752 -1.881,1.22 -3.081,1.22 c -0.508,0 -0.996,-0.081 -1.454,-0.244 c -0.712,0.498 -1.576,0.791 -2.522,0.793 c -1.881,0.005 -2.695,-0.671 -3.142,-1.139 c -3.891,2.271 -8.874,1.171 -10.483,-0.783 c -0.151,-0.183 -0.285,-0.376 -0.397,-0.58 c -0.671,0.376 -1.444,0.539 -2.247,0.427 c -2.034,-0.254 -3.488,-2.135 -3.233,-4.169 c 0.122,-0.946 0.59,-1.759 1.261,-2.339 c 0.051,-0.051 0.112,-0.102 0.163,-0.142 c 0.763,-0.58 1.739,-0.874 2.756,-0.742 c 0.163,0.02 0.315,0.051 0.468,0.092 l 0.122,0.03 c 0.152,0.041 0.295,0.102 0.437,0.163 s 0.285,0.132 0.417,0.213 c 0.193,0.112 0.366,0.234 0.529,0.376 c 0.102,-0.112 0.203,-0.214 0.305,-0.315 l 0.02,-0.02 c 1.932,-1.891 4.83,-2.593 7.514,-1.546 c 1.261,0.488 2.318,1.312 3.071,2.318 c 0.702,-0.468 1.535,-0.732 2.44,-0.732 c 0.946,0 1.82,0.295 2.542,0.803 c 1.779,-0.488 3.64,-0.224 5.196,0.62 c 0.01,0 0.01,0.01 0.01,0.01 c 0.224,0.112 0.447,0.244 0.651,0.397 c 0.213,0.142 0.417,0.305 0.62,0.468 c 0.183,-0.325 0.437,-0.62 0.752,-0.864 c 1.251,-0.956 3.01,-0.793 4.057,0.336 l 0.183,0.214 c 1.018,1.311 0.774,3.212 -0.548,4.229 Z" fill="#F5F8FA" />
	<path d="M 34.118,28.979 c -0.996,-1.016 -2.621,-1.226 -3.866,-0.498 c -0.1,0.04 -0.189,0.1 -0.279,0.169 c -0.319,0.239 -0.578,0.528 -0.767,0.847 c -0.199,-0.169 -0.418,-0.319 -0.628,-0.458 c -0.209,-0.149 -0.438,-0.279 -0.668,-0.389 c 0,0 0,-0.01 -0.01,-0.01 c -1.893,-0.976 -4.215,-1.146 -6.327,-0.249 c -0.359,0.149 -0.688,0.319 -0.996,0.508 c -0.02,-0.04 -0.04,-0.09 -0.05,-0.13 c -0.239,-0.757 -0.568,-1.485 -1.006,-2.162 c 0.14,-0.07 0.269,-0.14 0.399,-0.199 c 1.704,-0.817 3.776,-1.126 5.669,-0.737 c 0.937,0.189 1.833,0.508 2.66,0.937 c 0.379,0.219 0.737,0.468 1.066,0.737 c 0.658,-0.249 1.355,-0.339 2.003,-0.249 c 0.03,0 0.07,0 0.1,0.01 c 0.717,0.11 1.375,0.369 1.863,0.797 c 0.378,0.299 0.667,0.678 0.837,1.076 Z" fill="#C9D5DD" />
	<path d="M 22.729,35.087 l -0.07,-0.01 c 0.02,-0.08 0.03,-0.149 0.04,-0.229 c 0.07,-0.528 0,-1.046 -0.189,-1.514 c -0.389,-0.967 -1.285,-1.704 -2.401,-1.843 c -0.12,-0.02 -0.249,-0.02 -0.379,-0.02 c -0.259,0 -0.508,0.03 -0.757,0.09 c -0.03,-0.399 -0.1,-0.807 -0.199,-1.186 c -0.219,-0.917 -0.618,-1.764 -1.166,-2.501 c -0.757,-1.026 -1.823,-1.863 -3.109,-2.361 c -2.66,-1.036 -5.54,-0.339 -7.453,1.534 l -0.02,0.02 c -0.11,0.1 -0.209,0.209 -0.309,0.319 c -0.159,-0.139 -0.329,-0.269 -0.528,-0.379 c -0.13,-0.08 -0.269,-0.149 -0.408,-0.209 c -0.12,-0.05 -0.239,-0.1 -0.369,-0.14 c -0.02,-0.01 -0.05,-0.01 -0.07,-0.02 l -0.12,-0.03 c -0.149,-0.04 -0.299,-0.07 -0.458,-0.09 c -1.016,-0.14 -1.983,0.159 -2.74,0.737 c -0.05,0.04 -0.11,0.09 -0.159,0.14 l -0.01,-0.02 c 0.438,-0.857 1.355,-1.574 2.491,-1.803 c 0.13,-0.02 0.259,-0.05 0.389,-0.06 c 0.389,-0.05 0.787,-0.06 1.186,0.01 c 0.897,-1.076 2.122,-1.943 3.517,-2.431 c 1.754,-0.618 3.776,-0.618 5.56,0 c 1.764,0.578 3.428,1.774 4.434,3.358 c 0,0.02 0.01,0.02 0.01,0.03 c 0.03,0.04 0.06,0.09 0.08,0.13 c 0.438,0.678 0.767,1.405 1.006,2.162 c 0.01,0.04 0.03,0.09 0.05,0.13 c 0,0.02 0.01,0.04 0.02,0.06 c 0.11,0.418 0.179,0.847 0.219,1.265 c 0.658,0.299 1.216,0.727 1.604,1.275 c 0.369,0.508 0.618,1.076 0.688,1.654 c 0.01,0.07 0.02,0.139 0.02,0.209 c 0.048,0.627 -0.101,1.245 -0.4,1.723 Z" fill="#DEE7ED" />
</svg>
