<svg viewBox="0 0 36 36" xmlns="http://www.w3.org/2000/svg">
	<use href="F.svg#bg.normal" color="#FFCC4D"/>
	
	<use href="F.svg#eyebrow.9" transform="translate(7 14)" color="#664500"/>
	<use href="F.svg#eyebrow.9" transform="translate(29 14) scale(-1 1)" color="#664500"/>
	
	<path d="M 11,27 v2 l -8.29709,-1.50856 c -0.43926,-0.706444 -0.830946,-1.44555 -1.17058,-2.21283 l 9.46767,1.72139 Z M 11,21 v2 l -11,-5 c 0,-0.659699 0.0354892,-1.31111 0.104662,-1.95243 l 10.895338,4.95243 Z" fill="#F5F8FA"/>
	<path d="M 25,23 v-2 l 10.8953,-4.95243 c 0.0691733,0.641316 0.104662,1.29273 0.104662,1.95243 l -10.999962,5 Z M 25,29 v-2 l 9.46767,-1.7214 c -0.339635,0.767285 -0.731321,1.50639 -1.17058,2.21283 l -8.29709,1.50857 Z" fill="#F5F8FA"/>
	<rect x="9" y="17" width="18" height="15" rx="2" fill="#F5F8FA"/>
</svg>
