<svg viewBox="0 0 36 36" xmlns="http://www.w3.org/2000/svg">
	<path d="M 35.625,14.338 a 18,18 0 01  0.375,3.662 a 18,18 0 01 -36,0 a 18,18 0 01 1.348,-6.824 l 9.955,-9.875 a 18,18 0 01 6.697,-1.301 a 18,18 0 01 5.135,0.753 l 12.49,13.585 Z" fill="#FFCC4D"/>
	<!-- similar features to DowncastFaceWithSweat -->
	<path d="M 13,28 s 1,-4 5,-4 s 5,4 5,4 s -1,-1 -5,-1 s -5,1 -5,1 Z" fill="#664500"/>
	<use href="F.svg#mouth.smiling1b" transform="translate(11.5 14.5) scale(1 -1)" color="#664500"/>
	<use href="F.svg#mouth.smiling1b" transform="translate(24.5 14.5) scale(1 -1)" color="#664500"/>
	
	<path d="M 35.625,14.338 l -25.825,-4.7 l -8.452,1.538 a 18,18 0 01 9.957,-9.875 l 4.41,0.803 l 7.421,-1.351 a 18,18 0 01 12.489,13.585 Z" fill="#E6E7E8"/>
	<path d="M 27.541,6.409 l 4.912,0.894 c 0.295,0.397 0.573,0.806 0.835,1.228 l -8.702,-1.584 l 2.955,-0.538 Z M 8.232,2.895 l 1.568,0.285 l -2.65,0.483 c 0.352,-0.268 0.71,-0.527 1.082,-0.768 Z M 26.715,2.254 c 0.465,0.259 0.921,0.532 1.361,0.83 l -24.739,4.501c 0.272,-0.383 0.551,-0.761 0.852,-1.121c 0.038,-0.046 0.081,-0.087 0.12,-0.132l 22.406,-4.078 Z" fill="#D1D3D4"/>
	<path d="M 34.546,10.912 c 0.162,0.377 0.297,0.766 0.433,1.156 l -19.265,-3.506 l -14.366,2.614 c 0.164,-0.402 0.353,-0.79 0.545,-1.176 l 28.358,-5.161 c 0.315,0.293 0.618,0.596 0.911,0.911 l -12.491,2.273 l 15.875,2.889 Z" fill="#BCBEC0"/>
	<!--<path d="M 35.625,14.338 l -25.825,-4.7 l -8.452,1.538 c 0.164,-0.402 0.353,-0.79 0.545,-1.176 c 0.28,-0.562 0.585,-1.107 0.92,-1.634 c 0.169,-0.265 0.342,-0.526 0.524,-0.781 c 0.272,-0.383 0.551,-0.761 0.852,-1.121 c 0.038,-0.046 0.081,-0.087 0.12,-0.132 c 0.232,-0.272 0.473,-0.535 0.72,-0.792 c 0.62,-0.646 1.291,-1.24 2.001,-1.788 l 0.12,-0.089 c 0.352,-0.268 0.71,-0.527 1.083,-0.769 c 0.965,-0.625 1.992,-1.159 3.072,-1.593 l 4.41,0.803 l 7.421,-1.351 c 1.256,0.373 2.454,0.877 3.579,1.501 c 0.466,0.258 0.922,0.531 1.361,0.828 c 0.729,0.494 1.406,1.053 2.053,1.645 l 0.123,0.112 c 0.315,0.293 0.618,0.596 0.911,0.911 c 0.459,0.493 0.888,1.011 1.29,1.553 c 0.295,0.398 0.573,0.806 0.835,1.228 c 0.472,0.761 0.902,1.551 1.259,2.382 c 0.161,0.376 0.296,0.766 0.432,1.155 c 0.258,0.738 0.485,1.491 0.646,2.27 Z" fill="#E6E7E8" />-->
	<!--<path d="M 27.541,6.409 l 4.912,0.894 c 0.295,0.397 0.573,0.806 0.835,1.228 l -8.702,-1.584 l 2.955,-0.538 Z M 8.232,2.895 l 1.568,0.285 l -2.65,0.483 c 0.352,-0.268 0.71,-0.527 1.082,-0.768 Z M 26.715,2.254 c 0.465,0.259 0.921,0.532 1.361,0.83 l -3.492,0.635 l -5.914,1.076 l -2.956,0.538 l -5.914,1.076 l -2.958,0.538 l -3.505,0.638 c 0.272,-0.383 0.551,-0.761 0.852,-1.121 c 0.038,-0.046 0.081,-0.087 0.12,-0.132 l 2.535,-0.461 l 5.914,-1.077 l 2.956,-0.538 l 5.914,-1.076 l 5.087,-0.926 Z" fill="#D1D3D4" />-->
	<!--<path d="M 34.546,10.912 c 0.162,0.377 0.297,0.766 0.433,1.156 l -19.265,-3.506 l -5.914,1.076 l -8.452,1.538 c 0.164,-0.402 0.353,-0.79 0.545,-1.176 l 4.95,-0.901 l 5.913,-1.076 l 2.957,-0.538 l 5.914,-1.076 l 2.956,-0.538 l 5.668,-1.032 c 0.315,0.293 0.618,0.596 0.911,0.911 l -3.621,0.659 l -2.956,0.538 l -5.914,1.076 l 15.875,2.889 Z" fill="#BCBEC0" />-->
</svg>
