<svg viewBox="0 0 36 36" xmlns="http://www.w3.org/2000/svg">
	<defs>
		<clipPath id="eyes">
			<circle cx="11.5" cy="13.5" r="5.5"/>
			<circle cx="24.5" cy="13.5" r="5.5"/>
		</clipPath>
	</defs>
	
	<use href="F.svg#bg.normal" color="#FFCC4D"/>
	
	<g clip-path="url(#eyes)">
		<rect width="36" height="36" fill="#F5F8FA"/>
		<circle fill="#664500" cx="10.5" cy="10.5" r="2.5"/>
		<circle fill="#664500" cx="23.5" cy="10.5" r="2.5"/>
	</g>
	
	<!-- mask layer -->
	<!--<path d="M 6,13.5 a 5.5,5.5 0 01 11,0 h2 a 5.5,5.5 0 01 11,0 v-7 H 6 z" fill="#FFCC4D"/>-->
	
	<path d="M 23.109,23.424 c 1.28,0.308 1.985,0.868 1.985,1.576 s -0.901,0.708 -2.536,0.708 c -2.6,0 -6.952,0 -10.036,2.58 a 0.375,0.375 0 01 -0.575,-0.459 c 2.289,-4.465 8.399,-5.072 11.162,-4.405 Z"  fill="#664500"/> <!-- no idea what this shape is -->
</svg>
