<svg xmlns="http://www.w3.org/2000/svg" viewBox="0 0 36 36">
	<circle cx="18" cy="18" r="18" fill="#DA2F47" />
	<path d="M 25.485,29.879 c 0.055,0.218 -0.043,0.445 -0.239,0.557 c -0.077,0.043 -0.162,0.064 -0.246,0.064 c -0.128,0 -0.256,-0.05 -0.352,-0.145 c -0.018,-0.018 -1.954,-1.855 -6.648,-1.855 s -6.629,1.837 -6.648,1.856 c -0.161,0.156 -0.405,0.186 -0.6,0.077 c -0.194,-0.112 -0.292,-0.337 -0.237,-0.554 c 0.045,-0.179 1.167,-4.379 7.485,-4.379 c 6.317,0 7.44,4.2 7.485,4.379 Z" fill="#292F33" />
	<path d="M 15.707,15.293 c 0.391,0.391 0.391,1.023 0,1.414 c -0.195,0.195 -0.451,0.293 -0.707,0.293 c -0.012,0 -0.024,-0.007 -0.037,-0.007 c 0.018,0.167 0.037,0.333 0.037,0.507 c 0,1.934 -1.119,3.5 -2.5,3.5 s -2.5,-1.566 -2.5,-3.5 c 0,-1.129 0.389,-2.123 0.982,-2.763 c -2.058,-0.714 -3.954,-0.737 -3.983,-0.737 c -0.552,-0.002 -0.999,-0.45 -0.998,-1.002 c 0,-0.551 0.447,-0.998 0.999,-0.998 c 0.221,0 5.452,0.038 8.707,3.293 Z" fill="#292F33" />
	<path d="M 29,12 c 0.552,0 0.998,0.447 0.999,0.998 c 0.001,0.552 -0.446,1 -0.997,1.002 c -0.03,0 -1.926,0.023 -3.984,0.737 c 0.593,0.64 0.982,1.634 0.982,2.763 c 0,1.934 -1.119,3.5 -2.5,3.5 s -2.5,-1.566 -2.5,-3.5 c 0,-0.174 0.02,-0.34 0.036,-0.507 c -0.012,0 -0.023,0.007 -0.036,0.007 c -0.256,0 -0.512,-0.098 -0.707,-0.293 c -0.391,-0.391 -0.391,-1.023 0,-1.414 c 3.256,-3.255 8.486,-3.293 8.707,-3.293 Z" fill="#292F33" />
	<rect x="4" y="22.739" width="28" height="10.261" rx="2.261" fill="#292F33" />
	<path d="M 7.841,27.229 h-0.818 c -0.314,0 -0.457,-0.229 -0.457,-0.457 s 0.143,-0.456 0.457,-0.456 h0.95 l 0.209,-1.53 c 0.047,-0.342 0.19,-0.456 0.475,-0.456 c 0.228,0 0.438,0.151 0.438,0.38 c 0,0.143 0,0.076 -0.019,0.229 l -0.19,1.378 h0.913 l 0.209,-1.53 c 0.047,-0.342 0.19,-0.456 0.475,-0.456 c 0.228,0 0.438,0.151 0.438,0.38 c 0,0.143 0,0.076 -0.019,0.229 l -0.191,1.378 h0.818 c 0.314,0 0.456,0.229 0.456,0.456 c 0,0.228 -0.143,0.457 -0.456,0.457 h-0.951 l -0.152,1.083 h0.818 c 0.314,0 0.456,0.229 0.456,0.457 s -0.143,0.456 -0.456,0.456 h-0.951 l -0.209,1.53 c -0.048,0.343 -0.191,0.456 -0.476,0.456 c -0.228,0 -0.438,-0.151 -0.438,-0.38 c 0,-0.143 0,-0.076 0.019,-0.229 l 0.191,-1.378 h-0.912 l -0.209,1.53 c -0.048,0.343 -0.19,0.456 -0.476,0.456 c -0.228,0 -0.438,-0.151 -0.438,-0.38 c 0,-0.143 0,-0.076 0.019,-0.229 l 0.19,-1.378 h-0.816 c -0.313,0 -0.456,-0.229 -0.456,-0.456 c 0,-0.229 0.143,-0.457 0.456,-0.457 h0.951 l 0.152,-1.083 Z" fill="#FFF"/>
	<path d="M 8.611,28.312 l 0.152,-1.083 h0.903 l -0.152,1.083 h-0.903 Z" fill="#FFF"/>
	<path d="M 13.227,25.812 c 0,-0.827 0.618,-1.54 1.464,-1.54 s 1.464,0.713 1.464,1.54 s -0.618,1.531 -1.464,1.531 c -0.847,0.001 -1.464,-0.703 -1.464,-1.531 Z" fill="#FFF"/>
	<path d="M 15.185,25.812 c 0,0.305 -0.181,0.562 -0.494,0.562 c -0.314,0 -0.495,-0.257 -0.495,-0.562 c 0,-0.303 0.181,-0.57 0.495,-0.57 c 0.313,0 0.494,0.266 0.494,0.57 Z" fill="#FFF"/>
	<path d="M 17.495,24.52 c 0.124,-0.237 0.219,-0.304 0.438,-0.304 c 0.295,0 0.561,0.237 0.561,0.532 c 0,0.076 0,0.143 -0.076,0.285 l -3.194,5.979 c -0.143,0.199 -0.2,0.313 -0.428,0.313 c -0.247,0 -0.542,-0.237 -0.542,-0.522 c 0,-0.143 0.057,-0.275 0.095,-0.352 l 3.146,-5.931 Z" fill="#FFF"/>
	<path d="M 16.573,29.739 c 0,-0.827 0.618,-1.54 1.464,-1.54 s 1.464,0.713 1.464,1.54 c 0,0.826 -0.618,1.53 -1.464,1.53 c -0.847,0.001 -1.464,-0.704 -1.464,-1.53 Z" fill="#FFF"/>
	<path d="M 18.531,29.739 c 0,0.304 -0.181,0.561 -0.495,0.561 s -0.495,-0.257 -0.495,-0.561 s 0.181,-0.57 0.495,-0.57 s 0.495,0.265 0.495,0.57 Z" fill="#FFF"/>
	<circle cx="21.7585" cy="30.5275" r="0.7415" fill="#FFF"/>
	<rect x="21.074" y="24.273" width="1.369" height="4.952" rx="0.6845" ry="0.646" fill="#FFF"/>
	<path d="M 29.152,31.326 c -0.187,0 -0.304,-0.053 -0.431,-0.196 l -0.724,-0.79 l -0.072,0.066 c -0.702,0.645 -1.308,0.919 -2.024,0.919 c -1.109,0 -2.229,-0.632 -2.229,-2.044 c 0,-1.107 0.867,-1.769 1.384,-2.065 l 0.117,-0.067 l -0.095,-0.098 c -0.425,-0.445 -0.599,-0.813 -0.599,-1.269 c 0,-1.077 0.983,-1.567 1.896,-1.567 c 0.764,0 1.84,0.453 1.84,1.458 c 0,0.951 -0.883,1.501 -1.153,1.647 l -0.115,0.062 l 1.161,1.341 l 0.444,-0.536 c 0.247,-0.297 0.391,-0.422 0.646,-0.422 c 0.205,0 0.424,0.184 0.424,0.523 c 0,0.254 -0.252,0.585 -0.499,0.875 l -0.297,0.335 l 0.706,0.838 c 0.131,0.156 0.185,0.239 0.185,0.428 c 0.001,0.295 -0.269,0.562 -0.565,0.562 Z" fill="#FFF"/>
	<path d="M 25.705,27.852 l 0.071,-0.048 l 1.5,1.743 l -0.071,0.069 c -0.366,0.364 -0.723,0.606 -1.275,0.606 c -0.662,0 -1.089,-0.423 -1.089,-1.079 c 0,-0.626 0.436,-1.004 0.864,-1.291 Z" fill="#FFF"/>
	<path d="M 26.376,25.141 c 0.351,0 0.728,0.213 0.727,0.681 c 0,0.316 -0.252,0.609 -0.749,0.869 l -0.063,0.033 l -0.051,-0.052 c -0.363,-0.369 -0.534,-0.581 -0.534,-0.929 c 0,-0.373 0.39,-0.602 0.67,-0.602 Z" fill="#FFF"/>
	</svg>
