<svg xmlns="http://www.w3.org/2000/svg" viewBox="0 0 36 36">
	<circle cx="18" cy="18" r="18" fill="#FFCC4D" />
	<path d="M 28.457,17.797 c 0.093,0.208 0.032,0.452 -0.145,0.594 c -0.091,0.072 -0.202,0.109 -0.312,0.109 c -0.104,0 -0.21,-0.033 -0.298,-0.099 c -0.028,-0.02 -1.276,-0.901 -3.702,-0.901 c -2.44,0 -3.69,0.893 -3.702,0.902 c -0.184,0.133 -0.435,0.128 -0.61,-0.014 c -0.177,-0.142 -0.237,-0.384 -0.145,-0.591 c 0.06,-0.135 1.5,-3.297 4.457,-3.297 c 2.958,0 4.397,3.162 4.457,3.297 Z" fill="#664500" />
	<path d="M 16.457,17.797 c 0.092,0.208 0.033,0.452 -0.145,0.594 c -0.091,0.072 -0.202,0.109 -0.312,0.109 c -0.104,0 -0.21,-0.033 -0.298,-0.099 c -0.028,-0.02 -1.276,-0.901 -3.702,-0.901 c -2.441,0 -3.69,0.893 -3.703,0.902 c -0.183,0.133 -0.434,0.128 -0.61,-0.014 s -0.236,-0.384 -0.144,-0.591 c 0.06,-0.135 1.5,-3.297 4.457,-3.297 c 2.958,0 4.397,3.162 4.457,3.297 Z" fill="#664500" />
	<path d="M 31,16 c -0.396,0 -0.772,-0.238 -0.929,-0.629 c -1.778,-4.445 -6.223,-5.381 -6.268,-5.391 c -0.541,-0.108 -0.893,-0.635 -0.784,-1.177 c 0.108,-0.542 0.635,-0.891 1.177,-0.784 c 0.226,0.045 5.556,1.168 7.732,6.608 c 0.205,0.513 -0.045,1.095 -0.558,1.3 c -0.12,0.05 -0.246,0.073 -0.37,0.073 Z" fill="#664500" />
	<path d="M 5,16 c -0.124,0 -0.249,-0.023 -0.371,-0.072 c -0.513,-0.205 -0.762,-0.787 -0.557,-1.3 c 2.176,-5.44 7.506,-6.563 7.732,-6.608 c 0.543,-0.106 1.068,0.243 1.177,0.784 c 0.108,0.54 -0.242,1.066 -0.781,1.176 c -0.185,0.038 -4.506,0.98 -6.271,5.391 c -0.157,0.391 -0.533,0.629 -0.929,0.629 Z" fill="#664500" />
	<path d="M 18,22 c 3.623,0 6.027,-0.422 9,-1 c 0.679,-0.132 2,0 2,2 c 0,4 -4.596,9 -11,9 c -6.405,0 -11,-5 -11,-9 c 0,-2 1.321,-2.131 2,-2 c 2.973,0.578 5.377,1 9,1 Z" fill="#664500" />
	<path d="M 9,23 s 3,1 9,1 s 9,-1 9,-1 s -2,4 -9,4 s -9,-4 -9,-4 Z" fill="#FFF" />
	<path d="M 10.847,28.229 c -0.68,2.677 -3.4,4.295 -6.077,3.615 c -2.676,-0.679 -4.295,-3.399 -3.616,-6.076 s 6.337,-8.708 7.307,-8.462 c 0.97,0.247 3.065,8.247 2.386,10.923 Z" fill="#5DADEC" />
	<path d="M 25.133,28.229 c -0.679,-2.676 1.417,-10.676 2.385,-10.923 c 0.97,-0.246 6.628,5.785 7.308,8.462 s -0.939,5.397 -3.616,6.076 c -2.677,0.68 -5.397,-0.938 -6.077,-3.615 Z" fill="#5DADEC" />
	</svg>
