<svg viewBox="0 0 36 36" xmlns="http://www.w3.org/2000/svg">
	<use href="F.svg#bg.normal" color="#FFCC4D"/>
	<path d="M 22.886,27.485 c -1.575,0 -2.393,-0.797 -3.049,-1.437 c -0.56,-0.545 -0.965,-0.939 -1.827,-0.939 c -0.863,0 -1.268,0.395 -1.827,0.939 c -0.656,0.64 -1.474,1.437 -3.048,1.437 s -2.39,-0.797 -3.046,-1.437 c -0.557,-0.544 -0.96,-0.937 -1.815,-0.939 c -0.611,0.002 -0.97,0.193 -1.32,0.48 c -0.374,0.308 -0.926,0.252 -1.231,-0.122 c -0.306,-0.374 -0.251,-0.926 0.122,-1.231 c 0.456,-0.373 1.198,-0.867 2.405,-0.877 h0.049 c 1.552,0.012 2.361,0.801 3.012,1.437 c 0.559,0.546 0.963,0.939 1.824,0.939 c 0.863,0 1.268,-0.395 1.828,-0.939 c 0.656,-0.64 1.474,-1.437 3.048,-1.437 s 2.392,0.796 3.048,1.437 c 0.561,0.545 0.965,0.939 1.828,0.939 s 1.268,-0.395 1.828,-0.939 c 0.656,-0.641 1.474,-1.437 3.049,-1.437 c 0.913,0 1.67,0.263 2.383,0.828 c 0.378,0.301 0.441,0.851 0.142,1.229 c -0.301,0.379 -0.851,0.442 -1.229,0.142 c -0.294,-0.233 -0.654,-0.449 -1.295,-0.449 c -0.863,0 -1.268,0.395 -1.828,0.939 c -0.659,0.641 -1.476,1.437 -3.051,1.437 Z" fill="#664500" />
	<path d="M 11.395,18.875 c 2.872,0 5.206,-2.335 5.206,-5.206 s -2.335,-5.206 -5.206,-5.206 c -3.666,0 -6.649,2.983 -6.649,6.65 c 0,0.483 0.392,0.875 0.875,0.875 s 0.875,-0.392 0.875,-0.875 c 0,-2.702 2.197,-4.9 4.899,-4.9 c 1.906,0 3.456,1.55 3.456,3.456 s -1.55,3.456 -3.456,3.456 c -1.109,0 -2.012,-0.903 -2.012,-2.012 c 0,-1.11 0.903,-2.013 2.012,-2.013 c 0.314,0 0.569,0.255 0.569,0.569 s -0.256,0.569 -0.569,0.569 c -0.483,0 -0.875,0.392 -0.875,0.875 s 0.392,0.875 0.875,0.875 c 1.279,0 2.319,-1.04 2.319,-2.319 s -1.04,-2.319 -2.319,-2.319 c -2.074,0 -3.762,1.688 -3.762,3.763 c 0,2.074 1.687,3.762 3.762,3.762 Z" fill="#664500" />
	<path d="M 24.604,18.875 c 3.666,0 6.65,-2.983 6.649,-6.649 c 0,-0.483 -0.392,-0.875 -0.875,-0.875 s -0.875,0.392 -0.875,0.875 c 0,2.701 -2.198,4.899 -4.899,4.899 c -1.905,0 -3.456,-1.551 -3.456,-3.456 c 0,-1.906 1.551,-3.456 3.456,-3.456 c 1.11,0 2.013,0.903 2.013,2.012 c 0,1.11 -0.904,2.013 -2.013,2.013 c -0.313,0 -0.568,-0.255 -0.568,-0.569 s 0.255,-0.569 0.568,-0.569 c 0.484,0 0.875,-0.392 0.875,-0.875 s -0.392,-0.875 -0.875,-0.875 c -1.278,0 -2.318,1.04 -2.318,2.319 s 1.04,2.319 2.318,2.319 c 2.075,0 3.763,-1.689 3.763,-3.763 s -1.688,-3.762 -3.763,-3.762 c -2.871,0 -5.206,2.335 -5.206,5.206 s 2.335,5.206 5.206,5.206 Z" fill="#664500" />
	</svg>
