<svg xmlns="http://www.w3.org/2000/svg" viewBox="0 0 36 36">
	<circle cx="18" cy="18" r="18" fill="#FFCC4D" />
	<ellipse fill="#664500" cx="18" cy="27" rx="5" ry="6"/>
	<path d="M 5.999,11 c -0.208,0 -0.419,-0.065 -0.599,-0.2 c -0.442,-0.331 -0.531,-0.958 -0.2,-1.4 c 3.262,-4.35 7.616,-4.4 7.8,-4.4 c 0.552,0 1,0.448 1,1 c 0,0.551 -0.445,0.998 -0.996,1 c -0.155,0.002 -3.568,0.086 -6.204,3.6 c -0.196,0.262 -0.497,0.4 -0.801,0.4 Z" fill="#664500" />
	<path d="M 30.001,11 c -0.305,0 -0.604,-0.138 -0.801,-0.4 c -2.64,-3.521 -6.061,-3.598 -6.206,-3.6 c -0.55,-0.006 -0.994,-0.456 -0.991,-1.005 c 0.003,-0.551 0.447,-0.995 0.997,-0.995 c 0.184,0 4.537,0.05 7.8,4.4 c 0.332,0.442 0.242,1.069 -0.2,1.4 c -0.18,0.135 -0.39,0.2 -0.599,0.2 Z" fill="#664500" />
	<path d="M 13.914,15.5 l 1.793,1.793 c 0.391,0.391 0.391,1.023 0,1.414 c -0.195,0.195 -0.451,0.293 -0.707,0.293 s -0.512,-0.098 -0.707,-0.293 l -1.793,-1.793 l -1.793,1.793 c -0.195,0.195 -0.451,0.293 -0.707,0.293 s -0.512,-0.098 -0.707,-0.293 c -0.391,-0.391 -0.391,-1.023 0,-1.414 l 1.793,-1.793 l -1.793,-1.793 c -0.391,-0.391 -0.391,-1.023 0,-1.414 s 1.023,-0.391 1.414,0 l 1.793,1.793 l 1.793,-1.793 c 0.391,-0.391 1.023,-0.391 1.414,0 s 0.391,1.023 0,1.414 l -1.793,1.793 Z" fill="#664500" />
	<path d="M 24.914,15.5 l 1.793,1.793 c 0.391,0.391 0.391,1.023 0,1.414 c -0.195,0.195 -0.451,0.293 -0.707,0.293 s -0.512,-0.098 -0.707,-0.293 l -1.793,-1.793 l -1.793,1.793 c -0.195,0.195 -0.451,0.293 -0.707,0.293 s -0.512,-0.098 -0.707,-0.293 c -0.391,-0.391 -0.391,-1.023 0,-1.414 l 1.793,-1.793 l -1.793,-1.793 c -0.391,-0.391 -0.391,-1.023 0,-1.414 s 1.023,-0.391 1.414,0 l 1.793,1.793 l 1.793,-1.793 c 0.391,-0.391 1.023,-0.391 1.414,0 s 0.391,1.023 0,1.414 l -1.793,1.793 Z" fill="#664500" />
	</svg>
