<svg viewBox="0 0 36 36" xmlns="http://www.w3.org/2000/svg">
	<defs>
		<clipPath id="circle">
			<circle r="18" cx="18" cy="18"/>
		</clipPath>
	</defs>
	
	<use id="body" href="F.svg#bg.normal" color="#FFCC4D"/>
	
	<!--
pre 15.0.1 (?)
	<use id="eye1" href="F.svg#eyebrow.9" transform="translate(7 14)" color="#664500"/>
	<use id="eye2" href="F.svg#eyebrow.9" transform="matrix(-1 0 0 1 29 14)" color="#664500"/>
	-->
	<use y="12.5" href="F.svg#eyes.normal12" color="#664500"/>
	
	<g clip-path="url(#circle)">
		<path d="M11 27v2l-11 -2v-2zM11 20v2l-11 -5v-2z" fill="#F5F8FA"/>
		<path d="M11 27v2l-11 -2v-2zM11 20v2l-11 -5v-2z" transform="matrix(-1 0 0 1 36 0)" fill="#F5F8FA"/>
		<!--
		<rect x="9" y="17" width="18" height="15" rx="2" fill="#F5F8FA"/>-->
	</g>
	
	<path fill="#F5F8FA" d="M 29,19 v7.273 l -0.422,2.077 c -1.551,1.269 -4.578,5.65 -10.578,5.65 s -9.027,-4.381 -10.58,-5.651 l -0.42,-2.076 v-7.273 s 5,-2 11,-2 s 11,2 11,2 Z"/>
</svg>
