<svg viewBox="0 0 36 36" xmlns="http://www.w3.org/2000/svg">
	<use href="F.svg#bg.normal" color="#FFCC4D"/>
	<use href="F.svg#bg.sweat"/>
	<use href="F.svg#eyes.normal13" y="16.5" color="#664500"/>
	<path d="M 5.999,12 c -0.208,0 -0.419,-0.065 -0.599,-0.2 c -0.442,-0.331 -0.531,-0.958 -0.2,-1.4 c 3.262,-4.35 7.616,-4.4 7.8,-4.4 c 0.552,0 1,0.448 1,1 c 0,0.551 -0.445,0.998 -0.996,1 c -0.155,0.002 -3.568,0.086 -6.204,3.6 c -0.196,0.262 -0.497,0.4 -0.801,0.4 Z" fill="#664500" />
	<path d="M 30.001,12 c -0.305,0 -0.604,-0.138 -0.801,-0.4 c -2.64,-3.521 -6.061,-3.598 -6.206,-3.6 c -0.55,-0.006 -0.994,-0.456 -0.991,-1.005 c 0.003,-0.551 0.447,-0.995 0.997,-0.995 c 0.184,0 4.537,0.05 7.8,4.4 c 0.332,0.442 0.242,1.069 -0.2,1.4 c -0.18,0.135 -0.39,0.2 -0.599,0.2 Z" fill="#664500" />
	<path d="M 23.485,27.879 c 0.055,0.218 -0.043,0.445 -0.239,0.557 c -0.077,0.043 -0.162,0.064 -0.246,0.064 c -0.125,0 -0.249,-0.047 -0.344,-0.137 c -0.039,-0.033 -1.067,-0.863 -4.656,-0.863 c -3.643,0 -4.647,0.855 -4.658,0.863 c -0.163,0.146 -0.409,0.172 -0.596,0.06 c -0.188,-0.113 -0.284,-0.331 -0.231,-0.544 c 0.011,-0.044 1.145,-4.379 5.485,-4.379 s 5.474,4.335 5.485,4.379 Z" fill="#664500" />
	</svg>
