<svg xmlns="http://www.w3.org/2000/svg" viewBox="0 0 36 36">
	<path id="head" d="M 36,11 c 0,3.58 -0.019,10.348 -5.755,11.732 c 1.481,4.274 3.755,8.593 3.755,9.268 c 0,1.657 -1.343,3 -3,3 c -3.605,0 -3,-2 -6,-2 s -2,2 -6,2 s -3,-2 -7,-2 h-1 c -2.046,0 -3.162,-5.117 -3.664,-9.958 c -3.334,0.418 -3.336,3.958 -3.336,3.958 a 2,2 0 01 -4,0 c 0,-3.769 1.778,-10.194 7,-11.763 v-3.237 a 11,11 0 01 22,0 v2.894 c 2.989,-0.609 3,-3.894 3,-3.894 a 2,2 0 01 4,0 Z" fill="#E1E8ED" class="toolight"/>
	
	<ellipse id="mouth" rx="6" ry="4.5" transform="translate(19.492,23.0905) rotate(36.87)" fill="#292F33"/>
	
	<circle id="eye1" r="2" cx="13" cy="12" fill="#292F33"/>
	<g id="eye2">
		<circle r="4" cx="23" cy="12" fill="#292F33"/>
		<circle r="2" cx="23" cy="13" fill="#9AAAB4"/>
	</g>
</svg>
