<svg xmlns="http://www.w3.org/2000/svg" viewBox="0 0 36 36">
	<path id="head" d="M 28,21 c 0,2.209 -3,15 -9,15 h-8 c -6,0 -9,-12.791 -9,-15 v-17 a 4,4 0 01 4,-4 h18 a 4,4 0 01 4,4 v17 Z" fill="#DA2F47"/>
	
	<!-- todo: decode skewed ellipses -->
	<g id="eye1">
		<path d="M 14.441,9.171 c 2.138,2.343 2.715,5.509 1.29,7.071 c -1.422,1.561 -4.312,0.928 -6.448,-1.415 c -2.137,-2.343 -2.715,-5.509 -1.29,-7.071 c 1.424,-1.561 4.313,-0.927 6.448,1.415 Z"  fill="#F5F8FA"/>
		<path d="M 15.934,12.707 c 0.609,0.781 0.609,2.048 0,2.829 c -0.607,0.781 -1.593,0.781 -2.201,0 s -0.608,-2.047 0,-2.828 c 0.608,-0.782 1.594,-0.782 2.201,-0.001 Z"  fill="#292F33"/>
	</g>
	<g id="eye2">
		<path d="M 21.727,9.271 c 1.824,-2.343 4.289,-2.976 5.504,-1.414 c 1.216,1.562 0.724,4.728 -1.1,7.071 s -4.289,2.976 -5.504,1.414 c -1.218,-1.562 -0.726,-4.729 1.1,-7.071 Z"  fill="#F5F8FA"/>
		<path d="M 21.1758,12.8066 c 0.607,-0.781 1.596,-0.781 2.201,0 c 0.612,0.781 0.612,2.047 0,2.828 c -0.605,0.781 -1.594,0.781 -2.201,0 c -0.609,-0.781 -0.609,-2.047 0,-2.828 Z" fill="#292f33"/>
	</g>
	
	<path id="eyebrow1" d="M 16.219,9 L 11.547,3" stroke-linecap="round" fill="none" stroke-width="4" stroke="#292F33"/>
	<path id="eyebrow2" d="M 20.8935,9 L 25.5635,3" stroke-linecap="round" fill="none" stroke-width="4" stroke="#292F33"/>
	
	<path id="mouth" d="M 12,29 s 1.5,-4 6,-4 s 6,4 6,4" stroke-linecap="round" fill="none" stroke-width="4" stroke="#FDD888"/>
	
	<path d="M 18.555,22 s -5.888,-0.553 -9.263,4 c -3.703,5 -3.704,-5 -2.778,-6 s 1.907,1.725 3.706,1.239 c 3.704,-1 8.335,0.761 8.335,0.761 Z" fill="#292F33"/>
	<path d="M 18.555,22 s 3.523,-2.1 6.344,-1.1 c 1.369,0.486 2.115,-1.9 2.82,-0.9 s 0.705,11 -2.114,6 c -2.568,-4.553 -7.05,-4 -7.05,-4 Z" fill="#292F33"/>
	
	<rect x="15.42" y="15" width="19.58" height="6" rx="2.736" ry="3" fill="#E75A70"/>
</svg>
