<svg xmlns="http://www.w3.org/2000/svg" viewBox="0 0 36 36">
	<circle cx="18" cy="18" r="18" fill="#FFCC4D" />
	<ellipse fill="#664500" cx="12" cy="13.5" rx="2.5" ry="3.5"/>
	<ellipse fill="#664500" cx="24" cy="13.5" rx="2.5" ry="3.5"/>
	<rect x="7" y="21" width="22" height="8" rx="4" fill="#FFF" />
	<rect x="6" y="20" width="24" height="10" rx="5" fill="#664500" />
	<path d="M 25,22 c 1.483,0 2.71,1.084 2.949,2.5 h-3.449 v-2.5 h0.5 Z" fill="#664500" />
	<path d="M 23.5,22 v2.5 h-3 v-2.5 h3 Z" fill="#664500" />
	<path d="M 19.5,22 v2.5 h-3 v-2.5 h3 Z" fill="#664500" />
	<path d="M 15.5,22 v2.5 h-3 v-2.5 h3 Z" fill="#664500" />
	<path d="M 11,22 h0.5 v2.5 h-3.449 c 0.239,-1.416 1.466,-2.5 2.949,-2.5 Z" fill="#664500" />
	<path d="M 11,28 c -1.483,0 -2.71,-1.084 -2.949,-2.5 h3.449 v2.5 h-0.5 Z" fill="#664500" />
	<path d="M 12.5,28 v-2.5 h3 v2.5 h-3 Z" fill="#664500" />
	<path d="M 16.5,28 v-2.5 h3 v2.5 h-3 Z" fill="#664500" />
	<path d="M 20.5,28 v-2.5 h3 v2.5 h-3 Z" fill="#664500" />
	<path d="M 25,28 h-0.5 v-2.5 h3.449 c -0.239,1.416 -1.466,2.5 -2.949,2.5 Z" fill="#664500" />
	</svg>
