<svg xmlns="http://www.w3.org/2000/svg" viewBox="0 0 36 36">
	<circle cx="18" cy="18" r="18" fill="#FFCC4D" />
	<path d="M 18,22 c 3.623,0 6.027,-0.422 9,-1 c 0.679,-0.132 2,0 2,2 c 0,4 -4.596,9 -11,9 c -6.405,0 -11,-5 -11,-9 c 0,-2 1.321,-2.131 2,-2 c 2.973,0.578 5.377,1 9,1 Z" fill="#664500" />
	<path d="M 9,23 s 3,1 9,1 s 9,-1 9,-1 s -2,4 -9,4 s -9,-4 -9,-4 Z" fill="#FFF" />
	<path d="M 6.001,20 c 0.208,0 0.419,-0.065 0.599,-0.2 c 0.037,-0.028 3.787,-2.8 8.4,-2.8 c 0.404,0 0.769,-0.243 0.924,-0.617 s 0.069,-0.804 -0.217,-1.09 c -3.255,-3.255 -8.486,-3.293 -8.707,-3.293 c -0.552,0 -0.999,0.447 -0.999,0.998 c -0.001,0.552 0.446,1 0.998,1.002 c 0.035,0 2.782,0.027 5.257,1.268 c -3.905,0.75 -6.713,2.826 -6.856,2.933 c -0.442,0.331 -0.532,0.958 -0.2,1.399 c 0.197,0.262 0.497,0.4 0.801,0.4 Z" fill="#664500" />
	<path d="M 29.999,19.999 c -0.208,0 -0.418,-0.064 -0.598,-0.198 c -0.038,-0.029 -3.811,-2.801 -8.401,-2.801 c -0.404,0 -0.77,-0.243 -0.924,-0.617 c -0.155,-0.374 -0.069,-0.804 0.217,-1.09 c 3.256,-3.255 8.486,-3.293 8.707,-3.293 c 0.552,0 0.998,0.447 0.999,0.998 c 0.001,0.552 -0.446,1 -0.997,1.002 c -0.036,0 -2.783,0.027 -5.258,1.268 c 3.905,0.75 6.713,2.825 6.855,2.933 c 0.441,0.331 0.531,0.956 0.201,1.398 c -0.196,0.261 -0.496,0.4 -0.801,0.4 Z" fill="#664500" />
	</svg>
