<svg xmlns="http://www.w3.org/2000/svg" viewBox="0 0 36 36">
	<!-- ears -->
	<ellipse rx="3.678" ry="5.335" transform="translate(5.801 17) rotate(-14.3)" fill="#D79E84"/>
	<ellipse rx="3.678" ry="5.335" transform="translate(30.2 17) rotate(14.3)" fill="#D79E84"/>
	
	<use href="F.svg#bg.monkey"/>
	
	<g>
		<path d="M 6.874,23.245 c -0.054,0.117 -0.126,0.221 -0.211,0.314 l 0.837,12.441 h-7 l 0.805,-12.888 c -0.381,-0.935 -0.555,-2.536 -0.555,-5.112 c 0,-5.244 2.99,-9.5 4.941,-9.5 c 0.508,0 0.792,0.287 0.942,0.528 c 0.605,0.976 0.124,3.013 -0.263,4.649 c -0.125,0.53 -0.267,1.13 -0.267,1.323 c 0,0.278 0.283,0.866 0.557,1.434 c 0.486,1.006 1.09,2.258 1.09,3.566 c 0,0.922 -0.278,1.952 -0.876,3.245 Z" fill="#BF6952" />
		<path d="M 6.874,23.245 c -0.051,0.111 -0.134,0.197 -0.213,0.286 l 0.839,12.469 h-0.5 s -2,-12.641 -2,-12.956 c 0,-3.985 0.197,-7.971 0.197,-9.963 c 0,-1.542 0.425,-3.015 1.159,-4.356 c 0.119,0.094 0.213,0.201 0.277,0.303 c 0.605,0.976 0.124,3.013 -0.263,4.649 c -0.125,0.53 -0.267,1.13 -0.267,1.323 c 0,0.278 0.283,0.866 0.557,1.434 c 0.486,1.006 1.09,2.258 1.09,3.566 c 0,0.922 -0.278,1.952 -0.876,3.245 Z" fill="#9B3C07" />
		<path d="M 5.691,9.5 c 0.203,0 0.26,0.091 0.283,0.13 c 0.359,0.577 -0.132,2.655 -0.396,3.771 c -0.191,0.808 -0.299,1.281 -0.299,1.599 c 0,0.55 0.296,1.163 0.67,1.939 c 0.458,0.949 0.977,2.025 0.977,3.061 c 0,0.732 -0.252,1.634 -0.771,2.755 c -0.127,0.275 -0.952,0.558 -2.112,0.558 l -0.232,0.001 c -0.703,0.007 -1.433,0.012 -1.688,-0.463 c -0.365,-0.677 -0.55,-2.309 -0.55,-4.851 c 0,-4.825 2.745,-8.5 4.118,-8.5 Z" fill="#D79E84" />
	</g>
	<g>
		<path d="M 35.5,36 h-7 l 0.838,-12.441 c -0.085,-0.093 -0.157,-0.197 -0.211,-0.314 c -0.599,-1.293 -0.877,-2.323 -0.877,-3.245 c 0,-1.307 0.604,-2.56 1.09,-3.566 c 0.274,-0.568 0.557,-1.156 0.557,-1.434 c 0,-0.193 -0.142,-0.793 -0.267,-1.323 c -0.387,-1.636 -0.869,-3.673 -0.263,-4.649 c 0.15,-0.241 0.434,-0.528 0.942,-0.528 c 1.951,0 4.941,4.256 4.941,9.5 c 0,2.577 -0.174,4.177 -0.555,5.112 l 0.805,12.888 Z" fill="#BF6952" />
		<path d="M 31,23.044 c 0,0.315 -2,12.956 -2,12.956 h-0.5 l 0.84,-12.469 c -0.079,-0.089 -0.162,-0.176 -0.213,-0.286 c -0.599,-1.293 -0.877,-2.323 -0.877,-3.245 c 0,-1.307 0.604,-2.56 1.09,-3.566 c 0.274,-0.568 0.557,-1.156 0.557,-1.434 c 0,-0.193 -0.142,-0.793 -0.267,-1.323 c -0.387,-1.636 -0.869,-3.673 -0.263,-4.649 c 0.03,-0.048 0.07,-0.098 0.112,-0.148 c 0.831,1.379 1.324,2.827 1.324,4.201 c 0,1.992 0.197,5.978 0.197,9.963 Z" fill="#9B3C07" />
		<path d="M 30.309,9.5 c 1.373,0 4.117,3.675 4.117,8.5 c 0,2.543 -0.185,4.175 -0.55,4.851 c -0.257,0.475 -0.987,0.47 -1.689,0.463 l -0.232,-0.001 c -1.161,0 -1.985,-0.284 -2.112,-0.558 c -0.518,-1.121 -0.77,-2.023 -0.77,-2.755 c 0,-1.036 0.519,-2.112 0.977,-3.061 c 0.374,-0.776 0.67,-1.389 0.67,-1.939 c 0,-0.318 -0.108,-0.791 -0.299,-1.599 c -0.263,-1.116 -0.754,-3.194 -0.396,-3.771 c 0.024,-0.039 0.081,-0.13 0.284,-0.13 Z" fill="#D79E84" />
	</g>
</svg>
