<svg viewBox="0 0 36 36" xmlns="http://www.w3.org/2000/svg">
	<!-- messy. -->
	<use href="F.svg#bg.normal" color="#EA596E"/>
	
	<use href="F.svg#eyebrow.3b" transform="translate(29 11) scale(-1 1)" color="#292F33"/>
	<use href="F.svg#eyebrow.3" transform="translate(7 11) scale(1 1)" color="#292F33"/>
	
	<use href="F.svg#eyes.normal12" y="16.5" color="#292F33"/>
	
	<!-- the paths for the mouth+tongue are irregular, off center, etc., need to be redrawn -->
	<path d="M 26.125,29.261 c 0.084,0 0.166,-0.029 0.233,-0.081 c 0.09,-0.071 0.142,-0.18 0.142,-0.294 c 0,-3.178 -3.713,-6.872 -8.5,-6.872 s -8.5,3.694 -8.5,6.872 c 0,0.116 0.054,0.225 0.145,0.297 c 0.093,0.071 0.213,0.094 0.324,0.066 c 0.076,-0.02 7.648,-1.94 16.072,0.002 c 0.027,0.007 0.056,0.01 0.084,0.01 Z" fill="#292F33" />
	<path d="M 18.629,23.079 c 2.309,0.176 4.225,1.298 5.454,2.713 l -0.009,0.284 c -0.099,2.922 -2.092,5.773 -5.991,5.773 c -3.912,0 -5.906,-2.87 -5.992,-5.802 l -0.008,-0.461 c 1.264,-1.354 3.178,-2.389 5.455,-2.516 l 1.091,0.009 Z" fill="#F4ABBA" />
	<path d="M 17.538,27.518 v-4.447 h1.090 v4.447 a 0.545,0.545 0 01 -1.090,0 Z" fill="#EA596E" />
	
	<use href="F.svg/#water_drop" transform="translate(30.812 1.874) scale(1.019)" fill="#5DADEC"/>
	<use href="F.svg/#water_drop" transform="translate(4.385 0.063) scale(.8375)" fill="#5DADEC"/>
</svg>
