<svg viewBox="0 0 36 36" xmlns="http://www.w3.org/2000/svg">
	<circle fill="#EA596E" cx="18" cy="18" r="18"/>
	<path d="M 26.125,29.261 c 0.084,0 0.166,-0.029 0.233,-0.081 c 0.09,-0.071 0.142,-0.18 0.142,-0.294 c 0,-3.178 -3.713,-6.872 -8.5,-6.872 s -8.5,3.694 -8.5,6.872 c 0,0.116 0.054,0.225 0.145,0.297 c 0.093,0.071 0.213,0.094 0.324,0.066 c 0.076,-0.02 7.648,-1.94 16.072,0.002 c 0.027,0.007 0.056,0.01 0.084,0.01 Z" fill="#292F33" />
	<path d="M 29,12 c -5.554,0 -7.802,-4.367 -7.895,-4.553 c -0.247,-0.494 -0.047,-1.095 0.447,-1.342 c 0.493,-0.247 1.092,-0.048 1.34,0.443 c 0.075,0.146 1.821,3.452 6.108,3.452 c 0.553,0 1,0.448 1,1 s -0.447,1 -1,1 Z" fill="#292F33" />
	<path d="M 7,12 c -0.552,0 -1,-0.448 -1,-1 s 0.448,-1 1,-1 c 5.083,0 5.996,-3.12 6.033,-3.253 c 0.145,-0.528 0.692,-0.848 1.219,-0.709 c 0.53,0.139 0.851,0.673 0.718,1.205 c -0.049,0.194 -1.266,4.757 -7.97,4.757 Z" fill="#292F33" />
	<ellipse fill="#292F33" cx="12" cy="16.5" rx="2.5" ry="3.5"/>
	<ellipse fill="#292F33" cx="24" cy="16.5" rx="2.5" ry="3.5"/>
	<path d="M 18.629,23.079 c 2.309,0.176 4.225,1.298 5.454,2.713 l -0.009,0.284 c -0.099,2.922 -2.092,5.773 -5.991,5.773 c -3.912,0 -5.906,-2.87 -5.992,-5.802 l -0.008,-0.461 c 1.264,-1.354 3.178,-2.389 5.455,-2.516 v0.837 l 1.091,-0.001 v-0.827 Z" fill="#F4ABBA" />
	<path d="M 18,23.049 c 0.214,0 0.421,0.014 0.628,0.031 v4.438 c 0,0.301 -0.244,0.545 -0.545,0.545 s -0.545,-0.244 -0.545,-0.545 v-4.447 c 0.154,-0.008 0.305,-0.022 0.462,-0.022 Z" fill="#EA596E" />
	<path d="M 35.906,12.062 c 0,2.814 -2.28,5.094 -5.094,5.094 s -5.094,-2.28 -5.094,-5.094 s 4.075,-10.188 5.094,-10.188 s 5.094,7.375 5.094,10.188 Z" fill="#5DADEC" />
	<path d="M 8.573,8.438 c 0,2.313 -1.875,4.188 -4.188,4.188 s -4.188,-1.875 -4.188,-4.188 s 3.35,-8.375 4.188,-8.375 s 4.188,6.062 4.188,8.375 Z" fill="#5DADEC" />
	</svg>
