<svg viewBox="0 0 36 36" xmlns="http://www.w3.org/2000/svg">
	<use href="F.svg#bg.normal" color="#FFCC4D"/>
	<ellipse fill="#664500" cx="18" cy="25.5" rx="3" ry="3.5"/>
	<path d="M 31.001,11 c -0.305,0 -0.604,-0.138 -0.801,-0.4 c -2.64,-3.521 -6.061,-3.598 -6.206,-3.6 c -0.55,-0.006 -0.994,-0.456 -0.991,-1.005 c 0.003,-0.551 0.447,-0.995 0.997,-0.995 c 0.184,0 4.537,0.05 7.8,4.4 c 0.332,0.442 0.242,1.069 -0.2,1.4 c -0.18,0.135 -0.39,0.2 -0.599,0.2 Z" fill="#664500" />
	<path d="M 4.999,11 c -0.208,0 -0.419,-0.065 -0.599,-0.2 c -0.442,-0.331 -0.531,-0.958 -0.2,-1.4 c 3.262,-4.35 7.616,-4.4 7.8,-4.4 c 0.552,0 1,0.448 1,1 c 0,0.551 -0.445,0.998 -0.996,1 c -0.155,0.002 -3.568,0.086 -6.204,3.6 c -0.196,0.262 -0.497,0.4 -0.801,0.4 Z" fill="#664500" />
	<ellipse fill="#664500" cx="12" cy="14.5" rx="2.5" ry="3.5"/>
	<ellipse fill="#664500" cx="24" cy="14.5" rx="2.5" ry="3.5"/>
	</svg>
