<svg viewBox="0 0 36 36" xmlns="http://www.w3.org/2000/svg">
	<use href="F.svg#bg.normal" color="#FFCC4D"/>
	<path d="M 20.871,28 c 1.335,0.412 2.629,1.156 2.629,2.5 c 0,2.619 -4.912,2.968 -5.472,2.999 l -0.028,0.001 c -0.262,0 -0.482,-0.204 -0.499,-0.469 c -0.017,-0.273 0.19,-0.51 0.464,-0.53 c 0.035,-0.002 3.535,-0.299 3.535,-2.001 s -3.5,-1.999 -3.535,-2 c -0.025,-0.002 -0.045,-0.014 -0.069,-0.02 c -0.035,-0.006 -0.069,-0.012 -0.101,-0.027 c -0.028,-0.013 -0.05,-0.03 -0.074,-0.047 c -0.028,-0.02 -0.055,-0.038 -0.078,-0.061 c -0.02,-0.021 -0.035,-0.047 -0.052,-0.071 c -0.018,-0.027 -0.036,-0.054 -0.049,-0.084 c -0.012,-0.029 -0.017,-0.059 -0.023,-0.09 c -0.005,-0.023 -0.017,-0.044 -0.018,-0.068 c -0.001,-0.01 0.004,-0.021 0.004,-0.031 s -0.004,-0.02 -0.004,-0.031 c 0.002,-0.023 0.014,-0.044 0.018,-0.067 c 0.006,-0.031 0.012,-0.063 0.024,-0.092 c 0.016,-0.039 0.037,-0.071 0.06,-0.103 c 0.012,-0.016 0.021,-0.032 0.035,-0.047 c 0.036,-0.041 0.079,-0.073 0.127,-0.1 l 0.015,-0.009 c 0.047,-0.023 0.096,-0.035 0.149,-0.041 c 0.013,-0.002 0.023,-0.009 0.036,-0.01 c 0.035,-0.002 3.535,-0.299 3.535,-2.001 s -3.5,-1.999 -3.535,-2.001 c -0.274,-0.019 -0.481,-0.256 -0.464,-0.53 c 0.018,-0.275 0.253,-0.495 0.527,-0.468 c 0.56,0.031 5.472,0.38 5.472,2.999 c 0,1.344 -1.294,2.088 -2.629,2.5 Z" fill="#664500" />
	<path d="M 16,19 c -0.419,0 -0.809,-0.265 -0.949,-0.684 c -0.203,-0.599 -1.017,-2.316 -2.051,-2.316 c -1.062,0 -1.888,1.827 -2.051,2.316 c -0.175,0.523 -0.738,0.808 -1.265,0.632 c -0.524,-0.174 -0.807,-0.74 -0.632,-1.265 c 0.125,-0.376 1.304,-3.683 3.948,-3.683 s 3.823,3.307 3.949,3.684 c 0.175,0.524 -0.108,1.091 -0.632,1.265 c -0.106,0.034 -0.213,0.051 -0.317,0.051 Z" fill="#664500" />
	<path d="M 26,19 c -0.419,0 -0.809,-0.265 -0.948,-0.684 c -0.203,-0.599 -1.019,-2.316 -2.052,-2.316 c -1.062,0 -1.889,1.827 -2.052,2.316 c -0.175,0.523 -0.736,0.808 -1.265,0.632 c -0.523,-0.174 -0.807,-0.74 -0.632,-1.265 c 0.126,-0.376 1.304,-3.683 3.949,-3.683 s 3.823,3.307 3.948,3.684 c 0.175,0.524 -0.108,1.091 -0.632,1.265 c -0.105,0.034 -0.212,0.051 -0.316,0.051 Z" fill="#664500" />
	</svg>
