<svg viewBox="0 0 36 36" xmlns="http://www.w3.org/2000/svg">
	<use href="F.svg#bg.normal" color="#FFCC4D"/>
	<circle fill="#FF7892" cx="7" cy="21" r="5"/>
	<circle fill="#FF7892" cx="29" cy="21" r="5"/>
	<path d="M 28.416,17.723 c 0.135,0.202 0.105,0.473 -0.072,0.64 c -0.096,0.091 -0.22,0.137 -0.344,0.137 c -0.104,0 -0.209,-0.033 -0.298,-0.099 c -0.028,-0.02 -1.276,-0.901 -3.702,-0.901 c -2.44,0 -3.69,0.893 -3.702,0.903 c -0.197,0.143 -0.469,0.125 -0.643,-0.042 c -0.175,-0.168 -0.206,-0.436 -0.071,-0.638 c 0.061,-0.091 1.516,-2.223 4.416,-2.223 c 2.901,0 4.355,2.132 4.416,2.223 Z" fill="#664500" />
	<path d="M 12,15.5 c 2.901,0 4.355,2.132 4.416,2.222 c 0.136,0.203 0.105,0.474 -0.072,0.641 c -0.096,0.091 -0.22,0.137 -0.344,0.137 c -0.104,0 -0.209,-0.033 -0.298,-0.099 c -0.028,-0.02 -1.276,-0.901 -3.702,-0.901 c -2.441,0 -3.69,0.893 -3.703,0.903 c -0.195,0.143 -0.467,0.125 -0.642,-0.042 c -0.175,-0.168 -0.205,-0.436 -0.071,-0.638 c 0.061,-0.091 1.516,-2.223 4.416,-2.223 Z" fill="#664500" />
	<path d="M 21.871,27 c 1.335,0.412 2.629,1.156 2.629,2.5 c 0,2.619 -4.912,2.968 -5.473,2.999 l -0.027,0.001 c -0.263,0 -0.482,-0.204 -0.499,-0.469 c -0.017,-0.273 0.191,-0.51 0.464,-0.53 c 0.035,-0.002 3.535,-0.299 3.535,-2.001 s -3.5,-1.999 -3.535,-2.002 c -0.025,-0.002 -0.046,-0.014 -0.069,-0.02 c -0.036,-0.006 -0.07,-0.012 -0.101,-0.027 c -0.026,-0.013 -0.047,-0.029 -0.071,-0.046 c -0.029,-0.019 -0.058,-0.038 -0.081,-0.062 c -0.02,-0.02 -0.033,-0.044 -0.05,-0.067 c -0.019,-0.028 -0.038,-0.056 -0.051,-0.088 c -0.011,-0.028 -0.016,-0.058 -0.022,-0.087 c -0.006,-0.024 -0.017,-0.045 -0.019,-0.07 c -0.001,-0.01 0.004,-0.02 0.004,-0.031 s -0.005,-0.021 -0.004,-0.031 c 0.002,-0.024 0.014,-0.046 0.019,-0.07 c 0.005,-0.029 0.01,-0.059 0.021,-0.086 c 0.018,-0.047 0.044,-0.086 0.073,-0.125 l 0.015,-0.021 c 0.08,-0.094 0.186,-0.151 0.31,-0.159 c 0.009,-0.001 0.016,-0.006 0.026,-0.007 c 0.035,-0.002 3.535,-0.299 3.535,-2.001 s -3.5,-1.999 -3.535,-2.001 c -0.274,-0.019 -0.481,-0.256 -0.464,-0.53 c 0.016,-0.274 0.249,-0.504 0.526,-0.468 c 0.561,0.031 5.473,0.38 5.473,2.999 c 0,1.344 -1.294,2.088 -2.629,2.5 Z" fill="#664500" />
	<path d="M 31.001,16 c -0.305,0 -0.604,-0.138 -0.801,-0.4 c -2.641,-3.521 -6.061,-3.599 -6.206,-3.6 c -0.55,-0.006 -0.994,-0.456 -0.991,-1.005 c 0.003,-0.551 0.447,-0.995 0.997,-0.995 c 0.184,0 4.537,0.05 7.8,4.4 c 0.332,0.442 0.242,1.069 -0.2,1.4 c -0.18,0.135 -0.39,0.2 -0.599,0.2 Z" fill="#664500" />
	<path d="M 4.999,16 c -0.208,0 -0.419,-0.065 -0.599,-0.2 c -0.442,-0.331 -0.531,-0.958 -0.2,-1.4 c 3.262,-4.35 7.616,-4.4 7.8,-4.4 c 0.552,0 1,0.448 1,1 c 0,0.551 -0.445,0.998 -0.996,1 c -0.156,0.002 -3.569,0.086 -6.205,3.6 c -0.195,0.262 -0.496,0.4 -0.8,0.4 Z" fill="#664500" />
	</svg>
