<svg viewBox="0 0 36 36" xmlns="http://www.w3.org/2000/svg">
	<circle cx="18" cy="18" r="18" fill="#FFCC4D" />
	<path d="M 22,27 c 0,2.763 -1.791,3 -4,3 c -2.21,0 -4,-0.237 -4,-3 c 0,-2.761 1.79,-6 4,-6 c 2.209,0 4,3.239 4,6 Z" fill="#664500" />
	<path d="M 30,15 c -0.124,0 -0.25,-0.023 -0.371,-0.072 c -5.229,-2.091 -7.372,-5.241 -7.461,-5.374 c -0.307,-0.46 -0.183,-1.081 0.277,-1.387 c 0.459,-0.306 1.077,-0.184 1.385,0.274 c 0.019,0.027 1.93,2.785 6.541,4.629 c 0.513,0.206 0.763,0.787 0.558,1.3 c -0.157,0.392 -0.533,0.63 -0.929,0.63 Z" fill="#664500" />
	<path d="M 6,15 c -0.397,0 -0.772,-0.238 -0.929,-0.629 c -0.205,-0.513 0.044,-1.095 0.557,-1.3 c 4.612,-1.844 6.523,-4.602 6.542,-4.629 c 0.308,-0.456 0.929,-0.577 1.387,-0.27 c 0.457,0.308 0.581,0.925 0.275,1.383 c -0.089,0.133 -2.232,3.283 -7.46,5.374 c -0.122,0.048 -0.248,0.071 -0.372,0.071 Z" fill="#664500" />
	<path d="M 24,16 h4 v19 l -4,-0.046 v-18.954 Z" fill="#5DADEC" />
	<path d="M 8,35 v-19 h4 v18.954 l -4,0.046 Z" fill="#5DADEC" />
	<path d="M 14.999,18 c 0.367,0 0.72,-0.202 0.896,-0.552 c 0.247,-0.494 0.047,-1.095 -0.447,-1.342 c -4.397,-2.197 -8.713,-0.09 -8.895,0 c -0.494,0.247 -0.694,0.848 -0.447,1.342 c 0.247,0.493 0.847,0.696 1.342,0.447 c 0.035,-0.018 3.593,-1.756 7.105,0 c 0.143,0.071 0.296,0.105 0.446,0.105 Z" fill="#664500" />
	<path d="M 28.999,18 c 0.367,0 0.72,-0.202 0.896,-0.552 c 0.247,-0.494 0.047,-1.095 -0.447,-1.342 c -4.394,-2.196 -8.713,-0.09 -8.895,0 c -0.494,0.247 -0.694,0.848 -0.447,1.342 c 0.248,0.494 0.848,0.695 1.342,0.447 c 0.035,-0.018 3.592,-1.756 7.105,0 c 0.143,0.071 0.296,0.105 0.446,0.105 Z" fill="#664500" />
	<ellipse fill="#5DADEC" cx="18" cy="34" rx="18" ry="2"/>
	<ellipse fill="#E75A70" cx="18" cy="27" rx="3" ry="2"/>
	</svg>
