<svg viewBox="0 0 36 36" xmlns="http://www.w3.org/2000/svg">
	<circle cx="18" cy="15.5" r="15.5" fill="#FFCC4D"/>
	<path d="
M 35.07,32.558 
a 12.5,12.5 0 01 -8.812,1.553 
a 8.289,8.289 0 00 -5.642,0.913 
c -1.226,0.69 -2.623,1.014 -4.029,0.976
l -2.712,0
c -1.991,-0.019 -3.973,-0.273 -5.905,-0.758
a 1.281,1.281 0 01 0,-2.485
l 3.03,-0.757 
a 1.17,1.17 0 00 -0.828,-2
L 2,30
a 2,2 0 01 0,-4
a 2,2 0 00 2,-2
L 4,22.119
A 15.5,15.5 0 01 2.5,15.5
a 15.5,15.5 0 01 31,0
A 15.5,15.5 0 01 32.176,21.727
c -0.116,0.269 -0.176,0.554 -0.176,0.847 
v0.003 
c 0,0.8 0.66,1.444 1.46,1.423 
A 1.5,1.5 0 11 33.5,27
h-1.5 
a 1,1 0 00 0,2 
h 1.985 
c 0.851,0 1.662,0.507 1.921,1.317 
a 1.92,1.92 0 01 -0.836,2.241 
Z" fill="#FFCC4D" />
	<path d="M 18.736,24.003 c -0.754,0 -1.504,-0.078 -2.244,-0.234 c -2.693,-0.571 -5.003,-2.115 -6.338,-4.236 a 1,1 0 01 1.692,-1.066 c 1.033,1.642 2.925,2.892 5.06,3.345 c 1.767,0.375 4.507,0.393 7.536,-1.642 a 1,1 0 01 1.116,1.66 c -2.129,1.43 -4.489,2.173 -6.822,2.173 Z" fill="#664500" />
	<ellipse fill="#664500" cx="14" cy="12" rx="2" ry="3"/>
	<ellipse fill="#664500" cx="23" cy="14" rx="2" ry="3"/>
</svg>
