<svg xmlns="http://www.w3.org/2000/svg" viewBox="0 0 36 36" xml:space="preserve">
	<path d="M 35.07,32.558 c -2.645,1.587 -5.784,2.141 -8.812,1.553 a 8.289,8.289 0 00 -5.642,0.913 c -1.226,0.69 -2.623,1.014 -4.029,1 l -2.712,-0.026 c -1.991,-0.019 -3.973,-0.273 -5.905,-0.756 a 1.281,1.281 0 01 0,-2.485 l 3.03,-0.757 a 1.17,1.17 0 00 -0.828,-2 h-8.039 c -1.064,0 -2.032,-0.775 -2.118,-1.834 a 2,2 0 01 2.034,-2.167 c 1.086,0.021 1.951,-0.914 1.951,-2 v-1.88 c -0.952,-2.01 -1.5,-4.248 -1.5,-6.619 c 0,-8.734 7.224,-15.781 16.024,-15.491 c 7.887,0.26 14.454,6.651 14.946,14.527 a 15.294,15.294 0 01 -1.294,7.191 c -0.116,0.269 -0.176,0.554 -0.176,0.847 v0.003 c 0,0.8 0.66,1.444 1.46,1.423 a 1.5,1.5 0 11 0.04,3 h-1.5 a 1,1 0 00 0,2 h1.985 c 0.851,0 1.662,0.507 1.921,1.317 a 1.92,1.92 0 01 -0.836,2.241 Z" fill="#FFCC4D" />
	<path d="M 18.736,24.003 c -0.754,0 -1.504,-0.078 -2.244,-0.234 c -2.693,-0.571 -5.003,-2.115 -6.338,-4.236 a 1,1 0 01 1.692,-1.066 c 1.033,1.642 2.925,2.892 5.06,3.345 c 1.767,0.375 4.507,0.393 7.536,-1.642 a 1,1 0 01 1.116,1.66 c -2.129,1.43 -4.489,2.173 -6.822,2.173 Z" fill="#65471B" />
	<ellipse fill="#65471B" cx="14" cy="12" rx="2" ry="3"/>
	<ellipse fill="#65471B" cx="23" cy="14" rx="2" ry="3"/>
	</svg>
