<svg xmlns="http://www.w3.org/2000/svg" viewBox="0 0 36 36">
	<circle cx="18" cy="18" r="18" fill="#FFCC4D" />
	<path d="M 7,21.263 c 11.667,2.756 22,0 22,0 c 0,4 -4.596,9 -11,9 s -11,-5.036 -11,-9 Z" fill="#664500" />
	<path d="M 12,23.003 s 5.709,1.333 12,0.041 v6.92 c 0,3 -2,6 -6,6 s -6,-3 -6,-6 v-6.961 Z" fill="#5D9040" />
	<path d="M 12.284,12.33 c 1.137,0.439 2.552,0.985 2.551,2.389 c 0,1.237 -0.766,2.144 -2.062,2.459 l 0.005,0.498 c 0,0.517 -0.421,0.938 -0.939,0.938 s -0.939,-0.42 -0.939,-0.938 v-0.47 c -1.226,-0.238 -2.157,-0.915 -2.157,-1.594 c 0,-0.462 0.336,-0.824 0.766,-0.824 c 0.296,0 0.544,0.173 0.806,0.356 c 0.38,0.264 0.81,0.564 1.56,0.564 c 0.743,0 1.203,-0.396 1.203,-0.762 c 0,-0.501 -0.772,-0.822 -1.589,-1.162 c -1.141,-0.474 -2.434,-1.012 -2.434,-2.323 c 0,-1.061 0.701,-1.902 1.845,-2.235 v-0.426 c 0,-0.518 0.421,-0.939 0.939,-0.939 s 0.939,0.421 0.939,0.939 v0.393 c 0.956,0.218 1.858,0.738 1.858,1.474 c 0,0.369 -0.257,0.766 -0.821,0.766 c -0.303,0 -0.521,-0.164 -0.731,-0.323 c -0.274,-0.207 -0.585,-0.441 -1.21,-0.441 c -0.177,0 -1.061,0.034 -1.061,0.693 c 0,0.4 0.715,0.676 1.471,0.968 Z" fill="#664500"/>
	<path d="M 26.694,14.736 c 0,1.237 -0.765,2.143 -2.06,2.46 l 0.003,0.498 c 0,0.517 -0.42,0.938 -0.938,0.938 s -0.941,-0.421 -0.941,-0.938 v-0.47 c -1.225,-0.238 -2.156,-0.915 -2.156,-1.594 c 0,-0.462 0.336,-0.824 0.767,-0.824 c 0.295,0 0.543,0.173 0.806,0.356 c 0.379,0.264 0.809,0.564 1.559,0.564 c 0.743,0 1.202,-0.396 1.202,-0.762 c 0,-0.501 -0.772,-0.822 -1.589,-1.162 c -1.141,-0.474 -2.434,-1.012 -2.434,-2.323 c 0,-1.061 0.702,-1.902 1.845,-2.235 v-0.426 c 0,-0.518 0.422,-0.939 0.94,-0.939 c 0.517,0 0.939,0.421 0.939,0.939 v0.392 c 0.956,0.218 1.858,0.737 1.858,1.474 c 0,0.369 -0.257,0.766 -0.822,0.766 c -0.302,0 -0.519,-0.164 -0.73,-0.323 c -0.275,-0.207 -0.585,-0.441 -1.21,-0.441 c -0.177,0 -1.061,0.034 -1.061,0.693 c 0,0.4 0.714,0.676 1.47,0.968 c 1.137,0.439 2.552,0.985 2.552,2.389 Z" fill="#664500"/>
	<path d="M 20.97,31.069 c 0,1.205 -0.746,2.089 -2.009,2.398 l 0.003,0.486 c 0,0.504 -0.41,0.914 -0.915,0.914 c -0.506,0 -0.917,-0.41 -0.917,-0.914 v-0.459 c -1.195,-0.232 -2.102,-0.891 -2.102,-1.554 c 0,-0.45 0.329,-0.804 0.748,-0.804 c 0.288,0 0.53,0.169 0.785,0.347 c 0.37,0.259 0.789,0.551 1.52,0.551 c 0.725,0 1.173,-0.386 1.173,-0.743 c 0,-0.488 -0.752,-0.801 -1.549,-1.132 c -1.112,-0.462 -2.373,-0.987 -2.373,-2.265 c 0,-1.034 0.684,-1.855 1.799,-2.179 v-0.415 c 0,-0.505 0.411,-0.916 0.916,-0.916 s 0.916,0.411 0.916,0.916 v0.383 c 0.933,0.213 1.812,0.72 1.812,1.437 c 0,0.359 -0.251,0.747 -0.801,0.747 c -0.295,0 -0.508,-0.16 -0.713,-0.315 c -0.268,-0.201 -0.571,-0.43 -1.18,-0.43 c -0.173,0 -1.034,0.032 -1.034,0.675 c 0,0.389 0.697,0.659 1.434,0.943 c 1.108,0.428 2.487,0.961 2.487,2.329 Z" fill="#FFF" />
	</svg>
