<svg viewBox="0 0 36 36" xmlns="http://www.w3.org/2000/svg">
	<ellipse transform="rotate(-14.999 5.05 17.456)" fill="#D79E84" cx="5.05" cy="17.455" rx="3.818" ry="5.455"/>
	<ellipse transform="rotate(-75.001 31.05 17.455)" fill="#D79E84" cx="31.05" cy="17.455" rx="5.455" ry="3.818"/>
	<path d="M 19.018,36 h-2.036 c -6.718,0 -13.232,-5.152 -13.232,-12.364 c 0,-4.121 1.527,-6.182 1.527,-6.182 s -0.509,-2.061 -0.509,-4.121 c 0,-6.181 6.514,-11.333 13.232,-11.333 s 13.232,6.182 13.232,11.333 c 0,2.061 -0.509,4.121 -0.509,4.121 s 1.527,2.061 1.527,6.182 c 0,7.212 -6.514,12.364 -13.232,12.364 Z" fill="#BF6952" />
	<path d="M 30,16.042 c 0,2.358 -1.172,4.441 -2.965,5.719 c 0.503,1.238 0.783,2.6 0.783,4.031 c 0,5.684 -4.396,9.208 -9.818,9.208 s -9.818,-3.524 -9.818,-9.208 c 0,-1.431 0.28,-2.793 0.783,-4.031 c -1.793,-1.278 -2.965,-3.36 -2.965,-5.719 c 0,-3.889 3.175,-7.042 7.091,-7.042 c 1.907,0 3.635,0.752 4.909,1.968 c 1.274,-1.216 3.002,-1.968 4.909,-1.968 c 3.916,0 7.091,3.153 7.091,7.042 Z" fill="#D79E84" />
	<ellipse fill="#292F33" cx="13" cy="17" rx="2.25" ry="3.25"/>
	<ellipse fill="#292F33" cx="23" cy="17" rx="2.25" ry="3.25"/>
	<path d="M 18,32.727 c -2.838,0 -5.254,-1.505 -6.162,-3.61 c -0.375,-0.87 0.262,-1.844 1.21,-1.844 h9.904 c 0.948,0 1.585,0.973 1.21,1.844 c -0.908,2.105 -3.324,3.61 -6.162,3.61 Z" fill="#642116" />
	<circle fill="#642116" cx="16.25" cy="23" r="1"/>
	<circle fill="#642116" cx="19.75" cy="23" r="1"/>
	<path d="M 22.66,0.175 c -2.182,0 -3.272,3.273 -3.272,3.273 s -6.545,2.182 -4.364,-1.091 s 7.636,-2.182 7.636,-2.182 Z" fill="#BF6952" />
	</svg>
