<svg viewBox="0 0 36 36" xmlns="http://www.w3.org/2000/svg">
	<circle cx="17.99" cy="18" r="18" fill="#77B255" />
	<path d="M 15.364,26.122 l -1.515,-2.295 c 1.154,-0.762 2.606,-1.182 4.089,-1.182 c 1.49,0 2.895,0.402 4.062,1.162 l -1.502,2.305 c -1.425,-0.928 -3.721,-0.924 -5.134,0.01 Z" fill="#292F33" />
	<path d="M 28.028,13.036 c 0.048,0.058 0.068,0.139 0.054,0.214 c -0.39,1.841 -1.94,3.177 -3.686,3.177 c -0.236,0 -0.475,-0.025 -0.707,-0.074 c -0.959,-0.203 -1.775,-0.797 -2.296,-1.673 c -0.518,-0.87 -0.684,-1.914 -0.466,-2.941 c 0.024,-0.116 0.157,-0.205 0.275,-0.205 c 0.055,0 6.582,1.202 6.826,1.502 Z" fill="#292F33" />
	<path d="M 14.756,11.534 c 0.119,0 0.252,0.089 0.276,0.204 c 0.449,2.127 -0.79,4.196 -2.762,4.613 c -0.233,0.049 -0.471,0.074 -0.707,0.074 c -1.747,0 -3.297,-1.336 -3.686,-3.176 c -0.016,-0.073 0.004,-0.154 0.052,-0.213 c 0.244,-0.3 6.771,-1.502 6.827,-1.502 Z" fill="#292F33" />
	<path d="M 11.647,29.647 c -0.444,0 -0.857,-0.28 -1.005,-0.724 c -0.185,-0.555 0.115,-1.155 0.669,-1.339 c 0.095,-0.033 2.453,-0.877 2.453,-3.231 s -2.358,-3.198 -2.458,-3.232 c -0.55,-0.191 -0.846,-0.791 -0.659,-1.342 c 0.187,-0.552 0.78,-0.852 1.334,-0.665 c 0.159,0.053 3.9,1.344 3.9,5.239 s -3.741,5.187 -3.9,5.239 c -0.11,0.037 -0.223,0.055 -0.334,0.055 Z" fill="#3E721D" />
	<path d="M 24.352,29.647 c -0.111,0 -0.223,-0.018 -0.334,-0.055 c -0.159,-0.053 -3.9,-1.344 -3.9,-5.239 s 3.741,-5.187 3.9,-5.239 c 0.559,-0.187 1.154,0.115 1.339,0.669 c 0.185,0.553 -0.113,1.151 -0.664,1.338 c -0.1,0.034 -2.458,0.878 -2.458,3.232 s 2.358,3.198 2.458,3.232 c 0.551,0.191 0.847,0.791 0.66,1.342 c -0.15,0.442 -0.561,0.72 -1.001,0.72 Z" fill="#3E721D" />
	</svg>
