<svg viewBox="0 0 36 36" xmlns="http://www.w3.org/2000/svg">
	<defs>
		<path id="cheek" d="M -3,-4 s 3,1 3,4 s -3,4 -3,4" fill="none" stroke-linecap="round" stroke-width="2" stroke="currentColor"/>
	</defs>
	
	<use href="F.svg#bg.normal" color="#77B255"/>
	
	<path d="M 14.607,24.974 c 0.903,-0.595 2.064,-0.953 3.331,-0.953 c 1.258,0 2.411,0.352 3.311,0.939" fill="none" stroke="#292f33" stroke-width="2.75"/> <!-- _from original source_ -->
	
	<!-- no idea ! what are you.. -->
	<!--<path d="M 28.028,13.036 c 0.048,0.058 0.067,0.139 0.053,0.212 c -0.39,1.842 -1.94,3.178 -3.686,3.178 c -0.236,0 -0.474,-0.025 -0.707,-0.074 c -0.959,-0.203 -1.774,-0.797 -2.296,-1.673 s -0.683,-1.914 -0.466,-2.941 c 0.025,-0.116 0.158,-0.204 0.276,-0.204 c 0.055,0 6.582,1.202 6.826,1.502 Z" fill="#292f33"/>
	<path d="M 14.756,11.534 c 0.119,0 0.252,0.089 0.276,0.205 c 0.449,2.127 -0.79,4.197 -2.762,4.613 c -0.233,0.049 -0.471,0.074 -0.707,0.074 c -1.746,0 -3.297,-1.336 -3.686,-3.176 c -0.016,-0.074 0.004,-0.155 0.052,-0.214 c 0.244,-0.3 6.771,-1.502 6.827,-1.502 Z" fill="#292f33"/>-->
	<path d=" M
14.756,11.534
 C 14.875,11.534 15.008,11.623
15.032,11.739
 A 3.656,3.943 -11.92 01
7.877,13.25
 C 7.861,13.176 7.881,13.095
7.929,13.036
 C 8.173,12.736 14.7,11.534
14.756,11.534
 Z"  fill="#292f33"/>
	<path d=" M
28.028,13.036
 C 28.076,13.094 28.095,13.175
28.081,13.248
 A 3.656,3.944 11.92 01
20.926,11.738
 C 20.951,11.622 21.084,11.534
21.202,11.534
 C 21.257,11.534 27.784,12.736
28.028,13.036
 Z"  fill="#292f33"/>
	
	<g transform="translate(18 18) scale(1.0588)"> <!-- = 36/34 -->
		<use href="#cheek" transform="translate(-3 6)" color="#3e721d"/>
		<use href="#cheek" transform="matrix(-1 0 0 1 3 6)" color="#3e721d"/>
	</g>
</svg>


