<svg viewBox="0 0 36 36" xmlns="http://www.w3.org/2000/svg">
	<use href="F.svg#bg.normal" color="#77B255"/>
	<path d="M 15.364,26.122 l -1.515,-2.295 c 1.154,-0.762 2.606,-1.182 4.089,-1.182 c 1.49,0 2.895,0.402 4.062,1.162 l -1.502,2.305 c -1.425,-0.928 -3.721,-0.924 -5.134,0.01 Z" fill="#292F33" />
	<g transform="scale(1.0588)">
		<!-- <circle cx="17" cy="17" r="17" fill="#77B255"/> -->
		<!--<path d="M 13.9362,10.8932 c 0.1124,0 0.238,0.0841 0.2607,0.1927 c 0.42406,2.0088 -0.7461,3.9629 -2.6086,4.3567 c -0.2201,0.0463 -0.4448,0.0699 -0.6677,0.0699 c -1.6499,0 -3.1138,-1.2618 -3.4812,-3 c -0.0151,-0.0689 0.0038,-0.1454 0.0491,-0.2012 c 0.2304,-0.2833 6.3948,-1.4186 6.4477,-1.4186 Z" fill="#292F33"/>
		<path d="M 26.4709,12.3118 c 0.0453,0.0548 0.0642,0.1313 0.051,0.2021 c -0.3683,1.7387 -1.8322,3 -3.4812,3 c -0.2229,0 -0.4486,-0.0236 -0.6677,-0.0699 c -0.9057,-0.1917 -1.6764,-0.7527 -2.1684,-1.5801 c -0.4892,-0.8217 -0.646,-1.8077 -0.4401,-2.7776 c 0.0227,-0.1096 0.1483,-0.1936 0.2597,-0.1936 c 0.0519,0 6.2163,1.1352 6.4468,1.4186 Z" fill="#292F33"/>
		
		<path d="M 14.5104,24.6708 l -1.4308,-2.1675 c 1.0899,-0.7197 2.4612,-1.1163 3.8618,-1.1163 c 1.4072,0 2.7342,0.3797 3.8363,1.0974 l -1.4186,2.1769 c -1.3458,-0.8764 -3.5143,-0.8727 -4.8488,0.0094 Z" fill="#292F33"/>-->
		<path d="M 0,0 s 3,1 3,4 s -3,4 -3,4" stroke-width="2" stroke-linecap="round" fill="none" stroke="currentColor" transform="translate(11,19)" color="#3E721D"/>
		<path d="M 0,0 s 3,1 3,4 s -3,4 -3,4" stroke-width="2" stroke-linecap="round" fill="none" stroke="currentColor" transform="translate(23,19) scale(-1 1)" color="#3E721D"/>
	</g>
	
	<path d="M 28.028,13.036 c 0.048,0.058 0.068,0.139 0.054,0.214 c -0.39,1.841 -1.94,3.177 -3.686,3.177 c -0.236,0 -0.475,-0.025 -0.707,-0.074 c -0.959,-0.203 -1.775,-0.797 -2.296,-1.673 c -0.518,-0.87 -0.684,-1.914 -0.466,-2.941 c 0.024,-0.116 0.157,-0.205 0.275,-0.205 c 0.055,0 6.582,1.202 6.826,1.502 Z" fill="#292F33" />
	<path d="M 14.756,11.534 c 0.119,0 0.252,0.089 0.276,0.204 c 0.449,2.127 -0.79,4.196 -2.762,4.613 c -0.233,0.049 -0.471,0.074 -0.707,0.074 c -1.747,0 -3.297,-1.336 -3.686,-3.176 c -0.016,-0.073 0.004,-0.154 0.052,-0.213 c 0.244,-0.3 6.771,-1.502 6.827,-1.502 Z" fill="#292F33" />
</svg>
