<svg viewBox="0 0 36 36" xmlns="http://www.w3.org/2000/svg">
	<use href="F.svg#bg.normal" color="#FFCC4D"/>
	<ellipse cx="24.528" cy="14.024" rx="2.096" ry="3.104" fill="#664500" />
	<ellipse cx="11.553" cy="14.024" rx="2.096" ry="3.104" fill="#664500" />
	<!-- mouth -->
	<use href="F.svg#mouth.smiling2" x="18" y="29.5" color="#664500"/>
	<!-- teeth -->
	<path d="M 18,26.591 l 0.437,-0.017 v4.517 h-0.875 v-4.516 l 0.438,0.016 Z" fill="#664500" />
	<path d="M 14,26.909 c -0.016,-0.004 1.45,0.378 2.446,0.486 c 0.366,0.042 0.737,0.076 1.117,0.089 v3.608 h-1.563 c -1.1,0 -2,-0.9 -2,-2 v-2.183 Z M 22,26.909 v2.183 c 0,1.1 -0.9,2 -2,2 h-1.563 v-3.608 c 0.38,-0.013 0.751,-0.047 1.117,-0.089 c 0.996,-0.108 2.462,-0.49 2.446,-0.486 Z" fill="#FFF" />
	<!-- <path d="M18 27.5 c 2,0 4,-.6 4,-.6 v2.192 c 0,1.1 -.9,2 -2,2 h-4 c-1.1,0 -2,-.9 -2,-2 v-2.192s2 .6 4 .6z" fill="#FFF"/> -->
	
	
	<!-- glasses -->
	<path d="M 34.808,9.627 c 0.248,0.239 0.247,1.196 -0.001,1.436 c -0.246,0.238 -1.477,0.515 -1.722,1.232 c -0.246,0.718 -0.248,4.959 -2.213,6.424 c -1.838,1.371 -6.128,1.784 -8.847,0.238 c -2.373,-1.349 -2.289,-4.19 -2.724,-5.881 c -0.155,-0.603 -0.592,-0.907 -1.26,-0.907 s -1.105,0.304 -1.26,0.907 c -0.435,1.692 -0.352,4.532 -2.724,5.881 c -2.719,1.547 -7.009,1.134 -8.848,-0.238 c -1.964,-1.466 -1.966,-5.706 -2.213,-6.424 c -0.245,-0.717 -1.476,-0.993 -1.722,-1.232 c -0.248,-0.24 -0.248,-1.197 -0.001,-1.436 c 0.171,-0.166 1.267,0.274 2.376,-0.291 c 2.288,-1.166 8.07,-2.291 11.833,0.376 c 0.403,0.286 2.087,0.334 2.558,0.313 c 0.471,0.02 2.155,-0.028 2.558,-0.313 c 3.764,-2.667 9.546,-1.542 11.834,-0.376 c 1.109,0.565 2.205,0.125 2.376,0.291 Z M 14.614,13.277 c 0.043,-0.608 0.176,-1.842 -0.829,-2.459 c -1.134,-0.698 -3.462,-0.741 -4.155,-0.741 c -1.513,0 -2.992,0.282 -4.052,0.643 c -0.668,0.228 -0.464,1.711 -0.388,2.318 c 0.119,0.953 0.435,3.501 1.265,4.12 c 0.664,0.495 2.362,0.842 3.587,0.842 h0.001 c 1.106,0 2.163,-0.281 2.974,-0.743 c 1.323,-0.753 1.52,-2.875 1.597,-3.98 Z M 30.892,13.024 c 0.076,-0.607 0.279,-2.081 -0.389,-2.309 c -1.061,-0.361 -2.539,-0.638 -4.052,-0.638 c -0.693,0 -3.02,0.048 -4.155,0.746 c -1.005,0.617 -0.871,1.86 -0.829,2.468 c 0.077,1.105 0.274,3.214 1.597,3.966 c 0.812,0.462 1.868,0.743 2.975,0.743 h0.001 c 1.225,0 2.923,-0.347 3.587,-0.842 c 0.83,-0.619 1.146,-3.18 1.265,-4.134 Z" fill="#292F33"/>
</svg>
