<svg xmlns="http://www.w3.org/2000/svg" viewBox="0 0 36 36">
	<circle fill="#FFCC4D" cx="18" cy="18" r="18"/>
	<path d="M 27.335,23.629 c 0.178,0.16 0.217,0.423 0.094,0.628 c -0.128,0.215 -3.217,5.243 -9.429,5.243 s -9.3,-5.028 -9.429,-5.243 c -0.123,-0.204 -0.083,-0.468 0.094,-0.628 c 0.178,-0.159 0.444,-0.171 0.635,-0.029 c 0.038,0.029 3.934,2.9 8.7,2.9 c 4.778,0 8.661,-2.871 8.7,-2.9 c 0.191,-0.142 0.457,-0.132 0.635,0.029 Z" fill="#664500" />
	<path d="M 18,26.591 c 0.148,0 0.292,-0.012 0.437,-0.017 v4.517 h-0.875 v-4.516 c 0.147,0.005 0.29,0.016 0.438,0.016 Z" fill="#65471B" />
	<path d="M 22,26 v3.092 c 0,1.1 -0.9,2 -2,2 h-1.563 v-4.517 c 0.38,-0.013 0.751,-0.047 1.117,-0.089 c 0.996,-0.108 2.462,-0.49 2.446,-0.486 Z" fill="#FFF" />
	<path d="M 14,26 c -0.016,-0.004 1.45,0.378 2.446,0.486 c 0.366,0.042 0.737,0.076 1.117,0.089 v4.517 h-1.563 c -1.1,0 -2,-0.9 -2,-2 v-3.092 Z" fill="#FFF" />
	<path d="M 27.335,23.629 c 0.178,0.16 0.217,0.423 0.095,0.628 c -0.097,0.162 -1.885,3.067 -5.429,4.481 v-1.829 c 0.016,-0.004 -1.45,0.378 -2.446,0.486 c -0.366,0.043 -0.737,0.076 -1.117,0.089 c -0.147,0.005 -0.29,0.016 -0.438,0.016 s -0.291,-0.011 -0.437,-0.016 c -0.38,-0.013 -0.751,-0.047 -1.117,-0.089 c -0.996,-0.108 -2.462,-0.49 -2.446,-0.486 v1.829 c -3.544,-1.414 -5.332,-4.319 -5.429,-4.481 c -0.123,-0.205 -0.084,-0.468 0.094,-0.628 c 0.178,-0.161 0.445,-0.171 0.635,-0.029 c 0.03,0.022 2.259,1.668 5.411,2.47 c 0.443,0.113 1.868,0.431 3.292,0.431 c 1.422,-0.001 2.843,-0.318 3.286,-0.431 c 3.152,-0.802 5.381,-2.448 5.411,-2.47 c 0.191,-0.142 0.457,-0.132 0.635,0.029 Z" fill="#65471B" />
	<ellipse cx="24.528" cy="14.024" rx="2.096" ry="3.104" fill="#65471B" />
	<ellipse cx="11.553" cy="14.024" rx="2.096" ry="3.104" fill="#65471B" />
	<path d="M 34.808,9.627 c 0.248,0.239 0.247,1.196 -0.001,1.436 c -0.246,0.238 -1.477,0.515 -1.722,1.232 c -0.246,0.718 -0.248,4.959 -2.213,6.424 c -1.838,1.371 -6.128,1.784 -8.847,0.238 c -2.373,-1.349 -2.289,-4.19 -2.724,-5.881 c -0.155,-0.603 -0.592,-0.907 -1.26,-0.907 s -1.105,0.304 -1.26,0.907 c -0.435,1.692 -0.352,4.532 -2.724,5.881 c -2.719,1.547 -7.009,1.134 -8.848,-0.238 c -1.964,-1.466 -1.966,-5.706 -2.213,-6.424 c -0.245,-0.717 -1.476,-0.993 -1.722,-1.232 c -0.248,-0.24 -0.248,-1.197 -0.001,-1.436 c 0.171,-0.166 1.267,0.274 2.376,-0.291 c 2.288,-1.166 8.07,-2.291 11.833,0.376 c 0.403,0.286 2.087,0.334 2.558,0.313 c 0.471,0.02 2.155,-0.028 2.558,-0.313 c 3.764,-2.667 9.546,-1.542 11.834,-0.376 c 1.109,0.565 2.205,0.125 2.376,0.291 Z" fill="#292F33" />
	<path d="M 14.614,13.277 c -0.077,1.105 -0.274,3.227 -1.597,3.98 c -0.811,0.462 -1.868,0.743 -2.974,0.743 h-0.001 c -1.225,0 -2.923,-0.347 -3.587,-0.842 c -0.83,-0.619 -1.146,-3.167 -1.265,-4.12 c -0.076,-0.607 -0.28,-2.09 0.388,-2.318 c 1.06,-0.361 2.539,-0.643 4.052,-0.643 c 0.693,0 3.021,0.043 4.155,0.741 c 1.005,0.617 0.872,1.851 0.829,2.459 Z" fill="#292F33" />
	<path d="M 30.892,13.024 c -0.119,0.954 -0.435,3.515 -1.265,4.134 c -0.664,0.495 -2.362,0.842 -3.587,0.842 h-0.001 c -1.107,0 -2.163,-0.281 -2.975,-0.743 c -1.323,-0.752 -1.52,-2.861 -1.597,-3.966 c -0.042,-0.608 -0.176,-1.851 0.829,-2.468 c 1.135,-0.698 3.462,-0.746 4.155,-0.746 c 1.513,0 2.991,0.277 4.052,0.638 c 0.668,0.228 0.465,1.702 0.389,2.309 Z" fill="#292F33" />
	</svg>
