<svg viewBox="0 0 36 36" xmlns="http://www.w3.org/2000/svg">
	<!-- this one actually has an alternate design hidden behind the main layers, in early versions.. -->
	
	<use href="F.svg#bg.normal" color="#FFCC4D"/>
	<ellipse cx="24.528" cy="14.024" rx="2.096" ry="3.104" fill="#664500" />
	<ellipse cx="11.553" cy="14.024" rx="2.096" ry="3.104" fill="#664500" />
	<!-- mouth -->
	<use href="F.svg#mouth.smiling2" x="18" y="29.5" color="#664500"/>
	<!-- teeth -->
	<path d="M 18,26.591 l 0.437,-0.017 v4.517 h-0.875 v-4.516 l 0.438,0.016 Z" fill="#664500" />
	<path d="M 14,26.909 c -0.016,-0.004 1.45,0.378 2.446,0.486 c 0.366,0.042 0.737,0.076 1.117,0.089 v3.608 h-1.563 c -1.1,0 -2,-0.9 -2,-2 v-2.183 Z M 22,26.909 v2.183 c 0,1.1 -0.9,2 -2,2 h-1.563 v-3.608 c 0.38,-0.013 0.751,-0.047 1.117,-0.089 c 0.996,-0.108 2.462,-0.49 2.446,-0.486 Z" fill="#FFF" />
	<!-- <path d="M18 27.5 c 2,0 4,-.6 4,-.6 v2.192 c 0,1.1 -.9,2 -2,2 h-4 c-1.1,0 -2,-.9 -2,-2 v-2.192s2 .6 4 .6z" fill="#FFF"/> -->
	
	<use href="F.svg#glasses" x="18.041" y="12.169" color="#292F33"/>
</svg>
