<svg xmlns="http://www.w3.org/2000/svg" viewBox="0 0 36 36">
	<path d="M 32,23 s 4,2 4,5 s -3,2 -6,2 c 7,9 -12,1 -12,1 s -19,8 -12,-1 c -3,0 -6,1 -6,-2 s 4,-5 4,-5 s -7,0 -1,-8 c 0,0 -6,-2 2,-7 c 0,0 -6,-6.072 7,-3 c 0,0 0,-5 2,-5 s 4,4 4,4 s 2,-4 4,-4 s 2,5 2,5 c 13,-3.017 7,3 7,3 c 8,5 2,7 2,7 c 6,8 -1,8 -1,8 Z"  fill="#292F33"/>
	
	<g id="mouth"> <!-- teeth -->
		<path d="M 25.721,28.741 c 0.143,0.531 -0.173,1.083 -0.705,1.225 c -0.531,0.142 -1.078,-0.176 -1.22,-0.707 l -0.616,-2.331 c -0.872,0.336 -3.019,0.656 -5.18,0.66 c -2.208,0.004 -4.43,-0.316 -5.322,-0.66 l -0.748,2.331 c -0.143,0.531 -0.694,0.849 -1.225,0.707 c -0.531,-0.143 -0.849,-0.694 -0.707,-1.225 l 0.815,-3.04 l 14.103,0.04 l 0.805,3 Z" fill="#FFF"/>
		<path d="M 22.929,29.906 l -0.305,1.439 l -9.501,0.075 l -0.318,-1.514 c -0.086,-0.403 0.19,-0.803 0.593,-0.889 s 0.834,0.174 0.92,0.578 l 0.198,0.643 c 0.359,-0.195 1.931,-0.652 3.484,-0.649 c 1.504,0.003 2.992,0.459 3.343,0.649 l 0.119,-0.643 c 0.085,-0.404 0.486,-0.664 0.889,-0.578 c 0.404,0.085 0.664,0.486 0.578,0.889 Z" fill="#FFF"/>
	</g>
	
	<path d="M 28.963,16 c 1,0 2.271,2.291 2,5 c -0.289,2.889 -2,4 -2,4 c 0,4 -3,7 -3,7 c 0,2 0.037,3 -4,3 h-7.963 c -4,0 -4,-1 -4,-3 c 0,0 -3,-3 -3,-7 c 0,0 -1.711,-1.111 -2,-4 c -0.271,-2.709 1,-5 2,-5 c 0,0 0.279,-6.519 4,-9 c 3,-2 4.911,-2 7,-2 c 2,0 3.982,0 6.981,2 c 3.722,2.481 3.982,9 3.982,9 Z M 25.178,25.622 c -0.845,0.445 -4.378,1.467 -7.178,1.467 c -3,0 -6.508,-1.022 -7.353,-1.467 c -0.844,-0.444 -1.776,0.344 -1.51,1.867 c 0.363,2.074 1.253,4.684 3.387,4.195 c 0.7,-0.16 2.476,-1.684 5.476,-1.684 c 3.022,0 4.645,1.524 5.345,1.684 c 2.133,0.489 2.893,-2.122 3.255,-4.195 c 0.267,-1.523 -0.578,-2.311 -1.422,-1.867 Z" fill="#DD2E44"/>
	
	<g id="eye1">
		<path d="M 12.8635,17.9585 L 10.4835,17.4525" stroke-linecap="round" fill="none" stroke-width="6.08201" stroke="#55ACEE"/>
		<path d="M 13.2175,17.9155 L 11.2615,17.5" stroke-linecap="round" fill="none" stroke-width="5" stroke="#FFCC4D"/>
		<circle fill="#292F33" cx="12.739" cy="17.708" r="1.5"/>
	</g>
	
	<g id="eye2">
		<path d="M 23.1365,17.7195 L 25.5165,17.2135" stroke-linecap="round" fill="none" stroke-width="6.08201" stroke="#55ACEE"/>
		<path d="M 22.783,17.9155 L 24.739,17.5" stroke-linecap="round" fill="none" stroke-width="5" stroke="#FFCC4D"/>
		<circle fill="#292F33" cx="23.261" cy="17.708" r="1.5"/>
	</g>
	
	<path d="M-5 -3c0 2 2.5 1 2.5 1s0 2 2.5 2s2.5 -2 2.5 -2s2.5 1 2.5 -1" stroke-linecap="round" stroke-linejoin="round" stroke-width="1" stroke="#A0041E" fill="none" transform="translate(18 26)"/>
	
	<path d="M 23.663,34.095 c -0.63,0 -1.292,-0.273 -1.975,-0.816 c -0.96,-0.765 -1.864,-1.484 -3.688,-1.484 s -2.729,0.72 -3.687,1.483 c -1.186,0.945 -2.439,0.944 -3.624,0.002 c -0.216,-0.172 -0.252,-0.487 -0.08,-0.703 c 0.171,-0.216 0.486,-0.252 0.703,-0.08 c 0.821,0.654 1.556,0.654 2.377,0 c 1.003,-0.798 2.138,-1.701 4.311,-1.701 c 2.174,0 3.309,0.903 4.31,1.7 c 0.578,0.46 1.096,0.654 1.531,0.587 c 0.477,-0.075 0.729,-0.449 0.738,-0.465 c 0.151,-0.229 0.46,-0.296 0.69,-0.147 c 0.229,0.148 0.3,0.452 0.154,0.684 c -0.049,0.077 -0.5,0.759 -1.403,0.912 c -0.118,0.018 -0.237,0.028 -0.357,0.028 Z"  fill="#BE1931"/> <!-- not sure.. -->
	
	<use id="eyebrow1" href="F.svg#eyebrow.9" transform="matrix(-1 0 0 -1 28 13)" color="#292F33"/>
	<use id="eyebrow2" href="F.svg#eyebrow.9" transform="matrix(1 0 0 -1 8 13)" color="#292F33"/>
	
	<path d="M-1,0 s -3,-1 -6,-8 c 0,0 0,6 5,9 v-1 l 1,1 l -1,-1 h1 z" transform="translate(14 9)" stroke-width="2" stroke-linecap="round" stroke-linejoin="round" stroke="#F4900C"/>
	<path d="M-1,0 s -3,-1 -6,-8 c 0,0 0,6 5,9 v-1 l 1,1 l -1,-1 h1 z" transform="matrix(-1 0 0 1 22 9)" stroke-width="2" stroke-linecap="round" stroke-linejoin="round" stroke="#F4900C"/>
</svg>
