<svg viewBox="0 0 36 36" xmlns="http://www.w3.org/2000/svg">
	<circle id="head" fill="#FFCC4D" cx="17" cy="19" r="17"/>
	<!--<path d="M 13.346,31.273 c -0.068,0 -0.137,-0.009 -0.205,-0.028 c -0.398,-0.113 -0.63,-0.527 -0.517,-0.926 c 0.437,-1.54 0.258,-3.029 -0.49,-4.086 c -0.497,-0.702 -1.205,-1.131 -1.943,-1.178 c -0.414,-0.025 -0.728,-0.382 -0.702,-0.795 s 0.381,-0.751 0.795,-0.701 c 1.193,0.074 2.313,0.733 3.073,1.807 c 1.011,1.429 1.27,3.383 0.709,5.361 c -0.093,0.331 -0.394,0.546 -0.72,0.546 Z" fill="#E2A62D" />-->
	<!--<path d="M 24.383,28.212 c -0.142,0 -0.285,-0.04 -0.412,-0.124 c -1.167,-0.77 -1.82,-2.117 -1.792,-3.695 c 0.029,-1.635 0.809,-3.153 1.984,-3.869 c 0.353,-0.216 0.814,-0.104 1.03,0.251 c 0.216,0.354 0.104,0.814 -0.251,1.03 c -0.735,0.448 -1.244,1.499 -1.264,2.614 c -0.02,1.055 0.389,1.936 1.118,2.417 c 0.346,0.228 0.441,0.693 0.213,1.039 c -0.144,0.219 -0.382,0.337 -0.626,0.337 Z" fill="#E2A62D" />-->
	<path d="M 10.2375,24.307 c 0.9655,0.0605 1.8795,0.6045 2.508,1.4925 c 0.8795,1.243 1.0985,2.9645 0.5995,4.7235" stroke-width="1.499" stroke-linecap="round" stroke="currentColor" fill="none" color="#E2A62D"/> <!-- COMPUTED -->
	<path d="M 24.5525,21.1645 c -0.955,0.582 -1.5995,1.8665 -1.624,3.2415 c -0.024,1.3165 0.507,2.4305 1.455,3.056" stroke-width="1.499" stroke-linecap="round" stroke="currentColor" fill="none" color="#E2A62D"/> <!-- COMPUTED -->
	<!-- mouth -->
	<ellipse id="mouth" cx="18" cy="26" rx="2" ry="2.5" fill="#664500"/>
	<!-- eyes (rotated as a pair, since they're aligned)-->
	<use id="eye1" href="F.svg#eyebrow.10" transform="translate(8.1125 20.383) rotate(-12.8) scale(1 1)" color="#664500"/>
	<use id="eye2" href="F.svg#eyebrow.10" transform="translate(27.133 16.068) rotate(-12.8) scale(-1 1)" color="#664500"/>
	<!-- hat -->
	<g>
		<path d="M 17.179,2.72 c 0.604,0.684 -2.571,4.478 -7.093,8.476 c -4.521,3.997 -8.675,6.685 -9.279,6.001 c -0.044,-0.049 -0.062,-0.118 -0.067,-0.199 c 0,0 -1.051,-16.175 -0.363,-16.784 c 0.689,-0.608 16.613,2.415 16.613,2.415 c 0.079,0.015 0.146,0.042 0.189,0.091 Z" fill="#DD2E44" />
		<path d="M 0.349,0.271 c 0.809,-0.125 5.767,10.383 7.223,13.048 c -1.714,1.359 -3.173,2.45 -4.609,3.253 c -0.957,-3.526 -2.493,-14.807 -2.652,-16.178 c 0.01,-0.052 0.023,-0.093 0.038,-0.123 Z" fill="#EA596E" />
	</g>
	
	<g>
		<path d="M 29.902,29.229 l -10.573,-1.303 c -1.13,-0.102 -3.117,-0.112 -3.015,-1.902 c 0.093,-1.623 2.04,-1.373 3.479,-1.16 l 10.638,1.774 l -0.529,2.591 Z" fill="#3B88C3" />
		<path d="M 34.918,26.341 l -2.622,2.411 l -4.687,-5.097 l 2.622,-2.411 c 1.361,-1.252 3.499,-1.162 4.751,0.199 l 0.135,0.147 c 1.251,1.362 1.162,3.499 -0.199,4.751 Z" fill="#3B88C3" />
		<path d="M 30.43,26.639 l -0.308,2.62 l -4.144,-0.512 c -0.499,-0.102 -0.751,-0.54 -0.726,-1.406 c 0.022,-0.779 0.462,-1.515 0.956,-1.426 l 4.222,0.724 Z" fill="#88C9F9" />
		<ellipse rx="2.77" ry="3.462" transform="translate(29.951 26.205) rotate(-42.597)" fill="#88C9F9"/>
		<ellipse rx="1.385" ry="2.077" transform="translate(29.951 26.205) rotate(-42.597)" fill="#269"/>
	</g>
	<!-- confetti -->
	<path d="M 4.864,29.246 l -4.452,0.429 l 2.114,-6.045 l 2.338,5.616 Z" fill="#EA596E" />
	<circle cx="2.5" cy="33.5" r="1.5" fill="#55ACEE"/>
	<path d="M 26,5 l -4,1 l 1,-4 l 3,3 Z" fill="#EA596E" />
	<circle cx="29" cy="2" r="2" fill="#55ACEE"/>
	<path d="M 32,13 l 1,-7 l 3,2 l -4,5 Z" fill="#77B255" />
</svg>
