<svg xmlns="http://www.w3.org/2000/svg" viewBox="0 0 36 36">
	<circle fill="#FFCC4D" cx="17" cy="19" r="17"/>
	<ellipse fill="#664500" cx="17.999" cy="26" rx="2" ry="2.5"/>
	<path d="M 8.111,21.383 c -0.182,0 -0.367,-0.05 -0.532,-0.154 c -0.467,-0.294 -0.607,-0.911 -0.313,-1.379 c 0.916,-1.453 3.701,-3.938 7.69,-2.962 c 0.536,0.131 0.864,0.673 0.733,1.209 c -0.132,0.536 -0.676,0.862 -1.209,0.733 c -3.604,-0.882 -5.502,2.056 -5.521,2.086 c -0.191,0.302 -0.516,0.467 -0.848,0.467 Z" fill="#664500" />
	<path d="M 20.084,17.641 c 0.223,0 0.447,-0.074 0.633,-0.227 c 2.832,-2.322 5.746,-0.583 5.884,-0.499 c 0.468,0.292 1.083,0.15 1.376,-0.315 c 0.295,-0.467 0.155,-1.085 -0.312,-1.379 c -1.453,-0.916 -5.039,-1.958 -8.215,0.646 c -0.428,0.35 -0.49,0.981 -0.14,1.408 c 0.198,0.241 0.484,0.366 0.774,0.366 Z" fill="#664500" />
	<path d="M 13.346,31.273 c -0.068,0 -0.137,-0.009 -0.205,-0.028 c -0.398,-0.113 -0.63,-0.527 -0.517,-0.926 c 0.437,-1.54 0.258,-3.029 -0.49,-4.086 c -0.497,-0.702 -1.205,-1.131 -1.943,-1.178 c -0.414,-0.025 -0.728,-0.382 -0.702,-0.795 s 0.381,-0.751 0.795,-0.701 c 1.193,0.074 2.313,0.733 3.073,1.807 c 1.011,1.429 1.27,3.383 0.709,5.361 c -0.093,0.331 -0.394,0.546 -0.72,0.546 Z" fill="#E2A62D" />
	<path d="M 24.383,28.212 c -0.142,0 -0.285,-0.04 -0.412,-0.124 c -1.167,-0.77 -1.82,-2.117 -1.792,-3.695 c 0.029,-1.635 0.809,-3.153 1.984,-3.869 c 0.353,-0.216 0.814,-0.104 1.03,0.251 c 0.216,0.354 0.104,0.814 -0.251,1.03 c -0.735,0.448 -1.244,1.499 -1.264,2.614 c -0.02,1.055 0.389,1.936 1.118,2.417 c 0.346,0.228 0.441,0.693 0.213,1.039 c -0.144,0.219 -0.382,0.337 -0.626,0.337 Z" fill="#E2A62D" />
	<path d="M 17.179,2.72 c 0.604,0.684 -2.571,4.478 -7.093,8.476 c -4.521,3.997 -8.675,6.685 -9.279,6.001 c -0.044,-0.049 -0.062,-0.118 -0.067,-0.199 c 0,0 -1.051,-16.175 -0.363,-16.784 c 0.689,-0.608 16.613,2.415 16.613,2.415 c 0.079,0.015 0.146,0.042 0.189,0.091 Z" fill="#DD2E44" />
	<path d="M 0.349,0.271 c 0.809,-0.125 5.767,10.383 7.223,13.048 c -1.714,1.359 -3.173,2.45 -4.609,3.253 c -0.957,-3.526 -2.493,-14.807 -2.652,-16.178 c 0.01,-0.052 0.023,-0.093 0.038,-0.123 Z" fill="#EA596E" />
	<path d="M 29.902,29.229 l -10.573,-1.303 c -1.13,-0.102 -3.117,-0.112 -3.015,-1.902 c 0.093,-1.623 2.04,-1.373 3.479,-1.16 l 10.638,1.774 l -0.529,2.591 Z" fill="#3B88C3" />
	<path d="M 30.43,26.639 l -0.308,2.62 l -4.144,-0.512 c -0.499,-0.102 -0.751,-0.54 -0.726,-1.406 c 0.022,-0.779 0.462,-1.515 0.956,-1.426 l 4.222,0.724 Z" fill="#88C9F9" />
	<path d="M 34.918,26.341 l -2.622,2.411 l -4.687,-5.097 l 2.622,-2.411 c 1.361,-1.252 3.499,-1.162 4.751,0.199 l 0.135,0.147 c 1.251,1.362 1.162,3.499 -0.199,4.751 Z" fill="#3B88C3" />
	<ellipse transform="rotate(-42.597 29.954 26.205)" fill="#88C9F9" cx="29.952" cy="26.203" rx="2.77" ry="3.462"/>
	<ellipse transform="rotate(-42.597 29.954 26.205)" fill="#269" cx="29.952" cy="26.203" rx="1.385" ry="2.077"/>
	<circle fill="#55ACEE" cx="2.5" cy="33.5" r="1.5"/>
	<circle fill="#55ACEE" cx="29" cy="2" r="2"/>
	<path d="M 4.864,29.246 l -4.452,0.429 l 2.114,-6.045 l 2.338,5.616 Z" fill="#EA596E" />
	<path d="M 26,5 l -4,1 l 1,-4 l 3,3 Z" fill="#EA596E" />
	<path d="M 31.999,13 l 1.001,-7 l 3,1.999 l -4.001,5.001 Z" fill="#77B255" />
	</svg>
