<svg viewBox="0 0 36 36" xmlns="http://www.w3.org/2000/svg">
	<use href="F.svg#bg.normal" color="#FFCC4D"/>
	<path d="M 17.312,17.612 c 0.177,0.142 0.237,0.384 0.145,0.591 c -0.06,0.135 -1.499,3.297 -4.457,3.297 c -2.957,0 -4.397,-3.162 -4.457,-3.297 c -0.092,-0.208 -0.032,-0.452 0.146,-0.594 c 0.176,-0.142 0.428,-0.146 0.611,-0.009 c 0.01,0.007 1.259,0.9 3.7,0.9 c 2.442,0 3.69,-0.893 3.702,-0.902 c 0.183,-0.133 0.434,-0.129 0.61,0.014 Z" fill="#664500" />
	<path d="M 27.312,17.612 c 0.177,0.142 0.237,0.384 0.145,0.591 c -0.06,0.135 -1.499,3.297 -4.457,3.297 c -2.957,0 -4.397,-3.162 -4.457,-3.297 c -0.092,-0.208 -0.032,-0.452 0.146,-0.594 c 0.177,-0.142 0.428,-0.146 0.611,-0.009 c 0.01,0.007 1.26,0.9 3.7,0.9 c 2.441,0 3.69,-0.893 3.702,-0.902 c 0.184,-0.134 0.434,-0.129 0.61,0.014 Z" fill="#664500" />
	<rect x="13" y="26" width="10" height="2" rx="1" fill="#664500" />
	<path d="M 6,14 c -0.552,0 -1,-0.448 -1,-1 c 0,-0.551 0.445,-0.998 0.996,-1 c 0.156,-0.002 3.569,-0.086 6.205,-3.6 c 0.331,-0.44 0.957,-0.532 1.4,-0.2 c 0.442,0.331 0.531,0.958 0.2,1.4 c -3.263,4.35 -7.617,4.4 -7.801,4.4 Z" fill="#664500" />
	<path d="M 30,14 c -0.184,0 -4.537,-0.05 -7.8,-4.4 c -0.332,-0.442 -0.242,-1.069 0.2,-1.4 c 0.441,-0.333 1.067,-0.242 1.399,0.2 c 2.641,3.521 6.061,3.599 6.206,3.6 c 0.55,0.006 0.994,0.456 0.991,1.005 c -0.002,0.551 -0.446,0.995 -0.996,0.995 Z" fill="#664500" />
	</svg>
