<svg xmlns="http://www.w3.org/2000/svg" viewBox="0 0 36 36">
	<circle cx="18" cy="18" r="18" fill="#FFCC4D" />
	<path d="M 29,10 c -5.554,0 -7.802,-4.367 -7.895,-4.553 c -0.247,-0.494 -0.047,-1.095 0.447,-1.342 c 0.493,-0.246 1.092,-0.048 1.34,0.443 c 0.075,0.146 1.821,3.452 6.108,3.452 c 0.553,0 1,0.448 1,1 s -0.447,1 -1,1 Z" fill="#664500" />
	<path d="M 7,10 c -0.552,0 -1,-0.448 -1,-1 s 0.448,-1 1,-1 c 5.083,0 5.996,-3.12 6.033,-3.253 c 0.145,-0.528 0.692,-0.848 1.219,-0.709 c 0.53,0.139 0.851,0.673 0.718,1.205 c -0.049,0.194 -1.266,4.757 -7.97,4.757 Z" fill="#664500" />
	<path d="M 6.001,23 c 0.208,0 0.419,-0.065 0.599,-0.2 c 0.037,-0.028 3.787,-2.8 8.4,-2.8 c 0.404,0 0.769,-0.243 0.924,-0.617 s 0.069,-0.804 -0.217,-1.09 c -3.255,-3.255 -8.486,-3.293 -8.707,-3.293 c -0.552,0 -0.999,0.447 -0.999,0.998 c -0.001,0.552 0.446,1.001 0.998,1.002 c 0.035,0 2.782,0.027 5.257,1.268 c -3.905,0.75 -6.713,2.826 -6.856,2.933 c -0.442,0.331 -0.532,0.958 -0.2,1.399 c 0.197,0.262 0.497,0.4 0.801,0.4 Z" fill="#664500" />
	<path d="M 29.999,22.999 c -0.208,0 -0.418,-0.064 -0.598,-0.198 c -0.038,-0.029 -3.811,-2.801 -8.401,-2.801 c -0.404,0 -0.77,-0.243 -0.924,-0.617 c -0.155,-0.374 -0.069,-0.804 0.217,-1.09 c 3.256,-3.255 8.486,-3.293 8.707,-3.293 c 0.552,0 0.998,0.447 0.999,0.998 c 0.001,0.552 -0.446,1 -0.997,1.002 c -0.036,0 -2.783,0.027 -5.258,1.268 c 3.905,0.75 6.713,2.825 6.855,2.933 c 0.441,0.331 0.531,0.956 0.201,1.398 c -0.196,0.261 -0.496,0.4 -0.801,0.4 Z" fill="#664500" />
	<path d="M 25.454,30.791 c 0.1,0.218 0.032,0.475 -0.162,0.615 c -0.192,0.14 -0.459,0.122 -0.634,-0.04 c -0.026,-0.024 -2.671,-2.454 -6.414,-2.454 c -3.77,0 -6.902,2.455 -6.933,2.479 c -0.091,0.073 -0.201,0.109 -0.311,0.109 c -0.114,0 -0.228,-0.039 -0.321,-0.117 c -0.182,-0.152 -0.232,-0.412 -0.119,-0.621 c 0.138,-0.255 3.435,-6.262 7.684,-6.262 c 4.272,0 7.092,6.034 7.21,6.291 Z" fill="#664500" />
	</svg>
