<svg xmlns="http://www.w3.org/2000/svg" viewBox="0 0 36 36">
	<path d="M 0,28 c 0,-3.219 1.971,-5.973 4.794,-7.242 c -0.52,-0.851 -0.82,-1.831 -0.82,-2.878 c 0,-2.463 1.645,-4.568 3.975,-5.439 l -0.001,-0.003 l 0.692,-0.258 c -0.51,-0.636 -0.828,-1.433 -0.828,-2.312 c 0,-1.559 0.962,-2.892 2.322,-3.442 v-0.002 s 1.379,-0.524 3.8,-0.936 c -0.092,-1.847 0.438,-4.023 2.878,-5.487 c 3,3.999 7,1.999 8,4.999 c 0.293,0.878 0.213,1.595 -0.036,2.167 c 2.052,0.361 3.871,1.642 4.712,3.562 c 0.558,1.275 0.642,2.558 0.324,3.75 c 1.424,0.863 2.593,2.148 3.271,3.773 c 0.701,1.68 0.822,3.368 0.458,4.946 c 1.506,1.344 2.459,3.293 2.459,5.469 c 0,4.05 -3.283,7.333 -7.333,7.333 c -5.197,0 -8.649,-0.625 -10.892,-1.665 c -2.972,0.962 -6.262,1.665 -9.531,1.665 c -4.553,0 -8.244,-3.582 -8.244,-8 Z" id="body" fill="#BF6952"/>
	
	<g id="eye1">
		<ellipse rx="3.5" ry="4.5" cx="13.5" cy="15.5" fill="#F5F8FA"/>
		<ellipse rx="2" ry="2.5" cx="14" cy="15.5" fill="#292F33"/>
	</g>
	<g id="eye2">
		<ellipse rx="3.5" ry="4.5" cx="23.5" cy="15.5" fill="#F5F8FA"/>
		<ellipse rx="2" ry="2.5" cx="23" cy="15.5" fill="#292F33"/>
	</g>
	
	<clipPath id="mouth1">
		<path d="M 10,24 h18 c 0.55,0 0.799,0.402 0.553,0.895 c 0,0 -2.553,5.105 -9.553,5.105 s -9.553,-5.105 -9.553,-5.105 c -0.246,-0.493 0.003,-0.895 0.553,-0.895 Z"/>
	</clipPath>
	
	<g clip-path="url(#mouth1)">
		<rect width="36" height="36" fill="#292F33"/>
		<ellipse rx="7" ry="4" cx="19" cy="30" fill="#F2ABBA"/>
	</g>
</svg>
