<svg xmlns="http://www.w3.org/2000/svg" viewBox="0 0 36 36">
	<circle fill="#FFCC4D" cx="18" cy="18" r="18"/>
	<path d="M 20.996,27 c 0.422,0 0.814,-0.27 0.951,-0.691 c 0.17,-0.525 -0.118,-1.089 -0.643,-1.26 c -2.162,-0.702 -4.447,-0.702 -6.609,0 c -0.526,0.171 -0.814,0.735 -0.643,1.26 s 0.736,0.811 1.26,0.642 c 1.76,-0.571 3.615,-0.571 5.375,0 c 0.103,0.033 0.206,0.049 0.309,0.049 Z" fill="#65471B" />
	<path d="M 30.335,12.068 c 1.161,1.454 1.698,2.963 1.515,4.378 c -0.184,1.423 -1.079,2.62 -2.456,3.285 c -1.303,0.629 -3.139,1.018 -4.873,0.909 c -1.013,-0.064 -1.993,-0.298 -2.813,-0.752 c -1.232,-0.681 -1.964,-1.775 -2.116,-3.163 c -0.06,-0.543 -0.1,-1.045 -0.136,-1.54 c 1.108,0.929 2.473,1.491 3.95,1.584 c 0.146,0.009 0.291,0.014 0.435,0.014 c 3.009,0 5.591,-1.97 6.494,-4.715 Z" fill="#FFF" />
	<path d="M 21.351,7.583 c 0.934,-0.397 3.686,-0.31 7.401,2.86 c 0.122,0.104 0.228,0.211 0.343,0.316 c -0.404,2.587 -2.619,4.524 -5.253,4.524 c -0.113,0 -0.227,-0.004 -0.341,-0.011 c -1.715,-0.108 -3.191,-1.013 -4.088,-2.332 l -0.039,-0.068 c 0.03,-2.988 0.68,-4.739 1.977,-5.289 Z" fill="#65471B" />
	<path d="M 23.841,16.783 c -0.144,0 -0.289,-0.004 -0.435,-0.014 c -1.477,-0.093 -2.842,-0.655 -3.95,-1.584 c -0.062,-0.84 -0.09,-1.612 -0.083,-2.313 l 0.039,0.068 c 0.897,1.319 2.373,2.224 4.088,2.332 c 0.114,0.007 0.228,0.011 0.341,0.011 c 2.634,0 4.849,-1.937 5.253,-4.524 c 0.47,0.429 0.887,0.866 1.241,1.309 c -0.903,2.745 -3.485,4.715 -6.494,4.715 Z" fill="#F4900C" />
	<circle fill="#FFF" cx="21.413" cy="10.705" r="1.107"/>
	<path d="M 12.159,16.783 c 0.144,0 0.289,-0.004 0.435,-0.015 c 1.48,-0.093 2.847,-0.657 3.95,-1.58 c -0.036,0.494 -0.076,0.994 -0.136,1.536 c -0.153,1.388 -0.885,2.482 -2.116,3.163 c -0.82,0.455 -1.8,0.688 -2.813,0.752 c -1.735,0.109 -3.57,-0.28 -4.873,-0.909 c -1.377,-0.664 -2.271,-1.862 -2.456,-3.285 c -0.182,-1.414 0.354,-2.923 1.515,-4.377 c 0.903,2.745 3.485,4.715 6.494,4.715 Z" fill="#FFF" />
	<path d="M 12.159,15.283 c -2.634,0 -4.849,-1.937 -5.253,-4.525 c 0.116,-0.105 0.221,-0.212 0.343,-0.316 c 3.714,-3.169 6.467,-3.256 7.401,-2.859 c 1.297,0.55 1.946,2.301 1.977,5.289 l -0.039,0.068 c -0.897,1.319 -2.373,2.224 -4.088,2.332 c -0.114,0.007 -0.228,0.011 -0.341,0.011 Z" fill="#65471B" />
	<path d="M 16.626,12.872 c 0.008,0.703 -0.021,1.476 -0.083,2.317 c -1.103,0.923 -2.47,1.487 -3.95,1.58 c -0.146,0.009 -0.291,0.014 -0.435,0.014 c -3.009,0 -5.591,-1.97 -6.494,-4.715 c 0.354,-0.443 0.771,-0.88 1.241,-1.309 c 0.404,2.587 2.619,4.524 5.253,4.524 c 0.113,0 0.227,-0.004 0.341,-0.011 c 1.715,-0.108 3.191,-1.013 4.088,-2.332 l 0.039,-0.068 Z" fill="#F4900C" />
	<circle cx="9.711" cy="10.705" r="1.107" fill="#FFF"/>
</svg>
