<svg viewBox="0 0 36 36" xmlns="http://www.w3.org/2000/svg">
	<rect x="2" y="11" width="32" height="12" fill="#F5F8FA"/>
	<circle cx="12" cy="10" r="6.5" fill="#F4900C"/>
	<circle cx="24" cy="10" r="6.5" fill="#F4900C"/>
	<circle cx="12" cy="10" r="5" fill="#664500"/>
	<circle cx="24" cy="10" r="5" fill="#664500"/>
	<circle cx="10" cy="10.5" r="1" fill="#F5F8FA"/>
	<circle cx="22" cy="10.5" r="1" fill="#F5F8FA"/>
	<path d="M 0,18 a 18,18 0 01 36,0 a 18,18 0 01 -36,0 Z M 11,20.5 c 4,0 5.5,-2 5.5,-6 s 0,-7 -3,-7 s -9.5,4 -9.5,8 s 3,5 7,5 Z M 25,20.5 c 4,0 7,-2 7,-5 c 0,-3 -5.5,-8 -9.5,-8 c -3,0 -3,4 -3,7 c 0,4 1.5,6 5.5,6 Z" fill="#FFCC4D" />
	<path d="M 15,26 a 9.5,9.5 0 01 6,0" stroke-width="2" stroke-linecap="round" stroke="currentColor" fill="none" color="#664500"/>
</svg>
