<svg viewBox="0 0 36 36" xmlns="http://www.w3.org/2000/svg">
	<!-- messy. everything is scaled weirdly -->
	<use href="F.svg#bg.cat"/>
	<path d="M 21.137,13.031 c -0.225,-0.06 -0.425,-0.215 -0.547,-0.45 c -0.243,-0.469 -0.079,-1.081 0.366,-1.366 c 4.834,-3.099 8.616,-2.136 8.775,-2.093 c 0.486,0.13 0.764,0.668 0.621,1.202 c -0.142,0.532 -0.65,0.859 -1.135,0.731 c -0.058,-0.015 -3.27,-0.777 -7.383,1.859 c -0.221,0.144 -0.471,0.178 -0.697,0.117 Z" fill="#292F33"/>
	<path d="M 14.863,13.032 c -0.225,0.06 -0.476,0.026 -0.698,-0.116 c -4.13,-2.647 -7.352,-1.867 -7.384,-1.859 c -0.486,0.124 -0.993,-0.205 -1.133,-0.737 s 0.136,-1.066 0.62,-1.196 c 0.159,-0.042 3.941,-1.005 8.775,2.093 c 0.445,0.285 0.609,0.896 0.366,1.366 c -0.121,0.234 -0.321,0.388 -0.546,0.449 Z" fill="#292F33"/>
	<ellipse cx="12" cy="14.5" rx="2" ry="3.5" fill="#292F33"/>
	<ellipse cx="24" cy="14.5" rx="2" ry="3.5" fill="#292F33"/>
	<path d="M 25.362,30.28 c 0.098,0.077 0.158,0.184 0.157,0.303 c 0,0.235 -0.239,0.414 -0.516,0.417 c -0.066,0.01 -0.195,-0.022 -0.281,-0.07 c -0.028,-0.016 -2.931,-1.597 -6.723,-1.597 c -3.804,0 -6.693,1.581 -6.722,1.597 c -0.084,0.047 -0.181,0.07 -0.277,0.07 c -0.125,0 -0.25,-0.039 -0.344,-0.114 c -0.169,-0.135 -0.205,-0.349 -0.084,-0.516 c 0.128,-0.179 3.194,-4.37 7.428,-4.37 c 3.947,0 6.879,3.642 7.362,4.28 Z" fill="#292F33" />
	<use href="F.svg#nose.cat"/>
</svg>
