<svg viewBox="0 0 36 36" xmlns="http://www.w3.org/2000/svg">
	<use href="F.svg#bg.normal" color="#FFCC4D"/>
	<path d="M 28.312,15.612 c 0.177,0.142 0.237,0.384 0.145,0.591 c -0.06,0.135 -1.499,3.297 -4.457,3.297 c -2.957,0 -4.397,-3.162 -4.457,-3.297 c -0.092,-0.208 -0.032,-0.452 0.146,-0.594 c 0.176,-0.142 0.428,-0.146 0.611,-0.009 c 0.01,0.007 1.26,0.9 3.7,0.9 c 2.441,0 3.69,-0.893 3.702,-0.902 c 0.184,-0.133 0.435,-0.128 0.61,0.014 Z" fill="#664500" />
	<path d="M 15.702,15.598 c 0.182,-0.133 0.434,-0.129 0.61,0.014 c 0.177,0.142 0.237,0.384 0.145,0.591 c -0.06,0.135 -1.499,3.297 -4.457,3.297 c -2.957,0 -4.397,-3.162 -4.457,-3.297 c -0.092,-0.208 -0.032,-0.452 0.146,-0.594 c 0.177,-0.142 0.428,-0.146 0.611,-0.009 c 0.01,0.007 1.259,0.9 3.7,0.9 c 2.442,0 3.69,-0.893 3.702,-0.902 Z" fill="#664500" />
	<path d="M 29.001,13 c -0.305,0 -0.604,-0.138 -0.801,-0.4 c -2.592,-3.456 -6.961,-2.628 -7.004,-2.62 c -0.547,0.108 -1.068,-0.243 -1.177,-0.784 c -0.108,-0.541 0.243,-1.068 0.784,-1.177 c 0.231,-0.047 5.657,-1.072 8.996,3.38 c 0.332,0.442 0.242,1.069 -0.2,1.4 c -0.179,0.136 -0.389,0.201 -0.598,0.201 Z" fill="#664500" />
	<path d="M 6.999,13 c -0.208,0 -0.419,-0.065 -0.599,-0.2 c -0.442,-0.331 -0.531,-0.958 -0.2,-1.4 c 3.339,-4.454 8.766,-3.426 8.996,-3.38 c 0.542,0.108 0.893,0.635 0.784,1.177 c -0.108,0.54 -0.634,0.891 -1.174,0.785 c -0.186,-0.035 -4.436,-0.808 -7.006,2.618 c -0.196,0.262 -0.497,0.4 -0.801,0.4 Z" fill="#664500" />
	<path d="M 23.254,23.577 c 0.187,0.113 0.284,0.331 0.231,0.544 c -0.011,0.044 -1.145,4.379 -5.485,4.379 s -5.474,-4.335 -5.484,-4.379 c -0.055,-0.218 0.043,-0.446 0.238,-0.557 c 0.196,-0.108 0.441,-0.078 0.6,0.082 c 0,0 1.005,0.854 4.646,0.854 c 3.644,0 4.647,-0.855 4.657,-0.863 c 0.165,-0.146 0.409,-0.171 0.597,-0.06 Z" fill="#664500" />
	</svg>
