<svg xmlns="http://www.w3.org/2000/svg" viewBox="0 0 36 36">
	<defs>
		<clipPath id="clipPath98" clipPathUnits="userSpaceOnUse">
			<rect x="7" y="23" width="22" height="5" rx="2.5"  />
		</clipPath>
	</defs>
	
	<g id="head">
		<path d="M 28,5 c 0,2.761 -4.477,4 -10,4 s -10,-1.239 -10,-4 a 10,5 0 01 20,0 Z" fill="#ffcc4d"/>
		<ellipse cx="18" cy="4.0835" rx="7" ry="2.917" fill="#f4900c" />
		
		<ellipse cx="33.5" cy="14.5" rx="2.5" ry="3.5" fill="#f4900c" />
		<ellipse cx="2.5" cy="14.5" rx="2.5" ry="3.5" fill="#f4900c" />
		
		<rect x="29" y="9" width="5" height="11" rx="1" fill="#ffac33" />
		<rect x="2" y="9" width="5" height="11" rx="1" fill="#ffac33" />
		
		<path d="M 30,5.5 c 0,1.381 -1.119,1.5 -2.5,1.5 h-19 c -1.381,0 -2.5,-0.119 -2.5,-1.5 a 2.5,2.5 0 01 2.5,-2.5 h19 a 2.5,2.5 0 01 2.5,2.5 Z" fill="#226699"/>
		<rect x="4" y="6" width="28" height="28" rx="2" fill="#55acee" />
		<path d="M 35,33 c 0,1.105 0.105,2 -1,2 h-32 c -1.104,0 -1,-0.895 -1,-2 v-1 a 2,2 0 01 2,-2 h30 a 2,2 0 01 2,2 v1 Z" fill="#3b88c3"/>
		
		<path d="M 18.707,33.3643 a 1,1 0 01 -1.414,0 l -5.657,-5.657 a 1,1 0 01 0,-1.414 l 5.657,-4.658 a 1,1 0 01 1.414,0 l 5.656,4.658 a 1,1 0 01 0,1.414 l -5.656,5.657 Z" fill="#55acee" />
	</g>
	
	<g id="eye1">
		<circle cx="11.5" cy="14.5" r="4.5" fill="#ffffff" />
		<circle fill="#DD2E44" cx="11.5" cy="14.5" r="2.721"/>
	</g>
	<g id="eye2">
		<circle cx="24.5" cy="14.5" r="4.5" fill="#ffffff" />
		<circle fill="#DD2E44" cx="24.5" cy="14.5" r="2.721"/>
	</g>
	<!-- old eyes
	<rect x="23" y="11" width="3" height="7" rx="1" fill="#dd2e44" />
	<rect x="23" y="11" width="3" height="7" rx="1" fill="#dd2e44" />
	-->
	
	<g id="mouth" clip-path="url(#clipPath98)">
		<rect width="36" height="36" fill="#f5f8fa"/>
		<path d="M 19,28 h-2 v-5 h2 v5 Z" fill="#ccd6dd"/>
		<path d="M 14,28 h-2 v-5 h2 v5 Z" fill="#ccd6dd"/>
		<path d="M 24,28 h-2 v-5 h2 v5 Z" fill="#ccd6dd"/>
		<path d="M 9,28 h-2 v-5 h2 v5 Z" fill="#ccd6dd"/>
		<path d="M 29,28 h-2 v-5 h2 v5 Z" fill="#ccd6dd"/>
	</g>
</svg>
