<svg viewBox="0 0 36 36" xmlns="http://www.w3.org/2000/svg">
	<path d="M 30.728,5.272 c 7.029,7.029 7.029,18.427 0,25.456 s -18.426,7.029 -25.456,0 c -7.029,-7.029 -7.029,-18.427 0,-25.456 s 18.426,-7.029 25.456,0 Z" fill="#FFCB4C" />
	<path d="M 19.279,19.28 c 3.495,-3.495 5.406,-6.221 7.714,-9.644 c 0.528,-0.782 1.929,-1.93 3.858,0 c 3.859,3.858 4.248,13.111 -1.929,19.288 c -6.176,6.176 -15.43,5.786 -19.287,1.929 c -1.929,-1.93 -0.782,-3.33 -0.001,-3.859 c 3.426,-2.31 6.151,-4.22 9.645,-7.714 Z" fill="#65471B" />
	<path d="M 11.564,28.923 s 3.858,-1.929 9.644,-7.716 c 5.787,-5.786 7.715,-9.643 7.715,-9.643 s 1.928,5.787 -4.822,12.537 c -6.75,6.751 -12.537,4.822 -12.537,4.822 Z" fill="#FFF" />
	<path d="M 8.265,25.234 c -0.215,0.215 -0.525,0.33 -0.849,0.283 c -0.547,-0.078 -0.927,-0.584 -0.848,-1.131 c 0.025,-0.176 0.543,-3.63 2.774,-6.922 c -2.627,0.873 -4.589,2.796 -4.614,2.821 c -0.391,0.389 -1.024,0.388 -1.414,-0.003 c -0.39,-0.39 -0.39,-1.022 0,-1.412 c 0.156,-0.156 3.882,-3.828 8.485,-3.828 c 0.405,0 0.769,0.243 0.924,0.617 s 0.069,0.804 -0.217,1.09 c -3.262,3.262 -3.953,7.874 -3.96,7.919 c -0.031,0.224 -0.134,0.419 -0.281,0.566 Z" fill="#65471B" />
	<path d="M 25.233,8.264 c -0.147,0.147 -0.341,0.25 -0.563,0.282 c -0.047,0.007 -4.676,0.715 -7.921,3.96 c -0.286,0.286 -0.716,0.372 -1.09,0.217 s -0.617,-0.519 -0.617,-0.924 c 0,-4.604 3.672,-8.329 3.828,-8.485 c 0.39,-0.39 1.022,-0.39 1.412,0 c 0.391,0.389 0.392,1.023 0.003,1.413 c -0.026,0.026 -1.949,1.987 -2.822,4.614 c 3.292,-2.231 6.745,-2.749 6.921,-2.774 c 0.546,-0.078 1.052,0.3 1.131,0.847 c 0.049,0.324 -0.066,0.635 -0.282,0.85 Z" fill="#65471B" />
	<path d="M 30.101,12.055 c -2.741,-0.335 -9.443,-5.18 -9.322,-6.172 c 0.121,-0.993 7.789,-4.089 10.53,-3.756 c 2.742,0.334 4.693,2.827 4.359,5.568 c -0.333,2.742 -2.826,4.694 -5.567,4.36 Z" fill="#64AADD" />
	<path d="M 12.157,29.999 c 0.334,2.741 -1.618,5.234 -4.36,5.567 c -2.741,0.334 -5.234,-1.617 -5.568,-4.359 s 2.763,-10.41 3.756,-10.531 c 0.992,-0.12 5.837,6.582 6.172,9.323 Z" fill="#64AADD" />
	</svg>
