<svg xmlns="http://www.w3.org/2000/svg" viewBox="0 0 36 36" xml:space="preserve">
	<circle cx="21" cy="21" r="15" fill="#FFCC4D" />
	<path d="M 22.864,1.134 a 0.505,0.505 0 01 -0.252,0.563 l -0.095,0.051 c 0.18,0.67 -0.09,1.317 -0.698,1.674 l -6.858,4.024 a 0.712,0.712 0 01 0.226,1.071 c -2.929,3.759 -1.255,5.406 -5.185,7.281 a 4.161,4.161 0 00 -1.52,1.228 c -0.666,0.869 -2.059,2.151 -4.482,2.159 c -2.302,0.007 -3.966,-1.747 -3.959,-3.888 c 0.018,-5.503 5.687,-6.486 7.348,-8.07 c 1.954,-1.864 3.046,-2.83 3.961,-3.377 c 0.51,-0.306 0.312,-0.207 3.626,-1.281 l 5.775,-2.446 a 1.608,1.608 0 01 0.799,-0.119 a 1.51,1.51 0 01 1.314,1.13 Z" fill="#F4900C" />
	<path d="M 22.823,1.239 a 0.335,0.335 0 01 0.033,0.134 a 0.5,0.5 0 01 -0.246,0.325 l -0.094,0.051 c 0.003,0.009 0.001,0.017 0.003,0.026 l -8.348,4.004 c -0.011,0.005 -0.022,0.003 -0.032,0.007 c -0.047,0.024 -0.087,0.054 -0.137,0.077 c -0.634,0.297 -0.966,0.718 -1.24,1.26 c 0.559,-0.382 1.077,-0.485 1.478,-0.403 c 0.619,0.124 1.036,0.657 1.116,1.427 a 0.35,0.35 0 01 -0.696,0.072 c -0.028,-0.268 -0.138,-0.729 -0.557,-0.813 c -0.585,-0.118 -1.575,0.51 -2.478,2.17 l -0.001,0.001 l -0.004,0.007 c -0.934,1.609 -3.13,4.065 -4.045,4.963 a 0.35,0.35 0 11 -0.491,-0.499 c 0.947,-0.931 3.071,-3.336 3.93,-4.816 c 0.323,-0.557 0.541,-1.086 0.734,-1.553 c 0.421,-1.021 0.784,-1.902 1.955,-2.452 c 1.227,-0.576 1.756,-1.634 1.56,-2.323 a 0.714,0.714 0 00 -0.242,-0.354 l 0.691,-0.293 a 1.476,1.476 0 01 0.224,0.456 c 0.128,0.449 0.059,1.002 -0.21,1.542 l 2.585,-1.24 c 0.685,-0.398 0.832,-1.064 0.623,-1.518 a 0.825,0.825 0 00 -0.444,-0.417 l 0.764,-0.323 a 1.524,1.524 0 01 0.316,0.447 a 1.741,1.741 0 01 0.088,1.165 l 2.698,-1.294 a 0.348,0.348 0 01 0.467,0.164 Z" fill="#B55005" />
	<path d="M 21,29.25 c -4.076,0 -6.156,-0.508 -6.243,-0.53 a 1.001,1.001 0 01 -0.728,-1.213 a 1.005,1.005 0 01 1.211,-0.728 c 0.039,0.01 1.982,0.471 5.759,0.471 c 3.796,0 5.74,-0.466 5.76,-0.471 a 0.999,0.999 0 01 0.483,1.94 c -0.086,0.023 -2.166,0.531 -6.242,0.531 Z" fill="#65471B" />
	<path d="M 18,14 a 1,1 0 01 0,2 h-0.519 c 0.319,0.532 0.519,1.228 0.519,2 c 0,1.657 -0.896,3 -2,3 s -2,-1.342 -2,-3 c 0,-0.772 0.2,-1.468 0.519,-2 h-0.519 a 1,1 0 01 0,-2 h4 Z" fill="#65471B" />
	<path d="M 28,14 a 1,1 0 01 0,2 h-0.519 c 0.319,0.532 0.519,1.228 0.519,2 c 0,1.658 -0.896,3 -2,3 s -2,-1.343 -2,-3 c 0,-0.772 0.2,-1.468 0.519,-2 h-0.519 a 1,1 0 01 0,-2 h4 Z" fill="#65471B" />
	</svg>
