<svg xmlns="http://www.w3.org/2000/svg" viewBox="0 0 36 36">
	<use href="F.svg#bg.monkey"/>
	
	<path d="M 9,31.997 c -0.125,-0.66 -1,-7.997 -1,-7.997 l 2,-5.004 l 0.781,14.41 s -1.656,-0.75 -1.781,-1.409 Z" fill="#9B3C07" />
	<path d="M 27,31.997 c -0.188,0.722 -1.75,1.378 -1.75,1.378 l 0.751,-14.379 l 1.999,5.004 s -0.812,7.275 -1,7.997 Z" fill="#9B3C07" />
	
	<path d="M 2,36 l 2.991,-20.001 l 3.997,4.168 l 1.012,15.833 h-8 Z" fill="#BF6952" />
	<path d="M 34,36 h-8 l 1.002,-15.833 l 3.997,-4.168 l 3.001,20.001 Z" fill="#BF6952" />
	
	<g fill="#D79E84" stroke="#BF6952" stroke-width="1" stroke-linejoin="round">
		<path d="M 5.392,15.053 c 1.004,-1.643 2.969,-4.592 4.193,-5.614 s 2.609,0.014 2.463,1.186 c -0.148,1.187 -1.754,3.651 -1.754,3.651 s 1.88,-2.373 2.792,-3.156 c 0.925,-0.794 2.629,0.066 2.247,1.507 c -0.276,1.042 -2.223,3.738 -2.223,3.738 s 1.508,-1.739 2.51,-2.308 c 1.114,-0.633 2.42,0.377 2.07,1.621 c -0.35,1.243 -1.579,2.979 -4.508,5.797 s -5.697,3.036 -7.718,1.872 c -2.022,-1.163 -3.578,-3.11 -4.018,-10.196 c -0.121,-1.954 1.447,-3.033 2.749,-1.64 c 0.997,1.066 1.197,3.542 1.197,3.542 Z"/>
		<path d="M 30.608,15.053 s 0.2,-2.476 1.197,-3.542 c 1.302,-1.393 2.87,-0.314 2.749,1.64 c -0.44,7.086 -1.996,9.033 -4.018,10.196 c -2.021,1.164 -4.789,0.946 -7.718,-1.872 s -4.158,-4.554 -4.508,-5.797 c -0.35,-1.244 0.956,-2.254 2.07,-1.621 c 1.002,0.569 2.51,2.308 2.51,2.308 s -1.947,-2.696 -2.223,-3.738 c -0.382,-1.441 1.322,-2.301 2.247,-1.507 c 0.912,0.783 2.792,3.156 2.792,3.156 s -1.606,-2.464 -1.754,-3.651 c -0.146,-1.172 1.239,-2.208 2.463,-1.186 c 1.223,1.023 3.189,3.971 4.193,5.614 Z"/>
	</g>
	
	<path d="M 5.818,15.314 c -0.08,0.131 -0.218,0.193 -0.366,0.213 c -0.208,-1.021 -0.268,-2.208 -0.265,-3.349 c 0.221,0.489 0.382,1.018 0.488,1.49 c 0.907,-1.399 2.468,-3.674 3.59,-4.611 c 0.675,-0.565 1.489,-0.679 2.197,-0.33 c -0.628,0.217 -1.06,0.576 -1.359,0.976 c -0.065,0.039 -0.127,0.063 -0.196,0.121 c -1.03,0.86 -2.841,3.448 -4.089,5.49 Z" fill="#9B3C07" />
	<path d="M 25.988,9.758 c -0.305,-0.427 -0.753,-0.816 -1.425,-1.042 c 0.703,-0.332 1.505,-0.217 2.171,0.34 c 1.12,0.936 2.682,3.211 3.59,4.611 c 0.113,-0.506 0.291,-1.075 0.538,-1.593 c 0.007,1.172 -0.05,2.403 -0.266,3.455 c -0.165,-0.005 -0.324,-0.069 -0.414,-0.215 c -0.963,-1.575 -2.907,-4.504 -4.088,-5.49 c -0.037,-0.031 -0.07,-0.04 -0.106,-0.066 Z" fill="#9B3C07" />
	<!-- todo: clip path -->
</svg>
