<svg viewBox="0 0 36 36" xmlns="http://www.w3.org/2000/svg">
	<circle cx="18" cy="17" r="17" fill="#FFCC4D" />
	
	<!-- scaled :( -->
	<ellipse id="mouth" cx="17.812" cy="23.125" rx="4.062" ry="1.93" fill="#664500"/>
	
	<ellipse id="eye1" cx="12.333" cy="13.222" rx="1.889" ry="2.519" fill="#664500" />
	<ellipse id="eye2" cx="23.667" cy="13.222" rx="1.889" ry="2.519" fill="#664500" />
	
	<use id="eyebrow1" href="F.svg#eyebrow.2" transform="translate(13.554 4.9585) scale(1.0625)" color="#664500"/>
	<use id="eyebrow2" href="F.svg#eyebrow.2" transform="matrix(-1 0 0 1 22.446 4.9585) scale(1.0625)" color="#664500"/>
	
	<!-- kinda, except the bottom edge is shifted irregularly.
		anyway it's scaled to like 90% and rotated by 11.54°
		<g stroke-linecap="round" stroke-linejoin="round" fill="#F4900C" stroke-width="4" stroke="#F4900C">
		<path d="M 0,-4 L -0,-17"/>
		<path d="M 0,0 v-8 h4 a 2,2 0 01 2,2 v2 a 4,4 0 01 -4,4 z"/>
		<path d="M 5.752,-2.5 L 8.051,-8.818"/>
		</g>
	-->
	<!-- changed the hand color to match others -->
	<g>
		<path d="M 22.855,26.55 a 1.8,1.8 0 01 3.084,1.894 l -2.741,4.463 c -0.563,2.083 -1.394,3.093 -4.198,3.093 h-3.271 c -1.625,0 -2.115,-1.172 -1.895,-2.25 l 1.128,-5.533 l 0.001,-0.01 l 0.313,-1.531 l 0.015,-0.074 l 1.673,-8.183 a 1.8,1.8 0 01 3.545,0.725 l -1.272,6.224 l 1.399,0.286 c 0.818,0.167 1.526,0.579 2.068,1.141 l 0.151,-0.245 Z"   fill="#F4900C" />
		<path d="M 22.742,30.469 a 0.339,0.339 0 01 -0.666,-0.129 c 0.059,-0.312 -0.002,-0.587 -0.187,-0.839 c -0.59,-0.808 -2.289,-1.175 -2.894,-1.248 a 0.339,0.339 0 01 0.081,-0.673 c 0.101,0.011 2.474,0.31 3.36,1.521 c 0.298,0.407 0.401,0.868 0.306,1.368 Z"   fill="#664500" />
		<path d="M 19.15,35.473 c -0.253,0 -0.53,-0.031 -0.833,-0.102 c -0.61,-0.144 -1.04,-0.499 -1.18,-0.975 c -0.118,-0.401 -0.01,-0.825 0.289,-1.135 c 0.388,-0.402 1.003,-0.534 1.695,-0.358 a 0.339,0.339 0 01 -0.168,0.658 c -0.445,-0.114 -0.825,-0.05 -1.038,0.171 c -0.128,0.132 -0.175,0.309 -0.127,0.473 c 0.069,0.236 0.319,0.421 0.685,0.506 c 1.18,0.277 1.833,-0.186 2.174,-0.625 c 0.508,-0.653 0.568,-1.538 0.387,-1.885 c -0.422,-0.812 -2.049,-0.992 -2.64,-0.993 a 0.339,0.339 0 01 0,-0.678 c 0.103,0 2.542,0.015 3.242,1.359 c 0.305,0.585 0.218,1.751 -0.454,2.614 c -0.308,0.394 -0.943,0.97 -2.032,0.97 Z"  fill="#664500" />
	</g>
</svg>
