<svg viewBox="0 0 36 36" xmlns="http://www.w3.org/2000/svg">
	<circle cx="18" cy="17" r="17" fill="#FFCC4D" />
	<ellipse fill="#664500" cx="17.812" cy="23.125" rx="4.062" ry="1.93"/>
	<path d="M 25.35,25.981 c 0.839,0.516 1.103,1.624 0.589,2.463 l -2.741,4.463 c -0.563,2.083 -1.394,3.093 -4.198,3.093 h-3.271 c -1.625,0 -2.115,-1.172 -1.895,-2.25 l 1.128,-5.533 l 0.001,-0.01 l 0.313,-1.531 l 0.015,-0.074 l 1.673,-8.183 c 0.197,-0.964 1.147,-1.592 2.112,-1.395 l 0.038,0.008 c 0.964,0.197 1.592,1.147 1.395,2.112 l -1.272,6.224 l 1.399,0.286 c 0.818,0.167 1.526,0.579 2.068,1.141 l 0.151,-0.245 c 0.515,-0.839 1.623,-1.104 2.462,-0.589 l 0.033,0.02 Z" fill="#F19020" />
	<path d="M 22.409,30.743 c -0.02,0 -0.042,-0.002 -0.064,-0.006 c -0.184,-0.034 -0.305,-0.212 -0.269,-0.397 c 0.059,-0.312 -0.002,-0.587 -0.187,-0.839 c -0.59,-0.808 -2.289,-1.175 -2.894,-1.248 c -0.186,-0.022 -0.319,-0.192 -0.296,-0.377 c 0.022,-0.186 0.184,-0.321 0.377,-0.296 c 0.101,0.011 2.474,0.31 3.36,1.521 c 0.298,0.407 0.401,0.868 0.306,1.368 c -0.031,0.161 -0.173,0.274 -0.333,0.274 Z" fill="#664500" />
	<path d="M 19.15,35.473 c -0.253,0 -0.53,-0.031 -0.833,-0.102 c -0.61,-0.144 -1.04,-0.499 -1.18,-0.975 c -0.118,-0.401 -0.01,-0.825 0.289,-1.135 c 0.388,-0.402 1.003,-0.534 1.695,-0.358 c 0.181,0.046 0.291,0.231 0.245,0.413 c -0.046,0.18 -0.229,0.291 -0.413,0.245 c -0.445,-0.114 -0.825,-0.05 -1.038,0.171 c -0.128,0.132 -0.175,0.309 -0.127,0.473 c 0.069,0.236 0.319,0.421 0.685,0.506 c 1.18,0.277 1.833,-0.186 2.174,-0.625 c 0.508,-0.653 0.568,-1.538 0.387,-1.885 c -0.422,-0.812 -2.049,-0.992 -2.64,-0.993 c -0.187,0 -0.339,-0.152 -0.339,-0.339 s 0.152,-0.339 0.339,-0.339 c 0.103,0 2.542,0.015 3.242,1.359 c 0.305,0.585 0.218,1.751 -0.454,2.614 c -0.308,0.394 -0.943,0.97 -2.032,0.97 Z" fill="#664500" />
	<ellipse cx="12.333" cy="13.222" rx="1.889" ry="2.519" fill="#664500" />
	<path d="M 29.886,10.271 c -0.323,0 -0.642,-0.147 -0.85,-0.425 c -2.8,-3.734 -6.426,-3.823 -6.592,-3.825 c -0.585,-0.002 -1.058,-0.477 -1.058,-1.062 c 0,-0.587 0.475,-1.063 1.062,-1.063 c 0.195,0 4.821,0.053 8.287,4.675 c 0.352,0.469 0.258,1.135 -0.212,1.487 c -0.192,0.144 -0.415,0.213 -0.637,0.213 Z" fill="#664500" />
	<ellipse cx="23.667" cy="13.222" rx="1.889" ry="2.519" fill="#664500" />
	<path d="M 6.114,10.271 c -0.222,0 -0.445,-0.069 -0.637,-0.213 c -0.469,-0.352 -0.564,-1.018 -0.212,-1.487 c 3.466,-4.622 8.092,-4.675 8.287,-4.675 c 0.587,0 1.062,0.476 1.062,1.063 c 0,0.585 -0.473,1.06 -1.058,1.062 c -0.166,0.002 -3.792,0.091 -6.592,3.825 c -0.208,0.278 -0.527,0.425 -0.85,0.425 Z" fill="#664500" />
	</svg>
