<svg xmlns="http://www.w3.org/2000/svg" viewBox="0 0 36 36">
	<circle fill="#FFCC4D" cx="18" cy="18" r="18"/>
	<circle fill="#664500" cx="18" cy="26" r="3"/>
	<path d="M 17.312,16.612 c 0.177,0.142 0.237,0.384 0.145,0.591 c -0.06,0.135 -1.499,3.297 -4.457,3.297 c -2.957,0 -4.397,-3.162 -4.457,-3.297 c -0.092,-0.208 -0.032,-0.452 0.146,-0.594 c 0.176,-0.142 0.428,-0.146 0.611,-0.009 c 0.01,0.007 1.259,0.9 3.7,0.9 c 2.442,0 3.69,-0.893 3.702,-0.902 c 0.183,-0.133 0.434,-0.129 0.61,0.014 Z" fill="#664500" />
	<path d="M 27.312,16.612 c 0.177,0.142 0.237,0.384 0.145,0.591 c -0.06,0.135 -1.499,3.297 -4.457,3.297 c -2.957,0 -4.397,-3.162 -4.457,-3.297 c -0.092,-0.208 -0.032,-0.452 0.146,-0.594 c 0.177,-0.142 0.428,-0.146 0.611,-0.009 c 0.01,0.007 1.26,0.9 3.7,0.9 c 2.441,0 3.69,-0.893 3.702,-0.902 c 0.184,-0.134 0.434,-0.129 0.61,0.014 Z" fill="#664500" />
	<path d="M 34.43,12.534 v-0.002 h0.982 l -1.503,0.888 c -0.166,0.1 -0.423,0.176 -0.681,0.176 h-6.315 c -0.603,0 -1.111,-0.302 -1.111,-0.924 c 0,-0.302 0.15,-0.584 0.244,-0.735 l 4.261,-5.993 h-3.149 c -0.679,0 -1.225,-0.433 -1.225,-1.187 c 0,-0.615 0.411,-0.93 0.505,-0.987 s 1.503,-0.888 1.503,-0.888 l 0.032,0.688 h5.349 c 0.245,0 0.885,0.114 0.885,0.849 c 0,0.358 -0.076,0.528 -0.282,0.811 l -4.279,5.993 h3.582 c 0.677,0 1.225,0.434 1.225,1.188 c 0,0.046 -0.019,0.079 -0.023,0.123 Z" fill="#FFAC33" />
	<path d="M 31.771,5.084 h-3.149 c -0.679,0 -1.225,-0.433 -1.225,-1.187 s 0.546,-1.188 1.225,-1.188 h6.164 c 0.245,0 0.885,0.113 0.885,0.848 c 0,0.358 -0.076,0.528 -0.282,0.811 l -4.279,5.993 h3.582 c 0.677,0 1.225,0.433 1.225,1.187 s -0.548,1.187 -1.225,1.187 h-6.315 c -0.603,0 -1.111,-0.302 -1.111,-0.924 c 0,-0.302 0.15,-0.584 0.244,-0.735 l 4.261,-5.992 Z" fill="#2A6797" />
	<path d="M 24.886,7.48 h0.736 l -1.125,0.665 c -0.125,0.075 -0.317,0.132 -0.51,0.132 h-4.728 c -0.452,0 -0.832,-0.225 -0.832,-0.691 c 0,-0.226 0.113,-0.437 0.183,-0.55 l 3.19,-4.487 h-2.357 c -0.508,0 -0.917,-0.325 -0.917,-0.889 c 0,-0.46 0.308,-0.696 0.378,-0.739 s 1.125,-0.665 1.125,-0.665 l 0.024,0.515 h4.004 c 0.184,0 0.663,0.085 0.663,0.635 c 0,0.267 -0.056,0.394 -0.212,0.606 l -3.203,4.487 h2.682 c 0.507,0 0.917,0.325 0.917,0.889 c 0,0.034 -0.015,0.059 -0.018,0.092 Z" fill="#FFAC33" />
	<path d="M 22.896,1.903 h-2.357 c -0.508,0 -0.917,-0.324 -0.917,-0.889 c 0,-0.564 0.409,-0.889 0.917,-0.889 h4.615 c 0.184,0 0.663,0.085 0.663,0.635 c 0,0.268 -0.057,0.395 -0.211,0.607 l -3.203,4.487 h2.682 c 0.505,0 0.915,0.324 0.915,0.889 s -0.41,0.889 -0.917,0.889 h-4.728 c -0.452,0 -0.832,-0.226 -0.832,-0.691 c 0,-0.226 0.113,-0.437 0.183,-0.55 l 3.19,-4.488 Z" fill="#2A6797" />
	<path d="M 17.741,10.425 h0.629 l -0.963,0.569 c -0.106,0.064 -0.271,0.113 -0.436,0.113 h-4.047 c -0.386,0 -0.712,-0.193 -0.712,-0.592 c 0,-0.193 0.097,-0.374 0.157,-0.471 l 2.73,-3.84 h-2.017 c -0.435,0 -0.785,-0.278 -0.785,-0.761 c 0,-0.395 0.264,-0.596 0.324,-0.633 l 0.963,-0.569 l 0.021,0.441 h3.427 c 0.157,0 0.567,0.073 0.567,0.544 c 0,0.229 -0.049,0.338 -0.181,0.519 l -2.742,3.84 h2.295 c 0.434,0 0.785,0.278 0.785,0.761 c 0,0.03 -0.012,0.051 -0.015,0.079 Z" fill="#FFAC33" />
	<path d="M 16.037,5.652 h-2.017 c -0.435,0 -0.785,-0.278 -0.785,-0.761 s 0.35,-0.761 0.785,-0.761 h3.95 c 0.157,0 0.567,0.073 0.567,0.544 c 0,0.229 -0.048,0.338 -0.181,0.519 l -2.742,3.84 h2.295 c 0.434,0 0.785,0.278 0.785,0.761 s -0.351,0.761 -0.785,0.761 h-4.047 c -0.386,0 -0.712,-0.193 -0.712,-0.592 c 0,-0.193 0.096,-0.374 0.157,-0.471 l 2.73,-3.84 Z" fill="#2A6797" />
	</svg>
