<svg xmlns="http://www.w3.org/2000/svg" viewBox="0 0 36 36">
	<circle fill="#FFCC4D" cx="18" cy="18" r="18"/>
	<path d="M 25.485,27.379 c 0.055,0.218 -0.043,0.445 -0.239,0.557 c -0.077,0.043 -0.162,0.064 -0.246,0.064 c -0.128,0 -0.256,-0.05 -0.352,-0.145 c -0.018,-0.018 -1.954,-1.855 -6.648,-1.855 s -6.629,1.837 -6.648,1.856 c -0.161,0.155 -0.405,0.188 -0.6,0.077 c -0.194,-0.112 -0.292,-0.337 -0.237,-0.554 c 0.045,-0.179 1.167,-4.379 7.485,-4.379 c 6.317,0 7.44,4.2 7.485,4.379 Z" fill="#664500" />
	<ellipse fill="#664500" cx="12" cy="13.5" rx="2.5" ry="3.5"/>
	<ellipse fill="#664500" cx="24" cy="13.5" rx="2.5" ry="3.5"/>
	</svg>
