<svg xmlns="http://www.w3.org/2000/svg" viewBox="0 0 36 36">
	<circle cx="18" cy="18" r="18" fill="#FFCC4D" />
	<path d="M 18,21.849 c 2.967,0 4.935,-0.346 7.369,-0.819 c 0.556,-0.107 1.638,0 1.638,1.638 c 0,3.275 -3.763,7.369 -9.007,7.369 s -9.007,-4.094 -9.007,-7.369 c 0,-1.638 1.081,-1.744 1.638,-1.638 c 2.434,0.473 4.403,0.819 7.369,0.819 Z" fill="#664500" />
	<path d="M 16.65,3.281 c 0.12,0.344 0.195,0.694 0.233,1.042 c 0.728,4.012 -2.081,9.51 -4.718,11.677 c -3.413,-0.031 -9.05,-2.549 -11.001,-6.131 c -0.188,-0.295 -0.35,-0.614 -0.472,-0.958 c -0.859,-2.431 0.419,-5.098 2.849,-5.956 c 1.474,-0.52 3.034,-0.249 4.225,0.58 c 0.407,-1.393 1.452,-2.584 2.928,-3.104 c 2.432,-0.857 5.097,0.419 5.956,2.85 Z" fill="#DD2E44" />
	<path d="M 19.35,3.281 c 0.859,-2.431 3.525,-3.707 5.956,-2.85 c 1.476,0.52 2.521,1.711 2.929,3.104 c 1.191,-0.829 2.751,-1.1 4.225,-0.58 c 2.43,0.858 3.707,3.525 2.85,5.956 c -0.123,0.344 -0.284,0.663 -0.473,0.958 c -1.951,3.582 -7.588,6.1 -11.002,6.131 c -2.637,-2.167 -5.445,-7.665 -4.717,-11.677 c 0.037,-0.348 0.112,-0.698 0.232,-1.042 Z" fill="#DD2E44" />
	</svg>
