<!--<svg xmlns="http://www.w3.org/2000/svg" viewBox="0 0 36 36">
	<path d="M 13.3926,23.1543 l -1.539,-2.219 s -0.542,-0.867 -1.411,-0.325 c -0.866,0.541 -0.324,1.409 -0.324,1.409 l 1.758,3.38 s 0.144,0.768 -0.918,-0.091 c -0.463,-0.374 -0.197,-0.163 -0.197,-0.163 l -0.44,-0.361 l -5.491,-4.508 s -0.709,-0.748 -1.359,0.042 c -0.648,0.791 0.222,1.341 0.222,1.341 l 5.194,4.266 c -0.121,0.12 -0.483,0.534 -0.6,0.663 l -5.557,-4.56 s -0.71,-0.749 -1.359,0.041 c -0.649,0.791 0.223,1.341 0.223,1.341 l 5.555,4.562 c -0.102,0.14 -0.363,0.476 -0.459,0.615 l -4.792,-3.934 s -0.71,-0.748 -1.358,0.042 c -0.65,0.791 0.223,1.342 0.223,1.342 l 5.093,4.183 c -0.064,0.178 -0.363,0.647 -0.41,0.821 l -3.672,-3.012 s -0.709,-0.752 -1.357,0.041 c -0.65,0.791 0.223,1.341 0.223,1.341 l 5.93,4.868 s 0.257,0.213 0.395,0.326 c 2.619,2.152 6.489,1.772 8.64,-0.848 c 1.971,-2.404 1.817,-5.853 -0.24,-8.07 c -0.729,-0.783 -1.361,-1.654 -1.973,-2.533 Z" fill="#f4900c"/>
	<path d="M 35.583,28.0703 c -0.648,-0.793 -1.357,-0.041 -1.357,-0.041 l -3.672,3.012 c -0.047,-0.174 -0.346,-0.643 -0.41,-0.821 l 5.093,-4.183 s 0.873,-0.551 0.223,-1.342 c -0.648,-0.79 -1.358,-0.042 -1.358,-0.042 l -4.792,3.934 c -0.096,-0.139 -0.357,-0.475 -0.459,-0.615 l 5.554,-4.562 s 0.873,-0.55 0.223,-1.341 c -0.649,-0.79 -1.358,-0.041 -1.358,-0.041 l -5.557,4.56 c -0.117,-0.129 -0.48,-0.543 -0.6,-0.664 l 5.194,-4.265 s 0.87,-0.55 0.222,-1.341 c -0.65,-0.79 -1.359,-0.042 -1.359,-0.042 l -5.491,4.508 l -0.44,0.361 s 0.99,-0.841 -0.197,0.163 c -1.188,1.004 -0.918,0.091 -0.918,0.091 l 1.758,-3.38 s 0.543,-0.868 -0.324,-1.409 c -0.87,-0.542 -1.412,0.325 -1.412,0.325 l -1.538,2.219 c -0.613,0.879 -1.244,1.75 -1.973,2.533 c -2.058,2.217 -2.212,5.666 -0.24,8.07 c 2.151,2.62 6.02,3 8.64,0.848 c 0.138,-0.113 0.396,-0.326 0.396,-0.326 l 5.929,-4.868 s 0.872,-0.55 0.223,-1.341 Z" fill="#f4900c"/>
	<path d="M 27.6768,10.9829 c -0.051,-0.122 -1.285,-2.983 -3.82,-2.983 s -3.769,2.861 -3.82,2.983 c -0.08,0.187 -0.028,0.406 0.123,0.536 c 0.15,0.128 0.366,0.132 0.524,0.012 c 0.01,-0.009 1.081,-0.816 3.173,-0.816 c 2.079,0 3.149,0.796 3.174,0.815 c 0.075,0.059 0.164,0.089 0.254,0.089 c 0.095,0 0.19,-0.033 0.267,-0.099 c 0.153,-0.128 0.205,-0.349 0.125,-0.537 Z" fill="#664500"/>
	<path d="M 16.6768,10.9829 c -0.052,-0.122 -1.285,-2.983 -3.82,-2.983 s -3.769,2.861 -3.82,2.983 c -0.079,0.187 -0.028,0.406 0.123,0.536 c 0.151,0.128 0.366,0.132 0.523,0.012 c 0.011,-0.009 1.081,-0.816 3.174,-0.816 c 2.079,0 3.149,0.796 3.173,0.815 c 0.076,0.059 0.165,0.089 0.255,0.089 c 0.095,0 0.19,-0.033 0.268,-0.099 c 0.152,-0.128 0.203,-0.349 0.124,-0.537 Z" fill="#664500"/>
</svg>
-->


<svg viewBox="0 0 36 36" xmlns="http://www.w3.org/2000/svg">
	<circle cx="18" cy="16" r="16" fill="#FFCC4D" />
	
	<use id="mouth" href="F.svg#mouth.smiling2" transform="translate(18 22) scale(0.842 1)" color="#664500"/>
	
	<use id="eye1" href="F.svg#mouth.smiling1b" transform="matrix(1 0 0 -1 12.856 8) scale(0.856 0.905)" color="#664500"/>
	<use id="eye2" href="F.svg#mouth.smiling1b" transform="matrix(1 0 0 -1 23.856 8) scale(0.856 0.905)" color="#664500"/>
	
	<g>
		<path d="M 13.393,23.154 c 0.612,0.879 1.243,1.75 1.972,2.532 c 2.057,2.216 2.211,5.666 0.24,8.069 c -2.151,2.62 -6.02,3 -8.64,0.849 l -0.395,-0.326 l -5.93,-4.868 s -0.872,-0.55 -0.222,-1.341 c 0.648,-0.793 1.357,-0.041 1.357,-0.041 l 3.672,3.012 c 0.047,-0.174 0.346,-0.642 0.41,-0.82 l -5.094,-4.184 s -0.873,-0.551 -0.222,-1.342 c 0.648,-0.79 1.358,-0.042 1.358,-0.042 l 4.792,3.934 c 0.096,-0.138 0.356,-0.474 0.459,-0.614 l -5.555,-4.562 s -0.872,-0.55 -0.222,-1.341 c 0.648,-0.79 1.358,-0.041 1.358,-0.041 l 5.557,4.56 c 0.118,-0.129 0.48,-0.543 0.6,-0.663 l -5.193,-4.266 s -0.871,-0.55 -0.223,-1.341 c 0.65,-0.79 1.359,-0.042 1.359,-0.042 l 5.491,4.508 l 0.44,0.361 s -0.266,-0.211 0.197,0.163 c 1.062,0.859 0.918,0.091 0.918,0.091 l -1.758,-3.38 s -0.543,-0.868 0.324,-1.409 c 0.868,-0.542 1.411,0.325 1.411,0.325 l 1.539,2.219 Z" fill="#F4900C"/>
		<path d="M 11.182,25.478 c 0.224,0.168 0.605,0.215 0.605,0.215 c -2.35,3.161 0.15,6.693 0.4,7.057 c 0.229,0.334 -0.309,0.473 -0.521,0.188 c -3.077,-4.146 -0.484,-7.46 -0.484,-7.46 Z" fill="#B55005" />
	</g>
	hand
	<g>
		<path d="M 35.583,28.07 c 0.649,0.791 -0.223,1.341 -0.218,1.342 l -5.93,4.868 l -0.396,0.326 c -2.62,2.151 -6.49,1.771 -8.64,-0.849 c -1.973,-2.403 -1.819,-5.852 0.239,-8.069 c 0.73,-0.783 1.361,-1.654 1.974,-2.533 l 1.538,-2.219 s 0.542,-0.867 1.411,-0.325 c 0.867,0.541 0.324,1.409 0.324,1.409 l -1.758,3.38 s -0.27,0.913 0.918,-0.091 c 1.187,-1.004 0.197,-0.163 0.197,-0.163 l 0.439,-0.361 l 5.491,-4.508 s 0.709,-0.748 1.359,0.042 c 0.647,0.791 -0.223,1.341 -0.223,1.341 l -5.193,4.266 c 0.121,0.12 0.483,0.534 0.6,0.663 l 5.558,-4.56 s 0.709,-0.749 1.357,0.041 c 0.65,0.791 -0.223,1.341 -0.223,1.341 l -5.555,4.562 c 0.102,0.139 0.363,0.475 0.459,0.614 l 4.792,-3.934 s 0.71,-0.748 1.358,0.042 c 0.65,0.791 -0.223,1.342 -0.223,1.342 l -5.094,4.184 c 0.064,0.177 0.363,0.646 0.41,0.82 l 3.672,-3.012 s 0.709,-0.752 1.357,0.041 Z" fill="#F4900C"/>
		<path d="M 24.765,25.576 s 2.594,3.314 -0.484,7.46 c -0.212,0.285 -0.75,0.146 -0.521,-0.188 c 0.25,-0.364 2.75,-3.896 0.4,-7.057 c -0.001,0.001 0.381,-0.046 0.605,-0.215 Z" fill="#B55005" />
	</g>
	
	todo: to get back to original hands:
	rotate 50.6 deg
	scale 1.955 x
	(fingers 3.5 units wide etc.)
	
	<path d="M 13.3926,23.1543 l -1.539,-2.219 s -0.542,-0.867 -1.411,-0.325 c -0.866,0.541 -0.324,1.409 -0.324,1.409 l 1.758,3.38 s 0.144,0.768 -0.918,-0.091 c -0.463,-0.374 -0.197,-0.163 -0.197,-0.163 l -0.44,-0.361 l -5.491,-4.508 s -0.709,-0.748 -1.359,0.042 c -0.648,0.791 0.222,1.341 0.222,1.341 l 5.194,4.266 c -0.121,0.12 -0.483,0.534 -0.6,0.663 l -5.557,-4.56 s -0.71,-0.749 -1.359,0.041 c -0.649,0.791 0.223,1.341 0.223,1.341 l 5.555,4.562 c -0.102,0.14 -0.363,0.476 -0.459,0.615 l -4.792,-3.934 s -0.71,-0.748 -1.358,0.042 c -0.65,0.791 0.223,1.342 0.223,1.342 l 5.093,4.183 c -0.064,0.178 -0.363,0.647 -0.41,0.821 l -3.672,-3.012 s -0.709,-0.752 -1.357,0.041 c -0.65,0.791 0.223,1.341 0.223,1.341 l 5.93,4.868 s 0.257,0.213 0.395,0.326 c 2.619,2.152 6.489,1.772 8.64,-0.848 c 1.971,-2.404 1.817,-5.853 -0.24,-8.07 c -0.729,-0.783 -1.361,-1.654 -1.973,-2.533 Z" fill="#f4900c"/>
</svg>

