<svg viewBox="0 0 36 36" xmlns="http://www.w3.org/2000/svg">
	<defs>
		<clipPath id="circle">
			<circle r="18" cx="18" cy="18"/>
		</clipPath>
	</defs>
	
	<use href="F.svg#bg.normal" color="#FFCC4D"/>
	
	<use href="F.svg#mouth.smiling2" x="18" y="28.5" color="#664500"/>
	
	<use href="F.svg#eye.smiling" x="13" y="15"/>
	<use href="F.svg#eye.smiling" x="23" y="15"/>
	
	<g clip-path="url(#circle)">
		<path d="M 35.831,6.381 c 0,3.588 -8.264,5.771 -17.831,5.771 s -17.831,-2.183 -17.831,-5.771 l 17.831,3 l 17.831,-3 Z" fill="#FFAC33"/>
	</g>

	<path d="M 33.175,8.316 c 0.181,0.265 0.555,0.929 0.555,0.929 l -0.078,0.047 c -3.076,1.82 -9.056,2.86 -15.652,2.86 c -6.663,0 -12.684,-1.061 -15.727,-2.917 l 0.521,-0.876 Z" fill="#FFAC33" /> <!-- idea: split halo into front and back halves. also, then we can reuse the front half to draw the shadow using a clip path -->
	
	<!-- need to clean up -->
	<path d="M 18,0.129 c 9.567,0 17.831,1.57 17.831,5.158 s -8.264,5.771 -17.831,5.771 s -17.831,-2.183 -17.831,-5.771 s 8.264,-5.158 17.831,-5.158 Z M 18,7.383 c 6.861,0 12.91,-0.833 12.91,-2.736 s -6.049,-3.208 -12.91,-3.208 s -12.91,1.305 -12.91,3.208 s 6.049,2.736 12.91,2.736 Z"  fill="#5DADEC" />
	<path d="M 24.4,1.853 l -4.378,-1.691 l -0.018,-0.007 c 1.3,0.031 2.561,0.096 3.773,0.19 c 1.347,0.342 3.632,1.228 5.917,2.902 l -0.062,-0.017 c -1.146,-0.594 -2.99,-1.067 -5.232,-1.377 Z M 6.429,3.199 l -0.118,0.047 c 2.286,-1.675 4.572,-2.56 5.919,-2.902 c 1.213,-0.094 2.475,-0.159 3.777,-0.19 l -0.023,0.008 l -4.366,1.688 c -2.211,0.305 -4.036,0.768 -5.189,1.349 Z" fill="#3B94D9" />
	<path d="M 28.472,3.375 h-20.782 c 0.289,-0.435 1.081,-0.881 2.17,-1.434 c 2.445,-1.241 5.211,-1.941 8.14,-1.941 c 3.063,0 5.947,0.765 8.471,2.115 c 0.655,0.35 1.341,0.817 2.001,1.26 Z" fill="#FFCC4D" />
</svg>
