<svg viewBox="0 0 36 36" xmlns="http://www.w3.org/2000/svg">
	<use id="head" href="F.svg#bg.normal" color="#FFCC4D"/>
	
	<use id="mouth" href="F.svg#mouth.smiling2" x="18" y="29.5" color="#664500"/>
	
	<path d="M 1.24,11.018 c -0.239,-0.239 -0.239,-1.197 0,-1.436 c 0.48,-0.478 6.136,-0.904 12.221,-0.238 c 1.214,0.132 1.678,0.478 4.553,0.478 c 2.877,0 3.339,-0.345 4.554,-0.478 c 6.089,-0.665 11.744,-0.239 12.223,0.239 c 0.241,0.24 0.241,1.197 0,1.436 c -0.239,0.239 -1.439,0.957 -1.677,1.674 c -0.24,0.718 -0.719,4.785 -2.155,5.982 c -1.485,1.232 -7.079,0.773 -8.151,0.238 c -2.395,-1.194 -2.691,-4.53 -3.115,-6.221 c -0.24,-0.956 -1.678,-0.956 -1.678,-0.956 s -1.438,0 -1.677,0.957 c -0.424,1.69 -0.718,5.026 -3.115,6.221 c -1.071,0.534 -6.665,0.992 -8.148,-0.24 c -1.438,-1.197 -1.918,-5.264 -2.158,-5.981 c -0.239,-0.718 -1.437,-1.436 -1.677,-1.675 Z" fill="#292F33"/> <!-- used in the Sunglasses emoji later -->
</svg>
