<svg viewBox="0 0 36 36" xmlns="http://www.w3.org/2000/svg">
	<circle cx="18" cy="18" r="18" fill="#FFCC4D"/>
	<use href="F.svg#eye.smiling" x="13" y="12.958"/>
	<use href="F.svg#eye.smiling" x="23" y="12.958"/>
	<use href="F.svg#mouth.smiling2" x="18" y="26.062" fill="#664500"/>
	<!-- heart shadows -->
	<path d="M 21.229,3.947 c 0,-1.506 1.089,-2.751 2.521,-3.008 c 3.11,1.048 5.84,2.922 7.929,5.362 c -1.052,2.063 -3.233,3.934 -4.898,4.539 c -2.106,-0.766 -5.045,-3.554 -5.47,-6.197 c -0.052,-0.224 -0.082,-0.456 -0.082,-0.696 Z M 13.743,29.078 c -0.304,1.892 -1.798,3.848 -3.435,5.199 c -3.418,-1.617 -6.244,-4.279 -8.068,-7.574 c 0.569,-1.009 1.639,-1.698 2.88,-1.698 c 1.113,0 2.095,0.55 2.697,1.389 c 0.603,-0.84 1.584,-1.389 2.697,-1.389 c 1.833,0 3.319,1.486 3.319,3.319 c 0,0.26 -0.033,0.512 -0.09,0.754 Z M 34.301,25.642 c -1.027,2.188 -2.482,4.135 -4.258,5.735 c -1.561,-0.665 -3.602,-2.656 -3.909,-4.561 c -0.039,-0.168 -0.062,-0.342 -0.062,-0.522 c 0,-1.27 1.029,-2.299 2.299,-2.299 c 0.771,0 1.451,0.38 1.868,0.962 c 0.417,-0.582 1.097,-0.962 1.868,-0.962 c 1.042,0 1.912,0.697 2.194,1.647 Z" fill="#FFAC33" />
	
	<use href="F.svg#heart" transform="translate(28.073 10.162) scale(.3104)" fill="#DD2E44"/>
	<use href="F.svg#heart" transform="translate(6.191 35.876) scale(.3364)" fill="#DD2E44"/>
	<use href="F.svg#heart" transform="translate(31.781 31.299) scale(.233)" fill="#DD2E44"/>
</svg>
