<svg viewBox="0 0 36 36" xmlns="http://www.w3.org/2000/svg">
	<circle cx="18" cy="18" r="18" fill="#FFCC4D" />
	<circle cx="29" cy="22" r="5" fill="#FF7892"/>
	<circle cx="7" cy="22" r="5" fill="#FF7892"/>
	<path d="M 29,14 c 0.256,0 0.512,-0.098 0.706,-0.293 c 0.391,-0.391 0.391,-1.023 0,-1.414 c -3.34,-3.338 -8.676,-2.319 -8.903,-2.273 c -0.541,0.108 -0.89,0.633 -0.783,1.174 c 0.107,0.54 0.626,0.896 1.174,0.787 c 0.044,-0.01 4.522,-0.849 7.099,1.726 c 0.195,0.195 0.451,0.293 0.707,0.293 Z" fill="#664500" />
	<path d="M 7,14 c 0.256,0 0.512,-0.098 0.707,-0.292 c 2.569,-2.569 7.029,-1.741 7.098,-1.726 c 0.542,0.107 1.067,-0.245 1.175,-0.785 c 0.109,-0.542 -0.242,-1.069 -0.784,-1.177 c -0.225,-0.045 -5.563,-1.068 -8.903,2.273 c -0.391,0.391 -0.391,1.023 0,1.414 c 0.195,0.195 0.451,0.293 0.707,0.293 Z" fill="#664500" />
	<path d="M 26,19 c 0.256,0 0.512,-0.098 0.707,-0.293 c 0.391,-0.391 0.391,-1.023 0,-1.414 c -2.374,-2.374 -6.763,-1.309 -6.949,-1.263 c -0.536,0.134 -0.861,0.675 -0.728,1.211 c 0.134,0.535 0.671,0.862 1.211,0.73 c 0.962,-0.238 3.748,-0.569 5.052,0.736 c 0.195,0.195 0.451,0.293 0.707,0.293 Z" fill="#664500" />
	<path d="M 10,19 c -0.256,0 -0.512,-0.098 -0.707,-0.293 c -0.391,-0.391 -0.391,-1.023 0,-1.414 c 2.373,-2.373 6.764,-1.309 6.95,-1.263 c 0.535,0.134 0.86,0.675 0.727,1.211 c -0.132,0.536 -0.673,0.863 -1.21,0.73 c -0.964,-0.237 -3.749,-0.567 -5.052,0.736 c -0.196,0.195 -0.452,0.293 -0.708,0.293 Z" fill="#664500" />
	<!-- <path d="M 13,25 s 1,1 5,1 s 5,-1 5,-1 s -1,4 -5,4 s -5,-4 -5,-4 Z" fill="#664500" stroke="#664500" stroke-linejoin="round"/> SOURCE ! -->
	<path d="M 18,29.5 c 4.34,0 5.474,-4.335 5.485,-4.379 c 0.053,-0.213 -0.043,-0.431 -0.231,-0.544 c -0.188,-0.111 -0.432,-0.086 -0.597,0.06 c -0.01,0.008 -1.013,0.863 -4.657,0.863 c -3.59,0 -4.617,-0.83 -4.656,-0.864 c -0.161,-0.151 -0.4,-0.178 -0.591,-0.072 c -0.195,0.112 -0.293,0.339 -0.238,0.557 c 0.011,0.044 1.145,4.379 5.485,4.379 Z" fill="#664500"/>
	<!--<path d="M 13.949,26.008 c 0.82,0.258 2.101,0.492 4.051,0.492 s 3.231,-0.234 4.051,-0.492 c -0.576,1.064 -1.775,2.492 -4.051,2.492 s -3.474,-1.428 -4.051,-2.492 Z" fill="#664500"/>-->
	<!-- ?? <path d="M 13,25 h0.01 h-0.01 Z" fill="#664500"/>-->
</svg>
