<svg viewBox="0 0 36 36" xmlns="http://www.w3.org/2000/svg">
	<circle fill="#FFCC4D" cx="18" cy="18" r="18"/>
	<path d="M 16,16.958 c -0.419,0 -0.809,-0.265 -0.949,-0.684 c -0.203,-0.599 -1.018,-2.316 -2.051,-2.316 c -1.062,0 -1.888,1.827 -2.051,2.316 c -0.175,0.523 -0.738,0.808 -1.265,0.632 c -0.524,-0.174 -0.807,-0.741 -0.632,-1.265 c 0.125,-0.377 1.304,-3.684 3.949,-3.684 s 3.823,3.307 3.949,3.684 c 0.175,0.524 -0.108,1.091 -0.632,1.265 c -0.106,0.036 -0.213,0.052 -0.318,0.052 Z" fill="#664500" />
	<path d="M 26,16.958 c -0.419,0 -0.809,-0.265 -0.948,-0.684 c -0.203,-0.599 -1.019,-2.316 -2.052,-2.316 c -1.062,0 -1.889,1.827 -2.052,2.316 c -0.175,0.523 -0.736,0.808 -1.265,0.632 c -0.523,-0.174 -0.807,-0.741 -0.632,-1.265 c 0.125,-0.377 1.304,-3.684 3.948,-3.684 s 3.823,3.307 3.948,3.684 c 0.175,0.524 -0.108,1.091 -0.632,1.265 c -0.104,0.036 -0.21,0.052 -0.315,0.052 Z" fill="#664500" />
	<path d="M 27.335,20.691 c 0.178,0.161 0.217,0.423 0.094,0.628 c -0.128,0.215 -3.217,5.243 -9.429,5.243 s -9.3,-5.028 -9.429,-5.243 c -0.123,-0.204 -0.083,-0.468 0.094,-0.628 c 0.178,-0.159 0.444,-0.171 0.635,-0.029 c 0.038,0.029 3.934,2.9 8.7,2.9 c 4.778,0 8.661,-2.871 8.7,-2.9 c 0.191,-0.142 0.457,-0.132 0.635,0.029 Z" fill="#664500" />
	<path d="M 21.229,3.947 c 0,-1.506 1.089,-2.751 2.521,-3.008 c 3.11,1.048 5.84,2.922 7.929,5.362 c -1.052,2.063 -3.233,3.934 -4.898,4.539 c -2.106,-0.766 -5.045,-3.554 -5.47,-6.197 c -0.052,-0.224 -0.082,-0.456 -0.082,-0.696 Z" fill="#FFAC33" />
	<path d="M 13.743,29.078 c -0.304,1.892 -1.798,3.848 -3.435,5.199 c -3.418,-1.617 -6.244,-4.279 -8.068,-7.574 c 0.569,-1.009 1.639,-1.698 2.88,-1.698 c 1.113,0 2.095,0.55 2.697,1.389 c 0.603,-0.84 1.584,-1.389 2.697,-1.389 c 1.833,0 3.319,1.486 3.319,3.319 c 0,0.26 -0.033,0.512 -0.09,0.754 Z" fill="#FFAC33" />
	<path d="M 34.301,25.642 c -1.027,2.188 -2.482,4.135 -4.258,5.735 c -1.561,-0.665 -3.602,-2.656 -3.909,-4.561 c -0.039,-0.168 -0.062,-0.342 -0.062,-0.522 c 0,-1.27 1.029,-2.299 2.299,-2.299 c 0.771,0 1.451,0.38 1.868,0.962 c 0.417,-0.582 1.097,-0.962 1.868,-0.962 c 1.042,0 1.912,0.697 2.194,1.647 Z" fill="#FFAC33" />
	<path d="M 33.625,3.269 c 0,0.24 -0.03,0.472 -0.083,0.697 c -0.425,2.642 -3.363,5.43 -5.469,6.196 c -2.106,-0.766 -5.044,-3.554 -5.47,-6.197 c -0.052,-0.224 -0.082,-0.456 -0.082,-0.696 c 0,-1.692 1.371,-3.063 3.063,-3.063 c 1.027,0 1.933,0.507 2.489,1.282 c 0.556,-0.775 1.462,-1.282 2.489,-1.282 c 1.691,0 3.063,1.371 3.063,3.063 Z" fill="#DD2E44" />
	<path d="M 12.208,28.408 c 0,0.259 -0.033,0.511 -0.091,0.755 c -0.461,2.863 -3.644,5.884 -5.926,6.713 c -2.282,-0.83 -5.465,-3.851 -5.926,-6.714 c -0.056,-0.243 -0.089,-0.494 -0.089,-0.754 c 0,-1.833 1.486,-3.319 3.319,-3.319 c 1.113,0 2.095,0.549 2.697,1.389 c 0.603,-0.84 1.584,-1.389 2.697,-1.389 c 1.833,0 3.319,1.486 3.319,3.319 Z" fill="#DD2E44" />
	<path d="M 35.948,26.127 c 0,0.18 -0.023,0.354 -0.063,0.522 c -0.318,1.983 -2.524,4.076 -4.104,4.65 c -1.581,-0.574 -3.786,-2.667 -4.105,-4.65 c -0.039,-0.168 -0.062,-0.342 -0.062,-0.522 c 0,-1.27 1.029,-2.299 2.299,-2.299 c 0.771,0 1.451,0.38 1.868,0.962 c 0.417,-0.582 1.097,-0.962 1.868,-0.962 c 1.27,0 2.299,1.029 2.299,2.299 Z" fill="#DD2E44" />
	</svg>
