<svg viewBox="0 0 36 36" xmlns="http://www.w3.org/2000/svg">
	<use href="F.svg#bg.normal" color="#FFCC4D"/>
	<path d="M 1.24,11.018 c -0.239,-0.239 -0.239,-1.197 0,-1.436 c 0.48,-0.478 6.136,-0.904 12.221,-0.238 c 1.214,0.132 1.678,0.478 4.553,0.478 c 2.877,0 3.339,-0.345 4.554,-0.478 c 6.089,-0.665 11.744,-0.239 12.223,0.239 c 0.241,0.24 0.241,1.197 0,1.436 c -0.239,0.239 -1.439,0.957 -1.677,1.674 c -0.24,0.718 -0.719,4.785 -2.155,5.982 c -1.485,1.232 -7.079,0.773 -8.151,0.238 c -2.395,-1.194 -2.691,-4.53 -3.115,-6.221 c -0.24,-0.956 -1.678,-0.956 -1.678,-0.956 s -1.438,0 -1.677,0.957 c -0.424,1.69 -0.718,5.026 -3.115,6.221 c -1.071,0.534 -6.665,0.992 -8.148,-0.24 c -1.438,-1.197 -1.918,-5.264 -2.158,-5.981 c -0.239,-0.718 -1.437,-1.436 -1.677,-1.675 Z" fill-rule="evenodd" clip-rule="evenodd" fill="#292F33" />
	<path d="M 27.335,23.629 c 0.178,0.16 0.217,0.423 0.094,0.628 c -0.128,0.215 -3.217,5.243 -9.429,5.243 s -9.3,-5.028 -9.429,-5.243 c -0.123,-0.204 -0.083,-0.468 0.094,-0.628 c 0.178,-0.159 0.444,-0.171 0.635,-0.029 c 0.038,0.029 3.934,2.9 8.7,2.9 c 4.778,0 8.661,-2.871 8.7,-2.9 c 0.191,-0.142 0.457,-0.132 0.635,0.029 Z" fill="#664500" />
	</svg>
