<svg xmlns="http://www.w3.org/2000/svg" viewBox="0 0 36 36">
	<circle fill="#AA8DD8" cx="18" cy="18" r="18"/>
	<path d="M 10,4 c 0.693,0 1.337,0.359 1.701,0.948 c 0.365,0.59 0.398,1.326 0.088,1.946 l -2,4 c -0.339,0.678 -1.032,1.106 -1.789,1.106 c -6.328,0 -8,-6.541 -8,-10 c 0,-0.809 0.487,-1.538 1.235,-1.847 c 0.746,-0.31 1.608,-0.139 2.179,0.433 c 0.955,0.948 4.006,3.414 6.586,3.414 Z" fill="#AA8DD8" />
	<path d="M 34.766,0.153 c 0.747,0.309 1.234,1.038 1.234,1.847 c 0,3.459 -1.672,10 -8,10 c -0.758,0 -1.45,-0.428 -1.789,-1.105 l -2,-4 c -0.309,-0.62 -0.276,-1.357 0.088,-1.946 c 0.364,-0.59 1.008,-0.949 1.701,-0.949 c 2.589,0 5.7,-2.528 6.586,-3.413 c 0.573,-0.573 1.43,-0.745 2.18,-0.434 Z" fill="#AA8DD8" />
	<path d="M 27.335,25.629 c 0.178,0.16 0.217,0.423 0.094,0.628 c -0.128,0.215 -3.217,5.243 -9.429,5.243 s -9.3,-5.028 -9.429,-5.243 c -0.123,-0.204 -0.083,-0.468 0.094,-0.628 c 0.178,-0.159 0.444,-0.171 0.635,-0.029 c 0.038,0.029 3.934,2.9 8.7,2.9 c 4.778,0 8.661,-2.871 8.7,-2.9 c 0.191,-0.142 0.457,-0.132 0.635,0.029 Z" fill="#553986" />
	<path d="M 15.707,18.293 c 0.391,0.391 0.391,1.023 0,1.414 c -0.195,0.195 -0.451,0.293 -0.707,0.293 c -0.012,0 -0.024,-0.007 -0.037,-0.007 c 0.018,0.167 0.037,0.333 0.037,0.507 c 0,1.934 -1.119,3.5 -2.5,3.5 s -2.5,-1.566 -2.5,-3.5 c 0,-1.129 0.389,-2.123 0.982,-2.763 c -2.058,-0.715 -3.954,-0.737 -3.983,-0.737 c -0.552,-0.001 -0.999,-0.45 -0.998,-1.002 c 0,-0.551 0.447,-0.998 0.999,-0.998 c 0.221,0 5.452,0.038 8.707,3.293 Z" fill="#553986" />
	<path d="M 29,15 c 0.552,0 0.998,0.447 0.999,0.998 c 0.001,0.552 -0.446,1.001 -0.997,1.002 c -0.03,0 -1.926,0.022 -3.984,0.737 c 0.593,0.64 0.982,1.634 0.982,2.763 c 0,1.934 -1.119,3.5 -2.5,3.5 s -2.5,-1.566 -2.5,-3.5 c 0,-0.174 0.02,-0.34 0.036,-0.507 c -0.012,0 -0.023,0.007 -0.036,0.007 c -0.256,0 -0.512,-0.098 -0.707,-0.293 c -0.391,-0.391 -0.391,-1.023 0,-1.414 c 3.256,-3.255 8.486,-3.293 8.707,-3.293 Z" fill="#553986" />
	</svg>
