<svg viewBox="0 0 36 36" xmlns="http://www.w3.org/2000/svg">
	<use href="F.svg#cat_face_bg"/>
	<path d="M 18,19.5 c 3,0 3,0.5 3,1.5 s -1.5,3 -3,3 s -3,-2 -3,-3 s -0.001,-1.5 3,-1.5 Z" fill="#E75A70" />
	<path d="M 2,3 c 0.447,-1.342 5.64,1 6.64,2 c 0,0 -4.64,3 -5.64,6 c 0,0 -2,-5 -1,-8 Z" fill="#F18F26" />
	<path d="M 34,3 c 1,3 -1,8 -1,8 c -1,-3 -5.64,-6 -5.64,-6 c 1,-1 6.193,-3.342 6.64,-2 Z" fill="#F18F26" />
	<path d="M 4.934,5.603 c 0,-1.414 6.066,1.397 5.066,2.397 s -2,1.603 -3,2.603 s -2.066,-4 -2.066,-5 Z" fill="#FFCC4D" />
	<path d="M 31.066,5.603 c 0,1 -1.066,6 -2.066,5 s -2,-1.603 -3,-2.603 s 5.066,-3.811 5.066,-2.397 Z" fill="#FFCC4D" />
	<path d="M 0.701,25 c 0.108,0 0.217,-0.035 0.31,-0.106 c 0.036,-0.029 3.718,-2.869 9.951,-2.395 c 0.28,0.041 0.516,-0.185 0.537,-0.46 s -0.185,-0.516 -0.46,-0.536 c -6.628,-0.515 -10.486,2.478 -10.648,2.605 c -0.217,0.171 -0.254,0.485 -0.083,0.702 c 0.099,0.125 0.245,0.19 0.393,0.19 Z" fill="#FEE7B8" />
	<path d="M 9.569,20.337 c 0.213,0 0.41,-0.137 0.476,-0.35 c 0.083,-0.264 -0.064,-0.544 -0.328,-0.627 c -5.076,-1.585 -9.189,-0.39 -9.362,-0.338 c -0.264,0.079 -0.414,0.357 -0.335,0.622 c 0.08,0.265 0.358,0.416 0.623,0.335 c 0.04,-0.011 3.987,-1.161 8.777,0.336 c 0.049,0.015 0.1,0.022 0.149,0.022 Z" fill="#FEE7B8" />
	<path d="M 35.299,25 c 0.148,0 0.294,-0.065 0.393,-0.19 c 0.171,-0.217 0.134,-0.531 -0.083,-0.702 c -0.162,-0.127 -4.02,-3.12 -10.648,-2.605 c -0.275,0.02 -0.481,0.261 -0.46,0.536 s 0.257,0.501 0.537,0.46 c 6.233,-0.474 9.915,2.366 9.951,2.395 c 0.093,0.071 0.202,0.106 0.31,0.106 Z" fill="#FEE7B8" />
	<path d="M 26.431,20.337 c 0.049,0 0.1,-0.007 0.149,-0.022 c 4.79,-1.497 8.737,-0.347 8.777,-0.336 c 0.265,0.081 0.543,-0.07 0.623,-0.335 c 0.079,-0.265 -0.071,-0.543 -0.335,-0.622 c -0.173,-0.052 -4.286,-1.247 -9.362,0.338 c -0.264,0.083 -0.411,0.363 -0.328,0.627 c 0.065,0.213 0.263,0.35 0.476,0.35 Z" fill="#FEE7B8" />
	<path d="M 28.023,24.191 c 0.977,-0.191 1.092,1.073 0.535,2.941 c -0.558,1.868 -3.558,5.868 -10.558,5.868 s -10,-4 -10.558,-5.868 c -0.557,-1.868 -0.442,-3.132 0.535,-2.941 c 0.977,0.192 5.023,1.809 10.023,1.809 s 9.046,-1.617 10.023,-1.809 Z" fill="#292F33" />
	<path d="M 8,25 s 5,2 10,2 s 10,-2 10,-2 s -0.5,3 -1.5,3 s -1.5,-1 -1.5,-1 s -4,2 -7,2 s -7,-2 -7,-2 s -0.5,1 -1.5,1 s -1.5,-3 -1.5,-3 Z" fill="#F5F8FA" />
	<path d="M 16.226,5.117 c 0.119,0.344 0.194,0.693 0.232,1.042 c 0.728,4.013 -2.08,9.51 -4.717,11.677 c -3.414,-0.031 -9.051,-2.549 -11.002,-6.131 c -0.188,-0.295 -0.35,-0.613 -0.472,-0.958 c -0.858,-2.431 0.419,-5.099 2.85,-5.956 c 1.474,-0.52 3.034,-0.249 4.225,0.58 c 0.407,-1.393 1.451,-2.584 2.928,-3.104 c 2.431,-0.857 5.097,0.419 5.956,2.85 Z" fill="#DD2E44"/>
	<path d="M 19.774,5.117 c 0.859,-2.431 3.525,-3.707 5.956,-2.85 c 1.477,0.52 2.521,1.711 2.929,3.104 c 1.191,-0.829 2.751,-1.1 4.225,-0.58 c 2.43,0.857 3.707,3.525 2.85,5.956 c -0.123,0.345 -0.284,0.663 -0.473,0.958 c -1.951,3.582 -7.588,6.1 -11.002,6.131 c -2.637,-2.167 -5.445,-7.664 -4.717,-11.677 c 0.038,-0.349 0.113,-0.698 0.232,-1.042 Z" fill="#DD2E44"/>
	</svg>
