<svg viewBox="0 0 36 36" xmlns="http://www.w3.org/2000/svg">
	<use href="F.svg#bg.normal" color="#FFCC4D"/>
	<circle fill="#FF7892" cx="7" cy="18" r="5"/>
	<circle fill="#FF7892" cx="29" cy="18" r="5"/>
	<path d="M 27.335,21.629 c 0.178,0.16 0.217,0.423 0.094,0.628 c -0.128,0.215 -3.217,5.243 -9.429,5.243 s -9.3,-5.028 -9.429,-5.243 c -0.123,-0.204 -0.083,-0.468 0.094,-0.628 c 0.178,-0.159 0.444,-0.171 0.635,-0.029 c 0.038,0.029 3.934,2.9 8.7,2.9 c 4.778,0 8.661,-2.871 8.7,-2.9 c 0.191,-0.142 0.457,-0.132 0.635,0.029 Z" fill="#664500" />
	<path d="M 7.999,15 c -0.15,0 -0.303,-0.034 -0.446,-0.106 c -0.494,-0.247 -0.694,-0.848 -0.447,-1.342 c 0.052,-0.104 1.318,-2.552 4.894,-2.552 c 3.577,0 4.842,2.449 4.894,2.553 c 0.247,0.494 0.047,1.095 -0.447,1.342 c -0.492,0.245 -1.085,0.049 -1.336,-0.436 c -0.043,-0.08 -0.83,-1.459 -3.111,-1.459 c -2.317,0 -3.099,1.433 -3.106,1.447 c -0.175,0.351 -0.528,0.553 -0.895,0.553 Z" fill="#664500" />
	<path d="M 28.001,15 c -0.367,0 -0.72,-0.202 -0.896,-0.553 c -0.025,-0.046 -0.806,-1.447 -3.105,-1.447 s -3.08,1.401 -3.112,1.46 c -0.26,0.481 -0.859,0.67 -1.345,0.42 c -0.485,-0.252 -0.682,-0.839 -0.438,-1.328 c 0.052,-0.103 1.318,-2.552 4.895,-2.552 s 4.843,2.449 4.895,2.553 c 0.247,0.494 0.047,1.095 -0.447,1.342 c -0.144,0.071 -0.297,0.105 -0.447,0.105 Z" fill="#664500" />
	</svg>
