<!--<svg xmlns="http://www.w3.org/2000/svg" viewBox="0 0 36 36">
	<g>
		<path fill="#FFCC4D" d="M 36,18 c 0,9.941 -8.059,18 -18,18 s -18,-8.059 -18,-18 s 8.059,-18 18,-18 s 18,8.059 18,18 Z"/>
	</g>
	<g>
		<path fill="#664500" d="M 16.0005,16.9585 c -0.419,0 -0.81,-0.265 -0.949,-0.684 c -0.203,-0.599 -1.017,-2.316 -2.051,-2.316 c -1.062,0 -1.889,1.827 -2.052,2.316 c -0.175,0.524 -0.738,0.808 -1.264,0.632 c -0.524,-0.174 -0.808,-0.74 -0.633,-1.264 c 0.126,-0.377 1.304,-3.684 3.949,-3.684 c 2.644,0 3.823,3.307 3.948,3.684 c 0.175,0.524 -0.108,1.09 -0.632,1.264 c -0.105,0.035 -0.212,0.052 -0.316,0.052 Z"/>
		<path fill="#664500" d="M 26,16.9585 c -0.419,0 -0.809,-0.265 -0.948,-0.684 c -0.203,-0.599 -1.019,-2.316 -2.052,-2.316 c -1.062,0 -1.889,1.827 -2.052,2.316 c -0.175,0.524 -0.736,0.808 -1.264,0.632 c -0.524,-0.174 -0.807,-0.74 -0.632,-1.264 c 0.125,-0.377 1.303,-3.684 3.948,-3.684 s 3.823,3.307 3.948,3.684 c 0.175,0.524 -0.108,1.09 -0.632,1.264 c -0.105,0.035 -0.212,0.052 -0.316,0.052 Z"/>
		<path fill="#664500" d="M 27.335,20.6914 c -0.178,-0.161 -0.444,-0.171 -0.635,-0.029 c -0.039,0.029 -3.922,2.9 -8.7,2.9 c -4.766,0 -8.662,-2.871 -8.7,-2.9 c -0.191,-0.142 -0.457,-0.13 -0.635,0.029 c -0.177,0.16 -0.217,0.424 -0.094,0.628 c 0.129,0.215 3.217,5.243 9.429,5.243 s 9.301,-5.028 9.429,-5.243 c 0.123,-0.205 0.084,-0.468 -0.094,-0.628 Z"/>
	</g>
	<g>
		<path fill="#FFAC33" d="M 21.2295,3.9473 c 0,0.24 0.03,0.472 0.082,0.696 c 0.426,2.642 3.364,5.431 5.47,6.197 c 1.665,-0.606 3.846,-2.477 4.898,-4.539 c -2.089,-2.44 -4.819,-4.314 -7.929,-5.363 c -1.432,0.257 -2.521,1.503 -2.521,3.009 Z"/>
		<path fill="#FFAC33" d="M 13.7432,29.0781 c 0.057,-0.242 0.09,-0.494 0.09,-0.754 c 0,-1.833 -1.486,-3.318 -3.319,-3.318 c -1.112,0 -2.094,0.549 -2.696,1.388 c -0.603,-0.839 -1.585,-1.388 -2.697,-1.388 c -1.241,0 -2.311,0.689 -2.88,1.698 c 1.824,3.294 4.65,5.956 8.068,7.574 c 1.636,-1.352 3.13,-3.308 3.434,-5.2 Z"/>
		<path fill="#FFAC33" d="M 34.3008,25.6426 c -0.282,-0.951 -1.151,-1.648 -2.193,-1.648 c -0.771,0 -1.451,0.38 -1.869,0.962 c -0.417,-0.582 -1.096,-0.962 -1.867,-0.962 c -1.269,0 -2.299,1.029 -2.299,2.298 c 0,0.181 0.023,0.355 0.062,0.523 c 0.307,1.905 2.348,3.895 3.909,4.56 c 1.776,-1.598 3.23,-3.545 4.257,-5.733 Z"/>
	</g>
	<g>
		<path fill="#BE1931" d="M 33.625,3.269 c 0,-1.692 -1.371,-3.063 -3.063,-3.063 c -1.027,0 -1.933,0.506 -2.49,1.281 c -0.555,-0.775 -1.462,-1.281 -2.488,-1.281 c -1.692,0 -3.063,1.371 -3.063,3.063 c 0,0.24 0.03,0.472 0.082,0.695 c 0.425,2.643 3.364,5.431 5.469,6.197 c 2.107,-0.766 5.045,-3.554 5.47,-6.196 c 0.053,-0.224 0.083,-0.456 0.083,-0.696 Z"/>
		<path fill="#BE1931" d="M 12.2085,28.4082 c 0,-1.834 -1.486,-3.319 -3.319,-3.319 c -1.113,0 -2.095,0.548 -2.697,1.388 c -0.602,-0.84 -1.584,-1.388 -2.696,-1.388 c -1.833,0 -3.319,1.485 -3.319,3.319 c 0,0.259 0.032,0.511 0.089,0.753 c 0.461,2.863 3.644,5.885 5.926,6.714 c 2.282,-0.829 5.466,-3.851 5.926,-6.714 c 0.057,-0.242 0.09,-0.494 0.09,-0.753 Z"/>
		<path fill="#BE1931" d="M 35.9482,26.127 c 0,-1.27 -1.029,-2.299 -2.299,-2.299 c -0.77,0 -1.451,0.38 -1.868,0.962 c -0.417,-0.582 -1.098,-0.962 -1.868,-0.962 c -1.27,0 -2.299,1.029 -2.299,2.299 c 0,0.18 0.023,0.354 0.063,0.521 c 0.319,1.984 2.524,4.077 4.104,4.651 c 1.58,-0.574 3.785,-2.667 4.105,-4.65 c 0.039,-0.168 0.062,-0.342 0.062,-0.522 Z"/>
	</g>
</svg>
-->

<svg viewBox="0 0 36 36" xmlns="http://www.w3.org/2000/svg">
	<!-- i love this emoji but gosh the alignment is   nonexistent -->
	
	<defs>
		<clipPath id="circle">
			<circle r="18" cx="18" cy="18"/>
		</clipPath>
	</defs>
	
	<use href="F.svg#bg.normal" color="#FFCC4D"/>
	
	<use id="mouth" href="F.svg#mouth.smiling2" x="18" y="26.5624" color="#664500"/>
	
	<use id="eye1" href="F.svg#eye.smiling" x="13" y="12.9585" color="#664500"/>
	<use id="eye2" href="F.svg#eye.smiling" x="23" y="12.9585" color="#664500"/>
	
	<!-- heart shadows -->
	<!--<path d="M 21.229,3.947 c 0,-1.506 1.089,-2.751 2.521,-3.008 c 3.11,1.048 5.84,2.922 7.929,5.362 c -1.052,2.063 -3.233,3.934 -4.898,4.539 c -2.106,-0.766 -5.045,-3.554 -5.47,-6.197 c -0.052,-0.224 -0.082,-0.456 -0.082,-0.696 Z M 13.743,29.078 c -0.304,1.892 -1.798,3.848 -3.435,5.199 c -3.418,-1.617 -6.244,-4.279 -8.068,-7.574 c 0.569,-1.009 1.639,-1.698 2.88,-1.698 c 1.113,0 2.095,0.55 2.697,1.389 c 0.603,-0.84 1.584,-1.389 2.697,-1.389 c 1.833,0 3.319,1.486 3.319,3.319 c 0,0.26 -0.033,0.512 -0.09,0.754 Z M 34.301,25.642 c -1.027,2.188 -2.482,4.135 -4.258,5.735 c -1.561,-0.665 -3.602,-2.656 -3.909,-4.561 c -0.039,-0.168 -0.062,-0.342 -0.062,-0.522 c 0,-1.27 1.029,-2.299 2.299,-2.299 c 0.771,0 1.451,0.38 1.868,0.962 c 0.417,-0.582 1.097,-0.962 1.868,-0.962 c 1.042,0 1.912,0.697 2.194,1.647 Z" fill="#FFAC33" />-->
	<g>
		<g fill="#FFAC33" clip-path="url(#circle)">
			could also use #FF6D0056 to produce the same color
			<use href="F.svg#heart" transform="translate(26.781 10.84) scale(.3104)"/>
			<use href="F.svg#heart" transform="translate(7.816 35.792) scale(.3364)"/>
			<use href="F.svg#heart" transform="translate(30.239 31.466) scale(.233)"/>
		</g>
		
		<g fill="#DD2E44">
			<use href="F.svg#heart" transform="translate(28.073 10.162) scale(.3104)"/>
			<use href="F.svg#heart" transform="translate(6.191 35.876) scale(.3364)"/>
			<use href="F.svg#heart" transform="translate(31.781 31.299) scale(.233)"/>
		</g>
	</g>
</svg>
