<svg viewBox="0 0 36 36" xmlns="http://www.w3.org/2000/svg">
	<use href="F.svg#bg.normal" color="#FFCC4D"/>
	<ellipse fill="#664500" cx="12" cy="13.5" rx="2.5" ry="3.5"/>
	<ellipse fill="#664500" cx="24" cy="13.5" rx="2.5" ry="3.5"/>
	<path d="M 27.335,22.629 c 0.178,0.16 0.217,0.423 0.094,0.628 c -0.128,0.215 -3.217,5.243 -9.429,5.243 s -9.3,-5.028 -9.429,-5.243 c -0.123,-0.204 -0.083,-0.468 0.094,-0.628 c 0.178,-0.159 0.444,-0.171 0.635,-0.029 c 0.038,0.029 3.934,2.9 8.7,2.9 c 4.778,0 8.661,-2.871 8.7,-2.9 c 0.191,-0.142 0.457,-0.132 0.635,0.029 Z" fill="#664500" />
	<path d="M 29.5,27.5 c 0,2.762 -2.238,5 -5,5 s -5,-2.238 -5,-5 s 4,-10 5,-10 s 5,7.238 5,10 Z" fill="#5DADEC" />
	</svg>
