<svg viewBox="0 0 36 36" xmlns="http://www.w3.org/2000/svg">
	<use href="F.svg#bg.normal" color="#FFCC4D"/>
	<path d="M 24.327,23.622 c 0.153,0.133 0.211,0.344 0.147,0.536 c -0.386,1.157 -1.817,3.342 -4.475,3.342 h-7.008 c -0.087,-0.002 -0.169,-0.025 -0.24,-0.065 v-0.001 h-0.001 v-0.001 c -0.149,-0.086 -0.25,-0.248 -0.25,-0.433 c 0,-0.276 0.224,-0.5 0.5,-0.5 c 0.049,0 4.905,-0.012 6.776,-0.947 l 4,-2 c 0.183,-0.09 0.398,-0.063 0.551,0.069 Z" fill="#664500" />
	<path d="M 31.001,16 c -0.305,0 -0.604,-0.138 -0.801,-0.4 c -2.641,-3.521 -6.061,-3.599 -6.206,-3.6 c -0.55,-0.006 -0.994,-0.456 -0.991,-1.005 c 0.003,-0.551 0.447,-0.995 0.997,-0.995 c 0.184,0 4.537,0.05 7.8,4.4 c 0.332,0.442 0.242,1.069 -0.2,1.4 c -0.18,0.135 -0.39,0.2 -0.599,0.2 Z" fill="#664500" />
	<path d="M 4.999,16 c -0.208,0 -0.419,-0.065 -0.599,-0.2 c -0.442,-0.331 -0.531,-0.958 -0.2,-1.4 c 3.262,-4.35 7.616,-4.4 7.8,-4.4 c 0.552,0 1,0.448 1,1 c 0,0.551 -0.445,0.998 -0.996,1 c -0.156,0.002 -3.569,0.086 -6.205,3.6 c -0.195,0.262 -0.496,0.4 -0.8,0.4 Z" fill="#664500" />
	<path d="M 15.897,17.396 c 0.061,0.192 0.103,0.392 0.103,0.604 c 0,1.104 -0.896,2 -2,2 s -2,-0.896 -2,-2 c 0,-0.078 0.014,-0.153 0.023,-0.229 c -1.106,0.066 -2.376,0.332 -3.468,1.061 c -0.171,0.113 -0.364,0.168 -0.554,0.168 c -0.323,0 -0.64,-0.156 -0.832,-0.446 c -0.306,-0.46 -0.182,-1.081 0.277,-1.387 c 3.33,-2.218 7.617,-1.183 7.797,-1.138 c 0.535,0.134 0.861,0.677 0.727,1.213 c -0.014,0.058 -0.05,0.102 -0.073,0.154 Z" fill="#664500" />
	<path d="M 27.896,17.395 c 0.062,0.192 0.104,0.393 0.104,0.605 c 0,1.104 -0.896,2 -2,2 s -2,-0.896 -2,-2 c 0,-0.078 0.015,-0.152 0.024,-0.228 c -1.108,0.066 -2.377,0.331 -3.469,1.06 c -0.171,0.113 -0.364,0.168 -0.554,0.168 c -0.323,0 -0.641,-0.156 -0.833,-0.445 c -0.307,-0.46 -0.183,-1.081 0.277,-1.387 c 3.331,-2.218 7.617,-1.183 7.797,-1.138 c 0.536,0.134 0.862,0.677 0.727,1.213 c -0.014,0.057 -0.05,0.1 -0.073,0.152 Z" fill="#664500" />
	</svg>
