<svg viewBox="0 0 36 36" xmlns="http://www.w3.org/2000/svg">
	<use href="F.svg#bg.normal" color="#FFCC4D"/>
	<path d="M 6.001,19 c 0.208,0 0.419,-0.065 0.599,-0.2 c 0.037,-0.028 3.787,-2.8 8.4,-2.8 c 0.404,0 0.769,-0.243 0.924,-0.617 s 0.069,-0.804 -0.217,-1.09 c -3.255,-3.255 -8.486,-3.293 -8.707,-3.293 c -0.552,0 -0.999,0.447 -0.999,0.998 c -0.001,0.552 0.446,1 0.998,1.002 c 0.035,0 2.782,0.027 5.257,1.268 c -3.905,0.75 -6.713,2.826 -6.856,2.933 c -0.442,0.331 -0.532,0.958 -0.2,1.399 c 0.197,0.262 0.497,0.4 0.801,0.4 Z" fill="#664500" />
	<path d="M 29.999,18.999 c -0.208,0 -0.418,-0.064 -0.598,-0.198 c -0.038,-0.029 -3.811,-2.801 -8.401,-2.801 c -0.404,0 -0.77,-0.243 -0.924,-0.617 c -0.155,-0.374 -0.069,-0.804 0.217,-1.09 c 3.256,-3.255 8.486,-3.293 8.707,-3.293 c 0.552,0 0.998,0.447 0.999,0.998 c 0.001,0.552 -0.446,1 -0.997,1.002 c -0.036,0 -2.783,0.027 -5.258,1.268 c 3.905,0.75 6.713,2.825 6.855,2.933 c 0.441,0.331 0.531,0.956 0.201,1.398 c -0.196,0.261 -0.496,0.4 -0.801,0.4 Z" fill="#664500" />
	<path d="M 16,29 c 2,-5 13,-5 13,-3 c 0,1 -8,-1 -13,3 Z" fill="#664500" />
	<path d="M 18.406,18.033 c 2.678,2.676 -3.974,15.524 -5.25,16.8 c -1.05,1.05 -4.2,1.05 -5.25,-1.05 s -4.2,0 -5.25,-1.05 c -2.1,-2.1 1.05,-3.15 0,-5.25 s -3.15,-3.15 -1.05,-5.25 s 7.35,-1.05 10.5,-3.15 s 5.249,-2.1 6.3,-1.05 Z" fill="#CCD6DD" />
	<path d="M 17.322,19.872 c 0.034,0.133 0.043,0.272 0.025,0.412 c -1.104,7.725 -7.534,12.091 -7.807,12.274 c -0.179,0.119 -0.381,0.176 -0.581,0.176 c -0.339,0 -0.671,-0.165 -0.874,-0.467 c -0.322,-0.482 -0.193,-1.133 0.288,-1.456 c 0.043,-0.03 3.205,-2.2 5.273,-6.025 c -3.37,2.942 -7.202,4.616 -7.425,4.712 c -0.135,0.058 -0.275,0.085 -0.413,0.085 c -0.407,0 -0.794,-0.238 -0.965,-0.636 c -0.229,-0.533 0.017,-1.15 0.55,-1.379 c 0.071,-0.031 7.079,-3.085 10.013,-7.975 c 0.072,-0.12 0.167,-0.223 0.278,-0.305 c 0.035,-0.026 0.077,-0.035 0.115,-0.056 c 0.08,-0.046 0.158,-0.094 0.249,-0.117 c 0.132,-0.033 0.269,-0.041 0.406,-0.022 h0.001 c 0.289,0.041 0.533,0.197 0.694,0.415 c 0.044,0.059 0.064,0.128 0.094,0.194 c 0.026,0.057 0.063,0.108 0.079,0.17 Z" fill="#F5F8FA" />
	</svg>
