<svg viewBox="0 0 36 36" xmlns="http://www.w3.org/2000/svg">
	<use href="F.svg#bg.normal" color="#FFCC4D"/>
	<use href="F.svg#eye_squinting" x="7" y="12"/>
	<use href="F.svg#eye_squinting" transform="translate(29 12) scale(-1 1)"/>
	<path d="M 16,29 c 2,-5 13,-5 13,-3 c 0,1 -8,-1 -13,3 Z" fill="#664500" />
	<g transform="translate(18.406 18.033) scale(1.05)">
		<path d="M 0,0 c 2.5505,2.5486 -3.7848,14.7848 -5,16 c -1,1 -4,1 -5,-1 s -4,0 -5,-1 c -2,-2 1,-3 0,-5 s -3,-3 -1,-5 s 7,-1 10,-3 s 5,-2 6,-1 Z"  fill="#CCD6DD"/>
		<path d="M -12,10 s 7,-3 10,-8 c -1,7 -7,11 -7,11" stroke-width="2" stroke-linecap="round" stroke-linejoin="round" fill="none" stroke="#F5F8FA"/>
	</g>
</svg>
