<svg xmlns="http://www.w3.org/2000/svg" viewBox="0 0 36 36">
	<ellipse rx="3.678" ry="5.335" transform="translate(5.801 17) rotate(-14.3)" fill="#D79E84"/>
	<ellipse rx="3.678" ry="5.335" transform="translate(30.2 17) rotate(14.3)" fill="#D79E84"/>
	
	<use href="F.svg#bg.monkey"/>
	
	<path d="M 0,36 v-8 l 11,-2 l 3,6 l -14,4 Z" fill="#BF6952" />
	<path d="M 12.369,25.001 c 1.5,-0.813 6.345,-1.842 7.938,-1.78 s 1.926,1.76 1.031,2.531 c -0.906,0.781 -3.75,1.531 -3.75,1.531 s 2.986,-0.5 4.188,-0.469 c 1.218,0.031 1.906,1.813 0.656,2.625 c -0.903,0.587 -4.156,1.281 -4.156,1.281 s 3.094,-0.5 4.219,-0.25 c 1.251,0.278 1.5,1.968 0.406,2.656 s -4.625,1.469 -8.688,1.594 s -5.875,-1.626 -6.594,-3.844 s 0.5,-7.468 1.469,-9.656 c 0.793,-1.79 3.344,-0.844 3.375,1.062 c 0.024,1.459 -0.094,2.719 -0.094,2.719 Z" fill="#D79E84" stroke="#BF6952" stroke-width="1" stroke-linejoin="round"/>
	<path d="M 9.643,21.265 c -0.032,0.053 -0.07,0.092 -0.1,0.157 c -0.564,1.274 -1.143,3.392 -1.439,5.365 l -0.155,1.268 l -2.998,-0.879 l 2.148,-0.45 c 0.328,-2.211 0.999,-4.507 1.531,-5.708 c 0.059,-0.133 0.128,-0.253 0.204,-0.366 c 0.248,0.21 0.519,0.414 0.809,0.613 Z" fill="#9B3C07" />
	
	<path d="M 36,36 l -14,-4 l 3,-6 l 11,2 v8 Z" fill="#BF6952" />
	<path d="M 23.631,25.001 s -0.118,-1.26 -0.094,-2.719 c 0.031,-1.906 2.582,-2.852 3.375,-1.062 c 0.969,2.188 2.188,7.438 1.469,9.656 s -2.531,3.969 -6.594,3.844 s -7.594,-0.906 -8.688,-1.594 s -0.845,-2.378 0.406,-2.656 c 1.125,-0.25 4.219,0.25 4.219,0.25 s -3.253,-0.694 -4.156,-1.281 c -1.25,-0.812 -0.562,-2.594 0.656,-2.625 c 1.202,-0.031 4.188,0.469 4.188,0.469 s -2.844,-0.75 -3.75,-1.531 c -0.895,-0.771 -0.562,-2.469 1.031,-2.531 s 6.438,0.967 7.938,1.78 Z" fill="#D79E84" stroke="#BF6952" stroke-width="1" stroke-linejoin="round"/>
	<path d="M 28.916,26.823 l 2.154,0.353 l -3.021,0.88 c -0.189,-2.268 -0.906,-5.08 -1.594,-6.634 c -0.028,-0.061 -0.06,-0.11 -0.091,-0.161 c 0.273,-0.2 0.535,-0.408 0.789,-0.624 c 0.081,0.117 0.155,0.242 0.216,0.381 c 0.54,1.218 1.225,3.565 1.547,5.805 Z" fill="#9B3C07" />
</svg>
