<svg viewBox="0 0 36 36" xmlns="http://www.w3.org/2000/svg">
	<circle cx="18" cy="18" r="18" fill="#FFCC4D" />
	<path d="M 6.001,20 c 0.208,0 0.419,-0.065 0.599,-0.2 c 0.037,-0.028 3.787,-2.8 8.4,-2.8 c 0.404,0 0.769,-0.243 0.924,-0.617 s 0.069,-0.804 -0.217,-1.09 c -3.255,-3.255 -8.486,-3.293 -8.707,-3.293 c -0.552,0 -0.999,0.447 -0.999,0.998 c -0.001,0.552 0.446,1 0.998,1.002 c 0.035,0 2.782,0.027 5.257,1.268 c -3.905,0.75 -6.713,2.826 -6.856,2.933 c -0.442,0.331 -0.532,0.958 -0.2,1.399 c 0.197,0.262 0.497,0.4 0.801,0.4 Z" fill="#66471B" />
	<path d="M 29.999,19.999 c -0.208,0 -0.418,-0.064 -0.598,-0.198 c -0.038,-0.029 -3.811,-2.801 -8.401,-2.801 c -0.404,0 -0.77,-0.243 -0.924,-0.617 c -0.155,-0.374 -0.069,-0.804 0.217,-1.09 c 3.256,-3.255 8.486,-3.293 8.707,-3.293 c 0.552,0 0.998,0.447 0.999,0.998 c 0.001,0.552 -0.446,1 -0.997,1.002 c -0.036,0 -2.783,0.027 -5.258,1.268 c 3.905,0.75 6.713,2.825 6.855,2.933 c 0.441,0.331 0.531,0.956 0.201,1.398 c -0.196,0.261 -0.496,0.4 -0.801,0.4 Z" fill="#66471B" />
	<path d="M 7,21.263 c 11.667,2.756 22,0 22,0 c 0,4 -4.596,9 -11,9 s -11,-5.036 -11,-9 Z" fill="#66471B" />
	<path d="M 18.545,23.604 c 1.668,-0.017 3.533,-0.165 5.455,-0.56 v6.92 c 0,3 -2,6 -6,6 s -6,-3 -6,-6 v-6.961 s 2.238,0.522 5.454,0.596 l 1.091,0.005 Z" fill="#E8596E" />
	<path d="M 18,31.844 c -0.301,0 -0.545,-0.244 -0.546,-0.545 v-7.699 l 1.091,0.005 v7.694 c 0,0.301 -0.244,0.545 -0.545,0.545 Z" fill="#DD2F45" />
	</svg>
