<svg viewBox="0 0 36 36" xmlns="http://www.w3.org/2000/svg">
	<use href="F.svg#bg.normal" color="#FFCC4D"/>
	<use href="F.svg#mouth_grinning" x="18" y="31"/>
	<!-- stars -->
	<path d="M 15.682,4.413 c 0.532,-0.093 1.071,0.168 1.325,0.65 c 0.252,0.482 0.165,1.072 -0.217,1.459 l -3.165,3.208 l 2.348,4.268 c 0.261,0.475 0.187,1.064 -0.185,1.459 s -0.956,0.504 -1.446,0.272 l -4.518,-2.145 l -3.512,3.561 c -0.241,0.244 -0.564,0.372 -0.891,0.372 c -0.191,0 -0.383,-0.043 -0.562,-0.133 c -0.484,-0.245 -0.756,-0.773 -0.673,-1.309 l 0.748,-4.812 l -4.07,-1.932 c -0.492,-0.234 -0.776,-0.758 -0.703,-1.297 s 0.486,-0.97 1.021,-1.064 l 4.542,-0.801 l 0.745,-4.797 c 0.082,-0.528 0.492,-0.946 1.019,-1.039 c 0.524,-0.092 1.054,0.159 1.312,0.628 l 2.34,4.253 l 4.542,-0.801 Z" fill="#E95F28" />
	<path d="M 20.318,4.413 l 4.542,0.801 l 2.34,-4.253 c 0.258,-0.469 0.788,-0.72 1.312,-0.628 c 0.526,0.093 0.936,0.511 1.018,1.039 l 0.745,4.797 l 4.542,0.801 c 0.536,0.094 0.949,0.524 1.021,1.063 s -0.211,1.063 -0.703,1.297 l -4.07,1.932 l 0.748,4.812 c 0.083,0.536 -0.189,1.064 -0.673,1.309 c -0.179,0.09 -0.371,0.133 -0.562,0.133 c -0.327,0 -0.65,-0.128 -0.891,-0.372 l -3.512,-3.561 l -4.518,2.145 c -0.49,0.232 -1.074,0.123 -1.446,-0.272 s -0.446,-0.984 -0.185,-1.459 l 2.348,-4.267 l -3.165,-3.208 c -0.382,-0.387 -0.469,-0.977 -0.217,-1.459 c 0.255,-0.482 0.794,-0.743 1.326,-0.65 Z" fill="#E95F28" />
</svg>
