<svg viewBox="0 0 36 36" xmlns="http://www.w3.org/2000/svg">
	<defs>
		<path id="star1" d="M 0,0 l 4.8012,14.08315 l -12.16252,-8.64196 h14.72264 l -12.16252,8.64196 l 4.8012,-14.08315 Z" stroke-width="2.5" stroke-linejoin="round" stroke="#e95f28" fill="#e95f28"/>
	</defs>
	
	<use href="F.svg#bg.normal" color="#FFCC4D"/>
	
	<use href="F.svg#mouth_grinning" x="18" y="31"/>
	
	<!--<path d="M 1.40017,8.2012 l 4.02143,8.06602 l 9.45629,-1.6677 l 1.02086,-8.95528 l -8.1942,-4.07986"/>
	<path d="M 1.40026,8.20112 l 4.02095,8.06658 l 9.45658,-1.66828 l 1.02171,-8.9553 l -8.1951,-4.08009"/>
	
	<path d="M 0,-7.81508 l 7.43258,5.40009 l -2.83899,8.73752 h-9.18718 l -2.83899,-8.73752 Z"/> generated star-->
	
	<use href="#star1" transform="translate(7.70448,1.5642) rotate(-10)"/>
	<use href="#star1" transform="matrix(-1 0 0 1 36 0) translate(7.70448,1.5642) rotate(-10)"/>
	
<!--	<path d="M 34.8176,6.9702 l -4.542,-0.801 l -0.745,-4.797 c -0.082,-0.528 -0.491,-0.946 -1.019,-1.039 c -0.528,-0.094 -1.054,0.16 -1.311,0.628 l -2.341,4.253 l -4.542,-0.801 c -0.538,-0.095 -1.072,0.169 -1.323,0.65 c -0.253,0.481 -0.166,1.072 0.217,1.459 l 3.163,3.207 l -2.348,4.268 c -0.262,0.475 -0.188,1.064 0.185,1.459 c 0.373,0.396 0.955,0.504 1.446,0.273 l 4.518,-2.145 l 3.513,3.561 c 0.24,0.243 0.563,0.372 0.89,0.372 c 0.191,0 0.384,-0.044 0.561,-0.133 c 0.486,-0.245 0.757,-0.773 0.674,-1.309 l -0.747,-4.813 l 4.07,-1.932 c 0.492,-0.233 0.776,-0.757 0.702,-1.297 c -0.072,-0.539 -0.485,-0.969 -1.021,-1.063 Z" fill="#e95f28"/>
	<path d="M 15.6823,4.4131 l -4.542,0.801 l -2.341,-4.253 c -0.258,-0.469 -0.787,-0.719 -1.312,-0.628 c -0.527,0.093 -0.936,0.511 -1.018,1.039 l -0.745,4.797 l -4.542,0.801 c -0.536,0.094 -0.949,0.525 -1.021,1.064 c -0.073,0.539 0.211,1.063 0.702,1.296 l 4.07,1.933 l -0.747,4.812 c -0.083,0.536 0.189,1.065 0.673,1.309 c 0.179,0.09 0.371,0.133 0.562,0.133 c 0.327,0 0.65,-0.128 0.89,-0.372 l 3.513,-3.561 l 4.518,2.145 c 0.489,0.232 1.073,0.123 1.446,-0.273 c 0.372,-0.394 0.446,-0.984 0.185,-1.459 l -2.348,-4.267 l 3.164,-3.208 c 0.382,-0.387 0.47,-0.977 0.217,-1.459 s -0.792,-0.743 -1.324,-0.65 Z" fill="#e95f28"/>-->
	
</svg>
