<svg viewBox="0 0 36 36" xmlns="http://www.w3.org/2000/svg">
	<use href="F.svg#bg.normal" color="#FFCC4D"/>
	
	<use href="F.svg#mouth_grinning" x="18" y="31"/>
	
	<!-- stars -->
	<path d="M 15.682,4.413 a 1.25,1.25 0 01 1.108,2.109 l -3.165,3.208 l 2.348,4.268 a 1.25,1.25 0 01 -1.631,1.731 l -4.518,-2.145 l -3.512,3.561 a 1.25,1.25 0 01 -2.126,-1.07 l 0.748,-4.812 l -4.07,-1.932 a 1.25,1.25 0 01 0.318,-2.361 l 4.542,-0.801 l 0.745,-4.797 a 1.25,1.25 0 01 2.331,-0.411 l 2.34,4.253 l 4.542,-0.801 Z"  fill="#E95F28" />
	<path d="M 20.318,4.413 l 4.542,0.801 l 2.34,-4.253 a 1.25,1.25 0 01 2.33,0.411 l 0.745,4.797 l 4.542,0.801 a 1.25,1.25 0 01 0.318,2.36 l -4.07,1.932 l 0.748,4.812 a 1.25,1.25 0 01 -2.126,1.07 l -3.512,-3.561 l -4.518,2.145 a 1.25,1.25 0 01 -1.631,-1.731 l 2.348,-4.267 l -3.165,-3.208 a 1.25,1.25 0 01 1.109,-2.109 Z"  fill="#E95F28" />
</svg>
