<svg viewBox="0 0 36 36" xmlns="http://www.w3.org/2000/svg">
	<circle fill="#FFCC4D" cx="18" cy="17.018" r="17"/>
	<path d="M 14.524,21.036 c -0.145,-0.116 -0.258,-0.274 -0.312,-0.464 c -0.134,-0.46 0.13,-0.918 0.59,-1.021 c 4.528,-1.021 7.577,1.363 7.706,1.465 c 0.384,0.306 0.459,0.845 0.173,1.205 c -0.286,0.358 -0.828,0.401 -1.211,0.097 c -0.11,-0.084 -2.523,-1.923 -6.182,-1.098 c -0.274,0.061 -0.554,-0.016 -0.764,-0.184 Z" fill="#664500" />
	<ellipse fill="#664500" cx="13.119" cy="11.174" rx="2.125" ry="2.656"/>
	<ellipse fill="#664500" cx="24.375" cy="12.236" rx="2.125" ry="2.656"/>
	<path d="M 17.276,35.149 l -3.152,0.681 c -3.575,0.828 -7.124,-1.473 -7.952,-5.048 c -0.758,-3.278 0.381,-4.816 2.83,-6.973 c 1.041,-0.918 1.437,-2.439 0.833,-4.293 c -0.403,-1.24 0.405,-1.951 1.542,-1.561 c 0.729,0.25 1.36,0.978 1.734,1.899 c 0.201,0.496 0.552,1.774 0.433,2.809 c -0.113,0.984 -0.438,1.577 -0.946,2.113 c -0.381,0.402 -0.136,0.639 0.404,0.512 l 1.439,-0.334 c 2.156,-0.502 8.406,-1.953 8.9,-2.068 c 0.493,-0.115 1.448,-0.077 1.697,1.003 c 0.251,1.079 -0.553,1.574 -1.069,1.694 c -0.518,0.12 -5.556,1.341 -5.556,1.341 s 1.033,0.469 0.995,1.428 c -0.046,1.139 -1.016,1.539 -1.016,1.539 s 0.984,0.262 0.861,1.363 c -0.131,1.168 -1.172,1.376 -1.172,1.376 s 0.797,0.195 0.624,1.167 c -0.164,0.941 -1.429,1.352 -1.429,1.352 Z" fill="#F19020" />
	<path d="M 9.296,6.351 c -0.164,-0.088 -0.303,-0.224 -0.391,-0.399 c -0.216,-0.428 -0.04,-0.927 0.393,-1.112 c 4.266,-1.831 7.699,-0.043 7.843,0.034 c 0.433,0.231 0.608,0.747 0.391,1.154 c -0.216,0.405 -0.74,0.546 -1.173,0.318 c -0.123,-0.063 -2.832,-1.432 -6.278,0.047 c -0.257,0.109 -0.547,0.085 -0.785,-0.042 Z" fill="#664500" />
	<path d="M 21.431,10.101 c -0.156,-0.098 -0.286,-0.243 -0.362,-0.424 c -0.187,-0.442 0.023,-0.927 0.468,-1.084 c 4.381,-1.536 7.685,0.48 7.823,0.567 c 0.415,0.26 0.555,0.787 0.312,1.178 c -0.242,0.39 -0.776,0.495 -1.191,0.238 c -0.12,-0.072 -2.727,-1.621 -6.267,-0.379 c -0.266,0.091 -0.553,0.046 -0.783,-0.096 Z" fill="#664500" />
	</svg>
