<svg viewBox="0 0 36 36" xmlns="http://www.w3.org/2000/svg">
	<circle fill="#FFCC4D" cx="18" cy="17.018" r="17"/>
	<!-- mouth -->
	<use href="F.svg#eyebrow.2" transform="translate(21.989 21.667) rotate(38.5) scale(0.89 0.83)" color="#664500"/>
	<!-- eyes -->
	<ellipse fill="#664500" cx="13.119" cy="11.174" rx="2.125" ry="2.656"/>
	<ellipse fill="#664500" cx="24.375" cy="12.236" rx="2.125" ry="2.656"/>
	<!-- eyebrows -->
	<use href="F.svg#eyebrow.2" transform="translate(16.75 5.61) rotate(28) scale(0.89 0.83)" color="#664500"/>
	<use href="F.svg#eyebrow.2" transform="translate(28.9205 9.868) rotate(31.9) scale(0.89 0.83)" color="#664500"/>
	<!-- hand -->
	<path d="M 17.276,35.149 l -3.152,0.681 c -3.575,0.828 -7.124,-1.473 -7.952,-5.048 c -0.758,-3.278 0.381,-4.816 2.83,-6.973 c 1.041,-0.918 1.437,-2.439 0.833,-4.293 c -0.403,-1.24 0.405,-1.951 1.542,-1.561 c 0.729,0.25 1.36,0.978 1.734,1.899 c 0.201,0.496 0.552,1.774 0.433,2.809 c -0.113,0.984 -0.438,1.577 -0.946,2.113 c -0.381,0.402 -0.136,0.639 0.404,0.512 l 1.439,-0.334 c 2.156,-0.502 8.406,-1.953 8.9,-2.068 c 0.493,-0.115 1.448,-0.077 1.697,1.003 c 0.251,1.079 -0.553,1.574 -1.069,1.694 c -0.518,0.12 -5.556,1.341 -5.556,1.341 s 1.033,0.469 0.995,1.428 c -0.046,1.139 -1.016,1.539 -1.016,1.539 s 0.984,0.262 0.861,1.363 c -0.131,1.168 -1.172,1.376 -1.172,1.376 s 0.797,0.195 0.624,1.167 c -0.164,0.941 -1.429,1.352 -1.429,1.352 Z" fill="#F19020" />
</svg>
