<svg xmlns="http://www.w3.org/2000/svg" viewBox="0 0 36 36">
	<circle cx="18" cy="18" r="18" fill="#FFCC4D" />
	<path d="M 25.485,27.879 c 0.055,0.218 -0.043,0.445 -0.239,0.557 c -0.077,0.043 -0.162,0.064 -0.246,0.064 c -0.128,0 -0.256,-0.05 -0.352,-0.145 c -0.018,-0.018 -1.954,-1.855 -6.648,-1.855 s -6.629,1.837 -6.648,1.856 c -0.161,0.155 -0.405,0.188 -0.6,0.077 c -0.194,-0.112 -0.292,-0.337 -0.237,-0.554 c 0.045,-0.179 1.167,-4.379 7.485,-4.379 c 6.317,0 7.44,4.2 7.485,4.379 Z" fill="#664500" />
	<path d="M 29.001,14 c -0.305,0 -0.604,-0.138 -0.801,-0.4 c -2.432,-3.244 -6.514,-0.846 -6.686,-0.743 c -0.475,0.285 -1.089,0.13 -1.372,-0.343 c -0.284,-0.474 -0.131,-1.088 0.343,-1.372 c 1.998,-1.199 6.514,-2.477 9.314,1.257 c 0.332,0.442 0.242,1.069 -0.2,1.4 c -0.179,0.136 -0.389,0.201 -0.598,0.201 Z" fill="#664500" />
	<path d="M 6.999,14 c -0.208,0 -0.419,-0.065 -0.599,-0.2 c -0.442,-0.331 -0.531,-0.958 -0.2,-1.4 c 2.801,-3.734 7.317,-2.456 9.314,-1.257 c 0.474,0.284 0.627,0.898 0.343,1.372 c -0.284,0.473 -0.896,0.628 -1.37,0.344 c -0.179,-0.106 -4.274,-2.475 -6.688,0.742 c -0.195,0.261 -0.496,0.399 -0.8,0.399 Z" fill="#664500" />
	<path d="M 29,16 c 0,0.063 -0.024,0.119 -0.036,0.179 c 0.022,0.104 0.036,0.211 0.036,0.321 c 0,0.829 -0.672,1.5 -1.5,1.5 c -0.652,0 -1.201,-0.419 -1.408,-1 h-5.092 c -0.553,0 -1,-0.448 -1,-1 s 0.447,-1 1,-1 h7 c 0.553,0 1,0.448 1,1 Z" fill="#664500" />
	<path d="M 16,16 c 0,0.063 -0.025,0.119 -0.036,0.179 c 0.022,0.104 0.036,0.211 0.036,0.321 c 0,0.829 -0.672,1.5 -1.5,1.5 c -0.652,0 -1.201,-0.419 -1.408,-1 h-5.092 c -0.552,0 -1,-0.448 -1,-1 s 0.448,-1 1,-1 h7 c 0.552,0 1,0.448 1,1 Z" fill="#664500" />
	</svg>
