<svg viewBox="0 0 36 36" xmlns="http://www.w3.org/2000/svg">
	<path d="M 35,0.3 c 2,3.7 -1,12.7 -1,12.7 c 0.897,1.793 1.29,3.323 1.621,5.975 c -0.342,-0.087 -0.73,-0.145 -1.21,-0.145 c -4.996,0 -7.85,8.125 -7.353,14.9 c -3.561,1.665 -7.509,2.27 -9.058,2.27 c -1.542,0 -5.459,-0.599 -9.006,-2.245 c 0.505,-6.78 -2.35,-14.925 -7.352,-14.925 c -0.505,0 -0.912,0.06 -1.265,0.157 c 0.332,-2.659 0.725,-4.191 1.623,-5.987 c 0,0 -3,-9 -1,-12.7 c 0.674,-1.246 7.404,1.688 10,3.7 c 0,0 4,-0.998 7,-0.998 s 7,0.998 7,0.998 c 2.596,-2.012 9.326,-4.946 10,-3.7 Z" fill="#FFCC4D" />
	<path d="M 18,15 c 3,0 3,0.5 3,1.5 s -1.5,3 -3,3 s -3,-2 -3,-3 s -0.001,-1.5 3,-1.5 Z" fill="#E75A70" />
	<path d="M 2,3 c 0.447,-1.342 5.64,1 6.64,2 c 0,0 -4.64,3 -5.64,6 c 0,0 -2,-5 -1,-8 Z" fill="#F18F26" />
	<path d="M 34,3 c 1,3 -1,8 -1,8 c -1,-3 -5.64,-6 -5.64,-6 c 1,-1 6.193,-3.342 6.64,-2 Z" fill="#F18F26" />
	<path d="M 4.934,5.603 c 0,-1.414 6.066,1.397 5.066,2.397 s -2,1.603 -3,2.603 s -2.066,-4 -2.066,-5 Z" fill="#FFCC4D" />
	<path d="M 31.066,5.603 c 0,1 -1.066,6 -2.066,5 s -2,-1.603 -3,-2.603 s 5.066,-3.811 5.066,-2.397 Z" fill="#FFCC4D" />
	<path d="M 11.039,21.502 c 0.275,0.02 0.48,0.261 0.46,0.536 c -0.021,0.276 -0.257,0.501 -0.537,0.46 c -1.534,-0.117 -2.912,-0.031 -4.12,0.162 c -0.179,-0.324 -0.367,-0.632 -0.565,-0.924 c 1.373,-0.25 2.961,-0.374 4.762,-0.234 Z" fill="#FEE7B8" />
	<path d="M 9.718,19.359 c 0.264,0.083 0.411,0.364 0.328,0.627 c -0.067,0.214 -0.264,0.351 -0.477,0.351 c -0.049,0 -0.1,-0.006 -0.149,-0.022 c -1.995,-0.624 -3.839,-0.785 -5.321,-0.764 c -0.747,-0.462 -1.568,-0.722 -2.457,-0.722 c -0.245,0 -0.46,0.018 -0.666,0.042 c 1.346,-0.284 4.74,-0.762 8.742,0.488 Z" fill="#FEE7B8" />
	<path d="M 29.771,21.745 c -0.198,0.291 -0.385,0.599 -0.562,0.922 c -1.22,-0.199 -2.616,-0.287 -4.17,-0.169 c -0.28,0.041 -0.516,-0.185 -0.537,-0.46 s 0.185,-0.516 0.46,-0.536 c 1.821,-0.141 3.425,-0.013 4.809,0.243 Z" fill="#FEE7B8" />
	<path d="M 31.954,19.551 c -1.49,-0.026 -3.355,0.132 -5.373,0.764 c -0.049,0.015 -0.1,0.022 -0.149,0.022 c -0.213,0 -0.41,-0.137 -0.477,-0.351 c -0.083,-0.264 0.064,-0.544 0.328,-0.627 c 3.979,-1.243 7.357,-0.777 8.718,-0.493 c -0.186,-0.019 -0.373,-0.037 -0.589,-0.037 c -0.89,0 -1.711,0.26 -2.458,0.722 Z" fill="#FEE7B8" />
	<rect x="14" y="21" width="8" height="14" rx="4" fill="#292F33" />
	<path d="M 7.347,10.665 c 0.947,-3.174 3.536,-5.207 5.781,-4.538 c 2.244,0.669 3.297,3.787 2.35,6.962 c -0.945,3.176 -3.533,5.208 -5.779,4.538 c -2.245,-0.669 -3.298,-3.786 -2.352,-6.962 Z" fill="#F5F8FA" />
	<path d="M 28.652,10.665 c 0.946,3.176 -0.107,6.293 -2.352,6.962 c -2.246,0.67 -4.834,-1.362 -5.779,-4.538 c -0.946,-3.175 0.107,-6.293 2.351,-6.962 c 2.245,-0.669 4.833,1.364 5.78,4.538 Z" fill="#F5F8FA" />
	<path d="M 35.753,19.183 c 1.086,2.728 -2.476,9.772 -0.57,16.817 h-6.46 c -1.192,-6.998 1.232,-17 5.873,-17 c 0.466,0 0.843,0.066 1.157,0.183 Z" fill="#FCAB40" />
	<path d="M 1.404,19 c 4.639,0 7.064,10.04 5.874,17 h-6.46 c 1.904,-6.994 -1.65,-14.06 -0.568,-16.803 l 0.001,-0.014 c 0.313,-0.117 0.689,-0.183 1.153,-0.183 Z" fill="#FCAB40" />
	</svg>
