<svg viewBox="0 0 36 36" xmlns="http://www.w3.org/2000/svg">
	<defs>
		<clipPath id="clip1">
			<!--<path d="M 35,0.3 c 2,3.7 -1,12.7 -1,12.7 c 0.896,1.794 1.29,3.323 1.621,5.975 c -0.342,-0.088 -0.729,-0.146 -1.21,-0.146 c -4.995,0 -7.849,8.125 -7.352,14.901 c -3.562,1.665 -7.509,2.27 -9.059,2.27 c -1.542,0 -5.459,-0.598 -9.006,-2.246 c 0.505,-6.78 -2.35,-14.925 -7.352,-14.925 c -0.505,0 -0.912,0.062 -1.265,0.158 c 0.332,-2.659 0.725,-4.191 1.623,-5.987 c 0,0 -3,-9 -1,-12.7 c 0.673,-1.246 7.404,1.688 10,3.7 c 0,0 4,-0.998 7,-0.998 s 7,0.998 7,0.998 c 2.596,-2.012 9.326,-4.946 10,-3.7 Z"/>-->
			<path d="M 35.621,18.975 C 35.279,18.887 34.892,18.829 34.411,18.829 C 29.416,18.829 26.562,26.954 27.059,33.73 V 36 H 8.994 L 8.994,33.754 C 9.499,26.974 6.644,18.829 1.642,18.829 C 1.137,18.829 0.73,18.891 0.377,18.987 H 0 V 0 H 36 V 18.975 Z"/>
		</clipPath>
	</defs>
	
	<path d="M 35.621,18.975 C 35.279,18.887 34.892,18.829 34.411,18.829 C 29.416,18.829 26.562,26.954 27.059,33.73 V 36 H 8.994 L 8.994,33.754 C 9.499,26.974 6.644,18.829 1.642,18.829 C 1.137,18.829 0.73,18.891 0.377,18.987 H 0 V 0 H 36 V 18.975 Z"/>
	<path d="M 0.251,19.183 V 20 H 0 V 0 H 36 V 20 H 35.753 L 35.753,19.183 C 35.452,18.426 34.794,18 33.561,18 C 29.288,18 26.893,26.48 27.47,33.287 V 36 H 8.533 L 8.533,33.288 C 9.106,26.507 6.71,18 2.44,18 C 1.211,18 0.554,18.426 0.251,19.183 Z"/>
	
	<g clip-path="url(#clip1)">
		<use id="body" href="F.svg#bg.cat"/>
	</g>
	
	<rect id="mouth" x="14" y="21" width="8" height="14" rx="4" fill="#292F33"/>
	
	<ellipse id="eye1" rx="4.242" ry="6" transform="translate(11.4125 11.877) rotate(16.6)" fill="#F5F8FA"/>
	<ellipse id="eye2" rx="4.242" ry="6" transform="translate(24.5865 11.877) rotate(-16.6)" fill="#F5F8FA"/>
	
	<!-- nose -->
	<path d="M 18,15 c 3,0 3,0.5 3,1.5 s -1.5,3 -3,3 s -3,-2 -3,-3 s -0.001,-1.5 3,-1.5 Z" fill="#E75A70" />
	<!-- whiskers -->
	<g clip-path="url(#clip1)">
		<path d="M 0.701,25 c 0.108,0 0.217,-0.035 0.31,-0.106 c 0.036,-0.029 3.718,-2.869 9.951,-2.395 c 0.28,0.041 0.516,-0.185 0.537,-0.46 s -0.185,-0.516 -0.46,-0.536 c -6.628,-0.515 -10.486,2.478 -10.648,2.605 c -0.217,0.171 -0.254,0.485 -0.083,0.702 c 0.099,0.125 0.245,0.19 0.393,0.19 Z" fill="#FEE7B8" />
		<path d="M 9.569,20.337 c 0.213,0 0.41,-0.137 0.476,-0.35 c 0.083,-0.264 -0.064,-0.544 -0.328,-0.627 c -5.076,-1.585 -9.189,-0.39 -9.362,-0.338 c -0.264,0.079 -0.414,0.357 -0.335,0.622 c 0.08,0.265 0.358,0.416 0.623,0.335 c 0.04,-0.011 3.987,-1.161 8.777,0.336 c 0.049,0.015 0.1,0.022 0.149,0.022 Z" fill="#FEE7B8" />
		<path d="M 35.299,25 c 0.148,0 0.294,-0.065 0.393,-0.19 c 0.171,-0.217 0.134,-0.531 -0.083,-0.702 c -0.162,-0.127 -4.02,-3.12 -10.648,-2.605 c -0.275,0.02 -0.481,0.261 -0.46,0.536 s 0.257,0.501 0.537,0.46 c 6.233,-0.474 9.915,2.366 9.951,2.395 c 0.093,0.071 0.202,0.106 0.31,0.106 Z" fill="#FEE7B8" />
		<path d="M 26.431,20.337 c 0.049,0 0.1,-0.007 0.149,-0.022 c 4.79,-1.497 8.737,-0.347 8.777,-0.336 c 0.265,0.081 0.543,-0.07 0.623,-0.335 c 0.079,-0.265 -0.071,-0.543 -0.335,-0.622 c -0.173,-0.052 -4.286,-1.247 -9.362,0.338 c -0.264,0.083 -0.411,0.363 -0.328,0.627 c 0.065,0.213 0.263,0.35 0.476,0.35 Z" fill="#FEE7B8" />
	</g>
	
	<use href="F.svg#hands_scream" color="#FCAB40"/>
</svg>
