<svg xmlns="http://www.w3.org/2000/svg" viewBox="0 0 36 36">
	<circle cx="18" cy="18" r="18" fill="#FFCC4D" />
	<path d="M 16.664,10.543 c 0.208,0.091 0.329,0.309 0.295,0.532 c -0.022,0.146 -0.578,3.576 -3.432,4.354 c -0.341,0.093 -0.692,0.14 -1.043,0.14 c -2.345,0 -4.054,-2.06 -4.125,-2.147 c -0.144,-0.177 -0.151,-0.428 -0.016,-0.612 c 0.134,-0.183 0.377,-0.254 0.587,-0.169 c 0.003,0.001 0.57,0.213 1.562,0.213 c 0.714,0 1.47,-0.107 2.245,-0.319 c 2.356,-0.642 3.326,-1.832 3.335,-1.844 c 0.141,-0.178 0.385,-0.238 0.592,-0.148 Z" fill="#664500" />
	<path d="M 27.639,12.698 c 0.136,0.18 0.137,0.429 -0.001,0.61 c -0.071,0.092 -1.774,2.252 -4.17,2.252 c -0.317,0 -0.635,-0.039 -0.946,-0.116 c -2.871,-0.707 -3.513,-4.122 -3.539,-4.267 c -0.04,-0.224 0.076,-0.447 0.283,-0.542 c 0.208,-0.096 0.45,-0.039 0.596,0.137 c 0.008,0.009 1.008,1.175 3.377,1.758 c 0.715,0.176 1.412,0.265 2.073,0.265 c 1.104,0 1.731,-0.253 1.737,-0.256 c 0.21,-0.086 0.452,-0.022 0.59,0.159 Z" fill="#664500" />
	<path d="M 9.998,10 c -0.448,0 -0.855,-0.303 -0.969,-0.757 c -0.133,-0.535 0.191,-1.077 0.724,-1.212 c 0.036,-0.009 3.593,-0.961 5.352,-4.478 c 0.247,-0.494 0.846,-0.695 1.342,-0.447 c 0.494,0.247 0.694,0.848 0.447,1.342 c -2.181,4.361 -6.471,5.477 -6.652,5.523 c -0.081,0.02 -0.163,0.029 -0.244,0.029 Z" fill="#664500" />
	<path d="M 26,10 c -0.08,0 -0.161,-0.01 -0.242,-0.03 c -0.182,-0.045 -4.472,-1.162 -6.652,-5.523 c -0.247,-0.494 -0.047,-1.095 0.447,-1.342 c 0.493,-0.247 1.094,-0.047 1.342,0.447 c 1.758,3.517 5.315,4.469 5.352,4.478 c 0.533,0.137 0.857,0.681 0.722,1.215 c -0.116,0.453 -0.522,0.755 -0.969,0.755 Z" fill="#664500" />
	<path d="M 18,28.965 c -3.623,0 -6.027,0.422 -9,1 c -0.679,0.131 -2,0 -2,-2 c 0,-4 4.595,-9 11,-9 c 6.404,0 11,5 11,9 c 0,2 -1.321,2.132 -2,2 c -2.973,-0.578 -5.377,-1 -9,-1 Z" fill="#664500" />
	<path d="M 10,25 s 2,-4 8,-4 s 8,4 8,4 s -3,-1 -8,-1 s -8,1 -8,1 Z" fill="#FFF" />
	</svg>
