<svg viewBox="0 0 36 36" xmlns="http://www.w3.org/2000/svg">
	<circle cx="18" cy="18" r="18" fill="#FFCC4D" />
	<path d="M 15.457,15.815 c 0.092,0.208 0.033,0.452 -0.146,0.594 c -0.09,0.072 -0.201,0.109 -0.311,0.109 c -0.105,0 -0.21,-0.033 -0.298,-0.099 c -0.028,-0.02 -1.276,-0.901 -3.702,-0.901 c -2.441,0 -3.69,0.893 -3.703,0.902 c -0.183,0.133 -0.433,0.129 -0.61,-0.014 c -0.176,-0.142 -0.236,-0.384 -0.144,-0.591 c 0.06,-0.135 1.5,-3.297 4.457,-3.297 c 2.958,0 4.397,3.162 4.457,3.297 Z" fill="#664500" />
	<circle cx="24.5" cy="13.5" r="6.5" fill="#F5F8FA" />
	<circle fill="#292F33" cx="24.5" cy="13.5" r="2.5"/>
	<path d="M 7,21.262 c 11.667,2.756 22,0 22,0 c 0,4 -4.596,9 -11,9 s -11,-5.036 -11,-9 Z" fill="#664500" />
	<path d="M 18.545,23.604 c 1.668,-0.018 3.533,-0.166 5.455,-0.56 v6.92 c 0,3 -2,6 -6,6 s -6,-3 -6,-6 v-6.961 s 2.238,0.522 5.454,0.596 l 1.091,0.005 Z" fill="#E8596E" />
	<path d="M 18,31.843 c -0.301,0 -0.545,-0.244 -0.546,-0.545 v-7.699 l 1.091,0.005 v7.694 c 0,0.301 -0.244,0.545 -0.545,0.545 Z" fill="#DD2E44" />
	</svg>
