<svg viewBox="0 0 36 36" xmlns="http://www.w3.org/2000/svg">
	<circle cx="18" cy="18" r="18" fill="#FFCC4D" />
	<ellipse fill="#664500" cx="11.5" cy="16.5" rx="2.5" ry="3.5"/>
	<path d="M 28.457,17.797 c 0.093,0.208 0.032,0.452 -0.145,0.594 c -0.091,0.072 -0.202,0.109 -0.312,0.109 c -0.104,0 -0.21,-0.033 -0.298,-0.099 c -0.028,-0.02 -1.276,-0.901 -3.702,-0.901 c -2.44,0 -3.69,0.893 -3.702,0.902 c -0.184,0.133 -0.435,0.128 -0.61,-0.014 c -0.177,-0.142 -0.237,-0.384 -0.145,-0.591 c 0.06,-0.135 1.5,-3.297 4.457,-3.297 c 2.958,0 4.397,3.162 4.457,3.297 Z" fill="#664500" />
	<path d="M 5.999,12.458 c -0.208,0 -0.419,-0.065 -0.599,-0.2 c -0.442,-0.331 -0.531,-0.958 -0.2,-1.4 c 3.262,-4.35 7.616,-4.4 7.8,-4.4 c 0.552,0 1,0.448 1,1 c 0,0.551 -0.445,0.998 -0.996,1 c -0.156,0.002 -3.569,0.086 -6.205,3.6 c -0.195,0.262 -0.496,0.4 -0.8,0.4 Z" fill="#664500" />
	<path d="M 29.001,14.583 c -0.305,0 -0.604,-0.138 -0.801,-0.4 c -2.592,-3.457 -6.961,-2.627 -7.004,-2.62 c -0.547,0.108 -1.068,-0.243 -1.177,-0.784 c -0.108,-0.542 0.243,-1.068 0.784,-1.177 c 0.231,-0.047 5.657,-1.072 8.996,3.38 c 0.332,0.442 0.242,1.069 -0.2,1.4 c -0.179,0.137 -0.389,0.201 -0.598,0.201 Z" fill="#664500" />
	<path d="M 23.254,23.577 c 0.187,0.113 0.284,0.331 0.231,0.544 c -0.011,0.044 -1.145,4.379 -5.485,4.379 s -5.474,-4.335 -5.484,-4.379 c -0.055,-0.218 0.043,-0.446 0.238,-0.557 c 0.196,-0.108 0.441,-0.078 0.6,0.082 c 0,0 1.005,0.854 4.646,0.854 c 3.644,0 4.647,-0.855 4.657,-0.863 c 0.165,-0.147 0.409,-0.17 0.597,-0.06 Z" fill="#664500" />
	</svg>
