<svg viewBox="0 0 36 36" xmlns="http://www.w3.org/2000/svg">
	<use href="F.svg#bg.normal" color="#FFCC4D"/>
	
	<use href="F.svg#eyebrow.2" transform="matrix(-1 0 0 -1 6 10)" color="#664500"/>
	<use href="F.svg#eyebrow.2" transform="translate(30.0145 13.627) rotate(76.6)" color="#664500"/>
	
	<path d="M 14.815,15.375 c -0.584,2.114 -1.642,3.083 -3.152,2.666 c -1.509,-0.417 -2.343,-1.909 -1.76,-4.023 c 0.583,-2.112 2.175,-3.363 3.684,-2.946 c 1.511,0.417 1.812,2.19 1.228,4.303 Z" fill="#664500" />
	<path d="M 26.231,14.62 c 0.473,2.141 -0.675,4.838 -2.204,5.176 s -3.28,-1.719 -3.753,-3.86 c -0.473,-2.14 0.419,-3.971 1.948,-4.309 s 3.536,0.853 4.009,2.993 Z" fill="#664500"/>
	
<!--<path d="M 0,0 C -0.993 0 -1.952 0.454 -2.788 1.339
C -5.604 4.324 -6.357 3.672 -7.605 2.59
C -8.387 1.911 -9.359 1.066 -10.811 1.066
C -13.161 1.066 -14.779 3.369 -14.847 3.467
C -15.161 3.921 -15.047 4.544 -14.593 4.857
C -14.142 5.17 -13.519 5.059 -13.203 4.606
C -12.902 4.178 -11.886 3.066 -10.811 3.066
C -10.106 3.066 -9.555 3.545 -8.916 4.1
C -7.1 5.678 -5.152 6.756 -1.333 2.712
C -0.51 1.839 0.119 1.937 0.575 2.12
C 2.234 2.785 3.78 5.818 3.772 7.27
C 3.77 7.822 4.215 8.272 4.767 8.275
L 4.772 8.275
C 5.322 8.275 5.77 7.831 5.772 7.281
C 5.784 5.178 3.919 1.305 1.318 0.264
C 0.878 0.087 0.436 0 0 0	"/>

<path d="M 131.8,-26.4004
l 0.0006,0.0012
c -195.201,78.521 -341.3998,-34.2393 -410.6,-107.5 - first good

c -281.6,-298.5 -356.9,-233.3 -481.7,-125.1

c -78.201,67.9 -175.401,152.4 -320.6,152.4 c -235,0 -396.8012,-230.301 -403.601,-240.101 c -31.3994,-45.3994 -20,-107.7002 25.4004,-139 c 45.0996,-31.2998 107.3994,-20.2002 139,25.1006 c 30.099,42.8 131.7,154 239.2,154 c 70.5,0 125.5996,-47.9 189.5,-103.4 c 181.6,-157.8 376.4,-265.599 758.3,138.8 c 82.3,87.2998 145.2004,77.5 190.8,59.2002 c 165.9,-66.5 320.5,-369.8 319.7,-515 c -0.2002,-55.2002 44.2998,-100.2 99.5,-100.5 h0.5 c 55,0 99.8,44.4 100,99.4

c 1.201,210.3 -185.299,597.599 -445.4,701.699 - last good

Z" fill="currentColor" /> ff removed bad seg

c -1.952,0.785 -3.414,-0.342 -4.106,-1.075 - first good
<path d="M 20.398,28.187
c -2.816,-2.985 -3.569,-2.333 -4.817,-1.251

c -0.782,0.679 -1.754,1.524 -3.206,1.524 c -2.35,0 -3.968,-2.303 -4.036,-2.401 c -0.314,-0.454 -0.2,-1.077 0.254,-1.39 s 1.074,-0.202 1.39,0.251 c 0.301,0.428 1.317,1.54 2.392,1.54 c 0.705,0 1.256,-0.479 1.895,-1.034 c 1.816,-1.578 3.764,-2.656 7.583,1.388 c 0.823,0.873 1.452,0.775 1.908,0.592 c 1.659,-0.665 3.205,-3.698 3.197,-5.15 c -0.002,-0.552 0.443,-1.002 0.995,-1.005 h0.005 c 0.55,0 0.998,0.444 1,0.994

c 0.012,2.103 -1.853,5.976 -4.454,7.017
c -1.952,0.785 -3.414,-0.342 -4.106,-1.075

Z"  /> from orig source-->


	<!--<path d="M 23.186,29.526 c -0.993,0 -1.952,-0.455 -2.788,-1.339 c -2.816,-2.985 -3.569,-2.333 -4.817,-1.251 c -0.781,0.679 -1.754,1.523 -3.205,1.523 c -2.351,0 -3.969,-2.302 -4.036,-2.4 c -0.314,-0.454 -0.2,-1.077 0.254,-1.391 c 0.451,-0.312 1.074,-0.2 1.39,0.251 c 0.301,0.429 1.317,1.54 2.393,1.54 c 0.704,0 1.256,-0.479 1.895,-1.033 c 1.816,-1.578 3.764,-2.655 7.583,1.388 c 0.823,0.873 1.452,0.774 1.908,0.592 c 1.659,-0.665 3.205,-3.698 3.197,-5.15 c -0.003,-0.552 0.442,-1.002 0.994,-1.005 h0.006 c 0.55,0 0.997,0.444 1,0.995 c 0.012,2.103 -1.854,5.976 -4.454,7.017 c -0.443,0.175 -0.885,0.262 -1.32,0.263 Z" fill="#664500"/>-->
	<!--<path d="M 9.162,25.489 c 0.184,0.2635 1.501,1.97 3.2145,1.97 c 1.0775,0 1.84,-0.6615 2.55,-1.278 c 1.532,-1.33 2.8825,-2.1945 6.2,1.3195 c 1.2075,1.278 2.329,1.103 3.008,0.834 c 2.1295,-0.853 3.8355,-4.306 3.8255,-6.0835" stroke-width="2" stroke-linecap="round" stroke="currentColor" fill="none" color="#664500"/> calculated -->
	<path d="M 9.161,25.4895 c 0.1845,0.263 1.5015,1.9705 3.214,1.9705 c 1.0785,0 1.84,-0.662 2.5505,-1.279 c 1.532,-1.33 2.8825,-2.195 6.2,1.3195 c 0.7575,0.803 1.803,1.3175 3.007,0.8335 c 2.13,-0.853 3.8355,-4.306 3.8255,-6.0835" stroke-width="2" stroke-linecap="round" stroke="currentColor" fill="none" color="#664500"/> <!-- computed from outline -->
</svg>
