<svg viewBox="0 0 36 36" xmlns="http://www.w3.org/2000/svg">
	<circle fill="#FFCC4D" cx="18" cy="18" r="18"/>
	<path d="M 6.001,11 c -0.552,0 -1,-0.448 -1,-1 c 0,-0.551 0.445,-0.998 0.996,-1 c 0.156,-0.002 3.569,-0.086 6.205,-3.6 c 0.331,-0.44 0.957,-0.532 1.4,-0.2 c 0.442,0.331 0.531,0.958 0.2,1.4 c -3.263,4.35 -7.617,4.4 -7.801,4.4 Z" fill="#664500" />
	<path d="M 30.987,13.393 c 0.128,0.537 -0.204,1.077 -0.741,1.205 c -0.536,0.128 -1.074,-0.202 -1.204,-0.737 c -0.038,-0.151 -0.911,-3.452 -4.941,-5.201 c -0.505,-0.22 -0.739,-0.808 -0.519,-1.315 s 0.809,-0.739 1.315,-0.519 c 4.989,2.165 6.047,6.388 6.09,6.567 Z" fill="#664500" />
	<path d="M 23.186,29.526 c -0.993,0 -1.952,-0.455 -2.788,-1.339 c -2.816,-2.985 -3.569,-2.333 -4.817,-1.251 c -0.781,0.679 -1.754,1.523 -3.205,1.523 c -2.351,0 -3.969,-2.302 -4.036,-2.4 c -0.314,-0.454 -0.2,-1.077 0.254,-1.391 c 0.451,-0.312 1.074,-0.2 1.39,0.251 c 0.301,0.429 1.317,1.54 2.393,1.54 c 0.704,0 1.256,-0.479 1.895,-1.033 c 1.816,-1.578 3.764,-2.655 7.583,1.388 c 0.823,0.873 1.452,0.774 1.908,0.592 c 1.659,-0.665 3.205,-3.698 3.197,-5.15 c -0.003,-0.552 0.442,-1.002 0.994,-1.005 h0.006 c 0.55,0 0.997,0.444 1,0.995 c 0.012,2.103 -1.854,5.976 -4.454,7.017 c -0.443,0.175 -0.885,0.262 -1.32,0.263 Z" fill="#664500" />
	<path d="M 14.815,15.375 c -0.584,2.114 -1.642,3.083 -3.152,2.666 c -1.509,-0.417 -2.343,-1.909 -1.76,-4.023 c 0.583,-2.112 2.175,-3.363 3.684,-2.946 c 1.511,0.417 1.812,2.19 1.228,4.303 Z" fill="#664500" />
	<path d="M 26.231,14.62 c 0.473,2.141 -0.675,4.838 -2.204,5.176 s -3.28,-1.719 -3.753,-3.86 c -0.473,-2.14 0.419,-3.971 1.948,-4.309 s 3.536,0.853 4.009,2.993 Z" fill="#664500" />
	</svg>
