<svg viewBox="0 0 36 36" xmlns="http://www.w3.org/2000/svg">
	<use href="F.svg#bg.normal" color="#FFCC4D"/>
	<path d="M 23.485,28.879 c 0.055,0.218 -0.043,0.445 -0.239,0.557 c -0.077,0.043 -0.162,0.064 -0.246,0.064 c -0.125,0 -0.249,-0.047 -0.344,-0.137 c -0.039,-0.033 -1.066,-0.863 -4.656,-0.863 c -3.644,0 -4.648,0.855 -4.657,0.863 c -0.163,0.146 -0.408,0.172 -0.596,0.06 c -0.188,-0.113 -0.285,-0.331 -0.232,-0.544 c 0.011,-0.044 1.145,-4.379 5.485,-4.379 s 5.474,4.335 5.485,4.379 Z" fill="#664500" />
	<path d="M 29,12 c -5.554,0 -7.802,-4.367 -7.895,-4.553 c -0.247,-0.494 -0.047,-1.095 0.447,-1.342 c 0.493,-0.247 1.092,-0.048 1.34,0.443 c 0.075,0.146 1.821,3.452 6.108,3.452 c 0.553,0 1,0.448 1,1 s -0.447,1 -1,1 Z" fill="#664500" />
	<path d="M 7,12 c -0.552,0 -1,-0.448 -1,-1 s 0.448,-1 1,-1 c 5.083,0 5.996,-3.12 6.033,-3.253 c 0.145,-0.528 0.692,-0.848 1.219,-0.709 c 0.53,0.139 0.851,0.673 0.718,1.205 c -0.049,0.194 -1.266,4.757 -7.97,4.757 Z" fill="#664500" />
	<ellipse fill="#664500" cx="12" cy="16.5" rx="2.5" ry="3.5"/>
	<ellipse fill="#664500" cx="24" cy="16.5" rx="2.5" ry="3.5"/>
	</svg>
