<svg xmlns="http://www.w3.org/2000/svg" viewBox="0 0 36 36">
	<circle cx="18" cy="17" r="17" fill="#FFCC4D" />
	<ellipse fill="#664500" cx="18" cy="19.5" rx="7" ry="7.5"/>
	<path d="M 22.468,27.371 l -6.698,6.244 l -0.447,0.418 c -2.959,2.758 -7.596,2.595 -10.355,-0.364 c -2.529,-2.715 -2.602,-6.836 -0.318,-9.629 c 0.81,-0.989 1.496,-2.074 2.159,-3.167 l 1.668,-2.758 s 0.58,-1.074 1.655,-0.493 c 1.073,0.581 0.493,1.655 0.493,1.655 l -1.842,4.158 c 0.549,0.565 1.087,-0.179 1.087,-0.179 l 0.22,-0.207 l 0.497,-0.464 l 6.203,-5.781 s 0.788,-0.944 1.621,-0.051 c 0.832,0.892 -0.164,1.614 -0.164,1.614 l -5.866,5.468 c 0.152,0.137 0.614,0.601 0.764,0.746 l 6.278,-5.848 s 0.789,-0.944 1.621,-0.051 c 0.833,0.892 -0.164,1.614 -0.164,1.614 l -6.276,5.85 c 0.133,0.158 0.469,0.54 0.594,0.698 l 5.413,-5.046 s 0.79,-0.943 1.622,-0.051 c 0.834,0.894 -0.164,1.615 -0.164,1.615 l -5.755,5.366 c 0.091,0.204 0.481,0.742 0.55,0.947 l 4.148,-3.866 s 0.789,-0.945 1.621,-0.052 s -0.165,1.614 -0.165,1.614 Z" fill="#F4900C" />
	<path d="M 11.016,6.08 c 1.132,-0.303 2.523,-0.416 4.158,-0.08 c 0.541,0.11 0.89,0.639 0.779,1.18 c -0.11,0.54 -0.638,0.89 -1.18,0.779 c -3.72,-0.761 -5.731,1.405 -5.81,1.492 c -0.365,0.416 -0.996,0.456 -1.411,0.091 c -0.414,-0.365 -0.455,-0.997 -0.091,-1.412 c 0.075,-0.085 1.3,-1.446 3.555,-2.05 Z" fill="#664500" />
	<path d="M 24.984,6.081 c 2.254,0.604 3.479,1.964 3.554,2.048 c 0.363,0.413 0.322,1.038 -0.088,1.404 s -1.043,0.329 -1.41,-0.078 c -0.083,-0.092 -2.09,-2.259 -5.814,-1.497 c -0.541,0.111 -1.068,-0.238 -1.18,-0.779 c -0.111,-0.541 0.238,-1.069 0.779,-1.18 c 1.636,-0.334 3.027,-0.221 4.159,0.082 Z" fill="#664500" />
	</svg>
