<svg xmlns="http://www.w3.org/2000/svg" viewBox="0 0 36 36">
	<path d="M 35.597,14.232 c 2.083,9.72 -4.108,19.289 -13.828,21.372 s -19.289,-4.108 -21.372,-13.828 s 4.109,-19.289 13.828,-21.372 c 9.72,-2.084 19.289,4.108 21.372,13.828 Z" fill="#FFCB4C" />
	<path d="M 29.284,9.012 c 0.779,3.636 -1.537,7.216 -5.173,7.995 s -7.216,-1.537 -7.996,-5.173 c -0.779,-3.636 1.537,-7.216 5.173,-7.995 s 7.217,1.536 7.996,5.173 Z" fill="#F4F7F9" />
	<circle fill="#292F33" cx="22.306" cy="9.291" r="2.037"/>
	<path d="M 14.088,14.282 c 0.456,2.126 -0.899,4.219 -3.025,4.675 s -4.219,-0.899 -4.675,-3.025 s 0.899,-4.219 3.025,-4.675 s 4.219,0.899 4.675,3.025 Z" fill="#F4F7F9" />
	<ellipse transform="rotate(-12.095 10.236 15.853)" fill="#292F33" cx="10.238" cy="15.857" rx="1.942" ry="1.942"/>
	<path d="M 18.625,20.937 c 3.543,-0.759 5.805,-1.676 8.591,-2.863 c 0.636,-0.272 1.956,-0.42 2.375,1.536 c 0.838,3.911 -2.608,9.763 -8.87,11.105 c -6.263,1.342 -11.804,-2.584 -12.642,-6.495 c -0.419,-1.956 0.845,-2.36 1.536,-2.375 c 3.029,-0.058 5.467,-0.149 9.01,-0.908 Z" fill="#65471B" />
	<path d="M 11,24.004 h12 v6 c 0,3 -2,6 -6,6 s -6,-3 -6,-6 v-6 Z" fill="#E8596E" />
	<path d="M 17,31.883 c -0.301,0 -0.545,-0.244 -0.546,-0.545 v-6.295 h1.091 v6.295 c 0,0.301 -0.244,0.545 -0.545,0.545 Z" fill="#DD2F45" />
	<path d="M 10.034,23.801 s 3.143,0.349 9.01,-0.908 s 8.591,-2.864 8.591,-2.864 s -1.117,4.33 -7.962,5.797 s -9.639,-2.025 -9.639,-2.025 Z" fill="#FFF" />
	</svg>
