<svg viewBox="0 0 36 36" xmlns="http://www.w3.org/2000/svg">
	<circle cx="18" cy="18" r="18" fill="#FFCC4D"/>
	<!-- todo: transform these too (might get nicer cx/cy) -->
	<circle cx="22.700" cy="10.423" r="6.734" fill="#F4F7F9"/>
	<circle cx="22.306" cy=" 9.291" r="2.037" fill="#292F33"/>
	<circle cx="10.238" cy="15.107" r="3.937" fill="#F4F7F9"/>
	<circle cx="10.239" cy="15.856" r="1.942" fill="#292F33"/>
	
	<path d="M 18,21 c 3.623,0 6.027,-0.422 9,-1 c 0.679,-0.132 2,0 2,2 c 0,4 -4.596,9 -11,9 c -6.405,0 -11,-5 -11,-9 c 0,-2 1.321,-2.131 2,-2 c 2.973,0.578 5.377,1 9,1 Z" transform="rotate(-12.095 18,18)" fill="#65471B" />
	<path d="M 11,24.004 h12 v6 c 0,3 -2,6 -6,6 s -6,-3 -6,-6 v-6 Z" fill="#E8596E" />
	<path d="M 17,31.883 c -0.301,0 -0.545,-0.244 -0.546,-0.545 v-6.295 h1.091 v6.295 c 0,0.301 -0.244,0.545 -0.545,0.545 Z" fill="#DD2F45" />
	<path d="M 9,22 s 3,1 9,1 s 9,-1 9,-1 s -2,4 -9,4 s -9,-4 -9,-4 Z" transform="rotate(-12.095 18,18)" fill="#FFF" />
</svg>
