<svg viewBox="0 0 36 36" xmlns="http://www.w3.org/2000/svg">
	<use href="F.svg#bg.normal" color="#FFCC4D"/>
	
	<use href="F.svg#eyes.normal13" x="0" y="14.5" color="#664500"/>
	
	<path d="M 25,27 h-15 c -1,0 -1,-1 -1,-1 v-1 s 0,-1 1,-1 h 15 v3 Z" fill="#664500" />
	<!-- zipper -->
	<path d=" M 35.255,26.084 s 0.964,0.266 0.698,1.23 c -0.265,0.963 -3.176,6.313 -3.914,6.983 c -0.87,0.787 -1.769,-0.079 -1.769,-0.079 l -5.285,-4.735 c -0.621,-0.538 -0.373,-1.275 -0.373,-1.275 l 0.099,-0.207 l -1.648,-0.788 l 0.58,-1.212 h-1.643 v2 h-2 v-2 h-2 v2 h-2 v-2 h-2 v2 h-2 v-2 h-2 v-3 h2 v2 h2 v-2 h2 v2 h2 v-2 h2 v2 h2 v-2 h2 v2.254 l 0.731,-1.529 l 1.64,0.784 c 0.122,-0.26 0.451,-0.744 1.171,-0.547 l 7.713,2.121 Z M 31.483,32.155 l 2.308,-4.185 l -3.338,-1.132 l -1.614,3.069 l 2.644,2.248 Z" fill="#99AAB5" />
</svg>
