<svg xmlns="http://www.w3.org/2000/svg" viewBox="0 0 36 36">
	<circle fill="#FFCC4D" cx="18" cy="18" r="18"/>
	<ellipse cx="11.534" cy="14.499" rx="2.5" ry="3.5" fill="#664500" />
	<ellipse cx="24.534" cy="14.499" rx="2.5" ry="3.5" fill="#664500" />
	<path d="M 25.001,27.004 h-15.001 c -1,0 -1,-1 -1,-1 v-1 s 0,-1.003 1,-1.003 l 15.001,0.003 v3 Z" fill="#664500" />
	<path d="M 35.255,26.084 s 0.964,0.266 0.698,1.23 c -0.265,0.963 -3.176,6.313 -3.914,6.983 c -0.87,0.787 -1.769,-0.079 -1.769,-0.079 s -4.664,-4.198 -5.285,-4.735 c -0.621,-0.538 -0.373,-1.275 -0.373,-1.275 l 0.099,-0.207 l -1.648,-0.788 l 0.58,-1.212 h-1.643 v2 h-2 v-2 h-2.001 v2 h-2 v-2 h-1.999 v2 h-2 v-2 h-2 v-3 h2 v2 h2 v-2 h2 v2 h1.999 v-2 h2.001 v2 h2 v-2 h2 v2.254 l 0.731,-1.529 l 1.64,0.784 c 0.122,-0.26 0.451,-0.744 1.171,-0.547 l 7.713,2.121 Z" fill="#99AAB5" />
	<path d="M 31.483,32.155 l -2.644,-2.248 l 1.614,-3.069 l 3.338,1.132 l -2.308,4.185 Z" fill="#99AAB5" />
	</svg>
