<svg viewBox="0 0 36 36" xmlns="http://www.w3.org/2000/svg" xmlns:ts="data:,a">
	<!-- back hair -->
	<use href="defs.svg#hair_neutral_narrow" x="25.152" y="3.3" fill="#FFAC33" ts:skin="hair" ts:gender="neutral"/>
	<use href="defs.svg#hair_back_female" x="21.944" y="5.069" fill="#FFAC33" ts:skin="hair" ts:gender="female"/>
	<!-- shirt -->
	<path d="M30 28h-3.641v-3.71h-8.72V28H14c-3.313 0-6 2.686-6 6v2h28v-2c0-3.314-2.685-6-6-6z" fill="#FA743E" ts:gender="neutral,male" ts:gender-color="#77B255,"/>
	<path d="M28 27h-2.34v-3.185h-7.332V27H16c-3.313 0-7 2.186-7 5.5V36h26v-3.5c0-3.314-3.685-5.5-7-5.5z" fill="#9266CC" ts:gender="female"/>
	<!-- neck -->
	<path d="M17.632 25.973c1.216 1.374 2.724 1.746 4.364 1.746 1.639 0 3.147-.372 4.364-1.746v-3.491h-8.728v3.491z" fill="#F9CA55" ts:skin="dark" ts:gender="neutral,male"/>
	<path d="M18.321 25.179c1.023 1.155 2.291 1.468 3.669 1.468 1.379 0 2.647-.312 3.67-1.468v-2.936h-7.339v2.936z" fill="#F9CA55" ts:skin="dark" ts:gender="female"/>
	<!-- palette -->
	<path d="M27.47 36c-.279-3.867-4.091-7.954-9.64-9.879-6.703-2.325-13.384-.613-14.923 3.823-.672 1.936-.252 4.071.989 6.056H27.47z" fill="#D99E82"/>
	<!-- paints -->
	<ellipse cx="21.805" cy="32.083" rx="1.654" ry="2.141" transform="rotate(-70.866 21.804 32.082)" fill="#5C913B"/>
	<ellipse cx="7.424" cy="33.703" rx="1.654" ry="2.141" transform="rotate(-70.866 7.424 33.701)" fill="#226699"/>
	<ellipse cx="9.272" cy="28.722" rx="1.654" ry="2.141" transform="rotate(-70.866 9.272 28.72)" fill="#DD2E44"/>
	<ellipse cx="16.32" cy="28.642" rx="1.654" ry="2.141" transform="rotate(-72.681 16.32 28.641)" fill="#FFCC4D"/>
	<!-- hand -->
	<path d="M1 30c.078-1.208 1.394-3.184 3-3 1.665.19.129 3.129 0 4s.144 2.938-1 3c-1.546.084-2.14-1.814-2-4z" fill="#FFDC5D" ts:skin="skin"/>
	<!-- face -->
	<use href="defs.svg#face_neutral" x="29.547" y="13.243" fill="#FFDC5D" ts:skin="skin" ts:gender="neutral"/>
	<ellipse cx="13.805" cy="15.9345" rx="1.639" ry="2.6225" fill="#FFDC5D" ts:skin="skin" ts:gender="male"/><ellipse cx="30.194" cy="15.9345" rx="1.639" ry="2.6225" fill="#FFDC5D" ts:skin="skin" ts:gender="male"/>
	<ellipse cx="22" cy="16.9595" rx="8.522" ry="10.1205" fill="#FFDC5D" ts:skin="skin" ts:gender="male"/>
	<path d="M13.734 15.717c0-5.834 3.676-10.563 8.21-10.563 4.534 0 8.211 4.729 8.211 10.563 0 5.833-3.677 10.286-8.211 10.286-4.534 0-8.21-4.452-8.21-10.286" fill="#FFDC5D" ts:skin="skin" ts:gender="female"/>
	<!-- front hair -->
	<use href="defs.svg#hair_male" x="22" y="3.479" fill="#FFAC33" ts:skin="hair" ts:gender="male"/>
	<use href="defs.svg#hair_front_female" x="21.944" y="5.069" fill="#FFAC33" ts:skin="hair" ts:gender="female"/>
	<!-- moustache -->
	<path d="M26.524 21.346l-1.267-.275c-.404-.093-1.173-.071-1.535-.071h-3.689c-.362 0-1.131-.022-1.536.071l-1.267.275c-.348.1-.55.392-.45.74.082.288.345.44.63.44.06 0 .12-.026.181-.043l1.266-.37c-.142.192-.18.447-.066.675.115.23.346.36.587.36.098 0 .198-.024.293-.07l1.034-.517c.024.214.14.413.347.516.094.047.194.069.293.069.241 0 .472-.133.587-.362l.068-.138-.053.138c.115.23.224.362.465.362.098 0 .198-.022.293-.069.207-.103.323-.303.347-.516l1.034.517c.094.047.194.07.293.07.241 0 .472-.13.587-.36.114-.229.076-.483-.066-.675l1.266.37c.06.017.121.043.181.043.285 0 .548-.152.63-.44.097-.348-.105-.64-.453-.74z" fill="#FFAC33" ts:skin="hair" ts:gender="male"/>
	<!-- eyes -->
	<rect x="17.242" y="14.482" width="1.906" height="2.859" rx="0.953" fill="#662113" ts:skin="eyes2" ts:gender="neutral"/><rect x="24.868" y="14.482" width="1.906" height="2.859" rx="0.953" fill="#662113" ts:skin="eyes2" ts:gender="neutral"/>
	<rect x="17" y="14" width="2" height="3" rx="1" fill="#662113" ts:skin="eyes" ts:gender="male"/><rect x="25" y="14" width="2" height="3" rx="1" fill="#662113" ts:skin="eyes" ts:gender="male"/>
	<rect x="17.762" y="15.349" width="1.693" height="2.537" rx="0.84625" fill="#662113" ts:skin="eyes" ts:gender="female"/><rect x="24.527" y="15.349" width="1.692" height="2.537" rx="0.846" fill="#662113" ts:skin="eyes" ts:gender="female"/>
	<!-- nose -->
	<rect x="20.578" y="19.723" width="2.86" height="0.954" rx="0.477" fill="#C1694F" ts:skin="nose" ts:gender="neutral"/>
	<rect x="20.5" y="18.25" width="3" height="1.5" rx="0.75" fill="#C1694F" ts:skin="nose" ts:gender="male"/>
	<rect x="20.723" y="19.5" width="2.537" height="1" rx="0.42325" fill="#C1694F" ts:skin="nose" ts:gender="female"/>
	<!-- mouth -->
	<path d="M22.134 24.657c-2.754 0-3.6-.705-3.741-.848-.256-.256-.256-.671 0-.927.248-.248.646-.255.902-.023.052.037.721.487 2.839.487 2.2 0 2.836-.485 2.842-.49.256-.255.657-.243.913.015.256.256.242.683-.014.939-.142.142-.987.847-3.741.847" fill="#C1694F" ts:skin="nose" ts:gender="neutral"/>
	<path d="M21.944 23.543c-1.605 0-2.446-.794-2.536-.885-.268-.267-.268-.7 0-.967.266-.265.692-.267.96-.007.035.032.553.491 1.576.491 1.039 0 1.557-.473 1.577-.492.273-.256.703-.248.963.02.26.269.26.691-.004.955-.089.091-.929.885-2.536.885" fill="#DF1F32" ts:gender="female"/>
	<!-- hat -->
	<path d="M33.626 6.385c-.439-2.026-4.933-3.858-9.573-4.075.346-.222.672-.402.924-.48.72-.224-.218-.917-.917-.917 0 0-1.092.505-1.93 1.41-6.756.349-12.218 4.021-12.051 4.979.175 1.004 1.232-.01 1.273.845.04.855.938.938.938.938s3.36-.401 8.87.051c5.51.451 9.114.507 10.53.888.872.235 1.006-1.106 1.006-1.106s1.441-.168.93-2.533z" fill="#66757F" ts:gender="neutral"/>	
	<path d="M33.015 6.385c-.439-2.026-3.627-3.888-8.267-4.105.346-.222.672-.402.924-.48.72-.224-.218-.917-.917-.917 0 0-1.092.505-1.93 1.41C16.069 2.641 10.832 6.344 11 7.302c.175 1.004 1.232-.01 1.273.845.04.855.938.938.938.938s2.44-.401 7.949.051c5.51.451 8.503.507 9.919.888.872.235 1.006-1.106 1.006-1.106s1.44-.168.93-2.533z" fill="#66757F" ts:gender="male"/>
	<path d="M33.015 6.385c-.341-2.045-3.616-3.89-8.267-4.105.346-.222.672-.402.924-.48.72-.224-.218-.917-.917-.917 0 0-1.092.505-1.93 1.41C16.069 2.641 10.832 6.344 11 7.302c.175 1.004.806.061.846.917.041.855.847.917.847.917s2.958-.452 8.467 0c5.51.451 8.74.554 10.16.917 1.422.362.848-.917.848-.917s1.246-.351.847-2.751z" fill="#66757F" ts:gender="female"/>
</svg>
