<svg viewBox="0 0 36 36" xmlns="http://www.w3.org/2000/svg">
	<!-- back hair -->
	<path d="M25.152 3.3c-1.925-.623-5.876-.46-7.008 1.012-2.944.057-6.083 2.932-6.536 6.443-.448 3.475.235 4.874.591 7.486.403 2.96 2.067 3.907 3.397 4.303 1.914 2.529 3.949 2.421 7.366 2.421 6.672 0 9.271-4.458 9.552-12.04.169-4.585-2.522-8.059-7.362-9.625z" fill="#FFAC33" data-skin="#292F33,#FFE51E,#963B22,#60352A,#0B0200" data-gender="neutral"/>
	<path d="M21.944 5.069c4.106 0 10.948 2.053 10.948 10.948s0 10.948-2.053 10.948c-2.054 0-4.79-2.053-8.896-2.053-4.105 0-6.784 2.053-8.895 2.053-2.287 0-2.053-8.211-2.053-10.948.002-8.895 6.844-10.948 10.949-10.948" fill="#FFAC33" data-skin="#292F33,#FFE51E,#963B22,#60352A,#0B0200" data-gender="female"/>
	<!-- shirt -->
	<path d="M30 28h-3.641v-3.71h-8.72V28H14c-3.313 0-6 2.686-6 6v2h28v-2c0-3.314-2.685-6-6-6z" fill="#FA743E" data-gender="neutral"/>
	<path d="M30 28h-3.641v-3.71h-8.72V28H14c-3.313 0-6 2.686-6 6v2h28v-2c0-3.314-2.685-6-6-6z" fill="#77B255" data-gender="male"/>
	<path d="M28 27h-2.34v-3.185h-7.332V27H16c-3.313 0-7 2.186-7 5.5V36h26v-3.5c0-3.314-3.685-5.5-7-5.5z" fill="#9266CC" data-gender="female"/>
	<!-- neck -->
	<path d="M17.632 25.973c1.216 1.374 2.724 1.746 4.364 1.746 1.639 0 3.147-.372 4.364-1.746v-3.491h-8.728v3.491z" fill="#F9CA55" data-skin="#EEC2AD,#E2C196,#CC9B7A,#9B6A49,#664131" data-gender="neutral,male"/>
	<path d="M18.321 25.179c1.023 1.155 2.291 1.468 3.669 1.468 1.379 0 2.647-.312 3.67-1.468v-2.936h-7.339v2.936z" fill="#F9CA55" data-skin="#EEC2AD,#E2C196,#CC9B7A,#9B6A49,#664131" data-gender="female"/>
	<!-- palette -->
	<path d="M27.47 36c-.279-3.867-4.091-7.954-9.64-9.879-6.703-2.325-13.384-.613-14.923 3.823-.672 1.936-.252 4.071.989 6.056H27.47z" fill="#D99E82"/>
	<!-- paints -->
	<ellipse cx="21.805" cy="32.083" fill="#5C913B" rx="1.654" ry="2.141" transform="rotate(-70.866 21.804 32.082)"/>
	<ellipse cx="7.424" cy="33.703" fill="#226699" rx="1.654" ry="2.141" transform="rotate(-70.866 7.424 33.701)"/>
	<ellipse cx="9.272" cy="28.722" fill="#DD2E44" rx="1.654" ry="2.141" transform="rotate(-70.866 9.272 28.72)"/>
	<ellipse cx="16.32" cy="28.642" fill="#FFCC4D" rx="1.654" ry="2.141" transform="rotate(-72.681 16.32 28.641)"/>
	<!-- hand -->
	<path d="M1 30c.078-1.208 1.394-3.184 3-3 1.665.19.129 3.129 0 4s.144 2.938-1 3c-1.546.084-2.14-1.814-2-4z" fill="#FFDC5D" data-skin="#F7DECE,#F3D2A2,#D4AB88,#AF7E57,#7C533E"/>
	<!-- ears -->
	<path d="M15.444 15.935c0 1.448-.734 2.622-1.639 2.622s-1.639-1.174-1.639-2.622.734-2.623 1.639-2.623c.906.001 1.639 1.175 1.639 2.623zm16.389 0c0 1.448-.734 2.622-1.639 2.622s-1.639-1.174-1.639-2.622.734-2.623 1.639-2.623c.906.001 1.639 1.175 1.639 2.623z" fill="#FFDC5D" data-skin="#F7DECE,#F3D2A2,#D5AB88,#AF7E57,#7C533E" data-gender="male"/>
	<!-- face -->
	<path d="M29.547 13.243c-.646-.894-1.472-1.614-3.284-1.868.68.311 1.331 1.387 1.416 1.982.085.595.17 1.076-.368.481-2.155-2.382-4.502-1.444-6.827-2.899-1.624-1.016-2.119-2.141-2.119-2.141s-.198 1.5-2.661 3.029c-.714.443-1.566 1.43-2.038 2.888-.34 1.048-.234 1.982-.234 3.578 0 4.66 3.841 8.578 8.578 8.578s8.578-3.953 8.578-8.578c-.002-2.898-.305-4.03-1.041-5.05z" fill="#FFDC5D" data-skin="#F7DECE,#F3D2A2,#D4AB88,#AF7E57,#7C533E" data-gender="neutral"/>
	<path d="M13.478 16.96c0-5.589 3.816-10.121 8.522-10.121s8.522 4.531 8.522 10.121c0 5.589-3.816 10.12-8.522 10.12s-8.522-4.531-8.522-10.12z" fill="#FFDC5D" data-skin="#F7DECE,#F3D2A2,#D5AB88,#AF7E57,#7C533E" data-gender="male"/>
	<path d="M13.734 15.717c0-5.834 3.676-10.563 8.21-10.563 4.534 0 8.211 4.729 8.211 10.563 0 5.833-3.677 10.286-8.211 10.286-4.534 0-8.21-4.452-8.21-10.286" fill="#FFDC5D" data-skin="#F7DECE,#F3D2A2,#D5AB88,#AF7E57,#7C533E" data-gender="female"/>
	<!-- front hair -->
	<path d="M26.524 21.346l-1.267-.275c-.404-.093-1.173-.071-1.535-.071h-3.689c-.362 0-1.131-.022-1.536.071l-1.267.275c-.348.1-.55.392-.45.74.082.288.345.44.63.44.06 0 .12-.026.181-.043l1.266-.37c-.142.192-.18.447-.066.675.115.23.346.36.587.36.098 0 .198-.024.293-.07l1.034-.517c.024.214.14.413.347.516.094.047.194.069.293.069.241 0 .472-.133.587-.362l.068-.138-.053.138c.115.23.224.362.465.362.098 0 .198-.022.293-.069.207-.103.323-.303.347-.516l1.034.517c.094.047.194.07.293.07.241 0 .472-.13.587-.36.114-.229.076-.483-.066-.675l1.266.37c.06.017.121.043.181.043.285 0 .548-.152.63-.44.097-.348-.105-.64-.453-.74zM22 3.479c5.648 0 9.178 4.168 9.178 7.641s-.706 4.863-1.412 3.473l-1.412-2.778s-4.236 0-5.648-1.39c0 0 2.118 4.168-2.118 0 0 0 .706 2.779-3.53-.695 0 0-2.118 1.39-2.824 4.863-.196.963-1.412 0-1.412-3.473S15.646 3.479 22 3.479z" fill="#FFAC33" data-skin="#292F33,#FFE51E,#963B22,#60352A,#0B0200" data-gender="male"/>
	<path d="M11.725 19c-.021-1-.044-.224-.044-.465 0-3.422 2.053.494 2.053-1.943 0-2.439 1.368-2.683 2.736-4.051.685-.685 2.053-2.026 2.053-2.026s3.421 2.067 6.158 2.067c2.736 0 5.474 1.375 5.474 4.112s2.053-1.584 2.053 1.837c0 .244-.022-.531-.04.469h.718c.007-2 .007-1.924.007-3.202 0-8.895-6.843-12.207-10.948-12.207S10.998 6.848 10.998 15.743c0 .793-.02 1.257.008 3.257h.719z" fill="#FFAC33" data-skin="#292F33,#FFE51E,#963B22,#60352A,#0B0200" data-gender="female"/>
	<!-- moustache -->
	<path d="M26.524 21.346l-1.267-.275c-.404-.093-1.173-.071-1.535-.071h-3.689c-.362 0-1.131-.022-1.536.071l-1.267.275c-.348.1-.55.392-.45.74.082.288.345.44.63.44.06 0 .12-.026.181-.043l1.266-.37c-.142.192-.18.447-.066.675.115.23.346.36.587.36.098 0 .198-.024.293-.07l1.034-.517c.024.214.14.413.347.516.094.047.194.069.293.069.241 0 .472-.133.587-.362l.068-.138-.053.138c.115.23.224.362.465.362.098 0 .198-.022.293-.069.207-.103.323-.303.347-.516l1.034.517c.094.047.194.07.293.07.241 0 .472-.13.587-.36.114-.229.076-.483-.066-.675l1.266.37c.06.017.121.043.181.043.285 0 .548-.152.63-.44.097-.348-.105-.64-.453-.74zM22 3.479c5.648 0 9.178 4.168 9.178 7.641s-.706 4.863-1.412 3.473l-1.412-2.778s-4.236 0-5.648-1.39c0 0 2.118 4.168-2.118 0 0 0 .706 2.779-3.53-.695 0 0-2.118 1.39-2.824 4.863-.196.963-1.412 0-1.412-3.473S15.646 3.479 22 3.479z" fill="#FFAC33" data-skin="#292F33,#FFE51E,#963B22,#60352A,#0B0200" data-gender="male"/>
	<!-- eyes -->
	<path d="M18.195 17.341c-.526 0-.953-.427-.953-.953v-.953c0-.526.427-.953.953-.953s.953.427.953.953v.953c0 .526-.426.953-.953.953zm7.626 0c-.526 0-.953-.427-.953-.953v-.953c0-.526.427-.953.953-.953s.953.427.953.953v.953c0 .526-.427.953-.953.953z" fill="#662113" data-skin="#662113,#662113,#662113,#662113,inherit" data-gender="neutral"/>
	<path d="M18 17c-.55 0-1-.45-1-1v-1c0-.55.45-1 1-1s1 .45 1 1v1c0 .55-.45 1-1 1zm8 0c-.55 0-1-.45-1-1v-1c0-.55.45-1 1-1s1 .45 1 1v1c0 .55-.45 1-1 1z" fill="#662113" data-skin="#662113,#662113,#662113,#60352A,inherit" data-gender="male"/>
	<path d="M18.608 17.886c-.465 0-.846-.381-.846-.846v-.845c0-.465.381-.846.846-.846s.847.381.847.846v.845c0 .465-.382.846-.847.846m6.765 0c-.465 0-.846-.381-.846-.846v-.845c0-.465.381-.846.846-.846.465 0 .846.381.846.846v.845c0 .465-.381.846-.846.846" fill="#662113" data-skin="#662113,#662113,#662113,#60352A,inherit" data-gender="female"/>
	<!-- nose -->
	<path d="M22.961 20.677h-1.906c-.263 0-.477-.213-.477-.477s.213-.477.477-.477h1.906c.263 0 .477.213.477.477s-.213.477-.477.477z" fill="#C1694F" data-skin="#C1694F,#C1694F,#C1694F,#915A34,#3D2E24" data-gender="neutral"/>
	<path d="M22.75 19.75h-1.5c-.413 0-.75-.337-.75-.75s.337-.75.75-.75h1.5c.413 0 .75.337.75.75s-.337.75-.75.75z" fill="#C1694F" data-skin="#C1694F,#C1694F,#C1694F,#915A34,#3D2E24" data-gender="male"/>
	<path d="M22.837 20.5h-1.691c-.233 0-.423-.19-.423-.423v-.153c0-.233.189-.424.423-.424h1.691c.232 0 .423.19.423.424v.153c0 .233-.191.423-.423.423" fill="#C1694F" data-skin="#C1694F,#C1694F,#C1694F,#915A34,#3D2E24" data-gender="female"/>
	<!-- mouth -->
	<path d="M22.134 24.657c-2.754 0-3.6-.705-3.741-.848-.256-.256-.256-.671 0-.927.248-.248.646-.255.902-.023.052.037.721.487 2.839.487 2.2 0 2.836-.485 2.842-.49.256-.255.657-.243.913.015.256.256.242.683-.014.939-.142.142-.987.847-3.741.847" fill="#C1694F" data-skin="#C1694F,#C1694F,#C1694F,#915A34,#3D2E24" data-gender="neutral"/>
	<path d="M21.944 23.543c-1.605 0-2.446-.794-2.536-.885-.268-.267-.268-.7 0-.967.266-.265.692-.267.96-.007.035.032.553.491 1.576.491 1.039 0 1.557-.473 1.577-.492.273-.256.703-.248.963.02.26.269.26.691-.004.955-.089.091-.929.885-2.536.885" fill="#DF1F32" data-gender="female"/>
	<!-- hat -->
	<path d="M33.626 6.385c-.439-2.026-4.933-3.858-9.573-4.075.346-.222.672-.402.924-.48.72-.224-.218-.917-.917-.917 0 0-1.092.505-1.93 1.41-6.756.349-12.218 4.021-12.051 4.979.175 1.004 1.232-.01 1.273.845.04.855.938.938.938.938s3.36-.401 8.87.051c5.51.451 9.114.507 10.53.888.872.235 1.006-1.106 1.006-1.106s1.441-.168.93-2.533z" fill="#66757F" data-gender="neutral"/>	
	<path d="M33.015 6.385c-.439-2.026-3.627-3.888-8.267-4.105.346-.222.672-.402.924-.48.72-.224-.218-.917-.917-.917 0 0-1.092.505-1.93 1.41C16.069 2.641 10.832 6.344 11 7.302c.175 1.004 1.232-.01 1.273.845.04.855.938.938.938.938s2.44-.401 7.949.051c5.51.451 8.503.507 9.919.888.872.235 1.006-1.106 1.006-1.106s1.44-.168.93-2.533z" fill="#66757F" data-gender="male"/>
	<path d="M33.015 6.385c-.341-2.045-3.616-3.89-8.267-4.105.346-.222.672-.402.924-.48.72-.224-.218-.917-.917-.917 0 0-1.092.505-1.93 1.41C16.069 2.641 10.832 6.344 11 7.302c.175 1.004.806.061.846.917.041.855.847.917.847.917s2.958-.452 8.467 0c5.51.451 8.74.554 10.16.917 1.422.362.848-.917.848-.917s1.246-.351.847-2.751z" fill="#66757F" data-gender="female"/>
</svg>
