<svg viewBox="0 0 36 36" xmlns="http://www.w3.org/2000/svg" xmlns:ts="data:,a">
	<!-- back hair -->
	<use href="defs.svg#hair_neutral_narrow" x="25.152" y="3.3" ts:skin="hair" ts:gender="neutral"/>
	<use href="defs.svg#hair_back_female" x="21.944" y="5.069" ts:skin="hair" ts:gender="female"/>
	<!-- shirt -->
	<use href="defs.svg#shoulders_male" x="22" fill="#FA743E" ts:gender="neutral,male" ts:gender-color="#77B255,"/>
	<use href="defs.svg#shoulders_female" x="22" fill="#9266CC" ts:gender="female"/>
	<!-- neck -->
	<rect x="17.632" y="24" width="8.728" height="6" fill="#FA743E" ts:gender="neutral,male" ts:gender-color="#77B255,"/>
	<rect x="18.321" y="24" width="7.339" height="6" fill="#9266CC" ts:gender="female"/>
	<!-- neck shadow -->
	<use href="defs.svg#neck_shadow_male" x="21.996" y="27.719" ts:skin="dark" ts:gender="neutral,male"/>
	<use href="defs.svg#neck_shadow_female" x="21.99" y="26.647" ts:skin="dark" ts:gender="female"/>
	<!-- palette -->
	<path d="M27.47 36c-.279-3.867-4.091-7.954-9.64-9.879-6.703-2.325-13.384-.613-14.923 3.823-.672 1.936-.252 4.071.989 6.056H27.47z" fill="#D99E82"/>
	<!-- paints -->
	<ellipse rx="1.654" ry="2.141" transform="translate(7.424 33.703) rotate(-70.866)" fill="#269"/>
	<ellipse rx="1.654" ry="2.141" transform="translate(9.272 28.722) rotate(-70.866)" fill="#DD2E44"/>
	<ellipse rx="1.654" ry="2.141" transform="translate(21.805 32.083) rotate(-70.866)" fill="#5C913B"/>
	<ellipse rx="1.654" ry="2.141" transform="translate(16.32 28.642) rotate(-72.681)" fill="#FFCC4D"/>
	<!-- hand -->
	<path d="M1 30c.078-1.208 1.394-3.184 3-3 1.665.19.129 3.129 0 4s.144 2.938-1 3c-1.546.084-2.14-1.814-2-4z" ts:skin="skin"/>
	<!-- face -->
	<use href="defs.svg#face_neutral" x="29.547" y="13.243" ts:skin="skin" ts:gender="neutral"/>
	<use href="defs.svg#face_male" x="22" y="16.959" ts:skin="skin" ts:gender="male"/>
	<use href="defs.svg#face_female" x="13.734" y="15.717" ts:skin="skin" ts:gender="female"/>
	<!-- front hair -->
	<use href="defs.svg#hair_male" x="22" y="3.479" ts:skin="hair" ts:gender="male"/>
	<use href="defs.svg#hair_front_female" x="21.944" y="5.069" ts:skin="hair" ts:gender="female"/>
	<!-- moustache -->
	<use href="defs.svg#moustache1" x="26.524" y="21.346" ts:skin="hair" ts:gender="male"/>
	<!-- eyes -->
	<use href="defs.svg#eyes_neutral" x="22.008" y="15.9115" ts:skin="eyes" ts:gender="neutral"/>
	<use href="defs.svg#eyes_male" x="22" y="15.5" ts:skin="eyes" ts:gender="male"/>
	<use href="defs.svg#eyes_female" x="21.99075" y="16.6175" ts:skin="eyes" ts:gender="female"/>
	<!-- nose -->
	<use href="defs.svg#nose_neutral" x="22.008" y="20.2" ts:skin="nose" ts:gender="neutral"/>
	<use href="defs.svg#nose_male" x="22.0" y="19.0" ts:skin="nose" ts:gender="male"/>
	<use href="defs.svg#nose_female" x="21.9915" y="20.0" ts:skin="nose" ts:gender="female"/>
	<!-- mouth -->
	<use href="defs.svg#mouth_neutral" x="22.134" y="24.657" ts:skin="mouth" ts:gender="neutral"/>
	<use href="defs.svg#mouth_female" x="21.944" y="23.543" ts:skin="mouth" ts:gender="female"/>
	<!-- hat -->
	<path d="M33.626 6.385c-.439-2.026-4.933-3.858-9.573-4.075.346-.222.672-.402.924-.48.72-.224-.218-.917-.917-.917 0 0-1.092.505-1.93 1.41-6.756.349-12.218 4.021-12.051 4.979.175 1.004 1.232-.01 1.273.845.04.855.938.938.938.938s3.36-.401 8.87.051c5.51.451 9.114.507 10.53.888.872.235 1.006-1.106 1.006-1.106s1.441-.168.93-2.533z" fill="#66757F" ts:gender="neutral"/>	
	<path d="M33.015 6.385c-.439-2.026-3.627-3.888-8.267-4.105.346-.222.672-.402.924-.48.72-.224-.218-.917-.917-.917 0 0-1.092.505-1.93 1.41C16.069 2.641 10.832 6.344 11 7.302c.175 1.004 1.232-.01 1.273.845.04.855.938.938.938.938s2.44-.401 7.949.051c5.51.451 8.503.507 9.919.888.872.235 1.006-1.106 1.006-1.106s1.44-.168.93-2.533z" fill="#66757F" ts:gender="male"/>
	<path d="M33.015 6.385c-.341-2.045-3.616-3.89-8.267-4.105.346-.222.672-.402.924-.48.72-.224-.218-.917-.917-.917 0 0-1.092.505-1.93 1.41C16.069 2.641 10.832 6.344 11 7.302c.175 1.004.806.061.846.917.041.855.847.917.847.917s2.958-.452 8.467 0c5.51.451 8.74.554 10.16.917 1.422.362.848-.917.848-.917s1.246-.351.847-2.751z" fill="#66757F" ts:gender="female"/>
</svg>
