<svg viewBox="0 0 36 36" xmlns="http://www.w3.org/2000/svg" xmlns:ts="data:,a">
	<!-- back hair -->
	<use href="defs.svg#hair_neutral_narrow" x="25.152" y="3.3" fill="#FFAC33" ts:skin="hair" ts:gender="neutral"/>
	<use href="defs.svg#hair_back_female" x="21.944" y="5.069" fill="#FFAC33" ts:skin="hair" ts:gender="female"/>
	<!-- shirt -->
	<path d="M 30,28 c 3.315,0 6,2.686 6,6 v 2 h -28 v -2 c 0,-3.314 2.687,-6 6,-6 h 3.639 v -3.71 h 8.72 v 3.71 h 3.641 Z" fill="#FA743E" ts:gender="neutral,male" ts:gender-color="#77B255,"/>
	<path d="M 28,27 c 3.315,0 7,2.186 7,5.5 v 3.5 h -26 v -3.5 c 0,-3.314 3.687,-5.5 7,-5.5 h 2.328 v -3.185 h 7.332 v 3.185 h 2.34 Z" fill="#9266CC" ts:gender="female"/>
	<!-- neck shadow -->
	<path d="M17.632 25.973c1.216 1.374 2.724 1.746 4.364 1.746 1.639 0 3.147-.372 4.364-1.746v-3.491h-8.728v3.491z" fill="#F9CA55" ts:skin="dark" ts:gender="neutral,male"/>
	<path d="M18.321 25.179c1.023 1.155 2.291 1.468 3.669 1.468 1.379 0 2.647-.312 3.67-1.468v-2.936h-7.339v2.936z" fill="#F9CA55" ts:skin="dark" ts:gender="female"/>
	<!-- palette -->
	<path d="M27.47 36c-.279-3.867-4.091-7.954-9.64-9.879-6.703-2.325-13.384-.613-14.923 3.823-.672 1.936-.252 4.071.989 6.056H27.47z" fill="#D99E82"/>
	<!-- paints -->
	<ellipse rx="1.654" ry="2.141" transform="translate(7.424 33.703) rotate(-70.866)" fill="#269"/>
	<ellipse rx="1.654" ry="2.141" transform="translate(9.272 28.722) rotate(-70.866)" fill="#DD2E44"/>
	<ellipse rx="1.654" ry="2.141" transform="translate(21.805 32.083) rotate(-70.866)" fill="#5C913B"/>
	<ellipse rx="1.654" ry="2.141" transform="translate(16.32 28.642) rotate(-72.681)" fill="#FFCC4D"/>
	<!-- hand -->
	<path d="M1 30c.078-1.208 1.394-3.184 3-3 1.665.19.129 3.129 0 4s.144 2.938-1 3c-1.546.084-2.14-1.814-2-4z" fill="#FFDC5D" ts:skin="skin"/>
	<!-- face -->
	<use href="defs.svg#face_neutral" x="29.547" y="13.243" fill="#FFDC5D" ts:skin="skin" ts:gender="neutral"/>
	<use href="defs.svg#face_male" x="22" y="16.959" fill="#FFDC5D" ts:skin="skin" ts:gender="male"/>
	<use href="defs.svg#face_female" x="13.734" y="15.717" fill="#FFDC5D" ts:skin="skin" ts:gender="female"/>
	<!-- front hair -->
	<use href="defs.svg#hair_male" x="22" y="3.479" fill="#FFAC33" ts:skin="hair" ts:gender="male"/>
	<use href="defs.svg#hair_front_female" x="21.944" y="5.069" fill="#FFAC33" ts:skin="hair" ts:gender="female"/>
	<!-- moustache -->
	<use href="defs.svg#moustache1" x="26.524" y="21.346" fill="#FFAC33" ts:skin="hair" ts:gender="male"/>
	<!-- eyes -->
	<use href="defs.svg#eyes_neutral" x="22.008" y="15.9115" fill="#662113" ts:skin="eyes" ts:gender="neutral"/>
	<use href="defs.svg#eyes_male" x="22" y="15.5" fill="#662113" ts:skin="eyes" ts:gender="male"/>
	<use href="defs.svg#eyes_female" x="21.99075" y="16.6175" fill="#662113" ts:skin="eyes" ts:gender="female"/>
	<!-- nose -->
	<use href="defs.svg#nose_neutral2" x="22.008" y="20.2" fill="#C1694F" ts:skin="nose" ts:gender="neutral"/>
	<use href="defs.svg#nose_male2" x="22.0" y="19.0" fill="#C1694F" ts:skin="nose" ts:gender="male"/>
	<use href="defs.svg#nose_female2" x="21.9915" y="20.0" fill="#C1694F" ts:skin="nose" ts:gender="female"/>
	<!-- mouth -->
	<use href="defs.svg#mouth_neutral" x="22.134" y="24.657" fill="#C1694F" ts:skin="nose" ts:gender="neutral"/>
	<use href="defs.svg#mouth_female" x="21.944" y="23.543" fill="#DF1F32" ts:gender="female"/>
	<!-- hat -->
	<path d="M33.626 6.385c-.439-2.026-4.933-3.858-9.573-4.075.346-.222.672-.402.924-.48.72-.224-.218-.917-.917-.917 0 0-1.092.505-1.93 1.41-6.756.349-12.218 4.021-12.051 4.979.175 1.004 1.232-.01 1.273.845.04.855.938.938.938.938s3.36-.401 8.87.051c5.51.451 9.114.507 10.53.888.872.235 1.006-1.106 1.006-1.106s1.441-.168.93-2.533z" fill="#66757F" ts:gender="neutral"/>	
	<path d="M33.015 6.385c-.439-2.026-3.627-3.888-8.267-4.105.346-.222.672-.402.924-.48.72-.224-.218-.917-.917-.917 0 0-1.092.505-1.93 1.41C16.069 2.641 10.832 6.344 11 7.302c.175 1.004 1.232-.01 1.273.845.04.855.938.938.938.938s2.44-.401 7.949.051c5.51.451 8.503.507 9.919.888.872.235 1.006-1.106 1.006-1.106s1.44-.168.93-2.533z" fill="#66757F" ts:gender="male"/>
	<path d="M33.015 6.385c-.341-2.045-3.616-3.89-8.267-4.105.346-.222.672-.402.924-.48.72-.224-.218-.917-.917-.917 0 0-1.092.505-1.93 1.41C16.069 2.641 10.832 6.344 11 7.302c.175 1.004.806.061.846.917.041.855.847.917.847.917s2.958-.452 8.467 0c5.51.451 8.74.554 10.16.917 1.422.362.848-.917.848-.917s1.246-.351.847-2.751z" fill="#66757F" ts:gender="female"/>
</svg>
