<svg viewBox="0 0 36 36" xmlns="http://www.w3.org/2000/svg" xmlns:ts="data:,a">
	<!-- body -->
	<path d="M36 36v-2c0-3.313-2.687-6-6-6H14c-3.313 0-6 2.687-6 6v2h28z" fill="#E1E8ED" ts:gender="neutral,male"/>
	<path d="M35 36v-3.5c0-2.486-2.073-4.337-4.508-5.107-.409-.129-17.117.044-17.117.044C10.998 28.232 9 30.06 9 32.5V36h26z" fill="#E1E8ED" ts:gender="female"/>
	<path d="M 29.799,28.127 l 1.416,-0.004 l -0.015,0.974 c -0.145,2.404 -4.202,3.413 -9.199,3.413 c -5.018,0 -9.09,-0.987 -9.204,-3.392 l -0.005,-1.019 Z" fill="#EA596E" ts:gender="neutral,male"/>
	<path d="M 29.799,27.127 l 1.416,-0.004 l -0.015,0.974 c -0.145,2.404 -4.202,3.413 -9.199,3.413 c -5.018,0 -9.09,-0.987 -9.204,-3.392 l -0.005,-1.019 Z" fill="#EA596E" ts:gender="female"/>
	
	<ellipse cx="22" cy="28.07" rx="9.214" ry="3.439" fill="#BE1931" ts:gender="neutral,male"/>
	<ellipse cx="22" cy="27.069" rx="9.214" ry="3.439" fill="#BE1931" ts:gender="female"/>
	
	<ellipse cx="22" cy="28.07" rx="7.8" ry="2.463" fill="#292F33" ts:gender="neutral,male"/>
	<ellipse cx="22" cy="27.07" rx="7.8" ry="2.4635" fill="#292F33" ts:gender="female"/>
	<!-- back hair -->
	<use href="defs.svg#hair_neutral" x="25.597" y="3.516" ts:skin="hair" ts:gender="neutral"/>
	<use href="defs.svg#hair_back_female" x="21.944" y="5.069" ts:skin="hair" ts:gender="female"/>
	<!-- neck -->
	<path d="M17.64 27.937c1.744 1.267 2.848 1.511 4.36 1.511 1.511 0 2.616-.245 4.36-1.511v-3.811h-8.72v3.811z" ts:skin="skin" ts:gender="neutral,male"/>
	<path d="M18.328 27.02c1.466 1.065 2.964 1.207 3.672 1.207s2.194-.142 3.66-1.207v-3.205h-7.332v3.205z" ts:skin="skin" ts:gender="female"/>
	<path d="M17.632 25.973c1.216 1.374 2.724 1.746 4.364 1.746 1.639 0 3.147-.372 4.364-1.746v-3.491h-8.728v3.491z" ts:skin="dark" ts:gender="neutral,male"/>
	<path d="M18.321 25.179c1.023 1.155 2.291 1.468 3.669 1.468 1.379 0 2.647-.312 3.67-1.468v-2.936h-7.339v2.936z" ts:skin="dark" ts:gender="female"/>
	<!-- face -->
	<use href="defs.svg#face_neutral" x="29.413" y="13.466" ts:skin="skin" ts:gender="neutral"/>
	<use href="defs.svg#face_male" x="22" y="16.959" ts:skin="skin" ts:gender="male"/>
	<use href="defs.svg#face_female" x="13.734" y="15.717" ts:skin="skin" ts:gender="female"/>
	<!-- hair -->
	<use href="defs.svg#hair_male" x="22" y="3.48" ts:skin="hair" ts:gender="male"/>
	<use href="defs.svg#hair_front_female" x="21.944" y="5.069" ts:skin="hair" ts:gender="female"/>
	<!-- eyes -->
	<use href="defs.svg#eyes_neutral" x="21.8745" y="16.1345" ts:skin="eyes" ts:gender="neutral"/>
	<use href="defs.svg#eyes_male" x="22" y="15.5" ts:skin="eyes" ts:gender="male"/>
	<use href="defs.svg#eyes_female" x="21.99075" y="16.6175" ts:skin="eyes" ts:gender="female"/> <!-- wrong color in orig! -->
	<!-- nose -->
	<use href="defs.svg#nose_neutral" x="21.874" y="20.423" ts:skin="nose" ts:gender="neutral"/>
	<use href="defs.svg#nose_male" x="22.0" y="19.0" ts:skin="nose" ts:gender="male"/>
	<use href="defs.svg#nose_female" x="21.9915" y="20.0" ts:skin="nose" ts:gender="female"/>
	<!-- mouth -->
	<use href="defs.svg#mouth_neutral" x="22" y="24.88" ts:skin="mouth" ts:gender="neutral"/>
	<use href="defs.svg#mouth_neutral" x="22" y="23.802" ts:skin="mouth" ts:gender="male"/>
	<use href="defs.svg#mouth_female" x="21.944" y="23.543" ts:skin="mouth" ts:gender="female"/>
	<!-- patch -->
	<path d="M33 33v3h3v-2c0-.341-.035-.674-.09-1H33z" fill="#55ACEE" ts:gender="neutral,male"/>
	<rect x="32" y="33" width="3" height="3" fill="#55ACEE" ts:gender="female"/>
	<rect x="34" y="34" width="2" height="2" fill="#FFCC4D" ts:gender="neutral,male"/>
	<rect x="33" y="34" width="2" height="2" fill="#FFCC4D" ts:gender="female"/>
	<!-- helmet -->
	<path d="M24.004 36c-1.198-5.146-6.048-9-11.857-9C6.338 27 1.488 30.854.29 36h23.714z" fill="#E1E8ED"/>
	<path d="M22.669 36c-1.173-4.464-5.432-7.778-10.522-7.778S2.798 31.536 1.625 36h21.044z" fill="#292F33"/>
	<path d="M21.637 36c-1.148-3.937-4.956-6.833-9.49-6.833S3.805 32.063 2.657 36h18.98z" fill="#FFAC33"/>
	<path d="M18.195 35.048l.103-.063c.769-.468.928-1.538.301-2.182-.468-.48-.993-.909-1.566-1.267-.56-.35-1.159-.621-1.785-.827-.828-.273-1.711.233-1.866 1.091-.119.661.224 1.346.855 1.578.865.318 1.627.828 2.231 1.474.443.472 1.174.533 1.727.196z" fill="#FFDC5D"/>
	<!-- stars -->
	<path d="M 6.344,14.262 a 0.667,0.667 0 01 0,1.25 l -1.534,0.568 -0.604,2.415 a 0.667,0.667 0 01 -1.294,0 l -0.604,-2.415 -1.534,-0.568 a 0.667,0.667 0 01 0,-1.25 l 1.542,-0.571 0.6,-2.2 a 0.667,0.667 0 01 1.286,0 l 0.6,2.2 1.542,0.571 Z" fill="#9266CC"/>
	<path d="M 11.28,4.634 a 1.1,1.1 0 01 0,2.07 l -2.61,0.966 -0.966,2.61 a 1.1,1.1 0 01 -2.07,0 l -0.966,-2.61 -2.61,-0.966 a 1.1,1.1 0 01 0,-2.07 l 2.61,-0.966 0.966,-2.61 a 1.1,1.1 0 01 2.07,0 l 0.966,2.61 2.61,0.966 Z" fill="#5DADEC"/>
</svg>
