<svg viewBox="0 0 36 36" xmlns="http://www.w3.org/2000/svg">
	
	<path d="M36 36v-2c0-3.313-2.687-6-6-6H14c-3.313 0-6 2.687-6 6v2h28z" fill="#E1E8ED" data-gender="neutral,male"/>
	<path d="M35 36v-3.5c0-2.486-2.073-4.337-4.508-5.107-.409-.129-17.117.044-17.117.044C10.998 28.232 9 30.06 9 32.5V36h26z" fill="#E1E8ED" data-gender="female"/>
	<path d="M29.799 28.127c0 1.36-3.491 2.434-7.799 2.434s-7.798-1.06-7.798-2.42c0-.062.015-.141.029-.141h-.734l-.705.099.005 1.019c.114 2.405 4.186 3.392 9.204 3.392 4.997 0 9.054-1.009 9.199-3.413l.015-.974c-.001-.001-1.416-.058-1.416.004z" fill="#EA596E" data-gender="neutral,male"/>
	<path d="M29.799 27.127c0 1.36-3.491 2.434-7.799 2.434s-7.798-1.06-7.798-2.42c0-.062-1.41-.042-1.41-.042l.005 1.019c.114 2.405 4.186 3.392 9.204 3.392 4.997 0 9.054-1.009 9.199-3.413l.015-.974c-.001-.001-1.416-.058-1.416.004z" fill="#EA596E" data-gender="female"/>
	<ellipse cx="22" cy="28.07" rx="9.214" ry="3.439" fill="#BE1931" data-gender="neutral,male"/>
	<ellipse cx="22" cy="27.069" rx="9.214" ry="3.439" fill="#BE1931" data-gender="female"/>
	
	<path d="M22 30.533c-4.307 0-7.799-1.103-7.799-2.463s3.492-2.463 7.799-2.463 7.799 1.103 7.799 2.463-3.492 2.463-7.799 2.463z" fill="#292F33" data-gender="neutral,male"/>
	<path d="M22 29.533c-4.307 0-7.799-1.104-7.799-2.464 0-1.359 3.492-2.463 7.799-2.463s7.799 1.104 7.799 2.463c0 1.361-3.492 2.464-7.799 2.464" fill="#292F33" data-gender="female"/>
	<path d="M25.597 3.516c-1.925-.623-6.455-.453-7.588 1.019-2.944.057-6.398 2.718-6.851 6.228-.448 3.475.551 5.088.906 7.701.403 2.96 2.067 3.907 3.397 4.303 1.914 2.529 3.949 2.421 7.366 2.421 6.672 0 9.85-4.464 10.131-12.047.17-4.585-2.521-8.059-7.361-9.625z" fill="#FFAC33" data-skin="#292F33|#FFE51E|#963B22|#60352A|#0B0200" data-gender="neutral"/>
	<path d="M21.944 5.069c4.106 0 10.948 2.053 10.948 10.948s0 10.948-2.053 10.948c-2.054 0-4.152-2.053-8.896-2.053-4.105 0-6.784 2.053-8.895 2.053-2.287 0-2.053-8.211-2.053-10.948.002-8.895 6.844-10.948 10.949-10.948" fill="#FFAC33" data-skin="#292F33|#FFE51E|#963B22|#60352A|#0B0200" data-gender="female"/>
	<path d="M17.64 27.937c1.744 1.267 2.848 1.511 4.36 1.511 1.511 0 2.616-.245 4.36-1.511v-3.811h-8.72v3.811z" fill="#FFDC5D" data-skin="#F7DECE|#F3D2A2|#D4AB88|#AF7E57|#7C533E" data-gender="neutral,male"/>
	<path d="M18.328 27.02c1.466 1.065 2.964 1.207 3.672 1.207s2.194-.142 3.66-1.207v-3.205h-7.332v3.205z" fill="#FFDC5D" data-skin="#F7DECE|#F3D2A2|#D5AB88|#AF7E57|#7C533E" data-gender="female"/>
	<path d="M17.632 25.973c1.216 1.374 2.724 1.746 4.364 1.746 1.639 0 3.147-.372 4.364-1.746v-3.491h-8.728v3.491z" fill="#F9CA55" data-skin="#EEC2AD|#E2C196|#CC9B7A|#9B6A49|#664131" data-gender="neutral,male"/>
	<path d="M18.321 25.179c1.023 1.155 2.291 1.468 3.669 1.468 1.379 0 2.647-.312 3.67-1.468v-2.936h-7.339v2.936z" fill="#F9CA55" data-skin="#EEC2AD|#E2C196|#CC9B7A|#9B6A49|#664131" data-gender="female"/>
	<path d="M29.413 13.466c-.646-.894-1.472-1.614-3.284-1.868.68.311 1.331 1.387 1.416 1.982.085.595.17 1.076-.368.481-2.155-2.382-4.502-1.444-6.827-2.899-1.624-1.016-2.119-2.141-2.119-2.141s-.198 1.5-2.661 3.029c-.714.443-1.566 1.43-2.038 2.888-.34 1.048-.234 1.982-.234 3.578 0 4.66 3.841 8.578 8.578 8.578s8.578-3.953 8.578-8.578c-.001-2.898-.305-4.031-1.041-5.05z" fill="#FFDC5D" data-skin="#F7DECE|#F3D2A2|#D4AB88|#AF7E57|#7C533E" data-gender="neutral"/>
	<path d="M13.477 16.959c0-5.589 3.816-10.121 8.523-10.121s8.522 4.532 8.522 10.121S26.707 27.08 22 27.08c-4.706 0-8.523-4.531-8.523-10.121" fill="#FFDC5D" data-skin="#F7DECE|#F3D2A2|#D5AB88|#AF7E57|#7C533E" data-gender="male"/>
	<path d="M15.444 15.936c0 1.448-.734 2.622-1.639 2.622s-1.639-1.174-1.639-2.622.734-2.623 1.639-2.623c.905-.001 1.639 1.174 1.639 2.623m16.389 0c0 1.448-.733 2.622-1.639 2.622-.905 0-1.639-1.174-1.639-2.622s.733-2.623 1.639-2.623c.906-.001 1.639 1.174 1.639 2.623" fill="#FFDC5D" data-skin="#F7DECE|#F3D2A2|#D5AB88|#AF7E57|#7C533E" data-gender="male"/>
	<path d="M13.734 15.717c0-5.834 3.676-10.563 8.21-10.563 4.534 0 8.211 4.729 8.211 10.563 0 5.833-3.677 10.286-8.211 10.286-4.534 0-8.21-4.452-8.21-10.286" fill="#FFDC5D" data-skin="#F7DECE|#F3D2A2|#D5AB88|#AF7E57|#7C533E" data-gender="female"/>
	<path d="M22 3.48c5.648 0 9.178 4.168 9.178 7.641s-.706 4.863-1.412 3.473l-1.412-2.778s-4.235 0-5.647-1.39c0 0 2.118 4.168-2.118 0 0 0 .706 2.779-3.53-.694 0 0-2.118 1.389-2.824 4.862-.196.964-1.412 0-1.412-3.473C12.822 7.648 15.646 3.48 22 3.48" fill="#FFAC33" data-skin="#292F33|#FFE51E|#963B22|#60352A|#0B0200" data-gender="male"/>
	<path d="M11.725 19c-.021-1-.044-.224-.044-.465 0-3.422 2.053.494 2.053-1.943 0-2.439 1.368-2.683 2.736-4.051.685-.685 2.053-2.026 2.053-2.026s3.421 2.067 6.158 2.067c2.736 0 5.474 1.375 5.474 4.112s2.053-1.584 2.053 1.837c0 .244-.022-.531-.04.469h.718c.007-2 .007-1.924.007-3.202 0-8.895-6.843-12.207-10.948-12.207S10.998 6.848 10.998 15.743c0 .793-.02 1.257.008 3.257h.719z" fill="#FFAC33" data-skin="#292F33|#FFE51E|#963B22|#60352A|#0B0200" data-gender="female"/>
	<!-- eyes -->
	<rect x="17.109" y="14.705" width="1.906" height="2.859" rx="0.953" fill="#662113" data-skin="#662113|#662113|#662113|#662113|#000000" data-gender="neutral"/><rect x="24.734" y="14.705" width="1.906" height="2.859" rx="0.953" fill="#662113" data-skin="#662113|#662113|#662113|#662113|#000000" data-gender="neutral"/>
	<rect x="17" y="14" width="2" height="3" rx="1" fill="#662113" data-skin="#662113|#662113|#662113|#60352A|#000000" data-gender="male"/><rect x="25" y="14" width="2" height="3" rx="1" fill="#662113" data-skin="#662113|#662113|#662113|#60352A|#000000" data-gender="male"/>
	<rect x="17.762" y="15.349" width="1.693" height="2.537" rx="0.84625" fill="#662113" data-skin="#60352A|#60352A|#662113|#60352A|#000000" data-gender="female"/><rect x="24.527" y="15.349" width="1.692" height="2.537" rx="0.846" fill="#662113" data-skin="#60352A|#60352A|#662113|#60352A|#000000" data-gender="female"/>
	<!-- nose -->
	<rect x="20.444" y="19.946" width="2.86" height="0.954" rx="0.477" fill="#C1694F" data-skin="#C1694F|#C1694F|#C1694F|#915A34|#3D2E24" data-gender="neutral"/>
	<rect x="20.5" y="18.25" width="3" height="1.5" rx="0.75" fill="#C1694F" data-skin="#C1694F|#C1694F|#C1694F|#915A34|#3D2E24" data-gender="male"/>
	<rect x="20.723" y="19.5" width="2.537" height="1" rx="0.42325" fill="#C1694F" data-skin="#C1694F|#C1694F|#C1694F|#915A34|#3D2E24" data-gender="female"/>
	<!-- mouth -->
	<path d="M22 24.88c-2.754 0-3.6-.705-3.741-.848-.256-.256-.256-.671 0-.927.248-.248.646-.255.902-.023.052.037.721.487 2.839.487 2.2 0 2.836-.485 2.842-.49.256-.255.657-.243.913.015.256.256.242.683-.014.938-.141.143-.987.848-3.741.848" fill="#C1694F" data-skin="#C1694F|#C1694F|#C1694F|#915A34|#3D2E24" data-gender="neutral"/>
	<path d="M22 23.802c-2.754 0-3.6-.705-3.741-.848-.256-.256-.256-.671 0-.927.248-.248.646-.255.902-.023.052.037.721.487 2.839.487 2.2 0 2.836-.485 2.842-.49.256-.255.657-.243.913.015.256.256.242.683-.014.938-.141.143-.987.848-3.741.848" fill="#C1694F" data-skin="#C1694F|#C1694F|#C1694F|#915A34|#3D2E24" data-gender="male"/>
	<path d="M21.944 23.543c-1.605 0-2.446-.794-2.536-.885-.268-.267-.268-.7 0-.967.266-.265.692-.267.96-.007.035.032.553.491 1.576.491 1.039 0 1.557-.473 1.577-.492.273-.256.703-.248.963.02.26.269.26.691-.004.955-.089.091-.929.885-2.536.885" fill="#DF1F32" data-gender="female"/>
	<!-- patch -->
	<path d="M33 33v3h3v-2c0-.341-.035-.674-.09-1H33z" fill="#55ACEE" data-gender="neutral,male"/>
	<rect x="32" y="33" width="3" height="3" fill="#55ACEE" data-gender="female"/>
	<rect x="34" y="34" width="2" height="2" fill="#FFCC4D" data-gender="neutral,male"/>
	<rect x="33" y="34" width="2" height="2" fill="#FFCC4D" data-gender="female"/>
	<!-- helmet -->
	<path d="M24.004 36c-1.198-5.146-6.048-9-11.857-9C6.338 27 1.488 30.854.29 36h23.714z" fill="#E1E8ED"/>
	<path d="M22.669 36c-1.173-4.464-5.432-7.778-10.522-7.778S2.798 31.536 1.625 36h21.044z" fill="#292F33"/>
	<path d="M21.637 36c-1.148-3.937-4.956-6.833-9.49-6.833S3.805 32.063 2.657 36h18.98z" fill="#FFAC33"/>
	<path d="M18.195 35.048l.103-.063c.769-.468.928-1.538.301-2.182-.468-.48-.993-.909-1.566-1.267-.56-.35-1.159-.621-1.785-.827-.828-.273-1.711.233-1.866 1.091-.119.661.224 1.346.855 1.578.865.318 1.627.828 2.231 1.474.443.472 1.174.533 1.727.196z" fill="#FFDC5D"/>
	<!-- stars -->
	<path d="M6.344 14.262l-1.542-.571-.6-2.2c-.079-.29-.343-.491-.643-.491-.301 0-.564.201-.643.492l-.6 2.2-1.542.571c-.262.096-.435.346-.435.625s.173.529.435.625l1.534.568.604 2.415c.074.296.341.504.647.504s.572-.208.647-.505l.604-2.415 1.534-.568c.262-.096.435-.346.435-.625 0-.278-.173-.528-.435-.625z" fill="#9266CC"/>
	<path d="M11.28 4.634l-2.61-.966-.966-2.61c-.161-.433-.573-.72-1.035-.72-.462 0-.874.287-1.035.72l-.966 2.61-2.61.966c-.433.161-.72.573-.72 1.035 0 .462.287.875.72 1.035l2.61.966.966 2.61c.16.433.573.72 1.035.72.462 0 .875-.287 1.035-.72l.966-2.61 2.61-.966c.433-.161.72-.573.72-1.035 0-.462-.287-.875-.72-1.035z" fill="#5DADEC"/>
</svg>
