<svg viewBox="0 0 36 36" xmlns="http://www.w3.org/2000/svg" xmlns:ts="data:,a">
	<!-- body -->
	<path d="M36 36v-2c0-3.313-2.687-6-6-6H14c-3.313 0-6 2.687-6 6v2h28z" fill="#E1E8ED" ts:gender="neutral,male"/>
	<path d="M35 36v-3.5c0-2.486-2.073-4.337-4.508-5.107-.409-.129-17.117.044-17.117.044C10.998 28.232 9 30.06 9 32.5V36h26z" fill="#E1E8ED" ts:gender="female"/>
	<path d="M29.799 28.127c0 1.36-3.491 2.434-7.799 2.434s-7.798-1.06-7.798-2.42c0-.062.015-.141.029-.141h-.734l-.705.099.005 1.019c.114 2.405 4.186 3.392 9.204 3.392 4.997 0 9.054-1.009 9.199-3.413l.015-.974c-.001-.001-1.416-.058-1.416.004z" fill="#EA596E" ts:gender="neutral,male"/>
	<path d="M29.799 27.127c0 1.36-3.491 2.434-7.799 2.434s-7.798-1.06-7.798-2.42c0-.062-1.41-.042-1.41-.042l.005 1.019c.114 2.405 4.186 3.392 9.204 3.392 4.997 0 9.054-1.009 9.199-3.413l.015-.974c-.001-.001-1.416-.058-1.416.004z" fill="#EA596E" ts:gender="female"/>
	
	<ellipse cx="22" cy="28.07" rx="9.214" ry="3.439" fill="#BE1931" ts:gender="neutral,male"/>
	<ellipse cx="22" cy="27.069" rx="9.214" ry="3.439" fill="#BE1931" ts:gender="female"/>
	
	<ellipse cx="22" cy="28.07" rx="7.8" ry="2.463" fill="#292F33" ts:gender="neutral,male"/>
	<ellipse cx="22" cy="27.07" rx="7.8" ry="2.4635" fill="#292F33" ts:gender="female"/>
	<!-- back hair -->
	<use href="defs.svg#hair_neutral" x="25.597" y="3.516" fill="#FFAC33" ts:skin="hair" ts:gender="neutral"/>
	<use href="defs.svg#hair_back_female" x="21.944" y="5.069" fill="#FFAC33" ts:skin="hair" ts:gender="female"/>
	<!-- neck -->
	<path d="M17.64 27.937c1.744 1.267 2.848 1.511 4.36 1.511 1.511 0 2.616-.245 4.36-1.511v-3.811h-8.72v3.811z" fill="#FFDC5D" ts:skin="skin" ts:gender="neutral,male"/>
	<path d="M18.328 27.02c1.466 1.065 2.964 1.207 3.672 1.207s2.194-.142 3.66-1.207v-3.205h-7.332v3.205z" fill="#FFDC5D" ts:skin="skin" ts:gender="female"/>
	<path d="M17.632 25.973c1.216 1.374 2.724 1.746 4.364 1.746 1.639 0 3.147-.372 4.364-1.746v-3.491h-8.728v3.491z" fill="#F9CA55" ts:skin="dark" ts:gender="neutral,male"/>
	<path d="M18.321 25.179c1.023 1.155 2.291 1.468 3.669 1.468 1.379 0 2.647-.312 3.67-1.468v-2.936h-7.339v2.936z" fill="#F9CA55" ts:skin="dark" ts:gender="female"/>
	<!-- face -->
	<use href="defs.svg#face_neutral" x="29.413" y="13.466" fill="#FFDC5D" ts:skin="skin" ts:gender="neutral"/>
	<use href="defs.svg#face_male" x="22" y="16.959" fill="#FFDC5D" ts:skin="skin" ts:gender="male"/>
	<use href="defs.svg#face_female" x="13.734" y="15.717" fill="#FFDC5D" ts:skin="skin" ts:gender="female"/>
	<!-- hair -->
	<use href="defs.svg#hair_male" x="22" y="3.48" fill="#FFAC33" ts:skin="hair" ts:gender="male"/>
	<use href="defs.svg#hair_front_female" x="21.944" y="5.069" fill="#FFAC33" ts:skin="hair" ts:gender="female"/>
	<!-- eyes -->
	<rect x="17.109" y="14.705" width="1.906" height="2.859" rx="0.953" fill="#662113" ts:skin="eyes2" ts:gender="neutral"/><rect x="24.734" y="14.705" width="1.906" height="2.859" rx="0.953" fill="#662113" ts:skin="eyes2" ts:gender="neutral"/>
	<rect x="17" y="14" width="2" height="3" rx="1" fill="#662113" ts:skin="eyes" ts:gender="male"/><rect x="25" y="14" width="2" height="3" rx="1" fill="#662113" ts:skin="eyes" ts:gender="male"/>
	<rect x="17.762" y="15.349" width="1.693" height="2.537" rx="0.84625" fill="#662113" ts:skin="eyes" ts:gender="female"/><rect x="24.527" y="15.349" width="1.692" height="2.537" rx="0.846" fill="#662113" ts:skin="eyes" ts:gender="female"/> <!-- wrong color in orig! -->
	<!-- nose -->
	<rect x="20.444" y="19.946" width="2.86" height="0.954" rx="0.477" fill="#C1694F" ts:skin="nose" ts:gender="neutral"/>
	<rect x="20.5" y="18.25" width="3" height="1.5" rx="0.75" fill="#C1694F" ts:skin="nose" ts:gender="male"/>
	<rect x="20.723" y="19.5" width="2.537" height="1" rx="0.42325" fill="#C1694F" ts:skin="nose" ts:gender="female"/>
	<!-- mouth -->
	<path d="M22 24.88c-2.754 0-3.6-.705-3.741-.848-.256-.256-.256-.671 0-.927.248-.248.646-.255.902-.023.052.037.721.487 2.839.487 2.2 0 2.836-.485 2.842-.49.256-.255.657-.243.913.015.256.256.242.683-.014.938-.141.143-.987.848-3.741.848" fill="#C1694F" ts:skin="nose" ts:gender="neutral"/>
	<path d="M22 23.802c-2.754 0-3.6-.705-3.741-.848-.256-.256-.256-.671 0-.927.248-.248.646-.255.902-.023.052.037.721.487 2.839.487 2.2 0 2.836-.485 2.842-.49.256-.255.657-.243.913.015.256.256.242.683-.014.938-.141.143-.987.848-3.741.848" fill="#C1694F" ts:skin="nose" ts:gender="male"/>
	<path d="M21.944 23.543c-1.605 0-2.446-.794-2.536-.885-.268-.267-.268-.7 0-.967.266-.265.692-.267.96-.007.035.032.553.491 1.576.491 1.039 0 1.557-.473 1.577-.492.273-.256.703-.248.963.02.26.269.26.691-.004.955-.089.091-.929.885-2.536.885" fill="#DF1F32" ts:gender="female"/>
	<!-- patch -->
	<path d="M33 33v3h3v-2c0-.341-.035-.674-.09-1H33z" fill="#55ACEE" ts:gender="neutral,male"/>
	<rect x="32" y="33" width="3" height="3" fill="#55ACEE" ts:gender="female"/>
	<rect x="34" y="34" width="2" height="2" fill="#FFCC4D" ts:gender="neutral,male"/>
	<rect x="33" y="34" width="2" height="2" fill="#FFCC4D" ts:gender="female"/>
	<!-- helmet -->
	<path d="M24.004 36c-1.198-5.146-6.048-9-11.857-9C6.338 27 1.488 30.854.29 36h23.714z" fill="#E1E8ED"/>
	<path d="M22.669 36c-1.173-4.464-5.432-7.778-10.522-7.778S2.798 31.536 1.625 36h21.044z" fill="#292F33"/>
	<path d="M21.637 36c-1.148-3.937-4.956-6.833-9.49-6.833S3.805 32.063 2.657 36h18.98z" fill="#FFAC33"/>
	<path d="M18.195 35.048l.103-.063c.769-.468.928-1.538.301-2.182-.468-.48-.993-.909-1.566-1.267-.56-.35-1.159-.621-1.785-.827-.828-.273-1.711.233-1.866 1.091-.119.661.224 1.346.855 1.578.865.318 1.627.828 2.231 1.474.443.472 1.174.533 1.727.196z" fill="#FFDC5D"/>
	<!-- stars -->
	<path d="M6.344 14.262l-1.542-.571-.6-2.2c-.079-.29-.343-.491-.643-.491-.301 0-.564.201-.643.492l-.6 2.2-1.542.571c-.262.096-.435.346-.435.625s.173.529.435.625l1.534.568.604 2.415c.074.296.341.504.647.504s.572-.208.647-.505l.604-2.415 1.534-.568c.262-.096.435-.346.435-.625 0-.278-.173-.528-.435-.625z" fill="#9266CC"/>
	<path d="M11.28 4.634l-2.61-.966-.966-2.61c-.161-.433-.573-.72-1.035-.72-.462 0-.874.287-1.035.72l-.966 2.61-2.61.966c-.433.161-.72.573-.72 1.035 0 .462.287.875.72 1.035l2.61.966.966 2.61c.16.433.573.72 1.035.72.462 0 .875-.287 1.035-.72l.966-2.61 2.61-.966c.433-.161.72-.573.72-1.035 0-.462-.287-.875-.72-1.035z" fill="#5DADEC"/>
</svg>
