<svg viewBox="0 0 36 36" xmlns="http://www.w3.org/2000/svg" xmlns:ts="data:,a">
	<!-- head -->
	<path d="M29.5 15.886C28.406 8.197 23.392 4.761 18 4.761S7.594 8.197 6.5 15.886c-1.381 0-2.5 1.791-2.5 4 0 2.107 1.021 3.815 2.314 3.97 1.223 6.649 5.985 10.53 11.686 10.53 5.7 0 10.463-3.881 11.685-10.53 1.294-.155 2.315-1.863 2.315-3.97 0-2.209-1.119-4-2.5-4z" ts:skin="skin" ts:gender="neutral"/>
	<path d="M29.5 16C28.406 8.311 23.392 4.875 18 4.875S7.594 8.311 6.5 16C5.119 16 4 17.791 4 20c0 2.107 1.021 3.815 2.314 3.97C7.537 30.619 12.299 35 18 35c5.7 0 10.463-4.381 11.685-11.03C30.979 23.815 32 22.107 32 20c0-2.209-1.119-4-2.5-4z" ts:skin="skin" ts:gender="male"/>
	<path d="M29.5 15C28.406 7.311 23.392 3.875 18 3.875S7.594 7.311 6.5 15C5.119 15 4 16.791 4 19c0 2.107 1.021 3.815 2.314 3.97h.182v.001C7.971 29.348 12.563 34 18 34c5.437 0 10.029-4.652 11.504-11.03h.182C30.979 22.815 32 21.107 32 19c0-2.209-1.119-4-2.5-4z" ts:skin="skin" ts:gender="female"/>
	<!-- eyes -->
	<use href="defs.svg#eyes_big" x="18" y="20" ts:skin="eyes2" ts:gender="neutral,female"/>
	<use href="defs.svg#eyes_big" x="18" y="19" ts:skin="eyes2" ts:gender="male"/>
	<!-- nose -->
	<use href="defs.svg#nose_big" x="18" y="25" ts:skin="nose" ts:gender="neutral,male"/>
	<use href="defs.svg#nose_big" x="18" y="24" ts:skin="nose" ts:gender="female"/>
	<!-- mouth -->
	<use href="defs.svg#mouth_female_big" x="18" y="30" ts:skin="mouth" ts:gender="neutral"/>
	<use href="defs.svg#mouth_male_big" x="18" y="30" ts:skin="mouth" ts:gender="male"/>
	<use href="defs.svg#mouth_female_big" x="18" y="29" ts:skin="mouth" ts:gender="female"/>
</svg>
