<svg viewBox="0 0 36 36" xmlns="http://www.w3.org/2000/svg">
	<!-- head -->
	<path d="M29.5 15.886C28.406 8.197 23.392 4.761 18 4.761S7.594 8.197 6.5 15.886c-1.381 0-2.5 1.791-2.5 4 0 2.107 1.021 3.815 2.314 3.97 1.223 6.649 5.985 10.53 11.686 10.53 5.7 0 10.463-3.881 11.685-10.53 1.294-.155 2.315-1.863 2.315-3.97 0-2.209-1.119-4-2.5-4z" fill="#FFDC5D" data-skin="#F7DECE,#F3D2A2,#D4AB88,#AF7E57,#7C533E" data-gender="neutral"/>
	<path d="M29.5 16C28.406 8.311 23.392 4.875 18 4.875S7.594 8.311 6.5 16C5.119 16 4 17.791 4 20c0 2.107 1.021 3.815 2.314 3.97C7.537 30.619 12.299 35 18 35c5.7 0 10.463-4.381 11.685-11.03C30.979 23.815 32 22.107 32 20c0-2.209-1.119-4-2.5-4z" fill="#FFDC5D" data-skin="#F7DECE,#F3D2A2,#D4AB88,#AF7E57,#7C533E" data-gender="male"/>
	<path d="M29.5 15C28.406 7.311 23.392 3.875 18 3.875S7.594 7.311 6.5 15C5.119 15 4 16.791 4 19c0 2.107 1.021 3.815 2.314 3.97h.182v.001C7.971 29.348 12.563 34 18 34c5.437 0 10.029-4.652 11.504-11.03h.182C30.979 22.815 32 21.107 32 19c0-2.209-1.119-4-2.5-4z" fill="#FFDC5D" data-skin="#F7DECE,#F3D2A2,#D4AB88,#AF7E57,#7C533E" data-gender="female"/>
	<!-- nose -->
	<path d="M19 26h-2c-.552 0-1-.447-1-1s.448-1 1-1h2c.553 0 1 .447 1 1s-.447 1-1 1z" fill="#C1694F" data-skin="#C1694F,#C1694F,#C1694F,#915A34,#3D2E24" data-gender="neutral,male"/>
	<path d="M19 25h-2c-.552 0-1-.447-1-1s.448-1 1-1h2c.553 0 1 .447 1 1s-.447 1-1 1z" fill="#C1694F" data-skin="#C1694F,#C1694F,#C1694F,#915A34,#3D2E24" data-gender="female"/>
	<!-- mouth -->
	<path d="M18 31c-2.347 0-3.575-1.16-3.707-1.293-.391-.391-.391-1.023 0-1.414.387-.387 1.013-.39 1.404-.01.051.047.806.717 2.303.717 1.519 0 2.273-.69 2.305-.719.398-.373 1.027-.362 1.408.029.379.393.38 1.011-.006 1.397C21.575 29.84 20.347 31 18 31z" fill="#C1694F" data-skin="#C1694F,#C1694F,#C1694F,#915A34,#3D2E24" data-gender="neutral"/>
	<path d="M18 31c-4.201 0-5.491-1.077-5.707-1.293-.391-.391-.391-1.023 0-1.414.378-.379.984-.39 1.376-.036.08.058 1.1.743 4.331.743 3.355 0 4.326-.739 4.336-.747.39-.389 1.001-.37 1.393.021.391.391.369 1.043-.021 1.434C23.491 29.923 22.201 31 18 31z" fill="#C1694F" data-skin="#C1694F,#C1694F,#C1694F,#915A34,#3D2E24" data-gender="male"/>
	<path d="M18 30c-2.347 0-3.575-1.16-3.707-1.293-.391-.391-.391-1.023 0-1.414.387-.387 1.013-.39 1.404-.01.051.047.806.717 2.303.717 1.519 0 2.273-.69 2.305-.719.398-.373 1.027-.362 1.408.029.379.393.38 1.011-.006 1.397C21.575 28.84 20.347 30 18 30z" fill="#DF1F32" data-gender="female"/>
	<!-- eyes -->
	<path d="M13 22c-.552 0-1-.447-1-1v-2c0-.552.448-1 1-1s1 .448 1 1v2c0 .553-.448 1-1 1zm10 0c-.553 0-1-.447-1-1v-2c0-.552.447-1 1-1s1 .448 1 1v2c0 .553-.447 1-1 1z" fill="#662113" data-skin="#662113,#662113,#662113,#662113,#000000" data-gender="neutral,female"/>
	<path d="M13 21c-.552 0-1-.447-1-1v-2c0-.552.448-1 1-1s1 .448 1 1v2c0 .553-.448 1-1 1zm10 0c-.553 0-1-.447-1-1v-2c0-.552.447-1 1-1s1 .448 1 1v2c0 .553-.447 1-1 1z" fill="#662113" data-skin="#662113,#662113,#662113,#662113,#000000" data-gender="male"/>
</svg>
