<svg fill="inherit" viewBox="0 0 36 36" xmlns="http://www.w3.org/2000/svg"><path d="M17.119 5.604c-7.604 0-11.421 4.937-12.313 8.588-.653 2.673.337 5.794.639 9.208.267 3.03 2.033 5.574 3.843 6.089 2.603 3.284 5.37 3.143 10.017 3.143 9.073 0 12.472-6.782 12.472-14.579-.001-5.96-4.203-12.449-14.658-12.449z" fill="#FFAC33" data-skin="#292F33|#FFE51E|#963B22|#60352A|#0B0200" data-gender="neutral"/><path d="M28.259 18.69c-.878-1.216-2.002-2.194-4.466-2.541.924.423 1.809 1.886 1.925 2.695.116.809.231 1.463-.5.655-2.931-3.239-6.122-1.964-9.284-3.942-2.209-1.382-2.882-2.911-2.882-2.911s-.269 2.04-3.619 4.12c-.971.603-2.129 1.945-2.772 3.927-.463 1.424-.411 2.307-.297 3.31C7.546 30.393 11.887 34 18 34c6.107 0 10.442-2.887 11.628-9.573.022-.288.045-.576.045-.869 0-2.501-.413-3.482-1.414-4.868z" fill="#FFDC5D" data-skin="#F7DECE|#F3D2A2|#D4AB88|#AF7E57|#7C533E" data-gender="neutral"/><path d="M22.707 26.293c-.387-.387-.93-.192-1.404-.01-.474.183-1.553.717-3.303.717s-2.829-.534-3.303-.717c-.474-.183-1.017-.377-1.404.01-.391.391-.391 1.023 0 1.414C13.425 27.84 15.229 29 18 29s4.575-1.16 4.707-1.293c.391-.391.391-1.023 0-1.414zM19 25h-2c-.552 0-1-.447-1-1s.448-1 1-1h2c.553 0 1 .447 1 1s-.447 1-1 1z" fill="#C1694F" data-skin="#C1694F|#C1694F|#C1694F|#915A34|#3D2E24" data-gender="neutral"/><path d="M14 23c-.552 0-1-.447-1-1v-1c0-.552.448-1 1-1s1 .448 1 1v1c0 .553-.448 1-1 1zm8 0c-.553 0-1-.447-1-1v-1c0-.552.447-1 1-1s1 .448 1 1v1c0 .553-.447 1-1 1z" fill="#662113" data-skin="#662113|#662113|#662113|#662113|inherit" data-gender="neutral"/>

<path d="M6 20c0 2.209-1.119 4-2.5 4S1 22.209 1 20s1.119-4 2.5-4S6 17.791 6 20zm29 0c0 2.209-1.119 4-2.5 4S30 22.209 30 20s1.119-4 2.5-4 2.5 1.791 2.5 4z" fill="#FFDC5D" data-skin="#F7DECE|#F3D2A2|#D5AB88|#AF7E57|#7C533E" data-gender="male"/><path d="M4 20.562c0-8.526 6.268-15.438 14-15.438s14 6.912 14 15.438S25.732 35 18 35 4 29.088 4 20.562z" fill="#FFDC5D" data-skin="#F7DECE|#F3D2A2|#D5AB88|#AF7E57|#7C533E" data-gender="male"/><path d="M12 22c-.552 0-1-.447-1-1v-2c0-.552.448-1 1-1s1 .448 1 1v2c0 .553-.448 1-1 1zm12 0c-.553 0-1-.447-1-1v-2c0-.552.447-1 1-1s1 .448 1 1v2c0 .553-.447 1-1 1z" fill="#662113" data-skin="#662113|#662113|#662113|#60352A|inherit" data-gender="male"/><path d="M18 30c-4.188 0-6.357-1.06-6.447-1.105-.494-.247-.694-.848-.447-1.342.247-.492.843-.692 1.337-.449.051.024 1.925.896 5.557.896 3.665 0 5.54-.888 5.559-.897.496-.241 1.094-.034 1.336.457.243.493.045 1.089-.447 1.335C24.356 28.94 22.188 30 18 30zm1-5h-2c-.552 0-1-.447-1-1s.448-1 1-1h2c.553 0 1 .447 1 1s-.447 1-1 1z" fill="#C1694F" data-skin="#C1694F|#C1694F|#C1694F|#915A34|#3D2E24" data-gender="male"/><path d="M18 .354C8.77.354 3 6.816 3 12.2c0 5.385 1.154 7.539 2.308 5.385l2.308-4.308s3.791-.124 6.099-2.278c0 0-1.071 4 6.594.124 0 0-.166 3.876 5.191-.124 0 0 4.039 1.201 5.191 6.586.32 1.494 2.309 0 2.309-5.385C33 6.816 28.385.354 18 .354z" fill="#FFAC33" data-skin="#292F33|#FFE51E|#963B22|#60352A|#0B0200" data-gender="male"/>

<path d="M29.96 23.087C34 27 34.043 34.021 33.021 34.021s-4.115-1.852-6.068-3.937C25 28 25.203 23.306 25.203 23.306l1.586-4.319c0-.001-.869.187 3.171 4.1z" fill="#FFAC33" data-skin="#292F33|#FFE51E|#963B22|#60352A|#0B0200" data-gender="female"/><path d="M26.96 23.087C31 27 31.043 34.021 30.021 34.021s-4.115-1.852-6.068-3.937C22 28 22.203 23.306 22.203 23.306l1.586-4.319c0-.001-.869.187 3.171 4.1zM3 34c-1 0-1-7 3-11s3-4 3-4l2 4s0 5-2 7-5 4-6 4z" fill="#FFAC33" data-skin="#292F33|#FFE51E|#963B22|#60352A|#0B0200" data-gender="female"/><path d="M6 34c-1 0-1-7 3-11s3-4 3-4l2 4s0 5-2 7-5 4-6 4z" fill="#FFAC33" data-skin="#292F33|#FFE51E|#963B22|#60352A|#0B0200" data-gender="female"/><path d="M6.914 18.353c-.571-2.134-2.116-3.575-3.45-3.217-1.334.358-1.95 2.378-1.379 4.511.571 2.135 2.116 3.574 3.45 3.217 1.334-.358 1.951-2.378 1.379-4.511zm27.001 1.294c.571-2.134-.046-4.154-1.38-4.512-1.333-.356-2.878 1.083-3.449 3.218-.572 2.134.045 4.153 1.379 4.511 1.334.358 2.879-1.083 3.45-3.217z" fill="#FFDC5D" data-skin="#F7DECE|#F3D2A2|#D5AB88|#AF7E57|#7C533E" data-gender="female"/><path d="M31 19c0-9.389-5.82-16-13-16S5 9.611 5 19s5.82 15 13 15 13-5.611 13-15z" fill="#FFDC5D" data-skin="#F7DECE|#F3D2A2|#D5AB88|#AF7E57|#7C533E" data-gender="female"/><path d="M18 27.651c-2.42 0-4.274-.687-4.352-.715-.517-.194-.779-.771-.584-1.288.194-.517.769-.779 1.286-.585.016.006 1.61.588 3.65.588 2.041 0 3.635-.582 3.65-.588.516-.194 1.094.071 1.285.587.193.517-.067 1.092-.584 1.286-.077.029-1.93.715-4.351.715z" fill="#DF1F32" data-gender="female"/><path d="M19 23h-2c-.552 0-1-.447-1-1s.448-1 1-1h2c.553 0 1 .447 1 1s-.447 1-1 1z" fill="#C1694F" data-skin="#C1694F|#C1694F|#C1694F|#915A34|#3D2E24" data-gender="female"/><path d="M12 20c-.552 0-1-.447-1-1v-2c0-.552.448-1 1-1s1 .448 1 1v2c0 .553-.448 1-1 1zm12 0c-.553 0-1-.447-1-1v-2c0-.552.447-1 1-1s1 .448 1 1v2c0 .553-.447 1-1 1z" fill="#662113" data-skin="#662113|#662113|#662113|#60352A|inherit" data-gender="female"/><path d="M32 10c-2-7-7-9-10-9-2 0-4 2-4 2s-2-2-4-2c-3 0-8 2-10 9-1.648 5.769 1 11 1 11 0-3.001 2-9 7-9s6-4 6-4 .786 4 5.786 4S31 18 31 21c0 0 2.648-5.231 1-11z" fill="#FFAC33" data-skin="#292F33|#FFE51E|#963B22|#60352A|#0B0200" data-gender="female"/>

</svg>
