<svg viewBox="0 0 36 36" xmlns="http://www.w3.org/2000/svg" xmlns:ts="data:,a">
	<!-- shirt -->
	<path d="M32.043 36L32 35c0-4-2.957-7-7.957-7h-12C7.043 28 4 31 4 35l.043 1h28z" fill="#F2760F" ts:gender="neutral"/>
	<path d="M32 36v-2c0-3.314-2.685-6-6-6H10c-3.313 0-6 2.686-6 6v2h28z" fill="#F2760F" ts:gender="male"/>
	<path d="M31 36v-3.5c0-3.314-3.685-5.5-7-5.5H12c-3.313 0-7 2.186-7 5.5V36h26z" fill="#F2760F" ts:gender="female"/>
	<!-- ridiculous collection of random shapes -->
	<!--<path d="M14 27h8s-1.018 5-4 5-4-5-4-5" fill="#292F33"/>
	<path d="M19 34.938l-1 1.061-1-1L16 31h3.5z" fill="#292F33"/>
	<path d="M13 27h10v4H13z" fill="#292F33"/>
	<path d="M14 27h8s-1.018 7-4 7-4-7-4-7" fill="#292F33"/>
	<path d="M19 34.938l-1 1.061-1-1v-3h2z" fill="#292F33"/>-->
	<path d="M23.5 27c0 3-5.5 9-5.5 9s-5.5-6-5.5-9z" fill="#292F33"/>
	<!-- yellow -->
	<path d="M24 27h3v9h-3z" fill="#FFF75F" ts:gender="female"/>
	<path d="M9 27h3v9H9z" fill="#FFF75F" ts:gender="female"/>
	<path d="M9 28h3v8H9zm15 0h3v8h-3z" fill="#FFF75F" ts:gender="male"/>
	<path d="M9 28.298V36h3v-8c-1.103 0-2.102.103-3 .298z" fill="#FFF75F" ts:gender="neutral"/>
	<path d="M24 28v8h3v-7.702c-.898-.195-1.897-.298-3-.298z" fill="#FFF75F" ts:gender="neutral"/>	
	
	<!-- back hair -->
	<use href="defs.svg#hair_neutral" transform="translate(21.513 4.15) scale(0.977)" fill="#FFAC33" ts:skin="hair" ts:gender="neutral"/>
	<use href="defs.svg#hair_back_female" x="17.945" y="5.069" fill="#FFAC33" ts:skin="hair" ts:gender="female"/>
	<!-- neck -->
	<path d="M13.64 30.038c1.745 1.268 2.849 1.963 4.36 1.963s2.615-.696 4.359-1.963v-5.749h-8.72v5.749z" fill="#FFDC5D" ts:skin="skin" ts:gender="neutral,male"/>
	<path d="M14.328 27.018c1.466 1.065 2.964.98 3.672.98s2.194.085 3.66-.98v-3.203h-7.332v3.203z" fill="#FFDC5D" ts:skin="skin" ts:gender="female"/>
	<!-- neck shadow -->
	<path d="M13.632 25.973c1.216 1.374 2.724 1.746 4.364 1.746 1.639 0 3.146-.373 4.363-1.746v-3.491h-8.728v3.491z" fill="#F9CA55" ts:skin="dark" ts:gender="neutral,male"/>
	<path d="M14.322 25.179c1.022 1.155 2.29 1.468 3.668 1.468 1.379 0 2.647-.312 3.67-1.468v-2.936h-7.338v2.936z" fill="#F9CA55" ts:skin="dark" ts:gender="female"/>
	<!-- face -->
	<path d="M25.24 13.87c-.631-.873-1.438-1.576-3.208-1.825.664.304 1.3 1.355 1.383 1.936.083.581.166 1.051-.359.47-2.105-2.327-4.397-1.411-6.669-2.832-1.587-.993-2.07-2.091-2.07-2.091s-.194 1.466-2.6 2.959c-.697.433-1.53 1.397-1.991 2.821-.332 1.023-.229 1.936-.229 3.496 0 4.553 3.752 8.38 8.38 8.38s8.38-3.861 8.38-8.38c-.001-2.833-.297-3.939-1.017-4.934z" fill="#FFDC5D" ts:skin="skin" ts:gender="neutral"/>
	<use href="defs.svg#face_male" x="18" y="16.959" fill="#FFDC5D" ts:skin="skin" ts:gender="male"/>
	<use href="defs.svg#face_female" x="9.734" y="15.717" fill="#FFDC5D" ts:skin="skin" ts:gender="female"/>
	<!-- hair 2 -->
	<use href="defs.svg#hair_male" x="18" y="3.48" fill="#FFAC33" ts:skin="hair" ts:gender="male"/>
	<use href="defs.svg#hair_front_female" x="17.945" y="5.069" fill="#FFAC33" ts:skin="hair" ts:gender="female"/>
	<use href="defs.svg#ears_female" x="18" y="15.9355" fill="#FFDC5D" ts:skin="skin" ts:gender="female"/>
	<!-- eyes -->
	<rect x="13.221" y="15.079" width="1.862" height="2.793" rx="0.931" fill="#662113" ts:skin="eyes2" ts:gender="neutral"/><rect x="20.67" y="15.079" width="1.862" height="2.793" rx="0.931" fill="#662113" ts:skin="eyes2" ts:gender="neutral"/>
	<use href="defs.svg#eyes_male" x="18" y="15.5" fill="#662113" ts:skin="eyes" ts:gender="male"/>
	<rect x="13.762" y="15.349" width="1.693" height="2.538" rx="0.8465" fill="#662113" ts:skin="eyes" ts:gender="female"/><rect x="20.527" y="15.349" width="1.692" height="2.538" rx="0.84625" fill="#662113" ts:skin="eyes" ts:gender="female"/>
	<!-- nose -->
	<use href="defs.svg#nose_neutral2" x="17.909" y="20.676" fill="#C1694F" ts:skin="nose" ts:gender="neutral"/>
	<use href="defs.svg#nose_male2" x="18.0" y="19.0" fill="#C1694F" ts:skin="nose" ts:gender="male"/>
	<use href="defs.svg#nose_female2" x="17.9915" y="20.0" fill="#C1694F" ts:skin="nose" ts:gender="female"/>
	<!-- mouth -->
	<use href="defs.svg#mouth_neutral" x="18" y="24.467" fill="#C1694F" ts:skin="nose" ts:gender="neutral"/>
	<use href="defs.svg#mouth_neutral" x="18" y="23.802" fill="#C1694F" ts:skin="nose" ts:gender="male"/>
	<use href="defs.svg#mouth_female" x="17.945" y="23.543" fill="#DF1F32" ts:gender="female"/>
	<!-- collar -->
	<path d="M10.5 27c0 1.068 1.5 3.662 3.5 5.798C15.581 34.485 18 36 18 36c0-3.271-1-4.27-2-5.338-1-1.066-3-1.526-3-3.662 0-1.066-2.5 0-2.5 0m15 0c0 1.068-1.5 3.662-3.5 5.798C20.419 34.485 18 36 18 36c0-3.271 1-4.27 2-5.338 1-1.066 3-1.526 3-3.662 0-1.066 2.5 0 2.5 0" fill="#55ACEE" ts:gender="female"/>
	<path d="M11 28c0 1 1 3 3 5 1.582 1.581 4 3 4 3 0-3.063-1-4-2-5s-3-2-3-4c0-1-2 1-2 1m14 0c0 1-1 3-3 5-1.58 1.581-4 3-4 3 0-3.063 1-4 2-5s3-2 3-4c0-1 2 1 2 1" fill="#55ACEE" ts:gender="neutral,male"/>
	<!-- hat -->
	<path d="M30 11c-3-2-1.008-4.169-3-7-1.873-2.663-5-4-9.002-4C13 0 10.874 1.337 9 4c-1.992 2.831 0 5-3 7-1.861 1.24 6 2.313 12 2.313S31.861 12.24 30 11" fill="#FFF75F"/>
	<path d="M16 11.5V.088c-.35.032-.683.074-1 .124v10.281c-2.09-.05-5.124-.396-7.653-.853-.174.297-.41.59-.73.877 2.91.566 6.596.983 8.883.983h.5zm12.855-1.553c-2.853.304-5.839.517-7.855.549V.292c-.323-.066-.66-.112-1-.155V11.5h.5c2.018 0 5.796-.261 9.289-.657-.402-.295-.708-.593-.934-.896z" fill="#FFAC33"/>
</svg>
