<svg viewBox="0 0 36 36" xmlns="http://www.w3.org/2000/svg" xmlns:ts="data:,a">
	<!-- shirt -->
	<path d="M32.043 36L32 35c0-4-2.957-7-7.957-7h-12C7.043 28 4 31 4 35l.043 1h28z" fill="#F2760F" ts:gender="neutral"/>
	<path d="M32 36v-2c0-3.314-2.685-6-6-6H10c-3.313 0-6 2.686-6 6v2h28z" fill="#F2760F" ts:gender="male"/>
	<path d="M31 36v-3.5c0-3.314-3.685-5.5-7-5.5H12c-3.313 0-7 2.186-7 5.5V36h26z" fill="#F2760F" ts:gender="female"/>
	<!-- ridiculous collection of random shapes -->
	<!--<path d="M14 27h8s-1.018 5-4 5-4-5-4-5" fill="#292F33"/>
	<path d="M19 34.938l-1 1.061-1-1L16 31h3.5z" fill="#292F33"/>
	<path d="M13 27h10v4H13z" fill="#292F33"/>
	<path d="M14 27h8s-1.018 7-4 7-4-7-4-7" fill="#292F33"/>
	<path d="M19 34.938l-1 1.061-1-1v-3h2z" fill="#292F33"/>-->
	<path d="M23.5 27c0 3-5.5 9-5.5 9s-5.5-6-5.5-9z" fill="#292F33"/>
	<!-- yellow -->
	<path d="M24 27h3v9h-3z" fill="#FFF75F" ts:gender="female"/>
	<path d="M9 27h3v9H9z" fill="#FFF75F" ts:gender="female"/>
	<path d="M9 28h3v8H9zm15 0h3v8h-3z" fill="#FFF75F" ts:gender="male"/>
	<path d="M9 28.298V36h3v-8c-1.103 0-2.102.103-3 .298z" fill="#FFF75F" ts:gender="neutral"/>
	<path d="M24 28v8h3v-7.702c-.898-.195-1.897-.298-3-.298z" fill="#FFF75F" ts:gender="neutral"/>	
	
	<!-- back hair -->
	<path d="M17.945 5.069c4.105 0 10.947 2.053 10.947 10.947 0 8.896 0 10.948-2.053 10.948s-4.79-2.053-8.895-2.053c-4.105 0-6.785 2.053-8.895 2.053-2.287 0-2.053-8.211-2.053-10.948.001-8.894 6.844-10.947 10.949-10.947" fill="#FFAC33" ts:skin="#292F33,#FFE51E,#963B22,#60352A,#0B0200" ts:gender="female"/>
	<path d="M21.513 4.15c-1.881-.608-6.306-.443-7.412.996-2.876.055-6.25 2.654-6.693 6.084-.438 3.394.538 4.97.885 7.523.393 2.892 2.019 3.817 3.319 4.204 1.87 2.47 3.858 2.365 7.195 2.365 6.518 0 9.622-4.361 9.896-11.768.167-4.481-2.462-7.874-7.19-9.404z" fill="#FFAC33" ts:skin="#292F33,#FFE51E,#963B22,#60352A,#0B0200" ts:gender="neutral"/>
	<!-- neck -->
	<path d="M13.64 30.038c1.745 1.268 2.849 1.963 4.36 1.963s2.615-.696 4.359-1.963v-5.749h-8.72v5.749z" fill="#FFDC5D" ts:skin="#F7DECE,#F3D2A2,#D4AB88,#AF7E57,#7C533E" ts:gender="neutral,male"/>
	<path d="M14.328 27.018c1.466 1.065 2.964.98 3.672.98s2.194.085 3.66-.98v-3.203h-7.332v3.203z" fill="#FFDC5D" ts:skin="#F7DECE,#F3D2A2,#D5AB88,#AF7E57,#7C533E" ts:gender="female"/>
	<!-- neck shadow -->
	<path d="M13.632 25.973c1.216 1.374 2.724 1.746 4.364 1.746 1.639 0 3.146-.373 4.363-1.746v-3.491h-8.728v3.491z" fill="#F9CA55" ts:skin="#EEC2AD,#E2C196,#CC9B7A,#9B6A49,#664131" ts:gender="neutral,male"/>
	<path d="M14.322 25.179c1.022 1.155 2.29 1.468 3.668 1.468 1.379 0 2.647-.312 3.67-1.468v-2.936h-7.338v2.936z" fill="#F9CA55" ts:skin="#EEC2AD,#E2C196,#CC9B7A,#9B6A49,#664131" ts:gender="female"/>
	<!-- face -->
	<path d="M9.734 15.718c0-5.834 3.676-10.563 8.211-10.563 4.533 0 8.209 4.729 8.209 10.563 0 5.833-3.676 10.285-8.209 10.285-4.535 0-8.211-4.452-8.211-10.285" fill="#FFDC5D" ts:skin="#F7DECE,#F3D2A2,#D5AB88,#AF7E57,#7C533E" ts:gender="female"/>
	<path d="M27.834 15.935c0-1.448-.734-2.623-1.639-2.623-.082 0-.161.02-.24.039C24.73 9.546 21.635 6.839 18 6.839s-6.729 2.707-7.955 6.512c-.079-.019-.158-.039-.24-.039-.905 0-1.639 1.175-1.639 2.623 0 1.33.621 2.417 1.423 2.587.634 4.845 4.153 8.557 8.411 8.557s7.777-3.712 8.411-8.557c.802-.17 1.423-1.257 1.423-2.587z" fill="#FFDC5D" ts:skin="#F7DECE,#F3D2A2,#D5AB88,#AF7E57,#7C533E" ts:gender="male"/>
	<path d="M25.24 13.87c-.631-.873-1.438-1.576-3.208-1.825.664.304 1.3 1.355 1.383 1.936.083.581.166 1.051-.359.47-2.105-2.327-4.397-1.411-6.669-2.832-1.587-.993-2.07-2.091-2.07-2.091s-.194 1.466-2.6 2.959c-.697.433-1.53 1.397-1.991 2.821-.332 1.023-.229 1.936-.229 3.496 0 4.553 3.752 8.38 8.38 8.38s8.38-3.861 8.38-8.38c-.001-2.833-.297-3.939-1.017-4.934z" fill="#FFDC5D" ts:skin="#F7DECE,#F3D2A2,#D4AB88,#AF7E57,#7C533E" ts:gender="neutral"/>
	<!-- hair 2 -->
	<path d="M7.725 19c-.021-1-.044-.224-.044-.465 0-3.422 2.053.494 2.053-1.943 0-2.439 1.368-2.683 2.736-4.051.685-.685 2.053-2.026 2.053-2.026s3.421 2.067 6.158 2.067c2.736 0 5.474 1.375 5.474 4.112 0 2.736 2.053-1.584 2.053 1.837 0 .244-.023-.531-.04.469h.719c.006-2 .006-1.924.006-3.202 0-8.895-6.842-12.207-10.948-12.207-4.104 0-10.947 3.257-10.947 12.152 0 .793-.02 1.257.008 3.257h.719z" fill="#FFAC33" ts:skin="#292F33,#FFE51E,#963B22,#60352A,#0B0200" ts:gender="female"/>
	<!-- ears -->
	<path d="M11.444 15.936c0 1.448-.734 2.622-1.639 2.622s-1.639-1.174-1.639-2.622.734-2.623 1.639-2.623c.905-.001 1.639 1.174 1.639 2.623m16.389 0c0 1.448-.733 2.622-1.639 2.622-.905 0-1.639-1.174-1.639-2.622s.733-2.623 1.639-2.623c.906-.001 1.639 1.174 1.639 2.623" fill="#FFDC5D" ts:skin="#F7DECE,#F3D2A2,#D5AB88,#AF7E57,#7C533E" ts:gender="female"/>
	<!-- hair 3-->
	<path d="M18 3.48c5.648 0 9.178 4.168 9.178 7.641s-.705 4.863-1.412 3.473l-1.412-2.778s-4.234 0-5.646-1.39c0 0 2.117 4.168-2.119 0 0 0 .707 2.779-3.53-.694 0 0-2.118 1.389-2.824 4.862-.196.964-1.412 0-1.412-3.473C8.822 7.648 11.646 3.48 18 3.48" fill="#FFAC33" ts:skin="#292F33,#FFE51E,#963B22,#60352A,#0B0200" ts:gender="male"/>
	<!-- mouth -->
	<path d="M17.945 23.543c-1.606 0-2.447-.794-2.537-.885-.268-.267-.268-.7 0-.967.266-.265.692-.267.961-.007.035.032.551.491 1.576.491 1.038 0 1.555-.473 1.576-.492.273-.256.703-.248.963.02.26.269.26.691-.004.955-.089.091-.929.885-2.535.885" fill="#DF1F32" ts:gender="female"/>
	<path d="M18 23.802c-2.754 0-3.6-.705-3.74-.848-.257-.256-.257-.671 0-.927.248-.248.644-.255.902-.023.051.037.721.487 2.838.487 2.201 0 2.836-.485 2.842-.49.256-.255.658-.243.914.015.256.256.242.683-.014.938-.142.143-.988.848-3.742.848" fill="#C1694F" ts:skin="#C1694F,#C1694F,#C1694F,#915A34,#3D2E24" ts:gender="male"/>
	<path d="M18 24.467c-2.754 0-3.6-.705-3.74-.848-.257-.256-.257-.671 0-.927.248-.248.644-.255.902-.023.051.037.721.487 2.838.487 2.201 0 2.836-.485 2.842-.49.256-.255.658-.243.914.015.256.256.242.683-.014.938-.142.143-.988.848-3.742.848" fill="#C1694F" ts:skin="#C1694F,#C1694F,#C1694F,#915A34,#3D2E24" ts:gender="neutral"/>
	<!-- nose -->
	<path d="M18.836 20.5h-1.69c-.233 0-.423-.19-.423-.423v-.153c0-.233.189-.424.423-.424h1.69c.233 0 .424.19.424.424v.153c0 .233-.191.423-.424.423" fill="#C1694F" ts:skin="#C1694F,#C1694F,#C1694F,#915A34,#3D2E24" ts:gender="female"/>
	<path d="M18.75 19.75h-1.5c-.412 0-.75-.337-.75-.75s.338-.75.75-.75h1.5c.414 0 .75.337.75.75s-.336.75-.75.75" fill="#C1694F" ts:skin="#C1694F,#C1694F,#C1694F,#915A34,#3D2E24" ts:gender="male"/>
	<path d="M18.807 21.131h-1.862c-.257 0-.466-.208-.466-.466s.208-.466.466-.466h1.862c.257 0 .466.208.466.466s-.208.466-.466.466z" fill="#C1694F" ts:skin="#C1694F,#C1694F,#C1694F,#915A34,#3D2E24" ts:gender="neutral"/>
	<!-- eyes -->
	<path d="M14.152 17.872c-.514 0-.931-.417-.931-.931v-.931c0-.514.417-.931.931-.931s.931.417.931.931v.931c0 .514-.417.931-.931.931zm7.449 0c-.514 0-.931-.417-.931-.931v-.931c0-.514.417-.931.931-.931s.931.417.931.931v.931c0 .514-.417.931-.931.931z" fill="#662113" ts:skin="#662113,#662113,#662113,#662113,#000000" ts:gender="neutral"/>
	<path d="M14 17c-.55 0-1-.45-1-1v-1c0-.55.45-1 1-1 .551 0 1 .45 1 1v1c0 .55-.449 1-1 1m8 0c-.549 0-1-.45-1-1v-1c0-.55.451-1 1-1 .551 0 1 .45 1 1v1c0 .55-.449 1-1 1" fill="#662113" ts:skin="#662113,#662113,#662113,#60352A,#000000" ts:gender="male"/>
	<path d="M14.608 17.887c-.465 0-.846-.381-.846-.847v-.845c0-.465.381-.846.846-.846.466 0 .847.381.847.846v.845c0 .466-.381.847-.847.847m6.765 0c-.465 0-.846-.381-.846-.847v-.845c0-.465.381-.846.846-.846.465 0 .846.381.846.846v.845c0 .466-.381.847-.846.847" fill="#662113" ts:skin="#662113,#662113,#662113,#60352A,#000000" ts:gender="female"/>
	
	<!-- collar -->
	<path d="M10.5 27c0 1.068 1.5 3.662 3.5 5.798C15.581 34.485 18 36 18 36c0-3.271-1-4.27-2-5.338-1-1.066-3-1.526-3-3.662 0-1.066-2.5 0-2.5 0m15 0c0 1.068-1.5 3.662-3.5 5.798C20.419 34.485 18 36 18 36c0-3.271 1-4.27 2-5.338 1-1.066 3-1.526 3-3.662 0-1.066 2.5 0 2.5 0" fill="#55ACEE" ts:gender="female"/>
	<path d="M11 28c0 1 1 3 3 5 1.582 1.581 4 3 4 3 0-3.063-1-4-2-5s-3-2-3-4c0-1-2 1-2 1m14 0c0 1-1 3-3 5-1.58 1.581-4 3-4 3 0-3.063 1-4 2-5s3-2 3-4c0-1 2 1 2 1" fill="#55ACEE" ts:gender="neutral,male"/>
	<!-- hat -->
	<path d="M30 11c-3-2-1.008-4.169-3-7-1.873-2.663-5-4-9.002-4C13 0 10.874 1.337 9 4c-1.992 2.831 0 5-3 7-1.861 1.24 6 2.313 12 2.313S31.861 12.24 30 11" fill="#FFF75F"/>
	<path d="M16 11.5V.088c-.35.032-.683.074-1 .124v10.281c-2.09-.05-5.124-.396-7.653-.853-.174.297-.41.59-.73.877 2.91.566 6.596.983 8.883.983h.5zm12.855-1.553c-2.853.304-5.839.517-7.855.549V.292c-.323-.066-.66-.112-1-.155V11.5h.5c2.018 0 5.796-.261 9.289-.657-.402-.295-.708-.593-.934-.896z" fill="#FFAC33"/>
</svg>
