<svg viewBox="0 0 36 36" xmlns="http://www.w3.org/2000/svg" xmlns:ts="data:,a">
	<!-- back hair -->
	<use href="defs.svg#hair_neutral1" transform="translate(17.877 27.184) scale(0.931)" ts:skin="hair" ts:gender="neutral"/>
	<use href="defs.svg#hair_back_female" x="17.945" y="5.069" ts:skin="hair" ts:gender="female"/>
	<!-- shirt -->
	<use href="defs.svg#shoulders_neutral_tall" x="18" fill="#F2760F" ts:gender="neutral"/>
	<use href="defs.svg#shoulders_female" x="18" fill="#F2760F" ts:gender="female"/>
	<use href="defs.svg#shoulders_male" x="18" fill="#F2760F" ts:gender="male"/>
	<!-- ridiculous collection of random shapes -->
	<!--<path d="M14 27h8s-1.018 5-4 5-4-5-4-5" fill="#292F33"/>
	<path d="M19 34.938l-1 1.061-1-1L16 31h3.5z" fill="#292F33"/>
	<path d="M13 27h10v4H13z" fill="#292F33"/>
	<path d="M14 27h8s-1.018 7-4 7-4-7-4-7" fill="#292F33"/>
	<path d="M19 34.938l-1 1.061-1-1v-3h2z" fill="#292F33"/>-->
	<path d="M23.5 27c0 3-5.5 9-5.5 9s-5.5-6-5.5-9z" fill="#292F33"/>
	<!-- yellow -->
	<path d="M 9,36 v -7.702 c 0.898,-0.195 1.897,-0.298 3,-0.298 v 8 h -3 Z M 24,36 v -8 c 1.103,0 2.102,0.103 3,0.298 v 7.702 h -3 Z" fill="#FFF75F" ts:gender="neutral"/>
	<path d="M 24,36 v -9 h 3 v 9 h -3 Z M 9,36 v -9 h 3 v 9 h -3 Z" fill="#FFF75F" ts:gender="female"/>
	<path d="M 9,36 v -8 h 3 v 8 h -3 Z M 24,36 v -8 h 3 v 8 h -3 Z" fill="#FFF75F" ts:gender="male"/>
	<!-- neck -->
	<path d="M13.64 30.038c1.745 1.268 2.849 1.963 4.36 1.963s2.615-.696 4.359-1.963v-5.749h-8.72v5.749z" ts:skin="skin" ts:gender="neutral,male"/>
	<path d="M14.328 27.018c1.466 1.065 2.964.98 3.672.98s2.194.085 3.66-.98v-3.203h-7.332v3.203z" ts:skin="skin" ts:gender="female"/>
	<!-- neck shadow -->
	<use href="defs.svg#neck_shadow_male" x="17.996" y="27.719" ts:skin="dark" ts:gender="neutral,male"/>
	<use href="defs.svg#neck_shadow_female" x="17.992" y="26.647" ts:skin="dark" ts:gender="female"/>
	<!-- face -->
	<use href="defs.svg#face_neutral1" transform="translate(17.877 27.184) scale(0.931)" ts:skin="skin" ts:gender="neutral"/>
	<use href="defs.svg#face_male" x="18" y="16.959" ts:skin="skin" ts:gender="male"/>
	<use href="defs.svg#face_female" x="9.734" y="15.717" ts:skin="skin" ts:gender="female"/>
	<!-- hair 2 -->
	<use href="defs.svg#hair_male" x="18" y="3.48" ts:skin="hair" ts:gender="male"/>
	<use href="defs.svg#hair_front_female" x="17.945" y="5.069" ts:skin="hair" ts:gender="female"/>
	<use href="defs.svg#ears_female" x="18" y="15.9355" ts:skin="skin" ts:gender="female"/>
	<!-- eyes -->
	<use href="defs.svg#eyes_male" transform="translate(17.8765 16.4755) scale(0.931)" ts:skin="eyes" ts:gender="neutral"/>
	<use href="defs.svg#eyes_male" x="18" y="15.5" ts:skin="eyes" ts:gender="male"/>
	<use href="defs.svg#eyes_female" x="17.99075" y="16.618" ts:skin="eyes" ts:gender="female"/>
	<!-- nose -->
	<use href="defs.svg#nose_neutral1" transform="translate(17.876 20.665) scale(0.931)" ts:skin="nose" ts:gender="neutral"/>
	<use href="defs.svg#nose_male" x="18" y="19" ts:skin="nose" ts:gender="male"/>
	<use href="defs.svg#nose_female" x="17.9915" y="20" ts:skin="nose" ts:gender="female"/>
	<!-- mouth -->
	<use href="defs.svg#mouth_neutral" x="18" y="24.467" ts:skin="nose" ts:gender="neutral"/>
	<use href="defs.svg#mouth_neutral" x="18" y="23.802" ts:skin="nose" ts:gender="male"/>
	<use href="defs.svg#mouth_female" x="17.945" y="23.543" ts:skin="mouth" ts:gender="female"/>
	<!-- collar -->
	<path d="M10.5 27c0 1.068 1.5 3.662 3.5 5.798C15.581 34.485 18 36 18 36c0-3.271-1-4.27-2-5.338-1-1.066-3-1.526-3-3.662 0-1.066-2.5 0-2.5 0m15 0c0 1.068-1.5 3.662-3.5 5.798C20.419 34.485 18 36 18 36c0-3.271 1-4.27 2-5.338 1-1.066 3-1.526 3-3.662 0-1.066 2.5 0 2.5 0" fill="#55ACEE" ts:gender="female"/>
	<path d="M11 28c0 1 1 3 3 5 1.582 1.581 4 3 4 3 0-3.063-1-4-2-5s-3-2-3-4c0-1-2 1-2 1m14 0c0 1-1 3-3 5-1.58 1.581-4 3-4 3 0-3.063 1-4 2-5s3-2 3-4c0-1 2 1 2 1" fill="#55ACEE" ts:gender="neutral,male"/>
	<!-- hat -->
	<path d="M30 11c-3-2-1.008-4.169-3-7-1.873-2.663-5-4-9.002-4C13 0 10.874 1.337 9 4c-1.992 2.831 0 5-3 7-1.861 1.24 6 2.313 12 2.313S31.861 12.24 30 11" fill="#FFF75F"/>
	<path d="M16 11.5V.088c-.35.032-.683.074-1 .124v10.281c-2.09-.05-5.124-.396-7.653-.853-.174.297-.41.59-.73.877 2.91.566 6.596.983 8.883.983h.5zm12.855-1.553c-2.853.304-5.839.517-7.855.549V.292c-.323-.066-.66-.112-1-.155V11.5h.5c2.018 0 5.796-.261 9.289-.657-.402-.295-.708-.593-.934-.896z" fill="#FFAC33"/>
</svg>
