<svg fill="inherit" viewBox="0 0 36 36" xmlns="http://www.w3.org/2000/svg">
	<!-- shirt -->
	<path d="M36 36v-2c0-3.314-2.686-6-6-6H14c-3.313 0-6 2.686-6 6v2h28z" fill="#E1E8ED" data-gender="neutral,male"/>
	<path d="M35 36v-3.5c0-3.314-3.685-5.5-7-5.5H16c-3.313 0-7 2.186-7 5.5V36h26z" fill="#E1E8ED" data-gender="female"/>
	<!-- inner shirt -->
	<path d="M22 36l5-8H17z" fill="#269" data-gender="neutral,male"/>
	<path d="M18 27h8l-4 9-4-9" fill="#269" data-gender="female"/>
	<!-- back hair -->
	<path d="M23.157 6.984c-1.925-.623 1.444-3.7.312-2.228-2.944.057-7.652 3.158-9.802 5.97-2.317 3.03-1.824 4.933-1.469 7.546.403 2.96 2.067 3.907 3.397 4.303 1.914 2.529 3.949 2.421 7.366 2.421 6.672 0 9.24-4.913 8.884-11.106-.267-2.981-3.848-5.34-8.688-6.906z" fill="#FFAC33" data-skin="#292F33|#FFE51E|#963B22|#60352A|#0B0200" data-gender="neutral"/>
	<path d="M21.945 5.069c4.105 0 10.947 2.053 10.947 10.947 0 8.896 0 10.948-2.053 10.948s-4.79-2.053-8.895-2.053c-4.105 0-6.785 2.053-8.895 2.053-2.287 0-2.053-8.211-2.053-10.948.001-8.894 6.844-10.947 10.949-10.947" fill="#FFAC33" data-skin="#292F33|#FFE51E|#963B22|#60352A|#0B0200" data-gender="female"/>
	<!-- neck -->
	<path d="M17.64 28.038c0 1.962 8.72 1.962 8.72 0v-3.749h-8.72v3.749z" fill="#FFDC5D" data-skin="#F7DECE|#F3D2A2|#D4AB88|#AF7E57|#7C533E" data-gender="neutral,male"/>
	<path d="M18.328 27.018c1.466 1.065 2.964.98 3.672.98s2.194.085 3.66-.98v-3.203h-7.332v3.203z" fill="#FFDC5D" data-skin="#F7DECE|#F3D2A2|#D5AB88|#AF7E57|#7C533E" data-gender="female"/>
	<!-- chin shadow -->
	<path d="M17.632 25.973c1.216 1.374 2.724 1.746 4.364 1.746 1.639 0 3.146-.373 4.363-1.746v-3.491h-8.728v3.491z" fill="#F9CA55" data-skin="#EEC2AD|#E2C196|#CC9B7A|#9B6A49|#664131" data-gender="neutral,male"/>
	<path d="M18.322 25.179c1.022 1.155 2.29 1.468 3.668 1.468 1.379 0 2.647-.312 3.67-1.468v-2.936h-7.338v2.936z" fill="#F9CA55" data-skin="#EEC2AD|#E2C196|#CC9B7A|#9B6A49|#664131" data-gender="female"/>
	<!-- face -->
	<path d="M29.547 13.273c-.646-.894-1.472-1.614-3.284-1.868.68.311 1.725 1.727 1.81 2.321.085.595.082 1.75-.386 1.099-2.049-2.851-4.878-2.401-7.204-3.856-1.624-1.016-2.119-2.141-2.119-2.141s-.198 1.5-2.661 3.029c-.714.443-1.566 1.43-2.038 2.888-.34 1.048-.234 1.982-.234 3.578 0 4.66 3.841 8.578 8.578 8.578s8.578-3.953 8.578-8.578c-.001-2.898-.304-4.031-1.04-5.05z" fill="#FFDC5D" data-skin="#F7DECE|#F3D2A2|#D4AB88|#AF7E57|#7C533E" data-gender="neutral"/>
	<path d="M13.477 16.959c0-5.589 3.816-10.121 8.523-10.121s8.522 4.532 8.522 10.121S26.707 27.08 22 27.08c-4.706 0-8.523-4.531-8.523-10.121" fill="#FFDC5D" data-skin="#F7DECE|#F3D2A2|#D5AB88|#AF7E57|#7C533E" data-gender="male"/>
	<path d="M13.734 15.718c0-5.834 3.676-10.563 8.211-10.563 4.533 0 8.209 4.729 8.209 10.563 0 5.833-3.676 10.285-8.209 10.285-4.535 0-8.211-4.452-8.211-10.285" fill="#FFDC5D" data-skin="#F7DECE|#F3D2A2|#D5AB88|#AF7E57|#7C533E" data-gender="female"/>
	<!-- front hair 2 -->
	<path d="M11.725 19c-.021-1-.044-.224-.044-.465 0-3.422 2.053.494 2.053-1.943 0-2.439 1.368-2.683 2.736-4.051.685-.685 2.053-2.026 2.053-2.026s3.421 2.067 6.158 2.067c2.736 0 5.474 1.375 5.474 4.112 0 2.736 2.053-1.584 2.053 1.837 0 .244-.022-.531-.04.469h.719c.006-2 .006-1.924.006-3.202 0-8.895-6.842-10.729-10.948-10.729-4.104 0-10.947 1.778-10.947 10.674 0 .793-.02 1.257.008 3.257h.719z" fill="#FFAC33" data-skin="#292F33|#FFE51E|#963B22|#60352A|#0B0200" data-gender="female"/>
	<!-- ears -->
	<path d="M15.444 15.936c0 1.448-.734 2.622-1.639 2.622s-1.639-1.174-1.639-2.622.734-2.623 1.639-2.623c.905-.001 1.639 1.174 1.639 2.623m16.389 0c0 1.448-.733 2.622-1.639 2.622-.905 0-1.639-1.174-1.639-2.622s.733-2.623 1.639-2.623c.906-.001 1.639 1.174 1.639 2.623" fill="#FFDC5D" data-skin="#F7DECE|#F3D2A2|#D5AB88|#AF7E57|#7C533E" data-gender="male,female"/>
	<!-- front hair -->
	<path d="M22 3.48c5.648 0 9.178 4.168 9.178 7.641s-.706 4.863-1.412 3.473l-1.412-2.778s-4.235 0-5.647-1.39c0 0 2.118 4.168-2.118 0 0 0 .706 2.779-3.53-.694 0 0-2.118 1.389-2.824 4.862-.196.964-1.412 0-1.412-3.473C12.822 7.648 15.646 3.48 22 3.48" fill="#FFAC33" data-skin="#292F33|#FFE51E|#963B22|#60352A|#0B0200" data-gender="male"/>
	<!-- nose -->
	<path d="M22.961 20.706h-1.906c-.263 0-.477-.213-.477-.477s.213-.477.477-.477h1.906c.263 0 .477.213.477.477s-.213.477-.477.477z" fill="#C1694F" data-skin="#C1694F|#C1694F|#C1694F|#915A34|#3D2E24" data-gender="neutral"/>
	<path d="M22.75 19.75h-1.5c-.413 0-.75-.337-.75-.75s.337-.75.75-.75h1.5c.413 0 .75.337.75.75s-.337.75-.75.75" fill="#C1694F" data-skin="#C1694F|#C1694F|#C1694F|#915A34|#3D2E24" data-gender="male"/>
	<path d="M22.836 20.5h-1.69c-.233 0-.423-.19-.423-.423v-.153c0-.233.189-.424.423-.424h1.69c.233 0 .424.19.424.424v.153c0 .233-.191.423-.424.423" fill="#C1694F" data-skin="#C1694F|#C1694F|#C1694F|#915A34|#3D2E24" data-gender="female"/>
	<!-- eyes -->
	<path d="M18.195 17.37c-.526 0-.953-.427-.953-.953v-.953c0-.526.427-.953.953-.953s.953.427.953.953v.953c0 .527-.426.953-.953.953zm7.626 0c-.526 0-.953-.427-.953-.953v-.953c0-.526.427-.953.953-.953s.953.427.953.953v.953c0 .527-.427.953-.953.953z" fill="#662113" data-skin="#662113|#662113|#662113|#662113|inherit" data-gender="neutral"/>
	<path d="M18 17c-.55 0-1-.45-1-1v-1c0-.55.45-1 1-1s1 .45 1 1v1c0 .55-.45 1-1 1m8 0c-.55 0-1-.45-1-1v-1c0-.55.45-1 1-1s1 .45 1 1v1c0 .55-.45 1-1 1" fill="#662113" data-skin="#662113|#662113|#662113|#60352A|inherit" data-gender="male"/>
	<path d="M18.608 17.887c-.465 0-.846-.381-.846-.847v-.845c0-.465.381-.846.846-.846.466 0 .847.381.847.846v.845c0 .466-.381.847-.847.847m6.765 0c-.465 0-.846-.381-.846-.847v-.845c0-.465.381-.846.846-.846.465 0 .846.381.846.846v.845c0 .466-.381.847-.846.847" fill="#662113" data-skin="#662113|#662113|#662113|#60352A|inherit" data-gender="female"/>
	<!-- mouth-->
	<path d="M22.134 24.686c-2.754 0-3.6-.705-3.741-.848-.256-.256-.256-.671 0-.927.248-.248.646-.255.902-.023.052.037.721.487 2.839.487 2.2 0 2.836-.485 2.842-.49.256-.255.657-.243.913.015.256.256.242.683-.014.938-.142.143-.987.848-3.741.848" fill="#C1694F" data-skin="#C1694F|#C1694F|#C1694F|#915A34|#3D2E24" data-gender="neutral"/>
	<path d="M22 23.802c-2.754 0-3.6-.705-3.741-.848-.256-.256-.256-.671 0-.927.248-.248.646-.255.902-.023.052.037.721.487 2.839.487 2.2 0 2.836-.485 2.842-.49.256-.255.657-.243.913.015.256.256.242.683-.014.938-.141.143-.987.848-3.741.848" fill="#C1694F" data-skin="#C1694F|#C1694F|#C1694F|#915A34|#3D2E24" data-gender="male"/>
	<path d="M21.945 23.543c-1.606 0-2.447-.794-2.537-.885-.268-.267-.268-.7 0-.967.266-.265.692-.267.961-.007.035.032.551.491 1.576.491 1.038 0 1.555-.473 1.576-.492.273-.256.703-.248.963.02.26.269.26.691-.004.955-.089.091-.929.885-2.535.885" fill="#DF1F32" data-gender="female"/>
	<!-- hat bottom -->
	<path d="M31.178 12S28.556 13 22 13s-9.178-1-9.178-1V6h18.355v6z" fill="#CCD6DD" data-gender="neutral,male"/>
	<path d="M32.5 12s-3 1-10.5 1-10.5-1-10.5-1V6h21v6z" fill="#CCD6DD" data-gender="female"/>
	<!-- hat creases -->
	<path d="M16 11.25c0 .276-.224.5-.5.5s-.5-.224-.5-.5v-3c0-.276.224-.5.5-.5s.5.224.5.5v3zm13 0c0 .276-.224.5-.5.5s-.5-.224-.5-.5v-3c0-.276.224-.5.5-.5s.5.224.5.5v3zm-10 .4c0 .276-.224.5-.5.5s-.5-.224-.5-.5v-3c0-.276.224-.5.5-.5s.5.224.5.5v3zm3.5.1c0 .276-.224.5-.5.5s-.5-.224-.5-.5v-3c0-.276.224-.5.5-.5s.5.224.5.5v3zm3.5-.1c0 .276-.224.5-.5.5s-.5-.224-.5-.5v-3c0-.276.224-.5.5-.5s.5.224.5.5v3z" fill="#99AAB5" data-gender="neutral,male"/>
	<path d="M14 11c0 .276-.224.5-.5.5s-.5-.224-.5-.5V8c0-.276.224-.5.5-.5s.5.224.5.5v3zm17 0c0 .276-.224.5-.5.5s-.5-.224-.5-.5V8c0-.276.224-.5.5-.5s.5.224.5.5v3zm-13 .5c0 .276-.224.5-.5.5s-.5-.224-.5-.5v-3c0-.276.224-.5.5-.5s.5.224.5.5v3zm4.5.25c0 .276-.224.5-.5.5s-.5-.224-.5-.5v-3c0-.276.224-.5.5-.5s.5.224.5.5v3zm4.5-.25c0 .276-.224.5-.5.5s-.5-.224-.5-.5v-3c0-.276.224-.5.5-.5s.5.224.5.5v3z" fill="#99AAB5" data-gender="female"/>
	<!-- spoon -->
	<path d="M10 24.75C10 28.202 7.985 30 5.5 30S1 28.202 1 24.75s2.015-7.25 4.5-7.25 4.5 3.798 4.5 7.25z" fill="#C1694F"/>
	<path d="M4.5 28h2v8h-2z" fill="#C1694F"/>
	<!-- hat top -->
	<path d="M28.25 0c-1.157 0-2.237.32-3.167.869C24.153.32 23.073 0 21.916 0c-1.122 0-2.173.3-3.083.818C17.923.3 16.872 0 15.75 0 12.298 0 9.5 2.798 9.5 6.25S20.794 9.5 21.916 9.5c1.157 0 12.584.202 12.584-3.25S31.701 0 28.25 0z" fill="#E1E8ED"/>
	<!-- hat top creases -->
	<path d="M14.894 4.489c.036.008.071.011.106.011.231 0 .438-.16.488-.394.031-.145.334-1.441 1.319-2.212.76-.595 1.749-.987 2.007-1.084-.396-.225-.824-.4-1.268-.535-.423.21-.914.486-1.355.832-1.236.967-1.617 2.492-1.681 2.788-.057.27.115.536.384.594zm12.157-2.586c.986.772 1.289 2.066 1.319 2.211.051.235.258.395.489.395.034 0 .069-.003.105-.011.27-.058.441-.324.384-.594-.064-.296-.443-1.82-1.681-2.789-.426-.333-.896-.602-1.309-.809-.434.139-.851.317-1.237.542.337.132 1.227.504 1.93 1.055z" fill="#CCD6DD"/>
</svg>
