<svg viewBox="0 0 36 36" xmlns="http://www.w3.org/2000/svg" xmlns:ts="data:,a">
	<!-- back hair -->
	<path d="M23.157 6.984c-1.925-.623 1.444-3.7.312-2.228-2.944.057-7.652 3.158-9.802 5.97-2.317 3.03-1.824 4.933-1.469 7.546.403 2.96 2.067 3.907 3.397 4.303 1.914 2.529 3.949 2.421 7.366 2.421 6.672 0 9.24-4.913 8.884-11.106-.267-2.981-3.848-5.34-8.688-6.906z" ts:skin="hair" ts:gender="neutral"/> <!-- cursed. -->
	<use href="defs.svg#hair_back_female" x="21.945" y="5.069" ts:skin="hair" ts:gender="female"/>
	<!-- shirt -->
	<use href="defs.svg#shoulders_male" x="22" fill="#E1E8ED" ts:gender="neutral,male"/>
	<use href="defs.svg#shoulders_female" x="22" fill="#E1E8ED" ts:gender="female"/>
	<!-- inner shirt -->
	<path d="M22 36l5-8H17z" fill="#269" ts:gender="neutral,male"/>
	<path d="M18 27h8l-4 9-4-9" fill="#269" ts:gender="female"/>
	<!-- neck -->
	<path d="M17.64 28.038c0 1.962 8.72 1.962 8.72 0v-3.749h-8.72v3.749z" ts:skin="skin" ts:gender="neutral,male"/>
	<path d="M18.328 27.018c1.466 1.065 2.964.98 3.672.98s2.194.085 3.66-.98v-3.203h-7.332v3.203z" ts:skin="skin" ts:gender="female"/>
	<path d="M17.632 25.973c1.216 1.374 2.724 1.746 4.364 1.746 1.639 0 3.146-.373 4.363-1.746v-3.491h-8.728v3.491z" ts:skin="dark" ts:gender="neutral,male"/>
	<path d="M18.322 25.179c1.022 1.155 2.29 1.468 3.668 1.468 1.379 0 2.647-.312 3.67-1.468v-2.936h-7.338v2.936z" ts:skin="dark" ts:gender="female"/>
	<!-- face -->
	<path d="M29.547 13.273c-.646-.894-1.472-1.614-3.284-1.868.68.311 1.725 1.727 1.81 2.321.085.595.082 1.75-.386 1.099-2.049-2.851-4.878-2.401-7.204-3.856-1.624-1.016-2.119-2.141-2.119-2.141s-.198 1.5-2.661 3.029c-.714.443-1.566 1.43-2.038 2.888-.34 1.048-.234 1.982-.234 3.578 0 4.66 3.841 8.578 8.578 8.578s8.578-3.953 8.578-8.578c-.001-2.898-.304-4.031-1.04-5.05z" ts:skin="skin" ts:gender="neutral"/>
	<use href="defs.svg#face_male" x="22" y="16.959" ts:skin="skin" ts:gender="male"/>
	<use href="defs.svg#face_female" x="13.734" y="15.717" ts:skin="skin" ts:gender="female"/>
	<!-- front hair -->
	<use href="defs.svg#hair_male" x="22" y="3.48" ts:skin="hair" ts:gender="male"/>
	<use href="defs.svg#hair_front_female" x="21.945" y="5.069" ts:skin="hair" ts:gender="female"/>
	<use href="defs.svg#ears_female" x="22" y="15.9355" ts:skin="skin" ts:gender="female"/>
	<!-- eyes -->
	<use href="defs.svg#eyes_neutral" x="22.008" y="15.9405" rx="0.953" ts:skin="eyes2" ts:gender="neutral"/>
	<use href="defs.svg#eyes_male" x="22" y="15.5" ts:skin="eyes" ts:gender="male"/>
	<use href="defs.svg#eyes_female" x="21.99075" y="16.618" ts:skin="eyes" ts:gender="female"/>
	<!-- nose -->
	<use href="defs.svg#nose_neutral" x="22.008" y="20.229" ts:skin="nose" ts:gender="neutral"/>
	<use href="defs.svg#nose_male" x="22.0" y="19.0" ts:skin="nose" ts:gender="male"/>
	<use href="defs.svg#nose_female" x="21.9915" y="20.0" ts:skin="nose" ts:gender="female"/>
	<!-- mouth-->
	<use href="defs.svg#mouth_neutral" x="22.134" y="24.686" ts:skin="nose" ts:gender="neutral"/>
	<use href="defs.svg#mouth_neutral" x="22" y="23.802" ts:skin="nose" ts:gender="male"/>
	<use href="defs.svg#mouth_female" x="21.944" y="23.543" fill="#DF1F32" ts:gender="female"/>
	<!-- hat bottom -->
	<path d="M31.178 12S28.556 13 22 13s-9.178-1-9.178-1V6h18.355v6z" fill="#CCD6DD" ts:gender="neutral,male"/>
	<path d="M32.5 12s-3 1-10.5 1-10.5-1-10.5-1V6h21v6z" fill="#CCD6DD" ts:gender="female"/>
	<!-- hat creases -->
	<rect x="15" y="7.75" width="1" height="4" rx="0.5" fill="#99AAB5" ts:gender="neutral,male"/><rect x="28" y="7.75" width="1" height="4" rx="0.5" fill="#99AAB5" ts:gender="neutral,male"/><rect x="18" y="8.15" width="1" height="4" rx="0.5" fill="#99AAB5" ts:gender="neutral,male"/><rect x="21.5" y="8.25" width="1" height="4" rx="0.5" fill="#99AAB5" ts:gender="neutral,male"/><rect x="25" y="8.15" width="1" height="4" rx="0.5" fill="#99AAB5" ts:gender="neutral,male"/>
	<rect x="13" y="7.5" width="1" height="4" rx="0.5" fill="#99AAB5" ts:gender="female"/><rect x="30" y="7.5" width="1" height="4" rx="0.5" fill="#99AAB5" ts:gender="female"/><rect x="17" y="8" width="1" height="4" rx="0.5" fill="#99AAB5" ts:gender="female"/><rect x="21.5" y="8.25" width="1" height="4" rx="0.5" fill="#99AAB5" ts:gender="female"/><rect x="26" y="8" width="1" height="4" rx="0.5" fill="#99AAB5" ts:gender="female"/>
	<!-- spoon -->
	<path d="M10 24.75C10 28.202 7.985 30 5.5 30S1 28.202 1 24.75s2.015-7.25 4.5-7.25 4.5 3.798 4.5 7.25z" fill="#C1694F"/>
	<path d="M4.5 28h2v8h-2z" fill="#C1694F"/>
	<!-- hat top -->
	<path d="M28.25 0c-1.157 0-2.237.32-3.167.869C24.153.32 23.073 0 21.916 0c-1.122 0-2.173.3-3.083.818C17.923.3 16.872 0 15.75 0 12.298 0 9.5 2.798 9.5 6.25S20.794 9.5 21.916 9.5c1.157 0 12.584.202 12.584-3.25S31.701 0 28.25 0z" fill="#E1E8ED"/>
	<!-- hat top creases -->
	<path d="M14.894 4.489c.036.008.071.011.106.011.231 0 .438-.16.488-.394.031-.145.334-1.441 1.319-2.212.76-.595 1.749-.987 2.007-1.084-.396-.225-.824-.4-1.268-.535-.423.21-.914.486-1.355.832-1.236.967-1.617 2.492-1.681 2.788-.057.27.115.536.384.594zm12.157-2.586c.986.772 1.289 2.066 1.319 2.211.051.235.258.395.489.395.034 0 .069-.003.105-.011.27-.058.441-.324.384-.594-.064-.296-.443-1.82-1.681-2.789-.426-.333-.896-.602-1.309-.809-.434.139-.851.317-1.237.542.337.132 1.227.504 1.93 1.055z" fill="#CCD6DD"/>
</svg>
