<svg viewBox="0 0 36 36" xmlns="http://www.w3.org/2000/svg">
	<!-- hair -->
	<path d="M0 9.709V.337C1.985-.109 4.563-.04 5.941.406c5.328 1.724 8.29 5.548 8.103 10.596-.192 5.191-1.62 9.052-4.438 11.232C9.606 22.233.057 9.747 0 9.709z" fill="#FFAC33" data-skin="#292F33|#292F33|#292F33|#292F33|#292F33|#FFE51E|#FFE51E|#FFE51E|#FFE51E|#FFE51E|#963B22|#963B22|#963B22|#963B22|#963B22|#60352A|#60352A|#60352A|#60352A|#60352A|#0B0200|#0B0200|#0B0200|#0B0200|#0B0200" data-gender="neutral"/>
	<path d="M11 11.844c-2.297-.669-3.315-3.565-3.734-5.369C6.313 7.952 4.23 10.155 0 11.28V.425C.955.154 1.959 0 3 0c6.075 0 11 4.925 11 11 0 3.009-1.211 5.733-3.168 7.719.107-.557.168-1.13.168-1.719v-5.156z" fill="#FFAC33" data-skin="#292F33|#292F33|#292F33|#292F33|#292F33|#FFE51E|#FFE51E|#FFE51E|#FFE51E|#FFE51E|#963B22|#963B22|#963B22|#963B22|#963B22|#60352A|#60352A|#60352A|#60352A|#60352A|#0B0200|#0B0200|#0B0200|#0B0200|#0B0200" data-gender="male"/><!-- optimize this -->
	<path d="M13.982 20H14v-9C14 4.925 9.075 0 3 0 1.956 0 .955.165 0 .44v31.037c.652.11 1.317.179 2 .179 6.511 0 11.799-5.189 11.982-11.656z" fill="#FFAC33" data-skin="#292F33|#292F33|#292F33|#292F33|#292F33|#FFE51E|#FFE51E|#FFE51E|#FFE51E|#FFE51E|#963B22|#963B22|#963B22|#963B22|#963B22|#60352A|#60352A|#60352A|#60352A|#60352A|#0B0200|#0B0200|#0B0200|#0B0200|#0B0200" data-gender="female,mixed"/>
	
	<path d="M36 9.709V.337c-1.985-.446-4.563-.377-5.941.069-5.328 1.724-8.29 5.548-8.103 10.596.192 5.191 1.62 9.052 4.438 11.232 0-.001 9.549-12.487 9.606-12.525z" fill="#FFAC33" data-skin="#292F33|#FFE51E|#963B22|#60352A|#0B0200" data-gender="neutral"/>
	<path d="M33 0c-6.075 0-11 4.925-11 11s4.925 11 11 11c1.041 0 2.045-.154 3-.425V.425C35.045.154 34.041 0 33 0z" fill="#FFAC33" data-skin="#292F33|#FFE51E|#963B22|#60352A|#0B0200" data-gender="male,mixed"/>
	<path d="M22.018 20H22v-9c0-6.075 4.925-11 11-11 1.044 0 2.045.165 3 .44v31.037c-.652.11-1.317.179-2 .179-6.511 0-11.799-5.189-11.982-11.656z" fill="#FFAC33" data-skin="#292F33|#FFE51E|#963B22|#60352A|#0B0200" data-gender="female"/>
	<!--<path d="M25 11.844c2.297-.669 3.315-3.565 3.734-5.369.953 1.477 3.036 3.68 7.266 4.805V.425C35.045.154 34.041 0 33 0c-6.075 0-11 4.925-11 11 0 3.009 1.211 5.733 3.168 7.719C25.061 18.162 25 17.589 25 17v-5.156z" fill="#FFAC33" data-skin="#292F33|#FFE51E|#963B22|#60352A|#0B0200|#292F33|#FFE51E|#963B22|#60352A|#0B0200|#292F33|#FFE51E|#963B22|#60352A|#0B0200|#292F33|#FFE51E|#963B22|#60352A|#0B0200|#292F33|#FFE51E|#963B22|#60352A|#0B0200" data-gender="male"/>-->
	<!-- shirt -->
	<path d="M15 31v5H0v-9h11c2.209 0 4 1.791 4 4z" fill="#99AAB5" data-gender="neutral"/>
	<path d="M15 31v5H0v-9h11c2.209 0 4 1.791 4 4z" fill="#3B94D9" data-gender="male"/>
	<path d="M15 31v5H0v-9h11c2.209 0 4 1.791 4 4z" fill="#9268CA" data-gender="female,mixed"/>
	<path d="M25 27c-2.209 0-4 1.791-4 4v5h15v-9H25z" fill="#FA743E" data-gender="neutral"/>
	<path d="M25 27c-2.209 0-4 1.791-4 4v5h15v-9H25z" fill="#3B94D9" data-gender="male"/>
	<path d="M25 27c-2.209 0-4 1.791-4 4v5h15v-9H25z" fill="#9268CA" data-gender="female"/>
	<path d="M25 27c-2.209 0-4 1.791-4 4v5h15v-9H25z" fill="#4289C1" data-gender="mixed"/>
	<!-- arm lines -->
	<path d="M11 36h-1v-4h1z" fill="#66757F" data-gender="neutral"/>
	<path d="M11 36h-1v-4h1z" fill="#1C6399" data-gender="male"/>
	<path d="M11 36h-1v-4h1z" fill="#7450A8" data-gender="female,mixed"/>
	<path d="M25 32h1v4h-1z" fill="#DD551F" data-gender="neutral"/>
	<path d="M25 32h1v4h-1z" fill="#1C6399" data-gender="male"/>
	<path d="M25 32h1v4h-1z" fill="#7450A8" data-gender="female"/>
	<path d="M25 32h1v4h-1z" fill="#2A6797" data-gender="mixed"/>
	<!-- skin -->
	<path d="M36 8.709c-.057.038-.103.076-.163.113-2.56 1.602-5.143.569-7.516 3.191-.592.654-.499.125-.405-.53.094-.654.81-1.839 1.558-2.182-1.995.281-2.905 1.073-3.615 2.057-.81 1.122-1.145 2.369-1.145 5.56 0 1.949.623 3.786 1.679 5.315 1.119 1.62 2.732 2.879 4.616 3.562v2.279c.161 1.547.779 5.272 3.022 5.272.858 0 1.495-.549 1.968-1.311V8.709z" fill="#FFDC5D" data-skin="#F7DECE|#F3D2A2|#D4AB88|#AF7E57|#7C533E" data-gender="neutral"/>
	<path d="M0 8.018v22.204C.532 30.7 1.228 31 2 31c1.657 0 3-1.343 3-3v-2.523c3.494-1.237 6-4.56 6-8.477v-5.019c-5.92-.2-9.207-2.168-11-3.963z" fill="#FFDC5D" data-skin="#F7DECE|#F7DECE|#F7DECE|#F7DECE|#F7DECE|#F3D2A2|#F3D2A2|#F3D2A2|#F3D2A2|#F3D2A2|#D4AB88|#D4AB88|#D4AB88|#D4AB88|#D4AB88|#AF7E57|#AF7E57|#AF7E57|#AF7E57|#AF7E57|#7C533E|#7C533E|#7C533E|#7C533E|#7C533E" data-gender="female,mixed"/>
	<path d="M0 28.604L2 32l3-5v-1.523c2.968-1.051 5.222-3.607 5.832-6.757.107-.558.168-1.131.168-1.72v-5.156c-2.297-.669-3.315-3.565-3.734-5.369C6.313 7.952 4.23 10.155 0 11.28v17.324z" fill="#FFDC5D" data-skin="#F7DECE|#F7DECE|#F7DECE|#F7DECE|#F7DECE|#F3D2A2|#F3D2A2|#F3D2A2|#F3D2A2|#F3D2A2|#D4AB88|#D4AB88|#D4AB88|#D4AB88|#D4AB88|#AF7E57|#AF7E57|#AF7E57|#AF7E57|#AF7E57|#7C533E|#7C533E|#7C533E|#7C533E|#7C533E" data-gender="male"/>
	
	<path d="M0 8.709c.057.038.103.076.163.113 2.56 1.602 5.143.569 7.516 3.191.592.654.499.125.405-.53-.094-.654-.81-1.839-1.558-2.182 1.995.281 2.905 1.073 3.615 2.057.81 1.122 1.145 2.369 1.145 5.56 0 1.949-.623 3.786-1.679 5.315-1.119 1.62-2.732 2.879-4.616 3.562v2.279c-.161 1.547-.779 5.272-3.022 5.272-.858 0-1.495-.549-1.968-1.311L0 8.709z" fill="#FFDC5D" data-skin="#F7DECE|#F7DECE|#F7DECE|#F7DECE|#F7DECE|#F3D2A2|#F3D2A2|#F3D2A2|#F3D2A2|#F3D2A2|#D4AB88|#D4AB88|#D4AB88|#D4AB88|#D4AB88|#AF7E57|#AF7E57|#AF7E57|#AF7E57|#AF7E57|#7C533E|#7C533E|#7C533E|#7C533E|#7C533E" data-gender="neutral"/>
	<path d="M36 11.28c-4.23-1.125-6.313-3.328-7.266-4.804-.42 1.804-1.438 4.699-3.734 5.369V17c0 .589.061 1.162.168 1.719.61 3.15 2.863 5.706 5.832 6.757V27l3 5 2-3.396V11.28z" fill="#FFDC5D" data-skin="#F7DECE|#F3D2A2|#D4AB88|#AF7E57|#7C533E" data-gender="male,mixed"/>
	<path d="M36 8.018v22.204c-.532.478-1.228.778-2 .778-1.657 0-3-1.343-3-3v-2.523c-3.494-1.237-6-4.56-6-8.477v-5.019c5.92-.2 9.207-2.168 11-3.963z" fill="#FFDC5D" data-skin="#F7DECE|#F3D2A2|#D4AB88|#AF7E57|#7C533E" data-gender="female"/>
	<!-- eyes -->
	<path d="M6 16c.553 0 1-.448 1-1v-1c0-.552-.447-1-1-1s-1 .448-1 1v1c0 .552.447 1 1 1z" fill="#662113" data-skin="#662113|#662113|#662113|#662113|#662113|#662113|#662113|#662113|#662113|#662113|#662113|#662113|#662113|#662113|#662113|#662113|#662113|#662113|#662113|#662113|#000000|#000000|#000000|#000000|#000000"/>
	<path d="M30 16c-.553 0-1-.448-1-1v-1c0-.552.447-1 1-1s1 .448 1 1v1c0 .552-.447 1-1 1z" fill="#662113" data-skin="#662113|#662113|#662113|#662113|#000000"/>
	<!-- nose -->
	<path d="M3 19.5H1c-.276 0-.5-.224-.5-.5s.224-.5.5-.5h2c.276 0 .5.224.5.5s-.224.5-.5.5z" fill="#C1694F" data-skin="#C1694F|#C1694F|#C1694F|#C1694F|#C1694F|#C1694F|#C1694F|#C1694F|#C1694F|#C1694F|#C1694F|#C1694F|#C1694F|#C1694F|#C1694F|#915A34|#915A34|#915A34|#915A34|#915A34|#3D2E24|#3D2E24|#3D2E24|#3D2E24|#3D2E24"/>
	<path d="M33 19.5h2c.276 0 .5-.224.5-.5s-.224-.5-.5-.5h-2c-.276 0-.5.224-.5.5s.224.5.5.5z" fill="#C1694F" data-skin="#C1694F|#C1694F|#C1694F|#915A34|#3D2E24"/>
	<!-- mouth -->
	<path d="M0 22v1.637c.538.212 1.191.363 2 .363 1.413 0 2.369-.445 3-.915C5.707 22.558 6 22 6 22H0z" fill="#C1694F" data-skin="#C1694F|#C1694F|#C1694F|#C1694F|#C1694F|#C1694F|#C1694F|#C1694F|#C1694F|#C1694F|#C1694F|#C1694F|#C1694F|#C1694F|#C1694F|#915A34|#915A34|#915A34|#915A34|#915A34|#3D2E24|#3D2E24|#3D2E24|#3D2E24|#3D2E24" data-gender="neutral,male"/>
	<path d="M0 22v1.637c.538.212 1.191.363 2 .363 1.413 0 2.369-.445 3-.915C5.707 22.558 6 22 6 22H0z" fill="#DF1F32" data-gender="female,mixed"/>
	
	<path d="M36 22v1.637c-.538.212-1.191.363-2 .363-1.413 0-2.369-.445-3-.915-.707-.527-1-1.085-1-1.085h6z" fill="#C1694F" data-skin="#C1694F|#C1694F|#C1694F|#915A34|#3D2E24" data-gender="neutral,male,mixed"/>
	<path d="M36 22v1.637c-.538.212-1.191.363-2 .363-1.413 0-2.369-.445-3-.915-.707-.527-1-1.085-1-1.085h6z" fill="#DF1F32" data-gender="female"/>
	<!-- heart -->
	<path d="M26.539 4.711c0-2.602-2.11-4.711-4.711-4.711C20.249 0 18.855.78 18 1.972 17.144.78 15.75 0 14.172 0c-2.601 0-4.711 2.109-4.711 4.711 0 .369.047.727.127 1.07.654 4.065 5.173 8.353 8.411 9.529 3.238-1.177 7.758-5.465 8.412-9.528.081-.344.128-.702.128-1.071z" fill="#DD2E44"/>
</svg>
