<svg viewBox="0 0 36 36" xmlns="http://www.w3.org/2000/svg" xmlns:ts="data:,a">
	<!-- body -->
	<path d="M35.002 36v-2c0-3.314-2.686-6-6-6h-14c-3.313 0-6 2.686-6 6v2h26z" fill="#FA743E" ts:gender="neutral"/>
	<path d="M35.002 36v-2c0-3.314-2.686-6-6-6h-16c-3.313 0-6 2.686-6 6v2h28z" fill="#4289C1" ts:gender="male"/>
	<path d="M33.944 36v-3.5c0-3.314-3.686-5.5-7-5.5h-12c-3.313 0-7 2.186-7 5.5V36h26z" fill="#9268CA" ts:gender="female"/>
	<!-- arm -->
	<path d="M8.002 28.558V36h1l.303-7.442z" fill="#DD551F" ts:gender="neutral"/>
	<path d="M8.002 28.558V36h1l.303-7.442z" fill="#2A6797" ts:gender="male"/>
	<path d="M8.002 28.558V36h1l.303-7.442z" fill="#7450A8" ts:gender="female"/>
	<!-- arm shadow -->
	<path d="M4.335 28.053L3.002 36h5l.721-7.588z" fill="#FA743E" ts:gender="neutral"/>
	<path d="M4.335 28.053L3.002 36h5l.721-7.588z" fill="#4289C1" ts:gender="male"/>
	<path d="M4.335 28.053L3.002 36h5l.721-7.588z" fill="#9268CA" ts:gender="female"/>
	<!-- back hair -->
	<path d="M25.906 2.262c-2.02-.653-6.772-.475-7.96 1.069-3.089.059-6.713 2.851-7.188 6.535-.47 3.645.578 5.338.951 8.079.422 3.106 2.168 4.099 3.564 4.515C17.281 25.114 19.416 25 23 25c7 0 10.334-4.684 10.629-12.639.178-4.812-2.645-8.456-7.723-10.099z" fill="#FFAC33" ts:skin="#292F33|#FFE51E|#963B22|#60352A|#0B0200" ts:gender="neutral"/>
	<path d="M20.889 5.069c4.105 0 10.947 2.053 10.947 10.947 0 8.896 0 10.948-2.053 10.948s-4.79-2.053-8.895-2.053c-4.105 0-6.785 2.053-8.895 2.053-2.287 0-2.053-8.211-2.053-10.948 0-8.894 6.844-10.947 10.949-10.947" fill="#FFAC33" ts:skin="#292F33|#FFE51E|#963B22|#60352A|#0B0200" ts:gender="female"/>
	<path d="M19 23v6c0 1.657 1.343 3 3 3s3-1.343 3-3v-6h-6z" fill="#FFDC5D" ts:skin="#F7DECE|#F3D2A2|#D4AB88|#AF7E57|#7C533E" ts:gender="neutral"/>
	<path d="M16.642 28.101c0 .736 1.965 1.963 4.36 1.963s4.359-1.157 4.359-1.963V24.29h-8.72v3.811z" fill="#FFDC5D" ts:skin="#F7DECE|#F3D2A2|#D4AB88|#AF7E57|#7C533E" ts:gender="male"/>
	<path d="M21.041 29.414c2.008 0 3.563-1.484 3.563-2.491v-3.108h-7.332v2.998c0 1.326 1.761 2.601 3.769 2.601z" fill="#FFDC5D" ts:skin="#F7DECE|#F3D2A2|#D4AB88|#AF7E57|#7C533E" ts:gender="female"/>
	<path d="M18.519 25.995c1.058 1.207 2.049 1.51 3.477 1.51 1.426 0 2.426-.304 3.485-1.51V22.48H18.52v3.515z" fill="#F9CA55" ts:skin="#EEC2AD|#E2C196|#CC9B7A|#9B6A49|#664131" ts:gender="neutral"/>
	<path d="M16.634 25.973c1.216 1.374 2.724 1.746 4.364 1.746 1.639 0 3.146-.373 4.363-1.746v-3.491h-8.728v3.491z" fill="#F9CA55" ts:skin="#EEC2AD|#E2C196|#CC9B7A|#9B6A49|#664131" ts:gender="male"/>
	<path d="M17.266 25.179c1.022 1.155 2.29 1.468 3.668 1.468 1.379 0 2.647-.312 3.67-1.468v-2.936h-7.338v2.936z" fill="#F9CA55" ts:skin="#EEC2AD|#E2C196|#CC9B7A|#9B6A49|#664131" ts:gender="female"/>
	<path d="M29.909 12.701c-.677-.938-1.545-1.693-3.446-1.96.713.327 1.396 1.455 1.485 2.079.089.624.178 1.129-.386.505-2.261-2.499-4.723-1.515-7.163-3.041-1.704-1.066-2.223-2.246-2.223-2.246s-.208 1.574-2.792 3.178c-.749.465-1.643 1.5-2.139 3.03C12.889 15.345 13 16.325 13 18c0 4.889 4.029 9 9 9s9-4.147 9-9c0-3.041-.319-4.229-1.091-5.299z" fill="#FFDC5D" ts:skin="#F7DECE|#F3D2A2|#D4AB88|#AF7E57|#7C533E" ts:gender="neutral"/>
	<path d="M12.48 16.959c0-5.589 3.816-10.121 8.522-10.121 4.707 0 8.523 4.532 8.523 10.121S25.709 27.08 21.002 27.08c-4.706 0-8.522-4.531-8.522-10.121" fill="#FFDC5D" ts:skin="#F7DECE|#F3D2A2|#D4AB88|#AF7E57|#7C533E" ts:gender="male"/>
	<path d="M12.678 15.718c0-5.834 3.676-10.563 8.211-10.563 4.533 0 8.209 4.729 8.209 10.563 0 5.833-3.676 10.285-8.209 10.285-4.535 0-8.211-4.452-8.211-10.285" fill="#FFDC5D" ts:skin="#F7DECE|#F3D2A2|#D4AB88|#AF7E57|#7C533E" ts:gender="female"/>
	<path d="M14.447 15.936c0 1.448-.734 2.622-1.639 2.622s-1.639-1.174-1.639-2.622.734-2.623 1.639-2.623c.905-.001 1.639 1.174 1.639 2.623m16.388 0c0 1.448-.733 2.622-1.639 2.622-.905 0-1.639-1.174-1.639-2.622s.733-2.623 1.639-2.623c.906-.001 1.639 1.174 1.639 2.623" fill="#FFDC5D" ts:skin="#F7DECE|#F3D2A2|#D4AB88|#AF7E57|#7C533E" ts:gender="male"/>
	<path d="M6.789 22.258c.923-.923 3.558-2.964 4.215-3.637.658-.672 1.53.097 1.068.918-.462.821-3.129 3.847-3.129 3.847s1.59.462 1.949.872 1.026 3.078.41 3.488-1.539.103-1.539.103-.973 2.411-3.487 2.257c-1.044-.064-2.103-.975-2.001-2.514.103-1.539.904-2.969 1.18-3.796.308-.923 1.334-1.538 1.334-1.538z" fill="#FFDC5D" ts:skin="#F7DECE|#F3D2A2|#D4AB88|#AF7E57|#7C533E"/>
	<path d="M10.669 19c-.021-1-.044-.224-.044-.465 0-3.422 2.053.494 2.053-1.943 0-2.439 1.368-2.683 2.736-4.051.685-.685 2.053-2.026 2.053-2.026s3.421 2.067 6.158 2.067c2.736 0 5.474 1.375 5.474 4.112 0 2.736 2.053-1.584 2.053 1.837 0 .244-.022-.531-.04.469h.719c.006-2 .006-1.924.006-3.202 0-8.895-6.842-11.672-10.948-11.672-4.104 0-10.947 2.722-10.947 11.617 0 .793-.02 1.257.008 3.257h.719z" fill="#FFAC33" ts:skin="#292F33|#FFE51E|#963B22|#60352A|#0B0200" ts:gender="female"/>
	<path d="M21 3.48c5.648 0 9.178 4.168 9.178 7.641s-.706 4.863-1.412 3.473l-1.412-2.778s-4.235 0-5.647-1.39c0 0 2.118 4.168-2.118 0 0 0 .706 2.779-3.53-.694 0 0-2.118 1.389-2.824 4.862-.196.964-1.412 0-1.412-3.473C11.822 7.648 14.646 3.48 21 3.48" fill="#FFAC33" ts:skin="#292F33|#FFE51E|#963B22|#60352A|#0B0200" ts:gender="male"/>
	<!-- eyes -->
	<path d="M18 17c-.552 0-1-.448-1-1v-1c0-.552.448-1 1-1s1 .448 1 1v1c0 .552-.448 1-1 1z M26,17 c-.552 0-1-.448-1-1v-1c0-.552.448-1 1-1s1 .448 1 1v1c0 .552-.448 1-1 1z" fill="#662113" ts:skin="#662113|#662113|#662113|#662113|#000000" ts:gender="neutral"/>
	<path d="M17.002 17c-.55 0-1-.45-1-1v-1c0-.55.45-1 1-1s1 .45 1 1v1c0 .55-.45 1-1 1m8 0c-.55 0-1-.45-1-1v-1c0-.55.45-1 1-1s1 .45 1 1v1c0 .55-.45 1-1 1" fill="#662113" ts:skin="#662113|#662113|#662113|#662113|#000000" ts:gender="male"/>
	<path d="M17.552 17.887c-.465 0-.846-.381-.846-.847v-.845c0-.465.381-.846.846-.846.466 0 .847.381.847.846v.845c0 .466-.381.847-.847.847m6.765 0c-.465 0-.846-.381-.846-.847v-.845c0-.465.381-.846.846-.846.465 0 .846.381.846.846v.845c0 .466-.381.847-.846.847" fill="#662113" ts:skin="#662113|#662113|#662113|#662113|#000000" ts:gender="female"/>
	<!-- nose -->
	<path d="M23 20.5h-2c-.276 0-.5-.224-.5-.5s.224-.5.5-.5h2c.276 0 .5.224.5.5s-.224.5-.5.5z" fill="#C1694F" ts:skin="#C1694F|#C1694F|#C1694F|#915A34|#3D2E24" ts:gender="neutral"/>
	<path d="M21.752 19.75h-1.5c-.413 0-.75-.337-.75-.75s.337-.75.75-.75h1.5c.413 0 .75.337.75.75s-.336.75-.75.75" fill="#C1694F" ts:skin="#C1694F|#C1694F|#C1694F|#915A34|#3D2E24" ts:gender="male"/>
	<path d="M21.78 20.5h-1.69c-.233 0-.423-.19-.423-.423v-.153c0-.233.189-.424.423-.424h1.69c.233 0 .424.19.424.424v.153c0 .233-.191.423-.424.423" fill="#C1694F" ts:skin="#C1694F|#C1694F|#C1694F|#915A34|#3D2E24" ts:gender="female"/>
	<!-- mouth -->
	<path d="M22.002 23.802c-2.754 0-3.6-.705-3.741-.848-.256-.256-.256-.671 0-.927.248-.248.646-.255.902-.023.052.037.721.487 2.839.487 2.2 0 2.836-.485 2.842-.49.256-.255.657-.243.913.015.256.256.242.683-.014.938-.141.143-.987.848-3.741.848" fill="#C1694F" ts:skin="#C1694F|#C1694F|#C1694F|#915A34|#3D2E24" ts:gender="neutral"/>
	<path d="M21.002 23.802c-2.754 0-3.6-.705-3.741-.848-.256-.256-.256-.671 0-.927.248-.248.646-.255.902-.023.052.037.721.487 2.839.487 2.2 0 2.836-.485 2.842-.49.256-.255.657-.243.913.015.256.256.242.683-.014.938-.141.143-.987.848-3.741.848" fill="#C1694F" ts:skin="#C1694F|#C1694F|#C1694F|#915A34|#3D2E24" ts:gender="male"/>
	<path d="M20.889 23.543c-1.606 0-2.447-.794-2.537-.885-.268-.267-.268-.7 0-.967.266-.265.692-.267.961-.007.035.032.551.491 1.576.491 1.038 0 1.555-.473 1.576-.492.273-.256.703-.248.963.02.26.269.26.691-.004.955-.09.091-.929.885-2.535.885" fill="#DF1F32" ts:gender="female"/>
	<!-- movement lines -->
	<path d="M6.103 20.705c-.048 0-.097-.007-.146-.021-2.429-.74-2.859-3.564-2.876-3.684-.039-.273.15-.525.423-.565.272-.038.526.149.566.422.003.023.362 2.316 2.178 2.869.264.081.413.36.333.624-.066.216-.264.355-.478.355z M5.026,22.717 c-.049 0-.099-.007-.148-.022C1.321 21.593.366 17.586.327 17.416c-.062-.269.106-.537.375-.599.271-.062.537.106.6.375.008.036.872 3.618 3.873 4.548.264.082.411.361.33.625-.067.214-.265.352-.479.352z" fill="#5DADEC"/>
</svg>
