<svg viewBox="0 0 36 36" xmlns="http://www.w3.org/2000/svg" xmlns:ts="data:,a">
	<!-- back hair -->
	<use href="defs.svg#hair_neutral" transform="translate(25.906 2.262) scale(1.05)" ts:skin="hair" ts:gender="neutral"/>
	<use href="defs.svg#hair_back_female" x="20.889" y="5.069" ts:skin="hair" ts:gender="female"/>
	<!-- body -->
	<path d="M35.002 36v-2c0-3.314-2.686-6-6-6h-14c-3.313 0-6 2.686-6 6v2h26z" fill="#FA743E" ts:gender="neutral"/> <!-- nonstandard ? -->
	<use href="defs.svg#shoulders_male" x="21.002" fill="#4289C1" ts:gender="male"/>
	<use href="defs.svg#shoulders_female" x="20.944" fill="#9268CA" ts:gender="female"/>
	<!-- arm -->
	<path d="M8.002 28.558V36h1l.303-7.442z" fill="#DD551F" ts:gender-color="#2A6797,#7450A8"/>
	<!-- arm shadow -->
	<path d="M4.335 28.053L3.002 36h5l.721-7.588z" fill="#FA743E" ts:gender-color="#4289C1,#9268CA"/>
	<!-- neck -->
	<use href="defs.svg#neck_old" x="22" y="32" ts:skin="skin" ts:gender="neutral"/>
	<path d="M16.642 28.101c0 .736 1.965 1.963 4.36 1.963s4.359-1.157 4.359-1.963V24.29h-8.72v3.811z" ts:skin="skin" ts:gender="male"/>
	<path d="M21.041 29.414c2.008 0 3.563-1.484 3.563-2.491v-3.108h-7.332v2.998c0 1.326 1.761 2.601 3.769 2.601z" ts:skin="skin" ts:gender="female"/>
	
	<path d="M18.519 25.995c1.058 1.207 2.049 1.51 3.477 1.51 1.426 0 2.426-.304 3.485-1.51V22.48H18.52v3.515z" ts:skin="dark" ts:gender="neutral"/>
	<use href="defs.svg#neck_shadow_male" x="20.998" y="27.719" ts:skin="dark" ts:gender="male"/>
	<use href="defs.svg#neck_shadow_female" x="20.934" y="26.647" ts:skin="dark" ts:gender="female"/>
	<!-- face -->
	<path d="M29.909 12.701c-.677-.938-1.545-1.693-3.446-1.96.713.327 1.396 1.455 1.485 2.079.089.624.178 1.129-.386.505-2.261-2.499-4.723-1.515-7.163-3.041-1.704-1.066-2.223-2.246-2.223-2.246s-.208 1.574-2.792 3.178c-.749.465-1.643 1.5-2.139 3.03C12.889 15.345 13 16.325 13 18c0 4.889 4.029 9 9 9s9-4.147 9-9c0-3.041-.319-4.229-1.091-5.299z" ts:skin="skin" ts:gender="neutral"/>
	<use href="defs.svg#face_male" x="21.002" y="16.959" ts:skin="skin" ts:gender="male"/>
	<use href="defs.svg#face_female" x="12.678" y="15.718" ts:skin="skin" ts:gender="female"/>
	<!-- hand -->
	<path d="M6.789 22.258c.923-.923 3.558-2.964 4.215-3.637.658-.672 1.53.097 1.068.918-.462.821-3.129 3.847-3.129 3.847s1.59.462 1.949.872 1.026 3.078.41 3.488-1.539.103-1.539.103-.973 2.411-3.487 2.257c-1.044-.064-2.103-.975-2.001-2.514.103-1.539.904-2.969 1.18-3.796.308-.923 1.334-1.538 1.334-1.538z" ts:skin="skin"/>
	<!-- hair -->
	<use href="defs.svg#hair_male" x="21" y="3.48" ts:skin="hair" ts:gender="male"/>
	<path d="M10.669 19c-.021-1-.044-.224-.044-.465 0-3.422 2.053.494 2.053-1.943 0-2.439 1.368-2.683 2.736-4.051.685-.685 2.053-2.026 2.053-2.026s3.421 2.067 6.158 2.067c2.736 0 5.474 1.375 5.474 4.112 0 2.736 2.053-1.584 2.053 1.837 0 .244-.022-.531-.04.469h.719c.006-2 .006-1.924.006-3.202 0-8.895-6.842-11.672-10.948-11.672-4.104 0-10.947 2.722-10.947 11.617 0 .793-.02 1.257.008 3.257h.719z" ts:skin="hair" ts:gender="female"/> <!-- nonstandard -->
	<!-- eyes -->
	<use href="defs.svg#eyes_male" x="22" y="15.5" ts:skin="eyes" ts:gender="neutral"/>
	<use href="defs.svg#eyes_male" x="21.002" y="15.5" ts:skin="eyes" ts:gender="male"/>
	<use href="defs.svg#eyes_female" x="20.93475" y="16.618" ts:skin="eyes2" ts:gender="female"/>
	<!-- nose -->
	<use href="defs.svg#nose_neutral1" x="22" y="20.0" ts:skin="nose" ts:gender="neutral"/>
	<use href="defs.svg#nose_male" x="21.002" y="19.0" ts:skin="nose" ts:gender="male"/>
	<use href="defs.svg#nose_female" x="20.9355" y="20.0" ts:skin="nose" ts:gender="female"/>
	<!-- mouth -->
	<use href="defs.svg#mouth_neutral" x="22.002" y="23.802" ts:skin="nose" ts:gender="neutral"/>
	<use href="defs.svg#mouth_neutral" x="21.002" y="23.802" ts:skin="nose" ts:gender="male"/>
	<use href="defs.svg#mouth_female" x="20.889" y="23.543" ts:skin="mouth" ts:gender="female"/>
	<!-- movement lines -->
	<path d="M6.103 20.705c-.048 0-.097-.007-.146-.021-2.429-.74-2.859-3.564-2.876-3.684-.039-.273.15-.525.423-.565.272-.038.526.149.566.422.003.023.362 2.316 2.178 2.869.264.081.413.36.333.624-.066.216-.264.355-.478.355z M5.026,22.717 c-.049 0-.099-.007-.148-.022C1.321 21.593.366 17.586.327 17.416c-.062-.269.106-.537.375-.599.271-.062.537.106.6.375.008.036.872 3.618 3.873 4.548.264.082.411.361.33.625-.067.214-.265.352-.479.352z" fill="#5DADEC"/>
</svg>
