<svg viewBox="0 0 36 36" xmlns="http://www.w3.org/2000/svg" xmlns:ts="data:,a">
	<!-- body -->
	<path d="M35.002 36v-2c0-3.314-2.686-6-6-6h-14c-3.313 0-6 2.686-6 6v2h26z" fill="#FA743E" ts:gender="neutral"/>
	<path d="M35.002 36v-2c0-3.314-2.686-6-6-6h-16c-3.313 0-6 2.686-6 6v2h28z" fill="#4289C1" ts:gender="male"/>
	<path d="M33.944 36v-3.5c0-3.314-3.686-5.5-7-5.5h-12c-3.313 0-7 2.186-7 5.5V36h26z" fill="#9268CA" ts:gender="female"/>
	<!-- arm -->
	<path d="M8.002 28.558V36h1l.303-7.442z" fill="#DD551F" ts:gender-color="#2A6797,#7450A8"/>
	<!-- arm shadow -->
	<path d="M4.335 28.053L3.002 36h5l.721-7.588z" fill="#FA743E" ts:gender-color="#4289C1,#9268CA"/>
	<!-- back hair -->
	<use href="defs.svg#hair_neutral" transform="translate(25.906 2.262) scale(1.05)" fill="#FFAC33" ts:skin="hair" ts:gender="neutral"/>
	<use href="defs.svg#hair_back_female" x="20.889" y="5.069" fill="#FFAC33" ts:skin="hair" ts:gender="female"/>
	<!-- neck -->
	<path d="M19 23v6c0 1.657 1.343 3 3 3s3-1.343 3-3v-6h-6z" fill="#FFDC5D" ts:skin="skin" ts:gender="neutral"/>
	<path d="M16.642 28.101c0 .736 1.965 1.963 4.36 1.963s4.359-1.157 4.359-1.963V24.29h-8.72v3.811z" fill="#FFDC5D" ts:skin="skin" ts:gender="male"/>
	<path d="M21.041 29.414c2.008 0 3.563-1.484 3.563-2.491v-3.108h-7.332v2.998c0 1.326 1.761 2.601 3.769 2.601z" fill="#FFDC5D" ts:skin="skin" ts:gender="female"/>
	<!-- neck shadow -->
	<path d="M18.519 25.995c1.058 1.207 2.049 1.51 3.477 1.51 1.426 0 2.426-.304 3.485-1.51V22.48H18.52v3.515z" fill="#F9CA55" ts:skin="dark" ts:gender="neutral"/>
	<path d="M16.634 25.973c1.216 1.374 2.724 1.746 4.364 1.746 1.639 0 3.146-.373 4.363-1.746v-3.491h-8.728v3.491z" fill="#F9CA55" ts:skin="dark" ts:gender="male"/>
	<path d="M17.266 25.179c1.022 1.155 2.29 1.468 3.668 1.468 1.379 0 2.647-.312 3.67-1.468v-2.936h-7.338v2.936z" fill="#F9CA55" ts:skin="dark" ts:gender="female"/>
	<!-- face -->
	<path d="M29.909 12.701c-.677-.938-1.545-1.693-3.446-1.96.713.327 1.396 1.455 1.485 2.079.089.624.178 1.129-.386.505-2.261-2.499-4.723-1.515-7.163-3.041-1.704-1.066-2.223-2.246-2.223-2.246s-.208 1.574-2.792 3.178c-.749.465-1.643 1.5-2.139 3.03C12.889 15.345 13 16.325 13 18c0 4.889 4.029 9 9 9s9-4.147 9-9c0-3.041-.319-4.229-1.091-5.299z" fill="#FFDC5D" ts:skin="skin" ts:gender="neutral"/>
	<path d="M14.447 15.936c0 1.448-.734 2.622-1.639 2.622s-1.639-1.174-1.639-2.622.734-2.623 1.639-2.623c.905-.001 1.639 1.174 1.639 2.623m16.388 0c0 1.448-.733 2.622-1.639 2.622-.905 0-1.639-1.174-1.639-2.622s.733-2.623 1.639-2.623c.906-.001 1.639 1.174 1.639 2.623" fill="#FFDC5D" ts:skin="skin" ts:gender="male"/>
	<path d="M12.48 16.959c0-5.589 3.816-10.121 8.522-10.121 4.707 0 8.523 4.532 8.523 10.121S25.709 27.08 21.002 27.08c-4.706 0-8.522-4.531-8.522-10.121" fill="#FFDC5D" ts:skin="skin" ts:gender="male"/>
	<path d="M12.678 15.718c0-5.834 3.676-10.563 8.211-10.563 4.533 0 8.209 4.729 8.209 10.563 0 5.833-3.676 10.285-8.209 10.285-4.535 0-8.211-4.452-8.211-10.285" fill="#FFDC5D" ts:skin="skin" ts:gender="female"/>
	<!-- hand -->	
	<path d="M6.789 22.258c.923-.923 3.558-2.964 4.215-3.637.658-.672 1.53.097 1.068.918-.462.821-3.129 3.847-3.129 3.847s1.59.462 1.949.872 1.026 3.078.41 3.488-1.539.103-1.539.103-.973 2.411-3.487 2.257c-1.044-.064-2.103-.975-2.001-2.514.103-1.539.904-2.969 1.18-3.796.308-.923 1.334-1.538 1.334-1.538z" fill="#FFDC5D" ts:skin="skin"/>
	<!-- hair -->
	<use href="defs.svg#hair_male" x="21" y="3.48" fill="#FFAC33" ts:skin="hair" ts:gender="male"/>
	<path d="M10.669 19c-.021-1-.044-.224-.044-.465 0-3.422 2.053.494 2.053-1.943 0-2.439 1.368-2.683 2.736-4.051.685-.685 2.053-2.026 2.053-2.026s3.421 2.067 6.158 2.067c2.736 0 5.474 1.375 5.474 4.112 0 2.736 2.053-1.584 2.053 1.837 0 .244-.022-.531-.04.469h.719c.006-2 .006-1.924.006-3.202 0-8.895-6.842-11.672-10.948-11.672-4.104 0-10.947 2.722-10.947 11.617 0 .793-.02 1.257.008 3.257h.719z" fill="#FFAC33" ts:skin="hair" ts:gender="female"/> <!-- nonstandard -->
	<!-- eyes -->
	<rect x="17" y="14" width="2" height="3" rx="1" fill="#662113" ts:skin="eyes2" ts:gender="neutral"/><rect x="25" y="14" width="2" height="3" rx="1" fill="#662113" ts:skin="eyes2" ts:gender="neutral"/>
	<use href="defs.svg#eyes_male" x="21.002" y="15.5" fill="#662113" ts:skin="eyes" ts:gender="male"/>
	<rect x="16.706" y="15.349" width="1.693" height="2.538" rx="0.8465" fill="#662113" ts:skin="eyes2" ts:gender="female"/><rect x="23.471" y="15.349" width="1.692" height="2.538" rx="0.84625" fill="#662113" ts:skin="eyes2" ts:gender="female"/>
	<!-- nose -->
	<rect x="20.5" y="19.5" width="3" height="1" rx="0.5" fill="#C1694F" ts:skin="nose" ts:gender="neutral"/> <!-- different-->
	<use href="defs.svg#nose_male2" x="21.002" y="19.0" fill="#C1694F" ts:skin="nose" ts:gender="male"/>
	<use href="defs.svg#nose_female2" x="20.9355" y="20.0" fill="#C1694F" ts:skin="nose" ts:gender="female"/>
	<!-- mouth -->
	<use href="defs.svg#mouth_neutral" x="22.002" y="23.802" fill="#C1694F" ts:skin="nose" ts:gender="neutral"/>
	<use href="defs.svg#mouth_neutral" x="21.002" y="23.802" fill="#C1694F" ts:skin="nose" ts:gender="male"/>
	<use href="defs.svg#mouth_female" x="20.889" y="23.543" fill="#DF1F32" ts:gender="female"/>
	<!-- movement lines -->
	<path d="M6.103 20.705c-.048 0-.097-.007-.146-.021-2.429-.74-2.859-3.564-2.876-3.684-.039-.273.15-.525.423-.565.272-.038.526.149.566.422.003.023.362 2.316 2.178 2.869.264.081.413.36.333.624-.066.216-.264.355-.478.355z M5.026,22.717 c-.049 0-.099-.007-.148-.022C1.321 21.593.366 17.586.327 17.416c-.062-.269.106-.537.375-.599.271-.062.537.106.6.375.008.036.872 3.618 3.873 4.548.264.082.411.361.33.625-.067.214-.265.352-.479.352z" fill="#5DADEC"/>
</svg>
