<svg viewBox="0 0 36 36" xmlns="http://www.w3.org/2000/svg" xmlns:ts="data:,a">
	<!-- back hair -->
	<path d="M8.942 14.044c.233-.338.379-.775.379-1.259 0-1.061-.679-1.922-1.516-1.922s-1.516.86-1.516 1.922c0 .878.467 1.61 1.101 1.84-.234.732-2.749 7.872-1.507 10.395s10.546 1.451 11.242.314c-.534-2.03-7.658-8.056-8.183-11.29z " ts:skin="hair" ts:gender="female"/>
	<path d="M27.056,14.044 c-.233-.338-.379-.775-.379-1.259 0-1.061.679-1.922 1.516-1.922s1.516.86 1.516 1.922c0 .878-.467 1.61-1.101 1.84.234.732 2.749 7.872 1.507 10.395s-10.546 1.451-11.242.314c.534-2.03 7.658-8.056 8.183-11.29z" ts:skin="hair" ts:gender="female"/>
	
	<path d="M33 36v-1c0-3.313-2.687-6-6-6H9c-3.313 0-6 2.687-6 6v1h30z " fill="#66757F"/>
	<path d="M9.255 20.435c-1.188.208-2.619.129-2.416.917.479 1.854 2.604 1.167 2.979 1.188.375.02-.563-2.105-.563-2.105z" fill="#66757F"/>
	<path d="M26.75,20.435 c1.188.208 2.619.129 2.416.917-.479 1.854-2.604 1.167-2.979 1.188-.375.02.563-2.105.563-2.105z" fill="#66757F"/>
	<path d="M8.943 20.645c-1.875.25-2.541.416-1.166.958.772.305 2.243 4.803 3.331 4.118 1.088-.685-2.165-5.076-2.165-5.076z" fill="#292F33"/>
	<path d="M27.062 20.645c1.875.25 2.541.416 1.166.958-.772.305-2.243 4.803-3.331 4.118-1.087-.685 2.165-5.076 2.165-5.076z" fill="#292F33"/>
	<!-- hair -->
	<path d="M21.771 4.017c-1.958-.634-6.566-.461-7.718 1.037-2.995.058-6.508 2.764-6.969 6.335-.456 3.534.56 5.175.922 7.833.409 3.011 2.102 3.974 3.456 4.377 1.947 2.572 4.017 2.462 7.492 2.462 6.787 0 10.019-4.541 10.305-12.253.172-4.665-2.565-8.198-7.488-9.791z" ts:skin="hair" ts:gender="neutral"/>
	<path d="M8.055 11.031c-1.953 0-2.305 3.164-.664 3.594 0 0-1.367 3.32 1.953 3.32-.547-1.68-1.562-4.414-.781-6.406m19.38-.508c1.953 0 2.305 3.164.664 3.594 0 0 1.367 3.32-1.953 3.32.547-1.68 1.562-4.414.781-6.406" ts:skin="hair" ts:gender="male"/>
	<!-- face -->
	<path d="M25.652 14.137c-.657-.909-1.497-1.641-3.34-1.901.691.317 1.353 1.411 1.44 2.016.086.605.173 1.094-.374.49-2.192-2.423-4.579-1.469-6.944-2.949-1.652-1.034-2.155-2.177-2.155-2.177s-.202 1.526-2.707 3.081c-.726.451-1.593 1.455-2.073 2.937-.346 1.066-.238 2.016-.238 3.64 0 4.74 3.906 8.726 8.726 8.726s8.726-4.02 8.726-8.726c-.004-2.948-.312-4.1-1.061-5.137z" ts:skin="skin" ts:gender="neutral"/>
	<ellipse cx="18" cy="15.5" ts:skin="skin" rx="10" ry="12.5" ts:gender="male,female"/>
	<!-- nose -->
	<rect x="16.531" y="20.428" width="2.885" height="1.137" rx="0.4815" ts:skin="nose" ts:gender="neutral"/>
	<rect x="17" y="20" width="2" height="1" rx="0.5" ts:skin="nose" ts:gender="male,female"/>
	<!-- -->
	<path d="M7.657 14.788c.148.147.888.591 1.036 1.034.148.443.445 2.954 1.333 3.693.916.762 4.37.478 5.032.149 1.48-.738 1.662-2.798 1.924-3.842.148-.591 1.036-.591 1.036-.591s.888 0 1.036.591c.262 1.044.444 3.104 1.924 3.841.662.33 4.116.614 5.034-.147.887-.739 1.183-3.25 1.331-3.694.146-.443.888-.886 1.035-1.034.148-.148.148-.739 0-.887-.296-.295-3.788-.559-7.548-.148-.75.082-1.035.295-2.812.295-1.776 0-2.062-.214-2.812-.295-3.759-.411-7.252-.148-7.548.148-.149.148-.149.74-.001.887z" fill="#292F33"/>
	<path d="M7.989,21.103 c-.354.145 2.921 1.378 7.48 1.458 4.771.084 6.234.39 5.146 1.459-1.146 1.125-.852 2.894-.771 3.418.081.524 2.047 1.916 2.208 2.56.161.645-1.229 5.961-1.229 5.961l-8.729-.252c-2.565-8.844-2.883-8.501-4.105-13.604-.241-1.008 0-1 0-1z" fill="#292F33"/>
	<path d="M6.989 21.144c-.354.146 2.921 1.378 7.48 1.458 4.771.084 6.234.39 5.146 1.459L19.822 36l-8.729-.252c-2.565-8.844-2.883-8.501-4.105-13.604-.24-1.008.001-1 .001-1z" fill="#66757F"/>
	<path d="M7.858 8.395S9.217-.506 13.79.023c3.512.406 4.89.825 7.833.097 1.947-.482 4.065 1.136 5.342 4.379.816 2.068 1.224 4.041 1.224 4.041s3.938-.385 4.165 1.732c.228 2.117-4.354 4.716-15.889 4.716C10 14.987 3.33 12.63 3.013 10.657c-.317-1.973 4.845-2.262 4.845-2.262z" fill="#66757F"/>
	<path d="M8.125 7.15s-.27 1.104-.406 1.871c-.136.768.226 1.296 2.705 1.824 3.287.7 10.679.692 15.058-.383 1.759-.432 2.886-.72 2.751-1.583-.167-1.068-.196-1.066-.541-2.208 0 0-1.477.502-3.427.96-2.66.624-9.964.911-13.481.144-1.874-.41-2.659-.625-2.659-.625z " fill="#292F33"/>
	<path d="M28.052 21.103c.354.145-2.921 1.378-7.479 1.458-4.771.084-6.234.39-5.146 1.459 1.146 1.125 2.976 2.892 2.896 3.416-.081.524-4.172 1.918-4.333 2.562-.161.645 1.229 5.961 1.229 5.961l8.729-.252c2.565-8.844 2.883-8.501 4.104-13.604.241-1.008 0-1 0-1z" fill="#292F33"/>
	<path d="M28.958 21.103c.354.145-2.921 1.378-7.479 1.458-4.771.084-6.234.39-5.146 1.459 1.146 1.125 2.977 2.892 2.896 3.416-.081.524-4.172 1.918-4.333 2.562-.161.645 1.229 5.961 1.229 5.961l8.657.01c2.565-8.844 2.955-8.763 4.177-13.866.24-1.008-.001-1-.001-1z" fill="#66757F"/>
</svg>
