<svg viewBox="0 0 36 36" xmlns="http://www.w3.org/2000/svg" xmlns:ts="data:,a">
	<!-- hair color is very messed up here -->
	
	<ellipse cx="18" cy="4.5" rx="4" ry="3.5" ts:skin="eyes" ts:gender="female"/>
	<ellipse cx="18" cy="6" rx="4" ry="3" fill="#EA596E" ts:gender="female"/>
	<!-- back hair -->
	<path d="M 18,4 c -5,0 -10,3 -10,9 v 1 S7 28 7 33 h22 c0-5-1-19-1-19 v -1 c 0,-6 -5,-9 -10,-9 Z" ts:skin="eyes"/>
	<use href="defs.svg#hair_neutral1" transform="translate(17.876 27.094) scale(0.953)" ts:skin="eyes" ts:gender="neutral"/>
	<!-- body -->
	<path d="M32 36v-1.64c0-3.313-2.687-6.36-6-6.36H10c-3.313 0-6 3.046-6 6.36V36h28z" fill="#FA743E" ts:gender="neutral"/>
	<use href="defs.svg#shoulders_male" x="18" fill="#3B88C3" ts:gender="male"/>
	<path d="M32 36v-1c0-3.313-3.687-7-7-7H11c-3.313 0-7 3.687-7 7v1h28z" fill="#5C913B" ts:gender="female"/>
	<!-- neck -->
	<path d="M 17.867,31.585 c -2.075,0 -4.36,-3.59 -4.36,-3.59 v -3.139 h 8.72 v 3.139 s -2.285,3.59 -4.36,3.59 Z" ts:skin="skin" ts:gender="neutral"/>
	<path d="M 18,30.063 c -1.512,0 -2.616,-0.695 -4.36,-1.962 v -3.811 h 8.72 v 3.811 c -1.744,1.266 -2.848,1.962 -4.36,1.962 Z" ts:skin="skin" ts:gender="male"/>
	<path d="M 18,35 s -2.616,-5.632 -4.36,-6.899 v -3.811 h 8.72 v 3.811 c -1.744,1.266 -4.36,6.899 -4.36,6.899 Z" ts:skin="skin" ts:gender="female"/>
	<!-- neck shadow -->
	<path d="M 17.863,27.497 c -1.788,0 -3.031,-0.296 -4.356,-1.473 v -3.427 h 8.72 v 3.427 c -1.326,1.177 -2.578,1.473 -4.364,1.473 Z" ts:skin="dark" ts:gender="neutral"/>
	<use href="defs.svg#neck_shadow_male" x="18" y="27.719" ts:skin="dark" ts:gender="male"/>
	<path d="M 18,28 c -1.64,0 -3.148,-0.653 -4.364,-2.027 v -3.491 h 8.728 v 3.491 c -1.217,1.373 -2.725,2.027 -4.364,2.027 Z" ts:skin="dark" ts:gender="female"/>
	<!-- face -->
	<use href="defs.svg#face_neutral1" transform="translate(17.876 27.094) scale(0.953)" ts:skin="skin" ts:gender="neutral"/>
	<ellipse cx="18" cy="16.96" rx="8.522" ry="10.1205" ts:skin="skin" ts:gender="male"/>
	<path d="M10 15c0-5.589 3.293-8.879 8-8.879s8 3.29 8 8.879c0 8-5 12-8 12s-8-4-8-12z" ts:skin="skin" ts:gender="female"/>
	<!-- ears -->
	<path d="M8 14.227l1.868 1.772s1.192 3.259 0 3.83C7.204 21.105 5 14.545 5 13.268c0-.958 3 .959 3 .959z M27.397,14.227 l-1.868 1.772s-1.192 3.259 0 3.83C28.194 21.105 31 14.545 31 13.268c0-.958-3.603.959-3.603.959z" ts:skin="skin" ts:gender="neutral"/>
	<path d="M8 14.28l1.868 1.849s1.192 3.401 0 3.997C7.204 21.457 5 14.612 5 13.28c0-1 3 1 3 1z M27.397,14.28 l-1.868 1.849s-1.192 3.401 0 3.997C28.194 21.457 31 14.612 31 13.28c0-1-3.603 1-3.603 1z" ts:skin="skin" ts:gender="male"/>
	<path d="M8.11 14.073l1.936 1.849s.973 3.051 0 3.997C9.147 20.793 5 14.405 5 13.073c0-1 3.11 1 3.11 1z M27.568,14.073 l-1.779 1.849s-.602 2.823 0 3.997c.448.874 5.211-5.514 5.211-6.846 0-1-3.432 1-3.432 1z" ts:skin="skin" ts:gender="female"/>
	<!-- eyes -->
	<use href="defs.svg#eyes_neutral" x="17.867" y="16.1345" ts:skin="eyes2" ts:gender="neutral"/>
	<use href="defs.svg#eyes_male" x="18" y="15.5" ts:skin="eyes2" ts:gender="male"/>
	<rect x="13.65" y="15.25" width="1.7" height="2.5" rx="0.85" ts:skin="eyes2" ts:gender="female"/><rect x="20.65" y="15.25" width="1.7" height="2.5" rx="0.85" ts:skin="eyes2" ts:gender="female"/> <!-- this is nicer -->
	<!-- nose -->
	<use href="defs.svg#nose_neutral" x="17.867" y="20.423" ts:skin="nose" ts:gender="neutral"/>
	<use href="defs.svg#nose_male" x="18.0" y="19.0" ts:skin="nose" ts:gender="male"/>
	<rect x="16.75" y="20" width="2.5" height="1.2" rx="0.6" ts:skin="nose" ts:gender="female"/>
	<!-- mouth -->
	<use href="defs.svg#mouth_neutral" x="17.993" y="24.88" ts:skin="nose" ts:gender="neutral"/>
	<use href="defs.svg#mouth_neutral" x="18" y="23.802" ts:skin="nose" ts:gender="male"/>
	<path d="M18 24.339c-1.256 0-2.353-.361-2.933-.968-.229-.239-.221-.619.018-.849.239-.229.619-.221.848.019.348.363 1.159.598 2.067.598.907 0 1.719-.234 2.066-.598.229-.24.608-.249.849-.019.239.229.247.609.019.849-.581.607-1.678.968-2.934.968z" ts:skin="mouth" ts:gender="female"/> <!-- small -->
	<!-- hair -->
	<path d="M  9,12.467 L 8,36 h 4 s-2.627,-21.017 -1,-23.533 c 0.698,-1.08 -2,0 -2,0 Z" ts:skin="eyes" ts:gender="neutral"/> <!-- slightly longer to align with different hairstyle -->
	<path d="M  9,13 l-1,23 h 4 s-2.627,-20.484 -1,-23 c 0.698,-1.08 -2,0 -2,0 Z" ts:skin="eyes" ts:gender="male,female"/>
	<path d="M 27,13 l 1,23 h-4 s 2.627,-20.484  1,-23 c-0.698,-1.08  2,0  2,0 Z" ts:skin="eyes"/>
	
	<path d="M18 4c-5 0-9 3-9 9s1.553.894 2 0c2-4 5-3 7-3s5-1 7 3c.447.894 2 6 2 0s-4-9-9-9z" ts:skin="eyes" ts:gender="male"/>
	<path d="M18 4c-5 0-9 3-9 9s1.445.832 2 0c2-3 5-1 7-1s5-2 7 1c.555.832 2 6 2 0s-4-9-9-9z" ts:skin="eyes" ts:gender="female"/>
	<path d="M18 7c4 0 8 2 8 4 0 0-2-3-8-3s-8 3-8 3 1-4 8-4z" fill="#EA596E" ts:gender="female"/>
</svg>
