<svg viewBox="0 0 36 36" xmlns="http://www.w3.org/2000/svg" xmlns:ts="data:,a">
	<!-- hair color is very messed up here -->
	
	<ellipse cx="18" cy="4.5" fill="#662113" ts:skin="eyes" rx="4" ry="3.5" ts:gender="female"/>
	<ellipse cx="18" cy="6" fill="#EA596E" rx="4" ry="3" ts:gender="female"/>
	<!-- back hair -->
	<path d="M8 14l10-1v20h-11c0-5 1-19 1-19zm20 0s1 14 1 19H18V13l10 1z" fill="#662113" ts:skin="eyes" ts:gender="male,female"/>
	<path d="M18 12c-2 0-5-3-7 1-.447.894-3 6-3 0s5-9 10-9v8zm0 0V4c5 0 10 3 10 9s-2.553.894-3 0c-2-4-5-1-7-1z" fill="#662113" ts:skin="eyes" ts:gender="male,female"/>
	<path d="M28 14H8S7 28 7 33h22c0-5-1-19-1-19z" fill="#662113" ts:gender="neutral"/>
	<path d="M21.597 3.516c-1.925-.623-6.455-.453-7.588 1.019-2.944.057-6.398 2.718-6.851 6.228-.448 3.475.551 5.088.906 7.701.403 2.96 2.067 3.907 3.397 4.303 1.914 2.529 3.949 2.421 7.366 2.421 6.672 0 9.85-4.464 10.131-12.047.17-4.585-2.521-8.059-7.361-9.625z" fill="#662113" ts:gender="neutral"/>
	<!-- -->
	<path d="M32 36v-1.64c0-3.313-2.687-6.36-6-6.36H10c-3.313 0-6 3.046-6 6.36V36h28z" fill="#FA743E" ts:gender="neutral"/>
	<path d="M32 36v-2c0-3.313-2.687-6-6-6H10c-3.313 0-6 2.687-6 6v2h28z" fill="#3B88C3" ts:gender="male"/>
	<path d="M32 36v-1c0-3.313-3.687-7-7-7H11c-3.313 0-7 3.687-7 7v1h28z" fill="#5C913B" ts:gender="female"/>
	<!-- neck -->
	<path d="M13.507 27.995s2.285 3.59 4.36 3.59 4.36-3.59 4.36-3.59v-3.139h-8.72v3.139z" fill="#FFDC5D" ts:skin="skin" ts:gender="neutral"/>
	<path d="M13.64 28.101c1.744 1.267 2.848 1.962 4.36 1.962 1.511 0 2.616-.696 4.36-1.962V24.29h-8.72v3.811z" fill="#FFDC5D" ts:skin="skin" ts:gender="male"/>
	<path d="M13.64 28.101C15.384 29.368 18 35 18 35s2.616-5.633 4.36-6.899V24.29h-8.72v3.811z" fill="#FFDC5D" ts:skin="skin" ts:gender="female"/>
	<!-- neck shadow -->
	<path d="M13.507 26.024c1.325 1.177 2.568 1.473 4.356 1.473 1.786 0 3.038-.296 4.364-1.473v-3.427h-8.72v3.427z" fill="#F9CA55" ts:skin="dark" ts:gender="neutral"/>
	<path d="M13.632 25.973c1.216 1.374 2.724 1.746 4.364 1.746 1.639 0 3.147-.372 4.364-1.746v-3.491h-8.728v3.491z" fill="#F9CA55" ts:skin="dark" ts:gender="male"/>
	<path d="M13.632 25.973C14.848 27.347 16.356 28 17.996 28c1.639 0 3.147-.654 4.364-2.027v-3.491h-8.728v3.491z" fill="#F9CA55" ts:skin="dark" ts:gender="female"/>
	<!-- face -->
	<use href="defs.svg#face_neutral" x="25.413" y="13.466" fill="#FFDC5D" ts:skin="skin" ts:gender="neutral"/>
	<ellipse cx="18" cy="16.96" rx="8.522" ry="10.1205" fill="#FFDC5D" ts:skin="skin" ts:gender="male"/>
	<path d="M10 15c0-5.589 3.293-8.879 8-8.879s8 3.29 8 8.879c0 8-5 12-8 12s-8-4-8-12z" fill="#FFDC5D" ts:skin="skin" ts:gender="female"/>
	<!-- ears -->
	<path d="M8 14.227l1.868 1.772s1.192 3.259 0 3.83C7.204 21.105 5 14.545 5 13.268c0-.958 3 .959 3 .959z M27.397,14.227 l-1.868 1.772s-1.192 3.259 0 3.83C28.194 21.105 31 14.545 31 13.268c0-.958-3.603.959-3.603.959z" fill="#FFDC5D" ts:skin="skin" ts:gender="neutral"/>
	<path d="M8 14.28l1.868 1.849s1.192 3.401 0 3.997C7.204 21.457 5 14.612 5 13.28c0-1 3 1 3 1z M27.397,14.28 l-1.868 1.849s-1.192 3.401 0 3.997C28.194 21.457 31 14.612 31 13.28c0-1-3.603 1-3.603 1z" fill="#FFDC5D" ts:skin="skin" ts:gender="male"/>
	<path d="M8.11 14.073l1.936 1.849s.973 3.051 0 3.997C9.147 20.793 5 14.405 5 13.073c0-1 3.11 1 3.11 1z M27.568,14.073 l-1.779 1.849s-.602 2.823 0 3.997c.448.874 5.211-5.514 5.211-6.846 0-1-3.432 1-3.432 1z" fill="#FFDC5D" ts:skin="skin" ts:gender="female"/>
	<!-- eyes -->
	<rect x="13.101" y="14.705" width="1.906" height="2.859" rx="0.953" fill="#662113" ts:skin="eyes2" ts:gender="neutral"/><rect x="20.727" y="14.705" width="1.906" height="2.859" rx="0.953" fill="#662113" ts:skin="eyes2" ts:gender="neutral"/>
	<rect x="13" y="14" width="2" height="3" rx="1" fill="#662113" ts:skin="eyes2" ts:gender="male"/><rect x="21" y="14" width="2" height="3" rx="1" fill="#662113" ts:skin="eyes2" ts:gender="male"/>
	<rect x="13.65" y="15.25" width="1.7" height="2.5" rx="0.85" fill="#662113" ts:skin="eyes2" ts:gender="female"/><rect x="20.65" y="15.25" width="1.7" height="2.5" rx="0.85" fill="#662113" ts:skin="eyes2" ts:gender="female"/>
	<!-- nose -->
	<use href="defs.svg#nose_neutral" x="16.437" y="19.946" fill="#C1694F" ts:skin="nose" ts:gender="neutral"/>
	<use href="defs.svg#nose_male" x="16.5" y="18.25" fill="#C1694F" ts:skin="nose" ts:gender="male"/>
	<rect x="16.75" y="20" width="2.5" height="1.2" rx="0.6" fill="#C1694F" ts:skin="nose" ts:gender="female"/>
	<!-- mouth -->
	<use href="defs.svg#mouth_neutral" x="17.993" y="24.88" fill="#C1694F" ts:skin="nose" ts:gender="neutral"/>
	<use href="defs.svg#mouth_neutral" x="18" y="23.802" fill="#C1694F" ts:skin="nose" ts:gender="male"/>
	<path d="M18 24.339c-1.256 0-2.353-.361-2.933-.968-.229-.239-.221-.619.018-.849.239-.229.619-.221.848.019.348.363 1.159.598 2.067.598.907 0 1.719-.234 2.066-.598.229-.24.608-.249.849-.019.239.229.247.609.019.849-.581.607-1.678.968-2.934.968z" fill="#DF1F32" ts:gender="female"/> <!-- small -->
	<!-- hair -->
	<path d="M9 12.467L8 36h4s-2.627-21.017-1-23.533c.698-1.08-2 0-2 0z" fill="#662113" ts:gender="neutral"/>
	<path d="M9 13L8 36h4s-2.627-20.484-1-23c.698-1.08-2 0-2 0z " fill="#662113" ts:skin="eyes" ts:gender="male,female"/>
	<path d="M27.058 13l1 23H24s2.685-20.484 1.058-23c-.698-1.08 2 0 2 0z" fill="#662113" ts:gender="neutral"/>
	<path d="M27.058 13l1 23H24s2.685-20.484 1.058-23c-.698-1.08 2 0 2 0z" fill="#662113" ts:skin="eyes" ts:gender="male"/>
	<path d="M26.985,13 l.986 23h-4s2.646-20.484 1.043-23c-.688-1.08 1.971 0 1.971 0z" fill="#662113" ts:skin="eyes" ts:gender="female"/>
	<path d="M18 4c-5 0-9 3-9 9s1.553.894 2 0c2-4 5-3 7-3s5-1 7 3c.447.894 2 6 2 0s-4-9-9-9z" fill="#662113" ts:skin="eyes" ts:gender="male"/>
	<path d="M18 4c-5 0-9 3-9 9s1.445.832 2 0c2-3 5-1 7-1s5-2 7 1c.555.832 2 6 2 0s-4-9-9-9z" fill="#662113" ts:skin="eyes" ts:gender="female"/>
	<path d="M18 7c4 0 8 2 8 4 0 0-2-3-8-3s-8 3-8 3 1-4 8-4z" fill="#EA596E" ts:gender="female"/>
</svg>
