<svg viewBox="0 0 36 36" xmlns="http://www.w3.org/2000/svg">
	<ellipse cx="18" cy="4.5" fill="#662113" data-skin="#662113|#662113|#662113|#60352A|#0B0200" rx="4" ry="3.5" data-gender="female"/>
	<ellipse cx="18" cy="6" fill="#EA596E" rx="4" ry="3" data-gender="female"/>
	<!-- back hair -->
	<path d="M8 14l10-1v20h-11c0-5 1-19 1-19zm20 0s1 14 1 19H18V13l10 1z" fill="#662113" data-skin="#662113|#662113|#662113|#60352A|#0B0200" data-gender="male,female"/>
	<path d="M18 12c-2 0-5-3-7 1-.447.894-3 6-3 0s5-9 10-9v8zm0 0V4c5 0 10 3 10 9s-2.553.894-3 0c-2-4-5-1-7-1z" fill="#662113" data-skin="#662113|#662113|#662113|#60352A|#0B0200" data-gender="male,female"/>
	<path d="M28 14H8S7 28 7 33h22c0-5-1-19-1-19z" fill="#662113" data-gender="neutral"/>
	<path d="M21.597 3.516c-1.925-.623-6.455-.453-7.588 1.019-2.944.057-6.398 2.718-6.851 6.228-.448 3.475.551 5.088.906 7.701.403 2.96 2.067 3.907 3.397 4.303 1.914 2.529 3.949 2.421 7.366 2.421 6.672 0 9.85-4.464 10.131-12.047.17-4.585-2.521-8.059-7.361-9.625z" fill="#662113" data-gender="neutral"/>
	<!-- -->
	<path d="M32 36v-1.64c0-3.313-2.687-6.36-6-6.36H10c-3.313 0-6 3.046-6 6.36V36h28z" fill="#FA743E" data-gender="neutral"/>
	<path d="M32 36v-2c0-3.313-2.687-6-6-6H10c-3.313 0-6 2.687-6 6v2h28z" fill="#3B88C3" data-gender="male"/>
	<path d="M32 36v-1c0-3.313-3.687-7-7-7H11c-3.313 0-7 3.687-7 7v1h28z" fill="#5C913B" data-gender="female"/>
	<path d="M13.507 27.995s2.285 3.59 4.36 3.59 4.36-3.59 4.36-3.59v-3.139h-8.72v3.139z" fill="#FFDC5D" data-skin="#F7DECE|#F3D2A2|#D4AB88|#AF7E57|#7C533E" data-gender="neutral"/>
	<path d="M13.64 28.101c1.744 1.267 2.848 1.962 4.36 1.962 1.511 0 2.616-.696 4.36-1.962V24.29h-8.72v3.811z" fill="#FFDC5D" data-skin="#F7DECE|#F3D2A2|#D5AB88|#AF7E57|#7C533E" data-gender="male"/>
	<path d="M13.64 28.101C15.384 29.368 18 35 18 35s2.616-5.633 4.36-6.899V24.29h-8.72v3.811z" fill="#FFDC5D" data-skin="#F7DECE|#F3D2A2|#D5AB88|#AF7E57|#7C533E" data-gender="female"/>
	<path d="M13.507 26.024c1.325 1.177 2.568 1.473 4.356 1.473 1.786 0 3.038-.296 4.364-1.473v-3.427h-8.72v3.427z" fill="#F9CA55" data-skin="#EEC2AD|#E2C196|#CC9B7A|#9B6A49|#664131" data-gender="neutral"/>
	<path d="M13.632 25.973c1.216 1.374 2.724 1.746 4.364 1.746 1.639 0 3.147-.372 4.364-1.746v-3.491h-8.728v3.491z" fill="#F9CA55" data-skin="#EEC2AD|#E2C196|#CC9B7A|#9B6A49|#664131" data-gender="male"/>
	<path d="M13.632 25.973C14.848 27.347 16.356 28 17.996 28c1.639 0 3.147-.654 4.364-2.027v-3.491h-8.728v3.491z" fill="#F9CA55" data-skin="#EEC2AD|#E2C196|#CC9B7A|#9B6A49|#664131" data-gender="female"/>
	<path d="M25.413 13.466c-.646-.894-1.472-1.614-3.284-1.868.68.311 1.331 1.387 1.416 1.982.085.595.17 1.076-.368.481-2.155-2.382-4.502-1.444-6.827-2.899-1.624-1.016-2.119-2.141-2.119-2.141s-.198 1.5-2.661 3.029c-.714.443-1.566 1.43-2.038 2.888-.34 1.048-.234 1.982-.234 3.578 0 4.66 3.841 8.578 8.578 8.578s8.578-3.953 8.578-8.578c-.001-2.898-.305-4.03-1.041-5.05z" fill="#FFDC5D" data-skin="#F7DECE|#F3D2A2|#D4AB88|#AF7E57|#7C533E" data-gender="neutral"/>
	<path d="M9.478 16.96c0-5.589 3.816-10.121 8.522-10.121s8.522 4.531 8.522 10.121c0 5.589-3.816 10.12-8.522 10.12s-8.522-4.531-8.522-10.12z" fill="#FFDC5D" data-skin="#F7DECE|#F3D2A2|#D5AB88|#AF7E57|#7C533E" data-gender="male"/>
	<path d="M10 15c0-5.589 3.293-8.879 8-8.879s8 3.29 8 8.879c0 8-5 12-8 12s-8-4-8-12z" fill="#FFDC5D" data-skin="#F7DECE|#F3D2A2|#D5AB88|#AF7E57|#7C533E" data-gender="female"/>
	<!-- ears -->
	<path d="M8 14.227l1.868 1.772s1.192 3.259 0 3.83C7.204 21.105 5 14.545 5 13.268c0-.958 3 .959 3 .959z M27.397,14.227 l-1.868 1.772s-1.192 3.259 0 3.83C28.194 21.105 31 14.545 31 13.268c0-.958-3.603.959-3.603.959z" fill="#FFDC5D" data-skin="#F7DECE|#F3D2A2|#D4AB88|#AF7E57|#7C533E" data-gender="neutral"/>
	<path d="M8 14.28l1.868 1.849s1.192 3.401 0 3.997C7.204 21.457 5 14.612 5 13.28c0-1 3 1 3 1z M27.397,14.28 l-1.868 1.849s-1.192 3.401 0 3.997C28.194 21.457 31 14.612 31 13.28c0-1-3.603 1-3.603 1z" fill="#FFDC5D" data-skin="#F7DECE|#F3D2A2|#D5AB88|#AF7E57|#7C533E" data-gender="male"/>
	<path d="M8.11 14.073l1.936 1.849s.973 3.051 0 3.997C9.147 20.793 5 14.405 5 13.073c0-1 3.11 1 3.11 1z M27.568,14.073 l-1.779 1.849s-.602 2.823 0 3.997c.448.874 5.211-5.514 5.211-6.846 0-1-3.432 1-3.432 1z" fill="#FFDC5D" data-skin="#F7DECE|#F3D2A2|#D5AB88|#AF7E57|#7C533E" data-gender="female"/>
	<!-- -->
	<path d="M17.993 24.88c-2.754 0-3.6-.705-3.741-.848-.256-.256-.256-.671 0-.927.248-.248.645-.255.902-.023.052.037.721.487 2.839.487 2.2 0 2.836-.485 2.842-.49.256-.255.657-.243.913.015.256.256.242.683-.014.938-.142.143-.987.848-3.741.848" fill="#C1694F" data-skin="#C1694F|#C1694F|#C1694F|#915A34|#3D2E24" data-gender="neutral"/>
	<path d="M18 23.802c-2.754 0-3.6-.706-3.741-.848-.256-.256-.256-.671 0-.927.248-.248.645-.255.902-.024.052.038.721.487 2.839.487 2.2 0 2.836-.485 2.842-.49.255-.255.656-.243.913.013.256.256.242.684-.014.94-.141.143-.987.849-3.741.849z" fill="#C1694F" data-skin="#C1694F|#C1694F|#C1694F|#915A34|#3D2E24" data-gender="male"/>
	<path d="M18 24.339c-1.256 0-2.353-.361-2.933-.968-.229-.239-.221-.619.018-.849.239-.229.619-.221.848.019.348.363 1.159.598 2.067.598.907 0 1.719-.234 2.066-.598.229-.24.608-.249.849-.019.239.229.247.609.019.849-.581.607-1.678.968-2.934.968z" fill="#DF1F32" data-gender="female"/>
	<path d="M18.82 20.9h-1.906c-.263 0-.477-.213-.477-.477 0-.263.213-.477.477-.477h1.906c.263 0 .477.213.477.477s-.213.477-.477.477z" fill="#C1694F" data-skin="#C1694F|#C1694F|#C1694F|#915A34|#3D2E24" data-gender="neutral"/>
	<path d="M18.75 19.75h-1.5c-.413 0-.75-.337-.75-.75s.337-.75.75-.75h1.5c.413 0 .75.337.75.75s-.337.75-.75.75z" fill="#C1694F" data-skin="#C1694F|#C1694F|#C1694F|#915A34|#3D2E24" data-gender="male"/>
	<path d="M18.65 21.2h-1.3c-.33 0-.6-.27-.6-.6 0-.33.27-.6.6-.6h1.3c.33 0 .6.27.6.6 0 .33-.27.6-.6.6z" fill="#C1694F" data-skin="#C1694F|#C1694F|#C1694F|#915A34|#3D2E24" data-gender="female"/>
	<path d="M14.054 17.564c-.526 0-.953-.427-.953-.953v-.953c0-.526.427-.953.953-.953s.953.427.953.953v.953c.001.526-.426.953-.953.953z " fill="#662113" data-skin="#662113|#662113|#662113|#662113|#000000" data-gender="neutral"/>
	<path d="M21.68,17.564 c-.526 0-.953-.427-.953-.953v-.953c0-.526.427-.953.953-.953s.953.427.953.953v.953c0 .526-.427.953-.953.953z" fill="#662113" data-skin="#662113|#662113|#662113|#662113|#000000" data-gender="neutral"/>
	<path d="M14 17c-.55 0-1-.45-1-1v-1c0-.55.45-1 1-1s1 .45 1 1v1c0 .55-.45 1-1 1z " fill="#662113" data-skin="#662113|#662113|#662113|#662113|#000000" data-gender="male"/>
	<path d="M22,17 c-.55 0-1-.45-1-1v-1c0-.55.45-1 1-1s1 .45 1 1v1c0 .55-.45 1-1 1z" fill="#662113" data-skin="#662113|#662113|#662113|#662113|#000000" data-gender="male"/>
	<path d="M14.5 17.75c-.468 0-.85-.382-.85-.85v-.8c0-.467.382-.85.85-.85.467 0 .85.382.85.85v.8c0 .468-.382.85-.85.85z " fill="#662113" data-skin="#662113|#662113|#662113|#662113|#000000" data-gender="female"/>
	<path d="M21.5,17.75 c-.468 0-.85-.382-.85-.85v-.8c0-.467.382-.85.85-.85.468 0 .85.382.85.85v.8c0 .468-.382.85-.85.85z" fill="#662113" data-skin="#662113|#662113|#662113|#662113|#000000" data-gender="female"/>
	<path d="M9 12.467L8 36h4s-2.627-21.017-1-23.533c.698-1.08-2 0-2 0z" fill="#662113" data-gender="neutral"/>
	<path d="M9 13L8 36h4s-2.627-20.484-1-23c.698-1.08-2 0-2 0z " fill="#662113" data-skin="#662113|#662113|#662113|#60352A|#0B0200" data-gender="male,female"/>
	<path d="M27.058 13l1 23H24s2.685-20.484 1.058-23c-.698-1.08 2 0 2 0z" fill="#662113" data-gender="neutral"/>
	<path d="M27.058 13l1 23H24s2.685-20.484 1.058-23c-.698-1.08 2 0 2 0z" fill="#662113" data-skin="#662113|#662113|#662113|#60352A|#0B0200" data-gender="male"/>
	
	
	<path d="M26.985,13 l.986 23h-4s2.646-20.484 1.043-23c-.688-1.08 1.971 0 1.971 0z" fill="#662113" data-skin="#662113|#662113|#662113|#60352A|#0B0200" data-gender="female"/>
	<path d="M18 4c-5 0-9 3-9 9s1.553.894 2 0c2-4 5-3 7-3s5-1 7 3c.447.894 2 6 2 0s-4-9-9-9z" fill="#662113" data-skin="#662113|#662113|#662113|#60352A|#0B0200" data-gender="male"/>
	<path d="M18 4c-5 0-9 3-9 9s1.445.832 2 0c2-3 5-1 7-1s5-2 7 1c.555.832 2 6 2 0s-4-9-9-9z" fill="#662113" data-skin="#662113|#662113|#662113|#60352A|#0B0200" data-gender="female"/>
	<path d="M18 7c4 0 8 2 8 4 0 0-2-3-8-3s-8 3-8 3 1-4 8-4z" fill="#EA596E" data-gender="female"/>
</svg>
