<svg viewBox="0 0 36 36" xmlns="http://www.w3.org/2000/svg" xmlns:ts="data:,a">
	<!-- back hair -->
	<use href="defs.svg#hair_neutral_narrow" x="25.152" y="3.3" fill="#FFAC33" ts:skin="hair" ts:gender="neutral"/>
	<use href="defs.svg#hair_back_female" x="21.945" y="5.069" fill="#FFAC33" ts:skin="hair" ts:gender="female"/>
	<!-- shirt -->
	<path d="M36 36v-2c0-3.314-2.686-6-6-6H14c-3.313 0-6 2.686-6 6v2h28z" fill="#3B88C3" ts:gender="neutral,male"/>
	<path d="M35 36v-3.5c0-3.314-3.685-5.5-7-5.5H16c-3.313 0-7 2.186-7 5.5V36h26z" fill="#3B88C3" ts:gender="female"/>
	<path d="M22 35.999L16.4 27h11.2z" fill="#292F33" ts:gender="neutral,male"/>
	<path d="M22 35.999L16 27h12z" fill="#292F33" ts:gender="female"/>
	<!-- neck -->
	<path d="M17.64 30.038c1.744 1.268 2.848 1.963 4.36 1.963 1.512 0 2.615-.696 4.359-1.963v-5.749h-8.72v5.749z" fill="#FFDC5D" ts:skin="skin" ts:gender="neutral,male"/>
	<path d="M18.328 27.018c1.466 1.065 2.964.98 3.672.98s2.194.085 3.66-.98v-3.203h-7.332v3.203z" fill="#FFDC5D" ts:skin="skin" ts:gender="female"/>
	<!-- collar -->
	<path d="M15 28c0 1 1 3 3 5 1.581 1.581 4 3 4 3 0-3.063-1-4-2-5s-3-2-3-4c0-1-2 1-2 1m14 0c0 1-1 3-3 5-1.581 1.581-4 3-4 3 0-3.063 1-4 2-5s3-2 3-4c0-1 2 1 2 1" fill="#55ACEE" ts:gender="neutral,male"/>
	<path d="M14.5 27c0 1.068 1.5 3.662 3.5 5.798C19.581 34.485 22 36 22 36c0-3.271-1-4.27-2-5.338-1-1.066-3-1.526-3-3.662 0-1.066-2.5 0-2.5 0m15 0c0 1.068-1.5 3.662-3.5 5.798C24.419 34.485 22 36 22 36c0-3.271 1-4.27 2-5.338 1-1.066 3-1.526 3-3.662 0-1.066 2.5 0 2.5 0" fill="#55ACEE" ts:gender="female"/>
	
	<path d="M17.632 25.973c1.216 1.374 2.724 1.746 4.364 1.746 1.639 0 3.147-.372 4.364-1.746v-3.491h-8.728v3.491z" fill="#F9CA55" ts:skin="dark" ts:gender="neutral,male"/>
	<path d="M18.322 25.179c1.022 1.155 2.29 1.468 3.668 1.468 1.379 0 2.647-.312 3.67-1.468v-2.936h-7.338v2.936z" fill="#F9CA55" ts:skin="dark" ts:gender="female"/>
	<!-- head -->
	<path d="M29.547 13.243c-.646-.894-1.472-1.614-3.284-1.868.68.311 1.331 1.387 1.416 1.982.085.595.17 1.076-.368.481-2.155-2.382-4.502-1.444-6.827-2.899-1.624-1.016-2.119-2.141-2.119-2.141s-.198 1.5-2.661 3.029c-.714.443-1.566 1.43-2.038 2.888-.34 1.048-.234 1.982-.234 3.578 0 4.66 3.841 8.578 8.578 8.578s8.578-3.953 8.578-8.578c-.002-2.898-.305-4.03-1.041-5.05z" fill="#FFDC5D" ts:skin="skin" ts:gender="neutral"/>
	<path d="M13.734 15.718c0-5.834 3.676-10.563 8.211-10.563 4.533 0 8.209 4.729 8.209 10.563 0 5.833-3.676 10.285-8.209 10.285-4.535 0-8.211-4.452-8.211-10.285" fill="#FFDC5D" ts:skin="skin" ts:gender="female"/>
	<use href="defs.svg#hair_front_female" x="21.945" y="5.069" fill="#FFAC33" ts:skin="hair" ts:gender="female"/>
	<ellipse cx="13.805" cy="15.9355" rx="1.639" ry="2.6225" fill="#FFDC5D" ts:skin="skin" ts:gender="male,female"/><ellipse cx="30.194" cy="15.9355" rx="1.639" ry="2.6225" fill="#FFDC5D" ts:skin="skin" ts:gender="male,female"/>
	<ellipse cx="21.9995" cy="16.959" rx="8.5225" ry="10.121" fill="#FFDC5D" ts:skin="skin" ts:gender="male"/>
	
	<use href="defs.svg#hair_male" x="22" y="3.48" fill="#FFAC33" ts:skin="hair" ts:gender="male"/>
	<!-- nose -->
	<rect x="20.578" y="19.723" width="2.86" height="0.954" rx="0.477" fill="#C1694F" ts:skin="nose" ts:gender="neutral"/>
	<rect x="20.5" y="18.25" width="3" height="1.5" rx="0.75" fill="#C1694F" ts:skin="nose" ts:gender="male"/>
	<rect x="20.723" y="19.5" width="2.537" height="1" rx="0.4235" fill="#C1694F" ts:skin="nose" ts:gender="female"/>
	<!-- mouth -->
	<path d="M22.134 24.657c-2.754 0-3.6-.705-3.741-.848-.256-.256-.256-.671 0-.927.248-.248.646-.255.902-.023.052.037.721.487 2.839.487 2.2 0 2.836-.485 2.842-.49.256-.255.657-.243.913.015.256.256.242.683-.014.939-.142.142-.987.847-3.741.847" fill="#C1694F" ts:skin="nose" ts:gender="neutral"/>
	<path d="M22 23.802c-2.754 0-3.6-.705-3.741-.848-.256-.256-.256-.671 0-.927.248-.248.646-.255.902-.023.052.037.721.487 2.839.487 2.2 0 2.836-.485 2.842-.49.256-.255.657-.243.913.015.256.256.242.683-.014.938-.141.143-.987.848-3.741.848z" fill="#C1694F" ts:skin="nose" ts:gender="male"/>
	
	<path d="M21.945 23.543c-1.606 0-2.447-.794-2.537-.885-.268-.267-.268-.7 0-.967.266-.265.692-.267.961-.007.035.032.551.491 1.576.491 1.038 0 1.555-.473 1.576-.492.273-.256.703-.248.963.02.26.269.26.691-.004.955-.089.091-.929.885-2.535.885" fill="#DF1F32" ts:gender="female"/>
	<!--<path d="M18.195 17.341c-.526 0-.953-.427-.953-.953v-.953c0-.526.427-.953.953-.953s.953.427.953.953v.953c0 .526-.426.953-.953.953z " fill="#662113" ts:skin="eyes2" ts:gender=""/>
		 <path d="M25.821,17.341 c-.526 0-.953-.427-.953-.953v-.953c0-.526.427-.953.953-.953s.953.427.953.953v.953c0 .526-.427.953-.953.953z" fill="#662113" ts:skin="eyes2" ts:gender=""/> eyes..-->
	<!-- goggles -->
	<circle cx="17.25" cy="16" r="3.75" fill="#F9CA55" ts:skin="dark"/>
	<circle cx="26.75" cy="16" r="3.75" fill="#F9CA55" ts:skin="dark"/>
	<path d="M19.5 15h5v2.5h-5z" fill="#F9CA55" ts:skin="dark"/>
	<circle cx="17.5" cy="15.5" r="3.5" fill="#E1E8ED"/>
	<circle cx="26.5" cy="15.5" r="3.5" fill="#E1E8ED"/>
	<path d="M19.5 14h5v2.5h-5z" fill="#E1E8ED"/>
	<circle cx="17.5" cy="15.5" r="2.5" fill="#292F33"/>
	<circle cx="26.5" cy="15.5" r="2.5" fill="#292F33"/>
	<!-- torch -->
	<path d="M5 24l-1.5 1S5 27.5 5 31v5h2v-5c0-4.5-2-7-2-7z" fill="#66757F"/>
	<path d="M6.079 23.807c.208.379.071.854-.307 1.064l-2.13 1.178c-.379.208-.855.07-1.064-.309l-.451-.816c-.208-.379-.072-.855.307-1.064l2.13-1.178c.378-.209.855-.071 1.064.309l.451.816z" fill="#99AAB5"/>
	<path d="M3.49 22.584C7.678 20.375.052 16.313.052 16.313s-.75 8.48 3.438 6.271z" fill="#F4900C"/>
	<path d="M2.96 21.365c2.202-1.162-1.808-3.299-1.808-3.299s-.394 4.459 1.808 3.299z" fill="#FFDC5D"/>
	<!-- hat -->
	<path d="M34 11c-3-2-1.008-4.169-3-7-1.874-2.663-5-4-9.003-4C17 0 14.874 1.337 13 4c-1.992 2.831 0 5-3 7-1.861 1.24 6 2.313 12 2.313S35.861 12.24 34 11" fill="#3B88C3"/>
	<path d="M20 11.5V.088c-.35.032-.683.074-1 .124v10.281c-2.09-.05-5.124-.396-7.653-.853-.174.297-.41.59-.73.877 2.911.565 6.596.982 8.883.982h.5z M24.5,11.5 c2.421 0 6.037-.393 8.907-.959-.325-.288-.563-.58-.741-.877-2.431.448-5.371.787-7.667.832V.292c-.323-.066-.66-.112-1-.155V11.5h.501z" fill="#269"/>
</svg>
