<svg viewBox="0 0 36 36" xmlns="http://www.w3.org/2000/svg" xmlns:ts="data:,a">
	<!-- back hair -->
	<use href="defs.svg#hair_neutral_narrow" x="25.152" y="3.3" ts:skin="hair" ts:gender="neutral"/>
	<use href="defs.svg#hair_back_female" x="21.945" y="5.069" ts:skin="hair" ts:gender="female"/>
	<!-- shirt -->
	<use href="defs.svg#shoulders_male" x="22" fill="#3B88C3" ts:gender="neutral,male"/>
	<use href="defs.svg#shoulders_female" x="22" fill="#3B88C3" ts:gender="female"/>
	
	<path d="M22 36L16.4 27h11.2z" fill="#292F33" ts:gender="neutral,male"/>
	<path d="M22 36L16 27h12z" fill="#292F33" ts:gender="female"/>
	<!-- neck -->
	<path d="M 22,32.001 c -1.512,0 -2.616,-0.695 -4.36,-1.963 h -0.001 v -5.749 h 8.72 v 5.749 c -1.744,1.267 -2.847,1.963 -4.359,1.963 Z" ts:skin="skin" ts:gender="neutral,male"/>
	<path d="M 22,27.998 c -0.708,0 -2.206,0.085 -3.672,-0.98 v -3.203 h 7.332 v 3.203 c -1.466,1.065 -2.952,0.98 -3.66,0.98 Z" ts:skin="skin" ts:gender="female"/>
	<!-- neck shadow -->
	<use href="defs.svg#neck_shadow_male" x="21.996" y="27.719" ts:skin="dark" ts:gender="neutral,male"/>
	<use href="defs.svg#neck_shadow_female" x="21.99" y="26.647" ts:skin="dark" ts:gender="female"/>
	<!-- collar -->
	<path d="M 22,36 s -2.419,-1.419 -4,-3 c -2,-2 -3,-4 -3,-5 c 0,0 2,-2 2,-1 c 0,2 2,3 3,4 s 2,1.937 2,5 Z M 22,36 c 0,-3.063 1,-4 2,-5 s 3,-2 3,-4 c 0,-1 2,1 2,1 c 0,1 -1,3 -3,5 c -1.581,1.581 -4,3 -4,3 Z" fill="#55ACEE" ts:gender="neutral,male"/>
	<path d="M 22,36 s -2.419,-1.515 -4,-3.202 c -2,-2.136 -3.5,-4.73 -3.5,-5.798 c 0,0 2.5,-1.066 2.5,0 c 0,2.136 2,2.596 3,3.662 c 1,1.068 2,2.067 2,5.338 Z M 22,36 c 0,-3.271 1,-4.27 2,-5.338 c 1,-1.066 3,-1.526 3,-3.662 c 0,-1.066 2.5,0 2.5,0 c 0,1.068 -1.5,3.662 -3.5,5.798 c -1.581,1.687 -4,3.202 -4,3.202 Z" fill="#55ACEE" ts:gender="female"/>
	<!-- head -->
	<use href="defs.svg#face_neutral" x="29.547" y="13.243" ts:skin="skin" ts:gender="neutral"/>
	<use href="defs.svg#face_male" x="22" y="16.959" ts:skin="skin" ts:gender="male"/>
	<use href="defs.svg#face_female" x="13.734" y="15.717" ts:skin="skin" ts:gender="female"/>
	<!-- hair -->
	<use href="defs.svg#hair_male" x="22" y="3.48" ts:skin="hair" ts:gender="male"/>
	<use href="defs.svg#hair_front_female" x="21.945" y="5.069" ts:skin="hair" ts:gender="female"/>
	<use href="defs.svg#ears_female" x="22" y="15.9355" ts:skin="skin" ts:gender="female"/>
	<!-- nose -->
	<use href="defs.svg#nose_neutral" x="22.008" y="20.2" ts:skin="nose" ts:gender="neutral"/>
	<use href="defs.svg#nose_male" x="22" y="19" ts:skin="nose" ts:gender="male"/>
	<use href="defs.svg#nose_female" x="21.9915" y="20" ts:skin="nose" ts:gender="female"/>
	<!-- mouth -->
	<use href="defs.svg#mouth_neutral" x="22.134" y="24.657" ts:skin="nose" ts:gender="neutral"/>
	<use href="defs.svg#mouth_neutral" x="22" y="23.802" ts:skin="nose" ts:gender="male"/>
	<use href="defs.svg#mouth_female" x="21.945" y="23.543" ts:skin="mouth" ts:gender="female"/>
	<!--<path d="M18.195 17.341c-.526 0-.953-.427-.953-.953v-.953c0-.526.427-.953.953-.953s.953.427.953.953v.953c0 .526-.426.953-.953.953z " ts:skin="eyes2" ts:gender=""/>
		 <path d="M25.821,17.341 c-.526 0-.953-.427-.953-.953v-.953c0-.526.427-.953.953-.953s.953.427.953.953v.953c0 .526-.427.953-.953.953z" ts:skin="eyes2" ts:gender=""/> eyes..-->
	<!-- goggles -->
	<circle cx="17.25" cy="16" r="3.75" ts:skin="dark"/>
	<circle cx="26.75" cy="16" r="3.75" ts:skin="dark"/>
	<path d="M19.5 15h5v2.5h-5z" ts:skin="dark"/>
	<circle cx="17.5" cy="15.5" r="3.5" fill="#E1E8ED"/>
	<circle cx="26.5" cy="15.5" r="3.5" fill="#E1E8ED"/>
	<path d="M19.5 14h5v2.5h-5z" fill="#E1E8ED"/>
	<circle cx="17.5" cy="15.5" r="2.5" fill="#292F33"/>
	<circle cx="26.5" cy="15.5" r="2.5" fill="#292F33"/>
	<!-- torch -->
	<path d="M5 24l-1.5 1S5 27.5 5 31v5h2v-5c0-4.5-2-7-2-7z" fill="#66757F"/>
	<path d="M6.079 23.807c.208.379.071.854-.307 1.064l-2.13 1.178c-.379.208-.855.07-1.064-.309l-.451-.816c-.208-.379-.072-.855.307-1.064l2.13-1.178c.378-.209.855-.071 1.064.309l.451.816z" fill="#99AAB5"/>
	<path d="M3.49 22.584C7.678 20.375.052 16.313.052 16.313s-.75 8.48 3.438 6.271z" fill="#F4900C"/>
	<path d="M2.96 21.365c2.202-1.162-1.808-3.299-1.808-3.299s-.394 4.459 1.808 3.299z" fill="#FFDC5D"/>
	<!-- hat -->
	<path d="M 21.997,0 c 4.003,0 7.129,1.337 9.003,4 c 1.992,2.831 0,5 3,7 c 1.861,1.24 -6,2.313 -12,2.313 s -13.861,-1.073 -12,-2.313 c 3,-2 1.008,-4.169 3,-7 c 1.874,-2.663 4,-4 8.997,-4 Z" fill="#3B88C3"/>
	<path d="M20 11.5V.088c-.35.032-.683.074-1 .124v10.281c-2.09-.05-5.124-.396-7.653-.853-.174.297-.41.59-.73.877 2.911.565 6.596.982 8.883.982h.5z M24.5,11.5 c2.421 0 6.037-.393 8.907-.959-.325-.288-.563-.58-.741-.877-2.431.448-5.371.787-7.667.832V.292c-.323-.066-.66-.112-1-.155V11.5h.501z" fill="#269"/>
</svg>
