<svg viewBox="0 0 36 36" xmlns="http://www.w3.org/2000/svg" xmlns:ts="data:,a">
	<!-- back hair -->
	<path d="M 22.961,24.965 c -3.417,0 -5.452,0.108 -7.366,-2.421 c -1.33,-0.396 -2.994,-1.343 -3.397,-4.303 c -0.356,-2.612 -1.039,-4.011 -0.591,-7.486 c 0.165,-1.278 0.686,-2.472 1.424,-3.476 c 3.517,0.743 3.24,-2.931 5.113,-2.967 c 1.132,-1.472 5.083,-1.635 7.008,-1.012 c 2.564,0.83 1.94,5.466 5.777,3.976 c 1.111,1.582 1.664,3.492 1.584,5.649 c -0.281,7.582 -2.88,12.04 -9.552,12.04 Z" ts:skin="hair" ts:gender="neutral"/> <!-- special version for hats -->
	<use href="defs.svg#hair_back_female" x="21.945" y="5.069" ts:skin="hair" ts:gender="female"/>
	<!-- body -->
	<use href="defs.svg#shoulders_male" x="22" fill="#77B255" ts:gender="neutral,male"/>
	<use href="defs.svg#shoulders_female" x="22" fill="#77B255" ts:gender="female"/>
	
	<path d="M22 34c.767 0 5-3 5-6H17c0 3 4.233 6 5 6z" fill="#3E721D" ts:gender="neutral,male"/>
	<path d="M18 27h8l-4 7-4-7z" fill="#3E721D" ts:gender="female"/>
	<!-- overalls -->
	<path d="M13 28 h3 v7 h12 v-7 h3 V36 H13 z" fill="#3B88C3" ts:gender="neutral,male"/>
	<path d="M28 27v7.5H16V27c-1.004 0-2.041.203-3 .575V36h18v-8.425c-.959-.372-1.996-.575-3-.575z" fill="#269" ts:gender="female"/>
	<!-- neck -->
	<path d="M17.64 28.038c0 2.846 8.72 2.962 8.72 0v-3.749h-8.72v3.749z" ts:skin="skin" ts:gender="neutral,male"/>
	<path d="M 22,27.998 c -0.708,0 -2.206,0.085 -3.672,-0.98 v -3.203 h 7.332 v 3.203 c -1.466,1.065 -2.952,0.98 -3.66,0.98 Z" ts:skin="skin" ts:gender="female"/>
	<!-- neck shadow -->
	<use href="defs.svg#neck_shadow_male" x="21.996" y="27.719" ts:skin="dark" ts:gender="neutral,male"/>
	<use href="defs.svg#neck_shadow_female" x="21.99" y="26.647" ts:skin="dark" ts:gender="female"/>
	<!-- face -->
	<path d="M 22.01,26.871 c -4.737,0 -8.578,-3.918 -8.578,-8.578 c 0,-1.596 -0.106,-2.53 0.234,-3.578 c 0.472,-1.458 1.324,-2.445 2.038,-2.888 c 2.463,-1.529 2.661,-3.029 2.661,-3.029 s 0.495,1.125 2.119,2.141 c 2.325,1.455 5.215,1.332 7.37,3.714 c 0.538,0.595 0.453,0.114 0.368,-0.481 s -1.279,-2.486 -1.959,-2.797 c 1.812,0.254 2.638,0.974 3.284,1.868 c 0.736,1.02 1.039,2.152 1.041,5.05 c 0,4.625 -3.841,8.578 -8.578,8.578 Z" ts:skin="skin" ts:gender="neutral"/> <!-- special -->
	<use href="defs.svg#face_male" x="22" y="16.959" ts:skin="skin" ts:gender="male"/>
	<use href="defs.svg#face_female" x="13.734" y="15.717" ts:skin="skin" ts:gender="female"/>
	<!-- hair -->
	<use href="defs.svg#hair_male" x="22" y="3.48" ts:skin="hair" ts:gender="male"/>
	<use href="defs.svg#hair_front_female" x="21.945" y="5.069" ts:skin="hair" ts:gender="female"/>
	<use href="defs.svg#ears_female" x="22" y="15.9355" ts:skin="skin" ts:gender="female"/>
	<!-- eyes -->
	<use href="defs.svg#eyes_neutral" x="22.008" y="15.9115" ts:skin="eyes2" ts:gender="neutral"/>
	<use href="defs.svg#eyes_male" x="22" y="15.5" ts:skin="eyes" ts:gender="male"/>
	<use href="defs.svg#eyes_female" x="21.99075" y="16.618" ts:skin="eyes" ts:gender="female"/>
	<!-- nose -->
	<use href="defs.svg#nose_neutral" x="22.008" y="20.2" ts:skin="nose" ts:gender="neutral"/>
	<use href="defs.svg#nose_male" x="22" y="19" ts:skin="nose" ts:gender="male"/>
	<use href="defs.svg#nose_female" x="21.9915" y="20" ts:skin="nose" ts:gender="female"/>
	<!-- mouth -->
	<use href="defs.svg#mouth_neutral" x="22.134" y="24.657" ts:skin="nose" ts:gender="neutral"/>
	<use href="defs.svg#mouth_neutral" x="22" y="23.802" ts:skin="nose" ts:gender="male"/>
	<use href="defs.svg#mouth_female" x="21.945" y="23.543" ts:skin="mouth" ts:gender="female"/>
	<!-- pitchfork handle -->
	<path d="M 5.75,30.5 c 0.69,0 1.25,0.56 1.25,1.25 v 4.25 h -2.5 v -4.25 c 0,-0.69 0.56,-1.25 1.25,-1.25 Z" fill="#C1694F"/>
	<!-- hat -->
	<path d="M 22,14 c -10.5,0 -14,-4.343 -14,-6 s 6.82,-1 14,-1 s 14,-0.657 14,1 s -3.5,6 -14,6 Z" fill="#C1694F"/>
	<path d="M 22,11 c -4.909,0 -8,-0.88 -8,-2.2 c 0,-3.547 4,-8.8 5.333,-8.8 c 1.334,0 2.223,1.76 2.667,1.76 s 1.333,-1.76 2.667,-1.76 c 1.333,0 5.333,5.253 5.333,8.8 c 0,1.32 -3.092,2.2 -8,2.2 Z" fill="#C1694F"/>
	<path d="M 22,11 c -4.909,0 -8,-0.88 -8,-2.2 c 0,-0.566 0.102,-1.175 0.279,-1.8 c 2.388,2 13.054,2 15.443,0.004 c 0.175,0.623 0.278,1.231 0.278,1.796 c 0,1.32 -3.092,2.2 -8,2.2 Z" fill="#292F33"/>
	<!-- pitchfork head -->
	<rect x="5" y="13.5" width="1.5" height="18.25" rx="0.75" fill="#66757F"/>
	<rect x="0" y="13.5" width="1.5" height="10" rx="0.75" fill="#66757F"/>
	<rect x="10" y="13.5" width="1.5" height="10" rx="0.75" fill="#66757F"/>
	<path d="M 5.75,28.5 c -3.175,0 -5.75,-2.574 -5.75,-5.75 c 0,-0.084 1.497,-0.086 1.497,0 c 0,2.35 1.904,4.253 4.253,4.253 s 4.253,-1.903 4.253,-4.253 c 0,-0.086 1.497,-0.084 1.497,0 c 0,3.176 -2.575,5.75 -5.75,5.75 Z" fill="#66757F"/>
</svg>
