<svg viewBox="0 0 36 36" xmlns="http://www.w3.org/2000/svg" xmlns:ts="data:,a">
	<!-- body -->
	<path d="M36 36v-2c0-3.314-2.686-6-6-6H14c-3.313 0-6 2.686-6 6v2h28z" fill="#77B255" ts:gender="neutral,male"/>
	<path d="M31 27.575c-.959-.372-1.996-.575-3-.575H16c-1.004 0-2.041.203-3 .575-2.207.855-4 2.614-4 4.925V36h26v-3.5c0-2.311-1.792-4.07-4-4.925z" fill="#77B255" ts:gender="female"/>
	<!-- collar? -->
	<path d="M22 34c.767 0 5-3 5-6H17c0 3 4.233 6 5 6z" fill="#3E721D" ts:gender="neutral,male"/>
	<path d="M18 27h8l-4 7-4-7" fill="#3E721D" ts:gender="female"/>
	<!-- overalls -->
	<path d="M13 28h3v8h-3z M28,28 h3v8h-3z" fill="#3B88C3" ts:gender="neutral,male"/>
	<path d="M13.125 35H31v1H13.125z" fill="#3B88C3" ts:gender="neutral,male"/>
	<path d="M28 27v7.5H16V27c-1.004 0-2.041.203-3 .575V36h18v-8.425c-.959-.372-1.996-.575-3-.575z" fill="#269" ts:gender="female"/>
	<!-- back hair -->
	<path d="M25.152 3.3c-1.925-.623-5.876-.46-7.008 1.012-1.873.036-1.596 3.71-5.113 2.967-.738 1.004-1.259 2.198-1.424 3.476-.448 3.475.235 4.874.591 7.486.403 2.96 2.067 3.907 3.397 4.303 1.914 2.529 3.949 2.421 7.366 2.421 6.672 0 9.271-4.458 9.552-12.04.08-2.157-.473-4.067-1.584-5.649-3.837 1.49-3.213-3.146-5.777-3.976z" fill="#FFAC33" ts:skin="hair" ts:gender="neutral"/>
	<use href="defs.svg#hair_back_female" x="21.945" y="5.069" fill="#FFAC33" ts:skin="hair" ts:gender="female"/>
	<!-- neck -->
	<path d="M17.64 28.038c0 2.846 8.72 2.962 8.72 0v-3.749h-8.72v3.749z" fill="#FFDC5D" ts:skin="skin" ts:gender="neutral,male"/>
	<path d="M18.328 27.018c1.466 1.065 2.964.98 3.672.98s2.194.085 3.66-.98v-3.203h-7.332v3.203z" fill="#FFDC5D" ts:skin="skin" ts:gender="female"/>
	<!-- neck shadow -->
	<path d="M17.632 25.973c1.216 1.374 2.724 1.746 4.364 1.746 1.639 0 3.147-.372 4.364-1.746v-3.491h-8.728v3.491z" fill="#F9CA55" ts:skin="dark" ts:gender="neutral,male"/>
	<path d="M18.322 25.179c1.022 1.155 2.29 1.468 3.668 1.468 1.379 0 2.647-.312 3.67-1.468v-2.936h-7.338v2.936z" fill="#F9CA55" ts:skin="dark" ts:gender="female"/>
	<!-- face -->
	<path d="M29.547 13.243c-.646-.894-1.472-1.614-3.284-1.868.68.311 1.874 2.202 1.959 2.797.085.595.17 1.076-.368.481-2.155-2.382-5.045-2.259-7.37-3.714-1.624-1.016-2.119-2.141-2.119-2.141s-.198 1.5-2.661 3.029c-.714.443-1.566 1.43-2.038 2.888-.34 1.048-.234 1.982-.234 3.578 0 4.66 3.841 8.578 8.578 8.578s8.578-3.953 8.578-8.578c-.002-2.898-.305-4.03-1.041-5.05z" fill="#FFDC5D" ts:skin="skin" ts:gender="neutral"/>
	<ellipse cx="21.9995" cy="16.959" rx="8.5225" ry="10.121" fill="#FFDC5D" ts:skin="skin" ts:gender="male"/>
	<path d="M13.734 15.718c0-5.834 3.676-10.563 8.211-10.563 4.533 0 8.209 4.729 8.209 10.563 0 5.833-3.676 10.285-8.209 10.285-4.535 0-8.211-4.452-8.211-10.285" fill="#FFDC5D" ts:skin="skin" ts:gender="female"/>
	
	<use href="defs.svg#hair_front_female" x="21.945" y="5.069" fill="#FFAC33" ts:skin="hair" ts:gender="female"/>
	<ellipse cx="13.805" cy="15.9355" rx="1.639" ry="2.6225" fill="#FFDC5D" ts:skin="skin" ts:gender="male,female"/><ellipse cx="30.194" cy="15.9355" rx="1.639" ry="2.6225" fill="#FFDC5D" ts:skin="skin" ts:gender="male,female"/>
	<path d="M22 3.48c5.648 0 9.178 4.168 9.178 7.641s-.706 4.863-1.412 3.473l-1.412-2.778s-4.235 0-5.647-1.39c0 0 2.118 4.168-2.118 0 0 0 .706 2.779-3.53-.694 0 0-2.118 1.389-2.824 4.862-.196.964-1.412 0-1.412-3.473C12.822 7.648 15.646 3.48 22 3.48" fill="#FFAC33" ts:skin="hair" ts:gender="male"/>
	<!-- eyes -->
	<rect x="17.242" y="14.482" width="1.906" height="2.859" rx="0.953" fill="#662113" ts:skin="eyes2" ts:gender="neutral"/><rect x="24.868" y="14.482" width="1.906" height="2.859" rx="0.953" fill="#662113" ts:skin="eyes2" ts:gender="neutral"/>
	<rect x="17" y="14" width="2" height="3" rx="1" fill="#662113" ts:skin="eyes" ts:gender="male"/><rect x="25" y="14" width="2" height="3" rx="1" fill="#662113" ts:skin="eyes" ts:gender="male"/>
	<rect x="17.762" y="15.349" width="1.693" height="2.538" rx="0.8465" fill="#662113" ts:skin="eyes" ts:gender="female"/><rect x="24.527" y="15.349" width="1.692" height="2.538" rx="0.84625" fill="#662113" ts:skin="eyes" ts:gender="female"/>
	<!-- nose -->
	<rect x="20.578" y="19.723" width="2.86" height="0.954" rx="0.477" fill="#C1694F" ts:skin="nose" ts:gender="neutral"/>
	<rect x="20.5" y="18.25" width="3" height="1.5" rx="0.75" fill="#C1694F" ts:skin="nose" ts:gender="male"/>
	<rect x="20.723" y="19.5" width="2.537" height="1" rx="0.4235" fill="#C1694F" ts:skin="nose" ts:gender="female"/>
	<!-- mouth -->
	<path d="M22.134 24.657c-2.754 0-3.6-.705-3.741-.848-.256-.256-.256-.671 0-.927.248-.248.646-.255.902-.023.052.037.721.487 2.839.487 2.2 0 2.836-.485 2.842-.49.256-.255.657-.243.913.015.256.256.242.683-.014.939-.142.142-.987.847-3.741.847" fill="#C1694F" ts:skin="nose" ts:gender="neutral"/>
	<path d="M22 23.802c-2.754 0-3.6-.705-3.741-.848-.256-.256-.256-.671 0-.927.248-.248.646-.255.902-.023.052.037.721.487 2.839.487 2.2 0 2.836-.485 2.842-.49.256-.255.657-.243.913.015.256.256.242.683-.014.938-.141.143-.987.848-3.741.848" fill="#C1694F" ts:skin="nose" ts:gender="male"/>
	<path d="M21.945 23.543c-1.606 0-2.447-.794-2.537-.885-.268-.267-.268-.7 0-.967.266-.265.692-.267.961-.007.035.032.551.491 1.576.491 1.038 0 1.555-.473 1.576-.492.273-.256.703-.248.963.02.26.269.26.691-.004.955-.089.091-.929.885-2.535.885" fill="#DF1F32" ts:gender="female"/>
	<!-- pitchfork handle -->
	<path d="M7 31.75c0-.69-.56-1.25-1.25-1.25s-1.25.56-1.25 1.25V36H7v-4.25z" fill="#C1694F"/>
	<!-- hat -->
	<path d="M35.941 8c0 1.657-3.5 6-14 6s-14-4.343-14-6 6.82-1 14-1 14-.657 14 1z" fill="#C1694F" ts:gender="neutral,male"/> <!-- shifted sideways for some reason -->
	<path d="M36 8c0 1.657-3.5 6-14 6S8 9.657 8 8s6.82-1 14-1 14-.657 14 1z" fill="#C1694F" ts:gender="female"/>
	<path d="M30 8.8c0 1.32-3.092 2.2-8 2.2-4.909 0-8-.88-8-2.2C14 5.253 18 0 19.333 0 20.667 0 21.556 1.76 22 1.76S23.333 0 24.667 0C26 0 30 5.253 30 8.8z" fill="#C1694F"/>
	<path d="M30 8.8c0 1.32-3.092 2.2-8 2.2-4.909 0-8-.88-8-2.2 0-.566.102-1.175.279-1.8 2.388 2 13.054 2 15.443.004.175.623.278 1.231.278 1.796z" fill="#292F33"/>
	<!-- pitchfork head -->
	<rect x="5" y="13.5" width="1.5" height="18.25" rx="0.75" fill="#66757F"/>
	<path d="M10.003 22.75c0 2.35-1.904 4.253-4.253 4.253S1.497 25.1 1.497 22.75c0-.086-1.497-.084-1.497 0 0 3.176 2.575 5.75 5.75 5.75s5.75-2.574 5.75-5.75c0-.084-1.497-.086-1.497 0z" fill="#66757F"/>
	<path d="M1.5 22.75c0 .414-.336.75-.75.75S0 23.164 0 22.75v-8.5c0-.414.336-.75.75-.75s.75.336.75.75v8.5z " fill="#66757F"/>
	<path d="M11.5,22.75 c0 .414-.336.75-.75.75s-.75-.336-.75-.75v-8.5c0-.414.336-.75.75-.75s.75.336.75.75v8.5z" fill="#66757F"/>
</svg>
