<svg viewBox="0 0 36 36" xmlns="http://www.w3.org/2000/svg" xmlns:ts="data:,a">
	<!-- body -->
	<path d="M32 36v-2c0-3.313-2.687-6-6-6H10c-3.313 0-6 2.687-6 6v2h28z" fill="#CE9E5D" ts:gender="neutral,male"/>
	<path d="M31 36v-3.5c0-3.313-3.687-5.5-7-5.5H12c-3.313 0-7 2.187-7 5.5V36h26z" fill="#CE9E5D" ts:gender="female"/>
	<path d="M4.09 33c-.055.326-.09.659-.09 1v2h28v-2c0-.341-.035-.674-.09-1H4.09z" fill="#FFF35F" ts:gender="neutral,male"/>
	<path d="M5 33h26v3H5z" fill="#FFF35F" ts:gender="female"/>
	<path d="M4 34h28v1H4z" fill="#CCD6DD" ts:gender="neutral,male"/>
	<path d="M5.122 34h26v1h-26z" fill="#CCD6DD" ts:gender="female"/>
	<!-- hat inside -->
	<path d="M32 13.656c0 3.59-6.268 6.5-14 6.5s-14-2.91-14-6.5 6.268-2.5 14-2.5 14-1.09 14 2.5z" fill="#A0041E"/>
	<!-- back hair -->
	<use href="defs.svg#hair_neutral_narrow" x="21.152" y="3.3" fill="#FFAC33" ts:skin="hair" ts:gender="neutral"/>
	<use href="defs.svg#hair_back_female" x="17.945" y="5.069" fill="#FFAC33" ts:skin="hair" ts:gender="female"/>
	<!-- clothes -->
	<path d="M14 27h8s-1.018 7-4 7-4-7-4-7z" fill="#292F33" ts:gender="neutral,male"/>
	<path d="M14 27h8s-1.018 5-4 5-4-5-4-5z" fill="#292F33" ts:gender="female"/>
	<path d="M27 36v-9c0-.55-.45-1-1-1h-1c-.55 0-1 .45-1 1v9h3z M12,36 v-9c0-.55-.45-1-1-1h-1c-.55 0-1 .45-1 1v9h3z" fill="#292F33"/>
	<!-- neck -->
	<path d="M13.64 28.101c1.744 1.267 2.848 1.962 4.36 1.962 1.511 0 2.616-.696 4.36-1.962V24.29h-8.72v3.811z" fill="#FFDC5D" ts:skin="skin" ts:gender="neutral,male"/>
	<path d="M14.328 27.02c1.467 1.065 2.964.98 3.672.98s2.194.084 3.66-.98v-3.205h-7.332v3.205z" fill="#FFDC5D" ts:skin="skin" ts:gender="female"/>
	<path d="M13.632 25.973c1.216 1.374 2.724 1.746 4.364 1.746 1.639 0 3.147-.372 4.364-1.746v-3.491h-8.728v3.491z" fill="#F9CA55" ts:skin="dark" ts:gender="neutral,male"/>
	<path d="M14.321 25.179c1.023 1.155 2.291 1.468 3.669 1.468 1.378 0 2.646-.313 3.669-1.468v-2.936H14.32v2.936z" fill="#F9CA55" ts:skin="dark" ts:gender="female"/>
	<!-- head -->
	<use href="defs.svg#face_neutral" x="25.547" y="13.243" fill="#FFDC5D" ts:skin="skin" ts:gender="neutral"/>
	<ellipse cx="9.805" cy="15.9345" rx="1.639" ry="2.6225" fill="#FFDC5D" ts:skin="skin" ts:gender="male"/><ellipse cx="26.194" cy="15.9345" rx="1.639" ry="2.6225" fill="#FFDC5D" ts:skin="skin" ts:gender="male"/>
	<ellipse cx="18" cy="16.9595" rx="8.522" ry="10.1205" fill="#FFDC5D" ts:skin="skin" ts:gender="male"/>
	<path d="M9.734 15.717c0-5.834 3.676-10.563 8.211-10.563 4.534 0 8.211 4.729 8.211 10.563 0 5.833-3.676 10.285-8.211 10.285-4.535.001-8.211-4.451-8.211-10.285z" fill="#FFDC5D" ts:skin="skin" ts:gender="female"/>
	<!-- hair -->
	<use href="defs.svg#hair_male" x="18" y="3.479" fill="#FFAC33" ts:skin="hair" ts:gender="male"/>
	<use href="defs.svg#hair_front_female" x="17.945" y="5.069" fill="#FFAC33" ts:skin="hair" ts:gender="female"/>
	<!-- eyes -->
	<rect x="13.242" y="14.482" width="1.906" height="2.859" rx="0.953" ts:skin="eyes2" ts:gender="neutral"/><rect x="20.868" y="14.482" width="1.906" height="2.859" rx="0.953" ts:skin="eyes2" ts:gender="neutral"/>
	<rect x="13" y="14" width="2" height="3" rx="1" fill="#662113" ts:skin="eyes" ts:gender="male"/><rect x="21" y="14" width="2" height="3" rx="1" fill="#662113" ts:skin="eyes" ts:gender="male"/>
	<rect x="13.763" y="15.348" width="1.692" height="2.538" rx="0.846" ts:skin="eyes" ts:gender="female"/><rect x="20.527" y="15.348" width="1.692" height="2.538" rx="0.846" ts:skin="eyes" ts:gender="female"/>
	<!-- nose -->
	<rect x="16.578" y="19.723" width="2.86" height="0.954" rx="0.477" fill="#C1694F" ts:skin="nose" ts:gender="neutral"/>
	<rect x="16.5" y="18.25" width="3" height="1.5" rx="0.75" fill="#C1694F" ts:skin="nose" ts:gender="male"/>
	<rect x="16.722" y="19.5" width="2.537" height="1" rx="0.423" fill="#C1694F" ts:skin="nose" ts:gender="female"/>
	<!-- mouth -->
	<path d="M18.134 24.657c-2.754 0-3.6-.705-3.741-.848-.256-.256-.256-.671 0-.927.248-.248.646-.255.902-.023.052.037.721.487 2.839.487 2.2 0 2.836-.485 2.842-.49.256-.255.657-.243.913.015.256.256.242.683-.014.939-.142.142-.987.847-3.741.847" fill="#C1694F" ts:skin="nose" ts:gender="neutral"/>
	<path d="M18 23.802c-2.754 0-3.6-.706-3.741-.848-.256-.256-.256-.671 0-.927.248-.248.645-.255.902-.024.052.038.721.487 2.839.487 2.2 0 2.836-.485 2.842-.49.255-.255.656-.243.913.013.256.256.242.684-.014.94-.141.143-.987.849-3.741.849z" fill="#C1694F" ts:skin="nose" ts:gender="male"/>
	<path d="M17.945 23.543c-1.606 0-2.446-.794-2.536-.885-.267-.267-.267-.7 0-.967.265-.265.693-.267.961-.007.035.032.551.49 1.576.49 1.039 0 1.556-.472 1.577-.492.273-.255.703-.248.964.02.259.269.26.692-.004.956-.092.092-.933.885-2.538.885z" fill="#DF1F32" ts:gender="female"/>
	<!-- hat -->
	<path d="M28.853 10.857c-.86-.173-1.093-4.028-3.084-6.859C23.894 1.335 20.304 0 17.997 0S12.1 1.335 10.226 3.998c-1.992 2.831-2.224 6.686-3.084 6.859-3.317.665-3.161 2.386-3.14 2.782.123-.466.438-1.578 3.902-1.64 3.404-.06 6.58.806 10.094.806s6.69-.866 10.094-.806c3.464.061 3.778 1.173 3.902 1.64.02-.396.176-2.117-3.141-2.782z" fill="#DF1F32"/>
	<path d="M18 0c-2.094 0-5 3.593-5 5.054V9s.109 1 .92 1h8.16c.811 0 .92-1 .92-1V5.054C23 3.593 20.094 0 18 0z" fill="#EA596E"/>
	<!-- clothes -->
	<path d="M23.883 25c-.406-.378-2.474.364-3.019 1-.545.636-.638 1.737-1.01 3-.318 1.079-1.572 3.958-1.931 4.775-.358-.817-1.605-3.696-1.923-4.775-.372-1.263-.455-2.364-1-3s-2.594-1.378-3-1 .015 1.463 0 2 0 9 0 9h12s.015-8.463 0-9 .289-1.622-.117-2z" fill="#CE9E5D" ts:gender="neutral,male"/>
	<path d="M23.883 25c-.406-.378-2.474.364-3.019 1-.545.636-.638 1.737-1.01 3-.319 1.083-1.577 2.506-1.931 2.893-.353-.387-1.604-1.81-1.923-2.893-.372-1.263-.455-2.364-1-3s-2.594-1.378-3-1 .015 1.463 0 2 0 9 0 9h12s.015-8.463 0-9 .289-1.622-.117-2z" fill="#CE9E5D" ts:gender="female"/>
</svg>
