<svg viewBox="0 0 36 36" xmlns="http://www.w3.org/2000/svg" xmlns:ts="data:,a">
	<!-- hat inside -->
	<path d="M32 13.656c0 3.59-6.268 6.5-14 6.5s-14-2.91-14-6.5 6.268-2.5 14-2.5 14-1.09 14 2.5z" fill="#A0041E"/>
	<!-- back hair -->
	<use href="defs.svg#hair_neutral_narrow" x="21.152" y="3.3" ts:skin="hair" ts:gender="neutral"/>
	<use href="defs.svg#hair_back_female" x="17.945" y="5.069" ts:skin="hair" ts:gender="female"/>
	<!-- body -->
	<use href="defs.svg#shoulders_male" x="18" fill="#CE9E5D" ts:gender="neutral,male"/>
	<use href="defs.svg#shoulders_female" x="18" fill="#CE9E5D" ts:gender="female"/>
	
	<path d="M4.09 33c-.055.326-.09.659-.09 1v2h28v-2c0-.341-.035-.674-.09-1H4.09z" fill="#FFF35F" ts:gender="neutral,male"/>
	<path d="M5 33h26v3H5z" fill="#FFF35F" ts:gender="female"/>
	<path d="M4 34h28v1H4z" fill="#CCD6DD" ts:gender="neutral,male"/>
	<path d="M5.122 34h26v1h-26z" fill="#CCD6DD" ts:gender="female"/>
	<!-- clothes -->
	<path d="M14 27h8s-1.018 7-4 7-4-7-4-7z" fill="#292F33" ts:gender="neutral,male"/>
	<path d="M14 27h8s-1.018 5-4 5-4-5-4-5z" fill="#292F33" ts:gender="female"/>
	<path d="M27 36v-9c0-.55-.45-1-1-1h-1c-.55 0-1 .45-1 1v9h3z M12,36 v-9c0-.55-.45-1-1-1h-1c-.55 0-1 .45-1 1v9h3z" fill="#292F33"/> <!-- blanking layer, could be simpler -->
	<!-- neck -->
	<path d="M13.64 28.101c1.744 1.267 2.848 1.962 4.36 1.962 1.511 0 2.616-.696 4.36-1.962V24.29h-8.72v3.811z" ts:skin="skin" ts:gender="neutral,male"/>
	<path d="M14.328 27.02c1.467 1.065 2.964.98 3.672.98s2.194.084 3.66-.98v-3.205h-7.332v3.205z" ts:skin="skin" ts:gender="female"/>
	<path d="M13.632 25.973c1.216 1.374 2.724 1.746 4.364 1.746 1.639 0 3.147-.372 4.364-1.746v-3.491h-8.728v3.491z" ts:skin="dark" ts:gender="neutral,male"/>
	<path d="M14.321 25.179c1.023 1.155 2.291 1.468 3.669 1.468 1.378 0 2.646-.313 3.669-1.468v-2.936H14.32v2.936z" ts:skin="dark" ts:gender="female"/>
	<!-- head -->
	<use href="defs.svg#face_neutral" x="25.547" y="13.243" ts:skin="skin" ts:gender="neutral"/>
	<use href="defs.svg#face_male" x="18" y="16.959" ts:skin="skin" ts:gender="male"/>
	<use href="defs.svg#face_female" x="9.734" y="15.717" ts:skin="skin" ts:gender="female"/>
	<!-- hair -->
	<use href="defs.svg#hair_male" x="18" y="3.479" ts:skin="hair" ts:gender="male"/>
	<use href="defs.svg#hair_front_female" x="17.945" y="5.069" ts:skin="hair" ts:gender="female"/>
	<!-- eyes -->
	<use href="defs.svg#eyes_neutral" x="18.008" y="15.9115" ts:skin="eyes2" ts:gender="neutral"/>
	<use href="defs.svg#eyes_male" x="18" y="15.5" ts:skin="eyes" ts:gender="male"/>
	<use href="defs.svg#eyes_female" x="17.991" y="16.617" ts:skin="eyes" ts:gender="female"/>
	<!-- nose -->
	<use href="defs.svg#nose_neutral" x="18.008" y="20.2" ts:skin="nose" ts:gender="neutral"/>
	<use href="defs.svg#nose_male" x="18.0" y="19.0" ts:skin="nose" ts:gender="male"/>
	<use href="defs.svg#nose_female" x="17.9905" y="20.0" ts:skin="nose" ts:gender="female"/>
	<!-- mouth -->
	<use href="defs.svg#mouth_neutral" x="18.134" y="24.657" ts:skin="nose" ts:gender="neutral"/>
	<use href="defs.svg#mouth_neutral" x="18" y="23.802" ts:skin="nose" ts:gender="male"/>
	<use href="defs.svg#mouth_female" x="17.945" y="23.543" ts:skin="mouth" ts:gender="female"/>
	<!-- hat -->
	<path d="M28.853 10.857c-.86-.173-1.093-4.028-3.084-6.859C23.894 1.335 20.304 0 17.997 0S12.1 1.335 10.226 3.998c-1.992 2.831-2.224 6.686-3.084 6.859-3.317.665-3.161 2.386-3.14 2.782.123-.466.438-1.578 3.902-1.64 3.404-.06 6.58.806 10.094.806s6.69-.866 10.094-.806c3.464.061 3.778 1.173 3.902 1.64.02-.396.176-2.117-3.141-2.782z" ts:skin="mouth"/>
	<path d="M18 0c-2.094 0-5 3.593-5 5.054V9s.109 1 .92 1h8.16c.811 0 .92-1 .92-1V5.054C23 3.593 20.094 0 18 0z" fill="#EA596E"/>
	<!-- clothes -->
	<path d="M23.883 25c-.406-.378-2.474.364-3.019 1-.545.636-.638 1.737-1.01 3-.318 1.079-1.572 3.958-1.931 4.775-.358-.817-1.605-3.696-1.923-4.775-.372-1.263-.455-2.364-1-3s-2.594-1.378-3-1 .015 1.463 0 2 0 9 0 9h12s.015-8.463 0-9 .289-1.622-.117-2z" fill="#CE9E5D" ts:gender="neutral,male"/>
	<path d="M23.883 25c-.406-.378-2.474.364-3.019 1-.545.636-.638 1.737-1.01 3-.319 1.083-1.577 2.506-1.931 2.893-.353-.387-1.604-1.81-1.923-2.893-.372-1.263-.455-2.364-1-3s-2.594-1.378-3-1 .015 1.463 0 2 0 9 0 9h12s.015-8.463 0-9 .289-1.622-.117-2z" fill="#CE9E5D" ts:gender="female"/>
</svg>
