<svg viewBox="0 0 36 36" xmlns="http://www.w3.org/2000/svg" xmlns:ts="data:,a">
	<!-- hat inside -->
	<path d="M 18,11.156 c 7.732,0 14,-1.09 14,2.5 s -6.268,6.5 -14,6.5 s -14,-2.91 -14,-6.5 s 6.268,-2.5 14,-2.5 Z" fill="#A0041E"/>
	<!-- back hair -->
	<use href="defs.svg#hair_neutral_narrow" x="21.152" y="3.3" ts:skin="hair" ts:gender="neutral"/>
	<use href="defs.svg#hair_back_female" x="17.945" y="5.069" ts:skin="hair" ts:gender="female"/>
	<!-- body -->
	<use href="defs.svg#shoulders_male" x="18" fill="#CE9E5D" ts:gender="neutral,male"/>
	<use href="defs.svg#shoulders_female" x="18" fill="#CE9E5D" ts:gender="female"/>
	
	<path d="M4.09 33c-.055.326-.09.659-.09 1v2h28v-2c0-.341-.035-.674-.09-1H4.09z" fill="#FFF35F" ts:gender="neutral,male"/>
	<path d="M5 33h26v3H5z" fill="#FFF35F" ts:gender="female"/>
	<path d="M4 34h28v1H4z" fill="#CCD6DD" ts:gender="neutral,male"/>
	<path d="M5.122 34h26v1h-26z" fill="#CCD6DD" ts:gender="female"/>
	<!-- clothes -->
	<path d="M 18,34 c -2.982,0 -4,-7 -4,-7 h 8 s -1.018,7 -4,7 Z" fill="#292F33" ts:gender="neutral,male"/> <!-- blanking layer, could be simpler -->
	<path d="M 18,32 c -2.982,0 -4,-5 -4,-5 h 8 s -1.018,5 -4,5 Z" fill="#292F33" ts:gender="female"/>
	<path d="M27 36v-9c0-.55-.45-1-1-1h-1c-.55 0-1 .45-1 1v9h3z M12,36 v-9c0-.55-.45-1-1-1h-1c-.55 0-1 .45-1 1v9h3z" fill="#292F33"/>
	<!-- neck -->
	<path d="M 18,30.063 c -1.512,0 -2.616,-0.695 -4.36,-1.962 v -3.811 h 8.72 v 3.811 c -1.744,1.266 -2.849,1.962 -4.36,1.962 Z" ts:skin="skin" ts:gender="neutral,male"/>
	<path d="M 18,28 c -0.708,0 -2.205,0.085 -3.672,-0.98 v -3.205 h 7.332 v 3.205 c -1.466,1.064 -2.952,0.98 -3.66,0.98 Z" ts:skin="skin" ts:gender="female"/>
	
	<use href="defs.svg#neck_shadow_male" x="17.996" y="27.719" ts:skin="dark" ts:gender="neutral,male"/>
	<use href="defs.svg#neck_shadow_female" x="17.99" y="26.647" ts:skin="dark" ts:gender="female"/>
	<!-- head -->
	<use href="defs.svg#face_neutral" x="25.547" y="13.243" ts:skin="skin" ts:gender="neutral"/>
	<use href="defs.svg#face_male" x="18" y="16.959" ts:skin="skin" ts:gender="male"/>
	<use href="defs.svg#face_female" x="9.734" y="15.717" ts:skin="skin" ts:gender="female"/>
	<!-- hair -->
	<use href="defs.svg#hair_male" x="18" y="3.479" ts:skin="hair" ts:gender="male"/>
	<use href="defs.svg#hair_front_female" x="17.945" y="5.069" ts:skin="hair" ts:gender="female"/>
	<!-- eyes -->
	<use href="defs.svg#eyes_neutral" x="18.008" y="15.9115" ts:skin="eyes2" ts:gender="neutral"/>
	<use href="defs.svg#eyes_male" x="18" y="15.5" ts:skin="eyes" ts:gender="male"/>
	<use href="defs.svg#eyes_female" x="17.991" y="16.617" ts:skin="eyes" ts:gender="female"/>
	<!-- nose -->
	<use href="defs.svg#nose_neutral" x="18.008" y="20.2" ts:skin="nose" ts:gender="neutral"/>
	<use href="defs.svg#nose_male" x="18" y="19" ts:skin="nose" ts:gender="male"/>
	<use href="defs.svg#nose_female" x="17.9905" y="20" ts:skin="nose" ts:gender="female"/>
	<!-- mouth -->
	<use href="defs.svg#mouth_neutral" x="18.134" y="24.657" ts:skin="nose" ts:gender="neutral"/>
	<use href="defs.svg#mouth_neutral" x="18" y="23.802" ts:skin="nose" ts:gender="male"/>
	<use href="defs.svg#mouth_female" x="17.945" y="23.543" ts:skin="mouth" ts:gender="female"/>
	<!-- hat -->
	<path d="M 17.997,0 c 2.307,0 5.897,1.335 7.772,3.998 c 1.991,2.831 2.224,6.686 3.084,6.859 c 3.317,0.665 3.161,2.386 3.141,2.782 c -0.124,-0.467 -0.438,-1.579 -3.902,-1.64 c -3.404,-0.06 -6.58,0.806 -10.094,0.806 s -6.69,-0.866 -10.094,-0.806 c -3.464,0.062 -3.779,1.174 -3.902,1.64 c -0.021,-0.396 -0.177,-2.117 3.14,-2.782 c 0.86,-0.173 1.092,-4.028 3.084,-6.859 c 1.874,-2.663 5.464,-3.998 7.771,-3.998 Z" fill="#DF1F32"/>
	<path d="M 18,0 c 2.094,0 5,3.593 5,5.054 v 3.946 s -0.109,1 -0.92,1 h -8.16 c -0.811,0 -0.92,-1 -0.92,-1 v -3.946 c 0,-1.461 2.906,-5.054 5,-5.054 Z" fill="#EA596E"/>
	<!-- clothes -->
	<path d="M 12,25 c 0.406,-0.378 2.455,0.364 3,1 s 0.628,1.737 1,3 c 0.318,1.079 1.565,3.958 1.923,4.775 c 0.359,-0.817 1.613,-3.696 1.931,-4.775 c 0.372,-1.263 0.465,-2.364 1.01,-3 s 2.613,-1.378 3.019,-1 s 0.102,1.463 0.117,2 s 0,9 0,9 h -12 s -0.015,-8.463 0,-9 s -0.406,-1.622 0,-2 Z" fill="#CE9E5D" ts:gender="neutral,male"/>
	<path d="M 12,25 c 0.406,-0.378 2.455,0.364 3,1 s 0.628,1.737 1,3 c 0.319,1.083 1.57,2.506 1.923,2.893 c 0.354,-0.387 1.612,-1.81 1.931,-2.893 c 0.372,-1.263 0.465,-2.364 1.01,-3 s 2.613,-1.378 3.019,-1 s 0.102,1.463 0.117,2 s 0,9 0,9 h -12 s -0.015,-8.463 0,-9 s -0.406,-1.622 0,-2 Z" fill="#CE9E5D" ts:gender="female"/>
</svg>
