<svg viewBox="0 0 36 36" xmlns="http://www.w3.org/2000/svg" xmlns:ts="data:,a">
	<!-- body -->
	<path d="M32 36v-2c0-3.313-2.687-6-6-6H10c-3.313 0-6 2.687-6 6v2h28z" fill="#CE9E5D" ts:gender="neutral,male"/>
	<path d="M31 36v-3.5c0-3.313-3.687-5.5-7-5.5H12c-3.313 0-7 2.187-7 5.5V36h26z" fill="#CE9E5D" ts:gender="female"/>
	<path d="M4.09 33c-.055.326-.09.659-.09 1v2h28v-2c0-.341-.035-.674-.09-1H4.09z" fill="#FFF35F" ts:gender="neutral,male"/>
	<path d="M5 33h26v3H5z" fill="#FFF35F" ts:gender="female"/>
	<path d="M4 34h28v1H4z" fill="#CCD6DD" ts:gender="neutral,male"/>
	<path d="M5.122 34h26v1h-26z" fill="#CCD6DD" ts:gender="female"/>
	<!-- hat inside -->
	<path d="M32 13.656c0 3.59-6.268 6.5-14 6.5s-14-2.91-14-6.5 6.268-2.5 14-2.5 14-1.09 14 2.5z" fill="#A0041E"/>
	<!-- back hair -->
	<path d="M17.945 5.069c4.105 0 10.948 2.053 10.948 10.948s0 10.948-2.053 10.948-4.79-2.053-8.895-2.053-6.784 2.053-8.895 2.053c-2.287 0-2.053-8.211-2.053-10.948 0-8.895 6.842-10.948 10.948-10.948z" fill="#FFAC33" ts:skin="#292F33,#FFE51E,#963B22,#60352A,#0B0200" ts:gender="female"/>
	<path d="M21.152 3.3c-1.925-.623-5.876-.46-7.008 1.012-2.944.057-6.083 2.932-6.536 6.443-.448 3.475.235 4.874.591 7.486.403 2.96 2.067 3.907 3.397 4.303 1.914 2.529 3.949 2.421 7.366 2.421 6.672 0 9.271-4.458 9.552-12.04.169-4.585-2.522-8.059-7.362-9.625z" fill="#FFAC33" ts:skin="#292F33,#FFE51E,#963B22,#60352A,#0B0200" ts:gender="neutral"/>
	<!-- clothes -->
	<path d="M14 27h8s-1.018 7-4 7-4-7-4-7z" fill="#292F33" ts:gender="neutral,male"/>
	<path d="M14 27h8s-1.018 5-4 5-4-5-4-5z" fill="#292F33" ts:gender="female"/>
	<path d="M27 36v-9c0-.55-.45-1-1-1h-1c-.55 0-1 .45-1 1v9h3z M12,36 v-9c0-.55-.45-1-1-1h-1c-.55 0-1 .45-1 1v9h3z" fill="#292F33"/>
	<!-- neck -->
	<path d="M13.64 28.101c1.744 1.267 2.848 1.962 4.36 1.962 1.511 0 2.616-.696 4.36-1.962V24.29h-8.72v3.811z" fill="#FFDC5D" ts:skin="#F7DECE,#F3D2A2,#D4AB88,#AF7E57,#7C533E" ts:gender="neutral,male"/>
	<path d="M14.328 27.02c1.467 1.065 2.964.98 3.672.98s2.194.084 3.66-.98v-3.205h-7.332v3.205z" fill="#FFDC5D" ts:skin="#F7DECE,#F3D2A2,#D5AB88,#AF7E57,#7C533E" ts:gender="female"/>
	<path d="M13.632 25.973c1.216 1.374 2.724 1.746 4.364 1.746 1.639 0 3.147-.372 4.364-1.746v-3.491h-8.728v3.491z" fill="#F9CA55" ts:skin="#EEC2AD,#E2C196,#CC9B7A,#9B6A49,#664131" ts:gender="neutral,male"/>
	<path d="M14.321 25.179c1.023 1.155 2.291 1.468 3.669 1.468 1.378 0 2.646-.313 3.669-1.468v-2.936H14.32v2.936z" fill="#F9CA55" ts:skin="#EEC2AD,#E2C196,#CC9B7A,#9B6A49,#664131" ts:gender="female"/>
	<!-- head -->
	<path d="M25.547 13.243c-.646-.894-1.472-1.614-3.284-1.868.68.311 1.331 1.387 1.416 1.982.085.595.17 1.076-.368.481-2.155-2.382-4.502-1.444-6.827-2.899-1.624-1.016-2.119-2.141-2.119-2.141s-.198 1.5-2.661 3.029c-.714.443-1.566 1.43-2.038 2.888-.34 1.048-.234 1.982-.234 3.578 0 4.66 3.841 8.578 8.578 8.578s8.578-3.953 8.578-8.578c-.002-2.898-.305-4.03-1.041-5.05z" fill="#FFDC5D" ts:skin="#F7DECE,#F3D2A2,#D4AB88,#AF7E57,#7C533E" ts:gender="neutral"/>
	<path d="M11.444 15.935c0 1.448-.734 2.622-1.639 2.622s-1.639-1.174-1.639-2.622.734-2.623 1.639-2.623c.906.001 1.639 1.175 1.639 2.623z" fill="#FFDC5D" ts:skin="#F7DECE,#F3D2A2,#D5AB88,#AF7E57,#7C533E" ts:gender="male"/>
	<path d="M27.83300000,15.93500000 c0 1.448-.734 2.622-1.639 2.622s-1.639-1.174-1.639-2.622.734-2.623 1.639-2.623c.906.001 1.639 1.175 1.639 2.623z" fill="#FFDC5D" ts:skin="#F7DECE,#F3D2A2,#D5AB88,#AF7E57,#7C533E" ts:gender="male"/>
	<path d="M9.478 16.96c0-5.589 3.816-10.121 8.522-10.121s8.522 4.531 8.522 10.121c0 5.589-3.816 10.12-8.522 10.12s-8.522-4.531-8.522-10.12z" fill="#FFDC5D" ts:skin="#F7DECE,#F3D2A2,#D5AB88,#AF7E57,#7C533E" ts:gender="male"/>
	<path d="M9.734 15.717c0-5.834 3.676-10.563 8.211-10.563 4.534 0 8.211 4.729 8.211 10.563 0 5.833-3.676 10.285-8.211 10.285-4.535.001-8.211-4.451-8.211-10.285z" fill="#FFDC5D" ts:skin="#F7DECE,#F3D2A2,#D5AB88,#AF7E57,#7C533E" ts:gender="female"/>
	<!-- hair -->
	<path d="M18 3.479c5.648 0 9.178 4.168 9.178 7.641s-.706 4.863-1.412 3.473l-1.412-2.778s-4.236 0-5.648-1.39c0 0 2.118 4.168-2.118 0 0 0 .706 2.779-3.53-.695 0 0-2.118 1.39-2.824 4.863-.196.963-1.412 0-1.412-3.473S11.646 3.479 18 3.479z" fill="#FFAC33" ts:skin="#292F33,#FFE51E,#963B22,#60352A,#0B0200" ts:gender="male"/>
	<path d="M7.725 19c-.021-1-.044-.224-.044-.465 0-3.421 2.053.494 2.053-1.943 0-2.438 1.368-2.683 2.737-4.051.684-.684 2.053-2.025 2.053-2.025s3.421 2.066 6.158 2.066 5.474 1.376 5.474 4.113 2.053-1.584 2.053 1.837c0 .243-.023-.531-.039.469h.718c.006-2 .006-1.924.006-3.202 0-8.895-6.842-12.207-10.948-12.207S6.997 6.848 6.997 15.743c0 .793-.02 1.257.008 3.257h.72z" fill="#FFAC33" ts:skin="#292F33,#FFE51E,#963B22,#60352A,#0B0200" ts:gender="female"/>
	<!-- eyes -->
	<path d="M14.195 17.341c-.526 0-.953-.427-.953-.953v-.953c0-.526.427-.953.953-.953s.953.427.953.953v.953c0 .526-.426.953-.953.953z M21.82100000,17.34100000 c-.526 0-.953-.427-.953-.953v-.953c0-.526.427-.953.953-.953s.953.427.953.953v.953c0 .526-.427.953-.953.953z" ts:skin="#662113,#662113,#662113,#662113,#000000" ts:gender="neutral"/>
	<path d="M14 17c-.55 0-1-.45-1-1v-1c0-.55.45-1 1-1s1 .45 1 1v1c0 .55-.45 1-1 1z M22,17 c-.55 0-1-.45-1-1v-1c0-.55.45-1 1-1s1 .45 1 1v1c0 .55-.45 1-1 1z" fill="#662113" ts:skin="#662113,#662113,#662113,#60352A,#000000" ts:gender="male"/>
	<path d="M14.609 17.886c-.465 0-.846-.381-.846-.846v-.846c0-.465.381-.846.846-.846.465 0 .846.381.846.846v.846c-.001.466-.381.846-.846.846z M21.37300000,17.88600000 c-.465 0-.846-.381-.846-.846v-.846c0-.465.381-.846.846-.846.465 0 .846.381.846.846v.846c0 .466-.381.846-.846.846z" ts:skin="#662113,#662113,#662113,#60352A,#000000" ts:gender="female"/>
	<!-- nose -->
	<path d="M18.961 20.677h-1.906c-.263 0-.477-.213-.477-.477s.213-.477.477-.477h1.906c.263 0 .477.213.477.477s-.213.477-.477.477z" fill="#C1694F" ts:skin="#C1694F,#C1694F,#C1694F,#915A34,#3D2E24" ts:gender="neutral"/>
	<path d="M18.75 19.75h-1.5c-.413 0-.75-.337-.75-.75s.337-.75.75-.75h1.5c.413 0 .75.337.75.75s-.337.75-.75.75z" fill="#C1694F" ts:skin="#C1694F,#C1694F,#C1694F,#915A34,#3D2E24" ts:gender="male"/>
	<path d="M18.836 20.5h-1.691c-.233 0-.423-.19-.423-.423v-.154c0-.233.19-.423.423-.423h1.691c.233 0 .423.19.423.423v.154c0 .233-.19.423-.423.423z" fill="#C1694F" ts:skin="#C1694F,#C1694F,#C1694F,#915A34,#3D2E24" ts:gender="female"/>
	<!-- mouth -->
	<path d="M18.134 24.657c-2.754 0-3.6-.705-3.741-.848-.256-.256-.256-.671 0-.927.248-.248.646-.255.902-.023.052.037.721.487 2.839.487 2.2 0 2.836-.485 2.842-.49.256-.255.657-.243.913.015.256.256.242.683-.014.939-.142.142-.987.847-3.741.847" fill="#C1694F" ts:skin="#C1694F,#C1694F,#C1694F,#915A34,#3D2E24" ts:gender="neutral"/>
	<path d="M18 23.802c-2.754 0-3.6-.706-3.741-.848-.256-.256-.256-.671 0-.927.248-.248.645-.255.902-.024.052.038.721.487 2.839.487 2.2 0 2.836-.485 2.842-.49.255-.255.656-.243.913.013.256.256.242.684-.014.94-.141.143-.987.849-3.741.849z" fill="#C1694F" ts:skin="#C1694F,#C1694F,#C1694F,#915A34,#3D2E24" ts:gender="male"/>
	<path d="M17.945 23.543c-1.606 0-2.446-.794-2.536-.885-.267-.267-.267-.7 0-.967.265-.265.693-.267.961-.007.035.032.551.49 1.576.49 1.039 0 1.556-.472 1.577-.492.273-.255.703-.248.964.02.259.269.26.692-.004.956-.092.092-.933.885-2.538.885z" fill="#DF1F32" ts:gender="female"/>
	<!-- hat -->
	<path d="M28.853 10.857c-.86-.173-1.093-4.028-3.084-6.859C23.894 1.335 20.304 0 17.997 0S12.1 1.335 10.226 3.998c-1.992 2.831-2.224 6.686-3.084 6.859-3.317.665-3.161 2.386-3.14 2.782.123-.466.438-1.578 3.902-1.64 3.404-.06 6.58.806 10.094.806s6.69-.866 10.094-.806c3.464.061 3.778 1.173 3.902 1.64.02-.396.176-2.117-3.141-2.782z" fill="#DF1F32"/>
	<path d="M18 0c-2.094 0-5 3.593-5 5.054V9s.109 1 .92 1h8.16c.811 0 .92-1 .92-1V5.054C23 3.593 20.094 0 18 0z" fill="#EA596E"/>
	<!-- clothes -->
	<path d="M23.883 25c-.406-.378-2.474.364-3.019 1-.545.636-.638 1.737-1.01 3-.318 1.079-1.572 3.958-1.931 4.775-.358-.817-1.605-3.696-1.923-4.775-.372-1.263-.455-2.364-1-3s-2.594-1.378-3-1 .015 1.463 0 2 0 9 0 9h12s.015-8.463 0-9 .289-1.622-.117-2z" fill="#CE9E5D" ts:gender="neutral,male"/>
	<path d="M23.883 25c-.406-.378-2.474.364-3.019 1-.545.636-.638 1.737-1.01 3-.319 1.083-1.577 2.506-1.931 2.893-.353-.387-1.604-1.81-1.923-2.893-.372-1.263-.455-2.364-1-3s-2.594-1.378-3-1 .015 1.463 0 2 0 9 0 9h12s.015-8.463 0-9 .289-1.622-.117-2z" fill="#CE9E5D" ts:gender="female"/>
</svg>
