<svg viewBox="0 0 36 36" xmlns="http://www.w3.org/2000/svg" xmlns:ts="data:,a">
	<!-- sleeves -->
	<path d="M6 22c3 0 6.688 7.094 7 10 .421 3.915-2 4-2 4H0V26s3.438-4 6-4z" fill="#50A5E6"/>
	<path d="M30 22c-3 0-6.688 7.094-7 10-.421 3.915 2 4 2 4h11V26s-3.438-4-6-4z" fill="#50A5E6"/>
	<!-- sleeve insides -->
	<ellipse cx="8.426" cy="28.489" rx="1.638" ry="5.848" transform="rotate(-30 8.424 28.489)" fill="#1C6399"/>
	<ellipse cx="27.574" cy="28.489" rx="5.848" ry="1.638" transform="rotate(-60 27.574 28.49)" fill="#1C6399" />
	<!-- fingers -->
	<path d="M16.061.011c-1.266-.127-2.333.864-2.333 2.103 0 .78-.184 10.319-.184 10.319L17.895 18l.062-15.765c0-1.106-.795-2.114-1.896-2.224z" ts:skin="dark"/>
	<path d="M20.086 0c1.181 0 2.138.957 2.138 2.138 0 .789.668 10.824.668 10.824L17.948 18V2.138C17.948.957 18.905 0 20.086 0z" ts:skin="dark"/>
	<!-- hands -->
	<path d="M17.125 4.323c0-1.099-.852-1.989-1.903-1.989-1.051 0-1.903.891-1.903 1.989 0 0-.535 5.942-1.192 9.37-.878 1.866-1.369 4.682-1.261 6.248-.054.398-5.625 5.006-5.625 5.006C5.522 26.76 7.5 31.102 10 33.106l3.521-2.924c2.885-.404 4.458-3.331 4.458-4.264 0-2.984-.854-21.595-.854-21.595z" ts:skin="skin"/>
	<path d="M18.875 4.323c0-1.099.852-1.989 1.903-1.989 1.051 0 1.903.891 1.903 1.989 0 0 .535 5.942 1.192 9.37.878 1.866 1.369 4.682 1.261 6.248.054.398 5.625 5.006 5.625 5.006-.281 1.813-2.259 6.155-4.759 8.159l-3.521-2.924c-2.885-.404-4.458-3.331-4.458-4.264 0-2.984.854-21.595.854-21.595z" ts:skin="skin"/>
	<!-- split -->
	<rect x="17.25" y="2.042" width="1.5" height="23.781" rx="0.75" ts:skin="dark"/>
</svg>
