<svg viewBox="0 0 36 36" xmlns="http://www.w3.org/2000/svg" xmlns:ts="data:,a">
	<!-- almost no shared layers -->
	<use href="defs.svg#hair_neutral1" transform="translate(17.876 27.178) scale(0.953)" fill="#292F33" ts:gender="neutral"/>
	<ellipse cx="18" cy="16" fill="#292F33" rx="12" ry="10" ts:gender="female"/>
	<ellipse cx="18" cy="3.5" fill="#292F33" rx="4" ry="3.5" ts:gender="female"/>
	<!-- body -->
	<use href="defs.svg#shoulders_male" x="18" fill="#88C9F9" ts:gender="neutral,male"/>
	<use href="defs.svg#shoulders_female_tall" x="18" fill="#88C9F9" ts:gender="female"/>
	<!-- neck -->
	<rect x="14" y="24" width="8" height="5" fill="#88C9F9" ts:gender="neutral"/>
	<rect x="13.64" y="24" width="8.72" height="5" fill="#88C9F9" ts:gender="male"/>
	<rect x="14.5" y="22" width="6.988" height="5" fill="#88C9F9" ts:gender="female"/>
	<!-- neck shadow -->
	<path d="M14 26.242c1.216 1.374 2.355 1.817 3.996 1.817 1.639 0 2.787-.602 4.004-1.975v-4h-8v4.158z" fill="#539AE0" ts:gender="neutral"/>
	<path d="M14.483 24.438c.973.938 2.674 1.118 3.508 1.118.823 0 2.537-.181 3.51-1.118v-3.286h-7.017v3.286z" fill="#55ACEE" ts:gender="female"/>
	<!-- head -->
	<use href="defs.svg#face_neutral1" transform="translate(17.876 27.178) scale(0.953)" fill="#88C9F9" ts:gender="neutral"/>
	<path d="M 11.444,15.935 c 0,1.448 -0.734,2.622 -1.639,2.622 c -0.905,0.001 -1.805,-1.109 -1.805,-2.557 c 0,-1.935 0.501,-2.687 1.806,-2.687 c 0.905,0 1.638,1.174 1.638,2.622 Z M 28,16 c 0,1.448 -0.9,2.558 -1.806,2.558 c -0.905,0 -1.639,-1.174 -1.639,-2.622 s 0.734,-2.623 1.639,-2.623 c 1.352,0 1.806,0.752 1.806,2.687 Z" fill="#88C9F9" ts:gender="male"/>
	<path d="M 9.478,16.96 c 0,-5.589 1.522,-11.96 8.522,-11.96 s 8.522,6.371 8.522,11.96 c 0,5.04 -2.522,10.12 -8.522,10.12 s -8.522,-5.08 -8.522,-10.12 Z" fill="#88C9F9" ts:gender="male"/>
	<path d="M10.734 14.627c0-5.834 3.229-10.563 7.211-10.563 3.981 0 7.209 4.73 7.209 10.563s-3.228 10.285-7.209 10.285c-3.983 0-7.211-4.452-7.211-10.285z" fill="#88C9F9" ts:gender="female"/>
	<!-- eyes -->
	<use href="defs.svg#eyes_neutral" x="17.8745" y="16.2175" fill="#662113" ts:gender="neutral"/>
	<rect x="13.462" y="14.185" width="1.815" height="2.723" rx="0.835" fill="#662113" ts:gender="male"/><rect x="20.723" y="14.185" width="1.815" height="2.723" rx="0.835" fill="#662113" ts:gender="male"/>
	<use href="defs.svg#eyes_female" x="17.99075" y="15.527" fill="#662113" ts:gender="female"/>
	<!-- nose -->
	<use href="defs.svg#nose_neutral" x="17.874" y="20.506" fill="#55ACEE" ts:gender="neutral"/>
	<use href="defs.svg#nose_male" x="18" y="19" fill="#55ACEE" ts:gender="male"/>
	<use href="defs.svg#nose_female" x="17.9915" y="18.909" fill="#55ACEE" ts:gender="female"/>
	<!-- mouth -->
	<use href="defs.svg#mouth_neutral" x="18" y="24.963" fill="#269" ts:gender="neutral"/>
	<use href="defs.svg#mouth_neutral" x="18.007" y="23.802" fill="#269" ts:gender="male"/>
	<use href="defs.svg#mouth_female" x="17.945" y="22.452" ts:skin="mouth" ts:gender="female"/>
	<!-- beard -->
	<path d="M26.546 20.159c.032-.204-.107-.396-.312-.428-.209-.039-.396.108-.428.312-.01.064-1.072 6.251-7.231 6.625.111-.968-.078-1.805-.088-1.846-.063-.27-.334-.44-.602-.372-.269.063-.435.332-.372.601.002.009.178.784.052 1.627-6.269-.28-7.328-6.37-7.37-6.636-.033-.204-.224-.344-.429-.312-.204.032-.344.224-.312.428.008.049.567 3.305 3.133 5.45.007.017.026.04.07.078.749.646 3.923 3.988 5.34 4.061v.001l.004-.001.004.001v-.001c1.416-.073 4.591-3.415 5.34-4.061.043-.037.062-.06.07-.077 2.564-2.144 3.124-5.401 3.131-5.45z" fill="#000000" ts:gender="male"/>
	<!-- clothes -->
	<path d="M9 36s-1-3 1-4c2.828-1.414 7 3 8 3s5.172-4.414 8-3c2 1 1 4 1 4H9z" fill="#A0041E" ts:gender="female"/>
	<path d="M25.987 28l-2.016-.05s.762 6.816-5.977 6.816-5.977-6.816-5.977-6.816L10 28c-1.229 2.076-1.016 8-1.016 8h18.018c.001 0 .214-5.924-1.015-8z" fill="#744EAA" ts:gender="neutral"/>
	<path d="M 12.016,27.95 s -0.157,6.817 3.987,6.817 v 1.233 h -7.019 s -0.214,-5.924 1.016,-8 l 2.016,-0.05 Z M 23.971,27.95 l 2.016,0.05 c 1.23,2.076 1.016,8 1.016,8 h -7.019 v -1.233 c 4.144,0 3.987,-6.817 3.987,-6.817 Z" fill="#744EAA" ts:gender="male"/>
	<!-- turban -->
	<path d="M18.105 8.739s9.223 2.397 10.636 6.713c.616-1.318.974-4.201.974-5.829 0-4.952-3.87-8.539-10.159-8.539h-2.903c-5.321 0-10.159 3.588-10.159 8.539 0 1.628.358 4.726.973 6.043 1.415-4.318 10.638-6.927 10.638-6.927z" fill="#744EAA" ts:gender="neutral"/>
	<path d="M18 8.934s7.149 1.858 8.245 5.204c.478-1.021.755-3.257.755-4.518C27 5.781 24 3 19.125 3h-2.25C12.75 3 9 5.781 9 9.62c0 1.262.277 3.664.754 4.684C10.851 10.957 18 8.934 18 8.934z" fill="#744EAA" ts:gender="male"/>
	<!-- turban details -->
<path d="M 29.696,10.342 c -0.022,0.466 -0.101,1.375 -0.218,2.18 c -1.79,-1.637 -4.149,-3.071 -6.298,-3.787 c -0.467,-0.156 -0.72,-0.662 -0.564,-1.13 c 0.156,-0.466 0.659,-0.721 1.13,-0.564 c 2.024,0.674 4.149,1.862 5.95,3.301 Z M 28.968,6.102 c 0.274,0.549 0.497,1.313 0.593,1.854 c -0.218,-0.05 -0.477,-0.068 -0.739,-0.068 c -2.72,0 -5.476,0.562 -8.219,1.652 c -1.446,-0.528 -2.498,-0.801 -2.498,-0.801 s -0.104,0.028 -0.284,0.082 c 3.644,-1.803 7.344,-2.719 11.001,-2.719 c 0.038,0 0.109,-0.005 0.146,0 Z M 6.646,11.805 c -0.085,-0.764 -0.132,-1.484 -0.144,-2.071 c 3.229,-2.17 10.609,-6.48 19.26,-7.122 c 0.768,0.478 1.427,0.984 2.037,1.687 c -9.9,0.077 -18.564,5.654 -21.153,7.506 Z M 6.737,7.58 c 0.279,-1.076 0.793,-1.897 1.484,-2.772 c 2.412,-1.329 5.544,-2.358 9.059,-3.724 h 2.276 c 1.108,0 2.076,0.02 3.102,0.324 c -6.76,1.177 -12.726,4.126 -15.921,6.172 Z" fill="#CBB7EA" ts:gender="neutral"/>
	<path d="M 26.985,10.177 c -0.017,0.361 -0.078,1.066 -0.168,1.689 c -1.387,-1.269 -3.216,-2.38 -4.882,-2.935 c -0.363,-0.121 -0.559,-0.513 -0.438,-0.876 c 0.121,-0.361 0.511,-0.559 0.876,-0.437 c 1.568,0.522 3.216,1.444 4.612,2.559 Z M 26.421,6.89 c 0.212,0.426 0.385,1.018 0.46,1.437 c -0.169,-0.038 -0.37,-0.052 -0.573,-0.052 c -2.108,0 -4.245,0.435 -6.371,1.28 c -1.122,-0.409 -1.937,-0.621 -1.937,-0.621 s -0.081,0.022 -0.22,0.064 c 2.825,-1.398 5.693,-2.108 8.528,-2.108 c 0.029,0 0.085,-0.004 0.113,0 Z M 9.117,11.311 c -0.066,-0.592 -0.102,-1.15 -0.112,-1.605 c 2.503,-1.683 8.225,-5.024 14.931,-5.522 c 0.595,0.371 1.106,0.763 1.579,1.308 c -7.675,0.06 -14.391,4.383 -16.398,5.819 Z M 9.188,8.036 c 0.216,-0.835 0.614,-1.471 1.15,-2.149 c 1.87,-1.03 4.297,-1.828 7.022,-2.887 h 1.765 c 0.858,0 1.609,0.016 2.405,0.252 c -5.241,0.912 -9.865,3.198 -12.342,4.784 Z" fill="#CBB7EA" ts:gender="male"/> <!-- scaled 0.775 -->
	<!-- -->
	<path d="M18.005 32.04c4.09 0 5.453-4.09 5.453-4.09h1.363s0 6.816-6.816 6.816-6.816-6.816-6.816-6.816h1.363s1.364 4.09 5.453 4.09z" fill="#FFCC4D" ts:gender="neutral"/>
	<path d="M18 29c3 0 4-3 4-3h1s0 5-5 5-5-5-5-5h1s1 3 4 3z" fill="#FFCC4D" ts:gender="female"/>
	<!-- -->
	<rect x="16.17" y="4.808" width="4.159" height="6.289" rx="1.612" fill="#FFD983" ts:gender="neutral"/>
	<rect x="16.5" y="5.887" width="3.224" height="4.875" rx="1.612" fill="#FFD983" ts:gender="male"/>
	<rect x="17.114" y="6.102" width="2.273" height="3.702" rx="0.881" fill="#FFAC33" ts:gender="neutral"/>
	<rect x="17.231" y="6.89" width="1.762" height="2.87" rx="0.881" fill="#FFAC33" ts:gender="male"/>
	<!-- hair -->
	<ellipse cx="18" cy="4" fill="#FFCC4D" rx="3" ry="2" ts:gender="female"/>
	<path d="M18.052 3C26.107 3 29 9.197 29 15.123S26.107 23 26.107 23s1-1.951 0-3.902-1-5.854-1-5.854-2.879-.286-5-.976c-3-.976-4-1.951-4-1.951s-3 2.927-5 2.927c0 0 0 1.951-1 4.878-.632 1.851 0 4.878 0 4.878s-3-2.927-3-8.78S9.996 3 18.052 3z" fill="#292F33" ts:gender="female"/>
	<!-- ears (female) -->
	<ellipse rx="1.5" ry="2.5" transform="translate(10.413 16.5) rotate(-21.844)" fill="#88C9F9" ts:gender="female"/>
	<ellipse rx="1.5" ry="2.5" transform="translate(25.587 16.5) rotate(21.845)" fill="#88C9F9" ts:gender="female"/>
</svg>
