<svg viewBox="0 0 36 36" xmlns="http://www.w3.org/2000/svg" xmlns:ts="data:,a">
	<!-- almost no shared layers -->
	<path d="M21.597 3.6c-1.925-.623-6.455-.453-7.588 1.019-2.944.057-6.398 2.718-6.851 6.228-.448 3.475.551 5.088.906 7.701.403 2.96 2.067 3.907 3.397 4.303 1.914 2.529 3.949 2.421 7.366 2.421 6.672 0 9.85-4.464 10.131-12.047.17-4.585-2.521-8.059-7.361-9.625z" fill="#292F33" ts:gender="neutral"/>
	<ellipse cx="18" cy="16" fill="#292F33" rx="12" ry="10" ts:gender="female"/>
	<ellipse cx="18" cy="3.5" fill="#292F33" rx="4" ry="3.5" ts:gender="female"/>
	<path d="M32 36v-2c0-3.313-2.687-6-6-6H10c-3.313 0-6 2.687-6 6v2h28z" fill="#88C9F9" ts:gender="neutral,male"/>
	<path d="M31 36v-4.5c0-3.314-3.56-5.5-6.875-5.5h-12C8.812 26 5 28.186 5 31.5V36h26z" fill="#88C9F9" ts:gender="female"/>
	<path d="M14 28.267l4 1.88 4-1.88V23.97h-8z" fill="#88C9F9" ts:gender="neutral"/>
	<path d="M13.64 28.101c1.744 1.267 2.849 3.728 4.36 3.728 1.511 0 2.616-2.462 4.36-3.728V24.29h-8.72v3.811z " fill="#88C9F9" ts:gender="male"/>
	<path d="M14.5 26.518c1.466 1.065 2.792.98 3.5.98s2.194.085 3.488-.949l.012-4.14h-7v4.109z" fill="#88C9F9" ts:gender="female"/>
	<path d="M11.444,15.935 c0 1.448-.734 2.622-1.639 2.622C8.9 18.558 8 17.448 8 16c0-1.935.501-2.687 1.806-2.687.905 0 1.638 1.174 1.638 2.622z" fill="#88C9F9" ts:gender="male"/>
	<path d="M28 16c0 1.448-.9 2.558-1.806 2.558-.905 0-1.639-1.174-1.639-2.622s.734-2.623 1.639-2.623c1.352 0 1.806.752 1.806 2.687z" fill="#88C9F9" ts:gender="male"/>
	<path d="M14 26.242c1.216 1.374 2.355 1.817 3.996 1.817 1.639 0 2.787-.602 4.004-1.975v-4h-8v4.158z" fill="#539AE0" ts:gender="neutral"/>
	<path d="M14.483 24.438c.973.938 2.674 1.118 3.508 1.118.823 0 2.537-.181 3.51-1.118v-3.286h-7.017v3.286z" fill="#55ACEE" ts:gender="female"/>
	<path d="M25.413 13.55c-.646-.894-1.472-1.614-3.284-1.868.68.311 1.331 1.387 1.416 1.982.085.595.17 1.076-.368.481-2.155-2.382-4.502-1.444-6.827-2.899-1.624-1.016-2.119-2.141-2.119-2.141s-.198 1.5-2.661 3.029c-.714.443-1.566 1.43-2.038 2.888-.34 1.048-.234 1.982-.234 3.578 0 4.66 3.841 8.578 8.578 8.578s8.578-3.953 8.578-8.578c-.001-2.898-.305-4.031-1.041-5.05z" fill="#88C9F9" ts:gender="neutral"/>
	<path d="M9.478 16.96C9.478 11.371 11 5 18 5s8.522 6.371 8.522 11.96C26.522 22 24 27.08 18 27.08S9.478 22 9.478 16.96z" fill="#88C9F9" ts:gender="male"/>
	<path d="M10.734 14.627c0-5.834 3.229-10.563 7.211-10.563 3.981 0 7.209 4.73 7.209 10.563s-3.228 10.285-7.209 10.285c-3.983 0-7.211-4.452-7.211-10.285" fill="#88C9F9" ts:gender="female"/>
	<path d="M18 24.963c-2.754 0-3.6-.705-3.741-.848-.256-.256-.256-.671 0-.927.248-.248.646-.255.902-.023.052.037.721.487 2.839.487 2.2 0 2.836-.485 2.842-.49.256-.255.657-.243.913.015.256.256.242.683-.014.939-.141.142-.987.847-3.741.847" fill="#269" ts:gender="neutral"/>
	<path d="M18.007 23.802c2.754 0 3.6-.706 3.741-.848.256-.256.256-.671 0-.927-.248-.248-.645-.255-.902-.024-.052.038-.721.487-2.839.487-2.2 0-2.836-.485-2.842-.49-.255-.255-.656-.243-.913.013-.256.256-.242.684.014.94.141.143.987.849 3.741.849z" fill="#269" ts:gender="male"/>
	<path d="M17.945 22.452c-1.606 0-2.447-.794-2.537-.885-.268-.267-.268-.7 0-.967.266-.265.692-.267.961-.007.035.032.551.491 1.576.491 1.038 0 1.555-.473 1.576-.492.273-.256.703-.248.963.02.26.269.26.691-.004.955-.089.091-.929.885-2.535.885" fill="#DF1F32" ts:gender="female"/>
	<path d="M18.827 20.983h-1.906c-.263 0-.477-.213-.477-.477s.213-.477.477-.477h1.906c.263 0 .477.213.477.477s-.213.477-.477.477z" fill="#55ACEE" ts:gender="neutral"/>
	<path d="M18.75 19.75h-1.5c-.413 0-.75-.337-.75-.75s.337-.75.75-.75h1.5c.413 0 .75.337.75.75s-.337.75-.75.75z" fill="#55ACEE" ts:gender="male"/>
	<path d="M18.836 19.409h-1.69c-.233 0-.423-.19-.423-.423v-.153c0-.233.189-.424.423-.424h1.69c.233 0 .424.19.424.424v.153c0 .234-.191.423-.424.423" fill="#55ACEE" ts:gender="female"/>
	<path d="M14.062 17.647c-.526 0-.953-.427-.953-.953v-.953c0-.526.427-.953.953-.953s.953.427.953.953v.953c0 .527-.427.953-.953.953z " fill="#662113" ts:gender="neutral"/>
	<path d="M21.687,17.647 c-.526 0-.953-.427-.953-.953v-.953c0-.526.427-.953.953-.953s.953.427.953.953v.953c0 .527-.427.953-.953.953z" fill="#662113" ts:gender="neutral"/>
	<path d="M14.297,16.908 h.145c.459 0 .835-.376.835-.835V15.02c0-.459-.376-.835-.835-.835h-.145c-.459 0-.835.376-.835.835v1.053c0 .459.375.835.835.835z" fill="#662113" ts:gender="male"/>
	<path d="M21.703 16.908h-.145c-.459 0-.835-.376-.835-.835V15.02c0-.459.376-.835.835-.835h.145c.459 0 .835.376.835.835v1.053c0 .459-.375.835-.835.835z " fill="#662113" ts:gender="male"/>
	<path d="M14.608 16.796c-.465 0-.846-.381-.846-.847v-.845c0-.465.381-.846.846-.846.466 0 .847.381.847.846v.845c0 .466-.381.847-.847.847m6.765 0c-.465 0-.846-.381-.846-.847v-.845c0-.465.381-.846.846-.846.465 0 .846.381.846.846v.845c0 .466-.381.847-.846.847" fill="#662113" ts:gender="female"/>
	<path d="M9 36s-1-3 1-4c2.828-1.414 7 3 8 3s5.172-4.414 8-3c2 1 1 4 1 4H9z" fill="#A0041E" ts:gender="female"/>
	<path d="M25.987 28l-2.016-.05s.762 6.816-5.977 6.816-5.977-6.816-5.977-6.816L10 28c-1.229 2.076-1.016 8-1.016 8h18.018c.001 0 .214-5.924-1.015-8z" fill="#744EAA" ts:gender="neutral"/>
	<path d="M12.016 27.95s-.157 6.817 3.987 6.817V36H8.984S8.77 30.076 10 28l2.016-.05z " fill="#744EAA" ts:gender="male"/>
	<path d="M23.971,27.95 s.157 6.817-3.987 6.817V36h7.019s.214-5.924-1.016-8l-2.016-.05z" fill="#744EAA" ts:gender="male"/>
	<path d="M18.105 8.739s9.223 2.397 10.636 6.713c.616-1.318.974-4.201.974-5.829 0-4.952-3.87-8.539-10.159-8.539h-2.903c-5.321 0-10.159 3.588-10.159 8.539 0 1.628.358 4.726.973 6.043 1.415-4.318 10.638-6.927 10.638-6.927z" fill="#744EAA" ts:gender="neutral"/>
	<path d="M18 8.934s7.149 1.858 8.245 5.204c.478-1.021.755-3.257.755-4.518C27 5.781 24 3 19.125 3h-2.25C12.75 3 9 5.781 9 9.62c0 1.262.277 3.664.754 4.684C10.851 10.957 18 8.934 18 8.934z" fill="#744EAA" ts:gender="male"/>
	<path d="M29.696 10.342c-1.801-1.439-3.926-2.627-5.95-3.301-.471-.157-.974.098-1.13.564-.156.468.097.974.564 1.13 2.149.716 4.508 2.15 6.298 3.787.117-.805.196-1.714.218-2.18z " fill="#CBB7EA" ts:gender="neutral"/>
	<path d="M28.968 6.102c-.037-.005-.108 0-.146 0-3.657 0-7.357.916-11.001 2.719.18-.054.284-.082.284-.082s1.052.273 2.498.801c2.743-1.09 5.499-1.652 8.219-1.652.262 0 .521.018.739.068-.096-.541-.319-1.305-.593-1.854z" fill="#CBB7EA" ts:gender="neutral"/>
	<path d="M6.646,11.805 c2.589-1.852 11.253-7.429 21.153-7.506-.61-.703-1.269-1.209-2.037-1.687-8.651.642-16.031 4.952-19.26 7.122.012.587.059 1.307.144 2.071z" fill="#CBB7EA" ts:gender="neutral"/>
	<path d="M6.737 7.58c3.195-2.046 9.161-4.995 15.921-6.172-1.026-.304-1.994-.324-3.102-.324H17.28c-3.515 1.366-6.647 2.395-9.059 3.724-.691.875-1.205 1.696-1.484 2.772z" fill="#CBB7EA" ts:gender="neutral"/>
	<path fill="#CBB7EA" d="M26.985 10.177c-1.396-1.115-3.044-2.037-4.612-2.559-.365-.122-.755.076-.876.437-.121.363.075.755.438.876 1.666.555 3.495 1.666 4.882 2.935.09-.623.151-1.328.168-1.689z" ts:gender="male"/>
	<path d="M26.421 6.89c-.028-.004-.084 0-.113 0-2.835 0-5.703.71-8.528 2.108.139-.042.22-.064.22-.064s.815.212 1.937.621c2.126-.845 4.263-1.28 6.371-1.28.203 0 .404.014.573.052-.075-.419-.248-1.011-.46-1.437z" fill="#CBB7EA" ts:gender="male"/>
	<path fill="#CBB7EA" d="M9.117 11.311c2.007-1.436 8.723-5.759 16.398-5.819-.473-.545-.984-.937-1.579-1.308-6.706.498-12.428 3.839-14.931 5.522.01.455.046 1.013.112 1.605z" ts:gender="male"/>
	<path d="M9.188 8.036c2.477-1.586 7.101-3.872 12.342-4.784C20.734 3.016 19.983 3 19.125 3H17.36c-2.725 1.059-5.152 1.857-7.022 2.887-.536.678-.934 1.314-1.15 2.149z" fill="#CBB7EA" ts:gender="male"/>
	<path d="M18.005 32.04c4.09 0 5.453-4.09 5.453-4.09h1.363s0 6.816-6.816 6.816-6.816-6.816-6.816-6.816h1.363s1.364 4.09 5.453 4.09z" fill="#FFCC4D" ts:gender="neutral"/>
	<path d="M18 29c3 0 4-3 4-3h1s0 5-5 5-5-5-5-5h1s1 3 4 3z" fill="#FFCC4D" ts:gender="female"/>
	<ellipse cx="18" cy="4" fill="#FFCC4D" rx="3" ry="2" ts:gender="female"/>
	<path d="M17.782 4.808h.935c.887 0 1.612.726 1.612 1.612v3.065c0 .887-.726 1.612-1.612 1.612h-.935c-.887 0-1.612-.726-1.612-1.612V6.42c0-.886.726-1.612 1.612-1.612z" fill="#FFD983" ts:gender="neutral"/>
	<path d="M18.112 5.887c.887 0 1.612.726 1.612 1.612V9.15c0 .887-.726 1.612-1.612 1.612-.887 0-1.612-.726-1.612-1.612V7.499c0-.887.726-1.612 1.612-1.612z" fill="#FFD983" ts:gender="male"/>
	<path d="M17.995 6.102h.511c.484 0 .881.396.881.881v1.94c0 .484-.396.881-.881.881h-.511c-.484 0-.881-.396-.881-.881v-1.94c0-.484.396-.881.881-.881z" fill="#FFAC33" ts:gender="neutral"/>
	<path d="M18.112 6.89c.484 0 .881.396.881.881v1.108c0 .484-.396.881-.881.881-.484 0-.881-.396-.881-.881V7.771c.001-.485.397-.881.881-.881z" fill="#FFAC33" ts:gender="male"/>
	<path d="M26.546 20.159c.032-.204-.107-.396-.312-.428-.209-.039-.396.108-.428.312-.01.064-1.072 6.251-7.231 6.625.111-.968-.078-1.805-.088-1.846-.063-.27-.334-.44-.602-.372-.269.063-.435.332-.372.601.002.009.178.784.052 1.627-6.269-.28-7.328-6.37-7.37-6.636-.033-.204-.224-.344-.429-.312-.204.032-.344.224-.312.428.008.049.567 3.305 3.133 5.45.007.017.026.04.07.078.749.646 3.923 3.988 5.34 4.061v.001l.004-.001.004.001v-.001c1.416-.073 4.591-3.415 5.34-4.061.043-.037.062-.06.07-.077 2.564-2.144 3.124-5.401 3.131-5.45z" fill="#000000" ts:gender="male"/>
	<path d="M18.052 3C26.107 3 29 9.197 29 15.123S26.107 23 26.107 23s1-1.951 0-3.902-1-5.854-1-5.854-2.879-.286-5-.976c-3-.976-4-1.951-4-1.951s-3 2.927-5 2.927c0 0 0 1.951-1 4.878-.632 1.851 0 4.878 0 4.878s-3-2.927-3-8.78S9.996 3 18.052 3z" fill="#292F33" ts:gender="female"/>
	<ellipse cx="10.413" cy="16.5" fill="#88C9F9" rx="1.5" ry="2.5" transform="rotate(-21.844 10.413 16.5)" ts:gender="female"/>
	<ellipse cx="25.587" cy="16.5" fill="#88C9F9" rx="2.5" ry="1.5" transform="rotate(-68.155 25.587 16.5)" ts:gender="female"/>
</svg>
