<svg viewBox="0 0 36 36" xmlns="http://www.w3.org/2000/svg" xmlns:ts="data:,a">
	<!-- TODO: there is a minor layering issue with the neck + chin strap etc. -->
	<!-- body -->
	<path d="M29.192 36v-1c0-3.314-2.686-6-6-6H11.808c-2.761 0-5 2.239-5 5v2h22.384z" fill="#DD2E44" ts:gender="neutral"/>
	<path d="M30 36v-1c0-3.313-1.687-6-5-6H11c-3.313 0-5 2.687-5 6v1h24z" fill="#DD2E44" ts:gender="male"/>
	<path d="M28 36v-2.5c0-3.313-1.687-5.5-5-5.5H13c-3.313 0-5 2.187-5 5.5V36h20z" fill="#DD2E44" ts:gender="female"/>
	
	<path d="M9 18c0 4.971 4.029 5 9 5s9-.029 9-5c0-.153-4.563-.998-9-1-4.562-.002-9 .843-9 1z" fill="#292F33" ts:gender="neutral"/>
	<path d="M27 6c0-3.3-2.7-6-6-6h-6c-3.3 0-6 2.7-6 6v12c0 4.971 4.029 5 9 5s9-.029 9-5V6z" fill="#292F33" ts:gender="male,female"/>
	<!-- back hair -->
	<use href="defs.svg#hair_neutral" transform="translate(20.76 9.97) scale(.767)" ts:skin="hair" ts:gender="neutral"/>
	<path d="M18 18H9.679s-.016 1.731.01 2.844c.06 2.517.342 5.496 1.539 5.496 1.594 0 3.616-1.549 6.715-1.549 3.099 0 5.166 1.549 6.715 1.549 1.293 0 1.506-1.09 1.542-5.345.008-.846.009-2.995.009-2.995H18z" ts:skin="hair" ts:gender="female"/>
	
	<!-- neck -->
	<path d="M14.587 29.169l3.414 1.493 3.415-1.493v-3.415h-6.829z" ts:skin="skin" ts:gender="neutral"/>
	<path d="M14.626 29.456c1.344.976 2.195 1.194 3.36 1.194s2.016-.218 3.36-1.194v-2.938h-6.721v2.938z" ts:skin="skin" ts:gender="male"/>
	<path d="M14.587 27.558c1.038 1.173 2.011 1.467 3.411 1.467 1.399 0 2.379-.295 3.418-1.467v-3.414h-6.829v3.414z" ts:skin="dark" ts:gender="neutral"/>
	<path d="M14.62 27.816c.938 1.059 2.1 1.345 3.364 1.345 1.264 0 2.426-.287 3.364-1.345v-2.691H14.62v2.691z" ts:skin="dark" ts:gender="male"/>
	<!-- face -->
	<path d="M c-.495-.685-1.129-1.237-2.518-1.433.521.239 1.02 1.064 1.086 1.52.065.456.13.825-.282.369-1.653-1.827-3.452-1.107-5.236-2.223-1.246-.779-1.625-1.641-1.625-1.641s-.152 1.151-2.041 2.323c-.548.34-1.201 1.097-1.563 2.214-.261.803-.18 1.52-.18 2.744 0 3.574 2.945 6.578 6.578 6.578s6.578-3.031 6.578-6.578c0-2.223-.233-3.092-.797-3.873z" ts:skin="skin" ts:gender="neutral"/>
	<path d="M25.565 20.08c0-1.116-.565-2.021-1.263-2.021-.064 0-.125.015-.186.03-.009-.03-.016-.06-.026-.089H11.883c-.01.029-.016.059-.026.089-.061-.015-.123-.03-.186-.03-.698 0-1.263.905-1.263 2.021 0 1.025.479 1.863 1.097 1.994.489 3.734 3.201 6.595 6.482 6.595s5.993-2.861 6.482-6.595c.618-.132 1.096-.969 1.096-1.994z" ts:skin="skin" ts:gender="male"/>
	<path d="M24.94 18.883c0-.298-.013-.592-.035-.883H10.983c-.022.291-.035.585-.035.883 0 3.545 1.598 6.483 3.915 7.881v1.749c1.249.907 2.041 1.153 3.124 1.153 1.083 0 1.874-.246 3.124-1.153v-1.799c2.27-1.418 3.829-4.329 3.829-7.831z" ts:skin="skin" ts:gender="female"/>
	<!-- eyes -->
	<rect x="14.25" y="18.549" width="1.462" height="2.193" rx="0.731" ts:skin="eyes2" ts:gender="neutral"/><rect x="20.098" y="18.549" width="1.462" height="2.193" rx="0.731" ts:skin="eyes2" ts:gender="neutral"/>
	<rect x="14.133" y="18.587" width="1.542" height="2.313" rx="0.771" ts:skin="eyes" ts:gender="male"/><rect x="20.298" y="18.587" width="1.542" height="2.313" rx="0.771" ts:skin="eyes" ts:gender="male"/>
	<rect x="14.381" y="18.569" width="1.441" height="2.162" rx="0.652" ts:skin="eyes" ts:gender="female"/><rect x="20.145" y="18.569" width="1.441" height="2.162" rx="0.652" ts:skin="eyes" ts:gender="female"/>
	<!-- nose -->
	<rect x="16.809" y="22.57" width="2.192" height="0.73" rx="0.365" ts:skin="nose" ts:gender="neutral"/>
	<rect x="16.831" y="21.864" width="2.312" height="1.156" rx="0.578" ts:skin="nose" ts:gender="male"/>
	<rect x="16.903" y="22.107" width="2.161" height="0.851" rx="0.385" ts:skin="nose" ts:gender="female"/>
	<!-- mouth -->
	<path d="M18.001 26.352c-2.112 0-2.76-.541-2.869-.65-.196-.196-.196-.514 0-.711.19-.19.495-.195.692-.018.04.028.553.374 2.177.374 1.687 0 2.175-.372 2.179-.376.196-.195.504-.186.7.011.196.196.186.523-.011.72-.107.109-.756.65-2.868.65" ts:skin="nose" ts:gender="neutral"/>
	<path d="M17.987 26.143c-2.123 0-2.774-.544-2.884-.653-.197-.197-.197-.517 0-.714.191-.191.497-.197.695-.018.04.029.556.376 2.188.376 1.695 0 2.186-.374 2.191-.377.197-.196.506-.187.704.01.197.197.187.527-.011.724-.109.108-.761.652-2.883.652z " ts:skin="nose" ts:gender="male"/>
	<path d="M17.944 25.551c-1.368 0-2.084-.676-2.161-.754-.228-.228-.228-.597 0-.824.226-.225.59-.227.819-.006.03.027.47.418 1.342.418.885 0 1.325-.402 1.344-.419.232-.218.599-.211.821.017.221.229.221.589-.003.814-.078.077-.794.754-2.162.754z" fill="#DF1F32" ts:gender="female"/> <!-- smaller -->
	
	<path d="M17.5 31h1v5h-1z" fill="#F5F8FA" ts:gender="neutral,male"/>
	<path d="M17.5 30h1v6h-1z" fill="#F5F8FA" ts:gender="female"/>
	<path d="M12.943 30.461l-4.34.737c-.253.043-.493-.144-.533-.416l-.146-.988c-.04-.272.134-.529.388-.572l4.34-.737c.253-.043.493.144.534.416l.146.988c.039.271-.135.529-.389.572z " fill="#292F33" ts:gender="neutral"/>
	<path d="M12.578 30.461l-4.653.737c-.272.043-.529-.144-.572-.416l-.156-.988c-.043-.272.144-.529.416-.572l4.653-.737c.272-.043.529.144.572.416l.156.988c.043.271-.144.529-.416.572z " fill="#292F33" ts:gender="male"/>
	<path d="M13.578 29.492l-4.653.737c-.272.043-.529-.144-.572-.416l-.156-.988c-.043-.272.144-.529.416-.572l4.653-.737c.272-.043.529.144.572.416l.156.988c.043.271-.144.529-.416.572z " fill="#292F33" ts:gender="female"/>
	<path d="M23.081,30.461 l4.34.737c.253.043.493-.144.534-.416l.146-.988c.04-.272-.134-.529-.388-.572l-4.34-.737c-.253-.043-.493.144-.534.416l-.146.988c-.04.271.135.529.388.572z" fill="#292F33" ts:gender="neutral"/>
	<path d="M23.448,30.461 l4.653.737c.272.043.529-.144.572-.416l.156-.988c.043-.272-.144-.529-.416-.572l-4.653-.737c-.272-.043-.529.144-.572.416l-.156.988c-.043.271.144.529.416.572z" fill="#292F33" ts:gender="male"/>
	<path d="M22.448,29.492 l4.653.737c.272.043.529-.144.572-.416l.156-.988c.043-.272-.144-.529-.416-.572l-4.653-.737c-.272-.043-.529.144-.572.416l-.156.988c-.043.271.144.529.416.572z" fill="#292F33" ts:gender="female"/>
	<path d="M21.38 27.816C21.38 29.391 19.144 30 18 30s-3.38-.609-3.38-2.184c0 0-.62-.127-.62 1.184s1.888 3 4 3 4-1.689 4-3-.62-1.184-.62-1.184z" fill="#292F33" ts:gender="neutral,male"/>
	<path d="M21.13 26.971c0 1.459-2.071 2.022-3.13 2.022-1 0-3.13-.563-3.13-2.022 0 0-.574-.117-.574 1.096 0 1.214 1.704 2.778 3.704 2.778 1.956 0 3.704-1.564 3.704-2.778 0-1.213-.574-1.096-.574-1.096z" fill="#292F33" ts:gender="female"/>
	<path d="M27 18V6c0-3.3-2.7-6-6-6h-6c-3.3 0-6 2.7-6 6v12h18z" fill="#292F33" ts:gender="neutral"/>
	<path d="M11.875 18s-.174 9.414 6.113 9.414S24.125 18 24.125 18H25s-.307 10.461-7 10.461S11 18 11 18h.875z" fill="#99AAB5" ts:gender="neutral"/>
	<path d="M11.875 18s-.174 9 6.113 9 6.137-9 6.137-9H25s-.307 10-7 10-7-10-7-10h.875z" fill="#99AAB5" ts:gender="male,female"/>
</svg>
