<svg viewBox="0 0 36 36" xmlns="http://www.w3.org/2000/svg" xmlns:ts="data:,a">
	<!--
		TODO: there is a minor layering issue with the neck + chin strap etc.
ALSO: we should make all the variants like the neutral one (where the face is layered between 2 hat layers, rather than just cutting off the top of the head)
	-->
	<!-- body -->
	<path d="M29.192 36v-1c0-3.314-2.686-6-6-6H11.808c-2.761 0-5 2.239-5 5v2h22.384z" fill="#DD2E44" ts:gender="neutral"/>
	<path d="M30 36v-1c0-3.313-1.687-6-5-6H11c-3.313 0-5 2.687-5 6v1h24z" fill="#DD2E44" ts:gender="male"/>
	<path d="M28 36v-2.5c0-3.313-1.687-5.5-5-5.5H13c-3.313 0-5 2.187-5 5.5V36h20z" fill="#DD2E44" ts:gender="female"/>
	<!-- hat (behind) -->
	<path d="M9 18c0 4.971 4.029 5 9 5s9-.029 9-5c0-.153-4.563-.998-9-1-4.562-.002-9 .843-9 1z" fill="#292F33" ts:gender="neutral"/>
	<path d="M27 6c0-3.3-2.7-6-6-6h-6c-3.3 0-6 2.7-6 6v12c0 4.971 4.029 5 9 5s9-.029 9-5V6z" fill="#292F33" ts:gender="male,female"/>
	<!-- back hair -->
	<use href="defs.svg#hair_neutral1" transform="translate(17.905 28.051) scale(0.731)" ts:skin="hair" ts:gender="neutral"/>
	<path d="M18 18H9.679s-.016 1.731.01 2.844c.06 2.517.342 5.496 1.539 5.496 1.594 0 3.616-1.549 6.715-1.549 3.099 0 5.166 1.549 6.715 1.549 1.293 0 1.506-1.09 1.542-5.345.008-.846.009-2.995.009-2.995H18z" ts:skin="hair" ts:gender="female"/> <!-- scale: 0.755 -->
	<!-- neck -->
	<path d="M 18.001,30.662 l -3.414,-1.493 v -3.415 h 6.829 v 3.415 l -3.415,1.493 Z" ts:skin="skin" ts:gender="neutral"/>
	<path d="M 17.986,30.65 c -1.165,0 -2.016,-0.218 -3.36,-1.194 h -0.001 v -2.938 h 6.721 v 2.938 c -1.344,0.976 -2.195,1.194 -3.36,1.194 Z" ts:skin="skin" ts:gender="male"/>
	<path d="M 17.998,29.025 c -1.4,0 -2.373,-0.294 -3.411,-1.467 v -3.414 h 6.829 v 3.414 c -1.039,1.172 -2.019,1.467 -3.418,1.467 Z" ts:skin="dark" ts:gender="neutral"/>
	<path d="M 17.984,29.161 c -1.264,0 -2.426,-0.286 -3.364,-1.345 v -2.691 h 6.728 v 2.691 c -0.938,1.058 -2.1,1.345 -3.364,1.345 Z" ts:skin="dark" ts:gender="male"/>
	<!-- face -->
	<use href="defs.svg#face_neutral1" transform="translate(17.905 28.051) scale(0.731)" ts:skin="skin" ts:gender="neutral"/>
	<path d="M 17.987,28.669 c -3.281,0 -5.993,-2.861 -6.482,-6.595 c -0.618,-0.131 -1.097,-0.969 -1.097,-1.994 c 0,-1.116 0.565,-2.021 1.263,-2.021 c 0.063,0 0.125,0.015 0.186,0.03 c 0.01,-0.03 0.016,-0.06 0.026,-0.089 h 12.207 c 0.01,0.029 0.017,0.059 0.026,0.089 c 0.061,-0.015 0.122,-0.03 0.186,-0.03 c 0.698,0 1.263,0.905 1.263,2.021 c 0,1.025 -0.478,1.862 -1.096,1.994 c -0.489,3.734 -3.201,6.595 -6.482,6.595 Z" ts:skin="skin" ts:gender="male"/>
	<path d="M 17.987,29.666 c -1.083,0 -1.875,-0.246 -3.124,-1.153 v -1.749 c -2.317,-1.398 -3.915,-4.336 -3.915,-7.881 c 0,-0.298 0.013,-0.592 0.035,-0.883 h 13.922 c 0.022,0.291 0.035,0.585 0.035,0.883 c 0,3.502 -1.559,6.413 -3.829,7.831 v 1.799 c -1.25,0.907 -2.041,1.153 -3.124,1.153 Z" ts:skin="skin" ts:gender="female"/>
	<!-- eyes -->
	<use href="defs.svg#eyes_male" transform="translate(17.905 19.6455) scale(0.731)" ts:skin="eyes" ts:gender="neutral"/>
	<use href="defs.svg#eyes_male" transform="translate(17.9865 19.7435) scale(0.771)" ts:skin="eyes" ts:gender="male"/>
	<rect x="14.381" y="18.569" width="1.441" height="2.162" rx="0.652" ts:skin="eyes" ts:gender="female"/><rect x="20.145" y="18.569" width="1.441" height="2.162" rx="0.652" ts:skin="eyes" ts:gender="female"/> <!-- ?? -->
	<!-- nose -->
	<use href="defs.svg#nose_neutral1" transform="translate(17.905 22.935) scale(0.731)" ts:skin="nose" ts:gender="neutral"/>
	<use href="defs.svg#nose_male" transform="translate(17.987 22.442) scale(0.771)" ts:skin="nose" ts:gender="male"/>
	<rect x="16.903" y="22.107" width="2.161" height="0.851" rx="0.385" ts:skin="nose" ts:gender="female"/> <!-- ?? -->
	<!-- mouth -->
	<use href="defs.svg#mouth_male_big" transform="translate(18.001 25.8495) scale(0.5025)" ts:skin="mouth" ts:gender="neutral"/>
	<use href="defs.svg#mouth_neutral" transform="translate(17.987 26.143) scale(0.771)" ts:skin="mouth" ts:gender="male"/>
	<use href="defs.svg#mouth_female_big" transform="translate(17.944 24.968) scale(0.583)" ts:skin="mouth" ts:gender="female"/>
	<!-- line -->
	<path d="M17.5 30.5h1V36h-1z" fill="#F5F8FA"/>
	<!--  -->
	<path d="M12.943 30.461l-4.34.737c-.253.043-.493-.144-.533-.416l-.146-.988c-.04-.272.134-.529.388-.572l4.34-.737c.253-.043.493.144.534.416l.146.988c.039.271-.135.529-.389.572z " fill="#292F33" ts:gender="neutral"/>
	<path d="M12.578 30.461l-4.653.737c-.272.043-.529-.144-.572-.416l-.156-.988c-.043-.272.144-.529.416-.572l4.653-.737c.272-.043.529.144.572.416l.156.988c.043.271-.144.529-.416.572z " fill="#292F33" ts:gender="male"/>
	<path d="M13.578 29.492l-4.653.737c-.272.043-.529-.144-.572-.416l-.156-.988c-.043-.272.144-.529.416-.572l4.653-.737c.272-.043.529.144.572.416l.156.988c.043.271-.144.529-.416.572z " fill="#292F33" ts:gender="female"/>
	<path d="M23.081,30.461 l4.34.737c.253.043.493-.144.534-.416l.146-.988c.04-.272-.134-.529-.388-.572l-4.34-.737c-.253-.043-.493.144-.534.416l-.146.988c-.04.271.135.529.388.572z" fill="#292F33" ts:gender="neutral"/>
	<path d="M23.448,30.461 l4.653.737c.272.043.529-.144.572-.416l.156-.988c.043-.272-.144-.529-.416-.572l-4.653-.737c-.272-.043-.529.144-.572.416l-.156.988c-.043.271.144.529.416.572z" fill="#292F33" ts:gender="male"/>
	<path d="M22.448,29.492 l4.653.737c.272.043.529-.144.572-.416l.156-.988c.043-.272-.144-.529-.416-.572l-4.653-.737c-.272-.043-.529.144-.572.416l-.156.988c-.043.271.144.529.416.572z" fill="#292F33" ts:gender="female"/>
	<!-- neck -->
	<path d="M 18,32 c -2.112,0 -4,-1.689 -4,-3 s 0.62,-1.184 0.62,-1.184 c 0,1.575 2.236,2.184 3.38,2.184 s 3.38,-0.609 3.38,-2.184 c 0,0 0.62,-0.127 0.62,1.184 s -1.888,3 -4,3 Z" fill="#292F33" ts:gender="neutral,male"/>
	<path d="M 18,30.845 c -2,0 -3.704,-1.564 -3.704,-2.778 c 0,-1.213 0.574,-1.096 0.574,-1.096 c 0,1.459 2.13,2.022 3.13,2.022 c 1.059,0 3.13,-0.563 3.13,-2.022 c 0,0 0.574,-0.117 0.574,1.096 c 0,1.214 -1.748,2.778 -3.704,2.778 Z" fill="#292F33" ts:gender="female"/>
	<!-- hat -->
	<path d="M27 18V6c0-3.3-2.7-6-6-6h-6c-3.3 0-6 2.7-6 6v12h18z" fill="#292F33" ts:gender="neutral"/>
	<!-- chin strap -->
	<path d="M11.875 18s-.174 9.414 6.113 9.414S24.125 18 24.125 18H25s-.307 10.461-7 10.461S11 18 11 18h.875z" fill="#99AAB5" ts:gender="neutral"/>
	<path d="M11.875 18s-.174 9 6.113 9 6.137-9 6.137-9H25s-.307 10-7 10-7-10-7-10h.875z" fill="#99AAB5" ts:gender="male,female"/>
</svg>
