<svg viewBox="0 0 36 36" xmlns="http://www.w3.org/2000/svg" xmlns:ts="data:,a">
	<!-- back hair -->
	<use href="defs.svg#hair_neutral" x="21.597" y="1.368" fill="#FFAC33" ts:skin="hair" ts:gender="neutral"/>
	<use href="defs.svg#hair_back_female" x="17.945" y="3.978" fill="#FFAC33" ts:skin="hair" ts:gender="female"/> <!-- wrong color hair in original -->
	<!-- body -->
	<path d="M32 36v-4c0-3.314-2.685-6-6-6H10c-3.313 0-6 2.686-6 6v4h28z" fill="#3B88C3" ts:gender="neutral,male"/>
	<path d="M31 36v-4.5c0-3.314-3.56-5.5-6.875-5.5h-12C8.812 26 5 28.186 5 31.5V36h26z" fill="#3B88C3" ts:gender="female"/>
	<!-- stethoscope -->
	<path d="M10 32.5H8c0-4.094 1.877-8.5 6-8.5v2c-3.164 0-4 4.252-4 6.5z M27,28.5 h-2c0-.411-.521-2.5-3-2.5v-2c3.533 0 5 2.931 5 4.5z" fill="#292F33" ts:gender="neutral,male"/>
	<path d="M10.5 32.5h-2c0-4.094 1.877-8.5 6-8.5v2c-3.164 0-4 4.252-4 6.5z M26.5,28.5 h-2c0-.411-.521-2.5-3-2.5v-2c3.533 0 5 2.931 5 4.5z" fill="#292F33" ts:gender="female"/>
	<path d="M30 34h-2c0-.835-.108-5-2.25-5s-2.25 4.165-2.25 5h-2c0-4.383 1.589-7 4.25-7S30 29.617 30 34z" fill="#292F33" ts:gender="neutral,male"/>
	<path d="M29.5 34h-2c0-.835-.108-5-2.25-5S23 33.165 23 34h-2c0-4.383 1.589-7 4.25-7s4.25 2.617 4.25 7z" fill="#292F33" ts:gender="female"/>
	<circle cx="9" cy="32.5" fill="#CCD6DD" r="3" ts:gender="neutral,male"/>
	<circle cx="9.5" cy="32.5" fill="#CCD6DD" r="3" ts:gender="female"/>
	<circle cx="22.5" cy="34" fill="#CCD6DD" r="1" ts:gender="neutral,male"/>
	<circle cx="22" cy="34" fill="#CCD6DD" r="1" ts:gender="female"/>
	<circle cx="29" cy="34" fill="#CCD6DD" r="1" ts:gender="neutral,male"/>
	<circle cx="28.5" cy="34" fill="#CCD6DD" r="1" ts:gender="female"/>
	<circle cx="9" cy="32.5" fill="#F5F8FA" r="2" ts:gender="neutral,male"/>
	<circle cx="9.5" cy="32.5" fill="#F5F8FA" r="2" ts:gender="female"/>
	<!-- neck -->
	<path d="M14 26l4 5.001L22 26v-4h-8z" fill="#FFDC5D" ts:skin="skin" ts:gender="neutral,male"/>
	<path d="M14.5 22.409V26l3.5 5 3.5-5v-3.591z" fill="#FFDC5D" ts:skin="skin" ts:gender="female"/>
	<path d="M14 24c1.216 1.374 2.355 1.719 3.996 1.719 1.639 0 2.787-.346 4.004-1.719v-4h-8v4z" fill="#F9CA55" ts:skin="dark" ts:gender="neutral,male"/>
	<path d="M14.5 24c1.023 1.155 2.112 1.5 3.49 1.5 1.379 0 2.487-.345 3.51-1.5v-2.937h-7V24z" fill="#F9CA55" ts:skin="dark" ts:gender="female"/>
	<!-- face -->
	<use href="defs.svg#face_neutral" x="25.413" y="11.318" fill="#FFDC5D" ts:skin="skin" ts:gender="neutral"/>
	<use href="defs.svg#face_male" x="18" y="14.959" fill="#FFDC5D" ts:skin="skin" ts:gender="male"/>
	<use href="defs.svg#face_female" x="9.734" y="14.627" fill="#FFDC5D" ts:skin="skin" ts:gender="female"/>
	<!-- hair -->
	<use href="defs.svg#hair_male" x="18" y="1.48" fill="#FFAC33" ts:skin="hair" ts:gender="male"/>
	<use href="defs.svg#hair_front_female" x="17.945" y="3.978" fill="#FFAC33" ts:skin="hair" ts:gender="female"/> <!-- wrong color hair in original -->
	<ellipse cx="9.805" cy="14.8445" rx="1.639" ry="2.6225" fill="#FFDC5D" ts:skin="skin" ts:gender="female"/><ellipse cx="26.194" cy="14.8445" rx="1.639" ry="2.6225" fill="#FFDC5D" ts:skin="skin" ts:gender="female"/>
	<!-- eyes -->
	<rect x="13.109" y="12.556" width="1.906" height="2.859" rx="0.953" fill="#662113" ts:skin="eyes2" ts:gender="neutral"/><rect x="20.734" y="12.556" width="1.906" height="2.859" rx="0.953" fill="#662113" ts:skin="eyes2" ts:gender="neutral"/>
	<rect x="13" y="12" width="2" height="3" rx="1" fill="#662113" ts:skin="eyes" ts:gender="male"/><rect x="21" y="12" width="2" height="3" rx="1" fill="#662113" ts:skin="eyes" ts:gender="male"/>
	<rect x="13.762" y="14.258" width="1.693" height="2.538" rx="0.8465" fill="#662113" ts:skin="eyes" ts:gender="female"/><rect x="20.527" y="14.258" width="1.692" height="2.538" rx="0.84625" fill="#662113" ts:skin="eyes" ts:gender="female"/>
	<!-- nose -->
	<rect x="16.444" y="17.797" width="2.86" height="0.954" rx="0.477" fill="#C1694F" ts:skin="nose" ts:gender="neutral"/>
	<rect x="16.5" y="16.25" width="3" height="1.5" rx="0.75" fill="#C1694F" ts:skin="nose" ts:gender="male"/>
	<rect x="16.723" y="18.409" width="2.537" height="1" rx="0.4235" fill="#C1694F" ts:skin="nose" ts:gender="female"/>
	<!-- mouth -->
	<path d="M18 22.731c-2.754 0-3.6-.705-3.741-.848-.256-.256-.256-.671 0-.927.248-.248.645-.255.902-.023.052.037.721.487 2.839.487 2.2 0 2.836-.485 2.842-.49.256-.255.657-.243.913.015.256.256.242.683-.014.938-.141.143-.987.848-3.741.848" fill="#C1694F" ts:skin="nose" ts:gender="neutral"/>
	<path d="M18 21.802c-2.754 0-3.6-.705-3.741-.848-.256-.256-.256-.671 0-.927.248-.248.646-.255.902-.023.052.037.721.487 2.839.487 2.2 0 2.836-.485 2.842-.49.256-.255.657-.243.913.015.256.256.242.683-.014.938-.141.143-.987.848-3.741.848" fill="#C1694F" ts:skin="nose" ts:gender="male"/>
	<path d="M17.945 22.452c-1.606 0-2.447-.794-2.537-.885-.268-.267-.268-.7 0-.967.266-.265.692-.267.961-.007.035.032.551.491 1.576.491 1.038 0 1.555-.473 1.576-.492.273-.256.703-.248.963.02.26.269.26.691-.004.955-.089.091-.929.885-2.535.885" fill="#DF1F32" ts:gender="female"/>
</svg>
