<svg viewBox="0 0 36 36" xmlns="http://www.w3.org/2000/svg" xmlns:ts="data:,a">
	<!-- back hair -->
	<path d="M21.597 1.368c-1.925-.623-6.455-.453-7.588 1.019-2.944.057-6.398 2.718-6.851 6.228-.448 3.475.551 5.088.906 7.701.403 2.96 2.067 3.907 3.397 4.303 1.914 2.529 3.949 2.421 7.366 2.421 6.672 0 9.85-4.464 10.131-12.047.17-4.586-2.521-8.059-7.361-9.625z" fill="#FFAC33" ts:skin="hair" ts:gender="neutral"/>
	<use href="defs.svg#hair_back_female" x="17.945" y="3.978" fill="#FFAC33" ts:skin="hair" ts:gender="female"/> <!-- wrong color hair in original -->
	<!-- body -->
	<path d="M32 36v-4c0-3.314-2.685-6-6-6H10c-3.313 0-6 2.686-6 6v4h28z" fill="#3B88C3" ts:gender="neutral,male"/>
	<path d="M31 36v-4.5c0-3.314-3.56-5.5-6.875-5.5h-12C8.812 26 5 28.186 5 31.5V36h26z" fill="#3B88C3" ts:gender="female"/>
	<!-- stethoscope -->
	<path d="M10 32.5H8c0-4.094 1.877-8.5 6-8.5v2c-3.164 0-4 4.252-4 6.5z M27,28.5 h-2c0-.411-.521-2.5-3-2.5v-2c3.533 0 5 2.931 5 4.5z" fill="#292F33" ts:gender="neutral,male"/>
	<path d="M10.5 32.5h-2c0-4.094 1.877-8.5 6-8.5v2c-3.164 0-4 4.252-4 6.5z M26.5,28.5 h-2c0-.411-.521-2.5-3-2.5v-2c3.533 0 5 2.931 5 4.5z" fill="#292F33" ts:gender="female"/>
	<path d="M30 34h-2c0-.835-.108-5-2.25-5s-2.25 4.165-2.25 5h-2c0-4.383 1.589-7 4.25-7S30 29.617 30 34z" fill="#292F33" ts:gender="neutral,male"/>
	<path d="M29.5 34h-2c0-.835-.108-5-2.25-5S23 33.165 23 34h-2c0-4.383 1.589-7 4.25-7s4.25 2.617 4.25 7z" fill="#292F33" ts:gender="female"/>
	<circle cx="9" cy="32.5" fill="#CCD6DD" r="3" ts:gender="neutral,male"/>
	<circle cx="9.5" cy="32.5" fill="#CCD6DD" r="3" ts:gender="female"/>
	<circle cx="22.5" cy="34" fill="#CCD6DD" r="1" ts:gender="neutral,male"/>
	<circle cx="22" cy="34" fill="#CCD6DD" r="1" ts:gender="female"/>
	<circle cx="29" cy="34" fill="#CCD6DD" r="1" ts:gender="neutral,male"/>
	<circle cx="28.5" cy="34" fill="#CCD6DD" r="1" ts:gender="female"/>
	<circle cx="9" cy="32.5" fill="#F5F8FA" r="2" ts:gender="neutral,male"/>
	<circle cx="9.5" cy="32.5" fill="#F5F8FA" r="2" ts:gender="female"/>
	<!-- neck -->
	<path d="M14 26l4 5.001L22 26v-4h-8z" fill="#FFDC5D" ts:skin="skin" ts:gender="neutral,male"/>
	<path d="M14.5 22.409V26l3.5 5 3.5-5v-3.591z" fill="#FFDC5D" ts:skin="skin" ts:gender="female"/>
	<path d="M14 24c1.216 1.374 2.355 1.719 3.996 1.719 1.639 0 2.787-.346 4.004-1.719v-4h-8v4z" fill="#F9CA55" ts:skin="dark" ts:gender="neutral,male"/>
	<path d="M14.5 24c1.023 1.155 2.112 1.5 3.49 1.5 1.379 0 2.487-.345 3.51-1.5v-2.937h-7V24z" fill="#F9CA55" ts:skin="dark" ts:gender="female"/>
	<!-- face -->
	<path d="M25.413 11.318c-.646-.894-1.472-1.614-3.284-1.868.68.311 1.331 1.387 1.416 1.982.085.595.17 1.076-.368.481-2.155-2.382-4.502-1.444-6.827-2.899-1.624-1.016-2.119-2.141-2.119-2.141s-.198 1.5-2.661 3.029c-.714.443-1.566 1.43-2.038 2.888-.34 1.048-.234 1.982-.234 3.578 0 4.66 3.841 8.578 8.578 8.578s8.578-3.953 8.578-8.578c-.001-2.899-.305-4.031-1.041-5.05z" fill="#FFDC5D" ts:skin="skin" ts:gender="neutral"/>
	<ellipse cx="9.805" cy="13.9355" rx="1.639" ry="2.6225" fill="#FFDC5D" ts:skin="skin" ts:gender="male"/><ellipse cx="26.194" cy="13.9355" rx="1.639" ry="2.6225" fill="#FFDC5D" ts:skin="skin" ts:gender="male"/>
	<ellipse cx="18" cy="14.96" rx="8.5225" ry="10.121" fill="#FFDC5D" ts:skin="skin" ts:gender="male"/>
	<path d="M9.734 14.627c0-5.834 3.676-10.563 8.211-10.563 4.533 0 8.209 4.73 8.209 10.563s-3.676 10.285-8.209 10.285c-4.535 0-8.211-4.452-8.211-10.285" fill="#FFDC5D" ts:skin="skin" ts:gender="female"/>
	<!-- hair -->
	<path d="M18 1.48c5.648 0 9.178 4.168 9.178 7.641s-.706 4.863-1.412 3.473l-1.412-2.778s-4.235 0-5.647-1.39c0 0 2.118 4.168-2.118 0 0 0 .706 2.779-3.53-.694 0 0-2.118 1.389-2.824 4.862-.196.964-1.412 0-1.412-3.473C8.822 5.648 11.646 1.48 18 1.48" fill="#FFAC33" ts:skin="hair" ts:gender="male"/>
	<use href="defs.svg#hair_front_female" x="17.945" y="3.978" fill="#FFAC33" ts:skin="hair" ts:gender="female"/> <!-- wrong color hair in original -->
	<ellipse cx="9.805" cy="14.8445" rx="1.639" ry="2.6225" fill="#FFDC5D" ts:skin="skin" ts:gender="female"/><ellipse cx="26.194" cy="14.8445" rx="1.639" ry="2.6225" fill="#FFDC5D" ts:skin="skin" ts:gender="female"/>
	<!-- eyes -->
	<rect x="13.109" y="12.556" width="1.906" height="2.859" rx="0.953" fill="#662113" ts:skin="eyes2" ts:gender="neutral"/><rect x="20.734" y="12.556" width="1.906" height="2.859" rx="0.953" fill="#662113" ts:skin="eyes2" ts:gender="neutral"/>
	<rect x="13" y="12" width="2" height="3" rx="1" fill="#662113" ts:skin="eyes" ts:gender="male"/><rect x="21" y="12" width="2" height="3" rx="1" fill="#662113" ts:skin="eyes" ts:gender="male"/>
	<rect x="13.762" y="14.258" width="1.693" height="2.538" rx="0.8465" fill="#662113" ts:skin="eyes" ts:gender="female"/><rect x="20.527" y="14.258" width="1.692" height="2.538" rx="0.84625" fill="#662113" ts:skin="eyes" ts:gender="female"/>
	<!-- nose -->
	<rect x="16.444" y="17.797" width="2.86" height="0.954" rx="0.477" fill="#C1694F" ts:skin="nose" ts:gender="neutral"/>
	<rect x="16.5" y="16.25" width="3" height="1.5" rx="0.75" fill="#C1694F" ts:skin="nose" ts:gender="male"/>
	<rect x="16.723" y="18.409" width="2.537" height="1" rx="0.4235" fill="#C1694F" ts:skin="nose" ts:gender="female"/>
	<!-- mouth -->
	<path d="M18 22.731c-2.754 0-3.6-.705-3.741-.848-.256-.256-.256-.671 0-.927.248-.248.645-.255.902-.023.052.037.721.487 2.839.487 2.2 0 2.836-.485 2.842-.49.256-.255.657-.243.913.015.256.256.242.683-.014.938-.141.143-.987.848-3.741.848" fill="#C1694F" ts:skin="nose" ts:gender="neutral"/>
	<path d="M18 21.802c-2.754 0-3.6-.705-3.741-.848-.256-.256-.256-.671 0-.927.248-.248.646-.255.902-.023.052.037.721.487 2.839.487 2.2 0 2.836-.485 2.842-.49.256-.255.657-.243.913.015.256.256.242.683-.014.938-.141.143-.987.848-3.741.848" fill="#C1694F" ts:skin="nose" ts:gender="male"/>
	<path d="M17.945 22.452c-1.606 0-2.447-.794-2.537-.885-.268-.267-.268-.7 0-.967.266-.265.692-.267.961-.007.035.032.551.491 1.576.491 1.038 0 1.555-.473 1.576-.492.273-.256.703-.248.963.02.26.269.26.691-.004.955-.089.091-.929.885-2.535.885" fill="#DF1F32" ts:gender="female"/>
</svg>
