<svg viewBox="0 0 36 36" xmlns="http://www.w3.org/2000/svg" xmlns:ts="data:,a">
	<!-- back hair -->
	<path d="M21.597 1.368c-1.925-.623-6.455-.453-7.588 1.019-2.944.057-6.398 2.718-6.851 6.228-.448 3.475.551 5.088.906 7.701.403 2.96 2.067 3.907 3.397 4.303 1.914 2.529 3.949 2.421 7.366 2.421 6.672 0 9.85-4.464 10.131-12.047.17-4.586-2.521-8.059-7.361-9.625z" fill="#FFAC33" ts:skin="#292F33|#FFE51E|#963B22|#60352A|#0B0200" ts:gender="neutral"/>
	<path d="M17.945 3.978c4.105 0 10.947 2.053 10.947 10.947 0 8.896 0 10.948-2.053 10.948s-4.79-2.053-8.895-2.053c-4.105 0-6.785 2.053-8.895 2.053-2.287 0-2.053-8.211-2.053-10.948.001-8.894 6.844-10.947 10.949-10.947" fill="#FFAC33" ts:skin="#292F33|#FFE51E|#292F33|#60352A|#0B0200" ts:gender="female"/>
	<!-- body -->
	<path d="M32 36v-4c0-3.314-2.685-6-6-6H10c-3.313 0-6 2.686-6 6v4h28z" fill="#3B88C3" ts:gender="neutral,male"/>
	<path d="M31 36v-4.5c0-3.314-3.56-5.5-6.875-5.5h-12C8.812 26 5 28.186 5 31.5V36h26z" fill="#3B88C3" ts:gender="female"/>
	<!-- stethoscope -->
	<path d="M10 32.5H8c0-4.094 1.877-8.5 6-8.5v2c-3.164 0-4 4.252-4 6.5z M27,28.5 h-2c0-.411-.521-2.5-3-2.5v-2c3.533 0 5 2.931 5 4.5z" fill="#292F33" ts:gender="neutral,male"/>
	<path d="M10.5 32.5h-2c0-4.094 1.877-8.5 6-8.5v2c-3.164 0-4 4.252-4 6.5z M26.5,28.5 h-2c0-.411-.521-2.5-3-2.5v-2c3.533 0 5 2.931 5 4.5z" fill="#292F33" ts:gender="female"/>
	<path d="M30 34h-2c0-.835-.108-5-2.25-5s-2.25 4.165-2.25 5h-2c0-4.383 1.589-7 4.25-7S30 29.617 30 34z" fill="#292F33" ts:gender="neutral,male"/>
	<path d="M29.5 34h-2c0-.835-.108-5-2.25-5S23 33.165 23 34h-2c0-4.383 1.589-7 4.25-7s4.25 2.617 4.25 7z" fill="#292F33" ts:gender="female"/>
	<circle cx="9" cy="32.5" fill="#CCD6DD" r="3" ts:gender="neutral,male"/>
	<circle cx="9.5" cy="32.5" fill="#CCD6DD" r="3" ts:gender="female"/>
	<circle cx="22.5" cy="34" fill="#CCD6DD" r="1" ts:gender="neutral,male"/>
	<circle cx="22" cy="34" fill="#CCD6DD" r="1" ts:gender="female"/>
	<circle cx="29" cy="34" fill="#CCD6DD" r="1" ts:gender="neutral,male"/>
	<circle cx="28.5" cy="34" fill="#CCD6DD" r="1" ts:gender="female"/>
	<circle cx="9" cy="32.5" fill="#F5F8FA" r="2" ts:gender="neutral,male"/>
	<circle cx="9.5" cy="32.5" fill="#F5F8FA" r="2" ts:gender="female"/>
	<!-- neck -->
	<path d="M14 26l4 5.001L22 26v-4h-8z" fill="#FFDC5D" ts:skin="#F7DECE|#F3D2A2|#D4AB88|#AF7E57|#7C533E" ts:gender="neutral,male"/>
	<path d="M14.5 22.409V26l3.5 5 3.5-5v-3.591z" fill="#FFDC5D" ts:skin="#F7DECE|#F3D2A2|#D5AB88|#AF7E57|#7C533E" ts:gender="female"/>
	<path d="M14 24c1.216 1.374 2.355 1.719 3.996 1.719 1.639 0 2.787-.346 4.004-1.719v-4h-8v4z" fill="#F9CA55" ts:skin="#EEC2AD|#E2C196|#CC9B7A|#9B6A49|#664131" ts:gender="neutral,male"/>
	<path d="M14.5 24c1.023 1.155 2.112 1.5 3.49 1.5 1.379 0 2.487-.345 3.51-1.5v-2.937h-7V24z" fill="#F9CA55" ts:skin="#EEC2AD|#E2C196|#CC9B7A|#9B6A49|#664131" ts:gender="female"/>
	<!-- face -->
	<path d="M25.413 11.318c-.646-.894-1.472-1.614-3.284-1.868.68.311 1.331 1.387 1.416 1.982.085.595.17 1.076-.368.481-2.155-2.382-4.502-1.444-6.827-2.899-1.624-1.016-2.119-2.141-2.119-2.141s-.198 1.5-2.661 3.029c-.714.443-1.566 1.43-2.038 2.888-.34 1.048-.234 1.982-.234 3.578 0 4.66 3.841 8.578 8.578 8.578s8.578-3.953 8.578-8.578c-.001-2.899-.305-4.031-1.041-5.05z" fill="#FFDC5D" ts:skin="#F7DECE|#F3D2A2|#D4AB88|#AF7E57|#7C533E" ts:gender="neutral"/>
	<path d="M9.477 14.96c0-5.589 3.816-10.121 8.523-10.121s8.522 4.532 8.522 10.121S22.707 25.081 18 25.081c-4.707-.001-8.523-4.532-8.523-10.121" fill="#FFDC5D" ts:skin="#F7DECE|#F3D2A2|#D5AB88|#AF7E57|#7C533E" ts:gender="male"/>
	<path d="M9.734 14.627c0-5.834 3.676-10.563 8.211-10.563 4.533 0 8.209 4.73 8.209 10.563s-3.676 10.285-8.209 10.285c-4.535 0-8.211-4.452-8.211-10.285" fill="#FFDC5D" ts:skin="#F7DECE|#F3D2A2|#D5AB88|#AF7E57|#7C533E" ts:gender="female"/>
	<path d="M11.444 13.936c0 1.448-.734 2.622-1.639 2.622s-1.639-1.174-1.639-2.622.734-2.623 1.639-2.623c.905-.001 1.639 1.174 1.639 2.623m16.389 0c0 1.448-.733 2.622-1.639 2.622-.905 0-1.639-1.174-1.639-2.622s.733-2.623 1.639-2.623c.906-.001 1.639 1.174 1.639 2.623" fill="#FFDC5D" ts:skin="#F7DECE|#F3D2A2|#D5AB88|#AF7E57|#7C533E" ts:gender="male"/>
	<path d="M18 1.48c5.648 0 9.178 4.168 9.178 7.641s-.706 4.863-1.412 3.473l-1.412-2.778s-4.235 0-5.647-1.39c0 0 2.118 4.168-2.118 0 0 0 .706 2.779-3.53-.694 0 0-2.118 1.389-2.824 4.862-.196.964-1.412 0-1.412-3.473C8.822 5.648 11.646 1.48 18 1.48" fill="#FFAC33" ts:skin="#292F33|#FFE51E|#963B22|#60352A|#0B0200" ts:gender="male"/>
	<path d="M7.725 17.909c-.021-1-.044-.224-.044-.465 0-3.422 2.053.494 2.053-1.943 0-2.439 1.368-2.683 2.736-4.051.685-.685 2.053-2.026 2.053-2.026s3.421 2.067 6.158 2.067c2.736 0 5.474 1.375 5.474 4.112 0 2.736 2.053-1.584 2.053 1.837 0 .244-.023-.531-.04.469h.719c.006-2 .006-1.924.006-3.202 0-8.894-6.842-12.207-10.948-12.207-4.105 0-10.948 3.257-10.948 12.152 0 .793-.02 1.257.008 3.257h.72z" fill="#FFAC33" ts:skin="#292F33|#FFE51E|#292F33|#60352A|#0B0200" ts:gender="female"/>
	<path d="M11.444 14.845c0 1.448-.734 2.622-1.639 2.622s-1.639-1.174-1.639-2.622.734-2.623 1.639-2.623 1.639 1.174 1.639 2.623m16.389 0c0 1.448-.733 2.622-1.639 2.622-.905 0-1.639-1.174-1.639-2.622s.733-2.623 1.639-2.623 1.639 1.174 1.639 2.623" fill="#FFDC5D" ts:skin="#F7DECE|#F3D2A2|#D5AB88|#AF7E57|#7C533E" ts:gender="female"/>
	<!-- eyes -->
	<path d="M14.062 15.415c-.526 0-.953-.427-.953-.953v-.953c0-.526.427-.953.953-.953s.953.427.953.953v.953c0 .526-.427.953-.953.953z M21.687,15.415 c-.526 0-.953-.427-.953-.953v-.953c0-.526.427-.953.953-.953s.953.427.953.953v.953c0 .526-.427.953-.953.953z" fill="#662113" ts:skin="#662113|#662113|#662113|#662113|#000000" ts:gender="neutral"/>
	<path d="M14 15c-.55 0-1-.45-1-1v-1c0-.55.45-1 1-1s1 .45 1 1v1c0 .55-.45 1-1 1m8 0c-.55 0-1-.45-1-1v-1c0-.55.45-1 1-1s1 .45 1 1v1c0 .55-.45 1-1 1" fill="#662113" ts:skin="#662113|#662113|#662113|#60352A|#000000" ts:gender="male"/>
	<path d="M14.608 16.796c-.465 0-.846-.381-.846-.847v-.845c0-.465.381-.846.846-.846.466 0 .847.381.847.846v.845c0 .466-.381.847-.847.847m6.765 0c-.465 0-.846-.381-.846-.847v-.845c0-.465.381-.846.846-.846.465 0 .846.381.846.846v.845c0 .466-.381.847-.846.847" fill="#662113" ts:skin="#662113|#662113|#662113|#60352A|#000000" ts:gender="female"/>
	<!-- nose -->
	<path d="M18.827 18.751h-1.906c-.263 0-.477-.213-.477-.477s.213-.477.477-.477h1.906c.263 0 .477.213.477.477s-.213.477-.477.477z" fill="#C1694F" ts:skin="#C1694F|#C1694F|#C1694F|#915A34|#3D2E24" ts:gender="neutral"/>
	<path d="M18.75 17.75h-1.5c-.413 0-.75-.337-.75-.75s.337-.75.75-.75h1.5c.413 0 .75.337.75.75s-.337.75-.75.75" fill="#C1694F" ts:skin="#C1694F|#C1694F|#C1694F|#915A34|#3D2E24" ts:gender="male"/>
	<path d="M18.836 19.409h-1.69c-.233 0-.423-.19-.423-.423v-.153c0-.233.189-.424.423-.424h1.69c.233 0 .424.19.424.424v.153c0 .234-.191.423-.424.423" fill="#C1694F" ts:skin="#C1694F|#C1694F|#C1694F|#915A34|#3D2E24" ts:gender="female"/>
	<!-- mouth -->
	<path d="M18 22.731c-2.754 0-3.6-.705-3.741-.848-.256-.256-.256-.671 0-.927.248-.248.645-.255.902-.023.052.037.721.487 2.839.487 2.2 0 2.836-.485 2.842-.49.256-.255.657-.243.913.015.256.256.242.683-.014.938-.141.143-.987.848-3.741.848" fill="#C1694F" ts:skin="#C1694F|#C1694F|#C1694F|#915A34|#3D2E24" ts:gender="neutral"/>
	<path d="M18 21.802c-2.754 0-3.6-.705-3.741-.848-.256-.256-.256-.671 0-.927.248-.248.646-.255.902-.023.052.037.721.487 2.839.487 2.2 0 2.836-.485 2.842-.49.256-.255.657-.243.913.015.256.256.242.683-.014.938-.141.143-.987.848-3.741.848" fill="#C1694F" ts:skin="#C1694F|#C1694F|#C1694F|#915A34|#3D2E24" ts:gender="male"/>
	<path d="M17.945 22.452c-1.606 0-2.447-.794-2.537-.885-.268-.267-.268-.7 0-.967.266-.265.692-.267.961-.007.035.032.551.491 1.576.491 1.038 0 1.555-.473 1.576-.492.273-.256.703-.248.963.02.26.269.26.691-.004.955-.089.091-.929.885-2.535.885" fill="#DF1F32" ts:gender="female"/>
</svg>
