<svg viewBox="0 0 36 36" xmlns="http://www.w3.org/2000/svg" xmlns:ts="data:,a">
	<!-- back hair -->
	<use href="defs.svg#hair_neutral" x="21.597" y="1.368" ts:skin="hair" ts:gender="neutral"/>
	<use href="defs.svg#hair_back_female" x="17.945" y="3.978" ts:skin="hair" ts:gender="female"/> <!-- wrong color hair in original -->
	<!-- body -->
	<use href="defs.svg#shoulders_male_tall" x="18" fill="#3B88C3" ts:gender="neutral,male"/>
	<path d="M31 36v-4.5c0-3.314-3.56-5.5-6.875-5.5h-12C8.812 26 5 28.186 5 31.5V36h26z" fill="#3B88C3" ts:gender="female"/>
	<!-- stethoscope -->
	<path d="M10 32.5H8c0-4.094 1.877-8.5 6-8.5v2c-3.164 0-4 4.252-4 6.5z M27,28.5 h-2c0-.411-.521-2.5-3-2.5v-2c3.533 0 5 2.931 5 4.5z" fill="#292F33" ts:gender="neutral,male"/>
	<path d="M10.5 32.5h-2c0-4.094 1.877-8.5 6-8.5v2c-3.164 0-4 4.252-4 6.5z M26.5,28.5 h-2c0-.411-.521-2.5-3-2.5v-2c3.533 0 5 2.931 5 4.5z" fill="#292F33" ts:gender="female"/>
	<path d="M30 34h-2c0-.835-.108-5-2.25-5s-2.25 4.165-2.25 5h-2c0-4.383 1.589-7 4.25-7S30 29.617 30 34z" fill="#292F33" ts:gender="neutral,male"/>
	<path d="M29.5 34h-2c0-.835-.108-5-2.25-5S23 33.165 23 34h-2c0-4.383 1.589-7 4.25-7s4.25 2.617 4.25 7z" fill="#292F33" ts:gender="female"/>
	<circle cx="9" cy="32.5" fill="#CCD6DD" r="3" ts:gender="neutral,male"/>
	<circle cx="9.5" cy="32.5" fill="#CCD6DD" r="3" ts:gender="female"/>
	<circle cx="22.5" cy="34" fill="#CCD6DD" r="1" ts:gender="neutral,male"/>
	<circle cx="22" cy="34" fill="#CCD6DD" r="1" ts:gender="female"/>
	<circle cx="29" cy="34" fill="#CCD6DD" r="1" ts:gender="neutral,male"/>
	<circle cx="28.5" cy="34" fill="#CCD6DD" r="1" ts:gender="female"/>
	<circle cx="9" cy="32.5" fill="#F5F8FA" r="2" ts:gender="neutral,male"/>
	<circle cx="9.5" cy="32.5" fill="#F5F8FA" r="2" ts:gender="female"/>
	<!-- neck -->
	<path d="M 14,26 v -4 h 8 v 4 l -4,5 l -4,-5 Z" ts:skin="skin" ts:gender="neutral,male"/>
	<path d="M 14.5,22.5 h 7 v 3.5 l -3.5,5 l -3.5,-5 v -3.5 Z" ts:skin="skin" ts:gender="female"/>
	
	<path d="M14 24c1.216 1.374 2.355 1.719 3.996 1.719 1.639 0 2.787-.346 4.004-1.719v-4h-8v4z" ts:skin="dark" ts:gender="neutral,male"/>
	<path d="M14.5 24c1.023 1.155 2.112 1.5 3.49 1.5 1.379 0 2.487-.345 3.51-1.5v-2.937h-7V24z" ts:skin="dark" ts:gender="female"/>
	<!-- face -->
	<use href="defs.svg#face_neutral" x="25.413" y="11.318" ts:skin="skin" ts:gender="neutral"/>
	<use href="defs.svg#face_male" x="18" y="14.959" ts:skin="skin" ts:gender="male"/>
	<use href="defs.svg#face_female" x="9.734" y="14.627" ts:skin="skin" ts:gender="female"/>
	<!-- hair -->
	<use href="defs.svg#hair_male" x="18" y="1.48" ts:skin="hair" ts:gender="male"/>
	<use href="defs.svg#hair_front_female" x="17.945" y="3.978" ts:skin="hair" ts:gender="female"/> <!-- wrong color hair in original -->
	<use href="defs.svg#ears_female" x="18" y="14.8355" ts:skin="skin" ts:gender="female"/>
	<!-- eyes -->
	<use href="defs.svg#eyes_neutral" x="17.8745" y="13.9855" ts:skin="eyes2" ts:gender="neutral"/>
	<use href="defs.svg#eyes_male" x="18" y="13.5" ts:skin="eyes" ts:gender="male"/>
	<use href="defs.svg#eyes_female" x="17.99075" y="15.527" ts:skin="eyes" ts:gender="female"/>
	<!-- nose -->
	<use href="defs.svg#nose_neutral" x="17.874" y="18.274" ts:skin="nose" ts:gender="neutral"/>
	<use href="defs.svg#nose_male" x="18.0" y="17.0" ts:skin="nose" ts:gender="male"/>
	<use href="defs.svg#nose_female" x="17.9915" y="18.909" ts:skin="nose" ts:gender="female"/>
	<!-- mouth -->
	<use href="defs.svg#mouth_neutral" x="18" y="22.731" ts:skin="nose" ts:gender="neutral"/>
	<use href="defs.svg#mouth_neutral" x="18" y="21.802" ts:skin="nose" ts:gender="male"/>
	<use href="defs.svg#mouth_female" x="17.945" y="22.452" ts:skin="mouth" ts:gender="female"/>
</svg>
