<svg viewBox="0 0 36 36" xmlns="http://www.w3.org/2000/svg" xmlns:ts="data:,a">
	<!-- body -->
	<path d="M36 36v-2c0-3.314-2.686-6-6-6H14c-3.313 0-6 2.686-6 6v2h28z" fill="#292F33" ts:gender="neutral,male"/>
	<path d="M35 36v-3.5c0-3.314-3.685-5.5-7-5.5H16c-3.313 0-7 2.186-7 5.5V36h26z" fill="#292F33" ts:gender="female"/>
	<path d="M17 28h9.929v8H17z" fill="#E1E8ED" ts:gender="neutral,male"/>
	<!-- neck -->
	<path d="M18.328 27.02C19.794 28.085 21.292 29 22 29s2.194-.915 3.66-1.98v-3.205h-7.332v3.205z" fill="#FFDC5D" ts:skin="skin" ts:gender="female"/>
	<path d="M17.64 28.101c1.744 1.268 2.848 1.963 4.36 1.963 1.512 0 2.615-.696 4.359-1.963V24.29h-8.72v3.811z" fill="#FFDC5D" ts:skin="skin" ts:gender="neutral,male"/>
	<path d="M18.321 25.179c1.023 1.155 2.291 1.468 3.669 1.468 1.379 0 2.647-.312 3.67-1.468v-2.936h-7.339v2.936z" fill="#F9CA55" ts:skin="dark" ts:gender="female"/>
	<path d="M17.632 25.973c1.216 1.374 2.724 1.746 4.364 1.746 1.639 0 3.146-.373 4.363-1.746v-3.491h-8.728v3.491z" fill="#F9CA55" ts:skin="dark" ts:gender="neutral,male"/>
	<!-- back hair -->
	<use href="defs.svg#hair_neutral" x="25.597" y="3.516" fill="#6D6E71" ts:gender="neutral"/>
	<ellipse cx="22.071" cy="5.337" rx="3.202" ry="2.594" fill="#6D6E71" ts:gender="female"/>
	<!-- face -->
	<use href="defs.svg#face_neutral" x="29.413" y="13.466" fill="#FFDC5D" ts:skin="skin" ts:gender="neutral"/>
	<use href="defs.svg#face_male" x="22" y="16.959" fill="#FFDC5D" ts:skin="skin" ts:gender="male"/>
	<path d="M31.799 16.362c0-1.388-.683-2.511-1.539-2.581-.89-4.841-4.213-8.444-8.188-8.444s-7.299 3.603-8.188 8.444c-.857.07-1.539 1.193-1.539 2.581 0 1.396.691 2.527 1.555 2.583.913 4.516 4.22 7.145 8.172 7.145 3.952 0 7.259-2.629 8.173-7.145.862-.056 1.554-1.187 1.554-2.583" fill="#FFDC5D" ts:skin="skin" ts:gender="female"/> <!-- shape ? -->
	<!-- hair -->
	<use href="defs.svg#hair_male" x="22" y="3.48" fill="#6D6E71" ts:gender="male"/>
	<path d="M31.799 10.525c-1.297-4.54-5.188-5.837-7.255-5.837-1.176 0-2.473.649-2.473.649s-1.297-.649-2.594-.649c-1.945 0-5.836 1.297-7.133 5.837-1.069 3.741 1.297 7.134 1.297 7.134 0-1.946 1.297-5.837 4.539-5.837 3.243 0 3.892-2.594 3.892-2.594s.51 2.594 3.753 2.594c3.242 0 4.678 3.891 4.678 5.837-.001 0 2.365-3.393 1.296-7.134" fill="#808285" ts:gender="female"/>
	<!-- moustache -->
	<use href="defs.svg#moustache1" x="26.525" y="21.346" fill="#6D6E71" ts:gender="male"/>
	<!-- eyebrows -->
	<rect x="17" y="14" width="3" height="1" rx="0.5" fill="#808285" ts:gender="female"/><rect x="24" y="14" width="3" height="1" rx="0.5" fill="#808285" ts:gender="female"/>
	<!-- eyes -->
	<use href="defs.svg#eyes_neutral" x="21.8745" y="16.1345" fill="#662113" ts:skin="eyes2" ts:gender="neutral"/>
	<use href="defs.svg#eyes_male" x="22" y="15.5" fill="#662113" ts:skin="eyes" ts:gender="male"/>
	<rect x="17.75" y="15.75" width="1.5" height="2.5" rx="0.75" fill="#662113" ts:skin="eyes" ts:gender="female"/><rect x="24.75" y="15.75" width="1.5" height="2.5" rx="0.75" fill="#662113" ts:skin="eyes" ts:gender="female"/>
	<!-- nose -->
	<use href="defs.svg#nose_neutral2" x="21.874" y="20.423" fill="#C1694F" ts:skin="nose" ts:gender="neutral"/>
	<use href="defs.svg#nose_male2" x="22.0" y="19.0" fill="#C1694F" ts:skin="nose" ts:gender="male"/>
	<rect x="20.775" y="20" width="2.594" height="1" rx="0.6485" ry="0.5" fill="#C1694F" ts:skin="nose" ts:gender="female"/> <!-- slightly off -->
	<!-- mouth -->
	<use href="defs.svg#mouth_neutral" x="22" y="24.88" fill="#C1694F" ts:skin="nose" ts:gender="neutral"/>
	<path d="M22.071 23.27c-1.634 0-2.266-.488-2.376-.586-.268-.238-.292-.648-.054-.916.229-.261.624-.291.892-.073.039.025.454.278 1.538.278 1.136 0 1.537-.277 1.541-.281.269-.238.665-.201.902.066.238.268.201.688-.067.926-.109.097-.743.586-2.376.586" fill="#DF1F32" ts:gender="female"/> <!-- squished -->
	<!-- earrings -->
	<circle cx="12.992" cy="18.307" fill="#AA8DD8" r=".649" ts:gender="female"/>
	<circle cx="31.15" cy="18.307" fill="#AA8DD8" r=".649" ts:gender="female"/>
	<!-- collar/tie -->
	<path d="M22.001 30.878s3.381 2.494 4.093 2.778c.156.063-.366-3.656-.366-3.656h-7.454s-.523 3.781-.231 3.625c.638-.343 3.958-2.747 3.958-2.747" fill="#99AAB5" ts:gender="neutral,male"/>
	<path d="M23.312 33.438s.375-.625.531-.906c.183-.329.453-1.57.453-1.57v-.963l-4.583.003v.96s.287 1.241.47 1.57c.156.281.528.906.528.906s-.753.562-1.035 2.563h4.667c-.281-1.595-1.031-2.563-1.031-2.563" fill="#269" ts:gender="male"/>
	<path d="M17.292 26.625c.566.566 4.709 3.383 4.709 3.383s-2.126 1.242-4.084 3.534c-.197.23-1.542-4.625-1.583-5.709-.012-.303.687-1.479.958-1.208m9.438 0c-.566.566-4.709 3.383-4.709 3.383s2.126 1.242 4.084 3.534c.196.23 1.542-4.625 1.583-5.709.012-.303-.687-1.479-.958-1.208" fill="#F5F8FA" ts:gender="neutral,male"/>
	<path d="M26.989 27c-.083-.667-.458-1.375-1-1-.543.376-3.936 2.952-3.995 2.996-.058-.044-3.451-2.62-3.994-2.996-.542-.375-.917.333-1 1s.333 4.667 1 5c.661.33 3.937-2.937 3.995-2.995.058.058 3.334 3.325 3.995 2.995.666-.333 1.082-4.333.999-5z" fill="#F5F8FA" ts:gender="female"/>
	<path d="M27.62 28s-1.542 5.463-5.62 7.411C17.922 33.463 16.38 28 16.38 28H15v8h14v-8h-1.38z" fill="#292F33" ts:gender="neutral,male"/>
	<path d="M12.083 33.341c.251 0 .401 2.659.401 2.659h-.956s.193-2.659.555-2.659m3 0c.251 0 .401 2.659.401 2.659h-.956s.193-2.659.555-2.659m16.846 0c-.251 0-.401 2.659-.401 2.659h.956c-.001 0-.194-2.659-.555-2.659m-3 0c-.251 0-.401 2.659-.401 2.659h.956c-.001 0-.194-2.659-.555-2.659" fill="#66757F"/>
	<!-- gavel -->
	<path d="M7.854 23.665c.468 1.24.178 2.498-.649 2.812-.826.311-1.876-.441-2.345-1.681-.468-1.239-.178-2.498.649-2.811.826-.312 1.876.44 2.345 1.68" fill="#C1694F"/>
	<path d="M9.092 36l-3.479-9.208.25-.094c1.098-.415 1.656-1.651 1.242-2.75-.415-1.097-1.652-1.656-2.75-1.241l-1.995.754c-1.098.413-1.657 1.65-1.242 2.749.414 1.098 1.652 1.656 2.749 1.241l.25-.094L7.382 36h1.71z" fill="#662113"/>
	<path d="M3.363 25.361c.468 1.24.178 2.498-.649 2.812-.826.312-1.876-.44-2.345-1.681-.468-1.239-.178-2.498.649-2.811.827-.312 1.877.44 2.345 1.68" fill="#C1694F"/>
	<!-- hand -->
	<path d="M11.318 36l-.466-1.588c-.363-1.239-1.673-1.955-2.911-1.592l-1.255.368c-1.205.354-1.907 1.604-1.61 2.812h6.242z" fill="#FFDC5D" ts:skin="skin"/>
</svg>
