<svg viewBox="0 0 36 36" xmlns="http://www.w3.org/2000/svg">
	<!-- body -->
	<path d="M36 36v-2c0-3.314-2.686-6-6-6H14c-3.313 0-6 2.686-6 6v2h28z" fill="#292F33" data-gender="neutral,male"/>
	<path d="M35 36v-3.5c0-3.314-3.685-5.5-7-5.5H16c-3.313 0-7 2.186-7 5.5V36h26z" fill="#292F33" data-gender="female"/>
	<path d="M17 28h9.929v8H17z" fill="#E1E8ED" data-gender="neutral,male"/>
	<!-- neck -->
	<path d="M18.328 27.02C19.794 28.085 21.292 29 22 29s2.194-.915 3.66-1.98v-3.205h-7.332v3.205z" fill="#FFDC5D" data-skin="#F7DECE|#F3D2A2|#D5AB88|#AF7E57|#7C533E" data-gender="female"/>
	<path d="M17.64 28.101c1.744 1.268 2.848 1.963 4.36 1.963 1.512 0 2.615-.696 4.359-1.963V24.29h-8.72v3.811z" fill="#FFDC5D" data-skin="#F7DECE|#F3D2A2|#D4AB88|#AF7E57|#7C533E" data-gender="neutral,male"/>
	<path d="M18.321 25.179c1.023 1.155 2.291 1.468 3.669 1.468 1.379 0 2.647-.312 3.67-1.468v-2.936h-7.339v2.936z" fill="#F9CA55" data-skin="#EEC2AD|#E2C196|#CC9B7A|#9B6A49|#664131" data-gender="female"/>
	<path d="M17.632 25.973c1.216 1.374 2.724 1.746 4.364 1.746 1.639 0 3.146-.373 4.363-1.746v-3.491h-8.728v3.491z" fill="#F9CA55" data-skin="#EEC2AD|#E2C196|#CC9B7A|#9B6A49|#664131" data-gender="neutral,male"/>
	<!-- back hair -->
	<path d="M25.597 3.516c-1.925-.623-6.455-.453-7.588 1.019-2.944.057-6.398 2.718-6.851 6.228-.448 3.475.551 5.088.906 7.701.403 2.96 2.067 3.907 3.397 4.303 1.914 2.529 3.949 2.421 7.366 2.421 6.672 0 9.85-4.464 10.131-12.047.17-4.585-2.521-8.059-7.361-9.625z" fill="#6D6E71" data-gender="neutral"/>
	<path d="M18.869 5.337c0-1.433 1.434-2.594 3.202-2.594s3.202 1.161 3.202 2.594-1.434 2.594-3.202 2.594-3.202-1.161-3.202-2.594" fill="#6D6E71" data-gender="female"/>
	<!-- face -->
	<path d="M29.413 13.466c-.646-.894-1.472-1.614-3.284-1.868.68.311 1.331 1.387 1.416 1.982.085.595.17 1.076-.368.481-2.155-2.382-4.502-1.444-6.827-2.899-1.624-1.016-2.119-2.141-2.119-2.141s-.198 1.5-2.661 3.029c-.714.443-1.566 1.43-2.038 2.888-.34 1.048-.234 1.982-.234 3.578 0 4.66 3.841 8.578 8.578 8.578s8.578-3.953 8.578-8.578c-.001-2.898-.305-4.031-1.041-5.05z" fill="#FFDC5D" data-skin="#F7DECE|#F3D2A2|#D4AB88|#AF7E57|#7C533E" data-gender="neutral"/>
	<path d="M15.444 15.936c0 1.448-.734 2.622-1.639 2.622s-1.639-1.174-1.639-2.622.734-2.623 1.639-2.623c.905-.001 1.639 1.174 1.639 2.623m16.389 0c0 1.448-.733 2.622-1.639 2.622-.905 0-1.639-1.174-1.639-2.622s.733-2.623 1.639-2.623c.906-.001 1.639 1.174 1.639 2.623" fill="#FFDC5D" data-skin="#F7DECE|#F3D2A2|#D5AB88|#AF7E57|#7C533E" data-gender="male"/>
	<path d="M13.477 16.959c0-5.589 3.816-10.121 8.523-10.121s8.522 4.532 8.522 10.121S26.707 27.08 22 27.08c-4.706 0-8.523-4.531-8.523-10.121" fill="#FFDC5D" data-skin="#F7DECE|#F3D2A2|#D5AB88|#AF7E57|#7C533E" data-gender="male"/>
	<path d="M31.799 16.362c0-1.388-.683-2.511-1.539-2.581-.89-4.841-4.213-8.444-8.188-8.444s-7.299 3.603-8.188 8.444c-.857.07-1.539 1.193-1.539 2.581 0 1.396.691 2.527 1.555 2.583.913 4.516 4.22 7.145 8.172 7.145 3.952 0 7.259-2.629 8.173-7.145.862-.056 1.554-1.187 1.554-2.583" fill="#FFDC5D" data-skin="#F7DECE|#F3D2A2|#D5AB88|#AF7E57|#7C533E" data-gender="female"/>
	<path d="M22 3.48c5.648 0 9.178 4.168 9.178 7.641s-.706 4.863-1.412 3.473l-1.412-2.778s-4.235 0-5.647-1.39c0 0 2.118 4.168-2.118 0 0 0 .706 2.779-3.53-.694 0 0-2.118 1.389-2.824 4.862-.196.964-1.412 0-1.412-3.473C12.822 7.648 15.646 3.48 22 3.48" fill="#6D6E71" data-gender="male"/>
	<path d="M31.799 10.525c-1.297-4.54-5.188-5.837-7.255-5.837-1.176 0-2.473.649-2.473.649s-1.297-.649-2.594-.649c-1.945 0-5.836 1.297-7.133 5.837-1.069 3.741 1.297 7.134 1.297 7.134 0-1.946 1.297-5.837 4.539-5.837 3.243 0 3.892-2.594 3.892-2.594s.51 2.594 3.753 2.594c3.242 0 4.678 3.891 4.678 5.837-.001 0 2.365-3.393 1.296-7.134" fill="#808285" data-gender="female"/>
	<path d="M26.525 21.346l-1.268-.274c-.405-.095-1.173-.072-1.535-.072h-3.689c-.362 0-1.131-.023-1.536.071l-1.266.274c-.348.101-.55.393-.45.74.082.288.345.441.63.441.059 0 .12-.026.18-.042l1.267-.371c-.143.191-.181.446-.066.676.115.228.347.36.587.36.099 0 .199-.024.293-.071l1.034-.518c.022.215.139.414.346.518.094.046.195.069.293.069.241 0 .473-.134.587-.363l.068-.138-.053.138c.114.229.224.363.465.363.098 0 .198-.023.292-.069.207-.104.323-.303.347-.518l1.033.518c.095.047.195.071.293.071.241 0 .472-.132.587-.36.114-.23.076-.484-.066-.676l1.266.371c.059.016.121.042.181.042.285 0 .547-.152.63-.441.099-.347-.102-.639-.45-.739z" fill="#6D6E71" data-gender="male"/>
	<path d="M19.5 15h-2c-.275 0-.5-.225-.5-.5s.225-.5.5-.5h2c.275 0 .5.225.5.5s-.225.5-.5.5m7 0h-2c-.275 0-.5-.225-.5-.5s.225-.5.5-.5h2c.275 0 .5.225.5.5s-.225.5-.5.5" fill="#808285" data-gender="female"/>
	<!-- eyes -->
	<path d="M18.062 17.564c-.526 0-.953-.427-.953-.953v-.953c0-.526.427-.953.953-.953s.953.427.953.953v.953c0 .526-.427.953-.953.953z M25.68700000,17.56400000 c-.526 0-.953-.427-.953-.953v-.953c0-.526.427-.953.953-.953s.953.427.953.953v.953c0 .526-.427.953-.953.953z" fill="#662113" data-skin="#662113|#662113|#662113|#662113|inherit" data-gender="neutral"/>
	<path d="M18 17c-.55 0-1-.45-1-1v-1c0-.55.45-1 1-1s1 .45 1 1v1c0 .55-.45 1-1 1m8 0c-.55 0-1-.45-1-1v-1c0-.55.45-1 1-1s1 .45 1 1v1c0 .55-.45 1-1 1" fill="#662113" data-skin="#662113|#662113|#662113|#60352A|inherit" data-gender="male"/>
	<path d="M18.5 18.25c-.413 0-.75-.337-.75-.75v-1c0-.413.337-.75.75-.75s.75.337.75.75v1c0 .413-.337.75-.75.75m7 0c-.413 0-.75-.337-.75-.75v-1c0-.413.337-.75.75-.75s.75.337.75.75v1c0 .413-.337.75-.75.75" fill="#662113" data-skin="#662113|#662113|#662113|#60352A|inherit" data-gender="female"/>
	<!-- nose -->
	<path d="M22.827 20.9h-1.906c-.263 0-.477-.213-.477-.477s.213-.477.477-.477h1.906c.263 0 .477.213.477.477s-.213.477-.477.477z" fill="#C1694F" data-skin="#C1694F|#C1694F|#C1694F|#915A34|#3D2E24" data-gender="neutral"/>
	<path d="M22.75 19.75h-1.5c-.413 0-.75-.337-.75-.75s.337-.75.75-.75h1.5c.413 0 .75.337.75.75s-.337.75-.75.75" fill="#C1694F" data-skin="#C1694F|#C1694F|#C1694F|#915A34|#3D2E24" data-gender="male"/>
	<path d="M22.72 21h-1.297c-.358 0-.648-.142-.648-.5s.291-.5.648-.5h1.297c.358 0 .649.142.649.5s-.291.5-.649.5" fill="#C1694F" data-skin="#C1694F|#C1694F|#C1694F|#915A34|#3D2E24" data-gender="female"/>
	<!-- mouth -->
	<path d="M22 24.88c-2.754 0-3.6-.705-3.741-.848-.256-.256-.256-.671 0-.927.248-.248.646-.255.902-.023.052.037.721.487 2.839.487 2.2 0 2.836-.485 2.842-.49.256-.255.657-.243.913.015.256.256.242.683-.014.938-.141.142-.987.848-3.741.848" fill="#C1694F" data-skin="#C1694F|#C1694F|#C1694F|#915A34|#3D2E24" data-gender="neutral"/>
	<path d="M22.071 23.27c-1.634 0-2.266-.488-2.376-.586-.268-.238-.292-.648-.054-.916.229-.261.624-.291.892-.073.039.025.454.278 1.538.278 1.136 0 1.537-.277 1.541-.281.269-.238.665-.201.902.066.238.268.201.688-.067.926-.109.097-.743.586-2.376.586" fill="#DF1F32" data-gender="female"/>
	<!-- earrings -->
	<circle cx="12.992" cy="18.307" fill="#AA8DD8" r=".649" data-gender="female"/>
	<circle cx="31.15" cy="18.307" fill="#AA8DD8" r=".649" data-gender="female"/>
	<!-- collar/tie -->
	<path d="M22.001 30.878s3.381 2.494 4.093 2.778c.156.063-.366-3.656-.366-3.656h-7.454s-.523 3.781-.231 3.625c.638-.343 3.958-2.747 3.958-2.747" fill="#99AAB5" data-gender="neutral,male"/>
	<path d="M23.312 33.438s.375-.625.531-.906c.183-.329.453-1.57.453-1.57v-.963l-4.583.003v.96s.287 1.241.47 1.57c.156.281.528.906.528.906s-.753.562-1.035 2.563h4.667c-.281-1.595-1.031-2.563-1.031-2.563" fill="#269" data-gender="male"/>
	<path d="M17.292 26.625c.566.566 4.709 3.383 4.709 3.383s-2.126 1.242-4.084 3.534c-.197.23-1.542-4.625-1.583-5.709-.012-.303.687-1.479.958-1.208m9.438 0c-.566.566-4.709 3.383-4.709 3.383s2.126 1.242 4.084 3.534c.196.23 1.542-4.625 1.583-5.709.012-.303-.687-1.479-.958-1.208" fill="#F5F8FA" data-gender="neutral,male"/>
	<path d="M26.989 27c-.083-.667-.458-1.375-1-1-.543.376-3.936 2.952-3.995 2.996-.058-.044-3.451-2.62-3.994-2.996-.542-.375-.917.333-1 1s.333 4.667 1 5c.661.33 3.937-2.937 3.995-2.995.058.058 3.334 3.325 3.995 2.995.666-.333 1.082-4.333.999-5z" fill="#F5F8FA" data-gender="female"/>
	<path d="M27.62 28s-1.542 5.463-5.62 7.411C17.922 33.463 16.38 28 16.38 28H15v8h14v-8h-1.38z" fill="#292F33" data-gender="neutral,male"/>
	<path d="M12.083 33.341c.251 0 .401 2.659.401 2.659h-.956s.193-2.659.555-2.659m3 0c.251 0 .401 2.659.401 2.659h-.956s.193-2.659.555-2.659m16.846 0c-.251 0-.401 2.659-.401 2.659h.956c-.001 0-.194-2.659-.555-2.659m-3 0c-.251 0-.401 2.659-.401 2.659h.956c-.001 0-.194-2.659-.555-2.659" fill="#66757F"/>
	<!-- gavel -->
	<path d="M7.854 23.665c.468 1.24.178 2.498-.649 2.812-.826.311-1.876-.441-2.345-1.681-.468-1.239-.178-2.498.649-2.811.826-.312 1.876.44 2.345 1.68" fill="#C1694F"/>
	<path d="M9.092 36l-3.479-9.208.25-.094c1.098-.415 1.656-1.651 1.242-2.75-.415-1.097-1.652-1.656-2.75-1.241l-1.995.754c-1.098.413-1.657 1.65-1.242 2.749.414 1.098 1.652 1.656 2.749 1.241l.25-.094L7.382 36h1.71z" fill="#662113"/>
	<path d="M3.363 25.361c.468 1.24.178 2.498-.649 2.812-.826.312-1.876-.44-2.345-1.681-.468-1.239-.178-2.498.649-2.811.827-.312 1.877.44 2.345 1.68" fill="#C1694F"/>
	<!-- hand -->
	<path d="M11.318 36l-.466-1.588c-.363-1.239-1.673-1.955-2.911-1.592l-1.255.368c-1.205.354-1.907 1.604-1.61 2.812h6.242z" fill="#FFDC5D" data-skin="#F7DECE|#F3D2A2|#D4AB88|#AF7E57|#7C533E"/>
</svg>
