<svg viewBox="0 0 36 36" xmlns="http://www.w3.org/2000/svg" xmlns:ts="data:,a">
	<!-- hat underside -->
	<ellipse cx="18" cy="19.024" rx="15" ry="3.529" fill="#C63900" ts:gender-color="#292F33,#292F33"/>
	<!-- back hair -->
	<path d="M17.982 13.557c-2.61 0-5.654 3.198-9.115 3.885.143 1.499.597 2.619.802 4.127.337 2.477 1.73 3.27 2.843 3.601 1.602 2.116 3.305 2.026 6.164 2.026 5.483 0 8.14-3.609 8.457-9.747-3.476-.692-6.532-3.892-9.151-3.892z" fill="#D1D3D4" ts:gender="neutral"/>
	<path d="M 18.004,27.804 c -3.749,0 -6.195,2.013 -8.123,2.013 c -2.089,0 -1.875,-8.29 -1.875,-11.027 c 0,-0.96 0.085,-1.79 0.22,-2.79 h 19.554 c 0.135,1 0.22,1.82 0.22,2.78 c 0,8.896 0,11.096 -1.874,11.096 c -1.875,0 -4.374,-2.072 -8.122,-2.072 Z" fill="#D1D3D4" ts:gender="female"/>
	<!-- body -->
	<path d="M26.276 28.276h-16c-2.486 0-4.774 1.443-5.762 3.449-.368-.415-.907-.619-1.514-.619-1.1 0-2 .935-2 1.998V36h31v-1.931c0-3.199-2.411-5.793-5.724-5.793z" fill="#FA743E" ts:gender="neutral,female" ts:gender-color=",#9266CC"/> <!-- ? -->
	
	<use href="defs.svg#shoulders_male" x="18" fill="#4289C1" ts:gender="male"/>
	<path d="M 1,36 v-3 a 3,3 0 01 3,-3 V36 z" fill="#4289C1" ts:gender="male"/>
	
	<!-- -->
	<path d="M14 27h8s1 9-4 9-4-9-4-9z" fill="#2A6797" ts:gender="male"/>
	<!-- neck -->
	<path d="M 18.004,34.984 c -0.252,0 -3.857,-6.502 -3.989,-6.739 c -0.004,-0.004 -0.015,-0.007 -0.015,-0.011 v -3.234 h 7.999 v 3.234 c 0,0.004 -0.006,0.007 -0.01,0.011 c -0.131,0.237 -3.732,6.739 -3.985,6.739 Z" ts:skin="skin" ts:gender="neutral,female"/>
	
	<path d="M 18,29.198 c -1.503,0 -2.885,-0.341 -4,-1.6 v -3.2 h 8 v 3.2 c -1.116,1.258 -2.498,1.6 -4,1.6 Z" ts:skin="dark" ts:gender="neutral"/>
	<path d="M 18.005,29.067 c -1.502,0 -2.884,-0.313 -3.999,-1.468 v -2.937 h 8 v 2.937 c -1.115,1.156 -2.498,1.468 -4.001,1.468 Z" ts:skin="dark" ts:gender="female"/>

	<!-- face -->
	<use href="defs.svg#face_neutral1" transform="translate(18.007 28.792) scale(.798)" ts:skin="skin" ts:gender="neutral"/>
	<path d="M 18,8.913 c 4.104,0 7.53,5.05 8.339,8.65 c 0.837,0.049 1.494,0.52 1.496,1.889 c 0,1.448 -0.734,2.622 -1.639,2.622 c -0.015,0 -0.028,-0.006 -0.043,-0.007 c -1.064,4.376 -4.31,8.013 -8.152,8.013 s -7.088,-3.637 -8.152,-8.013 c -0.015,0.001 -0.028,0.007 -0.043,0.007 c -0.905,0 -1.639,-1.174 -1.639,-2.622 c 0,-1.369 0.658,-1.841 1.494,-1.889 c 0.809,-3.6 4.235,-8.65 8.339,-8.65 Z" ts:skin="skin" ts:gender="male"/>
	<path d="M 18.003,7.694 c 3.555,0 6.527,3.49 7.298,8.168 c 0.021,-0.002 0.04,-0.01 0.06,-0.01 c 0.906,0 1.639,1.175 1.639,2.623 s -0.734,2.622 -1.639,2.622 c -0.048,0 -0.093,-0.016 -0.14,-0.023 c -0.882,4.388 -3.775,7.468 -7.217,7.468 c -3.443,0 -6.338,-3.081 -7.219,-7.469 c -0.049,0.007 -0.096,0.024 -0.146,0.024 c -0.905,0 -1.639,-1.174 -1.639,-2.622 s 0.734,-2.623 1.638,-2.622 c 0.022,0 0.043,0.009 0.065,0.01 c 0.771,-4.679 3.743,-8.169 7.3,-8.169 Z" ts:skin="skin" ts:gender="female"/>
	<!-- eyes -->
	<use href="defs.svg#eyes_male" transform="translate(18 19.6185) scale(0.798)" ts:skin="eyes2" ts:gender="neutral"/>
	<use href="defs.svg#eyes_male" x="18" y="19.209" ts:skin="eyes2" ts:gender="male"/>
	<use href="defs.svg#eyes_female" x="18.04975" y="20.115" ts:skin="eyes2" ts:gender="female"/>
	<!-- nose -->
	<use href="defs.svg#nose_neutral1" transform="translate(18 23.208) scale(0.798)" ts:skin="nose" ts:gender="neutral"/>
	<use href="defs.svg#nose_male" x="18.0" y="21.074" ts:skin="nose" ts:gender="male"/>
	<use href="defs.svg#nose_female" x="18.0505" y="23.0" ts:skin="nose" ts:gender="female"/>
	<!-- mouth -->
	<use href="defs.svg#mouth_male_big" transform="translate(17.997 25.9035) scale(0.5615)" ts:skin="mouth" ts:gender="neutral"/>
	<rect x="15.084" y="23.202" width="5.833" height="1.831" rx="0.75" ts:skin="mouth" ts:gender="male"/>
	<use href="defs.svg#mouth_female" x="18.004" y="26.526" ts:skin="mouth" ts:gender="female"/>
	<!-- beard - layer has hole -->
	<path d="M 18,35 s -1.333,0 -2,-0.911 c 0,0 -2.667,0.911 -2.666,-1.824 c 0,0 -2,0 -2,-2.735 c 0,0 -1.334,-1.837 -0.667,-3.66 c 0,0 -0.667,0 -0.667,-1.823 c 0,-0.209 0.022,-0.375 0.059,-0.511 c -0.02,0.004 -0.039,0.018 -0.059,0.018 c -0.552,0 -1,-1.343 -1,-3 c 0,-1.377 0.311,-2.525 0.732,-2.877 c -0.074,-0.066 -0.139,-0.142 -0.189,-0.229 c -0.414,-0.717 0.219,-1.859 1.415,-2.549 s 2.501,-0.668 2.915,0.049 s -0.219,1.859 -1.415,2.549 c -0.679,0.392 -1.387,0.546 -1.953,0.482 c 0.295,0.521 0.495,1.474 0.495,2.575 c 0,1.062 -0.185,1.991 -0.464,2.524 c 0.393,-0.015 0.914,0.365 1.253,0.722 c 0.711,-0.729 1.826,-1.518 3.085,-1.767 c 2.061,-0.408 2.908,0.393 3.09,0.94 c 0.187,-0.547 1.036,-1.339 3.088,-0.933 c 1.279,0.253 2.411,1.063 3.12,1.802 c 0.338,-0.368 0.882,-0.78 1.291,-0.764 c -0.278,-0.533 -0.463,-1.461 -0.463,-2.524 c 0,-1.096 0.198,-2.045 0.49,-2.569 c -0.478,-0.032 -1.013,-0.19 -1.532,-0.489 c -1.196,-0.69 -1.829,-1.832 -1.415,-2.549 s 1.719,-0.739 2.915,-0.049 s 1.829,1.832 1.415,2.549 c -0.101,0.175 -0.256,0.307 -0.449,0.399 c 0.34,0.48 0.576,1.508 0.577,2.708 c 0,1.657 -0.448,3 -1,3 c -0.02,0 -0.039,-0.014 -0.059,-0.018 c 0.037,0.136 0.059,0.302 0.059,0.512 c 0,1.823 -0.667,1.823 -0.667,1.823 c 0.666,1.823 -0.667,3.66 -0.667,3.66 c 0,2.735 -2,2.735 -2,2.735 c 0,2.734 -2.667,1.823 -2.667,1.823 c -0.667,0.911 -2,0.911 -2,0.911 Z M 18,24.959 s 0.781,-0.377 2.667,0.911 c 1.002,0.686 2.004,-0.175 2.723,-1.031 c -0.756,-0.277 -1.713,-0.637 -2.726,-0.837 c -1.825,-0.008 -2.533,-0.242 -2.7,-0.606 c -0.167,0.374 -0.87,0.629 -2.701,0.599 c -0.991,0.196 -1.927,0.543 -2.675,0.818 c 0.721,0.865 1.732,1.749 2.745,1.057 c 1.886,-1.288 2.667,-0.911 2.667,-0.911 Z" fill="#E6E7E8" ts:gender="male"/>
	<!-- hair -->
	<path d="M17 15s-4 4-8 4c0 0-1-1 0-2s8-2 8-2z M19,15 s4 4 8 4c0 0 1-1 0-2s-8-2-8-2z" fill="#D1D3D4" ts:gender="female"/>
	<!-- hat -->
	<path d="M 18,0 c 0.793,0 6.537,12.47 7.765,15.157 c 4.82,0.844 7.235,2.438 7.235,3.843 c -6,-2 -11,-2.443 -15,-2.443 s -9,0.443 -15,2.443 c 0,-1.405 2.415,-2.999 7.235,-3.843 c 1.228,-2.687 6.972,-15.157 7.765,-15.157 Z" fill="#FA743E" ts:gender-color="#4289C1,#9266CC"/>
	<!-- staff -->
	<path d="M5 36H3V11.862L2 8h4l-1 3.862z" fill="#D99E82"/>
	<!-- orb -->
	<circle cx="4" cy="6" r="3" fill="#55ACEE"/>
	<circle cx="3.5" cy="5.5" r="1.5" fill="#B0F0FF"/>
	<!-- hand -->
	<path d="M7 30.5C7 32.433 5.657 34 4 34s-3-1.567-3-3.5S2.343 28 4 28s3 .567 3 2.5z" ts:skin="skin"/>
</svg>
