<svg viewBox="0 0 36 36" xmlns="http://www.w3.org/2000/svg" xmlns:ts="data:,a">
	<!-- hat underside -->
	<ellipse cx="18" cy="19.024" rx="15" ry="3.529" fill="#C63900" ts:gender-color="#292F33,#292F33"/>
	<path d="M17.982 13.557c-2.61 0-5.654 3.198-9.115 3.885.143 1.499.597 2.619.802 4.127.337 2.477 1.73 3.27 2.843 3.601 1.602 2.116 3.305 2.026 6.164 2.026 5.483 0 8.14-3.609 8.457-9.747-3.476-.692-6.532-3.892-9.151-3.892z" fill="#D1D3D4" ts:gender="neutral"/>
	<!-- back hair -->
	<path d="M8.226 16c-.135 1-.22 1.83-.22 2.79 0 2.737-.214 11.027 1.875 11.027 1.928 0 4.374-2.013 8.123-2.013 3.748 0 6.247 2.072 8.122 2.072C28 29.876 28 27.676 28 18.78c0-.96-.085-1.78-.22-2.78H8.226z" fill="#D1D3D4" ts:gender="female"/>
	<!-- body -->
	<path d="M26.276 28.276h-16c-2.486 0-4.774 1.443-5.762 3.449-.368-.415-.907-.619-1.514-.619-1.1 0-2 .935-2 1.998V36h31v-1.931c0-3.199-2.411-5.793-5.724-5.793z" fill="#FA743E" ts:gender="neutral,female" ts:gender-color=",#9266CC"/>
	<path d="M26 28H10c-2.484 0-4.615 1.51-5.527 3.661C4.107 31.258 3.584 31 3 31c-1.1 0-2 .9-2 2v3h31v-2c0-3.313-2.687-6-6-6z" fill="#4289C1" ts:gender="male"/>
	<path d="M14 27h8s1 9-4 9-4-9-4-9z" fill="#2A6797" ts:gender="male"/>
	<!-- neck -->
	<path d="M14 25v3.234c0 .004.011.007.015.011.132.237 3.737 6.739 3.989 6.739.253 0 3.854-6.502 3.985-6.739.004-.004.01-.007.01-.011V25H14z" ts:skin="skin" ts:gender="neutral,female"/>
	<path d="M14 27.598c1.115 1.259 2.497 1.6 4 1.6 1.502 0 2.884-.342 4-1.6v-3.2h-8v3.2z" ts:skin="dark" ts:gender="neutral"/>
	<path d="M14.006 27.599c1.115 1.155 2.497 1.468 3.999 1.468 1.503 0 2.886-.312 4.001-1.468v-2.937h-8v2.937z" ts:skin="dark" ts:gender="female"/>
	<!-- face -->
	<path d="M24.315 17.386c-.54-.748-1.232-1.35-2.748-1.564.569.261 1.114 1.161 1.185 1.658.071.498.142.9-.308.403-1.803-1.993-3.767-1.208-5.714-2.426-1.359-.851-1.773-1.791-1.773-1.791s-.166 1.256-2.227 2.535c-.598.371-1.31 1.197-1.706 2.417-.284.877-.196 1.659-.196 2.995 0 3.9 3.214 7.179 7.179 7.179s7.179-3.308 7.179-7.179c-.001-2.426-.255-3.374-.871-4.227z" ts:skin="skin" ts:gender="neutral"/>
	<path d="M26.339 17.563c-.809-3.6-4.235-8.65-8.339-8.65s-7.53 5.05-8.339 8.65c-.836.048-1.494.52-1.494 1.889 0 1.448.734 2.622 1.639 2.622.015 0 .028-.006.043-.007 1.064 4.376 4.31 8.013 8.152 8.013s7.088-3.637 8.152-8.013c.015.001.028.007.043.007.905 0 1.639-1.174 1.639-2.622-.002-1.369-.659-1.84-1.496-1.889z" ts:skin="skin" ts:gender="male"/>
	<path d="M25.361 15.852c-.02 0-.039.008-.06.01-.771-4.678-3.743-8.168-7.298-8.168-3.557 0-6.529 3.49-7.3 8.169-.022-.001-.043-.01-.065-.01C9.734 15.852 9 17.027 9 18.475s.734 2.622 1.639 2.622c.05 0 .097-.017.146-.024.881 4.388 3.776 7.469 7.219 7.469 3.442 0 6.335-3.08 7.217-7.468.047.007.092.023.14.023.905 0 1.639-1.174 1.639-2.622s-.733-2.623-1.639-2.623z" ts:skin="skin" ts:gender="female"/>
	<!-- eyes -->
	<rect x="14.011" y="18.422" width="1.596" height="2.393" rx="0.797875" ts:skin="eyes2" ts:gender="neutral"/><rect x="20.393" y="18.422" width="1.596" height="2.393" rx="0.797875" ts:skin="eyes2" ts:gender="neutral"/>
	<use href="defs.svg#eyes_male" x="18" y="19.209" ts:skin="eyes2" ts:gender="male"/>
	<use href="defs.svg#eyes_female" x="18.04975" y="20.115" ts:skin="eyes2" ts:gender="female"/>
	<!-- nose -->
	<rect x="16.804" y="22.809" width="2.393" height="0.798" rx="0.399" ts:skin="nose" ts:gender="neutral"/> <!-- diff -->
	<use href="defs.svg#nose_male" x="18.0" y="21.074" ts:skin="nose" ts:gender="male"/>
	<use href="defs.svg#nose_female" x="18.0505" y="23.0" ts:skin="nose" ts:gender="female"/>
	<!-- mouth -->
	<path d="M17.997 26.465c-2.359 0-3.084-.604-3.204-.726-.22-.219-.22-.575 0-.794.212-.212.552-.218.773-.02.044.032.617.417 2.431.417 1.886 0 2.429-.416 2.435-.42.219-.218.564-.208.783.013.219.219.207.585-.012.804-.123.122-.847.726-3.206.726" ts:skin="nose" ts:gender="neutral"/> <!-- smaller -->
	<rect x="15.084" y="23.202" width="5.833" height="1.831" rx="0.75" ts:skin="nose" ts:gender="male"/>
	<use href="defs.svg#mouth_female" x="18.004" y="26.526" fill="#DF1F32" ts:gender="female"/>
	<!-- beard - layer has hole -->
	<path d="M26.424 17.846c.193-.092.348-.224.449-.399.414-.717-.219-1.859-1.415-2.549s-2.501-.668-2.915.049c-.414.717.219 1.859 1.415 2.549.519.299 1.054.457 1.532.489-.292.524-.49 1.473-.49 2.569 0 1.063.185 1.991.463 2.524-.409-.016-.953.396-1.291.764-.709-.739-1.841-1.549-3.12-1.802-2.052-.406-2.901.386-3.088.933-.182-.547-1.029-1.348-3.09-.94-1.259.249-2.374 1.038-3.085 1.767-.339-.357-.86-.737-1.253-.722.279-.533.464-1.462.464-2.524 0-1.101-.2-2.054-.495-2.575.566.064 1.274-.09 1.953-.482 1.196-.69 1.829-1.832 1.415-2.549-.414-.717-1.719-.739-2.915-.049s-1.829 1.832-1.415 2.549c.05.087.115.163.189.229-.421.352-.732 1.5-.732 2.877 0 1.657.448 3 1 3 .02 0 .039-.014.059-.018-.037.136-.059.302-.059.511 0 1.823.667 1.823.667 1.823-.667 1.823.667 3.66.667 3.66 0 2.735 2 2.735 2 2.735C13.333 35 16 34.089 16 34.089 16.667 35 18 35 18 35s1.333 0 2-.911c0 0 2.667.911 2.667-1.823 0 0 2 0 2-2.735 0 0 1.333-1.837.667-3.66 0 0 .667 0 .667-1.823 0-.21-.022-.376-.059-.512.02.004.039.018.059.018.552 0 1-1.343 1-3-.001-1.2-.237-2.228-.577-2.708 Z M20.667,25.870 C18.781 24.582 18 24.959 18 24.959s-.781-.377-2.667.911c-1.013.692-2.024-.192-2.745-1.057.748-.275 1.684-.622 2.675-.818 1.831.03 2.534-.225 2.701-.599.167.364.875.598 2.7.606 1.013.2 1.97.56 2.726.837-.719.856-1.721 1.717-2.723 1.031z" fill="#E6E7E8" ts:gender="male"/>
	<!-- hair -->
	<path d="M17 15s-4 4-8 4c0 0-1-1 0-2s8-2 8-2z M19,15 s4 4 8 4c0 0 1-1 0-2s-8-2-8-2z" fill="#D1D3D4" ts:gender="female"/>
	<!-- hat -->
	<path d="M25.765 15.157C24.537 12.47 18.793 0 18 0s-6.537 12.47-7.765 15.157C5.415 16.001 3 17.595 3 19c6-2 11-2.443 15-2.443S27 17 33 19c0-1.405-2.415-2.999-7.235-3.843z" fill="#FA743E" ts:gender-color="#4289C1,#9266CC"/>
	<!-- staff -->
	<path d="M5 36H3V11.862L2 8h4l-1 3.862z" fill="#D99E82"/>
	<!-- orb -->
	<circle cx="4" cy="6" r="3" fill="#55ACEE"/>
	<circle cx="3.5" cy="5.5" r="1.5" fill="#B0F0FF"/>
	<!-- hand -->
	<path d="M7 30.5C7 32.433 5.657 34 4 34s-3-1.567-3-3.5S2.343 28 4 28s3 .567 3 2.5z" ts:skin="skin"/>
</svg>
