<svg viewBox="0 0 36 36" xmlns="http://www.w3.org/2000/svg" xmlns:ts="data:,a">
	<!-- shirt -->
	<path d="M36 36v-2c0-3.314-2.686-6-6-6H14c-3.313 0-6 2.686-6 6v2h28z" fill="#CCD6DD" ts:gender="neutral,male"/>
	<path d="M31 27.575c-.959-.372-1.996-.575-3-.575H16c-1.004 0-2.041.203-3 .575-2.207.855-4 2.614-4 4.925V36h26v-3.5c0-2.311-1.792-4.07-4-4.925z" fill="#CCD6DD" ts:gender="female"/>
	<!-- overalls -->
	<!--<path d="M13 31h18v5H13z" fill="#269" ts:gender=""/>-->
	<path d="M30 31H14l-.875 5H31z" fill="#269" ts:gender="neutral,male"/>
	<path d="M13 28h3v8h-3z M28,28 h3v8h-3z" fill="#269" ts:gender="neutral,male"/>
	<path d="M28 27v4H16v-4c-1.004 0-2.041.203-3 .575V36h18v-8.425c-.959-.372-1.996-.575-3-.575z" fill="#269" ts:gender="female"/>
	<!-- hair -->
	<use href="defs.svg#hair_neutral_narrow" x="25.152" y="3.3" fill="#FFAC33" ts:skin="hair" ts:gender="neutral"/>
	<use href="defs.svg#hair_back_female" x="21.945" y="5.069" fill="#FFAC33" ts:skin="hair" ts:gender="female"/>
	<!-- neck -->
	<path d="M17.64 28.038c0 2.846 8.72 2.962 8.72 0v-3.749h-8.72v3.749z" fill="#FFDC5D" ts:skin="skin" ts:gender="neutral,male"/>
	<path d="M18.328 27.018C19 29 21.292 30.5 22 30.5s3-1.5 3.66-3.482v-3.203h-7.332v3.203z" fill="#FFDC5D" ts:skin="skin" ts:gender="female"/>
	<path d="M17.632 25.973c1.216 1.374 2.724 1.746 4.364 1.746 1.639 0 3.147-.373 4.363-1.746v-3.491h-8.728v3.491z" fill="#F9CA55" ts:skin="dark" ts:gender="neutral,male"/>
	<path d="M18.322 25.179c1.022 1.155 2.29 1.468 3.668 1.468 1.379 0 2.647-.312 3.67-1.468v-2.936h-7.338v2.936z" fill="#F9CA55" ts:skin="dark" ts:gender="female"/>
	<!-- head -->
	<use href="defs.svg#face_neutral" x="29.547" y="13.273" fill="#FFDC5D" ts:skin="skin" ts:gender="neutral"/>
	<use href="defs.svg#face_male" x="22" y="16.959" fill="#FFDC5D" ts:skin="skin" ts:gender="male"/>
	<use href="defs.svg#face_female" x="13.734" y="15.717" fill="#FFDC5D" ts:skin="skin" ts:gender="female"/>
	<!-- hair -->
	<use href="defs.svg#hair_male" x="22" y="3.48" fill="#FFAC33" ts:skin="hair" ts:gender="male"/>
	<use href="defs.svg#hair_front_female" x="21.945" y="5.069" fill="#FFAC33" ts:skin="hair" ts:gender="female"/>
	<use href="defs.svg#ears_female" x="22" y="15.9355" fill="#FFDC5D" ts:skin="skin" ts:gender="female"/>
	<!-- eyes -->
	<use href="defs.svg#eyes_neutral" x="22.008" y="15.9405" fill="#662113" ts:skin="eyes2" ts:gender="neutral"/>
	<use href="defs.svg#eyes_male" x="22" y="15.5" fill="#662113" ts:skin="eyes" ts:gender="male"/>
	<use href="defs.svg#eyes_female" x="21.99075" y="16.618" fill="#662113" ts:skin="eyes" ts:gender="female"/>
	<!-- nose -->
	<use href="defs.svg#nose_neutral" x="22.008" y="20.23" fill="#C1694F" ts:skin="nose" ts:gender="neutral"/>
	<use href="defs.svg#nose_male" x="22.0" y="19.0" fill="#C1694F" ts:skin="nose" ts:gender="male"/>
	<use href="defs.svg#nose_female" x="21.9915" y="20.0" fill="#C1694F" ts:skin="nose" ts:gender="female"/>
	<!-- mouth -->
	<use href="defs.svg#mouth_neutral" x="22.134" y="24.686" fill="#C1694F" ts:skin="nose" ts:gender="neutral"/>
	<use href="defs.svg#mouth_neutral" x="22" y="23.802" fill="#C1694F" ts:skin="nose" ts:gender="male"/>
	<use href="defs.svg#mouth_female" x="21.945" y="23.543" fill="#DF1F32" ts:gender="female"/>
	<!-- hat -->
	<path d="M31 9.5c0 1.32-18 1.32-18 0C13 5.954 14 1 22 1c7 0 9 4.954 9 8.5z" fill="#3B88C3" ts:gender="neutral,female"/>
	<path d="M31.056 9.5c0 1.32-4.092 0-9 0-4.909 0-9 1.32-9 0 0-3.547 1-8.5 9-8.5 7 0 9 4.953 9 8.5z" fill="#3B88C3" ts:gender="male"/>
	<path d="M20.5 1.5S20.5 0 22 0s1.5 1.5 1.5 1.5h-3z" fill="#269" ts:gender="neutral,female"/>
	<path d="M20.556 1.5s0-1.5 1.5-1.5 1.5 1.5 1.5 1.5h-3z" fill="#269" ts:gender="male"/>
	<path d="M13.056 9.5s-.5 3 1.5 3c1 0 2.5-2 7.5-2s6.5 2 7.5 2c2 0 1.5-3 1.5-3s-1.5.5-9 .5-9-.5-9-.5z" fill="#269" ts:gender="neutral,female"/>
	<path d="M13.111 9.5s-.5 3 1.5 3c1 0 2.5-2 7.5-2s6.5 2 7.5 2c2 0 1.5-3 1.5-3s-1.5.5-9 .5-9-.5-9-.5z" fill="#269" ts:gender="male"/>
	<path d="M13 9s-.5 3 1.5 3c1 0 2.5-2 7.5-2s6.5 2 7.5 2c2 0 1.5-3 1.5-3s-1.5.5-9 .5-9-.5-9-.5z" fill="#55ACEE" ts:gender="neutral,female"/>
	<path d="M13.056 9s-.5 3 1.5 3c1 0 2.5-2 7.5-2s6.5 2 7.5 2c2 0 1.5-3 1.5-3s-1.5.5-9 .5-9-.5-9-.5z" fill="#55ACEE" ts:gender="male"/>
	<!-- badge -->
	<ellipse cx="27.75" cy="33.75" fill="#F5F8FA" rx="2.25" ry="1.25"/>
	<!-- wrench -->
	<!--<path d="M9.501 23.635c-.005-1.805-1.026-3.353-2.511-4.153l.012 4.409c0 .553-1.006 1.003-2.249 1.005-1.242.003-2.25-.443-2.251-.995l-.01-4.408c-1.48.806-2.494 2.358-2.492 4.163.006 2.091 1.37 3.845 3.25 4.475V36h3v-7.869c1.888-.632 3.256-2.397 3.251-4.496z" fill="#66757F" ts:gender=""/>-->
	<rect x="3.25" y="26" width="3" height="10" fill="#66757F"/>
	<path d="M6.99 19.481l.012 4.409c0 .553-1.006 1.003-2.249 1.005-1.242.003-2.25-.443-2.251-.995l-.01-4.408c-1.48.807-2.494 2.359-2.492 4.164.007 2.622 2.137 4.746 4.761 4.74 2.624-.007 4.746-2.139 4.74-4.762-.005-1.804-1.026-3.352-2.511-4.153z" fill="#66757F"/>
</svg>
