<svg viewBox="0 0 36 36" xmlns="http://www.w3.org/2000/svg" xmlns:ts="data:,a">
	<!-- back hair -->
	<use href="defs.svg#hair_neutral_narrow" x="25.152" y="3.3" ts:skin="hair" ts:gender="neutral"/>
	<use href="defs.svg#hair_back_female" x="21.945" y="5.069" ts:skin="hair" ts:gender="female"/>
	<!-- shirt -->
	<use href="defs.svg#shoulders_male" x="22" fill="#CCD6DD" ts:gender="neutral,male"/>
	<use href="defs.svg#shoulders_female" x="22" fill="#CCD6DD" ts:gender="female"/>
	<!-- overalls -->
	<path d="M13,36 v-8 h3 v3 h12 v-3 h3 v8 z" fill="#269" ts:gender="neutral,male"/>
	<path d="M28 27v4H16v-4c-1.004 0-2.041.203-3 .575V36h18v-8.425c-.959-.372-1.996-.575-3-.575z" fill="#269" ts:gender="female"/>
	<!-- neck -->
	<path d="M17.64 28.038c0 2.846 8.72 2.962 8.72 0v-3.749h-8.72v3.749z" ts:skin="skin" ts:gender="neutral,male"/>
	<path d="M18.328 27.018C19 29 21.292 30.5 22 30.5s3-1.5 3.66-3.482v-3.203h-7.332v3.203z" ts:skin="skin" ts:gender="female"/>
	<path d="M17.632 25.973c1.216 1.374 2.724 1.746 4.364 1.746 1.639 0 3.147-.373 4.363-1.746v-3.491h-8.728v3.491z" ts:skin="dark" ts:gender="neutral,male"/>
	<path d="M18.322 25.179c1.022 1.155 2.29 1.468 3.668 1.468 1.379 0 2.647-.312 3.67-1.468v-2.936h-7.338v2.936z" ts:skin="dark" ts:gender="female"/>
	<!-- head -->
	<use href="defs.svg#face_neutral" x="29.547" y="13.273" ts:skin="skin" ts:gender="neutral"/>
	<use href="defs.svg#face_male" x="22" y="16.959" ts:skin="skin" ts:gender="male"/>
	<use href="defs.svg#face_female" x="13.734" y="15.717" ts:skin="skin" ts:gender="female"/>
	<!-- hair -->
	<use href="defs.svg#hair_male" x="22" y="3.48" ts:skin="hair" ts:gender="male"/>
	<!-- TODO: this is wrong ? -->
	<use href="defs.svg#hair_front_female" x="21.945" y="5.069" ts:skin="hair" ts:gender="female"/>
	<use href="defs.svg#ears_female" x="22" y="15.9355" ts:skin="skin" ts:gender="female"/>
	<!-- eyes -->
	<use href="defs.svg#eyes_neutral" x="22.008" y="15.9405" ts:skin="eyes2" ts:gender="neutral"/>
	<use href="defs.svg#eyes_male" x="22" y="15.5" ts:skin="eyes" ts:gender="male"/>
	<use href="defs.svg#eyes_female" x="21.99075" y="16.618" ts:skin="eyes" ts:gender="female"/>
	<!-- nose -->
	<use href="defs.svg#nose_neutral" x="22.008" y="20.23" ts:skin="nose" ts:gender="neutral"/>
	<use href="defs.svg#nose_male" x="22.0" y="19.0" ts:skin="nose" ts:gender="male"/>
	<use href="defs.svg#nose_female" x="21.9915" y="20.0" ts:skin="nose" ts:gender="female"/>
	<!-- mouth -->
	<use href="defs.svg#mouth_neutral" x="22.134" y="24.686" ts:skin="nose" ts:gender="neutral"/>
	<use href="defs.svg#mouth_neutral" x="22" y="23.802" ts:skin="nose" ts:gender="male"/>
	<use href="defs.svg#mouth_female" x="21.945" y="23.543" ts:skin="mouth" ts:gender="female"/>
	<!-- hat -->
	<path d="M 31,9.5 c 0,1.32 -18,1.32 -18,0 c 0,-3.546 1,-8.5 9,-8.5 c 7,0 9,4.954 9,8.5 Z" fill="#3B88C3" ts:gender="neutral,female"/>
	<path d="M 31.056,9.5 c 0,1.32 -4.092,0 -9,0 c -4.909,0 -9,1.32 -9,0 c 0,-3.547 1,-8.5 9,-8.5 c 7,0 9,4.953 9,8.5 Z" fill="#3B88C3" ts:gender="male"/>
	
	<path d="M 20.5  ,1.5 s 0,-1.5 1.5,-1.5 s 1.5,1.5 1.5,1.5 h -3 Z" fill="#269" ts:gender="neutral,female"/>
	<path d="M 20.556,1.5 s 0,-1.5 1.5,-1.5 s 1.5,1.5 1.5,1.5 h -3 Z" fill="#269" ts:gender="male"/>
	
	<path d="M 13.056,9.5 s 1.5,0.5 9,0.5 s 9,-0.5 9,-0.5 s 0.5,3 -1.5,3 c -1,0 -2.5,-2 -7.5,-2 s -6.5,2 -7.5,2 c -2,0 -1.5,-3 -1.5,-3 Z" fill="#269" ts:gender="neutral,female"/>
	<path d="M 13.111,9.5 s 1.5,0.5 9,0.5 s 9,-0.5 9,-0.5 s 0.5,3 -1.5,3 c -1,0 -2.5,-2 -7.5,-2 s -6.5,2 -7.5,2 c -2,0 -1.5,-3 -1.5,-3 Z" fill="#269" ts:gender="male"/>
	
	<path d="M 13    ,9 s 1.5,0.5 9,0.5 s 9,-0.5 9,-0.5 s 0.5,3 -1.5,3 c -1,0 -2.5,-2 -7.5,-2 s -6.5,2 -7.5,2 c -2,0 -1.5,-3 -1.5,-3 Z" fill="#55ACEE" ts:gender="neutral,female"/>
	<path d="M 13.056,9 s 1.5,0.5 9,0.5 s 9,-0.5 9,-0.5 s 0.5,3 -1.5,3 c -1,0 -2.5,-2 -7.5,-2 s -6.5,2 -7.5,2 c -2,0 -1.5,-3 -1.5,-3 Z" fill="#55ACEE" ts:gender="male"/>
	<!-- badge -->
	<ellipse cx="27.75" cy="33.75" rx="2.25" ry="1.25" fill="#F5F8FA"/>
	<!-- wrench -->
	<rect x="3.25" y="26" width="3" height="10" fill="#66757F"/>
	<path d="M6.99 19.481l.012 4.409c0 .553-1.006 1.003-2.249 1.005-1.242.003-2.25-.443-2.251-.995l-.01-4.408c-1.48.807-2.494 2.359-2.492 4.164.007 2.622 2.137 4.746 4.761 4.74 2.624-.007 4.746-2.139 4.74-4.762-.005-1.804-1.026-3.352-2.511-4.153z" fill="#66757F"/>
</svg>
