<svg viewBox="0 0 36 36" xmlns="http://www.w3.org/2000/svg" xmlns:ts="data:,a">
	<!-- shirt -->
	<path d="M36 36v-2c0-3.314-2.686-6-6-6H14c-3.313 0-6 2.686-6 6v2h28z" fill="#CCD6DD" ts:gender="neutral,male"/>
	<path d="M31 27.575c-.959-.372-1.996-.575-3-.575H16c-1.004 0-2.041.203-3 .575-2.207.855-4 2.614-4 4.925V36h26v-3.5c0-2.311-1.792-4.07-4-4.925z" fill="#CCD6DD" ts:gender="female"/>
	<!-- overalls -->
	<!--<path d="M13 31h18v5H13z" fill="#269" ts:gender=""/>-->
	<path d="M30 31H14l-.875 5H31z" fill="#269" ts:gender="neutral,male"/>
	<path d="M13 28h3v8h-3z M28,28 h3v8h-3z" fill="#269" ts:gender="neutral,male"/>
	<path d="M28 27v4H16v-4c-1.004 0-2.041.203-3 .575V36h18v-8.425c-.959-.372-1.996-.575-3-.575z" fill="#269" ts:gender="female"/>
	<!-- hair -->
	<path d="M25.152 3.3c-1.925-.623-5.876-.46-7.008 1.012-2.944.057-6.083 2.932-6.536 6.443-.448 3.475.235 4.874.591 7.486.403 2.96 2.067 3.907 3.397 4.303 1.914 2.529 3.949 2.421 7.366 2.421 6.672 0 9.271-4.458 9.552-12.04.169-4.585-2.522-8.059-7.362-9.625z" fill="#FFAC33" ts:skin="hair" ts:gender="neutral"/>
	<use href="defs.svg#hair_back_female" x="21.945" y="5.069" fill="#FFAC33" ts:skin="hair" ts:gender="female"/>
	<!-- neck -->
	<path d="M17.64 28.038c0 2.846 8.72 2.962 8.72 0v-3.749h-8.72v3.749z" fill="#FFDC5D" ts:skin="skin" ts:gender="neutral,male"/>
	<path d="M18.328 27.018C19 29 21.292 30.5 22 30.5s3-1.5 3.66-3.482v-3.203h-7.332v3.203z" fill="#FFDC5D" ts:skin="skin" ts:gender="female"/>
	<path d="M17.632 25.973c1.216 1.374 2.724 1.746 4.364 1.746 1.639 0 3.147-.373 4.363-1.746v-3.491h-8.728v3.491z" fill="#F9CA55" ts:skin="dark" ts:gender="neutral,male"/>
	<path d="M18.322 25.179c1.022 1.155 2.29 1.468 3.668 1.468 1.379 0 2.647-.312 3.67-1.468v-2.936h-7.338v2.936z" fill="#F9CA55" ts:skin="dark" ts:gender="female"/>
	<!-- head -->
	<path d="M29.547 13.273c-.646-.894-1.472-1.614-3.284-1.868.68.311 1.331 1.387 1.416 1.982.085.595.17 1.076-.368.481-2.155-2.382-4.502-1.444-6.827-2.899-1.624-1.016-2.119-2.141-2.119-2.141s-.198 1.5-2.661 3.029c-.714.443-1.566 1.43-2.038 2.888-.34 1.048-.234 1.982-.234 3.578 0 4.66 3.841 8.578 8.578 8.578s8.578-3.953 8.578-8.578c-.002-2.898-.305-4.031-1.041-5.05z" fill="#FFDC5D" ts:skin="skin" ts:gender="neutral"/>
	<path d="M13.734 15.718c0-5.834 3.676-10.563 8.211-10.563 4.533 0 8.209 4.729 8.209 10.563 0 5.833-3.676 10.285-8.209 10.285-4.535 0-8.211-4.452-8.211-10.285" fill="#FFDC5D" ts:skin="skin" ts:gender="female"/>
	<!-- hair -->
	<use href="defs.svg#hair_front_female" x="21.945" y="5.069" fill="#FFAC33" ts:skin="hair" ts:gender="female"/>
	<ellipse cx="13.805" cy="15.9355" rx="1.639" ry="2.6225" fill="#FFDC5D" ts:skin="skin" ts:gender="male,female"/><ellipse cx="30.194" cy="15.9355" rx="1.639" ry="2.6225" fill="#FFDC5D" ts:skin="skin" ts:gender="male,female"/>
	<ellipse cx="22" cy="16.959" rx="8.5225" ry="10.121" fill="#FFDC5D" ts:skin="skin" ts:gender="male"/>
	<path d="M22 3.48c5.648 0 9.178 4.168 9.178 7.641s-.706 4.863-1.412 3.473l-1.412-2.778s-4.235 0-5.647-1.39c0 0 2.118 4.168-2.118 0 0 0 .706 2.779-3.53-.694 0 0-2.118 1.389-2.824 4.862-.196.964-1.412 0-1.412-3.473C12.822 7.648 15.646 3.48 22 3.48" fill="#FFAC33" ts:skin="hair" ts:gender="male"/>
	<!-- eyes -->
	<rect x="17.242" y="14.511" width="1.906" height="2.859" rx="0.953" fill="#662113" ts:skin="eyes2" ts:gender="neutral"/><rect x="24.868" y="14.511" width="1.906" height="2.859" rx="0.953" fill="#662113" ts:skin="eyes2" ts:gender="neutral"/>
	<rect x="17" y="14" width="2" height="3" rx="1" fill="#662113" ts:skin="eyes" ts:gender="male"/><rect x="25" y="14" width="2" height="3" rx="1" fill="#662113" ts:skin="eyes" ts:gender="male"/>
	<rect x="17.762" y="15.349" width="1.693" height="2.538" rx="0.8465" fill="#662113" ts:skin="eyes" ts:gender="female"/><rect x="24.527" y="15.349" width="1.692" height="2.538" rx="0.846" ry="0.8465" fill="#662113" ts:skin="eyes" ts:gender="female"/>
	<!-- nose -->
	<rect x="20.5" y="18.25" width="3" height="1.5" rx="0.75" fill="#C1694F" ts:skin="nose" ts:gender="male"/>
	<rect x="20.723" y="19.5" width="2.537" height="1" rx="0.4235" fill="#C1694F" ts:skin="nose" ts:gender="female"/>
	<rect x="20.578" y="19.753" width="2.86" height="0.954" rx="0.477" fill="#C1694F" ts:skin="nose" ts:gender="neutral"/>
	<!-- mouth -->
	<path d="M22.134 24.686c-2.754 0-3.6-.705-3.741-.848-.256-.256-.256-.671 0-.927.248-.248.646-.255.902-.023.052.037.721.487 2.839.487 2.2 0 2.836-.485 2.842-.49.256-.255.657-.243.913.015.256.256.242.683-.014.938-.142.143-.987.848-3.741.848z" fill="#C1694F" ts:skin="nose" ts:gender="neutral"/>
	<path d="M22 23.802c-2.754 0-3.6-.705-3.741-.848-.256-.256-.256-.671 0-.927.248-.248.646-.255.902-.023.052.037.721.487 2.839.487 2.2 0 2.836-.485 2.842-.49.256-.255.657-.243.913.015.256.256.242.683-.014.938-.141.143-.987.848-3.741.848" fill="#C1694F" ts:skin="nose" ts:gender="male"/>
	<path d="M21.945 23.543c-1.606 0-2.447-.794-2.537-.885-.268-.267-.268-.7 0-.967.266-.265.692-.267.961-.007.035.032.551.491 1.576.491 1.038 0 1.555-.473 1.576-.492.273-.256.703-.248.963.02.26.269.26.691-.004.955-.089.091-.929.885-2.535.885" fill="#DF1F32" ts:gender="female"/>
	<!-- hat -->
	<path d="M31 9.5c0 1.32-18 1.32-18 0C13 5.954 14 1 22 1c7 0 9 4.954 9 8.5z" fill="#3B88C3" ts:gender="neutral,female"/>
	<path d="M31.056 9.5c0 1.32-4.092 0-9 0-4.909 0-9 1.32-9 0 0-3.547 1-8.5 9-8.5 7 0 9 4.953 9 8.5z" fill="#3B88C3" ts:gender="male"/>
	<path d="M20.5 1.5S20.5 0 22 0s1.5 1.5 1.5 1.5h-3z" fill="#269" ts:gender="neutral,female"/>
	<path d="M20.556 1.5s0-1.5 1.5-1.5 1.5 1.5 1.5 1.5h-3z" fill="#269" ts:gender="male"/>
	<path d="M13.056 9.5s-.5 3 1.5 3c1 0 2.5-2 7.5-2s6.5 2 7.5 2c2 0 1.5-3 1.5-3s-1.5.5-9 .5-9-.5-9-.5z" fill="#269" ts:gender="neutral,female"/>
	<path d="M13.111 9.5s-.5 3 1.5 3c1 0 2.5-2 7.5-2s6.5 2 7.5 2c2 0 1.5-3 1.5-3s-1.5.5-9 .5-9-.5-9-.5z" fill="#269" ts:gender="male"/>
	<path d="M13 9s-.5 3 1.5 3c1 0 2.5-2 7.5-2s6.5 2 7.5 2c2 0 1.5-3 1.5-3s-1.5.5-9 .5-9-.5-9-.5z" fill="#55ACEE" ts:gender="neutral,female"/>
	<path d="M13.056 9s-.5 3 1.5 3c1 0 2.5-2 7.5-2s6.5 2 7.5 2c2 0 1.5-3 1.5-3s-1.5.5-9 .5-9-.5-9-.5z" fill="#55ACEE" ts:gender="male"/>
	<!-- badge -->
	<ellipse cx="27.75" cy="33.75" fill="#F5F8FA" rx="2.25" ry="1.25"/>
	<!-- wrench -->
	<!--<path d="M9.501 23.635c-.005-1.805-1.026-3.353-2.511-4.153l.012 4.409c0 .553-1.006 1.003-2.249 1.005-1.242.003-2.25-.443-2.251-.995l-.01-4.408c-1.48.806-2.494 2.358-2.492 4.163.006 2.091 1.37 3.845 3.25 4.475V36h3v-7.869c1.888-.632 3.256-2.397 3.251-4.496z" fill="#66757F" ts:gender=""/>-->
	<rect x="3.25" y="26" width="3" height="10" fill="#66757F"/>
	<path d="M6.99 19.481l.012 4.409c0 .553-1.006 1.003-2.249 1.005-1.242.003-2.25-.443-2.251-.995l-.01-4.408c-1.48.807-2.494 2.359-2.492 4.164.007 2.622 2.137 4.746 4.761 4.74 2.624-.007 4.746-2.139 4.74-4.762-.005-1.804-1.026-3.352-2.511-4.153z" fill="#66757F"/>
</svg>
