<svg viewBox="0 0 36 36" xmlns="http://www.w3.org/2000/svg" xmlns:ts="data:,a">
	<!-- back hair -->
	<use href="defs.svg#hair_neutral_narrow" x="25.152" y="3.3" ts:skin="hair" ts:gender="neutral"/>
	<use href="defs.svg#hair_back_female" x="21.945" y="5.069" ts:skin="hair" ts:gender="female"/>
	<!-- shirt -->
	<use href="defs.svg#shoulders_male" x="22" fill="#CCD6DD" ts:gender="neutral,male"/>
	<use href="defs.svg#shoulders_female" x="22" fill="#CCD6DD" ts:gender="female"/>
	<!-- overalls -->
	<path d="M13,36 v-8 h3 v3 h12 v-3 h3 v8 z" fill="#269" ts:gender="neutral,male"/>
	<path d="M28 27v4H16v-4c-1.004 0-2.041.203-3 .575V36h18v-8.425c-.959-.372-1.996-.575-3-.575z" fill="#269" ts:gender="female"/>
	<!-- neck -->
	<path d="M17.64 28.038c0 2.846 8.72 2.962 8.72 0v-3.749h-8.72v3.749z" ts:skin="skin" ts:gender="neutral,male"/>
	<path d="M 22,30.5 c -0.708,0 -3,-1.5 -3.672,-3.482 v -3.203 h 7.332 v 3.203 c -0.66,1.982 -2.952,3.482 -3.66,3.482 Z" ts:skin="skin" ts:gender="female"/>
	<use href="defs.svg#neck_shadow_male" x="21.996" y="27.719" ts:skin="dark" ts:gender="neutral,male"/>
	<use href="defs.svg#neck_shadow_female" x="21.99" y="26.647" ts:skin="dark" ts:gender="female"/>
	<!-- head -->
	<use href="defs.svg#face_neutral" x="29.547" y="13.273" ts:skin="skin" ts:gender="neutral"/>
	<use href="defs.svg#face_male" x="22" y="16.959" ts:skin="skin" ts:gender="male"/>
	<use href="defs.svg#face_female" x="13.734" y="15.717" ts:skin="skin" ts:gender="female"/>
	<!-- hair -->
	<path d="M11.725 19.012c-.021-1-.044-.224-.044-.465 0-3.422 2.053.494 2.053-1.943 0-2.439 1.368-2.683 2.736-4.051.685-.684 2.053-2.026 2.053-2.026s3.421 2.067 6.158 2.067c2.736 0 5.474 1.375 5.474 4.112 0 2.736 2.053-1.584 2.053 1.837 0 .244-.022-.531-.04.469h.719c.006-2 .006-1.924.006-3.202 0-8.895-6.842-9.81-10.948-9.81-4.104 0-10.947.859-10.947 9.755 0 .793-.02 1.257.008 3.257h.719z" ts:skin="hair" ts:gender="female"/>
	<use href="defs.svg#ears_female" x="22" y="15.9355" ts:skin="skin" ts:gender="female"/>
	<!-- eyes -->
	<use href="defs.svg#eyes_neutral" x="22.008" y="15.9405" ts:skin="eyes2" ts:gender="neutral"/>
	<use href="defs.svg#eyes_male" x="22" y="15.5" ts:skin="eyes" ts:gender="male"/>
	<use href="defs.svg#eyes_female" x="21.99075" y="16.618" ts:skin="eyes" ts:gender="female"/>
	<!-- nose -->
	<use href="defs.svg#nose_neutral" x="22.008" y="20.23" ts:skin="nose" ts:gender="neutral"/>
	<use href="defs.svg#nose_male" x="22.0" y="19.0" ts:skin="nose" ts:gender="male"/>
	<use href="defs.svg#nose_female" x="21.9915" y="20.0" ts:skin="nose" ts:gender="female"/>
	<!-- mouth -->
	<use href="defs.svg#mouth_neutral" x="22.134" y="24.686" ts:skin="nose" ts:gender="neutral"/>
	<use href="defs.svg#mouth_neutral" x="22" y="23.802" ts:skin="nose" ts:gender="male"/>
	<use href="defs.svg#mouth_female" x="21.945" y="23.543" ts:skin="mouth" ts:gender="female"/>
	<!-- hat -->
	<path d="M 22.056,1 c 7,0 9,4.953 9,8.5 c 0,1.32 -4.092,0 -9,0 c -4.909,0 -9,1.32 -9,0 c 0,-3.547 1,-8.5 9,-8.5 Z" fill="#3B88C3"/>
	<path d="M 22.056,0 c 1.5,0 1.5,1.5 1.5,1.5 h -3 s 0,-1.5 1.5,-1.5 Z" fill="#269"/>
	<path d="M 22.056,10.5 c -5,0 -6.5,2 -7.5,2 c -2,0 -1.5,-3 -1.5,-3 s 1.5,0.5 9,0.5 s 9,-0.5 9,-0.5 s 0.5,3 -1.5,3 c -1,0 -2.5,-2 -7.5,-2 Z" fill="#269"/>
	<path d="M 22.056,10   c -5,0 -6.5,2 -7.5,2 c -2,0 -1.5,-3 -1.5,-3 s 1.5,0.5 9,0.5 s 9,-0.5 9,-0.5 s 0.5,3 -1.5,3 c -1,0 -2.5,-2 -7.5,-2 Z" fill="#55ACEE"/>

	<!-- badge -->
	<ellipse cx="27.75" cy="33.75" rx="2.25" ry="1.25" fill="#F5F8FA"/>
	<!-- wrench -->
	<rect x="3.25" y="26" width="3" height="10" fill="#66757F"/>
	<path d="M6.99 19.481l.012 4.409c0 .553-1.006 1.003-2.249 1.005-1.242.003-2.25-.443-2.251-.995l-.01-4.408c-1.48.807-2.494 2.359-2.492 4.164.007 2.622 2.137 4.746 4.761 4.74 2.624-.007 4.746-2.139 4.74-4.762-.005-1.804-1.026-3.352-2.511-4.153z" fill="#66757F"/>
</svg>
