<svg viewBox="0 0 36 36" xmlns="http://www.w3.org/2000/svg" xmlns:ts="data:,a">
	<!-- back hair -->
	<path d="M14.509.429c-1.043-.338-3.498-.246-4.112.552-1.596.031-3.467 1.473-3.713 3.376-.243 1.883.298 2.757.491 4.173.218 1.604 1.12 2.117 1.841 2.332 1.037 1.371 2.14 1.312 3.992 1.312 3.616 0 5.338-2.419 5.49-6.529.093-2.485-1.366-4.367-3.989-5.216z" fill="#744EAA" ts:gender="neutral"/>
	<path d="M20.716 11.182c-.994-1.383-1.654-5.509-1.654-5.509-.155-2.715-2.494-5.572-5.571-5.572-1.173 0-2.26.365-3.159.985-.182-.027-.365-.056-.555-.056-2.051 0-3.714 1.663-3.714 3.714 0 0-.73 2.881-1.521 3.797.377-.223.706-.465.997-.724-.259 1.306-.788 3.586-1.478 4.547.765-.55 1.41-1.136 1.859-1.795-.021.647-.399 1.267-.837 3.348-.458 2.177.364 2.197 1.385 2.646 1.795.789 12.847 1.296 13.281-.969.513-2.675.068-4.112-.425-5.624.391.429.86.83 1.392 1.212z" fill="#2CB4CD" ts:gender="female"/>
	<!-- torso -->
	<path d="M16.125 13.384s-2.26-.137-3.764-.137-2.959.1-3.392.137l-1.963 3.619.526.283s1.209 4.354 1.209 5.202c0 .848-1.209 5.202-1.209 5.202h9.674s-1.209-4.075-1.209-5.202 1.209-5.202 1.209-5.202l.495-.266-1.576-3.636z" fill="#FFDC5D" ts:skin="#F7DECE|#F3D2A2|#D4AB88|#AF7E57|#7C533E" ts:gender="neutral,female"/>
	<path d="M16.703 13.234c-2.061-.088-4.3-.078-4.3-.078s-2.24-.01-4.3.078c-.501.021-.979.233-1.35.456-.439.264-.728.544-.728.544.105 1.368 1.219 3.286 1.368 3.564.418.78.922 4.264.922 4.264.114 1.201 0 2 0 2h8.176s-.114-.799 0-2c0 0 .504-3.484.922-4.264.149-.278 1.263-2.196 1.368-3.564 0 0-.984-.953-2.078-1z" fill="#FFDC5D" ts:skin="#F7DECE|#F3D2A2|#D4AB88|#AF7E57|#7C533E" ts:gender="male"/>
	<!-- x+ arm -->
	<path d="M30.399,10.652 c-.084.009-.143.102-.203.238-.023-.164-.074-.276-.184-.264-.129.013-.201.22-.304.492-.027-.047-.062-.079-.117-.078-.261.009-.349.811-.909 1.334-.081.036-.154.078-.248.104-.059.016-.098.041-.146.061.005-.255.171-.405.271-.474.239-.166.089-.586-.314-.331-.289.183-.41.365-.501.55-.255.519-.354 1.058-.333 1.487l-.119.215c-.139.242-1.626 1.17-2.696 1.967-1.066.793-1.846 1.694-2.415 1.132-.396-.391-1.591-1.706-3.322-2.833-1.093-.712-2.733-.866-2.733-.866-.807.662.166 3.109.894 3.566.938.589 4.26 2.925 5.306 3.391s1.704-.161 2.196-.609c.403-.366 3.434-4.072 3.703-4.326.365-.344 1.063-.797 1.457-1.491.338-.596.543-1.079.667-1.855.071-.456.402-1.447.05-1.41z" fill="#FFDC5D" ts:skin="#F7DECE|#F3D2A2|#D4AB88|#AF7E57|#7C533E" ts:gender="neutral,female"/>
	<path d="M30.399,10.652 c-.084.009-.143.102-.203.238-.023-.164-.074-.276-.184-.264-.129.013-.201.22-.304.492-.027-.047-.062-.079-.117-.078-.261.009-.349.811-.909 1.334-.081.036-.154.078-.248.104-.059.016-.098.041-.146.061.005-.255.171-.405.271-.474.239-.166.089-.586-.314-.331-.289.183-.41.365-.501.55-.255.519-.354 1.058-.333 1.487l-.119.215c-.139.242-1.626 1.17-2.696 1.967-1.066.793-1.846 1.694-2.415 1.132-.396-.391-1.462-1.74-3.322-2.833-1.124-.661-2.733-.866-2.733-.866-.807.662.226 3.019.812 3.647.981 1.051 4.341 2.844 5.388 3.31s1.704-.161 2.196-.609c.403-.366 3.434-4.072 3.703-4.326.365-.344 1.063-.797 1.457-1.491.338-.596.543-1.079.667-1.855.071-.456.402-1.447.05-1.41z " fill="#FFDC5D" ts:skin="#F7DECE|#F3D2A2|#D4AB88|#AF7E57|#7C533E" ts:gender="male"/>
	<!-- x- arm - neutral only (layering mistake?) -->
	<path d="M7.399 17.278c-1.878 1.035-3.24 2.455-3.336 2.617-.239.404-.437 1.592-.276 2.415.145.741.177 2.238.66 2.915.198.277.107.759-.032 1.208-.419 1.353.306 3.199-.145 2.882-.918-.644-1.074-1.83-1.047-2.528.015-.393-.166-.884-.257-1.138-.059-.16-1.245-3.203-1.518-4.54-.148-.722-.333-1.302.275-2.155.903-1.266 2.094-2.996 3.311-3.885 2.012-1.471 3.936-1.687 3.936-1.687s-.911 3.532-1.571 3.896z " fill="#FFDC5D" ts:skin="#F7DECE|#F3D2A2|#D4AB88|#AF7E57|#7C533E" ts:gender="neutral"/>
	<!-- clothes / chest details -->
	<path d="M8.969 13.384l-1.437 3.902.983 6.288 7.697.327.994-6.615-1.081-3.902s-.857-.176-3.562-.176-3.594.176-3.594.176z" fill="#FF5540" ts:gender="neutral"/>
	<path d="M14.985 18.332c-1.131 0-1.968-.354-2.014-.374-.126-.055-.185-.202-.13-.328.054-.126.2-.187.328-.131.014.006 1.35.565 2.857.215.137-.029.269.053.3.187.031.134-.053.269-.187.3-.403.095-.793.131-1.154.131z M9.661,18.332 c-.36 0-.75-.036-1.155-.13-.134-.031-.218-.166-.187-.3.031-.134.164-.216.3-.187 1.516.353 2.844-.209 2.857-.215.127-.056.274.003.329.13s-.004.274-.13.329c-.047.02-.883.373-2.014.373z" fill="#EF9645" ts:skin="#E0AA94|#D2A077|#B78B60|#90603E|#583529" ts:gender="male"/>
	<path d="M12.369 17.286s-1.209-1.301-2.418-1.301-2.418 1.301-2.418 1.301l.983 3.902h7.681l1.009-3.902s-1.209-1.301-2.418-1.301-2.419 1.301-2.419 1.301z" fill="#DD415D" ts:gender="female"/>
	<!-- tail -->
	<path d="M28.744 25.545c1.738-2.783-.967-7.196-.967-7.196-.067.534-.348 1.714-.348 1.714-.163.998-.678 2.566-2.219 4.469-1.049 1.294 4.467 5.504 5.708 4.687 1.937-1.276 1.587-3.432 3.655-5.726.367-.407.8-.817 1.346-1.228-3.575-.319-7.175 3.28-7.175 3.28z M25.62100000,28.62300000 c-4.478 3.618-9.355 2.292-10.385 1.38l-7.644-5.978c-5.516 0-4.48 7.846 1.132 10.349 9.576 4.271 17.103-1.423 18.399-4.18l-1.502-1.571z" fill="#316116" ts:gender-color="#184F87|#316116"/>
	<path d="M27.814 26.878c1.408-2.155.357-5.346-.385-6.815-.163.998-.843 2.383-2.384 4.286-1.049 1.294-.483 3.302-.021 4.199l.001.001c-3.596 2.842-7.065 2.264-8.825 1.464 1.17-.542 1.986-1.7 1.986-3.053 0-1.87-1.547-3.385-3.454-3.385h-7.14c-5.516 0-4.48 7.39 1.132 9.843 9.165 4.007 17-.67 18.793-3.448.863.096 2.363.056 3.573-.741 1.937-1.276 1.414-3.441 3.482-5.734-3.483.249-6.758 3.383-6.758 3.383z" fill="#66A644" ts:gender-color="#4292E0|#66A644"/>
	<path d="M16.212 30.014c-2.309-.46-6.994-2.625-7.193-2.717-.194-.09-.278-.319-.188-.512.09-.195.321-.28.513-.188.048.022 5.488 2.428 7.707 2.869 0 0-.158.133-.336.267-.179.132-.503.281-.503.281z" fill="#316116" ts:gender-color="#184F87|#316116"/>
	<!-- x- hand -->
	<path d="M7.399 17.278c-1.878 1.035-3.24 2.455-3.336 2.617-.239.404-.437 1.592-.276 2.415.145.741.177 2.238.66 2.915.198.277.107.759-.032 1.208-.419 1.353.306 3.199-.145 2.882-.918-.644-1.074-1.83-1.047-2.528.015-.393-.166-.884-.257-1.138-.059-.16-1.245-3.203-1.518-4.54-.148-.722-.333-1.302.275-2.155.903-1.266 2.094-2.996 3.311-3.885 2.012-1.471 3.936-1.687 3.936-1.687s-.911 3.532-1.571 3.896z " fill="#FFDC5D" ts:skin="#F7DECE|#F3D2A2|#D4AB88|#AF7E57|#7C533E" ts:gender="female"/>
	<path d="M7.482 17.392c-1.878 1.035-3.267 2.429-3.38 2.58-.477.637-.324 1.509-.251 2.345.086.995.112 2.231.595 2.908.198.277.107.759-.032 1.208-.419 1.353.306 3.199-.145 2.882-.918-.644-1.074-1.83-1.047-2.528.015-.393-.166-.884-.257-1.138-.059-.16-1.348-3.094-1.622-4.431-.148-.722-.186-1.381.379-2.263.621-.971 1.939-2.945 3.117-3.885.989-.789 1.564-1.189 1.914-1.38 1.57-.857 1.389 3.338.729 3.702z " fill="#FFDC5D" ts:skin="#F7DECE|#F3D2A2|#D4AB88|#AF7E57|#7C533E" ts:gender="male"/>
	<!-- neck -->
	<path d="M10.63 9.387v3.714c0 1.026.831 3.61 1.857 3.61s1.857-2.584 1.857-3.61V9.387H10.63z" fill="#FFDC5D" ts:skin="#F7DECE|#F3D2A2|#D4AB88|#AF7E57|#7C533E" ts:gender="neutral"/>
	<path d="M10.53900000,10.29100000 v3.727c0 1.029.834 1.864 1.864 1.864 1.029 0 1.864-.834 1.864-1.864v-3.727h-3.728z" fill="#FFDC5D" ts:skin="#F7DECE|#F3D2A2|#D4AB88|#AF7E57|#7C533E" ts:gender="male"/>
	<path d="M10.706 9.387v3.714c0 1.026.831 1.857 1.857 1.857s1.857-.831 1.857-1.857V9.387h-3.714z" fill="#FFDC5D" ts:skin="#F7DECE|#F3D2A2|#D4AB88|#AF7E57|#7C533E" ts:gender="female"/>
	<!-- neck shadow -->
	<path d="M10.63 12.825c.517.585 1.159.743 1.857.743.697 0 1.339-.159 1.857-.743v-1.486H10.63v1.486z" fill="#F9CA55" ts:skin="#EEC2AD|#E2C196|#CC9B7A|#9B6A49|#664131" ts:gender="neutral"/>
	<path d="M14.267 9.36l-3.727.017v3.71s1.864.932 3.727 0V9.36z" fill="#F9CA55" ts:skin="#EEC2AD|#E2C196|#CC9B7A|#9B6A49|#664131" ts:gender="male"/>
	<path d="M14.419 9.387l-3.714.017v3.697s1.857.928 3.714 0V9.387z" fill="#F9CA55" ts:skin="#EEC2AD|#E2C196|#CC9B7A|#9B6A49|#664131" ts:gender="female"/>
	<!-- face -->
	<path d="M16.577 5.821c-.35-.484-.798-.875-1.78-1.013.368.169.721.752.767 1.074.046.322.092.583-.199.261-1.168-1.291-2.44-.783-3.7-1.571-.88-.551-1.148-1.16-1.148-1.16s-.107.813-1.442 1.642c-.387.24-.849.775-1.105 1.565-.185.568-.128 1.074-.128 1.939 0 2.526 2.081 4.649 4.649 4.649s4.649-2.142 4.649-4.649c.001-1.571-.164-2.184-.563-2.737z" fill="#FFDC5D" ts:skin="#F7DECE|#F3D2A2|#D4AB88|#AF7E57|#7C533E" ts:gender="neutral"/>
	<path d="M17.062 4.701l-9.318-.827v4.554c0 2.574 2.086 4.659 4.659 4.659s4.659-2.085 4.659-4.659V4.701z" fill="#FFDC5D" ts:skin="#F7DECE|#F3D2A2|#D4AB88|#AF7E57|#7C533E" ts:gender="male"/>
	<path d="M17.205 2.934H7.92V8.48c0 2.553 2.078 4.621 4.642 4.621 2.564 0 4.643-2.068 4.643-4.621V2.934z" fill="#FFDC5D" ts:skin="#F7DECE|#F3D2A2|#D4AB88|#AF7E57|#7C533E" ts:gender="female"/>
	<!-- eyes -->
	<path d="M10.425 8.042c-.285 0-.517-.231-.517-.517v-.516c0-.285.231-.517.517-.517.285 0 .517.231.517.517v.517c0 .285-.231.516-.517.516z M14.55800000,8.04200000 c-.285 0-.517-.231-.517-.517v-.516c0-.285.231-.517.517-.517s.517.231.517.517v.517c-.001.285-.232.516-.517.516z" fill="#662113" ts:skin="#662113|#662113|#662113|#662113|#000000" ts:gender="neutral"/>
	<circle cx="10.241" cy="7.994" r=".464" fill="#662113" ts:skin="#662113|#662113|#662113|#662113|#000000" ts:gender="female"/>
	<circle cx="14.884" cy="7.994" r=".464" fill="#662113" ts:skin="#662113|#662113|#662113|#662113|#000000" ts:gender="female"/>
	<circle cx="10.073" cy="7.962" r=".466" fill="#662113" ts:skin="#662113|#662113|#662113|#662113|#000000" ts:gender="male"/>
	<circle cx="14.733" cy="7.962" r=".466" fill="#662113" ts:skin="#662113|#662113|#662113|#662113|#000000" ts:gender="male"/>
	<!-- nose -->
	<path d="M13.008,9.850 h-1.033c-.143 0-.258-.116-.258-.258s.116-.258.258-.258h1.033c.143 0 .258.116.258.258s-.115.258-.258.258z" fill="#C1694F" ts:skin="#C1694F|#C1694F|#C1694F|#915A34|#3D2E24" ts:gender="neutral"/>
	<path d="M11.471 9.36h1.864s0 .932-.932.932-.932-.932-.932-.932z" fill="#C1694F" ts:skin="#C1694F|#C1694F|#C1694F|#915A34|#3D2E24" ts:gender="male"/>
	<path d="M11.634 9.387h1.857s0 .928-.929.928c-.928 0-.928-.928-.928-.928z" fill="#C1694F" ts:skin="#C1694F|#C1694F|#C1694F|#915A34|#3D2E24" ts:gender="female"/>
	<!-- mouth -->
	<path d="M14.558 11.141h-4.132s.517 1.033 2.066 1.033 2.066-1.033 2.066-1.033z " fill="#C1694F" ts:skin="#C1694F|#C1694F|#C1694F|#915A34|#3D2E24" ts:gender="neutral"/>
	<path d="M14.267 11.223h-3.728s0 .932 1.864.932 1.864-.932 1.864-.932z" fill="#C1694F" ts:skin="#C1694F|#C1694F|#C1694F|#915A34|#3D2E24" ts:gender="male"/>
	<path d="M14.419 11.244h-3.714s0 .928 1.857.928 1.857-.928 1.857-.928z" fill="#DF1F32" ts:gender="female"/>
	<!-- front hair -->
	<path d="M12.403 1.013c3.199 0 5.198 2.36 5.198 4.327s-.4 2.754-.8 1.967l-.8-1.573s-2.399 0-3.198-.787c0 0 1.2 2.36-1.2 0 0 0 .4 1.574-1.999-.393 0 0-1.2.787-1.599 2.753-.111.546-.8 0-.8-1.967 0-1.966 1.6-4.327 5.198-4.327" fill="#4292E0" ts:gender="male"/>
	<path d="M18.133 6.601l-.613-4.114H6.992v4.114c3.674 0 3.713-3.628 3.714-3.707.001.08.08 3.707 7.427 3.707z" fill="#2CB4CD" ts:gender="female"/>
</svg>
