<svg viewBox="0 0 36 36" xmlns="http://www.w3.org/2000/svg">
	<!-- not much layer sharing -->
	<!-- head -->
	<path d="M3 18.562C3 10.037 8.373 3.125 15 3.125s12 6.912 12 15.438C27 27.088 21.627 34 15 34S3 27.088 3 18.562z" fill="#FFDC5D" data-skin="#F7DECE|#F3D2A2|#D5AB88|#AF7E57|#7C533E" data-gender="male"/>
	<!-- hat -->
	<path d="M20 0c-.249 0-.478.007-.713.012C19.19.01 19.097 0 19 0 9 0 2 4.582 2 9s6.373 4 13 4c4.442 0 7.648 0 9.966-.086L25 13l6 15h2s.343-3.055 1-7c1-6 .533-21-14-21z" fill="#DD2E44" data-gender="neutral,male"/>
	<!-- ears -->
	<path d="M5 21c0 2.209-1.119 4-2.5 4S0 23.209 0 21s1.119-4 2.5-4S5 18.791 5 21z" fill="#FFDC5D" data-skin="#F7DECE|#F3D2A2|#D5AB88|#AF7E57|#7C533E" data-gender="male"/>
	<path d="M30 21c0 2.209-1.119 4-2.5 4S25 23.209 25 21s1.119-4 2.5-4 2.5 1.791 2.5 4z" fill="#FFDC5D" data-skin="#F7DECE|#F3D2A2|#D5AB88|#AF7E57|#7C533E" data-gender="male"/>
	<!-- back hair -->
	<path d="M1.229 13c-.318 4.094.89 6.24 1.342 9.562.552 4.056 2.832 5.353 4.655 5.896 2.623 3.465 5.411 3.317 10.092 3.317 9.141 0 13.495-6.116 13.88-16.505.029-.781-.003-1.538-.093-2.269H1.229z" fill="#D1D3D4" data-gender="neutral"/>
	<path d="M10 25c0-2.209-.896-4-2-4s-2-2-2 3c0 2.209 1 5 3 5 1.104 0 1 0 1-4z M26.003,25 c0-2.209.896-4 2-4 1.105 0 2-2 2 3 0 2.209-1 5-3 5-1.105 0-1 0-1-4z" fill="#D1D3D4" data-gender="female"/>
	<!-- head -->
	<path d="M26.339 15.713c-.884-1.225-2.017-2.211-4.499-2.56.931.427 1.823 1.901 1.939 2.715.116.815.233 1.474-.504.659-2.952-3.263-6.167-1.978-9.354-3.972-2.226-1.392-2.903-2.933-2.903-2.933s-.272 2.056-3.646 4.15c-.978.607-2.145 1.959-2.793 3.956-.465 1.435-.321 2.715-.321 4.903 0 6.385 5.262 11.753 11.753 11.753s11.753-5.415 11.753-11.753c0-3.97-.416-5.521-1.425-6.918z" fill="#FFDC5D" data-skin="#F7DECE|#F3D2A2|#D4AB88|#AF7E57|#7C533E" data-gender="neutral"/>
	<path d="M6 18.562c0-8.526 5.373-15.438 12-15.438s12 6.912 12 15.438C30 28 23 34 18 34S6 28 6 18.562z" fill="#FFDC5D" data-skin="#F7DECE|#F3D2A2|#D5AB88|#AF7E57|#7C533E" data-gender="female"/>
	<!-- hair -->
	<ellipse cx="7" cy="14" fill="#D1D3D4" rx="2" ry="4" data-gender="female"/>
	<ellipse cx="29" cy="14" fill="#D1D3D4" rx="2" ry="4" data-gender="female"/>
	<ellipse cx="3" cy="14" fill="#D1D3D4" rx="2" ry="4" data-gender="male"/>
	<ellipse cx="26" cy="14" fill="#D1D3D4" rx="2" ry="4" data-gender="male"/>
	<!-- ears -->
	<path d="M8 21c0 2.209-1.119 4-2.5 4S3 23.209 3 21s1.119-4 2.5-4S8 18.791 8 21z" fill="#FFDC5D" data-skin="#F7DECE|#F3D2A2|#D5AB88|#AF7E57|#7C533E" data-gender="female"/>
	<path d="M33 21c0 2.209-1.119 4-2.5 4S28 23.209 28 21s1.119-4 2.5-4 2.5 1.791 2.5 4z" fill="#FFDC5D" data-skin="#F7DECE|#F3D2A2|#D5AB88|#AF7E57|#7C533E" data-gender="female"/>
	<!-- eyes -->
	<path d="M11 22c-.552 0-1-.447-1-1v-2c0-.552.448-1 1-1s1 .448 1 1v2c0 .553-.448 1-1 1z M21,22 c-.553 0-1-.447-1-1v-2c0-.552.447-1 1-1s1 .448 1 1v2c0 .553-.447 1-1 1z" fill="#662113" data-skin="#662113|#662113|#662113|#662113|#000000" data-gender="neutral"/>
	<path d="M10 21c-.552 0-1-.447-1-1v-2c0-.552.448-1 1-1s1 .448 1 1v2c0 .553-.448 1-1 1z M20,21 c-.553 0-1-.447-1-1v-2c0-.552.447-1 1-1s1 .448 1 1v2c0 .553-.447 1-1 1z" fill="#662113" data-skin="#662113|#662113|#662113|#60352A|#000000" data-gender="male"/>
	<path d="M12 23c-.552 0-1-.447-1-1v-2c0-.553.448-1 1-1s1 .447 1 1v2c0 .553-.448 1-1 1z M24,23 c-.553 0-1-.447-1-1v-2c0-.553.447-1 1-1s1 .447 1 1v2c0 .553-.447 1-1 1z" fill="#662113" data-skin="#662113|#662113|#662113|#60352A|#000000" data-gender="female"/>
	<!-- nose -->
	<path d="M17,26 h-2c-.552 0-1-.447-1-1s.448-1 1-1h2c.553 0 1 .447 1 1s-.447 1-1 1z" fill="#C1694F" data-skin="#C1694F|#C1694F|#C1694F|#915A34|#3D2E24" data-gender="neutral"/>
	<path d="M16 26h-2c-.552 0-1-.447-1-1s.448-1 1-1h2c.552 0 1 .447 1 1s-.448 1-1 1z" fill="#B7755E" data-skin="#B7755E|#B7755E|#B7755E|#915A34|#3D2E24" data-gender="male"/>
	<path d="M19 26h-2c-.553 0-1-.447-1-1s.447-1 1-1h2c.553 0 1 .447 1 1s-.447 1-1 1z" fill="#C1694F" data-skin="#C1694F|#C1694F|#C1694F|#915A34|#3D2E24" data-gender="female"/>
	<!-- mouth -->
	<path d="M16 31c-2.347 0-3.575-1.16-3.707-1.293-.391-.391-.391-1.023 0-1.414.387-.387 1.013-.39 1.404-.01.051.047.806.717 2.303.717 1.519 0 2.273-.69 2.305-.719.398-.373 1.027-.362 1.408.029.379.393.38 1.011-.006 1.397C19.575 29.84 18.347 31 16 31z " fill="#C1694F" data-skin="#C1694F|#C1694F|#C1694F|#915A34|#3D2E24" data-gender="neutral"/>
	<path d="M18 30.651c-2.42 0-4.274-.687-4.352-.715-.517-.194-.779-.771-.584-1.288.194-.517.769-.779 1.286-.585.016.006 1.61.588 3.65.588 2.041 0 3.635-.582 3.65-.588.516-.194 1.094.071 1.285.587.193.517-.067 1.092-.584 1.286-.077.029-1.93.715-4.351.715z" fill="#DD2E44" data-gender="female"/>
	<!-- beard -->
	<path d="M27 25c0-2-2.293-.707-3 0-1 1-3 3-5 2-2.828-1.414-4-1-4-1s-1.171-.414-4 1c-2 1-4-1-5-2-.707-.707-3-2-3 0s1 2 1 2c-1 2 1 3 1 3 0 3 3 3 3 3 0 3 4 2 4 2 1 1 3 1 3 1s2 0 3-1c0 0 4 1 4-2 0 0 3 0 3-3 0 0 2-1 1-3 0 0 1 0 1-2z" fill="#E6E7E8" data-gender="male"/>
	<path d="M15 28c7 0 4 2 0 2s-7-2 0-2z" fill="#FFDC5D" data-skin="#F7DECE|#F3D2A2|#D5AB88|#AF7E57|#7C533E" data-gender="male"/>
	<!-- glasses -->
	<ellipse cx="12.5" cy="24" fill="#D1D3D4" rx="3.5" ry="2" data-gender="female"/>
	<ellipse cx="23.5" cy="24" fill="#D1D3D4" rx="3.5" ry="2" data-gender="female"/>
	<!-- hat -->
	<path d="M30.961 10c.016-.185.039-.368.039-.556C31 4.229 25.175 0 17.989 0 10.803 0 4.978 4.229 4.978 9.444c0 .188.024.371.039.556h25.944z" fill="#DD2E44" data-gender="female"/>
	<circle cx="32" cy="29" fill="#F1F2F2" r="4" data-gender="neutral,male"></circle>
	<circle cx="6" cy="12" fill="#F1F2F2" r="3" data-gender="female"></circle>
	<circle cx="30" cy="12" fill="#F1F2F2" r="3" data-gender="female"></circle>
	<circle cx="18" cy="11" fill="#F1F2F2" r="4" data-gender="female"></circle>
	<circle cx="11.5" cy="11.5" fill="#F1F2F2" r="3.5" data-gender="female"></circle>
	<circle cx="24.5" cy="11.5" fill="#F1F2F2" r="3.5" data-gender="female"></circle>
	<path d="M32 12c0 1.104-.896 2-2 2H2c-1.104 0-2-.896-2-2v-1c0-1.104.896-2 2-2h28c1.104 0 2 .896 2 2v1z" fill="#F1F2F2" data-gender="neutral"/>
	<path d="M29 12c0 1.104-.896 2-2 2H2c-1.104 0-2-.896-2-2v-1c0-1.104.896-2 2-2h25c1.104 0 2 .896 2 2v1z" fill="#F1F2F2" data-gender="male"/>
	<path d="M33 12c0-1.657-30-1.657-30 0s1.343 3 3 3h24c1.657 0 3-1.343 3-3z" fill="#F1F2F2" data-gender="female"/>
</svg>
