<svg viewBox="0 0 36 36" xmlns="http://www.w3.org/2000/svg" xmlns:ts="data:,a">
	<!-- not much layer sharing -->
	<!-- head -->
	<ellipse cx="15" cy="18.5625" rx="12" ry="15.4375" ts:skin="skin" ts:gender="male"/>
	<!-- hat -->
	<path d="M20 0c-.249 0-.478.007-.713.012C19.19.01 19.097 0 19 0 9 0 2 4.582 2 9s6.373 4 13 4c4.442 0 7.648 0 9.966-.086L25 13l6 15h2s.343-3.055 1-7c1-6 .533-21-14-21z" fill="#DD2E44" ts:gender="neutral,male"/>
	<!-- back hair -->
	<path d="M1.229 13c-.318 4.094.89 6.24 1.342 9.562.552 4.056 2.832 5.353 4.655 5.896 2.623 3.465 5.411 3.317 10.092 3.317 9.141 0 13.495-6.116 13.88-16.505.029-.781-.003-1.538-.093-2.269H1.229z" fill="#D1D3D4" ts:gender="neutral"/> <!-- 1.37x scale -->
	<path d="M10 25c0-2.209-.896-4-2-4s-2-2-2 3c0 2.209 1 5 3 5 1.104 0 1 0 1-4z M26.003,25 c0-2.209.896-4 2-4 1.105 0 2-2 2 3 0 2.209-1 5-3 5-1.105 0-1 0-1-4z" fill="#D1D3D4" ts:gender="female"/>
	<!-- head -->
	<use href="defs.svg#face_neutral1" transform="translate(16.011 34.384) scale(1.306)" ts:skin="skin" ts:gender="neutral"/>
	<ellipse cx="2.5" cy="21" rx="2.5" ry="4" ts:skin="skin" ts:gender="male"/><ellipse cx="27.5" cy="21" rx="2.5" ry="4" ts:skin="skin" ts:gender="male"/>
	<path d="M6 18.562c0-8.526 5.373-15.438 12-15.438s12 6.912 12 15.438C30 28 23 34 18 34S6 28 6 18.562z" ts:skin="skin" ts:gender="female"/>
	<!-- hair -->
	<ellipse cx="7" cy="14" fill="#D1D3D4" rx="2" ry="4" ts:gender="female"/>
	<ellipse cx="29" cy="14" fill="#D1D3D4" rx="2" ry="4" ts:gender="female"/>
	<ellipse cx="3" cy="14" fill="#D1D3D4" rx="2" ry="4" ts:gender="male"/>
	<ellipse cx="26" cy="14" fill="#D1D3D4" rx="2" ry="4" ts:gender="male"/>
	<!-- ears -->
	<ellipse cx="5.5" cy="21" rx="2.5" ry="4" ts:skin="skin" ts:gender="female"/><ellipse cx="30.5" cy="21" rx="2.5" ry="4" ts:skin="skin" ts:gender="female"/>
	<!-- eyes -->
	<use href="defs.svg#eyes_big" x="16" y="20" ts:skin="eyes2" ts:gender="neutral"/>
	<rect x="9" y="17" width="2" height="4" rx="1" ts:skin="eyes" ts:gender="male"/><rect x="19" y="17" width="2" height="4" rx="1" ts:skin="eyes" ts:gender="male"/>
	<rect x="11" y="19" width="2" height="4" rx="1" ts:skin="eyes" ts:gender="female"/><rect x="23" y="19" width="2" height="4" rx="1" ts:skin="eyes" ts:gender="female"/>
	<!-- nose -->
	<use href="defs.svg#nose_big" x="16" y="25" ts:skin="nose" ts:gender="neutral"/>
	<use href="defs.svg#nose_big" x="15" y="25" ts:skin="nose" ts:gender="male"/> <!-- different color in orig ?? -->
	<use href="defs.svg#nose_big" x="18" y="25" ts:skin="nose" ts:gender="female"/>
	<!-- mouth -->
	<use href="defs.svg#mouth_female_big" x="16" y="30" ts:skin="mouth" ts:gender="neutral"/>
	<path d="M18 30.651c-2.42 0-4.274-.687-4.352-.715-.517-.194-.779-.771-.584-1.288.194-.517.769-.779 1.286-.585.016.006 1.61.588 3.65.588 2.041 0 3.635-.582 3.65-.588.516-.194 1.094.071 1.285.587.193.517-.067 1.092-.584 1.286-.077.029-1.93.715-4.351.715z" fill="#DD2E44" ts:gender="female"/>
	<!-- beard -->
	<path d="M 27,25 c 0,2 -1,2 -1,2 c 1,2 -1,3 -1,3 c 0,3 -3,3 -3,3 c 0,3 -4,2 -4,2 c -1,1 -3,1 -3,1 s -2,0 -3,-1 c 0,0 -4,1 -4,-2 c 0,0 -3,0 -3,-3 c 0,0 -2,-1 -1,-3 c 0,0 -1,0 -1,-2 s 2.293,-0.707 3,0 c 1,1 3,3 5,2 c 2.829,-1.414 4,-1 4,-1 s 1.172,-0.414 4,1 c 2,1 4,-1 5,-2 c 0.707,-0.707 3,-2 3,0 Z M 15,28 c -7,0 -4,2 0,2 s 7,-2 0,-2 Z" fill="#E6E7E8" ts:gender="male"/> <!-- has hole -->
	<!-- glasses -->
	<ellipse cx="12.5" cy="24" fill="#D1D3D4" rx="3.5" ry="2" ts:gender="female"/><ellipse cx="23.5" cy="24" fill="#D1D3D4" rx="3.5" ry="2" ts:gender="female"/>
	<!-- hat -->
	<path d="M30.961 10c.016-.185.039-.368.039-.556C31 4.229 25.175 0 17.989 0 10.803 0 4.978 4.229 4.978 9.444c0 .188.024.371.039.556h25.944z" fill="#DD2E44" ts:gender="female"/>
	<circle cx="32" cy="29" fill="#F1F2F2" r="4" ts:gender="neutral,male"/>
	<circle cx="6" cy="12" fill="#F1F2F2" r="3" ts:gender="female"/>
	<circle cx="30" cy="12" fill="#F1F2F2" r="3" ts:gender="female"/>
	<circle cx="18" cy="11" fill="#F1F2F2" r="4" ts:gender="female"/>
	<circle cx="11.5" cy="11.5" fill="#F1F2F2" r="3.5" ts:gender="female"/>
	<circle cx="24.5" cy="11.5" fill="#F1F2F2" r="3.5" ts:gender="female"/>
	<rect x="0" y="9" width="32" height="5" rx="2" fill="#F1F2F2" ts:gender="neutral"/>
	<rect x="0" y="9" width="29" height="5" rx="2" fill="#F1F2F2" ts:gender="male"/>
	<path d="M33 12c0-1.657-30-1.657-30 0s1.343 3 3 3h24c1.657 0 3-1.343 3-3z" fill="#F1F2F2" ts:gender="female"/>
</svg>
