<svg viewBox="0 0 36 36" xmlns="http://www.w3.org/2000/svg" xmlns:ts="data:,a">
	<!-- chart bg -->
	<rect x="0" y="0" width="30" height="30" rx="4" fill="#CCD6DC"/>
	<rect x="2" y="2" width="26" height="26" rx="2" fill="#F5F8FA"/>
	<!-- bars -->
	<rect x="5" y="12" width="2" height="14" rx="1" fill="#50A5E6"/>
	<rect x="9" y="7" width="2" height="19" rx="1" fill="#77B255"/>
	<rect x="13" y="17" width="2" height="9" rx="1" fill="#DD2F45" ts:gender="neutral,male"/> <!-- :( -->
	<!-- back hair -->
	<use href="defs.svg#hair_neutral" x="25.731" y="3.323" ts:skin="hair" ts:gender="neutral"/>
	<use href="defs.svg#hair_back_female" x="23.2" y="3.979" ts:skin="hair" ts:gender="female"/>
	<!-- body -->
	<use href="defs.svg#shoulders_male" x="22" fill="#226798" ts:gender="neutral,male"/>
	<use href="defs.svg#shoulders_female_tall" x="23" fill="#226798" ts:gender="female"/>
	<path d="M28.25 26l-3.182 10h-4.091L18.25 26z" fill="#F4F7F9" ts:gender="female"/>
	<!-- lapel -->
	<path d="M 16.667,36 l 0.333,-1 l -3,-1 l 1,-6 h 2 l 3.2,8 h -3.533 Z M 27.333,36 h -3.533 l 3.2,-8 h 2 l 1,6 l -3,1 l 0.333,1 Z" fill="#3A87C2" ts:gender="neutral,male"/>
	<path d="M 19,26 l 3.5,10 h -3.5 l 0.5,-3.5 l -3,-1 l 1,-5.5 h 1.5 Z M 27.5,26 h 1.5 l 0.5,5.5 l -3,1 l 0.5,3.5 h -3.5 l 4,-10 Z" fill="#3A87C2" ts:gender="female"/>
	<!-- inner shirt -->
	<path d="M24 36l3-6H17l3 6z" fill="#CCD6DC" ts:gender="neutral"/>
	<path d="M20 36H24 l 2 -4 -3.99 -1.867 L18 32 z" fill="#CCD6DC" ts:gender="male"/>
	<!-- tie -->
	<path d="M 19.903,36 c 0.367,-1.332 0.797,-2.438 0.797,-2.438 s -0.373,-0.625 -0.529,-0.906 c -0.182,-0.33 -0.469,-1.57 -0.469,-1.57 l 2.235,-0.957 l 0.16,-0.006 l 2.188,0.963 s -0.269,1.24 -0.453,1.57 c -0.156,0.281 -0.531,0.906 -0.531,0.906 s 0.447,1.176 0.841,2.438 h -4.239 Z" fill="#9F1D22" ts:gender="male"/>
	<path d="M 22.004,30.813 c 0.391,-0.023 1.543,0.771 1.422,1.25 c -0.461,1.826 -0.848,1.391 -1.391,1.391 c -0.611,0 -0.963,0.473 -1.391,-1.312 c -0.091,-0.388 0.797,-1.298 1.36,-1.329 Z M 22.031,33.957 c 0.744,0 1.246,1.025 1.562,2.043 h -3.132 c 0.32,-1.018 0.826,-2.043 1.57,-2.043 Z" fill="#DD2F45" ts:gender="male"/>
	<!-- neck -->
	<path d="M18.321 28.679c.681.649 1.419 1.529 2.055 2.344.828 1.062 2.435 1.06 3.26-.004.632-.815 1.365-1.693 2.044-2.34.423-.403.68-.95.68-1.534v-.783c0-1.144-.928-2.072-2.072-2.072h-4.576c-1.144 0-2.072.928-2.072 2.072v.782c0 .585.257 1.132.681 1.535z" ts:skin="skin" ts:gender="neutral"/>
	<path d="M17.64 28.101c1.744 1.268 2.857 2.032 4.37 2.032 1.512 0 2.606-.766 4.35-2.032V24.29h-8.72v3.811z" ts:skin="skin" ts:gender="male"/>
	<path d="M19.755 26c1 1.982 2.792 4.5 3.5 4.5s2.512-2.549 3.5-4.5v-3.591h-7V26z" ts:skin="skin" ts:gender="female"/>
	
	<use href="defs.svg#neck_shadow_male" x="21.996" y="27.719" ts:skin="dark" ts:gender="neutral,male"/>
	<path d="M19.755 24.054c.975 1.102 2.185 1.4 3.499 1.4 1.315 0 2.526-.298 3.501-1.4v-2.801h-7v2.801z" ts:skin="dark" ts:gender="female"/>
	<!-- shirt collar -->
	<path d="M 26.719,26.75 c 0.271,-0.271 0.97,0.904 0.959,1.207 c -0.041,1.084 -0.387,5.939 -0.584,5.709 c -1.957,-2.291 -3.084,-3.13 -3.084,-3.13 s 2.142,-3.22 2.709,-3.786 Z M 17.301,26.75 c 0.566,0.566 2.709,3.786 2.709,3.786 s -1.127,0.839 -3.084,3.13 c -0.197,0.23 -0.543,-4.625 -0.584,-5.709 c -0.012,-0.303 0.687,-1.478 0.959,-1.207 Z" fill="#F4F7F9" ts:gender="neutral"/>
	<path d="M 26.719,26.75 c 0.271,-0.271 0.97,0.904 0.959,1.207 c -0.041,1.084 -1.387,5.939 -1.584,5.709 c -1.957,-2.291 -4.084,-3.533 -4.084,-3.533 s 4.142,-2.817 4.709,-3.383 Z M 17.301,26.75 c 0.566,0.566 4.709,3.383 4.709,3.383 s -2.127,1.242 -4.084,3.533 c -0.197,0.23 -1.543,-4.625 -1.584,-5.709 c -0.012,-0.303 0.687,-1.478 0.959,-1.207 Z" fill="#F4F7F9" ts:gender="male"/>
	<!-- face -->
	<use href="defs.svg#face_neutral" x="29.547" y="13.273" ts:skin="skin" ts:gender="neutral"/>
	<use href="defs.svg#face_male" x="22" y="16.959" ts:skin="skin" ts:gender="male"/>
	<use href="defs.svg#face_female" x="14.989" y="14.627" ts:skin="skin" ts:gender="female"/>
	<!-- front hair -->
	<use href="defs.svg#hair_male1" x="22" y="3.48" ts:skin="hair" ts:gender="male"/>
	<use href="defs.svg#hair_front_female" x="23.2" y="3.979" ts:skin="hair" ts:gender="female"/>
	<use href="defs.svg#ears_female" x="23.2545" y="14.8445" ts:skin="skin" ts:gender="female"/>
	<!-- eyes -->
	<use href="defs.svg#eyes_neutral" x="22.008" y="15.9405" ts:skin="eyes2" ts:gender="neutral"/>
	<use href="defs.svg#eyes_male" x="22" y="15.5" ts:skin="eyes2" ts:gender="male"/>
	<use href="defs.svg#eyes_female" x="23.24575" y="15.527" ts:skin="eyes2" ts:gender="female"/>
	<!-- nose -->
	<use href="defs.svg#nose_neutral" x="22.008" y="20.23" ts:skin="nose" ts:gender="neutral"/>
	<use href="defs.svg#nose_male" x="22.0" y="19.0" ts:skin="nose" ts:gender="male"/>
	<use href="defs.svg#nose_female" x="23.2465" y="18.909" ts:skin="nose" ts:gender="female"/>
	<!-- mouth -->
	<use href="defs.svg#mouth_neutral" x="22.134" y="24.686" ts:skin="mouth" ts:gender="neutral"/>
	<use href="defs.svg#mouth_neutral" x="22" y="23.802" ts:skin="mouth" ts:gender="male"/>
	<use href="defs.svg#mouth_female" x="23.2" y="22.452" ts:skin="mouth" ts:gender="female"/>
</svg>
