<svg viewBox="0 0 36 36" xmlns="http://www.w3.org/2000/svg" xmlns:ts="data:,a">
	<!-- chart bg -->
	<rect x="0" y="0" width="30" height="30" rx="4" fill="#CCD6DC"/>
	<rect x="2" y="2" width="26" height="26" rx="2" fill="#F5F8FA"/>
	<!-- bars -->
	<rect x="5" y="12" width="2" height="14" rx="1" fill="#50A5E6"/>
	<rect x="9" y="7" width="2" height="19" rx="1" fill="#77B255"/>
	<rect x="13" y="17" width="2" height="9" rx="1" fill="#DD2F45" ts:gender="neutral,male"/> <!-- :( -->
	<!-- back hair -->
	<path d="M25.731 3.323c-1.925-.623-6.455-.453-7.588 1.019-2.944.057-6.398 2.718-6.851 6.228-.448 3.475.551 5.088.906 7.701.403 2.96 2.067 3.907 3.397 4.303 1.914 2.529 3.949 2.421 7.366 2.421 6.672 0 9.85-4.464 10.131-12.047.17-4.585-2.521-8.059-7.361-9.625z" fill="#FFAC33" ts:skin="hair" ts:gender="neutral"/>
	<use href="defs.svg#hair_back_female" x="23.2" y="3.979" fill="#FFAC33" ts:skin="hair" ts:gender="female"/>
	<!-- body -->
	<path d="M36 36v-2c0-3.314-2.685-6-6-6H14c-3.313 0-6 2.686-6 6v2h28z" fill="#226798" ts:gender="neutral,male"/>
	<path d="M36 36v-4.5c0-3.314-3.561-5.5-6.875-5.5h-12C13.812 26 10 28.186 10 31.5V36h26z" fill="#226798" ts:gender="female"/>
	<path d="M28.25 26l-3.182 10h-4.091L18.25 26" fill="#F4F7F9" ts:gender="female"/>
	<path d="M16.667 36H20.2L17 28h-2l-1 6 3 1z " fill="#3A87C2" ts:gender="neutral,male"/>
	<path d="M27.333,36 H23.8l3.2-8h2l1 6-3 1z" fill="#3A87C2" ts:gender="neutral,male"/>
	<path d="M19 26h-1.5l-1 5.5 3 1L19 36h3.5z " fill="#3A87C2" ts:gender="female"/>
	<path d="M27.5,26 H29l.5 5.5-3 1L27 36h-3.5z" fill="#3A87C2" ts:gender="female"/>
	<path d="M24 36l3-6H17l3 6z" fill="#CCD6DC" ts:gender="neutral"/>
	<path d="M20.461 36H24l2-4-3.99-1.867L18 32l2 4z" fill="#CCD6DC" ts:gender="male"/>
	<path d="M22.031 33.957c.744 0 1.246 1.025 1.562 2.043h.549c-.394-1.262-.841-2.438-.841-2.438s.375-.625.531-.906c.184-.33.453-1.57.453-1.57l-2.188-.963c0-.006-.16.006-.16.006l-.184.043-.172.062c-.217.07.094.008.094.014l-1.973.838s.287 1.24.469 1.57c.156.281.529.906.529.906s-.43 1.106-.797 2.438h.559c.319-1.018.826-2.043 1.569-2.043z" fill="#9F1D22" ts:gender="male"/>
	<path d="M22.004,30.813 c.391-.023 1.543.771 1.422 1.25-.461 1.826-.848 1.391-1.391 1.391-.611 0-.963.473-1.391-1.312-.091-.388.797-1.298 1.36-1.329" fill="#DD2F45" ts:gender="male"/>
	<path d="M22.031 33.957c-.744 0-1.25 1.025-1.57 2.043h3.132c-.316-1.018-.818-2.043-1.562-2.043z " fill="#DD2F45" ts:gender="male"/>
	<!-- neck -->
	<path d="M18.321 28.679c.681.649 1.419 1.529 2.055 2.344.828 1.062 2.435 1.06 3.26-.004.632-.815 1.365-1.693 2.044-2.34.423-.403.68-.95.68-1.534v-.783c0-1.144-.928-2.072-2.072-2.072h-4.576c-1.144 0-2.072.928-2.072 2.072v.782c0 .585.257 1.132.681 1.535z" fill="#FFDC5D" ts:skin="skin" ts:gender="neutral"/>
	<path d="M17.64 28.101c1.744 1.268 2.857 2.032 4.37 2.032 1.512 0 2.606-.766 4.35-2.032V24.29h-8.72v3.811z" fill="#FFDB5E" ts:skin="skin" ts:gender="male"/>
	<path d="M19.755 26c1 1.982 2.792 4.5 3.5 4.5s2.512-2.549 3.5-4.5v-3.591h-7V26z" fill="#FFDB5E" ts:skin="skin" ts:gender="female"/>
	<!-- shirt collar -->
	<path d="M26.719 26.75c-.567.566-2.709 3.786-2.709 3.786s1.127.839 3.084 3.13c.197.23.543-4.625.584-5.709.011-.303-.688-1.478-.959-1.207m-9.418 0c.566.566 2.709 3.786 2.709 3.786s-1.127.839-3.084 3.13c-.197.23-.543-4.625-.584-5.709-.012-.303.687-1.478.959-1.207" fill="#F4F7F9" ts:gender="neutral"/>
	<path d="M26.719 26.75c-.567.566-4.709 3.383-4.709 3.383s2.127 1.242 4.084 3.533c.197.23 1.543-4.625 1.584-5.709.011-.303-.688-1.478-.959-1.207m-9.418 0c.566.566 4.709 3.383 4.709 3.383s-2.127 1.242-4.084 3.533c-.197.23-1.543-4.625-1.584-5.709-.012-.303.687-1.478.959-1.207" fill="#F4F7F9" ts:gender="male"/>
	<!-- neck shadow -->
	<path d="M17.632 25.973c1.216 1.374 2.724 1.746 4.364 1.746 1.639 0 3.147-.373 4.363-1.746v-3.491h-8.728v3.491z" fill="#F9CA55" ts:skin="dark" ts:gender="neutral,male"/>
	<path d="M19.755 24.054c.975 1.102 2.185 1.4 3.499 1.4 1.315 0 2.526-.298 3.501-1.4v-2.801h-7v2.801z" fill="#F8C954" ts:skin="dark" ts:gender="female"/>
	<!-- face -->
	<path d="M29.547 13.273c-.646-.894-1.472-1.614-3.284-1.868.68.311 1.331 1.387 1.416 1.982.085.595.17 1.076-.368.481-2.155-2.382-4.502-1.444-6.827-2.899-1.624-1.016-2.119-2.141-2.119-2.141s-.198 1.5-2.661 3.029c-.714.443-1.566 1.43-2.038 2.888-.34 1.048-.234 1.982-.234 3.578 0 4.66 3.841 8.578 8.578 8.578s8.578-3.953 8.578-8.578c-.002-2.898-.305-4.031-1.041-5.05z" fill="#FFDC5D" ts:skin="skin" ts:gender="neutral"/>
	<ellipse cx="13.806" cy="15.9355" rx="1.639" ry="2.6225" fill="#FFDB5E" ts:skin="skin" ts:gender="male"/><ellipse cx="30.194" cy="15.9355" rx="1.639" ry="2.6225" fill="#FFDB5E" ts:skin="skin" ts:gender="male"/>
	<ellipse cx="22.001" cy="16.96" rx="8.523" ry="10.121" fill="#FFDB5E" ts:skin="skin" ts:gender="male"/>
	<path d="M14.989 14.627c0-5.834 3.676-10.563 8.211-10.563 4.533 0 8.209 4.729 8.209 10.563 0 5.833-3.676 10.285-8.209 10.285-4.535 0-8.211-4.452-8.211-10.285" fill="#FFDB5E" ts:skin="skin" ts:gender="female"/>
	<!-- front hair -->
	<path d="M22 3.48c5.648 0 9.178 4.168 9.178 7.641s-.706 4.863-1.412 3.473l-1.412-2.778s-4.235 0-5.647-1.39c0 0 2.118 4.168-2.118 0 0 0 .706 2.779-3.53-.694 0 0-2.118 1.389-2.824 4.862-.196.964-1.412 0-1.412-3.473C12.822 7.648 15.646 3.48 22 3.48" fill="#FAAA35" ts:skin="hair" ts:gender="male"/>
	<use href="defs.svg#hair_front_female" x="23.2" y="3.979" fill="#FFAC33" ts:skin="hair" ts:gender="female"/>
	<!-- ears -->
	<ellipse cx="31.449" cy="14.8445" rx="1.639" ry="2.6225" fill="#FFDB5E" ts:skin="skin" ts:gender="female"/><ellipse cx="15.06" cy="14.8445" rx="1.639" ry="2.6225" fill="#FFDB5E" ts:skin="skin" ts:gender="female"/>
	<!-- eyes -->
	<rect x="17.242" y="14.511" width="1.906" height="2.859" rx="0.953" fill="#662113" ts:skin="eyes2" ts:gender="neutral"/><rect x="24.868" y="14.511" width="1.906" height="2.859" rx="0.953" fill="#662113" ts:skin="eyes2" ts:gender="neutral"/>
	<rect x="25" y="14" width="2" height="3" rx="1" fill="#662213" ts:skin="eyes2" ts:gender="male"/><rect x="17" y="14" width="2" height="3" rx="1" fill="#662213" ts:skin="eyes2" ts:gender="male"/>
	<rect x="25.782" y="14.258" width="1.692" height="2.538" rx="0.84625" fill="#662213" ts:skin="eyes2" ts:gender="female"/><rect x="19.017" y="14.258" width="1.693" height="2.538" rx="0.8465" fill="#662213" ts:skin="eyes2" ts:gender="female"/>
	<!-- nose -->
	<path d="M22.961 20.707h-1.906c-.263 0-.477-.213-.477-.477s.213-.477.477-.477h1.906c.263 0 .477.213.477.477s-.213.477-.477.477z" fill="#C1694F" ts:skin="nose" ts:gender="neutral"/>
	<path d="M24.091 19.409h-1.69c-.233 0-.423-.189-.423-.423v-.153c0-.233.189-.424.423-.424h1.69c.233 0 .424.19.424.424v.153c0 .234-.191.423-.424.423" fill="#C1694F" ts:skin="nose" ts:gender="female"/>
	<!-- mouth -->
	<path d="M22.134 24.686c-2.754 0-3.6-.705-3.741-.848-.256-.256-.256-.671 0-.927.248-.248.646-.255.902-.023.052.037.721.487 2.839.487 2.2 0 2.836-.485 2.842-.49.256-.255.657-.243.913.015.256.256.242.683-.014.938-.142.143-.987.848-3.741.848" fill="#C1694F" ts:skin="nose" ts:gender="neutral"/>
	<path d="M23.2 22.452c-1.606 0-2.447-.794-2.537-.885-.268-.267-.268-.7 0-.967.266-.265.692-.267.961-.007.035.032.551.491 1.576.491 1.038 0 1.555-.473 1.576-.492.273-.256.703-.248.963.019.26.269.26.691-.004.955-.089.092-.929.886-2.535.886" fill="#DE2032" ts:gender="female"/>
	<!-- nose+mouth -->
	<path d="M22 23.802c-2.754 0-3.6-.705-3.741-.848-.256-.256-.256-.671 0-.927.248-.248.646-.255.902-.023.052.037.721.487 2.839.487 2.2 0 2.836-.485 2.842-.49.256-.255.657-.243.913.015.256.256.242.683-.014.938-.141.143-.987.848-3.741.848 m.75-4.052h-1.5c-.413 0-.75-.337-.75-.75s.337-.75.75-.75h1.5c.413 0 .75.337.75.75s-.337.75-.75.75" fill="#C1694F" ts:skin="nose" ts:gender="male"/>
	
</svg>
