<svg viewBox="0 0 36 36" xmlns="http://www.w3.org/2000/svg">
	<!-- chart bg -->
	<path d="M30 26c0 2.209-1.791 4-4 4H4c-2.209 0-4-1.791-4-4V4c0-2.209 1.791-4 4-4h22c2.209 0 4 1.791 4 4v22z" fill="#CCD6DC" data-gender="neutral,male,female"/>
	<path d="M28 26c0 1.104-.896 2-2 2H4c-1.104 0-2-.896-2-2V4c0-1.104.896-2 2-2h22c1.104 0 2 .896 2 2v22z" fill="#F5F8FA" data-gender="neutral,male,female"/>
	<!-- bars -->
	<path d="M6 26c-.553 0-1-.448-1-1V13c0-.552.447-1 1-1s1 .448 1 1v12c0 .552-.447 1-1 1z" fill="#50A5E6" data-gender="neutral,male,female"/>
	<path d="M10 26c-.553 0-1-.448-1-1V8c0-.552.447-1 1-1s1 .448 1 1v17c0 .552-.447 1-1 1z" fill="#77B255" data-gender="neutral,male,female"/>
	<path d="M14 26c-.553 0-1-.448-1-1v-7c0-.552.447-1 1-1s1 .448 1 1v7c0 .552-.447 1-1 1z" fill="#DD2F45" data-gender="neutral,male"/> <!-- :( -->
	<!-- back hair -->
	<path d="M25.731 3.323c-1.925-.623-6.455-.453-7.588 1.019-2.944.057-6.398 2.718-6.851 6.228-.448 3.475.551 5.088.906 7.701.403 2.96 2.067 3.907 3.397 4.303 1.914 2.529 3.949 2.421 7.366 2.421 6.672 0 9.85-4.464 10.131-12.047.17-4.585-2.521-8.059-7.361-9.625z" fill="#FFAC33" data-skin="#292F33|#FFE51E|#963B22|#60352A|#0B0200" data-gender="neutral"/>
	<path d="M23.2 3.979c4.104 0 10.947 2.053 10.947 10.947 0 8.895 0 10.948-2.053 10.948s-4.79-2.053-8.895-2.053c-4.106 0-6.785 2.053-8.896 2.053-2.287 0-2.053-8.211-2.053-10.948.002-8.895 6.845-10.947 10.95-10.947" fill="#FAAA35" data-skin="#292F33|#FFE51E|#963B22|#60352A|#0B0200" data-gender="female"/>
	<!-- body -->
	<path d="M36 36v-2c0-3.314-2.685-6-6-6H14c-3.313 0-6 2.686-6 6v2h28z" fill="#226798" data-gender="neutral,male"/>
	<path d="M36 36v-4.5c0-3.314-3.561-5.5-6.875-5.5h-12C13.812 26 10 28.186 10 31.5V36h26z" fill="#226798" data-gender="female"/>
	<path d="M28.25 26l-3.182 10h-4.091L18.25 26" fill="#F4F7F9" data-gender="female"/>
	<path d="M16.667 36H20.2L17 28h-2l-1 6 3 1z " fill="#3A87C2" data-gender="neutral,male"/>
	<path d="M27.33300000,36.00000000 H23.8l3.2-8h2l1 6-3 1z" fill="#3A87C2" data-gender="neutral,male"/>
	<path d="M19 26h-1.5l-1 5.5 3 1L19 36h3.5z " fill="#3A87C2" data-gender="female"/>
	<path d="M27.50000000,26.00000000 H29l.5 5.5-3 1L27 36h-3.5z" fill="#3A87C2" data-gender="female"/>
	<path d="M24 36l3-6H17l3 6z" fill="#CCD6DC" data-gender="neutral"/>
	<path d="M20.461 36H24l2-4-3.99-1.867L18 32l2 4z" fill="#CCD6DC" data-gender="male"/>
	<path d="M22.031 33.957c.744 0 1.246 1.025 1.562 2.043h.549c-.394-1.262-.841-2.438-.841-2.438s.375-.625.531-.906c.184-.33.453-1.57.453-1.57l-2.188-.963c0-.006-.16.006-.16.006l-.184.043-.172.062c-.217.07.094.008.094.014l-1.973.838s.287 1.24.469 1.57c.156.281.529.906.529.906s-.43 1.106-.797 2.438h.559c.319-1.018.826-2.043 1.569-2.043z" fill="#9F1D22" data-gender="male"/>
	<path d="M22.00400000,30.81300000 c.391-.023 1.543.771 1.422 1.25-.461 1.826-.848 1.391-1.391 1.391-.611 0-.963.473-1.391-1.312-.091-.388.797-1.298 1.36-1.329" fill="#DD2F45" data-gender="male"/>
	<path d="M22.031 33.957c-.744 0-1.25 1.025-1.57 2.043h3.132c-.316-1.018-.818-2.043-1.562-2.043z " fill="#DD2F45" data-gender="male"/>
	<!-- neck -->
	<path d="M18.321 28.679c.681.649 1.419 1.529 2.055 2.344.828 1.062 2.435 1.06 3.26-.004.632-.815 1.365-1.693 2.044-2.34.423-.403.68-.95.68-1.534v-.783c0-1.144-.928-2.072-2.072-2.072h-4.576c-1.144 0-2.072.928-2.072 2.072v.782c0 .585.257 1.132.681 1.535z" fill="#FFDC5D" data-skin="#F7DECE|#F3D2A2|#D4AB88|#AF7E57|#7C533E" data-gender="neutral"/>
	<path d="M17.64 28.101c1.744 1.268 2.857 2.032 4.37 2.032 1.512 0 2.606-.766 4.35-2.032V24.29h-8.72v3.811z" fill="#FFDB5E" data-skin="#F6DDCD|#F2D1A1|#D4AB88|#AE7E57|#7C543E" data-gender="male"/>
	<path d="M19.755 26c1 1.982 2.792 4.5 3.5 4.5s2.512-2.549 3.5-4.5v-3.591h-7V26z" fill="#FFDB5E" data-skin="#F6DDCD|#F2D1A1|#D4AB88|#AE7E57|#7C543E" data-gender="female"/>
	<!-- shirt collar -->
	<path d="M26.719 26.75c-.567.566-2.709 3.786-2.709 3.786s1.127.839 3.084 3.13c.197.23.543-4.625.584-5.709.011-.303-.688-1.478-.959-1.207m-9.418 0c.566.566 2.709 3.786 2.709 3.786s-1.127.839-3.084 3.13c-.197.23-.543-4.625-.584-5.709-.012-.303.687-1.478.959-1.207" fill="#F4F7F9" data-gender="neutral"/>
	<path d="M26.719 26.75c-.567.566-4.709 3.383-4.709 3.383s2.127 1.242 4.084 3.533c.197.23 1.543-4.625 1.584-5.709.011-.303-.688-1.478-.959-1.207m-9.418 0c.566.566 4.709 3.383 4.709 3.383s-2.127 1.242-4.084 3.533c-.197.23-1.543-4.625-1.584-5.709-.012-.303.687-1.478.959-1.207" fill="#F4F7F9" data-gender="male"/>
	<!-- neck shadow -->
	<path d="M17.632 25.973c1.216 1.374 2.724 1.746 4.364 1.746 1.639 0 3.147-.373 4.363-1.746v-3.491h-8.728v3.491z" fill="#F9CA55" data-skin="#EEC2AD|#E2C196|#CC9B7A|#9B6A49|#664131" data-gender="neutral,male"/>
	<path d="M19.755 24.054c.975 1.102 2.185 1.4 3.499 1.4 1.315 0 2.526-.298 3.501-1.4v-2.801h-7v2.801z" fill="#F8C954" data-skin="#ECC0AC|#E0BF94|#CB9A7A|#9A6A4A|#674232" data-gender="female"/>
	<!-- face -->
	<path d="M29.547 13.273c-.646-.894-1.472-1.614-3.284-1.868.68.311 1.331 1.387 1.416 1.982.085.595.17 1.076-.368.481-2.155-2.382-4.502-1.444-6.827-2.899-1.624-1.016-2.119-2.141-2.119-2.141s-.198 1.5-2.661 3.029c-.714.443-1.566 1.43-2.038 2.888-.34 1.048-.234 1.982-.234 3.578 0 4.66 3.841 8.578 8.578 8.578s8.578-3.953 8.578-8.578c-.002-2.898-.305-4.031-1.041-5.05z" fill="#FFDC5D" data-skin="#F7DECE|#F3D2A2|#D4AB88|#AF7E57|#7C533E" data-gender="neutral"/>
	<path d="M13.478 16.96c0-5.589 3.816-10.121 8.523-10.121s8.523 4.532 8.523 10.121-3.816 10.121-8.523 10.121c-4.707-.001-8.523-4.532-8.523-10.121" fill="#FFDB5E" data-skin="#F6DDCD|#F2D1A1|#D4AB88|#AE7E57|#7C543E" data-gender="male"/>
	<path d="M14.989 14.627c0-5.834 3.676-10.563 8.211-10.563 4.533 0 8.209 4.729 8.209 10.563 0 5.833-3.676 10.285-8.209 10.285-4.535 0-8.211-4.452-8.211-10.285" fill="#FFDB5E" data-skin="#F6DDCD|#F2D1A1|#D4AB88|#AE7E57|#7C543E" data-gender="female"/>
	<!-- ears -->
	<path d="M15.445 15.936c0 1.448-.734 2.622-1.639 2.622s-1.639-1.174-1.639-2.622.734-2.623 1.639-2.623 1.639 1.174 1.639 2.623m16.388 0c0 1.448-.733 2.622-1.639 2.622-.905 0-1.639-1.174-1.639-2.622s.733-2.623 1.639-2.623 1.639 1.174 1.639 2.623" fill="#FFDB5E" data-skin="#F6DDCD|#F2D1A1|#D4AB88|#AE7E57|#7C543E" data-gender="male"/>
	<!-- front hair -->
	<path d="M22 3.48c5.648 0 9.178 4.168 9.178 7.641s-.706 4.863-1.412 3.473l-1.412-2.778s-4.235 0-5.647-1.39c0 0 2.118 4.168-2.118 0 0 0 .706 2.779-3.53-.694 0 0-2.118 1.389-2.824 4.862-.196.964-1.412 0-1.412-3.473C12.822 7.648 15.646 3.48 22 3.48" fill="#FAAA35" data-skin="#292F33|#FFE51E|#963B22|#60352A|#0B0200" data-gender="male"/>
	<path d="M12.98 17.909c-.021-1-.044-.224-.044-.465 0-3.422 2.053.494 2.053-1.943 0-2.438 1.368-2.683 2.736-4.051.685-.685 2.053-2.026 2.053-2.026s3.421 2.067 6.158 2.067c2.736 0 5.474 1.375 5.474 4.112 0 2.736 2.053-1.584 2.053 1.837 0 .244-.022-.531-.04.469h.719c.006-2 .006-1.924.006-3.202C34.148 5.813 27.306 2.5 23.2 2.5c-4.104 0-10.947 3.257-10.947 12.152 0 .793-.02 1.257.008 3.257h.719z" fill="#FAAA35" data-skin="#292F33|#FFE51E|#963B22|#60352A|#0B0200" data-gender="female"/>
	<!-- ears -->
	<path d="M33.088 14.845c0 1.448-.733 2.622-1.639 2.622-.905 0-1.639-1.174-1.639-2.622s.733-2.623 1.639-2.623 1.639 1.175 1.639 2.623m-16.389 0c0 1.448-.734 2.622-1.639 2.622s-1.639-1.174-1.639-2.622.734-2.623 1.639-2.623 1.639 1.175 1.639 2.623" fill="#FFDB5E" data-skin="#F6DDCD|#F2D1A1|#D4AB88|#AE7E57|#7C543E" data-gender="female"/>
	<!-- nose -->
	<path d="M22.961 20.707h-1.906c-.263 0-.477-.213-.477-.477s.213-.477.477-.477h1.906c.263 0 .477.213.477.477s-.213.477-.477.477z" fill="#C1694F" data-skin="#C1694F|#C1694F|#C1694F|#915A34|#3D2E24" data-gender="neutral"/>
	<path d="M24.091 19.409h-1.69c-.233 0-.423-.189-.423-.423v-.153c0-.233.189-.424.423-.424h1.69c.233 0 .424.19.424.424v.153c0 .234-.191.423-.424.423" fill="#C1694F" data-skin="#C1694F|#C1694F|#C1694F|#915A34|#3D2E24" data-gender="female"/>
	<!-- mouth -->
	<path d="M22.134 24.686c-2.754 0-3.6-.705-3.741-.848-.256-.256-.256-.671 0-.927.248-.248.646-.255.902-.023.052.037.721.487 2.839.487 2.2 0 2.836-.485 2.842-.49.256-.255.657-.243.913.015.256.256.242.683-.014.938-.142.143-.987.848-3.741.848" fill="#C1694F" data-skin="#C1694F|#C1694F|#C1694F|#915A34|#3D2E24" data-gender="neutral"/>
	<path d="M23.2 22.452c-1.606 0-2.447-.794-2.537-.885-.268-.267-.268-.7 0-.967.266-.265.692-.267.961-.007.035.032.551.491 1.576.491 1.038 0 1.555-.473 1.576-.492.273-.256.703-.248.963.019.26.269.26.691-.004.955-.089.092-.929.886-2.535.886" fill="#DE2032" data-gender="female"/>
	<!-- nose+mouth -->
	<path d="M22 23.802c-2.754 0-3.6-.705-3.741-.848-.256-.256-.256-.671 0-.927.248-.248.646-.255.902-.023.052.037.721.487 2.839.487 2.2 0 2.836-.485 2.842-.49.256-.255.657-.243.913.015.256.256.242.683-.014.938-.141.143-.987.848-3.741.848 m.75-4.052h-1.5c-.413 0-.75-.337-.75-.75s.337-.75.75-.75h1.5c.413 0 .75.337.75.75s-.337.75-.75.75" fill="#C1694F" data-skin="#C1694F|#C1694F|#C1694F|#915A34|#3D2E24" data-gender="male"/>
	<!-- eyes -->
	<path d="M18.195 17.37c-.526 0-.953-.427-.953-.953v-.953c0-.526.427-.953.953-.953s.953.427.953.953v.953c0 .527-.426.953-.953.953z M25.82100000,17.37000000 c-.526 0-.953-.427-.953-.953v-.953c0-.526.427-.953.953-.953s.953.427.953.953v.953c0 .527-.427.953-.953.953z" fill="#662113" data-skin="#662113|#662113|#662113|#662113|#000000" data-gender="neutral"/>
	<path d="M26 17c-.55 0-1-.45-1-1v-1c0-.55.45-1 1-1s1 .45 1 1v1c0 .55-.45 1-1 1m-8 0c-.55 0-1-.45-1-1v-1c0-.55.45-1 1-1s1 .45 1 1v1c0 .55-.45 1-1 1" fill="#662213" data-skin="#662113|#662113|#662113|#662113|#000000" data-gender="male"/>
	<path d="M26.628 16.796c-.465 0-.846-.381-.846-.847v-.845c0-.465.381-.846.846-.846.465 0 .846.381.846.846v.845c0 .466-.381.847-.846.847m-6.765 0c-.465 0-.846-.381-.846-.847v-.845c0-.465.381-.846.846-.846.466 0 .847.381.847.846v.845c0 .466-.381.847-.847.847" fill="#662213" data-skin="#662213|#662213|#662213|#662213|#000000" data-gender="female"/>
</svg>
