<svg viewBox="0 0 36 36" xmlns="http://www.w3.org/2000/svg" xmlns:ts="data:,a">
	<!-- chart bg -->
	<rect x="0" y="0" width="30" height="30" rx="4" fill="#CCD6DC"/>
	<rect x="2" y="2" width="26" height="26" rx="2" fill="#F5F8FA"/>
	<!-- bars -->
	<rect x="5" y="12" width="2" height="14" rx="1" fill="#50A5E6"/>
	<rect x="9" y="7" width="2" height="19" rx="1" fill="#77B255"/>
	<rect x="13" y="17" width="2" height="9" rx="1" fill="#DD2F45" ts:gender="neutral,male"/> <!-- :( -->
	<!-- back hair -->
	<use href="defs.svg#hair_neutral" x="25.731" y="3.323" fill="#FFAC33" ts:skin="hair" ts:gender="neutral"/>
	<use href="defs.svg#hair_back_female" x="23.2" y="3.979" fill="#FFAC33" ts:skin="hair" ts:gender="female"/>
	<!-- body -->
	<path d="M36 36v-2c0-3.314-2.685-6-6-6H14c-3.313 0-6 2.686-6 6v2h28z" fill="#226798" ts:gender="neutral,male"/>
	<path d="M36 36v-4.5c0-3.314-3.561-5.5-6.875-5.5h-12C13.812 26 10 28.186 10 31.5V36h26z" fill="#226798" ts:gender="female"/>
	<path d="M28.25 26l-3.182 10h-4.091L18.25 26" fill="#F4F7F9" ts:gender="female"/>
	<path d="M16.667 36H20.2L17 28h-2l-1 6 3 1z " fill="#3A87C2" ts:gender="neutral,male"/>
	<path d="M27.333,36 H23.8l3.2-8h2l1 6-3 1z" fill="#3A87C2" ts:gender="neutral,male"/>
	<path d="M19 26h-1.5l-1 5.5 3 1L19 36h3.5z " fill="#3A87C2" ts:gender="female"/>
	<path d="M27.5,26 H29l.5 5.5-3 1L27 36h-3.5z" fill="#3A87C2" ts:gender="female"/>
	<path d="M24 36l3-6H17l3 6z" fill="#CCD6DC" ts:gender="neutral"/>
	<path d="M20.461 36H24l2-4-3.99-1.867L18 32l2 4z" fill="#CCD6DC" ts:gender="male"/>
	<path d="M22.031 33.957c.744 0 1.246 1.025 1.562 2.043h.549c-.394-1.262-.841-2.438-.841-2.438s.375-.625.531-.906c.184-.33.453-1.57.453-1.57l-2.188-.963c0-.006-.16.006-.16.006l-.184.043-.172.062c-.217.07.094.008.094.014l-1.973.838s.287 1.24.469 1.57c.156.281.529.906.529.906s-.43 1.106-.797 2.438h.559c.319-1.018.826-2.043 1.569-2.043z" fill="#9F1D22" ts:gender="male"/>
	<path d="M22.004,30.813 c.391-.023 1.543.771 1.422 1.25-.461 1.826-.848 1.391-1.391 1.391-.611 0-.963.473-1.391-1.312-.091-.388.797-1.298 1.36-1.329" fill="#DD2F45" ts:gender="male"/>
	<path d="M22.031 33.957c-.744 0-1.25 1.025-1.57 2.043h3.132c-.316-1.018-.818-2.043-1.562-2.043z " fill="#DD2F45" ts:gender="male"/>
	<!-- neck -->
	<path d="M18.321 28.679c.681.649 1.419 1.529 2.055 2.344.828 1.062 2.435 1.06 3.26-.004.632-.815 1.365-1.693 2.044-2.34.423-.403.68-.95.68-1.534v-.783c0-1.144-.928-2.072-2.072-2.072h-4.576c-1.144 0-2.072.928-2.072 2.072v.782c0 .585.257 1.132.681 1.535z" fill="#FFDC5D" ts:skin="skin" ts:gender="neutral"/>
	<path d="M17.64 28.101c1.744 1.268 2.857 2.032 4.37 2.032 1.512 0 2.606-.766 4.35-2.032V24.29h-8.72v3.811z" fill="#FFDB5E" ts:skin="skin" ts:gender="male"/>
	<path d="M19.755 26c1 1.982 2.792 4.5 3.5 4.5s2.512-2.549 3.5-4.5v-3.591h-7V26z" fill="#FFDB5E" ts:skin="skin" ts:gender="female"/>
	<!-- shirt collar -->
	<path d="M26.719 26.75c-.567.566-2.709 3.786-2.709 3.786s1.127.839 3.084 3.13c.197.23.543-4.625.584-5.709.011-.303-.688-1.478-.959-1.207m-9.418 0c.566.566 2.709 3.786 2.709 3.786s-1.127.839-3.084 3.13c-.197.23-.543-4.625-.584-5.709-.012-.303.687-1.478.959-1.207" fill="#F4F7F9" ts:gender="neutral"/>
	<path d="M26.719 26.75c-.567.566-4.709 3.383-4.709 3.383s2.127 1.242 4.084 3.533c.197.23 1.543-4.625 1.584-5.709.011-.303-.688-1.478-.959-1.207m-9.418 0c.566.566 4.709 3.383 4.709 3.383s-2.127 1.242-4.084 3.533c-.197.23-1.543-4.625-1.584-5.709-.012-.303.687-1.478.959-1.207" fill="#F4F7F9" ts:gender="male"/>
	<!-- neck shadow -->
	<path d="M17.632 25.973c1.216 1.374 2.724 1.746 4.364 1.746 1.639 0 3.147-.373 4.363-1.746v-3.491h-8.728v3.491z" fill="#F9CA55" ts:skin="dark" ts:gender="neutral,male"/>
	<path d="M19.755 24.054c.975 1.102 2.185 1.4 3.499 1.4 1.315 0 2.526-.298 3.501-1.4v-2.801h-7v2.801z" fill="#F8C954" ts:skin="dark" ts:gender="female"/>
	<!-- face -->
	<use href="defs.svg#face_neutral" x="29.547" y="13.273" fill="#FFDC5D" ts:skin="skin" ts:gender="neutral"/>
	<use href="defs.svg#face_male" x="22" y="16.959" fill="#FFDC5D" ts:skin="skin" ts:gender="male"/>
	<use href="defs.svg#face_female" x="14.989" y="14.627" fill="#FFDC5D" ts:skin="skin" ts:gender="female"/>
	<!-- front hair -->
	<use href="defs.svg#hair_male" x="22" y="3.48" fill="#FFAC33" ts:skin="hair" ts:gender="male"/>
	<use href="defs.svg#hair_front_female" x="23.2" y="3.979" fill="#FFAC33" ts:skin="hair" ts:gender="female"/>
	<use href="defs.svg#ears_female" x="23.2545" y="14.8445" fill="#FFDC5D" ts:skin="skin" ts:gender="female"/>
	<!-- eyes -->
	<rect x="17.242" y="14.511" width="1.906" height="2.859" rx="0.953" fill="#662113" ts:skin="eyes2" ts:gender="neutral"/><rect x="24.868" y="14.511" width="1.906" height="2.859" rx="0.953" fill="#662113" ts:skin="eyes2" ts:gender="neutral"/>
	<rect x="25" y="14" width="2" height="3" rx="1" fill="#662213" ts:skin="eyes2" ts:gender="male"/><rect x="17" y="14" width="2" height="3" rx="1" fill="#662213" ts:skin="eyes2" ts:gender="male"/>
	<rect x="25.782" y="14.258" width="1.692" height="2.538" rx="0.84625" fill="#662213" ts:skin="eyes2" ts:gender="female"/><rect x="19.017" y="14.258" width="1.693" height="2.538" rx="0.8465" fill="#662213" ts:skin="eyes2" ts:gender="female"/>
	<!-- nose -->
	<rect x="20.578" y="19.753" width="2.86" height="0.954" rx="0.477" fill="#C1694F" ts:skin="nose" ts:gender="neutral"/>
	<rect x="20.5" y="18.25" width="3" height="1.5" rx="0.75" fill="#C1694F" ts:skin="nose" ts:gender="male"/>
	<rect x="21.978" y="18.409" width="2.537" height="1" rx="0.4235" fill="#C1694F" ts:skin="nose" ts:gender="female"/>
	<!-- mouth -->
	<use href="defs.svg#mouth_neutral" x="22.134" y="24.686" fill="#C1694F" ts:skin="nose" ts:gender="neutral"/>
	<use href="defs.svg#mouth_neutral" x="22" y="23.802" fill="#C1694F" ts:skin="nose" ts:gender="male"/>
	<use href="defs.svg#mouth_female" x="23.2" y="22.452" fill="#DF1F32" ts:gender="female"/>
</svg>
