<svg viewBox="0 0 36 36" xmlns="http://www.w3.org/2000/svg" xmlns:ts="data:,a">
	<!-- this emoji doesnt share any layers between genders -->
	<!-- back hair -->
	<path d="M23.111 3.081c-2.638-.853-8.844-.621-10.395 1.396-4.034.078-8.766 3.724-9.387 8.534-.614 4.76.754 6.971 1.241 10.551.552 4.056 2.832 5.353 4.655 5.896 2.623 3.465 5.411 3.317 10.092 3.317 9.141 0 13.495-6.116 13.88-16.505.232-6.284-3.454-11.043-10.086-13.189z" fill="#D1D3D4" ts:gender="neutral"/>
	<path d="M32.733 10.633C32.733 14.702 26.137 18 18 18S3.267 14.702 3.267 10.633 4.4 2 18 2c13.6 0 14.733 4.564 14.733 8.633z" fill="#D1D3D4" ts:gender="male"/>
	<path d="M13.062 4c0-2.209 2.211-4 4.938-4 2.728 0 4.938 1.791 4.938 4S20.728 8 18 8c-2.727-.001-4.938-1.792-4.938-4z" fill="#6D6E71" ts:gender="female"/>
	<!-- face -->
	<path d="M29.761 23.465c-.013-3.839-.429-5.376-1.422-6.752-.885-1.225-2.017-2.211-4.499-2.56.931.427 1.823 1.901 1.939 2.715.116.815.233 1.474-.504.659-2.953-3.263-6.167-1.978-9.354-3.972-2.226-1.392-2.903-2.933-2.903-2.933s-.272 2.056-3.646 4.15c-.978.607-2.145 1.959-2.793 3.956-.465 1.435-.321 2.715-.321 4.903v.071C6.928 30.214 9.218 35 18 35c8.94 0 11.113-4.901 11.761-11.535z" fill="#FFDC5D" ts:skin="skin" ts:gender="neutral"/>
	<path d="M32.167 13.466c-.318 0-.619.103-.904.258C29.903 6.108 24.486 1 18 1 11.513 1 6.097 6.108 4.737 13.724c-.285-.154-.586-.257-.904-.257C2.269 13.466 1 15.497 1 18c0 2.504 1.269 4.533 2.833 4.533.381 0 .743-.124 1.075-.342C6.503 29.574 11.753 35 18 35s11.497-5.426 13.091-12.81c.332.219.695.343 1.076.343C33.731 22.533 35 20.504 35 18c0-2.503-1.269-4.534-2.833-4.534z" fill="#FFDC5D" ts:skin="skin" ts:gender="male"/>
	<path d="M33 21c0-2.14-1.053-3.872-2.373-3.98C29.255 9.555 24.13 4 18 4S6.745 9.555 5.373 17.02C4.053 17.128 3 18.86 3 21c0 2.153 1.066 3.896 2.399 3.983C6.807 31.946 11.906 36 18 36c6.094 0 11.193-4.054 12.602-11.017C31.934 24.896 33 23.153 33 21z" fill="#FFDC5D" ts:skin="skin" ts:gender="female"/>
	<!-- earrings -->
	<circle cx="4" cy="24" fill="#AA8DD8" r="1" ts:gender="female"/>
	<circle cx="32" cy="24" fill="#AA8DD8" r="1" ts:gender="female"/>
	<!-- hair -->
	<path d="M33 12c-2-7-8-9-11.188-9C20 3 18 4 18 4s-2-1-4-1c-3 0-9 2-11 9-1.648 5.769 2 11 2 11 0-3.001 2-9 7-9s6-4 6-4 .786 4 5.786 4S31 20 31 23c0 0 3.648-5.231 2-11z" fill="#808285" ts:gender="female"/>
	<!-- eyebrows -->
	<rect x="21.5" y="18" width="5" height="2" rx="1" fill="#D1D3D4" ts:gender="neutral"/><rect x="9.5" y="18" width="5" height="2" rx="1" fill="#D1D3D4" ts:gender="neutral"/>
	<rect x="22" y="12" width="5" height="2" rx="1" fill="#D1D3D4" ts:gender="male"/><rect x="9" y="12" width="5" height="2" rx="1" fill="#D1D3D4" ts:gender="male"/>
	<rect x="21" y="17" width="5" height="2" rx="1" fill="#808285" ts:gender="female"/><rect x="10" y="17" width="5" height="2" rx="1" fill="#808285" ts:gender="female"/>
	<!-- eyes -->
	<rect x="12" y="21" width="2" height="3" rx="1" fill="#662113" ts:skin="eyes2" ts:gender="neutral"/><rect x="22" y="21" width="2" height="3" rx="1" fill="#662113" ts:skin="eyes2" ts:gender="neutral"/>
	<path d="M11.201 19c-.367 0-.72-.203-.895-.553-.247-.494-.046-1.095.447-1.342l2.267-1.133c.495-.247 1.095-.045 1.342.447.247.494.046 1.095-.447 1.342l-2.267 1.133c-.144.072-.297.106-.447.106z M24.799,19 c-.15 0-.303-.034-.446-.105l-2.267-1.133c-.494-.247-.694-.848-.447-1.342.246-.493.849-.695 1.342-.447l2.267 1.133c.494.247.694.848.447 1.342-.175.349-.529.552-.896.552z" fill="#662113" ts:skin="eyes" ts:gender="male"/>
	<use href="defs.svg#eyes_big" x="18" y="22" fill="#662113" ts:skin="eyes" ts:gender="female"/>
	<!-- nose -->
	<rect x="16" y="24.5" width="4" height="2" rx="1" fill="#C1694F" ts:skin="nose" ts:gender="neutral"/>
	<rect x="16" y="23" width="4" height="2" rx="1" fill="#C1694F" ts:skin="nose" ts:gender="male"/>
	<rect x="16" y="26" width="4" height="2" rx="1" fill="#C1694F" ts:skin="nose" ts:gender="female"/>
	<!-- mouth -->
	<path d="M18 31.5c-2.347 0-3.575-1.16-3.707-1.293-.391-.391-.391-1.023 0-1.414.387-.387 1.013-.39 1.404-.01.051.047.806.717 2.303.717 1.519 0 2.273-.689 2.305-.719.398-.373 1.027-.362 1.408.029.379.393.38 1.011-.006 1.396-.132.133-1.36 1.294-3.707 1.294z" fill="#C1694F" ts:skin="nose" ts:gender="neutral"/>
	<path d="M18 30.333c-2.474 0-4.879-1.188-4.981-1.238-.493-.247-.693-.846-.447-1.34.246-.495.848-.692 1.34-.45.021.011 2.094 1.028 4.087 1.028 2.008 0 4.065-1.017 4.086-1.027.493-.244 1.096-.047 1.342.447.247.494.047 1.095-.447 1.342-.101.051-2.505 1.238-4.98 1.238zz" fill="#C1694F" ts:skin="nose" ts:gender="male"/>
	<path d="M18 31.651c-2.519 0-3.494-.753-3.664-.903-.413-.367-.45-.999-.083-1.412.355-.402.963-.449 1.376-.113.06.039.7.429 2.371.429 1.751 0 2.37-.428 2.376-.433.414-.367 1.026-.311 1.392.101.367.413.31 1.062-.103 1.429-.171.149-1.146.902-3.665.902z" fill="#DF1F32" ts:gender="female"/> <!-- color in orig -->
</svg>
