<svg viewBox="0 0 36 36" xmlns="http://www.w3.org/2000/svg">
	<!-- legs -->
	<path d="M8.556 34.087c.131.787-2.091 1.454-2.376 1.326-.305-.137.988-.808.967-1.226-.106-2.12-.904-1.961-.818-4.18-.802-2.376-.355-4.621-.094-5.42.457-1.401 3.126.756 3.003 1.651-.204 1.488-.792 2.577-.815 3.757.42 1.883-.175 2.244.133 4.092z " fill="#FFDC5D" data-gender="neutral"/>
	<path d="M8.564 34.087c.131.787-2.091 1.454-2.376 1.326-.305-.137.988-.808.967-1.226-.106-2.12-.904-1.961-.818-4.18-.802-2.376-.735-4.653-.772-5.287-.087-1.472 3.804.623 3.682 1.518-.204 1.488-.663 2.321-.687 3.502.42 1.882-.304 2.499.004 4.347z " fill="#FFDC5D" data-gender="male"/>
	<path d="M8.564 34.087c.131.787-2.091 1.454-2.376 1.326-.305-.137.988-.808.967-1.226-.106-2.12-.904-1.961-.818-4.18-.802-2.376-.735-4.653-.772-5.287-.087-1.472 3.528.615 3.509 1.518-.038 1.776-.663 2.321-.687 3.502.42 1.882-.131 2.499.177 4.347z " fill="#FFDC5D" data-gender="female"/>
	<path d="M25.639 34.087c.131.787-2.091 1.454-2.376 1.326-.305-.137.988-.808.967-1.226-.106-2.12-.904-1.961-.818-4.18-.802-2.376-.355-4.621-.094-5.42.457-1.401 3.126.756 3.003 1.651-.204 1.488-.792 2.577-.815 3.757.42 1.883-.175 2.244.133 4.092z " fill="#FFDC5D" data-gender="neutral"/>
	<path d="M25.647 34.087c.131.787-2.091 1.454-2.376 1.326-.305-.137.988-.808.967-1.226-.106-2.12-.904-1.961-.818-4.18-.802-2.376-.735-4.653-.772-5.287-.087-1.472 3.804.623 3.682 1.518-.204 1.488-.663 2.321-.687 3.502.42 1.882-.304 2.499.004 4.347z " fill="#FFDC5D" data-gender="male"/>
	<path d="M25.647 34.087c.131.787-2.091 1.454-2.376 1.326-.305-.137.988-.808.967-1.226-.106-2.12-.904-1.961-.818-4.18-.802-2.376-.735-4.653-.772-5.287-.087-1.472 3.528.615 3.509 1.518-.038 1.776-.663 2.321-.687 3.502.419 1.882-.132 2.499.177 4.347z " fill="#FFDC5D" data-gender="female"/>
	<path d="M15.74400000,33.21500000 c.353.715.726 1.971.416 1.931-.331-.043-1.396-.505-1.736-1.427-.734-1.991-1.747-1.45-2.307-3.6-1.047-1.579-2.402-3.882-2.621-4.478-.509-1.384 3.391-1.737 3.619-.863.5 1.914.509 3.359.829 4.496.949 1.68.971 2.261 1.8 3.941z" fill="#FFDC5D" data-gender="neutral"/>
	<path d="M15.75300000,33.21500000 c.353.715.726 1.971.416 1.931-.331-.043-1.396-.505-1.736-1.427-.734-1.991-1.962-1.447-2.522-3.596-1.047-1.579-2.186-3.886-2.406-4.482-.509-1.384 3.391-1.737 3.619-.863.5 1.914.509 3.359.829 4.496.948 1.68.97 2.261 1.8 3.941z" fill="#FFDC5D" data-gender="male"/>
	<path d="M15.75300000,33.21500000 c.353.715.726 1.971.416 1.931-.331-.043-1.396-.505-1.736-1.427-.734-1.991-1.804-1.447-2.364-3.596-1.047-1.579-2.186-3.886-2.406-4.482-.509-1.384 3.441-1.701 3.683-.832.477 1.711.287 3.328.607 4.465.948 1.68.97 2.261 1.8 3.941z" fill="#FFDC5D" data-gender="female"/>
	<path d="M32.82700000,33.21500000 c.353.715.726 1.971.416 1.931-.331-.043-1.396-.505-1.736-1.427-.734-1.991-1.747-1.45-2.307-3.6-1.047-1.579-2.402-3.882-2.621-4.478-.509-1.384 3.391-1.737 3.619-.863.5 1.914.509 3.359.829 4.496.948 1.68.97 2.261 1.8 3.941z" fill="#FFDC5D" data-gender="neutral"/>
	<path d="M32.83500000,33.21500000 c.353.715.726 1.971.416 1.931-.331-.043-1.396-.505-1.736-1.427-.734-1.991-1.962-1.447-2.522-3.596-1.047-1.579-2.186-3.886-2.406-4.482-.509-1.384 3.391-1.737 3.619-.863.5 1.914.509 3.359.829 4.496.949 1.68.971 2.261 1.8 3.941z" fill="#FFDC5D" data-gender="male"/>
	<path d="M32.83500000,33.21500000 c.353.715.726 1.971.416 1.931-.331-.043-1.396-.505-1.736-1.427-.734-1.991-1.804-1.447-2.364-3.596-1.047-1.579-2.186-3.886-2.406-4.482-.509-1.384 3.441-1.701 3.683-.832.477 1.711.287 3.328.607 4.465.948 1.68.97 2.261 1.8 3.941z" fill="#FFDC5D" data-gender="female"/>
	<!-- arms -->
	<path d="M5.869 26.06c-.158.153-.56.236-.661.211-.235-.06-.764-.427-1.061-.786-.541-.652-2.661-1.333-3.223-2.72-.095-.234-.089-.52.081-.864.104-.21 1.53-2.556 2.831-3.804.427-.41.95-.872 1.569-.929.534-.049 1.055 1.182.826 1.653-.746 1.53-3.005 2.607-3.646 3.488 1.01.804.909 1.315 2.287 2.123.152-.095.45-.177.531-.159.081.018.27.143.241.387.025.018.234.186.283.274.135.239.146.928-.058 1.126z " fill="#FFDC5D" data-gender="neutral"/>
	<path d="M5.621 26.146c-.164.146-.57.212-.669.182-.232-.07-.745-.46-1.026-.831-.513-.675-2.601-1.446-3.103-2.856-.085-.238-.067-.524.118-.86.113-.205 1.505-2.37 2.77-3.655.336-.342 1.248-.428 1.676-.104.427.323 1.483.579 1.233 1.04-.811 1.497-3.441 2.342-4.119 3.194.974.847.851 1.353 2.193 2.22.156-.088.457-.158.538-.136.08.022.264.154.224.397.024.02.226.196.271.286.126.245.107.934-.106 1.123z " fill="#FFDC5D" data-gender="male"/>
	<path d="M5.621 26.146c-.164.146-.57.212-.669.182-.232-.07-.745-.46-1.026-.831-.513-.675-2.601-1.446-3.103-2.856-.085-.238-.067-.524.118-.86.113-.205 1.505-2.37 2.77-3.655.336-.342 1.248-.428 1.676-.104.427.323.483.579.233 1.04-.811 1.497-2.441 2.342-3.119 3.194.974.847.851 1.353 2.193 2.22.156-.088.457-.158.538-.136.08.022.264.154.224.397.024.02.226.196.271.286.126.245.107.934-.106 1.123z " fill="#FFDC5D" data-gender="female"/>
	<path d="M22.952 26.06c-.158.153-.56.236-.661.211-.235-.06-.764-.427-1.061-.786-.541-.652-2.661-1.333-3.223-2.72-.095-.234-.089-.52.081-.864.104-.21 1.53-2.556 2.831-3.804.427-.41.95-.872 1.569-.929.534-.049 1.055 1.182.826 1.653-.746 1.53-3.005 2.607-3.646 3.488 1.01.804.909 1.315 2.287 2.123.152-.095.45-.177.531-.159.081.018.27.143.241.387.025.018.234.186.283.274.135.239.146.928-.058 1.126z " fill="#FFDC5D" data-gender="neutral"/>
	<path d="M22.704 26.146c-.164.146-.57.212-.669.182-.232-.07-.745-.46-1.026-.831-.513-.675-2.601-1.446-3.103-2.856-.085-.238-.067-.524.118-.86.113-.205 1.505-2.37 2.77-3.655.336-.342 1.248-.428 1.676-.104.427.323 1.483.579 1.233 1.04-.811 1.497-3.441 2.342-4.119 3.194.974.847.851 1.353 2.193 2.22.156-.088.457-.158.538-.136.08.022.264.154.224.397.024.02.226.196.271.286.125.245.106.934-.106 1.123z " fill="#FFDC5D" data-gender="male"/>
	<path d="M22.703 26.146c-.164.146-.57.212-.669.182-.232-.07-.745-.46-1.026-.831-.513-.675-2.601-1.446-3.103-2.856-.085-.238-.067-.524.118-.86.113-.205 1.505-2.37 2.77-3.655.336-.342 1.248-.428 1.676-.104.427.323.483.579.233 1.04-.811 1.497-2.441 2.342-3.119 3.194.974.847.851 1.353 2.193 2.22.156-.088.457-.158.538-.136.08.022.264.154.224.397.024.02.226.196.271.286.126.245.107.934-.106 1.123z " fill="#FFDC5D" data-gender="female"/>
	<path d="M13.45300000,26.18600000 c.173.136.582.178.679.142.227-.083.716-.503.975-.89.472-.704 2.51-1.598 2.928-3.035.071-.243.036-.527-.169-.851-.125-.198-1.643-2.276-2.982-3.484-.356-.321-1.156-1.137-1.565-.788-.408.348-1.364 1.316-1.087 1.761.899 1.446 3.376 2.267 4.104 3.078-.922.903-.77 1.401-2.058 2.346-.161-.078-.466-.13-.545-.104-.079.027-.254.17-.2.409-.023.021-.214.209-.254.301-.109.253-.05.94.174 1.115z" fill="#FFDC5D" data-gender="neutral"/>
	<path d="M13.64400000,26.21100000 c.176.132.586.163.682.125.225-.089.703-.521.953-.914.454-.715 2.471-1.659 2.853-3.106.065-.244.023-.528-.19-.847-.13-.195-1.698-2.235-3.066-3.41-.364-.312-1.279-.322-1.679.037-.399.358-1.433.617-1.146 1.056.934 1.424 3.628 2.129 4.375 2.922-.9.925-.735 1.419-2 2.396-.163-.075-.469-.119-.547-.09-.078.029-.25.176-.19.414-.022.021-.209.214-.246.307-.103.255-.027.939.201 1.11z" fill="#FFDC5D" data-gender="male"/>
	<path d="M13.64400000,26.21100000 c.176.132.586.163.682.125.225-.089.703-.521.953-.914.454-.715 2.471-1.659 2.853-3.106.065-.244.023-.528-.19-.847-.13-.195-1.698-2.235-3.066-3.41-.364-.312-1.279-.322-1.679.037-.399.358-.433.617-.146 1.056.934 1.424 2.628 2.129 3.375 2.922-.9.925-.735 1.419-2 2.396-.163-.075-.469-.119-.547-.09-.078.029-.25.176-.19.414-.022.021-.209.214-.246.307-.103.255-.027.939.201 1.11z" fill="#FFDC5D" data-gender="female"/>
	
	<path d="M30.53500000,26.18600000 c.173.136.582.178.679.142.227-.083.716-.503.975-.89.472-.704 2.51-1.598 2.928-3.035.07-.243.036-.527-.169-.851-.125-.198-1.643-2.276-2.982-3.484-.356-.321-1.156-1.137-1.565-.788-.408.348-1.364 1.316-1.087 1.761.899 1.446 3.376 2.267 4.104 3.078-.922.903-.77 1.401-2.058 2.346-.161-.078-.466-.13-.545-.104-.079.027-.254.17-.2.409-.023.021-.214.209-.254.301-.109.253-.049.94.174 1.115z" fill="#FFDC5D" data-gender="neutral"/>
	<path d="M30.72600000,26.21100000 c.176.132.586.163.682.125.225-.089.703-.521.953-.914.454-.715 2.471-1.659 2.853-3.106.065-.244.023-.528-.19-.847-.13-.195-1.698-2.235-3.066-3.41-.364-.312-1.279-.322-1.679.037-.399.358-1.433.617-1.146 1.056.934 1.424 3.628 2.129 4.375 2.922-.9.925-.735 1.419-2 2.396-.163-.075-.469-.119-.547-.09-.078.029-.25.176-.19.414-.022.021-.209.214-.246.307-.103.255-.026.939.201 1.11z" fill="#FFDC5D" data-gender="male"/>
	<path d="M30.72600000,26.21100000 c.176.132.586.163.682.125.225-.089.703-.521.953-.914.454-.715 2.471-1.659 2.853-3.106.065-.244.023-.528-.19-.847-.13-.195-1.698-2.235-3.066-3.41-.364-.312-1.279-.322-1.679.037-.399.358-.433.617-.146 1.056.934 1.424 2.628 2.129 3.375 2.922-.9.925-.735 1.419-2 2.396-.163-.075-.469-.119-.547-.09-.078.029-.25.176-.19.414-.022.021-.209.214-.246.307-.103.255-.027.939.201 1.11z" fill="#FFDC5D" data-gender="female"/>
	<!-- clothes -->
	<path d="M14.129 17.359c-.716-.399-1.311-.707-2.415-.707H9.379v.002-.002H7.044c-.678 0-1.529.295-2.354.707.188.617.428 2.106.69 2.996.251.853 1.044 2.154.797 3.158-.134.545-.49 3.675-.326 4.7.906.074 2.079.178 2.955.342.234-.733.443-1.515.429-1.48.238.009.587-.017.803-.065.228.403.951 1.471.951 1.471s1.634-.282 2.792-.564c-.084-1.174-.662-3.612-.917-4.416-.288-.908.354-2.566.515-3.144.148-.535.75-2.998.75-2.998z" fill="#292F33" data-gender="neutral"/>
	<path d="M15.511 18.364c-.953-1.447-2.684-1.712-3.788-1.712H9.388v.002-.002H7.053c-1.104 0-2.835.265-3.788 1.712l2.124 2.288.147 4.008s.028 3.179.402 4.206c.564.04 1.958.198 2.797.315.043.006.203-1.076.509-2.106.238.009.587-.017.803-.065.407.69 1.073 2.028 1.101 2.002.812-.255 2.042-.664 2.621-.928-.084-1.174-.381-3.143-.381-3.143v-4.288l2.123-2.289z" fill="#292F33" data-gender="male"/>
	<path d="M15.511 18.364c-.953-1.447-2.684-1.712-3.788-1.712H9.388v.002-.002H7.053c-1.104 0-2.835.265-3.788 1.712l2.124 1.288s-.131 1.332.682 2.988c-.713 1.04-.535 2.02-.535 2.02s1.277 1.248 3.297 2.376c.153.086 1.427.024 1.555-.096 1.706-1.6 3-2 3-2s-.488-1.153-1.05-2.181c.812-1.656 1.05-3.107 1.05-3.107l2.123-1.288z" fill="#292F33" data-gender="female"/>
	<path d="M31.149 17.359c-.716-.399-1.311-.707-2.415-.707h-2.335v.002-.002h-2.335c-.678 0-1.529.295-2.354.707.188.617.428 2.106.69 2.996.251.853 1.044 2.154.797 3.158-.134.545-.49 3.675-.326 4.7.906.074 2.079.178 2.955.342.234-.733.443-1.515.429-1.48.238.009.587-.017.803-.065.228.403.951 1.471.951 1.471s1.634-.282 2.792-.564c-.084-1.174-.662-3.612-.917-4.416-.288-.908.354-2.566.515-3.144.148-.535.75-2.998.75-2.998z" fill="#292F33" data-gender="neutral"/>
	<path d="M32.593 18.364c-.953-1.447-2.684-1.712-3.788-1.712H26.47v.002-.002h-2.335c-1.104 0-2.835.265-3.788 1.712l2.124 2.288.147 4.008s.028 3.179.402 4.206c.564.04 1.958.198 2.797.315.043.006.203-1.076.509-2.106.238.009.587-.017.803-.065.407.69 1.073 2.028 1.101 2.002.812-.255 2.042-.664 2.621-.928-.084-1.174-.381-3.143-.381-3.143v-4.288l2.123-2.289z" fill="#292F33" data-gender="male"/>
	<path d="M32.593 18.364c-.953-1.447-2.684-1.712-3.788-1.712H26.47v.002-.002h-2.335c-1.104 0-2.835.265-3.788 1.712l2.124 1.288s-.131 1.332.682 2.988c-.713 1.04-.535 2.02-.535 2.02s1.277 1.248 3.297 2.376c.153.086 1.427.024 1.555-.096 1.706-1.6 3-2 3-2s-.488-1.153-1.05-2.181c.812-1.656 1.05-3.107 1.05-3.107l2.123-1.288z" fill="#292F33" data-gender="female"/>
	<!-- hair -->
	<path d="M11.558 2.851c-1.127-.364-3.778-.265-4.441.597-1.723.033-3.745 1.591-4.01 3.645-.262 2.034.322 2.978.53 4.507.236 1.733 1.21 2.287 1.988 2.519 1.12 1.48 2.311 1.417 4.311 1.417 3.905 0 5.765-2.613 5.929-7.051.101-2.684-1.474-4.717-4.307-5.634z" fill="#FFAC33" data-gender="neutral"/>
	<path d="M9.888 2.652c-1.186 0-2.282.379-3.181 1.018-1.846.096-3.319 1.611-3.319 3.482 0 1.542.007 3.484 2.038 4.207.998 1.387 2.622 2.292 4.462 2.292 3.037 0 5.5-2.462 5.5-5.499 0-3.037-2.463-5.5-5.5-5.5z" fill="#FFAC33" data-gender="male"/>
	<path d="M16.388 8.653c0-3.314-2.687-6.001-6.001-6.001-1.264 0-2.435.393-3.402 1.06-.196-.03-.393-.06-.598-.06-2.209 0-4 1.791-4 4v6h14V8.653z" fill="#FFAC33" data-gender="female"/>
	<path d="M28.641 2.851c-1.127-.365-3.778-.265-4.441.597-1.723.033-3.745 1.591-4.01 3.645-.262 2.034.322 2.978.53 4.507.236 1.733 1.21 2.287 1.988 2.519 1.12 1.48 2.311 1.417 4.311 1.417 3.905 0 5.765-2.613 5.929-7.051.101-2.684-1.474-4.717-4.307-5.634z" fill="#FFAC33" data-gender="neutral"/>
	<path d="M26.971 2.652c-1.186 0-2.282.379-3.181 1.018-1.847.096-3.319 1.611-3.319 3.482 0 1.542.007 3.484 2.038 4.207.998 1.387 2.622 2.292 4.462 2.292 3.037 0 5.5-2.462 5.5-5.499 0-3.037-2.463-5.5-5.5-5.5z" fill="#FFAC33" data-gender="male"/>
	<path d="M33.47 8.653c0-3.314-2.687-6.001-6.001-6.001-1.264 0-2.435.393-3.402 1.06-.196-.03-.393-.06-.598-.06-2.209 0-4 1.791-4 4v6h14V8.653z" fill="#FFAC33" data-gender="female"/>
	<!-- neck -->
	<path d="M12.05 17.343c0-.435-.117-.692-.672-.692v-3H7.38v3c-.555 0-.672.257-.672.692 0 .239 0 2.264 2.67 2.265h.003c2.669-.001 2.669-2.026 2.669-2.265z" fill="#FFDC5D" data-gender="neutral,male"/>
	<path d="M12.386 17.587c0-.588-.445-.935-1-.935v-3H7.388v3c-.555 0-1 .347-1 .935 0 .323 0 3.063 2.997 3.064h.004c2.997-.001 2.997-2.74 2.997-3.064z" fill="#FFDC5D" data-gender="female"/>
	<path d="M29.133 17.343c0-.435-.117-.692-.672-.692v-3h-3.998v3c-.555 0-.672.257-.672.692 0 .239 0 2.264 2.67 2.265h.003c2.669-.001 2.669-2.026 2.669-2.265z" fill="#FFDC5D" data-gender="neutral,male"/>
	<path d="M29.468 17.587c0-.588-.445-.935-1-.935v-3H24.47v3c-.555 0-1 .347-1 .935 0 .323 0 3.063 2.997 3.064h.004c2.997-.001 2.997-2.74 2.997-3.064z" fill="#FFDC5D" data-gender="female"/>
	<!-- neck shadow -->
	<path d="M7.379 16.242c.608.687 1.178.859 1.998.859.819 0 1.394-.173 2.002-.859v-.812h-4v.812z" fill="#F9CA55" data-gender="neutral,male,female"/>
	<path d="M24.462 16.242c.608.687 1.178.859 1.998.859.819 0 1.394-.173 2.002-.859v-.812h-4v.812z" fill="#F9CA55" data-gender="neutral,male,female"/>
	<!-- face -->
	<path d="M13.792 8.675c-.378-.523-.862-.944-1.922-1.094.398.182.779.812.828 1.16.05.348.099.63-.215.282-1.261-1.394-2.635-.845-3.996-1.697-.951-.595-1.24-1.253-1.24-1.253s-.117.879-1.558 1.773c-.418.259-.916.837-1.193 1.69-.199.613-.137 1.16-.137 2.094 0 2.728 2.248 5.021 5.021 5.021s5.021-2.313 5.021-5.021c-.001-1.696-.179-2.359-.609-2.955z" fill="#FFDC5D" data-gender="neutral"/>
	<path d="M14.388 5.652h-10v6.001c0 2.762 2.238 5 5 5s5-2.237 5-5V5.652z" fill="#FFDC5D" data-gender="male,female"/>
	<path d="M30.874 8.675c-.378-.523-.862-.944-1.922-1.094.398.182.779.812.828 1.16.05.348.099.63-.215.282-1.261-1.394-2.635-.845-3.996-1.697-.951-.595-1.24-1.253-1.24-1.253s-.116.878-1.558 1.773c-.418.259-.916.837-1.193 1.69-.199.613-.137 1.16-.137 2.094 0 2.728 2.248 5.021 5.021 5.021s5.021-2.313 5.021-5.021c0-1.696-.178-2.359-.609-2.955z" fill="#FFDC5D" data-gender="neutral"/>
	<path d="M31.471 5.652h-10v6.001c0 2.762 2.238 5 5 5s5-2.237 5-5V5.652z" fill="#FFDC5D" data-gender="male,female"/>
	<!-- front hair -->
	<path d="M4.417 5.152l-.5 2 .471 2.5c2.333 0 2.85-2.412 2.965-3.488.039 1.076.815 3.488 7.035 3.488l.529-2.5-.5-2h-10z" fill="#FFAC33" data-gender="male"/>
	<path d="M14.449 4.652h-10l-1 5c4 0 4-4 4-4s0 4 8 4l-1-5z" fill="#FFAC33" data-gender="female"/>
	<path d="M21.5 5.152l-.5 2 .471 2.5c2.333 0 2.85-2.412 2.965-3.488.039 1.076.815 3.488 7.035 3.488l.529-2.5-.5-2h-10z" fill="#FFAC33" data-gender="male"/>
	<path d="M31.531 4.652h-10l-1 5c4 0 4-4 4-4s0 4 8 4l-1-5z" fill="#FFAC33" data-gender="female"/>
	<!-- eyes -->
	<path d="M7.148 11.073c-.308 0-.558-.25-.558-.558v-.558c0-.308.25-.558.558-.558.308 0 .558.25.558.558v.558c0 .308-.25.558-.558.558z M11.61100000,11.07300000 c-.308 0-.558-.25-.558-.558v-.558c0-.308.25-.558.558-.558s.558.25.558.558v.558c0 .308-.25.558-.558.558z" fill="#662113" data-gender="neutral"/>
	<circle cx="6.888" cy="11.152" fill="#662113" r=".5" data-gender="male,female"/>
	<circle cx="11.888" cy="11.152" fill="#662113" r=".5" data-gender="male,female"/>
	<path d="M24.23 11.073c-.308 0-.558-.25-.558-.558v-.558c0-.308.25-.558.558-.558.308 0 .558.25.558.558v.558c0 .308-.25.558-.558.558z M28.69300000,11.07300000 c-.308 0-.558-.25-.558-.558v-.558c0-.308.25-.558.558-.558.308 0 .558.25.558.558v.558c0 .308-.25.558-.558.558z" fill="#662113" data-gender="neutral"/>
	<circle cx="23.971" cy="11.152" fill="#662113" r=".5" data-gender="male,female"/>
	<circle cx="28.971" cy="11.152" fill="#662113" r=".5" data-gender="male,female"/>
	<!-- nose -->
	<path d="M9.93700000,13.02600000 H8.821c-.154 0-.279-.125-.279-.279s.125-.279.279-.279h1.116c.154 0 .279.125.279.279s-.125.279-.279.279z" fill="#C1694F" data-gender="neutral"/>
	<path d="M27.02000000,13.02600000 h-1.116c-.154 0-.279-.125-.279-.279s.125-.279.279-.279h1.116c.154 0 .279.125.279.279s-.125.279-.279.279z" fill="#C1694F" data-gender="neutral"/>
	<path d="M8.388 12.652h2s0 1-1 1-1-1-1-1z" fill="#C1694F" data-gender="male,female"/>
	<path d="M25.471 12.652h2s0 1-1 1-1-1-1-1z" fill="#C1694F" data-gender="male,female"/>
	<!-- mouth -->
	<path d="M11.611 14.42H7.148s.558 1.116 2.231 1.116 2.232-1.116 2.232-1.116z " fill="#C1694F" data-gender="neutral"/>
	<path d="M11.388 14.652h-4s0 1 2 1 2-1 2-1z" fill="#C1694F" data-gender="male,female"/>
	<path d="M28.693 14.42H24.23s.558 1.116 2.232 1.116c1.674 0 2.231-1.116 2.231-1.116z " fill="#C1694F" data-gender="neutral"/>
	<path d="M28.471 14.652h-4s0 1 2 1 2-1 2-1z" fill="#C1694F" data-gender="male,female"/>
	<!-- ears -->
	<path d="M6.692 3.902c1.812-1.438 4.344-1.062 5.156.156.031.312-.37 1.178-.688 1.031-.812-.375-2.188-.938-4.063-.062-.092-.063-.44-1.098-.405-1.125z " fill="#292F33" data-gender="neutral"/>
	<path d="M6.7 3.902c1.812-1.438 4.344-1.062 5.156.156.031.312-.37 1.178-.688 1.031-.812-.375-2.188-.938-4.063-.062-.092-.063-.439-1.098-.405-1.125z " fill="#292F33" data-gender="male,female"/>
	<path d="M23.775 3.902c1.812-1.438 4.344-1.062 5.156.156.031.312-.37 1.178-.688 1.031-.812-.375-2.188-.938-4.063-.062-.093-.063-.44-1.098-.405-1.125z " fill="#292F33" data-gender="neutral,male,female"/>
	<path d="M4.067.777c2.625-.219 3.75 2.875 3 4.25-1.969 0-3.937-1.813-3-4.25z " fill="#292F33" data-gender="neutral,male,female"/>
	
	<path d="M21.15.777c2.625-.219 3.75 2.875 3 4.25-1.969 0-3.938-1.813-3-4.25z " fill="#292F33" data-gender="neutral,male,female"/>
	<path d="M14.05400000,0.83900000 c-2.625-.219-3.75 2.875-3 4.25 1.969 0 3.938-1.812 3-4.25z" fill="#292F33" data-gender="neutral,male,female"/>
	<path d="M31.13700000,0.83900000 c-2.625-.219-3.75 2.875-3 4.25 1.969 0 3.938-1.812 3-4.25z" fill="#292F33" data-gender="neutral"/>
	<path d="M31.14500000,0.83900000 c-2.625-.219-3.75 2.875-3 4.25 1.969 0 3.938-1.812 3-4.25z" fill="#292F33" data-gender="male,female"/>
	<!-- shoes -->
	<path d="M8.55600000,34.08700000 c.505.435.654 1.474-1.069 1.801-1.268.241-2.228.086-2.347-.386-.149-.594 1.485-1.277 1.901-1.366.416-.089-.475.564.238.535.713-.031 1.277-.584 1.277-.584z" fill="#292F33" data-gender="neutral"/>
	<path d="M8.56400000,34.08700000 c.505.435.654 1.474-1.069 1.801-1.268.241-2.228.086-2.347-.386-.148-.594 1.486-1.278 1.902-1.367.416-.089-.475.564.238.535.712-.03 1.276-.583 1.276-.583z" fill="#292F33" data-gender="male,female"/>
	<path d="M25.63900000,34.08700000 c.505.435.654 1.474-1.069 1.801-1.268.241-2.228.086-2.347-.386-.149-.594 1.485-1.277 1.901-1.366.416-.089-.475.564.238.535.712-.031 1.277-.584 1.277-.584z" fill="#292F33" data-gender="neutral,male,female"/>
	<path d="M14.34800000,33.69000000 c-.386.475.511 1.883 1.188 2.168.564.238 1.545.149 1.842-.446.186-.373-1.04-1.842-1.426-1.931-.386-.089.594.475-.356.564-.683.065-1.248-.355-1.248-.355z " fill="#292F33" data-gender="neutral"/>
	<path d="M14.35700000,33.69000000 c-.386.475.511 1.883 1.188 2.168.564.238 1.545.149 1.842-.446.186-.373-1.04-1.842-1.426-1.931-.386-.089.594.475-.356.564-.684.065-1.248-.355-1.248-.355z " fill="#292F33" data-gender="male,female"/>
	<path d="M31.43100000,33.69000000 c-.386.475.511 1.883 1.188 2.168.564.238 1.545.149 1.842-.446.186-.373-1.04-1.842-1.426-1.931-.386-.089.594.475-.356.564-.683.065-1.248-.355-1.248-.355z " fill="#292F33" data-gender="neutral"/>
	<path d="M31.43900000,33.69000000 c-.386.475.511 1.883 1.188 2.168.564.238 1.545.149 1.842-.446.186-.373-1.04-1.842-1.426-1.931s.594.475-.356.564c-.683.065-1.248-.355-1.248-.355z " fill="#292F33" data-gender="male,female"/>
</svg>
