<svg viewBox="0 0 36 36" xmlns="http://www.w3.org/2000/svg" xmlns:ts="data:,a">
	<!-- legs -->
	<path d="M8.556 34.087c.131.787-2.091 1.454-2.376 1.326-.305-.137.988-.808.967-1.226-.106-2.12-.904-1.961-.818-4.18-.802-2.376-.355-4.621-.094-5.42.457-1.401 3.126.756 3.003 1.651-.204 1.488-.792 2.577-.815 3.757.42 1.883-.175 2.244.133 4.092z " ts:skin="skin" ts:gender="neutral"/>
	<path d="M8.564 34.087c.131.787-2.091 1.454-2.376 1.326-.305-.137.988-.808.967-1.226-.106-2.12-.904-1.961-.818-4.18-.802-2.376-.735-4.653-.772-5.287-.087-1.472 3.804.623 3.682 1.518-.204 1.488-.663 2.321-.687 3.502.42 1.882-.304 2.499.004 4.347z " ts:skin="skin" ts:gender="male"/>
	<path d="M8.564 34.087c.131.787-2.091 1.454-2.376 1.326-.305-.137.988-.808.967-1.226-.106-2.12-.904-1.961-.818-4.18-.802-2.376-.735-4.653-.772-5.287-.087-1.472 3.528.615 3.509 1.518-.038 1.776-.663 2.321-.687 3.502.42 1.882-.131 2.499.177 4.347z " ts:skin="skin" ts:gender="female"/>
	<path d="M25.639 34.087c.131.787-2.091 1.454-2.376 1.326-.305-.137.988-.808.967-1.226-.106-2.12-.904-1.961-.818-4.18-.802-2.376-.355-4.621-.094-5.42.457-1.401 3.126.756 3.003 1.651-.204 1.488-.792 2.577-.815 3.757.42 1.883-.175 2.244.133 4.092z " ts:skin="skin" ts:gender="neutral"/>
	<path d="M25.647 34.087c.131.787-2.091 1.454-2.376 1.326-.305-.137.988-.808.967-1.226-.106-2.12-.904-1.961-.818-4.18-.802-2.376-.735-4.653-.772-5.287-.087-1.472 3.804.623 3.682 1.518-.204 1.488-.663 2.321-.687 3.502.42 1.882-.304 2.499.004 4.347z " ts:skin="skin" ts:gender="male"/>
	<path d="M25.647 34.087c.131.787-2.091 1.454-2.376 1.326-.305-.137.988-.808.967-1.226-.106-2.12-.904-1.961-.818-4.18-.802-2.376-.735-4.653-.772-5.287-.087-1.472 3.528.615 3.509 1.518-.038 1.776-.663 2.321-.687 3.502.419 1.882-.132 2.499.177 4.347z " ts:skin="skin" ts:gender="female"/>
	<path d="M15.744,33.215 c.353.715.726 1.971.416 1.931-.331-.043-1.396-.505-1.736-1.427-.734-1.991-1.747-1.45-2.307-3.6-1.047-1.579-2.402-3.882-2.621-4.478-.509-1.384 3.391-1.737 3.619-.863.5 1.914.509 3.359.829 4.496.949 1.68.971 2.261 1.8 3.941z" ts:skin="skin" ts:gender="neutral"/>
	<path d="M15.753,33.215 c.353.715.726 1.971.416 1.931-.331-.043-1.396-.505-1.736-1.427-.734-1.991-1.962-1.447-2.522-3.596-1.047-1.579-2.186-3.886-2.406-4.482-.509-1.384 3.391-1.737 3.619-.863.5 1.914.509 3.359.829 4.496.948 1.68.97 2.261 1.8 3.941z" ts:skin="skin" ts:gender="male"/>
	<path d="M15.753,33.215 c.353.715.726 1.971.416 1.931-.331-.043-1.396-.505-1.736-1.427-.734-1.991-1.804-1.447-2.364-3.596-1.047-1.579-2.186-3.886-2.406-4.482-.509-1.384 3.441-1.701 3.683-.832.477 1.711.287 3.328.607 4.465.948 1.68.97 2.261 1.8 3.941z" ts:skin="skin" ts:gender="female"/>
	<path d="M32.827,33.215 c.353.715.726 1.971.416 1.931-.331-.043-1.396-.505-1.736-1.427-.734-1.991-1.747-1.45-2.307-3.6-1.047-1.579-2.402-3.882-2.621-4.478-.509-1.384 3.391-1.737 3.619-.863.5 1.914.509 3.359.829 4.496.948 1.68.97 2.261 1.8 3.941z" ts:skin="skin" ts:gender="neutral"/>
	<path d="M32.835,33.215 c.353.715.726 1.971.416 1.931-.331-.043-1.396-.505-1.736-1.427-.734-1.991-1.962-1.447-2.522-3.596-1.047-1.579-2.186-3.886-2.406-4.482-.509-1.384 3.391-1.737 3.619-.863.5 1.914.509 3.359.829 4.496.949 1.68.971 2.261 1.8 3.941z" ts:skin="skin" ts:gender="male"/>
	<path d="M32.835,33.215 c.353.715.726 1.971.416 1.931-.331-.043-1.396-.505-1.736-1.427-.734-1.991-1.804-1.447-2.364-3.596-1.047-1.579-2.186-3.886-2.406-4.482-.509-1.384 3.441-1.701 3.683-.832.477 1.711.287 3.328.607 4.465.948 1.68.97 2.261 1.8 3.941z" ts:skin="skin" ts:gender="female"/>
	<!-- arms -->
	<path d="M5.869 26.06c-.158.153-.56.236-.661.211-.235-.06-.764-.427-1.061-.786-.541-.652-2.661-1.333-3.223-2.72-.095-.234-.089-.52.081-.864.104-.21 1.53-2.556 2.831-3.804.427-.41.95-.872 1.569-.929.534-.049 1.055 1.182.826 1.653-.746 1.53-3.005 2.607-3.646 3.488 1.01.804.909 1.315 2.287 2.123.152-.095.45-.177.531-.159.081.018.27.143.241.387.025.018.234.186.283.274.135.239.146.928-.058 1.126z " ts:skin="skin" ts:gender="neutral"/>
	<path d="M5.621 26.146c-.164.146-.57.212-.669.182-.232-.07-.745-.46-1.026-.831-.513-.675-2.601-1.446-3.103-2.856-.085-.238-.067-.524.118-.86.113-.205 1.505-2.37 2.77-3.655.336-.342 1.248-.428 1.676-.104.427.323 1.483.579 1.233 1.04-.811 1.497-3.441 2.342-4.119 3.194.974.847.851 1.353 2.193 2.22.156-.088.457-.158.538-.136.08.022.264.154.224.397.024.02.226.196.271.286.126.245.107.934-.106 1.123z " ts:skin="skin" ts:gender="male"/>
	<path d="M5.621 26.146c-.164.146-.57.212-.669.182-.232-.07-.745-.46-1.026-.831-.513-.675-2.601-1.446-3.103-2.856-.085-.238-.067-.524.118-.86.113-.205 1.505-2.37 2.77-3.655.336-.342 1.248-.428 1.676-.104.427.323.483.579.233 1.04-.811 1.497-2.441 2.342-3.119 3.194.974.847.851 1.353 2.193 2.22.156-.088.457-.158.538-.136.08.022.264.154.224.397.024.02.226.196.271.286.126.245.107.934-.106 1.123z " ts:skin="skin" ts:gender="female"/>
	<path d="M22.952 26.06c-.158.153-.56.236-.661.211-.235-.06-.764-.427-1.061-.786-.541-.652-2.661-1.333-3.223-2.72-.095-.234-.089-.52.081-.864.104-.21 1.53-2.556 2.831-3.804.427-.41.95-.872 1.569-.929.534-.049 1.055 1.182.826 1.653-.746 1.53-3.005 2.607-3.646 3.488 1.01.804.909 1.315 2.287 2.123.152-.095.45-.177.531-.159.081.018.27.143.241.387.025.018.234.186.283.274.135.239.146.928-.058 1.126z " ts:skin="skin" ts:gender="neutral"/>
	<path d="M22.704 26.146c-.164.146-.57.212-.669.182-.232-.07-.745-.46-1.026-.831-.513-.675-2.601-1.446-3.103-2.856-.085-.238-.067-.524.118-.86.113-.205 1.505-2.37 2.77-3.655.336-.342 1.248-.428 1.676-.104.427.323 1.483.579 1.233 1.04-.811 1.497-3.441 2.342-4.119 3.194.974.847.851 1.353 2.193 2.22.156-.088.457-.158.538-.136.08.022.264.154.224.397.024.02.226.196.271.286.125.245.106.934-.106 1.123z " ts:skin="skin" ts:gender="male"/>
	<path d="M22.703 26.146c-.164.146-.57.212-.669.182-.232-.07-.745-.46-1.026-.831-.513-.675-2.601-1.446-3.103-2.856-.085-.238-.067-.524.118-.86.113-.205 1.505-2.37 2.77-3.655.336-.342 1.248-.428 1.676-.104.427.323.483.579.233 1.04-.811 1.497-2.441 2.342-3.119 3.194.974.847.851 1.353 2.193 2.22.156-.088.457-.158.538-.136.08.022.264.154.224.397.024.02.226.196.271.286.126.245.107.934-.106 1.123z " ts:skin="skin" ts:gender="female"/>
	<path d="M13.453,26.186 c.173.136.582.178.679.142.227-.083.716-.503.975-.89.472-.704 2.51-1.598 2.928-3.035.071-.243.036-.527-.169-.851-.125-.198-1.643-2.276-2.982-3.484-.356-.321-1.156-1.137-1.565-.788-.408.348-1.364 1.316-1.087 1.761.899 1.446 3.376 2.267 4.104 3.078-.922.903-.77 1.401-2.058 2.346-.161-.078-.466-.13-.545-.104-.079.027-.254.17-.2.409-.023.021-.214.209-.254.301-.109.253-.05.94.174 1.115z" ts:skin="skin" ts:gender="neutral"/>
	<path d="M13.644,26.211 c.176.132.586.163.682.125.225-.089.703-.521.953-.914.454-.715 2.471-1.659 2.853-3.106.065-.244.023-.528-.19-.847-.13-.195-1.698-2.235-3.066-3.41-.364-.312-1.279-.322-1.679.037-.399.358-1.433.617-1.146 1.056.934 1.424 3.628 2.129 4.375 2.922-.9.925-.735 1.419-2 2.396-.163-.075-.469-.119-.547-.09-.078.029-.25.176-.19.414-.022.021-.209.214-.246.307-.103.255-.027.939.201 1.11z" ts:skin="skin" ts:gender="male"/>
	<path d="M13.644,26.211 c.176.132.586.163.682.125.225-.089.703-.521.953-.914.454-.715 2.471-1.659 2.853-3.106.065-.244.023-.528-.19-.847-.13-.195-1.698-2.235-3.066-3.41-.364-.312-1.279-.322-1.679.037-.399.358-.433.617-.146 1.056.934 1.424 2.628 2.129 3.375 2.922-.9.925-.735 1.419-2 2.396-.163-.075-.469-.119-.547-.09-.078.029-.25.176-.19.414-.022.021-.209.214-.246.307-.103.255-.027.939.201 1.11z" ts:skin="skin" ts:gender="female"/>
	
	<path d="M30.535,26.186 c.173.136.582.178.679.142.227-.083.716-.503.975-.89.472-.704 2.51-1.598 2.928-3.035.07-.243.036-.527-.169-.851-.125-.198-1.643-2.276-2.982-3.484-.356-.321-1.156-1.137-1.565-.788-.408.348-1.364 1.316-1.087 1.761.899 1.446 3.376 2.267 4.104 3.078-.922.903-.77 1.401-2.058 2.346-.161-.078-.466-.13-.545-.104-.079.027-.254.17-.2.409-.023.021-.214.209-.254.301-.109.253-.049.94.174 1.115z" ts:skin="skin" ts:gender="neutral"/>
	<path d="M30.726,26.211 c.176.132.586.163.682.125.225-.089.703-.521.953-.914.454-.715 2.471-1.659 2.853-3.106.065-.244.023-.528-.19-.847-.13-.195-1.698-2.235-3.066-3.41-.364-.312-1.279-.322-1.679.037-.399.358-1.433.617-1.146 1.056.934 1.424 3.628 2.129 4.375 2.922-.9.925-.735 1.419-2 2.396-.163-.075-.469-.119-.547-.09-.078.029-.25.176-.19.414-.022.021-.209.214-.246.307-.103.255-.026.939.201 1.11z" ts:skin="skin" ts:gender="male"/>
	<path d="M30.726,26.211 c.176.132.586.163.682.125.225-.089.703-.521.953-.914.454-.715 2.471-1.659 2.853-3.106.065-.244.023-.528-.19-.847-.13-.195-1.698-2.235-3.066-3.41-.364-.312-1.279-.322-1.679.037-.399.358-.433.617-.146 1.056.934 1.424 2.628 2.129 3.375 2.922-.9.925-.735 1.419-2 2.396-.163-.075-.469-.119-.547-.09-.078.029-.25.176-.19.414-.022.021-.209.214-.246.307-.103.255-.027.939.201 1.11z" ts:skin="skin" ts:gender="female"/>
	<!-- clothes -->
	<path d="M14.129 17.359c-.716-.399-1.311-.707-2.415-.707H9.379v.002-.002H7.044c-.678 0-1.529.295-2.354.707.188.617.428 2.106.69 2.996.251.853 1.044 2.154.797 3.158-.134.545-.49 3.675-.326 4.7.906.074 2.079.178 2.955.342.234-.733.443-1.515.429-1.48.238.009.587-.017.803-.065.228.403.951 1.471.951 1.471s1.634-.282 2.792-.564c-.084-1.174-.662-3.612-.917-4.416-.288-.908.354-2.566.515-3.144.148-.535.75-2.998.75-2.998z" fill="#292F33" ts:gender="neutral"/>
	<path d="M15.511 18.364c-.953-1.447-2.684-1.712-3.788-1.712H9.388v.002-.002H7.053c-1.104 0-2.835.265-3.788 1.712l2.124 2.288.147 4.008s.028 3.179.402 4.206c.564.04 1.958.198 2.797.315.043.006.203-1.076.509-2.106.238.009.587-.017.803-.065.407.69 1.073 2.028 1.101 2.002.812-.255 2.042-.664 2.621-.928-.084-1.174-.381-3.143-.381-3.143v-4.288l2.123-2.289z" fill="#292F33" ts:gender="male"/>
	<path d="M15.511 18.364c-.953-1.447-2.684-1.712-3.788-1.712H9.388v.002-.002H7.053c-1.104 0-2.835.265-3.788 1.712l2.124 1.288s-.131 1.332.682 2.988c-.713 1.04-.535 2.02-.535 2.02s1.277 1.248 3.297 2.376c.153.086 1.427.024 1.555-.096 1.706-1.6 3-2 3-2s-.488-1.153-1.05-2.181c.812-1.656 1.05-3.107 1.05-3.107l2.123-1.288z" fill="#292F33" ts:gender="female"/>
	<path d="M31.149 17.359c-.716-.399-1.311-.707-2.415-.707h-2.335v.002-.002h-2.335c-.678 0-1.529.295-2.354.707.188.617.428 2.106.69 2.996.251.853 1.044 2.154.797 3.158-.134.545-.49 3.675-.326 4.7.906.074 2.079.178 2.955.342.234-.733.443-1.515.429-1.48.238.009.587-.017.803-.065.228.403.951 1.471.951 1.471s1.634-.282 2.792-.564c-.084-1.174-.662-3.612-.917-4.416-.288-.908.354-2.566.515-3.144.148-.535.75-2.998.75-2.998z" fill="#292F33" ts:gender="neutral"/>
	<path d="M32.593 18.364c-.953-1.447-2.684-1.712-3.788-1.712H26.47v.002-.002h-2.335c-1.104 0-2.835.265-3.788 1.712l2.124 2.288.147 4.008s.028 3.179.402 4.206c.564.04 1.958.198 2.797.315.043.006.203-1.076.509-2.106.238.009.587-.017.803-.065.407.69 1.073 2.028 1.101 2.002.812-.255 2.042-.664 2.621-.928-.084-1.174-.381-3.143-.381-3.143v-4.288l2.123-2.289z" fill="#292F33" ts:gender="male"/>
	<path d="M32.593 18.364c-.953-1.447-2.684-1.712-3.788-1.712H26.47v.002-.002h-2.335c-1.104 0-2.835.265-3.788 1.712l2.124 1.288s-.131 1.332.682 2.988c-.713 1.04-.535 2.02-.535 2.02s1.277 1.248 3.297 2.376c.153.086 1.427.024 1.555-.096 1.706-1.6 3-2 3-2s-.488-1.153-1.05-2.181c.812-1.656 1.05-3.107 1.05-3.107l2.123-1.288z" fill="#292F33" ts:gender="female"/>
	<!-- hair -->
	<use href="defs.svg#hair_neutral1" transform="translate(9.38 16.651) scale(.558)" ts:skin="hair" ts:gender="neutral"/>
	<use href="defs.svg#hair_neutral1" transform="translate(26.462 16.651) scale(.558)" ts:skin="hair" ts:gender="neutral"/>
	
	<path d="M9.888 2.652c-1.186 0-2.282.379-3.181 1.018-1.846.096-3.319 1.611-3.319 3.482 0 1.542.007 3.484 2.038 4.207.998 1.387 2.622 2.292 4.462 2.292 3.037 0 5.5-2.462 5.5-5.499 0-3.037-2.463-5.5-5.5-5.5z" ts:skin="hair" ts:gender="male"/>
	<path d="M26.971 2.652c-1.186 0-2.282.379-3.181 1.018-1.847.096-3.319 1.611-3.319 3.482 0 1.542.007 3.484 2.038 4.207.998 1.387 2.622 2.292 4.462 2.292 3.037 0 5.5-2.462 5.5-5.499 0-3.037-2.463-5.5-5.5-5.5z" ts:skin="hair" ts:gender="male"/>
	
	<path d="M16.388 8.653c0-3.314-2.687-6.001-6.001-6.001-1.264 0-2.435.393-3.402 1.06-.196-.03-.393-.06-.598-.06-2.209 0-4 1.791-4 4v6h14V8.653z" ts:skin="hair" ts:gender="female"/>
	<path d="M33.47 8.653c0-3.314-2.687-6.001-6.001-6.001-1.264 0-2.435.393-3.402 1.06-.196-.03-.393-.06-.598-.06-2.209 0-4 1.791-4 4v6h14V8.653z" ts:skin="hair" ts:gender="female"/>
	<!-- neck -->
	<path d="M 12.05 ,17.343 c 0,0.239 0,2.264 -2.671,2.265 c -2.671,0 -2.671,-2.026 -2.671,-2.265 c 0,-0.435 0.117,-0.692 0.672,-0.692 v -3 h 3.998 v 3 c 0.555,0 0.672,0.257 0.672,0.692 Z" ts:skin="skin" ts:gender="neutral,male"/>
	<path d="M 29.133,17.343 c 0,0.239 0,2.264 -2.671,2.265 c -2.671,0 -2.671,-2.026 -2.671,-2.265 c 0,-0.435 0.117,-0.692 0.672,-0.692 v -3 h 3.998 v 3 c 0.555,0 0.672,0.257 0.672,0.692 Z" ts:skin="skin" ts:gender="neutral,male"/>
	
	<path d="M 12.386,17.587 c 0,0.324 0,3.063 -2.999,3.064 c -2.999,0 -2.999,-2.741 -2.999,-3.064 c 0,-0.588 0.445,-0.935 1    ,-0.935 v -3 h 3.998 v 3 c 0.555,0 1    ,0.347 1    ,0.935 Z" ts:skin="skin" ts:gender="female"/>
	<path d="M 29.468,17.587 c 0,0.324 0,3.063 -2.999,3.064 c -2.999,0 -2.999,-2.741 -2.999,-3.064 c 0,-0.588 0.445,-0.935 1    ,-0.935 v -3 h 3.998 v 3 c 0.555,0 1    ,0.347 1    ,0.935 Z" ts:skin="skin" ts:gender="female"/>
	<!-- neck shadow -->
	<path d="M 9.388,17.101 c 0.82,0 1.392,-0.172 2,-0.859 v -0.812 h -4 v 0.812 c 0.608,0.687 1.18,0.859 2,0.859 Z" ts:skin="dark"/>
	<path d="M 26.47,17.101 c 0.82,0 1.392,-0.172 2,-0.859 v -0.812 h -4 v 0.812 c 0.608,0.687 1.18,0.859 2,0.859 Z" ts:skin="dark"/>
	<!-- face -->
	<use href="defs.svg#face_neutral1" transform="translate(9.38 16.651) scale(.558)" ts:skin="skin" ts:gender="neutral"/>
	<use href="defs.svg#face_neutral1" transform="translate(26.462 16.651) scale(.558)" ts:skin="skin" ts:gender="neutral"/>
	<path d="M 9.388,16.653 c 2.762,0 5,-2.237 5,-5 v -6 h -10 v 6 c 0,2.762 2.238,5 5,5 Z" ts:skin="skin" ts:gender="male,female"/>
	<path d="M 26.47,16.653 c 2.762,0 5,-2.237 5,-5 v -6 h -10 v 6 c 0,2.762 2.238,5 5,5 Z" ts:skin="skin" ts:gender="male,female"/>
	<!-- front hair -->
	<path d="M4.417 5.152l-.5 2 .471 2.5c2.333 0 2.85-2.412 2.965-3.488.039 1.076.815 3.488 7.035 3.488l.529-2.5-.5-2h-10z" ts:skin="hair" ts:gender="male"/>
	<path d="M14.449 4.652h-10l-1 5c4 0 4-4 4-4s0 4 8 4l-1-5z" ts:skin="hair" ts:gender="female"/>
	<path d="M21.5 5.152l-.5 2 .471 2.5c2.333 0 2.85-2.412 2.965-3.488.039 1.076.815 3.488 7.035 3.488l.529-2.5-.5-2h-10z" ts:skin="hair" ts:gender="male"/>
	<path d="M31.531 4.652h-10l-1 5c4 0 4-4 4-4s0 4 8 4l-1-5z" ts:skin="hair" ts:gender="female"/>
	<!-- eyes -->
	<use href="defs.svg#eyes_male" transform="translate(9.379 10.236) scale(0.558)" ts:skin="eyes" ts:gender="neutral"/>
	<use href="defs.svg#eyes_male" transform="translate(26.462 10.236) scale(0.558)" ts:skin="eyes" ts:gender="neutral"/>
	
	<circle cx="6.888" cy="11.152" ts:skin="eyes" r=".5" ts:gender="male,female"/>
	<circle cx="11.888" cy="11.152" ts:skin="eyes" r=".5" ts:gender="male,female"/>
	<circle cx="23.971" cy="11.152" ts:skin="eyes" r=".5" ts:gender="male,female"/>
	<circle cx="28.971" cy="11.152" ts:skin="eyes" r=".5" ts:gender="male,female"/>
	<!-- nose -->
	<use href="defs.svg#nose_neutral1" transform="translate(9.379 12.747) scale(0.558)" ts:skin="nose" ts:gender="neutral"/>
	<use href="defs.svg#nose_neutral1" transform="translate(26.462 12.747) scale(0.558)" ts:skin="nose" ts:gender="neutral"/>
	<path d="M8.388 12.652h2s0 1-1 1-1-1-1-1z" ts:skin="nose" ts:gender="male,female"/>
	<path d="M25.471 12.652h2s0 1-1 1-1-1-1-1z" ts:skin="nose" ts:gender="male,female"/>
	<!-- mouth -->
	<use href="defs.svg#mouth_smile_old" transform="translate(9.379 15.536) scale(0.558)" ts:skin="mouth" ts:gender="neutral"/>
	<use href="defs.svg#mouth_smile_old" transform="translate(26.462 15.536) scale(0.558)" ts:skin="mouth" ts:gender="neutral"/>
	
	<path d="M11.388 14.652h-4s0 1 2 1 2-1 2-1z" ts:skin="mouth" ts:gender="male,female"/>
	<path d="M28.471 14.652h-4s0 1 2 1 2-1 2-1z" ts:skin="mouth" ts:gender="male,female"/>
	<!-- ears -->
	<use href="defs.svg#bunny_ears" x="6.7" y="3.902" fill="#292F33"/>
	<use href="defs.svg#bunny_ears" x="23.783" y="3.902" fill="#292F33"/>
	<!-- shoes -->
	<path d="M 14.357,33.69 c -0.386,0.475 0.511,1.883 1.188,2.168 c 0.564,0.238 1.545,0.149 1.842,-0.446 c 0.186,-0.373 -1.04,-1.842 -1.426,-1.931 s 0.594,0.475 -0.356,0.564 c -0.684,0.065 -1.248,-0.355 -1.248,-0.355 Z" fill="#292F33"/>
	<path d="M 31.439,33.69 c -0.386,0.475 0.511,1.883 1.188,2.168 c 0.564,0.238 1.545,0.149 1.842,-0.446 c 0.186,-0.373 -1.04,-1.842 -1.426,-1.931 s 0.594,0.475 -0.356,0.564 c -0.684,0.065 -1.248,-0.355 -1.248,-0.355 Z" fill="#292F33"/>
	<path d="M  8.564,34.087 s -0.564,0.553 -1.276,0.583 c -0.713,0.029 0.178,-0.624 -0.238,-0.535 s -2.05,0.773 -1.902,1.367 c 0.119,0.472 1.079,0.627 2.347,0.386 c 1.723,-0.327 1.574,-1.366 1.069,-1.801 Z" fill="#292F33"/>
	<path d="M 25.647,34.087 s -0.564,0.553 -1.276,0.583 c -0.713,0.029 0.178,-0.624 -0.238,-0.535 s -2.05,0.773 -1.902,1.367 c 0.119,0.472 1.079,0.627 2.347,0.386 c 1.723,-0.327 1.574,-1.366 1.069,-1.801 Z" fill="#292F33"/>
</svg>
