<svg viewBox="0 0 36 36" xmlns="http://www.w3.org/2000/svg" xmlns:ts="data:,a">
	<path d="M0 7.139C6.911 5.55 13.967 9.61 15.976 16.503c.532 1.825.669 3.712.407 5.609-.028.197-.168.357-.356.412l-.044.01c.009 2.306.219 6.623 2.006 11.744.197.565.415 1.139.653 1.722H0V7.139z" fill="#FFAC33" ts:skin="#292F33|#292F33|#292F33|#292F33|#292F33|#FFE51E|#FFE51E|#FFE51E|#FFE51E|#FFE51E|#963B22|#963B22|#963B22|#963B22|#963B22|#60352A|#60352A|#60352A|#60352A|#60352A|#0B0200|#0B0200|#0B0200|#0B0200|#0B0200" ts:gender="female"/>
	<path d="M17.046 22.804c.015-.003.03-.005.044-.01.188-.055.328-.215.356-.412.261-1.897.124-3.785-.407-5.609C14.956 9.627 7.447 5.508.301 7.59c-.103.03-.199.073-.301.105V36h19.595c-2.291-5.75-2.539-10.675-2.549-13.196z" fill="#FFAC33" ts:skin="#292F33|#292F33|#292F33|#292F33|#292F33|#FFE51E|#FFE51E|#FFE51E|#FFE51E|#FFE51E|#963B22|#963B22|#963B22|#963B22|#963B22|#60352A|#60352A|#60352A|#60352A|#60352A|#0B0200|#0B0200|#0B0200|#0B0200|#0B0200" ts:gender="mixed"/>
	<path d="M36 7.139C29.089 5.55 22.033 9.61 20.024 16.503c-.532 1.825-.669 3.712-.407 5.609.028.197.168.357.356.412l.044.01c-.009 2.306-.219 6.623-2.006 11.744-.197.565-.415 1.139-.653 1.722H36V7.139z" fill="#FFAC33" ts:skin="#292F33|#FFE51E|#963B22|#60352A|#0B0200" ts:gender="female"/>
	<path d="M5 8.316c-1.787 0-3.476.401-5 1.102v21.16c1.53 1 3.342 1.625 5.318 1.723.016.001.031.005.047.005 5.241.23 9.807-3.307 11.006-8.177.402-1.199.629-2.479.629-3.813 0-6.627-5.374-12-12-12z" fill="#FFDC5D" ts:skin="#F7DECE|#F7DECE|#F7DECE|#F7DECE|#F7DECE|#F3D2A2|#F3D2A2|#F3D2A2|#F3D2A2|#F3D2A2|#D4AB88|#D4AB88|#D4AB88|#D4AB88|#D4AB88|#AF7E57|#AF7E57|#AF7E57|#AF7E57|#AF7E57|#7C533E|#7C533E|#7C533E|#7C533E|#7C533E" ts:gender="neutral"/>
	<path d="M5 8.042c6.626 0 12 5.373 12 12 0 6.626-5.374 12-12 12-1.787 0-3.476-.401-5-1.102V9.143c1.524-.7 3.213-1.101 5-1.101z" fill="#FFDC5D" ts:skin="#F7DECE|#F7DECE|#F7DECE|#F7DECE|#F7DECE|#F3D2A2|#F3D2A2|#F3D2A2|#F3D2A2|#F3D2A2|#D4AB88|#D4AB88|#D4AB88|#D4AB88|#D4AB88|#AF7E57|#AF7E57|#AF7E57|#AF7E57|#AF7E57|#7C533E|#7C533E|#7C533E|#7C533E|#7C533E" ts:gender="male"/>
	<path d="M3.03 14.375c6.583-.698 10.13 2.858 12.403 7.875.041.09.113.156.192.207-1.222 5.332-5.986 9.314-11.687 9.314-1.381 0-2.702-.245-3.937-.675V18.679c1.587-.906 3.029-2.099 3.029-4.304z" fill="#FFDC5D" ts:skin="#F7DECE|#F7DECE|#F7DECE|#F7DECE|#F7DECE|#F3D2A2|#F3D2A2|#F3D2A2|#F3D2A2|#F3D2A2|#D4AB88|#D4AB88|#D4AB88|#D4AB88|#D4AB88|#AF7E57|#AF7E57|#AF7E57|#AF7E57|#AF7E57|#7C533E|#7C533E|#7C533E|#7C533E|#7C533E" ts:gender="female"/>
	<path d="M16.687 22.728c-.079-.051-.151-.117-.192-.207-2.272-5.017-5.82-8.573-12.403-7.875 0 2.693-2.15 3.877-4.092 4.872V30.94c1.524.701 3.213 1.102 5 1.102 5.702 0 10.466-3.983 11.687-9.314z" fill="#FFDC5D" ts:skin="#F7DECE|#F7DECE|#F7DECE|#F7DECE|#F7DECE|#F3D2A2|#F3D2A2|#F3D2A2|#F3D2A2|#F3D2A2|#D4AB88|#D4AB88|#D4AB88|#D4AB88|#D4AB88|#AF7E57|#AF7E57|#AF7E57|#AF7E57|#AF7E57|#7C533E|#7C533E|#7C533E|#7C533E|#7C533E" ts:gender="mixed"/>
	<path d="M31 8.316c-6.626 0-12 5.373-12 12 0 1.334.227 2.614.629 3.813 1.198 4.87 5.765 8.406 11.006 8.177.016-.001.031-.005.047-.005 1.976-.097 3.788-.723 5.318-1.723V9.418c-1.524-.701-3.213-1.102-5-1.102z" fill="#FFDC5D" ts:skin="#F7DECE|#F3D2A2|#D4AB88|#AF7E57|#7C533E" ts:gender="neutral"/>
	<path d="M31 8.042c-6.626 0-12 5.373-12 12 0 6.626 5.374 12 12 12 1.787 0 3.476-.401 5-1.102V9.143c-1.524-.7-3.213-1.101-5-1.101z" fill="#FFDC5D" ts:skin="#F7DECE|#F3D2A2|#D4AB88|#AF7E57|#7C533E" ts:gender="male,mixed"/>
	<path d="M32.97 14.375c-6.583-.698-10.13 2.858-12.403 7.875-.041.09-.113.156-.192.207 1.222 5.332 5.986 9.314 11.687 9.314 1.381 0 2.702-.245 3.937-.675V18.679c-1.587-.906-3.029-2.099-3.029-4.304z" fill="#FFDC5D" ts:skin="#F7DECE|#F3D2A2|#D4AB88|#AF7E57|#7C533E" ts:gender="female"/>
	<path d="M2.543 18.54c-1.17.957-1.657 2.437-1.576 3.417 2.691-4.234 8.495-2.335 10.977-7.127 0 0 5.82 1.809 4.529 8.956 0 0 2.474-2.568 2.474-5.143 0-3.11-.994-8.87-5.534-9.725C11.019 6.245 4.857 5.054 0 6.525v13.319c.821-.799 1.704-1.29 2.543-1.304z" fill="#FFAC33" ts:skin="#292F33|#292F33|#292F33|#292F33|#292F33|#FFE51E|#FFE51E|#FFE51E|#FFE51E|#FFE51E|#963B22|#963B22|#963B22|#963B22|#963B22|#60352A|#60352A|#60352A|#60352A|#60352A|#0B0200|#0B0200|#0B0200|#0B0200|#0B0200" ts:gender="neutral"/>
	<path d="M15.333 15.042c-.055.06-.128.115-.197.171-.72.716-1.753 1.477-3.219 2.036-3.691 1.407-9.121.297-9.121.297s.748-1.198 2.101-2.492c-1.809.549-3.463 1.359-4.897 2.371v-9.25c1.81-.903 3.843-1.425 6-1.428 6.508-.008 9.915 3.393 10.059 6.135.176.085.352.168.531.265 0 0-.237.641-.902 1.459-.077.094-.161.191-.249.29-.038.047-.064.1-.106.146z" fill="#FFAC33" ts:skin="#292F33|#292F33|#292F33|#292F33|#292F33|#FFE51E|#FFE51E|#FFE51E|#FFE51E|#FFE51E|#963B22|#963B22|#963B22|#963B22|#963B22|#60352A|#60352A|#60352A|#60352A|#60352A|#0B0200|#0B0200|#0B0200|#0B0200|#0B0200" ts:gender="male"/>
	<path d="M22.588 8.918c-4.54.855-5.534 6.614-5.534 9.725 0 2.575 2.474 5.143 2.474 5.143-1.291-7.147 4.529-8.956 4.529-8.956 2.482 4.792 8.286 2.893 10.977 7.127.08-.98-.406-2.459-1.576-3.417.839.014 1.722.505 2.543 1.304V6.525c-4.858-1.471-11.02-.28-13.413 2.393z" fill="#FFAC33" ts:skin="#292F33|#FFE51E|#963B22|#60352A|#0B0200" ts:gender="neutral"/>
	<path d="M20.667 15.042c.055.06.128.115.197.171.72.716 1.753 1.477 3.219 2.036 3.691 1.407 9.121.297 9.121.297s-.748-1.198-2.101-2.492c1.809.549 3.463 1.358 4.897 2.371v-9.25c-1.81-.904-3.843-1.426-6-1.429-6.508-.008-9.915 3.393-10.059 6.135-.176.085-.352.168-.531.265 0 0 .237.641.902 1.459.077.094.161.191.249.29.038.048.064.101.106.147z" fill="#FFAC33" ts:skin="#292F33|#FFE51E|#963B22|#60352A|#0B0200" ts:gender="male,mixed"/>
	<path d="M10 22.542c1.977 0 2.5-1.636 2.5-2.5 0-.276-.224-.5-.5-.5-.275 0-.499.223-.5.497-.003.252-.089 1.503-1.5 1.503-.276 0-.5.224-.5.5s.224.5.5.5zm-2.5-2.5c0-.276-.224-.5-.5-.5-.275 0-.499.223-.5.497-.003.252-.089 1.503-1.5 1.503-.276 0-.5.224-.5.5s.224.5.5.5c1.977 0 2.5-1.636 2.5-2.5z" fill="#662113" ts:skin="#662113|#662113|#662113|#662113|#662113|#662113|#662113|#662113|#662113|#662113|#662113|#662113|#662113|#662113|#662113|#662113|#662113|#662113|#662113|#662113|#000000|#000000|#000000|#000000|#000000" ts:gender="neutral,male,mixed"/>
	<path d="M3.937 22.271c1.978 0 2.5-1.636 2.5-2.5 0-.276-.224-.5-.5-.5-.275 0-.499.223-.5.497-.003.252-.089 1.503-1.5 1.503-.276 0-.5.224-.5.5s.224.5.5.5zm5 0c1.977 0 2.5-1.636 2.5-2.5 0-.276-.224-.5-.5-.5-.275 0-.499.223-.5.497-.003.252-.089 1.503-1.5 1.503-.276 0-.5.224-.5.5s.224.5.5.5z" fill="#662113" ts:skin="#662113|#662113|#662113|#662113|#662113|#662113|#662113|#662113|#662113|#662113|#662113|#662113|#662113|#662113|#662113|#662113|#662113|#662113|#662113|#662113|#000000|#000000|#000000|#000000|#000000" ts:gender="female"/>
	<path d="M26 21.542c-1.411 0-1.497-1.251-1.5-1.503-.001-.274-.225-.497-.5-.497-.276 0-.5.224-.5.5 0 .864.523 2.5 2.5 2.5.276 0 .5-.224.5-.5 0-.277-.224-.5-.5-.5zm5 0c-1.411 0-1.497-1.251-1.5-1.503-.001-.274-.225-.497-.5-.497-.276 0-.5.224-.5.5 0 .864.523 2.5 2.5 2.5.276 0 .5-.224.5-.5 0-.277-.224-.5-.5-.5z" fill="#662113" ts:skin="#662113|#662113|#662113|#662113|#000000" ts:gender="neutral,male,mixed"/>
	<path d="M32.063 22.271c-1.978 0-2.5-1.636-2.5-2.5 0-.276.224-.5.5-.5.275 0 .499.223.5.497.003.252.089 1.503 1.5 1.503.276 0 .5.224.5.5s-.224.5-.5.5zm-5 0c-1.977 0-2.5-1.636-2.5-2.5 0-.276.224-.5.5-.5.275 0 .499.223.5.497.003.252.089 1.503 1.5 1.503.276 0 .5.224.5.5s-.224.5-.5.5z" fill="#662113" ts:skin="#662113|#662113|#662113|#662113|#000000" ts:gender="female"/>
	<path d="M9.995 26.542c-.273.003-.495.226-.495.5 0 .272.218.494.489.5H10c.225.006.5.098.5.5s-.275.494-.506.5c-.273.007-.494.232-.49.506.003.274.223.494.496.494.602 0 1.5-.399 1.5-1.5 0-.438-.143-.765-.352-1 .209-.235.352-.562.352-1 0-1.101-.898-1.5-1.5-1.5-.276 0-.5.224-.5.5 0 .274.222.497.495.5.23.006.505.098.505.5s-.274.494-.505.5z" fill="#C1694F" ts:skin="#C1694F|#C1694F|#C1694F|#C1694F|#C1694F|#C1694F|#C1694F|#C1694F|#C1694F|#C1694F|#C1694F|#C1694F|#C1694F|#C1694F|#C1694F|#915A34|#915A34|#915A34|#915A34|#915A34|#3D2E24|#3D2E24|#3D2E24|#3D2E24|#3D2E24" ts:gender="neutral,male,mixed"/>
	<path d="M8.937 29.271c.602 0 1.5-.399 1.5-1.5 0-.438-.143-.765-.352-1 .209-.235.352-.562.352-1 0-1.101-.898-1.5-1.5-1.5-.276 0-.5.224-.5.5 0 .274.222.497.495.5.231.006.505.098.505.5s-.274.494-.505.5c-.273.003-.495.226-.495.5 0 .272.218.494.489.5h.011c.225.006.5.098.5.5s-.275.494-.506.5c-.273.007-.494.232-.49.506.003.274.223.494.496.494z" fill="#C1694F" ts:skin="#C1694F|#C1694F|#C1694F|#C1694F|#C1694F|#C1694F|#C1694F|#C1694F|#C1694F|#C1694F|#C1694F|#C1694F|#C1694F|#C1694F|#C1694F|#915A34|#915A34|#915A34|#915A34|#915A34|#3D2E24|#3D2E24|#3D2E24|#3D2E24|#3D2E24" ts:gender="female"/>
	<path d="M27.063 29.271c-.602 0-1.5-.399-1.5-1.5 0-.438.143-.765.352-1-.209-.235-.352-.562-.352-1 0-1.101.898-1.5 1.5-1.5.276 0 .5.224.5.5 0 .274-.222.497-.495.5-.23.006-.505.098-.505.5s.274.494.505.5c.273.003.495.226.495.5 0 .272-.218.494-.489.5h-.011c-.225.006-.5.098-.5.5s.275.494.506.5c.273.007.494.232.49.506-.003.274-.223.494-.496.494z" fill="#C1694F" ts:skin="#C1694F|#C1694F|#C1694F|#915A34|#3D2E24" ts:gender="female"/>
	<path d="M26.005 25.542c.273-.003.495-.226.495-.5 0-.276-.224-.5-.5-.5-.602 0-1.5.399-1.5 1.5 0 .438.143.765.352 1-.209.235-.352.562-.352 1 0 1.101.898 1.5 1.5 1.5.273 0 .493-.22.496-.494.004-.273-.217-.499-.49-.506-.231-.006-.506-.098-.506-.5s.275-.494.5-.5h.011c.272-.006.489-.228.489-.5 0-.274-.222-.497-.495-.5-.23-.006-.505-.098-.505-.5 0-.403.274-.494.505-.5z" fill="#C1694F" ts:skin="#C1694F|#C1694F|#C1694F|#915A34|#3D2E24" ts:gender="neutral,male,mixed"/>
	<path d="M26.539 6.711c0-2.602-2.11-4.711-4.711-4.711-1.579 0-2.973.78-3.828 1.972C17.144 2.78 15.751 2 14.172 2c-2.601 0-4.711 2.109-4.711 4.711 0 .369.047.727.127 1.07.654 4.065 5.173 8.353 8.411 9.529 3.238-1.177 7.758-5.465 8.412-9.528.081-.344.128-.702.128-1.071z" fill="#DD2E44" ts:gender="neutral"/>
	<path d="M26.539 4.711c0-2.602-2.11-4.711-4.711-4.711C20.249 0 18.855.78 18 1.972 17.144.78 15.751 0 14.172 0c-2.601 0-4.711 2.109-4.711 4.711 0 .369.047.727.127 1.07.654 4.065 5.173 8.353 8.411 9.529 3.238-1.177 7.758-5.465 8.412-9.528.081-.344.128-.702.128-1.071z" fill="#DD2E44" ts:gender="male,female,mixed"/>
</svg>
