<svg viewBox="0 0 36 36" xmlns="http://www.w3.org/2000/svg" xmlns:ts="data:,a">
	<!-- hair -->
	<use href="defs.svg#hair_neutral" transform="translate(12.217 0.49) scale(.573)" fill="#FFAC33" ts:skin2="hair" ts:gender="neutral"/>
	
	<path d="M10.5 0C9.314 0 8.218.379 7.319 1.018 5.473 1.114 4 2.629 4 4.5c0 1.542.007 3.484 2.038 4.208C7.036 10.094 8.66 11 10.5 11c3.037 0 5.5-2.462 5.5-5.499C16 2.463 13.537 0 10.5 0z" fill="#FFAC33" ts:skin2="hair" ts:gender="male"/>
	<path d="M11 0C9.736 0 8.565.393 7.598 1.061 7.401 1.031 7.205 1 7 1 4.791 1 3 2.791 3 5v6c0 3.866 3.134 7 7 7s7-3.134 7-7V6.001C17 2.687 14.314 0 11 0z" fill="#FFAC33" ts:skin2="hair" ts:gender="female,mixed"/>
	<path d="M33 6.001C33 2.687 30.313 0 27 0c-1.264 0-2.435.393-3.402 1.061C23.401 1.031 23.205 1 23 1c-2.209 0-4 1.791-4 4v6h14V6.001z" ts:skin="hair" ts:gender="female"/>
	
	<use href="defs.svg#hair_neutral" transform="translate(28.015 0.49) scale(.573)" ts:skin="hair" ts:gender="neutral"/>
	<path d="M26.5 0c-1.187 0-2.282.379-3.181 1.018C21.473 1.114 20 2.629 20 4.5c0 1.542.007 3.484 2.038 4.208C23.036 10.094 24.66 11 26.5 11c3.037 0 5.5-2.462 5.5-5.499C32 2.463 29.537 0 26.5 0z" ts:skin="hair" ts:gender="male,mixed"/>
	<!-- arms -->
	<path d="M18.154 26.76c.271.091.487-.159.586-.302.279-.405.422-1.309.004-2.227-.423-.927-.702-2.072-1.69-3.821-.115-.204-.494-2.746-1.242-4.354-.202-.435-1.495-.684-2.009-.529-.513.154.005.98.037 1.134.344 1.651 1.305 4.077 1.45 4.404.8 1.806 1.965 2.389 2.071 3.706.055.69.205 1.286.6 1.228.092.352.093.728.193.761zm-14.823.204c-.257.126-.504-.094-.62-.222-.33-.365-.591-1.242-.296-2.208.297-.975.424-2.146 1.174-4.01.087-.217.129-2.787.66-4.479.143-.457 1.392-.875 1.922-.789.529.086.124.972.112 1.129-.124 1.682-.758 4.213-.859 4.556-.556 1.895-1.634 2.627-1.566 3.946.036.692-.034 1.302-.433 1.296-.048.363 0 .735-.094.781z" fill="#FFDC5D" ts:skin2="skin" ts:gender="neutral"/>
	<path d="M3.3 26.964c-.257.126-.504-.094-.62-.222-.33-.365-.591-1.242-.296-2.208.297-.975.424-2.146 1.174-4.01.087-.217.129-2.787.66-4.479.143-.457 1.392-.875 1.922-.789.529.086.124.972.112 1.129-.124 1.682-.758 4.213-.859 4.556-.556 1.895-1.634 2.627-1.566 3.946.036.692-.034 1.302-.433 1.296-.048.363 0 .735-.094.781z" fill="#FFDC5D" ts:skin2="skin" ts:gender="male"/>
	<path d="M17.896 26.76c.271.091.487-.159.586-.302.279-.405.422-1.309.004-2.227-.423-.927-.702-2.072-1.69-3.821-.115-.204-.494-2.746-1.242-4.354-.202-.435-1.495-.684-2.009-.529-.513.154.005.98.037 1.134.344 1.651 1.305 4.077 1.45 4.404.8 1.806 1.965 2.389 2.071 3.706.055.69.205 1.286.6 1.228.092.352.093.728.193.761z" fill="#FFDC5D" ts:skin2="skin" ts:gender="male"/>
	<path d="M3.258 26.96c-.258.124-.503-.097-.619-.227-.328-.367-.583-1.246-.282-2.209.303-.973.6-2.384 1.199-4.002.081-.22.499-3.764.805-4.445.197-.437 1.28-.896 1.81-.807.529.089.246.651.105 1.13 0 0-.916 3.953-1.016 4.296-.316 1.079-1.624 2.918-1.565 4.237.031.692.06 1.255-.339 1.246-.049.362-.003.735-.098.781zm14.984-.2c.271.091.487-.159.586-.302.279-.405.422-1.309.004-2.227-.423-.927-.894-2.29-1.69-3.821-.108-.208-.966-3.672-1.355-4.309-.25-.409-1.382-.729-1.897-.574-.513.154-.162.676.037 1.134 0 0 1.403 3.807 1.546 4.135.449 1.031 1.977 2.691 2.082 4.008.056.69.097 1.253.492 1.194.094.353.095.729.195.762z" fill="#FFDC5D" ts:skin2="skin" ts:gender="female,mixed"/>
	<path d="M18.074 26.76c-.271.091-.487-.159-.586-.302-.279-.405-.422-1.309-.004-2.227.423-.927.702-2.072 1.69-3.821.115-.204.494-2.746 1.242-4.354.202-.435 1.495-.684 2.009-.529.513.154-.005.98-.037 1.134-.344 1.651-1.305 4.077-1.45 4.404-.8 1.806-1.965 2.389-2.071 3.706-.055.69-.205 1.286-.6 1.228-.093.352-.094.728-.193.761zm14.595.204c.257.126.504-.094.62-.222.33-.365.591-1.242.296-2.208-.297-.975-.424-2.146-1.174-4.01-.087-.217-.129-2.787-.66-4.479-.143-.457-1.392-.875-1.922-.789-.529.086-.124.972-.112 1.129.124 1.682.758 4.213.859 4.556.556 1.895 1.634 2.627 1.566 3.946-.036.692.034 1.302.433 1.296.048.363 0 .735.094.781z" ts:skin="skin" ts:gender="neutral"/>
	<path d="M18.117 26.76c-.271.091-.487-.159-.586-.302-.279-.405-.422-1.309-.004-2.227.423-.927.702-2.072 1.69-3.821.115-.204.494-2.746 1.242-4.354.202-.435 1.495-.684 2.009-.529.513.154-.005.98-.037 1.134-.344 1.651-1.305 4.077-1.45 4.404-.8 1.806-1.965 2.389-2.071 3.706-.055.69-.205 1.286-.6 1.228-.092.352-.094.728-.193.761zm14.595.204c.257.126.504-.094.62-.222.33-.365.591-1.242.296-2.208-.297-.975-.424-2.146-1.174-4.01-.087-.217-.129-2.787-.66-4.479-.143-.457-1.392-.875-1.922-.789-.529.086-.124.972-.112 1.129.124 1.682.758 4.213.859 4.556.556 1.895 1.634 2.627 1.566 3.946-.036.692.034 1.302.433 1.296.048.363 0 .735.094.781z" ts:skin="skin" ts:gender="male,female,mixed"/>
	<!-- legs -->
	<path d="M11.213 34.309c-.052.682 1.849.953 2.129.791.299-.173-.698-.623-.702-.977-.019-1.797.53-1.648.311-3.492.443-1.625.672-2.592.672-3.131 0-1.25-3.312-.766-3.312 0 0 .344.365 1.681.417 3.131-.313 1.659.641 1.615.485 3.678zm-2.448 0c.052.682-1.849.953-2.129.791-.299-.173.698-.623.702-.977.019-1.797-.53-1.648-.311-3.492-.443-1.625-.672-2.592-.672-3.131 0-1.25 3.313-.766 3.313 0 0 .344-.365 1.681-.417 3.131.311 1.659-.642 1.615-.486 3.678z" fill="#FFDC5D" ts:skin2="skin" ts:gender="female,mixed"/>
	<path d="M27.213 34.309c-.052.682 1.849.953 2.129.791.299-.173-.698-.623-.702-.977-.019-1.797.53-1.648.311-3.492.443-1.625.672-2.592.672-3.131 0-1.25-3.312-.766-3.312 0 0 .344.365 1.681.417 3.131-.313 1.659.641 1.615.485 3.678zm-2.448 0c.052.682-1.849.953-2.129.791-.299-.173.698-.623.702-.977.019-1.797-.53-1.648-.311-3.492-.443-1.625-.672-2.592-.672-3.131 0-1.25 3.312-.766 3.312 0 0 .344-.365 1.681-.417 3.131.312 1.659-.642 1.615-.485 3.678z" ts:skin="skin" ts:gender="female"/>
	<!-- leg shadows -->
	<path d="M13.623 27.5c0-1.25-3.312-.766-3.312 0 0 .151.071.499.154.961h3.029c.084-.411.129-.729.129-.961zm-3.956 0c0-.766-3.312-1.25-3.312 0 0 .232.045.55.13.961h3.029c.082-.462.153-.81.153-.961z" fill="#F9CA55" ts:skin2="dark" ts:gender="female,mixed"/>
	<path d="M29.623 27.5c0-1.25-3.312-.766-3.312 0 0 .151.071.499.154.961h3.029c.084-.411.129-.729.129-.961zm-3.956 0c0-.766-3.312-1.25-3.312 0 0 .232.045.55.13.961h3.029c.082-.462.153-.81.153-.961z" ts:skin="dark" ts:gender="female"/>
	<!-- pants -->
	<path d="M6.488 29.5c-.5-2.734-.263-6.48-.263-6.48h7.644s.238 3.746-.262 6.48c-.063.344-.188 3.344.109 5.5.066.479-2.886.937-2.844-.125.078-1.969-.264-3.513-.328-4.5-.035-.547-.25-1.875-.344-3.208-.011-.018-.295-.018-.306 0-.094 1.333-.308 2.661-.344 3.208-.064.987-.406 2.531-.328 4.5.042 1.062-2.91.604-2.844.125.297-2.156.172-5.156.11-5.5z" fill="#5C913B" ts:gender="neutral"/>
	<path d="M13.554 29.5c.5-2.734.422-6.5.422-6.5H6.013s-.078 3.766.422 6.5c.063.344.188 3.344-.109 5.5-.066.479 2.886.937 2.844-.125-.078-1.969.264-3.513.328-4.5.035-.547.25-1.875.344-3.208.011-.018.295-.018.306 0 .094 1.333.308 2.661.344 3.208.064.987.406 2.531.328 4.5-.042 1.062 2.91.604 2.844.125-.298-2.156-.173-5.156-.11-5.5z" fill="#AAB8C2" ts:gender="male"/>
	<path d="M29.512 29.5c.5-2.734.263-6.48.263-6.48h-7.644s-.238 3.746.262 6.48c.063.344.188 3.344-.109 5.5-.066.479 2.886.937 2.844-.125-.078-1.969.264-3.513.328-4.5.035-.547.25-1.875.344-3.208.011-.018.295-.018.306 0 .094 1.333.308 2.661.344 3.208.064.987.406 2.531.328 4.5-.042 1.062 2.91.604 2.844.125-.297-2.156-.172-5.156-.11-5.5z" fill="#4289C1" ts:gender="neutral"/>
	<path d="M29.555 29.5c.5-2.734.422-6.5.422-6.5h-7.963s-.078 3.766.422 6.5c.063.344.188 3.344-.109 5.5-.066.479 2.886.937 2.844-.125-.078-1.969.264-3.513.328-4.5.035-.547.25-1.875.344-3.208.011-.018.295-.018.306 0 .094 1.333.308 2.661.344 3.208.064.987.406 2.531.328 4.5-.042 1.062 2.91.604 2.844.125-.297-2.156-.172-5.156-.11-5.5z" fill="#67757F" ts:gender="male"/>
	<path d="M29.555 29.5c.5-2.734.422-6.5.422-6.5h-7.963s-.078 3.766.422 6.5c.063.344.188 3.344-.109 5.5-.066.479 2.886.937 2.844-.125-.078-1.969.264-3.513.328-4.5.035-.547.25-1.875.344-3.208.011-.018.295-.018.306 0 .094 1.333.308 2.661.344 3.208.064.987.406 2.531.328 4.5-.042 1.062 2.91.604 2.844.125-.297-2.156-.172-5.156-.11-5.5z" fill="#AAB8C2" ts:gender="mixed"/>
	<!-- shirts -->
	<path d="M5.246 14.766C6.465 14 8.043 14 8.043 14h4s1.578 0 2.797.766c1.201.754 1.656 3 1.656 3l-2.373.688-.105 5.527h-7.95l-.105-5.527-2.373-.688s.455-2.246 1.656-3z" fill="#99AAB5" ts:gender="neutral"/>
	<path d="M14.797 14.766C13.578 14 12 14 12 14H8s-1.578 0-2.797.766c-1.201.754-1.656 3-1.656 3l2.203.688L5.859 24h8.281l.109-5.547 2.203-.688c.001.001-.454-2.245-1.655-2.999z" fill="#4289C1" ts:gender="male"/>
	
	<path d="M30.754 14.766C29.535 14 27.957 14 27.957 14h-4s-1.578 0-2.797.766c-1.201.754-1.656 3-1.656 3l2.373.688.105 5.527h7.95l.105-5.527 2.373-.688s-.455-2.246-1.656-3z" fill="#FA743E" ts:gender="neutral"/>
	<path d="M30.797 14.766C29.578 14 28 14 28 14h-4s-1.578 0-2.797.766c-1.201.754-1.656 3-1.656 3l2.203.688.109 5.546h8.281l.109-5.547 2.203-.688c.001.001-.454-2.245-1.655-2.999z" fill="#78B159" ts:gender="male"/>
	<path d="M30.797 14.766C29.578 14 28 14 28 14h-4s-1.578 0-2.797.766c-1.201.754-1.656 3-1.656 3l2.203.688.109 5.546h8.281l.109-5.547 2.203-.688c.001.001-.454-2.245-1.655-2.999z" fill="#4289C1" ts:gender="mixed"/>
	<!-- dresses -->
	<path d="M14.354 17.771L16 16c-1.438-1.792-4-2-4-2H8s-2.562.208-4 2l1.646 1.771S6.25 20.688 6.25 21 5 25.75 5 28h10c0-2.25-1.25-6.688-1.25-7s.604-3.229.604-3.229z" fill="#E75A70" ts:gender="female,mixed"/>
	<path d="M30.354 17.771L32 16c-1.438-1.792-4-2-4-2h-4s-2.562.208-4 2l1.646 1.771s.604 2.917.604 3.229S21 25.75 21 28h10c0-2.25-1.25-6.688-1.25-7s.604-3.229.604-3.229z" fill="#9268CA" ts:gender="female"/>
	<!-- dress waist -->
	<path d="M13.75 21c0-.106.07-.512.161-1H6.089c.092.488.161.894.161 1 0 .083-.122.509-.223 1h7.942c-.108-.558-.219-.917-.219-1z" fill="#DA2F47" ts:gender="female,mixed"/>
	<path d="M29.75 21c0-.106.07-.512.161-1h-7.822c.092.488.161.894.161 1 0 .083-.122.509-.223 1h7.942c-.108-.558-.219-.917-.219-1z" fill="#AA8ED6" ts:gender="female"/>
	<!-- shoes -->
	<path d="M5.503 36c-.499-.406.041-1.161 1.42-1.402 1.163-.203 2.2-.032 2.363.35.212.493.05 1.052.05 1.052H5.503zm9.117 0c.499-.406-.041-1.161-1.42-1.402-1.163-.203-2.2-.032-2.363.35-.212.493-.05 1.052-.05 1.052h3.833z" fill="#292F33" ts:gender="neutral"/>
	<path d="M14.538 36c.499-.406-.041-1.161-1.42-1.402-1.163-.203-2.2-.032-2.363.35-.212.493-.05 1.052-.05 1.052h3.833zm-9.117 0c-.499-.406.041-1.161 1.42-1.402 1.163-.203 2.2-.032 2.363.35.212.493.05 1.052.05 1.052H5.421z" fill="#292F33" ts:gender="male"/>
	<path d="M13.945 36c.305 0 .372-.418.089-.629-.379-.285-.88-1.371-1.561-1.371h-1.245c-.229 0-.49 1.209-.41 1.48.102.345.433.52.812.52h2.315zm-7.913 0c-.305 0-.372-.418-.089-.629.379-.285.88-1.371 1.561-1.371h1.245c.229 0 .49 1.209.41 1.48-.102.345-.433.52-.811.52H6.032z" fill="#292F33" ts:gender="female,mixed"/>
	<path d="M30.497 36c.499-.406-.041-1.161-1.42-1.402-1.163-.203-2.2-.032-2.363.35-.212.493-.05 1.052-.05 1.052h3.833zm-9.117 0c-.499-.406.041-1.161 1.42-1.402 1.163-.203 2.2-.032 2.363.35.212.494.05 1.053.05 1.053L21.38 36z" fill="#292F33" ts:gender="neutral"/>
	<path d="M30.54 36c.499-.406-.041-1.161-1.42-1.402-1.163-.203-2.2-.032-2.363.35-.212.493-.05 1.052-.05 1.052h3.833zm-9.117 0c-.499-.406.041-1.161 1.42-1.402 1.163-.203 2.2-.032 2.363.35.212.494.05 1.053.05 1.053L21.423 36z" fill="#292F33" ts:gender="male,mixed"/>
	<path d="M29.945 36c.305 0 .372-.418.089-.629-.379-.285-.88-1.371-1.561-1.371h-1.245c-.229 0-.49 1.209-.41 1.48.102.345.433.52.812.52h2.315zm-7.913 0c-.305 0-.372-.418-.089-.629.379-.285.88-1.371 1.561-1.371h1.245c.229 0 .49 1.209.41 1.48-.102.345-.433.52-.811.52h-2.316z" fill="#292F33" ts:gender="female"/>
	<!-- neck -->
	<path d="M8.446 11.599v2.458c0 .905.688 2.72 1.638 2.72s1.638-1.815 1.638-2.72v-2.458H8.446z" fill="#FFDC5D" ts:skin2="skin" ts:gender="neutral"/>
	<path d="M8 10.042v4c0 .682.896 1.305 2 1.305s2-.668 2-1.305v-4H8z" fill="#FFDC5D" ts:skin2="skin" ts:gender="male"/>
	<path d="M8 11v4c0 1.104.896 2 2 2s2-.896 2-2v-4H8z" fill="#FFDC5D" ts:skin2="skin" ts:gender="female,mixed"/>
	<path d="M24.239 11.599v2.458c0 .905.688 2.72 1.638 2.72s1.638-1.815 1.638-2.72v-2.458h-3.276z" ts:skin="skin" ts:gender="neutral"/>
	<path d="M24 10.042v4c0 .682.896 1.305 2 1.305s2-.668 2-1.305v-4h-4z" ts:skin="skin" ts:gender="male,mixed"/>
	<path d="M24 11v4c0 1.104.896 2 2 2s2-.896 2-2v-4h-4z" ts:skin="skin" ts:gender="female"/>
	<!-- neck shadow -->
	<path d="M24.24 13.716c.498.563.965.704 1.637.704.671 0 1.142-.142 1.64-.704v-.666H24.24v.666z" ts:skin="dark" ts:gender="neutral"/>
	<path d="M8 13.56c.608.687 1.178.859 1.998.859.819 0 1.394-.173 2.002-.859v-.812H8v.812z" fill="#F9CA55" ts:skin2="dark" ts:gender="male,female,mixed"/>
	<path d="M8.446 13.716c.498.563.965.704 1.637.704.671 0 1.142-.142 1.64-.704v-.666H8.446v.666z" fill="#F9CA55" ts:skin2="dark" ts:gender="neutral"/>
	<path d="M24 13.561c.608.687 1.178.859 1.998.859.819 0 1.394-.173 2.002-.859v-.812h-4v.812z" ts:skin="dark" ts:gender="male,female,mixed"/>
	<!-- face -->
	<path d="M14.403 6.191c-.37-.512-.843-.925-1.882-1.071.389.178.762.795.811 1.135.049.341.097.616-.211.276-1.235-1.365-2.579-.827-3.912-1.661-.93-.582-1.213-1.226-1.213-1.226s-.114.86-1.525 1.736c-.409.254-.897.819-1.168 1.655-.195.6-.134 1.136-.134 2.05 0 2.67 2.201 4.915 4.915 4.915s4.915-2.265 4.915-4.915c0-1.661-.174-2.31-.596-2.894z" fill="#FFDC5D" ts:skin2="skin" ts:gender="neutral"/>
	<path d="M15 3H5v6c0 2.762 2.238 5 5 5s5-2.237 5-5V3z" fill="#FFDC5D" ts:skin2="skin" ts:gender="male,female,mixed"/>
	<path d="M30.201 6.191c-.37-.512-.844-.925-1.882-1.071.389.178.762.795.811 1.135.049.341.097.616-.211.276-1.235-1.365-2.579-.827-3.912-1.661-.931-.582-1.214-1.226-1.214-1.226s-.114.86-1.525 1.736c-.409.254-.897.819-1.168 1.655-.195.6-.134 1.136-.134 2.05 0 2.67 2.201 4.915 4.915 4.915s4.915-2.265 4.915-4.915c.001-1.661-.173-2.31-.595-2.894z" ts:skin="skin" ts:gender="neutral"/>
	<path d="M31 3H21v6c0 2.762 2.238 5 5 5s5-2.237 5-5V3z" ts:skin="skin" ts:gender="male,female,mixed"/>
	<!-- front hair -->
	<path d="M5 2.5L4.5 5 5 7c2.333 0 2.85-2.412 2.965-3.488C8.004 4.588 8.779 7 15 7l.5-2-.5-2.5H5z" ts:skin2="hair" ts:gender="male"/>
	<path d="M15 2H5L4 7c4 0 4-4 4-4s0 4 8 4l-1-5z" ts:skin2="hair" ts:gender="female,mixed"/>
	<path d="M21 2.5L20.5 5l.5 2c2.333 0 2.85-2.412 2.965-3.488C24.004 4.588 24.779 7 31 7l.5-2-.5-2.5H21z" ts:skin="hair" ts:gender="male,mixed"/>
	<path d="M31 2H21l-1 5c4 0 4-4 4-4s0 4 8 4l-1-5z" ts:skin="hair" ts:gender="female"/>
	<!-- eyes -->
	<circle cx="7.5" cy="8.5" r=".5" ts:skin2="eyes2"/>
	<circle cx="12.5" cy="8.5" r=".5" ts:skin2="eyes2"/>
	<circle cx="23.5" cy="8.5" r=".5" ts:skin="eyes2"/>
	<circle cx="28.5" cy="8.5" r=".5" ts:skin="eyes2"/>
	<!-- noses -->
	<path d="M9 10h2s0 1-1 1-1-1-1-1z" ts:skin2="nose"/>
	<path d="M25 10h2s0 1-1 1-1-1-1-1z" ts:skin="nose"/>
	<!-- mouths -->
	<path d="M12 12H8s0 1 2 1 2-1 2-1z" ts:skin2="mouth"/>
	<path d="M28 12h-4s0 1 2 1 2-1 2-1z" ts:skin="mouth"/>
</svg>
