<svg viewBox="0 0 36 36" xmlns="http://www.w3.org/2000/svg" xmlns:ts="data:,a">
	<!-- pants -->
	<path d="M28.632 30.563c-.178-1.426-1.568-1.931-2.257-1.931-.884 0-2.992 1.106-3.375-.585l-.037-.183-9.91-.012-.053.184c-.375 1.708-2.492.596-3.378.596-.689 0-2.079.505-2.257 1.931C7.365 30.563 14.13 33 18 33c3.873 0 10.632-2.437 10.632-2.437z" fill="#4289C1"/>
	<!-- arms -->
	<path d="M12.165 17.445c-.546-.091-1.06.234-1.151.778l-.825 4.56c-.071.043-.142.087-.217.135-1.762 1.131-1.661 3.529-2.934 4.616-.171.146-.949.766-1.203 1.325-.336.738.22.444.045.695-.406.584-.414 1.478-.127 1.686l.373.1c.557.403 2.081-1.336 2.281-2.302.3-1.443 3.075-3.25 3.589-4.653.162-.444.224-.787.173-1.074l1.106-5.145c.091-.546-.566-.631-1.11-.721z " fill="#FFDC5D" ts:skin="#F7DECE|#F3D2A2|#D4AB88|#AF7E57|#7C533E" ts:gender="neutral"/>
	<path d="M12.497 16.024c-.674-.134-1.336 1.309-1.47 1.983L9.846 23.02c-1.619 1.166-1.57 3.454-2.808 4.512-.171.146-.949.766-1.203 1.325-.336.738.22.444.045.695-.406.584-.414 1.478-.127 1.686l.373.1c.557.403 2.081-1.336 2.281-2.302.3-1.443 3.075-3.25 3.589-4.653.006-.017.007-.029.013-.046.097-.138.169-.294.204-.469l1.266-6.375c.135-.674-.308-1.335-.982-1.469z " fill="#FFDC5D" ts:skin="#F7DECE|#F3D2A2|#D4AB88|#AF7E57|#7C533E" ts:gender="male"/>
	<path d="M12.165 17.014c-.546-.091-1.06.278-1.151.822l-.825 4.947c-.071.043-.142.087-.217.135-1.762 1.131-1.661 3.529-2.934 4.616-.171.146-.949.766-1.203 1.325-.336.738.22.444.045.695-.406.584-.414 1.478-.127 1.686l.373.1c.557.403 2.081-1.336 2.281-2.302.3-1.443 3.075-3.25 3.589-4.653.162-.444.224-.787.173-1.074l1.106-5.145c.091-.546-.566-1.062-1.11-1.152z " fill="#FFDC5D" ts:skin="#F7DECE|#F3D2A2|#D4AB88|#AF7E57|#7C533E" ts:gender="female"/>
	<path d="M30.087,29.612 c-.175-.251.437-.016.101-.754-.255-.56-1.089-1.179-1.259-1.325-1.273-1.087-1.116-3.485-2.878-4.616-.083-.054-.164-.104-.243-.151l-.822-4.543c-.09-.544-.607-.868-1.15-.778-.545.091-1.235.175-1.145.72l1.151 5.222c-.028.272.036.592.184.998.513 1.402 3.289 3.209 3.589 4.653.201.967 1.725 2.706 2.281 2.302l.373-.1c.289-.21.225-1.044-.182-1.628z" fill="#FFDC5D" ts:skin="#F7DECE|#F3D2A2|#D4AB88|#AF7E57|#7C533E" ts:gender="neutral"/>
	<path d="M30.08700000,29.61200000 c-.175-.251.437-.016.101-.754-.255-.56-1.089-1.179-1.259-1.325-1.246-1.064-1.133-3.377-2.781-4.535l-1.176-4.99c-.134-.674-.795-2.117-1.47-1.983-.674.134-1.116.795-.983 1.47l1.266 6.375c.038.191.125.355.236.501l.004.014c.513 1.402 3.289 3.209 3.589 4.653.201.967 1.725 2.706 2.281 2.302l.373-.1c.29-.21.226-1.044-.181-1.628z" fill="#FFDC5D" ts:skin="#F7DECE|#F3D2A2|#D4AB88|#AF7E57|#7C533E" ts:gender="male"/>
	<path d="M30.08700000,29.61200000 c-.175-.251.437-.016.101-.754-.255-.56-1.089-1.179-1.259-1.325-1.273-1.087-1.116-3.485-2.878-4.616-.083-.054-.164-.104-.243-.151l-.822-4.93c-.09-.544-.607-.912-1.15-.822-.545.091-1.235.606-1.145 1.151l1.151 5.222c-.028.272.036.592.184.998.513 1.402 3.289 3.209 3.589 4.653.201.967 1.725 2.706 2.281 2.302l.373-.1c.289-.21.225-1.044-.182-1.628z" fill="#FFDC5D" ts:skin="#F7DECE|#F3D2A2|#D4AB88|#AF7E57|#7C533E" ts:gender="female"/>
	<!-- back hair -->
	<path d="M20.218.202c-1.141-.369-3.825-.268-4.497.604-1.745.034-3.792 1.611-4.06 3.691-.266 2.059.326 3.015.537 4.564.239 1.754 1.225 2.315 2.013 2.55 1.134 1.499 2.34 1.435 4.365 1.435 3.954 0 5.837-2.646 6.004-7.139.101-2.718-1.494-4.777-4.362-5.705z" fill="#FFAC33" ts:skin="#292F33|#FFE51E|#963B22|#60352A|#0B0200" ts:gender="neutral"/>
	<path d="M19 0c-1.264 0-2.435.393-3.402 1.061C15.402 1.031 15.205 1 15 1c-2.209 0-4 1.791-4 4v4c0 3.866 3.134 7 7 7s7-3.134 7-7V6.001C25 2.687 22.314 0 19 0z" fill="#FFAC33" ts:skin="#292F33|#FFE51E|#963B22|#60352A|#0B0200" ts:gender="female"/>
	<!-- shirt -->
	<path d="M25.458 19.156s-.555-2.975-2.924-3.475C19.713 15.086 18.912 15 18 15s-1.713.086-4.534.681c-2.369.499-2.924 3.475-2.924 3.475l2.458.632s.354 2.22.354 4.181S13 28 13 28s2.031.335 5 .335S23 28 23 28s-.354-2.071-.354-4.031.354-4.181.354-4.181l2.458-.632z" fill="#FA743E" ts:gender="neutral"/>
	<path d="M22.543 15h-9.06c-2.562 0-2.943 4.394-2.943 4.394l2.458.535s.31 3.589.271 5.27c-.038 1.682-.27 2.801-.27 2.801s1.912.394 5 .394 5-.394 5-.394-.349-1.606-.349-2.978.349-5.093.349-5.093l2.458-.535S25.105 15 22.543 15z" fill="#77B255" ts:gender="male"/>
	<path d="M22.543 15h-9.089c-2.562 0-2.912 4-2.912 4l2.458.632s.454 2.376.454 4.337S13 28 13 28s2.031.335 5 .335S23 28 23 28s-.487-2.071-.487-4.061.487-4.307.487-4.307L25.458 19s-.353-4-2.915-4z" fill="#9268CA" ts:gender="female"/>
	<!-- inner leg -->
	<path d="M22.757 35.82c-1.04.089-2.02-.208-3 0-.475.03-.802 0-1.277-.416s-8.287-1.515-9.713-2.465c-.658-.439-1.662-1.54-1.396-2.465.263-.913 1.139-1.429 2.198-1.455 2.065-.051 6 2.941 8.851 4.04.518.2.948-.052 1.604.119.683.178 2.317-.555 3.149-.446 1.129.149 1.574.683 1.485 1.604-.094.974-.861 1.395-1.901 1.484z" fill="#FFDC5D" ts:skin="#F7DECE|#F3D2A2|#D4AB88|#AF7E57|#7C533E"/>
	<!-- neck -->
	<path d="M15.667 10.389v4.666c0 .312.553 1.488 2.333 1.488 1.781 0 2.333-1.214 2.333-1.488v-4.666h-4.666z" fill="#FFDC5D" ts:skin="#F7DECE|#F3D2A2|#D4AB88|#AF7E57|#7C533E" ts:gender="male"/>
	<path d="M16.317 11.916v3.389c0 .936.759 1.695 1.695 1.695s1.695-.758 1.695-1.695v-3.389h-3.39z" fill="#FFDC5D" ts:skin="#F7DECE|#F3D2A2|#D4AB88|#AF7E57|#7C533E" ts:gender="neutral"/>
	<path d="M16 11v4c0 1.104.896 2 2 2s2-.896 2-2v-4h-4z" fill="#FFDC5D" ts:skin="#F7DECE|#F3D2A2|#D4AB88|#AF7E57|#7C533E" ts:gender="female"/>
	<!-- shadows -->
	<path d="M7.371 30.474c.006-.02.016-.037.022-.056.201.762.76 1.66 1.401 1.898.802.297 7.247 2.198 8.049 2.287.802.089 1.99.208 2.228.386.238.178.861.238 1.366.119.505-.119 1.782.356 2.436.208.653-.148 1.604-.445 1.782-1.247.003-.015.007-.022.011-.034.004.096.003.195-.007.302-.094.975-.861 1.396-1.901 1.485s-2.02-.208-3 0c-.475.03-.802 0-1.277-.416-.475-.416-8.287-1.515-9.713-2.465-.659-.441-1.663-1.543-1.397-2.467z" fill="#F9CA55" ts:skin="#EEC2AD|#E2C196|#CC9B7A|#9B6A49|#664131"/>
	<path d="M22.757 35.82c-1.04.089-2.02-.208-3 0-.475.03-.802 0-1.277-.416s.889-2.399 1.545-2.228c.683.178 2.317-.555 3.149-.446 1.129.149 1.574.683 1.485 1.604-.095.976-.862 1.397-1.902 1.486z M11.19600000,33.20600000 c.238-.624 1.188-.891 1.634-.95s1.188.208 1.693.416c.505.208 1.118.234 1.504.085.386-.149.668-.124.958 0 .078.033.423 0 .546-.067 0 0 1.79.616 1.136.824-.653.208-5.421.524-6.074.524s-1.397-.832-1.397-.832z" fill="#F9CA55" ts:skin="#EEC2AD|#E2C196|#CC9B7A|#9B6A49|#664131"/>
	<path d="M16.317 14.449c.596.218 1.965.562 3.389-.017v-2.516h-3.389v2.533z" fill="#F9CA55" ts:skin="#EEC2AD|#E2C196|#CC9B7A|#9B6A49|#664131" ts:gender="neutral"/>
	<path d="M20.333 9.774l-4.666.022v4.644s2.333 1.167 4.666 0V9.774z" fill="#F9CA55" ts:skin="#EEC2AD|#E2C196|#CC9B7A|#9B6A49|#664131" ts:gender="male"/>
	<path d="M20 11l-4 .019V15s2 1 4 0v-4z" fill="#F9CA55" ts:skin="#EEC2AD|#E2C196|#CC9B7A|#9B6A49|#664131" ts:gender="female"/>
	<!-- outer leg -->
	<path d="M13.243 35.82c1.04.089 2.02-.208 3 0 .475.03.802 0 1.277-.416s8.287-1.515 9.713-2.465c.658-.439 1.662-1.54 1.396-2.465-.263-.913-1.139-1.429-2.198-1.455-2.065-.051-6 2.941-8.851 4.04-.518.2-.948-.052-1.604.119-.683.178-2.317-.555-3.149-.446-1.129.149-1.574.683-1.485 1.604.094.974.861 1.395 1.901 1.484z" fill="#FFDC5D" ts:skin="#F7DECE|#F3D2A2|#D4AB88|#AF7E57|#7C533E"/>
	<!-- face -->
	<path d="M22.479 6.099c-.383-.53-.872-.956-1.946-1.107.403.185.789.822.839 1.174.05.352.101.638-.218.285-1.277-1.412-2.668-.856-4.046-1.718-.963-.602-1.256-1.269-1.256-1.269s-.117.889-1.577 1.795c-.423.263-.928.848-1.208 1.711-.201.621-.139 1.175-.139 2.121 0 2.762 2.276 5.084 5.084 5.084s5.084-2.342 5.084-5.084c-.001-1.717-.181-2.388-.617-2.992z" fill="#FFDC5D" ts:skin="#F7DECE|#F3D2A2|#D4AB88|#AF7E57|#7C533E" ts:gender="neutral"/>
	<path d="M22.954 3.966h-9.908v5.433c0 2.737 2.218 4.954 4.954 4.954 2.736 0 4.954-2.217 4.954-4.954V3.966z" fill="#FFDC5D" ts:skin="#F7DECE|#F3D2A2|#D4AB88|#AF7E57|#7C533E" ts:gender="male"/>
	<path d="M16 3s-.011 3.285-3 3.894V9c0 2.762 2.238 5 5 5s5-2.237 5-5V6.968C16.019 6.644 16 3 16 3z" fill="#FFDC5D" ts:skin="#F7DECE|#F3D2A2|#D4AB88|#AF7E57|#7C533E" ts:gender="female"/>
	<!-- hair -->
	<path d="M18 .953c3.385 0 5.5 2.579 5.5 4.728 0 2.149-.423 3.009-.846 2.149l-.846-1.719s-2.538 0-3.384-.86c0 0 1.269 2.579-1.269 0 0 0 .423 1.72-2.115-.429 0 0-1.269.86-1.692 3.008-.117.597-.846 0-.846-2.149C12.5 3.532 14.192.953 18 .953" fill="#FFAC33" ts:skin="#292F33|#FFE51E|#963B22|#60352A|#0B0200" ts:gender="male"/>
	<!-- eyes -->
	<path d="M16.25 8.75h-1.5c-.137 0-.25-.113-.25-.25s.113-.25.25-.25h1.5c.138 0 .25.113.25.25s-.112.25-.25.25z M21.25000000,8.75000000 h-1.5c-.138 0-.25-.113-.25-.25s.112-.25.25-.25h1.5c.138 0 .25.113.25.25s-.112.25-.25.25z" fill="#C1694F" ts:skin="#C1694F|#C1694F|#C1694F|#915A34|#3D2E24"/>
	<!-- nose -->
	<path d="M18.57600000,10.50400000 h-1.13c-.156 0-.282-.126-.282-.282 0-.156.126-.282.282-.282h1.13c.156 0 .282.126.282.282.001.156-.125.282-.282.282z" fill="#C1694F" ts:skin="#C1694F|#C1694F|#C1694F|#915A34|#3D2E24" ts:gender="neutral"/>
	<path d="M17.00900000,10.07600000 h1.982s0 .991-.991.991-.991-.991-.991-.991z" fill="#C1694F" ts:skin="#C1694F|#C1694F|#C1694F|#915A34|#3D2E24" ts:gender="male"/>
	<path d="M17 10h2s0 1-1 1-1-1-1-1z" fill="#C1694F" ts:skin="#C1694F|#C1694F|#C1694F|#915A34|#3D2E24" ts:gender="female"/>
	<!-- mouth -->
	<path d="M20.271 11.916h-4.518s.565 1.13 2.259 1.13 2.259-1.13 2.259-1.13z " fill="#C1694F" ts:skin="#C1694F|#C1694F|#C1694F|#915A34|#3D2E24" ts:gender="neutral"/>
	<path d="M19.982 12.057h-3.964s0 .991 1.982.991 1.982-.991 1.982-.991z" fill="#C1694F" ts:skin="#C1694F|#C1694F|#C1694F|#915A34|#3D2E24" ts:gender="male"/>
	<path d="M20 12h-4s0 1 2 1 2-1 2-1z" fill="#DF1F32" ts:gender="female"/>
</svg>
