<svg viewBox="0 0 36 36" xmlns="http://www.w3.org/2000/svg" xmlns:ts="data:,a">
	<!-- left arm -->
	<path d="M13.052 22.569c-.236.161-.512-.02-.646-.131-.379-.313-.763-1.144-.611-2.142.154-1.008.199-2.185.673-4.137.055-.228-.069-2.776.212-4.528.076-.473.958-1.066 1.495-1.057.536.008.263.944.274 1.101.12 1.682-.348 4.279-.398 4.632-.277 1.956-1.033 2.835-.776 4.13.135.679.154 1.293-.242 1.345.005.366.106.728.019.787z" fill="#FFDC5D" ts:skin="skin" ts:gender="neutral"/>
	<path d="M13.06700000,22.17600000 c-.236.161-.512-.02-.646-.131-.379-.313-.763-1.144-.611-2.142.154-1.008.11-2.185.584-4.137.055-.228-.274-2.776.007-4.528.076-.473 1.251-1.066 1.789-1.057.536.008.263.944.274 1.101.12 1.682-.143 4.279-.193 4.632-.277 1.956-1.239 2.835-.981 4.13.135.679.154 1.293-.242 1.345.004.366.105.728.019.787z" fill="#FFDC5D" ts:skin="skin" ts:gender="male"/>
	<path d="M13.449 22.569c-.236.161-.512-.02-.646-.131-.379-.313-.763-1.144-.611-2.142.154-1.008.404-2.185.878-4.137.055-.228-.274-2.776.007-4.528.076-.473.958-1.066 1.495-1.057.536.008.263.944.274 1.101.12 1.682-.143 4.279-.193 4.632-.277 1.956-1.239 2.835-.981 4.13.135.679.154 1.293-.242 1.345.004.366.105.728.019.787z" fill="#FFDC5D" ts:skin="skin" ts:gender="female"/>
	<!-- right arm -->
	<path d="M22.94800000,22.56900000 c.236.161.512-.02.646-.131.379-.313.763-1.144.611-2.142-.154-1.008-.199-2.185-.673-4.137-.055-.228.069-2.776-.212-4.528-.076-.473-.958-1.066-1.495-1.057-.536.008-.263.944-.274 1.101-.12 1.682.348 4.279.398 4.632.277 1.956 1.033 2.835.776 4.13-.135.679-.154 1.293.242 1.345-.005.366-.106.728-.019.787z" fill="#FFDC5D" ts:skin="skin" ts:gender="neutral"/>
	<path d="M22.933 22.368c.236.161.512-.02.646-.131.379-.313.763-1.144.611-2.142-.154-1.008-.11-2.185-.584-4.137-.055-.228.274-2.776-.007-4.528-.076-.473-1.251-1.066-1.789-1.057-.536.008-.263.944-.274 1.101-.12 1.682.143 4.279.193 4.632.277 1.956 1.239 2.835.981 4.13-.135.679-.154 1.293.242 1.345-.004.366-.105.728-.019.787z" fill="#FFDC5D" ts:skin="skin" ts:gender="male"/>
	<path d="M22.55100000,22.56900000 c.236.161.512-.02.646-.131.379-.313.763-1.144.611-2.142-.154-1.008-.404-2.185-.878-4.137-.055-.228.274-2.776-.007-4.528-.076-.473-.958-1.066-1.495-1.057-.536.008-.263.944-.274 1.101-.12 1.682.143 4.279.193 4.632.277 1.956 1.239 2.835.981 4.13-.135.679-.154 1.293.242 1.345-.004.366-.105.728-.019.787z" fill="#FFDC5D" ts:skin="skin" ts:gender="female"/>
	<!-- pants -->
	<path d="M21.57 26.733c.02-3.063.014-6.5.014-6.5h-7.197s.033 3.747.119 6.46c.067 2.14.382 6.193.096 8.349-.064.479 2.782.937 2.742-.125-.075-1.969.255-6.322.316-7.309.034-.547.241-2.326.331-3.659.011-.018.284-.018.295 0 .09 1.333.297 3.112.331 3.659.062.987.392 5.34.316 7.309-.041 1.062 2.805.604 2.742.125-.286-2.157-.107-7.96-.105-8.309z" fill="#4289C1" ts:gender="neutral"/>
	<path d="M21.702 26.733c.021-3.063.014-6.5.014-6.5h-7.465s.035 3.747.123 6.46c.07 2.14.396 6.193.1 8.349-.066.479 2.886.937 2.844-.125-.078-1.969.264-6.322.328-7.309.035-.547.25-2.326.344-3.659.011-.018.295-.018.306 0 .094 1.333.308 3.112.344 3.659.064.987.406 5.34.328 7.309-.042 1.062 2.91.604 2.844.125-.298-2.157-.113-7.96-.11-8.309z" fill="#4289C1" ts:gender="male"/>
	<path d="M21.717 25.17c0-1.012.084-3.628-.241-5.198-.325-1.57-6.687-1.605-7.012 0-.325 1.605-.075 4.081-.075 5.158 0 2.141 1.159 7.747.862 9.903-.066.479 2.492.937 2.449-.125-.078-1.969-.104-5.193-.04-6.18.035-.547.171-4.771.265-6.105.011-.018.295-.018.306 0 .094 1.333.387 5.558.423 6.105.064.987.137 4.212.059 6.18-.042 1.062 2.525.604 2.459.125-.296-2.156.545-9.514.545-9.863z" fill="#4289C1" ts:gender="female"/>
	<!-- shoes -->
	<path d="M13.884 35.907c-.546-.051-.187-.684.061-.897.276-.238.718-.441.94-.852.246-.455 1.433-.395 1.683-.023.447.664.645.179.775.488.207.494.049 1.284.049 1.284h-3.508z" fill="#292F33" ts:gender="neutral"/>
	<path d="M22.36000000,35.90700000 c.546-.051.187-.684-.061-.897-.276-.238-.718-.441-.94-.852-.246-.455-1.433-.395-1.683-.023-.447.664-.645.179-.775.488-.207.494-.049 1.284-.049 1.284h3.508z" fill="#292F33" ts:gender="neutral"/>
	<path d="M13.789 35.907c-.558-.051-.192-.684.062-.897.282-.238.734-.441.961-.852.251-.455 1.465-.395 1.721-.023.457.664.66.179.792.488.212.494.05 1.284.05 1.284h-3.586z" fill="#292F33" ts:gender="male"/>
	<path d="M22.45500000,35.90700000 c.558-.051.192-.684-.062-.897-.282-.238-.734-.441-.961-.852-.251-.455-1.465-.395-1.721-.023-.457.664-.66.179-.792.488-.212.494-.05 1.284-.05 1.284h3.586z" fill="#292F33" ts:gender="male"/>
	<path d="M14.173 35.898c-.558-.051-.192-.684.062-.897.282-.238.734-.441.961-.852.251-.455 1.465-.395 1.721-.023.457.664.66.179.792.488.212.494.05 1.284.05 1.284h-3.586z" fill="#292F33" ts:gender="female"/>
	<path d="M22.20200000,35.89800000 c.558-.051.192-.684-.062-.897-.282-.238-.734-.441-.961-.852-.251-.455-1.465-.395-1.721-.023-.457.664-.66.179-.792.488-.212.494-.05 1.284-.05 1.284h3.586z" fill="#292F33" ts:gender="female"/>
	<!-- shirt -->
	<path d="M22.366 9.472C21.661 8.623 18 8.023 18 8.023s-3.693.6-4.398 1.449c-.856 1.031-1.302 2.773-1.302 2.773l1.783.318s.449 1.612.449 3.148-.398 5.307-.398 5.307h7.734s-.43-3.84-.43-5.306.481-3.149.481-3.149l1.751-.318c-.002 0-.449-1.743-1.304-2.773z" fill="#FA743E" ts:gender="neutral"/>
	<path d="M22.822 9.472c-.778-.849-3.536-1.449-3.536-1.449h-2.605s-2.757.6-3.536 1.449c-.945 1.031-1.15 2.895-1.15 2.895l1.882.318s.283.9.283 2.436-.177 5.896-.177 5.896h8.032s-.209-4.43-.209-5.895.315-2.437.315-2.437l1.85-.318c.001 0-.205-1.865-1.149-2.895z" fill="#77B255" ts:gender="male"/>
	<path d="M22.131 9.371c-.665-.794-3.019-1.356-3.019-1.356h-2.225s-2.355.561-3.019 1.356c-.807.964-.982 2.71-.982 2.71l1.608.298s.461 1.862.461 3.3c0 1.147-.422 3.328-.593 4.163-.043.211-.035.227 0 .279s.233.057.233.057h6.814s.128.022.198-.036.051-.084.002-.286c-.203-.833-.722-3.073-.722-4.176 0-1.371.65-3.301.65-3.301l1.58-.298c-.004-.001-.179-1.746-.986-2.71z" fill="#9268CA" ts:gender="female"/>
	<!-- back hair -->
	<use href="defs.svg#hair_neutral" transform="translate(19.242 0.832) scale(.3067)" fill="#FFAC33" ts:skin="hair" ts:gender="neutral"/>
	<path d="M18.402.716c-.613-.078-1.567.093-2.032.605-.651-.233-1.415.479-1.415 1.453 0 1.116.164 2.206.857 2.64.52.723 1.571 1.046 2.53 1.046 1.582 0 2.703-.756 2.703-3.093 0-1.883-.992-2.442-2.643-2.651z" fill="#FFAC33" ts:skin="hair" ts:gender="male"/>
	<path d="M19.744 5.553c.814.198 1.151.895 1.116 1.616-.024.488.384.93.384.93s-2.07.419-2.481-1.409c-.371-1.641.981-1.137.981-1.137z" fill="#FFAC33" ts:skin="hair" ts:gender="female"/>
	<path d="M15.11 3.437c0-1.753 1.335-2.651 2.983-2.651 1.647 0 2.983.898 2.983 2.651s-1.335 3.174-2.983 3.174c-1.648 0-2.983-1.421-2.983-3.174z" fill="#FFAC33" ts:skin="hair" ts:gender="female"/>
	<!-- neck -->
	<path d="M19.344 4.369l-2.688.019v3.981c0 .963 2.688.998 2.688 0v-4z" fill="#FFDC5D" ts:skin="skin" ts:gender="male"/>
	<path d="M17.009 6.893v1.754c0 .484.488.877 1.091.877s1.091-.393 1.091-.877V6.893h-2.182z" fill="#FFDC5D" ts:skin="skin" ts:gender="neutral"/>
	<path d="M19.36 4.361l-2.688.019v3.981c0 .963 2.688.998 2.688 0v-4z" fill="#FFDC5D" ts:skin="skin" ts:gender="female"/>
	<path d="M17.009 7.981c.396.251 1.201.557 2.182-.03V6.893h-2.182v1.088z" fill="#F9CA55" ts:skin="dark" ts:gender="neutral"/>
	<path d="M19.344 3.86l-2.688.019V7.78s1.17 1.151 2.688.035V3.86z" fill="#F9CA55" ts:skin="dark" ts:gender="male"/>
	<path d="M19.36 3.851l-2.688.019v3.901s1.17 1.151 2.688.035V3.851z" fill="#F9CA55" ts:skin="dark" ts:gender="female"/>
	<!-- face -->
	<path d="M20.412 3.882c-.198-.274-.452-.495-1.007-.573.208.096.408.425.434.608.026.182.052.33-.113.148-.661-.731-1.381-.443-2.094-.889-.498-.312-.65-.657-.65-.657s-.061.46-.816.929c-.219.136-.48.439-.625.886-.104.321-.072.608-.072 1.098 0 1.429 1.178 2.631 2.631 2.631s2.631-1.212 2.631-2.631c0-.89-.093-1.238-.319-1.55z" fill="#FFDC5D" ts:skin="skin" ts:gender="neutral"/>
	<path d="M20.687 2.292h-5.21V5.03c0 1.337 1.166 2.993 2.605 2.993s2.605-1.516 2.605-2.912V2.292z" fill="#FFDC5D" ts:skin="skin" ts:gender="male"/>
	<path d="M20.702 2.283h-5.21v2.738c0 1.337 1.447 2.993 2.605 2.993s2.605-1.516 2.605-2.912V2.283z" fill="#FFDC5D" ts:skin="skin" ts:gender="female"/>
	<!-- hair -->
	<path d="M17.146 1.588l-1.67.704v2.084c0-.799.545-.846.871-1.358.012.322.658.628 1.636.628.744 0 2.703-1.291 2.703.73V2.007l-3.54-.419z" fill="#FFAC33" ts:skin="hair" ts:gender="male"/>
	<path d="M18.199 2.233s-.967 1.739-2.707 1.739V2.233h2.707zM17.937 2.233h2.772v1.739c-1.739 0-2.772-1.739-2.772-1.739z" fill="#FFAC33" ts:skin="hair" ts:gender="female"/>
	<!-- eyes -->
	<rect x="16.639" y="4.262" width="0.584" height="0.876" rx="0.292" fill="#662113" ts:skin="eyes2" ts:gender="neutral"/><rect x="18.977" y="4.262" width="0.584" height="0.876" rx="0.292" fill="#662113" ts:skin="eyes2" ts:gender="neutral"/>
	<circle cx="17.033" cy="4.786" fill="#662113" ts:skin="eyes2" r=".339" ts:gender="male"/><circle cx="19.15" cy="4.786" fill="#662113" ts:skin="eyes2" r=".339" ts:gender="male"/>
	<circle cx="17.049" cy="4.777" fill="#662113" ts:skin="eyes2" r=".339" ts:gender="female"/><circle cx="19.165" cy="4.777" fill="#662113" ts:skin="eyes2" r=".339" ts:gender="female"/>
	<!-- nose -->
	<rect x="17.661" y="5.87" width="0.877" height="0.292" rx="0.146" fill="#C1694F" ts:skin="nose" ts:gender="neutral"/>
	<rect x="17.701" y="5.75" width="0.791" height="0.396" rx="0.198" fill="#C1694F" ts:skin="nose" ts:gender="male"/>
	<rect x="17.717" y="5.742" width="0.791" height="0.396" rx="0.198" fill="#C1694F" ts:skin="nose" ts:gender="female"/>
	<!-- mouth -->
	<rect x="17.434" y="6.984" width="1.325" height="0.372" rx="0.186" fill="#C1694F" ts:skin="nose" ts:gender="neutral"/>
	<rect x="17.434" y="6.612" width="1.325" height="0.372" rx="0.186" fill="#C1694F" ts:skin="nose" ts:gender="male"/>
	<path d="M18.112 7.03c-.404 0-.616-.2-.639-.223-.067-.067-.067-.176 0-.243s.174-.067.242-.002c.009.008.139.124.397.124.261 0 .391-.119.397-.124.069-.064.177-.062.242.005.065.068.065.174-.001.24-.022.023-.233.223-.638.223" fill="#DF1F32" ts:gender="female"/>
</svg>
