<svg viewBox="0 0 36 36" xmlns="http://www.w3.org/2000/svg" xmlns:ts="data:,a">
	<!-- club -->
	<path d="M12.115 3.532L9.502 2.113c-.449-.249.029-1.303.479-1.054l2.692 1.466-.558 1.007z" fill="#66757F"/>
	<!-- arms -->
	<path d="M20.357 8.932c-2.148-1.12-5.023-2.745-7.273-5.713-.235-.31-2.122.944-1.969 1.156 2.125 2.938 4.438 5.5 11.075 7.398.069.02-.943-2.376-1.833-2.841z" fill="#F9CA55" ts:skin="#EEC2AD|#E2C196|#CC9B7A|#9B6A49|#664131" ts:gender="neutral"/>
	<path d="M20.357 8.932c-2.148-1.12-5.023-2.745-7.273-5.713-.235-.31-2.122.944-1.969 1.156 2.125 2.938 4.438 5.5 11.075 7.398.069.02-.943-2.376-1.833-2.841z" fill="#FFCC4D" ts:skin="#EEC2AD|#E2C196|#CC9B7A|#9B6A49|#664131" ts:gender="male|female"/> <!-- wrong color -->
	<path d="M13.63 8.191c-.717-.828-.977-1.983-.796-3.425.592-.259 1.006-.833 1.006-1.503 0-.913-.763-1.652-1.705-1.652-.94 0-1.704.739-1.704 1.652 0 .206.044.402.115.584-.005.007-.026.004-.028.014-.871 7.123 4.099 7.824 5.732 8.055.101.014 1.768-2.244 1.666-2.244-1.993 0-3.435-.498-4.286-1.481z" fill="#FFDC5D" ts:skin="#F7DECE|#F3D2A2|#D4AB88|#AF7E57|#7C533E"/>
	<!-- front leg -->
	<path d="M19.75 18.094c-.519-2.866-5.22.469-5.22.469s-1.768 8.649-1.768 9.48c0 .828.914 4.528 1.165 5.856.084.439 2.633.614 2.523-.354-.069-.599-.517-4.492-.444-4.948.073-.458.452-2.888 1.109-4.426.47-1.1 3.328-2.249 2.635-6.077z" fill="#FFDC5D" ts:skin="#F7DECE|#F3D2A2|#D4AB88|#AF7E57|#7C533E" ts:gender="neutral,female"/>
	<!-- back leg -->
	<!-- wrong colors -->
	<path d="M23.331 31.571c-.397-.703-2.062-3.517-2.271-4.202-.208-.688-.65-5.92-.425-8.497 0 0-4.17-2.707-3.805.281.371 3.032 1.247 8.775 1.412 9.329.166.552 2.589 3.442 3.342 4.393.417.527 2.093-.693 1.747-1.304z" fill="#FFDC5D" ts:skin="#F7DECE|#F3D2A2|#D4AB88|#AF7E57|#7C533E" ts:gender="neutral"/>
	<path d="M23.331 31.571c-.397-.703-2.062-3.517-2.271-4.202-.208-.688-.65-5.92-.425-8.497 0 0-4.17-2.707-3.805.281.371 3.032 1.247 8.775 1.412 9.329.166.552 2.589 3.442 3.342 4.393.417.527 2.093-.693 1.747-1.304z" fill="#FFDC5D" ts:skin="#EEC2AD|#E2C196|#CC9B7A|#9B6A49|#664131" ts:gender="female"/>
	<!-- shoe -->
	<path d="M16.492 33.744c-.658-.864-4.719.256-6.118.957C9.44 35.17 9.717 36 9.717 36h7.033s.399-1.391-.258-2.256z" fill="#CCD6DD"/>
	<!-- pants -->
	<path d="M20.952 18.872c-.15 1.459-.079 4.396 0 6.047.037.776-3.354 2.279-3.464 1.39-.258-2.085-.748-5.292-1.016-7.156l4.48-.281z" fill="#8E9195" ts:gender="neutral"/>
	<path d="M17.407 25.676c.992-.192 2.218-.526 3.527-1.199-.014-.345-.027-.719-.038-1.12-1.334.758-2.597 1.123-3.621 1.33l.132.989z" fill="#B7C0C1" ts:gender="neutral"/>
	<path d="M19.084 26.313c-.283-2.525-.718-6.65-.761-7.178l-.996.082c.017.2.491 4.733.785 7.355.278-.028.621-.124.972-.259z M19.639,26.071 c.371-.184.712-.397.954-.607-.16-2.229-.371-5.431-.437-6.542l-.996.063c.075 1.173.317 4.856.479 7.086z" fill="#A0A7AD" ts:gender="neutral"/>
	<path d="M20.214 21.561c.649-.842 1.058-1.939.713-3.468l-7.264.55s-1.247 4.619-1.559 7.508c-.104.963 4.067 1.474 4.307.602.204-.743.476-1.583.813-2.291.318-.914 2.354-1.993 2.99-2.901z" fill="#A0A7AD" ts:gender="neutral"/>
	<path d="M19.198 22.592c.4-.332.798-.711 1.122-1.166-3.304.609-5.535-.062-7.198-.634-.061.324-.182.743-.255 1.103 1.255.419 2.721.779 4.84.779.476 0 .977-.032 1.491-.082z M16.594,26.110 c.104-.338.225-.678.354-1.01-1.907.06-3.431-.315-4.597-.645-.049.319-.135.829-.176 1.046 1.118.31 2.577.612 4.318.612l.101-.003z" fill="#CCD6DD" ts:gender="neutral"/>
	<path d="M14.2 18.73c-.046.218-1.067 5.711-1.476 8.054.269.117.604.213.962.283.377-2.18 1.368-7.533 1.493-8.132l-.979-.205z M17.688,18.546 l-.996-.092c-.001.014-.133 1.436-.312 2.322-.051.253-.123.534-.198.819-.083.312-.177.637-.28.972-.25.814-.54 1.67-.815 2.472l-.001.004c-.083.242-.434 1.317-.67 2.128.367.033.723.037 1.035.008.267-.867.652-2.019.671-2.076.276-.805.557-1.647.799-2.454.102-.342.193-.671.274-.989.059-.234.122-.472.165-.686.189-.939.322-2.368.328-2.428z M19.397,19.053 c0 .629-.265 1.913-.503 2.56-.045.121-.841 1.651-.985 1.979.359-.293.828-.617 1.298-1.008.201-.167.399-.348.59-.543.065-.167.128-.359.187-.566.238-.832.413-1.886.413-2.422h-1z" fill="#B7C0C1" ts:gender="neutral"/>
	<path d="M20.952 18.872c-.265 2.577-.003 7.809.241 8.497.247.686 2.206 3.499 2.674 4.202.407.61-2.035 2.397-2.526 1.87-.887-.95-3.271-4.407-3.466-4.959-.195-.554-.966-6.297-1.403-9.329l4.48-.281z" fill="#2A6797" ts:gender="male"/>
	<path d="M22.66 30.437c.12-.038.249-.065.374-.097-.19-.282-.388-.577-.588-.879-.118.035-.232.076-.347.116-.312-.481-.592-.917-.802-1.253.118-.035.239-.064.362-.093-.23-.378-.403-.689-.466-.862-.004-.011-.008-.033-.012-.046-.112.03-.227.055-.335.09-.102-.357-.215-.884-.319-1.505.152-.036.305-.072.464-.099-.024-.306-.045-.641-.065-.999-.186.029-.366.065-.544.106-.068-.533-.123-1.093-.156-1.649.206-.042.418-.073.635-.096-.009-.332-.014-.668-.017-1.003-.221.021-.44.045-.651.082-.001-.191.01-.466.021-.688.649-.842 1.058-1.939.713-3.468l-7.889.092s-1.107 9.026-1.107 9.857c0 .828.516 4.528.83 5.856.105.439 3.91.614 3.773-.354-.086-.599-.645-4.492-.554-4.948.086-.431.513-2.597 1.245-4.133l.064.448c.052-.059.108-.112.162-.168.055.507.123 1 .2 1.458-.051.041-.104.08-.153.123.07.461.134.871.191 1.21.059-.066.124-.126.186-.189.124.529.481 1.331.553 1.45-.086.079-.166.165-.247.249.148.243.34.541.557.868.076-.086.154-.17.236-.251.251.392.538.834.837 1.29-.073.07-.138.149-.207.222.199.282.4.562.596.827.057-.065.117-.126.177-.188.427.649.831 1.259 1.131 1.71.237.051.611-.08.999-.304-.316-.475-.825-1.242-1.358-2.053.182-.123.373-.236.574-.338.461.705.94 1.431 1.331 2.02.3-.234.561-.495.714-.733-.339-.509-.726-1.095-1.108-1.678z M18.567,25.579 c-.074-.503-.138-1.044-.184-1.593.27-.169.555-.319.86-.438.038.558.095 1.119.166 1.656-.293.109-.577.231-.842.375z M18.746,26.644 c.256-.162.527-.308.817-.429.11.628.233 1.174.357 1.575-.243.118-.474.249-.695.393-.041-.07-.347-.866-.479-1.539z M20.597,30.328 c-.304-.465-.593-.911-.84-1.297.188-.123.386-.235.594-.337.204.331.491.781.82 1.289-.2.106-.39.221-.574.345z" fill="#4289C1" ts:gender="male"/> <!-- layer has holes -->
	<path d="M19.198 22.592c.4-.332.798-.711 1.122-1.166-3.304.609-5.935-.062-7.598-.634l-.121 1.016c1.255.419 2.988.867 5.106.867.476-.001.977-.033 1.491-.083z M16.594,26.110 c.104-.338.225-.678.354-1.01-1.907.06-3.494-.274-4.66-.605-.04.349-.078.684-.113 1.006 1.118.31 2.577.612 4.318.612l.101-.003z M15.984,29.094 c-.016-.24-.02-.42-.005-.497.018-.091.055-.276.103-.5-1.668.058-3.072-.187-4.128-.437-.014.172-.024.314-.024.383 0 .14.016.368.042.648.969.218 2.188.42 3.613.42.128-.001.268-.014.399-.017z M12.225,30.764 c.048.343.1.69.152 1.028.628.08 1.348.144 2.162.144.548 0 1.138-.034 1.756-.104-.043-.322-.087-.661-.128-.994-1.566.178-2.915.071-3.942-.074z" fill="#88C9F9" ts:gender="male"/>
	<path d="M14.2 18.73c-.056.269-1.602 8.59-1.643 9.077-.015.179-.024.334-.018.431.008.139.626 5.29.705 5.892.274.061.636.102 1.024.115-.075-.569-.72-5.897-.73-6.068-.003-.05-.001-.12.004-.206.025-.393 1.485-8.301 1.638-9.036l-.98-.205z M16.691 18.454c-.001.014-.133 1.436-.312 2.322-.051.253-.123.534-.198.819-.083.312-.177.637-.28.972-.25.814-.54 1.67-.815 2.472l-.001.004c-.124.361-.853 2.598-.889 3.001-.006.071-.008.136-.005.194.011.176.641 5.411.719 6.004.363-.017.709-.062.99-.14-.075-.572-.7-5.734-.711-5.924-.001-.018.005-.052.007-.078.028-.313.895-2.911.924-2.997.276-.805.557-1.647.799-2.454.102-.342.193-.671.274-.989.059-.234.122-.472.165-.686.188-.938.321-2.367.327-2.428l-.994-.092zm2.706.599c0 .629-.265 1.913-.503 2.56-.045.121-.841 1.651-.985 1.979.359-.293.828-.617 1.298-1.008.201-.167.399-.348.59-.543.065-.167.128-.359.187-.566.238-.832.413-1.886.413-2.422h-1z" fill="#55ACEE" ts:gender="male"/>
	<path d="M20.751 18.872l-4.48.281c.237 1.643-.646 4.644 1.51 6.081 0 0 2.817-.587 4.438-.047.812.271-1.623-4.811-1.468-6.315z" fill="#BE1931" ts:gender="female"/>
	<path d="M13.937 18.562l-1.781 5.875c2.484.953 5.564.936 5.625.797.082-.187-.521-.597-.431-.767.586-1.1 4.239-2.546 3.374-6.374-.647-2.865-6.787.469-6.787.469z" fill="#DD2E44" ts:gender="female"/>
	<!-- shoe -->
	<path d="M22.887 31.456c1.5-.255 1.286 1.386 1.247 1.974-.093 1.4-.37 2.57-1.362 2.57h-3.321s-.184-1.522 1.603-1.868c.353-.069-.312-2.312 1.833-2.676z" fill="#CCD6DD"/>
	<!-- shirt -->
	<path d="M13.662 18.644s-.429-6.864 2.639-9.231c2.289-1.768 6.143-.446 7.165 1.599 1.024 2.045-2.874 3.118-2.414 8.28.092 1.019-7.39 1.356-7.39-.648z" fill="#FA743E" ts:gender="neutral"/>
	<path d="M13.038 18.185s.196-6.405 3.264-8.772c2.289-1.768 6.143-.446 7.165 1.599 1.024 2.045-2.414 3.167-2.414 8.28 0 1.023-8.015.898-8.015-1.107z" fill="#77B255" ts:gender="male"/>
	<path d="M13.937 18.562s-.685-6.782 2.383-9.149c2.289-1.768 6.143-.446 7.165 1.599 1.024 2.045-2.635 3.167-2.635 8.28.001 1.023-6.913 1.274-6.913-.73z" fill="#9266CC" ts:gender="female"/>
	<path d="M14.445 8.385c-.384 1.283-1.605 2.723-1.605 2.723 1.765 1.579 3.844 1.719 3.844 1.719s1.818-2.049 2.159-3.28c-1.551.432-4.398-1.162-4.398-1.162z" fill="#FA743E" ts:gender-color="#77B255|#9266CC"/>
	<!-- head -->
	<path d="M20.179 5.813c-.466 1.068-.788 1.977-.988 2.783.574.271 1.061 1.31 1.701 1.542 1.056.383 1.173-.277 1.197-.398.257-1.297.908-2.537 1.328-3.203.512-.809-2.646-2.084-3.238-.724z" fill="#FFDC5D" ts:skin="#F7DECE|#F3D2A2|#D4AB88|#AF7E57|#7C533E"/>
	<path d="M25.376 5.216c0 1.976-1.601 3.579-3.578 3.579-1.977 0-3.58-1.603-3.58-3.579 0-1.976 1.603-3.579 3.58-3.579 1.976 0 3.578 1.602 3.578 3.579" fill="#FFDC5D" ts:skin="#F7DECE|#F3D2A2|#D4AB88|#AF7E57|#7C533E"/>
	<!-- hair -->
	<path d="M25.376 5.605c0 2.131-1.461 2.973-2.328 3.189-.867.217-2.147-.618-2.849-1.621-.74-1.058-1.177-2.188-.124-3.2 1.053-1.011-.14-.241-.599.204-.535.519-.535 1.447-.535 1.447s-1.16-1.234-.357-2.6 4.091-.123 4.545.145c.455.269 2.247 2.436 2.247 2.436z" fill="#FFAC33" ts:skin="#292F33|#FFE51E|#963B22|#60352A|#0B0200" ts:gender="neutral"/>
	<!-- hat -->
	<path d="M19.929 5.215c-1.71-1.278-2.587-3.85-1.95-4.525 1.196-1.268 3.688-.109 4.328.983.641 1.094-1.86 3.929-2.378 3.542z" fill="#8E9195" ts:gender-color="#4289C1|#DD2E44"/>
	<path d="M18.942 3.06c0 1.151 1.674 4.486 4.971 4.473 1.727-.007 2.037-1.91 2.028-3.172-.006-1.081-1.176-2.966-2.808-3.433-1.631-.467-4.191.679-4.191 2.132z" fill="#A0A7AD" ts:gender-color="#50A5E6|#EA596E"/>
	<!-- ponytail -->
	<path d="M23.506 7.904s-.199-1.072 1.3-1.197c1.236-.103 1.563 1.248 2.458 1.731.675.364 1.447.376 1.985.013 0 0-.74.896-1.571 1.238-1.08.444-2.411.159-3.046-.181-.992-.531-1.126-1.604-1.126-1.604z" fill="#FFAC33" ts:skin="#292F33|#FFE51E|#963B22|#60352A|#0B0200" ts:gender="female"/>
	<!-- club -->
	<path d="M29.589 11.917c-.013-.006-.024-.007-.037-.012-.049-.036-.091-.076-.147-.107l-15.62-8.65c-.449-.249-.706.926-.257 1.175l14.883 8.24c-.436.748-.717 1.871-.827 2.339-.189.805 1.137 1.61 2.004 1.61.867.001 1.027-4.072.001-4.595z" fill="#66757F"/>
</svg>
