<svg viewBox="0 0 36 36" xmlns="http://www.w3.org/2000/svg" xmlns:ts="data:,a">
	<!-- back hair -->
	<use href="defs.svg#hair_neutral1" x="18" y="26" ts:skin="hair" ts:gender="neutral"/>
	<use href="defs.svg#hair_back_female_old" x="18" y="26" ts:skin="hair" ts:gender="female"/>
	<!-- body -->
	<rect x="6" y="28" width="24" height="8" fill="#DD551F" ts:gender-color="#2A6797,#7450A8"/>
	<!-- face -->
	<use href="defs.svg#face_neutral1" x="18" y="26" ts:skin="skin" ts:gender="neutral"/>
	<use href="defs.svg#face_male_old" x="18" y="26" ts:skin="skin" ts:gender="male"/>
	<use href="defs.svg#face_female_old" x="18" y="26" ts:skin="skin" ts:gender="female"/>
	<!-- hair -->
	<use href="defs.svg#hair_male2" x="18" y="0.823" ts:skin="hair" ts:gender="male"/>
	<!-- eyes -->
	<use href="defs.svg#eyes_male" x="18" y="14.5" ts:skin="eyes"/>
	<!-- nose -->
	<use href="defs.svg#nose_neutral1" x="18" y="19" ts:skin="nose"/>
	<!-- mouth -->
	<path d="M14 22h8s-1 2-4 2-4-2-4-2z" ts:skin="mouth" ts:gender="male"/> <!-- oops? should these all be the circle mouth? -->
	<circle cx="18" cy="22" r="1" ts:skin="mouth" ts:gender="female"/>
	<!-- hands -->
	<path d="M3.195 18.025c.263-.484.776-.74 1.268-.694.034-.064 7.084 2.942 7.084 2.942l-1.268 1.547c-.7.854-1.907 1.023-2.696.376l-1.677-1.375-2.26-1.137c-.586-.297-.788-1.039-.451-1.659z" ts:skin="dark"/>
	<path d="M32.752 18.025c-.263-.484-.776-.74-1.268-.694-.034-.064-7.084 2.942-7.084 2.942l1.268 1.547c.7.854 1.907 1.023 2.696.376l1.677-1.375 2.26-1.137c.586-.297.788-1.039.451-1.659z" ts:skin="dark"/>
	<path d="M.365 14.985c-.35.427-.315 1.035.08 1.359l4.917 2.738 3.569 2.926c.395.323.998.239 1.348-.188l1.268-1.547-1.428-1.17-3.223-1.893-5.183-2.413c-.001 0-.998-.239-1.348.188z" ts:skin="skin"/>
	<path d="M35.582 14.985c.35.427.315 1.035-.08 1.359l-4.917 2.738-3.569 2.926c-.395.323-.998.239-1.348-.188L24.4 20.273l1.428-1.17 3.223-1.892 5.183-2.413c0-.001.998-.24 1.348.187z" ts:skin="skin"/>
	<!-- arms -->
	<path d="M9.52 18.438s19.597 8.657 20.108 8.884c1.19.529 3.154 1.7 3.154 3.678l-.351 4.75c0 .138-.112.25-.25.25h-3.323c-.05 0-.098-.015-.139-.043L9.279 22.898c-.069-.046-.111-.124-.111-.207v-4.025c.001-.181.186-.302.352-.228z" fill="#FA743E" ts:gender-color="#4289C1,#9268CA"/>
	<path d="M18.226 22.266l-.779-.324-6.462 2.109 1.482 1.031z M23.429,24.582 l1.007.445-5.175 4.594-3.821-.025z" fill="#DD551F" ts:gender-color="#2A6797,#7450A8"/>
	<path d="M26.427 18.438S6.83 27.095 6.319 27.322c-1.19.529-3.154 1.7-3.154 3.678l.351 4.75c0 .138.112.25.25.25h3.323c.05 0 .098-.015.139-.043l19.439-13.059c.069-.046.111-.124.111-.207v-4.025c0-.181-.186-.302-.351-.228z" fill="#FA743E" ts:gender-color="#4289C1,#9268CA"/>
</svg>
