<svg viewBox="0 0 36 36" xmlns="http://www.w3.org/2000/svg" xmlns:ts="data:,a">
	<!-- back hair -->
	<use href="defs.svg#hair_neutral1" x="18" y="26" ts:skin="hair" ts:gender="neutral"/>
	<use href="defs.svg#hair_back_female_old" x="18" y="26" ts:skin="hair" ts:gender="female"/>
	<!-- head -->
	<use href="defs.svg#face_neutral1" x="18" y="26" ts:skin="skin" ts:gender="neutral"/>
	<use href="defs.svg#face_male_old" x="18" y="26" ts:skin="skin" ts:gender="male"/>
	<use href="defs.svg#face_female_old" x="18" y="26" ts:skin="skin" ts:gender="female"/>
	<!-- hair -->
	<use href="defs.svg#hair_male2" x="18" y="0.823" ts:skin="hair" ts:gender="male"/>
	<!-- body/arms -->
	<path d="M32 6.625L29 5l-2 1.625s3 7.25 3 11.125S26.5 27 26.5 27h-17S6 21.625 6 17.75 9 6.625 9 6.625L7 5 4 6.625S0 13.75 0 17.75 5.5 36 5.5 36h25S36 21.75 36 17.75 32 6.625 32 6.625z" fill="#FA743E" ts:gender="neutral"/>
	<path d="M32 6.625L29 5l-2 1.625s3 7.25 3 11.125-3.999 9.249-4 9.25H10c-.001-.001-4-5.375-4-9.25S9 6.625 9 6.625L7 5 4 6.625S0 13.75 0 17.75 5 36 5 36h26s5-14.25 5-18.25-4-11.125-4-11.125z" fill="#4289C1" ts:gender="male"/>
	<path d="M32 6.625L29 5l-2 1.625s3 7.25 3 11.125S27 27 27 27H9s-3-5.375-3-9.25S9 6.625 9 6.625L7 5 4 6.625S0 13.75 0 17.75 6 36 6 36h24s6-14.25 6-18.25-4-11.125-4-11.125z" fill="#9268CA" ts:gender="female"/>
	<!-- hands -->
	<path d="M19.240,2.396 c.042-.521.593-.727 1.146-.708 0 0 5.456.311 7.521 1.271C30.522 4.174 32 6.625 32 6.625h-5S25.917 5.104 25.062 4.5c-.881-.623-4.222-1.215-4.719-1.312s-1.145-.271-1.103-.792z M16.760,2.396 c-.042-.521-.593-.727-1.146-.708 0 0-5.456.311-7.521 1.271C5.478 4.174 4 6.625 4 6.625h5s1.083-1.521 1.938-2.125c.881-.623 4.222-1.215 4.719-1.312.496-.098 1.145-.271 1.103-.792z" ts:skin="skin"/>
	<!-- neck -->
	<use href="defs.svg#neck_old" x="18" y="31" ts:skin="skin"/>
	<!-- eyes -->
	<use href="defs.svg#eyes_male" x="18" y="14.5" ts:skin="eyes2"/>
	<!-- nose -->
	<use href="defs.svg#nose_neutral1" x="18" y="19" ts:skin="nose"/>
	<!-- mouth -->
	<use href="defs.svg#mouth_smile_old" x="18" y="23" ts:skin="mouth" ts:gender="neutral,female"/>
	<use href="defs.svg#mouth_smile_old" x="18" y="24" ts:skin="mouth" ts:gender="male"/>
</svg>
