<svg viewBox="0 0 36 36" xmlns="http://www.w3.org/2000/svg" xmlns:ts="data:,a">
	<!-- back hair -->
	<use href="defs.svg#hair_neutral" transform="translate(21.906 1.262) scale(1.049)" ts:skin="hair" ts:gender="neutral"/>
	<use href="defs.svg#hair_back_female_old" x="18" y="26" ts:skin="hair" ts:gender="female"/>
	<!-- body -->
	<path d="M27 27H10v9h21v-5c0-2.209-1.791-4-4-4z" fill="#FA743E" ts:gender-color="#4289C1,#9268CA"/>
	<rect x="26" y="32" width="1" height="4" fill="#DD551F" ts:gender-color="#2A6797,#7450A8"/>
	<!-- neck -->
	<use href="defs.svg#neck_old" x="18" y="31" ts:skin="skin"/>
	<!-- head -->
	<use href="defs.svg#face_neutral1" x="18" y="26" ts:skin="skin" ts:gender="neutral"/>
	<use href="defs.svg#face_male_old" x="18" y="26" ts:skin="skin" ts:gender="male"/>
	<use href="defs.svg#face_female_old" x="18" y="26" ts:skin="skin" ts:gender="female"/>
	<!-- hair hack -->
	<path d="M12.737 5.97h2.75v3.89h-2.75z" ts:skin="hair" ts:gender="neutral"/>
	<path d="M18 .823c-7.019 0-10.139 4.684-10.139 8.588 0 3.903 1.343 4.986 1.56 3.903.78-3.903 3.12-5.101 3.12-5.101 4.68 3.904 3.9.781 3.9.781 4.679 4.684 2.34 0 2.34 0 1.56 1.562 6.239 1.562 6.239 1.562s.78 1.198 1.559 2.759c.78 1.562 1.56 0 1.56-3.903 0-3.905-3.9-8.589-10.139-8.589z" ts:skin="hair" ts:gender="male"/>
	<path d="M12.252 4.589h4.01v4.703h-4.01z" ts:skin="hair" ts:gender="female"/>
	<!-- eye -->
	<path d="M 24.087,16.655 c -0.084,0.068,-0.203,0.07 -0.292,0.005 -0.014,-0.01,-0.612,-0.432 -1.774,-0.432 s -1.76,0.422 -1.774,0.432 c -0.089,0.065,-0.209,0.063 -0.293,-0.005 s -0.113,-0.184 -0.069,-0.283 c 0.029,-0.065,0.719,-1.58 2.136,-1.58 s 2.107,1.515 2.136,1.58 c 0.044,0.099,0.014,0.216 -0.07,0.283 z" ts:skin="eyes"/>
	<!-- mouth -->
	<path d="M14.995,23.364 s 1 -2 3 -2 s 3,2 3,2 h-6 z" ts:skin="nose" ts:gender="neutral,male"/>
	<path d="M14.995,23.364 s 1 -2 3 -2 s 3,2 3,2 h-6 z" ts:skin="mouth" ts:gender="female"/>
	<!-- shadow -->
	<path d="M18.734 18.386l1.827.691s-6.529 13.746-7.413 15.022c-.884 1.276-1.87 2.055-4.57 1.76l10.156-17.473z M13.513 7.846c.945-.291 1.598.508 1.77 1.195l.284 1.14.756-2.155c.366-1.042 1.507-1.591 2.549-1.225l3.774 1.324c1.042.366 1.591 1.507 1.225 2.549l-2.648 7.549s-.331.944-1.275.613l-5.662-1.986-.613-1.275.345-.984-1.226-4.929c-.17-.688.044-1.607.721-1.816z" fill="#0000003B"/>
	<!-- alternate method: static color for shadow on clothing (hidden unused layer i found) + transparency shadow on skin: <path d="M18.734 18.386l-1.9 3.234-1.024 1.744-1.16 1.974L15 28c0 .594.178 1.144.476 1.61.98-1.986 2.097-4.295 3.035-6.246l.807-1.681c.741-1.547 1.244-2.606 1.244-2.606l-1.828-.691z" fill="#0000003B"/>
	<path d="M14.984 28.391s-2.359 4.422-2.865 5.335c-.276.497-1.305 2.009-2.322 2.009 0 0 2.214.122 3.122-1.682 1.285-2.552 1.956-3.787 2.425-4.646 0 0-.125-.328-.203-.484-.118-.235-.157-.532-.157-.532z" fill="#DD551F" ts:gender-color="#2A6797,#7450A8"/>-->
	<!-- hand -->
	<path d="M12.513 7.657c.687-.171 1.383.248 1.555.934l.284 1.14.756-2.155c.366-1.042 1.507-1.591 2.549-1.225l3.774 1.324c1.042.366 1.591 1.507 1.225 2.549l-2.648 7.549s-.331.944-1.275.613L13.072 16.4l-.613-1.275.345-.984-1.226-4.929c-.171-.688.248-1.385.935-1.555z" ts:skin="skin"/>
	<path d="M 18.743,12.054 l 1.661,-4.737 0.946,0.333 -1.663,4.735 -0.944,-0.331 z M 15.913,11.061 l 1.662,-4.736 0.943,0.330 -1.661,4.737 -0.944,-0.331 z" ts:skin="line"/>
	<!-- arm -->
	<path d="M14.278 29.85s-1.719 3.579-2.107 4.416C11.484 35.75 10 36 10 36c-8 0-3.622-8.343-3.622-8.343l6.432-11.846 6.541 2.58-5.073 11.459z" fill="#FA743E" ts:gender-color="#4289C1,#9268CA"/>
</svg>
