<svg viewBox="0 0 36 36" xmlns="http://www.w3.org/2000/svg" xmlns:ts="data:,a">
	<!-- back hair -->
	<path d="M34.986 20.5c.612-.456 1.014-1.178 1.014-2 0-1.078-.687-1.989-1.644-2.34.396-.442.644-1.02.644-1.66 0-1.381-1.119-2.5-2.5-2.5l-.012.001c.317-.419.512-.935.512-1.501C33 9.119 31.881 8 30.5 8c-.619 0-1.177.233-1.614.605C26.106 5.213 22.196 3 18 3 13.706 3 9.711 5.031 6.921 8.446 6.517 8.166 6.029 8 5.5 8 4.119 8 3 9.119 3 10.5c0 .566.195 1.082.512 1.501L3.5 12C2.119 12 1 13.119 1 14.5c0 .64.248 1.218.644 1.66C.687 16.511 0 17.422 0 18.5c0 .822.402 1.544 1.014 2C.402 20.956 0 21.678 0 22.5c0 1.078.687 1.989 1.644 2.34C1.248 25.282 1 25.86 1 26.5c0 1.231.892 2.249 2.063 2.456-.039.176-.063.357-.063.544C3 30.881 4.119 32 5.5 32c.64 0 1.218-.248 1.66-.644C7.511 32.313 8.422 33 9.5 33c.64 0 1.218-.248 1.66-.644.351.957 1.262 1.644 2.34 1.644 1.229 0 2.245-.888 2.455-2.056.673.034 1.353.056 2.045.056.691 0 1.37-.031 2.043-.078C20.244 33.101 21.264 34 22.5 34c1.078 0 1.989-.687 2.34-1.644.442.396 1.02.644 1.66.644 1.078 0 1.989-.687 2.34-1.644.442.396 1.02.644 1.66.644 1.381 0 2.5-1.119 2.5-2.5 0-.187-.024-.368-.063-.544C34.108 28.749 35 27.731 35 26.5c0-.64-.248-1.218-.644-1.66.957-.351 1.644-1.262 1.644-2.34 0-.822-.402-1.544-1.014-2z" fill="#FFAC33" ts:skin="#292F33|#FFE51E|#963B22|#60352A|#0B0200" ts:gender="female"/>
	<!-- head -->
	<path d="M32 19.886c0-2.209-1.119-4-2.5-4-.012 0-.021.005-.033.005C27.955 9.59 23.394 5.011 18 5.011s-9.956 4.58-11.467 10.88c-.012-.001-.022-.005-.033-.005-1.381 0-2.5 1.791-2.5 4 0 2.107 1.021 3.815 2.314 3.97 1.223 6.649 5.985 10.53 11.686 10.53 5.7 0 10.463-3.881 11.685-10.53 1.294-.155 2.315-1.863 2.315-3.97z" fill="#FFDC5D" ts:skin="#F7DECE|#F3D2A2|#D4AB88|#AF7E57|#7C533E" ts:gender="neutral"/>
	<path d="M32 20c0-2.209-1.119-4-2.5-4-.012 0-.021.005-.033.005C27.955 9.704 23.394 5.125 18 5.125s-9.956 4.58-11.467 10.88C6.521 16.004 6.511 16 6.5 16 5.119 16 4 17.791 4 20c0 2.107 1.021 3.815 2.314 3.97C7.537 30.619 12.299 35 18 35c5.7 0 10.463-4.381 11.685-11.03C30.979 23.815 32 22.107 32 20z" fill="#FFDC5D" ts:skin="#F6DDCD|#F3D2A2|#D5AB88|#AF7E57|#7C533E" ts:gender="male"/>
	<path d="M6 18.562c0-8.526 5.373-15.438 12-15.438s12 6.912 12 15.438S24.627 34 18 34 6 27.088 6 18.562z" fill="#FFDC5D" ts:skin="#F7DECE|#F3D2A2|#D5AB88|#AF7E57|#7C533E" ts:gender="female"/>
	<!-- hair -->
	<path d="M33 12.65c0-.891-.469-1.667-1.171-2.11.106-.277.171-.575.171-.89 0-1.276-.959-2.316-2.193-2.469.118-.323.193-.667.193-1.031 0-1.657-1.343-3-3-3-.395 0-.77.081-1.115.22-.346-1.276-1.5-2.22-2.885-2.22-.87 0-1.646.376-2.194.967C20.384.971 19.292.15 18 .15s-2.384.821-2.806 1.967C14.646 1.526 13.87 1.15 13 1.15c-1.385 0-2.539.944-2.884 2.22-.346-.139-.721-.22-1.116-.22-1.657 0-3 1.343-3 3 0 .364.075.708.193 1.031C4.959 7.334 4 8.374 4 9.65c0 .315.065.613.171.89C3.469 10.983 3 11.759 3 12.65c0 .878.455 1.648 1.141 2.094-.613.992-.479 2.596 1.08 2.774-.089 1.381 1.254 2.515 1.337.535.045-1.069.367-2.436 1.114-3.965 1.189.403 2.673.223 3.876-.134s2.29-1.004 2.538-1.189c.378 1.362 1.986 2.385 3.914 2.385 1.296 0 2.798-.346 3.528-1.063.476 1.259 2.179 1.96 4.01 1.96 1.076 0 2.534-.417 3.252-.936.287.792.551 1.387.535 2.584-.031 2.348 1.025 1.464 1.47-.134 1.421.009 1.693-1.738 1.065-2.819.685-.444 1.14-1.214 1.14-2.092z" fill="#FFAC33" ts:skin="#292F33|#FFE51E|#963B22|#60352A|#0B0200" ts:gender="neutral"/>
	<path d="M33 12.65c0-.891-.469-1.667-1.171-2.11.106-.277.171-.575.171-.89 0-1.276-.959-2.316-2.193-2.469.118-.323.193-.667.193-1.031 0-1.657-1.343-3-3-3-.395 0-.77.081-1.115.22-.346-1.276-1.5-2.22-2.885-2.22-.87 0-1.646.376-2.194.967C20.384.971 19.292.15 18 .15s-2.384.821-2.806 1.967C14.646 1.526 13.87 1.15 13 1.15c-1.385 0-2.539.944-2.884 2.22-.346-.139-.721-.22-1.116-.22-1.657 0-3 1.343-3 3 0 .364.075.708.193 1.031C4.959 7.334 4 8.374 4 9.65c0 .315.065.613.171.89C3.469 10.983 3 11.759 3 12.65c0 .878.455 1.648 1.141 2.094-.088.281-.141.585-.141.906 0 1.381.895 2.5 2 2.5.327 0 .63-.107.903-.281C7.347 19.312 8 20.132 8 18.15c0-1.585.013-2.552.76-4.081 1.189.403 2.908.159 4.533-.779.282-.163.545-.34.793-.525.378 1.362 1.986 2.385 3.914 2.385 1.296 0 2.437-.47 3.167-1.187.476 1.259 2.002 2.187 3.833 2.187 1.076 0 2.049-.322 2.767-.841.262.914.272 1.723.272 2.841 0 2.348.674 1.358 1.119-.24.256.15.54.24.842.24 1.105 0 2-1.119 2-2.5 0-.321-.053-.625-.14-.906.685-.446 1.14-1.216 1.14-2.094z" fill="#FFAC33" ts:skin="#292F33|#FFE51E|#963B22|#60352A|#0B0200" ts:gender="male"/>
	<path d="M29.811 9.377C30.529 8.829 31 7.973 31 7c0-1.657-1.343-3-3-3-.395 0-.77.081-1.116.22C26.539 2.944 25.385 2 24 2c-.537 0-1.034.153-1.47.4C21.998 1.561 21.067 1 20 1c-.772 0-1.468.3-2 .779C17.468 1.3 16.772 1 16 1c-1.067 0-1.998.561-2.53 1.4-.436-.247-.933-.4-1.47-.4-1.385 0-2.539.944-2.884 2.22C8.77 4.081 8.395 4 8 4 6.343 4 5 5.343 5 7c0 1.04.529 1.955 1.333 2.493-1.26 1.834-2.051 3.661-2.458 4.882-1.125 3.375 2.827 11.418 2.437 7.437-.468-4.788 1.236-8.915 4.704-10.166C11.107 13.51 12.848 15 15 15c1.242 0 2.339-.506 3.072-1.284C18.411 15.582 20.036 17 22 17c1.275 0 2.397-.608 3.13-1.537C25.49 16.925 26.632 18 28 18c1.657 0 3-1.567 3-3.5 0-.318-.048-.621-.116-.914.069-.177.116-.368.116-.586 0-.932-.387-2.249-1.189-3.623z" fill="#FFAC33" ts:skin="#292F33|#FFE51E|#963B22|#60352A|#0B0200" ts:gender="female"/>
	<!-- eyes -->
	<path d="M13 22c-.552 0-1-.447-1-1v-2c0-.552.448-1 1-1s1 .448 1 1v2c0 .553-.448 1-1 1z M23,22 c-.553 0-1-.447-1-1v-2c0-.552.447-1 1-1s1 .448 1 1v2c0 .553-.447 1-1 1z" fill="#662113" ts:skin="#662113|#662113|#662113|#662113|#000000" ts:gender="neutral,female"/>
	<path d="M13 21c-.552 0-1-.447-1-1v-2c0-.552.448-1 1-1s1 .448 1 1v2c0 .553-.448 1-1 1z M23,21 c-.553 0-1-.447-1-1v-2c0-.552.447-1 1-1s1 .448 1 1v2c0 .553-.447 1-1 1z" fill="#662113" ts:skin="#662113|#662113|#662113|#60352A|#000000" ts:gender="male"/>
	<!-- nose -->
	<path d="M19,26 h-2c-.552 0-1-.447-1-1s.448-1 1-1h2c.553 0 1 .447 1 1s-.447 1-1 1z" fill="#C1694F" ts:skin="#C1694F|#C1694F|#C1694F|#915A34|#3D2E24" ts:gender="neutral,male"/>
	<path d="M19 25h-2c-.552 0-1-.447-1-1s.448-1 1-1h2c.553 0 1 .447 1 1s-.447 1-1 1z" fill="#C1694F" ts:skin="#C1694F|#C1694F|#C1694F|#915A34|#3D2E24" ts:gender="female"/>
	<!-- mouth -->
	<path d="M18 31c-2.347 0-3.575-1.16-3.707-1.293-.391-.391-.391-1.023 0-1.414.387-.387 1.013-.39 1.404-.01.051.047.806.717 2.303.717 1.519 0 2.273-.69 2.305-.719.398-.373 1.027-.362 1.408.029.379.393.38 1.011-.006 1.397C21.575 29.84 20.347 31 18 31z" fill="#C1694F" ts:skin="#C1694F|#C1694F|#C1694F|#915A34|#3D2E24" ts:gender="neutral"/>
	<path d="M18 31c-4.201 0-5.491-1.077-5.707-1.293-.391-.391-.391-1.023 0-1.414.378-.379.984-.39 1.376-.036.08.058 1.1.743 4.331.743 3.355 0 4.326-.739 4.336-.747.39-.389 1.001-.37 1.393.021.391.391.369 1.043-.021 1.434C23.491 29.923 22.201 31 18 31z" fill="#C1694F" ts:skin="#C1694F|#C1694F|#C1694F|#915A34|#3D2E24" ts:gender="male"/>
	<path d="M18 30c-2.347 0-3.575-1.16-3.707-1.293-.391-.391-.391-1.023 0-1.414.387-.387 1.013-.39 1.404-.01.051.047.806.717 2.303.717 1.519 0 2.273-.69 2.305-.719.398-.373 1.027-.362 1.408.029.379.393.38 1.011-.006 1.397C21.575 28.84 20.347 30 18 30z" fill="#DF1F32" ts:gender="female"/>
</svg>
