<svg viewBox="0 0 36 36" xmlns="http://www.w3.org/2000/svg" xmlns:ts="data:,a">
	<!-- back hair -->
	<use href="defs.svg#hair_neutral1" x="18" y="26" ts:skin="hair" ts:gender="neutral"/>
	<use href="defs.svg#hair_back_female_old" x="18" y="26" ts:skin="hair" ts:gender="female"/> <!-- wrong color in original !! -->
	<!-- body -->
	<use href="defs.svg#shoulders_simple" x="18" fill="#FA743E" ts:gender-color="#4289C1,#9268CA"/>
	<rect x="9" y="32" width="1" height="4" fill="#DD551F" ts:gender-color="#2A6797,#7450A8"/>
	<rect x="26" y="32" width="1" height="4" fill="#DD551F" ts:gender-color="#2A6797,#7450A8"/>
	
	<!-- neck -->
	<use href="defs.svg#neck_old" x="18" y="31" ts:skin="skin"/>
	<!-- face -->
	<use href="defs.svg#face_neutral1" x="18" y="26" ts:skin="skin" ts:gender="neutral"/>
	<use href="defs.svg#face_male_old" x="18" y="26" ts:skin="skin" ts:gender="male"/>
	<use href="defs.svg#face_female_old" x="18" y="26" ts:skin="skin" ts:gender="female"/>
	<!-- hair -->
	<use href="defs.svg#hair_male2" x="18" y="0.823" ts:skin="hair" ts:gender="male"/>
	
	<!-- eyes -->
	<path d="M 23.906,15.056 c 0.089,0.071 0.119,0.192 0.073,0.296 c -0.03,0.067 -0.75,1.648 -2.229,1.648 c -1.478,0 -2.199,-1.581 -2.229,-1.649 c -0.046,-0.104 -0.016,-0.226 0.073,-0.297 s 0.215,-0.072 0.306,-0.004 c 0.005,0.004 0.63,0.45 1.85,0.45 c 1.221,0 1.845,-0.446 1.851,-0.451 c 0.092,-0.067 0.217,-0.064 0.305,0.007 Z" ts:skin="eyes"/>
	<path d="M 16.406,15.056 c 0.089,0.071 0.118,0.192 0.073,0.296 c -0.03,0.067 -0.75,1.648 -2.229,1.648 c -1.478,0 -2.199,-1.581 -2.229,-1.649 c -0.046,-0.104 -0.016,-0.226 0.073,-0.297 s 0.215,-0.072 0.306,-0.004 c 0.005,0.004 0.63,0.45 1.85,0.45 c 1.221,0 1.845,-0.446 1.851,-0.451 c 0.092,-0.067 0.217,-0.064 0.305,0.007 Z" ts:skin="eyes"/>
	<!-- nose -->
	<use href="defs.svg#nose_neutral1" x="18" y="19" ts:skin="nose"/>
	<!-- mouth -->
	<ellipse cx="18.001" cy="22" rx="2" ry="1" ts:skin="nose" ts:gender="neutral,male"/>
	<ellipse cx="18.001" cy="22" rx="2" ry="1" ts:skin="mouth" ts:gender="female"/>
	
	<!-- hand shadows -->
	<path d="M 14.504,3.729 c 0.706,0.042 1.246,0.647 1.206,1.352 c -0.039,0.707 -0.646,1.247 -1.352,1.206 l -4.189,-0.239 l -1.671,2.361 c -0.28,0.395 -0.791,0.808 -1.351,1.101 l 0.313,6.42 s 0.168,0.985 -0.817,1.154 c -0.986,0.168 -1.154,-0.817 -1.154,-0.817 l -0.494,-2.891 c 0.733,-1.323 -0.22,-4.586 0.006,-6.339 c 0.343,-2.66 4.087,-3.02 6.327,-4.057 l 0.098,0.572 l 3.078,0.177 Z" ts:skin="line" ts:gender="neutral"/>
	<path d="M 24.756,2.487 c 3.006,1.612 5.744,4.129 6.931,6.906 l -1.176,6.876 s -0.169,0.985 -1.154,0.817 c -0.986,-0.169 -0.817,-1.154 -0.817,-1.154 l 0.313,-6.42 c -0.559,-0.293 -1.071,-0.706 -1.351,-1.101 l -1.671,-2.361 l -4.189,0.239 c -0.706,0.04 -1.312,-0.5 -1.352,-1.206 c -0.04,-0.707 0.5,-1.312 1.206,-1.354 l 3.078,-0.177 l 0.182,-1.065 Z" ts:skin="line" ts:gender="neutral"/>
	<path d="M 7.387,4.397 l 1.953,-1.953 l 0.525,0.619 l 3.5,-1.396 v 1.705 l 2.63,0.607 c 0.603,0.141 0.98,0.743 0.841,1.347 c -0.138,0.604 -0.742,0.98 -1.345,0.841 l -3.579,-0.825 l -1.79,1.791 c -0.3,0.3 -0.802,0.581 -1.329,0.751 l -0.678,5.586 s 0,0.875 -0.875,0.875 s -0.875,-0.875 -0.875,-0.875 v -7 l 1.022,-2.073 Z" ts:skin="line" ts:gender="male"/> <!-- wrong color in original -->
	<path d="M 28.613,4.397 l 1.022,2.073 v 7 s 0,0.875 -0.875,0.875 s -0.875,-0.875 -0.875,-0.875 l -0.678,-5.586 c -0.527,-0.17 -1.029,-0.451 -1.329,-0.751 l -1.79,-1.791 l -3.579,0.825 c -0.603,0.139 -1.207,-0.237 -1.345,-0.841 c -0.139,-0.604 0.238,-1.206 0.841,-1.347 l 2.63,-0.607 v -1.58 l 3.5,1.271 l 0.525,-0.619 l 1.953,1.953 Z" ts:skin="line" ts:gender="male"/> <!-- wrong color ? -->
	<path d="M 5.561,5.032 l 5.189,-3.823 l 1.638,-0.188 v 2.839 l 3.004,0.693 c 0.689,0.161 1.119,0.849 0.96,1.538 c -0.158,0.689 -0.847,1.119 -1.536,0.96 l -4.087,-0.941 l -2.045,2.045 c -0.342,0.343 -0.916,0.663 -1.517,0.858 l -0.774,6.38 s 0,0.999 -0.999,0.999 s -0.999,-0.999 -0.999,-0.999 v -7.995 l 1.166,-2.366 Z" ts:skin="line" ts:gender="female"/> <!-- wrong color ? -->
	<path d="M 30.44,5.032 l 1.167,2.366 v 7.994 s 0,0.999 -0.999,0.999 s -0.999,-0.999 -0.999,-0.999 l -0.774,-6.38 c -0.602,-0.195 -1.175,-0.515 -1.518,-0.858 l -2.045,-2.045 l -4.088,0.942 c -0.689,0.159 -1.378,-0.271 -1.536,-0.96 c -0.159,-0.689 0.271,-1.377 0.96,-1.538 l 3.004,-0.693 v -2.839 l 0.982,0.417 l 5.846,3.594 Z" ts:skin="line" ts:gender="female"/> <!-- wrong color ? -->
	<!-- hands -->
	<path d="M 4.44,5.537 l 1.823,-2.575 l 0.185,-2.962 h 3.865 l 0.663,3.231 l 3.074,0.177 c 0.706,0.043 1.246,0.648 1.206,1.354 s -0.646,1.246 -1.352,1.206 l -4.188,-0.239 l -1.671,2.36 c -0.28,0.395 -0.792,0.808 -1.351,1.101 l 0.313,6.42 s 0.168,0.985 -0.817,1.154 s -1.154,-0.817 -1.154,-0.817 l -1.348,-7.88 l 0.752,-2.53 Z" ts:skin="skin" ts:gender="neutral"/>
	<path d="M 31.56,5.537 l 0.753,2.53 l -1.348,7.881 s -0.169,0.986 -1.154,0.817 s -0.817,-1.154 -0.817,-1.154 l 0.313,-6.42 c -0.559,-0.293 -1.071,-0.706 -1.351,-1.101 l -1.671,-2.361 l -4.189,0.239 c -0.706,0.04 -1.312,-0.5 -1.352,-1.206 s 0.5,-1.311 1.206,-1.354 l 3.074,-0.177 l 0.663,-3.231 h 3.865 l 0.185,2.962 l 1.823,2.575 Z" ts:skin="skin" ts:gender="neutral"/>
	<path d="M 7.043,4.053 l 1.953,-1.953 l 0.525,-2.1 h 3.5 v 3.027 l 2.63,0.607 c 0.603,0.141 0.98,0.743 0.841,1.347 c -0.138,0.604 -0.742,0.98 -1.345,0.841 l -3.579,-0.825 l -1.79,1.791 c -0.3,0.3 -0.802,0.581 -1.329,0.751 l -0.678,5.586 s 0,0.875 -0.875,0.875 s -0.875,-0.875 -0.875,-0.875 v -7 l 1.022,-2.072 Z" ts:skin="skin" ts:gender="male"/>
	<path d="M 28.957,4.053 l 1.022,2.072 v 7 s 0,0.875 -0.875,0.875 s -0.875,-0.875 -0.875,-0.875 l -0.678,-5.586 c -0.527,-0.17 -1.029,-0.451 -1.329,-0.751 l -1.79,-1.791 l -3.579,0.825 c -0.603,0.139 -1.207,-0.237 -1.345,-0.841 c -0.139,-0.604 0.238,-1.206 0.841,-1.347 l 2.63,-0.607 v -3.027 h 3.5 l 0.525,2.1 l 1.953,1.953 Z" ts:skin="skin" ts:gender="male"/>
	<path d="M 5.169,4.639 l 2.231,-2.231 l 0.599,-2.408 h 4.001 v 3.468 l 3,0.693 c 0.689,0.161 1.119,0.849 0.96,1.538 c -0.158,0.689 -0.847,1.119 -1.536,0.96 l -4.088,-0.942 l -2.044,2.045 c -0.343,0.343 -0.917,0.664 -1.518,0.858 l -0.774,6.381 s 0,0.999 -0.999,0.999 s -0.999,-0.999 -0.999,-0.999 v -7.996 l 1.167,-2.366 Z" ts:skin="skin" ts:gender="female"/>
	<path d="M 30.833,4.639 l 1.167,2.366 v 7.996 s 0,0.999 -0.999,0.997 c -0.999,0 -0.999,-0.999 -0.999,-0.999 l -0.774,-6.38 c -0.602,-0.195 -1.175,-0.515 -1.518,-0.858 l -2.045,-2.045 l -4.088,0.942 c -0.689,0.159 -1.378,-0.271 -1.536,-0.96 c -0.159,-0.689 0.271,-1.377 0.96,-1.538 l 3.003,-0.692 v -3.468 h 3.998 l 0.6,2.408 l 2.231,2.231 Z" ts:skin="skin" ts:gender="female"/> <!-- so many 0.999s.. -->
</svg>
