<svg viewBox="0 0 36 36" xmlns="http://www.w3.org/2000/svg" xmlns:ts="data:,a">
	<!-- the paths in this need some cleanup work -->
	<path d="M21.906 1.262c-2.02-.654-6.772-.475-7.96 1.069-3.089.059-6.713 2.851-7.188 6.535-.47 3.645.578 5.338.951 8.079.422 3.106 2.168 4.099 3.564 4.515C13.281 24.114 15.415 24 19 24c7 0 10.334-4.684 10.629-12.639.178-4.812-2.645-8.456-7.723-10.099z" fill="#FFAC33" ts:skin="hair" ts:gender="neutral"/>
	<path d="M19 0c-1.721 0-3.343.406-4.793 1.111C13.814 1.043 13.412 1 13 1 9.134 1 6 4.134 6 8v12h.018C6.201 26.467 11.489 31.656 18 31.656S29.799 26.467 29.982 20H30v-9c0-6.075-4.925-11-11-11z" fill="#FFAC33" ts:skin="hair" ts:gender="female"/>
	<path d="M27 27H10v9h21v-5c0-2.209-1.791-4-4-4z" fill="#FA743E" ts:gender-color="#4289C1,#9268CA"/>
	<path d="M15 22v6c0 1.657 1.343 3 3 3s3-1.343 3-3v-6h-6z" fill="#FFDC5D" ts:skin="skin" ts:gender="neutral,male"/>
	<path d="M25.909 11.701c-.677-.938-1.545-1.693-3.446-1.96.713.327 1.396 1.455 1.485 2.079.089.624.178 1.129-.386.505-2.26-2.499-4.722-1.515-7.162-3.041-1.704-1.066-2.223-2.246-2.223-2.246s-.208 1.574-2.792 3.178c-.749.465-1.643 1.5-2.139 3.03C8.889 14.345 9 15.325 9 17c0 4.889 4.029 9 9 9s9-4.147 9-9c0-3.041-.319-4.229-1.091-5.299z" fill="#FFDC5D" ts:skin="skin" ts:gender="neutral"/>
	<path d="M9 5.938V17c0 4.971 4.029 9 9 9s9-4.029 9-9V6.25L9 5.938z" fill="#FFDC5D" ts:skin="skin" ts:gender="male"/>
	<!-- ears -->
	<path d="M10.847 13.715c0 1.58-.8 2.861-1.788 2.861s-1.788-1.281-1.788-2.861c0-1.58.801-2.861 1.788-2.861s1.788 1.281 1.788 2.861z M28.72900000,13.71500000 c0 1.58-.8 2.861-1.788 2.861s-1.788-1.281-1.788-2.861c0-1.58.8-2.861 1.788-2.861s1.788 1.281 1.788 2.861z" fill="#FFDC5D" ts:skin="skin" ts:gender="male"/>
	<path d="M9 5v12c0 3.917 2.507 7.24 6 8.477V28c0 1.657 1.343 3 3 3s3-1.343 3-3v-2.523c3.493-1.237 6-4.56 6-8.477V5H9z" fill="#FFDC5D" ts:skin="skin" ts:gender="female"/>
	<path d="M12.737 5.97h2.75v3.89h-2.75z" fill="#FFAC33" ts:skin="hair" ts:gender="neutral"/>
	<path d="M18 .823c-7.019 0-10.139 4.684-10.139 8.588 0 3.903 1.343 4.986 1.56 3.903.78-3.903 3.12-5.101 3.12-5.101 4.68 3.904 3.9.781 3.9.781 4.679 4.684 2.34 0 2.34 0 1.56 1.562 6.239 1.562 6.239 1.562s.78 1.198 1.559 2.759c.78 1.562 1.56 0 1.56-3.903 0-3.905-3.9-8.589-10.139-8.589z" fill="#FFAC33" ts:skin="hair" ts:gender="male"/>
	<path d="M26.999 5V4H8v7c6 0 6-6 6-6s2 7 14 7V5h-1.001z" fill="#FFAC33" ts:skin="hair" ts:gender="female"/>
	<path d="M12.252 4.589h4.01v4.703h-4.01z" fill="#FFAC33" ts:skin="hair" ts:gender="female"/>
	<path d="M26 32h1v4h-1z" fill="#DD551F" ts:gender-color="#2A6797,#7450A8"/>
	<path d="M18.734 18.386l1.827.691s-6.529 13.746-7.413 15.022c-.884 1.276-1.87 2.055-4.57 1.76l10.156-17.473z" fill="#DD551F" ts:gender-color="#2A6797,#7450A8"/>
	<path d="M13.513 7.846c.945-.291 1.598.508 1.77 1.195l.284 1.14.756-2.155c.366-1.042 1.507-1.591 2.549-1.225l3.774 1.324c1.042.366 1.591 1.507 1.225 2.549l-2.648 7.549s-.331.944-1.275.613l-5.662-1.986-.613-1.275.345-.984-1.226-4.929c-.17-.688.044-1.607.721-1.816z" fill="#EF9645" ts:skin="line"/>
	<path d="M18.734 18.386l-1.9 3.234-1.024 1.744-1.16 1.974L15 28c0 .594.178 1.144.476 1.61.98-1.986 2.097-4.295 3.035-6.246l.807-1.681c.741-1.547 1.244-2.606 1.244-2.606l-1.828-.691z" fill="#EF9645" ts:skin="line"/>
	<!-- eye dark -->
	<path d="M22.021 14.792c-1.417 0-2.107 1.515-2.136 1.58-.044.099-.016.215.069.283.084.068.204.07.292.007.005-.004.578-.397 1.673-.423l.49-1.395c-.124-.027-.25-.052-.388-.052z" fill="#4F140B" ts:skin="#4F140B,#4F140B,#4F140B,#4F140B,#000000"/>
	<!-- eye -->
	<path d="M24.157 16.371c-.026-.058-.596-1.288-1.747-1.529l-.49 1.395c.037-.001.063-.009.101-.009 1.162 0 1.76.422 1.774.432.042.032.093.047.143.047.053 0 .106-.018.149-.052.085-.067.114-.184.07-.284z" fill="#662113" ts:skin="eyes"/>
	<!-- mouth dark -->
	<path d="M19.317 21.683c-.377-.191-.818-.319-1.322-.319-.438 0-.819.107-1.161.256l-1.024 1.744h2.701l.806-1.681z" fill="#662113" ts:skin="eyes2" ts:gender-color="#894935,#A0041E"/>
	<!-- mouth -->
	<path d="M20.995 23.364s-.56-1.117-1.678-1.681c-.246.514-.516 1.078-.807 1.681h2.485z" fill="#C1694F" ts:skin="nose" ts:gender-color=",#DF1F32"/>
	<path d="M12.513 7.657c.687-.171 1.383.248 1.555.934l.284 1.14.756-2.155c.366-1.042 1.507-1.591 2.549-1.225l3.774 1.324c1.042.366 1.591 1.507 1.225 2.549l-2.648 7.549s-.331.944-1.275.613L13.072 16.4l-.613-1.275.345-.984-1.226-4.929c-.171-.688.248-1.385.935-1.555z" fill="#FFDC5D" ts:skin="skin"/>
	<path d="M18.743 12.054l1.655-4.718.944.331-1.655 4.718z M15.91300000,11.06100000 l1.656-4.718.943.331-1.655 4.718z" fill="#EF9645" ts:skin="line"/>
	<path d="M14.278 29.85s-1.719 3.579-2.107 4.416C11.484 35.75 10 36 10 36c-8 0-3.622-8.343-3.622-8.343l6.432-11.846 6.541 2.58-5.073 11.459z" fill="#FA743E" ts:gender-color="#4289C1,#9268CA"/>
</svg>
