<svg viewBox="0 0 36 36" xmlns="http://www.w3.org/2000/svg" xmlns:ts="data:,a">
	<!-- back hair -->
	<path d="M21.906 1.262c-2.02-.654-6.772-.475-7.96 1.069-3.089.059-6.713 2.851-7.188 6.535-.47 3.645.578 5.338.951 8.079.422 3.106 2.168 4.099 3.564 4.515C13.281 24.114 15.415 24 19 24c7 0 10.334-4.684 10.629-12.639.178-4.812-2.645-8.456-7.723-10.099z" fill="#FFAC33" ts:skin="#292F33,#FFE51E,#963B22,#60352A,#0B0200" ts:gender="neutral"/>
	<path d="M19 0c-1.721 0-3.343.406-4.793 1.111C13.814 1.043 13.412 1 13 1 9.134 1 6 4.134 6 8v12h.018C6.201 26.467 11.489 31.656 18 31.656S29.799 26.467 29.982 20H30v-9c0-6.075-4.925-11-11-11z" fill="#FFAC33" ts:skin="#292F33,#FFE51E,#963B22,#60352A,#0B0200" ts:gender="female"/>
	<!-- body -->
	<path d="M27 21H9c-2.209 0-4 1.791-4 4v11h26V25c0-2.209-1.791-4-4-4z" fill="#FA743E" ts:gender-color="#4289C1,#9268CA"/>
	<!-- arms -->
	<path d="M4 36h6v-8H5z" fill="#FA743E" ts:gender-color="#4289C1,#9268CA"/>
	<path d="M32 36h-6v-8h5z" fill="#FA743E" ts:gender-color="#4289C1,#9268CA"/>
	<path d="M10 27h1v9h-1z" fill="#DD551F" ts:gender-color="#2A6797,#7450A8"/>
	<path d="M25 27h1v9h-1z" fill="#DD551F" ts:gender-color="#2A6797,#7450A8"/>
	<!-- hands -->
	<path d="M4.702 26.495l-.283-.059h-.511c0-.058.023-.112.035-.169-.348-.215-.546-.625-.458-1.048.112-.542.643-.89 1.186-.779l2.091.433h1.676c.863 0 1.562.7 1.562 1.564V28H6.253s-1.481-.669-1.551-1.505z" fill="#FCAB40" ts:skin="#E0AA94,#D2A077,#B78B60,#90603E,#583529"/>
	<path d="M31.298 26.495l.283-.059h.511c0-.058-.023-.112-.035-.169.348-.215.546-.625.458-1.048-.112-.542-.642-.89-1.185-.779l-2.091.433h-1.676c-.863 0-1.562.7-1.562 1.564V28h3.747c-.001 0 1.48-.669 1.55-1.505z" fill="#FCAB40" ts:skin="#E0AA94,#D2A077,#B78B60,#90603E,#583529"/>
	<path d="M0 25.655c0-.432.35-.782.781-.782l4.69.782h3.747c.432 0 .781.351.781.781V28H5L.781 26.437S0 26.087 0 25.655z" fill="#FFDC5D" ts:skin="#F7DECE,#F3D2A2,#D4AB88,#AF7E57,#7C533E"/>
	<path d="M36 25.655c0-.432-.35-.782-.781-.782l-4.691.782h-3.747c-.432 0-.781.351-.781.781V28h5l4.219-1.563s.781-.35.781-.782z" fill="#FFDC5D" ts:skin="#F7DECE,#F3D2A2,#D4AB88,#AF7E57,#7C533E"/>
	<!-- face -->
	<path d="M25.904 11.734c-.677-.938-1.545-1.693-3.446-1.96.713.327 1.396 1.455 1.485 2.079.089.624.178 1.129-.386.505-2.261-2.499-4.723-1.515-7.163-3.041-1.703-1.067-2.222-2.247-2.222-2.247s-.208 1.574-2.792 3.178c-.749.465-1.643 1.501-2.139 3.03-.356 1.099-.246 2.079-.246 3.754 0 4.889 4.029 9 9 9s9-4.147 9-9c0-3.041-.318-4.229-1.091-5.298z" fill="#FFDC5D" ts:skin="#F7DECE,#F3D2A2,#D4AB88,#AF7E57,#7C533E" ts:gender="neutral"/>
	<path d="M10.847 13.715c0 1.58-.8 2.861-1.788 2.861s-1.788-1.281-1.788-2.861c0-1.58.801-2.861 1.788-2.861s1.788 1.281 1.788 2.861z " fill="#FFDC5D" ts:skin="#F7DECE,#F3D2A2,#D5AB88,#AF7E57,#7C533E" ts:gender="male"/>
	<path d="M28.72900000,13.71500000 c0 1.58-.8 2.861-1.788 2.861s-1.788-1.281-1.788-2.861c0-1.58.8-2.861 1.788-2.861s1.788 1.281 1.788 2.861z" fill="#FFDC5D" ts:skin="#F7DECE,#F3D2A2,#D5AB88,#AF7E57,#7C533E" ts:gender="male"/>
	<path d="M9 7v10c0 4.971 4.029 9 9 9s9-4.029 9-9V7H9z" fill="#FFDC5D" ts:skin="#F7DECE,#F3D2A2,#D5AB88,#AF7E57,#7C533E" ts:gender="male"/>
	<path d="M14 5s-.003 5.308-5 5.936V17c0 4.971 4.029 9 9 9s9-4.029 9-9v-5.019C15.89 11.605 14 5 14 5z" fill="#FFDC5D" ts:skin="#F7DECE,#F3D2A2,#D5AB88,#AF7E57,#7C533E" ts:gender="female"/>
	<!-- hair -->
	<path d="M18 .823c-7.019 0-10.139 4.684-10.139 8.588 0 3.903 1.343 4.986 1.56 3.903.78-3.903 3.12-5.101 3.12-5.101 4.68 3.904 3.9.781 3.9.781 4.679 4.684 2.34 0 2.34 0 1.56 1.562 6.239 1.562 6.239 1.562s.78 1.198 1.559 2.759c.78 1.562 1.56 0 1.56-3.903 0-3.905-3.9-8.589-10.139-8.589z" fill="#FFAC33" ts:skin="#292F33,#FFE51E,#963B22,#60352A,#0B0200" ts:gender="male"/>
	<!-- eyes -->
	<path d="M14 16c-.552 0-1-.448-1-1v-1c0-.552.448-1 1-1s1 .448 1 1v1c0 .552-.448 1-1 1z M22,16 c-.553 0-1-.448-1-1v-1c0-.552.447-1 1-1s1 .448 1 1v1c0 .552-.447 1-1 1z" fill="#662113" ts:skin="#662113,#662113,#662113,#662113,#000000"/>
	<!-- nose -->
	<path d="M19 19.5h-2c-.276 0-.5-.224-.5-.5s.224-.5.5-.5h2c.276 0 .5.224.5.5s-.224.5-.5.5z" fill="#C1694F" ts:skin="#C1694F,#C1694F,#C1694F,#915A34,#3D2E24" ts:gender="neutral,female"/>
	<path d="M19 19.5h-2c-.276 0-.5-.224-.5-.5s.224-.5.5-.5h2c.276 0 .5.224.5.5s-.224.5-.5.5z" fill="#BF6952" ts:skin="#BF6952,#BF6952,#BF6952,#915A34,#3D2E24" ts:gender="male"/> <!-- different colors -->
	<!-- mouth -->
	<path d="M20.5,23 H20c-.276 0-.5-.224-.5-.5s.224-.5.5-.5h.5c.276 0 .5.224.5.5s-.224.5-.5.5z" fill="#C1694F" ts:skin="#C1694F,#C1694F,#C1694F,#915A34,#3D2E24" ts:gender-color="#BF6952,#DF1F32" ts:gender="neutral male"/>
	<path d="M20.5,23 H20c-.276 0-.5-.224-.5-.5s.224-.5.5-.5h.5c.276 0 .5.224.5.5s-.224.5-.5.5z" fill="#DF1F32" ts:gender="female"/>
</svg>
