<svg viewBox="0 0 36 36" xmlns="http://www.w3.org/2000/svg" xmlns:ts="data:,a">
	<!-- back hair -->
	<path d="M21.597 1.516c-1.925-.623-6.455-.453-7.588 1.019-2.944.057-6.398 2.718-6.851 6.228-.448 3.475.551 5.088.906 7.701.403 2.96 2.067 3.907 3.397 4.303 1.914 2.529 3.949 2.421 7.366 2.421 6.672 0 9.85-4.464 10.131-12.047.17-4.585-2.521-8.059-7.361-9.625z" fill="#FFAC33" ts:skin="#292F33,#FFE51E,#963B22,#60352A,#0B0200" ts:gender="neutral"/>
	<path d="M18.004 3.979c4.104 0 10.947 2.053 10.947 10.947 0 8.895 0 10.948-2.053 10.948s-4.79-2.053-8.894-2.053c-4.106 0-6.785 2.053-8.896 2.053-2.287 0-2.053-8.211-2.053-10.948 0-8.895 6.844-10.947 10.949-10.947" fill="#FFAC33" ts:skin="#292F33,#FFE51E,#963B22,#60352A,#0B0200" ts:gender="female"/>
	<!-- shirt -->
	<path d="M32 36v-3c0-4-3.685-7-7-7H11c-3.313 0-7 3-7 7v3h28z" fill="#292F33" ts:gender="neutral"/>
	<path d="M32 36v-4c0-3.314-2.685-6-6-6H10c-3.313 0-6 2.686-6 6v4h28z" fill="#292F33" ts:gender="male"/>
	<path d="M31 36v-4.5c0-3.314-3.56-5.5-6.875-5.5h-12C8.812 26 5 28.186 5 31.5V36h26z" fill="#292F33" ts:skin="#292F33,#292F33,#292F33,#292F33,#292F33" ts:gender="female"/>
	<path d="M13.5 30.003l-4.292-.916L11.12 26l2.38.003z" fill="#546170" ts:gender="neutral,male"/>
	<path d="M22.5 30.003l4.292-.916L24.879 26l-2.379.003z" fill="#546170" ts:gender="neutral,male"/>
	<path d="M13.95 29.603l-3.863-.825L11.808 26l2.142.003z" fill="#546170" ts:gender="female"/>
	<path d="M22.05 29.603l3.863-.825L24.192 26l-2.141.003z" fill="#546170" ts:gender="female"/>
	<path d="M15.42 36h-2.83l-4.382-7.667 2.912.924 1.745-2.204z" fill="#66757F" ts:gender="neutral,male"/>
	<path d="M20.58 36h2.83l4.382-7.667-2.913.924-1.744-2.204z" fill="#66757F" ts:gender="neutral,male"/>
	<path d="M16.078 36h-2.406l-4.485-7.9 2.621.831 1.571-1.983z" fill="#66757F" ts:gender="female"/>
	<path d="M19.922 36h2.406l4.485-7.9-2.621.831-1.57-1.983z" fill="#66757F" ts:gender="female"/>
	<path d="M20.805 36l2.862-10.017H12.333L15.195 36z" fill="#DFE7EC" ts:gender="neutral,male"/>
	<!-- neck -->
	<path d="M14.5 26c1 1.982 2.792 2 3.5 2s2.512-.049 3.5-2v-3.591h-7V26z" fill="#FFDC5D" ts:skin="#F7DECE,#F3D2A2,#D4AB88,#AF7E57,#7C533E" ts:gender="female"/>
	<path d="M14 25.887l4 1.75 4-1.75v-4h-8z" fill="#FFDC5D" ts:skin="#F7DECE,#F3D2A2,#D4AB88,#AF7E57,#7C533E" ts:gender="neutral,male"/>
	<path d="M20.145 36l3.011-10L18 27l-5.156-1 3.011 10z" fill="#DFE7EC" ts:gender="female"/>
	<path d="M14 24c1.216 1.374 2.355 1.719 3.996 1.719 1.639 0 2.787-.346 4.004-1.719v-4h-8v4z" fill="#F9CA55" ts:skin="#EEC2AD,#E2C196,#CC9B7A,#9B6A49,#664131" ts:gender="neutral,male"/>
	<path d="M14.5 24.054c.975 1.102 2.185 1.4 3.499 1.4 1.315 0 2.526-.298 3.501-1.4v-1.051h-7v1.051z" fill="#F9CA55" ts:skin="#EEC2AD,#E2C196,#CC9B7A,#9B6A49,#664131" ts:gender="female"/>
	<!-- head -->
	<path d="M25.413 11.466c-.646-.894-1.472-1.614-3.284-1.868.68.311 1.331 1.387 1.416 1.982.085.595.17 1.076-.368.481-2.155-2.382-4.502-1.444-6.827-2.899-1.624-1.016-2.119-2.141-2.119-2.141s-.198 1.5-2.661 3.029c-.714.443-1.566 1.43-2.038 2.888-.34 1.048-.234 1.982-.234 3.578 0 4.66 3.841 8.578 8.578 8.578s8.578-3.953 8.578-8.578c-.001-2.898-.305-4.03-1.041-5.05z" fill="#FFDC5D" ts:skin="#F7DECE,#F3D2A2,#D4AB88,#AF7E57,#7C533E" ts:gender="neutral"/>
	<path d="M27.833 13.935c0-1.448-.733-2.623-1.639-2.623-.082 0-.161.02-.24.039C24.73 7.546 21.635 4.839 18 4.839s-6.729 2.707-7.955 6.512c-.079-.019-.158-.039-.24-.039-.905 0-1.639 1.175-1.639 2.623 0 1.33.621 2.417 1.423 2.587.634 4.845 4.153 8.557 8.411 8.557s7.776-3.712 8.411-8.557c.802-.17 1.422-1.257 1.422-2.587z" fill="#FFDC5D" ts:skin="#F7DECE,#F3D2A2,#D4AB88,#AF7E57,#7C533E" ts:gender="male"/>
	<path d="M9.793 14.627c0-5.834 3.676-10.563 8.211-10.563 4.533 0 8.209 4.729 8.209 10.563 0 5.833-3.676 10.285-8.209 10.285-4.535 0-8.211-4.452-8.211-10.285" fill="#FFDC5D" ts:skin="#F7DECE,#F3D2A2,#D4AB88,#AF7E57,#7C533E" ts:gender="female"/>
	<path d="M18 1.48c5.648 0 9.178 4.168 9.178 7.641s-.706 4.863-1.412 3.473l-1.412-2.778s-4.235 0-5.647-1.39c0 0 2.118 4.168-2.118 0 0 0 .706 2.779-3.53-.694 0 0-2.118 1.389-2.824 4.862-.196.964-1.412 0-1.412-3.473C8.822 5.648 11.646 1.48 18 1.48" fill="#FFAC33" ts:skin="#292F33,#FFE51E,#963B22,#60352A,#0B0200" ts:gender="male"/>
	<path d="M7.784 17.909c-.021-1-.044-.224-.044-.465 0-3.422 2.053.494 2.053-1.943 0-2.438 1.368-2.683 2.736-4.051.685-.685 2.053-2.026 2.053-2.026s3.421 2.067 6.158 2.067c2.736 0 5.474 1.375 5.474 4.112 0 2.736 2.053-1.584 2.053 1.837 0 .244-.022-.531-.04.469h.719c.006-2 .006-1.924.006-3.202C28.951 5.813 22.11 2.5 18.003 2.5c-4.105 0-10.947 3.257-10.947 12.152 0 .793-.02 1.257.008 3.257h.72z" fill="#FFAC33" ts:skin="#292F33,#FFE51E,#963B22,#60352A,#0B0200" ts:gender="female"/>
	<path d="M11.503 14.845c0 1.448-.734 2.622-1.639 2.622s-1.639-1.174-1.639-2.622.734-2.623 1.639-2.623 1.639 1.175 1.639 2.623m16.389 0c0 1.448-.733 2.622-1.639 2.622-.905 0-1.639-1.174-1.639-2.622s.733-2.623 1.639-2.623c.905 0 1.639 1.175 1.639 2.623" fill="#FFDC5D" ts:skin="#F7DECE,#F3D2A2,#D4AB88,#AF7E57,#7C533E" ts:gender="female"/>
	<!-- eyes -->
	<path d="M14.062 15.564c-.526 0-.953-.427-.953-.953v-.953c0-.526.427-.953.953-.953s.953.427.953.953v.953c0 .526-.427.953-.953.953z M21.68700000,15.56400000 c-.526 0-.953-.427-.953-.953v-.953c0-.526.427-.953.953-.953s.953.427.953.953v.953c0 .526-.427.953-.953.953z" fill="#662113" ts:skin="#662113,#662113,#662113,#662113,#000000" ts:gender="neutral"/>
	<path d="M22 15c-.55 0-1-.45-1-1v-1c0-.55.45-1 1-1s1 .45 1 1v1c0 .55-.45 1-1 1m-8 0c-.55 0-1-.45-1-1v-1c0-.55.45-1 1-1s1 .45 1 1v1c0 .55-.45 1-1 1" fill="#662113" ts:skin="#662113,#662113,#662113,#662113,#000000" ts:gender="male"/>
	<path d="M21.432 16.796c-.465 0-.846-.381-.846-.847v-.845c0-.465.381-.846.846-.846.465 0 .846.381.846.846v.845c0 .466-.381.847-.846.847m-6.765 0c-.465 0-.846-.381-.846-.847v-.845c0-.465.381-.846.846-.846.466 0 .847.381.847.846v.845c0 .466-.381.847-.847.847" fill="#662113" ts:skin="#662113,#662113,#662113,#662113,#000000" ts:gender="female"/>
	<!-- nose/mouth -->
	<path d="M18 22.88c-2.754 0-3.6-.705-3.741-.848-.256-.256-.256-.671 0-.927.248-.248.646-.255.902-.023.052.037.721.487 2.839.487 2.2 0 2.836-.485 2.842-.49.256-.255.657-.243.913.015.256.256.242.683-.014.938-.141.143-.987.848-3.741.848m.827-3.98h-1.906c-.263 0-.477-.213-.477-.477 0-.263.213-.477.477-.477h1.906c.263 0 .477.213.477.477s-.213.477-.477.477z" fill="#C1694F" ts:skin="#C1694F,#C1694F,#C1694F,#915A34,#3D2E24" ts:gender="neutral"/>
	<path d="M18 21.802c-2.754 0-3.6-.705-3.741-.848-.256-.256-.256-.671 0-.927.248-.248.646-.255.902-.023.052.037.721.487 2.839.487 2.2 0 2.836-.485 2.842-.49.256-.255.657-.243.913.015.256.256.242.683-.014.938-.141.143-.987.848-3.741.848m.75-4.052h-1.5c-.413 0-.75-.337-.75-.75s.337-.75.75-.75h1.5c.413 0 .75.337.75.75s-.337.75-.75.75" fill="#C1694F" ts:skin="#C1694F,#C1694F,#C1694F,#915A34,#3D2E24" ts:gender="male"/>
	<path d="M18.895 19.409h-1.69c-.233 0-.423-.189-.423-.423v-.153c0-.233.189-.424.423-.424h1.69c.233 0 .424.19.424.424v.153c0 .234-.191.423-.424.423" fill="#C1694F" ts:skin="#C1694F,#C1694F,#C1694F,#915A34,#3D2E24" ts:gender="female"/>
	<path d="M18.004 22.452c-1.606 0-2.447-.794-2.537-.885-.268-.267-.268-.7 0-.967.266-.265.692-.267.961-.007.035.032.551.491 1.576.491 1.038 0 1.555-.473 1.576-.492.273-.256.703-.248.963.019.26.269.26.691-.004.955-.09.092-.929.886-2.535.886" fill="#DF1F32" ts:gender="female"/>
	<!-- collar -->
	<path d="M13.927 24.744L18 27.637l-2.656 2.818-3.011-4.472z M22.07300000,24.74400000 L18 27.637l2.656 2.818 3.011-4.472z" fill="#F4F7F9" ts:gender="neutral,male"/>
	<path d="M14.294 24.872L18 26.966l-2.417 2.564-2.74-3.53z M21.70600000,24.87200000 L18 26.966l2.417 2.564 2.74-3.53z" fill="#F4F7F9" ts:gender="female"/>
	<!-- bowtie -->
	<path d="M21.045 26.653c-.072-.043-.159-.043-.231-.003L18 28.197l-2.814-1.547c-.072-.04-.159-.039-.231.003-.071.042-.115.119-.115.201v3.218c0 .082.044.159.115.201.037.021.078.032.119.032.039 0 .077-.01.112-.029L18 28.728l2.814 1.548c.035.02.073.029.112.029.041 0 .082-.011.119-.032.07-.042.114-.119.114-.201v-3.218c0-.082-.044-.159-.114-.201z" fill="#292F33" ts:gender="neutral,male"/>
	<path d="M20.781 26.053c-.072-.043-.159-.043-.231-.003l-2.551 1.402-2.551-1.402c-.072-.04-.159-.039-.231.003-.071.042-.115.119-.115.201v2.928c0 .082.044.159.115.201.037.021.078.032.119.032.039 0 .077-.01.112-.029l2.551-1.402 2.551 1.402c.035.02.073.029.112.029.041 0 .082-.011.119-.032.07-.042.114-.119.114-.201v-2.928c.001-.082-.043-.159-.114-.201z" fill="#292F33" ts:gender="female"/>
	<!-- buttons -->
	<circle cx="18" cy="31.847" fill="#292F33" r=".7" ts:gender="neutral,male"/>
	<circle cx="18" cy="34.704" fill="#292F33" r=".7" ts:gender="neutral,male"/>
	<circle cx="18" cy="30.796" fill="#292F33" r=".625" ts:gender="female"/>
	<circle cx="18" cy="33.396" fill="#292F33" r=".625" ts:gender="female"/>
	<path d="M18 35.375c-.345 0-.625.28-.625.625h1.25c0-.345-.28-.625-.625-.625z" fill="#292F33" ts:gender="female"/>
</svg>
