<svg viewBox="0 0 36 36" xmlns="http://www.w3.org/2000/svg" xmlns:ts="data:,a">
	<!-- back hair -->
	<use href="defs.svg#hair_neutral" transform="translate(21.906 1.262) scale(1.049)" ts:skin="hair" ts:gender="neutral"/>
	<ellipse cx="18.001" cy="19.656" rx="12" ry="12" transform="rotate(-80.781 18 19.656)" ts:skin="hair" ts:gender="female"/> <!-- wrong color in original !! -->
	<circle cx="13.001" cy="8" ts:skin="hair" r="7" ts:gender="female"/>
	<circle cx="19.001" cy="11" ts:skin="hair" r="11" ts:gender="female"/>
	<path d="M30.001 20h-24V8l24 3z" ts:skin="hair" ts:gender="female"/>
	<!-- body -->
	<path d="M27.001 27h-18c-2.209 0-4 1.791-4 4v5h26v-5c0-2.209-1.791-4-4-4z" fill="#FA743E" ts:gender-color="#4289C1,#9268CA"/>
	<path d="M9 32h1v4H9 z M26 32h1v4h-1z" fill="#DD551F" ts:gender-color="#2A6797,#7450A8"/>
	<!-- neck -->
	<path d="M15 22v6c0 1.657 1.343 3 3 3s3-1.343 3-3v-6h-6z" ts:skin="skin"/>
	<!-- face -->
	<path d="M25.909 11.701c-.677-.938-1.545-1.693-3.446-1.96.713.327 1.396 1.455 1.485 2.079.089.624.178 1.129-.386.505-2.26-2.499-4.722-1.515-7.162-3.041-1.704-1.066-2.223-2.246-2.223-2.246s-.208 1.574-2.792 3.178c-.749.465-1.643 1.5-2.139 3.03C8.889 14.345 9 15.325 9 17c0 4.889 4.029 9 9 9s9-4.147 9-9c0-3.041-.319-4.229-1.091-5.299z" ts:skin="skin" ts:gender="neutral"/>
	<ellipse cx="9.059" cy="13.715" rx="1.788" ry="2.861" ts:skin="skin" ts:gender="male"/><ellipse cx="26.941" cy="13.715" rx="1.788" ry="2.861" ts:skin="skin" ts:gender="male"/>
	<path d="M9 5.938V17c0 4.971 4.029 9 9 9s9-4.029 9-9V6.25L9 5.938z" ts:skin="skin" ts:gender="male"/>
	<path d="M14.001 5s-.003 5.308-5 5.936V17c0 4.971 4.029 9 9 9s9-4.029 9-9v-5.019c-11.111-.376-13-6.981-13-6.981z" ts:skin="skin" ts:gender="female"/>
	<!-- hair -->
	<path d="M18 .823c-7.019 0-10.139 4.684-10.139 8.588 0 3.903 1.343 4.986 1.56 3.903.78-3.903 3.12-5.101 3.12-5.101 4.68 3.904 3.9.781 3.9.781 4.679 4.684 2.34 0 2.34 0 1.56 1.562 6.239 1.562 6.239 1.562s.78 1.198 1.559 2.759c.78 1.562 1.56 0 1.56-3.903 0-3.905-3.9-8.589-10.139-8.589z" ts:skin="hair" ts:gender="male"/>
	<!-- hands -->
	<path d="M14.504 3.729l-3.078-.177-.098-.572c-2.24 1.037-5.984 1.397-6.327 4.057-.226 1.753.727 5.016-.006 6.339l.494 2.891s.168.985 1.154.817c.985-.169.817-1.154.817-1.154l-.313-6.42c.56-.293 1.071-.706 1.351-1.101l1.671-2.361 4.189.239c.706.041 1.313-.499 1.352-1.206.04-.705-.5-1.31-1.206-1.352z" ts:skin="line" ts:gender="neutral"/>
	<path d="M24.756 2.487l-.182 1.065-3.078.177c-.706.042-1.246.647-1.206 1.354.04.706.646 1.246 1.352 1.206l4.189-.239 1.671 2.361c.28.395.792.808 1.351 1.101l-.313 6.42s-.169.985.817 1.154c.985.168 1.154-.817 1.154-.817l1.176-6.876c-1.187-2.777-3.925-5.294-6.931-6.906z" ts:skin="line" ts:gender="neutral"/>
	<path d="M7.387 4.397L9.34 2.444l.525.619 3.5-1.396v1.705l2.63.607c.603.141.98.743.841 1.347-.138.604-.742.98-1.345.841l-3.579-.825-1.79 1.791c-.3.3-.802.581-1.329.751l-.678 5.586s0 .875-.875.875-.875-.875-.875-.875v-7l1.022-2.073z" ts:skin="line" ts:gender="male"/> <!-- wrong color in original -->
	<path d="M28.613 4.397L26.66 2.444l-.525.619-3.5-1.271v1.58l-2.63.607c-.603.141-.98.743-.841 1.347.138.604.742.98 1.345.841l3.579-.825 1.79 1.791c.3.3.802.581 1.329.751l.678 5.586s0 .875.875.875.875-.875.875-.875v-7l-1.022-2.073z" ts:skin="line" ts:gender="male"/> <!-- wrong color ? -->
	<path d="M5.561 5.032l5.189-3.823 1.638-.188V3.86l3.004.693c.689.161 1.119.849.96 1.538-.158.689-.847 1.119-1.536.96l-4.087-.941-2.045 2.045c-.342.343-.916.663-1.517.858l-.774 6.38s0 .999-.999.999-.999-.999-.999-.999V7.398l1.166-2.366z" ts:skin="line" ts:gender="female"/> <!-- wrong color ? -->
	<path d="M30.44 5.032l-5.846-3.594-.982-.417V3.86l-3.004.693c-.689.161-1.119.849-.96 1.538.158.689.847 1.119 1.536.96l4.088-.942 2.045 2.045c.343.343.916.663 1.518.858l.774 6.38s0 .999.999.999.999-.999.999-.999V7.398L30.44 5.032z" ts:skin="line" ts:gender="female"/> <!-- wrong color ? -->
	<path d="M4.44 5.537l1.823-2.575L6.448 0h3.865l.663 3.231 3.074.177c.706.043 1.246.648 1.206 1.354-.04.706-.646 1.246-1.352 1.206l-4.188-.239-1.671 2.36c-.28.395-.792.808-1.351 1.101l.313 6.42s.168.985-.817 1.154-1.154-.817-1.154-.817l-1.348-7.88.752-2.53z" ts:skin="skin" ts:gender="neutral"/>
	<path d="M31.56 5.537l-1.823-2.575L29.552 0h-3.865l-.663 3.231-3.074.177c-.706.043-1.246.648-1.206 1.354.04.706.646 1.246 1.352 1.206l4.189-.239 1.671 2.361c.28.395.792.808 1.351 1.101l-.313 6.42s-.168.985.817 1.154 1.154-.817 1.154-.817l1.348-7.881-.753-2.53z" ts:skin="skin" ts:gender="neutral"/>
	<path d="M7.043 4.053L8.996 2.1 9.521 0h3.5v3.027l2.63.607c.603.141.98.743.841 1.347-.138.604-.742.98-1.345.841l-3.579-.825-1.79 1.791c-.3.3-.802.581-1.329.751l-.678 5.586s0 .875-.875.875-.875-.875-.875-.875v-7l1.022-2.072z" ts:skin="skin" ts:gender="male"/>
	<path d="M28.957 4.053L27.004 2.1 26.479 0h-3.5v3.027l-2.63.607c-.603.141-.98.743-.841 1.347.138.604.742.98 1.345.841l3.579-.825 1.79 1.791c.3.3.802.581 1.329.751l.678 5.586s0 .875.875.875.875-.875.875-.875v-7l-1.022-2.072z" ts:skin="skin" ts:gender="male"/>
	<path d="M5.169 4.639L7.4 2.408 7.999 0H12v3.468l3 .693c.689.161 1.119.849.96 1.538-.158.689-.847 1.119-1.536.96l-4.088-.942-2.044 2.045c-.343.343-.917.664-1.518.858L6 15.001S6 16 5.001 16s-.999-.999-.999-.999V7.005l1.167-2.366z" ts:skin="skin" ts:gender="female"/>
	<path d="M30.833 4.639l-2.231-2.231-.6-2.408h-3.998v3.468l-3.003.692c-.689.161-1.119.849-.96 1.538.158.689.847 1.119 1.536.96l4.088-.942 2.045 2.045c.343.343.916.663 1.518.858l.774 6.38s0 .999.999.999C32 16 32 15.001 32 15.001V7.005l-1.167-2.366z" ts:skin="skin" ts:gender="female"/>
	<!-- eyes -->
	<path d="M 23.906,15.056 c 0.089,0.071 0.119,0.192 0.073,0.296 c -0.03,0.067 -0.75,1.648 -2.229,1.648 c -1.478,0 -2.199,-1.581 -2.229,-1.649 c -0.046,-0.104 -0.016,-0.226 0.073,-0.297 s 0.215,-0.072 0.306,-0.004 c 0.005,0.004 0.63,0.45 1.85,0.45 c 1.221,0 1.845,-0.446 1.851,-0.451 c 0.092,-0.067 0.217,-0.064 0.305,0.007 Z" ts:skin="eyes21"/>
	<path d="M 16.406,15.056 c 0.089,0.071 0.118,0.192 0.073,0.296 c -0.03,0.067 -0.75,1.648 -2.229,1.648 c -1.478,0 -2.199,-1.581 -2.229,-1.649 c -0.046,-0.104 -0.016,-0.226 0.073,-0.297 s 0.215,-0.072 0.306,-0.004 c 0.005,0.004 0.63,0.45 1.85,0.45 c 1.221,0 1.845,-0.446 1.851,-0.451 c 0.092,-0.067 0.217,-0.064 0.305,0.007 Z" ts:skin="eyes21"/>
	<!-- nose -->
	<rect x="16.5" y="18.5" width="3" height="1" rx="0.5" ts:skin="nose"/>
	<!-- mouth -->
	<ellipse cx="18.001" cy="22" rx="2" ry="1" ts:skin="nose" ts:gender="neutral,male"/>
	<ellipse cx="18.001" cy="22" rx="2" ry="1" fill="#DF1F32" ts:gender="female"/>
</svg>
