<svg viewBox="0 0 36 36" xmlns="http://www.w3.org/2000/svg" xmlns:ts="data:,a">
	<!-- back hair 1 -->
	<path d="M18.528 3.81c-.731 0-1.421.173-2.037.472-.167-.029-.338-.047-.513-.047-1.643 0-2.975 1.332-2.975 2.975v5.1h.007c.078 2.748 2.326 4.954 5.093 4.954s5.015-2.206 5.093-4.954h.007V8.485c0-2.582-2.093-4.675-4.675-4.675z" ts:skin="hair" ts:gender="female"/>
	<!-- limbs -->
	<path d="M 15.898,34.875 h -1.365 s -1.27,-3.348 -1.074,-5.736 l 2.801,0.549 c 0.526,1.571 -0.362,5.187 -0.362,5.187 Z" ts:skin="skin" ts:gender="neutral"/><path d="M 20.042,34.875 s -0.888,-3.616 -0.362,-5.187 l 2.801,-0.549 c 0.196,2.388 -1.074,5.736 -1.074,5.736 h -1.365 Z" ts:skin="skin" ts:gender="neutral"/>
	<path d="M 8.646,4.146 c 0.011,0.127 0.871,1.535 1.323,2.635 s 0.71,2.198 0.948,2.448 c 0.476,0.499 2.092,1.879 3.117,3.343 s 0.724,2.503 0.06,2.922 c -0.88,0.555 -1.803,0.204 -2.437,-0.788 c -0.451,-0.706 -1.951,-3.209 -2.739,-4.601 c -0.306,-0.541 -0.796,-1.512 -1.218,-2.574 c -0.397,-1 -0.444,-2.168 -0.504,-2.312 c -0.174,-0.425 -1.12,-0.977 -1.154,-1.407 c 0,0 2.567,-0.095 2.604,0.334 Z" ts:skin="skin" ts:gender="neutral"/><path d="M 27.354,4.146 c 0.037,-0.429 2.604,-0.334 2.604,-0.332 c -0.034,0.429 -0.98,0.981 -1.155,1.406 c -0.06,0.144 -0.107,1.312 -0.504,2.312 c -0.422,1.062 -0.913,2.033 -1.217,2.573 c -0.788,1.392 -2.288,3.895 -2.739,4.601 c -0.634,0.992 -1.557,1.343 -2.437,0.788 c -0.664,-0.419 -0.965,-1.458 0.06,-2.922 s 2.641,-2.844 3.117,-3.343 c 0.238,-0.25 0.496,-1.348 0.948,-2.448 s 1.312,-2.508 1.323,-2.635 Z" ts:skin="skin" ts:gender="neutral"/>
	
	<path d="M 15.81,34.875 h -1.422 s -1.323,-3.348 -1.119,-5.736 l 2.918,0.549 c 0.548,1.571 -0.377,5.187 -0.377,5.187 Z" ts:skin="skin" ts:gender="male"/><path d="M 20.127,34.875 s -0.925,-3.616 -0.377,-5.187 l 2.918,-0.549 c 0.204,2.388 -1.119,5.736 -1.119,5.736 h -1.422 Z" ts:skin="skin" ts:gender="male"/>
	<path d="M 8.646,4.146 c 0.011,0.127 0.871,1.535 1.323,2.635 s 0.71,2.198 0.948,2.448 c 0.476,0.499 2.285,1.879 3.271,3.343 c 0.985,1.464 0.57,2.503 -0.094,2.922 c -0.88,0.555 -1.803,0.204 -2.437,-0.788 c -0.451,-0.706 -1.951,-3.209 -2.739,-4.601 c -0.306,-0.541 -1.018,-1.512 -1.449,-2.574 c -0.406,-1 -0.454,-2.168 -0.515,-2.312 c -0.179,-0.425 -0.878,-0.977 -0.912,-1.407 c 0,0 2.567,-0.095 2.604,0.334 Z" ts:skin="skin" ts:gender="male"/><path d="M 27.354,4.146 c 0.037,-0.429 2.604,-0.334 2.603,-0.332 c -0.034,0.429 -0.734,0.981 -0.912,1.406 c -0.061,0.144 -0.109,1.312 -0.515,2.312 c -0.431,1.062 -1.144,2.033 -1.448,2.573 c -0.788,1.392 -2.288,3.895 -2.739,4.601 c -0.634,0.992 -1.557,1.343 -2.437,0.788 c -0.664,-0.419 -1.079,-1.458 -0.094,-2.922 c 0.986,-1.464 2.795,-2.844 3.271,-3.343 c 0.238,-0.25 0.496,-1.348 0.948,-2.448 s 1.312,-2.508 1.323,-2.635 Z" ts:skin="skin" ts:gender="male"/>
	
	<path d="M 15.447,34.875 h -1.02 s -1.384,-3.348 -1.18,-5.736 l 2.531,0.549 c 0.56,1.564 -0.331,5.187 -0.331,5.187 Z" ts:skin="skin" ts:gender="female"/><path d="M 20.332,34.875 s -0.891,-3.623 -0.332,-5.187 l 2.532,-0.549 c 0.204,2.388 -1.18,5.736 -1.18,5.736 h -1.02 Z" ts:skin="skin" ts:gender="female"/>
	<path d="M 8.31,4.156 c 0.011,0.127 0.814,1.525 1.266,2.625 s 0.747,2.25 0.984,2.5 c 0.476,0.499 1.926,1.474 2.911,2.937 c 0.985,1.464 -1.977,2.58 -2.611,1.588 c -0.451,-0.706 -1.309,-2.368 -2.097,-3.759 c -0.304,-0.54 -0.897,-1.454 -1.328,-2.516 c -0.406,-1 -0.642,-2.168 -0.702,-2.312 c -0.179,-0.425 -0.879,-0.977 -0.913,-1.407 c 0,0 2.454,-0.084 2.49,0.344 Z" ts:skin="skin" ts:gender="female"/><path d="M 27.469,4.156 c 0.036,-0.428 2.489,-0.344 2.489,-0.343 c -0.034,0.429 -0.734,0.981 -0.912,1.406 c -0.06,0.144 -0.296,1.312 -0.702,2.312 c -0.431,1.062 -1.024,1.976 -1.328,2.516 c -0.788,1.391 -1.646,3.053 -2.097,3.759 c -0.634,0.992 -3.596,-0.124 -2.611,-1.588 c 0.985,-1.463 2.435,-2.438 2.911,-2.937 c 0.237,-0.25 0.532,-1.4 0.984,-2.5 s 1.255,-2.498 1.266,-2.625 Z" ts:skin="skin" ts:gender="female"/>
	<!-- bar -->
	<rect x="0" y="3" width="36" height="1" rx="0.5" fill="#99AAB5"/>
	<!-- back hair 2 -->
	<use href="defs.svg#hair_neutral1" transform="translate(18.002 13.915) scale(.4074)" ts:skin="hair" ts:gender="neutral"/>
	
	<path d="M18.375 3.353c-.89 0-1.712.284-2.386.763-1.385.072-2.49 1.209-2.49 2.612 0 1.156.005 2.613 1.529 3.156.749 1.04 1.967 1.719 3.347 1.719 2.278 0 4.125-1.846 4.125-4.125 0-2.278-1.847-4.125-4.125-4.125z" ts:skin="hair" ts:gender="male,female"/>
	<!-- shorts -->
	<path d="M21.84 24.5L18 23l-3.84 1.5s-.82 1.917-.96 5.188h3.06c.88-.979 1.2-3.604 1.2-3.604h1.08s.32 2.625 1.2 3.604h3.06c-.14-3.271-.96-5.188-.96-5.188z" fill="#DD551F" ts:gender="neutral"/>
	<path d="M22 24.5L18 23l-4 1.5s-.854 1.917-1 5.188h3.187c.917-.979 1.25-3.604 1.25-3.604h1.125s.333 2.625 1.25 3.604H23c-.146-3.271-1-5.188-1-5.188z" fill="#3A6693" ts:gender="male"/>
	<path d="M21.779 24.5L18 23l-4 1.5s-.94 1.766-.94 5.188h2.719c.917-.979 1.25-3.604 1.25-3.604h1.721s.333 2.625 1.25 3.604h2.719c0-3.422-.94-5.188-.94-5.188z" fill="#DD2E44" ts:gender="female"/>
	<!-- shirt -->
	<path d="M22.172 12.286c-.742.419-1.283 1.257-1.492 1.617-.665.117-1.151.3-1.151.3H16.47s-.486-.183-1.151-.3c-.209-.36-.75-1.197-1.492-1.617 0 0-2.121.937-2.746 1.521.21.537.492 1.047.716 1.417.4 1.092 1.502 2.527 1.626 2.777.389.78.741 4.5.741 4.5L18 24l3.835-1.5s.352-3.72.741-4.5c.125-.25 1.227-1.685 1.626-2.777.224-.37.506-.879.716-1.417-.625-.583-2.746-1.52-2.746-1.52z" fill="#FA743E" ts:gender="neutral"/>
	<path d="M24.918 13.806c-.625-.583-2.746-1.723-2.746-1.723-.742.419-1.283 1.257-1.492 1.617-.665.117-1.151.3-1.151.3H16.47s-.486-.183-1.151-.3c-.209-.36-.75-1.197-1.492-1.617 0 0-2.121 1.14-2.746 1.723.21.537.492 1.047.716 1.417.255 1.29 1.146 2.763 1.281 3.013.418.78.922 4.264.922 4.264l4 1.5 4-1.5s.504-3.484.922-4.264c.134-.25 1.025-1.724 1.281-3.013.224-.37.506-.879.715-1.417z" fill="#4289C1" ts:gender="male"/>
	<path d="M24.918 13.806c-.625-.583-2.611-1.588-2.611-1.588-.709.401-1.237 1.188-1.465 1.571l-1.398.394h-2.89l-1.627-.406c-.231-.387-.755-1.162-1.458-1.559 0 0-1.986 1.004-2.611 1.588.406 1.039 1.543 2.428 1.543 2.428l.008-.001c.4.821.854 1.362.945 1.547.386.781.646 4.72.646 4.72l4 1.5 3.779-1.5s.26-3.939.643-4.719c.091-.185.545-.727.945-1.547l.008.001c0-.001 1.138-1.39 1.543-2.429z" fill="#DD2E44" ts:gender="female"/>
	<!-- shoes -->
	<path d="M 13.792,35.149 c 0.102,-0.243 0.318,-0.694 0.341,-0.955 s 0.034,-0.354 0.24,-0.426 c 0.347,-0.121 1.436,-0.087 1.623,-0.016 c 0.186,0.071 0.189,0.263 0.216,0.424 s 0.114,0.424 0.227,0.64 c 0.114,0.216 0.409,0.697 0.261,1.034 c -0.062,0.14 -0.405,0.138 -1.507,0.138 s -1.417,-0.026 -1.492,-0.118 s -0.011,-0.477 0.091,-0.721 Z" fill="#FA743E" ts:gender="neutral"/><path d="M 22.148,35.149 c 0.102,0.244 0.166,0.629 0.091,0.721 s -0.39,0.118 -1.492,0.118 s -1.445,0.002 -1.507,-0.138 c -0.148,-0.337 0.148,-0.818 0.261,-1.034 s 0.2,-0.479 0.227,-0.64 s 0.029,-0.353 0.216,-0.424 s 1.276,-0.105 1.623,0.016 c 0.206,0.072 0.217,0.165 0.24,0.426 s 0.239,0.712 0.341,0.955 Z" fill="#FA743E" ts:gender="neutral"/>
	<path d="M 13.617,35.149 c 0.106,-0.243 0.331,-0.694 0.355,-0.955 s 0.036,-0.354 0.25,-0.426 c 0.362,-0.121 1.496,-0.087 1.691,-0.016 c 0.194,0.071 0.197,0.263 0.225,0.424 s 0.118,0.424 0.237,0.64 s 0.426,0.697 0.272,1.034 c -0.064,0.14 -0.422,0.138 -1.569,0.138 s -1.476,-0.026 -1.554,-0.118 c -0.08,-0.092 -0.014,-0.477 0.093,-0.721 Z" fill="#4289C1" ts:gender="male"/><path d="M 22.321,35.149 c 0.106,0.244 0.171,0.629 0.093,0.721 s -0.407,0.118 -1.554,0.118 s -1.505,0.002 -1.569,-0.138 c -0.154,-0.337 0.154,-0.818 0.272,-1.034 c 0.119,-0.216 0.209,-0.479 0.237,-0.64 s 0.031,-0.353 0.225,-0.424 c 0.195,-0.071 1.329,-0.105 1.691,0.016 c 0.214,0.072 0.226,0.165 0.25,0.426 s 0.249,0.712 0.355,0.955 Z" fill="#4289C1" ts:gender="male"/>
	<path d="M 13.452,35.149 c 0.102,-0.243 0.316,-0.694 0.339,-0.955 s 0.034,-0.354 0.238,-0.426 c 0.345,-0.121 1.427,-0.087 1.613,-0.016 c 0.185,0.071 0.188,0.263 0.214,0.424 s 0.113,0.424 0.226,0.64 s 0.406,0.697 0.26,1.034 c -0.061,0.14 -0.402,0.138 -1.497,0.138 s -1.408,-0.026 -1.483,-0.118 s -0.011,-0.477 0.09,-0.721 Z" fill="#DD2E44" ts:gender="female"/><path d="M 22.327,35.149 c 0.101,0.244 0.164,0.629 0.09,0.721 c -0.075,0.092 -0.388,0.118 -1.483,0.118 s -1.436,0.002 -1.497,-0.138 c -0.146,-0.337 0.147,-0.818 0.26,-1.034 s 0.2,-0.479 0.226,-0.64 s 0.029,-0.353 0.214,-0.424 c 0.186,-0.071 1.268,-0.105 1.613,0.016 c 0.204,0.072 0.215,0.165 0.238,0.426 s 0.237,0.712 0.339,0.955 Z" fill="#DD2E44" ts:gender="female"/>
	<!-- belt -->
	<rect x="14.136" y="22.5" width="7.729" height="2" fill="#C1694F" ts:gender="neutral"/>
	<rect x="14" y="22.5" width="8" height="2" fill="#C1694F" ts:gender="male"/>
	<rect x="14" y="22.5" width="7.779" height="2" fill="#C1694F" ts:gender="female"/>
	<!-- palms -->
	<path d="M8.904 4.363c.33-.157.476-.428.377-.719l-.003-.01c-.099-.29-.291-.346-.738-.339 0 0-1.521.076-2.437.712 0 0 .454.314.702.57.098.29 1.362.137 2.099-.214z" ts:skin="skin" ts:gender="neutral,male"/>
	<path d="M8.683 4.363c.33-.157.476-.428.377-.719l-.003-.01c-.1-.29-.292-.346-.738-.339 0 0-1.521.076-2.437.712 0 0 .199.304.447.56l.003.01c.1.29 1.614.137 2.351-.214z" ts:skin="skin" ts:gender="female"/>
	<path d="M27.096 4.363c-.33-.157-.476-.428-.377-.719l.003-.01c.099-.291.291-.346.738-.339 0 0 1.521.076 2.437.712 0 0-.456.304-.699.56v.01c-.185.541-1.894-.115-2.102-.214z" ts:skin="skin"/>
	<!-- fingers -->
	<path d="M8.602,2.600 c.163-.055.342.034.397.197l.279.837c.055.164-.168-.068-.332-.013-.163.055-.342-.033-.397-.196l-.144-.427c-.055-.164.034-.342.197-.398z" ts:skin="skin" ts:gender="neutral,male"/>
	<path d="M8.157 3.47c.137-.033.221-.173.188-.31l-.087-.357c-.033-.137-.173-.221-.31-.188-.137.034-.221.173-.188.31l.087.357c.034.137.173.221.31.188z M7.616 3.399c.137-.033.221-.173.188-.31l-.082-.334c-.033-.137-.173-.221-.31-.188-.136.034-.221.173-.187.31l.082.334c.033.137.172.221.309.188z M7.1 3.424c.137-.033.221-.173.188-.31l-.068-.277c-.033-.137-.172-.221-.309-.188s-.221.173-.188.31l.068.277c.033.137.172.221.309.188z M6.581 3.447c.137-.033.221-.173.188-.31l-.039-.162c-.034-.136-.173-.221-.31-.188-.137.034-.221.173-.188.31l.04.162c.033.137.173.222.309.188z" ts:skin="skin" ts:gender="neutral,male"/>
	
	<path d="M27.398,2.600 c-.163-.055-.342.034-.397.197l-.279.837c-.055.164.168-.068.332-.013.163.055.342-.033.397-.196l.144-.427c.055-.164-.034-.342-.197-.398z" ts:skin="skin"/>
	<path d="M27.843 3.47c-.137-.033-.221-.173-.188-.31l.087-.357c.033-.137.173-.221.31-.188s.221.173.188.31l-.087.357c-.034.137-.173.221-.31.188z M28.384 3.399c-.137-.033-.221-.173-.188-.31l.082-.334c.033-.137.173-.221.31-.188s.221.173.188.31l-.082.334c-.034.137-.173.221-.31.188z M28.9 3.424c-.137-.033-.221-.173-.188-.31l.068-.277c.033-.137.173-.221.31-.188s.221.173.188.31l-.068.277c-.034.137-.173.221-.31.188z M29.419 3.447c-.137-.033-.221-.173-.188-.31l.04-.162c.033-.137.173-.221.31-.188s.221.173.188.31l-.04.162c-.034.137-.174.222-.31.188z" ts:skin="skin"/>
	
	<path d="M8.381,2.600 c.163-.055.342.034.397.197l.279.837c.055.164-.168-.068-.332-.013-.163.055-.342-.033-.397-.196l-.144-.427c-.055-.164.033-.342.197-.398z" ts:skin="skin" ts:gender="female"/>
	<path d="M7.936 3.47c.137-.033.221-.173.188-.31l-.088-.357c-.033-.137-.173-.221-.31-.188-.136.034-.221.173-.187.31l.087.357c.034.137.173.221.31.188z M7.395 3.399c.137-.033.221-.173.188-.31l-.082-.334c-.033-.137-.173-.221-.31-.188-.137.034-.221.173-.188.31l.082.334c.034.137.173.221.31.188z M6.879 3.424c.137-.034.221-.173.188-.31l-.068-.277c-.033-.137-.173-.221-.309-.188-.137.033-.221.173-.188.31l.068.277c.033.137.172.221.309.188z M6.36 3.447c.137-.033.221-.173.188-.31l-.04-.162c-.033-.137-.173-.221-.31-.188-.136.034-.22.173-.187.31l.04.162c.033.137.172.222.309.188z" ts:skin="skin" ts:gender="female"/>
	<!-- neck -->
	<use href="defs.svg#neck_old" transform="translate(18 15.952) scale(.4074)" ts:skin="skin" ts:gender="neutral"/>
	<use href="defs.svg#neck_old" transform="translate(18 16) scale(.51)" ts:skin="skin" ts:gender="male,female"/>
	<!-- head -->
	<use href="defs.svg#face_neutral1" transform="translate(18.002 13.915) scale(.4074)" ts:skin="skin" ts:gender="neutral"/>
	<path d="M21.75 5.602h-7.5v4.5c0 2.072 1.679 3.75 3.75 3.75 2.072 0 3.75-1.678 3.75-3.75v-4.5z" ts:skin="skin" ts:gender="male,female"/>
	<!-- eyes -->
	<use href="defs.svg#eyes_male" transform="translate(18 9.231) scale(.4074)" ts:skin="eyes" ts:gender="neutral"/>
	<circle cx="16.125" cy="9.728" r=".375" ts:skin="eyes" ts:gender="male,female"/>
	<circle cx="19.876" cy="9.728" r=".375" ts:skin="eyes" ts:gender="male,female"/>
	<!-- nose -->
	<use href="defs.svg#nose_neutral1" transform="translate(18 11.063) scale(.4074)" ts:skin="nose" ts:gender="neutral"/>
	<path d="M17.25 10.853h1.5s0 .75-.75.75-.75-.75-.75-.75z" ts:skin="nose" ts:gender="male,female"/>
	<!-- mouth -->
	<use href="defs.svg#mouth_smile_old" transform="translate(18 13.1) scale(0.4074)" ts:skin="nose" ts:gender="neutral"/>
	<path d="M19.5 12.353h-3s0 .75 1.5.75 1.5-.75 1.5-.75z" ts:skin="nose" ts:gender="male,female"/> <!-- color: nose -->
	<!-- hair -->
	<path d="M18 4l-3.924 1.533v3.139c1.831 0 2.236-1.893 2.327-2.737.031.844.639 2.737 5.52 2.737V5.533L18 4z" ts:skin="hair" ts:gender="male,female"/>
	<!-- weights -->
	<rect x="1" y="0" width="2" height="7" rx="1" fill="#292F33"/>
	<rect x="3" y="0" width="2" height="7" rx="1" fill="#292F33"/>
	<rect x="31" y="0" width="2" height="7" rx="1" fill="#292F33"/>
	<rect x="33" y="0" width="2" height="7" rx="1" fill="#292F33"/>
	<!-- belt details -->
	<rect x="19" y="22.399" width=".65" height="2.209" fill="#14171A"/>
	<circle cx="18.500" cy="23.458" r=".167" fill="#14171A"/>
	<circle cx="17.854" cy="23.458" r=".167" fill="#14171A"/>
	<circle cx="17.208" cy="23.458" r=".167" fill="#14171A"/><circle cx="17.208" cy="23.458" r=".167" fill="#14171A"/> <!-- duplicated -->
	<circle cx="16.562" cy="23.458" r=".167" fill="#14171A"/>
	<circle cx="15.917" cy="23.458" r=".167" fill="#14171A"/>
	<circle cx="15.271" cy="23.458" r=".167" fill="#14171A"/>
	<circle cx="14.625" cy="23.458" r=".167" fill="#14171A"/>
	<!-- buckle -->
	<circle cx="16.553" cy="23.458" r=".148" fill="#657786"/>
	<path d="M16.318 23.31h.235v.297h-.235z" fill="#657786"/>
	<path d="M16.729 24.846h-.758v-2.697h.758v.35h-.409v1.997h.409z" fill="#657786"/>
</svg>
