<svg viewBox="0 0 36 36" xmlns="http://www.w3.org/2000/svg">
	<!-- shoe -->
	<path d="M8.211 30.079s.097-.127.175-.426c.078-.299.069-.897.047-.988-.022-.091-.053-.16-.163-.158-.083.001-.759.146-1.144.061-.716-.158-.892-.883-.892-.883s-.452.123-.812.223c-.361.101-.796.279-1.106.372-.265.079-.543.078-.823.041-.279-.036-.496-.105-.563-.116s-.597-.219-.757.317l-.037.159s.871.645 2.209.993 1.646.009 2.511.234 1.355.171 1.355.171z" fill="#292F33" data-gender="neutral,male"/>
	<path d="M6.262 30.488c-.044-.066-.065-.248-.109-.284-.043-.036-.585-.059-.839-.064-.254-.005-.691-.016-1.175-.142s-1.074-.431-1.436-.629-.632-.407-.689-.468c-.057-.061-.033-.075-.02-.106.013-.031.103-.186.103-.186s.214.195.607.407.792.399 1.514.587 1.204.199 1.606.195c.501-.004 1.215.035 1.701.162.375.098.668.056.776.056.025 0 .043.023.036.048l-.167.64c-.011.042-.07.128-.186.122-.114-.004-1.679-.271-1.722-.338z" fill="#292F33" data-gender="neutral,male"/>
	<path d="M7.981 29.995s.097-.127.175-.426.069-.897.047-.988-.053-.16-.163-.158c-.083.001-.759.146-1.144.061-.716-.158-.892-.883-.892-.883s-.452.123-.812.223c-.361.101-.796.279-1.106.372-.265.079-.543.078-.823.041s-.496-.105-.563-.116c-.067-.011-.597-.219-.757.317l-.037.159s.871.645 2.209.993 1.646.009 2.511.234c.866.226 1.355.171 1.355.171z" fill="#292F33" data-gender="female"/>
	<path d="M6.032 30.404c-.044-.066-.065-.248-.109-.284-.043-.036-.585-.059-.839-.064-.254-.005-.691-.016-1.175-.142-.484-.126-1.074-.431-1.436-.629s-.632-.407-.689-.468c-.057-.061-.033-.075-.02-.106.013-.031.103-.186.103-.186s.214.195.607.407.792.399 1.514.587 1.204.199 1.606.195c.501-.004 1.215.035 1.701.162.375.098.668.056.776.056.025 0 .043.023.036.048l-.167.64c-.011.042-.07.128-.186.122-.114-.005-1.678-.272-1.722-.338z" fill="#292F33" data-gender="female"/>
	<!-- pants -->
	<path d="M6.879 28.832c-.656-.086-1.341-.485-1.521-1.095 1.178-1.982 3-7.829 3-7.829.541-1.798 1.213-3.546 2.843-3.443 2.1.133 5.697.533 5.697.533 2.296.13 1.228.904 1.938 1.75.712.845-1.115 2.095-2.611 2.126-2.607.054-3.902-.113-5.428 1.324-.596 2.367-1.706 4.252-2.275 6.63-.799.315-.987.091-1.643.004z" fill="#4289C1" data-gender="neutral,male"/>
	<path d="M6.77 28.689c-.656-.086-1.108-.395-1.51-.897 1.506-2.038 3.136-7.609 3.136-7.609.541-1.798 1.36-3.044 2.992-3.124 2.316-.113 5.772.032 5.772.032 2.296.13.738.727 1.448 1.573.712.845-1.115 2.095-2.611 2.126-2.607.054-3.902-.113-5.428 1.324-.596 2.367-1.706 4.252-2.275 6.63-.48.122-.868.031-1.524-.055z" fill="#4289C1" data-gender="female"/>
	<path d="M24.032 17.279c.193 1.421-.135 2.945-1.22 3.321-1.039.36-3.058.116-3.058.116s-.66.468-.426 1.231c.133.434.314.645.262.692-.046.042-.486.02-.684.027-.528.02-1.114-.115-2.108-.301-.994-.187-1.44-.16-2.522-.359-1.198-.22-2.051-.659-2.491-1.745-.375-.927.091-2.139 1.419-2.764 1.08-.508 4.292-.724 5.498-.712 1.207.011 5.162-.741 5.33.494z" fill="#4289C1" data-gender="neutral,male"/>
	<path d="M23.802 17.195c.193 1.421-.135 2.945-1.22 3.321-1.039.36-3.058.116-3.058.116s-.66.468-.426 1.231c.133.434.314.645.262.692-.046.042-.486.02-.684.027-.528.02-1.114-.114-2.108-.301s-1.44-.16-2.522-.359c-1.198-.22-2.051-.659-2.491-1.745-.375-.927.091-2.139 1.419-2.764 1.08-.508 4.289-.179 5.495-.168s5.166-1.285 5.333-.05z" fill="#4289C1" data-gender="female"/>
	<!-- neck -->
	<path d="M22.162 5.155c2.205-2.215-2.678-2.364-2.678-2.364-.923-.039-.41 1.545-.908 2.349-.342.557.884.962.884.962s.575.036.551.735v.006c-.007.178-.042.387-.147.662-.521 1.362 1.285 2.364 1.805.999.206-.54.181-1.031.133-1.487l-.004-.04c-.072-.677-.181-1.274.364-1.822z" fill="#FFDC5D" data-skin="#F7DECE|#F3D2A2|#D4AB88|#AF7E57|#7C533E" data-gender="neutral"/>
	<path d="M22.316 5.239c2.376-2.023-2.471-2.572-2.471-2.572-.916-.114-.535 1.504-1.097 2.263-.387.526.801 1.03.801 1.03s.569.083.488.777l-.001.006c-.021.177-.074.382-.2.647-.631 1.313 1.085 2.458 1.715 1.142.249-.521.265-1.012.255-1.469l-.001-.041c-.017-.68-.076-1.283.511-1.783z" fill="#FFDC5D" data-skin="#F7DECE|#F3D2A2|#D4AB88|#AF7E57|#7C533E" data-gender="male"/>
	<path d="M22.59 5.288c2.295-2.316-2.801-2.46-2.801-2.46-.964-.038-.424 1.613-.942 2.453-.356.582.925 1.001.925 1.001s.6.036.577.766v.007c-.007.186-.043.404-.151.691-.54 1.423 1.347 2.463 1.887 1.037.213-.564.186-1.077.136-1.552l-.006-.041c-.077-.707-.193-1.329.375-1.902z" fill="#FFDC5D" data-skin="#F7DECE|#F3D2A2|#D4AB88|#AF7E57|#7C533E" data-gender="female"/>
	<!-- head -->
	<path d="M21.455.928C20.11.273 17.97.83 17.513 2.411c-.637 2.207.496 4.206 1.922 4.164 1.496-.044 2.431-.302 3.152-1.782.72-1.48.214-3.21-1.132-3.865z" fill="#FFDC5D" data-skin="#F7DECE|#F3D2A2|#D4AB88|#AF7E57|#7C533E" data-gender="neutral"/>
	<path d="M21.96.974c-1.285-.762-3.537-.411-4.045 1.152-.504 1.552-.455 4.123.968 4.198 1.492.079 3.048.003 3.886-1.41.838-1.414.476-3.178-.809-3.94z" fill="#FFDC5D" data-skin="#F7DECE|#F3D2A2|#D4AB88|#AF7E57|#7C533E" data-gender="male"/>
	<path d="M21.842.878c-1.405-.68-3.719-.115-4.11 1.557-.388 1.661-.109 4.333 1.379 4.285 1.56-.05 3.174-.266 3.921-1.812.748-1.545.215-3.35-1.19-4.03z" fill="#FFDC5D" data-skin="#F7DECE|#F3D2A2|#D4AB88|#AF7E57|#7C533E" data-gender="female"/>
	<!-- hair -->
	<path d="M23.164 1.546c-.612-.98-2.846-1.978-4.396-.919-.996-.254-1.458.676-1.416 1.235.034.447 1.109.645 1.316 1.504.205-.195.289-.622.266-.855.319.359.1 1.221 1.414 1.898 1.27.654.947 1.796.947 1.796s.717-.273 1.242-.792c1.003-.992 1.302-2.787.627-3.867z" fill="#FFAC33" data-skin="#292F33|#FFE51E|#963B22|#60352A|#0B0200" data-gender="neutral"/>
	<path d="M23.439 1.781C22.698.564 21.481-.216 19.225.4c-.919.251-1.279.045-1.429.196-.718.726-.068 1.766.273 1.634 1.082-.417 1.946-.101 2.106.353.16.454-.171 1.169.013 1.204.496.094.494-.407.737-.657.397-.408.847-.068.872.461.02.419-.177 1.095-.86 1.109.29 1.065 1.134 1.511 1.134 1.511s.271.161.925-.735c.655-.896 1.178-2.486.443-3.695z" fill="#FFAC33" data-skin="#292F33|#FFE51E|#963B22|#60352A|#0B0200" data-gender="male"/>
	<path d="M23.453 1.588C22.574.386 21.283-.183 18.944.523c-2.044.617-1.525 2.243-1.042 2.008 1.331-.647 2.128.052 2.699 1.138.228-.495 1.083-.745 1.194.013.126.852-.68 1.158-.593 1.394.029.079-.034-.072 0 0 .431.911 1.22 1.246 1.22 1.246s.297.144.898-.847 1.005-2.693.133-3.887z" fill="#FFAC33" data-skin="#292F33|#FFE51E|#963B22|#60352A|#0B0200" data-gender="female"/>
	<path d="M22.934 2.681c1.968.317 1.157 2.559 1.358 3.601.247 1.283 1.436 1.361 1.436 1.361s-.463-.666-.35-1.611c.156-1.312 1.379-2.377.405-3.613-1.244-1.58-4.072.065-2.849.262z" fill="#FFAC33" data-skin="#292F33|#FFE51E|#963B22|#60352A|#0B0200" data-gender="female"/>
	<!-- shirt -->
	<path d="M24.698 16.173c.029.719.15 1.674-.276 1.567-1.679-.424-5.585-.451-5.585-.451.516-2.766-.579-4.69-.425-6.461.176-2.023 1.61-4.137 2.851-4.059.522.033 1.136.428 1.511.77.278.253.924.961 1.141 1.169 1.106 1.06.124 1.405.327 2.596.444 2.598.427 4.15.456 4.869z" fill="#FA743E" data-gender="neutral"/>
	<path d="M24.698 16.173c.029.719.15 1.674-.276 1.567-1.679-.424-5.438-.168-5.438-.168-.508-1.594-.392-4.069-.566-6.317-.229-2.95 1.585-4.744 2.845-4.485.513.105 1.136.428 1.511.77.278.253.924.961 1.141 1.169 1.106 1.06.124 1.405.327 2.596.444 2.597.427 4.149.456 4.868z" fill="#77B255" data-gender="male"/>
	<path d="M24.353 16.862c.015 1.321-.057 1.777.007 2.351.036.319-1.252-.021-1.954-.176-1.883-.415-3.583-1.221-3.583-1.221.184-1.244.869-3.07-.624-4.823-.455-.535-.375-1.854.369-3.041.828-1.321 1.751-2.535 2.926-2.661.812-.088 1.597.328 2.15 1.2 2.206 1.83.762 1.78.777 3.121.024 2.035-.083 3.929-.068 5.25z" fill="#9268CA" data-gender="female"/>
	<!-- frame -->
	<path d="M10.288 25.363c-.266-.071-.541.088-.612.354l-1.553 5.796c-.071.266.088.541.354.612.266.071.541-.088.612-.354l1.553-5.796c.07-.265-.089-.541-.354-.612z" fill="#DD2E44"/>
	<path d="M13.55000000,20.46100000 c-.274-.024-.518.181-.542.455l-1.015 11.597c-.024.274.181.518.455.542.274.024.518-.181.542-.455l1.015-11.597c.023-.274-.181-.518-.455-.542z" fill="#DD2E44"/>
	<path fill="#DD2E44" d="M13.465 27.092l10.824.95c.274.024.518-.181.542-.455.024-.274-.181-.518-.455-.542l-10.824-.95c-.274-.024-.518.181-.542.455-.024.274.181.518.455.542z"/>
	<path d="M30.103 9.969l-2.954-.521c-.271-.048-.453-.308-.406-.579.048-.271.308-.453.579-.406l2.954.521c.271.048.453.308.406.579-.048.272-.308.454-.579.406z" fill="#DD2E44"/>
	<!-- cushions -->
	<path d="M22.45 22.843l-9.962-.872c-.996-.087-.996-.087-.909-1.083.048-.548.535-.957 1.083-.909l9.962.872c.548.048.957.535.909 1.083-.087.996-.087.996-1.083.909z" fill="#292F33"/>
	<path d="M23.524 20.592c1.431-.206 2.834-.148 2.345.544-.489.692-1.575 1.905-3.418 1.707-1.844-.198.185-2.123 1.073-2.251z" fill="#292F33"/>
	<path d="M27.278 9.454l-.872 9.962c-.087.996-.087.996-1.083.909-.548-.048-.957-.535-.909-1.083l.872-9.962c.048-.548.535-.957 1.083-.909.996.087.996.087.909 1.083z" fill="#292F33"/>
	<path d="M31.088 10.143l-2.615-.467c-.271-.048-.26-.274-.213-.545.048-.271.116-.487.386-.44l2.615.467c.271.048.453.308.406.579-.048.271-.308.454-.579.406z" fill="#292F33"/>
	<!-- armrest -->
	<path d="M24.62 18.519l-7.552-.661c-.755-.066-.755-.066-.69-.812.036-.41.405-.716.82-.68l7.552.661c.415.036.726.402.69.812-.064.746-.064.746-.82.68z" fill="#292F33"/>
	<!-- frame -->
	<path d="M24.288 28.041c-.274-.024-.478-.268-.455-.542l.436-4.981c.024-.274.268-.478.542-.455.274.024.478.268.455.542l-.436 4.981c-.024.275-.268.479-.542.455z" fill="#DD2E44"/>
	<path d="M12.10400000,21.18200000 c1.993.166 2.392 1.218.4 1.039-.883-.079-.962.297-1.163 1.063-.189.721-.456 1.803-.858 3.318-.295 1.112-1.221.712-.977-.257.411-1.63.798-3.05 1.052-3.953.258-.922.502-1.297 1.546-1.21z" fill="#DD2E44"/>
	<path d="M22.964 23.136l-10.958-.959c-.274-.024-.478-.268-.455-.542.024-.274.268-.478.542-.455l10.958.959c.274.024.478.268.455.542-.025.275-.268.479-.542.455z" fill="#DD2E44"/>
	<path d="M22.553 22.096c1.004.088 2.989.261 3.25-2.727s1.258-2.901.996.087-1.909 3.848-4.333 3.636c-1.993-.174-1.906-1.17.087-.996z" fill="#DD2E44"/>
	<path d="M27.714 8.996l-.959 10.958c-.024.274-.268.478-.542.455-.274-.024-.478-.268-.455-.542l.959-10.958c.024-.274.268-.478.542-.455.274.025.479.268.455.542z" fill="#DD2E44"/>
	<!-- back tire -->
	<path d="M24.5 19c-4.694 0-8.5 3.806-8.5 8.5s3.806 8.5 8.5 8.5 8.5-3.806 8.5-8.5-3.806-8.5-8.5-8.5z M24.5,34 c-3.59 0-6.5-2.91-6.5-6.5s2.91-6.5 6.5-6.5 6.5 2.91 6.5 6.5-2.91 6.5-6.5 6.5z" fill="#292F33"/>
	<!-- back wheel -->
	<path d="M24.5 20c-4.142 0-7.5 3.358-7.5 7.5s3.358 7.5 7.5 7.5 7.5-3.358 7.5-7.5-3.358-7.5-7.5-7.5z M24.5,34 c-3.59 0-6.5-2.91-6.5-6.5s2.91-6.5 6.5-6.5 6.5 2.91 6.5 6.5-2.91 6.5-6.5 6.5z" fill="#66757F"/>
	<path d="M31.245 30.817l-6.062-3.5 3.5-6.062-.866-.5-3.5 6.062-6.062-3.5-.5.866 6.062 3.5-3.5 6.062.866.5 3.5-6.062 6.062 3.5z" fill="#66757F"/>
	<path d="M26.924 34.615l-1.812-6.761 6.762-1.812-.259-.966-6.761 1.812-1.812-6.762-.966.259 1.812 6.761-6.762 1.812.259.966 6.761-1.812 1.812 6.762z" fill="#66757F"/>
	<circle cx="24.5" cy="27.5" fill="#66757F" r="1.5"/>
	<!-- footrest -->
	<path d="M8.476 32.125L4.612 31.09c-.266-.071-.425-.347-.354-.612.071-.266.347-.425.612-.354l3.864 1.035c.266.071.426.346.354.612-.071.266-.346.425-.612.354z" fill="#66757F"/>
	<!-- front wheel -->
	<path d="M15.34800000,33.56700000 l-2.165-1.25 1.25-2.165-.866-.5-1.25 2.165-2.165-1.25-.5.866 2.165 1.25-1.25 2.165.866.5 1.25-2.165 2.165 1.25z" fill="#66757F"/>
	<!-- front tire -->
	<path d="M12.5 29C10.567 29 9 30.567 9 32.5s1.567 3.5 3.5 3.5 3.5-1.567 3.5-3.5-1.567-3.5-3.5-3.5z M12.5,35 c-1.381 0-2.5-1.119-2.5-2.5s1.119-2.5 2.5-2.5 2.5 1.119 2.5 2.5-1.119 2.5-2.5 2.5z" fill="#292F33"/>
	<!-- arm -->
	<path d="M22.118 10.597c1.142.988 3.458 2.697 3.436 2.951-.128 1.469.543 3.175.369 4.087-.126.661-.665 1.138-.594 1.495.667-.009.443 1.15.729 1.665.301.542 1.171-.093 1.282-.949.081-.629-.102-1.11-.167-1.752-.093-.915 1.094-3.661.22-5.467-.295-.609-1.531-2.277-3.635-4.122-.595.457-1.64 2.092-1.64 2.092z" fill="#FFDC5D" data-skin="#F7DECE|#F3D2A2|#D4AB88|#AF7E57|#7C533E" data-gender="neutral,male"/>
	<path d="M22.657 10.9c1.111 1.023 3.158 2.426 3.128 2.68-.174 1.464.402 3.203.2 4.11-.147.657-.805 1.117-.745 1.476.667.012.407 1.163.677 1.687.284.551 1.174-.056 1.311-.909.101-.627-.068-1.112-.113-1.757-.064-.918 1.207-3.625.39-5.457-.276-.618-1.167-1.842-3.212-3.751-.608.439-1.636 1.921-1.636 1.921z" fill="#FFDC5D" data-skin="#F7DECE|#F3D2A2|#D4AB88|#AF7E57|#7C533E" data-gender="female"/>
</svg>
