<svg viewBox="0 0 36 36" xmlns="http://www.w3.org/2000/svg">
	<!-- water -->
	<path d="M36 5v27s0 4-4 4H4c-4 0-4-4-4-4v-5s25-2 36-22z" fill="#4289C1"/>
	<!-- surfboard -->
	<path d="M31.844 23.243s2.565-1.635 2.258-2.288c-.309-.654-11.778.99-17.528 2.954-8.627 2.947-13.144 7.522-12.526 8.828.617 1.306 7.602 1.953 16.228-.993 5.752-1.964 15.368-7.524 15.06-8.177-.309-.653-3.492-.324-3.492-.324z" fill="#1C6399"/>
	<path d="M31.474 22.747s2.65-1.619 2.349-2.291c-.303-.673-12.042.782-17.949 2.675C7.01 25.972 2.311 30.555 2.916 31.9c.605 1.345 7.723 2.141 16.585-.699 5.91-1.893 15.833-7.383 15.532-8.055-.303-.673-3.559-.399-3.559-.399z" fill="#A6D388"/>
	<path d="M31.474 22.747s2.507-1.534 2.358-2.235L3.756 29.978c-.722.837-1.019 1.523-.84 1.922.156.348.755.657 1.7.878l30.395-9.566c.003-.02.029-.051.022-.066-.303-.673-3.559-.399-3.559-.399z" fill="#F5F8FA"/>
	<!-- neck -->
	<path d="M15.871 5.765c2.237-2.457-2.957-2.383-2.957-2.383-.983.003-.362 1.661-.853 2.538-.337.607.985.979.985.979s.612.011.62.755v.007c.001.189-.026.413-.124.71-.489 1.472 1.477 2.449 1.965.975.193-.584.143-1.104.071-1.586l-.007-.043c-.109-.715-.253-1.344.3-1.952z" fill="#FFDC5D" data-skin="#F7DECE|#F3D2A2|#D4AB88|#AF7E57|#7C533E" data-gender="neutral"/>
	<path d="M15.882 5.757c2.318-2.723-3.266-2.458-3.266-2.458-1.057.038-.329 1.799-.827 2.761-.341.665 1.095 1.018 1.095 1.018s.659-.01.694.79v.007c.008.204-.013.445-.108.769-.473 1.601 1.677 2.582 2.149.978.187-.635.114-1.193.02-1.708l-.009-.046c-.144-.766-.322-1.438.252-2.111z" fill="#FFDC5D" data-skin="#F7DECE|#F3D2A2|#D4AB88|#AF7E57|#7C533E" data-gender="male,female"/>
	<!-- head -->
	<path d="M14.919 1.309c-1.46-.632-3.707.061-4.116 1.762-.572 2.374.726 4.444 2.239 4.331 1.586-.118 2.568-.436 3.263-2.042.695-1.605.074-3.419-1.386-4.051z" fill="#FFDC5D" data-skin="#F7DECE|#F3D2A2|#D4AB88|#AF7E57|#7C533E" data-gender="neutral"/>
	<path d="M14.698.997c-1.593-.627-4.077.182-4.365 2.043-.287 1.848.239 4.747 1.863 4.572 1.702-.184 3.448-.554 4.138-2.307.69-1.752-.043-3.681-1.636-4.308z" fill="#FFDC5D" data-skin="#F7DECE|#F3D2A2|#D4AB88|#AF7E57|#7C533E" data-gender="male,female"/>
	<!-- arm left -->
	<path d="M10.999 8.402c-1.666.993-3.368 3.049-3.98 3.914-.36.283-.686.614-.897.736-.389.223-2.154 1.432-3.334 2.005-.354.166-1.458.438-1.992.781-.432.278-.845.262-.727.612.102.302.508.216 1.227.132.719-.084 1.929-.289 2.325-.566.8-.531 3.347-1.156 4.597-2.031.221-.155 2.385-2.163 2.781-2.741.543-1.515.282-2.556 0-2.842z" fill="#FFDC5D" data-skin="#F7DECE|#F3D2A2|#D4AB88|#AF7E57|#7C533E" data-gender="neutral,female"/>
	<path d="M2.789 15.057c-.354.166-1.458.438-1.992.781-.432.278-.845.262-.727.612.102.302.508.216 1.227.132.719-.084 1.929-.289 2.325-.566l-.833-.959z " fill="#FFDC5D" data-skin="#F7DECE|#F3D2A2|#D4AB88|#AF7E57|#7C533E" data-gender="male"/>
	<!-- arm right -->
	<path d="M27.75500000,12.23300000 c-.589-.235-1.348-.276-2.104-.386-1.198-.175-2.852-.765-3.529-1.086-.825-.495-2.577-1.661-3.012-1.948S18.093 8.128 17.375 8h-.156c.385.542.609 1.159.748 2.841 0 0 3.319 1.661 3.595 1.753 1.125.375 3.182.366 4.344.512.602.076 1.021-.014 1.499-.047.722-.049 1.38-.055 1.422-.371.05-.367-.595-.265-1.072-.455z" fill="#FFDC5D" data-skin="#F7DECE|#F3D2A2|#D4AB88|#AF7E57|#7C533E" data-gender="neutral,female"/>
	<path d="M25.65100000,11.84600000 c.379.095 1.515.151 2.104.386.477.19 1.122.088 1.073.455-.043.316-.701.317-1.422.371-.722.054-1.949.085-2.39-.113l.635-1.099z" fill="#FFDC5D" data-skin="#F7DECE|#F3D2A2|#D4AB88|#AF7E57|#7C533E" data-gender="male"/>
	<!-- leg left -->
	<path d="M16.261 28.432c-.378-.1-.971-.58-1.154-.912-.661-1.197.171-3.476.19-4.777.005-.37-2.213-1.974-2.86-1.016s.991 4.719.812 6.193c-.04.326-.227.814-.126 1.015.101.201.817.74 1.301.839 1.237.255 2.491-.342 2.644-.517.222-.254-.428-.725-.807-.825z " fill="#FFDC5D" data-skin="#F7DECE|#F3D2A2|#D4AB88|#AF7E57|#7C533E" data-gender="neutral"/>
	<path d="M16.261 28.432c-.378-.1-.67-.432-.807-.785-.059-.152-.245-.89-.245-.89l-2.284.284c.043.214.114.512.185.94.054.324-.089.753.012.954.101.201.817.74 1.301.839 1.237.255 2.491-.342 2.644-.517.223-.254-.427-.725-.806-.825z " fill="#FFDC5D" data-skin="#F7DECE|#F3D2A2|#D4AB88|#AF7E57|#7C533E" data-gender="male"/>
	<path d="M16.261 28.432c-.378-.1-.67-.432-.807-.785-.059-.152-.365-1.001-.365-1.001H13.27c.043.214-.037.696-.134 1.197-.062.322-.114.892-.013 1.093.101.201.817.74 1.301.839 1.237.255 2.491-.342 2.644-.517.222-.255-.428-.726-.807-.826z " fill="#FFDC5D" data-skin="#F7DECE|#F3D2A2|#D4AB88|#AF7E57|#7C533E" data-gender="female"/>
	<!-- leg right -->
	<path d="M23.77100000,25.21000000 c-.334-.065-.85-.469-1.016-.753-.29-.498.157-3.642.127-4.946-.35-.234-2.393.926-2.393.926-.437 1.815.817 2.863.659 4.262-.032.284-.17.964-.071 1.132.099.169.752.594 1.178.652 1.088.148 2.141-.443 2.264-.604.178-.234-.414-.604-.748-.669z " fill="#FFDC5D" data-skin="#F7DECE|#F3D2A2|#D4AB88|#AF7E57|#7C533E" data-gender="neutral"/>
	<path d="M23.77100000,25.21000000 c-.334-.065-.607-.336-.746-.634-.06-.129-.22-.651-.22-.651l-2.009.274c.05.183.129.438.216.804.066.278-.033.659.066.827.099.169.752.594 1.178.652 1.088.148 2.141-.443 2.264-.604.177-.233-.415-.603-.749-.668z" fill="#FFDC5D" data-skin="#F7DECE|#F3D2A2|#D4AB88|#AF7E57|#7C533E" data-gender="male"/>
	<path d="M23.77100000,25.21000000 c-.334-.065-.607-.336-.746-.634-.06-.129-.22-.651-.22-.651l-1.609.22c.05.183-.027.417-.008.793.017.335-.058.748.042.917.099.169.601.571 1.027.629 1.088.148 2.141-.443 2.264-.604.176-.235-.416-.605-.75-.67z" fill="#FFDC5D" data-skin="#F7DECE|#F3D2A2|#D4AB88|#AF7E57|#7C533E" data-gender="female"/>
	<!-- hair -->
	<path d="M16.763 1.884c-.697-1.012-3.117-1.965-4.713-.767-1.07-.222-1.517.787-1.445 1.379.057.473 1.209.633 1.469 1.535.209-.217.277-.674.242-.921.356.366.165 1.292 1.592 1.949 1.38.634 1.091 1.862 1.091 1.862s.749-.324 1.281-.9c1.019-1.101 1.251-3.022.483-4.137z" fill="#FFAC33" data-skin="#292F33|#FFE51E|#963B22|#60352A|#0B0200" data-gender="neutral"/>
	<path d="M16.518 1.64C15.457.398 13.998-.117 11.499.849c-2.183.844-1.366 2.72-.972 2.282.628-.696 1.477-.483 1.477-.483l.66 1.944s.314.189.445-.473 1.017-.729 1.308-.198c.452.826-.139.984-.193 1.478-.17 1.562 1.56 1.502 1.56 1.502s.337.132.912-1.001c.575-1.132.876-3.027-.178-4.26z" fill="#FFAC33" data-skin="#292F33|#FFE51E|#963B22|#60352A|#0B0200" data-gender="male"/>
	<path d="M16.518 1.64C15.457.398 13.998-.117 11.499.849c-2.183.844-1.481 2.579-.972 2.282 1.869-1.09 2.899.514 3.697 2.269.523 1.151 1.56 1.502 1.56 1.502s.337.132.912-1.001.876-3.028-.178-4.261z" fill="#FFAC33" data-skin="#292F33|#FFE51E|#963B22|#60352A|#0B0200" data-gender="female"/>
	<path d="M16.188 2.219c.875-1.312 2.774-1.438 3.637-.469S21.01 4 22.163 4c.368 0 .552.344-.212.688S18.062 5.719 16.875 3.5c-.531-.656-.687-1.281-.687-1.281z" fill="#FFAC33" data-skin="#292F33|#FFE51E|#963B22|#60352A|#0B0200" data-gender="female"/>
	<!-- wetsuit -->
	<path d="M23.042 19.417c-.229-.981-1.5-2.047-2.677-2.948-1.177-.901-2.375-1.438-2.375-1.438.034-.487-.172-1.295-.089-2.016.099-.853.26-1.689.26-1.689s1.633.727 3.402 1.267c.302-.363.618-1.395.559-1.833-.903-.841-2.483-1.754-2.919-2.042s-.837-.637-1.828-.718h-1.639s-.099.856-.749.918C14.337 8.98 13.56 8 13.56 8l-1.748.167c-2.198.338-4 3.024-4.794 4.151-.36.283-.36.283-.526.447.927.602 2.128 1.035 2.128 1.035 1.188-1.024 2.078-1.535 2.474-2.113 0 0 .659 1.356.912 2.388.253 1.032.202 2.925.202 2.925s-.005 1.674.058 1.94c.088.372.353 1.449.353 1.884 0 0-.606 1.335-.302 2.484.403 1.529.885 3.468.927 4.008 1.412 0 1.667-.359 1.667-.359s.02-.839.134-1.778c.069-.572.269-1.544.269-2.393 0-.849.217-1.424.343-1.776s.601-1.452.677-2.052c.02-.162.008-.374-.022-.6.534.292 1.493.792 2.084.954.849.232 1.494.595 1.718.79s.376.335.376.335-.201.557-.141 1.516c.055.877.693 1.658.8 2.703.893-.133 1.53-.499 1.53-.499s.079-1.336.098-1.916c.023-.706.412-2.193.265-2.824z" fill="#292F33" data-gender="neutral"/>
	<path d="M25.676 11.812c-.242-.036-2.877-.731-3.554-1.052-.903-.841-2.483-1.754-2.919-2.042s-.837-.637-1.828-.718h-1.639l-.751.766L13.56 8l-1.748.167c-2.198.338-4 3.024-4.794 4.151-.36.283-.685.614-.896.735-.389.223-2.813 1.505-3.334 2.005l.836 1.068c.312-.281 1.748-.596 2.748-1.046.396-.178 1.452-.296 1.982-.81l.017.017c1.396-.979 2.326-2.021 2.722-2.599L12.208 17s-.005 1.674.058 1.94c.088.372.353 1.449.353 1.884 0 0-.606 1.335-.302 2.484.403 1.529.611 3.468.653 4.008 1.412 0 2.24-.56 2.24-.56s-.278-.638-.165-1.577c.069-.572.58-1.601.58-2.45 0-.849-.095-1.367.031-1.719s.601-1.452.677-2.052c.02-.162.008-.374-.022-.6.534.292 1.493.792 2.084.954.849.232 1.494.595 1.718.79s.376.335.376.335-.201.557-.141 1.516c.055.877.433 1.658.54 2.703.893-.133 1.966-.567 1.966-.567s-.096-1.268-.078-1.848c.023-.706.412-2.193.265-2.824-.229-.981-1.5-2.047-2.677-2.948-1.177-.901-2.375-1.438-2.375-1.438.365-2.469-.005-3.781-.005-3.781s1.81.804 3.578 1.344c.577.285 2.27.562 3.989.5.432-.016.452-1.233.125-1.282z" fill="#292F33" data-gender="male"/>
	<path d="M22.777 22.241c.023-.706.412-2.193.265-2.824-.229-.981-1.5-2.047-2.677-2.948-1.177-.901-2.375-1.438-2.375-1.438-.302-1.896.242-2.896.235-3.716-.006-.684-.433-2.648-1.006-3.315h-1.565s.246 1.013-.647 1.112C14.112 9.211 13.56 8 13.56 8l-1.748.167c-.278.043-.549.125-.813.236.376.639.23 2.285 0 2.841.823 1.188 1.536 3.003 1.146 5.256-.346 2.002.473 3.889.473 4.324 0 0-.503 1.749-.2 2.898.403 1.529.768 2.884.81 3.423 1.412 0 1.981-.39 1.981-.39s-.278-.638-.165-1.577c.069-.572.351-1.455.351-2.304 0-.849-.022-1.461.104-1.812s.52-1.576.812-2.704c.534.292 1.493.792 2.084.954.849.232 1.494.595 1.718.79s.376.335.376.335-.07.625-.01 1.583c.055.877.53 1.551.636 2.596.893-.133 1.739-.528 1.739-.528s-.096-1.267-.077-1.847z" fill="#292F33" data-gender="female"/>
	<!-- outline -->
	<path d="M7.192 13.168c.795-1.126 3.067-4.339 5.508-4.55 0 0 1.118 1.459 2.565 1.235 1.447-.224 1.482-1.318 1.482-1.318l1.727.149c.494.04.841.148 1.12.281-.163-.101-.304-.189-.391-.246-.435-.287-.837-.638-1.828-.719h-1.639s-.309.699-.751.766S13.56 8 13.56 8l-1.748.167c-2.678.421-4.566 3.941-5.32 4.598.106.104.456.283.7.403z" fill="#67757F" data-gender="neutral"/>
	<path d="M13.762 27.297c-.402-1.36-1.283-4.497-.45-6.056.075-.368-.23-1.357-.318-1.729-.063-.266-.103-2.438-.072-2.717 3.859-.123 5.068-1.763 5.068-1.763s-2.139 1.191-5.354.57c.174-1.719-1.134-4.337-1.134-4.337-.213-.025-.265.168-.408.424 0 0 .774 1.865.912 2.718.137.852.202 2.593.202 2.593s-.005 1.674.058 1.94c.088.372.353 1.449.353 1.884-.952 1.783-.099 2.98.625 6.492.169.008.336.008.518-.019z M21.08200000,22.73500000 c-.06-.958.024-1.639-.072-1.843-.096-.204-.52-.455-.52-.455s-.201.557-.141 1.516c.055.877.69 1.734.8 2.703.309-.046.406-.073.706-.161-.613-.261-.735-1.154-.773-1.76z" fill="#67757F" data-gender="neutral"/>
	
	<path d="M7.265 13.194c.795-1.126 2.994-4.365 5.435-4.576 0 0 1.118 1.459 2.565 1.235 1.447-.224 1.482-1.318 1.482-1.318l1.727.149c.494.04.841.148 1.12.281-.163-.101-.304-.189-.391-.246-.435-.287-.837-.638-1.828-.719h-1.639l-.751.766L13.56 8l-1.748.167c-2.198.338-4 3.024-4.794 4.151-.36.283-.685.614-.896.735-.389.223-2.813 1.505-3.334 2.005l.288.368c1.224-.797 3.829-1.949 4.189-2.232z M23.22100000,11.44400000 c.453.215 1.771.594 2.674.834-.016-.24-.089-.446-.219-.465-.2-.03-2.502-.686-3.513-1.033.212.162.682.465 1.058.664z " fill="#67757F" data-gender="male"/>
	<path d="M13.135 24.147c-.303-1.149.176-2.906.176-2.906 0-.435-.23-1.357-.318-1.729-.063-.266-.103-2.438-.072-2.717 3.859-.123 5.068-1.763 5.068-1.763s-2.21 1.309-5.224.906c-.347-.718-1.03-4.737-1.03-4.737-.213-.025-.499.231-.642.487L12.208 17s-.005 1.674.058 1.94c.088.372.353 1.449.353 1.884 0 0-.606 1.335-.302 2.484.403 1.529.611 3.468.653 4.008.386 0 .724-.044 1.018-.104-.688-.618-.566-1.979-.853-3.065z M21.08200000,22.73500000 c-.06-.958.024-1.639-.072-1.843-.096-.204-.52-.455-.52-.455s-.201.557-.141 1.516c.055.877.433 1.658.54 2.703.309-.046.638-.128.938-.216-.613-.262-.707-1.099-.745-1.705z" fill="#67757F" data-gender="male"/>
	
	<path d="M12.375 8.594l.904-.086s1.202 1.373 2.096 1.274c.894-.099.841-1.354.841-1.354h1.269c-.085-.168-.173-.319-.266-.428h-1.565s.246 1.013-.647 1.112C14.112 9.211 13.56 8 13.56 8l-1.748.167c-.278.043-.549.125-.813.236.077.131.128.311.165.509.346-.118.973-.282 1.211-.318z " fill="#67757F" data-gender="female"/>
	<path d="M12.981,24.149 c-.303-1.149.2-2.898.2-2.898 0-.435-.798-2.791-.452-4.793 4-.021 5.26-1.427 5.26-1.427s-2.719 1.26-5.201.533c-.074-1.788-.788-3.661-1.707-4.579-.025.1-.053.188-.082.258.823 1.188 1.536 3.003 1.146 5.256-.346 2.002.473 3.889.473 4.324 0 0-.503 1.749-.2 2.898.403 1.529.768 2.884.81 3.423.178 0 .342-.006.494-.017-.129-.672-.421-1.766-.741-2.978z M21.042,22.448 c-.06-.958.01-1.583.01-1.583s-.151-.141-.376-.335c-.068-.059-.186-.136-.326-.218l.139.126s-.07.625-.01 1.583c.055.877.53 1.551.636 2.596.158-.024.313-.057.464-.093-.175-.763-.492-1.357-.537-2.076z" fill="#67757F" data-gender="female"/>
</svg>
