<svg viewBox="0 0 36 36" xmlns="http://www.w3.org/2000/svg" xmlns:ts="data:,a">
	<!-- back hair -->
	<use href="defs.svg#hair_neutral1" x="18" y="26" ts:skin="hair" ts:gender="neutral"/>
	<use href="defs.svg#hair_back_female_old" x="18" y="26" ts:skin="hair" ts:gender="female"/>
	<!-- head -->
	<use href="defs.svg#face_neutral1" x="18" y="26" ts:skin="skin" ts:gender="neutral"/>
	<path d="M21 25.477c3.493-1.237 6-4.56 6-8.477v-.433c.96-.051 1.729-1.304 1.729-2.852 0-1.548-.769-2.801-1.729-2.852V7H9v3.863c-.96.051-1.729 1.304-1.729 2.852 0 1.548.77 2.801 1.729 2.852V17c0 3.917 2.507 7.24 6 8.477V27h6v-1.523z" ts:skin="skin" ts:gender="male"/>
	<use href="defs.svg#face_female_old" x="18" y="24" ts:skin="skin" ts:gender="female"/>
	<!-- hair -->
	<path d="M18 .823c-7.019 0-10.139 4.684-10.139 8.588 0 3.903 1.343 4.986 1.56 3.903.78-3.903 3.12-5.101 3.12-5.101 4.68 3.904 3.9.781 3.9.781 4.679 4.684 2.34 0 2.34 0 1.56 1.562 6.239 1.562 6.239 1.562s.78 1.198 1.559 2.759c.78 1.562 1.56 0 1.56-3.903 0-3.905-3.9-8.589-10.139-8.589z" ts:skin="hair" ts:gender="male"/>
	<!-- body/arms -->
	<path d="M32 6.625L29 5l-2 1.625s3 7.25 3 11.125S26.5 27 26.5 27h-17S6 21.625 6 17.75 9 6.625 9 6.625L7 5 4 6.625S0 13.75 0 17.75 5.5 36 5.5 36h25S36 21.75 36 17.75 32 6.625 32 6.625z" fill="#FA743E" ts:gender="neutral"/>
	<path d="M32 6.625L29 5l-2 1.625s3 7.25 3 11.125-3.999 9.249-4 9.25H10c-.001-.001-4-5.375-4-9.25S9 6.625 9 6.625L7 5 4 6.625S0 13.75 0 17.75 5 36 5 36h26s5-14.25 5-18.25-4-11.125-4-11.125z" fill="#4289C1" ts:gender="male"/>
	<path d="M32 6.625L29 5l-2 1.625s3 7.25 3 11.125S27 27 27 27H9s-3-5.375-3-9.25S9 6.625 9 6.625L7 5 4 6.625S0 13.75 0 17.75 6 36 6 36h24s6-14.25 6-18.25-4-11.125-4-11.125z" fill="#9268CA" ts:gender="female"/>
	<!-- hands -->
	<path d="M19.240,2.396 c.042-.521.593-.727 1.146-.708 0 0 5.456.311 7.521 1.271C30.522 4.174 32 6.625 32 6.625h-5S25.917 5.104 25.062 4.5c-.881-.623-4.222-1.215-4.719-1.312s-1.145-.271-1.103-.792z M16.760,2.396 c-.042-.521-.593-.727-1.146-.708 0 0-5.456.311-7.521 1.271C5.478 4.174 4 6.625 4 6.625h5s1.083-1.521 1.938-2.125c.881-.623 4.222-1.215 4.719-1.312.496-.098 1.145-.271 1.103-.792z" ts:skin="skin"/>
	<!-- neck -->
	<path d="M15 22 h6 v6 a 3,3 0 01 -6,0 z" ts:skin="skin"/>	
	
	<!-- eyes -->
	<use href="defs.svg#eyes_male" x="18" y="14.5" ts:skin="eyes2"/>
	<!-- nose -->
	<rect x="16.5" y="18.5" width="3" height="1" rx="0.5" ts:skin="nose"/>
	<!-- mouth -->
	<path d="M22 21h-8s1 2 4 2 4-2 4-2z " ts:skin="mouth" ts:gender="neutral,female"/>
	<path d="M14 22h8s-1 2-4 2-4-2-4-2z " ts:skin="mouth" ts:gender="male"/>
</svg>
