<svg viewBox="0 0 36 36" xmlns="http://www.w3.org/2000/svg">
	<!-- back steam -->
	<circle cx="4.5" cy="25.5" fill="#E1E8ED" r="4.5"/>
	<circle cx="25.5" cy="20.5" fill="#E1E8ED" r="5.5"/>
	<circle cx="31" cy="26.5" fill="#E1E8ED" r="5"/>
	<circle cx="12" cy="24" fill="#E1E8ED" r="5"/>
	<path d="M33 30c-1.657 0-3 1.343-3 3H6c0-1.657-1.343-3-3-3s-3 1.343-3 3 1.343 3 3 3h29v-.184c.314.112.647.184 1 .184 1.657 0 3-1.343 3-3s-1.343-3-3-3z" fill="#E1E8ED"/>
	<path d="M0 25.5h9V33H0z" fill="#E1E8ED"/>
	<path d="M20 23h9v4h-9z M31.00000000,26.50000000 h5V33h-5z" fill="#E1E8ED"/>
	<!-- back hair -->
	<path d="M17.945 3.978c4.105 0 10.947 2.053 10.947 10.947 0 8.896 0 10.948-2.053 10.948s-4.79-2.053-8.895-2.053c-4.105 0-6.785 2.053-8.895 2.053-2.287 0-2.053-8.211-2.053-10.948.001-8.894 6.844-10.947 10.949-10.947" fill="#FFAC33" data-skin="#292F33|#FFE51E|#963B22|#60352A|#0B0200" data-gender="female"/>
	<path d="M21.33 3.975c-1.722-.557-5.775-.405-6.788.912-2.634.051-5.724 2.431-6.129 5.572-.401 3.108.493 4.552.81 6.889.36 2.648 1.849 3.495 3.039 3.85 1.712 2.262 3.533 2.166 6.59 2.166 5.969 0 8.812-3.994 9.063-10.777.153-4.104-2.254-7.211-6.585-8.612z" fill="#FFAC33" data-skin="#292F33|#FFE51E|#963B22|#60352A|#0B0200" data-gender="neutral"/>
	<!-- back towel -->
	<path d="M23.35 20c1.014.324 2.845 1.15 2.65 2.941 1.924.357 2.306 1.966 2.436 2.907.248 1.79-7.436-.198-7.436-.198l-1-3.482L23.35 20z M12.97000000,20.50000000 c-.769.185-2.749.5-3.64 2.793-1.99 0-2.33 2.02-2.33 3.538 0 2.253 7.336 1.955 8.495.678 1.158-1.277.784-5.36.784-5.36L12.97 20.5z" fill="#77B255" data-gender="male"/>
	<!-- body -->
	<path d="M31 36v-4.5c0-3.314-3.56-5.5-6.875-5.5h-12C8.812 26 5 28.186 5 31.5V36h26z" fill="#FFDC5D" data-skin="#F7DECE|#F3D2A2|#D4AB88|#AF7E57|#7C533E" data-gender="neutral,female"/>
	<path d="M32 36v-4c0-3.314-2.685-6-6-6H10c-3.313 0-6 2.686-6 6v4h28z" fill="#FFDC5D" data-skin="#F7DECE|#F3D2A2|#D4AB88|#AF7E57|#7C533E" data-gender="male"/>
	<!-- neck -->
	<path d="M15.442 21.658v5.116c0 1.413 1.145 2.558 2.558 2.558 1.413 0 2.558-1.145 2.558-2.558v-5.116h-5.116z" fill="#FFDC5D" data-skin="#F7DECE|#F3D2A2|#D4AB88|#AF7E57|#7C533E" data-gender="neutral"/>
	<path d="M13.667 27.122L18 31.001l4.316-2.627L22 22h-8z" fill="#FFDC5D" data-skin="#F7DECE|#F3D2A2|#D4AB88|#AF7E57|#7C533E" data-gender="male"/>
	<path d="M14.5 26c1 1.982 2.792 4.5 3.5 4.5s2.512-2.549 3.5-4.5v-3.591h-7V26z" fill="#FFDC5D" data-skin="#F7DECE|#F3D2A2|#D4AB88|#AF7E57|#7C533E" data-gender="female"/>
	<path d="M15.442 24.698c.713.805 1.597 1.024 2.558 1.024.961 0 1.844-.219 2.558-1.024v-2.047h-5.116v2.047z" fill="#F9CA55" data-skin="#EEC2AD|#E2C196|#CC9B7A|#9B6A49|#664131" data-gender="neutral"/>
	<path d="M15.442 24.986L12.125 26c-2.062 0-4.316.847-5.725 2.285-.249.522-.4 1.099-.4 1.715v6h16.422s-4.686-4.014-6.98-11.014z" fill="#F9CA55" data-skin="#EEC2AD|#E2C196|#CC9B7A|#9B6A49|#664131" data-gender="neutral"/>
	<path d="M14 24c1.216 1.374 2.355 1.719 3.996 1.719 1.639 0 2.787-.346 4.004-1.719v-4h-8v4z" fill="#F9CA55" data-skin="#EEC2AD|#E2C196|#CC9B7A|#9B6A49|#664131" data-gender="male"/>
	<path d="M14.322 24.088c1.022 1.155 2.29 1.468 3.668 1.468 1.379 0 2.647-.312 3.67-1.468v-2.937h-7.338v2.937z" fill="#F9CA55" data-skin="#EEC2AD|#E2C196|#CC9B7A|#9B6A49|#664131" data-gender="female"/>
	<!-- face -->
	<path d="M24.744 12.876c-.578-.8-1.317-1.444-2.938-1.672.608.279 1.19 1.241 1.266 1.773.076.532.152.963-.329.431-1.928-2.131-4.027-1.292-6.108-2.593C15.182 9.906 14.74 8.9 14.74 8.9s-.177 1.342-2.381 2.71c-.639.397-1.401 1.279-1.824 2.583-.304.937-.21 1.773-.21 3.201 0 4.169 3.436 7.674 7.674 7.674s7.674-3.536 7.674-7.674c.001-2.593-.27-3.606-.929-4.518z" fill="#FFDC5D" data-skin="#F7DECE|#F3D2A2|#D4AB88|#AF7E57|#7C533E" data-gender="neutral"/>
	<path d="M11.444 13.936c0 1.448-.734 2.622-1.639 2.622s-1.639-1.174-1.639-2.622.734-2.623 1.639-2.623c.905-.001 1.639 1.174 1.639 2.623m16.389 0c0 1.448-.733 2.622-1.639 2.622-.905 0-1.639-1.174-1.639-2.622s.733-2.623 1.639-2.623c.906-.001 1.639 1.174 1.639 2.623" fill="#FFDC5D" data-skin="#F7DECE|#F3D2A2|#D4AB88|#AF7E57|#7C533E" data-gender="male"/>
	<path d="M9.477 14.96c0-5.589 3.816-10.121 8.523-10.121s8.522 4.532 8.522 10.121S22.707 25.081 18 25.081c-4.707-.001-8.523-4.532-8.523-10.121" fill="#FFDC5D" data-skin="#F7DECE|#F3D2A2|#D4AB88|#AF7E57|#7C533E" data-gender="male"/>
	<path d="M9.734 14.627c0-5.834 3.676-10.563 8.211-10.563 4.533 0 8.209 4.73 8.209 10.563s-3.676 10.285-8.209 10.285c-4.535 0-8.211-4.452-8.211-10.285" fill="#FFDC5D" data-skin="#F7DECE|#F3D2A2|#D4AB88|#AF7E57|#7C533E" data-gender="female"/>
	<!-- hair -->
	<path d="M18 1.48c5.648 0 9.178 4.168 9.178 7.641s-.706 4.863-1.412 3.473l-1.412-2.778s-4.235 0-5.647-1.39c0 0 2.118 4.168-2.118 0 0 0 .706 2.779-3.53-.694 0 0-2.118 1.389-2.824 4.862-.196.964-1.412 0-1.412-3.473C8.822 5.648 11.646 1.48 18 1.48" fill="#FFAC33" data-skin="#292F33|#FFE51E|#963B22|#60352A|#0B0200" data-gender="male"/>
	<path d="M7.735 17.909c-.021-1-.044-.224-.044-.465 0-3.422 2.053.494 2.053-1.943 0-2.439 1.368-2.683 2.736-4.051.684-.685 2.053-2.026 2.053-2.026s3.421 2.067 6.158 2.067c2.736 0 5.474 1.375 5.474 4.112 0 2.736 2.053-1.584 2.053 1.837 0 .244-.023-.531-.04.469h.719c.006-2 .006-1.924.006-3.202C28.902 5.812 22.06 2.5 17.954 2.5 13.85 2.5 7.007 5.757 7.007 14.652c0 .793-.02 1.257.008 3.257h.72z" fill="#FFAC33" data-skin="#292F33|#FFE51E|#963B22|#60352A|#0B0200" data-gender="female"/>
	<!-- eyes -->
	<path d="M14.589 16.542c-.471 0-.853-.382-.853-.853v-.853c0-.471.382-.853.853-.853s.853.382.853.853v.853c0 .471-.382.853-.853.853z M21.41100000,16.54200000 c-.471 0-.853-.382-.853-.853v-.853c0-.471.382-.853.853-.853s.853.382.853.853v.853c-.001.471-.382.853-.853.853z" fill="#662113" data-skin="#662113|#662113|#662113|#662113|#000000" data-gender="neutral"/>
	<path d="M14 15c-.55 0-1-.45-1-1v-1c0-.55.45-1 1-1s1 .45 1 1v1c0 .55-.45 1-1 1m8 0c-.55 0-1-.45-1-1v-1c0-.55.45-1 1-1s1 .45 1 1v1c0 .55-.45 1-1 1" fill="#662113" data-skin="#662113|#662113|#662113|#662113|#000000" data-gender="male"/>
	<path d="M14.608 16.796c-.465 0-.846-.381-.846-.847v-.845c0-.465.381-.846.846-.846.466 0 .847.381.847.846v.845c0 .466-.381.847-.847.847m6.765 0c-.465 0-.846-.381-.846-.847v-.845c0-.465.381-.846.846-.846.465 0 .846.381.846.846v.845c0 .466-.381.847-.846.847" fill="#662113" data-skin="#662113|#662113|#662113|#662113|#000000" data-gender="female"/>
	<!-- nose/mouth -->
	<path d="M17.945 22.452c-1.606 0-2.447-.794-2.537-.885-.268-.267-.268-.7 0-.967.266-.265.692-.267.961-.007.035.032.551.491 1.576.491 1.038 0 1.555-.473 1.576-.492.273-.256.703-.248.963.02.26.269.26.691-.004.955-.089.091-.929.885-2.535.885m.891-3.043h-1.69c-.233 0-.423-.19-.423-.423v-.153c0-.233.189-.424.423-.424h1.69c.233 0 .424.19.424.424v.153c0 .234-.191.423-.424.423" fill="#C1694F" data-skin="#C1694F|#C1694F|#C1694F|#915A34|#3D2E24" data-gender="neutral"/>
	<path d="M18.75 17.75h-1.5c-.413 0-.75-.337-.75-.75s.337-.75.75-.75h1.5c.413 0 .75.337.75.75s-.337.75-.75.75" fill="#C1694F" data-skin="#C1694F|#C1694F|#C1694F|#915A34|#3D2E24" data-gender="male"/>
	<path d="M18 21.802c-2.754 0-3.6-.705-3.741-.848-.256-.256-.256-.671 0-.927.248-.248.646-.255.902-.023.052.037.721.487 2.839.487 2.2 0 2.836-.485 2.842-.49.256-.255.657-.243.913.015.256.256.242.683-.014.938-.141.143-.987.848-3.741.848" fill="#C1694F" data-skin="#C1694F|#C1694F|#C1694F|#915A34|#3D2E24" data-gender="male"/>
	<path d="M18.836 19.409h-1.69c-.233 0-.423-.19-.423-.423v-.153c0-.233.189-.424.423-.424h1.69c.233 0 .424.19.424.424v.153c0 .234-.191.423-.424.423" fill="#C1694F" data-skin="#C1694F|#C1694F|#C1694F|#915A34|#3D2E24" data-gender="female"/>
	<path d="M17.945 22.452c-1.606 0-2.447-.794-2.537-.885-.268-.267-.268-.7 0-.967.266-.265.692-.267.961-.007.035.032.551.491 1.576.491 1.038 0 1.555-.473 1.576-.492.273-.256.703-.248.963.02.26.269.26.691-.004.955-.089.091-.929.885-2.535.885" fill="#DF1F32" data-gender="female"/>
	<!-- bathrobe -->
	<path d="M24.125 26h-1.567c-1.62 7.571-6.822 10-6.822 10H31v-4.5c0-3.314-3.56-5.5-6.875-5.5z" fill="#DD551F" data-gender="neutral"/>
	<path d="M15.736 36h6.553s-.784-.695-1.311-1.355C19.506 35.539 15.736 36 15.736 36z" fill="#C63900" data-gender="neutral"/>
	<path d="M24.558 26c-.777 0-2.81-1-4-1-1.62 7.571-4.822 11-4.822 11h4s3.202-2.429 4.822-10z" fill="#FA743E" data-gender="neutral"/>
	<path d="M13.442 26h-1.317C8.812 26 5 28.186 5 31.5V36h15.422s-4.686-3-6.98-10z" fill="#FA743E" data-gender="neutral"/>
	<path d="M18.529 31.351C17.645 33.209 15.736 36 15.736 36h4.047s.639-.581 1.196-1.355c-.832-1.033-1.9-2.426-2.45-3.294z" fill="#DD551F" data-gender="neutral"/>
	<path d="M15.442 25c-1.047 0-3.153 1-4 1 2.295 7 4.98 10 4.98 10h4s-2.686-4-4.98-11z" fill="#FA8C56" data-gender="neutral"/>
	<!-- towel on neck -->
	<path d="M13.758 25.712c-.269 3.395.314 5.641.636 6.672.158.505-.201 1.016-.729 1.045-.714.039-1.591.08-2.116.08-1 0-3.477 2.243-3.942-.193C7.143 30.88 7 28.711 7 27.909s-.158-3.166 1.167-3.17c1.817-.005 2.155-.153 2.917-.705.857-.622 2.738.879 2.674 1.678z M22.18400000,25.71900000 c.247 3.305-.257 5.437-.553 6.44-.145.492-.261.897.099 1.237.698.66 2.007-.07 2.49-.07.92 0 2.935 2.261 3.612-.991.633-3.039.604-5.475.604-6.255s-.468-1.038-1.077-1.363c-1.486-.792-1.982-.149-2.683-.687-.788-.605-2.55.911-2.492 1.689z" fill="#77B255" data-gender="male"/>
	<path d="M8.002 25.236c.156-.67.885-1.175 1.063-.623.177.55.233 3.471.295 4.387s-.608-.184-.861-.898c-.254-.714-.644-2.234-.497-2.866z M10.31500000,23.53500000 c.024-.521.923-1.192 1.004-.656.081.536.571 6.09.845 7.289.274 1.199-.196.978-.522.124s-1.401-5.186-1.327-6.757z M27.11700000,24.38700000 c-.175-.579-.846-.279-1.003.176s.021 1.692-.01 2.465c-.031.773.325.014.551-.574.227-.588.627-1.521.462-2.067zM25.11700000,22.68200000 c-.245-.141-.842.207-.89.639-.047.432-.005 4.021-.202 4.982-.196.961.115.81.383.133s1.831-5.106.709-5.754z" fill="#A6D388" data-gender="male"/>
	<!-- towel around body -->
	<path d="M9.75 31.5V36h11.5v-.5h5v-4z" fill="#9266CC" data-gender="female"/>
	<path d="M19.25 31.5c2 1 2 4 2 4v.5h1v-.5h3v-4h-6z" fill="#A47DE2" data-gender="female"/>
	<path d="M20.25 31.5c2 1 2 4 2 4v.5h4v-4.5h-6z" fill="#744EAA" data-gender="female"/>
	<path d="M20.25 31.5H9.75v1h11.621c-.277-.402-.64-.76-1.121-1z" fill="#744EAA" data-gender="female"/>
	<path d="M20.25 31.5c.481.24.844.598 1.121 1h4.879v-1h-6z" fill="#553788" data-gender="female"/>
	<path d="M20.371 32.5h1c-.277-.402-.64-.76-1.121-1h-1c.481.24.844.598 1.121 1z" fill="#9266CC" data-gender="female"/>
	<!-- front steam -->
	<path d="M32 28c-2.975 0-5.438 2.168-5.911 5.009C26.058 33.008 26.03 33 26 33c-2.049 0-3.806 1.236-4.578 3H33c1.65 0 3-1.35 3-3v-3.463C34.938 28.584 33.539 28 32 28z M13.57800000,36.00000000 c-.772-1.764-2.529-3-4.578-3-.78 0-1.509.194-2.166.512.098-.322.166-.657.166-1.012C7 30.567 5.433 29 3.5 29 1.738 29 .295 30.306.05 32H0v1c0 1.65 1.35 3 3 3h10.578z" fill="#FFF" opacity=".7"/>
</svg>
