<svg viewBox="0 0 36 36" xmlns="http://www.w3.org/2000/svg" xmlns:ts="data:,a">
	<!-- rocks -->
	<path d="M32.75 36H4c-2.209 0-4-1.791-4-4V4c0-2.209 1.791-4 4-4h15.042s4.849.569 4.542 2c-.351 1.634-2.455 6.896-2.542 7.708-.173 1.62 4.735 4.393 4.5 6.292-.733 5.934-3.5 8.25-2.505 11.305.126.386 3.679.718 4.588 1.195C33 31.318 32.958 36 32.75 36z" fill="#66757F"/>
	<path d="M30 36H4c-2.209 0-4-1.791-4-4V4c0-2.209 1.791-4 4-4h7.167s8.955.862 8.842 2.062c-.173 1.851-3.639 7.717-2.51 8.812s4.432 3.794 4.571 5.542c.179 2.244-4.284 8.299-1.918 13.304.756 1.598 5.061.957 6.329 1.852C29.644 33.807 30.304 36 30 36z" fill="#99AAB5"/>
	<path d="M6.333 2.417h4.708c.792 0-2.208 3.156-3.292 3.156S4.917 2.417 6.333 2.417z " fill="#66757F"/>
	<path d="M10.667,8.625 h4.458c.75 0-2.458 2.949-3.458 2.949s-2.292-2.949-1-2.949z " fill="#66757F"/>
	<path d="M8.875,17.743 H18c1.292 0-5.542 5.098-6.667 5.098s-4.916-5.098-2.458-5.098z" fill="#66757F"/>
	<path d="M3.167 29.052h8.071c1.888 0-3.281 4.531-5.113 4.531s-4.792-4.531-2.958-4.531z" fill="#66757F"/>
	<!-- shoe -->
	<path d="M29.759 29.818s.404.278 1.516.666c.443.154-.044 1.84-.305 2.08s-2.188.627-3.928.098c-1.593-.484-.405-.938.744-1.193 1.151-.254 1.973-1.651 1.973-1.651z" fill="#292F33"/>
	<!-- body -->
	<path d="M29.822,26.172 s-2.739-1.872-2.937-1.076c-.198.796 2.252 2.908 2.846 4.888.24.799 1.68 1.663 1.697.079.03-2.735-1.606-3.891-1.606-3.891z" fill="#F9CA55" ts:skin="#EEC2AD|#E2C196|#CC9B7A|#9B6A49|#664131"/>
	<path d="M28.313 14.316c-1.108.471-2.32.982-2.873.817-.415-.124-1.235-.382-1.886-.38-.651.002-.76.343-.325 1.021.435.679 1.324 1.039 2.032.823.708-.216 2.276-.29 3.233-.317.956-.025 1.692-2.759-.181-1.964z" fill="#F9CA55" ts:skin="#EEC2AD|#E2C196|#CC9B7A|#9B6A49|#664131" ts:gender="neutral,male"/>
	<path d="M28.313 14.316c-1.076.54-2.32.982-2.873.817-.415-.124-1.235-.382-1.886-.38-.651.002-.76.343-.325 1.021.435.679 1.324 1.039 2.032.823.708-.216 2.276-.29 3.233-.317.956-.025.628-2.369-.181-1.964z" fill="#F9CA55" ts:skin="#EEC2AD|#E2C196|#CC9B7A|#9B6A49|#664131" ts:gender="female"/>
	<path d="M27.85 14.614c.484-.258 1.333-.391 1.333-.391l.929-2.272 2.482 1.636s-1.65 1.934-2.05 2.355c-.4.422-1.793.417-2.898.371-.833-.034-.337-1.411.204-1.699z " fill="#F9CA55" ts:skin="#EEC2AD|#E2C196|#CC9B7A|#9B6A49|#664131" ts:gender="neutral,male"/>
	<path d="M27.85 14.614c.484-.258 1.333-.391 1.333-.391l.929-2.272 2.482 1.636s-1.65 1.934-2.05 2.355c-.4.422-1.77.457-2.595.341-.826-.115-.64-1.381-.099-1.669z " fill="#F9CA55" ts:skin="#EEC2AD|#E2C196|#CC9B7A|#9B6A49|#664131" ts:gender="female"/>
	<path d="M27.162 25.501s.88 1.752 1.766 1.567 3.219-3.005 3.92-4.075c.701-1.07.419-3.671-1.168-2.416-1.586 1.253-4.518 4.924-4.518 4.924z" fill="#F9CA55" ts:skin="#EEC2AD|#E2C196|#CC9B7A|#9B6A49|#664131"/>
	<path d="M25.146 7.833c-.942-1.226-2.325-2.46-2.501-3.247-.214-.957-.164-1.954-1.499-2.752-.842-.503-.278.882-.154 2.717.071 1.055 1.664 4.103 2.633 5.094.623.637 3.588 1.518 4.57 3.638.166.358.605 1.03 1.117 1.841.85 1.343 1.341 2.469.658 4.033 2.984.155 5.318-1.113 5.318-1.113-.883-2.313-.212-4.329-.94-6.15-1.15-2.879-2.429-2.989-4.35-2.598 0 0-1.071-.539-2.142-.546-.839-.331-1.635-.614-2.71-.917z" fill="#FFDC5D" ts:skin="#F7DECE|#F3D2A2|#D4AB88|#AF7E57|#7C533E" ts:gender="neutral"/>
	<path d="M25.146 7.833c-.942-1.226-2.325-2.46-2.501-3.247-.214-.957-.164-1.954-1.499-2.752-.842-.503-.278.882-.154 2.717.071 1.055 1.664 4.103 2.633 5.094.623.637 3.588 1.518 4.57 3.638.166.358.605 1.03 1.117 1.841.85 1.343 1.341 2.469.658 4.033 2.984.155 5.318-1.113 5.318-1.113-.883-2.313-.212-4.329-.94-6.15-1.15-2.879-2.429-2.989-4.35-2.598 0 0-.402-.733-2.142-.546-.839-.331-1.635-.614-2.71-.917z" fill="#FFDC5D" ts:skin="#F7DECE|#F3D2A2|#D5AB88|#AF7E57|#7C533E" ts:gender="male"/>
	<path d="M27.622 22.132s-2.369 2.157-2.583 3.02c-.215.862.003 3.664-.642 6.25s1.079 3.016 1.294 2.154c.215-.862 1.84-4.249 1.592-5.859-.151-.982 2.495-3.196 2.495-3.196l-2.156-2.369z" fill="#FFDC5D" ts:skin="#F7DECE|#F3D2A2|#D4AB88|#AF7E57|#7C533E" ts:gender="neutral"/>
	<path d="M27.622 22.132s-2.369 2.157-2.583 3.02c-.215.862.003 3.664-.642 6.25s1.079 3.016 1.294 2.154c.215-.862 2.652-4.022 1.856-5.917-.384-.916 2.231-3.138 2.231-3.138l-2.156-2.369z" fill="#FFDC5D" ts:skin="#F7DECE|#F3D2A2|#D5AB88|#AF7E57|#7C533E" ts:gender="male"/>
	<path d="M27.622 22.132s-2.369 2.157-2.583 3.02c-.215.862.003 3.664-.642 6.25s1.079 3.016 1.294 2.154c.215-.862 1.879-4.738 1.504-6.035-.276-.955 2.584-3.02 2.584-3.02l-2.157-2.369z" fill="#FFDC5D" ts:skin="#F7DECE|#F3D2A2|#D5AB88|#AF7E57|#7C533E" ts:gender="female"/>
	<!-- head -->
	<path d="M32.92 7.797c2.44-1.666-2.068-2.67-2.068-2.67-.851-.2-.654 1.362-1.26 2.02-.417.456.651 1.05.651 1.05s.437.387.401.669-.176.331-.645.431c-.596 1.244 1.145 2.699 1.87 1.523.287-.465.351-.926.388-1.357l.56.118c-.338-.648-.5-1.372.103-1.784z" fill="#FFDC5D" ts:skin="#F7DECE|#F3D2A2|#D4AB88|#AF7E57|#7C533E" ts:gender="neutral"/>
	<path d="M32.932 7.593l-.245 2.329-2.675-.429.01-2.022z" fill="#FFDC5D" ts:skin="#F7DECE|#F3D2A2|#D5AB88|#AF7E57|#7C533E" ts:gender="male,female"/>
	<path d="M33.013 3.746c-1.133-.847-3.219-.709-3.924.678-.983 1.936-.285 3.994 1.047 4.208 1.397.224 2.312.15 3.243-1.096.931-1.247.768-2.944-.366-3.79z" fill="#FFDC5D" ts:skin="#F7DECE|#F3D2A2|#D4AB88|#AF7E57|#7C533E" ts:gender="neutral"/>
	<path d="M33.434 7.67c-.953 1.243-2.434 1.138-3.838.894-1.338-.233-1.093-2.671-.44-4.083.658-1.422 2.829-1.498 3.959-.631 1.131.867 1.273 2.577.319 3.82z" fill="#FFDC5D" ts:skin="#F7DECE|#F3D2A2|#D5AB88|#AF7E57|#7C533E" ts:gender="male,female"/>
	<!-- shoe -->
	<path d="M24.3 31.985s.371 1.007 1.62.869c.277-.031-.079 1.164-.39 1.461-.311.297-3.405 1.719-4.959.855-1.553-.864-.345-1.208.864-1.553 1.208-.345 2.865-1.632 2.865-1.632z" fill="#292F33"/>
	<!-- pants -->
	<path d="M34.225 21.936l-6.368.815 3.175 2.892z" fill="#C63900" ts:gender-color="#2A6797|#A0041E"/>
	<path d="M29.807 19.266c-1.291.84-1.944 2.066-3.733 4.052l2.395 2.554s6.032-2.286 6.953-5.358c.794-2.649-1.491-4.143-1.491-4.143s-2.89 2.092-4.124 2.895z" fill="#DD551F" ts:gender-color="#357BAA|#BE1931"/>
	<!-- torso/arm -->
	<path d="M25.451 7.96c-.942-1.226-2.63-2.587-2.806-3.374-.214-.957-.164-1.954-1.499-2.752-.842-.503-.278.882-.154 2.717.071 1.055 1.795 3.768 2.764 4.759.623.637 3.457 1.854 4.439 3.973.166.358-.01.759.503 1.569.85 1.343 1.792 2.849 1.109 4.412 2.984.155 5.482-1.221 5.482-1.221-.883-2.313-.212-4.329-.94-6.15-1.15-2.879-2.429-2.989-4.35-2.598-1.467.3-2.312-.572-4.548-1.335z" fill="#FFDC5D" ts:skin="#F7DECE|#F3D2A2|#D5AB88|#AF7E57|#7C533E" ts:gender="female"/>
	<!-- shirt -->
	<path d="M29.779 19.141c2.984.155 5.625-.824 5.625-.824-.771-2.366-.328-4.602-1.056-6.423-.161-.404-.33-.736-.504-1.021-.011.256-.149.448-.597.356-.97-.2-1.585-1.274-2.541-1.898-.229-.01-.465-.019-.708-.035.76.597 1.077 2.165.639 3.292-.443 1.14-1.332 1.394-2.302 1.034-.109.925.458 1.364.881 2.219.634 1.28.91 1.864.563 3.3z" fill="#FA743E" ts:gender="neutral"/>
	<path d="M29.779 19.141c2.984.155 5.625-.824 5.625-.824-.23-1.965-.328-4.602-1.056-6.423-.161-.404-.33-.736-.504-1.021-.011.256-.149.448-.597.356-.97-.2-1.585-1.274-2.541-1.898-.229-.01-.465-.019-.708-.035.76.597 1.077 2.165.639 3.292-.443 1.14-1.332 1.394-2.302 1.034.037.079.377.919.722 1.809.477 1.23.694 2.691.722 3.71z" fill="#4289C1" ts:gender="male"/>
	<path d="M29.592 17.689c2.984.155 5.519-.863 5.519-.863-.23-1.965-.034-3.111-.761-4.932-.161-.404-.33-.736-.504-1.021-.011.256-.149.448-.597.356-.97-.2-1.585-1.274-2.541-1.898-.229-.01-.465-.019-.708-.035.76.597 1.077 2.165.639 3.292-.443 1.14-1.473 1.056-2.443.695.037.079-.578.966-.062 1.769.515.803 1.429 1.618 1.458 2.637z" fill="#DD2E44" ts:gender="female"/>
	<!-- belt -->
	<path d="M29.779 18.5c.01-.046 1.158.125 2.814-.125 1.297-.196 2.811-.54 2.811-.54l.095.649s-1.917.495-3.069.629-2.623.152-2.623.152-.111-.355-.028-.765z" fill="#C63900" ts:gender="neutral,male" ts:gender-color="#2A6797|"/>
	<!-- hair -->
	<path d="M34.49 4.622c-.395-1.019-2.292-2.341-3.92-1.633-.88-.412-1.474.369-1.534.896-.048.421.916.796.956 1.63.225-.145.379-.526.399-.747.233.39-.123 1.152.977 2.013 1.063.832.561 1.835.561 1.835s.714-.126 1.294-.516c1.107-.741 1.703-2.355 1.267-3.478z" fill="#FFAC33" ts:skin="#292F33|#FFE51E|#963B22|#60352A|#0B0200" ts:gender="neutral"/>
	<path d="M30.938 2.812c1.992-.206 3.292.989 3.449 2.102.239 1.69-1.15 2.967-1.455 3.627-.308.667-2.387-.338-2.494-1.979-.037-.562-.269-1.191-.2-1.644.062-.41-.732-.442-1.05-.586-.446-.201.367-1.376 1.75-1.52z" fill="#FFAC33" ts:skin="#292F33|#FFE51E|#963B22|#60352A|#0B0200" ts:gender="male"/>
	<path d="M30.936 2.94c1.992-.206 3.261.867 3.451 1.975.368 2.152-1.002 3.9-2.193 3.555-.526-.153-.965-.547-1.072-2.188-.085-1.296-.325-3.07-1.964-1.8-.388.299.395-1.399 1.778-1.542z" fill="#FFAC33" ts:skin="#292F33|#FFE51E|#963B22|#60352A|#0B0200" ts:gender="female"/>
	<path d="M33.229 4.093c.307-.516 1.745-.438 2.298.7s-.699 3.17-.784 4.239.503 1.191.481 1.425-.626.861-1.434.626-2.784-.619-1.246-2.999c1.538-2.379.685-3.991.685-3.991z" fill="#FFAC33" ts:skin="#292F33|#FFE51E|#963B22|#60352A|#0B0200" ts:gender="female"/>
	<!-- ear -->
	<path d="M30.312 5.604c.261-.309.938-.208.917.271-.021.479-.188.938-.75.896-.562-.042-.396-.896-.167-1.167z" fill="#FFDC5D" ts:skin="#F7DECE|#F3D2A2|#D5AB88|#AF7E57|#7C533E" ts:gender="male"/>
</svg>
