<svg viewBox="0 0 36 36" xmlns="http://www.w3.org/2000/svg" xmlns:ts="data:,a">
	<!-- back hair -->
	<use href="defs.svg#hair_neutral" transform="translate(21.906 1.262) scale(1.049)" ts:skin="hair" ts:gender="neutral"/>
	<path d="M19 0c-1.721 0-3.343.406-4.793 1.111C13.814 1.043 13.412 1 13 1 9.134 1 6 4.134 6 8v12h.018C6.201 26.467 11.489 31.656 18 31.656S29.799 26.467 29.982 20H30v-9c0-6.075-4.925-11-11-11z" ts:skin="hair" ts:gender="female"/>
	<!-- body -->
	<path d="M27 21H9c-2.209 0-4 1.791-4 4v11h26V25c0-2.209-1.791-4-4-4z" fill="#FA743E" ts:gender-color="#4289C1,#9268CA"/>
	<!-- arms -->
	<path d="M4 36h6v-8H5z" fill="#FA743E" ts:gender-color="#4289C1,#9268CA"/>
	<path d="M32 36h-6v-8h5z" fill="#FA743E" ts:gender-color="#4289C1,#9268CA"/>
	<rect x="10" y="27" width="1" height="9" fill="#DD551F" ts:gender-color="#2A6797,#7450A8"/>
	<rect x="25" y="27" width="1" height="9" fill="#DD551F" ts:gender-color="#2A6797,#7450A8"/>
	<!-- hands -->
	<path d="M4.702 26.495l-.283-.059h-.511c0-.058.023-.112.035-.169-.348-.215-.546-.625-.458-1.048.112-.542.643-.89 1.186-.779l2.091.433h1.676c.863 0 1.562.7 1.562 1.564V28H6.253s-1.481-.669-1.551-1.505z" ts:skin="line"/>
	<path d="M31.298 26.495l.283-.059h.511c0-.058-.023-.112-.035-.169.348-.215.546-.625.458-1.048-.112-.542-.642-.89-1.185-.779l-2.091.433h-1.676c-.863 0-1.562.7-1.562 1.564V28h3.747c-.001 0 1.48-.669 1.55-1.505z" ts:skin="line"/>
	<path d="M0 25.655c0-.432.35-.782.781-.782l4.69.782h3.747c.432 0 .781.351.781.781V28H5L.781 26.437S0 26.087 0 25.655z" ts:skin="skin"/>
	<path d="M36 25.655c0-.432-.35-.782-.781-.782l-4.691.782h-3.747c-.432 0-.781.351-.781.781V28h5l4.219-1.563s.781-.35.781-.782z" ts:skin="skin"/>
	<!-- face -->
	<path d="M25.904 11.734c-.677-.938-1.545-1.693-3.446-1.96.713.327 1.396 1.455 1.485 2.079.089.624.178 1.129-.386.505-2.261-2.499-4.723-1.515-7.163-3.041-1.703-1.067-2.222-2.247-2.222-2.247s-.208 1.574-2.792 3.178c-.749.465-1.643 1.501-2.139 3.03-.356 1.099-.246 2.079-.246 3.754 0 4.889 4.029 9 9 9s9-4.147 9-9c0-3.041-.318-4.229-1.091-5.298z" ts:skin="skin" ts:gender="neutral"/>
	<ellipse cx="9.059" cy="13.715" rx="1.788" ry="2.861" ts:skin="skin" ts:gender="male"/><ellipse cx="26.941" cy="13.715" rx="1.788" ry="2.861" ts:skin="skin" ts:gender="male"/>
	<path d="M9 7v10c0 4.971 4.029 9 9 9s9-4.029 9-9V7H9z" ts:skin="skin" ts:gender="male"/>
	<path d="M14 5s-.003 5.308-5 5.936V17c0 4.971 4.029 9 9 9s9-4.029 9-9v-5.019C15.89 11.605 14 5 14 5z" ts:skin="skin" ts:gender="female"/>
	<!-- hair -->
	<path d="M18 .823c-7.019 0-10.139 4.684-10.139 8.588 0 3.903 1.343 4.986 1.56 3.903.78-3.903 3.12-5.101 3.12-5.101 4.68 3.904 3.9.781 3.9.781 4.679 4.684 2.34 0 2.34 0 1.56 1.562 6.239 1.562 6.239 1.562s.78 1.198 1.559 2.759c.78 1.562 1.56 0 1.56-3.903 0-3.905-3.9-8.589-10.139-8.589z" ts:skin="hair" ts:gender="male"/>
	<!-- eyes -->
	<use href="defs.svg#eyes_male" x="18" y="14.5" ts:skin="eyes" ts:gender="neutral,female"/>
	<use href="defs.svg#eyes_male" x="18" y="14.5" ts:skin="eyes2" ts:gender="male"/> <!-- color -->
	<!-- nose -->
	<rect x="16.5" y="18.5" width="3" height="1" rx="0.5" ts:skin="nose"/>
	<!-- mouth -->
	<rect x="19.5" y="22" width="1.5" height="1" rx="0.5" ts:skin="nose" ts:gender="neutral,male"/>
	<rect x="19.5" y="22" width="1.5" height="1" rx="0.5" fill="#DF1F32" ts:gender="female"/>
</svg>
