<svg viewBox="0 0 36 36" xmlns="http://www.w3.org/2000/svg" xmlns:ts="data:,a">
	<!-- woah this one uses a lot of arc commands ! -->
	
	<!-- back hair -->
	<path d="M33.197 16.27c.232-6.284-3.454-11.043-10.086-13.189-2.638-.853-8.844-.621-10.395 1.396-4.034.078-8.766 3.724-9.387 8.534-.614 4.76.754 6.971 1.241 10.551.552 4.056 2.832 5.353 4.655 5.896 2.623 3.465 5.411 3.317 10.092 3.317 9.141 0 13.495-6.116 13.88-16.505z" ts:skin="hair" ts:gender="neutral"/>
	<path d="M18 4c6 0 16 3 16 16s0 16-3 16-7-3-13-3-9.915 3-13 3c-3.343 0-3-12-3-16C2 7 12 4 18 4z" ts:skin="hair" ts:gender="female"/>
	<!-- face -->
	<path d="M28.339 16.713c-.884-1.225-2.017-2.211-4.499-2.56.931.427 1.823 1.901 1.939 2.715.116.815.233 1.474-.504.659-2.952-3.263-6.167-1.978-9.354-3.972-2.226-1.392-2.903-2.933-2.903-2.933s-.272 2.056-3.646 4.15c-.978.607-2.145 1.959-2.793 3.956-.465 1.435-.321 2.715-.321 4.903 0 6.385 5.262 11.753 11.753 11.753s11.753-5.415 11.753-11.753c0-3.97-.416-5.521-1.425-6.918z" ts:skin="skin" ts:gender="neutral"/>
	<path d="M32 20c0-2.209-1.119-4-2.5-4-.012 0-.021.005-.033.005C27.955 9.704 23.394 5.125 18 5.125s-9.956 4.58-11.467 10.88C6.521 16.004 6.511 16 6.5 16 5.119 16 4 17.791 4 20c0 2.107 1.021 3.815 2.314 3.97C7.537 30.619 12.299 35 18 35c5.7 0 10.463-4.381 11.685-11.03C30.979 23.815 32 22.107 32 20z" ts:skin="skin" ts:gender="male"/>
	<ellipse cx="18" cy="19.562" rx="12" ry="15.438" ts:skin="skin" ts:gender="female"/>
	<!-- hair -->
	<path d="M18 1c8 0 13 6 13 11s-1 7-2 5l-2-4s-6 0-8-2c0 0 3 6-3 0 0 0 1 4-5-1 0 0-3 2-4 7-.277 1.387-2 0-2-5S9 1 18 1z" ts:skin="hair" ts:gender="male"/>
	<path d="M3.064 25c-.03-.325-.064-.647-.064-1 0-5 3 .562 3-3 0-3.563 2-4 4-6l3-3s5 3 9 3 8 2 8 6 3-2 3 3c0 .355-.033.673-.058 1h1.049C34 23.523 34 21.868 34 20 34 7 24 2 18 2S2 7 2 20c0 1.158-.028 2.986.012 5h1.052z" ts:skin="hair" ts:gender="female"/>
	<!-- eyes -->
	<!-- 	<path d="M13 23a1 1 0 0 1-1-1v-2a1 1 0 0 1 2 0v2a1 1 0 0 1-1 1z M23,23 a1 1 0 0 1-1-1v-2a1 1 0 1 1 2 0v2a1 1 0 0 1-1 1z" fill="#662113" ts:skin="#662113,#662113,#662113,#662113,#000000" ts:gender="neutral,female"/> -->
	<use href="defs.svg#eyes_big" x="18" y="21" ts:skin="eyes" ts:gender="neutral,female"/>
	<use href="defs.svg#eyes_big" x="18" y="19" ts:skin="eyes" ts:gender="male"/>
	<!-- nose -->
	<!-- <path d="M19,27 h-2a1 1 0 1 1 0-2h2a1 1 0 1 1 0 2z" fill="#C1694F" ts:skin="#C1694F,#C1694F,#C1694F,#915A34,#3D2E24" ts:gender="neutral"/> -->
	<use href="defs.svg#nose_big" x="18" y="25" ts:skin="nose" ts:gender="male,female"/>
	<use href="defs.svg#nose_big" x="18" y="26" ts:skin="nose" ts:gender="neutral"/>
	<!-- mouth -->
	<use href="defs.svg#mouth_female_big" x="18" y="31" ts:skin="mouth" ts:gender="neutral"/>
	<use href="defs.svg#mouth_male_big" x="18" y="30" ts:skin="mouth" ts:gender="male"/>
	<use href="defs.svg#mouth_female_big" x="18" y="30" ts:skin="mouth" ts:gender="female"/>
	<!-- crown  hmm, each one uses different colors..-->
	<path d="M30.5 8a.5.5 0 0 0 .5-.5v-.544L28.672 5.52l-2.921-3.203a.502.502 0 0 0-.711-.028l-2.164 2.026L18.653.354A.991.991 0 0 0 18 .083a.995.995 0 0 0-.653.27l-4.223 3.961-2.164-2.026a.498.498 0 0 0-.711.028L7.328 5.52 5 6.956V7.5a.5.5 0 0 0 .5.5h25z" fill="#A0AAB1" ts:gender="neutral"/>
	<path d="M30.68 5.784c-.192-.075-.411-.022-.55.13L28.672 7.52l-2.349-4.743c-.082-.165-.248-.271-.432-.277-.195-.013-.356.089-.449.249l-2.066 3.565L18.355.183C18.261.067 18.119 0 17.969 0c-.149 0-.292.067-.386.183l-5.041 6.138-2.12-3.576c-.091-.153-.24-.227-.436-.245-.179.002-.342.099-.43.254L6.909 7.449l-.994-1.478c-.123-.182-.351-.266-.561-.199-.21.064-.354.258-.354.478V9.5c0 .276.224.5.5.5h25c.276 0 .5-.224.5-.5V6.25c0-.207-.127-.392-.32-.466z" fill="#99AAB5" ts:gender="male"/>
	<path d="M8 6h20V5l-3-1-2-3-3 1-2-2-2 2-3-1-2 3-3 1z" fill="#A7A9AC" ts:gender="female"/>
	<!-- jewels -->
	<path d="M16,4 l 2 -2 2 2 -2 2z M9 5.5 10.5 4l1.5 1.5-1.5 1.5z M24,5.5 L25.5 4l1.5 1.5-1.5 1.5z" fill="#E9EDF0" ts:gender="neutral"/>
	<path d="M18 3l-2 2v2l2 2 2-2V5z M11,6 l-1 1.415L9 6l1-1.414z M27,6 l-1 1.415L25 6l1-1.414z" fill="#E1E8ED" ts:gender="male"/>
	<ellipse cx="18" cy="3.5" rx="1" ry="1.5" fill="#F1F2F2" ts:gender="female"/>
	<circle cx="14" cy="4" r="1" fill="#F1F2F2" ts:gender="female"/>
	<circle cx="22" cy="4" r="1" fill="#F1F2F2" ts:gender="female"/>
</svg>
