<svg viewBox="0 0 36 36" xmlns="http://www.w3.org/2000/svg" xmlns:ts="data:,a">
	<!-- back hair -->
	<use href="defs.svg#hair_neutral1" transform="translate(18.011 34.384) scale(1.3058)" ts:skin="hair" ts:gender="neutral"/>
	<path d="M18 3c6 0 16 3 16 16s0 16-3 16-7-3-13-3-9.915 3-13 3c-3.343 0-3-12-3-16C2 6 12 3 18 3z" ts:skin="hair" ts:gender="female"/>
	<!-- face -->
	<use href="defs.svg#face_neutral1" transform="translate(18.011 34.384) scale(1.3058)" ts:skin="skin" ts:gender="neutral"/>
	<ellipse cx="5.5" cy="19" rx="2.5" ry="4" ts:skin="skin" ts:gender="male"/><ellipse cx="30.5" cy="19" rx="2.5" ry="4" ts:skin="skin" ts:gender="male"/>
	<ellipse cx="18" cy="20.562" rx="13" ry="15.438" ts:skin="skin" ts:gender="male"/>
	<ellipse cx="18" cy="18.562" rx="12" ry="15.438" ts:skin="skin" ts:gender="female"/>
	<!-- hair -->
	<path d="M18 0c8.615 0 14 6.358 14 11.656 0 5.298-1.077 7.417-2.154 5.298l-2.153-4.238s-6.462 0-8.615-2.12c0 0 3.23 6.358-3.231 0 0 0 1.077 4.239-5.385-1.06 0 0-3.23 2.12-4.308 7.417C5.855 18.423 4 16.954 4 11.656 4 6.357 8.308 0 18 0z" ts:skin="hair" ts:gender="male"/>
	<path d="M3.064 24c-.03-.325-.064-.647-.064-1 0-5 3 .562 3-3 0-3.563 2-4 4-6l3-3s5 3 9 3 8 2 8 6 3-2 3 3c0 .355-.033.673-.058 1h1.049C34 22.523 34 20.868 34 19 34 6 24 1 18 1S2 6 2 19c0 1.158-.028 2.986.012 5h1.052z" ts:skin="hair" ts:gender="female"/>
	<!-- moustache -->
	<path d="M25.274 27.038l-3.294-.941c.003-.034.02-.063.02-.097 0-.553-.447-1-1-1h-6c-.552 0-1 .447-1 1 0 .034.016.063.019.097l-3.294.941c-.531.152-.838.706-.686 1.236.125.44.525.726.961.726.091 0 .184-.013.275-.038l1.931-.552c-.216.293-.274.688-.1 1.037.175.351.528.553.895.553.15 0 .303-.034.446-.105l1.577-.788c.036.326.213.631.529.788.143.071.296.105.446.105.367 0 .72-.202.896-.553l.105-.211.105.211c.176.351.529.553.896.553.15 0 .303-.034.446-.105.315-.157.493-.462.529-.788l1.576.788c.144.071.297.105.447.105.367 0 .72-.202.896-.553.174-.349.116-.744-.1-1.037l1.931.552c.091.025.183.038.275.038.434 0 .835-.286.961-.726.151-.53-.156-1.084-.688-1.236z" ts:skin="hair" ts:gender="male"/>
	<!-- eyes -->
	<use href="defs.svg#eyes_big" x="18" y="20" ts:skin="eyes2" ts:gender="neutral,female"/>
	<use href="defs.svg#eyes_big" x="18" y="18" ts:skin="eyes2" ts:gender="male"/>
	<!-- nose -->
	<use href="defs.svg#nose_big" x="18" y="25" ts:skin="nose" ts:gender="neutral"/>
	<use href="defs.svg#nose_big" x="18" y="24" ts:skin="nose" ts:gender="female"/>
	<use href="defs.svg#nose_big" x="18" y="23" ts:skin="nose" ts:gender="male"/>
	<!-- mouth -->
	<use href="defs.svg#mouth_female_big" x="18" y="30" ts:skin="mouth" ts:gender="neutral"/>
	<use href="defs.svg#mouth_female_big" x="18" y="29" ts:skin="mouth" ts:gender="female"/>
</svg>
