<svg viewBox="0 0 36 36" xmlns="http://www.w3.org/2000/svg" xmlns:ts="data:,a">
	<!-- back hair -->
	<use href="defs.svg#hair_neutral1" x="18" y="26" ts:skin="hair" ts:gender="neutral"/>
	<!-- <path d="M 6,8 a 7,7 0 01 7,-7 c 0.412,0 0.814,0.043 1.207,0.111 c 1.45,-0.705 3.072,-1.111 4.793,-1.111 a 11,11 0 01 11,11 v8.656 a 12,12 0 01 -24 0 z" ts:skin="hair" ts:gender="female"/> drawn manually -->
	<use href="defs.svg#hair_back_female_old" x="18" y="26" ts:skin="hair" ts:gender="female"/>
	<!-- body -->
	<use href="defs.svg#shoulders_simple" x="18" fill="#FA743E" ts:gender-color="#4289C1,#9268CA"/>
	<rect x="9" y="32" width="1" height="4" fill="#DD551F" ts:gender-color="#2A6797,#7450A8"/>
	<rect x="26" y="32" width="1" height="4" fill="#DD551F" ts:gender-color="#2A6797,#7450A8"/>
	<!-- neck -->
	<use href="defs.svg#neck_old" x="18" y="31" ts:skin="skin"/>
	<!-- head -->
	<use href="defs.svg#face_neutral1" x="18" y="26" ts:skin="skin" ts:gender="neutral"/>
	<use href="defs.svg#face_male_old" x="18" y="26" ts:skin="skin" ts:gender="male"/>
	<use href="defs.svg#face_female_old" x="18" y="26" ts:skin="skin" ts:gender="female"/>
	<!-- hair -->
	<use href="defs.svg#hair_male2" x="18" y="0.823" ts:skin="hair" ts:gender="male"/>
	<!-- eyes -->
	<use href="defs.svg#eyes_male" x="18" y="14.5" ts:skin="eyes"/>
	<!-- nose -->
	<use href="defs.svg#nose_neutral1" x="18" y="19" ts:skin="nose"/>
	<!-- mouth -->
	<circle cx="18" cy="23" r="1" ts:skin="mouth"/>	
</svg>
