<svg viewBox="0 0 36 36" xmlns="http://www.w3.org/2000/svg" xmlns:ts="data:,a">
	<!-- hair -->
	<path d="M19 4c-1.721 0-3.343.406-4.793 1.111C13.814 5.043 13.412 5 13 5c-3.866 0-7 3.134-7 7v12h.018C6.201 30.467 11.489 35.656 18 35.656c6.511 0 11.799-5.189 11.982-11.656H30v-9c0-6.075-4.925-11-11-11z" fill="#FFAC33" ts:skin="#292F33|#FFE51E|#963B22|#60352A|#0B0200" ts:gender="female"/>
	<!-- body -->
	<path d="M27 22H9s-9 0-9 7c0 3.156 4 7 4 7h28s4-3.844 4-7c0-7-9-7-9-7z" fill="#FA743E" ts:gender-color="#4289C1|#9268CA"/>
	<!-- hair -->
	<path d="M21.906 4.262c-2.02-.654-6.772-.475-7.96 1.069-3.089.059-6.713 2.851-7.188 6.535-.47 3.645.578 5.338.951 8.079.422 3.106 2.168 4.099 3.564 4.515C13.281 27.114 15.415 27 19 27c7 0 10.334-4.684 10.629-12.639.178-4.811-2.645-8.456-7.723-10.099z" fill="#FFAC33" ts:skin="#292F33|#FFE51E|#963B22|#60352A|#0B0200" ts:gender="neutral"/>
	<!-- neck -->
	<circle cx="18" cy="28" fill="#F9CA55" ts:skin="#EEC2AD|#E2C196|#CC9B7A|#9B6A49|#664131" r="3"/>
	<!-- head -->
	<path d="M25.89 15.686c-.677-.938-1.545-1.693-3.445-1.96.713.327 1.396 1.455 1.485 2.079.089.624.178 1.129-.386.505-2.261-2.499-4.723-1.515-7.163-3.041-1.704-1.066-2.223-2.246-2.223-2.246s-.208 1.574-2.792 3.178c-.749.465-1.643 1.5-2.139 3.03-.357 1.099-.246 2.079-.246 3.754 0 4.889 4.029 9 9 9s9-4.147 9-9c0-3.041-.318-4.23-1.091-5.299z" fill="#FFDC5D" ts:skin="#F7DECE|#F3D2A2|#D4AB88|#AF7E57|#7C533E" ts:gender="neutral"/>
	<path d="M9 9.938V21c0 4.971 4.029 9 9 9s9-4.029 9-9V10.25L9 9.938z" fill="#FFDC5D" ts:skin="#F7DECE|#F3D2A2|#D5AB88|#AF7E57|#7C533E" ts:gender="male"/>
	<path d="M14 11s-.003 5.308-5 5.936V21c0 4.971 4.029 9 9 9s9-4.029 9-9v-3.019C15.89 17.605 14 11 14 11z " fill="#FFDC5D" ts:skin="#F7DECE|#F3D2A2|#D5AB88|#AF7E57|#7C533E" ts:gender="female"/>
	<path d="M10.847 17.715c0 1.58-.8 2.861-1.788 2.861s-1.788-1.281-1.788-2.861c0-1.58.801-2.861 1.788-2.861s1.788 1.281 1.788 2.861z M28.729,17.715 c0 1.58-.8 2.861-1.788 2.861s-1.788-1.281-1.788-2.861c0-1.58.8-2.861 1.788-2.861s1.788 1.281 1.788 2.861z" fill="#FFDC5D" ts:skin="#F7DECE|#F3D2A2|#D5AB88|#AF7E57|#7C533E" ts:gender="male"/>
	<!-- hands -->
	<path d="M17 34l-5-1-2-1H7l-1 4h11c1 0 1-1 1-1 0-.553-1-1-1-1z M26,32 l-2 1-5 1s-1 .447-1 1c0 0 0 1 1 1h11l-1-4h-3z" fill="#FFDC5D" ts:skin="#F7DECE|#F3D2A2|#D4AB88|#AF7E57|#7C533E"/>
	<!-- hair -->
	<path d="M18 4.823c-7.019 0-10.139 4.684-10.139 8.588 0 3.903 1.343 4.986 1.56 3.903.78-3.903 3.12-5.101 3.12-5.101 4.68 3.904 3.9.781 3.9.781 4.679 4.684 2.34 0 2.34 0 1.56 1.562 6.239 1.562 6.239 1.562s.78 1.198 1.559 2.759c.78 1.562 1.56 0 1.56-3.903 0-3.905-3.9-8.589-10.139-8.589z" fill="#FFAC33" ts:skin="#292F33|#FFE51E|#963B22|#60352A|#0B0200" ts:gender="male"/>
	<!-- eyes -->
	<path d="M22 22c-.553 0-1-.447-1-1v-1c0-.553.447-1 1-1s1 .447 1 1v1c0 .553-.447 1-1 1z M14,22 c-.552 0-1-.447-1-1v-1c0-.553.448-1 1-1s1 .447 1 1v1c0 .553-.448 1-1 1z" fill="#662113" ts:skin="#662113|#662113|#662113|#662113|#000000"/>
	<!-- nose -->
	<path d="M19 26.5h-2c-.276 0-.5-.224-.5-.5s.224-.5.5-.5h2c.276 0 .5.224.5.5s-.224.5-.5.5z" fill="#C1694F" ts:skin="#C1694F|#C1694F|#C1694F|#915A34|#3D2E24"/>
	<!-- lines -->
	<path d="M5.499 8c-.209 0-.419-.065-.599-.2l-4-3C.458 4.469.369 3.842.7 3.4c.332-.441.958-.531 1.4-.2l4 3c.442.331.531.958.2 1.4-.197.262-.497.4-.801.4z M8.501,5 c-.323 0-.64-.156-.833-.445l-2-3c-.306-.46-.182-1.081.277-1.387.459-.307 1.08-.182 1.387.277l2 3c.306.459.182 1.081-.277 1.387-.171.114-.364.168-.554.168z M30.501,8 c-.305 0-.604-.138-.801-.4-.332-.442-.242-1.069.2-1.4l4-3c.44-.333 1.068-.242 1.399.2.332.442.242 1.069-.2 1.4l-4 3c-.179.135-.389.2-.598.2z M27.499,5 c-.19 0-.383-.054-.554-.168-.46-.306-.584-.927-.277-1.387l2-3c.306-.459.925-.585 1.387-.277.46.306.584.927.277 1.387l-2 3c-.193.289-.51.445-.833.445z" fill="#5DADEC"/>
</svg>
