<svg viewBox="0 0 36 36" xmlns="http://www.w3.org/2000/svg">
	<!-- veil -->
	<path d="M35 18c0-7.002-2-13-7-16s-10-.784-10-.784v.034l-.001-.034S13-1 8 2s-7 8.998-7 16c0 7.003-1 18-1 18h36s-1-10.998-1-18z" fill="#E6E7E8"/>
	<!-- body -->
	<path d="M26 28H10c-3.313 0-6 2.686-6 6v2h28v-2c0-3.314-2.685-6-6-6z" fill="#FFF" data-gender="neutral,male"/>
	<path d="M32 36v-1c0-3.313-2.687-6-6-6H10c-3.313 0-6 2.687-6 6v1h28z" fill="#FFF" data-gender="female"/>
	<!-- back hair -->
	<path d="M21.152 3.3c-1.925-.623-5.876-.46-7.008 1.012-2.944.057-6.083 2.932-6.536 6.443-.448 3.475.235 4.874.591 7.486.403 2.96 2.067 3.907 3.397 4.303 1.914 2.529 3.949 2.421 7.366 2.421 6.672 0 9.271-4.458 9.552-12.04.169-4.585-2.522-8.059-7.362-9.625z" fill="#FFAC33" data-skin="#292F33|#FFE51E|#963B22|#60352A|#0B0200" data-gender="neutral"/>
	<!-- neck/head -->
	<path d="M17.999 2.809C22.875 2.809 31 5.247 31 15.81c0 10.564 0 13.001-2.438 13.001s-5.688-2.438-10.563-2.438c-4.876 0-8.056 2.438-10.563 2.438-2.716 0-2.438-9.751-2.438-13.001 0-10.563 8.125-13.001 13.001-13.001z" fill="#FFAC33" data-skin="#292F33|#FFE51E|#963B22|#60352A|#0B0200" data-gender="female"/>
	<path d="M13.64 28.106c0 .894 2.36 1.993 4.36 1.993s4.359-1.099 4.359-1.992V24.29h-8.72v3.816z" fill="#FFDC5D" data-skin="#F7DECE|#F3D2A2|#D4AB88|#AF7E57|#7C533E" data-gender="neutral"/>
	<path d="M13.64 28.101c1.744 1.268 2.857 2.032 4.37 2.032 1.512 0 2.606-.766 4.35-2.032V24.29h-8.72v3.811z" fill="#FFDC5D" data-skin="#F7DECE|#F3D2A2|#D4AB88|#AF7E57|#7C533E" data-gender="male"/>
	<path d="M27.75 15.455c0-6.928-4.366-12.544-9.751-12.544s-9.75 5.616-9.75 12.544c0 5.581 2.835 10.305 6.751 11.934V29h-3v5h12v-5h-3v-1.613c3.916-1.629 6.75-6.353 6.75-11.932z" fill="#FFDC5D" data-skin="#F7DECE|#F3D2A2|#D4AB88|#AF7E57|#7C533E" data-gender="female"/>
	<path d="M13.632 25.973c1.216 1.374 2.724 1.746 4.364 1.746 1.639 0 3.146-.373 4.363-1.746v-3.491h-8.728v3.491z" fill="#F9CA55" data-skin="#EEC2AD|#E2C196|#CC9B7A|#9B6A49|#664131" data-gender="neutral,male"/>
	<path d="M25.547 13.244c-.646-.894-1.472-1.614-3.284-1.868.68.311 1.331 1.387 1.416 1.982.085.595.17 1.076-.368.481-2.155-2.382-4.502-1.444-6.827-2.899-1.624-1.016-2.119-2.141-2.119-2.141s-.198 1.5-2.661 3.029c-.714.443-1.566 1.43-2.038 2.888-.34 1.048-.234 1.982-.234 3.578 0 4.66 3.841 8.578 8.578 8.578s8.578-3.953 8.578-8.578c-.002-2.899-.305-4.031-1.041-5.05z" fill="#FFDC5D" data-skin="#F7DECE|#F3D2A2|#D4AB88|#AF7E57|#7C533E" data-gender="neutral"/>
	<path d="M11.445 15.936c0 1.448-.734 2.622-1.639 2.622s-1.639-1.174-1.639-2.622.734-2.623 1.639-2.623 1.639 1.174 1.639 2.623m16.388 0c0 1.448-.733 2.622-1.639 2.622-.905 0-1.639-1.174-1.639-2.622s.733-2.623 1.639-2.623 1.639 1.174 1.639 2.623" fill="#FFDC5D" data-skin="#F7DECE|#F3D2A2|#D4AB88|#AF7E57|#7C533E" data-gender="male"/>
	<path d="M9.478 16.96c0-5.589 3.816-10.121 8.523-10.121s8.523 4.532 8.523 10.121-3.816 10.121-8.523 10.121c-4.707-.001-8.523-4.532-8.523-10.121" fill="#FFDC5D" data-skin="#F7DECE|#F3D2A2|#D4AB88|#AF7E57|#7C533E" data-gender="male"/>
	<!-- hair -->
	<path d="M18 3.48c5.648 0 9.178 4.168 9.178 7.641s-.706 4.863-1.412 3.473l-1.412-2.778s-4.235 0-5.647-1.39c0 0 2.118 4.168-2.118 0 0 0 .706 2.779-3.53-.694 0 0-2.118 1.389-2.824 4.862-.196.964-1.412 0-1.412-3.473C8.822 7.648 11.646 3.48 18 3.48" fill="#FFAC33" data-skin="#292F33|#FFE51E|#963B22|#60352A|#0B0200" data-gender="male"/>
	<path d="M5.863 20c-.025 0-.052-.59-.052-.876 0-4.063 2.438.425 2.438-2.47s1.625-3.266 3.25-4.891c.812-.812 2.438-2.446 2.438-2.446s4.063 2.434 7.314 2.434c3.25 0 6.5 1.624 6.5 4.874s2.438-1.563 2.438 2.5c0 .289-.027.875-.047.875h.853C31 19 31 17.392 31 15.874 31 5.311 22.875 1.216 17.999 1.216c-4.876 0-13.001 4.11-13.001 14.674 0 .942-.023 2.11.01 4.11h.855z" fill="#FFAC33" data-skin="#292F33|#FFE51E|#963B22|#60352A|#0B0200" data-gender="female"/>
	<!-- eyes -->
	<path d="M14.195 17.341c-.526 0-.953-.427-.953-.953v-.953c0-.526.427-.953.953-.953s.953.427.953.953v.953c0 .526-.426.953-.953.953z M21.82100000,17.34100000 c-.526 0-.953-.427-.953-.953v-.953c0-.526.427-.953.953-.953s.953.427.953.953v.953c0 .526-.427.953-.953.953z" fill="#662113" data-skin="#662113|#662113|#662113|#662113|#000000" data-gender="neutral"/>
	<path d="M22 17c-.55 0-1-.45-1-1v-1c0-.55.45-1 1-1s1 .45 1 1v1c0 .55-.45 1-1 1m-8 0c-.55 0-1-.45-1-1v-1c0-.55.45-1 1-1s1 .45 1 1v1c0 .55-.45 1-1 1" fill="#662113" data-skin="#662113|#662113|#662113|#662113|#000000" data-gender="male"/>
	<path d="M14 18c-.552 0-1-.448-1-1v-1c0-.552.448-1 1-1s1 .448 1 1v1c0 .552-.448 1-1 1z M22.00000000,18.00000000 c-.553 0-1-.448-1-1v-1c0-.552.447-1 1-1s1 .448 1 1v1c0 .552-.447 1-1 1z" fill="#662113" data-skin="#662113|#662113|#662113|#662113|#000000" data-gender="female"/>
	<!-- nose/mouth -->
	<path d="M18.134 24.657c-2.754 0-3.6-.705-3.741-.848-.256-.256-.256-.671 0-.927.248-.248.646-.255.902-.023.052.037.721.487 2.839.487 2.2 0 2.836-.485 2.842-.49.256-.255.657-.243.913.015.256.256.242.683-.014.939-.142.142-.987.847-3.741.847m.827-3.98h-1.906c-.263 0-.477-.213-.477-.477s.213-.477.477-.477h1.906c.263 0 .477.213.477.477s-.213.477-.477.477z" fill="#C1694F" data-skin="#C1694F|#C1694F|#C1694F|#915A34|#3D2E24" data-gender="neutral"/>
	<path d="M18 23.802c-2.754 0-3.6-.705-3.741-.848-.256-.256-.256-.671 0-.927.248-.248.645-.255.902-.023.052.037.721.487 2.839.487 2.2 0 2.836-.485 2.842-.49.256-.255.657-.243.913.015.256.256.242.683-.014.938-.141.143-.987.848-3.741.848m.75-4.052h-1.5c-.413 0-.75-.337-.75-.75s.337-.75.75-.75h1.5c.413 0 .75.337.75.75s-.337.75-.75.75" fill="#C1694F" data-skin="#C1694F|#C1694F|#C1694F|#915A34|#3D2E24" data-gender="male"/>
	<path d="M19 20.5c0 .276-.224.5-.5.5h-1c-.276 0-.5-.224-.5-.5s.224-.5.5-.5h1c.276 0 .5.224.5.5z" fill="#C1694F" data-skin="#C1694F|#C1694F|#C1694F|#915A34|#3D2E24" data-gender="female"/>
	<path d="M20.344 22.969c-.531.344-1.219.812-2.349.812-1.13 0-1.817-.469-2.349-.812-.531-.344-1.469.289-.656.988.812.699 2.053.979 3.001.979h.008c.948 0 2.188-.279 3.001-.979.812-.699-.125-1.332-.656-.988z" fill="#DF1F32" data-gender="female"/>
	<!-- head band -->
	<path d="M9.847 6.337C11.86 6.742 14.759 7 18 7c3.245 0 6.148-.258 8.162-.664-.559-.601-1.215-1.141-1.958-1.615C22.59 4.892 20.415 5 18 5c-2.23 0-4.266-.091-5.836-.24-.834.35-1.628.891-2.317 1.577z" fill="#FFF" data-gender="neutral"/>
	<path d="M23.104 4.821C21.653 4.932 19.901 5 18 5c-2.023 0-3.874-.076-5.375-.202-.81.471-1.488 1.039-2.032 1.674C12.549 6.798 15.139 7 18 7c2.763 0 5.274-.188 7.206-.494-.583-.639-1.29-1.211-2.102-1.685z" fill="#FFF" data-gender="male"/>
	<path d="M27.647 5.96c-.477-.564-.981-1.079-1.516-1.535C24.69 4.765 21.596 5 18 5c-3.591 0-6.682-.234-8.126-.572-.534.456-1.04.97-1.516 1.534C10.229 6.58 13.844 7 18 7c4.159 0 7.777-.42 9.647-1.04z" fill="#FFF" data-gender="female"/>
</svg>
