<svg viewBox="0 0 36 36" xmlns="http://www.w3.org/2000/svg" xmlns:ts="data:,a">
	<!-- back hair -->
	<use href="defs.svg#hair_neutral" transform="translate(21.906 1.262) scale(1.049)" ts:skin="hair" ts:gender="neutral"/>
	<path d="M19 0c-1.721 0-3.343.406-4.793 1.111C13.814 1.043 13.412 1 13 1 9.134 1 6 4.134 6 8v12h.018C6.201 26.467 11.489 31.656 18 31.656S29.799 26.467 29.982 20H30v-9c0-6.075-4.925-11-11-11z" ts:skin="hair" ts:gender="female"/>
	<!-- body -->
	<use href="defs.svg#shoulders_simple" x="18" fill="#FA743E" ts:gender-color="#4289C1,#9268CA"/>
	<path d="M9 32h1v4H9z M26,32 h1v4h-1z" fill="#DD551F" ts:gender-color="#2A6797,#7450A8"/>
	<!-- neck -->
	<path d="M15 24v4c0 1.657 1.343 3 3 3s3-1.343 3-3v-4h-6z" ts:skin="skin"/>
	<!-- head -->
	<path d="M25.909 11.701c-.677-.938-1.545-1.693-3.446-1.96.713.327 1.396 1.455 1.485 2.079.089.624.178 1.129-.386.505-2.26-2.499-4.722-1.515-7.162-3.041-1.704-1.066-2.223-2.246-2.223-2.246s-.208 1.574-2.792 3.178c-.749.465-1.643 1.5-2.139 3.03C8.889 14.345 9 15.325 9 17c0 4.889 4.029 9 9 9s9-4.147 9-9c0-3.041-.319-4.229-1.091-5.299z" ts:skin="skin" ts:gender="neutral"/>
	<ellipse cx="9.059" cy="13.715" rx="1.788" ry="2.861" ts:skin="skin" ts:gender="male"/><ellipse cx="26.941" cy="13.715" rx="1.788" ry="2.861" ts:skin="skin" ts:gender="male"/>
	<path d="M9 5.938V17c0 4.971 4.029 9 9 9s9-4.029 9-9V6.25L9 5.938z" ts:skin="skin" ts:gender="male"/>
	<path d="M9 5v12c0 4.971 4.029 9 9 9s9-4.029 9-9V5H9z" ts:skin="skin" ts:gender="female"/>
	<!-- eyes -->
	<use href="defs.svg#eyes_male" x="18" y="14.5" ts:skin="eyes"/>
	<!-- nose -->
	<rect x="16.5" y="18.5" width="3" height="1" rx="0.5" ts:skin="nose"/>
	<!-- mouth -->
	<circle cx="18" cy="23" r="1" ts:skin="mouth"/>
	<!-- hair -->
	<path d="M18 .823c-7.019 0-10.139 4.684-10.139 8.588 0 3.903 1.343 4.986 1.56 3.903.78-3.903 3.12-5.101 3.12-5.101 4.68 3.904 3.9.781 3.9.781 4.679 4.684 2.34 0 2.34 0 1.56 1.562 6.239 1.562 6.239 1.562s.78 1.198 1.559 2.759c.78 1.562 1.56 0 1.56-3.903 0-3.905-3.9-8.589-10.139-8.589z" ts:skin="hair" ts:gender="male"/>
	<path d="M27.999 5L26 4H8v7c6 0 6-6 6-6s2 7 14 7l-.001-7z" ts:skin="hair" ts:gender="female"/>
</svg>
