<svg viewBox="0 0 36 36" xmlns="http://www.w3.org/2000/svg" xmlns:ts="data:,a">
	<!-- back hair -->
	<use href="defs.svg#hair_neutral1" x="18" y="26" ts:skin="hair" ts:gender="neutral"/>
	<use href="defs.svg#hair_back_female_old" x="18" y="26" ts:skin="hair" ts:gender="female"/>
	<!-- body -->
	<path d="M27 27H10v9h21v-5c0-2.209-1.791-4-4-4z" fill="#FA743E" ts:gender-color="#4289C1,#9268CA"/>
	<rect x="26" y="32" width="1" height="4" fill="#DD551F" ts:gender-color="#2A6797,#7450A8"/>
	<!-- neck -->
	<use href="defs.svg#neck_old" x="18" y="31" ts:skin="skin"/>
	<!-- head -->
	<use href="defs.svg#face_neutral1" x="18" y="26" ts:skin="skin" ts:gender="neutral"/>
	<use href="defs.svg#face_male_old" x="18" y="26" ts:skin="skin" ts:gender="male"/>
	<use href="defs.svg#face_female_old" x="18" y="26" ts:skin="skin" ts:gender="female"/>
	<!-- hair -->
	<use href="defs.svg#hair_male2" x="18" y="0.823" ts:skin="hair" ts:gender="male"/>
	<!-- hand -->
	<path d="M12.421 2.935c-.591-.389-1.387-.224-1.776.367L10 4.284V2c0-1.105-.896-2-2-2H4C2.896 0 2 .896 2 2v8s0 1 1 1h6l1-1V8.957l2.789-4.246c.389-.592.225-1.387-.368-1.776z" ts:skin="skin"/>
	<path d="M4 0h1v5H4z M7,0 h1v5H7z" ts:skin="line"/>
	<!-- eyes -->
	<use href="defs.svg#eyes_male" x="18" y="14.5" ts:skin="eyes"/>
	<!-- nose -->
	<use href="defs.svg#nose_neutral1" x="18" y="19" ts:skin="nose"/>
	<!-- mouth -->
	<use href="defs.svg#mouth_smile_old" x="18" y="24" ts:skin="mouth"/>	
	<!-- arm -->
	<path d="M9 27h3l-2 9c-8 0-8-9-8-9V10h8L9 27z" fill="#FA743E" ts:gender-color="#4289C1,#9268CA"/>
</svg>
