<svg viewBox="0 0 36 36" xmlns="http://www.w3.org/2000/svg" xmlns:ts="data:,a">
	<!-- scissors behind -->
	<path d="M30.169 8.15L15.32 23s-.707-2.121.707-3.535L28.755 6.736l1.414 1.414z" fill="#9AAAB4" ts:gender="neutral,female"/>
	<path d="M28.026 18.899L13.177 4.05s-.707 2.121.707 3.536l12.728 12.728 1.414-1.415z" fill="#9AAAB4" ts:gender="male"/>
	<!-- hair -->
	<use href="defs.svg#hair_neutral1" x="8" y="26" ts:skin="hair" ts:gender="neutral"/>
	<path d="M 18.953,10.784 c -0.177,5.43 -4.622,9.779 -10.094,9.779 c -3.038,0 -4.392,-1.345 -6.246,-3.466 c -0.972,-0.337 -1.847,-0.869 -2.613,-1.524 v -12.367 c 1.406,-1.199 3.223,-1.928 5.211,-1.943 c -0.158,0.004 -0.464,0.011 -0.589,0.019 c 1.291,-0.598 2.722,-0.942 4.237,-0.942 c 3.586,0 6.728,1.872 8.523,4.686 s 1.571,5.758 1.571,5.758 Z" ts:skin="hair" ts:gender="male"/> <!-- old male hair design -->
	<use href="defs.svg#hair_back_female_old" x="8" y="26" ts:skin="hair" ts:gender="female"/> <!-- overflow! -->
	<!-- hair being cut -->
	<path d="M 19.629,11.361 s -0.338,6.223 3.371,9.086 c 0,0 -2.727,0.384 -4.888,-1.909 Z" ts:skin="hair" ts:gender="neutral"/>
	<path d="M 18.953,10.784 l -1.571,-5.758 c 4.698,2.775 9.118,3.255 9.118,3.255 c -2.423,1.827 -5.473,2.364 -7.547,2.503 Z" ts:skin="hair" ts:gender="male"/>
	<path d="M 20,11 s 1,10 16,16 l -7,9 s -6.574,-7.493 -12.441,-7.955 z" ts:skin="hair" ts:gender="female"/>
	<!-- body -->
	<use href="defs.svg#shoulders_simple" x="8" fill="#FA743E" ts:gender-color="#4289C1,#9268CA"/> <!-- overflow! -->
	<rect x="16" y="32" width="1" height="4" fill="#DD551F" ts:gender-color="#2A6797,#7450A8"/>
	<!-- neck -->
	<use href="defs.svg#neck_old" x="8" y="31" ts:skin="skin" ts:gender="neutral,female"/>
	<!-- head -->
	<use href="defs.svg#face_neutral1" x="8" y="26" ts:skin="skin" ts:gender="neutral"/>
	<path d="M18.729 13.715c0-1.548-.769-2.801-1.729-2.852v-.011c-6.887-.019-10.896-3.02-12.951-5.326C3.497 7.259 2.3 9.869 0 10.586v10.525c1.042 2.023 2.834 3.583 5 4.353V28c0 1.657 1.343 3 3 3s3-1.343 3-3v-2.523c3.493-1.237 6-4.56 6-8.477v-.433c.96-.051 1.729-1.304 1.729-2.852z" ts:skin="skin" ts:gender="male"/>
	<use href="defs.svg#face_female_old" x="8" y="26" ts:skin="skin" ts:gender="female"/>
	<!-- eyes -->
	<use href="defs.svg#eyes_male" x="8" y="14.5" ts:skin="eyes"/>
	<!-- nose -->
	<use href="defs.svg#nose_neutral1" x="8" y="19" ts:skin="nose"/>
	<!-- mouth -->
	<use href="defs.svg#mouth_smile_old" x="8" y="23" ts:skin="mouth" ts:gender="female"/>
	<use href="defs.svg#mouth_smile_old" x="8" y="24" ts:skin="mouth" ts:gender="neutral,male"/>
	<!-- scissors -->
	<path d="M24 6v21s2-1 2-3V6h-2z" fill="#9AAAB4" ts:gender="neutral,female"/>
	<path d="M22.143 21.74l-.001-21s2 1 2 3l.001 18h-2z" fill="#9AAAB4" ts:gender="male"/>
	<circle cx="25" cy="12" r="1" fill="#67757F" ts:gender="neutral,female"/>
	<circle cx="23.076" cy="15.363" r="1" fill="#67757F" ts:gender="male"/>
	<path d="M28.755 6.736c-1.952 1.953-2.586 4.484-1.414 5.656s3.705.539 5.657-1.414c1.952-1.952 2.586-4.484 1.414-5.656-1.172-1.172-3.704-.539-5.657 1.414z M30.169,8.150 c1.172-1.172 2.438-1.805 2.829-1.414.392.391-.243 1.656-1.415 2.828-1.171 1.172-2.437 1.805-2.828 1.414-.391-.39.243-1.656 1.414-2.828z" fill="#67757F" ts:gender="neutral,female"/>
	<path d="M32.269 21.727c1.172-1.172.538-3.704-1.414-5.657-1.952-1.952-4.485-2.586-5.657-1.414s-.538 3.704 1.414 5.657 4.485 2.586 5.657 1.414z M26.612,16.070 c.391-.391 1.657.243 2.828 1.414 1.171 1.171 1.805 2.438 1.414 2.828s-1.657-.243-2.828-1.414c-1.171-1.171-1.805-2.437-1.414-2.828z" fill="#67757F" ts:gender="male"/>
	<path d="M23 1c-1.657 0-3 2.239-3 5s1.343 5 3 5 3-2.239 3-5-1.343-5-3-5z M23,9 c-.553 0-1-1.343-1-3s.447-3 1-3 1 1.343 1 3-.447 3-1 3z" fill="#67757F" ts:gender="neutral,female"/>
	<path d="M24.143 21.74c-.001-2.762-1.342-5-3-5-1.657 0-3.001 2.239-3 5 0 2.761 1.342 5 3 4.999 1.657.002 3-2.236 3-4.999z M22.143,21.740 c0 1.657-.448 3-1.001 3-.553.001-.999-1.343-.999-3-.001-1.657.447-2.999 1-3 .553.001 1 1.344 1 3z" fill="#67757F" ts:gender="male"/>
</svg>
