<svg viewBox="0 0 36 36" xmlns="http://www.w3.org/2000/svg" xmlns:ts="data:,a">
	<!-- veil -->
	<path d="M35 18c0-7.002-2-13-7-16s-10-.784-10-.784v.034l-.001-.034S13-1 8 2s-7 8.998-7 16c0 7.003-1 18-1 18h36s-1-10.998-1-18z" fill="#E6E7E8"/>
	<!-- body -->
	<path d="M26 28H10c-3.313 0-6 2.686-6 6v2h28v-2c0-3.314-2.685-6-6-6z" fill="#FFF" ts:gender="neutral,male"/>
	<path d="M32 36v-1c0-3.313-2.687-6-6-6H10c-3.313 0-6 2.687-6 6v1h28z" fill="#FFF" ts:gender="female"/>
	<!-- back hair -->
	<use href="defs.svg#hair_neutral_narrow" x="21.152" y="3.3" ts:skin="hair" ts:gender="neutral"/>
	<use href="defs.svg#hair_back_female" transform="translate(17.999 2.809) scale(1.1875)" ts:skin="hair" ts:gender="female"/>
	<!-- neck -->
	<path d="M13.64 28.106c0 .894 2.36 1.993 4.36 1.993s4.359-1.099 4.359-1.992V24.29h-8.72v3.816z" ts:skin="skin" ts:gender="neutral"/>
	<path d="M13.64 28.101c1.744 1.268 2.857 2.032 4.37 2.032 1.512 0 2.606-.766 4.35-2.032V24.29h-8.72v3.811z" ts:skin="skin" ts:gender="male"/>
	<path d="M15 27 V29 h-3 v5 h12 v-5 h-3 v-2 z" ts:skin="skin" ts:gender="female"/>
	<!-- head -->
	<path d="M27.75 15.455c0-6.928-4.366-12.544-9.751-12.544s-9.75 5.616-9.75 12.544c0 5.581 2.835 10.305 6.751 11.934 h6 c3.916-1.629 6.75-6.353 6.75-11.932z" ts:skin="skin" ts:gender="female"/>
	<path d="M13.632 25.973c1.216 1.374 2.724 1.746 4.364 1.746 1.639 0 3.146-.373 4.363-1.746v-3.491h-8.728v3.491z" ts:skin="dark" ts:gender="neutral,male"/>
	<!-- head -->
	<use href="defs.svg#face_neutral" x="25.547" y="13.244" ts:skin="skin" ts:gender="neutral"/>
	<use href="defs.svg#face_male" x="18" y="16.959" ts:skin="skin" ts:gender="male"/>
	<!-- hair -->
	<use href="defs.svg#hair_male" x="18" y="3.48" ts:skin="hair" ts:gender="male"/>
	<path d="M5.863 20c-.025 0-.052-.59-.052-.876 0-4.063 2.438.425 2.438-2.47s1.625-3.266 3.25-4.891c.812-.812 2.438-2.446 2.438-2.446s4.063 2.434 7.314 2.434c3.25 0 6.5 1.624 6.5 4.874s2.438-1.563 2.438 2.5c0 .289-.027.875-.047.875h.853C31 19 31 17.392 31 15.874 31 5.311 22.875 1.216 17.999 1.216c-4.876 0-13.001 4.11-13.001 14.674 0 .942-.023 2.11.01 4.11h.855z" ts:skin="hair" ts:gender="female"/> <!-- alt -->
	<!-- eyes -->
	<use href="defs.svg#eyes_neutral" x="18.008" y="15.9115" ts:skin="eyes2" ts:gender="neutral"/>
	<use href="defs.svg#eyes_male" x="18" y="15.5" ts:skin="eyes2" ts:gender="male"/>
	<use href="defs.svg#eyes_male" x="18" y="16.5" ts:skin="eyes2" ts:gender="female"/>
	<!-- nose -->
	<use href="defs.svg#nose_neutral" x="18.008" y="20.2" ts:skin="nose" ts:gender="neutral"/>
	<use href="defs.svg#nose_male" x="18.0" y="19.0" ts:skin="nose" ts:gender="male"/>
	<rect x="17" y="20" width="2" height="1" rx="0.5" ts:skin="nose" ts:gender="female"/> <!-- diff -->
	<!-- mouth -->
	<use href="defs.svg#mouth_neutral" x="18.134" y="24.657" ts:skin="nose" ts:gender="neutral"/>
	<use href="defs.svg#mouth_neutral" x="18" y="23.802" ts:skin="nose" ts:gender="male"/>
	<path d="M20.344 22.969c-.531.344-1.219.812-2.349.812-1.13 0-1.817-.469-2.349-.812-.531-.344-1.469.289-.656.988.812.699 2.053.979 3.001.979h.008c.948 0 2.188-.279 3.001-.979.812-.699-.125-1.332-.656-.988z" fill="#DF1F32" ts:gender="female"/>
	<!-- head band -->
	<path d="M9.847 6.337C11.86 6.742 14.759 7 18 7c3.245 0 6.148-.258 8.162-.664-.559-.601-1.215-1.141-1.958-1.615C22.59 4.892 20.415 5 18 5c-2.23 0-4.266-.091-5.836-.24-.834.35-1.628.891-2.317 1.577z" fill="#FFF" ts:gender="neutral"/>
	<path d="M23.104 4.821C21.653 4.932 19.901 5 18 5c-2.023 0-3.874-.076-5.375-.202-.81.471-1.488 1.039-2.032 1.674C12.549 6.798 15.139 7 18 7c2.763 0 5.274-.188 7.206-.494-.583-.639-1.29-1.211-2.102-1.685z" fill="#FFF" ts:gender="male"/>
	<path d="M27.647 5.96c-.477-.564-.981-1.079-1.516-1.535C24.69 4.765 21.596 5 18 5c-3.591 0-6.682-.234-8.126-.572-.534.456-1.04.97-1.516 1.534C10.229 6.58 13.844 7 18 7c4.159 0 7.777-.42 9.647-1.04z" fill="#FFF" ts:gender="female"/>
</svg>
