<svg viewBox="0 0 36 36" xmlns="http://www.w3.org/2000/svg" xmlns:ts="data:,a">
	<!-- legs -->
	<path d="M15.087 24.856l-1.728-3.593c-.428.233-2.257 1.253-3.35 2.237-.635.572-.549 1.002-.36 1.944l.017.085c.189.952 2.205 7.351 2.47 8.187l1.345-.334c.011-.446-.04-2.803-.272-4.27-.073-.463-.147-1.025-.214-1.522-.071-.543-.263-1.087-.309-1.323-.064-.334.13-.493.433-.64.862-.417 1.715-.66 1.968-.771z " ts:skin="skin" ts:gender="neutral"/>
	<path d="M15.087 24.856l-1.728-3.593c-.428.233-2.257 1.253-3.35 2.237-.635.572-.549 1.002-.36 1.944l.017.085c.189.952 2.205 7.351 2.47 8.187l1.345-.334c.011-.446.057-2.767-.176-4.233-.073-.463-.147-1.025-.214-1.522-.071-.543-.134-1.012-.18-1.248-.064-.334.033-.53.337-.677.862-.416 1.586-.735 1.839-.846z " ts:skin="skin" ts:gender="male"/>
	<path d="M13.483 21.579c-.58.32-2.256 1.279-3.282 2.204-.596.537-.518.928-.329 1.871l.017.085c.186.932 2.106 7.039 2.483 8.232l1.168-.291c.014-.621.043-2.801-.18-4.205-.074-.47-.149-1.036-.217-1.549-.07-.532-.138-1.035-.184-1.273-.077-.396.05-.65.411-.825.772-.374 1.437-.671 1.764-.814l-1.651-3.435z " ts:skin="skin" ts:gender="female"/>
	<path d="M23.880,26.761 c-.546-.067-1.107-.08-1.346-.095-.339-.021-.577-.253-.643-.584-.188-.939-.225-1.767-.268-2.039l-3.912.767c.118.473.644 2.5 1.322 3.806.393.757.831.782 1.79.838l.087.005c.975.057 7.669-.284 8.545-.329l.015-1.385c-.43-.124-2.59-.664-4.069-.808-.464-.045-1.025-.115-1.521-.176z" ts:skin="skin" ts:gender="neutral"/>
	<path d="M23.808,26.673 c-.546-.067-1.019-.126-1.258-.141-.339-.021-.504-.165-.57-.496-.188-.939-.313-1.721-.356-1.993l-3.912.767c.118.473.644 2.5 1.322 3.806.393.757.831.782 1.79.838l.087.005c.975.057 7.669-.284 8.545-.329l.015-1.385c-.43-.124-2.663-.752-4.142-.896-.465-.045-1.026-.115-1.521-.176z" ts:skin="skin" ts:gender="male"/>
	<path d="M24.156,26.987 c-.533-.065-1.037-.128-1.278-.143-.403-.025-.618-.212-.695-.606-.168-.842-.288-1.56-.345-1.912l-3.74.733c.164.643.671 2.505 1.308 3.732.369.711.767.734 1.726.789l.088.005c.95.057 7.342-.266 8.593-.33l.013-1.205c-.597-.169-2.699-.746-4.114-.885-.476-.044-1.042-.114-1.556-.178z" ts:skin="skin" ts:gender="female"/>
	<!-- far arm -->
	<path d="M15.015 10.618c-.085.612.05 1.546 1.466 1.787 1.416.241 2.812.059 3.411-.108.599-.167.569.884.747 1.872.179.992.301 1.768.252 1.973-.082.347-.809 1.011-.517 1.612s.757 1.179 1.332.962c.575-.217 1.05-.475 1.203-.797s-.525-1.295-.552-1.574c-.027-.278.227-3.888.194-4.298-.04-.501-.078-1.187-.896-1.47-.818-.284-4.094-.92-4.915-1.079-.942-.185-1.612.309-1.725 1.12z" ts:skin="skin" ts:gender="neutral,male"/>
	<path d="M14.801 11.245c-.114.64.259 1.431 1.738 1.741 1.479.31 2.554.273 3.324.218.653-.047.563.952.711 1.998.148 1.05.241 2.419.182 2.633-.1.361-.722.479-.439 1.123.283.643.329.995.942.79.613-.205 1.222-.427 1.396-.759.174-.332-.43-1.065-.439-1.463-.007-.294.293-3.972.275-4.405-.022-.528-.035-1.251-.884-1.582-.849-.331-4.108-1.174-4.972-1.342-.912-.177-1.683.199-1.834 1.048z" ts:skin="skin" ts:gender="female"/>
	<!-- head -->
	<path d="M16.449 5.593c1.625-3.518-4.125-1.612-4.125-1.612-1.092.348.181 1.974-.058 3.122-.162.794 1.439.743 1.439.743s.685-.202.955.622l.002.008c.068.21.116.469.111.834-.027 1.808 2.503 2.205 2.528.394.01-.717-.229-1.278-.478-1.788l-.022-.045c-.372-.76-.753-1.408-.352-2.278z" ts:skin="skin" ts:gender="neutral"/>
	<path d="M13.826.971C11.981.781 9.725 2.34 9.867 4.376c.198 2.841 2.368 4.687 4.011 4.031 1.723-.688 2.703-1.387 2.911-3.417.21-2.03-1.117-3.829-2.963-4.019z" ts:skin="skin" ts:gender="neutral"/>
	<path d="M16.217 6.241c.285-.396.498-.858.589-1.424.326-2.021-.9-3.9-2.738-4.196-1.838-.296-4.287 1.14-4.162 3.184.125 2.029 1.356 4.986 3.04 4.423.444-.149.889-.311 1.31-.502.19.209.349 1.031.298 1.742-.131 1.81 2.363 1.913 2.492.1.104-1.435-.819-2.312-.829-3.327z" ts:skin="skin" ts:gender="male"/>
	<path d="M16.495 6.612c.31-.401.546-.872.661-1.455.409-2.083-.794-4.073-2.688-4.444-1.893-.372-4.483 1.029-4.425 3.151.057 2.107 1.229 5.214 2.993 4.69.466-.138.932-.29 1.375-.474.189.224.325 1.081.247 1.815-.2 1.87 2.381 2.065 2.579.192.157-1.482-.768-2.424-.742-3.475z" ts:skin="skin" ts:gender="female"/>
	<!-- hair -->
	<path d="M16.079.962c-1.13-.88-4.156-1.091-5.51.802-1.269.129-1.411 1.408-1.123 2.041.23.506 1.567.279 2.173 1.192.156-.315.072-.847-.054-1.109.525.283.637 1.379 2.455 1.608 1.757.221 1.867 1.688 1.867 1.688s.719-.623 1.109-1.451c.745-1.582.329-3.8-.917-4.771z" ts:skin="hair" ts:gender="neutral"/>
	<path d="M10.637 1.206C13.067-.4 14.736-.192 16.151.88c1.405 1.065 1.526 3.148 1.178 4.485-.348 1.338-.736 1.275-.736 1.275s-1.824.465-2.005-1.233c-.057-.537.534-.843-.138-1.615-.432-.497-1.358-.219-1.344.514.015.732-.363.605-.363.605l-1.153-1.91s-.951-.03-1.456.856c-.317.555-1.62-1.248.503-2.651z" ts:skin="hair" ts:gender="male"/>
	<path d="M21.903 2.733c-1.311-.014-2.496-1.36-3.845-.501-.264.168-.456.337-.604.503-.234-.711-.636-1.367-1.299-1.798C15.507.515 14.712.2 13.961.285 9.384.801 9.632 4.111 9.98 4.421c.348.31 1.299-.572 2.002-.669.328-.046 1.041-.053 1.419.49.306.44.411 1.33.411 1.33s.012-1.012.041-1.368c.027-.332.356-.714.801-.222.387.428.19 1.268-.079 1.356-.207.068.129.575.648.961.946.704 1.681.428 1.786.389.106-.039.465-.118.648-1.333.026-.169.044-.35.055-.537.374.324.987.709 1.827.715.929.007 2.619-.466 3.586-1.621.744-.889 1.05-2.355 1.05-2.355-.395.738-1.283 1.187-2.272 1.176z" ts:skin="hair" ts:gender="female"/>
	<!-- socks -->
	<path d="M11.211 32.283l.269-.259c.045-.036.11-.027.143.021.102.149.348.441.441.541-.26-.037-.661-.051-.809-.149-.056-.038-.096-.112-.044-.154z" fill="#8899A6" ts:gender="neutral,male"/>
	<path d="M11.438 32.516l.246-.246c.041-.034.102-.027.134.017.098.138.332.406.421.497-.243-.03-.618-.036-.757-.125-.054-.035-.093-.103-.044-.143z" fill="#8899A6" ts:gender="female"/>
	<path d="M27.805 29.682l-.178-.328c-.022-.053.004-.113.058-.132.171-.059.518-.217.639-.281-.105.24-.225.624-.359.74-.052.043-.134.063-.16.001z" fill="#8899A6" ts:gender="neutral,male"/>
	<path d="M28.11 29.77l-.166-.306c-.021-.049.003-.106.054-.123.16-.055.483-.203.596-.262-.098.224-.21.582-.335.69-.048.041-.124.059-.149.001z" fill="#8899A6" ts:gender="female"/>
	<!-- pants -->
	<path d="M12.654 21.244c.751-.398 3.235-1.653 4.947-1.804.156-.014.298.088.352.235l1.328 3.635c.068.186-.027.391-.216.451-.781.25-2.74.915-4.22 1.719-.157.085-.347.041-.448-.106-.456-.664-1.642-2.477-1.923-3.76-.032-.15.045-.298.18-.37z" fill="#C63900" ts:gender="neutral,male" ts:gender-color="#1C6399,"/>
	<path d="M13.084 21.466c.738-.382 3.176-1.588 4.842-1.76.152-.016 1.526 3.904 1.341 3.963-.763.246-2.681.897-4.134 1.668-.154.082-.338.044-.433-.09-.431-.605-1.549-2.257-1.798-3.436-.029-.138.048-.276.182-.345z" fill="#A0041E" ts:gender="female"/>
	<path d="M17.514 25.488c-.196-.827-.785-3.547-.501-5.242.026-.155.16-.266.316-.281l3.853-.37c.198-.019.371.125.382.323.046.818.196 2.882.601 4.517.043.173-.048.346-.216.407-.758.274-2.811.965-4.123.914-.153-.007-.276-.118-.312-.268z" fill="#DD551F" ts:gender="neutral,male" ts:gender-color="#357BAA,"/>
	<path d="M17.882 25.364c-.196-.795-.794-3.411-.586-5.049.019-.15 3.69-.685 3.69-.685.175-.021.6 3.084 1.005 4.655.043.166-.033.334-.181.395-.667.275-2.474.969-3.643.937-.136-.004-.249-.11-.285-.253z" fill="#BE1931" ts:gender="female"/>
	<!-- shoes -->
	<path d="M14.355 34.104c.07-.163.038-.485.003-.683-.024-.136-.109-.486-.206-.772-.043-.129-.101-.274-.136-.33-.108-.176-.212-.237-.28-.267-.082-.036-.155-.022-.188.001-.134.091-.322.405-.535.578-.071.058-.144.1-.22.113-.273.048-.755-.184-1.112-.359-.214-.105-.385-.189-.438-.18-.059.01-.102.039-.143.078l-.002.001h.001c-.108.104-.199.293-.516.492-.206.128-1.14.724-1.14.724-.24.147-.275.265-.403.346-.262.167-.987.534-1.209.678-.222.144-.275.357-.255.505.02.148.076.22.076.22s.242.291 1.549.166c.945-.09 1.045-.269 2.365-.763 1.32-.493 2.789-.548 2.789-.548z" fill="#DD551F" ts:gender="neutral,male" ts:gender-color="#1C6399,"/>
	<path d="M14.401 34.162c.063-.154.027-.453-.008-.637-.025-.127-.11-.452-.205-.717-.043-.119-.099-.254-.132-.306-.104-.162-.201-.217-.266-.244-.077-.033-.145-.018-.175.004-.123.088-.294.383-.489.548-.065.055-.133.095-.204.109-.254.049-.707-.159-1.044-.317-.202-.094-.362-.17-.412-.16-.054.011-.095.038-.132.075l-.002.001h.001c-.099.099-.18.277-.474.468-.189.123-1.051.696-1.051.696-.221.141-.252.252-.37.33-.242.16-.912.515-1.117.653-.204.138-.251.338-.23.475s.074.204.074.204.23.268 1.448.129c.88-.1.97-.269 2.194-.752s2.594-.559 2.594-.559z" fill="#BE1931" ts:gender="female"/>
	<path d="M30.398 27.138c-.139-.111-.457-.166-.657-.185-.138-.013-.498-.024-.799-.008-.136.008-.291.024-.355.043-.198.057-.285.141-.332.198-.057.069-.062.144-.049.181.052.153.304.418.414.67.037.084.058.166.05.243-.027.276-.379.678-.643.976-.158.179-.285.32-.29.375-.006.059.011.109.037.158v.002c.072.132.229.269.337.629.069.232.395 1.291.395 1.291.078.27.182.336.226.481.091.297.251 1.094.331 1.346.08.252.271.36.418.381s.232-.014.232-.014.345-.155.574-1.449c.165-.935.019-1.079-.105-2.483s.216-2.835.216-2.835z" fill="#DD551F" ts:gender="neutral,male" ts:gender-color="#1C6399,"/>
	<path d="M30.53 27.396c-.13-.104-.427-.155-.613-.173-.129-.013-.464-.023-.746-.007-.127.007-.272.023-.331.04-.185.054-.266.131-.31.185-.053.065-.058.134-.046.169.049.143.284.39.386.625.034.078.054.155.047.226-.025.258-.354.633-.6.911-.148.167-.266.299-.271.35-.005.055.01.102.035.148v.002c.067.123.214.251.314.587.065.217.369 1.205.369 1.205.073.252.17.313.211.449.085.277.235 1.021.309 1.256.074.235.253.336.39.355.138.019.217-.013.217-.013s.322-.145.535-1.352c.154-.872.018-1.007-.098-2.317-.114-1.312.202-2.646.202-2.646z" fill="#BE1931" ts:gender="female"/>
	
	<path d="M12.266 34.382c.03-.252.228-.863.555-1.11.295-.222 1.166-.56 1.331-.624.102.271.202.703.226.843.033.186.076.398.004.553l-.028.059c.001.001-1.481.173-2.088.279z" fill="#FA743E" ts:gender="neutral,male" ts:gender-color="#3B94D9"/>
	<path d="M12.457 34.457c.024-.236.198-.809.499-1.045.271-.212 1.079-.542 1.232-.604.1.251.2.652.225.783.033.173.078.37.013.516l-.025.056c0-.001-1.38.184-1.944.294z" fill="#DD2E44" ts:gender="female"/>
	<path d="M30.109 29.226c-.235-.096-.771-.45-.922-.831-.136-.344-.229-1.273-.246-1.449.288-.026.731-.007.873.007.188.018.404.033.534.143l.05.043c0-.001-.229 1.473-.289 2.087z" fill="#FA743E" ts:gender="neutral,male" ts:gender-color="#3B94D9"/>
	<path d="M30.261 29.344c-.219-.09-.72-.42-.86-.775-.127-.321-.213-1.188-.229-1.353.269-.024.682-.006.815.006.175.017.377.031.498.134l.046.04c-.001 0-.215 1.376-.27 1.948z" fill="#DD2E44" ts:gender="female"/>
	<!-- shirt -->
	<path d="M19.459 10.057c-.77-1.644-1.984-2.479-3.384-1.957-4.381 1.635-2.36 5.68-.781 12.252 0 0 3.109.449 6.316.36 0 .001-.298-6.698-2.151-10.655z" fill="#4289C1" ts:gender="male"/>
	<path d="M19.624 10.939c-.728-1.703-1.783-2.597-3.229-2.114-1.285.43-1.922 1.151-2.301 1.96-.184.393-.901 1.933-.466 2.933.851 1.956 2.243 5.863 2.488 7.059 0 0 .322.326 2.403.064 1.823-.23 2.732-.404 2.732-.404-.277-2.594-.452-6.747-1.627-9.498z" fill="#DD2E44" ts:gender="female"/>
	<path d="M19.459 10.057c-.77-1.644-2.017-2.56-3.384-1.957-1.809.799-2.443 2.756-2.332 4.652.122 2.065 1.556 3.924 1.551 7.601 0 0 3.109.449 6.316.36 0 0-.298-6.699-2.151-10.656z" fill="#FA743E" ts:gender="neutral"/>
	<!-- near arm -->
	<path d="M16.94 10.268c-.577-.345-1.462-.572-2.304.745s-1.187 2.756-1.447 3.433c-.243.632-1.127.196-2.194-.045-1.07-.242-2.429-.654-2.614-.79-.313-.229-.199-.874-.925-.837s-1.083-.047-1.11.622c-.026.669-.035 1.339.222 1.629.258.29 1.127.04 1.516.177.287.101 3.803 1.876 4.228 2.017.519.172 1.223.425 1.854-.275s2.658-3.714 3.167-4.47c.584-.867.373-1.748-.393-2.206z" ts:skin="skin" ts:gender="neutral"/>
	<path d="M16.94 10.268c-.577-.345-1.571-.605-2.413.712s-1.251 2.794-1.338 3.466c-.087.672-1.127.196-2.194-.045-1.07-.242-2.429-.654-2.614-.79-.313-.229-.199-.874-.925-.837s-1.083-.047-1.11.622c-.026.669-.035 1.339.222 1.629.258.29 1.127.04 1.516.177.287.101 3.803 1.876 4.228 2.017.519.172 1.223.425 1.854-.275s2.658-3.714 3.167-4.47c.584-.867.373-1.748-.393-2.206z" ts:skin="skin" ts:gender="male"/>
	<path d="M17.202 11.067c-.577-.372-1.499-.331-2.404.983-.905 1.314-1.308 2.376-1.568 3.148-.221.655-1.157.16-2.236-.122-1.083-.284-2.455-.752-2.639-.897-.311-.245-.172-.898-.914-.886-.742.013-1.103-.086-1.153.595-.05.681-.083 1.364.17 1.669.253.305 1.212.016 1.604.169.289.113 3.749 1.905 4.178 2.064.524.194 1.233.476 1.901-.216.668-.692 2.819-3.522 3.335-4.296.543-.814.491-1.718-.274-2.211z" ts:skin="skin" ts:gender="female"/>
	<!-- shoe details -->
	<path d="M28.048 30.27c-.073 0-.142-.041-.175-.111-.046-.097-.005-.213.092-.258l.342-.162c.097-.046.212-.005.259.092.046.097.005.213-.092.258l-.342.162c-.028.013-.056.019-.084.019z M28.266,30.895 c-.082 0-.158-.053-.185-.135-.032-.102.024-.211.126-.244l.38-.121c.097-.033.21.023.243.126.032.102-.024.211-.126.244l-.38.121c-.018.007-.038.009-.058.009z M28.450,31.532 c-.091 0-.171-.063-.19-.155-.021-.105.046-.207.152-.229l.356-.072c.111-.023.207.047.229.152.021.105-.046.207-.152.229l-.356.072-.039.003z" fill="#CCD6DD" ts:gender="neutral,male"/>
	<path d="M31.226,27.402 c-.006-.028-.027-.137-.101-.27-.025-.045-.082-.059-.14-.066-.072-.009-.6-.085-.61.022 0 0-.003.159-.077.268-.075.109-.127.377-.146.577-.019.199-.105.951-.085 1.478.02.528.183 1.482.19 1.8.008.318 0 .814-.068 1.18s-.14.692-.196.893c-.072.259-.168.471-.279.619 0 0 .417-.028.736-.645.252-.487.393-.955.446-1.411.004-.035.113-1.252.165-1.86.038-.445.102-1.155.102-1.155.081-.841.1-1.269.063-1.43z" fill="#CCD6DD" ts:gender="neutral,male"/>
	
	<path d="M28.337 30.337c-.075 0-.146-.042-.181-.115-.048-.1-.005-.219.095-.266l.319-.151c.104-.048.22-.004.267.095.047.1.005.219-.095.266l-.319.151c-.028.014-.058.02-.086.02z M28.541,30.921 c-.085 0-.163-.054-.19-.139-.034-.105.024-.218.13-.251l.354-.113c.1-.035.217.024.251.13.034.105-.024.218-.13.251l-.354.113c-.02.006-.04.009-.061.009z M28.713,31.516 c-.094 0-.177-.065-.196-.16-.021-.108.048-.214.156-.236l.332-.068c.114-.023.214.048.236.156.021.108-.048.214-.156.236l-.332.068c-.014.002-.027.004-.04.004z" fill="#CCD6DD" ts:gender="female"/>	<path d="" fill="#CCD6DD" ts:gender="female"/>
	<path d="M31.303,27.643 c-.006-.027-.025-.128-.095-.252-.023-.042-.077-.055-.131-.061-.067-.009-.56-.08-.569.02 0 0-.002.148-.072.25-.07.102-.118.352-.136.539-.018.186-.098.887-.08 1.379.018.492.17 1.383.178 1.68.007.297 0 .759-.063 1.101-.063.342-.131.646-.183.834-.067.242-.157.439-.26.578 0 0 .389-.026.687-.602.235-.454.367-.891.416-1.317.004-.032.105-1.168.154-1.736.035-.415.095-1.078.095-1.078.075-.786.093-1.185.059-1.335z" fill="#CCD6DD" ts:gender="female"/>
	
	
	<path d="M11.144 33.103c-.054 0-.109-.023-.147-.067l-.247-.287c-.07-.081-.061-.204.02-.274.081-.07.205-.061.274.02l.247.287c.07.081.061.204-.02.274-.038.032-.083.047-.127.047z M10.569,33.528 c-.063 0-.125-.031-.163-.088l-.218-.334c-.058-.09-.033-.21.057-.269.09-.058.209-.034.269.056l.218.334c.058.09.033.21-.057.269-.033.022-.069.032-.106.032z M9.952,33.865 c-.07 0-.138-.039-.173-.106l-.165-.324c-.048-.095-.01-.212.085-.261.095-.049.211-.011.261.085l.165.324c.048.096.01.212-.085.261-.028.015-.059.021-.088.021z" fill="#CCD6DD" ts:gender="neutral,male"/>
	<path d="M14.321,34.973 c.026-.014.125-.062.234-.17.036-.036.035-.095.026-.153-.01-.072-.078-.601-.184-.582 0 0-.154.04-.279-.003-.125-.043-.398-.021-.595.013-.197.035-.944.152-1.447.312-.503.16-1.379.571-1.684.664-.305.092-.784.217-1.156.249-.371.032-.705.05-.913.049-.269 0-.498-.036-.671-.103 0 0 .138.394.818.537.537.113 1.025.124 1.479.053.034-.005 1.237-.225 1.836-.337.439-.082 1.14-.21 1.14-.21.833-.146 1.25-.241 1.396-.319z" fill="#CCD6DD" ts:gender="neutral,male"/>
	
	<path d="M11.385 33.301c-.055 0-.109-.022-.149-.067L11 32.971c-.073-.082-.066-.209.016-.282.083-.073.207-.067.283.016l.235.263c.073.082.066.209-.016.282-.039.034-.085.051-.133.051z M10.856,33.707 c-.063 0-.127-.031-.165-.088l-.209-.308c-.062-.092-.039-.216.053-.278.089-.061.216-.039.277.053l.209.308c.062.092.039.216-.053.278-.033.024-.072.035-.112.035z M10.286,34.032 c-.071 0-.141-.038-.177-.106l-.159-.299c-.052-.098-.015-.219.083-.271.094-.052.218-.016.271.083l.159.299c.052.098.015.219-.083.271-.029.016-.062.023-.094.023z" fill="#CCD6DD" ts:gender="female"/>
	<path d="M14.384,34.973 c.024-.013.116-.06.215-.162.033-.034.031-.089.022-.143-.011-.067-.083-.559-.181-.54 0 0-.143.04-.26.002-.117-.038-.371-.013-.555.022-.184.036-.878.158-1.345.315-.467.157-1.277.556-1.56.648-.283.091-.728.215-1.074.252-.346.037-.657.058-.851.062-.251.004-.466-.025-.628-.085 0 0 .136.366.772.488.502.097.959.099 1.381.025.032-.006 1.15-.231 1.708-.346.408-.084 1.06-.215 1.06-.215.774-.151 1.162-.247 1.296-.323z" fill="#CCD6DD" ts:gender="female"/>
</svg>
