<svg viewBox="0 0 36 36" xmlns="http://www.w3.org/2000/svg" xmlns:ts="data:,a">
	<!-- note: the gendered forms of this emoji are not required by unicode (they DO render on twitter.com though) -->
	<!-- the female variant doesn't share any layers -->
	<!-- shadow -->
	<ellipse cx="18" cy="35" rx="6" ry="1" fill="#99AAB5" ts:gender="neutral,male"/>
	<ellipse cx="17.982" cy="34.833" rx="6" ry="1" fill="#98A9B4" ts:gender="female"/>
	<!-- back hair -->
	<use href="defs.svg#hair_neutral1" transform="translate(18.002 10.92) scale(.336)" ts:skin="hair" ts:gender="neutral"/>
	
	<use href="defs.svg#hair_back_female" transform="translate(17.983 0.717) scale(.4255)" ts:skin="hair" ts:gender="female"/>
	<!-- shoes -->
	<path d="M 15.223,29.785 c 0.184,-0.513 0.711,-0.764 1.55,-0.764 c 1.209,0 1.429,0.713 1.429,1.11 c 0,1.512 -1.077,2.584 -1.498,2.584 c -0.44,0 -1.93,-1.678 -1.481,-2.93 Z" fill="#DD2F45" ts:gender="female"/><path d="M 20.741,29.785 c 0.449,1.252 -1.041,2.93 -1.481,2.93 c -0.421,0 -1.498,-1.072 -1.498,-2.584 c 0,-0.397 0.22,-1.11 1.429,-1.11 c 0.839,0 1.366,0.251 1.55,0.764 Z" fill="#DD2F45" ts:gender="female"/>
	<!-- legs -->
	<rect x="15.678" y="20.603" width="2.024" height="9.971" rx="1.012" ts:skin="skin" ts:gender="female"/>
	<rect x="18.201" y="20.603" width="2.024" height="9.971" rx="1.012" ts:skin="skin" ts:gender="female"/>
	<!-- arms -->
	<rect x="12" y="13" width="2" height="10" rx="1" ts:skin="skin" ts:gender="neutral,male"/>
	<rect x="22" y="13" width="2" height="10" rx="1" ts:skin="skin" ts:gender="neutral,male"/>
	<rect x="11.904" y="14.881" width="2.024" height="4.863" rx="1.012" ts:skin="skin" ts:gender="female"/>
	<rect x="22.036" y="15.131" width="2.024" height="4.613" rx="1.012" ts:skin="skin" ts:gender="female"/>
	<!-- pants -->
	<path d="M19 19h-5l1 11h3v-7 7h3l1-11z" fill="#66757F" ts:gender="neutral,male"/>
	<path d="M18 23c-.552 0-1 7-1 7 0 .553.448 0 1 0 .553 0 1 .553 1 0 0 0-.447-7-1-7z" fill="#546170" ts:gender="neutral,male"/>
	<!-- skirt -->
	<path d="M20.478 24.992c2.209-5.322.594-7.213.594-7.213l-6.216-.006s-1.531 1.537.59 7.219h5.032z" fill="#8899A6" ts:gender="female"/>
	<!-- shirt -->
	<path d="M22.175 11.639c-1.191-.273-2.172-.639-2.172-.639H16s-.981.366-2.172.639c-1.322.303-1.828.864-1.828 1.968V21h2v1h2l2.003-1 2 1h2v-1h2v-7.393c0-1.104-.507-1.665-1.828-1.968z" fill="#292F33" ts:gender="neutral"/>
	<path d="M22 11h-8c-1.104 0-2 .896-2 2v8h2v1h2l2-1 2 1h2v-1h2v-8c0-1.104-.896-2-2-2z" fill="#292F33" ts:gender="male"/>
	<path d="M17.982 10c-6.625 0-6.228 6.853-6.228 6.853h2.285c0-2.186.839-3.145.839-3.145l.432 3.288-.436.782s1.041.569 3.108.569 3.108-.569 3.108-.569l-.436-.782.432-3.288s.839.958.839 3.145h2.285S24.607 10 17.982 10z" fill="#292F33" ts:gender="female"/>
	<!-- neck -->
	<path d="M16.798 9.576h2.411v3.015h-2.411z" ts:skin="skin" ts:gender="neutral"/>
	<path d="M16.799 10h2.402v1.592h-2.402z" ts:skin="skin" ts:gender="male"/>
	<path d="M16.781 9.125v1.155s.451.408 1.201.408 1.201-.408 1.201-.408V9.125h-2.402z" ts:skin="skin" ts:gender="female"/>
	<!-- face -->
	<use href="defs.svg#face_neutral1" transform="translate(18.002 10.92) scale(.336)" ts:skin="skin" ts:gender="neutral"/>
	<ellipse cx="14.634" cy="6.819" rx="0.67" ry="1.071" ts:skin="skin" ts:gender="male"/><ellipse cx="21.33" cy="6.819" rx="0.67" ry="1.071" ts:skin="skin" ts:gender="male"/>
	<ellipse cx="18" cy="6.771" rx="3.482" ry="4.135" ts:skin="skin" ts:gender="male"/>
	<path d="M14.49 5.247c0-2.481 1.564-4.493 3.494-4.493 1.929 0 3.494 2.012 3.494 4.493 0 2.481-1.564 4.493-3.494 4.493-1.93 0-3.494-2.012-3.494-4.493z" ts:skin="skin" ts:gender="female"/>
	<!-- hair -->
	<path d="M14.827 6.396c.06-.296.148-.546.246-.771h-.777c.121.874.465 1.095.531.771z M21.173,6.271 c.239.47.475.152.55-.771h-.942l.392.771z" ts:skin="hair" ts:gender="male"/>
	<path d="M13.635 6.829c-.009-.095-.019-.188-.019-.291 0-1.455.873.164.873-.873s.582-1.164 1.165-1.746l.873-.873s1.456.873 2.62.873 2.329.582 2.329 1.746.873-.582.873.873c0 .103-.01.196-.017.291h.305c.003-.43.003-.911.003-1.455 0-3.783-2.911-5.239-4.658-5.239s-4.658 1.455-4.658 5.239c0 .337-.008.869.004 1.455h.307z" ts:skin="hair" ts:gender="female"/><!-- idk.. -->
	<!-- nose -->
	<use href="defs.svg#nose_neutral1" transform="translate(18.003, 8.569) scale(0.336)" ts:skin="nose" ts:gender="neutral"/>
	
	<path d="M18.008,7.936 c-.269 0-.478-.048-.646-.122.055.198.21.474.646.474.436 0 .59-.276.646-.474-.168.074-.377.122-.646.122z" ts:skin="nose" ts:gender="male"/>
	<path d="M17.982 6.77c-.269 0-.478-.048-.646-.122.055.198.21.474.646.474.436 0 .59-.276.646-.474-.168.073-.377.122-.646.122z" ts:skin="nose" ts:gender="female"/>
	<!-- mouth -->
	<use href="defs.svg#mouth_smile_old" transform="translate(18.003 10.248) scale(0.336)" ts:skin="mouth" ts:gender="neutral"/>
	<path d="M19.305 9.096c-.015-.025-.043-.041-.073-.041h-2.453c-.03 0-.058.015-.073.041-.015.025-.017.057-.003.084.015.029.372.704 1.303.704.931 0 1.288-.676 1.303-.704.013-.026.011-.058-.004-.084z" ts:skin="mouth" ts:gender="male"/>
	<path d="M19.282 7.93c-.015-.025-.043-.041-.073-.041h-2.453c-.03 0-.058.015-.073.041-.015.025-.017.057-.003.084.015.029.372.704 1.303.704.931 0 1.288-.676 1.303-.704.013-.027.011-.059-.004-.084z" ts:skin="mouth" ts:gender="female"/>
	<!-- lapel -->
	<path d="M16.2 13.2L14.924 12l.569-.883L16 11l.221.57z M19.803 13.2l1.276-1.2-.569-.883-.507-.117-.221.57z" fill="#546170" ts:gender="neutral"/>
	<path d="M16.2 13.2L14.924 12l.49-1h.786z M19.8 13.2l1.276-1.2-.49-1H19.8z" fill="#546170" ts:gender="male"/>
	
	<path d="M18 18l-3.099-5.045 1.271-1.361z M17.997 18l3.099-5.045-1.271-1.361z" fill="#66757F" ts:gender="neutral,male"/>
	<!-- inner shirt -->
	<path d="M18 18l-2-7 2 1 2-1z" fill="#E1E8ED" ts:gender="neutral,male"/>
	<!-- tie -->
	<path d="M19 12l-1-.417L17 12l.878.878-.793 1.918L18 18l.915-3.204-.793-1.918z" fill="#292F33" ts:gender="neutral,male" ts:gender-color="#55ACEE,"/>
	<!-- shoes -->
	<path d="M 19.36,29.479 c 0.68,0 1.411,0.08 1.641,0.521 c 0.563,1.078 1.001,2.662 0.141,2.979 c -1.354,0.5 -3.192,-1.604 -3.141,-2.979 c 0.013,-0.362 0.254,-0.521 1.359,-0.521 Z" fill="#292F33" ts:gender="neutral,male"/><path d="M 16.64,29.479 c 1.105,0 1.346,0.159 1.359,0.521 c 0.052,1.375 -1.786,3.479 -3.141,2.979 c -0.86,-0.317 -0.422,-1.901 0.141,-2.979 c 0.23,-0.441 0.962,-0.521 1.641,-0.521 Z" fill="#292F33" ts:gender="neutral,male"/>
	<!-- sunglasses -->
	<path d="M21.492 5.897l-.958.316c-.337-.047-1.038-.066-1.779.015-.197.022-.272.078-.739.078-.466 0-.542-.056-.739-.078-.741-.081-1.442-.062-1.779-.015l-.958-.316c-.093-.033-.191.019-.221.111s.02.19.111.221l.894.295c.066.051.208.148.242.248.039.116.117.861.35 1.055.241.2 1.148.125 1.322.039.389-.194.437-.82.505-1.094.039-.155.272-.155.272-.155s.233 0 .272.155c.069.274.117.902.505 1.096.174.087 1.081.161 1.322-.039.233-.194.311-.941.35-1.057.033-.1.175-.196.241-.247l.895-.295c.092-.03.142-.129.111-.221-.029-.093-.132-.144-.219-.112z" fill="#292F33" ts:gender="neutral,male"/>
	<!-- sunglasses frame -->
	<path d="M20.993 4.538c-.256-.25-1.536-.091-2.122.188-.236.112-.35.203-.51.336-.214.179-.379.178-.379.178s-.164.001-.379-.178c-.159-.133-.274-.224-.51-.336-.586-.28-1.867-.438-2.122-.188-.417.407-.101 2.32.635 2.47.536.109.952.07 1.19-.01.168-.056.507-.209.744-.808.214-.541.442-.536.442-.536s.228-.005.442.536c.237.598.576.751.744.807.238.08.655.119 1.19.01.736-.149 1.051-2.062.635-2.469z" fill="#DD2F45" ts:gender="female"/>
	<!-- lenses -->
	<path d="M 16.578,4.835 c 0.288,0.04 0.843,0.263 0.842,0.67 c 0,0.58 -0.308,1.032 -0.617,1.18 c -0.171,0.082 -0.952,0.137 -1.148,-0.104 c -0.36,-0.442 -0.416,-1.478 -0.218,-1.696 c 0.199,-0.219 1.141,-0.05 1.141,-0.05 Z M 19.386,4.835 s 0.942,-0.169 1.141,0.05 c 0.198,0.218 0.142,1.254 -0.218,1.696 c -0.196,0.241 -0.977,0.186 -1.148,0.104 c -0.309,-0.148 -0.617,-0.6 -0.617,-1.18 c -0.001,-0.407 0.554,-0.63 0.842,-0.67 Z" fill="#292F33" ts:gender="female"/>
	<!-- hat -->
	<path d="M20.324 3.977c.612-.166 1.091-.411 1.091-.411s-.141-.578-.283-.95c-.442-1.154-1.175-1.729-1.849-1.558-1.019.259-1.496.11-2.712-.034-1.215-.144-1.773 1.682-1.968 2.542 0 0 .322.274.902.403.022.005.05.008.073.013-2.094.094-2.787.351-2.787.852 0 .66 2.336 1.333 5.219 1.333 2.882 0 5.219-.673 5.219-1.333-.002-.511-.723-.767-2.905-.857z" fill="#292F33" ts:gender="neutral,male"/>
	<!-- hat band -->
	<path d="M21.583 4.225c-.012-.069-.027-.145-.043-.22-.048-.225-.126-.439-.126-.439s-1.101.429-3.406.429-3.406-.429-3.406-.429-.078.214-.126.439c-.016.076-.031.152-.043.22-.048.273.081.461.966.649.6.127 1.582.241 2.608.22 1.026.021 2.009-.093 2.608-.22.888-.188 1.017-.376.968-.649z" fill="#66757F" ts:gender="neutral,male"/>
	<!-- collar -->
	<path d="M 16.562,10.562 l 1.438,1.021 l -0.938,0.995 l -1.062,-1.578 l 0.562,-0.438 Z M 19.438,10.562 l 0.562,0.438 l -1.062,1.578 l -0.938,-0.995 l 1.438,-1.021 Z" fill="#F5F8FA" ts:gender="neutral,male"/>
</svg>
