<svg viewBox="0 0 36 36" xmlns="http://www.w3.org/2000/svg" xmlns:ts="data:,a">
	<!-- back hair -->
	<path d="M23.292 1.485C20.555.6 14.117.841 12.507 2.934c-4.185.08-9.095 3.863-9.739 8.853-.637 4.939.783 7.232 1.288 10.946.572 4.208 2.938 5.553 4.829 6.117 2.721 3.595 5.613 3.441 10.47 3.441 9.484 0 14.001-6.346 14.4-17.123.241-6.52-3.583-11.457-10.463-13.683z" fill="#FFE51E" ts:gender="neutral"/>
	<path d="M18 3c6 0 16 3 16 16s0 16-3 16-7-3-13-3-9.915 3-13 3c-3.343 0-3-12-3-16C2 6 12 3 18 3z" fill="#FFE51E" ts:gender="female"/>
	<!-- face -->
	<path d="M28.716 15.628c-.918-1.271-2.093-2.294-4.668-2.656.966.443 1.891 1.972 2.012 2.817.121.845.242 1.529-.523.684-3.063-3.386-6.399-2.052-9.705-4.121-2.309-1.445-3.012-3.042-3.012-3.042s-.282 2.133-3.783 4.306c-1.015.63-2.226 2.033-2.897 4.105-.483 1.489-.333 2.817-.333 5.086C5.806 29.431 11.265 35 18 35s12.194-5.618 12.194-12.194c-.001-4.12-.432-5.73-1.478-7.178z" ts:skin="skin" ts:gender="neutral"/>
	<path d="M32 20c0-2.209-1.119-4-2.5-4-.012 0-.021.005-.033.005C27.955 9.704 23.394 5.125 18 5.125s-9.956 4.58-11.467 10.88C6.521 16.004 6.511 16 6.5 16 5.119 16 4 17.791 4 20c0 2.107 1.021 3.815 2.314 3.97C7.537 30.619 12.299 35 18 35c5.7 0 10.463-4.381 11.685-11.03C30.979 23.815 32 22.107 32 20z" ts:skin="skin" ts:gender="male"/>
	<ellipse cx="18" cy="18.562" rx="12" ry="15.438" ts:skin="skin" ts:gender="female"/>
	<!-- outline (neutral skin color only) -->
	<path d="M6.306 22.807c0-.467-.006-.895-.012-1.292-.022-1.526-.037-1.988.321-3.093.649-2.001 1.812-3.292 2.686-3.834 2.174-1.35 3.178-2.708 3.637-3.609.482.638 1.308 1.518 2.629 2.344 1.455.911 2.898 1.194 4.293 1.468 1.867.366 3.63.712 5.305 2.564.3.331.562.551.865.551h.229l.217-.203c.245-.283.188-1.234.091-1.904-.082-.571-.233-1.03-.665-1.656 1.053.426 1.969 1.347 2.601 2.222.917 1.27 1.192 3.798 1.192 6.442 0 1.337-.084 2.787-.297 4.241.507-1.331.797-2.759.797-4.241 0-4.12-.432-5.73-1.478-7.179-.918-1.271-2.093-2.294-4.668-2.656.966.443 1.891 1.972 2.012 2.817.121.845.242 1.529-.523.684-3.063-3.386-6.399-2.052-9.705-4.121-2.31-1.445-3.013-3.042-3.013-3.042s-.282 2.133-3.783 4.306c-1.015.63-2.226 2.033-2.897 4.105-.483 1.489-.333 2.817-.333 5.086 0 1.487.288 2.915.791 4.244-.21-1.448-.292-2.896-.292-4.244z" fill="#FFAC33" ts:skin="none,none,none,none,none" ts:gender="neutral"/>
	<path d="M13.272 32.665l-.169-.098c-4.102-2.356-6.783-7.384-6.998-13.121.191-2.32 1.35-3.255 2.577-4.246.44-.355.896-.723 1.35-1.177l3.125-3.125.319.191c.047.028 4.703 2.793 8.339 2.793 3.624 0 7.696 1.762 8.071 5.629-.249 5.741-2.927 10.717-6.985 13.052l-.169.098-.188-.049c-1.319-.34-7.771-.338-9.083.003l-.189.05zm.038-20.57l-2.604 2.603c-.49.49-.986.891-1.425 1.245-1.201.969-2.068 1.669-2.224 3.526.201 5.279 2.634 9.947 6.365 12.18 1.716-.322 7.439-.324 9.16-.003 3.69-2.212 6.12-6.831 6.354-12.108-.316-3.208-3.913-4.699-7.12-4.699-3.368-.001-7.349-2.093-8.506-2.744z" fill="#FFAC33" ts:skin="none,none,none,none,none" ts:gender="female"/>
	<ellipse cx="18" cy="20" rx="10.882" ry="14" fill="#FFDC5D" ts:skin="none,none,none,none,none" ts:gender="female"/>
	<path d="M28.938 19.604c-.318-3.275-3.915-4.767-7.122-4.767-3.367 0-7.349-2.092-8.506-2.743l-2.604 2.603c-.49.49-.986.891-1.425 1.245-1.201.969-2.068 1.669-2.224 3.526l-.95-.08c.19-2.262 1.349-3.198 2.575-4.188.44-.355.896-.723 1.35-1.177l3.125-3.125.319.191c.047.028 4.703 2.793 8.339 2.793 3.624 0 7.696 1.762 8.071 5.629l-.948.093z" fill="#FFAC33" ts:skin="none,none,none,none,none" ts:gender="female"/>
	<path d="M18 2c8 0 13 6 13 11s-1.162 6.536-2.218 4.565c-1.095-2.044-2.115-4.009-2.115-4.009s-3.771.028-6.542-1.243c0 0 1.469 4.562-3.681-.179 0 0-.101 2.71-5.467-1.422 0 0-2.511 1.623-3.511 6.623C7.189 18.721 5 18 5 13S9 2 18 2z" fill="#FFAC33" ts:skin="none,none,none,none,none" ts:gender="male"/>
	<!-- hair -->
	<path d="M18 1c8 0 13 6 13 11s-1 7-2 5l-2-4s-6 0-8-2c0 0 3 6-3 0 0 0 1 4-5-1 0 0-3 2-4 7-.277 1.387-2 0-2-5S9 1 18 1z" fill="#FFE51E" ts:gender="male"/>
	<path d="M3.064 24c-.03-.325-.064-.647-.064-1 0-5 3 .562 3-3 0-3.563 2-4 4-6l3-3s5 3 9 3 8 2 8 6 3-2 3 3c0 .355-.033.673-.058 1h1.049C34 22.523 34 20.868 34 19 34 6 24 1 18 1S2 6 2 19c0 1.158-.028 2.986.012 5h1.052z" fill="#FFE51E" ts:gender="female"/>
	<!-- eyes -->
	<rect x="10.667" y="17.42" width="2.666" height="3.999" rx="1.333" ts:skin="eyes2" ts:gender="neutral"/><rect x="22.667" y="17.42" width="2.666" height="3.999" rx="1.333" ts:skin="eyes2" ts:gender="neutral"/>
	<use href="defs.svg#eyes_big" x="18" y="19" ts:skin="eyes" ts:gender="male"/>
	<use href="defs.svg#eyes_big" x="18" y="20" ts:skin="eyes" ts:gender="female"/>
	<!-- nose -->
	<rect x="15.968" y="24.646" width="4.064" height="1.354" rx="0.677" ts:skin="nose" ts:gender="neutral"/>
	<use href="defs.svg#nose_big" x="18" y="25" ts:skin="nose" ts:gender="male"/>
	<use href="defs.svg#nose_big" x="18" y="24" ts:skin="nose" ts:gender="female"/>
	<!-- mouth -->
	<path d="M18 31c-4.201 0-5.491-1.077-5.707-1.293-.391-.391-.391-1.023 0-1.414.378-.379.984-.39 1.376-.036.08.058 1.1.743 4.331.743 3.355 0 4.326-.739 4.336-.747.39-.389 1.001-.37 1.393.021.391.391.369 1.043-.021 1.434C23.491 29.923 22.201 31 18 31z" ts:skin="mouth" ts:gender="neutral,male"/>
	<path d="M18 30c-2.347 0-3.575-1.16-3.707-1.293-.391-.391-.391-1.023 0-1.414.387-.387 1.013-.39 1.404-.01.051.047.806.717 2.303.717 1.519 0 2.273-.69 2.305-.719.398-.373 1.027-.362 1.408.029.379.393.38 1.011-.006 1.397C21.575 28.84 20.347 30 18 30z" ts:skin="mouth" ts:gender="female"/>
</svg>
