<svg viewBox="0 0 36 36" xmlns="http://www.w3.org/2000/svg" xmlns:ts="data:,a">
	<!-- note: the gendered forms of this emoji are not required by unicode (they DO render on twitter.com though) -->
	<!-- the female variant doesn't share any layers -->
	<!-- shadow -->
	<ellipse cx="18" cy="35" fill="#99AAB5" rx="6" ry="1" ts:gender="neutral,male"/>
	<ellipse cx="17.982" cy="34.833" fill="#98A9B4" rx="6" ry="1" ts:gender="female"/>
	<!-- back hair -->
	<path d="M19.314 2.613c-.678-.219-2.274-.16-2.673.359-1.037.02-2.254.957-2.414 2.194-.158 1.224.194 1.792.319 2.713.142 1.043.728 1.376 1.197 1.516.674.891 1.391.853 2.595.853 2.351 0 3.47-1.573 3.569-4.244.061-1.616-.887-2.84-2.593-3.391z" fill="#FFAC33" ts:skin="#FFAC33,#FFE51E,#963B22,#60352A,#0B0200" ts:gender="neutral"/>
	<path d="M17.983.717c1.747 0 4.658.873 4.658 4.657s0 4.657-.873 4.657-2.038-.873-3.785-.873-2.886.873-3.785.873c-.973 0-.873-3.492-.873-4.657 0-3.783 2.912-4.657 4.658-4.657z" fill="#FAAA35" ts:skin="#292F33,#FFE51E,#963B22,#60352A,#0B0200" ts:gender="female"/>
	<!-- shoes -->
	<path d="M15.223 29.785c.184-.513.711-.764 1.55-.764 1.209 0 1.429.713 1.429 1.11 0 1.512-1.077 2.584-1.498 2.584-.44 0-1.93-1.678-1.481-2.93z" fill="#DD2F45" ts:gender="female"/>
	<path d="M20.741 29.785c-.184-.513-.711-.764-1.55-.764-1.209 0-1.429.713-1.429 1.11 0 1.512 1.077 2.584 1.498 2.584.44 0 1.93-1.678 1.481-2.93z" fill="#DD2F45" ts:gender="female"/>
	<!-- legs -->
	<path d="M17.70200000,29.56200000 c0 .559-.453 1.012-1.012 1.012-.559 0-1.012-.453-1.012-1.012v-7.947c0-.559.453-1.012 1.012-1.012.559 0 1.012.453 1.012 1.012v7.947z" fill="#FFDB5E" ts:skin="#F6DDCD,#F2D1A1,#D4AB88,#AE7E57,#7C543E" ts:gender="female"/>
	<path d="M20.225 29.562c0 .559-.453 1.012-1.012 1.012-.559 0-1.012-.453-1.012-1.012v-7.947c0-.559.453-1.012 1.012-1.012.559 0 1.012.453 1.012 1.012v7.947z" fill="#FFDB5E" ts:skin="#F6DDCD,#F2D1A1,#D4AB88,#AE7E57,#7C543E" ts:gender="female"/>
	<!-- arms -->
	<path d="M14 22c0 .553-.448 1-1 1s-1-.447-1-1v-8c0-.552.448-1 1-1s1 .448 1 1v8z" fill="#FFDC5D" ts:skin="#F7DECE,#F3D2A2,#D4AB88,#AF7E57,#7C533E" ts:gender="neutral,male"/>
	<path d="M24,22 c0 .553-.447 1-1 1-.553 0-1-.447-1-1v-8c0-.552.447-1 1-1 .553 0 1 .448 1 1v8z" fill="#FFDC5D" ts:skin="#F7DECE,#F3D2A2,#D4AB88,#AF7E57,#7C533E" ts:gender="neutral,male"/>
	<path d="M11.90400000,18.73200000 c0 .559.453 1.012 1.012 1.012.559 0 1.012-.453 1.012-1.012v-2.839c0-.559-1.012-1.012-1.012-1.012-.559 0-1.012.453-1.012 1.012v2.839z" fill="#FFDB5E" ts:skin="#F6DDCD,#F2D1A1,#D4AB88,#AE7E57,#7C543E" ts:gender="female"/>
	<path d="M24.06 18.732c0 .559-.453 1.012-1.012 1.012-.559 0-1.012-.453-1.012-1.012v-2.589c0-.559 1.012-1.012 1.012-1.012.559 0 1.012.453 1.012 1.012v2.589z" fill="#FFDB5E" ts:skin="#F6DDCD,#F2D1A1,#D4AB88,#AE7E57,#7C543E" ts:gender="female"/>
	<!-- pants -->
	<path d="M19 19h-5l1 11h3v-7 7h3l1-11z" fill="#66757F" ts:gender="neutral,male"/>
	<path d="M18 23c-.552 0-1 7-1 7 0 .553.448 0 1 0 .553 0 1 .553 1 0 0 0-.447-7-1-7z" fill="#546170" ts:gender="neutral,male"/>
	<!-- skirt -->
	<path d="M20.478 24.992c2.209-5.322.594-7.213.594-7.213l-6.216-.006s-1.531 1.537.59 7.219h5.032z" fill="#8899A6" ts:gender="female"/>
	<!-- shirt -->
	<path d="M22.175 11.639c-1.191-.273-2.172-.639-2.172-.639H16s-.981.366-2.172.639c-1.322.303-1.828.864-1.828 1.968V21h2v1h2l2.003-1 2 1h2v-1h2v-7.393c0-1.104-.507-1.665-1.828-1.968z" fill="#292F33" ts:gender="neutral"/>
	<path d="M22 11h-8c-1.104 0-2 .896-2 2v8h2v1h2l2-1 2 1h2v-1h2v-8c0-1.104-.896-2-2-2z" fill="#292F33" ts:gender="male"/>
	<path d="M17.982 10c-6.625 0-6.228 6.853-6.228 6.853h2.285c0-2.186.839-3.145.839-3.145l.432 3.288-.436.782s1.041.569 3.108.569 3.108-.569 3.108-.569l-.436-.782.432-3.288s.839.958.839 3.145h2.285S24.607 10 17.982 10z" fill="#292F33" ts:gender="female"/>
	<!-- neck -->
	<path d="M16.798 9.576h2.411v3.015h-2.411z" fill="#FFDC5D" ts:skin="#F7DECE,#F3D2A2,#D4AB88,#AF7E57,#7C533E" ts:gender="neutral"/>
	<path d="M16.799 10h2.402v1.592h-2.402z" fill="#FFDC5D" ts:skin="#F7DECE,#F3D2A2,#D4AB88,#AF7E57,#7C533E" ts:gender="male"/>
	<path d="M16.781 9.125v1.155s.451.408 1.201.408 1.201-.408 1.201-.408V9.125h-2.402z" fill="#FFDB5E" ts:skin="#F6DDCD,#F2D1A1,#D4AB88,#AE7E57,#7C543E" ts:gender="female"/>
	<!-- face -->
	<path d="M20.659 6.118c-.227-.315-.519-.568-1.157-.658.239.11.469.489.499.698.03.209.06.379-.13.17-.759-.839-1.586-.509-2.405-1.021-.572-.358-.747-.754-.747-.754s-.07.529-.938 1.067c-.252.156-.552.504-.718 1.017-.12.369-.083.698-.083 1.261 0 1.642 1.353 3.022 3.022 3.022 1.669 0 3.022-1.392 3.022-3.022.001-1.022-.106-1.421-.365-1.78z" fill="#FFDC5D" ts:skin="#F7DECE,#F3D2A2,#D4AB88,#AF7E57,#7C533E" ts:gender="neutral"/>
	<path d="M15.30400000,6.81900000 c0 .592-.3 1.071-.67 1.071-.37 0-.67-.48-.67-1.071 0-.592.3-1.071.67-1.071.37-.001.67.479.67 1.071z M22,6.819 c0 .592-.3 1.071-.67 1.071-.37 0-.67-.48-.67-1.071 0-.592.3-1.071.67-1.071.37-.001.67.479.67 1.071z" fill="#FFDC5D" ts:skin="#F7DECE,#F3D2A2,#D4AB88,#AF7E57,#7C533E" ts:gender="male"/>
	<path d="M18 10.906c-1.923 0-3.482-1.851-3.482-4.135S16.077 2.636 18 2.636s3.482 1.851 3.482 4.135-1.559 4.135-3.482 4.135" fill="#FFDC5D" ts:skin="#F7DECE,#F3D2A2,#D4AB88,#AF7E57,#7C533E" ts:gender="male"/>
	<path d="M14.49 5.247c0-2.481 1.564-4.493 3.494-4.493 1.929 0 3.494 2.012 3.494 4.493 0 2.481-1.564 4.493-3.494 4.493-1.93 0-3.494-2.012-3.494-4.493z" fill="#FFDB5E" ts:skin="#F6DDCD,#F2D1A1,#D4AB88,#AE7E57,#7C543E" ts:gender="female"/>
	<!-- hair -->
	<path d="M14.827 6.396c.06-.296.148-.546.246-.771h-.777c.121.874.465 1.095.531.771z M21.17300000,6.27100000 c.239.47.475.152.55-.771h-.942l.392.771z" fill="#FFAC33" ts:skin="#292F33,#FFE51E,#963B22,#60352A,#0B0200" ts:gender="male"/>
	<path d="M13.635 6.829c-.009-.095-.019-.188-.019-.291 0-1.455.873.164.873-.873s.582-1.164 1.165-1.746l.873-.873s1.456.873 2.62.873 2.329.582 2.329 1.746.873-.582.873.873c0 .103-.01.196-.017.291h.305c.003-.43.003-.911.003-1.455 0-3.783-2.911-5.239-4.658-5.239s-4.658 1.455-4.658 5.239c0 .337-.008.869.004 1.455h.307z" fill="#FAAA35" ts:skin="#292F33,#FFE51E,#963B22,#60352A,#0B0200" ts:gender="female"/>
	<!-- nose -->
	<path d="M18.33900000,8.73700000 h-.672c-.093 0-.168-.075-.168-.168s.075-.168.168-.168h.672c.093 0 .168.075.168.168s-.075.168-.168.168z" fill="#C1694F" ts:skin="#C1694F,#C1694F,#C1694F,#915A34,#3D2E24" ts:gender="neutral"/>
	<path d="M18.00800000,7.93600000 c-.269 0-.478-.048-.646-.122.055.198.21.474.646.474.436 0 .59-.276.646-.474-.168.074-.377.122-.646.122z" fill="#C1694F" ts:skin="#C1694F,#C1694F,#C1694F,#915A34,#3D2E24" ts:gender="male"/>
	<path d="M17.982 6.77c-.269 0-.478-.048-.646-.122.055.198.21.474.646.474.436 0 .59-.276.646-.474-.168.073-.377.122-.646.122z" fill="#C16A4F" ts:skin="#C16A4F,#C16A4F,#C16A4F,#915A34,#3D2E24" ts:gender="female"/>
	<!-- mouth -->
	<path d="M19.346 9.576H16.66s.336.672 1.343.672 1.343-.672 1.343-.672z" fill="#C1694F" ts:skin="#C1694F,#C1694F,#C1694F,#915A34,#3D2E24" ts:gender="neutral"/>
	<path d="M19.305 9.096c-.015-.025-.043-.041-.073-.041h-2.453c-.03 0-.058.015-.073.041-.015.025-.017.057-.003.084.015.029.372.704 1.303.704.931 0 1.288-.676 1.303-.704.013-.026.011-.058-.004-.084z" fill="#C1694F" ts:skin="#C1694F,#C1694F,#C1694F,#915A34,#3D2E24" ts:gender="male"/>
	<path d="M19.282 7.93c-.015-.025-.043-.041-.073-.041h-2.453c-.03 0-.058.015-.073.041-.015.025-.017.057-.003.084.015.029.372.704 1.303.704.931 0 1.288-.676 1.303-.704.013-.027.011-.059-.004-.084z" fill="#DE2032" ts:gender="female"/>
	<!-- lapel -->
	<path d="M16.2 13.2L14.924 12l.569-.883L16 11l.221.57z M19.803 13.2l1.276-1.2-.569-.883-.507-.117-.221.57z" fill="#546170" ts:gender="neutral"/>
	<path d="M16.2 13.2L14.924 12l.49-1h.786z M19.8 13.2l1.276-1.2-.49-1H19.8z" fill="#546170" ts:gender="male"/>
	
	<path d="M18 18l-3.099-5.045 1.271-1.361z M17.997 18l3.099-5.045-1.271-1.361z" fill="#66757F" ts:gender="neutral,male"/>
	<!-- inner shirt -->
	<path d="M18 18l-2-7 2 1 2-1z" fill="#E1E8ED" ts:gender="neutral,male"/>
	<!-- tie -->
	<path d="M19 12l-1-.417L17 12l.878.878-.793 1.918L18 18l.915-3.204-.793-1.918z" fill="#292F33" ts:gender="neutral,male" ts:gender-color="#55ACEE,"/>
	<!-- shoes -->
	<path d="M19.36 29.479c-1.105 0-1.346.159-1.359.521-.051 1.375 1.787 3.479 3.141 2.979.86-.317.422-1.901-.141-2.979-.23-.441-.961-.521-1.641-.521z M16.64000000,29.47900000 c1.105 0 1.346.159 1.359.521.052 1.375-1.786 3.479-3.141 2.979-.86-.317-.422-1.901.141-2.979.23-.441.962-.521 1.641-.521z" fill="#292F33" ts:gender="neutral,male"/>
	<path d="" fill="#292F33" ts:gender="neutral,male"/>
	<!-- sunglasses -->
	<path d="M21.492 5.897l-.958.316c-.337-.047-1.038-.066-1.779.015-.197.022-.272.078-.739.078-.466 0-.542-.056-.739-.078-.741-.081-1.442-.062-1.779-.015l-.958-.316c-.093-.033-.191.019-.221.111s.02.19.111.221l.894.295c.066.051.208.148.242.248.039.116.117.861.35 1.055.241.2 1.148.125 1.322.039.389-.194.437-.82.505-1.094.039-.155.272-.155.272-.155s.233 0 .272.155c.069.274.117.902.505 1.096.174.087 1.081.161 1.322-.039.233-.194.311-.941.35-1.057.033-.1.175-.196.241-.247l.895-.295c.092-.03.142-.129.111-.221-.029-.093-.132-.144-.219-.112z" fill="#292F33" ts:gender="neutral,male"/>
	<!-- sunglasses frame -->
	<path d="M20.993 4.538c-.256-.25-1.536-.091-2.122.188-.236.112-.35.203-.51.336-.214.179-.379.178-.379.178s-.164.001-.379-.178c-.159-.133-.274-.224-.51-.336-.586-.28-1.867-.438-2.122-.188-.417.407-.101 2.32.635 2.47.536.109.952.07 1.19-.01.168-.056.507-.209.744-.808.214-.541.442-.536.442-.536s.228-.005.442.536c.237.598.576.751.744.807.238.08.655.119 1.19.01.736-.149 1.051-2.062.635-2.469z" fill="#DD2F45" ts:gender="female"/>
	<!-- lenses -->
	<path d="M16.578 4.835s-.942-.169-1.141.05c-.198.218-.142 1.254.218 1.696.196.241.977.186 1.148.104.309-.148.617-.6.617-1.18.001-.407-.554-.63-.842-.67z M19.38600000,4.83500000 s.942-.169 1.141.05c.198.218.142 1.254-.218 1.696-.196.241-.977.186-1.148.104-.309-.148-.617-.6-.617-1.18-.001-.407.554-.63.842-.67z" fill="#292F33" ts:gender="female"/>
	<!-- hat -->
	<path d="M20.324 3.977c.612-.166 1.091-.411 1.091-.411s-.141-.578-.283-.95c-.442-1.154-1.175-1.729-1.849-1.558-1.019.259-1.496.11-2.712-.034-1.215-.144-1.773 1.682-1.968 2.542 0 0 .322.274.902.403.022.005.05.008.073.013-2.094.094-2.787.351-2.787.852 0 .66 2.336 1.333 5.219 1.333 2.882 0 5.219-.673 5.219-1.333-.002-.511-.723-.767-2.905-.857z" fill="#292F33" ts:gender="neutral,male"/>
	<!-- hat band -->
	<path d="M21.583 4.225c-.012-.069-.027-.145-.043-.22-.048-.225-.126-.439-.126-.439s-1.101.429-3.406.429-3.406-.429-3.406-.429-.078.214-.126.439c-.016.076-.031.152-.043.22-.048.273.081.461.966.649.6.127 1.582.241 2.608.22 1.026.021 2.009-.093 2.608-.22.888-.188 1.017-.376.968-.649z" fill="#66757F" ts:gender="neutral,male"/>
	<!-- collar -->
	<path d="M16.562 10.562L18 11.583l-.938.995L16 11z M19.43800000,10.56200000 L18 11.583l.938.995L20 11z" fill="#F5F8FA" ts:gender="neutral,male"/>
</svg>
