<svg viewBox="0 0 36 36" xmlns="http://www.w3.org/2000/svg">
	<!-- back hair -->
	<path d="M18.824 2.47c3.28.172 8.661 2.099 8.288 9.205s-.458 8.746-2.098 8.66c-1.641-.086-3.741-1.84-7.021-2.012-3.279-.172-5.505 1.356-7.192 1.267-1.827-.096-1.296-6.646-1.182-8.832.373-7.106 5.926-8.46 9.205-8.288" fill="#FFAC33" data-skin="#292F33|#FFE51E|#963B22|#60352A|#0B0200" data-gender="female"/>
	<path d="M21.628 1.32c-1.455-.557-4.945-.608-5.875.478-2.266-.075-5.03 1.832-5.519 4.513-.485 2.654.218 3.935.386 5.958.19 2.292 1.432 3.088 2.439 3.446 1.37 2.022 2.939 2.021 5.566 2.158 5.13.269 7.754-3.036 8.275-8.855.316-3.52-1.613-6.299-5.272-7.698z" fill="#FFAC33" data-skin="#292F33|#FFE51E|#963B22|#60352A|#0B0200" data-gender="neutral"/>
	<!-- body -->
	<path d="M29.258 33.016l-.287-6.788c.116-3.312-2.475-6.09-5.787-6.206l-9.994-.349c-3.312-.116-5.115 2.169-6.206 5.787l-.669 6.296 22.943 1.26z" fill="#FA743E" data-gender="neutral,male" data-gender-color="#4289C1|"/>
	<path d="M29.276 33.035l-.843-6.484c.173-3.309-2.369-6.132-5.678-6.306l-8.988-.471c-3.309-.173-6.132 2.369-6.306 5.678L6.41 31.391l22.866 1.644z" fill="#9266CC" data-gender="female"/>
	<!-- arm shadow -->
	<path d="M28.526 30.798c.55 1.503-1.121.825-2.428 1.314-.848.317-2.282.836-2.503.135-.438-1.384-1.215-3.713-1.534-5.108.021-.008.073-.029.092-.038-.09-.134-.104-.552-.119-.723-.135-1.507.912-3.055.912-3.055s2.054-.278 2.573-.547c.246 1.605.468 2.641.468 2.641s1.882 3.586 2.539 5.381z" fill="#DD2E44" data-gender-color="#205E7A|#744EAA"/>
	<!-- neck -->
	<path d="M14.6 20.207c0 .692 1.841 1.543 3.4 1.543 1.56 0 3.4-.851 3.4-1.543V17.25h-6.8v2.957z" fill="#FFDC5D" data-skin="#F7DECE|#F3D2A2|#D4AB88|#AF7E57|#7C533E" data-gender="neutral,male"/>
	<path d="M15 19.972c0 1.142 1.777 1.528 3.005 1.528 1.227 0 2.995-.386 2.995-1.528V17.5h-6v2.472z" fill="#FFDC5D" data-skin="#F7DECE|#F3D2A2|#D4AB88|#AF7E57|#7C533E" data-gender="female"/>
	<!-- chin shadow -->
	<path d="M14.6 18.557c.947 1.058 2.122 1.344 3.4 1.344 1.277 0 2.452-.287 3.4-1.344v-2.688h-6.8v2.688z" fill="#F9CA55" data-skin="#EEC2AD|#E2C196|#CC9B7A|#9B6A49|#664131" data-gender="neutral,male"/>
	<path d="M15 18.584c.837.918 1.873 1.166 3 1.166s2.164-.248 3-1.166V16.25h-6v2.334z" fill="#F9CA55" data-skin="#EEC2AD|#E2C196|#CC9B7A|#9B6A49|#664131" data-gender="female"/>
	<!-- face -->
	<path d="M24.128 9.766c-.46-.713-1.067-1.3-2.45-1.569.51.267.967 1.12 1.009 1.581.041.461.087.834-.302.355-1.561-1.918-3.411-1.125-5.141-2.337-1.208-.847-1.536-1.374-1.536-1.374s-.262.846-2.218 1.923c-.567.312-1.261 1.084-1.683 2.186-.303.792-.177.602-.242 1.829-.188 3.584 2.607 6.751 6.251 6.942s6.756-2.694 6.942-6.251c.116-2.23-.105-2.472-.63-3.285z" fill="#FFDC5D" data-skin="#F7DECE|#F3D2A2|#D4AB88|#AF7E57|#7C533E" data-gender="neutral"/>
	<path d="M13.159 10.449c-.058 1.113-.67 1.987-1.366 1.95-.696-.036-1.213-.969-1.154-2.082.058-1.114.67-1.987 1.366-1.951.696.037 1.213.969 1.154 2.083m12.602.661c-.058 1.113-.67 1.987-1.366 1.95-.696-.036-1.213-.969-1.154-2.082.058-1.114.67-1.987 1.366-1.951.696.036 1.213.969 1.154 2.083" fill="#FFDC5D" data-skin="#F7DECE|#F3D2A2|#D4AB88|#AF7E57|#7C533E" data-gender="male"/>
	<path d="M11.606 11.157c.225-4.298 3.342-7.628 6.961-7.439 3.619.19 6.371 3.828 6.145 8.126-.225 4.298-3.342 7.628-6.961 7.439-3.619-.19-6.371-3.828-6.145-8.126" fill="#FFDC5D" data-skin="#F7DECE|#F3D2A2|#D4AB88|#AF7E57|#7C533E" data-gender="male"/>
	<path d="M11.816 10.633c.244-4.661 3.379-8.285 7.002-8.095 3.622.19 6.362 4.122 6.118 8.783-.244 4.66-3.368 8.063-6.99 7.873-3.624-.19-6.374-3.901-6.13-8.561" fill="#FFDC5D" data-skin="#F7DECE|#F3D2A2|#D4AB88|#AF7E57|#7C533E" data-gender="female"/>
	<path d="M18.721.767c4.343.228 6.87 3.944 6.73 6.614-.14 2.67-.764 4.199-1.251 3.101l-.974-2.193s-3.257-.171-4.287-1.296c0 0 1.461 3.29-1.629-.085 0 0 .431 2.166-2.686-.676 0 0-1.685.983-2.368 3.625-.189.734-1.06-.545-.92-3.215.141-2.672 2.5-6.131 7.385-5.875" fill="#FFAC33" data-skin="#292F33|#FFE51E|#963B22|#60352A|#0B0200" data-gender="male"/>
	<path d="M10.077 13.171c.025-.8-.026-.18-.016-.373.143-2.734 1.62.481 1.722-1.467.102-1.949 1.184-1.678 2.334-2.714.576-.519 1.725-1.533 1.725-1.533s2.646 1.794 4.833 1.909c2.186.115 4.337.92 4.222 3.106-.115 2.187 1.706-1.179 1.563 1.554-.01.195.004-.425-.052.373l.573.03c.089-1.598.086-1.537.14-2.558.372-7.106-4.956-10.039-8.236-10.211-3.279-.172-8.882 2.144-9.255 9.25-.033.633-.069 1.003-.13 2.602l.577.032z" fill="#FFAC33" data-skin="#292F33|#FFE51E|#963B22|#60352A|#0B0200" data-gender="female"/>
	<path d="M13.059 12.223c-.061 1.157-.696 2.064-1.419 2.026-.723-.038-1.26-1.007-1.199-2.163.061-1.157.696-2.065 1.419-2.027.722.037 1.259 1.007 1.199 2.164m13.093.686c-.061 1.157-.696 2.064-1.419 2.026-.723-.038-1.26-1.007-1.199-2.163.061-1.157.696-2.065 1.419-2.027.723.038 1.259 1.007 1.199 2.164" fill="#FFDC5D" data-skin="#F7DECE|#F3D2A2|#D4AB88|#AF7E57|#7C533E" data-gender="female"/>
	<!-- eyes -->
	<path d="M16.19 11.917c-.058 0-.116-.013-.17-.041-.004-.002-.371-.188-.744-.212-.436-.027-.82.133-.824.134-.193.082-.41-.009-.491-.199-.081-.19.006-.409.196-.491.022-.009.55-.234 1.167-.192.532.034 1.019.283 1.039.293.184.095.255.32.161.504-.066.13-.197.204-.334.204z " fill="#662113" data-skin="#662113|#662113|#662113|#662113|#000000" data-gender="neutral"/>
	<path d="M22.10300000,12.28700000 c-.073 0-.146-.021-.211-.065-.001 0-.312-.204-.748-.231-.448-.025-.792.106-.795.108-.194.077-.41-.017-.487-.208s.014-.409.204-.487c.021-.008.499-.196 1.125-.163.637.04 1.075.327 1.123.359.171.116.216.35.1.521-.074.108-.191.166-.311.166z" fill="#662113" data-skin="#662113|#662113|#662113|#662113|#000000" data-gender="neutral"/>
	<path d="M16.136 11.285c-.061 0-.122-.015-.179-.045-.003-.002-.366-.198-.738-.231-.423-.042-.898.167-.902.169-.188.086-.411 0-.496-.189-.084-.189 0-.411.189-.496.027-.012.656-.286 1.277-.231.532.049 1.011.31 1.031.321.181.1.247.327.148.508-.069.124-.197.194-.33.194z " fill="#662113" data-skin="#662113|#662113|#662113|#662113|#000000" data-gender="male"/>
	<path d="M22.03700000,11.81000000 c-.076 0-.152-.023-.219-.07-.001 0-.309-.212-.743-.25-.443-.039-.792.086-.796.087-.194.073-.41-.026-.481-.22-.073-.193.023-.408.216-.481.021-.008.51-.188 1.128-.133.636.056 1.067.354 1.114.388.168.121.207.355.086.523-.073.102-.189.156-.305.156z" fill="#662113" data-skin="#662113|#662113|#662113|#662113|#000000" data-gender="male"/>
	<path d="M16.625 12.345c-.058 0-.116-.013-.17-.041-.004-.002-.371-.188-.744-.212-.434-.025-.82.133-.824.134-.192.081-.411-.009-.491-.199-.081-.19.006-.409.196-.491.022-.009.549-.234 1.167-.192.532.034 1.019.283 1.039.293.184.095.255.32.161.504-.067.13-.198.204-.334.204z " fill="#662113" data-skin="#662113|#662113|#662113|#662113|#000000" data-gender="female"/>
	<path d="M21.95800000,12.69200000 c-.073 0-.146-.021-.211-.064-.001-.001-.313-.204-.749-.231-.448-.025-.79.106-.794.108-.19.077-.409-.017-.487-.207-.077-.191.013-.409.204-.487.02-.008.5-.196 1.124-.163.637.04 1.075.327 1.124.359.171.116.216.35.1.521-.073.107-.191.164-.311.164z" fill="#662113" data-skin="#662113|#662113|#662113|#662113|#000000" data-gender="female"/>
	<!-- nose/mouth -->
	<path d="M17.989 17.837c-2.118-.111-2.739-.687-2.843-.803-.186-.207-.17-.526.037-.713.201-.181.507-.17.695.018.038.031.535.404 2.163.489 1.692.089 2.2-.259 2.205-.262.207-.186.515-.161.702.048.186.207.159.535-.048.721-.115.105-.793.613-2.911.502m.797-3.027l-1.466-.077c-.203-.011-.358-.183-.347-.386.011-.203.183-.358.386-.347l1.466.077c.203.011.358.183.347.386s-.184.357-.386.347z" fill="#C1694F" data-skin="#C1694F|#C1694F|#C1694F|#915A34|#3D2E24" data-gender="neutral"/>
	<path d="M17.865 17.114c-2.118-.111-2.739-.687-2.843-.803-.186-.207-.17-.526.037-.713.201-.181.507-.17.695.018.038.031.535.404 2.163.489 1.692.089 2.2-.259 2.205-.262.207-.186.515-.161.702.048.186.207.159.535-.048.721-.115.105-.794.613-2.911.502m.729-2.89l-1.153-.06c-.318-.017-.563-.289-.546-.607.017-.318.289-.563.607-.546l1.153.06c.318.017.563.289.546.607s-.289.563-.607.546" fill="#C1694F" data-skin="#C1694F|#C1694F|#C1694F|#915A34|#3D2E24" data-gender="male"/>
	<path d="M18.832 15.067l-1.351-.071c-.186-.01-.33-.169-.32-.356l.006-.122c.01-.186.169-.331.356-.321l1.351.071c.186.01.33.17.32.356l-.006.122c-.01.187-.17.331-.356.321" fill="#C1694F" data-skin="#C1694F|#C1694F|#C1694F|#915A34|#3D2E24" data-gender="female"/>
	<path d="M18.027 17.659c-1.283-.067-1.921-.737-1.989-.813-.203-.224-.184-.571.04-.772.223-.2.564-.184.767.035.027.027.421.416 1.239.458.83.044 1.263-.312 1.281-.327.229-.193.572-.169.768.056.196.225.179.563-.043.763-.076.068-.78.667-2.063.6" fill="#DF1F32" data-gender="female"/>
	<!-- bottle -->
	<path d="M14.795 23.072c.224.681-1.922 1.386-1.698 2.067.224.681 2.369-.023 2.593.658.224.681.939.446.939.446l-.671-2.043-.671-2.043c0-.001-.715.234-.492.915z" fill="#88C9F9"/>
	<path d="M23.519 21.032l.406 1.236c.257.784-.173 1.636-.957 1.893l-4.506 1.48c-.784.257-1.636-.173-1.893-.957l-.406-1.236c-.257-.784.173-1.636.957-1.893l4.506-1.48c.784-.258 1.636.173 1.893.957z" fill="#E1E8ED"/>
	<path d="M16.602 22.024l1.164 3.545c.086.261-.058.545-.319.631l-.685.225c-.261.086-.545-.058-.631-.319l-1.164-3.545c-.086-.261.058-.545.319-.631l.685-.225c.261-.085.545.058.631.319z" fill="#55ACEE"/>
	<!-- baby -->
	<path d="M21.989 35.145c1.066.007 2.736-2.31 1.089-3.653-1.648-1.343-4.499-3.099-5.959-3.806-1.869-.904-5.366-3.919-6.06-4.643s-2.351-.603-3.222.663c-.619.9-1.446 4.193-.004 6.844 1.686 3.098 4.561 5.082 8.396 5.082 1.013 0 2.116.067 2.742-.074s1.736-.421 3.018-.413z" fill="#A6D388"/>
	<!-- arms -->
	<path d="M24.636 28.21c1.283-.13 1.305-1.899 1.127-2.981-.34-2.066.052-3.88-1.566-4.624-1.416-.651-.693 1.394-1.464 2.998-1.107 2.301-.356 3.386-.356 3.386s1.136 1.314 2.259 1.221z" fill="#FFDC5D" data-skin="#F7DECE|#F3D2A2|#D4AB88|#AF7E57|#7C533E"/>
	<path d="M29.126 32.334c.748 2.158-1.786 3.587-3.434 2.993-.855-.308-1.36-1.539-1.973-3.658-.838-2.892-1.31-4.485-1.31-4.485s.882-.225 1.934-.685c1.042-.456 1.577-.915 1.577-.915s2.589 4.968 3.206 6.75z" fill="#FA743E" data-gender-color="#4289C1|#9266CC"/>
	<path d="M17.283 35.882h2.565c2.094 0 4.259-1.378 4.368-3.156.096-1.556-1.641-.279-3.392-.598-1.592-.291-2.97.074-2.97.074s.112 2.503-.571 3.68z" fill="#FFDC5D" data-skin="#F7DECE|#F3D2A2|#D4AB88|#AF7E57|#7C533E"/>
	<path d="M6.516 30.976c.653-1.477 3.431-.958 5.844-.364 2.118.521 4.292 1.188 5.903 1.473 0 0 .334.755.171 2.106-.091.752-.506 1.665-.506 1.665s-3.248.091-5.405-.195c-3.238-.428-7.188-2.012-6.007-4.685z" fill="#FA743E" data-gender-color="#4289C1|#9266CC"/>
</svg>
