<svg viewBox="0 0 36 36" xmlns="http://www.w3.org/2000/svg" xmlns:ts="data:,a">
	<!-- back hair -->
	<use href="defs.svg#hair_neutral1" x="13" y="26" ts:skin="hair" ts:gender="neutral"/>
	<use href="defs.svg#hair_back_female_old" x="13" y="26" ts:skin="hair" ts:gender="female"/>
	<!-- body -->
	<use href="defs.svg#shoulders_simple" x="13" fill="#FA743E" ts:gender-color="#4289C1,#9268CA"/>
	<!-- arm -->
	<path d="M29 36h-7l1-17h6z" fill="#FA743E" ts:gender-color="#4289C1,#9268CA"/>
	<rect x="4" y="32" width="1" height="4" fill="#DD551F" ts:gender-color="#2A6797,#7450A8"/>
	<rect x="21" y="32" width="1" height="4" fill="#DD551F" ts:gender-color="#2A6797,#7450A8"/>
	<!-- hand -->
	<path d="M31.541 15.443c-.144-.693-.822-1.139-1.517-.997L27.35 15H25c-1.104 0-2 .896-2 2v2h5c1.079 0 1.953-.857 1.992-1.927l.355-.073H31c0-.074-.028-.144-.045-.216.444-.276.698-.799.586-1.341z" ts:skin="dark"/>
	<path d="M36 16c0-.552-.447-1-1-1l-6 1h-5c-.553 0-1 .448-1 1v2h6l6-2s1-.447 1-1z" ts:skin="skin"/>
	<!-- neck -->
	<use href="defs.svg#neck_old" x="13" y="31" ts:skin="skin"/>
	<!-- head -->
	<use href="defs.svg#face_neutral1" x="13" y="26" ts:skin="skin" ts:gender="neutral"/>
	<use href="defs.svg#face_male_old" x="13" y="26" ts:skin="skin" ts:gender="male"/>
	<use href="defs.svg#face_female_old" x="13" y="26" ts:skin="skin" ts:gender="female"/>
	<!-- hair -->
	<use href="defs.svg#hair_male2" x="13" y="0.823" ts:skin="hair" ts:gender="male"/>
	<!-- eyes -->
	<use href="defs.svg#eyes_male" x="13" y="14.5" ts:skin="eyes"/>
	<!-- nose -->
	<use href="defs.svg#nose_neutral1" x="13" y="19" ts:skin="nose"/>
	<!-- mouth -->
	<use href="defs.svg#mouth_smile_old" x="13" y="24" ts:skin="mouth"/>
</svg>
