<svg viewBox="0 0 36 36" xmlns="http://www.w3.org/2000/svg" xmlns:ts="data:,a">
	<!-- frame -->
	<rect x="0" y="12" width="2" height="24" rx="1" fill="#C1694F"/>
	<rect x="34" y="20" width="2" height="16" rx="1" fill="#C1694F"/>
	<rect x="1" y="28" width="34" height="5" fill="#C1694F"/>
	<!-- body -->
	<path d="M17 17h-2c-1.1 0-2 .9-2 2v4h4v-6z" fill="#AA8DD8"/>
	<!-- blanket -->
	<path d="M31 18.222L17 17c-3.208 0-4 6-4 6h-1v6h22v-8c0-1.925-1.075-2.778-3-2.778z" fill="#55ACEE"/>
	<path d="M13.189 22c-.134.595-.189 1-.189 1h21v-1H13.189z" fill="#269"/>
	<path d="M34 21H13.452c-.11.365-.197.705-.263 1H34v-1z" fill="#3B88C3"/>
	<!-- mattress -->
	<path d="M13 23H4c-1.104 0-2 .896-2 2v4h10l1-6z" fill="#BDDDF4"/>
	<!-- pillow -->
	<path d="M2.114 20.279c-.283 1.213 1.897 2.518 4.871 2.917 2.974.398 5.614-.263 5.898-1.475.283-1.213-1.897-2.518-4.871-2.917-2.973-.399-5.614.262-5.898 1.475z" fill="#5C913B"/>
	<!-- head -->
	<ellipse cx="9.598" cy="19.045" rx="3" ry="4.292" transform="rotate(-62.651 9.598 19.046)" ts:skin="skin"/>
	<!-- hair -->
	<path d="M7.875 22.376s-3.812-1.972-2.09-5.303c1.378-2.665 5.191-.693 5.191-.693s-1.906-.986-2.94 1.013c-.689 1.333 2.17 2.811-.161 4.983z" ts:skin="hair"/>
</svg>
