<svg viewBox="0 0 36 36" xmlns="http://www.w3.org/2000/svg" xmlns:ts="data:,a">
	<!-- back hair -->
	<path d="M21.906 1.262c-2.02-.654-6.772-.475-7.96 1.069-3.089.059-6.713 2.851-7.188 6.535-.47 3.645.578 5.338.951 8.079.422 3.106 2.168 4.099 3.564 4.515C13.281 24.114 15.415 24 19 24c7 0 10.334-4.684 10.629-12.639.178-4.812-2.645-8.456-7.723-10.099z" fill="#FFAC33" ts:skin="hair" ts:gender="neutral"/>
	<path d="M19 0c-1.721 0-3.343.406-4.793 1.111C13.814 1.043 13.412 1 13 1 9.134 1 6 4.134 6 8v12h.018C6.201 26.467 11.489 31.656 18 31.656S29.799 26.467 29.982 20H30v-9c0-6.075-4.925-11-11-11z" fill="#FFAC33" ts:skin="hair" ts:gender="female"/>
	<!-- body -->
	<path d="M6 28h24v8H6z" fill="#DD551F" ts:gender-color="#2A6797,#7450A8"/>
	<!-- face -->
	<path d="M25.909 11.701c-.677-.938-1.545-1.693-3.446-1.96.713.327 1.396 1.455 1.485 2.079.089.624.178 1.129-.386.505-2.26-2.499-4.722-1.515-7.162-3.041-1.704-1.066-2.223-2.246-2.223-2.246s-.208 1.574-2.792 3.178c-.749.465-1.643 1.5-2.139 3.03C8.889 14.345 9 15.325 9 17c0 4.889 4.029 9 9 9s9-4.147 9-9c0-3.041-.319-4.229-1.091-5.299z" fill="#FFDC5D" ts:skin="skin" ts:gender="neutral"/>
	<path d="M28.752 13.715c0-1.548-.769-2.801-1.729-2.852V6.25l-18-.312v4.926c-.96.051-1.729 1.304-1.729 2.852 0 1.548.77 2.801 1.729 2.852V17c0 4.971 4.029 9 9 9s9-4.029 9-9v-.433c.96-.051 1.729-1.304 1.729-2.852z" fill="#FDD54C" ts:skin="skin" ts:gender="male"/>
	<path d="M14 5s-.003 5.308-5 5.936V17c0 4.971 4.029 9 9 9s9-4.029 9-9v-5.019C15.889 11.605 14 5 14 5z" fill="#FFDC5D" ts:skin="skin" ts:gender="female"/>
	<!-- hair -->
	<path d="M18.023.823c-7.019 0-10.139 4.684-10.139 8.588 0 3.903 1.343 4.986 1.56 3.903.78-3.903 3.12-5.101 3.12-5.101 4.68 3.904 3.9.781 3.9.781 4.679 4.684 2.34 0 2.34 0 1.56 1.562 6.239 1.562 6.239 1.562s.78 1.198 1.559 2.759c.78 1.562 1.56 0 1.56-3.903 0-3.905-3.9-8.589-10.139-8.589z" fill="#FFAC33" ts:skin="hair" ts:gender="male"/>
	<!-- eyes -->
	<rect x="13" y="13" width="2" height="3" rx="1" fill="#662113" ts:skin="eyes2" ts:gender="neutral,female"/><rect x="21" y="13" width="2" height="3" rx="1" fill="#662113" ts:skin="eyes2" ts:gender="neutral,female"/>
	<rect x="13.023" y="13" width="2" height="3" rx="1" fill="#662113" ts:skin="eyes" ts:gender="male"/><rect x="21.023" y="13" width="2" height="3" rx="1" fill="#662113" ts:skin="eyes" ts:gender="male"/>
	<!-- nose -->
	<rect x="16.5" y="18.5" width="3" height="1" rx="0.5" fill="#C1694F" ts:skin="nose" ts:gender="neutral,female"/>
	<rect x="16.523" y="18.5" width="3" height="1" rx="0.5" fill="#C1694F" ts:skin="nose" ts:gender="male"/>
	<!-- mouth -->
	<path d="M14.023 22h8s-1 2-4 2-4-2-4-2z" fill="#C1694F" ts:skin="nose" ts:gender="male"/> <!-- oops? -->
	<circle cx="18" cy="22" fill="#DF1F32" r="1" ts:gender="female"/>
	<!-- hands -->
	<path d="M3.195 18.025c.263-.484.776-.74 1.268-.694.034-.064 7.084 2.942 7.084 2.942l-1.268 1.547c-.7.854-1.907 1.023-2.696.376l-1.677-1.375-2.26-1.137c-.586-.297-.788-1.039-.451-1.659z" fill="#F9CA55" ts:skin="dark" ts:gender="neutral,female"/>
	<path d="M32.752 18.025c-.263-.484-.776-.74-1.268-.694-.034-.064-7.084 2.942-7.084 2.942l1.268 1.547c.7.854 1.907 1.023 2.696.376l1.677-1.375 2.26-1.137c.586-.297.788-1.039.451-1.659z" fill="#F9CA55" ts:skin="dark" ts:gender="neutral,female"/>
	<path d="M.365 14.985c-.35.427-.315 1.035.08 1.359l4.917 2.738 3.569 2.926c.395.323.998.239 1.348-.188l1.268-1.547-1.428-1.17-3.223-1.893-5.183-2.413c-.001 0-.998-.239-1.348.188z" fill="#FFDC5D" ts:skin="skin" ts:gender="neutral,female"/>
	<path d="M35.582 14.985c.35.427.315 1.035-.08 1.359l-4.917 2.738-3.569 2.926c-.395.323-.998.239-1.348-.188L24.4 20.273l1.428-1.17 3.223-1.892 5.183-2.413c0-.001.998-.24 1.348.187z" fill="#FFDC5D" ts:skin="skin" ts:gender="neutral,female"/>
	<!-- mistake: male with default skin has slightly different color hands -->
	<path d="M3.195 18.025c.263-.484.776-.74 1.268-.694.034-.064 7.084 2.942 7.084 2.942l-1.268 1.547c-.7.854-1.907 1.023-2.696.376l-1.677-1.375-2.26-1.137c-.586-.297-.788-1.039-.451-1.659z" fill="#F5BF44" ts:skin="dark" ts:gender="male"/>
	<path d="M32.752 18.025c-.263-.484-.776-.74-1.268-.694-.034-.064-7.084 2.942-7.084 2.942l1.268 1.547c.7.854 1.907 1.023 2.696.376l1.677-1.375 2.26-1.137c.586-.297.788-1.039.451-1.659z" fill="#F5BF44" ts:skin="dark" ts:gender="male"/>
	<path d="M.365 14.985c-.35.427-.315 1.035.08 1.359l4.917 2.738 3.569 2.926c.395.323.998.239 1.348-.188l1.268-1.547-1.428-1.17-3.223-1.893-5.183-2.413c-.001 0-.998-.239-1.348.188z" fill="#FDD54C" ts:skin="skin" ts:gender="male"/>
	<path d="M35.582 14.985c.35.427.315 1.035-.08 1.359l-4.917 2.738-3.569 2.926c-.395.323-.998.239-1.348-.188L24.4 20.273l1.428-1.17 3.223-1.892 5.183-2.413c0-.001.998-.24 1.348.187z" fill="#FDD54C" ts:skin="skin" ts:gender="male"/>
	<!-- arms -->
	<path d="M9.52 18.438s19.597 8.657 20.108 8.884c1.19.529 3.154 1.7 3.154 3.678l-.351 4.75c0 .138-.112.25-.25.25h-3.323c-.05 0-.098-.015-.139-.043L9.279 22.898c-.069-.046-.111-.124-.111-.207v-4.025c.001-.181.186-.302.352-.228z" fill="#FA743E" ts:gender-color="#4289C1,#9268CA"/>
	<path d="M18.226 22.266l-.779-.324-6.462 2.109 1.482 1.031z M23.42900000,24.58200000 l1.007.445-5.175 4.594-3.821-.025z" fill="#DD551F" ts:gender-color="#2A6797,#7450A8"/>
	<path d="M26.427 18.438S6.83 27.095 6.319 27.322c-1.19.529-3.154 1.7-3.154 3.678l.351 4.75c0 .138.112.25.25.25h3.323c.05 0 .098-.015.139-.043l19.439-13.059c.069-.046.111-.124.111-.207v-4.025c0-.181-.186-.302-.351-.228z" fill="#FA743E" ts:gender-color="#4289C1,#9268CA"/>
</svg>
