<svg viewBox="0 0 36 36" xmlns="http://www.w3.org/2000/svg" xmlns:ts="data:,a">
	<!--
this emoji has a lot of weird scaling
generally:
- neutral is scaled to 0.825
- male is scaled to 0.87,0.879
- female is scaled to 0.911
-->
	
	<!-- back hair -->
	<use href="defs.svg#hair_neutral1" transform="translate(17.369 25.827) scale(.825)" ts:skin="hair" ts:gender="neutral"/>
	<use href="defs.svg#hair_back_female" transform="translate(17.455 6.546) scale(.911)" ts:skin="hair" ts:gender="female"/>
	<!-- body -->
	<path d="M 26,26.163 h4 v9.835 h-24 v-9 h20 v-0.835 Z" fill="#FA743E" ts:gender-color="#77B255,#9266CC"/>
	<rect x="10" y="30" width="1" height="6" fill="#DD551F" ts:gender-color="#5C913B,#744EAA"/>
	<rect x="25" y="27" width="1" height="9" fill="#DD551F" ts:gender-color="#5C913B,#744EAA"/>
	<!-- neck -->
	<path d="M 13.862,27 v-4 h7 v4 s -0.75,2.063 -3.45,2.063 s -3.55,-2.063 -3.55,-2.063 Z" ts:skin="skin" ts:gender="neutral"/>
	<path d="M 14    ,27 v-4 h7 v4 s -0.75,2.063 -3.45,2.063 s -3.55,-2.063 -3.55,-2.063 Z" ts:skin="skin" ts:gender="male,female"/>
	
	<path d="M 13.882,25.029 v -3 h 6.962 v 3 c -1.059,1.206 -2.058,1.51 -3.485,1.51 s -2.419,-0.303 -3.477,-1.51 Z" ts:skin="dark" ts:gender="neutral"/>
	<path d="M 14.02 ,25.029 v -3 h 6.962 v 3 c -1.059,1.206 -2.058,1.51 -3.485,1.51 s -2.419,-0.303 -3.477,-1.51 Z" ts:skin="dark" ts:gender="male"/>
	<path d="M 14.02 ,24.686 v -3 h 6.962 v 3 c -1.059,1.206 -2.058,1.51 -3.485,1.51 s -2.419,-0.303 -3.477,-1.51 Z" ts:skin="dark" ts:gender="female"/>
	<!-- hands -->
	<!-- the right side hand was shifted too far right (going out of bounds) so i moved it back to the correct position -->
	<path d="M 10,30 h -3.848 c -0.83,0 -1.503,-0.666 -1.532,-1.496 l -0.273,-0.057 l -0.467,-0.169 c -0.343,-0.215 -0.538,-0.621 -0.453,-1.042 c 0.11,-0.538 0.633,-0.884 1.168,-0.774 l 2.058,0.431 h 1.808 c 0.85,0 1.539,0.695 1.539,1.555 v 1.552 Z" ts:skin="dark"/>
	<path d="M 26,26.252 h 3.848 c 0.83,0 1.503,-0.666 1.532,-1.496 l 0.273,-0.057 l 0.467,-0.169 c 0.343,-0.215 0.538,-0.621 0.453,-1.042 c -0.11,-0.538 -0.633,-0.884 -1.168,-0.774 l -2.058,0.431 h -1.808 c -0.85,0 -1.539,0.695 -1.539,1.555 v 1.552 Z" ts:skin="dark"/>
	<path d="M 10,30 h -4.616 l -4.617,-1.553 s -0.769,-0.348 -0.769,-0.778 c 0,-0.429 0.344,-0.776 0.769,-0.776 l 4.617,0.776 h 3.847 c 0.425,0 0.769,0.349 0.769,0.778 v 1.553 Z" ts:skin="skin"/>
	<path d="M 26,26.252 h 4.616 l 4.617,-1.553 s 0.769,-0.348 0.769,-0.778 c 0,-0.429 -0.344,-0.776 -0.769,-0.776 l -4.617,0.776 h -3.847 c -0.425,0 -0.769,0.349 -0.769,0.778 v 1.553 Z" ts:skin="skin"/>
	<!-- head --> 
	<use href="defs.svg#face_neutral1" transform="translate(17.369 25.827) scale(.825)" ts:skin="skin" ts:gender="neutral"/>
	<use href="defs.svg#face_male" transform="translate(17.546 17.087) scale(.87 .879)" ts:skin="skin" ts:gender="male"/>
	<use href="defs.svg#face_female" transform="translate(9.972 16.249) scale(.911)" ts:skin="skin" ts:gender="female"/>
	<!-- hair -->
	<use href="defs.svg#hair_male" transform="translate(17.546 5.243) scale(.87 .879)" ts:skin="hair" ts:gender="male"/>
	<use href="defs.svg#hair_front_female" transform="translate(17.455 6.546) scale(.911)" ts:skin="hair" ts:gender="female"/>
	<!-- eyes -->
	<use href="defs.svg#eyes_male" transform="translate(17.369 16.3405) scale(.825)" ts:skin="eyes" ts:gender="neutral"/>
	<rect x="13.196" y="14.487" width="1.74" height="2.635" rx="0.87" ry="0.878" ts:skin="eyes" ts:gender="male"/><rect x="20.157" y="14.487" width="1.74" height="2.635" rx="0.87" ry="0.878" ts:skin="eyes" ts:gender="male"/> <!-- uneven? -->
	<use href="defs.svg#eyes_male" transform="translate(17.49575 17.0685) scale(.771)" ts:skin="eyes" ts:gender="female"/>
	<!-- nose -->
	<use href="defs.svg#nose_neutral1" transform="translate(17.369 20.053) scale(.825)" ts:skin="nose" ts:gender="neutral"/>
	<rect x="16.241" y="18.221" width="2.61" height="1.318" rx="0.652" ry="0.659" ts:skin="nose" ts:gender="male"/> <!-- uneven -->
	<rect x="16.341" y="19.691" width="2.311" height="0.915" rx="0.385" ry="0.388" ts:skin="nose" ts:gender="female"/> <!-- uneven -->
	<!-- mouth -->
	<use href="defs.svg#mouth_male_big" transform="translate(17.359 22.99) scale(.57 .576)" ts:skin="mouth" ts:gender="neutral"/>
	<use href="defs.svg#mouth_male_big" transform="translate(17.546 22.523) scale(.57 .576)" ts:skin="mouth" ts:gender="male"/>
	<use href="defs.svg#mouth_female_big" transform="translate(17.455 22.775) scale(.623)" ts:skin="mouth" ts:gender="female"/>
	<!-- balls -->
	<path d="M5.895 14.205s-3.834 1.39-4.214 6.221c0 0-2.4-4.817-.522-10.149l4.736 3.928z M20.051,5.977 s-2.758-3.005-7.363-1.497c0 0 3.522-4.069 9.167-4.387l-1.804 5.884z M29.271,16.337 s1.972-3.571-.923-7.457c0 0 4.978 2.046 7.075 7.296l-6.152.161z" fill="#D1D3D4"/>
	<circle cx="4.603" cy="10.986" fill="#5C913B" r="3.5"/>
	<circle cx="22.516" cy="3.500" fill="#BE1931" r="3.5"/>
	<circle cx="32.396" cy="17.854" fill="#3B88C3" r="3.5"/>
</svg>
