<svg viewBox="0 0 36 36" xmlns="http://www.w3.org/2000/svg" xmlns:ts="data:,a">
	<!-- back hair -->
	<use href="defs.svg#hair_neutral" x="21.597" y="1.516" fill="#FFAC33" ts:skin="hair" ts:gender="neutral"/>
	<use href="defs.svg#hair_back_female" x="18.004" y="3.979" fill="#FFAC33" ts:skin="hair" ts:gender="female"/>
	<!-- shirt -->
	<path d="M32 36v-3c0-4-3.685-7-7-7H11c-3.313 0-7 3-7 7v3h28z" fill="#292F33" ts:gender="neutral"/>
	<path d="M32 36v-4c0-3.314-2.685-6-6-6H10c-3.313 0-6 2.686-6 6v4h28z" fill="#292F33" ts:gender="male"/>
	<path d="M31 36v-4.5c0-3.314-3.56-5.5-6.875-5.5h-12C8.812 26 5 28.186 5 31.5V36h26z" fill="#292F33" ts:gender="female"/>
	<path d="M13.5 30.003l-4.292-.916L11.12 26l2.38.003z" fill="#546170" ts:gender="neutral,male"/>
	<path d="M22.5 30.003l4.292-.916L24.879 26l-2.379.003z" fill="#546170" ts:gender="neutral,male"/>
	<path d="M13.95 29.603l-3.863-.825L11.808 26l2.142.003z" fill="#546170" ts:gender="female"/>
	<path d="M22.05 29.603l3.863-.825L24.192 26l-2.141.003z" fill="#546170" ts:gender="female"/>
	<path d="M15.42 36h-2.83l-4.382-7.667 2.912.924 1.745-2.204z" fill="#66757F" ts:gender="neutral,male"/>
	<path d="M20.58 36h2.83l4.382-7.667-2.913.924-1.744-2.204z" fill="#66757F" ts:gender="neutral,male"/>
	<path d="M16.078 36h-2.406l-4.485-7.9 2.621.831 1.571-1.983z" fill="#66757F" ts:gender="female"/>
	<path d="M19.922 36h2.406l4.485-7.9-2.621.831-1.57-1.983z" fill="#66757F" ts:gender="female"/>
	<path d="M20.805 36l2.862-10.017H12.333L15.195 36z" fill="#DFE7EC" ts:gender="neutral,male"/>
	<!-- neck -->
	<path d="M14.5 26c1 1.982 2.792 2 3.5 2s2.512-.049 3.5-2v-3.591h-7V26z" fill="#FFDC5D" ts:skin="skin" ts:gender="female"/>
	<path d="M14 25.887l4 1.75 4-1.75v-4h-8z" fill="#FFDC5D" ts:skin="skin" ts:gender="neutral,male"/>
	<path d="M20.145 36l3.011-10L18 27l-5.156-1 3.011 10z" fill="#DFE7EC" ts:gender="female"/>
	<path d="M14 24c1.216 1.374 2.355 1.719 3.996 1.719 1.639 0 2.787-.346 4.004-1.719v-4h-8v4z" fill="#F9CA55" ts:skin="dark" ts:gender="neutral,male"/>
	<path d="M14.5 24.054c.975 1.102 2.185 1.4 3.499 1.4 1.315 0 2.526-.298 3.501-1.4v-1.051h-7v1.051z" fill="#F9CA55" ts:skin="dark" ts:gender="female"/>
	<!-- head -->
	<use href="defs.svg#face_neutral" x="25.413" y="11.466" fill="#FFDC5D" ts:skin="skin" ts:gender="neutral"/>
	<use href="defs.svg#face_male" x="18" y="14.959" fill="#FFDC5D" ts:skin="skin" ts:gender="male"/>
	<use href="defs.svg#face_female" x="9.793" y="14.627" fill="#FFDC5D" ts:skin="skin" ts:gender="female"/>
	<!-- hair -->
	<use href="defs.svg#hair_male" x="18" y="1.48" fill="#FFAC33" ts:skin="hair" ts:gender="male"/>
	<use href="defs.svg#hair_front_female" x="18.004" y="3.979" fill="#FFAC33" ts:skin="hair" ts:gender="female"/>
	<use href="defs.svg#ears_female" x="18.058" y="14.8445" fill="#FFDC5D" ts:skin="skin" ts:gender="female"/>
	<!-- eyes -->
	<rect x="13.109" y="12.705" width="1.906" height="2.859" rx="0.953" fill="#662113" ts:skin="eyes2" ts:gender="neutral"/><rect x="20.734" y="12.705" width="1.906" height="2.859" rx="0.953" fill="#662113" ts:skin="eyes2" ts:gender="neutral"/>
	<rect x="21" y="12" width="2" height="3" rx="1" fill="#662113" ts:skin="eyes2" ts:gender="male"/><rect x="13" y="12" width="2" height="3" rx="1" fill="#662113" ts:skin="eyes2" ts:gender="male"/>
	<rect x="20.586" y="14.258" width="1.692" height="2.538" rx="0.84625" fill="#662113" ts:skin="eyes2" ts:gender="female"/><rect x="13.821" y="14.258" width="1.693" height="2.538" rx="0.8465" fill="#662113" ts:skin="eyes2" ts:gender="female"/>
	<!-- nose -->
	<rect x="16.444" y="17.946" width="2.86" height="0.954" rx="0.477" fill="#C1694F" ts:skin="nose" ts:gender="neutral"/>
	<rect x="16.5" y="16.25" width="3" height="1.5" rx="0.75" fill="#C1694F" ts:skin="nose" ts:gender="male"/>
	<rect x="16.782" y="18.409" width="2.537" height="1" rx="0.4235" fill="#C1694F" ts:skin="nose" ts:gender="female"/>
	<!-- mouth -->
	<path d="M18 22.88c-2.754 0-3.6-.705-3.741-.848-.256-.256-.256-.671 0-.927.248-.248.646-.255.902-.023.052.037.721.487 2.839.487 2.2 0 2.836-.485 2.842-.49.256-.255.657-.243.913.015.256.256.242.683-.014.938-.141.143-.987.848-3.741.848" fill="#C1694F" ts:skin="nose" ts:gender="neutral"/>
	<path d="M18 21.802c-2.754 0-3.6-.705-3.741-.848-.256-.256-.256-.671 0-.927.248-.248.646-.255.902-.023.052.037.721.487 2.839.487 2.2 0 2.836-.485 2.842-.49.256-.255.657-.243.913.015.256.256.242.683-.014.938-.141.143-.987.848-3.741.848 " fill="#C1694F" ts:skin="nose" ts:gender="male"/>
	<path d="M18.004 22.452c-1.606 0-2.447-.794-2.537-.885-.268-.267-.268-.7 0-.967.266-.265.692-.267.961-.007.035.032.551.491 1.576.491 1.038 0 1.555-.473 1.576-.492.273-.256.703-.248.963.019.26.269.26.691-.004.955-.09.092-.929.886-2.535.886" fill="#DF1F32" ts:gender="female"/>
	<!-- collar -->
	<path d="M13.927 24.744L18 27.637l-2.656 2.818-3.011-4.472z M22.073,24.744 L18 27.637l2.656 2.818 3.011-4.472z" fill="#F4F7F9" ts:gender="neutral,male"/>
	<path d="M14.294 24.872L18 26.966l-2.417 2.564-2.74-3.53z M21.706,24.872 L18 26.966l2.417 2.564 2.74-3.53z" fill="#F4F7F9" ts:gender="female"/>
	<!-- bowtie -->
	<path d="M21.045 26.653c-.072-.043-.159-.043-.231-.003L18 28.197l-2.814-1.547c-.072-.04-.159-.039-.231.003-.071.042-.115.119-.115.201v3.218c0 .082.044.159.115.201.037.021.078.032.119.032.039 0 .077-.01.112-.029L18 28.728l2.814 1.548c.035.02.073.029.112.029.041 0 .082-.011.119-.032.07-.042.114-.119.114-.201v-3.218c0-.082-.044-.159-.114-.201z" fill="#292F33" ts:gender="neutral,male"/>
	<path d="M20.781 26.053c-.072-.043-.159-.043-.231-.003l-2.551 1.402-2.551-1.402c-.072-.04-.159-.039-.231.003-.071.042-.115.119-.115.201v2.928c0 .082.044.159.115.201.037.021.078.032.119.032.039 0 .077-.01.112-.029l2.551-1.402 2.551 1.402c.035.02.073.029.112.029.041 0 .082-.011.119-.032.07-.042.114-.119.114-.201v-2.928c.001-.082-.043-.159-.114-.201z" fill="#292F33" ts:gender="female"/>
	<!-- buttons -->
	<circle cx="18" cy="31.847" fill="#292F33" r=".7" ts:gender="neutral,male"/>
	<circle cx="18" cy="34.704" fill="#292F33" r=".7" ts:gender="neutral,male"/>
	<circle cx="18" cy="30.796" fill="#292F33" r=".625" ts:gender="female"/>
	<circle cx="18" cy="33.396" fill="#292F33" r=".625" ts:gender="female"/>
	<path d="M18 35.375c-.345 0-.625.28-.625.625h1.25c0-.345-.28-.625-.625-.625z" fill="#292F33" ts:gender="female"/>
</svg>
