<svg viewBox="0 0 36 36" xmlns="http://www.w3.org/2000/svg" xmlns:ts="data:,a">
	<!-- back steam -->
	<circle cx="4.5" cy="25.5" r="4.5" fill="#E1E8ED"/>
	<circle cx="25.5" cy="20.5" r="5.5" fill="#E1E8ED"/>
	<circle cx="31" cy="26.5" r="5" fill="#E1E8ED"/>
	<circle cx="12" cy="24" r="5" fill="#E1E8ED"/>
	<circle cx="3" cy="33" r="3" fill="#E1E8ED"/>
	<circle cx="33" cy="33" r="3" fill="#E1E8ED"/>
	<rect x="3" y="33" width="29" height="3" fill="#E1E8ED"/>
	<rect x="0" y="25.5" width="9" height="7.5" fill="#E1E8ED"/>
	<rect x="20" y="23" width="9" height="4" fill="#E1E8ED"/>
	<rect x="31" y="26.5" width="5" height="6.5" fill="#E1E8ED"/>
	<!-- back hair -->
	<use href="defs.svg#hair_neutral" transform="translate(21.33 3.975) scale(.895)" fill="#FFAC33" ts:skin="hair" ts:gender="neutral"/>
	<use href="defs.svg#hair_back_female" x="17.945" y="3.978" fill="#FFAC33" ts:skin="hair" ts:gender="female"/>
	<!-- back towel -->
	<path d="M23.35 20c1.014.324 2.845 1.15 2.65 2.941 1.924.357 2.306 1.966 2.436 2.907.248 1.79-7.436-.198-7.436-.198l-1-3.482L23.35 20z M12.970,20.5 c-.769.185-2.749.5-3.64 2.793-1.99 0-2.33 2.02-2.33 3.538 0 2.253 7.336 1.955 8.495.678 1.158-1.277.784-5.36.784-5.36L12.97 20.5z" fill="#77B255" ts:gender="male"/>
	<!-- body -->
	<path d="M31 36v-4.5c0-3.314-3.56-5.5-6.875-5.5h-12C8.812 26 5 28.186 5 31.5V36h26z" fill="#FFDC5D" ts:skin="skin" ts:gender="neutral,female"/>
	<path d="M32 36v-4c0-3.314-2.685-6-6-6H10c-3.313 0-6 2.686-6 6v4h28z" fill="#FFDC5D" ts:skin="skin" ts:gender="male"/>
	<!-- neck -->
	<path d="M15.442 21.658v5.116c0 1.413 1.145 2.558 2.558 2.558 1.413 0 2.558-1.145 2.558-2.558v-5.116h-5.116z" fill="#FFDC5D" ts:skin="skin" ts:gender="neutral"/>
	<path d="M13.667 27.122L18 31.001l4.316-2.627L22 22h-8z" fill="#FFDC5D" ts:skin="skin" ts:gender="male"/>
	<path d="M14.5 26c1 1.982 2.792 4.5 3.5 4.5s2.512-2.549 3.5-4.5v-3.591h-7V26z" fill="#FFDC5D" ts:skin="skin" ts:gender="female"/>
	<path d="M15.442 24.698c.713.805 1.597 1.024 2.558 1.024.961 0 1.844-.219 2.558-1.024v-2.047h-5.116v2.047z" fill="#F9CA55" ts:skin="dark" ts:gender="neutral"/>
	<path d="M15.442 24.986L12.125 26c-2.062 0-4.316.847-5.725 2.285-.249.522-.4 1.099-.4 1.715v6h16.422s-4.686-4.014-6.98-11.014z" fill="#F9CA55" ts:skin="dark" ts:gender="neutral"/>
	<path d="M14 24c1.216 1.374 2.355 1.719 3.996 1.719 1.639 0 2.787-.346 4.004-1.719v-4h-8v4z" fill="#F9CA55" ts:skin="dark" ts:gender="male"/>
	<path d="M14.322 24.088c1.022 1.155 2.29 1.468 3.668 1.468 1.379 0 2.647-.312 3.67-1.468v-2.937h-7.338v2.937z" fill="#F9CA55" ts:skin="dark" ts:gender="female"/>
	<!-- face -->
	<path d="M24.744 12.876c-.578-.8-1.317-1.444-2.938-1.672.608.279 1.19 1.241 1.266 1.773.076.532.152.963-.329.431-1.928-2.131-4.027-1.292-6.108-2.593C15.182 9.906 14.74 8.9 14.74 8.9s-.177 1.342-2.381 2.71c-.639.397-1.401 1.279-1.824 2.583-.304.937-.21 1.773-.21 3.201 0 4.169 3.436 7.674 7.674 7.674s7.674-3.536 7.674-7.674c.001-2.593-.27-3.606-.929-4.518z" fill="#FFDC5D" ts:skin="skin" ts:gender="neutral"/>
	<use href="defs.svg#face_male" x="18" y="14.959" fill="#FFDC5D" ts:skin="skin" ts:gender="male"/>
	<use href="defs.svg#face_female" x="9.734" y="14.627" fill="#FFDC5D" ts:skin="skin" ts:gender="female"/>
	<!-- hair -->
	<use href="defs.svg#hair_male" x="18" y="1.48" fill="#FFAC33" ts:skin="hair" ts:gender="male"/>
	<use href="defs.svg#hair_front_female" x="17.945" y="3.978" fill="#FFAC33" ts:skin="hair" ts:gender="female"/>
	<!-- eyes -->
	<rect x="13.736" y="13.983" width="1.706" height="2.559" rx="0.853" fill="#662113" ts:skin="eyes2" ts:gender="neutral"/><rect x="20.558" y="13.983" width="1.706" height="2.559" rx="0.853" fill="#662113" ts:skin="eyes2" ts:gender="neutral"/>
	<rect x="13" y="12" width="2" height="3" rx="1" fill="#662113" ts:skin="eyes2" ts:gender="male"/><rect x="21" y="12" width="2" height="3" rx="1" fill="#662113" ts:skin="eyes2" ts:gender="male"/>
	<rect x="13.762" y="14.258" width="1.693" height="2.538" rx="0.8465" fill="#662113" ts:skin="eyes2" ts:gender="female"/><rect x="20.527" y="14.258" width="1.692" height="2.538" rx="0.84625" fill="#662113" ts:skin="eyes2" ts:gender="female"/>
	<!-- nose -->
	<rect x="16.723" y="18.409" width="2.537" height="1" rx="0.4235" fill="#C1694F" ts:skin="nose" ts:gender="neutral,female"/>
	<rect x="16.5" y="16.25" width="3" height="1.5" rx="0.75" fill="#C1694F" ts:skin="nose" ts:gender="male"/>
	<!-- mouth -->
	<path d="M17.945 22.452c-1.606 0-2.447-.794-2.537-.885-.268-.267-.268-.7 0-.967.266-.265.692-.267.961-.007.035.032.551.491 1.576.491 1.038 0 1.555-.473 1.576-.492.273-.256.703-.248.963.02.26.269.26.691-.004.955-.089.091-.929.885-2.535.885" fill="#C1694F" ts:skin="nose" ts:gender="neutral"/>
	<path d="M18 21.802c-2.754 0-3.6-.705-3.741-.848-.256-.256-.256-.671 0-.927.248-.248.646-.255.902-.023.052.037.721.487 2.839.487 2.2 0 2.836-.485 2.842-.49.256-.255.657-.243.913.015.256.256.242.683-.014.938-.141.143-.987.848-3.741.848" fill="#C1694F" ts:skin="nose" ts:gender="male"/>
	<use href="defs.svg#mouth_female" x="17.945" y="22.452" fill="#DF1F32" ts:gender="female"/>
	<!-- bathrobe -->
	<path d="M24.125 26h-1.567c-1.62 7.571-6.822 10-6.822 10H31v-4.5c0-3.314-3.56-5.5-6.875-5.5z" fill="#DD551F" ts:gender="neutral"/>
	<path d="M15.736 36h6.553s-.784-.695-1.311-1.355C19.506 35.539 15.736 36 15.736 36z" fill="#C63900" ts:gender="neutral"/>
	<path d="M24.558 26c-.777 0-2.81-1-4-1-1.62 7.571-4.822 11-4.822 11h4s3.202-2.429 4.822-10z" fill="#FA743E" ts:gender="neutral"/>
	<path d="M13.442 26h-1.317C8.812 26 5 28.186 5 31.5V36h15.422s-4.686-3-6.98-10z" fill="#FA743E" ts:gender="neutral"/>
	<path d="M18.529 31.351C17.645 33.209 15.736 36 15.736 36h4.047s.639-.581 1.196-1.355c-.832-1.033-1.9-2.426-2.45-3.294z" fill="#DD551F" ts:gender="neutral"/>
	<path d="M15.442 25c-1.047 0-3.153 1-4 1 2.295 7 4.98 10 4.98 10h4s-2.686-4-4.98-11z" fill="#FA8C56" ts:gender="neutral"/>
	<!-- towel on neck -->
	<path d="M13.758 25.712c-.269 3.395.314 5.641.636 6.672.158.505-.201 1.016-.729 1.045-.714.039-1.591.08-2.116.08-1 0-3.477 2.243-3.942-.193C7.143 30.88 7 28.711 7 27.909s-.158-3.166 1.167-3.17c1.817-.005 2.155-.153 2.917-.705.857-.622 2.738.879 2.674 1.678z M22.184,25.719 c.247 3.305-.257 5.437-.553 6.44-.145.492-.261.897.099 1.237.698.66 2.007-.07 2.49-.07.92 0 2.935 2.261 3.612-.991.633-3.039.604-5.475.604-6.255s-.468-1.038-1.077-1.363c-1.486-.792-1.982-.149-2.683-.687-.788-.605-2.55.911-2.492 1.689z" fill="#77B255" ts:gender="male"/>
	<path d="M8.002 25.236c.156-.67.885-1.175 1.063-.623.177.55.233 3.471.295 4.387s-.608-.184-.861-.898c-.254-.714-.644-2.234-.497-2.866z M10.315,23.535 c.024-.521.923-1.192 1.004-.656.081.536.571 6.09.845 7.289.274 1.199-.196.978-.522.124s-1.401-5.186-1.327-6.757z M27.117,24.387 c-.175-.579-.846-.279-1.003.176s.021 1.692-.01 2.465c-.031.773.325.014.551-.574.227-.588.627-1.521.462-2.067zM25.117,22.682 c-.245-.141-.842.207-.89.639-.047.432-.005 4.021-.202 4.982-.196.961.115.81.383.133s1.831-5.106.709-5.754z" fill="#A6D388" ts:gender="male"/>
	<!-- towel around body -->
	<path d="M9.75 31.5V36h11.5v-.5h5v-4z" fill="#9266CC" ts:gender="female"/>
	<path d="M19.25 31.5c2 1 2 4 2 4v.5h1v-.5h3v-4h-6z" fill="#A47DE2" ts:gender="female"/>
	<path d="M20.25 31.5c2 1 2 4 2 4v.5h4v-4.5h-6z" fill="#744EAA" ts:gender="female"/>
	<path d="M20.25 31.5H9.75v1h11.621c-.277-.402-.64-.76-1.121-1z" fill="#744EAA" ts:gender="female"/>
	<path d="M20.25 31.5c.481.24.844.598 1.121 1h4.879v-1h-6z" fill="#553788" ts:gender="female"/>
	<path d="M20.371 32.5h1c-.277-.402-.64-.76-1.121-1h-1c.481.24.844.598 1.121 1z" fill="#9266CC" ts:gender="female"/>
	<!-- front steam -->
	<path d="M32 28c-2.975 0-5.438 2.168-5.911 5.009C26.058 33.008 26.03 33 26 33c-2.049 0-3.806 1.236-4.578 3H33c1.65 0 3-1.35 3-3v-3.463C34.938 28.584 33.539 28 32 28z M13.578,36 c-.772-1.764-2.529-3-4.578-3-.78 0-1.509.194-2.166.512.098-.322.166-.657.166-1.012C7 30.567 5.433 29 3.5 29 1.738 29 .295 30.306.05 32H0v1c0 1.65 1.35 3 3 3h10.578z" fill="#FFF" opacity=".7"/>
</svg>
