<svg viewBox="0 0 36 36" xmlns="http://www.w3.org/2000/svg">
	<!-- shoe sole -->
	<path d="M21.133 30.401c.18.923.402 1.394.688 2.302.21.667.139 1.573-.425 1.722-.447.118-.953-.12-1.294-1.047-.183-.496-.214-.875-.291-1.441-.044-.326-.1-.78-.207-1.188-.117-.445-.029-1.025.545-1.176.425-.113.864.213.984.828z" fill="#DD551F" data-gender="neutral,female" data-gender-color="|#DD2E44"/>
	<path d="M28.65 31.29c.257.905.272 1.425.428 2.365.115.69.588 1.466 1.158 1.343.452-.097.795-.538.68-1.52-.061-.525-.205-.877-.393-1.416-.108-.311-.264-.74-.353-1.153-.097-.45-.438-.928-1.018-.802-.43.091-.673.58-.502 1.183z" fill="#DD551F" data-gender="neutral,female" data-gender-color="|#DD2E44"/>
	<path d="M21.01 30.366c.189.97.423 1.465.723 2.419.22.701.146 1.653-.446 1.809-.469.124-1.001-.127-1.36-1.101-.192-.521-.225-.919-.306-1.514-.046-.343-.105-.819-.218-1.249-.123-.468-.031-1.077.573-1.236.447-.116.908.226 1.034.872z" fill="#1C6399" data-gender="male"/>
	<path d="M28.648 31.324c.294.944.323 1.49.512 2.473.139.722.656 1.525 1.252 1.381.472-.114.821-.587.675-1.614-.078-.55-.238-.916-.45-1.477-.122-.324-.297-.771-.401-1.202-.114-.47-.484-.963-1.091-.816-.45.107-.693.627-.497 1.255z" fill="#1C6399" data-gender="male"/>
	<!-- shoe tongue -->
	<path d="M20.862 30.571c-.024-.017-.24-.136-.551-.043-.311.094-.42.275-.434.302-.013.027.304.77.351.978.049.222.221.845.229.871.014.054.071.084.126.07l.594-.156c.056-.015.089-.07.075-.124l-.221-.841c-.062-.233-.144-1.041-.169-1.057z" fill="#C63900" data-gender="neutral,female" data-gender-color="|#A0041E"/>
	<path d="M29.941 31.084c-.024-.017-.237-.141-.55-.054-.313.087-.425.267-.44.293-.014.027.289.776.332.985.044.223.205.849.212.876.013.054.069.086.125.072l.597-.144c.056-.014.09-.068.077-.122l-.205-.845c-.057-.235-.123-1.044-.148-1.061z" fill="#C63900" data-gender="neutral,female" data-gender-color="|#A0041E"/>
	<path d="M20.725 30.544c-.026-.018-.252-.143-.579-.045-.327.098-.441.289-.456.317-.014.028.319.809.369 1.028.051.233.233.888.241.915.015.056.074.089.132.073l.624-.164c.059-.016.094-.074.079-.13l-.233-.883c-.064-.245-.15-1.093-.177-1.111z" fill="#3B94D9" data-gender="male"/>
	<path d="M29.952 31.074c-.026-.017-.255-.137-.58-.031-.325.106-.434.3-.448.328-.013.028.339.801.394 1.019.057.232.254.882.263.909.016.056.076.087.134.07l.62-.179c.059-.017.092-.076.076-.132l-.254-.878c-.071-.243-.178-1.089-.205-1.106z" fill="#3B94D9" data-gender="male"/>
	<!-- shoe laces -->
	<path d="M19.96600000,31.20500000 c.017 0 .034-.002.051-.007l.905-.239c.107-.028.171-.137.143-.244-.028-.106-.139-.173-.244-.142l-.905.239c-.107.028-.171.137-.143.244.023.089.104.149.193.149z M20.15400000,31.92100000 c.017 0 .034-.002.051-.007l.905-.239c.107-.028.171-.137.143-.244-.027-.106-.138-.172-.244-.142l-.905.239c-.107.028-.171.137-.143.244.023.089.104.149.193.149z M20.343 32.637c.017 0 .034-.002.051-.007l.905-.239c.107-.028.171-.137.143-.244-.027-.106-.137-.172-.244-.142l-.905.239c-.107.028-.171.137-.143.244.023.089.104.149.193.149z" fill="#CCD6DD" data-gender="neutral,female"/>
	<path d="M29.036,31.700 c.016 0 .031-.002.047-.006l.91-.22c.107-.026.174-.134.147-.241s-.134-.174-.241-.147l-.91.22c-.107.026-.174.134-.147.241.022.092.103.153.194.153z M29.21000000,32.42000000 c.016 0 .031-.002.047-.006l.91-.22c.107-.026.174-.134.147-.241-.025-.107-.135-.174-.241-.147l-.91.22c-.107.026-.174.134-.147.241.022.092.103.153.194.153z M29.385 33.14c.016 0 .031-.002.047-.006l.91-.22c.107-.026.174-.134.147-.241-.026-.107-.134-.173-.241-.147l-.91.22c-.107.026-.174.134-.147.241.022.091.103.153.194.153z" fill="#CCD6DD" data-gender="neutral,female"/>
	<path d="M19.783,31.200 c.017 0 .034-.002.051-.007l.951-.251c.107-.028.171-.137.143-.244-.028-.106-.138-.172-.244-.142l-.951.251c-.107.028-.171.137-.143.244.023.09.105.149.193.149z M19.98200000,31.95300000 c.017 0 .034-.002.051-.007l.951-.251c.107-.028.171-.137.143-.244-.028-.106-.138-.172-.244-.142l-.951.251c-.107.028-.171.137-.143.244.023.09.104.149.193.149z M20.18 32.705c.017 0 .034-.002.051-.007l.951-.25c.107-.028.171-.137.143-.244-.027-.106-.138-.172-.244-.142l-.951.25c-.107.028-.171.137-.143.244.023.09.104.149.193.149z" fill="#CCD6DD" data-gender="male"/>
	<path d="M29.02500000,31.77000000 c.019 0 .037-.002.057-.008l.944-.277c.105-.031.166-.142.136-.248-.031-.106-.137-.167-.249-.136l-.944.277c-.105.031-.166.142-.136.248.026.088.105.144.192.144z M29.24300000,32.51700000 c.019 0 .037-.002.057-.008l.944-.277c.105-.031.166-.142.136-.248-.031-.106-.137-.167-.249-.136l-.944.277c-.105.031-.166.142-.136.248.026.088.105.144.192.144z M29.463 33.264c.019 0 .037-.002.057-.008l.944-.277c.105-.031.166-.142.136-.248-.031-.106-.137-.167-.249-.136l-.944.277c-.105.031-.166.142-.136.248.026.087.105.144.192.144z" fill="#CCD6DD" data-gender="male"/>
	<!-- left leg -->
	<path d="M13.90600000,21.76700000 l2.515 1.534c-.171.271-.513.854-.797 1.59-.083.213-.154.445.201.701.2.146.59.466.889.704.204.163.438.349.714.563.997.778 2.994 2.961 3.16 3.124.166.164.283.377.344.662-.087.019-.965.233-.965.233s-.123-.307-.421-.487c-.929-.561-6.214-3.599-6.214-3.599-.69-.495-1.067-.722-1.005-1.432.108-1.241 1.249-3.137 1.579-3.593z" fill="#FFDC5D" data-skin="#F7DECE|#F3D2A2|#D4AB88|#AF7E57|#7C533E" data-gender="neutral"/>
	<path d="M13.56100000,21.87100000 l2.815 1.487c-.171.271-.513.854-.797 1.59-.083.213-.132.49.223.746.2.146.433.331.731.568.204.163.438.349.714.563.997.778 2.582 2.469 2.694 2.575.059.056.145.12.239.202.08.07.165.163.248.278.002.004.005.005.007.008l.002.005c.12.17.231.388.292.673-.087.019-.965.233-.965.233s-.164-.223-.464-.399c-.907-.513-5.677-3.215-6.356-3.703l-.062-.044c-.69-.495-.977-.699-.915-1.409.108-1.241 1.264-2.916 1.594-3.373z" fill="#FFDC5D" data-skin="#F7DECE|#F3D2A2|#D4AB88|#AF7E57|#7C533E" data-gender="male"/>
	<path d="M13.92100000,21.98700000 l2.501 1.313c-.171.271-.513.854-.797 1.59-.083.213-.191.618.163.874.2.146.59.466.889.704.204.163.438.349.714.563.997.778 3.032 2.787 3.198 2.951.166.164.283.377.344.662-.087.019-.965.233-.965.233s-.123-.307-.421-.487c-.929-.561-6.214-3.599-6.214-3.599-.69-.495-1.067-.722-1.005-1.432.107-1.24 1.263-2.915 1.593-3.372z" fill="#FFDC5D" data-skin="#F7DECE|#F3D2A2|#D4AB88|#AF7E57|#7C533E" data-gender="female"/>
	<!-- right leg -->
	<path d="M19.984 24.417l2.474-1.709 1.281 2.614c.24.185.28.276 1.615 1.052 1.203.699 3.46 3.091 4.21 4.025.213.198.259.341.393.701l-1.023.266s-.182-.34-.476-.533c-1.453-.618-6.23-3.343-6.23-3.343-.394-.283-.64-.478-.78-.72 0 0-1.245-1.86-1.464-2.353z" fill="#FFDC5D" data-skin="#F7DECE|#F3D2A2|#D4AB88|#AF7E57|#7C533E" data-gender="neutral"/>
	<path d="M20.093 24.067l2.664-1.668 1.149 2.757c.24.185.28.276 1.615 1.052 1.203.699 3.041 2.897 3.791 3.832.213.198.504.544.646 1.061-.566.137-1.023.266-1.023.266s-.171-.202-.466-.396c-1.438-.821-6.319-3.633-6.319-3.633-.394-.283-.64-.478-.78-.72l-.01.006c-.954-1.365-1.048-2.063-1.267-2.557z" fill="#FFDC5D" data-skin="#F7DECE|#F3D2A2|#D4AB88|#AF7E57|#7C533E" data-gender="male"/>
	<path d="M19.958 24.146l2.5-1.438 1.281 2.614c.24.185.28.276 1.615 1.052 1.203.699 3.46 3.091 4.21 4.025.213.198.259.341.393.701l-1.023.266s-.182-.34-.476-.533c-1.438-.821-6.309-3.495-6.309-3.495-.394-.283-.64-.478-.78-.72 0 0-1.192-1.979-1.411-2.472z" fill="#FFDC5D" data-skin="#F7DECE|#F3D2A2|#D4AB88|#AF7E57|#7C533E" data-gender="female"/>
	<!-- left arm -->
	<path d="M2.393 12.423c.285-.016.335-.059.612-.053.406.009.393.056.577.053.399-.006.967-.034 1.387-.084.31-.037 1.968-.116 2.419-.198.614-.113 1.384-.261 2.798-.152.794-.409 1.869-.87 2.823-1.279.699-.3 1.359-.583 1.802-.8.223-.109.442-.165.652-.165.156 0 .308.031.449.092.325.141.568.43.686.813.043.142.162.638-.108 1.073-.216.347-.624.573-1.214.671-.618.102-1.111.368-1.979.636-.857.265-2.101.615-3.084.826 0 0-1.562-.168-2.374-.217-1.124-.068-2.651-.447-3.06-.324-.518.157-1.068.303-1.715-.03-1.106-.569-2.212-.236-2.095-.707.027-.109.881-.125 1.424-.155z" fill="#FFDC5D" data-skin="#F7DECE|#F3D2A2|#D4AB88|#AF7E57|#7C533E" data-gender="neutral"/>
	<path d="M2.177 12.341c.285-.018.335-.066.612-.059.406.01.393.062.577.059.399-.007.967-.038 1.387-.094.31-.041 1.968-.32 2.419-.413.614-.126 1.372-.353 2.786-.23v-.001c1.217-.728 3.875-1.827 4.754-2.147 1.009-.367 2.187 2.707.602 2.97-1.277.211-3.237 1.018-5.292 1.425l-.001-.032c-.023.016-.037.039-.062.052 0 0-1.491-.204-2.303-.259-1.124-.076-2.682-.406-3.092-.267-.518.176-1.068.34-1.715-.034-1.106-.639-2.212-.265-2.095-.794.026-.124.88-.142 1.423-.176z" fill="#FFDC5D" data-skin="#F7DECE|#F3D2A2|#D4AB88|#AF7E57|#7C533E" data-gender="male"/>
	<path d="M2.393 12.423c.285-.016.335-.059.612-.053.406.009.393.056.577.053.399-.006.967-.034 1.387-.084.31-.037 1.968-.116 2.419-.198.614-.113 1.384-.261 2.798-.152.794-.409 1.869-.87 2.823-1.279.699-.3 1.359-.583 1.802-.8.223-.109.442-.165.652-.165.156 0 .308.031.449.092.325.141.568.43.686.813.043.142.162.638-.108 1.073-.216.347-.624.573-1.214.671-.618.102-1.367.333-2.234.6-.857.265-1.82.561-2.804.772 0 0-1.555-.164-2.367-.213-1.124-.068-2.682-.362-3.092-.238-.518.157-1.068.303-1.715-.03-1.106-.569-2.212-.236-2.095-.707.027-.109.881-.125 1.424-.155z" fill="#FFDC5D" data-skin="#F7DECE|#F3D2A2|#D4AB88|#AF7E57|#7C533E" data-gender="female"/>
	<!-- right arm -->
	<path d="M22.42400000,9.32200000 c.268-.28.705-.422 1.299-.422 1.689 0 3.358.215 3.783.3.118.023.173.024.301-.052.318-.188.435-.697.583-1.341.049-.217.102-.445.165-.672.279-1.001.588-2.46.55-2.736-.053-.384.312-3.219.356-3.262.071-.07.274.067.413.075.111.007.19.098.308.176.682.447.78 1.376.849 2 .042.386-.62 1.095-.684 1.502-.021.133.012.946-.03 2.03-.044 1.135-.082 2.63-.124 2.869-.101.572-.285.962-1.087 1.159-.604.147-2.17.29-3.465.359-.65.035-1.848.115-2.147.144-.647.062-.771-.158-1.088-.432-.192-.167-.296-.389-.309-.66-.016-.443.092-.793.327-1.037zz" fill="#FFDC5D" data-skin="#F7DECE|#F3D2A2|#D4AB88|#AF7E57|#7C533E" data-gender="neutral"/>
	<path d="M21.95000000,10.36600000 c-.03-.672.209-1.616 1.772-1.616 1.699 0 3.246.172 3.686.298.651.186.707-.9 1.002-1.952.295-1.056.577-2.448.546-2.676-.053-.384.461-3.239.505-3.282.072-.07.275.067.413.075.111.007.19.098.308.176.682.447.906 1.376.974 2 .042.386-.597 1.118-.661 1.525-.047.301-.154 4.237-.231 4.678-.095.539-.207 1.278-1.122 1.502-.916.223-4.298.317-5.205.406-1.039.102-1.947-.243-1.987-1.134zz" fill="#FFDC5D" data-skin="#F7DECE|#F3D2A2|#D4AB88|#AF7E57|#7C533E" data-gender="male"/>
	<path d="M22.42400000,9.32200000 c.268-.28.705-.422 1.299-.422 1.689 0 3.358.215 3.783.3.118.023.173.024.301-.052.318-.188.435-.697.583-1.341.049-.217.102-.445.165-.672.279-1.001.588-2.46.55-2.736-.053-.384.312-3.219.356-3.262.071-.07.274.067.413.075.111.007.19.098.308.176.682.447.78 1.376.849 2 .042.386-.62 1.095-.684 1.502-.021.133-.048.804-.09 1.888-.044 1.135-.099 2.549-.141 2.788-.101.572-.208 1.186-1.01 1.382-.604.147-2.378.241-3.673.309-.65.035-1.213.064-1.512.093-.647.062-1.198-.058-1.515-.331-.192-.167-.296-.389-.309-.66-.016-.443.092-.793.327-1.037zz" fill="#FFDC5D" data-skin="#F7DECE|#F3D2A2|#D4AB88|#AF7E57|#7C533E" data-gender="female"/>
	<!-- neck -->
	<path d="M17.866 9.022l.254-3.952c.033-.552.525-1 1.071-.964.551.032.977.493.944 1.045l-.199 3.787 2.674-.039-.671 1.81c.004.261-5.995-.536-6.528-.38-.001 0 .282-1.386 2.455-1.307z" fill="#FFDC5D" data-skin="#F7DECE|#F3D2A2|#D4AB88|#AF7E57|#7C533E" data-gender="neutral"/>
	<path d="M18.17300000,4.82600000 c.062-.564.59-1 1.148-.934.564.062.977.558.914 1.122l-.411 3.61.328.048s.391 1.056-1.422 1.056-1.621-.825-1.621-.825l.595-.113.469-3.964z" fill="#FFDC5D" data-skin="#F7DECE|#F3D2A2|#D4AB88|#AF7E57|#7C533E" data-gender="male"/>
	<path d="M18.17200000,4.99300000 c.062-.564.59-1 1.148-.934.564.062.977.558.914 1.122l-.411 3.61.355.047s.363 1.057-1.449 1.057-1.621-.825-1.621-.825l.595-.113.469-3.964z" fill="#FFDC5D" data-skin="#F7DECE|#F3D2A2|#D4AB88|#AF7E57|#7C533E" data-gender="female"/>
	<!-- head -->
	<path d="M21.38100000,4.72900000 c.084 1.655-1.021 3.056-2.469 3.131-1.446.074-2.69-1.208-2.774-2.863-.086-1.654 1.02-3.056 2.468-3.13 1.447-.074 2.691 1.208 2.775 2.862z" fill="#FFDC5D" data-skin="#F7DECE|#F3D2A2|#D4AB88|#AF7E57|#7C533E" data-gender="neutral"/>
	<path d="M16.142 4.648c0-1.702 1.208-3.083 2.697-3.083s2.697 1.38 2.697 3.083-1.011 3.082-2.794 3.082c-.68 0-1.784-.136-2.258-.61-.565-.565-.342-1.547-.342-2.472z" fill="#FFDC5D" data-skin="#F7DECE|#F3D2A2|#D4AB88|#AF7E57|#7C533E" data-gender="male"/>
	<ellipse cx="18.833" cy="4.917" rx="2.625" ry="3" fill="#FFDC5D" data-skin="#F7DECE|#F3D2A2|#D4AB88|#AF7E57|#7C533E" data-gender="female"/>
	<!-- hair -->
	<path d="M16.139 4.998s-.121-.757-.351-1.402c-.263-.737-.002-2.239 1.112-2.455.648-.745 2.424-.785 3.65-.215 1.385.643 1.789 1.935 1.633 3.294-.143 1.249-1.258 2.376-1.258 2.376.342-1.342-.589-3.012-1.36-3.025.287.242.406.615.386.862-.677-.908-2.046-.474-2.691-1.799 0 0-.092.198-.583.662-.445.419-.516 1.09-.538 1.702z" fill="#FFAC33" data-skin="#292F33|#FFE51E|#963B22|#60352A|#0B0200" data-gender="neutral"/>
	<path d="M17.126.73c.718-.5 2.529-.678 3.757-.029 1.386.732 1.733 2.08 1.502 3.466-.212 1.274-.825 1.802-.825 1.802-.235.254-.86-.413-.502-.977.42-.66.302-1.439-.174-1.488-.336-.034-.697.162-.6.464.116.363-.033.512-.033.512s-.277.197-.555-.644c-.146-.441-1.189-.372-2.721-1.066-.181-.082-.642.433-.772 1.581-.028.248-.491-.516-.555-1.073-.105-.923.558-1.906 1.478-2.548z" fill="#FFAC33" data-skin="#292F33|#FFE51E|#963B22|#60352A|#0B0200" data-gender="male"/>
	<path d="M17.166 1.104c.699-.487 2.461-.66 3.656-.029.615.325 1.011.778 1.248 1.298.181-.193.487-.359 1.016-.403 1.196-.099 1.513 1.208 2.378 1.675.653.352 1.4.364 1.921.013 0 0-.716.867-1.52 1.198-1.045.43-2.333.154-2.947-.175-.258-.138-.452-.314-.604-.498-.01.089-.015.177-.03.266-.207 1.24-1.349 2.324-1.349 2.324s-.414-1.064-.227-1.085c.347-.039.555-1.105.264-1.389-.306-.299-.6 0-.675.3S20.02 5.75 20.02 5.75s.052-1.076-.248-1.414c-.3-.337-1.724-.262-2.324-1.724 0 0-.47.179-.845.742-.309.464-.396 1.562-.396 1.562s-.283-.678-.479-1.333c-.224-.749.543-1.855 1.438-2.479z" fill="#FFAC33" data-skin="#292F33|#FFE51E|#963B22|#60352A|#0B0200" data-gender="female"/>
	<!-- shorts -->
	<path d="M19.815 24.612l-1.853-2.693-1.632 2.3c-.02.027-.049.046-.082.051-.032.004-.066-.003-.094-.022-.018-.013-1.703-1.259-2.879-1.463-.039-.007-.073-.032-.091-.067-.018-.036-.017-.078.002-.113 0 0 1.666-3.183 2.022-3.857.358-.676 1.042-1.53 1.07-1.566.023-.03.06-.047.098-.047h.001c.447.003 4.377.062 4.64 1.214.31 1.365 1.981 4.667 1.998 4.7.026.051.014.111-.028.149-.067.061-1.646 1.471-3.016 1.471-.058-.001-.123-.008-.156-.057z" fill="#DD551F" data-gender="neutral,female" data-gender-color="|#A0041E"/>
	<path d="M20.089 24.411c-.062-.002-.118-.036-.148-.09l-1.707-3.055-1.86 2.667c-.055.077-.163.097-.242.044-.019-.013-1.941-1.313-3.099-1.513-.056-.01-.104-.047-.128-.098-.024-.052-.022-.111.006-.161.017-.03 1.712-3.036 2.061-3.694.359-.681.76-1.113.776-1.131.036-.038.085-.06.141-.055l5.335.394c.067.005.125.047.15.11.034.085.831 2.099 1.105 2.96.266.836.827 1.804.833 1.813.042.071.027.161-.033.217-.072.066-1.754 1.593-3.136 1.593l-.054-.001z" fill="#1C6399" data-gender="male"/>
	<!-- shirt -->
	<path d="M22.043 8.722c-.549-.02-1.321.078-1.865.117 0 0-.078.855-1.399.894-1.321.039-1.671-.661-1.671-.661s-1.01.078-1.749.544c-.738.466-1.865.884-1.865.884s1.078 1.291.689 2.263l.852-.248s-.048.542.237 2.047c.209 1.102.049 3.754-.107 4.103 0 0 1.224.002 3.189.218 1.205.132 3.046.617 3.046.617.058-1.25-.31-3.028-.292-4.168.028-1.679.962-3.63 1.18-3.664.671-.103 1.208-.217 1.208-.217s-.17-1.098-.015-1.642c.155-.544.233-.933.233-.933s-1.121-.134-1.671-.154z" fill="#FA743E" data-gender="neutral"/>
	<path d="M22.141 8.562c-.812 0-1.45.072-1.99.111 0 0-.077.847-1.387.886-1.309.039-1.656-.655-1.656-.655s-1.411-.055-2.143.407l-1.606.685s.915 1.338.821 2.719l.74-.212s-.032.025-.068.525c-.088 1.207.208 5.343.054 5.69 0 0 1.521.536 3.469.75 1.192.131 3.703.106 3.703.106-.31-1.295-.529-3.545-.578-4.652-.096-2.173.497-3.318.708-3.298.896.083 1.729-.125 1.729-.125s-.375-.688-.292-1.458c.083-.771.312-1.292.312-1.292s-1.004-.187-1.816-.187z" fill="#4289C1" data-gender="male"/>
	<path d="M22.043 8.722c-.549-.02-1.321.078-1.865.117 0 0-.078.855-1.399.894-1.321.039-1.671-.661-1.671-.661s-1.01.078-1.749.544c-.738.466-1.865.884-1.865.884s1.049 1.197.661 2.169l1.049-.315s-.352.593-.235 1.021c.117.427.538.88.581 1.269.12 1.082-.227 3.672-.383 4.021 0 0 1.225-.346 3.191-.13 1.202.133 3.042.965 3.042.965-.022-.842-.413-2.902-.559-4.01-.142-1.079.814-3.793 1.474-3.948.661-.155 1.166-.194 1.166-.194s-.155-.994 0-1.538.233-.933.233-.933-1.121-.135-1.671-.155z" fill="#DD2E44" data-gender="female"/>
	<!-- ball -->
	<circle cx="28.5" cy="2.917" fill="#269" r="2.055"/>
	<!-- fingers -->
	<path d="M29.282 1.82 zz m0,0 l.079-.014c-.134.021-.261-.069-.284-.203-.023-.135.068-.265.204-.289l.513-.092.825.901.25.922-.817.15c-.135.023-.265-.068-.288-.204-.022-.129.064-.248.189-.279l-.22.038c-.135.023-.265-.068-.288-.204-.023-.131.065-.253.194-.282l-.271.046c-.135.023-.265-.068-.288-.204s.067-.263.202-.286z" fill="#FFDC5D" data-skin="#F7DECE|#F3D2A2|#D4AB88|#AF7E57|#7C533E"/>
</svg>
