<svg viewBox="0 0 36 36" xmlns="http://www.w3.org/2000/svg">
	<!-- scissors behind -->
	<path d="M30.169 8.15L15.32 23s-.707-2.121.707-3.535L28.755 6.736l1.414 1.414z" fill="#9AAAB4" data-gender="neutral,female"/>
	<path d="M28.026 18.899L13.177 4.05s-.707 2.121.707 3.536l12.728 12.728 1.414-1.415z" fill="#9AAAB4" data-gender="male"/>
	<!-- hair -->
	<path d="M19.629 11.361c.178-4.812-2.645-8.456-7.723-10.099-2.02-.654-6.772-.475-7.96 1.069C2.632 2.357 1.224 2.88 0 3.752V12l15.399 10.066c1.147-.887 2.038-2.083 2.713-3.528C20.273 20.831 23 20.447 23 20.447c-3.709-2.863-3.371-9.086-3.371-9.086z" fill="#FFAC33" data-skin="#292F33|#FFE51E|#963B22|#60352A|#0B0200" data-gender="neutral"/>
	<path d="M26.5 8.281s-4.42-.48-9.118-3.255C15.587 2.212 12.445.34 8.859.34c-1.515 0-2.946.344-4.237.942.125-.008.431-.015.589-.019-1.988.015-3.805.744-5.211 1.943v12.367c.766.655 1.641 1.187 2.613 1.524 1.854 2.121 3.208 3.466 6.246 3.466 5.472 0 9.917-4.349 10.094-9.779 2.074-.139 5.124-.676 7.547-2.503z" fill="#FFAC33" data-skin="#292F33|#FFE51E|#963B22|#60352A|#0B0200" data-gender="male"/>
	<path d="M20 11C20 4.925 15.075 0 9 0 7.279 0 5.657.406 4.207 1.111 3.814 1.042 3.412 1 3 1c-1.075 0-2.09.25-3 .683v26.894c2.122 1.909 4.92 3.08 8 3.08 3.358 0 6.384-1.388 8.559-3.612C22.426 28.507 29 36 29 36l7-9c-15-6-16-16-16-16z" fill="#FFAC33" data-skin="#292F33|#FFE51E|#963B22|#60352A|#0B0200" data-gender="female"/>
	<!-- body -->
	<path d="M20.61 29.303C19.97 27.946 18.6 27 17 27H0v9h21v-5c0-.609-.147-1.18-.39-1.697z" fill="#FA743E" data-gender="neutral,female" data-gender-color="|#9268CA"/>
	<path d="M17 27H0v9h21v-5c0-2.209-1.791-4-4-4z" fill="#4289C1" data-gender="male"/>
	<path d="M16 32h1v4h-1z" fill="#DD551F" data-gender-color="#2A6797|#7450A8"/>
	<!-- head -->
	<path d="M15.909 11.701c-.677-.938-1.544-1.693-3.445-1.96.713.327 1.396 1.455 1.485 2.079.089.624.178 1.129-.386.505C11.302 9.826 8.84 10.81 6.4 9.284 4.695 8.217 4.177 7.038 4.177 7.038s-.208 1.574-2.792 3.178c-.452.28-.947.792-1.385 1.469v9.39c1.042 2.02 2.834 3.598 5 4.38V28c0 1.657 1.343 3 3 3s3-1.343 3-3v-2.539c1.795-.651 3.333-1.852 4.399-3.395C16.406 20.608 17 18.857 17 17c0-3.041-.318-4.229-1.091-5.299z" fill="#FFDC5D" data-skin="#F7DECE|#F3D2A2|#D4AB88|#AF7E57|#7C533E" data-gender="neutral"/>
	<path d="M18.729 13.715c0-1.548-.769-2.801-1.729-2.852v-.011c-6.887-.019-10.896-3.02-12.951-5.326C3.497 7.259 2.3 9.869 0 10.586v10.525c1.042 2.023 2.834 3.583 5 4.353V28c0 1.657 1.343 3 3 3s3-1.343 3-3v-2.523c3.493-1.237 6-4.56 6-8.477v-.433c.96-.051 1.729-1.304 1.729-2.852z" fill="#FFDC5D" data-skin="#F7DECE|#F3D2A2|#D5AB88|#AF7E57|#7C533E" data-gender="male"/>
	<path d="M4 5s-.01 4.562-4 5.724v10.394c1.044 2.019 2.831 3.591 5 4.359V28c0 1.657 1.343 3 3 3s3-1.343 3-3v-2.523c3.494-1.237 6-4.56 6-8.477v-5.019C5.89 11.605 4 5 4 5z" fill="#FFDC5D" data-skin="#F7DECE|#F3D2A2|#D5AB88|#AF7E57|#7C533E" data-gender="female"/>
	<!-- eyes -->
	<path d="M4 16c-.552 0-1-.448-1-1v-1c0-.552.448-1 1-1s1 .448 1 1v1c0 .552-.448 1-1 1z M12.00000000,16.00000000 c-.552 0-1-.448-1-1v-1c0-.552.448-1 1-1s1 .448 1 1v1c0 .552-.448 1-1 1z" fill="#662113" data-skin="#662113|#662113|#662113|#662113|inherit"/>
	<!-- nose -->
	<path d="M9.00000000,19.50000000 H7c-.276 0-.5-.224-.5-.5s.224-.5.5-.5h2c.276 0 .5.224.5.5s-.224.5-.5.5z" fill="#C1694F" data-skin="#C1694F|#C1694F|#C1694F|#915A34|#3D2E24"/>
	<!-- mouth -->
	<path d="M12 22H4s1 2 4 2 4-2 4-2z " fill="#C1694F" data-skin="#C1694F|#C1694F|#C1694F|#915A34|#3D2E24" data-gender="neutral,male"/>
	<path d="M12 21H4s1 2 4 2 4-2 4-2z" fill="#DF1F32" data-gender="female"/>
	<!-- scissors -->
	<path d="M24 6v21s2-1 2-3V6h-2z" fill="#9AAAB4" data-gender="neutral,female"/>
	<path d="M22.143 21.74l-.001-21s2 1 2 3l.001 18h-2z" fill="#9AAAB4" data-gender="male"/>
	<circle cx="25" cy="12" fill="#67757F" r="1" data-gender="neutral,female"/>
	<circle cx="23.076" cy="15.363" fill="#67757F" r="1" data-gender="male"/>
	<path d="M28.755 6.736c-1.952 1.953-2.586 4.484-1.414 5.656s3.705.539 5.657-1.414c1.952-1.952 2.586-4.484 1.414-5.656-1.172-1.172-3.704-.539-5.657 1.414z M30.16900000,8.15000000 c1.172-1.172 2.438-1.805 2.829-1.414.392.391-.243 1.656-1.415 2.828-1.171 1.172-2.437 1.805-2.828 1.414-.391-.39.243-1.656 1.414-2.828z" fill="#67757F" data-gender="neutral,female"/>
	<path d="M32.269 21.727c1.172-1.172.538-3.704-1.414-5.657-1.952-1.952-4.485-2.586-5.657-1.414s-.538 3.704 1.414 5.657 4.485 2.586 5.657 1.414z M26.61200000,16.07000000 c.391-.391 1.657.243 2.828 1.414 1.171 1.171 1.805 2.438 1.414 2.828s-1.657-.243-2.828-1.414c-1.171-1.171-1.805-2.437-1.414-2.828z" fill="#67757F" data-gender="male"/>
	<path d="M23 1c-1.657 0-3 2.239-3 5s1.343 5 3 5 3-2.239 3-5-1.343-5-3-5z M23.00000000,9.00000000 c-.553 0-1-1.343-1-3s.447-3 1-3 1 1.343 1 3-.447 3-1 3z" fill="#67757F" data-gender="neutral,female"/>
	<path d="M24.143 21.74c-.001-2.762-1.342-5-3-5-1.657 0-3.001 2.239-3 5 0 2.761 1.342 5 3 4.999 1.657.002 3-2.236 3-4.999z M22.14300000,21.74000000 c0 1.657-.448 3-1.001 3-.553.001-.999-1.343-.999-3-.001-1.657.447-2.999 1-3 .553.001 1 1.344 1 3z" fill="#67757F" data-gender="male"/>
	<!-- ?? <path d="" fill="#67757F" data-gender="male"/> -->
</svg>
