<svg viewBox="0 0 36 36" xmlns="http://www.w3.org/2000/svg" xmlns:ts="data:,a">
	<!-- back hair -->
	<use href="defs.svg#hair_neutral" x="21.597" y="1.516" ts:skin="hair" ts:gender="neutral"/>
	<use href="defs.svg#hair_back_female" x="18.004" y="3.979" ts:skin="hair" ts:gender="female"/>
	<!-- shirt -->
	<path d="M32 36v-3c0-4-3.685-7-7-7H11c-3.313 0-7 3-7 7v3h28z" fill="#292F33" ts:gender="neutral"/> <!-- 7,7 -->
	<use href="defs.svg#shoulders_male_tall" x="18" fill="#292F33" ts:gender="male"/>
	<path d="M31 36v-4.5c0-3.314-3.56-5.5-6.875-5.5h-12C8.812 26 5 28.186 5 31.5V36h26z" fill="#292F33" ts:gender="female"/> <!-- upper points shifted 0.125 units inwards ? -->
	
	<!-- lapel -->
	<path d="M 13.5,30 l -4.292,-0.916 l 1.912,-3.087 h 2.38 v 4 Z M 22.5,30 v -4 h 2.379 l 1.913,3.087 l -4.292,0.916 Z" fill="#546170" ts:gender="neutral,male"/>
	<path d="M 13.95,29.6 l -3.863,-0.825 l 1.721,-2.778 h 2.142 v 3.6 Z M 22.05,29.6 v -3.6 h 2.142 l 1.721,2.778 l -3.863,0.825 Z" fill="#546170" ts:gender="female"/>
	
	<path d="M 15.42,36 h -2.83 l -4.382,-7.667 l 2.912,0.924 l 1.745,-2.204 l 2.555,8.947 Z M 20.58,36 l 2.555,-8.947 l 1.744,2.204 l 2.913,-0.924 l -4.382,7.667 h -2.83 Z" fill="#66757F" ts:gender="neutral,male"/>
	<path d="M 16.078,36 h -2.406 l -4.485,-7.9 l 2.621,0.831 l 1.571,-1.983 l 2.699,9.052 Z M 19.922,36 l 2.7,-9.052 l 1.57,1.983 l 2.621,-0.831 l -4.485,7.9 h -2.406 Z" fill="#66757F" ts:gender="female"/>
	<!-- neck -->
	<path d="M14.5 26c1 1.982 2.792 2 3.5 2s2.512-.049 3.5-2v-3.591h-7V26z" ts:skin="skin" ts:gender="female"/>
	<path d="M14 26 l4 1.75 4-1.75v-4h-8z" ts:skin="skin" ts:gender="neutral,male"/>
	
	<path d="M14 24c1.216 1.374 2.355 1.719 3.996 1.719 1.639 0 2.787-.346 4.004-1.719v-4h-8v4z" ts:skin="dark" ts:gender="neutral,male"/>
	<path d="M14.5 24.054c.975 1.102 2.185 1.4 3.499 1.4 1.315 0 2.526-.298 3.501-1.4v-1.051h-7v1.051z" ts:skin="dark" ts:gender="female"/>
	<!-- head -->
	<use href="defs.svg#face_neutral" x="25.413" y="11.466" ts:skin="skin" ts:gender="neutral"/>
	<use href="defs.svg#face_male" x="18" y="14.959" ts:skin="skin" ts:gender="male"/>
	<use href="defs.svg#face_female" x="9.793" y="14.627" ts:skin="skin" ts:gender="female"/>
	<!-- hair -->
	<use href="defs.svg#hair_male1" x="18" y="1.48" ts:skin="hair" ts:gender="male"/>
	<use href="defs.svg#hair_front_female" x="18.004" y="3.979" ts:skin="hair" ts:gender="female"/>
	<use href="defs.svg#ears_female" x="18.058" y="14.8445" ts:skin="skin" ts:gender="female"/>
	<!-- eyes -->
	<use href="defs.svg#eyes_neutral" x="17.8745" y="14.1345" ts:skin="eyes2" ts:gender="neutral"/>
	<use href="defs.svg#eyes_male" x="18" y="13.5" ts:skin="eyes2" ts:gender="male"/>
	<use href="defs.svg#eyes_female" x="18.04975" y="15.527" ts:skin="eyes2" ts:gender="female"/>
	<!-- nose -->
	<use href="defs.svg#nose_neutral" x="17.874" y="18.423" ts:skin="nose" ts:gender="neutral"/>
	<use href="defs.svg#nose_male" x="18.0" y="17.0" ts:skin="nose" ts:gender="male"/>
	<use href="defs.svg#nose_female" x="18.0505" y="18.909" ts:skin="nose" ts:gender="female"/>
	<!-- mouth -->
	<use href="defs.svg#mouth_neutral" x="18" y="22.88" ts:skin="mouth" ts:gender="neutral"/>
	<use href="defs.svg#mouth_neutral" x="18" y="21.802" ts:skin="mouth" ts:gender="male"/>
	<use href="defs.svg#mouth_female" x="18.004" y="22.452" ts:skin="mouth" ts:gender="female"/>
	<!-- shirt -->
	<path d="M 20.805,36 h -5.61 l -2.862,-10 l 5.667,1.637 l 5.667,-1.637 l -2.862,10 Z" fill="#DFE7EC" ts:gender="neutral,male"/>
	<path d="M 20.145,36 h -4.29 l -3.011,-10 l 5.156,0.966 l 5.156,-0.966 l -3.011,10 Z" fill="#DFE7EC" ts:gender="female"/>
	<!-- collar -->
	<path d="M13.927 24.744L18 27.637l-2.656 2.818-3.011-4.472z M22.073,24.744 L18 27.637l2.656 2.818 3.011-4.472z" fill="#F4F7F9" ts:gender="neutral,male"/>
	<path d="M14.294 24.872L18 26.966l-2.417 2.564-2.74-3.53z M21.706,24.872 L18 26.966l2.417 2.564 2.74-3.53z" fill="#F4F7F9" ts:gender="female"/>
	<!-- bowtie -->
	<path d="M21.045 26.653c-.072-.043-.159-.043-.231-.003L18 28.197l-2.814-1.547c-.072-.04-.159-.039-.231.003-.071.042-.115.119-.115.201v3.218c0 .082.044.159.115.201.037.021.078.032.119.032.039 0 .077-.01.112-.029L18 28.728l2.814 1.548c.035.02.073.029.112.029.041 0 .082-.011.119-.032.07-.042.114-.119.114-.201v-3.218c0-.082-.044-.159-.114-.201z" fill="#292F33" ts:gender="neutral,male"/>
	<path d="M20.781 26.053c-.072-.043-.159-.043-.231-.003l-2.551 1.402-2.551-1.402c-.072-.04-.159-.039-.231.003-.071.042-.115.119-.115.201v2.928c0 .082.044.159.115.201.037.021.078.032.119.032.039 0 .077-.01.112-.029l2.551-1.402 2.551 1.402c.035.02.073.029.112.029.041 0 .082-.011.119-.032.07-.042.114-.119.114-.201v-2.928c.001-.082-.043-.159-.114-.201z" fill="#292F33" ts:gender="female"/>
	<!-- buttons -->
	<circle cx="18" cy="31.847" fill="#292F33" r=".7" ts:gender="neutral,male"/>
	<circle cx="18" cy="34.704" fill="#292F33" r=".7" ts:gender="neutral,male"/>
	<circle cx="18" cy="30.796" fill="#292F33" r=".625" ts:gender="female"/>
	<circle cx="18" cy="33.396" fill="#292F33" r=".625" ts:gender="female"/>
	<path d="M 17.375,36 a .625,.625 0 01 1.25,0 z" fill="#292F33" ts:gender="female"/>
</svg>
