<svg viewBox="0 0 36 36" xmlns="http://www.w3.org/2000/svg" xmlns:ts="data:,a">
	<!-- back hair -->
	<path d="M21.906 1.262c-2.02-.654-6.772-.475-7.96 1.069-3.089.059-6.713 2.851-7.188 6.535-.47 3.645.578 5.338.951 8.079.422 3.106 2.168 4.099 3.564 4.515C13.281 24.114 15.415 24 19 24c7 0 10.334-4.684 10.629-12.639.178-4.812-2.645-8.456-7.723-10.099z" fill="#FFAC33" ts:skin="#292F33|#FFE51E|#963B22|#60352A|#0B0200" ts:gender="neutral"/>
	<path d="M19 0c-1.721 0-3.343.406-4.793 1.111C13.814 1.043 13.412 1 13 1 9.134 1 6 4.134 6 8v12h.018C6.201 26.467 11.489 31.656 18 31.656S29.799 26.467 29.982 20H30v-9c0-6.075-4.925-11-11-11z" fill="#FFAC33" ts:skin="#292F33|#FFE51E|#963B22|#60352A|#0B0200" ts:gender="female"/>
	<!-- head (male) -->
	<path d="M21 25.477c3.493-1.237 6-4.56 6-8.477v-.433c.96-.051 1.729-1.304 1.729-2.852 0-1.548-.769-2.801-1.729-2.852V7H9v3.863c-.96.051-1.729 1.304-1.729 2.852 0 1.548.77 2.801 1.729 2.852V17c0 3.917 2.507 7.24 6 8.477V27h6v-1.523z" fill="#FFDC5D" ts:skin="#F6DDCD|#F2D1A1|#D4AB88|#AE7E57|#7C543E" ts:gender="male"/>
	<path d="M18 .823c-7.019 0-10.139 4.684-10.139 8.588 0 3.903 1.343 4.986 1.56 3.903.78-3.903 3.12-5.101 3.12-5.101 4.68 3.904 3.9.781 3.9.781 4.679 4.684 2.34 0 2.34 0 1.56 1.562 6.239 1.562 6.239 1.562s.78 1.198 1.559 2.759c.78 1.562 1.56 0 1.56-3.903 0-3.905-3.9-8.589-10.139-8.589z" fill="#FFAC33" ts:skin="#292F33|#FFE51E|#963B22|#60352A|#0B0200" ts:gender="male"/>
	<!-- body/arms -->
	<path d="M32 6.625L29 5l-2 1.625s3 7.25 3 11.125S26.5 27 26.5 27h-17S6 21.625 6 17.75 9 6.625 9 6.625L7 5 4 6.625S0 13.75 0 17.75 5.5 36 5.5 36h25S36 21.75 36 17.75 32 6.625 32 6.625z" fill="#FA743E" ts:gender="neutral"/>
	<path d="M32 6.625L29 5l-2 1.625s3 7.25 3 11.125-3.999 9.249-4 9.25H10c-.001-.001-4-5.375-4-9.25S9 6.625 9 6.625L7 5 4 6.625S0 13.75 0 17.75 5 36 5 36h26s5-14.25 5-18.25-4-11.125-4-11.125z" fill="#4289C1" ts:gender="male"/>
	<path d="M32 6.625L29 5l-2 1.625s3 7.25 3 11.125S27 27 27 27H9s-3-5.375-3-9.25S9 6.625 9 6.625L7 5 4 6.625S0 13.75 0 17.75 6 36 6 36h24s6-14.25 6-18.25-4-11.125-4-11.125z" fill="#9268CA" ts:gender="female"/>
	<!-- head -->
	<path d="M15 22v6c0 1.657 1.343 3 3 3s3-1.343 3-3v-6h-6z " fill="#FFDC5D" ts:skin="#F7DECE|#F3D2A2|#D4AB88|#AF7E57|#7C533E" ts:gender="neutral"/>
	<path d="M25.909 11.701c-.677-.938-1.545-1.693-3.446-1.96.713.327 1.396 1.455 1.485 2.079.089.624.178 1.129-.386.505-2.26-2.499-4.722-1.515-7.162-3.041-1.704-1.066-2.223-2.246-2.223-2.246s-.208 1.574-2.792 3.178c-.749.465-1.643 1.5-2.139 3.03C8.889 14.345 9 15.325 9 17c0 4.889 4.029 9 9 9s9-4.147 9-9c0-3.041-.319-4.229-1.091-5.299z" fill="#FFDC5D" ts:skin="#F7DECE|#F3D2A2|#D4AB88|#AF7E57|#7C533E" ts:gender="neutral"/>
	<path d="M18 31c1.657 0 3-1.343 3-3v-2h-6v2c0 1.657 1.343 3 3 3z " fill="#FFDC5D" ts:skin="#F6DDCD|#F2D1A1|#D4AB88|#AE7E57|#7C543E" ts:gender="male"/>
	<path d="M14 5s-.003 5.308-5 5.936V17c0 3.917 2.507 7.24 6 8.477V28c0 1.657 1.343 3 3 3s3-1.343 3-3v-2.523c3.493-1.237 6-4.56 6-8.477v-5.019C15.89 11.605 14 5 14 5z" fill="#FFDC5D" ts:skin="#F6DDCD|#F2D1A1|#D4AB88|#AE7E57|#7C543E" ts:gender="female"/>
	<!-- hands -->
	<path d="M19.240,2.396 c.042-.521.593-.727 1.146-.708 0 0 5.456.311 7.521 1.271C30.522 4.174 32 6.625 32 6.625h-5S25.917 5.104 25.062 4.5c-.881-.623-4.222-1.215-4.719-1.312s-1.145-.271-1.103-.792z M16.760,2.396 c-.042-.521-.593-.727-1.146-.708 0 0-5.456.311-7.521 1.271C5.478 4.174 4 6.625 4 6.625h5s1.083-1.521 1.938-2.125c.881-.623 4.222-1.215 4.719-1.312.496-.098 1.145-.271 1.103-.792z" fill="#FFDC5D" ts:skin="#F7DECE|#F3D2A2|#D4AB88|#AF7E57|#7C533E"/>
	<!-- eyes -->
	<path d="M14 16c-.552 0-1-.448-1-1v-1c0-.552.448-1 1-1s1 .448 1 1v1c0 .552-.448 1-1 1z M22,16 c-.552 0-1-.448-1-1v-1c0-.552.448-1 1-1s1 .448 1 1v1c0 .552-.448 1-1 1z" fill="#662113" ts:skin="#662113|#662113|#662113|#662113|#000000"/>
	<!-- nose -->
	<path d="M19,19.5 h-2c-.276 0-.5-.224-.5-.5s.224-.5.5-.5h2c.276 0 .5.224.5.5s-.224.5-.5.5z" fill="#C1694F" ts:skin="#C1694F|#C1694F|#C1694F|#915A34|#3D2E24"/>
	<!-- mouth -->
	<path d="M22 21h-8s1 2 4 2 4-2 4-2z " fill="#C1694F" ts:skin="#C1694F|#C1694F|#C1694F|#915A34|#3D2E24" ts:gender="neutral,female" ts:gender-color="|#DF1F32"/>
	<path d="M14 22h8s-1 2-4 2-4-2-4-2z " fill="#C1694F" ts:skin="#C1694F|#C1694F|#C1694F|#915A34|#3D2E24" ts:gender="male"/>
</svg>
