<svg viewBox="0 0 36 36" xmlns="http://www.w3.org/2000/svg" xmlns:ts="data:,a">
	<!-- back hair -->
	<path d="M23.111 2.081c-2.638-.853-8.844-.621-10.395 1.396-4.034.078-8.766 3.724-9.387 8.534-.614 4.76.754 6.971 1.241 10.551.552 4.056 2.832 5.353 4.655 5.896 2.623 3.465 5.411 3.317 10.092 3.317 9.141 0 13.495-6.116 13.88-16.505.232-6.284-3.454-11.043-10.086-13.189z" fill="#FFAC33" ts:skin="hair" ts:gender="neutral"/>
	<!--<use href="defs.svg#hair_neutral" transform="translate(23.111 2.081) scale(1.37)" fill="#FFAC33" ts:skin="hair" ts:gender="neutral"/>-->
	<path d="M18 3c6 0 16 3 16 16s0 16-3 16-7-3-13-3-9.915 3-13 3c-3.343 0-3-12-3-16C2 6 12 3 18 3z" fill="#FFAC33" ts:skin="hair" ts:gender="female"/>
	<!-- face -->
	<path d="M28.339 15.713c-.884-1.225-2.017-2.211-4.499-2.56.931.427 1.823 1.901 1.939 2.715.116.815.233 1.474-.504.659-2.952-3.263-6.167-1.978-9.354-3.972-2.226-1.392-2.903-2.933-2.903-2.933s-.272 2.056-3.646 4.15c-.978.607-2.145 1.959-2.793 3.956-.465 1.435-.321 2.715-.321 4.903 0 6.385 5.262 11.753 11.753 11.753s11.753-5.415 11.753-11.753c0-3.97-.416-5.521-1.425-6.918z" fill="#FFDC5D" ts:skin="skin" ts:gender="neutral"/>
	<ellipse cx="5.5" cy="19" rx="2.5" ry="4" fill="#FFDC5D" ts:skin="skin" ts:gender="male"/><ellipse cx="30.5" cy="19" rx="2.5" ry="4" fill="#FFDC5D" ts:skin="skin" ts:gender="male"/>
	<ellipse cx="18" cy="20.562" rx="13" ry="15.438" fill="#FFDC5D" ts:skin="skin" ts:gender="male"/>
	<ellipse cx="18" cy="18.562" rx="12" ry="15.438" fill="#FFDC5D" ts:skin="skin" ts:gender="female"/>
	<!-- hair -->
	<path d="M18 0c8.615 0 14 6.358 14 11.656 0 5.298-1.077 7.417-2.154 5.298l-2.153-4.238s-6.462 0-8.615-2.12c0 0 3.23 6.358-3.231 0 0 0 1.077 4.239-5.385-1.06 0 0-3.23 2.12-4.308 7.417C5.855 18.423 4 16.954 4 11.656 4 6.357 8.308 0 18 0z" fill="#FFAC33" ts:skin="hair" ts:gender="male"/>
	<path d="M3.064 24c-.03-.325-.064-.647-.064-1 0-5 3 .562 3-3 0-3.563 2-4 4-6l3-3s5 3 9 3 8 2 8 6 3-2 3 3c0 .355-.033.673-.058 1h1.049C34 22.523 34 20.868 34 19 34 6 24 1 18 1S2 6 2 19c0 1.158-.028 2.986.012 5h1.052z" fill="#FFAC33" ts:skin="hair" ts:gender="female"/>
	<!-- moustache -->
	<path d="M25.274 27.038l-3.294-.941c.003-.034.02-.063.02-.097 0-.553-.447-1-1-1h-6c-.552 0-1 .447-1 1 0 .034.016.063.019.097l-3.294.941c-.531.152-.838.706-.686 1.236.125.44.525.726.961.726.091 0 .184-.013.275-.038l1.931-.552c-.216.293-.274.688-.1 1.037.175.351.528.553.895.553.15 0 .303-.034.446-.105l1.577-.788c.036.326.213.631.529.788.143.071.296.105.446.105.367 0 .72-.202.896-.553l.105-.211.105.211c.176.351.529.553.896.553.15 0 .303-.034.446-.105.315-.157.493-.462.529-.788l1.576.788c.144.071.297.105.447.105.367 0 .72-.202.896-.553.174-.349.116-.744-.1-1.037l1.931.552c.091.025.183.038.275.038.434 0 .835-.286.961-.726.151-.53-.156-1.084-.688-1.236z" fill="#FFAC33" ts:skin="hair" ts:gender="male"/>
	<!-- eyes -->
	<rect x="12" y="18" width="2" height="4" rx="1" fill="#662113" ts:skin="eyes2" ts:gender="neutral,female"/><rect x="22" y="18" width="2" height="4" rx="1" fill="#662113" ts:skin="eyes2" ts:gender="neutral,female"/>
	<rect x="12" y="16" width="2" height="4" rx="1" fill="#662113" ts:skin="eyes" ts:gender="male"/><rect x="22" y="16" width="2" height="4" rx="1" fill="#662113" ts:skin="eyes" ts:gender="male"/>
	<!-- nose -->
	<rect x="16" y="24" width="4" height="2" rx="1" fill="#C1694F" ts:skin="nose" ts:gender="neutral"/>
	<rect x="16" y="23" width="4" height="2" rx="1" fill="#C1694F" ts:skin="nose" ts:gender="female"/>
	<rect x="16" y="22" width="4" height="2" rx="1" fill="#C1694F" ts:skin="nose" ts:gender="male"/>
	<!-- mouth -->
	<path d="M18 31c-2.347 0-3.575-1.16-3.707-1.293-.391-.391-.391-1.023 0-1.414.387-.387 1.013-.39 1.404-.01.051.047.806.717 2.303.717 1.519 0 2.273-.69 2.305-.719.398-.373 1.027-.362 1.408.029.379.393.38 1.011-.006 1.397C21.575 29.84 20.347 31 18 31z " fill="#C1694F" ts:skin="nose" ts:gender="neutral"/>
	<path d="M18 30c-2.347 0-3.575-1.16-3.707-1.293-.391-.391-.391-1.023 0-1.414.387-.387 1.013-.39 1.404-.01.051.047.806.717 2.303.717 1.519 0 2.273-.69 2.305-.719.398-.373 1.027-.362 1.408.029.379.393.38 1.011-.006 1.397C21.575 28.84 20.347 30 18 30z" fill="#DF1F32" ts:gender="female"/>
</svg>
