<svg viewBox="0 0 36 36" xmlns="http://www.w3.org/2000/svg">
	<!-- back hair -->
	<path d="M16.906 1.262c-2.02-.654-6.772-.475-7.96 1.069-3.09.06-6.713 2.852-7.189 6.535-.47 3.645.578 5.338.951 8.079.422 3.106 2.168 4.099 3.564 4.515C8.281 24.114 10.415 24 14 24c7 0 10.334-4.684 10.629-12.639.178-4.812-2.645-8.456-7.723-10.099z" fill="#FFAC33" data-skin="#292F33|#FFE51E|#963B22|#60352A|#0B0200" data-gender="neutral"/>
	<path d="M14 0c-1.721 0-3.343.406-4.793 1.111C8.814 1.043 8.412 1 8 1 4.134 1 1 4.134 1 8v12h.018C1.201 26.467 6.489 31.656 13 31.656c6.511 0 11.799-5.189 11.982-11.656H25v-9c0-6.075-4.925-11-11-11z" fill="#FFAC33" data-skin="#292F33|#FFE51E|#963B22|#60352A|#0B0200" data-gender="female"/>
	<!-- body -->
	<path d="M22 27H4c-2.209 0-4 1.791-4 4v5h26v-5c0-2.209-1.791-4-4-4z" fill="#FA743E" data-gender-color="#4289C1|#9268CA"/>
	<!-- arm -->
	<path d="M29 36h-7l1-17h6z" fill="#FA743E" data-gender-color="#4289C1|#9268CA"/>
	<path d="M4 32h1v4H4z M21 32h1v4h-1z" fill="#DD551F" data-gender-color="#2A6797|#7450A8"/>
	<!-- hand -->
	<path d="M31.541 15.443c-.144-.693-.822-1.139-1.517-.997L27.35 15H25c-1.104 0-2 .896-2 2v2h5c1.079 0 1.953-.857 1.992-1.927l.355-.073H31c0-.074-.028-.144-.045-.216.444-.276.698-.799.586-1.341z" fill="#F9CA55" data-skin="#EEC2AD|#E2C196|#CC9B7A|#9B6A49|#664131"/>
	<path d="M36 16c0-.552-.447-1-1-1l-6 1h-5c-.553 0-1 .448-1 1v2h6l6-2s1-.447 1-1z" fill="#FFDC5D" data-skin="#F7DECE|#F3D2A2|#D4AB88|#AF7E57|#7C533E"/>
	<!-- neck -->
	<path d="M10 22v6c0 1.657 1.343 3 3 3s3-1.343 3-3v-6h-6z" fill="#FFDC5D" data-skin="#F7DECE|#F3D2A2|#D4AB88|#AF7E57|#7C533E"/>
	<!-- head -->
	<path d="M20.909 11.701c-.677-.938-1.545-1.693-3.446-1.96.713.327 1.396 1.455 1.485 2.079.089.624.178 1.129-.386.505-2.26-2.499-4.722-1.515-7.162-3.041-1.704-1.067-2.223-2.246-2.223-2.246s-.208 1.574-2.792 3.178c-.749.465-1.643 1.5-2.139 3.03C3.889 14.345 4 15.325 4 17c0 4.889 4.029 9 9 9s9-4.147 9-9c0-3.041-.319-4.229-1.091-5.299z" fill="#FFDC5D" data-skin="#F7DECE|#F3D2A2|#D4AB88|#AF7E57|#7C533E" data-gender="neutral"/>
	<path d="M5.847 13.715c0 1.58-.801 2.861-1.788 2.861s-1.788-1.281-1.788-2.861c0-1.58.801-2.861 1.788-2.861s1.788 1.281 1.788 2.861z M23.72900000,13.71500000 c0 1.58-.8 2.861-1.788 2.861s-1.788-1.281-1.788-2.861c0-1.58.8-2.861 1.788-2.861s1.788 1.281 1.788 2.861z" fill="#FFDC5D" data-skin="#F7DECE|#F3D2A2|#D5AB88|#AF7E57|#7C533E" data-gender="male"/>
	<path d="M4 5.938V17c0 4.971 4.029 9 9 9s9-4.029 9-9V6.25L4 5.938z" fill="#FFDC5D" data-skin="#F7DECE|#F3D2A2|#D5AB88|#AF7E57|#7C533E" data-gender="male"/>
	<path d="M9 5s-.003 5.308-5 5.936V17c0 4.971 4.029 9 9 9s9-4.029 9-9v-5.019C10.89 11.605 9 5 9 5z" fill="#FFDC5D" data-skin="#F7DECE|#F3D2A2|#D5AB88|#AF7E57|#7C533E" data-gender="female"/>
	<!-- hair -->
	<path d="M13 .823C5.981.823 2.861 5.507 2.861 9.411c0 3.903 1.343 4.986 1.56 3.903.78-3.903 3.12-5.101 3.12-5.101 4.68 3.904 3.9.781 3.9.781 4.679 4.684 2.34 0 2.34 0 1.56 1.562 6.239 1.562 6.239 1.562s.78 1.198 1.559 2.759c.78 1.562 1.56 0 1.56-3.903 0-3.905-3.9-8.589-10.139-8.589z" fill="#FFAC33" data-skin="#292F33|#FFE51E|#963B22|#60352A|#0B0200" data-gender="male"/>
	<!-- eyes -->
	<path d="M9 16c-.552 0-1-.448-1-1v-1c0-.552.448-1 1-1s1 .448 1 1v1c0 .552-.448 1-1 1z M17,16 c-.552 0-1-.448-1-1v-1c0-.552.448-1 1-1s1 .448 1 1v1c0 .552-.448 1-1 1z" fill="#662113" data-skin="#662113|#662113|#662113|#662113|#000000"/>
	<!-- nose -->
	<path d="M14 19.5h-2c-.276 0-.5-.224-.5-.5s.224-.5.5-.5h2c.276 0 .5.224.5.5s-.224.5-.5.5z" fill="#C1694F" data-skin="#C1694F|#C1694F|#C1694F|#915A34|#3D2E24"/>
	<!-- mouth -->
	<path d="M17 22H9s1 2 4 2 4-2 4-2z" fill="#C1694F" data-skin="#C1694F|#C1694F|#C1694F|#915A34|#3D2E24" data-gender="neutral,male"/>
	<path d="M17 22H9s1 2 4 2 4-2 4-2z" fill="#DF1F32" data-gender="female"/>
</svg>
