<svg viewBox="0 0 36 36" xmlns="http://www.w3.org/2000/svg" xmlns:ts="data:,a">
	<!-- head -->
	<path d="M20.665 6.478c2.634-3.094-3.711-2.792-3.711-2.792-1.201.044-.374 2.044-.939 3.137-.388.756 1.244 1.157 1.244 1.157s.749-.011.789.897v.008c.009.231-.015.506-.123.873-.538 1.819 1.905 2.934 2.442 1.111.212-.721.13-1.355.022-1.941l-.01-.052c-.163-.87-.365-1.633.286-2.398z" fill="#FFDC5D" ts:skin="#F7DECE,#F3D2A2,#D4AB88,#AF7E57,#7C533E" ts:gender="neutral"/>
	<path d="M20.347 6.648c2.691-3.161-3.791-2.853-3.791-2.853-1.227.045-.383 2.089-.96 3.205-.396.772 1.271 1.182 1.271 1.182s.765-.011.806.917v.008c.009.236-.016.517-.126.892-.549 1.858 1.946 2.997 2.494 1.135.217-.737.133-1.385.023-1.983l-.01-.053c-.166-.889-.372-1.668.293-2.45z" fill="#FFDC5D" ts:skin="#F7DECE,#F3D2A2,#D4AB88,#AF7E57,#7C533E" ts:gender="male"/>
	<path d="M20.963 6.335c2.567-3.016-3.617-2.722-3.617-2.722-1.17.042-.365 1.993-.916 3.057-.378.737 1.212 1.128 1.212 1.128s.73-.011.769.875v.008c.009.225-.015.493-.12.851-.524 1.772 1.857 2.859 2.38 1.083.207-.703.127-1.321.022-1.892l-.009-.051c-.159-.847-.356-1.591.279-2.337z" fill="#FFDC5D" ts:skin="#F7DECE,#F3D2A2,#D4AB88,#AF7E57,#7C533E" ts:gender="female"/>
	<path d="M19.321 1.07c-1.81-.712-4.528.226-4.96 2.322-.602 2.925 1.069 5.402 2.914 5.203 1.934-.209 3.121-.638 3.905-2.629.783-1.992-.049-4.184-1.859-4.896z" fill="#FFDC5D" ts:skin="#F7DECE,#F3D2A2,#D4AB88,#AF7E57,#7C533E" ts:gender="neutral"/>
	<path d="M18.973 1.123c-1.849-.728-4.732.211-5.067 2.372-.333 2.145.278 5.51 2.162 5.306 1.976-.213 4.003-.643 4.803-2.677.802-2.034-.048-4.273-1.898-5.001z" fill="#FFDC5D" ts:skin="#F7DECE,#F3D2A2,#D4AB88,#AF7E57,#7C533E" ts:gender="male"/>
	<path d="M19.652 1.065c-1.764-.694-4.514.202-4.834 2.263-.317 2.047.265 5.257 2.063 5.063 1.885-.204 3.819-.613 4.582-2.554.764-1.942-.047-4.078-1.811-4.772z" fill="#FFDC5D" ts:skin="#F7DECE,#F3D2A2,#D4AB88,#AF7E57,#7C533E" ts:gender="female"/>
	<!-- hair -->
	<path d="M21.598 1.697c-.893-1.208-3.89-2.275-5.792-.746-1.317-.228-1.822 1.024-1.71 1.745.089.575 1.504.724 1.859 1.817.246-.274.312-.835.259-1.135.45.433.254 1.573 2.025 2.317 1.712.719 1.41 2.232 1.41 2.232s.902-.426 1.53-1.153c1.198-1.388 1.403-3.745.419-5.077z" fill="#FFAC33" ts:skin="#292F33,#FFE51E,#963B22,#60352A,#0B0200" ts:gender="neutral"/>
	<path d="M21.086 1.869C19.855.428 18.091-.338 15.26.951c-1.153.525-1.67.331-1.834.561-.788 1.106.286 2.333.706 2.088 1.332-.777 2.534-.546 2.841.016.307.562.024 1.571.272 1.578.671.018.562-.64.828-1.019.435-.62 1.098-.269 1.243.42.115.546 0 1.475-.893 1.639.607 1.336 1.81 1.744 1.81 1.744s.391.154 1.059-1.162c.668-1.316 1.017-3.516-.206-4.947z" fill="#FFAC33" ts:skin="#292F33,#FFE51E,#963B22,#60352A,#0B0200" ts:gender="male"/>
	<path d="M21.668 1.776C20.493.401 18.877-.17 16.11.9c-2.417.934-1.64 2.856-1.077 2.528 1.552-.905 2.582-.132 3.372 1.131.23-.62 1.242-1.001 1.447-.094.23 1.02-.717 1.464-.59 1.742.042.093-.048-.084 0 0 .606 1.063 1.591 1.397 1.591 1.397s.373.147 1.01-1.109c.638-1.255.971-3.354-.195-4.719z" fill="#FFAC33" ts:skin="#292F33,#FFE51E,#963B22,#60352A,#0B0200" ts:gender="female"/>
	<path d="M21.032 3.222c2.395.517 1.412 4.251 1.647 5.625.289 1.692 1.95 1.752 1.95 1.752s-.275-1.178-.129-2.41c.203-1.709 1.317-3.088.141-4.757-1.501-2.131-5.098-.531-3.609-.21z" fill="#FFAC33" ts:skin="#292F33,#FFE51E,#963B22,#60352A,#0B0200" ts:gender="female"/>
	<!-- shirt -->
	<path d="M23.663 22.44c-.135.623-7.64 1.303-7.64 1.303.213-1.705.181-6.037-.002-9.094-.193-3.24 3.126-6.232 4.223-5.976 2.132.499 3.601 2.809 3.331 6.23-.388 4.917.151 7.245.088 7.537z" fill="#FA743E" ts:gender="neutral"/>
	<path d="M23.563 21.568c-.048.956.379 2.392-.173 2.198-2.174-.763-7.786-.837-7.786-.837-.482-2.173-.032-5.437.006-8.437.05-3.936 2.667-6.094 4.306-5.601 2.142.645 3.126 2.87 3.403 6.364.278 3.495.292 5.357.244 6.313z" fill="#77B255" ts:gender="male"/>
	<path d="M23.519 20.125c0 1.605.25 2.331.32 3.029.039.388-1.112-.255-1.978-.367-2.249-.289-5.165-1.089-5.165-1.089-.46-2.215.356-3.139-.372-6.109-.939-3.832 2.664-7.612 4.228-7.11 2.044.657 3.247 2.527 3.246 6.099-.001 2.473-.279 3.943-.279 5.547z" fill="#9268CA" ts:gender="female"/>
	<!-- shoes -->
	<path d="M25.935 32.82l1.062-1.377c.354-.458 1.05-.442 1.382.032.363.518 1.507 1.698 3.203 2.312.264.096.724.291-.165 1.082 0 0-1.048.797-5.627-.453" fill="#292F33" ts:gender="neutral,male"/>
	<path d="M25.941 32.817l1.063-1.378c.354-.459 1.051-.443 1.383.032.363.518 1.508 1.7 3.206 2.314.264.096.725.291-.165 1.083 0 0-1.049.797-5.632-.453" fill="#292F33" ts:gender="female"/>
	<path d="M8.498 36h5.005c.241 0 .436-.195.436-.436v-.412c0-.452-.138-.894-.396-1.266l-.383-.553h-1.933l-1.89.522c-.769.213-1.295.922-1.275 1.72.006.236.199.425.436.425z" fill="#292F33" ts:gender="neutral,male"/>
	<path d="M8.486 36h5.01c.241 0 .437-.195.437-.437v-.413c0-.453-.138-.895-.396-1.267l-.384-.553h-1.935l-1.892.523c-.77.213-1.296.923-1.276 1.722.006.236.2.425.436.425z" fill="#292F33" ts:gender="female"/>
	<!-- pants -->
	<path d="M17.337 25.683l-.311 7.133s-.156 2.994 3.033 2.936l6.844-.836s.505-1.75-.35-2.508l-4.933-.591c-.137-.016-.228-.149-.194-.282l1.579-5.122c.201-.652.548-2.06.603-2.735.034-.414-.195-.091-.185-.51l-6.397 1.838.311.677z" fill="#2A6797" ts:gender="neutral,male"/>
	<path d="M17.334 25.673l-.311 7.139s-.156 2.997 3.036 2.939l6.85-.837s.506-1.751-.35-2.51l-4.938-.592c-.137-.016-.228-.149-.194-.283l1.581-5.127c.201-.653.548-2.062.603-2.737.034-.415-.196-.091-.185-.51l-6.403 1.84.311.678z" fill="#2A6797" ts:gender="female"/>
	<path d="M19.208 21.379c-1.871-.051-7.328.63-7.328.63-2.677.629-2.034 4.537-2.034 4.537l.524 6.91s1.668.953 3.05 0l.929-6.91 4.066.048s6.825 1.359 5.158-5.252c0 .001-3.984.048-4.365.037z" fill="#4289C1" ts:gender="neutral,male"/>
	<path d="M19.207 21.365c-1.873-.051-7.335.631-7.335.631-2.68.63-2.036 4.541-2.036 4.541l.525 6.917s1.67.954 3.053 0l.93-6.917 4.07.048s6.832 1.36 5.163-5.257c0 0-3.989.047-4.37.037z" fill="#4289C1" ts:gender="female"/>
	<!-- arm -->
	<path d="M18.404 13.635c-.366 1.931-.497 5.314-.798 5.455-1.738.816-3.258 1.323-4.399 1.723-.827.29-1.652.456-2.008.77-.569.502-1.246.93-1.305 1.439-.059.517.535.703 1.573.268.762-.32 1.36-.276 2.041-.77.97-.703 4.838-.108 6.3-2.272.494-.73 1.018-2.438 1.72-6.013-.904-.372-3.124-.6-3.124-.6z" fill="#FFDC5D" ts:skin="#F7DECE,#F3D2A2,#D4AB88,#AF7E57,#7C533E" ts:gender="neutral"/>
	<path d="M17.683 13.919c-.374 1.973-.192 5.151-.5 5.295-1.776.833-4.337 1.001-5.502 1.41-.844.296-.825.466-1.188.786-.581.513-1.273.95-1.333 1.47-.061.528.547.718 1.607.273.779-.326 1.389-.282 2.085-.786.991-.718 5.126.558 6.62-1.653.504-.746 1.04-2.491 1.757-6.143-.924-.378-3.546-.652-3.546-.652z" fill="#FFDC5D" ts:skin="#F7DECE,#F3D2A2,#D4AB88,#AF7E57,#7C533E" ts:gender="male"/>
	<path d="M18.587 13.062c-.282 1.934-.185 5.121-.478 5.274-1.692.884-4.111 2.144-5.227 2.59-.809.323-1.622.524-1.961.85-.544.523-1.199.977-1.235 1.485-.037.516.562.675 1.574.199.743-.35 1.339-.332 1.995-.851.934-.739 5.782-.697 7.143-2.909.459-.747.764-2.806 1.31-6.387-.917-.331-3.121-.251-3.121-.251z" fill="#FFDC5D" ts:skin="#F7DECE,#F3D2A2,#D4AB88,#AF7E57,#7C533E" ts:gender="female"/>
</svg>
