<svg viewBox="0 0 36 36" xmlns="http://www.w3.org/2000/svg" xmlns:ts="data:,a">
	<!-- back hair -->
	<path d="M22.986.637C20.408-.197 14.34.03 12.823 2.002c-3.944.076-8.57 3.64-9.177 8.343-.6 4.654.738 6.815 1.214 10.315.539 3.965 2.768 5.233 4.551 5.764 2.564 3.387 5.29 3.242 9.866 3.242 8.937 0 13.193-5.98 13.569-16.136.227-6.143-3.377-10.795-9.86-12.893z" ts:skin="hair" ts:gender="neutral"/>
	<path d="M18 3c6 0 16 3 16 16s0 16-3 16-7-3-13-3-9.915 3-13 3c-3.343 0-3-12-3-16C2 6 12 3 18 3z" ts:skin="hair" ts:gender="female"/>
	<!-- face -->
	<path d="M28.097 13.964c-.865-1.197-1.972-2.161-4.399-2.503.91.417 1.782 1.858 1.896 2.654.114.796.228 1.441-.493.645-2.886-3.19-6.03-1.934-9.145-3.883-2.176-1.361-2.838-2.867-2.838-2.867s-.265 2.01-3.565 4.058c-.956.594-2.097 1.916-2.73 3.868-.455 1.403-.314 2.655-.314 4.793 0 6.242 5.144 11.49 11.49 11.49s11.49-5.294 11.49-11.49c.001-3.883-.406-5.399-1.392-6.765z" ts:skin="skin" ts:gender="neutral"/>
	<ellipse cx="5.5" cy="19" rx="2.5" ry="4" ts:skin="skin" ts:gender="male"/><ellipse cx="30.5" cy="19" rx="2.5" ry="4" ts:skin="skin" ts:gender="male"/>
	<ellipse cx="18" cy="20.562" rx="13" ry="15.438" ts:skin="skin" ts:gender="male"/>
	<ellipse cx="18" cy="18.562" rx="12" ry="15.438" ts:skin="skin" ts:gender="female"/>
	<!-- shadow -->
	<path d="M28.257 26.577c-.005-.013 0 0 0-.013L25 27.5H11l-3.257-.936c0 .013.005.001 0 .013-.474 1.289 1.266 3.473 1.266 3.473.728 1.936 1.499 2.431 2.455 3.091l1.658-.483h9.756l1.658.483c.956-.66 1.727-1.155 2.455-3.091 0 0 1.741-2.184 1.266-3.473z" fill="#EF9645" ts:skin="#0B0200,#F9CA55,#7F331C,#4D2B22,#212629" ts:gender="female"/> <!-- color ?? -->
	<!-- hair -->
	<path d="M18 0c8.615 0 14 6.358 14 11.656 0 5.298-1.077 7.417-2.154 5.298l-2.153-4.238s-6.462 0-8.615-2.12c0 0 3.23 6.358-3.231 0 0 0 1.077 4.239-5.385-1.06 0 0-3.23 2.12-4.308 7.417C5.855 18.423 4 16.954 4 11.656 4 6.357 8.308 0 18 0z" ts:skin="hair" ts:gender="male"/>
	<path d="M3.064 24c-.03-.325-.064-.647-.064-1 0-5 3 .562 3-3 0-3.563 2-4 4-6l3-3s5 3 9 3 8 2 8 6 3-2 3 3c0 .355-.033.673-.058 1h1.049C34 22.523 34 20.868 34 19 34 6 24 1 18 1S2 6 2 19c0 1.158-.028 2.986.012 5h1.052z" ts:skin="hair" ts:gender="female"/>
	<!-- beard -->
	<path d="M27.375 24.174c-1.042 1.1-3.125 3.3-5.208 2.2-2.946-1.556-4.167-1.1-4.167-1.1s-1.221-.455-4.167 1.1c-2.083 1.1-4.167-1.1-5.208-2.2-.737-.778-3.125-2.2-3.125 0 0 3.3 2.083 5.5 2.083 5.5 2.083 5.5 6.25 5.5 6.25 5.5 1.042 1.1 7.292 1.1 8.333 0 0 0 4.167 0 6.25-5.5 0 0 2.083-2.2 2.083-5.5.001-2.2-2.388-.777-3.124 0z" ts:skin="hair" ts:gender="neutral,male"/>
	<path d="M25.875 24.767c-.875.931-2.625 2.793-4.375 1.862-2.475-1.316-3.5-.931-3.5-.931s-1.025-.385-3.5.931c-1.75.931-3.5-.931-4.375-1.862-.619-.658-2.625-1.862-2.625 0 0 2.792 1.75 4.654 1.75 4.654 1.75 4.654 5.25 4.654 5.25 4.654.875.931 6.125.931 7 0 0 0 3.5 0 5.25-4.654 0 0 1.75-1.862 1.75-4.654 0-1.862-2.006-.658-2.625 0z" ts:skin="hair" ts:gender="female"/>
	<path d="M18 29.675c-4.167 0-7.292-2.2 0-2.2s4.167 2.2 0 2.2z" ts:skin="skin" ts:gender="neutral,male"/>
	<path d="M18 29.65c-3.368 0-5.893-1.784 0-1.784s3.368 1.784 0 1.784z" ts:skin="skin" ts:gender="female"/>
	<!-- eyes -->
	<rect x="11.616" y="15.622" width="2.554" height="3.831" rx="1.277" ts:skin="eyes2" ts:gender="neutral"/><rect x="21.829" y="15.622" width="2.554" height="3.831" rx="1.277" ts:skin="eyes2" ts:gender="neutral"/>
	<use href="defs.svg#eyes_big" x="18" y="18" ts:skin="eyes2" ts:gender="male"/>
<use href="defs.svg#eyes_big" x="18" y="20" ts:skin="eyes2" ts:gender="female"/>
	<!-- nose -->
	<rect x="16.085" y="22.645" width="3.829" height="1.276" rx="0.638" ts:skin="nose" ts:gender="neutral"/> <!-- 3:1 -->
	<use href="defs.svg#nose_big" x="18" y="23" ts:skin="nose" ts:gender="male"/>
	<use href="defs.svg#nose_big" x="18" y="24" ts:skin="nose" ts:gender="female"/>
</svg>
