<svg viewBox="0 0 36 36" xmlns="http://www.w3.org/2000/svg" xmlns:ts="data:,a">
	<!-- back hair -->
	<use href="defs.svg#hair_neutral" transform="translate(20.591 5.419) scale(.8655)" ts:skin="hair" ts:gender="neutral"/>
	<use href="defs.svg#hair_back_female" transform="translate(17.455 6.546) scale(.911)" ts:skin="hair" ts:gender="female"/>
	<!-- body -->
	<path d="M26 26.163l.017.836H6V36h24v-9.835z" fill="#FA743E" ts:gender-color="#77B255,#9266CC"/>
	<path d="M10 30h1v6h-1z M25,27 h1v9h-1z" fill="#DD551F" ts:gender-color="#5C913B,#744EAA"/>
	<!-- neck -->
	<path d="M13.862 26.999s.85 2.063 3.55 2.063 3.45-2.063 3.45-2.063l-.024-3.9-6.976-.1v4z" ts:skin="skin" ts:gender="neutral"/>
	<path d="M14 26.999s.85 2.063 3.55 2.063S21 26.999 21 26.999l-.024-3.9-6.976-.1v4z" ts:skin="skin" ts:gender="male,female"/>
	<path d="M13.881 25.029c1.058 1.207 2.049 1.51 3.477 1.51 1.426 0 2.426-.304 3.485-1.51v-3.515h-6.961v3.515z" ts:skin="dark" ts:gender="neutral"/>
	<path d="M14.019 25.029c1.058 1.207 2.049 1.51 3.477 1.51 1.426 0 2.426-.304 3.485-1.51v-3.515H14.02v3.515z" ts:skin="dark" ts:gender="male"/>
	<path d="M14.019 24.686c1.058 1.207 2.049 1.51 3.477 1.51 1.426 0 2.426-.304 3.485-1.51v-2.5H14.02v2.5z" ts:skin="dark" ts:gender="female"/>
	<!-- hands -->
	<path d="M3.43 27.236c.11-.538.633-.884 1.168-.774l2.058.431h1.808c.85 0 1.539.695 1.539 1.555V30H6.155c-.83 0-1.503-.666-1.532-1.496l-.273-.057h-.503c0-.059.022-.113.036-.169-.343-.215-.538-.621-.453-1.042z" ts:skin="dark"/>
	<path d="M32.646 23.488c-.111-.538-.634-.884-1.169-.774l-2.057.431h-1.809c-.85 0-1.538.695-1.538 1.555v1.552h3.847c.83 0 1.503-.666 1.532-1.496l.273-.057h.503c0-.059-.022-.113-.035-.169.342-.215.537-.621.453-1.042z" ts:skin="dark"/>
	<path d="M0 27.669c0-.429.344-.776.769-.776l4.617.776h3.847c.425 0 .769.349.769.778V30H5.386L.769 28.447S0 28.099 0 27.669z" ts:skin="skin"/>
	<path d="M36.075 23.921c0-.429-.344-.776-.77-.776l-4.616.776h-3.847c-.426 0-.77.349-.77.778L26 26.25l1.611.002h3.078l4.616-1.553c.001 0 .77-.348.77-.778z" ts:skin="skin"/>
	<!-- head -->
	<path d="M23.894 14.031c-.559-.774-1.274-1.397-2.843-1.617.588.27 1.152 1.201 1.225 1.715.074.515.147.931-.319.417-1.865-2.062-3.896-1.25-5.909-2.509-1.406-.88-1.834-1.853-1.834-1.853s-.172 1.299-2.303 2.622c-.618.384-1.355 1.238-1.764 2.499-.294.907-.203 1.715-.203 3.097 0 4.034 3.324 7.425 7.425 7.425s7.425-3.421 7.425-7.425c0-2.508-.263-3.489-.9-4.371z" ts:skin="skin" ts:gender="neutral"/>
	<ellipse cx="10.416" cy="16.1865" rx="1.426" ry="2.3045" ts:skin="skin" ts:gender="male"/><ellipse cx="24.676" cy="16.1865" rx="1.426" ry="2.3045" ts:skin="skin" ts:gender="male"/>
	<ellipse cx="17.546" cy="17.087" rx="7.416" ry="8.893" ts:skin="skin" ts:gender="male"/>
	<path d="M9.972 16.249c0-5.316 3.35-9.625 7.482-9.625 4.13 0 7.48 4.309 7.48 9.625 0 5.313-3.35 9.37-7.48 9.37-4.132-.001-7.482-4.057-7.482-9.37" ts:skin="skin" ts:gender="female"/>
	<!-- hair -->
	<use href="defs.svg#hair_male" transform="translate(17.546 5.243) scale(.87 .879)" ts:skin="hair" ts:gender="male"/>
	<use href="defs.svg#hair_front_female" transform="translate(17.455 6.546) scale(.911)" ts:skin="hair" ts:gender="female"/>
	<!-- eyes -->
	<rect x="13.244" y="15.103" width="1.65" height="2.475" rx="0.825" ts:skin="eyes2" ts:gender="neutral"/><rect x="19.844" y="15.103" width="1.65" height="2.475" rx="0.825" ts:skin="eyes2" ts:gender="neutral"/>
	<rect x="13.196" y="14.487" width="1.74" height="2.635" rx="0.87" ry="0.878" ts:skin="eyes" ts:gender="male"/><rect x="20.157" y="14.487" width="1.74" height="2.635" rx="0.87" ry="0.878" ts:skin="eyes" ts:gender="male"/> <!-- uneven -->
	<rect x="13.644" y="15.913" width="1.541" height="2.311" rx="0.77075" ts:skin="eyes" ts:gender="female"/><rect x="19.806" y="15.913" width="1.542" height="2.311" rx="0.771" ts:skin="eyes" ts:gender="female"/>
	<!-- nose -->
	<rect x="16.241" y="18.221" width="2.61" height="1.318" rx="0.652" ry="0.659" ts:skin="nose" ts:gender="male"/> <!-- uneven -->
	<rect x="16.341" y="19.691" width="2.311" height="0.915" rx="0.385" ry="0.388" ts:skin="nose" ts:gender="female"/> <!-- uneven -->
	<rect x="16.132" y="19.641" width="2.474" height="0.824" rx="0.412" ts:skin="nose" ts:gender="neutral"/>
	<!-- mouth -->
	<path d="M17.359 23.566c-2.396 0-3.132-.62-3.256-.745-.222-.225-.222-.59 0-.815.216-.218.562-.223.786-.02.045.032.627.428 2.47.428 1.915 0 2.466-.426 2.472-.431.223-.223.573-.213.796.014.223.225.21.6-.013.824-.123.125-.858.745-3.255.745 z" ts:skin="nose" ts:gender="neutral"/>
	<path d="M17.546 23.099c-2.396 0-3.132-.62-3.256-.745-.222-.225-.222-.59 0-.815.216-.218.562-.223.786-.019.045.032.627.428 2.47.428 1.914 0 2.466-.426 2.472-.431.223-.223.573-.213.796.014.223.225.21.6-.013.824-.122.124-.858.744-3.255.744" ts:skin="nose" ts:gender="male"/>
	<path d="M17.455 23.378c-1.464 0-2.229-.723-2.312-.807-.243-.244-.243-.639 0-.883.242-.238.631-.24.876-.004.032.029.502.447 1.436.447.946 0 1.417-.432 1.435-.449.25-.232.642-.226.877.018.237.246.237.631-.003.871-.08.084-.846.807-2.309.807" fill="#DF1F32" ts:gender="female"/>
	<!-- balls -->
	<path d="M5.895 14.205s-3.834 1.39-4.214 6.221c0 0-2.4-4.817-.522-10.149l4.736 3.928z M20.051,5.977 s-2.758-3.005-7.363-1.497c0 0 3.522-4.069 9.167-4.387l-1.804 5.884z M29.271,16.337 s1.972-3.571-.923-7.457c0 0 4.978 2.046 7.075 7.296l-6.152.161z" fill="#D1D3D4"/>
	<circle cx="4.603" cy="10.986" fill="#5C913B" r="3.5"/>
	<circle cx="22.516" cy="3.5" fill="#BE1931" r="3.5"/>
	<circle cx="32.396" cy="17.854" fill="#3B88C3" r="3.5"/>
</svg>
