<svg viewBox="0 0 36 36" xmlns="http://www.w3.org/2000/svg" xmlns:ts="data:,a">
	<!-- back hair -->
	<path d="M20.591 5.419c-1.666-.539-5.587-.392-6.567.882-2.548.049-5.538 2.352-5.93 5.391-.388 3.008.476 4.404.784 6.666.348 2.562 1.789 3.382 2.941 3.725 1.657 2.189 3.418 2.095 6.375 2.095 5.775 0 8.525-3.864 8.769-10.427.146-3.97-2.183-6.976-6.372-8.332z" fill="#FFAC33" ts:skin="#292F33|#FFE51E|#963B22|#60352A|#0B0200" ts:gender="neutral"/>
	<path d="M17.455 6.546c3.741 0 9.974 1.871 9.974 9.974 0 8.106 0 9.975-1.87 9.975s-4.363-1.869-8.104-1.869c-3.741 0-6.182 1.869-8.104 1.869-2.084 0-1.871-7.482-1.871-9.975-.001-8.103 6.233-9.974 9.975-9.974" fill="#FFAC33" ts:skin="#292F33|#FFE51E|#963B22|#60352A|#0B0200" ts:gender="female"/>
	<!-- body -->
	<path d="M26 26.163l.017.836H6V36h24v-9.835z" fill="#FA743E" ts:gender-color="#77B255|#9266CC"/>
	<path d="M10 30h1v6h-1z M25,27 h1v9h-1z" fill="#DD551F" ts:gender-color="#5C913B|#744EAA"/>
	<!-- neck -->
	<path d="M13.862 26.999s.85 2.063 3.55 2.063 3.45-2.063 3.45-2.063l-.024-3.9-6.976-.1v4z" fill="#FFDC5D" ts:skin="#F7DECE|#F3D2A2|#D4AB88|#AF7E57|#7C533E" ts:gender="neutral"/>
	<path d="M14 26.999s.85 2.063 3.55 2.063S21 26.999 21 26.999l-.024-3.9-6.976-.1v4z" fill="#FFDC5D" ts:skin="#F7DECE|#F3D2A2|#D5AB88|#AF7E57|#7C533E" ts:gender="male,female"/>
	<path d="M13.881 25.029c1.058 1.207 2.049 1.51 3.477 1.51 1.426 0 2.426-.304 3.485-1.51v-3.515h-6.961v3.515z" fill="#F9CA55" ts:skin="#EEC2AD|#E2C196|#CC9B7A|#9B6A49|#664131" ts:gender="neutral"/>
	<path d="M14.019 25.029c1.058 1.207 2.049 1.51 3.477 1.51 1.426 0 2.426-.304 3.485-1.51v-3.515H14.02v3.515z" fill="#F9CA55" ts:skin="#EEC2AD|#E2C196|#CC9B7A|#9B6A49|#664131" ts:gender="male"/>
	<path d="M14.019 24.686c1.058 1.207 2.049 1.51 3.477 1.51 1.426 0 2.426-.304 3.485-1.51v-2.5H14.02v2.5z" fill="#F9CA55" ts:skin="#EEC2AD|#E2C196|#CC9B7A|#9B6A49|#664131" ts:gender="female"/>
	<!-- hands -->
	<path d="M3.43 27.236c.11-.538.633-.884 1.168-.774l2.058.431h1.808c.85 0 1.539.695 1.539 1.555V30H6.155c-.83 0-1.503-.666-1.532-1.496l-.273-.057h-.503c0-.059.022-.113.036-.169-.343-.215-.538-.621-.453-1.042z" fill="#F9CA55" ts:skin="#EEC2AD|#E2C196|#CC9B7A|#9B6A49|#664131"/>
	<path d="M32.646 23.488c-.111-.538-.634-.884-1.169-.774l-2.057.431h-1.809c-.85 0-1.538.695-1.538 1.555v1.552h3.847c.83 0 1.503-.666 1.532-1.496l.273-.057h.503c0-.059-.022-.113-.035-.169.342-.215.537-.621.453-1.042z" fill="#F9CA55" ts:skin="#EEC2AD|#E2C196|#CC9B7A|#9B6A49|#664131"/>
	<path d="M0 27.669c0-.429.344-.776.769-.776l4.617.776h3.847c.425 0 .769.349.769.778V30H5.386L.769 28.447S0 28.099 0 27.669z" fill="#FFDC5D" ts:skin="#F7DECE|#F3D2A2|#D4AB88|#AF7E57|#7C533E"/>
	<path d="M36.075 23.921c0-.429-.344-.776-.77-.776l-4.616.776h-3.847c-.426 0-.77.349-.77.778L26 26.25l1.611.002h3.078l4.616-1.553c.001 0 .77-.348.77-.778z" fill="#FFDC5D" ts:skin="#F7DECE|#F3D2A2|#D4AB88|#AF7E57|#7C533E"/>
	<!-- head -->
	<path d="M23.894 14.031c-.559-.774-1.274-1.397-2.843-1.617.588.27 1.152 1.201 1.225 1.715.074.515.147.931-.319.417-1.865-2.062-3.896-1.25-5.909-2.509-1.406-.88-1.834-1.853-1.834-1.853s-.172 1.299-2.303 2.622c-.618.384-1.355 1.238-1.764 2.499-.294.907-.203 1.715-.203 3.097 0 4.034 3.324 7.425 7.425 7.425s7.425-3.421 7.425-7.425c0-2.508-.263-3.489-.9-4.371z" fill="#FFDC5D" ts:skin="#F7DECE|#F3D2A2|#D4AB88|#AF7E57|#7C533E" ts:gender="neutral"/>
	<path d="M11.842 16.187c0 1.271-.639 2.304-1.426 2.304-.788 0-1.426-1.033-1.426-2.304 0-1.272.639-2.305 1.426-2.305.788 0 1.426 1.033 1.426 2.305m14.26 0c0 1.271-.638 2.304-1.424 2.304-.789 0-1.428-1.033-1.428-2.304 0-1.272.639-2.305 1.428-2.305.786 0 1.424 1.033 1.424 2.305" fill="#FFDC5D" ts:skin="#F7DECE|#F3D2A2|#D5AB88|#AF7E57|#7C533E" ts:gender="male"/>
	<path d="M10.13 17.087c0-4.911 3.32-8.893 7.416-8.893 4.095 0 7.416 3.982 7.416 8.893 0 4.91-3.32 8.893-7.416 8.893-4.095-.001-7.416-3.983-7.416-8.893" fill="#FFDC5D" ts:skin="#F7DECE|#F3D2A2|#D5AB88|#AF7E57|#7C533E" ts:gender="male"/>
	<path d="M9.972 16.249c0-5.316 3.35-9.625 7.482-9.625 4.13 0 7.48 4.309 7.48 9.625 0 5.313-3.35 9.37-7.48 9.37-4.132-.001-7.482-4.057-7.482-9.37" fill="#FFDC5D" ts:skin="#F7DECE|#F3D2A2|#D5AB88|#AF7E57|#7C533E" ts:gender="female"/>
	<!-- hair -->
	<path d="M17.546 5.243c4.914 0 7.986 3.663 7.986 6.714 0 3.051-.614 4.273-1.229 3.051l-1.229-2.44s-3.686 0-4.915-1.223c0 0 1.845 3.663-1.843 0 0 0 .614 2.442-3.071-.609 0 0-1.843 1.221-2.457 4.272-.17.847-1.229 0-1.229-3.051.001-3.052 2.459-6.714 7.987-6.714" fill="#FFAC33" ts:skin="#292F33|#FFE51E|#963B22|#60352A|#0B0200" ts:gender="male"/>
	<path d="M8.142 19.239c-.019-.912-.04-.205-.04-.424 0-3.118 1.871.449 1.871-1.771 0-2.222 1.247-2.444 2.494-3.69.624-.625 1.87-1.847 1.87-1.847s3.117 1.883 5.612 1.883c2.491 0 4.987 1.253 4.987 3.747 0 2.492 1.87-1.442 1.87 1.674 0 .223-.021-.484-.037.428h.655c.005-1.822.005-1.753.005-2.918 0-8.104-6.233-11.122-9.975-11.122-3.74 0-9.974 2.967-9.974 11.072 0 .723-.019 1.146.007 2.968h.655z" fill="#FFAC33" ts:skin="#292F33|#FFE51E|#963B22|#60352A|#0B0200" ts:gender="female"/>
	<!-- eyes -->
	<path d="M14.069 17.578c-.456 0-.825-.369-.825-.825v-.825c0-.456.369-.825.825-.825.456 0 .825.369.825.825v.825c0 .455-.37.825-.825.825z M20.66900000,17.57800000 c-.456 0-.825-.369-.825-.825v-.825c0-.456.369-.825.825-.825.456 0 .825.369.825.825v.825c0 .455-.37.825-.825.825z" fill="#662113" ts:skin="#662113|#662113|#662113|#662113|#000000" ts:gender="neutral"/>
	<path d="M14.066 17.122c-.478 0-.87-.395-.87-.878v-.879c0-.483.392-.878.87-.878.479 0 .87.395.87.878v.879c0 .483-.392.878-.87.878m6.961 0c-.479 0-.87-.395-.87-.878v-.879c0-.483.392-.878.87-.878.477 0 .87.395.87.878v.879c0 .483-.393.878-.87.878" fill="#662113" ts:skin="#662113|#662113|#662113|#60352A|#000000" ts:gender="male"/>
	<path d="M14.414 18.224c-.423 0-.77-.346-.77-.771v-.769c0-.424.348-.771.77-.771.424 0 .771.347.771.771v.769c.001.425-.347.771-.771.771m6.163 0c-.424 0-.771-.346-.771-.771v-.769c0-.424.347-.771.771-.771.424 0 .771.347.771.771v.769c.001.425-.347.771-.771.771" fill="#662113" ts:skin="#662113|#662113|#662113|#60352A|#000000" ts:gender="female"/>
	<!-- nose, mouth -->
	<path d="M17.359 23.566c-2.396 0-3.132-.62-3.256-.745-.222-.225-.222-.59 0-.815.216-.218.562-.223.786-.02.045.032.627.428 2.47.428 1.915 0 2.466-.426 2.472-.431.223-.223.573-.213.796.014.223.225.21.6-.013.824-.123.125-.858.745-3.255.745m.835-3.101h-1.65c-.228 0-.412-.184-.412-.412 0-.228.184-.412.412-.412h1.65c.228 0 .412.184.412.412 0 .228-.184.412-.412.412z" fill="#C1694F" ts:skin="#C1694F|#C1694F|#C1694F|#915A34|#3D2E24" ts:gender="neutral"/>
	<path d="M18.199 19.539h-1.306c-.36 0-.652-.296-.652-.659 0-.362.293-.659.652-.659h1.306c.359 0 .652.297.652.659.001.363-.292.659-.652.659" fill="#C1694F" ts:skin="#C1694F|#C1694F|#C1694F|#915A34|#3D2E24" ts:gender="male"/>
	<path d="M18.267 20.606h-1.541c-.212 0-.385-.174-.385-.387v-.139c0-.215.173-.389.385-.389h1.541c.212 0 .385.174.385.389v.139c-.001.214-.173.387-.385.387" fill="#C1694F" ts:skin="#C1694F|#C1694F|#C1694F|#915A34|#3D2E24" ts:gender="female"/>
	<path d="M17.546 23.099c-2.396 0-3.132-.62-3.256-.745-.222-.225-.222-.59 0-.815.216-.218.562-.223.786-.019.045.032.627.428 2.47.428 1.914 0 2.466-.426 2.472-.431.223-.223.573-.213.796.014.223.225.21.6-.013.824-.122.124-.858.744-3.255.744" fill="#C1694F" ts:skin="#C1694F|#C1694F|#C1694F|#915A34|#3D2E24" ts:gender="male"/>
	<path d="M17.455 23.378c-1.464 0-2.229-.723-2.312-.807-.243-.244-.243-.639 0-.883.242-.238.631-.24.876-.004.032.029.502.447 1.436.447.946 0 1.417-.432 1.435-.449.25-.232.642-.226.877.018.237.246.237.631-.003.871-.08.084-.846.807-2.309.807" fill="#DF1F32" ts:gender="female"/>
	<!-- balls -->
	<path d="M5.895 14.205s-3.834 1.39-4.214 6.221c0 0-2.4-4.817-.522-10.149l4.736 3.928z M20.05100000,5.97700000 s-2.758-3.005-7.363-1.497c0 0 3.522-4.069 9.167-4.387l-1.804 5.884z M29.27100000,16.33700000 s1.972-3.571-.923-7.457c0 0 4.978 2.046 7.075 7.296l-6.152.161z" fill="#D1D3D4"/>
	<circle cx="4.603" cy="10.986" fill="#5C913B" r="3.5"/>
	<circle cx="22.516" cy="3.5" fill="#BE1931" r="3.5"/>
	<circle cx="32.396" cy="17.854" fill="#3B88C3" r="3.5"/>
</svg>
