<svg viewBox="0 0 36 36" xmlns="http://www.w3.org/2000/svg" xmlns:ts="data:,a">
	<!-- no shared layers -->
	<!-- back hair -->
	<path d="M21.906 3.262c-2.02-.653-6.772-.475-7.96 1.069-3.089.059-6.713 2.851-7.188 6.535-.47 3.645.578 5.338.951 8.079.422 3.106 2.168 4.099 3.564 4.515C13.28 26.114 15.415 26 19 26c7 0 10.334-4.684 10.629-12.639.178-4.811-2.645-8.456-7.723-10.099z" fill="#FFAC33" ts:skin="hair" ts:gender="neutral"/>
	<!-- body -->
	<path d="M31.99 36v-2c0-3.314-3.685-6-7-6h-14c-3.313 0-7 2.686-7 6v2h28z" fill="#FA743E" ts:gender="neutral"/>
	<path d="M31.99 36v-2c0-3.314-2.685-6-6-6h-16c-3.313 0-6 2.686-6 6v2h28z" fill="#77B255" ts:gender="male"/>
	<path d="M31 36v-3.5c0-3.314-3.685-5.5-7-5.5H12c-3.313 0-7 2.186-7 5.5V36h26z" fill="#9266CC" ts:gender="female"/>
	<path d="M13.123 36c5.274-4.852 10.596-7.402 14.013-7.888-.371-.072-.754-.112-1.146-.112h-3.607c-3.719 1.618-7.837 4.462-11.434 8h2.174z" fill="#5C913B" ts:gender="male"/>
	<path d="M14.221 31.274C14.756 33.168 16.258 34.5 18 34.5s3.244-1.332 3.779-3.226C23.788 30.425 25 28.938 25 27.25c0-.061-.01-.121-.014-.181-.33-.042-.66-.069-.986-.069H12c-.326 0-.656.027-.986.069-.004.06-.014.12-.014.181 0 1.688 1.212 3.175 3.221 4.024z" fill="#744EAA" ts:gender="female"/>
	<!-- neck -->
	<path d="M15 24v4c0 1.657 1.343 3 3 3s3-1.343 3-3v-4h-6z" fill="#FFDC5D" ts:skin="skin" ts:gender="neutral"/>
	<path d="M13.63 28.101c1.744 1.268 2.848 1.963 4.36 1.963 1.512 0 2.615-.696 4.359-1.963V24.29h-8.72v3.811z " fill="#FFDC5D" ts:skin="skin" ts:gender="male"/>
	<path d="M23.479 27H21.66v-3.185h-7.32V27h-1.818c-.011.083-.021.166-.021.25 0 1.27 1.235 2.366 3.031 2.901C15.685 31.755 16.726 33 18 33s2.315-1.245 2.469-2.849c1.796-.535 3.031-1.632 3.031-2.901 0-.084-.011-.167-.021-.25z" fill="#FFDC5D" ts:skin="skin" ts:gender="female"/>
	<path d="M24.99 28h-2.607c-3.719 1.618-7.837 4.462-11.434 8h2.174c5.032-4.63 10.088-7.141 13.512-7.785-.547-.136-1.101-.215-1.645-.215z" fill="#DD551F" ts:gender="neutral"/>
	<path d="M14.519 26.997c1.058 1.207 2.049 1.51 3.477 1.51 1.426 0 2.426-.304 3.485-1.51v-3.515H14.52v3.515z" fill="#F9CA55" ts:skin="dark" ts:gender="neutral"/>
	<path d="M14.321 25.179c1.023 1.155 2.291 1.468 3.669 1.468 1.379 0 2.647-.312 3.67-1.468v-2.936h-7.339v2.936z" fill="#F9CA55" ts:skin="dark" ts:gender="female"/>
	<path d="M26.697 15.571c-.248-1.197-.888-3.323-2.333-5.057S20.132 6.2 16.375 7.253s-4.397 4.768-3.22 5.966c.787.8 6.069-.092 9.516 1.445 2.037.907 4.026.907 4.026.907z" fill="#FFDC5D" ts:skin="skin" ts:gender="neutral"/>
	<!-- face -->
	<path d="M25.909 13.701c-.677-.938-1.544-1.693-3.445-1.96.713.327 1.396 1.455 1.485 2.079.089.624.178 1.129-.386.505-2.261-2.499-4.723-1.515-7.163-3.041-1.704-1.066-2.223-2.246-2.223-2.246s-.208 1.574-2.792 3.178c-.749.465-1.643 1.5-2.139 3.03C8.889 16.345 9 17.325 9 19c0 4.889 4.029 9 9 9s9-4.147 9-9c0-3.041-.319-4.229-1.091-5.299z" fill="#FFDC5D" ts:skin="skin" ts:gender="neutral"/>
	<use href="defs.svg#face_male" x="18" y="16.959" fill="#FFDC5D" ts:skin="skin" ts:gender="male"/>
	<use href="defs.svg#face_female" x="9.734" y="15.717" fill="#FFDC5D" ts:skin="skin" ts:gender="female"/>
	<use href="defs.svg#ears_female" x="18" y="15.9355" fill="#FFDC5D" ts:skin="skin" ts:gender="female"/>
	<!-- beard (has hole) -->
	<path d="M24.308 20.273c-.704.789-2.115 2.366-3.526 1.577-1.993-1.114-2.82-.788-2.82-.788s-.826-.326-2.82.788c-1.41.789-2.82-.788-3.525-1.577-.498-.557-2.115-1.576-2.115 0 0 2.366 1.41 3.943 1.41 3.943 1.411 3.941 4.23 3.941 4.23 3.941.706.789 4.936.789 5.641 0 0 0 2.822 0 4.23-3.941 0 0 1.411-1.577 1.411-3.943-.001-1.576-1.618-.556-2.116 0 Z M18 23.881c-3 0-5-1.381 0-1.381s3 1.381 0 1.381z" fill="#FFAC33" ts:skin="hair" ts:gender="male"/>
	<!-- eyes -->
	<rect x="13" y="15" width="2" height="3" rx="1" fill="#662113" ts:skin="eyes2" ts:gender="neutral"/><rect x="21" y="15" width="2" height="3" rx="1" fill="#662113" ts:skin="eyes2" ts:gender="neutral"/>
	<rect x="12.99" y="14" width="2" height="3" rx="1" fill="#662113" ts:skin="eyes" ts:gender="male"/><rect x="20.99" y="14" width="2" height="3" rx="1" fill="#662113" ts:skin="eyes" ts:gender="male"/>
	<rect x="13.762" y="15.349" width="1.693" height="2.537" rx="0.8465" ry="0.846" fill="#662113" ts:skin="eyes" ts:gender="female"/><rect x="20.527" y="15.349" width="1.692" height="2.537" rx="0.846" fill="#662113" ts:skin="eyes" ts:gender="female"/>
	<!-- nose -->
	<rect x="16.5" y="20.5" width="3" height="1" rx="0.5" fill="#C1694F" ts:skin="nose" ts:gender="neutral"/> <!-- diff -->
	<use href="defs.svg#nose_male" x="16.49" y="18.25" fill="#C1694F" ts:skin="nose" ts:gender="male"/>
	<use href="defs.svg#nose_female" x="16.723" y="19.5" ry="0.4235" fill="#C1694F" ts:skin="nose" ts:gender="female"/>
	<!-- mouth -->
	<path d="M22 24h-8s1 2 4 2 4-2 4-2z " fill="#C1694F" ts:skin="nose" ts:gender="neutral"/> <!-- old shape -->
	<use href="defs.svg#mouth_female" x="17.944" y="23.543" fill="#DF1F32" ts:gender="female"/>
	<!-- turban -->
	<path d="M18.295 9.73s9.543 2.516 11.006 7.046c.638-1.383 1.008-4.409 1.008-6.118 0-5.197-4.005-8.962-10.512-8.962h-3.003c-5.506 0-10.512 3.765-10.512 8.962 0 1.708.37 4.96 1.007 6.342 1.463-4.532 11.006-7.27 11.006-7.27z" fill="#E6E7E8" ts:gender="neutral"/>
	<path d="M18 9.934s7.149 1.858 8.245 5.204c.478-1.021.755-3.257.755-4.518C27 6.781 24 4 19.125 4h-2.25C12.75 4 9 6.781 9 10.62c0 1.262.277 3.664.754 4.684C10.851 11.957 18 9.934 18 9.934z" fill="#E6E7E8" ts:gender="male"/>
	<path d="M18 9.729s6.752 1.756 7.787 4.916c.451-.965.713-3.138.713-4.33C26.5 6.688 23.5 4 19.062 4h-2.125C13.042 4 9.5 6.688 9.5 10.314c0 1.192.262 3.491.712 4.455C11.248 11.608 18 9.729 18 9.729z" fill="#E6E7E8" ts:gender="female"/>
	<!-- turban lines -->
	<path d="M6.437 12.948c2.679-1.943 11.569-7.771 21.813-7.852-.579-.677-1.257-1.281-2.015-1.796-8.951.674-16.605 5.197-19.946 7.475.013.616.061 1.371.148 2.173z M6.53200000,8.51400000 C9.839 6.366 16.13 3.25 23.125 2.016c-1.061-.319-2.182-.319-3.328-.319h-2.355C13.805 3.13 10.564 4.21 8.068 5.605c-.715.918-1.247 1.779-1.536 2.909z M26.636 9.045c.919-.123 1.836-.207 2.749-.207.271 0 .508-.123.679-.311-.137-.535-.329-1.05-.568-1.542-.038-.005-.072-.022-.111-.022-3.784 0-7.613.961-11.383 2.854.186-.057.294-.087.294-.087s1.088.287 2.585.84c.87-.351 1.741-.631 2.612-.876.02.008.034.025.055.032 2.224.752 4.652 2.241 6.505 3.959.112-.787.188-1.578.226-2.274-1.127-.912-2.374-1.708-3.643-2.366z" fill="#D1D3D4" ts:gender="neutral"/>
	<path d="M9.117 12.311c2.007-1.436 8.667-5.74 16.341-5.8-.434-.5-.941-.946-1.51-1.327-6.706.498-12.44 3.839-14.943 5.521.01.456.046 1.014.112 1.606z M9.18800000,9.03600000 c2.477-1.586 7.19-3.888 12.431-4.8C20.823 4 19.983 4 19.125 4H17.36c-2.725 1.059-5.152 1.857-7.022 2.887-.536.678-.934 1.314-1.15 2.149z M24.248 9.428c.688-.091 1.376-.153 2.06-.153.203 0 .381-.091.509-.229-.102-.395-.246-.775-.426-1.139-.028-.004-.054-.016-.083-.016-2.835 0-5.703.71-8.528 2.108.139-.043.22-.065.22-.065s.815.212 1.937.621c.652-.259 1.304-.466 1.957-.647.015.006.025.018.041.024 1.666.555 3.485 1.655 4.873 2.924.084-.582.141-1.166.169-1.68-.844-.674-1.778-1.262-2.729-1.748z" fill="#D1D3D4" ts:gender="male"/>
	<path d="M9.61 11.973c1.895-1.354 8.186-5.421 15.433-5.477-.41-.473-.89-.894-1.426-1.253-6.334.471-11.749 3.626-14.113 5.215.01.43.044.957.106 1.515z M9.67700000,8.88000000 c2.339-1.498 6.791-3.734 11.74-4.596C20.666 4.062 19.873 4 19.062 4h-1.667c-2.572 1-4.866 1.815-6.632 2.788-.505.641-.882 1.304-1.086 2.092z M23.901 9.251c.65-.086 1.299-.145 1.945-.145.192 0 .36-.086.48-.217-.097-.374-.232-.732-.401-1.075-.027-.004-.051-.016-.079-.016-2.677 0-5.386.671-8.054 1.991l.208-.06s.771.201 1.829.587c.615-.245 1.232-.44 1.848-.612.014.006.024.017.039.022 1.573.524 3.292 1.564 4.603 2.761.079-.548.133-1.101.159-1.586-.797-.636-1.679-1.191-2.577-1.65z" fill="#D1D3D4" ts:gender="female"/>
</svg>
