<svg viewBox="0 0 36 36" xmlns="http://www.w3.org/2000/svg" xmlns:ts="data:,a">
	<!-- body -->
	<path d="M32 36v-2c0-3.314-2.685-6-6-6H10c-3.313 0-6 2.686-6 6v2h28z" fill="#E1E8ED" ts:gender="neutral,male"/>
	<path d="M31 36v-3.5c0-3.314-3.685-5.5-7-5.5H12c-3.313 0-7 2.186-7 5.5V36h26z" fill="#E1E8ED" ts:gender="female"/>
	<!-- hat back -->
	<ellipse cx="18" cy="7.5" rx="12" ry="7.5" fill="#292F33"/>
	<!-- back hair -->
	<path d="M17.696 5.37c-1.925-.623.39-.581-.743.891-2.944.057-7.957 2.309-9.03 4.545-1.069 2.228-.215 4.871.14 7.484.403 2.96 2.067 3.907 3.397 4.303 1.914 2.529 3.949 2.421 7.366 2.421 6.672 0 9.85-4.464 10.131-12.047.171-4.587-6.42-6.031-11.261-7.597z" fill="#FFAC33" ts:skin="hair" ts:gender="neutral"/> <!-- cursed.. -->
	<use href="defs.svg#hair_back_female" x="17.944" y="5.069" fill="#FFAC33" ts:skin="hair" ts:gender="female"/>
	<!-- neck -->
	<path d="M13.64 28.101c1.744 1.268 2.848 1.963 4.36 1.963 1.512 0 2.616-.696 4.36-1.963V24.29h-8.72v3.811z" fill="#FFDC5D" ts:skin="skin" ts:gender="neutral,male"/>
	<path d="M14.328 27.02C15.794 28.085 17.292 29 18 29s2.194-.915 3.66-1.98v-3.205h-7.332v3.205z" fill="#FFDC5D" ts:skin="skin" ts:gender="female"/>
	<path d="M13.632 25.973c1.216 1.374 2.724 1.746 4.364 1.746 1.639 0 3.147-.373 4.364-1.746v-3.491h-8.728v3.491z" fill="#F9CA55" ts:skin="dark" ts:gender="neutral,male"/>
	<path d="M14.321 25.179c1.023 1.155 2.291 1.468 3.669 1.468 1.379 0 2.647-.312 3.67-1.468v-2.936h-7.339v2.936z" fill="#F9CA55" ts:skin="dark" ts:gender="female"/>
	<!-- face -->
	<use href="defs.svg#face_neutral" x="25.413" y="13.291" fill="#FFDC5D" ts:skin="skin" ts:gender="neutral"/>
	<use href="defs.svg#face_male" x="18" y="16.959" fill="#FFDC5D" ts:skin="skin" ts:gender="male"/>
	<use href="defs.svg#face_female" x="9.734" y="15.717" fill="#FFDC5D" ts:skin="skin" ts:gender="female"/>
	<!-- hair -->
	<use href="defs.svg#hair_male" x="18" y="3.48" fill="#FFAC33" ts:skin="hair" ts:gender="male"/>
	<use href="defs.svg#hair_front_female" x="17.944" y="5.069" fill="#FFAC33" ts:skin="hair" ts:gender="female"/>
	<!-- eyes -->
	<rect x="13.109" y="14.529" width="1.906" height="2.859" rx="0.953" fill="#662113" ts:skin="eyes2" ts:gender="neutral"/><rect x="20.734" y="14.529" width="1.906" height="2.859" rx="0.953" fill="#662113" ts:skin="eyes2" ts:gender="neutral"/>
	<rect x="13" y="14" width="2" height="3" rx="1" fill="#662113" ts:skin="eyes" ts:gender="male"/><rect x="21" y="14" width="2" height="3" rx="1" fill="#662113" ts:skin="eyes" ts:gender="male"/>
	<rect x="13.762" y="15.349" width="1.692" height="2.537" rx="0.846" fill="#662113" ts:skin="eyes" ts:gender="female"/><rect x="20.527" y="15.349" width="1.692" height="2.537" rx="0.846" fill="#662113" ts:skin="eyes" ts:gender="female"/>
	<!-- nose -->
	<rect x="16.444" y="19.77" width="2.86" height="0.954" rx="0.477" fill="#C1694F" ts:skin="nose" ts:gender="neutral"/>
	<rect x="16.5" y="18.25" width="3" height="1.5" rx="0.75" fill="#C1694F" ts:skin="nose" ts:gender="male"/>
	<rect x="16.723" y="19.5" width="2.537" height="1" rx="0.423" ry="0.4235" fill="#C1694F" ts:skin="nose" ts:gender="female"/>
	<!-- mouth -->
	<use href="defs.svg#mouth_neutral" x="18" y="24.704" fill="#C1694F" ts:skin="nose" ts:gender="neutral"/>
	<use href="defs.svg#mouth_neutral" x="18" y="23.802" fill="#C1694F" ts:skin="nose" ts:gender="male"/>
	<use href="defs.svg#mouth_female" x="17.944" y="23.543" fill="#DF1F32" ts:gender="female"/>
	<!-- tie -->
	<path d="M18.001 30.878s3.381 2.494 4.093 2.778c.156.063-.366-3.656-.366-3.656h-7.454s-.524 3.781-.232 3.625c.639-.343 3.959-2.747 3.959-2.747" fill="#99AAB5"/>
	<path d="M19.312 33.438s.375-.625.531-.906c.183-.329.453-1.57.453-1.57L18.108 30c0-.007-.16.006-.16.006l-.184.042-.172.062c-.218.07.094.008.094.015l-1.974.837s.287 1.241.47 1.57c.156.281.528.906.528.906s-.753.562-1.035 2.563h4.668c-.281-1.595-1.031-2.563-1.031-2.563" fill="#292F33"/>
	<path d="M11.578 29.056l-5.926.938c-.272.043-.529-.144-.572-.416l-.157-.988c-.043-.271.144-.528.416-.571l5.926-.938c.272-.043.529.145.572.415l.157.988c.043.271-.144.528-.416.572" fill="#292F33"/>
	<path d="M30.348 29.994l-5.926-.939c-.272-.043-.459-.3-.416-.572l.157-.986c.043-.272.3-.459.572-.416l5.926.938c.271.043.459.3.416.572l-.157.987c-.043.272-.3.459-.572.416" fill="#292F33"/>
	<!-- hat details -->
	<ellipse cx="18" cy="9" rx="9.5" ry="2" fill="#292F33"/>
	<path d="M27.5 8h-19V4.554S12.458 1 18 1s9.5 3.554 9.5 3.554V8z" fill="#66757F"/>
	<path d="M15 5c0-2.792 1.343-1 3-1s3-1.792 3 1c0 1.657-1.343 2-3 2s-3-.343-3-2" fill="#FFAC33"/>
	<circle cx="18" cy="5" r="2" fill="#FDCB58"/>
	<rect x="8" y="8" width="20" height="1" rx="0.5" fill="#FDCB58"/>
	<!-- stripes -->
	<path d="M5.834 27.94l.989-.157.312 1.974-.989.157z M7.807,27.627 l.987-.156.313 1.975-.988.157z M9.785,27.314 l.988-.155.31 1.976-.988.155z" fill="#FDCB58"/>
	<path d="M24.916 29.135l.312-1.975.988.156-.313 1.975z M26.892,29.447 l.31-1.976.989.155-.31 1.976z M28.867,29.762 l.312-1.976.99.156-.313 1.976z" fill="#FDCB58"/>
	<!-- collar -->
	<path d="M13.292 26.625c.566.566 4.709 3.383 4.709 3.383s-2.126 1.242-4.084 3.534c-.197.23-1.542-4.625-1.583-5.709-.012-.303.687-1.479.958-1.208m9.438 0c-.566.566-4.709 3.383-4.709 3.383s2.126 1.242 4.084 3.534c.196.23 1.542-4.625 1.583-5.709.012-.303-.687-1.479-.958-1.208" fill="#F5F8FA"/>
	<!-- tie -->
	<path d="M18.016 30.688c.39-.022 1.543.771 1.422 1.25-.461 1.827-.849 1.391-1.391 1.391-.611 0-.964.473-1.39-1.312-.094-.388.797-1.298 1.359-1.329" fill="#323A3F"/>
	<path d="M20.047 36h-4.024s.542-2.167 2.019-2.167S20.047 36 20.047 36" fill="#323A3F"/>
</svg>
