<svg viewBox="0 0 36 36" xmlns="http://www.w3.org/2000/svg" xmlns:ts="data:,a">
	<!-- body -->
	<path d="M32 36.001V35c0-4-3.685-7-7-7H11c-3.313 0-7 3-7 7v1.001h28z" fill="#2A6797" ts:gender="neutral"/>
	<path d="M32 36v-2c0-3.314-2.685-6-6-6H10c-3.313 0-6 2.686-6 6v2h28z" fill="#2A6797" ts:gender="male"/>
	<path d="M30.941 36v-3.5c0-3.314-3.686-5.5-7-5.5h-12c-3.313 0-7 2.186-7 5.5V36h26z" fill="#2A6797" ts:gender="female"/>
	<!-- hat back -->
	<ellipse cx="18.003" cy="7.501" fill="#2A6797" rx="12" ry="7.5"/>
	<!-- back hair -->
	<path d="M9.002 8.5c-.372.702-1.092 1.47-1.193 2.288-.425 3.448.522 5.05.86 7.643.382 2.938 1.961 3.878 3.224 4.271 1.816 2.51 3.747 2.402 6.989 2.402 6.331 0 9.088-4.491 9.355-12.016.061-1.722-.379-3.224-1.058-4.587H9.002z" fill="#FFAC33" ts:skin="hair" ts:gender="neutral"/> <!-- nonstandard -->
	<use href="defs.svg#hair_back_female" x="17.887" y="5.069" fill="#FFAC33" ts:skin="hair" ts:gender="female"/>
	<!-- neck -->
	<path d="M13.64 28.101s2.848 1.963 4.36 1.963c1.512 0 4.359-1.963 4.359-1.963V24.29h-8.72v3.811z" fill="#FFDC5D" ts:skin="skin" ts:gender="neutral,male"/>
	<path d="M14.269 29.479c1.466 1.065 2.964.98 3.672.98s2.194.085 3.66-.98v-5.664h-7.332v5.664z" fill="#FFDC5D" ts:skin="skin" ts:gender="female"/>
	<path d="M13.632 25.702c1.216 1.374 2.724 1.746 4.364 1.746 1.639 0 3.146-.373 4.363-1.746v-3.491h-8.728v3.491z" fill="#F9CA55" ts:skin="dark" ts:gender="neutral"/>
	<path d="M13.632 25.973c1.216 1.374 2.724 1.746 4.364 1.746 1.639 0 3.146-.373 4.363-1.746v-3.491h-8.728v3.491z" fill="#F9CA55" ts:skin="dark" ts:gender="male"/>
	<path d="M14.264 25.179c1.022 1.155 2.29 1.468 3.668 1.468 1.379 0 2.647-.312 3.67-1.468v-2.936h-7.338v2.936z" fill="#F9CA55" ts:skin="dark" ts:gender="female"/>
	<!-- head -->
	<path d="M25.16 13.47c-.613-.887-1.397-1.602-3.116-1.854.645.309 1.263 1.377 1.343 1.967.081.59.161 1.068-.349.478-2.045-2.364-4.271-1.433-6.478-2.877-1.541-1.009-2.011-2.124-2.011-2.124s-.188 1.489-2.525 3.007c-.677.44-1.486 1.419-1.934 2.866-.322 1.04-.222 1.967-.222 3.551 0 4.625 3.644 8.514 8.14 8.514s8.14-3.923 8.14-8.514c-.002-2.879-.29-4.003-.988-5.014z" fill="#FFDC5D" ts:skin="skin" ts:gender="neutral"/>
	<use href="defs.svg#face_male" x="18" y="16.959" fill="#FFDC5D" ts:skin="skin" ts:gender="male"/>
	<use href="defs.svg#face_female" x="9.675" y="15.717" fill="#FFDC5D" ts:skin="skin" ts:gender="female"/>
	<!-- hair -->
	<path d="M18 4.406c5.648 0 9.178 3.242 9.178 6.715s-.706 4.863-1.412 3.473l-1.412-2.778s-4.235 0-5.647-1.39c0 0 2.118 4.168-2.118 0 0 0 .706 2.779-3.53-.694 0 0-2.118 1.389-2.824 4.862-.196.964-1.412 0-1.412-3.473C8.822 7.648 11.646 4.406 18 4.406" fill="#FFAC33" ts:skin="hair" ts:gender="male"/> <!-- nonstandard -->
	<use href="defs.svg#hair_front_female" x="17.887" y="5.069" fill="#FFAC33" ts:skin="hair" ts:gender="female"/> <!-- not sure.. -->
	<use href="defs.svg#ears_female" x="17.941" y="15.9355" fill="#FFDC5D" ts:skin="skin" ts:gender="female"/>
	<!-- eyes -->
	<rect x="13.478" y="14.698" width="1.808" height="2.838" rx="0.904" ry="0.946" fill="#662113" ts:skin="eyes2" ts:gender="neutral"/><rect x="20.714" y="14.698" width="1.808" height="2.838" rx="0.904" ry="0.946" fill="#662113" ts:skin="eyes2" ts:gender="neutral"/>
	<rect x="13" y="14" width="2" height="3" rx="1" fill="#662113" ts:skin="eyes" ts:gender="male"/><rect x="21" y="14" width="2" height="3" rx="1" fill="#662113" ts:skin="eyes" ts:gender="male"/>
	<rect x="13.704" y="15.349" width="1.693" height="2.538" rx="0.8465" fill="#662113" ts:skin="eyes" ts:gender="female"/><rect x="20.469" y="15.349" width="1.692" height="2.538" rx="0.846" ry="0.8465" fill="#662113" ts:skin="eyes" ts:gender="female"/>
	<!-- nose -->
	<use href="defs.svg#nose_neutral2" x="18.073" y="20.378" ry="0.473" fill="#C1694F" ts:skin="nose" ts:gender="neutral"/>
	<use href="defs.svg#nose_male" x="16.5" y="18.25" fill="#C1694F" ts:skin="nose" ts:gender="male"/>
	<use href="defs.svg#nose_female" x="16.664" y="19.5" fill="#C1694F" ts:skin="nose" ts:gender="female"/>
	<!-- mouth -->
	<use href="defs.svg#mouth_neutral" x="18" y="24.467" fill="#C1694F" ts:skin="nose" ts:gender="neutral"/>
	<use href="defs.svg#mouth_neutral" x="18" y="23.802" fill="#C1694F" ts:skin="nose" ts:gender="male"/>
	<use href="defs.svg#mouth_female" x="17.887" y="23.543" fill="#DF1F32" ts:gender="female"/>
	<!-- tie -->
	<path d="M19.947 32.277c.886.622 1.812 1.245 2.147 1.379.018.007.016-.11.012-.114-1.958-2.292-4.084-3.534-4.084-3.534l.013-.009-.014.001h-.03l.011.008s-2.09 1.225-4.035 3.48c.013.103.037.158.076.137.297-.16 1.175-.766 2.03-1.368.039.112.078.213.112.275.156.281.528.906.528.906s-.753.562-1.035 2.563h4.667c-.281-1.595-1.031-2.563-1.031-2.563s.375-.625.531-.906c.031-.059.066-.151.102-.255z" fill="#193D59" ts:gender="neutral,male"/>
	<path d="M22.094 33.07c.156.062-.366-3.656-.366-3.656h-7.454s-.523 3.781-.231 3.625c.712-.382.867-.491 2.036-1.346.037.104.073.197.105.255.156.281.528.906.528.906s-.82 1.144-1.103 3.146h4.75c-.281-1.595-1.047-3.146-1.047-3.146.65-1.084.696-1.202.531-.906.032-.059.068-.152.104-.256.887.622 1.812 1.245 2.147 1.378z" fill="#193D59" ts:gender="female"/>
	<path d="M18.016 30.688c-.562.031-1.452.941-1.359 1.328.427 1.785.779 1.312 1.391 1.312.542 0 .93.437 1.391-1.391.12-.478-1.034-1.272-1.423-1.249z M18.042,33.833 c-1.477 0-2.019 2.167-2.019 2.167h4.023c.001 0-.527-2.167-2.004-2.167z" fill="#1E4B6E" ts:gender="neutral,male"/>
	<path d="M18.016 30.105c.39-.022 1.543.771 1.422 1.25-.461 1.827-.849 1.391-1.391 1.391-.611 0-.964.473-1.391-1.312-.093-.387.797-1.297 1.36-1.329 z M20 36s-.481-2.749-1.958-2.749S16.031 36 16.031 36H20" fill="#1E4B6E" ts:gender="female"/>
	<!-- collar -->
	<path d="M18.001 30.008s-.01-.006-.011-.008c-.124-.084-4.14-2.817-4.698-3.375-.271-.271-.97.905-.958 1.208.041 1.084 1.386 5.939 1.583 5.709l.049-.054c1.945-2.256 4.035-3.48 4.035-3.48z M18.021,30.008 s2.126 1.242 4.084 3.534c.004.005.011-.005.016-.005.237.029 1.527-4.642 1.567-5.704.012-.303-.688-1.479-.958-1.208-.557.557-4.56 3.282-4.696 3.374l-.013.009z" fill="#4289C1" ts:gender="neutral,male"/>
	<path d="M13.292 26.043c.566.566 4.709 3.383 4.709 3.383s-2.126 1.242-4.084 3.534c-.197.23-1.542-4.625-1.583-5.709-.012-.303.687-1.48.958-1.208m9.438 0c-.566.566-4.709 3.383-4.709 3.383s2.126 1.242 4.084 3.534c.196.23 1.542-4.625 1.583-5.709.012-.303-.687-1.48-.958-1.208" fill="#4289C1" ts:gender="female"/>
	<path d="M11.51 29.389l-5.738 1.754c-.263.08-.544-.068-.625-.332l-.293-.957c-.08-.262.069-.543.332-.624l5.738-1.754c.263-.08.544.069.624.331l.292.957c.083.263-.067.543-.33.625 M24.502 29.389l5.738 1.754c.264.08.544-.068.625-.332l.293-.957c.08-.262-.069-.543-.332-.624l-5.739-1.754c-.263-.08-.544.069-.624.331l-.292.957c-.081.263.068.543.331.625" fill="#4289C1" ts:gender="neutral"/>
	<path d="M11.468 29.412l-5.926.938c-.272.043-.529-.144-.572-.416l-.157-.988c-.043-.271.144-.528.416-.571l5.926-.938c.271-.043.529.145.572.415l.156.988c.044.271-.143.528-.415.572 M24.544 29.412l5.926.938c.273.043.529-.144.572-.416l.157-.988c.043-.271-.143-.528-.416-.571l-5.927-.938c-.271-.043-.529.145-.572.415l-.156.988c-.043.271.144.528.416.572" fill="#4289C1" ts:gender="male"/>
	<path d="M11.083 28.892l-4.378 1.361c-.262.085-.545-.059-.63-.321l-.309-.952c-.084-.26.06-.544.322-.629l4.379-1.362c.262-.084.545.061.63.321l.309.952c.083.26-.062.544-.323.63 M24.837 28.892l4.379 1.361c.262.085.545-.059.631-.321l.309-.952c.084-.26-.061-.544-.322-.629l-4.379-1.362c-.262-.084-.545.061-.63.321l-.309.952c-.085.26.06.544.321.63" fill="#4289C1" ts:gender="female"/>
	<!-- hat -->
	<path d="M27.001 8V6S23.251 3.75 18 3.75C12.752 3.75 9.002 6 9.002 6v2h17.999z" fill="#4289C1"/>
	<path d="M8.5 8v1c0 1.105 4.253 2 9.5 2s9.5-.895 9.5-2V8h-19z" fill="#2A6797"/>
	<path d="M27.5 8h-19c-.275 0-.5.225-.5.5s.225.5.5.5h19c.275 0 .5-.225.5-.5s-.225-.5-.5-.5z" fill="#FDCB58"/>
	<path d="M20.25 1.501h-.002c-.233.001-.433.114-.57.282-.281.069-.667.084-1.157-.071-.136-.129-.318-.211-.521-.211-.201 0-.384.082-.519.212-.491.155-.877.14-1.157.071-.138-.168-.338-.282-.571-.282h-.002c-.415 0-.75.335-.75.75 0 .414.335.75.75.75h.002c0 3 1.498 3.75 2.247 3.75.751 0 2.248-.75 2.248-3.75h.002c.416 0 .751-.336.751-.75 0-.416-.335-.751-.751-.751z" fill="#FDCB58"/>
	<!-- buttons -->
	<circle cx="10.55" cy="28.616" fill="#FFF" r=".576" ts:gender="neutral"/>
	<circle cx="25.268" cy="28.589" fill="#FFF" r=".576" ts:gender="neutral"/>
	<circle cx="10.625" cy="28.513" fill="#FFF" r=".576" ts:gender="male"/>
	<circle cx="25.191" cy="28.513" fill="#FFF" r=".576" ts:gender="male"/>
	<circle cx="10.252" cy="28.044" fill="#FFF" r=".576" ts:gender="female"/>
	<circle cx="25.668" cy="28.044" fill="#FFF" r=".576" ts:gender="female"/>
</svg>
