<svg viewBox="0 0 36 36" xmlns="http://www.w3.org/2000/svg" xmlns:ts="data:,a">
	<!-- body -->
	<path d="M32 36.001V35c0-4-3.685-7-7-7H11c-3.313 0-7 3-7 7v1.001h28z" fill="#2A6797" ts:gender="neutral"/>
	<path d="M32 36v-2c0-3.314-2.685-6-6-6H10c-3.313 0-6 2.686-6 6v2h28z" fill="#2A6797" ts:gender="male"/>
	<path d="M30.941 36v-3.5c0-3.314-3.686-5.5-7-5.5h-12c-3.313 0-7 2.186-7 5.5V36h26z" fill="#2A6797" ts:gender="female"/>
	<!-- hat back -->
	<ellipse cx="18.003" cy="7.501" fill="#2A6797" rx="12" ry="7.5"/>
	<!-- back hair -->
	<path d="M9.002 8.5c-.372.702-1.092 1.47-1.193 2.288-.425 3.448.522 5.05.86 7.643.382 2.938 1.961 3.878 3.224 4.271 1.816 2.51 3.747 2.402 6.989 2.402 6.331 0 9.088-4.491 9.355-12.016.061-1.722-.379-3.224-1.058-4.587H9.002z" ts:skin="hair" ts:gender="neutral"/> <!-- nonstandard -->
	<use href="defs.svg#hair_back_female" x="17.887" y="5.069" ts:skin="hair" ts:gender="female"/>
	<!-- neck -->
	<path d="M13.64 28.101s2.848 1.963 4.36 1.963c1.512 0 4.359-1.963 4.359-1.963V24.29h-8.72v3.811z" ts:skin="skin" ts:gender="neutral,male"/>
	<path d="M14.269 29.479c1.466 1.065 2.964.98 3.672.98s2.194.085 3.66-.98v-5.664h-7.332v5.664z" ts:skin="skin" ts:gender="female"/>
	<!-- neck shadow -->
	<use href="defs.svg#neck_shadow_male" x="17.996" y="27.448" ts:skin="dark" ts:gender="neutral"/>
	<use href="defs.svg#neck_shadow_male" x="17.996" y="27.719" ts:skin="dark" ts:gender="male"/>
	<use href="defs.svg#neck_shadow_female" x="17.932" y="26.647" ts:skin="dark" ts:gender="female"/>
	<!-- head -->
	<path d="M25.16 13.47c-.613-.887-1.397-1.602-3.116-1.854.645.309 1.263 1.377 1.343 1.967.081.59.161 1.068-.349.478-2.045-2.364-4.271-1.433-6.478-2.877-1.541-1.009-2.011-2.124-2.011-2.124s-.188 1.489-2.525 3.007c-.677.44-1.486 1.419-1.934 2.866-.322 1.04-.222 1.967-.222 3.551 0 4.625 3.644 8.514 8.14 8.514s8.14-3.923 8.14-8.514c-.002-2.879-.29-4.003-.988-5.014z" ts:skin="skin" ts:gender="neutral"/>
	<use href="defs.svg#face_male" x="18" y="16.959" ts:skin="skin" ts:gender="male"/>
	<use href="defs.svg#face_female" x="9.675" y="15.717" ts:skin="skin" ts:gender="female"/>
	<!-- hair -->
	<path d="M18 4.406c5.648 0 9.178 3.242 9.178 6.715s-.706 4.863-1.412 3.473l-1.412-2.778s-4.235 0-5.647-1.39c0 0 2.118 4.168-2.118 0 0 0 .706 2.779-3.53-.694 0 0-2.118 1.389-2.824 4.862-.196.964-1.412 0-1.412-3.473C8.822 7.648 11.646 4.406 18 4.406" ts:skin="hair" ts:gender="male"/> <!-- nonstandard -->
	<use href="defs.svg#hair_front_female" x="17.887" y="5.069" ts:skin="hair" ts:gender="female"/> <!-- not sure.. -->
	<use href="defs.svg#ears_female" x="17.941" y="15.9355" ts:skin="skin" ts:gender="female"/>
	<!-- eyes -->
	<use href="defs.svg#eyes_male" transform="translate(18 16.117) scale(0.904 0.946)" ts:skin="eyes" ts:gender="neutral"/>
	<use href="defs.svg#eyes_male" x="18" y="15.5" ts:skin="eyes" ts:gender="male"/>
	<use href="defs.svg#eyes_female" x="17.93275" y="16.618" ts:skin="eyes" ts:gender="female"/>
	<!-- nose -->
	<use href="defs.svg#nose_neutral1" transform="translate(18 20.374) scale(0.904 0.946)" ts:skin="nose" ts:gender="neutral"/>
	<use href="defs.svg#nose_male" x="18.0" y="19.0" ts:skin="nose" ts:gender="male"/>
	<use href="defs.svg#nose_female" x="17.9325" y="20.0" ts:skin="nose" ts:gender="female"/>
	<!-- mouth -->
	<use href="defs.svg#mouth_neutral" x="18" y="24.467" ts:skin="nose" ts:gender="neutral"/>
	<use href="defs.svg#mouth_neutral" x="18" y="23.802" ts:skin="nose" ts:gender="male"/>
	<use href="defs.svg#mouth_female" x="17.887" y="23.543" ts:skin="mouth" ts:gender="female"/>
	<!-- tie -->
	<path d="M19.947 32.277c.886.622 1.812 1.245 2.147 1.379.018.007.016-.11.012-.114-1.958-2.292-4.084-3.534-4.084-3.534l.013-.009-.014.001h-.03l.011.008s-2.09 1.225-4.035 3.48c.013.103.037.158.076.137.297-.16 1.175-.766 2.03-1.368.039.112.078.213.112.275.156.281.528.906.528.906s-.753.562-1.035 2.563h4.667c-.281-1.595-1.031-2.563-1.031-2.563s.375-.625.531-.906c.031-.059.066-.151.102-.255z" fill="#193D59" ts:gender="neutral,male"/>
	<path d="M22.094 33.07c.156.062-.366-3.656-.366-3.656h-7.454s-.523 3.781-.231 3.625c.712-.382.867-.491 2.036-1.346.037.104.073.197.105.255.156.281.528.906.528.906s-.82 1.144-1.103 3.146h4.75c-.281-1.595-1.047-3.146-1.047-3.146.65-1.084.696-1.202.531-.906.032-.059.068-.152.104-.256.887.622 1.812 1.245 2.147 1.378z" fill="#193D59" ts:gender="female"/>
	
	<path d="M 18.016,30.688 c -0.562,0.031 -1.452,0.941 -1.359,1.328 c 0.427,1.785 0.779,1.312 1.391,1.312 c 0.542,0 0.93,0.437 1.391,-1.391 c 0.12,-0.478 -1.034,-1.272 -1.423,-1.249 ZM 18.042,33.833 c -1.477,0 -2.019,2.167 -2.019,2.167 h 4.023 c 0.001,0 -0.527,-2.167 -2.004,-2.167 Z" fill="#1E4B6E" ts:gender="neutral,male"/>
	<path d="M 18.016,30.105 c -0.563,0.032 -1.453,0.942 -1.36,1.329 c 0.427,1.785 0.78,1.312 1.391,1.312 c 0.542,0 0.93,0.436 1.391,-1.391 c 0.121,-0.479 -1.032,-1.272 -1.422,-1.25 Z M 20,36 s -0.481,-2.749 -1.958,-2.749 s -2.011,2.749 -2.011,2.749 h 3.969 Z" fill="#1E4B6E" ts:gender="female"/>
	<!-- collar -->
	<path d="M 18.001,30.008 s -0.01,-0.006 -0.011,-0.008 c -0.124,-0.084 -4.14,-2.817 -4.698,-3.375 c -0.271,-0.271 -0.97,0.905 -0.958,1.208 c 0.041,1.084 1.386,5.939 1.583,5.709 l 0.049,-0.054 c 1.945,-2.256 4.035,-3.48 4.035,-3.48 Z M 18.021,30.008 s 2.126,1.242 4.084,3.534 c 0.004,0.005 0.011,-0.005 0.016,-0.005 c 0.237,0.029 1.527,-4.642 1.567,-5.704 c 0.012,-0.303 -0.688,-1.479 -0.958,-1.208 c -0.557,0.557 -4.56,3.282 -4.696,3.374 l -0.013,0.009 Z" fill="#4289C1" ts:gender="neutral,male"/>
	<path d="M 13.292,26.043 c -0.271,-0.272 -0.97,0.905 -0.958,1.208 c 0.041,1.084 1.386,5.939 1.583,5.709 c 1.958,-2.292 4.084,-3.534 4.084,-3.534 s -4.143,-2.817 -4.709,-3.383 Z M 22.73,26.043 c -0.566,0.566 -4.709,3.383 -4.709,3.383 s 2.126,1.242 4.084,3.534 c 0.196,0.23 1.542,-4.625 1.583,-5.709 c 0.012,-0.303 -0.687,-1.48 -0.958,-1.208 Z" fill="#4289C1" ts:gender="female"/>
	
	<rect x="-3.5" y="-1" width="7" height="2" rx="0.5" transform="translate(8.347 29.309) rotate(-17)" fill="#4289C1" ts:gender="neutral"/>
	<rect x="-3.5" y="-1" width="7" height="2" rx="0.5" transform="translate(27.6645 29.309) rotate(17)" fill="#4289C1" ts:gender="neutral"/>
	
	<rect x="-3.5" y="-1" width="7" height="2" rx="0.5" transform="translate(8.348 28.8935) rotate(-9)" fill="#4289C1" ts:gender="male"/>
	<rect x="-3.5" y="-1" width="7" height="2" rx="0.5" transform="translate(27.6635 28.8935) rotate(9)" fill="#4289C1" ts:gender="male"/>
	
	<rect x="-2.793" y="-1" width="5.586" height="2" rx="0.5" transform="translate(8.586 28.621) rotate(-17.272)" fill="#4289C1" ts:gender="female"/>
	<rect x="-2.793" y="-1" width="5.586" height="2" rx="0.5" transform="translate(27.336 28.621) rotate(17.272)" fill="#4289C1" ts:gender="female"/>
	<!-- buttons -->
	<circle cx="10.55" cy="28.616" fill="#FFF" r=".576" ts:gender="neutral"/>
	<circle cx="25.268" cy="28.589" fill="#FFF" r=".576" ts:gender="neutral"/>
	<circle cx="10.625" cy="28.513" fill="#FFF" r=".576" ts:gender="male"/>
	<circle cx="25.191" cy="28.513" fill="#FFF" r=".576" ts:gender="male"/>
	<circle cx="10.252" cy="28.044" fill="#FFF" r=".576" ts:gender="female"/>
	<circle cx="25.668" cy="28.044" fill="#FFF" r=".576" ts:gender="female"/>
	<!-- hat -->
	<path d="M27.001 8V6S23.251 3.75 18 3.75C12.752 3.75 9.002 6 9.002 6v2h17.999z" fill="#4289C1"/>
	<path d="M8.5 8.25v.75c0 1.105 4.253 2 9.5 2s9.5-.895 9.5-2V8.25h-19z" fill="#2A6797"/>
	<rect x="8" y="8" width="20" height="1" rx="0.5" fill="#FDCB58"/>
<path d="M 20.25,1.5 a 0.75,0.75 0 01 0,1.5 c 0,3 -1.5,3.75 -2.25,3.75 s -2.25,-0.75 -2.25,-3.75 a 0.75,0.75 0 01 0,-1.5 c 0.233,0 0.433,0.114 0.571,0.282 c 0.28,0.069 0.666,0.084 1.159,-0.071 c 0.135,-0.13 0.318,-0.211 0.52,-0.211 s 0.385,0.082 0.52,0.211 c 0.49,0.155 0.876,0.14 1.159,0.071 c 0.137,-0.168 0.337,-0.281 0.571,-0.282 Z" fill="#FDCB58"/>
</svg>
