<svg viewBox="0 0 36 36" xmlns="http://www.w3.org/2000/svg">
	<!-- body (female) -->
	<path d="M22.123 13.778h-4.444c-1.793 0-3.333 1.541-3.333 3.333V36H25v-8.956l.457-1.752v-8.181c0-1.793-1.541-3.333-3.334-3.333z" fill="#9268CA" data-gender="female"/>
	<path d="M18 16.5c-2.485 0-4.5 2.015-4.5 4.5s2.015 4.5 4.5 4.5v-9z" fill="#7450A8" data-gender="female"/>
	<path d="M18 17.5c-1.933 0-3.5 1.567-3.5 3.5s1.567 3.5 3.5 3.5v-7z" fill="#9268CA" data-gender="female"/>
	<path d="M20 16.5c-2.485 0-4.5 2.015-4.5 4.5s2.015 4.5 4.5 4.5v-9z" fill="#7450A8" data-gender="female"/>
	<path d="M20 17.5c-1.933 0-3.5 1.567-3.5 3.5s1.567 3.5 3.5 3.5v-7z" fill="#9268CA" data-gender="female"/>
	<path d="M11.814 36h7.154V21.75c-.453-.076-.916-.125-1.391-.125-4.61 0-8.347 3.737-8.347 8.347 0 2.372.994 4.508 2.584 6.028z" fill="#7450A8" data-gender="female"/>
	<path d="M18.79 18.171v4.491c-.396-.066-.799-.109-1.213-.109-4.098 0-7.419 3.321-7.419 7.419 0 2.486 1.228 4.682 3.105 6.028h10.696V15.333l-5.169 2.838z" fill="#9268CA" data-gender="female"/>
	<path d="M24.438 16l4.85 5.114L25 25.625l-.002 3.046-3.94 2.674-2.641-4.139 5.645-5.81-1.939-1.923z" fill="#7450A8" data-gender="female"/>
	<path d="M24.438 14.75l5.464 5.694s1.897 1.528 0 3.333c-1.139 1.083-8.276 5.89-8.276 5.89l-2.222-2.222 6.054-5.89-3.334-3.333 2.314-3.472z" fill="#9268CA" data-gender="female"/>
	<!-- body (other) -->
	<path d="M29.902 20.444 l-5.185-5.403a3.312 3.312 0 0 0-2.593-1.263H17.27a3.333 3.333 0 0 0-3.305 2.898L13 24l.015.13A7.4 7.4 0 0 0 13.263 36H25v-8.639c2.017-1.395 4.299-3.011 4.902-3.584 1.897-1.805 0-3.333 0-3.333z " fill="#FA743E" data-gender="neutral,male" data-gender-color="#77B255|"/>
	<path d="M17.577,21.625 c-.782 0-1.536.115-2.254.317a6.312 6.312 0 0 1-.078-.942c0-1.932.834-3.311 1.607-3.48l-.214-.977c-1.387.304-2.393 2.179-2.393 4.457 0 .435.049.856.122 1.267a8.348 8.348 0 0 0-5.137 7.705c0 2.372.994 4.508 2.584 6.028h1.449a7.405 7.405 0 0 1-3.105-6.028 7.418 7.418 0 0 1 7.419-7.419c.414 0 .817.043 1.213.109v-.936a8.225 8.225 0 0 0-1.213-.101z" fill="#DD551F" data-gender="neutral"/>
	<path d="M17 22.582v-.928a8.357 8.357 0 0 0-1.442.232l.44-4.841-.996-.091-.478 5.262c-3.098 1.218-5.294 4.225-5.294 7.755 0 2.372.994 4.508 2.584 6.028h1.449a7.405 7.405 0 0 1-3.105-6.028c0-3.902 3.015-7.094 6.842-7.389z" fill="#5B9239" data-gender="male"/>
	<path d="M24.999,27.362 l-.001 1.309-3.94 2.674-2.641-4.139 5.645-5.81-1.939-1.923.501-.751 2.834 2.833-6.054 5.89 2.222 2.222s1.582-1.066 3.373-2.305z " fill="#DD551F" data-gender="neutral,male" data-gender-color="#5B9239|"/>
	<!-- back hair -->
	<path d="M15.573 4.809c.576 1.385-.072 2.969-1.446 3.54-1.375.571-2.956-.086-3.531-1.472-.575-1.384.072-2.969 1.448-3.54 1.375-.571 2.956.087 3.529 1.472z" fill="#FFAC33" data-skin="#292F33|#FFE51E|#963B22|#60352A|#0B0200" data-gender="female"/>
	<!-- hand -->
	<path d="M20.331 27.532c-1.124-.535-2.19-.461-3.221.142-.493.289-.694.829.061 1.008.758.177 3.16-1.15 3.16-1.15z" fill="#F9CA55" data-skin="#EEC2AD|#E2C196|#CC9B7A|#9B6A49|#664131"/>
	<path d="M21.845 29.449c.139 1.765-2.226 3.414-4.02 3.199-1.282-.154-2.398-3.608-.877-4.053 1.356-.396 1.731-1.628 3.34-1.168 1.278.366 1.506 1.344 1.557 2.022z" fill="#FFDC5D" data-skin="#F7DECE|#F3D2A2|#D4AB88|#AF7E57|#7C533E"/>
	<!-- face -->
	<path d="M11.647,6.297 l1.832 4.41c1.008 2.424 2.382 4.16 4.803 3.165l.082.326c.206.817.055 1.478 1.258 1.524.841.032 1.977-1.47 1.771-2.287l-.41-1.636c1.203-1.435 1.921-3.269 1.304-4.751l-1.02-2.457c-5.514 2.076-7.783-.773-7.783-.773l-1.837 2.479z" fill="#FFDC5D" data-skin="#F7DECE|#F3D2A2|#D4AB88|#AF7E57|#7C533E" data-gender="neutral,male"/>
	<path d="M20.983 11.799c1.203-1.435 1.921-3.269 1.304-4.751l-1.02-2.457c-5.514 2.076-7.783-.773-7.783-.773s1.08 2.598-1.238 3.921l1.233 2.968c1.008 2.424 2.382 4.16 4.803 3.165l.082.326c.206.817.055 1.478 1.258 1.524.841.032 1.977-1.47 1.771-2.287l-.41-1.636z" fill="#FFDC5D" data-skin="#F7DECE|#F3D2A2|#D5AB88|#AF7E57|#7C533E" data-gender="female"/>
	<!-- hand lines -->
	<path d="M20.659,30.132 l-.212-.441s-.771 1.147-1.843 1.59c-.813.332-1.498.365-1.857.306.154.293.157.343.359.53 1.117.039 2.902-.56 3.553-1.985z M18.442,30.093 c.99-.678 1.279-1.326 1.279-1.326l-.323-.409s-1.145 1.776-3.177 1.685c.015.248-.005.296.068.55.273.009 1.349.05 2.153-.5z" fill="#EF9645" data-skin="#E0AA94|#D2A077|#B78B60|#90603E|#583529"/>
	<!-- hair -->
	<path d="M17.568.414c-1.943 0-3.934 1.111-4.968 2.511-2.24.001-2.461 2.004-2.237 2.758.665 2.24 4.064.359 6.514 3.15 0 0-.337-1.073.163-2.138.861 2.538 2.743 1.061 4.002 4.63C24.444 10 25.919.414 17.568.414z" fill="#FFAC33" data-skin="#292F33|#FFE51E|#963B22|#60352A|#0B0200" data-gender="neutral"/>
	<path d="M20.927 1.747C18.323.301 15.458.154 12.312 2.87c-1.281 1.106-2.068 1.049-2.206 1.373-.527 1.964 1.81 3.868 2.267 3.317 1.446-1.744 3.265-1.84 3.998-1.154.706.677.852 2.248 1.184 2.122.9-.341.415-1.206.573-1.883.245-1.115 1.318-.978 1.866-.089.434.704.726 2.081-.36 2.798 1.146 1.606 2.453 1.527 2.453 1.527s.493.001 1.188-2.249.021-5.53-2.348-6.885z" fill="#FFAC33" data-skin="#292F33|#FFE51E|#963B22|#60352A|#0B0200" data-gender="male"/>
	<path d="M27.41 5.412c.824-2.202-1.159-3.876-2.847-4.048-1.024-.104-1.948.549-2.398 1.331C20.114-.739 17.046.07 15.094.757c-2.068.728-5.144 2.869-3.937 5.17 1.207 2.302 5.238 1.312 5.238 1.312l1.459 2.352c-.394-2.024.95-2.476 1.571-2.035.654.465.22 1.956.518 2.544.298.588 1.33 1.394 1.33 1.394.634-.806 2.635-3.578 1.7-6.935.387-.145.968-.047 1.437.198 1.192.619.253 3.703 1.911 4.678 1.589.935 2.521-.351 2.521-.351-1.628.054-2.219-1.567-1.432-3.672z" fill="#FFAC33" data-skin="#292F33|#FFE51E|#963B22|#60352A|#0B0200" data-gender="female"/>
	<!-- eye -->
	<path d="M14.493 9.711a.53.53 0 0 1-.692-.286l-.205-.491a.53.53 0 0 1 .98-.407l.204.49a.53.53 0 0 1-.287.694z" fill="#662113" data-skin="#662113|#662113|#662113|#662113|#000000"/>
	<!-- nose -->
	<path d="M14.342,11.782 l-.308.128a.265.265 0 1 1-.204-.489l.309-.128a.265.265 0 1 1 .203.489z" fill="#C1694F" data-skin="#C1694F|#C1694F|#C1694F|#915A34|#3D2E24" data-gender="neutral,male"/>
	<path d="M14.342 11.782l-.308.128c-.135.056-.29-.006-.347-.143-.055-.135.008-.29.143-.346l.309-.128c.136-.057.291.008.347.143.056.135-.009.289-.144.346z" fill="#BF6952" data-skin="#BF6952|#BF6952|#BF6952|#915A34|#3D2E24" data-gender="female"/><!-- wrong colors -->
	<!-- mouth -->
	<path d="M16.116 12.096c-.284.258-.724.622-1.266.989.189.216.39.402.604.558.511-.357.923-.704 1.2-.956a.4.4 0 1 0-.538-.591z" fill="#C1694F" data-skin="#C1694F|#C1694F|#C1694F|#915A34|#3D2E24" data-gender="neutral,male"/>
	<path d="M14.761 12.983c.243.295.509.541.796.733 1.055-.609 1.129-1.533 1.129-1.533l-1.875.779-.05.021z" fill="#DF1F32" data-gender="female"/>
</svg>
