<svg viewBox="0,0 36,36" xmlns="http://www.w3.org/2000/svg" xmlns:ts="data:,a">
	<!-- back hair -->
	<use href="defs.svg#hair_neutral" x="25.597" y="1.071" fill="#FFAC33" ts:skin="hair" ts:gender="neutral"/>
	<use href="defs.svg#hair_back_female" x="21.887" y="4.081" fill="#FFAC33" ts:skin="hair" ts:gender="female"/>
	<!-- body -->
	<path d="M36 36v-4c0-3.314-2.686-6-6-6H14c-3.313 0-6 2.686-6 6v4h28z" fill="#CCD6DD" ts:gender="neutral,male"/>
	<path d="M34.941 36v-4.488c0-3.314-3.685-5.5-7-5.5h-12c-3.313 0-7 2.186-7 5.5V36h26z" fill="#CCD6DD" ts:gender="female"/>
	<!-- neck -->
	<path d="M18 27l4 4 4-4v-5h-8z" fill="#FFDC5D" ts:skin="skin" ts:gender="neutral,male"/>
	<path d="M18.27 28.49c1.466 1.064 5.866 1.064 7.332 0v-5.664H18.27v5.664z" fill="#FFDC5D" ts:skin="skin" ts:gender="female"/>
	<!-- shirt -->
	<path d="M19.059 36L18 26.781s1.41 1.645 4 1.645 4.219-1.645 4.219-1.645L24.996 36h-5.937z" fill="#66757F" ts:gender="neutral,male"/>
	<path d="M19 36l-1.059-9.219s1.41 1.645 4 1.645 4.219-1.645 4.219-1.645L24.938 36H19z" fill="#66757F" ts:gender="female"/>
	<!-- neck shadow -->
	<path d="M18 24c1.216 1.374 2.355 1.719 3.996 1.719 1.639 0 2.787-.346 4.004-1.719v-4h-8v4z" fill="#F9CA55" ts:skin="dark" ts:gender="neutral,male"/>
	<path d="M18.264 24.19c1.022 1.156 2.29 1.469 3.668 1.469 1.379 0 2.647-.312 3.67-1.469v-2.936h-7.338v2.936z" fill="#F9CA55" ts:skin="dark" ts:gender="female"/>
	<!-- face -->
	<use href="defs.svg#face_neutral" x="29.413" y="11.021" fill="#FFDC5D" ts:skin="skin" ts:gender="neutral"/>
	<use href="defs.svg#face_male" x="22" y="14.959" fill="#FFDC5D" ts:skin="skin" ts:gender="male"/>
	<use href="defs.svg#face_female" x="13.675" y="14.729" fill="#FFDC5D" ts:skin="skin" ts:gender="female"/>
	<!-- front hair -->
	<use href="defs.svg#hair_male" x="22" y="1.48" fill="#FFAC33" ts:skin="hair" ts:gender="male"/>
	<use href="defs.svg#hair_front_female" x="21.887" y="4.081" fill="#FFAC33" ts:skin="hair" ts:gender="female"/>
	<!-- ears -->
	<use href="defs.svg#ears_female" x="22" y="14.9465" fill="#FFDC5D" ts:skin="skin" ts:gender="female"/>
	<!-- eyes -->
	<rect x="17.109" y="12.259" width="1.906" height="2.859" rx="0.953" fill="#662113" ts:skin="eyes2" ts:gender="neutral"/><rect x="24.734" y="12.259" width="1.906" height="2.859" rx="0.953" fill="#662113" ts:skin="eyes2" ts:gender="neutral"/>
	<rect x="17" y="12" width="2" height="3" rx="1" fill="#662113" ts:skin="eyes" ts:gender="male"/><rect x="25" y="12" width="2" height="3" rx="1" fill="#662113" ts:skin="eyes" ts:gender="male"/>
	<rect x="17.704" y="14.36" width="1.693" height="2.538" rx="0.8465" fill="#662113" ts:skin="eyes" ts:gender="female"/><rect x="24.469" y="14.36" width="1.692" height="2.538" rx="0.84625" fill="#662113" ts:skin="eyes" ts:gender="female"/>
	<!-- nose -->
	<use href="defs.svg#nose_neutral2" x="21.874" y="17.977" fill="#C1694F" ts:skin="nose" ts:gender="neutral"/>
	<use href="defs.svg#nose_male" x="20.5" y="16.25" fill="#C1694F" ts:skin="nose" ts:gender="male"/>
	<use href="defs.svg#nose_female" x="20.664" y="18.512" fill="#C1694F" ts:skin="nose" ts:gender="female"/>
	<!-- mouth -->
	<use href="defs.svg#mouth_neutral" x="22" y="22.434" fill="#C1694F" ts:skin="nose" ts:gender="neutral"/>
	<use href="defs.svg#mouth_neutral" x="22" y="21.802" fill="#C1694F" ts:skin="nose" ts:gender="male"/>
	<use href="defs.svg#mouth_female" x="21.887" y="22.555" fill="#DF1F32" ts:gender="female"/>
	<!-- goggles (transparent) -->
	<path d="M14.753 10.75h14.5V16h-14.5z" fill="#FFF" opacity=".4" ts:gender="neutral,male"/>
	<path d="M14.753 12.75h14.5V18h-14.5z" fill="#FFF" opacity=".4" ts:gender="female"/>
	<!-- goggles (layer has hole) -->
	<path d="M29 10H15c-1 0-1 1-1 1v4c0 1.461 2.333 2 4 2s2.599-1 4-1 2.333 1 4 1 4-.539 4-2v-4c0-1-1-1-1-1 Z M29,14 c0 1.325-.852 2-3 2-1.539 0-2.804-1-4-1s-2.461 1-4 1c-2.148 0-3-.675-3-2v-3h14v3z" fill="#F5F8FA" ts:gender="neutral,male"/>
	<path d="M29 12H15c-1 0-1 1-1 1v4c0 1.461 2.333 2 4 2s2.599-1 4-1 2.333 1 4 1 4-.539 4-2v-4c0-1.001-1-1-1-1 Z M29,16 c0 1.325-.852 2-3 2-1.539 0-2.804-1-4-1s-2.461 1-4 1c-2.148 0-3-.675-3-2v-3h14v3z" fill="#F5F8FA" ts:gender="female"/>
	<!-- collar -->
	<path d="M18.081 25.25C18.647 25.816 21 36 21 36h-3.156l-1.704-2.562 1.704-2.835-2.017-.634.254-3.957s1.729-1.033 2-.762m7.838 0C25.353 25.816 23 36 23 36h3.156l1.704-2.562-1.704-2.835 2.017-.634-.254-3.957s-1.729-1.033-2-.762" fill="#F5F8FA" ts:gender="neutral,male"/>
	<path d="M17.941 25.25C18.508 25.816 20.86 36 20.86 36h-3.156L16 33.438l1.704-2.835-2.017-.634.254-3.957s1.729-1.033 2-.762m7.994 0c-.567.566-2.919 10.75-2.919 10.75h3.156l1.704-2.562-1.704-2.835 2.017-.634-.254-3.957s-1.73-1.033-2-.762" fill="#F5F8FA" ts:gender="female"/>
	<!-- beaker -->
	<path d="M10 18H5s-2 0-2 2 2 2 2 2v5l-4 5c-.883 1.104-1 1.821-1 2 0 2 2 2 2 2h11s2 0 2-2c0-.134.153-.559-1-2l-4-5v-5s2 0 2-2-2-2-2-2z" fill="#A8BCCC"/>
	<path d="M9 27.351V21h1c.449-.012 1-.194 1-1 0-.803-.547-.987-1.008-1H5c-.45.012-1 .194-1 1s.55.988 1.012 1l.975.024L6 27.351l-1.894 2.368 3.394 3.5 3.394-3.5L9 27.351z" fill="#E1E8ED"/>
	<path d="M.999 34.034c.001.772.551.954 1.013.966H13c.449-.012 1-.194 1-1v-.041l.006-.082c0-.003-.055-.337-.787-1.252l-2.325-2.906H4.106l-2.325 2.906c-.719.899-.782 1.404-.782 1.409z" fill="#9266CC"/>
	<circle cx="7" cy="11" fill="#9266CC" r="1"/>
	<circle cx="5.5" cy="14.5" fill="#9266CC" r="1.5"/>
	<circle cx="9" cy="16" fill="#9266CC" r="1"/>
</svg>
