<svg viewBox="0 0 36 36" xmlns="http://www.w3.org/2000/svg" xmlns:ts="data:,a">
	<!-- hand -->
	<path d="M28.384 6.753s-2.42-.003-2.697 1.999l-1.3 9.659c-.372 2.182 2.133 2.637 3.64 2.668 1.507.031 2.761-1.113 2.801-2.556l.104-3.046.153-4.488.045-1.449c0-1.208-.521-2.498-2.746-2.787z" ts:skin="skin"/>
	<!-- wrist -->
	<path d="M29.25 21.906h-3.594l-.5-1.656h4.594z" ts:skin="skin"/>
	<!-- finger behind phone -->
	<path d="M20.424,7.506 s.144-.764 1.347-.68l-.332 1.051-1.015-.371z" ts:skin="skin"/>
	<!-- phone -->
	<rect x="22" y="1" width="7" height="18" rx="1.365" fill="#6D6E71"/>
	<rect x="21" y="1" width="7" height="18" rx="1.365" fill="#231F20"/>
	<rect x="22" y="3" width="5" height="13" fill="#88C9F9"/>
	<!-- thumb shadow -->
	<path d="M30.404,11.858 l-.144.067c-.43.201-.946.014-1.147-.416l-.763-1.631c-.201-.43-.014-.946.416-1.147l.144-.067c.43-.201.946-.014 1.147.416l.763 1.631c.201.43.014.946-.416 1.147z M 30.146,10.439 c 0.352,0.014,0.646,0.242 0.768,0.551 l -0.132,3.103 -1.766,-0.328 0.073,-2.506 c 0.02,-0.474,0.424,-0.846 0.898,-0.827 l 0.159,0.007 Z" ts:skin="line"/>
	<!-- finger shadows -->
	<path d="M 20.536,9.095 l 1.476,0.084 c -0.247,0.426,-0.718,0.7 -1.242,0.664 l -0.223,-0.031 -0.011,-0.717 z M 20.546,11.745 l 1.843,-0.059 c -0.205,0.448,-0.647,0.767 -1.172,0.782 l -0.651,0.007 -0.02,-0.73 z M 20.546,14.136 l 2.289,-0.154 c -0.138,0.442,-0.532,0.777 -1.022,0.812 l -0.599,0.042 -0.537,0.045 -0.131,-0.745 z" ts:skin="line"/>
	<!-- base of thumb -->
	<path d="M 30.818,13.78 l -0.058,1.698 -0.182,3.272 s -0.552,1.142 -2.182,0.789 c -2.014,-0.437,-2.439,-3.601 0.448,-5.645 0.335,-0.238,1.189,-0.446 1.974,-0.114 z" ts:skin="skin"/>
	<!-- thumb -->
	<path d="M29.326 16.167l-.159-.007c-.474-.02-.846-.424-.827-.898l.162-3.936c.02-.474.424-.846.898-.827l.159.007c.474.02.846.424.827.898l-.162 3.936c-.019.475-.423.847-.898.827z M29.885 11.915l-.144.067c-.43.201-.946.014-1.147-.416l-.764-1.631c-.201-.43-.014-.946.416-1.147l.144-.068c.43-.201.946-.014 1.147.416l.763 1.631c.202.43.015.947-.415 1.148z" ts:skin="skin"/>
	<!-- finger 1 -->
	<path d="M20.689 9.303l-.06-.004c-.18-.013-.317-.17-.305-.35l.102-1.474c.013-.18.17-.317.35-.305l.06.004c.18.013.317.17.305.35l-.102 1.474c-.013.181-.17.318-.35.305z M 21.339,9.348 l -0.68,-0.047 0.148,-2.128 0.148,0.01 0.532,0.037 s 1.064,0.074 0.99,1.138 c -0.031,0.446,-0.237,0.686 -0.465,0.821 -0.315,0.187,-0.673,0.169 -0.673,0.169 z" ts:skin="skin"/>
	<!-- finger 2 -->
	<path d="M20.718,11.902 l-.06.002c-.18.005-.332-.138-.337-.319l-.041-1.477c-.005-.18.138-.332.319-.337l.06-.002c.18-.005.332.138.337.319l.041 1.477c.005.18-.138.332-.319.337z M 21.735,11.873 l -1.047,0.03 -0.06,-2.133 0.514,-0.014 0.533,-0.015 s 1.066,-0.03 1.096,1.036 c 0.013,0.447,-0.169,0.705 -0.383,0.862 -0.295,0.217,-0.653,0.234 -0.653,0.234 z" ts:skin="skin"/>
	<!-- finger 3 -->
	<path d="M20.713 14.368l-.037.003c-.175.012-.328-.121-.341-.296l-.097-1.368c-.012-.175.121-.328.296-.341l.037-.003c.175-.012.328.121.341.296l.097 1.368c.012.175-.121.329-.296.341z M 20.695,14.369 l -0.141,-2.004 0.483,-0.034 0.599,-0.042 0.403,-0.029 s 1.002,-0.071 1.073,0.931 c 0.028,0.385,-0.105,0.631 -0.277,0.79 -0.276,0.254,-0.654,0.283 -0.654,0.283 l -1.486,0.105 z" ts:skin="skin"/>
	<!-- finger 4 -->
	<path d="M21.049 16.481l-.031.004c-.147.021-.285-.083-.306-.23l-.162-1.151c-.021-.147.083-.285.23-.306l.031-.004c.147-.021.285.083.306.23l.162 1.151c.021.147-.083.285-.23.306z M 20.846,14.79 l 0.571,-0.049 s 0.846,-0.093 0.94,0.753 c 0.038,0.348,-0.084,0.565 -0.24,0.704 -0.222,0.199,-0.513,0.236 -0.513,0.236 l -0.571,0.049 -0.187,-1.693 z" ts:skin="skin"/>
	<!-- sleeve -->
	<path d="M29.25 21h-3.792c-.411 0-.583.203-1.198 1.211l-4.382 6.699L6.5 25.871V36h16.365c1.333 0 2.533-.307 3.035-1.542l4.633-11.626C30.958 21.5 30.197 21 29.25 21z" fill="#FA743E"/> <!-- default has strange coloring anomaly (sleeve is orange or green depending on skin color) -->
</svg>
