<svg viewBox="0 0 36 36" xmlns="http://www.w3.org/2000/svg">
	<!-- body -->
	<path d="M27.875 26h-12c-3.313 0-7.125 2.186-7.125 5.5V36h26v-4.5c0-3.314-3.56-5.5-6.875-5.5z" fill="#292F33" data-gender="female"/>
	<path d="M13.60000000,26.00000000 c-3.313 0-6 2.686-6 6v4h6V26z" fill="#292F33" data-gender="neutral,male"/>
	<path d="M29.6 26v10h6v-4c0-3.314-2.685-6-6-6z" fill="#292F33" data-gender="neutral,male"/>
	<path d="M13.6 26h16v10h-16z" fill="#FFDC5D" data-skin="#F7DECE|#F3D2A2|#D4AB88|#AF7E57|#7C533E" data-gender="neutral,male"/>
	<path d="M21.75 25.917l-6.188.601 6.188 8.045 5.229-8.045z" fill="#FFDC5D" data-skin="#F7DECE|#F3D2A2|#D4AB88|#AF7E57|#7C533E" data-gender="female"/>
	<!-- collar -->
	<path d="M21.783 36h-9.001l-5.083-6.925s3.333-3.729 9.771-4.95c0 1.304-.988 3.337-.988 3.337l5.301 7.006V36z" fill="#FF7862" data-gender="neutral,male" data-gender-color="#8CC6EB|"/>
	<path d="M21.783 36h9.001l5.083-6.925s-3.333-3.729-9.771-4.95c0 1.304.988 3.337.988 3.337l-5.301 7.006V36z" fill="#FF7862" data-gender="neutral,male" data-gender-color="#8CC6EB|"/>
	<path d="M33.534 27.094s-2.453-1.665-4.656-2.447c-3.058-1.086-2.375 1.939-2.375 1.939s-3.82 6.429-4.72 7.883c0-.001 7.034-5.535 11.751-7.375z" fill="#DE2F33" data-gender="neutral,male" data-gender-color="#1D6398|"/>
	<path d="M10.03200000,27.09400000 s2.453-1.665 4.656-2.447c3.058-1.086 2.375 1.939 2.375 1.939s3.82 6.429 4.72 7.883c0-.001-7.035-5.535-11.751-7.375z" fill="#DE2F33" data-gender="neutral,male" data-gender-color="#1D6398|"/>
	<path d="M21.784 34.563s7.333-7.479 12.125-8.354c-4.083-3.417-10.125-3.042-10.125-3.042 0 1.224 1.988 1.368 1.988 2.882 0 2.485-3.09 6.703-3.989 8.067l.001.447z" fill="#FF5540" data-gender="neutral,male" data-gender-color="#4191CE|"/>
	<path d="M21.782 34.563s-7.333-7.479-12.125-8.354c4.083-3.417 10.125-3.042 10.125-3.042 0 1.224-1.988 1.368-1.988 2.882 0 2.485 3.09 6.703 3.989 8.067l-.001.447z" fill="#FF5540" data-gender="neutral,male" data-gender-color="#4191CE|"/>
	<path d="M21.749 36h-9.001c-4-3.5-5.083-6.5-5.083-6.5s3.333-3.5 9.771-4.646c0 1.224-.988 3.132-.988 3.132l5.301 6.576V36z" fill="#A88DC1" data-gender="female"/>
	<path d="M21.749 36h9.001c4-3.5 5.083-6.5 5.083-6.5S32.5 26 26.062 24.854c0 1.224.988 3.132.988 3.132l-5.301 6.576V36z" fill="#A88DC1" data-gender="female"/>
	<path d="M10.498 27.406s1.953-1.328 4.156-2.062c3.058-1.019 2.375 1.82 2.375 1.82s3.82 6.034 4.72 7.399c0 0-6.534-5.43-11.251-7.157z" fill="#7355A2" data-gender="female"/>
	<path d="M33 27.406s-1.953-1.328-4.156-2.062c-3.058-1.019-2.375 1.82-2.375 1.82s-3.82 6.034-4.72 7.399c0 0 6.534-5.43 11.251-7.157z" fill="#7355A2" data-gender="female"/>
	<path d="M21.748 34.563s-7.333-7.479-12.125-8.354c4.083-3.417 10.125-3.042 10.125-3.042 0 1.224-1.488 1.868-1.488 3.382 0 2.485 2.59 6.203 3.489 7.567l-.001.447z" fill="#522E8D" data-gender="female"/>
	<path d="M21.75 34.563s7.333-7.479 12.125-8.354c-4.083-3.417-10.125-3.042-10.125-3.042 0 1.224 1.488 1.868 1.488 3.382 0 2.485-2.59 6.203-3.489 7.567l.001.447z" fill="#522E8D" data-gender="female"/>
	<!-- back hair -->
	<path d="M33.702 11.938c.208-1.924-.128-3.959-2.262-5.42l-.004-.008c.751.196 1.524.581 2.234 1.362-1.301-3.789-5.222-6.067-9.318-6.723-2.05-.427-5.387-.171-6.414 1.164-2.944.057-5.397 2.759-6.001 6.212-.456 2.604.193 6.816 1.342 8.726 1.541 2.56 2.427-1.457 3.758-1.06 1.914 2.529 2.302 6.776 5.719 6.776 6.506 0 9.133-4.248 9.52-11.489.136.528.246 1.087.426 1.682.434 1.437 1.818 1.586 1.818 1.586s-1.032-.827-.818-2.808z" fill="#FF605E" data-gender="neutral"/>
	<path d="M30.877 21.749c-.175.369-.534.739-.736.93 1.969.427 3.359.946 3.359.946s-.483-.662-.694-1.875c-.074-.422-.391-.826-.458-1.375-.079-.651-.164-1.393-.208-2.208-.052-.951-.121-1.809-.083-2.958.289-8.89-6.256-11.23-10.36-11.23S10.459 6.036 10.748 14.926c.037 1.149.019 2.206-.032 3.157-.044.815-.113 1.553-.193 2.205-.067.549-.141 1.037-.215 1.459-.212 1.213-.417 1.879-.417 1.879s6.906-2.592 11.805-.958c2.234-.745 4.881-.609 7.105-.242.347-.098 1.437-.408 2.076-.677z" fill="#F4ABBA" data-gender="female"/>
	<!-- neck -->
	<path d="M17.782 26s.5 3.5 4 3.5 4-3.5 4-3.5v-4h-8v4z" fill="#FFDC5D" data-skin="#F7DECE|#F3D2A2|#D4AB88|#AF7E57|#7C533E" data-gender="neutral"/>
	<path d="M18.25 26.518c1.466 1.065 2.792.98 3.5.98s2.194.085 3.488-.949l.012-4.14h-7v4.109z" fill="#FFDB5E" data-skin="#F6DDCD|#F2D1A1|#D4AB88|#AE7E57|#7C543E" data-gender="female"/>
	<path d="M17.782 24c1.216 1.374 2.355 1.719 3.996 1.719 1.639 0 2.787-.346 4.004-1.719v-1.625h-8V24z" fill="#F9CA55" data-skin="#EEC2AD|#E2C196|#CC9B7A|#9B6A49|#664131" data-gender="neutral,male"/>
	<path d="M18.25 24.155c.975 1.102 2.185 1.4 3.499 1.4 1.315 0 2.526-.298 3.501-1.4v-2.801h-7v2.801z" fill="#F8C954" data-skin="#ECC0AC|#E0BF94|#CB9A7A|#9A6A4A|#674232" data-gender="female"/>
	<!-- face -->
	<path d="M29.342 11.243c-.646-.894-1.472-1.614-3.284-1.868.68.311 1.331 1.387 1.416 1.982.085.595.17 1.076-.368.481-2.155-2.382-4.502-1.444-6.827-2.899-1.624-1.016-2.119-2.141-2.119-2.141s-.198 1.5-2.661 3.029c-.714.443-1.566 1.43-2.038 2.888-.34 1.048-.234 1.982-.234 3.578 0 4.66 3.841 8.578 8.578 8.578s8.578-3.953 8.578-8.578c-.002-2.898-.305-4.03-1.041-5.05z" fill="#FFDC5D" data-skin="#F7DECE|#F3D2A2|#D4AB88|#AF7E57|#7C533E" data-gender="neutral"/>
	<path d="M30.057 12.577c.132-.625.214-1.508.214-2.634 0-3.212-3.264-7.067-8.489-7.067-5.877 0-8.489 3.855-8.489 7.067 0 .54.04.991.094 1.402-.809.16-1.438 1.253-1.438 2.591 0 1.33.621 2.417 1.423 2.587.077.59.199 1.163.358 1.714.044.152.096.298.146.447.228.683.51 1.332.851 1.932.197.346.415.672.645.987 1.559 2.127 3.848 3.477 6.411 3.477 4.707 0 8.523-4.531 8.523-10.121-.002-.822-.093-1.617-.249-2.382z" fill="#FFDB5E" data-skin="#F6DDCD|#F2D1A1|#D4AB88|#AE7E57|#7C543E" data-gender="male"/>
	<path d="M21.695 4.064c-4.535 0-8.211 4.729-8.211 10.563 0 1.358.206 2.636.569 3.805.049.157.099.312.153.464.237.663.529 1.284.866 1.859.206.352.429.686.669 1 1.496 1.959 3.608 3.157 5.954 3.157 4.533 0 8.209-4.452 8.209-10.285 0-5.834-3.676-10.563-8.209-10.563z" fill="#FFDB5E" data-skin="#F6DDCD|#F2D1A1|#D4AB88|#AE7E57|#7C543E" data-gender="female"/>
	<path d="M15.206 21.744l7.043-8.445-2.797.614 2.91-4.16c-.693-.16-1.39-.379-2.084-.814-1.203-.753-1.785-1.562-2.006-1.933l-4.543 11.231c.044.152.096.298.146.447l1.963-.805-1.236 3.033c.186.288.386.568.604.832z" fill="#DD2F45" data-gender="neutral"/>
	<path d="M19.452 13.913l2.581-3.69-4.362-1.775-3.943 9.789c.044.152.096.298.146.447l1.963-.805-1.113 2.738c.197.346.415.672.645.987l6.879-8.304-2.796.613z" fill="#DD2F45" data-gender="male"/>
	<path d="M19.766 14.133l2.581-3.69-4.362-1.775-3.933 9.764c.049.157.099.312.153.464l1.946-.798-1.08 2.657c.206.352.429.686.669 1l6.822-8.236-2.796.614z" fill="#DD2E44" data-gender="female"/>
	<path d="M31.492 8.021c.36.066.776.114 1.139.074-.602-.43-1.421-1.148-1.967-1.641-2.314-3.621-6.343-4.974-9.12-4.974-2.246 0-5.708 1.133-7.628 3.316S13.85 10 15.735 10.763c-.175-.924-.348-2.163-.194-3.17 1.022 1.039 2.682 2.078 5.319 2.574.391.122 1.878.647 3.063 1.885-.037-.761-.313-1.301-.529-1.616.295.012.574.034.887.034 2.285 0 3.816.985 4.446 2.888-.034.512-.19 1.771-.906 2.958.762-.248 1.185-.705 1.374-.96.494 1.429 1.717 2.622 1.717 2.622.562-3.938 2.094-4.135 1.226-7.964-.162-.719-.385-1.378-.646-1.993z" fill="#88C9F9" data-gender="male"/>
	<path d="M32.681 17.022c.003-1.113.003-1.269.003-2.315 0-2.237-.434-4.12-1.147-5.686.382.076.845.139 1.244.094-.779-.556-1.912-1.586-2.354-1.994-2.36-3.27-6.077-4.621-8.691-4.621-3.754 0-9.783 2.739-10.787 10.011l-.015-.111s-.84 2.042-1.461 3.114c.475-.155.974-.495 1.316-.758-.002.732-.018 1.244.009 3.153h.72c-.021-1-.044-.224-.044-.465 0-3.422 2.053.494 2.053-1.943 0-2.438 1.368-2.683 2.736-4.051.331-.331.821-.815 1.24-1.227 1.396.632 3.268 1.109 5.734 1.228.238.069 1.847.574 3.119 1.903-.042-.857-.384-1.432-.604-1.721 1.947.399 3.147 1.725 3.406 3.971l.011.072c-.014.374-.12 1.783-.914 3.1.686-.223 1.1-.619 1.314-.881 1.205 4.775 3.932 5.732 3.932 5.732-.555-2.414-.75-4.83-.82-6.605z" fill="#F4ABBA" data-gender="female"/>
	<path d="M15.194 14.845c0 1.448-.734 2.622-1.639 2.622s-1.639-1.174-1.639-2.622.734-2.623 1.639-2.623 1.639 1.175 1.639 2.623" fill="#FFDB5E" data-skin="#F6DDCD|#F2D1A1|#D4AB88|#AE7E57|#7C543E" data-gender="female"/>
	<!-- eyes -->
	<path d="M17.99 15.341c-.526 0-.953-.427-.953-.953v-.953c0-.526.427-.953.953-.953s.953.427.953.953v.953c.001.526-.426.953-.953.953z" fill="#662113" data-skin="#662113|#662113|#662113|#662113|#000000" data-gender="neutral"/>
	<path d="M25.61600000,15.34100000 c-.526 0-.953-.427-.953-.953v-.953c0-.526.427-.953.953-.953s.953.427.953.953v.953c0 .526-.427.953-.953.953z" fill="#662113" data-skin="#662113|#662113|#662113|#662113|#000000" data-gender="neutral"/>
	<path d="M25.782 15c-.55 0-1-.45-1-1v-1c0-.55.45-1 1-1s1 .45 1 1v1c0 .55-.451 1-1 1m-8 0c-.55 0-1-.45-1-1v-1c0-.55.45-1 1-1s1 .45 1 1v1c0 .55-.451 1-1 1" fill="#662213" data-skin="#662213|#662213|#662213|#662213|#000000" data-gender="male"/>
	<path d="M25.123 16.796c-.465 0-.846-.381-.846-.847v-.845c0-.465.381-.846.846-.846.465 0 .846.381.846.846v.845c0 .466-.381.847-.846.847m-6.765 0c-.465 0-.846-.381-.846-.847v-.845c0-.465.381-.846.846-.846.466 0 .847.381.847.846v.845c0 .466-.381.847-.847.847" fill="#662213" data-skin="#662213|#662213|#662213|#60352A|#000000" data-gender="female"/>
	<!-- nose/mouth -->
	<path d="M22.756 18.677H20.85c-.263 0-.477-.213-.477-.477s.213-.477.477-.477h1.906c.263 0 .477.213.477.477s-.213.477-.477.477z" fill="#C1694F" data-skin="#C1694F|#C1694F|#C1694F|#915A34|#3D2E24" data-gender="neutral"/>
	<path d="M21.782 21.802c-2.754 0-3.6-.705-3.741-.848-.256-.256-.256-.671 0-.927.248-.248.646-.255.902-.023.052.037.721.487 2.839.487 2.2 0 2.836-.485 2.842-.49.256-.255.657-.243.913.015.256.256.242.683-.014.938-.142.143-.987.848-3.741.848m.75-4.052h-1.5c-.413 0-.75-.337-.75-.75s.337-.75.75-.75h1.5c.413 0 .75.337.75.75s-.337.75-.75.75" fill="#C1694F" data-skin="#C1694F|#C1694F|#C1694F|#915B34|#3E2E24" data-gender="male"/>
	<path d="M22.586 19.409h-1.69c-.233 0-.423-.189-.423-.423v-.153c0-.233.189-.424.423-.424h1.69c.233 0 .424.19.424.424v.153c0 .234-.191.423-.424.423" fill="#C1694F" data-skin="#C1694F|#C1694F|#C1694F|#915B34|#3E2E24" data-gender="female"/>
	<path d="M21.929 22.657c-2.754 0-3.6-.705-3.741-.848-.256-.256-.256-.671 0-.927.248-.248.646-.255.902-.023.052.037.721.487 2.839.487 2.2 0 2.836-.485 2.842-.49.256-.255.657-.243.913.015.256.256.242.683-.014.939-.142.142-.987.847-3.741.847" fill="#C1694F" data-skin="#C1694F|#C1694F|#C1694F|#915A34|#3D2E24" data-gender="neutral"/>
	<path d="M21.695 22.452c-1.606 0-2.447-.794-2.537-.885-.268-.267-.268-.7 0-.967.266-.265.692-.267.961-.007.035.032.551.491 1.576.491 1.038 0 1.555-.473 1.576-.492.273-.256.703-.248.963.019.26.269.26.691-.004.955-.089.092-.929.886-2.535.886" fill="#DE2032" data-gender="female"/>
	<!-- microphone -->
	<path d="M10.363 20c-1.695 0-3.069 1.374-3.069 3.07 0 .478.119.925.314 1.328l-.232-.232c-.347-.347-.89-.327-1.212.045L.676 30.433c-.544.628-.798 1.643.011 2.452.809.809 1.807.574 2.454.013l.892-.815V36h1.784v-5.546l3.443-3.146c.372-.323.393-.865.045-1.211l-.271-.271c.404.196.851.315 1.33.315 1.696 0 3.07-1.374 3.07-3.07C13.433 21.374 12.058 20 10.363 20z" fill="#424143" data-gender="neutral,male"/>
	<path d="M10.513 20.292c-1.695 0-3.069 1.374-3.069 3.07 0 .478.119.925.314 1.328l-.232-.232c-.347-.347-.89-.327-1.212.045L.826 30.725c-.544.628-.798 1.643.011 2.452.809.809 1.807.574 2.454.013l.892-.815V36h1.784v-5.255l3.443-3.146c.372-.323.393-.865.045-1.211l-.271-.271c.404.196.851.315 1.33.315 1.696 0 3.07-1.374 3.07-3.07-.001-1.696-1.376-3.07-3.071-3.07z" fill="#424143" data-gender="female"/>
	<path d="M12.011 26.035c-.15.15-.393.15-.543 0l-4.07-4.07c-.15-.15-.15-.392 0-.542l.543-.543c.15-.15.393-.15.543 0l4.07 4.07c.15.15.15.393 0 .543l-.543.542z" fill="#59595C" data-gender="neutral,male"/>
	<path d="M12.161 26.327c-.15.15-.393.15-.543 0l-4.07-4.07c-.15-.15-.15-.392 0-.542l.543-.543c.15-.15.393-.15.543 0l4.07 4.07c.15.15.15.393 0 .543l-.543.542z" fill="#59595C" data-gender="female"/>
</svg>
