<svg viewBox="0 0 36 36" xmlns="http://www.w3.org/2000/svg" xmlns:ts="data:,a">
	<!-- body -->
	<path d="M27.875 26h-12c-3.313 0-7.125 2.186-7.125 5.5V36h26v-4.5c0-3.314-3.56-5.5-6.875-5.5z" fill="#292F33" ts:gender="female"/>
	<path d="M13.600,26 c-3.313 0-6 2.686-6 6v4h6V26z" fill="#292F33" ts:gender="neutral,male"/>
	<path d="M29.6 26v10h6v-4c0-3.314-2.685-6-6-6z" fill="#292F33" ts:gender="neutral,male"/>
	<path d="M13.6 26h16v10h-16z" ts:skin="skin" ts:gender="neutral,male"/>
	<!-- neck -->
	<path d="M21.75 25.917l-6.188.601 6.188 8.045 5.229-8.045z" ts:skin="skin" ts:gender="female"/>
	<!-- collar -->
	<path d="M21.783 36h-9.001l-5.083-6.925s3.333-3.729 9.771-4.95c0 1.304-.988 3.337-.988 3.337l5.301 7.006 l 5.301,-7.006 s -0.988,-2.033 -0.988,-3.337 c 6.438,1.221,9.771,4.95 9.771,4.95 l -5.083,6.925 h -9.001 Z" fill="#FF7862" ts:gender="neutral,male" ts:gender-color="#8CC6EB,"/>
	<path d="M21.749 36h-9.001c-4-3.5-5.083-6.5-5.083-6.5s3.333-3.5 9.771-4.646c0 1.224-.988 3.132-.988 3.132l5.301 6.576 l 5.301,-6.576 s -0.988,-1.908 -0.988,-3.132 c 6.438,1.146,9.771,4.646 9.771,4.646 s -1.083,3 -5.083,6.5 h -9.001 Z" fill="#A88DC1" ts:gender="female"/>
	
	
	<path d="M33.534 27.094s-2.453-1.665-4.656-2.447c-3.058-1.086-2.375 1.939-2.375 1.939s-3.82 6.429-4.72 7.883c0-.001 7.034-5.535 11.751-7.375z" fill="#DE2F33" ts:gender="neutral,male" ts:gender-color="#1D6398,"/><path d="M10.032,27.094 s2.453-1.665 4.656-2.447c3.058-1.086 2.375 1.939 2.375 1.939s3.82 6.429 4.72 7.883c0-.001-7.035-5.535-11.751-7.375z" fill="#DE2F33" ts:gender="neutral,male" ts:gender-color="#1D6398,#7355A2"/>
	<path d="M10.498 27.406s1.953-1.328 4.156-2.062c3.058-1.019 2.375 1.82 2.375 1.82s3.82 6.034 4.72 7.399c0 0-6.534-5.43-11.251-7.157z" fill="#7355A2" ts:gender="female"/><path d="M33 27.406s-1.953-1.328-4.156-2.062c-3.058-1.019-2.375 1.82-2.375 1.82s-3.82 6.034-4.72 7.399c0 0 6.534-5.43 11.251-7.157z" fill="#7355A2" ts:gender="female"/>
	
	<!-- these can be reused for all variants if we change the bottom of the neck to an overlay only -->
	<path d="M21.782 34.563 h-0.001 s-7.333-7.479-12.125-8.354c4.083-3.417 10.125-3.042 10.125-3.042 0 1.224-1.988 1.368-1.988 2.882 0 2.485 3.09 6.703 3.989 8.067 c 0.899,-1.364,3.989,-5.582 3.989,-8.067 c 0,-1.514,-1.988,-1.658 -1.988,-2.882 c 0,0,6.042,-0.375 10.125,3.042 c -4.792,0.875,-12.125,8.354 -12.125,8.354 h -0.001 Z" fill="#FF5540" ts:gender="neutral,male" ts:gender-color="#4191CE,#522E8D"/>
	<path d="M21.748 34.563s-7.333-7.479-12.125-8.354c4.083-3.417 10.125-3.042 10.125-3.042 0 1.224-1.488 1.868-1.488 3.382 0 2.485 2.59 6.203 3.489 7.567 c 0.899,-1.364,3.489,-5.082 3.489,-7.567 c 0,-1.514,-1.488,-2.158 -1.488,-3.382 c 0,0,6.042,-0.375 10.125,3.042 c -4.792,0.875,-12.125,8.354 -12.125,8.354 h -0.002 Z" fill="#522E8D" ts:gender="female"/>
	
	<!-- back hair -->
	<path d="M33.702 11.938c.208-1.924-.128-3.959-2.262-5.42l-.004-.008c.751.196 1.524.581 2.234 1.362-1.301-3.789-5.222-6.067-9.318-6.723-2.05-.427-5.387-.171-6.414 1.164-2.944.057-5.397 2.759-6.001 6.212-.456 2.604.193 6.816 1.342 8.726 1.541 2.56 2.427-1.457 3.758-1.06 1.914 2.529 2.302 6.776 5.719 6.776 6.506 0 9.133-4.248 9.52-11.489.136.528.246 1.087.426 1.682.434 1.437 1.818 1.586 1.818 1.586s-1.032-.827-.818-2.808z" fill="#FF605E" ts:gender="neutral"/>
	<path d="M30.877 21.749c-.175.369-.534.739-.736.93 1.969.427 3.359.946 3.359.946s-.483-.662-.694-1.875c-.074-.422-.391-.826-.458-1.375-.079-.651-.164-1.393-.208-2.208-.052-.951-.121-1.809-.083-2.958.289-8.89-6.256-11.23-10.36-11.23S10.459 6.036 10.748 14.926c.037 1.149.019 2.206-.032 3.157-.044.815-.113 1.553-.193 2.205-.067.549-.141 1.037-.215 1.459-.212 1.213-.417 1.879-.417 1.879s6.906-2.592 11.805-.958c2.234-.745 4.881-.609 7.105-.242.347-.098 1.437-.408 2.076-.677z" fill="#F4ABBA" ts:gender="female"/>
	<!-- neck -->
	<path d="M17.782 26s.5 3.5 4 3.5 4-3.5 4-3.5v-4h-8v4z" ts:skin="skin" ts:gender="neutral,male"/>
	<path d="M18.25 26.518c1.466 1.065 2.792.98 3.5.98s2.194.085 3.488-.949l.012-4.14h-7v4.109z" ts:skin="skin" ts:gender="female"/>
	
	<path d="M17.782 24c1.216 1.374 2.355 1.719 3.996 1.719 1.639 0 2.787-.346 4.004-1.719v-1.625h-8V24z" ts:skin="dark" ts:gender="neutral,male"/>
	<path d="M18.25 24.155c.975 1.102 2.185 1.4 3.499 1.4 1.315 0 2.526-.298 3.501-1.4v-2.801h-7v2.801z" ts:skin="dark" ts:gender="female"/>
	<!-- face -->
	<path d="M29.342 11.243c-.646-.894-1.472-1.614-3.284-1.868.68.311 1.331 1.387 1.416 1.982.085.595.17 1.076-.368.481-2.155-2.382-4.502-1.444-6.827-2.899-1.624-1.016-2.119-2.141-2.119-2.141s-.198 1.5-2.661 3.029c-.714.443-1.566 1.43-2.038 2.888-.34 1.048-.234 1.982-.234 3.578 0 4.66 3.841 8.578 8.578 8.578s8.578-3.953 8.578-8.578c-.002-2.898-.305-4.03-1.041-5.05z" ts:skin="skin" ts:gender="neutral"/>
	<path d="M30.057 12.577c.132-.625.214-1.508.214-2.634 0-3.212-3.264-7.067-8.489-7.067-5.877 0-8.489 3.855-8.489 7.067 0 .54.04.991.094 1.402-.809.16-1.438 1.253-1.438 2.591 0 1.33.621 2.417 1.423 2.587.077.59.199 1.163.358 1.714.044.152.096.298.146.447.228.683.51 1.332.851 1.932.197.346.415.672.645.987 1.559 2.127 3.848 3.477 6.411 3.477 4.707 0 8.523-4.531 8.523-10.121-.002-.822-.093-1.617-.249-2.382z" ts:skin="skin" ts:gender="male"/>
	<path d="M21.695 4.064c-4.535 0-8.211 4.729-8.211 10.563 0 1.358.206 2.636.569 3.805.049.157.099.312.153.464.237.663.529 1.284.866 1.859.206.352.429.686.669 1 1.496 1.959 3.608 3.157 5.954 3.157 4.533 0 8.209-4.452 8.209-10.285 0-5.834-3.676-10.563-8.209-10.563z" ts:skin="skin" ts:gender="female"/>
	<!-- face paint -->
	<path d="M15.206 21.744l7.043-8.445-2.797.614 2.91-4.16c-.693-.16-1.39-.379-2.084-.814-1.203-.753-1.785-1.562-2.006-1.933l-4.543 11.231c.044.152.096.298.146.447l1.963-.805-1.236 3.033c.186.288.386.568.604.832z" fill="#DD2E44" ts:gender="neutral"/>
	<path d="M19.452 13.913l2.581-3.69-4.362-1.775-3.943 9.789c.044.152.096.298.146.447l1.963-.805-1.113 2.738c.197.346.415.672.645.987l6.879-8.304-2.796.613z" fill="#DD2E44" ts:gender="male"/>
	<path d="M19.766 14.133l2.581-3.69-4.362-1.775-3.933 9.764c.049.157.099.312.153.464l1.946-.798-1.08 2.657c.206.352.429.686.669 1l6.822-8.236-2.796.614z" fill="#DD2E44" ts:gender="female"/>
	<!-- hair -->
	<path d="M31.492 8.021c.36.066.776.114 1.139.074-.602-.43-1.421-1.148-1.967-1.641-2.314-3.621-6.343-4.974-9.12-4.974-2.246 0-5.708 1.133-7.628 3.316S13.85 10 15.735 10.763c-.175-.924-.348-2.163-.194-3.17 1.022 1.039 2.682 2.078 5.319 2.574.391.122 1.878.647 3.063 1.885-.037-.761-.313-1.301-.529-1.616.295.012.574.034.887.034 2.285 0 3.816.985 4.446 2.888-.034.512-.19 1.771-.906 2.958.762-.248 1.185-.705 1.374-.96.494 1.429 1.717 2.622 1.717 2.622.562-3.938 2.094-4.135 1.226-7.964-.162-.719-.385-1.378-.646-1.993z" fill="#88C9F9" ts:gender="male"/>
	<path d="M32.681 17.022c.003-1.113.003-1.269.003-2.315 0-2.237-.434-4.12-1.147-5.686.382.076.845.139 1.244.094-.779-.556-1.912-1.586-2.354-1.994-2.36-3.27-6.077-4.621-8.691-4.621-3.754 0-9.783 2.739-10.787 10.011l-.015-.111s-.84 2.042-1.461 3.114c.475-.155.974-.495 1.316-.758-.002.732-.018 1.244.009 3.153h.72c-.021-1-.044-.224-.044-.465 0-3.422 2.053.494 2.053-1.943 0-2.438 1.368-2.683 2.736-4.051.331-.331.821-.815 1.24-1.227 1.396.632 3.268 1.109 5.734 1.228.238.069 1.847.574 3.119 1.903-.042-.857-.384-1.432-.604-1.721 1.947.399 3.147 1.725 3.406 3.971l.011.072c-.014.374-.12 1.783-.914 3.1.686-.223 1.1-.619 1.314-.881 1.205 4.775 3.932 5.732 3.932 5.732-.555-2.414-.75-4.83-.82-6.605z" fill="#F4ABBA" ts:gender="female"/>
	<!-- ear -->
	<ellipse cx="13.555" cy="14.8445" rx="1.639" ry="2.6225" ts:skin="skin" ts:gender="female"/>
	<!-- eyes -->
	<use href="defs.svg#eyes_neutral" x="21.803" y="13.9115" ts:skin="eyes2" ts:gender="neutral"/>
	<use href="defs.svg#eyes_male" x="21.782" y="13.5" ts:skin="eyes2" ts:gender="male"/>
	<use href="defs.svg#eyes_female" x="21.74075" y="15.527" ts:skin="eyes" ts:gender="female"/>
	<!-- nose -->
	<use href="defs.svg#nose_neutral" x="21.803" y="18.2" ts:skin="nose" ts:gender="neutral"/>
	<use href="defs.svg#nose_male" x="21.782" y="17.0" ts:skin="nose" ts:gender="male"/>
	<use href="defs.svg#nose_female" x="21.7415" y="18.909" ts:skin="nose" ts:gender="female"/>
	<!-- mouth -->
	<use href="defs.svg#mouth_neutral" x="21.929" y="22.657" ts:skin="nose" ts:gender="neutral"/>
	<use href="defs.svg#mouth_neutral" x="21.782" y="21.802" ts:skin="nose" ts:gender="male"/>
	<use href="defs.svg#mouth_female" x="21.695" y="22.452" fill="#DF1F32" ts:gender="female"/>
	<!-- microphone -->
	<path d="M10.363 20c-1.695 0-3.069 1.374-3.069 3.07 0 .478.119.925.314 1.328l-.232-.232c-.347-.347-.89-.327-1.212.045L.676 30.433c-.544.628-.798 1.643.011 2.452.809.809 1.807.574 2.454.013l.892-.815V36h1.784v-5.546l3.443-3.146c.372-.323.393-.865.045-1.211l-.271-.271c.404.196.851.315 1.33.315 1.696 0 3.07-1.374 3.07-3.07C13.433 21.374 12.058 20 10.363 20z" fill="#424143" ts:gender="neutral,male"/>
	<path d="M10.513 20.292c-1.695 0-3.069 1.374-3.069 3.07 0 .478.119.925.314 1.328l-.232-.232c-.347-.347-.89-.327-1.212.045L.826 30.725c-.544.628-.798 1.643.011 2.452.809.809 1.807.574 2.454.013l.892-.815V36h1.784v-5.255l3.443-3.146c.372-.323.393-.865.045-1.211l-.271-.271c.404.196.851.315 1.33.315 1.696 0 3.07-1.374 3.07-3.07-.001-1.696-1.376-3.07-3.071-3.07z" fill="#424143" ts:gender="female"/>
	<path d="M12.011 26.035c-.15.15-.393.15-.543 0l-4.07-4.07c-.15-.15-.15-.392 0-.542l.543-.543c.15-.15.393-.15.543 0l4.07 4.07c.15.15.15.393 0 .543l-.543.542z" fill="#59595C" ts:gender="neutral,male"/>
	<path d="M12.161 26.327c-.15.15-.393.15-.543 0l-4.07-4.07c-.15-.15-.15-.392 0-.542l.543-.543c.15-.15.393-.15.543 0l4.07 4.07c.15.15.15.393 0 .543l-.543.542z" fill="#59595C" ts:gender="female"/>
</svg>
