<svg viewBox="0 0 36 36" xmlns="http://www.w3.org/2000/svg" xmlns:ts="data:,a">
	<!-- back hair -->
	<use href="defs.svg#hair_neutral_narrow" x="21.152" y="3.3" ts:skin="hair" ts:gender="neutral"/>
	<use href="defs.svg#hair_back_female" x="17.944" y="5.069" ts:skin="hair" ts:gender="female"/>
	<!-- body -->
	<use href="defs.svg#shoulders_male" x="18" fill="#292F33" ts:gender="neutral,male"/>
	<use href="defs.svg#shoulders_female" x="18" fill="#292F33" ts:gender="female"/>
	<!-- lines (shared with Judge) -->
	<path d="M 8.083,33.341 c .251,0  .401,2.659  .401,2.659 h-.956 s .193,-2.659  .555,-2.659 Z" fill="#66757F"/>
	<path d="M11.083,33.341 c .251,0  .401,2.659  .401,2.659 h-.956 s .193,-2.659  .555,-2.659 Z" fill="#66757F"/>
	<path d="M24.929,33.341 c-.251,0 -.401,2.659 -.401,2.659 h .956 s-.193,-2.659 -.555,-2.659 Z" fill="#66757F"/>
	<path d="M27.929,33.341 c-.251,0 -.401,2.659 -.401,2.659 h .956 s-.193,-2.659 -.555,-2.659 Z" fill="#66757F"/>
	<!-- shirt -->
	<path d="M12.38 28s.24.838.77 1.971c.827 1.766 2.366 4.254 4.85 5.441 2.485-1.187 4.024-3.675 4.85-5.441.53-1.133.77-1.971.77-1.971H12.38z" fill="#FA743E" ts:gender="neutral,male" ts:gender-color="#77B255,"/>
	<path d="M18 34.411C22.078 32.463 23.62 27 23.62 27H12.38s1.542 5.463 5.62 7.411z" fill="#9266CC" ts:gender="female"/>
	
	<path d="M18 32c2.329 0 3.882-1.02 4.85-2.029.53-1.133.77-1.971.77-1.971H12.38s.24.838.77 1.971C14.118 30.98 15.671 32 18 32z" fill="#DD551F" ts:gender="neutral,male" ts:gender-color="#5C913B,"/>
	<path d="M13 27h9.875s-1.256 3.5-4.938 3.5S13 27 13 27" fill="#744EAA" ts:gender="female"/>
	<!-- neck -->
	<path d="M13.64 28.106c0 .894 2.36 1.993 4.36 1.993s4.359-1.099 4.359-1.992V24.29h-8.72v3.816z" ts:skin="skin" ts:gender="neutral,male"/>
	<path d="M14.328 27.02C14.328 28.5 16.5 29 18 29s3.66-.5 3.66-1.98v-3.205h-7.332v3.205z" ts:skin="skin" ts:gender="female"/>
	
	<use href="defs.svg#neck_shadow_male" x="17.996" y="27.719" ts:skin="dark" ts:gender="neutral,male"/>
	<use href="defs.svg#neck_shadow_female" x="17.99" y="26.647" ts:skin="dark" ts:gender="female"/>
	<!-- head -->
	<use href="defs.svg#face_neutral" x="25.547" y="13.244" ts:skin="skin" ts:gender="neutral"/>
	<use href="defs.svg#face_male" x="18" y="16.959" ts:skin="skin" ts:gender="male"/>
	<use href="defs.svg#face_female" x="9.734" y="15.717" ts:skin="skin" ts:gender="female"/>
	<!-- hair -->
	<path d="M18 3c5.648 0 9.178 4.648 9.178 8.121 0 3.473-.971 4.968-1.412 3.473C25 12 24 12 24 12s-3.882 1.538-5.294.148c0 0 2.118 4.168-2.118 0 0 0 .706 2.779-3.53-.694 0 0-2.118-.333-2.824 3.14-.196.964-1.412 0-1.412-3.473S11.646 3 18 3" ts:skin="hair" ts:gender="male"/> <!-- special -->
	<use href="defs.svg#hair_front_female" x="17.944" y="5.069" ts:skin="hair" ts:gender="female"/>
	<use href="defs.svg#ears_female" x="18" y="15.9355" ts:skin="skin" ts:gender="female"/>
	<!-- eyes -->
	<use href="defs.svg#eyes_neutral" x="18.008" y="15.9115" ts:skin="eyes2" ts:gender="neutral"/>
	<use href="defs.svg#eyes_male" x="18" y="15.5" ts:skin="eyes" ts:gender="male"/>
	<use href="defs.svg#eyes_female" x="17.99075" y="16.6175" ts:skin="eyes" ts:gender="female"/>
	<!-- nose -->
	<use href="defs.svg#nose_neutral" x="18.008" y="20.2" ts:skin="nose" ts:gender="neutral"/>
	<use href="defs.svg#nose_male" x="18.0" y="19.0" ts:skin="nose" ts:gender="male"/>
	<use href="defs.svg#nose_female" x="17.9915" y="20.0" ry="0.4235" ts:skin="nose" ts:gender="female"/>
	<!-- mouth -->
	<use href="defs.svg#mouth_neutral" x="18.134" y="24.657" ts:skin="nose" ts:gender="neutral"/>
	<use href="defs.svg#mouth_neutral" x="18" y="23.802" ts:skin="nose" ts:gender="male"/>
	<use href="defs.svg#mouth_female" x="17.944" y="23.543" ts:skin="mouth" ts:gender="female"/>
	<!-- hat -->
	<path d="M32.104 3.511l-14-3c-.068-.015-.14-.015-.209 0l-14 3c-.224.048-.387.243-.395.472-.007.229.142.434.363.498l4.944 1.413C8.615 6.489 8.5 7.176 8.5 8c0 2.29 3.285 3.5 9.5 3.5s9.5-1.21 9.5-3.5c0-.824-.115-1.511-.307-2.106l4.945-1.413c.221-.063.37-.269.362-.498-.008-.229-.171-.424-.396-.472z" fill="#292F33"/>
	<path d="M32.48 3.863c-.076-.265-.35-.417-.618-.344L18 7.48 4.137 3.519c-.262-.073-.542.078-.618.344-.076.265.078.542.344.618l14 4c.045.013.091.019.136.019.045 0 .092-.006.137-.019l14-4c.267-.076.421-.353.344-.618z" fill="#66757F"/>
	<path d="M17.958 3.502l-12 1c-.026.002-.458.057-.458.498v6.095c-.299.186-.5.74-.5 2.405 0 2.485.448 4.5 1 4.5s1-2.015 1-4.5c0-1.665-.201-2.219-.5-2.405V5.46l11.542-.962c.274-.023.479-.264.456-.54-.023-.275-.268-.482-.54-.456z" fill="#FFCC4D"/>
</svg>
