<svg viewBox="0 0 36 36" xmlns="http://www.w3.org/2000/svg" xmlns:ts="data:,a">
	<!-- back hair -->
	<path d="M21.69 2.615c-1.904-.616-6.384-.448-7.504 1.008-2.912.056-6.328 2.688-6.776 6.16-.443 3.437.545 5.032.896 7.616.398 2.928 2.044 3.864 3.36 4.256 1.893 2.501 3.906 2.394 7.285 2.394 6.599 0 9.742-4.415 10.02-11.915.168-4.535-2.494-7.971-7.281-9.519z" fill="#FFAC33" ts:skin="hair" ts:gender="neutral"/> <!-- scaled -->
	<path d="M8.115 16.988c0 2.848 2.876 7.967 9.795 7.967s9.665-4.837 9.665-9.055c0-1.127-4.043-3.61-9.575-3.61s-9.885 2.625-9.885 4.698z" fill="#FFAC33" ts:skin="hair" ts:gender="female"/>
	<!-- cape back -->
	<!--<path d="M18 36H1s.067-3.204 1.554-5.579C6.465 24.179 18 31 18 31v5z" fill="#A0041E" ts:gender="neutral"/>
	<path d="M17.992 36h17s-.067-3.204-1.554-5.579c-3.91-6.242-15.446.579-15.446.579v5z" fill="#A0041E" ts:gender="neutral"/>-->
	<path d="M1 36s.067-3.204 1.554-5.579C6.465 24.179 18 31 18 31 h-0.008 s11.536 -6.821 15.446 -.579 C 34.925 32.796 34.992 36 34.992 36 H1 z" fill="#A0041E" ts:gender="neutral"/>
	<path d="M33.035 28.055c-3.843-2.612-14.989 2.92-15.037 2.944-.047-.024-11.193-5.556-15.037-2.944C-.021 30.082 0 36 0 36h35.996s.021-5.918-2.961-7.945z" fill="#A0041E" ts:gender="male"/>
	<path d="M29.627 28.35C26.627 26.351 18 31 18 31s-8.627-4.649-11.627-2.65C3.373 30.35 1 36 1 36h34s-2.373-5.65-5.373-7.65z" fill="#A0041E" ts:gender="female"/>
	<!-- body -->
	<path d="M27.992 29H8c-3 0-4.952 3.5-4 7h27.992c.953-3.5-1-7-4-7z" fill="#55ACEE" ts:gender="neutral"/>
	<path d="M32 29c-2.155-1.085-4 0-4 0l-10-1-10 1s-1.845-1.085-4 0c-3.995 2.011-2 7-2 7h32s1.995-4.989-2-7z" fill="#55ACEE" ts:gender="male"/>
	<path d="M28 29H8c-3 0-4 7-4 7h28s-1-7-4-7z" fill="#55ACEE" ts:gender="female"/>
	<!-- neck -->
	<path d="M14.269 30.041c1.466 1.065 2.964.98 3.672.98s2.194.085 3.66-.98v-5.664h-7.332v5.664z" fill="#FFDC5D" ts:skin="skin" ts:gender="neutral"/>
	<path d="M13.64 28.537C15.384 29.805 16.487 30.5 18 30.5c1.512 0 2.615-.696 4.359-1.963V24.29h-8.72v4.247z" fill="#FFDC5D" ts:skin="skin" ts:gender="male"/>
	<path d="M14.33 30.02c1.466 1.065 3.666.98 3.666.98s2.201.085 3.667-.98v-5.664H14.33v5.664z" fill="#FFDC5D" ts:skin="skin" ts:gender="female"/>
	<!-- cape front -->
	<path d="M18 31.022S13 31 11 32c0 0-1.319-2.978-3.703-3.325-2.955-.43-4.742 1.746-4.742 1.746s.884-1.785 2.915-2.796c1.968-.979 4.038.075 4.038.075s1.2-.739 2.2-.739c1.066 0 2.095.094 2.667.914.719 1.031 2.625 3.147 3.625 3.147z" fill="#DD2E44" ts:gender="neutral"/>
	<path d="M17.992 31.022s5-.022 7 .978c0 0 1.319-2.978 3.703-3.325 2.955-.43 4.742 1.746 4.742 1.746s-.884-1.785-2.915-2.796c-1.968-.979-4.038.074-4.038.074s-1.2-.739-2.2-.739c-1.066 0-2.095.094-2.667.914-.718 1.032-2.625 3.148-3.625 3.148z" fill="#DD2E44" ts:gender="neutral"/>
	
	<path d="M30.453 27c-1.953-.266-3.594.547-3.594.547s-.845-.594-1.845-.614c-1.469-.03-2.442.935-3.014 1.755C21.281 29.719 19 30 18 30s-3.281-.281-4-1.312c-.572-.82-1.545-1.784-3.014-1.755-1 .02-1.845.614-1.845.614S7.5 26.734 5.547 27c-1.305.177-2.357.764-2.846 1.248 2.83-1.685 4.757-.229 6.065.643C10.074 29.763 11 32 11 32c2-1 7-1 7-1s5 0 7 1c0 0 .926-2.237 2.234-3.109 1.308-.872 3.234-2.328 6.065-.643-.489-.484-1.541-1.071-2.846-1.248z" fill="#DD2E44" ts:gender="male"/>
	
	<path d="M14.375 27.875c-.572-.82-1.601-.914-2.667-.914-1 0-1.708.768-1.708.768s-1.5-.764-3.068-.021C5.124 28.565 4 30.683 4 30.683S6 29 8 29s3 3 3 3c2-1 7-1 7-1-1 0-2.906-2.094-3.625-3.125z" fill="#DD2E44" ts:gender="female"/>
	<path d="M29.068,27.708 c-1.568-.743-3.068.021-3.068.021s-.708-.768-1.708-.768c-1.066 0-2.095.094-2.667.914C20.906 28.906 19 31 18 31c0 0 5 0 7 1 0 0 1-3 3-3s4 1.683 4 1.683-1.124-2.118-2.932-2.975z" fill="#DD2E44" ts:gender="female"/>
	
	<path d="M24.056 36c-1.211-1.194-3.466-2-6.056-2s-4.845.806-6.056 2h12.112z" fill="#DD2E44"/>
	<!-- neck shadow -->
	<path d="M14.264 25.179c1.022 1.155 2.29 1.468 3.668 1.468 1.379 0 2.647-.312 3.67-1.468v-2.936h-7.338v2.936z" fill="#F9CA55" ts:skin="dark" ts:gender="neutral,female"/>
	<path d="M13.632 25.5c.368 2.027 2.724 2.219 4.364 2.219 1.639 0 4.004-.191 4.363-2.219v-3.019h-8.728V25.5z" fill="#F9CA55" ts:skin="dark" ts:gender="male"/>
	<!-- head -->
	<path d="M25.464 12.456c-.639-.884-1.456-1.596-3.248-1.848.672.308 1.316 1.372 1.4 1.96.084.588.168 1.064-.364.476-2.131-2.356-4.452-1.428-6.753-2.867-1.607-1.005-2.096-2.117-2.096-2.117s-.196 1.484-2.632 2.996c-.706.438-1.549 1.415-2.016 2.856-.336 1.036-.232 1.96-.232 3.539 0 4.609 3.799 8.485 8.485 8.485s8.485-3.909 8.485-8.485c-.001-2.867-.301-3.987-1.029-4.995z" fill="#FFDC5D" ts:skin="skin" ts:gender="neutral"/>
	<path d="M11.444 15.936c0 1.448-.734 2.622-1.639 2.622s-1.639-1.174-1.639-2.622.734-2.623 1.639-2.623c.905-.001 1.639 1.174 1.639 2.623m16.389 0c0 1.448-.733 2.622-1.639 2.622-.905 0-1.639-1.174-1.639-2.622s.733-2.623 1.639-2.623c.906-.001 1.639 1.174 1.639 2.623" fill="#FFDC5D" ts:skin="skin" ts:gender="male"/>
	<path d="M18 7c-5 0-8 2-8 5s0 9 2 12 4 3 6 3 4 0 6-3 2-9 2-12-3-5-8-5z" fill="#FFDC5D" ts:skin="skin" ts:gender="male"/>
	<path d="M9.675 15.718c0 5.833 3.676 10.285 8.211 10.285 4.533 0 8.209-4.452 8.209-10.285 0-5.834-3.676-10.563-8.209-10.563-4.534-.001-8.211 4.729-8.211 10.563" fill="#FFDC5D" ts:skin="skin" ts:gender="female"/>
	<!-- hair -->
	<path d="M18.821 3.118c6.004.49 8.356 4.246 8.356 7.851 0 3.604-.706 5.047-1.412 3.604-.706-1.441-1.356-3.368-1.356-3.368s-4.292.485-5.704-.957c0 0 2.118 4.326-2.118 0 0 0 .706 2.884-3.53-.72 0 0-2.118 1.442-2.824 5.046-.196 1.001-1.412 0-1.412-3.604.001-2.677.179-6.652 4.908-6.17 1.028-1.639 3.018-1.851 5.092-1.682z" fill="#FFAC33" ts:skin="hair" ts:gender="male"/>
	<path d="M13.556 5.93S11 4 8 6s-1 6-1 6-2 1-2 3 2 3 2 3-1 1-1 2 2 2.001 2 3.001-2 2-2 2 4 0 4-2S8 15 14 11c0 0 3 1 5 1s7 1 7 4v7.001c0 1 2 2 3 2 0 0-1.077-.962-1.077-1.962s2.482-2.962 2.482-4.962S29 15 29 15s2-3 1-5-3.557-2.372-3.557-2.372-.048-3.136-3.048-4.136-5.877 1.001-5.877 1.001-1.524-1.306-2.786-.784c-1.307.541-1.176 2.221-1.176 2.221z" fill="#FFAC33" ts:skin="hair" ts:gender="female"/>
	<!-- mask -->
	<path d="M24.523 13c-2.796 0-4.66.857-6.523.857S14.272 13 11.477 13c-2.796 0-.932 4.903 0 5.76s4.66-.857 6.523-.857 5.591 1.714 6.523.857 2.796-5.76 0-5.76z" fill="#269" ts:gender="neutral,female"/>
	<path d="M25 12c-3 0-5 1-7 1s-4-1-7-1-1 5.72 0 6.72 5-1 7-1 6 2 7 1S28 12 25 12z" fill="#269" ts:gender="male"/>
	<!-- eyes -->
	<rect x="13.654" y="14.731" width="1.693" height="2.538" rx="0.8465" fill="#88C9F9" ts:gender="neutral,female"/><rect x="20.654" y="14.731" width="1.692" height="2.538" rx="0.846" ry="0.8465" fill="#88C9F9" ts:gender="neutral,female"/>
	<rect x="13" y="14" width="2" height="3" rx="1" fill="#88C9F9" ts:gender="male"/><rect x="21" y="14" width="2" height="3" rx="1" fill="#88C9F9" ts:gender="male"/>
	<!-- nose -->
	<use href="defs.svg#nose_female2" x="17.9325" y="20.0" fill="#C1694F" ts:skin="nose" ts:gender="neutral,female"/>
	<use href="defs.svg#nose_male2" x="18.0" y="19.0" fill="#C1694F" ts:skin="nose" ts:gender="male"/>
	<!-- mouth -->
	<use href="defs.svg#mouth_female" x="17.887" y="23.543" fill="#C1694F" ts:skin="nose" ts:gender="neutral"/>
	<path d="M18 23.25c-2.058 0-3.594-.504-3.658-.525-.262-.088-.403-.37-.316-.632.086-.262.366-.407.632-.317.014.004 1.455.474 3.342.474s3.328-.47 3.343-.475c.257-.087.544.055.632.317.087.262-.055.544-.316.632-.065.022-1.601.526-3.659.526z" fill="#C1694F" ts:skin="nose" ts:gender="male"/> <!-- thin -->
	<use href="defs.svg#mouth_female" x="17.887" y="23.543" fill="#DF1F32" ts:gender="female"/>
</svg>
