<svg viewBox="0 0 36 36" xmlns="http://www.w3.org/2000/svg" xmlns:ts="data:,a">
	<!-- body -->
	<path d="M28 29c-2.999-.061-17.001-.061-20 0-6.412.131-5 7-5 7h30s1.412-6.869-5-7z" fill="#292F33" ts:gender="neutral"/>
	<path d="M32 29c-2.155-1.085-25.845-1.085-28 0-3.995 2.011-2 7-2 7h32s1.995-4.989-2-7z" fill="#292F33" ts:gender="male"/>
	<path d="M28 29H8c-3 0-4 7-4 7h28s-1-7-4-7z" fill="#292F33" ts:gender="female"/>
	<!-- back hair -->
	<path d="M18 5c4 0 5.309.433 5.309.433S23.267 4.004 21.999 3c0 0 3 .999 3 2.999 0 0 4 0 5 3C29.999 9 29 8 27 8c0 0 2.117 1.839 2.446 6.05.329 4.212-1 8-1 8s.101-.854-.899-1.854c0 0-.338 2.829-2.977 4.826 0 0-1.026-1.606-3.026-2.606S16 21 14 23l-3 3s-4-4-4-10S12 5 18 5z" fill="#FFAC33" ts:skin="hair" ts:gender="female"/>
	<!-- neck -->
	<path d="M14.269 29.479c1.466 1.065 2.964.98 3.672.98s2.194.085 3.66-.98v-5.664h-7.332v5.664z" fill="#FFDC5D" ts:skin="skin" ts:gender="neutral,female"/>
	<path d="M13.64 28.101c1.744 1.268 2.848 1.963 4.36 1.963 1.512 0 2.615-.696 4.359-1.963V24.29h-8.72v3.811z" fill="#FFDC5D" ts:skin="skin" ts:gender="male"/>
	<path d="M14.264 25.179c1.022 1.155 2.29 1.468 3.668 1.468 1.379 0 2.647-.312 3.67-1.468v-2.936h-7.338v2.936z" fill="#F9CA55" ts:skin="dark" ts:gender="neutral,female"/>
	<path d="M13.632 25.5c.368 2.027 2.724 2.219 4.364 2.219 1.639 0 4.004-.191 4.363-2.219v-3.019h-8.728V25.5z" fill="#F9CA55" ts:skin="dark" ts:gender="male"/>
	<!-- mistake (extra head layer behind face+hair) -->
	<path d="M9.675 15.718c0-5.834 3.676-10.563 8.211-10.563 4.533 0 8.209 4.729 8.209 10.563 0 5.833-3.676 10.285-8.209 10.285-4.534 0-8.211-4.452-8.211-10.285" fill="#FFDC5D" ts:skin="skin" ts:gender="neutral"/>
	<path d="M27 5c2 0 2.999 1 2.999 1-1-3-5-3-5-3C24.051.796 22.427.796 22.427.796c.872.69.882 1.638.882 1.638l-.05.009C21.991 1.628 19.035.281 14 1c0 0 2 0 3 1 0 0-7-1-10 4 0 0 1.47-1.455 3.775-1.248-1.703 1.097-3.092 2.905-3.366 5.031-.443 3.437.545 5.032.896 7.616.398 2.928 2.044 3.864 3.36 4.256 1.893 2.501 3.906 2.394 7.285 2.394 4.715 0 7.657-2.264 9.059-6.287.491.734.436 1.288.436 1.288s1.329-3.788 1-8C29.117 6.839 27 5 27 5z" fill="#FFAC33" ts:skin="hair" ts:gender="neutral"/>
	<!-- head -->
	<use href="defs.svg#face_neutral" transform="translate(25.464 12.456) scale(0.989)" fill="#FFDC5D" ts:skin="skin" ts:gender="neutral"/>
	<ellipse cx="9.805" cy="15.9355" rx="1.639" ry="2.6225" fill="#FFDC5D" ts:skin="skin" ts:gender="male"/><ellipse cx="26.194" cy="15.9355" rx="1.639" ry="2.6225" fill="#FFDC5D" ts:skin="skin" ts:gender="male"/>
	<path d="M18 7c-5 0-8 2-8 5s0 9 2 12 4 3 6 3 4 0 6-3 2-9 2-12-3-5-8-5z" fill="#FFDC5D" ts:skin="skin" ts:gender="male"/>
	<path d="M9.675 15.718c0-5.834 3.676-10.563 8.211-10.563 4.533 0 8.209 4.729 8.209 10.563 0 5.833-3.676 10.285-8.209 10.285-4.534 0-8.211-4.452-8.211-10.285" fill="#FFDC5D" ts:skin="skin" ts:gender="female"/>
	<!-- hair -->
	<path d="M18.821 3.118c.859.07 2.492-1.259 4.177-.741-1.037.821.282 1.908 1.076 2.469.469.331 2.76.29 3.115.686-1.729.778-.878 1.75-.575 2.494.384.945.563 1.949.563 2.942 0 3.604-.706 5.047-1.412 3.604-.706-1.441-1.356-3.368-1.356-3.368s-4.292.485-5.704-.957l.503 1.796s-1.396-.332-2.909-2.319l-.519 1.772s-.971-.477-2.723-1.969c0 0-2.118 1.442-2.824 5.046-.196 1.001-1.412 0-1.412-3.604 0-1.214.037-2.696.519-3.908.347-.873 1.514-1.745.045-3.085 1.642-.735 3.307.718 4.344.823.544-.868 2.87-3.366 3.824-3.589-.173 1.081.292 1.829 1.268 1.908z" fill="#FFAC33" ts:skin="hair" ts:gender="male"/>
	<path d="M21 10s1 4 3 6 1 6 1 6 2-3 2-7-3-9-3-9-3-3-10-2c0 0 2 0 3 1 0 0-7-1-10 4 0 0 2-2 5-1 0 0-2 1-3 5s1 8 1 8 3-11 11-11z" fill="#FFAC33" ts:skin="hair" ts:gender="female"/>
	<!-- shoulders -->
	<path d="M31.647 28.5c-.788-1.299-4.892-1.5-7.81-1.5-.973 0-2.919 1.851-5.837 1.851S13.136 27 12.163 27c-2.919 0-7.022.201-7.81 1.5-1.457 2.4 1.945 3.5 3.89 3.5 1.946 0 5.644-1 9.757-1s7.811 1 9.757 1c1.945 0 5.347-1.1 3.89-3.5z" fill="#BE1931" ts:gender="neutral"/>
	<path d="M33 29c-.81-1.299-6-2-9-2-1 0-3 3.063-6 3.063S13 27 12 27c-3 0-8.19.701-9 2-1.497 2.4 4 3 6 3s4.773-1 9-1 7 1 9 1 7.497-.6 6-3z" fill="#BE1931" ts:gender="male"/>
	<path d="M30.647 29.5c-.788-1.299-3.892-2.5-6.81-2.5-.973 0-2.919 1.851-5.837 1.851S13.136 27 12.163 27c-2.919 0-6.022 1.201-6.81 2.5-1.457 2.4.945 2.5 2.89 2.5 1.946 0 5.644-1 9.757-1s7.811 1 9.757 1c1.945 0 4.347-.1 2.89-2.5z" fill="#BE1931" ts:gender="female"/>
	<!-- mask -->
	<path d="M18 13l5-1 1-2 2 2-1 3 1 2-2 2-1 2-1-2-4-2-4 2-1 2-1-2-2-2 1-2-1-3 2-2 1 2z" fill="#BE1931"/>
	<!-- eyes -->
	<rect x="13.231" y="15.153" width="2.538" height="1.693" rx="0.8465" fill="#000000" ts:gender="neutral,female"/><rect x="20.231" y="15.154" width="2.538" height="1.692" rx="0.8465" ry="0.846" fill="#000000" ts:gender="neutral,female"/>
	<rect x="12.5" y="14.5" width="3" height="2" rx="1" fill="#000000" ts:gender="male"/><rect x="20.5" y="14.5" width="3" height="2" rx="1" fill="#000000" ts:gender="male"/>
	<!-- nose -->
	<use href="defs.svg#nose_female2" x="17.9325" y="20.0" fill="#C1694F" ts:skin="nose" ts:gender="neutral,female"/>
	<use href="defs.svg#nose_male2" x="18.0" y="19.0" fill="#C1694F" ts:skin="nose" ts:gender="male"/>
	<!-- mouth -->
	<path d="M 20.834,21.622 c 0.464,-0.202 0.485,0.081 0.203,0.687 c -0.236,0.505 -0.671,1.134 -1.252,1.134 l -0.068,-0.003 c -0.006,0 -0.007,0.003 -0.013,0.003 h -4.204 c -0.275,0 -0.5,-0.225 -0.5,-0.5 s 0.225,-0.5 0.5,-0.5 h 2.225 c 1.131,0 2.417,-0.52 3.109,-0.821 Z" fill="#C1694F" ts:skin="nose" ts:gender="neutral,female"/>
	<path d="M 20.834,21.179 c 0.464,-0.201 0.485,0.081 0.203,0.686 c -0.236,0.506 -0.671,1.135 -1.252,1.135 l -0.068,-0.003 c -0.006,0 -0.007,0.003 -0.013,0.003 h -4.204 c -0.275,0 -0.5,-0.225 -0.5,-0.5 s 0.225,-0.5 0.5,-0.5 h 2.226 c 1.13,0 2.417,-0.52 3.108,-0.821 Z" fill="#C1694F" ts:skin="nose" ts:gender="male"/>
	<!-- symbol -->
	<path d="M12 36l-2-3 8 2 8-2-2 3z" fill="#99AAB5"/>
	<path d="M18 32l2 1-2 3-2-3z" fill="#99AAB5"/>
	<!-- spikes -->
	<path d="M4.84700000,29.53100000 c.214.332 3.412-.078 3.43-.51.018-.431-1.679-2.47-2.21-2.362-.53.109-1.433 2.54-1.22 2.872z M9.385 26.228c.362-.058 1.368 1.423 1.344 1.714-.024.291-2.196.478-2.331.248-.136-.23.625-1.904.987-1.962z M29.92300000,26.66000000 c-.531-.108-2.228 1.93-2.21 2.362.018.431 3.217.842 3.43.51.214-.333-.69-2.764-1.22-2.872z M27.59300000,28.19000000 c-.135.23-2.307.043-2.331-.248-.024-.291.982-1.772 1.344-1.714.361.058 1.123 1.732.987 1.962z" fill="#99AAB5" ts:gender="neutral"/>
	<path d="M5.818 25.881c.691-.07 2.528 2.7 2.45 3.153-.078.454-4.212.618-4.443.25-.231-.368 1.302-3.333 1.993-3.403z M8.12900000,27.62300000 c.173.27 3.225.117 3.28-.219.054-.336-1.324-2.367-1.834-2.31-.51.056-1.619 2.258-1.446 2.529z M32.16100000,29.28400000 c-.23.369-4.364.204-4.443-.25-.078-.454 1.759-3.223 2.45-3.153.692.07 2.224 3.035 1.993 3.403z M26.41100000,25.09400000 c-.51-.057-1.888 1.975-1.834 2.31.054.336 3.106.489 3.28.219.173-.271-.936-2.473-1.446-2.529z" fill="#99AAB5" ts:gender="male"/>
	<path d="M5.84700000,29.53100000 c.214.332 3.412-.078 3.43-.51.018-.431-1.679-2.47-2.21-2.362-.53.109-1.433 2.54-1.22 2.872z M10.385 26.228c.362-.058 1.368 1.423 1.344 1.714-.024.291-2.196.478-2.331.248-.136-.23.625-1.904.987-1.962z M28.92300000,26.66000000 c-.531-.108-2.228 1.93-2.21 2.362.018.431 3.217.842 3.43.51.214-.333-.69-2.764-1.22-2.872z M26.59300000,28.19000000 c-.135.23-2.307.043-2.331-.248-.024-.291.982-1.772 1.344-1.714.361.058 1.123 1.732.987 1.962z" fill="#99AAB5" ts:gender="female"/>
</svg>
