<svg viewBox="0 0 36 36" xmlns="http://www.w3.org/2000/svg" xmlns:ts="data:,a">
	<!-- chalkboard -->
	<rect x="0" y="0" width="30" height="30" rx="4" fill="#D99E82"/>
	<rect x="2" y="2" width="26" height="26" rx="2" fill="#5C913B"/>
	<!-- writing -->
	<path d="M7.515 8.898c-.08.096-.184.24-.184.408 0 .368.272.528.624.528h2.67c.304 0 .576-.16.576-.528s-.271-.528-.624-.528H9.114c.679-.855 1.919-1.958 1.919-3.07 0-1.015-.792-1.663-1.775-1.663s-1.879.807-1.879 1.815c0 .311.2.583.584.583.768 0 .328-1.295 1.247-1.295.328 0 .576.288.576.616 0 .288-.136.536-.28.744-.608.879-1.327 1.599-1.991 2.39zm-1.307 5.433H5.049v-1.16c0-.288-.184-.479-.48-.479-.295 0-.479.192-.479.479v1.16H2.931c-.296 0-.48.192-.48.479 0 .288.184.48.48.48H4.09v1.159c0 .288.184.479.479.479.296 0 .48-.191.48-.479V15.29h1.159c.296 0 .48-.192.48-.48 0-.287-.184-.479-.48-.479zm4.369 1.447H9.113c.68-.855 1.919-1.958 1.919-3.07 0-1.015-.792-1.663-1.775-1.663s-1.879.808-1.879 1.815c0 .311.2.583.583.583.768 0 .328-1.295 1.248-1.295.328 0 .576.288.576.616 0 .288-.136.536-.28.744-.608.879-1.327 1.599-1.991 2.391-.08.096-.184.24-.184.408 0 .368.272.528.624.528h2.67c.304 0 .576-.16.576-.528 0-.369-.271-.529-.623-.529zm.84 3.192H3.083c-.276 0-.5-.224-.5-.5s.224-.5.5-.5h8.333c.276 0 .5.224.5.5.001.276-.223.5-.499.5z" fill="#FFF"/>
	<!-- back hair -->
	<path d="M21.944 5.069c4.106 0 10.948 2.053 10.948 10.948s0 10.948-2.053 10.948c-2.054 0-4.79-2.053-8.896-2.053-4.105 0-6.784 2.053-8.895 2.053-2.287 0-2.053-8.211-2.053-10.948.002-8.895 6.844-10.948 10.949-10.948" fill="#FFAC33" ts:skin="hair" ts:gender="female"/>
	<path d="M25.731 3.323c-1.925-.623-6.455-.453-7.588 1.019-2.944.057-6.398 2.718-6.851 6.228-.448 3.475.551 5.088.906 7.701.403 2.96 2.067 3.907 3.397 4.303 1.914 2.529 3.949 2.421 7.366 2.421 6.672 0 9.85-4.464 10.131-12.047.17-4.585-2.521-8.059-7.361-9.625z" fill="#FFAC33" ts:skin="hair" ts:gender="neutral"/>
	<!-- body -->
	<path d="M36 36v-2c0-3.314-2.686-6-6-6H14c-3.313 0-6 2.686-6 6v2h28z" fill="#CCD6DD" ts:gender="neutral,male" ts:gender-color="#E1E8ED,"/>
	<path d="M35 36v-3.5c0-3.314-3.685-5.5-7-5.5H16c-3.313 0-7 2.186-7 5.5V36h26z" fill="#9266CC" ts:gender="female"/>
	<path d="M22.073 30.805s3.297.891 4.545 1.307c.16.053-.951-2.108-.951-2.108h-7.453s-.679 1.542-1.071 2.197c1.96-.624 4.798-1.485 4.798-1.485" fill="#99AAB5" ts:gender="neutral"/>
	<!-- unused -->
	<!-- <path d="M17 27h9.875s-1.256 3.5-4.938 3.5S17 27 17 27" fill="#292F33" ts:gender="female"/> -->
	<!-- neck -->
	<path d="M17.64 28.101c.774.562 1.206 1.644 2.3 1.911.326.702.746 1.635 1.122 2.476.355.795 1.486.783 1.825-.02.355-.84.755-1.767 1.074-2.456 1.105-.446 1.611-1.339 2.399-1.911V24.29h-8.72v3.811z" fill="#FFDC5D" ts:skin="skin" ts:gender="neutral"/>
	<path d="M17.64 28.101c1.744 1.268 2.848 1.55 4.36 1.55 1.512 0 2.615-.283 4.359-1.55V24.29h-8.72v3.811z" fill="#FFDC5D" ts:skin="skin" ts:gender="male"/>
	<path d="M18.328 27.02c0 1.48 2.172 2.48 3.672 2.48s3.66-1 3.66-2.48v-3.205h-7.332v3.205z" fill="#FFDC5D" ts:skin="skin" ts:gender="female"/>
	<path d="M17.632 25.973c1.216 1.374 2.724 1.746 4.364 1.746 1.639 0 3.146-.373 4.363-1.746v-3.491h-8.728v3.491z" fill="#F9CA55" ts:skin="dark" ts:gender="neutral,male"/>
	<path d="M18.321 25.179c1.023 1.155 2.291 1.468 3.669 1.468 1.379 0 2.647-.312 3.67-1.468v-2.936h-7.339v2.936z" fill="#F9CA55" ts:skin="dark" ts:gender="female"/>
	<!-- face -->
	<path d="M29.547 13.273c-.646-.894-1.472-1.614-3.284-1.868.68.311 1.331 1.387 1.416 1.982.085.595.17 1.076-.368.481-2.155-2.382-4.502-1.444-6.827-2.899-1.624-1.016-2.119-2.141-2.119-2.141s-.198 1.5-2.661 3.029c-.714.443-1.566 1.43-2.038 2.888-.34 1.048-.234 1.982-.234 3.578 0 4.66 3.841 8.578 8.578 8.578s8.578-3.953 8.578-8.578c-.002-2.898-.305-4.031-1.041-5.05z" fill="#FFDC5D" ts:skin="skin" ts:gender="neutral"/>
	<path d="M15.444 15.936c0 1.448-.734 2.622-1.639 2.622s-1.639-1.174-1.639-2.622.734-2.623 1.639-2.623c.905-.001 1.639 1.174 1.639 2.623m16.389 0c0 1.448-.733 2.622-1.639 2.622-.905 0-1.639-1.174-1.639-2.622s.733-2.623 1.639-2.623c.906-.001 1.639 1.174 1.639 2.623" fill="#FFDC5D" ts:skin="skin" ts:gender="male"/>
	<path d="M13.477 16.959c0-5.589 3.816-10.121 8.523-10.121s8.522 4.532 8.522 10.121S26.707 27.08 22 27.08c-4.706 0-8.523-4.531-8.523-10.121" fill="#FFDC5D" ts:skin="skin" ts:gender="male"/>
	<path d="M13.734 15.717c0-5.834 3.676-10.563 8.21-10.563 4.534 0 8.211 4.729 8.211 10.563 0 5.833-3.677 10.286-8.211 10.286-4.534 0-8.21-4.452-8.21-10.286" fill="#FFDC5D" ts:skin="skin" ts:gender="female"/>
	<path d="M22 3.48c5.648 0 9.178 4.168 9.178 7.641s-.706 4.863-1.412 3.473l-1.412-2.778s-4.235 0-5.647-1.39c0 0 2.118 4.168-2.118 0 0 0 .706 2.779-3.53-.694 0 0-2.118 1.389-2.824 4.862-.196.964-1.412 0-1.412-3.473C12.822 7.648 15.646 3.48 22 3.48" fill="#FFAC33" ts:skin="hair" ts:gender="male"/>
	<path d="M11.725 19c-.021-1-.044-.224-.044-.465 0-3.422 2.053.494 2.053-1.943 0-2.439 1.368-2.683 2.736-4.051.685-.685 2.053-2.026 2.053-2.026s3.421 2.067 6.158 2.067c2.736 0 5.474 1.375 5.474 4.112s2.053-1.584 2.053 1.837c0 .244-.022-.531-.04.469h.718c.007-2 .007-1.924.007-3.202 0-8.895-6.843-12.207-10.948-12.207S10.998 6.848 10.998 15.743c0 .793-.02 1.257.008 3.257h.719z" fill="#FFAC33" ts:skin="hair" ts:gender="female"/>
	<path d="M15.444 15.936c0 1.448-.734 2.622-1.639 2.622s-1.639-1.174-1.639-2.622.734-2.623 1.639-2.623c.905-.001 1.639 1.174 1.639 2.623m16.389 0c0 1.448-.733 2.622-1.639 2.622-.905 0-1.639-1.174-1.639-2.622s.733-2.623 1.639-2.623c.906-.001 1.639 1.174 1.639 2.623" fill="#FFDC5D" ts:skin="skin" ts:gender="female"/>
	<!-- moustache -->
	<path d="M26.525 21.346l-1.268-.274c-.404-.094-1.173-.072-1.535-.072h-3.689c-.362 0-1.131-.022-1.536.071l-1.266.274c-.348.101-.55.393-.45.74.082.288.345.441.63.441.059 0 .12-.026.18-.042l1.267-.371c-.143.191-.181.446-.066.676.115.228.347.36.587.36.099 0 .199-.024.293-.071l1.034-.518c.022.215.139.414.346.518.094.046.195.069.293.069.241 0 .473-.134.587-.363l.068-.138-.053.138c.114.229.224.363.465.363.098 0 .198-.023.292-.069.207-.104.323-.303.347-.518l1.033.518c.095.047.195.071.293.071.241 0 .472-.132.587-.36.114-.229.076-.484-.066-.676l1.266.371c.059.016.121.042.181.042.285 0 .547-.152.63-.441.099-.347-.102-.639-.45-.739zz" fill="#FFAC33" ts:skin="hair" ts:gender="male"/>
	<rect x="17.242" y="14.511" width="1.906" height="2.859" rx="0.953" fill="#662113" ts:skin="eyes2" ts:gender="neutral"/><rect x="24.868" y="14.511" width="1.906" height="2.859" rx="0.953" fill="#662113" ts:skin="eyes2" ts:gender="neutral"/>
	<rect x="17" y="14" width="2" height="3" rx="1" fill="#662113" ts:skin="eyes" ts:gender="male"/><rect x="25" y="14" width="2" height="3" rx="1" fill="#662113" ts:skin="eyes" ts:gender="male"/>
	<rect x="17.762" y="15.349" width="1.693" height="2.537" rx="0.8465" ry="0.846" fill="#662113" ts:skin="eyes" ts:gender="female"/><rect x="24.527" y="15.349" width="1.692" height="2.537" rx="0.846" fill="#662113" ts:skin="eyes" ts:gender="female"/>
	<!-- nose -->
	<rect x="20.578" y="19.753" width="2.86" height="0.954" rx="0.477" fill="#C1694F" ts:skin="nose" ts:gender="neutral"/>
	<rect x="20.5" y="18.25" width="3" height="1.5" rx="0.75" fill="#C1694F" ts:skin="nose" ts:gender="male"/>
	<rect x="20.723" y="19.5" width="2.537" height="1" rx="0.423" ry="0.4235" fill="#C1694F" ts:skin="nose" ts:gender="female"/>
	<!-- mouth -->
	<path d="M22.134 24.686c-2.754 0-3.6-.705-3.741-.848-.256-.256-.256-.671 0-.927.248-.248.646-.255.902-.023.052.037.721.487 2.839.487 2.2 0 2.836-.485 2.842-.49.256-.255.657-.243.913.015.256.256.242.683-.014.938-.142.143-.987.848-3.741.848" fill="#C1694F" ts:skin="nose" ts:gender="neutral"/>
	<path d="M21.944 23.543c-1.605 0-2.446-.794-2.536-.885-.268-.267-.268-.7 0-.967.266-.265.692-.267.96-.007.035.032.553.491 1.576.491 1.039 0 1.557-.473 1.577-.492.273-.256.703-.248.963.02.26.269.26.691-.004.955-.089.091-.929.885-2.536.885" fill="#DF1F32" ts:gender="female"/>
	<!-- collar shadow -->
	<path d="M21.94 30.883s3.381 2.494 4.094 2.777c.156.062-.367-3.656-.367-3.656h-7.453s-.524 3.781-.235 3.625c.64-.342 3.961-2.746 3.961-2.746" fill="#99AAB5" ts:gender="male"/>
	<path d="M22 30.222s3.381 2.494 4.094 2.777c.156.062-.367-3.656-.367-3.656h-7.453s-.523 3.781-.234 3.625c.64-.342 3.96-2.746 3.96-2.746" fill="#744EAA" ts:gender="female"/>
	<path d="M21 30h2v6h-2z" fill="#744EAA" ts:gender="female"/>
	<!-- tie -->
	<path d="M23.252 33.441s.375-.625.531-.906c.182-.328.453-1.57.453-1.57l-2.188-.961c0-.008-.16.006-.16.006l-.184.041-.172.062c-.219.07.094.008.094.016l-1.975.836s.287 1.242.471 1.57c.156.281.527.906.527.906s-.752.562-1.035 2.564h4.667c-.279-1.595-1.029-2.564-1.029-2.564" fill="#BE1931" ts:gender="male"/>
	<path d="M21.955 30.691c.389-.021 1.543.771 1.422 1.25-.461 1.828-.85 1.391-1.391 1.391-.611 0-.965.473-1.391-1.312-.093-.387.798-1.297 1.36-1.329m2.031 5.313h-4.023s.541-2.166 2.018-2.166c1.476 0 2.005 2.166 2.005 2.166" fill="#DD2E44" ts:gender="male"/>
	<!-- collar -->
	<path d="M17.229 26.629c.565.566 2.71 3.383 2.71 3.383s-1.188.695-2.608 2.004c-.516.476-1.35.055-1.287-.644.121-1.349.249-2.909.225-3.534-.011-.303.69-1.481.96-1.209m9.433 0c-.565.566-2.71 3.383-2.71 3.383s1.188.695 2.608 2.004c.516.476 1.35.055 1.287-.644-.121-1.349-.249-2.909-.225-3.534.012-.303-.689-1.481-.96-1.209" fill="#F5F8FA" ts:gender="neutral"/>
	<path d="M17.229 26.629c.565.566 4.71 3.383 4.71 3.383s-2.125 1.242-4.086 3.535c-.195.23-1.542-4.625-1.584-5.709-.011-.303.69-1.481.96-1.209m9.441 0c-.566.566-4.709 3.383-4.709 3.383s2.125 1.242 4.084 3.535c.195.23 1.541-4.625 1.582-5.709.012-.303-.687-1.481-.957-1.209" fill="#F5F8FA" ts:gender="male"/>
	<path d="M17.291 25.917C17.855 26.483 22 29.3 22 29.3s-2.125 1.242-4.086 3.535c-.195.23-1.543-4.625-1.584-5.709-.012-.303.69-1.48.961-1.209m9.439 0c-.566.566-4.709 3.383-4.709 3.383s2.125 1.242 4.084 3.535c.195.23 1.541-4.625 1.582-5.709.012-.303-.687-1.48-.957-1.209" fill="#CBB7EA" ts:gender="female"/>
	<!-- buttons -->
	<circle cx="22" cy="31.5" fill="#CBB7EA" r="1" ts:gender="female"/>
	<circle cx="22" cy="34.5" fill="#CBB7EA" r="1" ts:gender="female"/>
</svg>
