<svg viewBox="0 0 36 36" xmlns="http://www.w3.org/2000/svg" xmlns:ts="data:,a">
	<!-- chalkboard -->
	<rect x="0" y="0" width="30" height="30" rx="4" fill="#D99E82"/>
	<rect x="2" y="2" width="26" height="26" rx="2" fill="#5C913B"/>
	<!-- writing -->
	<path d="M7.515 8.898c-.08.096-.184.24-.184.408 0 .368.272.528.624.528h2.67c.304 0 .576-.16.576-.528s-.271-.528-.624-.528H9.114c.679-.855 1.919-1.958 1.919-3.07 0-1.015-.792-1.663-1.775-1.663s-1.879.807-1.879 1.815c0 .311.2.583.584.583.768 0 .328-1.295 1.247-1.295.328 0 .576.288.576.616 0 .288-.136.536-.28.744-.608.879-1.327 1.599-1.991 2.39zm-1.307 5.433H5.049v-1.16c0-.288-.184-.479-.48-.479-.295 0-.479.192-.479.479v1.16H2.931c-.296 0-.48.192-.48.479 0 .288.184.48.48.48H4.09v1.159c0 .288.184.479.479.479.296 0 .48-.191.48-.479V15.29h1.159c.296 0 .48-.192.48-.48 0-.287-.184-.479-.48-.479zm4.369 1.447H9.113c.68-.855 1.919-1.958 1.919-3.07 0-1.015-.792-1.663-1.775-1.663s-1.879.808-1.879 1.815c0 .311.2.583.583.583.768 0 .328-1.295 1.248-1.295.328 0 .576.288.576.616 0 .288-.136.536-.28.744-.608.879-1.327 1.599-1.991 2.391-.08.096-.184.24-.184.408 0 .368.272.528.624.528h2.67c.304 0 .576-.16.576-.528 0-.369-.271-.529-.623-.529zm.84 3.192H3.083c-.276 0-.5-.224-.5-.5s.224-.5.5-.5h8.333c.276 0 .5.224.5.5.001.276-.223.5-.499.5z" fill="#FFF"/>
	<!-- back hair -->
	<use href="defs.svg#hair_neutral" x="25.731" y="3.323" fill="#FFAC33" ts:skin="hair" ts:gender="neutral"/>
	<use href="defs.svg#hair_back_female" x="21.944" y="5.069" fill="#FFAC33" ts:skin="hair" ts:gender="female"/>
	<!-- body -->
	<path d="M36 36v-2c0-3.314-2.686-6-6-6H14c-3.313 0-6 2.686-6 6v2h28z" fill="#CCD6DD" ts:gender="neutral,male" ts:gender-color="#E1E8ED,"/>
	<path d="M35 36v-3.5c0-3.314-3.685-5.5-7-5.5H16c-3.313 0-7 2.186-7 5.5V36h26z" fill="#9266CC" ts:gender="female"/>
	<path d="M22.073 30.805s3.297.891 4.545 1.307c.16.053-.951-2.108-.951-2.108h-7.453s-.679 1.542-1.071 2.197c1.96-.624 4.798-1.485 4.798-1.485" fill="#99AAB5" ts:gender="neutral"/>
	<!-- unused -->
	<!-- <path d="M17 27h9.875s-1.256 3.5-4.938 3.5S17 27 17 27" fill="#292F33" ts:gender="female"/> -->
	<!-- neck -->
	<path d="M17.64 28.101c.774.562 1.206 1.644 2.3 1.911.326.702.746 1.635 1.122 2.476.355.795 1.486.783 1.825-.02.355-.84.755-1.767 1.074-2.456 1.105-.446 1.611-1.339 2.399-1.911V24.29h-8.72v3.811z" fill="#FFDC5D" ts:skin="skin" ts:gender="neutral"/>
	<path d="M17.64 28.101c1.744 1.268 2.848 1.55 4.36 1.55 1.512 0 2.615-.283 4.359-1.55V24.29h-8.72v3.811z" fill="#FFDC5D" ts:skin="skin" ts:gender="male"/>
	<path d="M18.328 27.02c0 1.48 2.172 2.48 3.672 2.48s3.66-1 3.66-2.48v-3.205h-7.332v3.205z" fill="#FFDC5D" ts:skin="skin" ts:gender="female"/>
	<path d="M17.632 25.973c1.216 1.374 2.724 1.746 4.364 1.746 1.639 0 3.146-.373 4.363-1.746v-3.491h-8.728v3.491z" fill="#F9CA55" ts:skin="dark" ts:gender="neutral,male"/>
	<path d="M18.321 25.179c1.023 1.155 2.291 1.468 3.669 1.468 1.379 0 2.647-.312 3.67-1.468v-2.936h-7.339v2.936z" fill="#F9CA55" ts:skin="dark" ts:gender="female"/>
	<!-- face -->
	<use href="defs.svg#face_neutral" x="29.547" y="13.273" fill="#FFDC5D" ts:skin="skin" ts:gender="neutral"/>
	<use href="defs.svg#face_male" x="22" y="16.959" fill="#FFDC5D" ts:skin="skin" ts:gender="male"/>
	<use href="defs.svg#face_female" x="13.734" y="15.717" fill="#FFDC5D" ts:skin="skin" ts:gender="female"/>
	<!-- hair -->
	<use href="defs.svg#hair_male" x="22" y="3.48" fill="#FFAC33" ts:skin="hair" ts:gender="male"/>
	<use href="defs.svg#hair_front_female" x="21.944" y="5.069" fill="#FFAC33" ts:skin="hair" ts:gender="female"/>
	<use href="defs.svg#ears_female" x="22" y="15.9355" fill="#FFDC5D" ts:skin="skin" ts:gender="female"/>
	<!-- moustache -->
	<use href="defs.svg#moustache1" x="26.525" y="21.346" fill="#FFAC33" ts:skin="hair" ts:gender="male"/>
	<!-- eyes -->
	<rect x="17.242" y="14.511" width="1.906" height="2.859" rx="0.953" fill="#662113" ts:skin="eyes2" ts:gender="neutral"/><rect x="24.868" y="14.511" width="1.906" height="2.859" rx="0.953" fill="#662113" ts:skin="eyes2" ts:gender="neutral"/>
	<use href="defs.svg#eyes_male" x="22" y="15.5" fill="#662113" ts:skin="eyes" ts:gender="male"/>
	<rect x="17.762" y="15.349" width="1.693" height="2.537" rx="0.8465" ry="0.846" fill="#662113" ts:skin="eyes" ts:gender="female"/><rect x="24.527" y="15.349" width="1.692" height="2.537" rx="0.846" fill="#662113" ts:skin="eyes" ts:gender="female"/>
	<!-- nose -->
	<use href="defs.svg#nose_neutral2" x="22.008" y="20.23" fill="#C1694F" ts:skin="nose" ts:gender="neutral"/>
	<use href="defs.svg#nose_male2" x="22.0" y="19.0" fill="#C1694F" ts:skin="nose" ts:gender="male"/>
	<use href="defs.svg#nose_female2" x="21.9915" y="20.0" ry="0.4235" fill="#C1694F" ts:skin="nose" ts:gender="female"/>
	<!-- mouth -->
	<use href="defs.svg#mouth_neutral" x="22.134" y="24.686" fill="#C1694F" ts:skin="nose" ts:gender="neutral"/>
	<use href="defs.svg#mouth_female" x="21.944" y="23.543" fill="#DF1F32" ts:gender="female"/>
	<!-- collar shadow -->
	<path d="M21.94 30.883s3.381 2.494 4.094 2.777c.156.062-.367-3.656-.367-3.656h-7.453s-.524 3.781-.235 3.625c.64-.342 3.961-2.746 3.961-2.746" fill="#99AAB5" ts:gender="male"/>
	<path d="M22 30.222s3.381 2.494 4.094 2.777c.156.062-.367-3.656-.367-3.656h-7.453s-.523 3.781-.234 3.625c.64-.342 3.96-2.746 3.96-2.746" fill="#744EAA" ts:gender="female"/>
	<path d="M21 30h2v6h-2z" fill="#744EAA" ts:gender="female"/>
	<!-- tie -->
	<path d="M23.252 33.441s.375-.625.531-.906c.182-.328.453-1.57.453-1.57l-2.188-.961c0-.008-.16.006-.16.006l-.184.041-.172.062c-.219.07.094.008.094.016l-1.975.836s.287 1.242.471 1.57c.156.281.527.906.527.906s-.752.562-1.035 2.564h4.667c-.279-1.595-1.029-2.564-1.029-2.564" fill="#BE1931" ts:gender="male"/>
	<path d="M21.955 30.691c.389-.021 1.543.771 1.422 1.25-.461 1.828-.85 1.391-1.391 1.391-.611 0-.965.473-1.391-1.312-.093-.387.798-1.297 1.36-1.329m2.031 5.313h-4.023s.541-2.166 2.018-2.166c1.476 0 2.005 2.166 2.005 2.166" fill="#DD2E44" ts:gender="male"/>
	<!-- collar -->
	<path d="M17.229 26.629c.565.566 2.71 3.383 2.71 3.383s-1.188.695-2.608 2.004c-.516.476-1.35.055-1.287-.644.121-1.349.249-2.909.225-3.534-.011-.303.69-1.481.96-1.209m9.433 0c-.565.566-2.71 3.383-2.71 3.383s1.188.695 2.608 2.004c.516.476 1.35.055 1.287-.644-.121-1.349-.249-2.909-.225-3.534.012-.303-.689-1.481-.96-1.209" fill="#F5F8FA" ts:gender="neutral"/>
	<path d="M17.229 26.629c.565.566 4.71 3.383 4.71 3.383s-2.125 1.242-4.086 3.535c-.195.23-1.542-4.625-1.584-5.709-.011-.303.69-1.481.96-1.209m9.441 0c-.566.566-4.709 3.383-4.709 3.383s2.125 1.242 4.084 3.535c.195.23 1.541-4.625 1.582-5.709.012-.303-.687-1.481-.957-1.209" fill="#F5F8FA" ts:gender="male"/>
	<path d="M17.291 25.917C17.855 26.483 22 29.3 22 29.3s-2.125 1.242-4.086 3.535c-.195.23-1.543-4.625-1.584-5.709-.012-.303.69-1.48.961-1.209m9.439 0c-.566.566-4.709 3.383-4.709 3.383s2.125 1.242 4.084 3.535c.195.23 1.541-4.625 1.582-5.709.012-.303-.687-1.48-.957-1.209" fill="#CBB7EA" ts:gender="female"/>
	<!-- buttons -->
	<circle cx="22" cy="31.5" fill="#CBB7EA" r="1" ts:gender="female"/>
	<circle cx="22" cy="34.5" fill="#CBB7EA" r="1" ts:gender="female"/>
</svg>
