<svg viewBox="0 0 36 36" xmlns="http://www.w3.org/2000/svg" xmlns:ts="data:,a">
	<!-- back hair -->
	<use href="defs.svg#hair_neutral" x="24.731" y=".531" fill="#FFAC33" ts:skin="hair" ts:gender="neutral"/>
	<use href="defs.svg#hair_back_female" x="21.944" y="1.569" fill="#FFAC33" ts:skin="hair" ts:gender="female"/>
	<!-- shirt -->
	<path d="M35 36v-5c0-3.314-2.686-6-6-6H13c-3.313 0-6 2.686-6 6v5h28z" fill="#FA743E" ts:gender="neutral,male" ts:gender-color="#77B255,"/>
	<path d="M35 36v-7c0-3.315-3.685-5.5-7-5.5H16c-3.313 0-7 2.185-7 5.5v7h26z" fill="#9266CC" ts:gender="female"/>
	<!-- neck -->
	<path d="M16.64 25.106c0 .894 2.36 1.993 4.36 1.993s4.359-1.099 4.359-1.992V21.29h-8.72v3.816z" fill="#FFDC5D" ts:skin="skin" ts:gender="neutral,male"/>
	<path d="M18.328 23.52C18.328 25 20.5 25.5 22 25.5s3.66-.5 3.66-1.98v-3.205h-7.332v3.205z" fill="#FFDC5D" ts:skin="skin" ts:gender="female"/>
	<path d="M16.632 23.121c1.216 1.374 2.724 1.746 4.364 1.746 1.639 0 3.146-.373 4.363-1.746V19.63h-8.728v3.491z" fill="#F9CA55" ts:skin="dark" ts:gender="neutral"/>
	<path d="M16.632 22.973c1.216 1.374 2.724 1.746 4.364 1.746 1.639 0 3.146-.373 4.363-1.746v-3.491h-8.728v3.491z" fill="#F9CA55" ts:skin="dark" ts:gender="male"/>
	<path d="M18.321 21.679c1.023 1.155 2.291 1.468 3.669 1.468 1.379 0 2.647-.312 3.67-1.468v-2.936h-7.339v2.936z" fill="#F9CA55" ts:skin="dark" ts:gender="female"/>
	<!-- face -->
	<use href="defs.svg#face_neutral" x="28.547" y="10.481" fill="#FFDC5D" ts:skin="skin" ts:gender="neutral"/>
	<use href="defs.svg#face_male" x="21" y="13.959" fill="#FFDC5D" ts:skin="skin" ts:gender="male"/>
	<use href="defs.svg#face_female" x="13.734" y="12.217" fill="#FFDC5D" ts:skin="skin" ts:gender="female"/>
	<!-- hair -->
	<path d="M21 0c5.648 0 9.178 4.648 9.178 8.121 0 3.473-.706 4.863-1.412 3.473l-1.412-2.778s-4.235 0-5.647-1.39c0 0 2.118 4.168-2.118 0 0 0 .706 2.779-3.53-.694 0 0-2.118 1.389-2.824 4.862-.196.964-1.412 0-1.412-3.473C11.822 4.648 14.646 0 21 0" fill="#FFAC33" ts:skin="hair" ts:gender="male"/> <!-- special -->
	<use href="defs.svg#hair_front_female" x="21.944" y="1.569" fill="#FFAC33" ts:skin="hair" ts:gender="female"/>
	<use href="defs.svg#ears_female" x="22" y="13.4355" fill="#FFDC5D" ts:skin="skin" ts:gender="female"/>
	<!-- eyes -->
	<rect x="16.242" y="11.719" width="1.906" height="2.859" rx="0.953" fill="#662113" ts:skin="eyes2" ts:gender="neutral"/><rect x="23.868" y="11.719" width="1.906" height="2.859" rx="0.953" fill="#662113" ts:skin="eyes2" ts:gender="neutral"/>
	<rect x="16" y="11" width="2" height="3" rx="1" fill="#662113" ts:skin="eyes" ts:gender="male"/><rect x="24" y="11" width="2" height="3" rx="1" fill="#662113" ts:skin="eyes" ts:gender="male"/>
	<rect x="17.762" y="11.849" width="1.693" height="2.537" rx="0.8465" ry="0.846" fill="#662113" ts:skin="eyes" ts:gender="female"/><rect x="24.527" y="11.849" width="1.692" height="2.537" rx="0.846" fill="#662113" ts:skin="eyes" ts:gender="female"/>
	<!-- nose -->
	<rect x="19.578" y="16.96" width="2.86" height="0.954" rx="0.477" fill="#C1694F" ts:skin="nose" ts:gender="neutral"/>
	<rect x="19.5" y="15.25" width="3" height="1.5" rx="0.75" fill="#C1694F" ts:skin="nose" ts:gender="male"/>
	<rect x="20.723" y="16" width="2.537" height="1" rx="0.423" ry="0.4235" fill="#C1694F" ts:skin="nose" ts:gender="female"/>
	<!-- mouth -->
	<use href="defs.svg#mouth_neutral" x="21.134" y="21.894" fill="#C1694F" ts:skin="nose" ts:gender="neutral"/>
	<use href="defs.svg#mouth_neutral" x="21" y="20.802" fill="#C1694F" ts:skin="nose" ts:gender="male"/>
	<use href="defs.svg#mouth_female" x="21.944" y="20.043" fill="#DF1F32" ts:gender="female"/>
	<!-- laptop -->
	<rect x="21" y="34" width="12" height="2" rx="1" fill="#E1E8ED"/>
	<path d="M20.24 22H3.759c-1.524 0-3.478.771-2.478 3.531l3.072 8.475C4.354 34.006 4.75 36 7 36h20l-4-11.24c-.438-1.322-1.235-2.76-2.76-2.76z" fill="#E1E8ED"/>
	<path d="M19.24 22H2.759c-1.524 0-3.478.771-2.478 3.531l3.072 8.475C3.354 34.006 3.75 36 6 36h20l-4-11.24c-.438-1.322-1.235-2.76-2.76-2.76z" fill="#99AAB5"/>
	<path d="M14.019 29.283c.524 1.572.099 3.13-.949 3.479-1.048.35-2.322-.641-2.846-2.213s-.099-3.13.949-3.479c1.048-.349 2.323.641 2.846 2.213z" fill="#E1E8ED"/>
	<rect x="2.25" y="23.25" width="17.5" height="1.5" rx="0.75" fill="#E1E8ED"/>
</svg>
