<svg viewBox="0 0 36 36" xmlns="http://www.w3.org/2000/svg" xmlns:ts="data:,a">
	<!-- back hair -->
	<use href="defs.svg#hair_neutral1" transform="translate(21.011 24.109) scale(0.953)" ts:skin="hair" ts:gender="neutral"/>
	<use href="defs.svg#hair_back_female" x="21.944" y="1.569" ts:skin="hair" ts:gender="female"/>
	<!-- shirt -->
	<path d="M35 36v-5c0-3.314-2.686-6-6-6H13c-3.313 0-6 2.686-6 6v5h28z" fill="#FA743E" ts:gender="neutral,male" ts:gender-color="#77B255,"/>
	<path d="M35 36v-7c0-3.315-3.685-5.5-7-5.5H16c-3.313 0-7 2.185-7 5.5v7h26z" fill="#9266CC" ts:gender="female"/>
	<!-- neck -->
	<path d="M16.64 25.106c0 .894 2.36 1.993 4.36 1.993s4.359-1.099 4.359-1.992V21.29h-8.72v3.816z" ts:skin="skin" ts:gender="neutral,male"/>
	<path d="M18.328 23.52C18.328 25 20.5 25.5 22 25.5s3.66-.5 3.66-1.98v-3.205h-7.332v3.205z" ts:skin="skin" ts:gender="female"/>
	
	<use href="defs.svg#neck_shadow_male" x="20.996" y="24.867" ts:skin="dark" ts:gender="neutral"/>
	<use href="defs.svg#neck_shadow_male" x="20.996" y="24.719" ts:skin="dark" ts:gender="male"/>
	<use href="defs.svg#neck_shadow_female" x="21.99" y="23.147" ts:skin="dark" ts:gender="female"/>
	<!-- face -->
	<use href="defs.svg#face_neutral1" transform="translate(21.011 24.109) scale(0.953)" ts:skin="skin" ts:gender="neutral"/> <!-- i didnt need to scale the face/hair here, but face_neutral just wasnt lining up nicely and neutral1 is easier to align-->
	<use href="defs.svg#face_male" x="21" y="13.959" ts:skin="skin" ts:gender="male"/>
	<use href="defs.svg#face_female" x="13.734" y="12.217" ts:skin="skin" ts:gender="female"/>
	<!-- hair -->
	<path d="M21 0c5.648 0 9.178 4.648 9.178 8.121 0 3.473-.706 4.863-1.412 3.473l-1.412-2.778s-4.235 0-5.647-1.39c0 0 2.118 4.168-2.118 0 0 0 .706 2.779-3.53-.694 0 0-2.118 1.389-2.824 4.862-.196.964-1.412 0-1.412-3.473C11.822 4.648 14.646 0 21 0z" ts:skin="hair" ts:gender="male"/> <!-- special -->
	<use href="defs.svg#hair_front_female" x="21.944" y="1.569" ts:skin="hair" ts:gender="female"/>
	<use href="defs.svg#ears_female" x="22" y="13.4355" ts:skin="skin" ts:gender="female"/>
	<!-- eyes -->
	<use href="defs.svg#eyes_male" transform="translate(21.008 13.1485) scale(0.953)" ts:skin="eyes" ts:gender="neutral"/>
	<use href="defs.svg#eyes_male" x="21" y="12.5" ts:skin="eyes" ts:gender="male"/>
	<use href="defs.svg#eyes_female" x="21.99075" y="13.1175" ts:skin="eyes" ts:gender="female"/>
	<!-- nose -->
	<use href="defs.svg#nose_neutral" x="21.008" y="17.437" ts:skin="nose" ts:gender="neutral"/>
	<use href="defs.svg#nose_male" x="21" y="16" ts:skin="nose" ts:gender="male"/>
	<use href="defs.svg#nose_female" x="21.9915" y="16.5" ry="0.4235" ts:skin="nose" ts:gender="female"/>
	<!-- mouth -->
	<use href="defs.svg#mouth_neutral" x="21.134" y="21.894" ts:skin="mouth" ts:gender="neutral"/>
	<use href="defs.svg#mouth_neutral" x="21" y="20.802" ts:skin="mouth" ts:gender="male"/>
	<use href="defs.svg#mouth_female" x="21.944" y="20.043" ts:skin="mouth" ts:gender="female"/>
	<!-- laptop -->
	<rect x="21" y="34" width="12" height="2" rx="1" fill="#E1E8ED"/>
	<path d="M20.24 22H3.759c-1.524 0-3.478.771-2.478 3.531l3.072 8.475C4.354 34.006 4.75 36 7 36h20l-4-11.24c-.438-1.322-1.235-2.76-2.76-2.76z" fill="#E1E8ED"/>
	<path d="M19.24 22H2.759c-1.524 0-3.478.771-2.478 3.531l3.072 8.475C3.354 34.006 3.75 36 6 36h20l-4-11.24c-.438-1.322-1.235-2.76-2.76-2.76z" fill="#99AAB5"/>
	
	<ellipse rx="2" ry="3" transform="translate(12.1215 29.916) rotate(-18.44)" fill="#E1E8ED"/>
	
	<rect x="2.25" y="23.25" width="17.5" height="1.5" rx="0.75" fill="#E1E8ED"/>
</svg>
