<svg viewBox="0 0 36 36" xmlns="http://www.w3.org/2000/svg" xmlns:ts="data:,a">
	<!-- shirt -->
	<use href="defs.svg#shoulders_male" x="18" fill="#292F33"/>
	<!-- collar -->
	<path d="M18 12C4 12 3 17 3 17c0 4 7 7 7 11 2 3 8 4 8 4s6-1 8-4c0-4 7-7 7-11 0 0-3.667-5-15-5z" fill="#BE1931" ts:gender="male"/>
	<path d="M18 12C6.667 12 2 17 2 17c0 2 4.761 9.393 7 11.617C10.897 30.502 15.113 35 18 35s7.103-4.498 9-6.383C29.239 26.393 34 19 34 17c0 0-4.667-5-16-5z" fill="#BE1931" ts:gender="neutral"/>
	<path d="M 18,35 s -7.103,-4.498 -9,-6.383 c -2.239,-2.224 -7,-9.617 -7,-11.617 c 0,0 4.667,-5 16,-5 s 16,5 16,5 c 0,2 -4.761,9.393 -7,11.617 c -1.897,1.885 -9,6.383 -9,6.383 Z" fill="#BE1931" ts:gender="female"/>
	<!-- back hair -->
	<use href="defs.svg#hair_neutral" transform="translate(21.289 4.83) scale(.916)" fill="#292F33" ts:gender="neutral"/>
	
	<path d="M18.004 4.067c4.35 0 11.601 2.175 11.601 11.601 0 9.427 0 11.602-2.175 11.602s-5.076-2.175-9.426-2.175c-4.351 0-7.19 2.175-9.427 2.175-2.424 0-2.176-8.701-2.176-11.602.001-9.426 7.253-11.601 11.603-11.601" fill="#292F33" ts:gender="female"/><!-- hack, doubled + flipped hair to make it symmetrical .. nnnn -->
	<path d="M17.996 4.067c-4.35 0-11.601 2.175-11.601 11.601 0 9.427 0 11.602 2.175 11.602s5.076-2.175 9.426-2.175c4.351 0 7.19 2.175 9.427 2.175 2.424 0 2.176-8.701 2.176-11.602-.001-9.426-7.253-11.601-11.603-11.601" fill="#292F33" ts:gender="female"/>
	<!-- skin -->
	<path d="M22.239 28c0 1.92-1.564 7-4.239 7s-4.239-5.019-4.239-7h8.478z" ts:skin="skin" ts:gender="neutral"/>
	<path d="M22.239 28c0 1.92-4.239 7-4.239 7s-4.239-5.019-4.239-7h8.478z" ts:skin="skin" ts:gender="female"/>
	<!-- neck -->
	<path d="M13.64 28.101c1.744 1.267 2.848 1.962 4.36 1.962 1.511 0 2.616-.696 4.36-1.962V24.29h-8.72v3.811z" ts:skin="skin" ts:gender="male"/>
	<path d="M14.291 28.246c1.553 1.129 2.959 1.039 3.709 1.039s2.325.09 3.697-1.006l.012-4.387h-7.418v4.354z" ts:skin="skin" ts:gender="neutral,female"/>
	<!-- neck shadow -->
	<use href="defs.svg#neck_shadow_female" x="17.996" y="27.041" ts:skin="dark" ts:gender="neutral"/>
	<use href="defs.svg#neck_shadow_male" x="17.996" y="27.719" ts:skin="dark" ts:gender="male"/>
	<path d="M14.291 26.024c1.031 1.224 3.022 1.336 3.699 1.336s2.67-.111 3.701-1.336v-3.112h-7.4v3.112z" ts:skin="dark" ts:gender="female"/>
	<!-- face -->
	<use href="defs.svg#face_neutral1" transform="translate(18.006 26.418) scale(0.8727)" ts:skin="skin" ts:gender="neutral"/>
	<path d="M9.478 16.96c0-5.589 3.816-10.121 8.522-10.121s8.522 4.531 8.522 10.121c0 5.589-3.816 10.12-8.522 10.12s-8.522-4.531-8.522-10.12z" ts:skin="skin" ts:gender="male"/>
	<path d="M9.24 15.351c0-6.182 3.896-11.194 8.702-11.194 4.804 0 8.699 5.012 8.699 11.194 0 6.181-3.895 11.238-8.699 11.238-4.806 0-8.702-5.057-8.702-11.238" ts:skin="skin" ts:gender="female"/>
	<!-- hair 2 -->
	<use href="defs.svg#hair_front_female" transform="translate(17.97, 4.068) scale(1.06)" fill="#292F33" ts:gender="female"/> <!-- not sure.. -->
	<!-- ears -->
	<path d="M26 16l-.47.129s-1.192 3.401 0 3.997C28.194 21.457 29 16.332 29 15c0-1-3 1-3 1zm-16 0l.47.129s1.192 3.401 0 3.997C7.806 21.457 7 16.332 7 15c0-1 3 1 3 1z" ts:skin="skin" ts:gender="male"/>
	<path d="M11.031 14.595c.503.048.662 3.214-.529 3.81-2.664 1.332-3.471-3.793-3.471-5.125 0-1 2.438 1.167 4 1.315zm13.938 0c-.503.048-.662 3.214.529 3.81 2.664 1.332 3.471-3.793 3.471-5.125 0-1-2.438 1.167-4 1.315z" ts:skin="skin" ts:gender="neutral"/>
	<path d="M26 14.28l-.47.129s-1.192 3.401 0 3.997C28.194 19.737 29 14.612 29 13.28c0-1-3 1-3 1zm-16 0l.47.129s1.192 3.401 0 3.997C7.806 19.737 7 14.612 7 13.28c0-1 3 1 3 1z" ts:skin="skin" ts:gender="female"/>
	<!-- hair -->
	<path d="M18 3c-8 0-9 4-9 10s1.757.97 2 0c1-4 5-5 7-1 2-4 6-3 7 1 .243.97 2 6 2 0S26 3 18 3z" fill="#292F33" ts:gender="male"/>
	
	<!-- eyes -->
	<use href="defs.svg#eyes_male" transform="translate(18 16.3815) scale(.8727)" fill="#DD2E44" ts:gender="neutral"/>
	<use href="defs.svg#eyes_male" x="18" y="15.5" fill="#DD2E44" ts:gender="male"/>
	<use href="defs.svg#eyes_male" transform="translate(17.99 16.305) scale(.896)" fill="#DD2E44" ts:gender="female"/>
	<!-- nose -->
	<use href="defs.svg#nose_neutral1" transform="translate(18.005 20.309) scale(.8727)" ts:skin="nose" ts:gender="neutral"/>
	<use href="defs.svg#nose_male" x="18" y="19" ts:skin="nose" ts:gender="male"/>
	<use href="defs.svg#nose_female" transform="translate(17.991 19.8895) scale(1.059)" ts:skin="nose" ts:gender="female"/>
	<!-- todo: go back and get the un-merged layers for the mouth, from the female/neutral variant -->
	<!-- mouth -->
	<path d="M21.755 21.515c-.257-.256-.657-.268-.913-.013-.006.005-.643.49-2.842.49-2.118 0-2.787-.449-2.839-.487-.257-.232-.654-.225-.902.024-.256.256-.256.671 0 .927.036.036.118.186.265.389-.033.156-.031.32.009.481.008.034.02.067.036.098l1.012 2.072c.084.172.258.281.449.281h.009c.194-.003.369-.119.448-.296l.484-1.085c.31.062.647.104 1.029.104.367 0 .694-.037.996-.096l.479 1.075c.079.177.254.293.448.296h.009c.191 0 .365-.109.449-.281l1.012-2.072c.015-.031.027-.064.036-.098.036-.144.032-.29.008-.432.167-.226.265-.4.304-.438.256-.256.27-.683.014-.939z" ts:skin="nose" ts:gender="neutral"/>
	<path d="M21.755 22.015c-.257-.256-.657-.268-.913-.013-.006.005-.643.49-2.842.49-2.118 0-2.787-.449-2.839-.487-.257-.232-.654-.225-.902.024-.256.256-.256.671 0 .927.036.036.118.186.265.389-.033.156-.031.32.009.481.008.034.02.067.036.098l1.012 2.072c.084.172.258.281.449.281h.009c.194-.003.369-.119.448-.296l.484-1.085c.31.062.647.104 1.029.104.367 0 .694-.037.996-.096l.479 1.075c.079.177.254.293.448.296h.009c.191 0 .365-.109.449-.281l1.012-2.072c.015-.031.027-.064.036-.098.036-.144.032-.29.008-.432.167-.226.265-.4.304-.438.256-.256.27-.683.014-.939z" ts:skin="nose" ts:gender="male"/>
	<path d="M21.815 21.515c-.257-.256-.657-.268-.913-.013-.006.005-.643.49-2.842.49-2.118 0-2.787-.449-2.839-.487-.257-.232-.654-.225-.902.024-.256.256-.256.671 0 .927.036.036.118.186.265.389-.033.156-.031.32.009.481.008.034.02.067.036.098l1.012 2.072c.084.172.258.281.449.281h.009c.194-.003.369-.119.448-.296l.484-1.085c.31.062.647.104 1.029.104.367 0 .694-.037.996-.096l.479 1.075c.079.177.254.293.448.296h.009c.191 0 .365-.109.449-.281l1.012-2.072c.015-.031.027-.064.036-.098.036-.144.032-.29.008-.432.167-.226.265-.4.304-.438.256-.256.27-.683.014-.939z" ts:skin="nose" ts:gender="female"/>
	<!-- teeth -->
	<path d="M19.586 23.188l.809-.188c.368 0 .639.346.549.703l-1.012 2.072-.88-1.973c-.08-.321.212-.568.534-.614zm-3.211 0L15.566 23c-.368 0-.639.346-.549.703l1.012 2.072.88-1.973c.08-.321-.212-.568-.534-.614z" fill="#F5F8FA" ts:gender="male"/>
	<path d="M19.586 22.692l.809-.188c.368 0 .639.346.549.703l-1.012 2.072-.88-1.973c-.08-.321.212-.568.534-.614zm-3.211 0L15.566 22.504c-.368 0-.639.346-.549.703l1.012 2.072.88-1.973c.08-.321-.212-.568-.534-.614z" fill="#F5F8FA" ts:gender="neutral"/>
	<path d="M19.646 22.692l.809-.188c.368 0 .639.346.549.703l-1.012 2.072-.88-1.973c-.08-.321.212-.568.534-.614zm-3.211 0L15.626 22.504c-.368 0-.639.346-.549.703l1.012 2.072.88-1.973c.08-.321-.212-.568-.534-.614z" fill="#F5F8FA" ts:gender="female"/>
	<!-- bow tie -->
	<path d="M22.635 30.033l-2.905 1.295c-.184-.199-.44-.328-.73-.328h-2c-.29 0-.546.129-.73.328l-2.905-1.295c-.693-.173-1.365.351-1.365 1.066v2c0 .796.748 1.38 1.521 1.187l2.967-1.449c.152.094.321.163.512.163h2c.191 0 .36-.069.512-.163l2.967 1.449c.773.193 1.521-.391 1.521-1.187v-2c0-.715-.672-1.239-1.365-1.066z" fill="#E1E8ED" ts:gender="male"/>
	<path d="M15.517 33.325c-.025-.049-.607-1.195-.144-2.373l.931.367c-.294.747.097 1.537.101 1.545l-.888.461zm5.004 0l-.889-.461c.003-.005.396-.798.102-1.545l.93-.367c.464 1.178-.118 2.324-.143 2.373z" fill="#99AAB5" ts:gender="male"/>
</svg>
