<svg viewBox="0 0 36 36" xmlns="http://www.w3.org/2000/svg" xmlns:ts="data:,a">
	<!-- shirt -->
	<use href="defs.svg#shoulders_male" x="18" fill="#292F33"/>
	<!-- collar -->
	<path d="M18 12C4 12 3 17 3 17c0 4 7 7 7 11 2 3 8 4 8 4s6-1 8-4c0-4 7-7 7-11 0 0-3.667-5-15-5z" fill="#BE1931" ts:gender="male"/>
	<path d="M18 12C6.667 12 2 17 2 17c0 2 4.761 9.393 7 11.617C10.897 30.502 15.113 35 18 35s7.103-4.498 9-6.383C29.239 26.393 34 19 34 17c0 0-4.667-5-16-5z" fill="#BE1931" ts:gender="neutral"/>
	<path d="M 18,35 s -7.103,-4.498 -9,-6.383 c -2.239,-2.224 -7,-9.617 -7,-11.617 c 0,0 4.667,-5 16,-5 s 16,5 16,5 c 0,2 -4.761,9.393 -7,11.617 c -1.897,1.885 -9,6.383 -9,6.383 Z" fill="#BE1931" ts:gender="female"/>
	<!-- back hair -->
	<use href="defs.svg#hair_neutral" transform="translate(21.289 4.83) scale(.916)" fill="#292F33" ts:gender="neutral"/>
	
	<path d="M 18.004,4.067 c 4.35,0 11.601,2.175 11.601,11.601 c 0,9.427 0,11.602 -2.175,11.602 s -5.076,-2.175 -9.426,-2.175 c -4.351,0 -7.19,2.175 -9.427,2.175 c -2.424,0 -2.176,-8.701 -2.176,-11.602 c 0.001,-9.426 7.253,-11.601 11.603,-11.601 Z M 17.996,4.067 c 4.35,0 11.602,2.175 11.603,11.601 c 0,2.901 0.248,11.602 -2.176,11.602 c -2.237,0 -5.076,-2.175 -9.427,-2.175 c -4.35,0 -7.251,2.175 -9.426,2.175 s -2.175,-2.175 -2.175,-11.602 c 0,-9.426 7.251,-11.601 11.601,-11.601 Z" fill="#292F33" ts:gender="female"/><!-- hack, doubled + flipped hair to make it symmetrical .. nnnn -->
	<!-- skin -->
	<path d="M22.239 28c0 1.92-1.564 7-4.239 7s-4.239-5.019-4.239-7h8.478z" ts:skin="skin" ts:gender="neutral"/>
	<path d="M22.239 28c0 1.92-4.239 7-4.239 7s-4.239-5.019-4.239-7h8.478z" ts:skin="skin" ts:gender="female"/>
	<!-- neck -->
	<path d="M13.64 28.101c1.744 1.267 2.848 1.962 4.36 1.962 1.511 0 2.616-.696 4.36-1.962V24.29h-8.72v3.811z" ts:skin="skin" ts:gender="male"/>
	<path d="M14.291 28.246c1.553 1.129 2.959 1.039 3.709 1.039s2.325.09 3.697-1.006l.012-4.387h-7.418v4.354z" ts:skin="skin" ts:gender="neutral,female"/>
	<!-- neck shadow -->
	<use href="defs.svg#neck_shadow_female" x="17.996" y="27.041" ts:skin="dark" ts:gender="neutral"/>
	<use href="defs.svg#neck_shadow_male" x="17.996" y="27.719" ts:skin="dark" ts:gender="male"/>
	<path d="M14.291 26.024c1.031 1.224 3.022 1.336 3.699 1.336s2.67-.111 3.701-1.336v-3.112h-7.4v3.112z" ts:skin="dark" ts:gender="female"/>
	<!-- face -->
	<use href="defs.svg#face_neutral1" transform="translate(18.006 26.418) scale(0.8727)" ts:skin="skin" ts:gender="neutral"/>
	<ellipse cx="18" cy="16.9595" rx="8.522" ry="10.1205" ts:skin="skin" ts:gender="male"/>
	
	<ellipse cx="17.9405" cy="15.351" rx="8.7" ry="11.238" ts:skin="skin" ts:gender="female"/>
	
	
	<!-- hair 2 -->
	<use href="defs.svg#hair_front_female" transform="translate(17.97, 4.068) scale(1.06)" fill="#292F33" ts:gender="female"/> <!-- not sure.. -->
	<!-- ears -->
	<path d="M11.031 14.595c.503.048.662 3.214-.529 3.81-2.664 1.332-3.471-3.793-3.471-5.125 0-1 2.438 1.167 4 1.315zm13.938 0c-.503.048-.662 3.214.529 3.81 2.664 1.332 3.471-3.793 3.471-5.125 0-1-2.438 1.167-4 1.315z" ts:skin="skin" ts:gender="neutral"/>
	<use href="defs.svg#ears_vampire" x="18" y="16" ts:skin="skin" ts:gender="male"/>
	<use href="defs.svg#ears_vampire" x="18" y="14.28" ts:skin="skin" ts:gender="female"/>
	<!-- hair -->
	<path d="M18 3c-8 0-9 4-9 10s1.757.97 2 0c1-4 5-5 7-1 2-4 6-3 7 1 .243.97 2 6 2 0S26 3 18 3z" fill="#292F33" ts:gender="male"/>
	<!-- eyes -->
	<use href="defs.svg#eyes_male" transform="translate(18 16.3815) scale(.8727)" fill="#DD2E44" ts:gender="neutral"/>
	<use href="defs.svg#eyes_male" x="18" y="15.5" fill="#DD2E44" ts:gender="male"/>
	<use href="defs.svg#eyes_male" transform="translate(17.99 16.305) scale(.896)" fill="#DD2E44" ts:gender="female"/>
	<!-- nose -->
	<use href="defs.svg#nose_neutral1" transform="translate(18.005 20.309) scale(.8727)" ts:skin="nose" ts:gender="neutral"/>
	<use href="defs.svg#nose_male" x="18" y="19" ts:skin="nose" ts:gender="male"/>
	<use href="defs.svg#nose_female" transform="translate(17.991 19.8895) scale(1.059)" ts:skin="nose" ts:gender="female"/>
	<!-- mouth -->
	<use href="defs.svg#mouth_vampire" x="18" y="24.5" ts:skin="nose" ts:gender="neutral"/>
	<use href="defs.svg#mouth_vampire" x="18" y="25" ts:skin="nose" ts:gender="male"/>
	<use href="defs.svg#mouth_vampire" x="18.06" y="24.5" ts:skin="nose" ts:gender="female"/>
	<!-- teeth -->
	<use href="defs.svg#teeth_vampire" x="18" y="24.5" fill="#F5F8FA" ts:gender="neutral"/>
	<use href="defs.svg#teeth_vampire" x="18" y="25" fill="#F5F8FA" ts:gender="male"/>
	<use href="defs.svg#teeth_vampire" x="18.06" y="24.5" fill="#F5F8FA" ts:gender="female"/>
	<!-- bow tie -->
	<path d="M22.635 30.033l-2.905 1.295c-.184-.199-.44-.328-.73-.328h-2c-.29 0-.546.129-.73.328l-2.905-1.295c-.693-.173-1.365.351-1.365 1.066v2c0 .796.748 1.38 1.521 1.187l2.967-1.449c.152.094.321.163.512.163h2c.191 0 .36-.069.512-.163l2.967 1.449c.773.193 1.521-.391 1.521-1.187v-2c0-.715-.672-1.239-1.365-1.066z" fill="#E1E8ED" ts:gender="male"/>
	<path d="M15.517 33.325c-.025-.049-.607-1.195-.144-2.373l.931.367c-.294.747.097 1.537.101 1.545l-.888.461zm5.004 0l-.889-.461c.003-.005.396-.798.102-1.545l.93-.367c.464 1.178-.118 2.324-.143 2.373z" fill="#99AAB5" ts:gender="male"/>
</svg>
