<svg viewBox="0 0 36 36" xmlns="http://www.w3.org/2000/svg">
	<!-- body -->
	<path d="M30.08 31.069s-.77.477-1.539 0c-.77-.477-.311-1.246-.311-1.246-.867-.075-.958-.878-.643-1.604C27.081 28.08 26.551 28 26 28H10c-3.313 0-6 2.687-6 6v2h28v-2c0-.62-.094-1.219-.269-1.782-1.684.642-1.651-1.149-1.651-1.149z" fill="#D99E82" data-gender="male"/>
	<path d="M29.08 31.069s-.77.477-1.539 0c-.77-.477-.311-1.246-.311-1.246-.867-.075-.958-.878-.643-1.604C26.081 28.08 25.551 28 25 28H11c-3.313 0-6 2.687-6 6v2h26v-2c0-.62-.094-1.219-.269-1.782-1.684.642-1.651-1.149-1.651-1.149z" fill="#FA743E" data-gender="neutral,female" data-gender-color="#D99E82|#3B88C3"/>
	<!-- clothing tears -->
	<path d="M6.61700000,33.96200000 c.319-.251.872-1.996 1.869-2.411s3.206-.957 3.173.09-1.34 2.485-1.068 3.018c-.98.476-4.987.099-3.974-.697z" fill="#DD551F" data-gender="neutral,female" data-gender-color="#662113|#662113"/>
	<path d="M5.617 33.962c.319-.251.872-1.996 1.869-2.411s3.206-.957 3.173.09-1.34 2.485-1.068 3.018c-.98.476-4.987.099-3.974-.697z" fill="#662113" data-gender="male"/>
	<!-- armpit -->
	<path d="M25.929 33.341c-.127 1.929-.83 2.659-.83 2.659h1.385s.189-2.975-.555-2.659z " fill="#DD551F" data-gender="neutral,female" data-gender-color="#662113|#662113"/>
	<path d="M26.929 33.341c-.127 1.929-.83 2.659-.83 2.659h1.385s.189-2.975-.555-2.659z" fill="#662113" data-gender="male"/>
	<!-- back hair -->
	<path d="M21.226 5.683c-1.729-.559-5.798-.407-6.815.915-2.644.051-5.747 2.441-6.154 5.594-.403 3.121.495 4.57.814 6.916.362 2.659 1.856 3.509 3.051 3.865 1.719 2.271 3.547 2.174 6.615 2.174 5.992 0 8.847-4.01 9.099-10.82.154-4.118-2.263-7.237-6.61-8.644z" fill="#292F33" data-gender="neutral"/>
	<path d="M29.656 21.816c-.469-.527-.771-2.129-.764-2.66.002-.118-.005-.202-.014-.271.008-.613.014-1.254.014-1.959 0-8.895-6.843-10.947-10.947-10.947-4.106 0-10.949 2.053-10.949 10.947 0 .276-.002.62-.004.994-.007.05-.012.122-.011.236.013 1.156-.825 2.16-.919 3.125s.444.409.594.128c.078-.147.204-.471.359-.647.089 3.296.476 7.111 2.035 7.111 2.111 0 4.79-2.053 8.896-2.053 4.104 0 6.196 1.259 8.249 1.259.749 0 1.309-.173 1.721-.819.141.204.284.378.398.457.312.219.688.219.58-.134-.107-.353-.424-.741-.331-2.419v-.011c.096-.626.168-1.39.22-2.299.108.104.215.196.312.27.405.314 1.03.22.561-.308z" fill="#292F33" data-gender="female"/>
	<!-- skin -->
	<path d="M7.238 33.802c.319-.251.651-1.746 1.648-2.16s2.806-1.047 2.772 0-1.23 1.685-2.21 2.16c-.979.475-3.222.795-2.21 0z" fill="#CCD6DD" data-gender="neutral,female"/>
	<path d="M6.238 33.802c.319-.251.651-1.746 1.648-2.16s2.806-1.047 2.772 0-1.23 1.685-2.21 2.16c-.979.475-3.222.795-2.21 0z" fill="#CCD6DD" data-gender="male"/>
	<path d="M14 28h8s-.866 3.069-4 3.069S14 28 14 28z" fill="#CCD6DD" data-gender="neutral"/>
	<path d="M13.64 28.101c1.744 1.267 2.849 3.728 4.36 3.728 1.511 0 2.616-2.462 4.36-3.728V24.29h-8.72v3.811z" fill="#CCD6DD" data-gender="male"/>
	<path d="M14 28h8l-4 5-4-5" fill="#CCD6DD" data-gender="female"/>
	<path d="M14.5 28.518c1.466 1.065 2.792.98 3.5.98s2.194.085 3.488-.949l.012-4.14h-7v4.109z" fill="#CCD6DD" data-gender="neutral,female"/>
	<!-- neck shadow -->
	<path d="M14.483 26.088c.978 1.155 2.19 1.468 3.508 1.468 1.319 0 2.532-.312 3.51-1.468v-2.937h-7.017v2.937z" fill="#99AAB5" data-gender="neutral,female"/>
	<!-- face -->
	<path d="M13.632 25.973C14.848 27.347 16.356 28 17.996 28c1.639 0 3.147-.654 4.364-2.027v-3.491h-8.728v3.491z" fill="#99AAB5" data-gender="male"/>
	<path d="M24.653 14.62c-.58-.803-1.322-1.449-2.95-1.678.61.28 1.195 1.246 1.271 1.78.076.534.153.966-.331.432-1.935-2.139-4.043-1.297-6.132-2.604-1.459-.913-1.903-1.922-1.903-1.922s-.178 1.348-2.39 2.721c-.641.398-1.406 1.285-1.831 2.594-.305.941-.211 1.78-.211 3.214 0 4.186 3.449 7.705 7.705 7.705s7.705-3.55 7.705-7.705c.001-2.605-.272-3.622-.933-4.537z" fill="#CCD6DD" data-gender="neutral"/>
	<path d="M11.444 15.935c0 1.448-.734 2.622-1.639 2.622s-1.639-1.174-1.639-2.622.734-2.623 1.639-2.623c.906.001 1.639 1.175 1.639 2.623z M27.83300000,15.93500000 c0 1.448-.734 2.622-1.639 2.622s-1.639-1.174-1.639-2.622.734-2.623 1.639-2.623c.906.001 1.639 1.175 1.639 2.623z" fill="#CCD6DD" data-gender="male"/>
	<path d="M9.478 16.96c0-5.589 3.816-10.121 8.522-10.121s8.522 4.531 8.522 10.121c0 5.04-5.116 10.12-8.522 10.12S9.478 22 9.478 16.96z" fill="#CCD6DD" data-gender="male"/>
	<path d="M9.758 16.585c0-5.834 3.676-10.563 8.211-10.563 4.533 0 8.209 4.729 8.209 10.563 0 5.833-3.676 10.285-8.209 10.285-4.535 0-8.211-4.452-8.211-10.285" fill="#CCD6DD" data-gender="female"/>
	<!-- eye shadows -->
	<path d="M16.326 18.737l-.655.655c-.765.765-2.016.765-2.781 0-.765-.765-.765-2.016 0-2.781l.655-.655c.765-.765 2.016-.765 2.781 0 .765.765.765 2.016 0 2.781z M20.31000000,19.39100000 l-.655-.655c-.765-.765-.765-2.016 0-2.781.765-.765 2.016-.765 2.781 0l.655.655c.765.765.765 2.016 0 2.781-.765.765-2.016.765-2.781 0z" fill="#99AAB5" data-gender="neutral,female"/>
	<path d="M12.232 17.768c-.778-.778-.778-2.051 0-2.828l.707-.707c.778-.778 2.051-.778 2.828 0 .778.778.778 2.051 0 2.828l-.707.707c-.777.778-2.05.778-2.828 0z M20.23200000,14.23200000 c.778-.778 2.051-.778 2.828 0l.707.707c.778.778.778 2.051 0 2.828-.778.778-2.051.778-2.828 0l-.707-.707c-.778-.777-.778-2.05 0-2.828z" fill="#99AAB5" data-gender="male"/>
	<path d="M13.811 20.784c-1.71 0-3.092-1.357-3.165-1.431-.195-.195-.195-.511 0-.706.195-.195.512-.195.707-.002.018.018 1.773 1.734 3.423.907.247-.125.547-.022.671.224.124.247.023.547-.224.671-.481.241-.958.337-1.412.337z M22.18900000,20.78400000 c-.454 0-.932-.096-1.413-.337-.247-.124-.347-.424-.224-.671.125-.246.424-.347.671-.224 1.657.829 3.406-.89 3.423-.906.195-.195.512-.195.707 0s.195.512 0 .707c-.072.074-1.455 1.431-3.164 1.431z" fill="#9AAAB4" data-gender="male"/>
	<!-- nose -->
	<path d="M18.802 21.409c.252 0 .458-.206.458-.458v-.584c0-.252-.206-.458-.458-.458s-.458.206-.458.458v.584c0 .252.206.458.458.458z M17.18100000,21.40900000 c.252 0 .458-.206.458-.458v-.584c0-.252-.206-.458-.458-.458s-.458.206-.458.458v.584c0 .252.206.458.458.458z" fill="#99AAB5" data-gender="neutral,female"/>
	<path d="M17 20c-.275 0-.5-.225-.5-.5v-1c0-.275.225-.5.5-.5s.5.225.5.5v1c0 .275-.225.5-.5.5z M19,20 c-.275 0-.5-.225-.5-.5v-1c0-.275.225-.5.5-.5s.5.225.5.5v1c0 .275-.225.5-.5.5z" fill="#99AAB5" data-gender="male"/>
	<!-- eyes -->
	<path d="M15.877 17.528c0 .465-.381.846-.847.846h-.845c-.465 0-.846-.381-.846-.846 0-.466.381-.847.846-.847h.845c.467 0 .847.381.847.847m6.765-.001c0 .465-.381.846-.847.846h-.845c-.465 0-.846-.381-.846-.846 0-.465.381-.846.846-.846h.845c.466.001.847.381.847.846" fill="#662113" data-gender="neutral,female"/>
	<path d="M15.5 15.5c0 .55-.45 1-1 1h-1c-.55 0-1-.45-1-1s.45-1 1-1h1c.55 0 1 .45 1 1z M23.5,15.5 c0 .55-.45 1-1 1h-1c-.55 0-1-.45-1-1s.45-1 1-1h1c.55 0 1 .45 1 1z" fill="#662113" data-gender="male"/>
	<!-- mouth -->
	<path d="M17.941 22.4c1.807 0 2.753.794 2.854.885.301.267.301.7 0 .967-.299.265-.779.267-1.081.007-.04-.032-.62-.491-1.773-.491-1.168 0-1.749.473-1.773.492-.308.256-.791.248-1.083-.02-.292-.269-.292-.691.004-.955.101-.091 1.046-.885 2.852-.885" fill="#66757F" data-gender="neutral"/>
	<path d="M18 21.816c-2.754 0-3.6.706-3.741.848-.256.256-.256.671 0 .927.248.248.645.255.902.024.052-.038.721-.487 2.839-.487 2.2 0 2.836.485 2.842.49.255.255.656.243.913-.013.256-.256.242-.684-.014-.94-.141-.143-.987-.849-3.741-.849z" fill="#66757F" data-gender="male"/>
	<path d="M17.941 22.4c1.606 0 2.447.794 2.537.885.268.267.268.7 0 .967-.266.265-.692.267-.961.007-.035-.032-.551-.491-1.576-.491-1.038 0-1.555.473-1.576.492-.273.256-.703.248-.963-.02-.26-.269-.26-.691.004-.955.09-.091.929-.885 2.535-.885" fill="#66757F" data-gender="female"/>
	<!-- collar -->
	<path d="M18.038 31.234s3.344 2.137 4.056 2.422c.156.063-.366-3.656-.366-3.656l-2.415.547-1.317 1.531L17.001 30h-2.727s-.524 3.781-.232 3.625c.638-.342 3.996-2.391 3.996-2.391z" fill="#C1694F" data-gender="male"/>
	<path d="M19.312 30.547c-.027.054-.362.277-.606.765-.24-.125-.512-.237-.816-.312-1.335-.329-2.177-.039-2.177-.039s.213 1.491.396 1.82c.156.281.513.876.513.876S15.958 34 15.677 36h3.886c-.281-1.594-1.078-2.062-1.078-2.062s.829-.629 1.016-.891c.312-.438.392-.808.392-.808s-.051-.062-.145-.159c.21-.09.432-.221.658-.424 1.047-.937-1.094-1.109-1.094-1.109z" fill="#269" data-gender="male"/>
	<path d="M13.292 26.625c.566.566 3.709 3.383 3.709 3.383s-1.126 1.242-3.084 3.534c-.197.23-1.542-4.625-1.583-5.708-.012-.304.687-1.48.958-1.209z " fill="#FFD983" data-gender="male"/>
	<path d="M22.73000000,26.62500000 c-.566.566-3.418 3.922-3.418 3.922s.834.703 2.793 2.995c.197.23 1.542-4.625 1.583-5.708.012-.304-.687-1.48-.958-1.209z" fill="#FFD983" data-gender="male"/>
	<!-- hairs -->
	<path d="M17.7 5.445c1.173-.195 2.067-1.049 2.405-1.461s.228 1.174-.405 1.804-2-.343-2-.343z M13.17600000,6.81800000 c-1.431-.33-2.446-.083-3.012.22s.563-.055 1.994.688 1.018-.908 1.018-.908z M26.08 8.932c1.188.583 1.958 1.547 2.206 2.097s.798.908 1.101.963c.303.055-.248.33-.963 0-.716-.33-1.239-1.134-1.817-1.365-.578-.231-.527-1.695-.527-1.695z M8.288 15.316c-.011 1.218-.561 1.939-.864 2.212-.303.272.881.322 1.321-1.052.44-1.373-.457-1.16-.457-1.16z M12.76300000,12.87300000 c-.55.771-1.101 2.064-1.018 3.193.083 1.128-1.183-.853-.138-2.67s1.156-.523 1.156-.523z" fill="#292F33" data-gender="neutral"/>
	<!-- hair -->
	<path d="M28.719 10.094c.5-.031.5-.5 0-.5s-2.049-.724-2.917-1.506l-.005-.003c-1.879-2.029-4.306-3.105-6.392-3.452.266-.251.49-.499.634-.687.195-.256.272-.674-.195-.421-.5.271-1.763.927-3.28 1.026-.131.009-.227.028-.307.053-.992-.395-2.427-.598-2.89-.537-.303.04-.56.44-.128.516.306.053.596.26.93.703-1.827.731-3.662 2.01-5.022 3.959-.032.023-.058.025-.09.058C8.375 10 6.938 11.906 6.312 12c-.459.069-.531.469-.031.438.268-.017.771.068 1.327-.033-.385 1.246-.612 2.653-.612 4.247 0 .793-.02 1.257.008 3.257h.72c-.021-1-.044-.224-.044-.465 0-3.422 2.053.494 2.053-1.943 0-1.931.86-2.491 1.897-3.317.012.154.028.305.028.473.002.491.466.5.528.094s.315-1.269 1.041-2.052c.633-.626 1.295-1.275 1.295-1.275s.347.209.905.493l.003.002c1.069.541 1.046 2.019 1.292 2.394s.446-.116.595-.594c.086-.276.12-.606.073-.935 1.037.387 2.216.707 3.291.707 2.736 0 5.474 1.375 5.474 4.112 0 2.736 2.053-1.584 2.053 1.837 0 .244-.023-.531-.04.469h.719c.006-2 .006-1.924.006-3.202 0-2.701-.637-4.881-1.631-6.616.598.064 1.173.02 1.457.003z" fill="#292F33" data-gender="female"/>
	<path d="M28.646 9.958c-.833-.188-2.305-1.908-2.843-2.727-.006-.009-.012-.013-.017-.021-1.354-1.85-3.644-3.349-6.622-3.664.158-.261.272-.531.337-.775.122-.46.271-1.653-.417-.861-.575.662-2.406 1.428-2.99 1.661-1.426-.707-3.451-.603-3.906-.384-.562.271-.039.231.312.292.436.075.907.386 1.359.717-1.711.663-2.961 1.73-3.789 2.953l-.004.005c-.61.886-1.695 2.138-2.274 2.346-1.125.403.243.563.812.309.129-.057.261-.116.394-.183-.114.503-.176 1.006-.176 1.495 0 3.473 1.216 4.437 1.412 3.473.706-3.473 2.824-4.863 2.824-4.863 3.213 3.831 2.9.581 2.9.581 5.646 6.542 2.748.113 2.748.113 1.412 1.39 5.648 1.39 5.648 1.39l1.412 2.778c.706 1.39 1.412 0 1.412-3.473 0-.285-.032-.575-.079-.867.425.157.812.215 1.13.225.667.022 1.25-.332.417-.52z" fill="#292F33" data-gender="male"/>
	<!-- ears -->
	<path d="M11.444 17.845c0 1.448-.734 2.622-1.639 2.622s-1.639-1.174-1.639-2.622.734-2.623 1.639-2.623 1.639 1.174 1.639 2.623m16.389 0c0 1.448-.733 2.622-1.639 2.622-.905 0-1.639-1.174-1.639-2.622s.733-2.623 1.639-2.623 1.639 1.174 1.639 2.623" fill="#CCD6DD" data-gender="female"/>
</svg>
